M48
; DRILL file {KiCad (5.1.0)-1} date 5/2/2019 7:51:05 PM
; FORMAT={-:-/ absolute / inch / decimal}
; #@! TF.CreationDate,2019-05-02T19:51:05-07:00
; #@! TF.GenerationSoftware,Kicad,Pcbnew,(5.1.0)-1
; #@! TF.FileFunction,Plated,1,6,PTH
FMAT,2
INCH
T1C0.0040
%
G90
G05
T1
X0.021Y0.309
X0.024Y0.044
X0.031Y0.08
X0.032Y0.107
X0.038Y0.238
X0.042Y0.284
X0.044Y0.02
X0.058Y0.245
X0.058Y0.219
X0.063Y0.043
X0.066Y0.313
X0.0686Y0.1734
X0.073Y0.126
X0.073Y0.075
X0.082Y0.02
X0.085Y0.147
X0.089Y0.118
X0.092Y0.075
X0.101Y0.044
X0.102Y0.31
X0.102Y0.284
X0.109Y0.075
X0.12Y0.02
X0.128Y0.075
X0.139Y0.314
X0.139Y0.043
X0.1411Y0.1483
X0.1476Y0.074
X0.148Y0.1905
X0.149Y0.169
X0.151Y0.249
X0.158Y0.02
X0.165Y0.158
X0.169Y0.248
X0.177Y0.199
X0.177Y0.043
X0.18Y0.28
X0.183Y0.161
X0.187Y0.249
X0.196Y0.02
X0.197Y0.149
X0.203Y0.073
X0.2149Y0.15
X0.215Y0.043
X0.2302Y0.282
X0.2305Y0.1623
X0.236Y0.252
X0.244Y0.151
X0.253Y0.043
X0.258Y0.252
X0.265Y0.196
X0.27Y0.16
X0.272Y0.02
X0.291Y0.043
X0.296Y0.255
X0.314Y0.074
X0.326Y0.168
X0.327Y0.214
X0.328Y0.283
X0.329Y0.043
X0.339Y0.098
X0.348Y0.019
X0.352Y0.112
X0.367Y0.044
X0.369Y0.277
X0.369Y0.24
X0.369Y0.202
X0.369Y0.164
X0.37Y0.126
X0.372Y0.086
X0.386Y0.019
X0.393Y0.182
X0.393Y0.106
X0.394Y0.334
X0.394Y0.297
X0.394Y0.258
X0.394Y0.22
X0.394Y0.145
T0
M30
