G04 #@! TF.GenerationSoftware,KiCad,Pcbnew,(5.1.0)-1*
G04 #@! TF.CreationDate,2019-04-30T21:20:51-07:00*
G04 #@! TF.ProjectId,Miniscope-v4-PYTHON480,4d696e69-7363-46f7-9065-2d76342d5059,rev?*
G04 #@! TF.SameCoordinates,Original*
G04 #@! TF.FileFunction,Copper,L2,Inr*
G04 #@! TF.FilePolarity,Positive*
%FSLAX46Y46*%
G04 Gerber Fmt 4.6, Leading zero omitted, Abs format (unit mm)*
G04 Created by KiCad (PCBNEW (5.1.0)-1) date 2019-04-30 21:20:51*
%MOMM*%
%LPD*%
G04 APERTURE LIST*
%ADD10C,0.355600*%
%ADD11C,0.127000*%
G04 APERTURE END LIST*
D10*
X43657000Y-31264800D03*
X44038000Y-33017400D03*
X34843200Y-32382400D03*
X34767000Y-25651400D03*
X36824400Y-25626000D03*
X35976400Y-29096000D03*
X42564800Y-26311800D03*
X37816499Y-29733600D03*
X37992800Y-28661600D03*
X38983400Y-27175400D03*
X40228000Y-27099200D03*
X42539400Y-28064400D03*
X42514000Y-31087000D03*
X37484797Y-31595003D03*
X36087800Y-31595000D03*
X42691796Y-30579000D03*
X39288200Y-31722000D03*
X35706800Y-27277000D03*
X35706800Y-27937400D03*
X38805600Y-26388000D03*
X35910000Y-25549806D03*
X35300400Y-26286400D03*
X44241200Y-25016400D03*
X35833800Y-32407811D03*
X34919400Y-31468000D03*
X36570374Y-31595000D03*
X41091600Y-29436000D03*
X39691490Y-29690000D03*
X35046400Y-30782200D03*
X44215800Y-30807600D03*
X43555400Y-32382400D03*
X36824400Y-26286400D03*
X40990000Y-27099200D03*
X42065663Y-31611537D03*
X37002187Y-31595000D03*
X44241200Y-25956200D03*
X35351200Y-32992000D03*
X37764200Y-25524400D03*
X36494200Y-30502800D03*
X41752000Y-27022994D03*
X42488600Y-29055000D03*
X38729400Y-28445400D03*
X35198800Y-27454800D03*
X36392600Y-29766200D03*
X40964600Y-28521600D03*
X40080200Y-26337200D03*
X43631600Y-30299600D03*
X37983201Y-31620400D03*
X37764200Y-32407810D03*
X39694600Y-32407810D03*
X41142400Y-32992000D03*
X42590200Y-32407800D03*
X44215800Y-28877200D03*
X38881800Y-29410600D03*
X37281600Y-32992000D03*
X39212000Y-32992000D03*
X40659800Y-32407810D03*
X43072800Y-33017400D03*
X43606200Y-27404000D03*
X36087800Y-30299600D03*
X44241200Y-27912000D03*
X38018200Y-29207400D03*
X43606200Y-28369200D03*
X38424600Y-29486800D03*
X38246800Y-32992000D03*
X39237400Y-29715400D03*
X38729400Y-32407810D03*
X40088478Y-29376516D03*
X41625000Y-32407810D03*
X40431200Y-29664606D03*
X44241200Y-26946800D03*
X38069000Y-27175400D03*
X43606200Y-26464200D03*
X38526200Y-27200800D03*
X44241200Y-29817000D03*
X36799000Y-32382400D03*
X43606200Y-29334400D03*
X36316400Y-32992000D03*
D11*
G36*
X43955123Y-24781622D02*
G01*
X43914817Y-24841945D01*
X43887054Y-24908971D01*
X43872900Y-24980126D01*
X43872900Y-25052674D01*
X43887054Y-25123829D01*
X43914817Y-25190855D01*
X43955123Y-25251178D01*
X44006422Y-25302477D01*
X44066745Y-25342783D01*
X44133771Y-25370546D01*
X44204926Y-25384700D01*
X44277474Y-25384700D01*
X44348629Y-25370546D01*
X44415655Y-25342783D01*
X44468101Y-25307740D01*
X44468101Y-25664860D01*
X44415655Y-25629817D01*
X44348629Y-25602054D01*
X44277474Y-25587900D01*
X44204926Y-25587900D01*
X44133771Y-25602054D01*
X44066745Y-25629817D01*
X44006422Y-25670123D01*
X43955123Y-25721422D01*
X43914817Y-25781745D01*
X43887054Y-25848771D01*
X43872900Y-25919926D01*
X43872900Y-25992474D01*
X43887054Y-26063629D01*
X43914817Y-26130655D01*
X43955123Y-26190978D01*
X44006422Y-26242277D01*
X44066745Y-26282583D01*
X44133771Y-26310346D01*
X44204926Y-26324500D01*
X44277474Y-26324500D01*
X44348629Y-26310346D01*
X44415655Y-26282583D01*
X44468101Y-26247540D01*
X44468101Y-26655460D01*
X44415655Y-26620417D01*
X44348629Y-26592654D01*
X44277474Y-26578500D01*
X44204926Y-26578500D01*
X44133771Y-26592654D01*
X44066745Y-26620417D01*
X44006422Y-26660723D01*
X43955123Y-26712022D01*
X43914817Y-26772345D01*
X43887054Y-26839371D01*
X43872900Y-26910526D01*
X43872900Y-26983074D01*
X43887054Y-27054229D01*
X43914817Y-27121255D01*
X43955123Y-27181578D01*
X44006422Y-27232877D01*
X44066745Y-27273183D01*
X44133771Y-27300946D01*
X44204926Y-27315100D01*
X44277474Y-27315100D01*
X44348629Y-27300946D01*
X44415655Y-27273183D01*
X44468101Y-27238140D01*
X44468101Y-27620660D01*
X44415655Y-27585617D01*
X44348629Y-27557854D01*
X44277474Y-27543700D01*
X44204926Y-27543700D01*
X44133771Y-27557854D01*
X44066745Y-27585617D01*
X44006422Y-27625923D01*
X43955123Y-27677222D01*
X43914817Y-27737545D01*
X43887054Y-27804571D01*
X43872900Y-27875726D01*
X43872900Y-27948274D01*
X43887054Y-28019429D01*
X43914817Y-28086455D01*
X43955123Y-28146778D01*
X44006422Y-28198077D01*
X44066745Y-28238383D01*
X44133771Y-28266146D01*
X44204926Y-28280300D01*
X44277474Y-28280300D01*
X44348629Y-28266146D01*
X44415655Y-28238383D01*
X44468101Y-28203340D01*
X44468101Y-28608646D01*
X44450578Y-28591123D01*
X44390255Y-28550817D01*
X44323229Y-28523054D01*
X44252074Y-28508900D01*
X44179526Y-28508900D01*
X44108371Y-28523054D01*
X44041345Y-28550817D01*
X43981022Y-28591123D01*
X43929723Y-28642422D01*
X43889417Y-28702745D01*
X43861654Y-28769771D01*
X43847500Y-28840926D01*
X43847500Y-28913474D01*
X43861654Y-28984629D01*
X43889417Y-29051655D01*
X43929723Y-29111978D01*
X43981022Y-29163277D01*
X44041345Y-29203583D01*
X44108371Y-29231346D01*
X44179526Y-29245500D01*
X44252074Y-29245500D01*
X44323229Y-29231346D01*
X44390255Y-29203583D01*
X44450578Y-29163277D01*
X44468100Y-29145755D01*
X44468100Y-29525659D01*
X44415655Y-29490617D01*
X44348629Y-29462854D01*
X44277474Y-29448700D01*
X44204926Y-29448700D01*
X44133771Y-29462854D01*
X44066745Y-29490617D01*
X44006422Y-29530923D01*
X43955123Y-29582222D01*
X43914817Y-29642545D01*
X43887054Y-29709571D01*
X43872900Y-29780726D01*
X43872900Y-29853274D01*
X43887054Y-29924429D01*
X43914817Y-29991455D01*
X43955123Y-30051778D01*
X44006422Y-30103077D01*
X44066745Y-30143383D01*
X44133771Y-30171146D01*
X44204926Y-30185300D01*
X44277474Y-30185300D01*
X44348629Y-30171146D01*
X44415655Y-30143383D01*
X44468100Y-30108341D01*
X44468100Y-30539045D01*
X44450578Y-30521523D01*
X44390255Y-30481217D01*
X44323229Y-30453454D01*
X44252074Y-30439300D01*
X44179526Y-30439300D01*
X44108371Y-30453454D01*
X44041345Y-30481217D01*
X43981022Y-30521523D01*
X43929723Y-30572822D01*
X43889417Y-30633145D01*
X43861654Y-30700171D01*
X43847500Y-30771326D01*
X43847500Y-30843874D01*
X43861654Y-30915029D01*
X43889417Y-30982055D01*
X43929723Y-31042378D01*
X43981022Y-31093677D01*
X44041345Y-31133983D01*
X44108371Y-31161746D01*
X44179526Y-31175900D01*
X44252074Y-31175900D01*
X44323229Y-31161746D01*
X44390255Y-31133983D01*
X44450578Y-31093677D01*
X44468100Y-31076155D01*
X44468100Y-33234500D01*
X43370689Y-33234500D01*
X43399183Y-33191855D01*
X43426946Y-33124829D01*
X43441100Y-33053674D01*
X43441100Y-32981126D01*
X43426946Y-32909971D01*
X43399183Y-32842945D01*
X43358877Y-32782622D01*
X43307578Y-32731323D01*
X43247255Y-32691017D01*
X43180229Y-32663254D01*
X43109074Y-32649100D01*
X43036526Y-32649100D01*
X42965371Y-32663254D01*
X42898345Y-32691017D01*
X42838022Y-32731323D01*
X42786723Y-32782622D01*
X42746417Y-32842945D01*
X42718654Y-32909971D01*
X42704500Y-32981126D01*
X42704500Y-33053674D01*
X42718654Y-33124829D01*
X42746417Y-33191855D01*
X42774911Y-33234500D01*
X41420755Y-33234500D01*
X41428477Y-33226778D01*
X41468783Y-33166455D01*
X41496546Y-33099429D01*
X41510700Y-33028274D01*
X41510700Y-32955726D01*
X41496546Y-32884571D01*
X41468783Y-32817545D01*
X41428477Y-32757222D01*
X41377178Y-32705923D01*
X41316855Y-32665617D01*
X41249829Y-32637854D01*
X41178674Y-32623700D01*
X41106126Y-32623700D01*
X41034971Y-32637854D01*
X40967945Y-32665617D01*
X40907622Y-32705923D01*
X40856323Y-32757222D01*
X40816017Y-32817545D01*
X40788254Y-32884571D01*
X40774100Y-32955726D01*
X40774100Y-33028274D01*
X40788254Y-33099429D01*
X40816017Y-33166455D01*
X40856323Y-33226778D01*
X40864045Y-33234500D01*
X39490355Y-33234500D01*
X39498077Y-33226778D01*
X39538383Y-33166455D01*
X39566146Y-33099429D01*
X39580300Y-33028274D01*
X39580300Y-32955726D01*
X39566146Y-32884571D01*
X39538383Y-32817545D01*
X39498077Y-32757222D01*
X39446778Y-32705923D01*
X39386455Y-32665617D01*
X39319429Y-32637854D01*
X39248274Y-32623700D01*
X39175726Y-32623700D01*
X39104571Y-32637854D01*
X39037545Y-32665617D01*
X38977222Y-32705923D01*
X38925923Y-32757222D01*
X38885617Y-32817545D01*
X38857854Y-32884571D01*
X38843700Y-32955726D01*
X38843700Y-33028274D01*
X38857854Y-33099429D01*
X38885617Y-33166455D01*
X38925923Y-33226778D01*
X38933645Y-33234500D01*
X38525155Y-33234500D01*
X38532877Y-33226778D01*
X38573183Y-33166455D01*
X38600946Y-33099429D01*
X38615100Y-33028274D01*
X38615100Y-32955726D01*
X38600946Y-32884571D01*
X38573183Y-32817545D01*
X38532877Y-32757222D01*
X38481578Y-32705923D01*
X38421255Y-32665617D01*
X38354229Y-32637854D01*
X38283074Y-32623700D01*
X38210526Y-32623700D01*
X38139371Y-32637854D01*
X38072345Y-32665617D01*
X38012022Y-32705923D01*
X37960723Y-32757222D01*
X37920417Y-32817545D01*
X37892654Y-32884571D01*
X37878500Y-32955726D01*
X37878500Y-33028274D01*
X37892654Y-33099429D01*
X37920417Y-33166455D01*
X37960723Y-33226778D01*
X37968445Y-33234500D01*
X37559955Y-33234500D01*
X37567677Y-33226778D01*
X37607983Y-33166455D01*
X37635746Y-33099429D01*
X37649900Y-33028274D01*
X37649900Y-32955726D01*
X37635746Y-32884571D01*
X37607983Y-32817545D01*
X37567677Y-32757222D01*
X37516378Y-32705923D01*
X37456055Y-32665617D01*
X37389029Y-32637854D01*
X37317874Y-32623700D01*
X37245326Y-32623700D01*
X37174171Y-32637854D01*
X37107145Y-32665617D01*
X37046822Y-32705923D01*
X36995523Y-32757222D01*
X36955217Y-32817545D01*
X36927454Y-32884571D01*
X36913300Y-32955726D01*
X36913300Y-33028274D01*
X36927454Y-33099429D01*
X36955217Y-33166455D01*
X36995523Y-33226778D01*
X37003245Y-33234500D01*
X36594755Y-33234500D01*
X36602477Y-33226778D01*
X36642783Y-33166455D01*
X36670546Y-33099429D01*
X36684700Y-33028274D01*
X36684700Y-32955726D01*
X36670546Y-32884571D01*
X36642783Y-32817545D01*
X36602477Y-32757222D01*
X36551178Y-32705923D01*
X36490855Y-32665617D01*
X36423829Y-32637854D01*
X36352674Y-32623700D01*
X36280126Y-32623700D01*
X36208971Y-32637854D01*
X36141945Y-32665617D01*
X36081622Y-32705923D01*
X36030323Y-32757222D01*
X35990017Y-32817545D01*
X35962254Y-32884571D01*
X35948100Y-32955726D01*
X35948100Y-33028274D01*
X35962254Y-33099429D01*
X35990017Y-33166455D01*
X36030323Y-33226778D01*
X36038045Y-33234500D01*
X35629555Y-33234500D01*
X35637277Y-33226778D01*
X35677583Y-33166455D01*
X35705346Y-33099429D01*
X35719500Y-33028274D01*
X35719500Y-32955726D01*
X35705346Y-32884571D01*
X35677583Y-32817545D01*
X35637277Y-32757222D01*
X35585978Y-32705923D01*
X35525655Y-32665617D01*
X35458629Y-32637854D01*
X35387474Y-32623700D01*
X35314926Y-32623700D01*
X35243771Y-32637854D01*
X35176745Y-32665617D01*
X35116422Y-32705923D01*
X35065123Y-32757222D01*
X35024817Y-32817545D01*
X34997054Y-32884571D01*
X34982900Y-32955726D01*
X34982900Y-33028274D01*
X34997054Y-33099429D01*
X35024817Y-33166455D01*
X35065123Y-33226778D01*
X35072845Y-33234500D01*
X34499100Y-33234500D01*
X34499100Y-32371537D01*
X35465500Y-32371537D01*
X35465500Y-32444085D01*
X35479654Y-32515240D01*
X35507417Y-32582266D01*
X35547723Y-32642589D01*
X35599022Y-32693888D01*
X35659345Y-32734194D01*
X35726371Y-32761957D01*
X35797526Y-32776111D01*
X35870074Y-32776111D01*
X35941229Y-32761957D01*
X36008255Y-32734194D01*
X36068578Y-32693888D01*
X36119877Y-32642589D01*
X36160183Y-32582266D01*
X36187946Y-32515240D01*
X36202100Y-32444085D01*
X36202100Y-32371537D01*
X36197046Y-32346126D01*
X36430700Y-32346126D01*
X36430700Y-32418674D01*
X36444854Y-32489829D01*
X36472617Y-32556855D01*
X36512923Y-32617178D01*
X36564222Y-32668477D01*
X36624545Y-32708783D01*
X36691571Y-32736546D01*
X36762726Y-32750700D01*
X36835274Y-32750700D01*
X36906429Y-32736546D01*
X36973455Y-32708783D01*
X37033778Y-32668477D01*
X37085077Y-32617178D01*
X37125383Y-32556855D01*
X37153146Y-32489829D01*
X37167300Y-32418674D01*
X37167300Y-32371536D01*
X37395900Y-32371536D01*
X37395900Y-32444084D01*
X37410054Y-32515239D01*
X37437817Y-32582265D01*
X37478123Y-32642588D01*
X37529422Y-32693887D01*
X37589745Y-32734193D01*
X37656771Y-32761956D01*
X37727926Y-32776110D01*
X37800474Y-32776110D01*
X37871629Y-32761956D01*
X37938655Y-32734193D01*
X37998978Y-32693887D01*
X38050277Y-32642588D01*
X38090583Y-32582265D01*
X38118346Y-32515239D01*
X38132500Y-32444084D01*
X38132500Y-32371536D01*
X38361100Y-32371536D01*
X38361100Y-32444084D01*
X38375254Y-32515239D01*
X38403017Y-32582265D01*
X38443323Y-32642588D01*
X38494622Y-32693887D01*
X38554945Y-32734193D01*
X38621971Y-32761956D01*
X38693126Y-32776110D01*
X38765674Y-32776110D01*
X38836829Y-32761956D01*
X38903855Y-32734193D01*
X38964178Y-32693887D01*
X39015477Y-32642588D01*
X39055783Y-32582265D01*
X39083546Y-32515239D01*
X39097700Y-32444084D01*
X39097700Y-32371536D01*
X39326300Y-32371536D01*
X39326300Y-32444084D01*
X39340454Y-32515239D01*
X39368217Y-32582265D01*
X39408523Y-32642588D01*
X39459822Y-32693887D01*
X39520145Y-32734193D01*
X39587171Y-32761956D01*
X39658326Y-32776110D01*
X39730874Y-32776110D01*
X39802029Y-32761956D01*
X39869055Y-32734193D01*
X39929378Y-32693887D01*
X39980677Y-32642588D01*
X40020983Y-32582265D01*
X40048746Y-32515239D01*
X40062900Y-32444084D01*
X40062900Y-32371536D01*
X40291500Y-32371536D01*
X40291500Y-32444084D01*
X40305654Y-32515239D01*
X40333417Y-32582265D01*
X40373723Y-32642588D01*
X40425022Y-32693887D01*
X40485345Y-32734193D01*
X40552371Y-32761956D01*
X40623526Y-32776110D01*
X40696074Y-32776110D01*
X40767229Y-32761956D01*
X40834255Y-32734193D01*
X40894578Y-32693887D01*
X40945877Y-32642588D01*
X40986183Y-32582265D01*
X41013946Y-32515239D01*
X41028100Y-32444084D01*
X41028100Y-32371536D01*
X41256700Y-32371536D01*
X41256700Y-32444084D01*
X41270854Y-32515239D01*
X41298617Y-32582265D01*
X41338923Y-32642588D01*
X41390222Y-32693887D01*
X41450545Y-32734193D01*
X41517571Y-32761956D01*
X41588726Y-32776110D01*
X41661274Y-32776110D01*
X41732429Y-32761956D01*
X41799455Y-32734193D01*
X41859778Y-32693887D01*
X41911077Y-32642588D01*
X41951383Y-32582265D01*
X41979146Y-32515239D01*
X41993300Y-32444084D01*
X41993300Y-32371536D01*
X41993299Y-32371526D01*
X42221900Y-32371526D01*
X42221900Y-32444074D01*
X42236054Y-32515229D01*
X42263817Y-32582255D01*
X42304123Y-32642578D01*
X42355422Y-32693877D01*
X42415745Y-32734183D01*
X42482771Y-32761946D01*
X42553926Y-32776100D01*
X42626474Y-32776100D01*
X42697629Y-32761946D01*
X42764655Y-32734183D01*
X42824978Y-32693877D01*
X42876277Y-32642578D01*
X42916583Y-32582255D01*
X42944346Y-32515229D01*
X42958500Y-32444074D01*
X42958500Y-32371526D01*
X42953448Y-32346126D01*
X43187100Y-32346126D01*
X43187100Y-32418674D01*
X43201254Y-32489829D01*
X43229017Y-32556855D01*
X43269323Y-32617178D01*
X43320622Y-32668477D01*
X43380945Y-32708783D01*
X43447971Y-32736546D01*
X43519126Y-32750700D01*
X43591674Y-32750700D01*
X43662829Y-32736546D01*
X43729855Y-32708783D01*
X43790178Y-32668477D01*
X43841477Y-32617178D01*
X43881783Y-32556855D01*
X43909546Y-32489829D01*
X43923700Y-32418674D01*
X43923700Y-32346126D01*
X43909546Y-32274971D01*
X43881783Y-32207945D01*
X43841477Y-32147622D01*
X43790178Y-32096323D01*
X43729855Y-32056017D01*
X43662829Y-32028254D01*
X43591674Y-32014100D01*
X43519126Y-32014100D01*
X43447971Y-32028254D01*
X43380945Y-32056017D01*
X43320622Y-32096323D01*
X43269323Y-32147622D01*
X43229017Y-32207945D01*
X43201254Y-32274971D01*
X43187100Y-32346126D01*
X42953448Y-32346126D01*
X42944346Y-32300371D01*
X42916583Y-32233345D01*
X42876277Y-32173022D01*
X42824978Y-32121723D01*
X42764655Y-32081417D01*
X42697629Y-32053654D01*
X42626474Y-32039500D01*
X42553926Y-32039500D01*
X42482771Y-32053654D01*
X42415745Y-32081417D01*
X42355422Y-32121723D01*
X42304123Y-32173022D01*
X42263817Y-32233345D01*
X42236054Y-32300371D01*
X42221900Y-32371526D01*
X41993299Y-32371526D01*
X41979146Y-32300381D01*
X41951383Y-32233355D01*
X41911077Y-32173032D01*
X41859778Y-32121733D01*
X41799455Y-32081427D01*
X41732429Y-32053664D01*
X41661274Y-32039510D01*
X41588726Y-32039510D01*
X41517571Y-32053664D01*
X41450545Y-32081427D01*
X41390222Y-32121733D01*
X41338923Y-32173032D01*
X41298617Y-32233355D01*
X41270854Y-32300381D01*
X41256700Y-32371536D01*
X41028100Y-32371536D01*
X41013946Y-32300381D01*
X40986183Y-32233355D01*
X40945877Y-32173032D01*
X40894578Y-32121733D01*
X40834255Y-32081427D01*
X40767229Y-32053664D01*
X40696074Y-32039510D01*
X40623526Y-32039510D01*
X40552371Y-32053664D01*
X40485345Y-32081427D01*
X40425022Y-32121733D01*
X40373723Y-32173032D01*
X40333417Y-32233355D01*
X40305654Y-32300381D01*
X40291500Y-32371536D01*
X40062900Y-32371536D01*
X40048746Y-32300381D01*
X40020983Y-32233355D01*
X39980677Y-32173032D01*
X39929378Y-32121733D01*
X39869055Y-32081427D01*
X39802029Y-32053664D01*
X39730874Y-32039510D01*
X39658326Y-32039510D01*
X39587171Y-32053664D01*
X39520145Y-32081427D01*
X39459822Y-32121733D01*
X39408523Y-32173032D01*
X39368217Y-32233355D01*
X39340454Y-32300381D01*
X39326300Y-32371536D01*
X39097700Y-32371536D01*
X39083546Y-32300381D01*
X39055783Y-32233355D01*
X39015477Y-32173032D01*
X38964178Y-32121733D01*
X38903855Y-32081427D01*
X38836829Y-32053664D01*
X38765674Y-32039510D01*
X38693126Y-32039510D01*
X38621971Y-32053664D01*
X38554945Y-32081427D01*
X38494622Y-32121733D01*
X38443323Y-32173032D01*
X38403017Y-32233355D01*
X38375254Y-32300381D01*
X38361100Y-32371536D01*
X38132500Y-32371536D01*
X38118346Y-32300381D01*
X38090583Y-32233355D01*
X38050277Y-32173032D01*
X37998978Y-32121733D01*
X37938655Y-32081427D01*
X37871629Y-32053664D01*
X37800474Y-32039510D01*
X37727926Y-32039510D01*
X37656771Y-32053664D01*
X37589745Y-32081427D01*
X37529422Y-32121733D01*
X37478123Y-32173032D01*
X37437817Y-32233355D01*
X37410054Y-32300381D01*
X37395900Y-32371536D01*
X37167300Y-32371536D01*
X37167300Y-32346126D01*
X37153146Y-32274971D01*
X37125383Y-32207945D01*
X37085077Y-32147622D01*
X37033778Y-32096323D01*
X36973455Y-32056017D01*
X36906429Y-32028254D01*
X36835274Y-32014100D01*
X36762726Y-32014100D01*
X36691571Y-32028254D01*
X36624545Y-32056017D01*
X36564222Y-32096323D01*
X36512923Y-32147622D01*
X36472617Y-32207945D01*
X36444854Y-32274971D01*
X36430700Y-32346126D01*
X36197046Y-32346126D01*
X36187946Y-32300382D01*
X36160183Y-32233356D01*
X36119877Y-32173033D01*
X36068578Y-32121734D01*
X36008255Y-32081428D01*
X35941229Y-32053665D01*
X35870074Y-32039511D01*
X35797526Y-32039511D01*
X35726371Y-32053665D01*
X35659345Y-32081428D01*
X35599022Y-32121734D01*
X35547723Y-32173033D01*
X35507417Y-32233356D01*
X35479654Y-32300382D01*
X35465500Y-32371537D01*
X34499100Y-32371537D01*
X34499100Y-31431726D01*
X34551100Y-31431726D01*
X34551100Y-31504274D01*
X34565254Y-31575429D01*
X34593017Y-31642455D01*
X34633323Y-31702778D01*
X34684622Y-31754077D01*
X34744945Y-31794383D01*
X34811971Y-31822146D01*
X34883126Y-31836300D01*
X34955674Y-31836300D01*
X35026829Y-31822146D01*
X35093855Y-31794383D01*
X35154178Y-31754077D01*
X35205477Y-31702778D01*
X35245783Y-31642455D01*
X35273546Y-31575429D01*
X35276868Y-31558726D01*
X36202074Y-31558726D01*
X36202074Y-31631274D01*
X36216228Y-31702429D01*
X36243991Y-31769455D01*
X36284297Y-31829778D01*
X36335596Y-31881077D01*
X36395919Y-31921383D01*
X36462945Y-31949146D01*
X36534100Y-31963300D01*
X36606648Y-31963300D01*
X36677803Y-31949146D01*
X36744829Y-31921383D01*
X36786281Y-31893686D01*
X36827732Y-31921383D01*
X36894758Y-31949146D01*
X36965913Y-31963300D01*
X37038461Y-31963300D01*
X37109616Y-31949146D01*
X37176642Y-31921383D01*
X37236965Y-31881077D01*
X37288264Y-31829778D01*
X37328570Y-31769455D01*
X37356333Y-31702429D01*
X37370487Y-31631274D01*
X37370487Y-31584126D01*
X37614901Y-31584126D01*
X37614901Y-31656674D01*
X37629055Y-31727829D01*
X37656818Y-31794855D01*
X37697124Y-31855178D01*
X37748423Y-31906477D01*
X37808746Y-31946783D01*
X37875772Y-31974546D01*
X37946927Y-31988700D01*
X38019475Y-31988700D01*
X38090630Y-31974546D01*
X38157656Y-31946783D01*
X38217979Y-31906477D01*
X38269278Y-31855178D01*
X38309584Y-31794855D01*
X38337347Y-31727829D01*
X38351501Y-31656674D01*
X38351501Y-31584126D01*
X38349738Y-31575263D01*
X41697363Y-31575263D01*
X41697363Y-31647811D01*
X41711517Y-31718966D01*
X41739280Y-31785992D01*
X41779586Y-31846315D01*
X41830885Y-31897614D01*
X41891208Y-31937920D01*
X41958234Y-31965683D01*
X42029389Y-31979837D01*
X42101937Y-31979837D01*
X42173092Y-31965683D01*
X42240118Y-31937920D01*
X42300441Y-31897614D01*
X42351740Y-31846315D01*
X42392046Y-31785992D01*
X42419809Y-31718966D01*
X42433963Y-31647811D01*
X42433963Y-31575263D01*
X42419809Y-31504108D01*
X42392046Y-31437082D01*
X42351740Y-31376759D01*
X42300441Y-31325460D01*
X42240118Y-31285154D01*
X42173092Y-31257391D01*
X42101937Y-31243237D01*
X42029389Y-31243237D01*
X41958234Y-31257391D01*
X41891208Y-31285154D01*
X41830885Y-31325460D01*
X41779586Y-31376759D01*
X41739280Y-31437082D01*
X41711517Y-31504108D01*
X41697363Y-31575263D01*
X38349738Y-31575263D01*
X38337347Y-31512971D01*
X38309584Y-31445945D01*
X38269278Y-31385622D01*
X38217979Y-31334323D01*
X38157656Y-31294017D01*
X38090630Y-31266254D01*
X38019475Y-31252100D01*
X37946927Y-31252100D01*
X37875772Y-31266254D01*
X37808746Y-31294017D01*
X37748423Y-31334323D01*
X37697124Y-31385622D01*
X37656818Y-31445945D01*
X37629055Y-31512971D01*
X37614901Y-31584126D01*
X37370487Y-31584126D01*
X37370487Y-31558726D01*
X37356333Y-31487571D01*
X37328570Y-31420545D01*
X37288264Y-31360222D01*
X37236965Y-31308923D01*
X37176642Y-31268617D01*
X37109616Y-31240854D01*
X37038461Y-31226700D01*
X36965913Y-31226700D01*
X36894758Y-31240854D01*
X36827732Y-31268617D01*
X36786281Y-31296314D01*
X36744829Y-31268617D01*
X36677803Y-31240854D01*
X36606648Y-31226700D01*
X36534100Y-31226700D01*
X36462945Y-31240854D01*
X36395919Y-31268617D01*
X36335596Y-31308923D01*
X36284297Y-31360222D01*
X36243991Y-31420545D01*
X36216228Y-31487571D01*
X36202074Y-31558726D01*
X35276868Y-31558726D01*
X35287700Y-31504274D01*
X35287700Y-31431726D01*
X35273546Y-31360571D01*
X35245783Y-31293545D01*
X35205477Y-31233222D01*
X35154178Y-31181923D01*
X35101535Y-31146748D01*
X35153829Y-31136346D01*
X35220855Y-31108583D01*
X35281178Y-31068277D01*
X35332477Y-31016978D01*
X35372783Y-30956655D01*
X35400546Y-30889629D01*
X35414700Y-30818474D01*
X35414700Y-30745926D01*
X35400546Y-30674771D01*
X35372783Y-30607745D01*
X35332477Y-30547422D01*
X35281178Y-30496123D01*
X35220855Y-30455817D01*
X35153829Y-30428054D01*
X35082674Y-30413900D01*
X35010126Y-30413900D01*
X34938971Y-30428054D01*
X34871945Y-30455817D01*
X34811622Y-30496123D01*
X34760323Y-30547422D01*
X34720017Y-30607745D01*
X34692254Y-30674771D01*
X34678100Y-30745926D01*
X34678100Y-30818474D01*
X34692254Y-30889629D01*
X34720017Y-30956655D01*
X34760323Y-31016978D01*
X34811622Y-31068277D01*
X34864265Y-31103452D01*
X34811971Y-31113854D01*
X34744945Y-31141617D01*
X34684622Y-31181923D01*
X34633323Y-31233222D01*
X34593017Y-31293545D01*
X34565254Y-31360571D01*
X34551100Y-31431726D01*
X34499100Y-31431726D01*
X34499100Y-30263326D01*
X35719500Y-30263326D01*
X35719500Y-30335874D01*
X35733654Y-30407029D01*
X35761417Y-30474055D01*
X35801723Y-30534378D01*
X35853022Y-30585677D01*
X35913345Y-30625983D01*
X35980371Y-30653746D01*
X36051526Y-30667900D01*
X36124074Y-30667900D01*
X36160907Y-30660573D01*
X36167817Y-30677255D01*
X36208123Y-30737578D01*
X36259422Y-30788877D01*
X36319745Y-30829183D01*
X36386771Y-30856946D01*
X36457926Y-30871100D01*
X36530474Y-30871100D01*
X36601629Y-30856946D01*
X36668655Y-30829183D01*
X36728978Y-30788877D01*
X36780277Y-30737578D01*
X36820583Y-30677255D01*
X36848346Y-30610229D01*
X36862500Y-30539074D01*
X36862500Y-30466526D01*
X36848346Y-30395371D01*
X36820583Y-30328345D01*
X36780277Y-30268022D01*
X36775581Y-30263326D01*
X43263300Y-30263326D01*
X43263300Y-30335874D01*
X43277454Y-30407029D01*
X43305217Y-30474055D01*
X43345523Y-30534378D01*
X43396822Y-30585677D01*
X43457145Y-30625983D01*
X43524171Y-30653746D01*
X43595326Y-30667900D01*
X43667874Y-30667900D01*
X43739029Y-30653746D01*
X43806055Y-30625983D01*
X43866378Y-30585677D01*
X43917677Y-30534378D01*
X43957983Y-30474055D01*
X43985746Y-30407029D01*
X43999900Y-30335874D01*
X43999900Y-30263326D01*
X43985746Y-30192171D01*
X43957983Y-30125145D01*
X43917677Y-30064822D01*
X43866378Y-30013523D01*
X43806055Y-29973217D01*
X43739029Y-29945454D01*
X43667874Y-29931300D01*
X43595326Y-29931300D01*
X43524171Y-29945454D01*
X43457145Y-29973217D01*
X43396822Y-30013523D01*
X43345523Y-30064822D01*
X43305217Y-30125145D01*
X43277454Y-30192171D01*
X43263300Y-30263326D01*
X36775581Y-30263326D01*
X36728978Y-30216723D01*
X36668655Y-30176417D01*
X36601629Y-30148654D01*
X36530474Y-30134500D01*
X36457926Y-30134500D01*
X36421093Y-30141827D01*
X36418058Y-30134500D01*
X36428874Y-30134500D01*
X36500029Y-30120346D01*
X36567055Y-30092583D01*
X36627378Y-30052277D01*
X36678677Y-30000978D01*
X36718983Y-29940655D01*
X36746746Y-29873629D01*
X36760900Y-29802474D01*
X36760900Y-29729926D01*
X36746746Y-29658771D01*
X36718983Y-29591745D01*
X36678677Y-29531422D01*
X36627378Y-29480123D01*
X36567055Y-29439817D01*
X36500029Y-29412054D01*
X36428874Y-29397900D01*
X36356326Y-29397900D01*
X36285171Y-29412054D01*
X36218145Y-29439817D01*
X36157822Y-29480123D01*
X36106523Y-29531422D01*
X36066217Y-29591745D01*
X36038454Y-29658771D01*
X36024300Y-29729926D01*
X36024300Y-29802474D01*
X36038454Y-29873629D01*
X36062342Y-29931300D01*
X36051526Y-29931300D01*
X35980371Y-29945454D01*
X35913345Y-29973217D01*
X35853022Y-30013523D01*
X35801723Y-30064822D01*
X35761417Y-30125145D01*
X35733654Y-30192171D01*
X35719500Y-30263326D01*
X34499100Y-30263326D01*
X34499100Y-29171126D01*
X37649900Y-29171126D01*
X37649900Y-29243674D01*
X37664054Y-29314829D01*
X37691817Y-29381855D01*
X37732123Y-29442178D01*
X37783422Y-29493477D01*
X37843745Y-29533783D01*
X37910771Y-29561546D01*
X37981926Y-29575700D01*
X38054474Y-29575700D01*
X38066300Y-29573348D01*
X38070454Y-29594229D01*
X38098217Y-29661255D01*
X38138523Y-29721578D01*
X38189822Y-29772877D01*
X38250145Y-29813183D01*
X38317171Y-29840946D01*
X38388326Y-29855100D01*
X38460874Y-29855100D01*
X38532029Y-29840946D01*
X38599055Y-29813183D01*
X38659378Y-29772877D01*
X38700108Y-29732147D01*
X38707345Y-29736983D01*
X38774371Y-29764746D01*
X38845526Y-29778900D01*
X38874516Y-29778900D01*
X38883254Y-29822829D01*
X38911017Y-29889855D01*
X38951323Y-29950178D01*
X39002622Y-30001477D01*
X39062945Y-30041783D01*
X39129971Y-30069546D01*
X39201126Y-30083700D01*
X39273674Y-30083700D01*
X39344829Y-30069546D01*
X39411855Y-30041783D01*
X39472178Y-30001477D01*
X39481210Y-29992445D01*
X39517035Y-30016383D01*
X39584061Y-30044146D01*
X39655216Y-30058300D01*
X39727764Y-30058300D01*
X39798919Y-30044146D01*
X39865945Y-30016383D01*
X39926268Y-29976077D01*
X39977567Y-29924778D01*
X40017873Y-29864455D01*
X40045636Y-29797429D01*
X40056102Y-29744816D01*
X40071640Y-29744816D01*
X40077054Y-29772035D01*
X40104817Y-29839061D01*
X40145123Y-29899384D01*
X40196422Y-29950683D01*
X40256745Y-29990989D01*
X40323771Y-30018752D01*
X40394926Y-30032906D01*
X40467474Y-30032906D01*
X40538629Y-30018752D01*
X40605655Y-29990989D01*
X40665978Y-29950683D01*
X40717277Y-29899384D01*
X40757583Y-29839061D01*
X40785346Y-29772035D01*
X40799500Y-29700880D01*
X40799500Y-29661764D01*
X40805523Y-29670778D01*
X40856822Y-29722077D01*
X40917145Y-29762383D01*
X40984171Y-29790146D01*
X41055326Y-29804300D01*
X41127874Y-29804300D01*
X41199029Y-29790146D01*
X41266055Y-29762383D01*
X41326378Y-29722077D01*
X41377677Y-29670778D01*
X41417983Y-29610455D01*
X41445746Y-29543429D01*
X41459900Y-29472274D01*
X41459900Y-29399726D01*
X41445746Y-29328571D01*
X41417983Y-29261545D01*
X41377677Y-29201222D01*
X41326378Y-29149923D01*
X41266055Y-29109617D01*
X41199029Y-29081854D01*
X41127874Y-29067700D01*
X41055326Y-29067700D01*
X40984171Y-29081854D01*
X40917145Y-29109617D01*
X40856822Y-29149923D01*
X40805523Y-29201222D01*
X40765217Y-29261545D01*
X40737454Y-29328571D01*
X40723300Y-29399726D01*
X40723300Y-29438842D01*
X40717277Y-29429828D01*
X40665978Y-29378529D01*
X40605655Y-29338223D01*
X40538629Y-29310460D01*
X40467474Y-29296306D01*
X40448038Y-29296306D01*
X40442624Y-29269087D01*
X40414861Y-29202061D01*
X40374555Y-29141738D01*
X40323256Y-29090439D01*
X40262933Y-29050133D01*
X40195907Y-29022370D01*
X40177588Y-29018726D01*
X42120300Y-29018726D01*
X42120300Y-29091274D01*
X42134454Y-29162429D01*
X42162217Y-29229455D01*
X42202523Y-29289778D01*
X42253822Y-29341077D01*
X42314145Y-29381383D01*
X42381171Y-29409146D01*
X42452326Y-29423300D01*
X42524874Y-29423300D01*
X42596029Y-29409146D01*
X42663055Y-29381383D01*
X42723378Y-29341077D01*
X42766329Y-29298126D01*
X43237900Y-29298126D01*
X43237900Y-29370674D01*
X43252054Y-29441829D01*
X43279817Y-29508855D01*
X43320123Y-29569178D01*
X43371422Y-29620477D01*
X43431745Y-29660783D01*
X43498771Y-29688546D01*
X43569926Y-29702700D01*
X43642474Y-29702700D01*
X43713629Y-29688546D01*
X43780655Y-29660783D01*
X43840978Y-29620477D01*
X43892277Y-29569178D01*
X43932583Y-29508855D01*
X43960346Y-29441829D01*
X43974500Y-29370674D01*
X43974500Y-29298126D01*
X43960346Y-29226971D01*
X43932583Y-29159945D01*
X43892277Y-29099622D01*
X43840978Y-29048323D01*
X43780655Y-29008017D01*
X43713629Y-28980254D01*
X43642474Y-28966100D01*
X43569926Y-28966100D01*
X43498771Y-28980254D01*
X43431745Y-29008017D01*
X43371422Y-29048323D01*
X43320123Y-29099622D01*
X43279817Y-29159945D01*
X43252054Y-29226971D01*
X43237900Y-29298126D01*
X42766329Y-29298126D01*
X42774677Y-29289778D01*
X42814983Y-29229455D01*
X42842746Y-29162429D01*
X42856900Y-29091274D01*
X42856900Y-29018726D01*
X42842746Y-28947571D01*
X42814983Y-28880545D01*
X42774677Y-28820222D01*
X42723378Y-28768923D01*
X42663055Y-28728617D01*
X42596029Y-28700854D01*
X42524874Y-28686700D01*
X42452326Y-28686700D01*
X42381171Y-28700854D01*
X42314145Y-28728617D01*
X42253822Y-28768923D01*
X42202523Y-28820222D01*
X42162217Y-28880545D01*
X42134454Y-28947571D01*
X42120300Y-29018726D01*
X40177588Y-29018726D01*
X40124752Y-29008216D01*
X40052204Y-29008216D01*
X39981049Y-29022370D01*
X39914023Y-29050133D01*
X39853700Y-29090439D01*
X39802401Y-29141738D01*
X39762095Y-29202061D01*
X39734332Y-29269087D01*
X39723866Y-29321700D01*
X39655216Y-29321700D01*
X39584061Y-29335854D01*
X39517035Y-29363617D01*
X39456712Y-29403923D01*
X39447680Y-29412955D01*
X39411855Y-29389017D01*
X39344829Y-29361254D01*
X39273674Y-29347100D01*
X39244684Y-29347100D01*
X39235946Y-29303171D01*
X39208183Y-29236145D01*
X39167877Y-29175822D01*
X39116578Y-29124523D01*
X39056255Y-29084217D01*
X38989229Y-29056454D01*
X38918074Y-29042300D01*
X38845526Y-29042300D01*
X38774371Y-29056454D01*
X38707345Y-29084217D01*
X38647022Y-29124523D01*
X38606292Y-29165253D01*
X38599055Y-29160417D01*
X38532029Y-29132654D01*
X38460874Y-29118500D01*
X38388326Y-29118500D01*
X38376500Y-29120852D01*
X38372346Y-29099971D01*
X38344583Y-29032945D01*
X38304277Y-28972622D01*
X38252978Y-28921323D01*
X38192655Y-28881017D01*
X38125629Y-28853254D01*
X38054474Y-28839100D01*
X37981926Y-28839100D01*
X37910771Y-28853254D01*
X37843745Y-28881017D01*
X37783422Y-28921323D01*
X37732123Y-28972622D01*
X37691817Y-29032945D01*
X37664054Y-29099971D01*
X37649900Y-29171126D01*
X34499100Y-29171126D01*
X34499100Y-28409126D01*
X38361100Y-28409126D01*
X38361100Y-28481674D01*
X38375254Y-28552829D01*
X38403017Y-28619855D01*
X38443323Y-28680178D01*
X38494622Y-28731477D01*
X38554945Y-28771783D01*
X38621971Y-28799546D01*
X38693126Y-28813700D01*
X38765674Y-28813700D01*
X38836829Y-28799546D01*
X38903855Y-28771783D01*
X38964178Y-28731477D01*
X39015477Y-28680178D01*
X39055783Y-28619855D01*
X39083546Y-28552829D01*
X39096973Y-28485326D01*
X40596300Y-28485326D01*
X40596300Y-28557874D01*
X40610454Y-28629029D01*
X40638217Y-28696055D01*
X40678523Y-28756378D01*
X40729822Y-28807677D01*
X40790145Y-28847983D01*
X40857171Y-28875746D01*
X40928326Y-28889900D01*
X41000874Y-28889900D01*
X41072029Y-28875746D01*
X41139055Y-28847983D01*
X41199378Y-28807677D01*
X41250677Y-28756378D01*
X41290983Y-28696055D01*
X41318746Y-28629029D01*
X41332900Y-28557874D01*
X41332900Y-28485326D01*
X41318746Y-28414171D01*
X41290983Y-28347145D01*
X41281483Y-28332926D01*
X43237900Y-28332926D01*
X43237900Y-28405474D01*
X43252054Y-28476629D01*
X43279817Y-28543655D01*
X43320123Y-28603978D01*
X43371422Y-28655277D01*
X43431745Y-28695583D01*
X43498771Y-28723346D01*
X43569926Y-28737500D01*
X43642474Y-28737500D01*
X43713629Y-28723346D01*
X43780655Y-28695583D01*
X43840978Y-28655277D01*
X43892277Y-28603978D01*
X43932583Y-28543655D01*
X43960346Y-28476629D01*
X43974500Y-28405474D01*
X43974500Y-28332926D01*
X43960346Y-28261771D01*
X43932583Y-28194745D01*
X43892277Y-28134422D01*
X43840978Y-28083123D01*
X43780655Y-28042817D01*
X43713629Y-28015054D01*
X43642474Y-28000900D01*
X43569926Y-28000900D01*
X43498771Y-28015054D01*
X43431745Y-28042817D01*
X43371422Y-28083123D01*
X43320123Y-28134422D01*
X43279817Y-28194745D01*
X43252054Y-28261771D01*
X43237900Y-28332926D01*
X41281483Y-28332926D01*
X41250677Y-28286822D01*
X41199378Y-28235523D01*
X41139055Y-28195217D01*
X41072029Y-28167454D01*
X41000874Y-28153300D01*
X40928326Y-28153300D01*
X40857171Y-28167454D01*
X40790145Y-28195217D01*
X40729822Y-28235523D01*
X40678523Y-28286822D01*
X40638217Y-28347145D01*
X40610454Y-28414171D01*
X40596300Y-28485326D01*
X39096973Y-28485326D01*
X39097700Y-28481674D01*
X39097700Y-28409126D01*
X39083546Y-28337971D01*
X39055783Y-28270945D01*
X39015477Y-28210622D01*
X38964178Y-28159323D01*
X38903855Y-28119017D01*
X38836829Y-28091254D01*
X38765674Y-28077100D01*
X38693126Y-28077100D01*
X38621971Y-28091254D01*
X38554945Y-28119017D01*
X38494622Y-28159323D01*
X38443323Y-28210622D01*
X38403017Y-28270945D01*
X38375254Y-28337971D01*
X38361100Y-28409126D01*
X34499100Y-28409126D01*
X34499100Y-27418526D01*
X34830500Y-27418526D01*
X34830500Y-27491074D01*
X34844654Y-27562229D01*
X34872417Y-27629255D01*
X34912723Y-27689578D01*
X34964022Y-27740877D01*
X35024345Y-27781183D01*
X35091371Y-27808946D01*
X35162526Y-27823100D01*
X35235074Y-27823100D01*
X35306229Y-27808946D01*
X35373255Y-27781183D01*
X35433578Y-27740877D01*
X35484877Y-27689578D01*
X35525183Y-27629255D01*
X35552946Y-27562229D01*
X35567100Y-27491074D01*
X35567100Y-27418526D01*
X35552946Y-27347371D01*
X35525183Y-27280345D01*
X35484877Y-27220022D01*
X35433578Y-27168723D01*
X35389283Y-27139126D01*
X37700700Y-27139126D01*
X37700700Y-27211674D01*
X37714854Y-27282829D01*
X37742617Y-27349855D01*
X37782923Y-27410178D01*
X37834222Y-27461477D01*
X37894545Y-27501783D01*
X37961571Y-27529546D01*
X38032726Y-27543700D01*
X38105274Y-27543700D01*
X38176429Y-27529546D01*
X38243455Y-27501783D01*
X38281145Y-27476600D01*
X38291422Y-27486877D01*
X38351745Y-27527183D01*
X38418771Y-27554946D01*
X38489926Y-27569100D01*
X38562474Y-27569100D01*
X38633629Y-27554946D01*
X38700655Y-27527183D01*
X38760978Y-27486877D01*
X38812277Y-27435578D01*
X38852583Y-27375255D01*
X38880346Y-27308229D01*
X38894500Y-27237074D01*
X38894500Y-27164526D01*
X38880346Y-27093371D01*
X38867736Y-27062926D01*
X40621700Y-27062926D01*
X40621700Y-27135474D01*
X40635854Y-27206629D01*
X40663617Y-27273655D01*
X40703923Y-27333978D01*
X40755222Y-27385277D01*
X40815545Y-27425583D01*
X40882571Y-27453346D01*
X40953726Y-27467500D01*
X41026274Y-27467500D01*
X41097429Y-27453346D01*
X41164455Y-27425583D01*
X41224778Y-27385277D01*
X41276077Y-27333978D01*
X41316383Y-27273655D01*
X41344146Y-27206629D01*
X41358300Y-27135474D01*
X41358300Y-27062926D01*
X41344146Y-26991771D01*
X41342054Y-26986720D01*
X41383700Y-26986720D01*
X41383700Y-27059268D01*
X41397854Y-27130423D01*
X41425617Y-27197449D01*
X41465923Y-27257772D01*
X41517222Y-27309071D01*
X41577545Y-27349377D01*
X41644571Y-27377140D01*
X41715726Y-27391294D01*
X41788274Y-27391294D01*
X41859429Y-27377140D01*
X41882156Y-27367726D01*
X43237900Y-27367726D01*
X43237900Y-27440274D01*
X43252054Y-27511429D01*
X43279817Y-27578455D01*
X43320123Y-27638778D01*
X43371422Y-27690077D01*
X43431745Y-27730383D01*
X43498771Y-27758146D01*
X43569926Y-27772300D01*
X43642474Y-27772300D01*
X43713629Y-27758146D01*
X43780655Y-27730383D01*
X43840978Y-27690077D01*
X43892277Y-27638778D01*
X43932583Y-27578455D01*
X43960346Y-27511429D01*
X43974500Y-27440274D01*
X43974500Y-27367726D01*
X43960346Y-27296571D01*
X43932583Y-27229545D01*
X43892277Y-27169222D01*
X43840978Y-27117923D01*
X43780655Y-27077617D01*
X43713629Y-27049854D01*
X43642474Y-27035700D01*
X43569926Y-27035700D01*
X43498771Y-27049854D01*
X43431745Y-27077617D01*
X43371422Y-27117923D01*
X43320123Y-27169222D01*
X43279817Y-27229545D01*
X43252054Y-27296571D01*
X43237900Y-27367726D01*
X41882156Y-27367726D01*
X41926455Y-27349377D01*
X41986778Y-27309071D01*
X42038077Y-27257772D01*
X42078383Y-27197449D01*
X42106146Y-27130423D01*
X42120300Y-27059268D01*
X42120300Y-26986720D01*
X42106146Y-26915565D01*
X42078383Y-26848539D01*
X42038077Y-26788216D01*
X41986778Y-26736917D01*
X41926455Y-26696611D01*
X41859429Y-26668848D01*
X41788274Y-26654694D01*
X41715726Y-26654694D01*
X41644571Y-26668848D01*
X41577545Y-26696611D01*
X41517222Y-26736917D01*
X41465923Y-26788216D01*
X41425617Y-26848539D01*
X41397854Y-26915565D01*
X41383700Y-26986720D01*
X41342054Y-26986720D01*
X41316383Y-26924745D01*
X41276077Y-26864422D01*
X41224778Y-26813123D01*
X41164455Y-26772817D01*
X41097429Y-26745054D01*
X41026274Y-26730900D01*
X40953726Y-26730900D01*
X40882571Y-26745054D01*
X40815545Y-26772817D01*
X40755222Y-26813123D01*
X40703923Y-26864422D01*
X40663617Y-26924745D01*
X40635854Y-26991771D01*
X40621700Y-27062926D01*
X38867736Y-27062926D01*
X38852583Y-27026345D01*
X38812277Y-26966022D01*
X38760978Y-26914723D01*
X38700655Y-26874417D01*
X38633629Y-26846654D01*
X38562474Y-26832500D01*
X38489926Y-26832500D01*
X38418771Y-26846654D01*
X38351745Y-26874417D01*
X38314055Y-26899600D01*
X38303778Y-26889323D01*
X38243455Y-26849017D01*
X38176429Y-26821254D01*
X38105274Y-26807100D01*
X38032726Y-26807100D01*
X37961571Y-26821254D01*
X37894545Y-26849017D01*
X37834222Y-26889323D01*
X37782923Y-26940622D01*
X37742617Y-27000945D01*
X37714854Y-27067971D01*
X37700700Y-27139126D01*
X35389283Y-27139126D01*
X35373255Y-27128417D01*
X35306229Y-27100654D01*
X35235074Y-27086500D01*
X35162526Y-27086500D01*
X35091371Y-27100654D01*
X35024345Y-27128417D01*
X34964022Y-27168723D01*
X34912723Y-27220022D01*
X34872417Y-27280345D01*
X34844654Y-27347371D01*
X34830500Y-27418526D01*
X34499100Y-27418526D01*
X34499100Y-26250126D01*
X34932100Y-26250126D01*
X34932100Y-26322674D01*
X34946254Y-26393829D01*
X34974017Y-26460855D01*
X35014323Y-26521178D01*
X35065622Y-26572477D01*
X35125945Y-26612783D01*
X35192971Y-26640546D01*
X35264126Y-26654700D01*
X35336674Y-26654700D01*
X35407829Y-26640546D01*
X35474855Y-26612783D01*
X35535178Y-26572477D01*
X35586477Y-26521178D01*
X35626783Y-26460855D01*
X35654546Y-26393829D01*
X35668700Y-26322674D01*
X35668700Y-26250126D01*
X36456100Y-26250126D01*
X36456100Y-26322674D01*
X36470254Y-26393829D01*
X36498017Y-26460855D01*
X36538323Y-26521178D01*
X36589622Y-26572477D01*
X36649945Y-26612783D01*
X36716971Y-26640546D01*
X36788126Y-26654700D01*
X36860674Y-26654700D01*
X36931829Y-26640546D01*
X36998855Y-26612783D01*
X37059178Y-26572477D01*
X37110477Y-26521178D01*
X37150783Y-26460855D01*
X37178546Y-26393829D01*
X37186921Y-26351726D01*
X38437300Y-26351726D01*
X38437300Y-26424274D01*
X38451454Y-26495429D01*
X38479217Y-26562455D01*
X38519523Y-26622778D01*
X38570822Y-26674077D01*
X38631145Y-26714383D01*
X38698171Y-26742146D01*
X38769326Y-26756300D01*
X38841874Y-26756300D01*
X38913029Y-26742146D01*
X38980055Y-26714383D01*
X39040378Y-26674077D01*
X39091677Y-26622778D01*
X39131983Y-26562455D01*
X39159746Y-26495429D01*
X39173900Y-26424274D01*
X39173900Y-26351726D01*
X39163795Y-26300926D01*
X39711900Y-26300926D01*
X39711900Y-26373474D01*
X39726054Y-26444629D01*
X39753817Y-26511655D01*
X39794123Y-26571978D01*
X39845422Y-26623277D01*
X39905745Y-26663583D01*
X39972771Y-26691346D01*
X40043926Y-26705500D01*
X40116474Y-26705500D01*
X40187629Y-26691346D01*
X40254655Y-26663583D01*
X40314978Y-26623277D01*
X40366277Y-26571978D01*
X40406583Y-26511655D01*
X40434346Y-26444629D01*
X40437668Y-26427926D01*
X43237900Y-26427926D01*
X43237900Y-26500474D01*
X43252054Y-26571629D01*
X43279817Y-26638655D01*
X43320123Y-26698978D01*
X43371422Y-26750277D01*
X43431745Y-26790583D01*
X43498771Y-26818346D01*
X43569926Y-26832500D01*
X43642474Y-26832500D01*
X43713629Y-26818346D01*
X43780655Y-26790583D01*
X43840978Y-26750277D01*
X43892277Y-26698978D01*
X43932583Y-26638655D01*
X43960346Y-26571629D01*
X43974500Y-26500474D01*
X43974500Y-26427926D01*
X43960346Y-26356771D01*
X43932583Y-26289745D01*
X43892277Y-26229422D01*
X43840978Y-26178123D01*
X43780655Y-26137817D01*
X43713629Y-26110054D01*
X43642474Y-26095900D01*
X43569926Y-26095900D01*
X43498771Y-26110054D01*
X43431745Y-26137817D01*
X43371422Y-26178123D01*
X43320123Y-26229422D01*
X43279817Y-26289745D01*
X43252054Y-26356771D01*
X43237900Y-26427926D01*
X40437668Y-26427926D01*
X40448500Y-26373474D01*
X40448500Y-26300926D01*
X40434346Y-26229771D01*
X40406583Y-26162745D01*
X40366277Y-26102422D01*
X40314978Y-26051123D01*
X40254655Y-26010817D01*
X40187629Y-25983054D01*
X40116474Y-25968900D01*
X40043926Y-25968900D01*
X39972771Y-25983054D01*
X39905745Y-26010817D01*
X39845422Y-26051123D01*
X39794123Y-26102422D01*
X39753817Y-26162745D01*
X39726054Y-26229771D01*
X39711900Y-26300926D01*
X39163795Y-26300926D01*
X39159746Y-26280571D01*
X39131983Y-26213545D01*
X39091677Y-26153222D01*
X39040378Y-26101923D01*
X38980055Y-26061617D01*
X38913029Y-26033854D01*
X38841874Y-26019700D01*
X38769326Y-26019700D01*
X38698171Y-26033854D01*
X38631145Y-26061617D01*
X38570822Y-26101923D01*
X38519523Y-26153222D01*
X38479217Y-26213545D01*
X38451454Y-26280571D01*
X38437300Y-26351726D01*
X37186921Y-26351726D01*
X37192700Y-26322674D01*
X37192700Y-26250126D01*
X37178546Y-26178971D01*
X37150783Y-26111945D01*
X37110477Y-26051622D01*
X37059178Y-26000323D01*
X36998855Y-25960017D01*
X36931829Y-25932254D01*
X36860674Y-25918100D01*
X36788126Y-25918100D01*
X36716971Y-25932254D01*
X36649945Y-25960017D01*
X36589622Y-26000323D01*
X36538323Y-26051622D01*
X36498017Y-26111945D01*
X36470254Y-26178971D01*
X36456100Y-26250126D01*
X35668700Y-26250126D01*
X35654546Y-26178971D01*
X35626783Y-26111945D01*
X35586477Y-26051622D01*
X35535178Y-26000323D01*
X35474855Y-25960017D01*
X35407829Y-25932254D01*
X35336674Y-25918100D01*
X35264126Y-25918100D01*
X35192971Y-25932254D01*
X35125945Y-25960017D01*
X35065622Y-26000323D01*
X35014323Y-26051622D01*
X34974017Y-26111945D01*
X34946254Y-26178971D01*
X34932100Y-26250126D01*
X34499100Y-26250126D01*
X34499100Y-25513532D01*
X35541700Y-25513532D01*
X35541700Y-25586080D01*
X35555854Y-25657235D01*
X35583617Y-25724261D01*
X35623923Y-25784584D01*
X35675222Y-25835883D01*
X35735545Y-25876189D01*
X35802571Y-25903952D01*
X35873726Y-25918106D01*
X35946274Y-25918106D01*
X36017429Y-25903952D01*
X36084455Y-25876189D01*
X36144778Y-25835883D01*
X36196077Y-25784584D01*
X36236383Y-25724261D01*
X36264146Y-25657235D01*
X36278300Y-25586080D01*
X36278300Y-25513532D01*
X36273247Y-25488126D01*
X37395900Y-25488126D01*
X37395900Y-25560674D01*
X37410054Y-25631829D01*
X37437817Y-25698855D01*
X37478123Y-25759178D01*
X37529422Y-25810477D01*
X37589745Y-25850783D01*
X37656771Y-25878546D01*
X37727926Y-25892700D01*
X37800474Y-25892700D01*
X37871629Y-25878546D01*
X37938655Y-25850783D01*
X37998978Y-25810477D01*
X38050277Y-25759178D01*
X38090583Y-25698855D01*
X38118346Y-25631829D01*
X38132500Y-25560674D01*
X38132500Y-25488126D01*
X38118346Y-25416971D01*
X38090583Y-25349945D01*
X38050277Y-25289622D01*
X37998978Y-25238323D01*
X37938655Y-25198017D01*
X37871629Y-25170254D01*
X37800474Y-25156100D01*
X37727926Y-25156100D01*
X37656771Y-25170254D01*
X37589745Y-25198017D01*
X37529422Y-25238323D01*
X37478123Y-25289622D01*
X37437817Y-25349945D01*
X37410054Y-25416971D01*
X37395900Y-25488126D01*
X36273247Y-25488126D01*
X36264146Y-25442377D01*
X36236383Y-25375351D01*
X36196077Y-25315028D01*
X36144778Y-25263729D01*
X36084455Y-25223423D01*
X36017429Y-25195660D01*
X35946274Y-25181506D01*
X35873726Y-25181506D01*
X35802571Y-25195660D01*
X35735545Y-25223423D01*
X35675222Y-25263729D01*
X35623923Y-25315028D01*
X35583617Y-25375351D01*
X35555854Y-25442377D01*
X35541700Y-25513532D01*
X34499100Y-25513532D01*
X34499100Y-24765500D01*
X43971245Y-24765500D01*
X43955123Y-24781622D01*
X43955123Y-24781622D01*
G37*
X43955123Y-24781622D02*
X43914817Y-24841945D01*
X43887054Y-24908971D01*
X43872900Y-24980126D01*
X43872900Y-25052674D01*
X43887054Y-25123829D01*
X43914817Y-25190855D01*
X43955123Y-25251178D01*
X44006422Y-25302477D01*
X44066745Y-25342783D01*
X44133771Y-25370546D01*
X44204926Y-25384700D01*
X44277474Y-25384700D01*
X44348629Y-25370546D01*
X44415655Y-25342783D01*
X44468101Y-25307740D01*
X44468101Y-25664860D01*
X44415655Y-25629817D01*
X44348629Y-25602054D01*
X44277474Y-25587900D01*
X44204926Y-25587900D01*
X44133771Y-25602054D01*
X44066745Y-25629817D01*
X44006422Y-25670123D01*
X43955123Y-25721422D01*
X43914817Y-25781745D01*
X43887054Y-25848771D01*
X43872900Y-25919926D01*
X43872900Y-25992474D01*
X43887054Y-26063629D01*
X43914817Y-26130655D01*
X43955123Y-26190978D01*
X44006422Y-26242277D01*
X44066745Y-26282583D01*
X44133771Y-26310346D01*
X44204926Y-26324500D01*
X44277474Y-26324500D01*
X44348629Y-26310346D01*
X44415655Y-26282583D01*
X44468101Y-26247540D01*
X44468101Y-26655460D01*
X44415655Y-26620417D01*
X44348629Y-26592654D01*
X44277474Y-26578500D01*
X44204926Y-26578500D01*
X44133771Y-26592654D01*
X44066745Y-26620417D01*
X44006422Y-26660723D01*
X43955123Y-26712022D01*
X43914817Y-26772345D01*
X43887054Y-26839371D01*
X43872900Y-26910526D01*
X43872900Y-26983074D01*
X43887054Y-27054229D01*
X43914817Y-27121255D01*
X43955123Y-27181578D01*
X44006422Y-27232877D01*
X44066745Y-27273183D01*
X44133771Y-27300946D01*
X44204926Y-27315100D01*
X44277474Y-27315100D01*
X44348629Y-27300946D01*
X44415655Y-27273183D01*
X44468101Y-27238140D01*
X44468101Y-27620660D01*
X44415655Y-27585617D01*
X44348629Y-27557854D01*
X44277474Y-27543700D01*
X44204926Y-27543700D01*
X44133771Y-27557854D01*
X44066745Y-27585617D01*
X44006422Y-27625923D01*
X43955123Y-27677222D01*
X43914817Y-27737545D01*
X43887054Y-27804571D01*
X43872900Y-27875726D01*
X43872900Y-27948274D01*
X43887054Y-28019429D01*
X43914817Y-28086455D01*
X43955123Y-28146778D01*
X44006422Y-28198077D01*
X44066745Y-28238383D01*
X44133771Y-28266146D01*
X44204926Y-28280300D01*
X44277474Y-28280300D01*
X44348629Y-28266146D01*
X44415655Y-28238383D01*
X44468101Y-28203340D01*
X44468101Y-28608646D01*
X44450578Y-28591123D01*
X44390255Y-28550817D01*
X44323229Y-28523054D01*
X44252074Y-28508900D01*
X44179526Y-28508900D01*
X44108371Y-28523054D01*
X44041345Y-28550817D01*
X43981022Y-28591123D01*
X43929723Y-28642422D01*
X43889417Y-28702745D01*
X43861654Y-28769771D01*
X43847500Y-28840926D01*
X43847500Y-28913474D01*
X43861654Y-28984629D01*
X43889417Y-29051655D01*
X43929723Y-29111978D01*
X43981022Y-29163277D01*
X44041345Y-29203583D01*
X44108371Y-29231346D01*
X44179526Y-29245500D01*
X44252074Y-29245500D01*
X44323229Y-29231346D01*
X44390255Y-29203583D01*
X44450578Y-29163277D01*
X44468100Y-29145755D01*
X44468100Y-29525659D01*
X44415655Y-29490617D01*
X44348629Y-29462854D01*
X44277474Y-29448700D01*
X44204926Y-29448700D01*
X44133771Y-29462854D01*
X44066745Y-29490617D01*
X44006422Y-29530923D01*
X43955123Y-29582222D01*
X43914817Y-29642545D01*
X43887054Y-29709571D01*
X43872900Y-29780726D01*
X43872900Y-29853274D01*
X43887054Y-29924429D01*
X43914817Y-29991455D01*
X43955123Y-30051778D01*
X44006422Y-30103077D01*
X44066745Y-30143383D01*
X44133771Y-30171146D01*
X44204926Y-30185300D01*
X44277474Y-30185300D01*
X44348629Y-30171146D01*
X44415655Y-30143383D01*
X44468100Y-30108341D01*
X44468100Y-30539045D01*
X44450578Y-30521523D01*
X44390255Y-30481217D01*
X44323229Y-30453454D01*
X44252074Y-30439300D01*
X44179526Y-30439300D01*
X44108371Y-30453454D01*
X44041345Y-30481217D01*
X43981022Y-30521523D01*
X43929723Y-30572822D01*
X43889417Y-30633145D01*
X43861654Y-30700171D01*
X43847500Y-30771326D01*
X43847500Y-30843874D01*
X43861654Y-30915029D01*
X43889417Y-30982055D01*
X43929723Y-31042378D01*
X43981022Y-31093677D01*
X44041345Y-31133983D01*
X44108371Y-31161746D01*
X44179526Y-31175900D01*
X44252074Y-31175900D01*
X44323229Y-31161746D01*
X44390255Y-31133983D01*
X44450578Y-31093677D01*
X44468100Y-31076155D01*
X44468100Y-33234500D01*
X43370689Y-33234500D01*
X43399183Y-33191855D01*
X43426946Y-33124829D01*
X43441100Y-33053674D01*
X43441100Y-32981126D01*
X43426946Y-32909971D01*
X43399183Y-32842945D01*
X43358877Y-32782622D01*
X43307578Y-32731323D01*
X43247255Y-32691017D01*
X43180229Y-32663254D01*
X43109074Y-32649100D01*
X43036526Y-32649100D01*
X42965371Y-32663254D01*
X42898345Y-32691017D01*
X42838022Y-32731323D01*
X42786723Y-32782622D01*
X42746417Y-32842945D01*
X42718654Y-32909971D01*
X42704500Y-32981126D01*
X42704500Y-33053674D01*
X42718654Y-33124829D01*
X42746417Y-33191855D01*
X42774911Y-33234500D01*
X41420755Y-33234500D01*
X41428477Y-33226778D01*
X41468783Y-33166455D01*
X41496546Y-33099429D01*
X41510700Y-33028274D01*
X41510700Y-32955726D01*
X41496546Y-32884571D01*
X41468783Y-32817545D01*
X41428477Y-32757222D01*
X41377178Y-32705923D01*
X41316855Y-32665617D01*
X41249829Y-32637854D01*
X41178674Y-32623700D01*
X41106126Y-32623700D01*
X41034971Y-32637854D01*
X40967945Y-32665617D01*
X40907622Y-32705923D01*
X40856323Y-32757222D01*
X40816017Y-32817545D01*
X40788254Y-32884571D01*
X40774100Y-32955726D01*
X40774100Y-33028274D01*
X40788254Y-33099429D01*
X40816017Y-33166455D01*
X40856323Y-33226778D01*
X40864045Y-33234500D01*
X39490355Y-33234500D01*
X39498077Y-33226778D01*
X39538383Y-33166455D01*
X39566146Y-33099429D01*
X39580300Y-33028274D01*
X39580300Y-32955726D01*
X39566146Y-32884571D01*
X39538383Y-32817545D01*
X39498077Y-32757222D01*
X39446778Y-32705923D01*
X39386455Y-32665617D01*
X39319429Y-32637854D01*
X39248274Y-32623700D01*
X39175726Y-32623700D01*
X39104571Y-32637854D01*
X39037545Y-32665617D01*
X38977222Y-32705923D01*
X38925923Y-32757222D01*
X38885617Y-32817545D01*
X38857854Y-32884571D01*
X38843700Y-32955726D01*
X38843700Y-33028274D01*
X38857854Y-33099429D01*
X38885617Y-33166455D01*
X38925923Y-33226778D01*
X38933645Y-33234500D01*
X38525155Y-33234500D01*
X38532877Y-33226778D01*
X38573183Y-33166455D01*
X38600946Y-33099429D01*
X38615100Y-33028274D01*
X38615100Y-32955726D01*
X38600946Y-32884571D01*
X38573183Y-32817545D01*
X38532877Y-32757222D01*
X38481578Y-32705923D01*
X38421255Y-32665617D01*
X38354229Y-32637854D01*
X38283074Y-32623700D01*
X38210526Y-32623700D01*
X38139371Y-32637854D01*
X38072345Y-32665617D01*
X38012022Y-32705923D01*
X37960723Y-32757222D01*
X37920417Y-32817545D01*
X37892654Y-32884571D01*
X37878500Y-32955726D01*
X37878500Y-33028274D01*
X37892654Y-33099429D01*
X37920417Y-33166455D01*
X37960723Y-33226778D01*
X37968445Y-33234500D01*
X37559955Y-33234500D01*
X37567677Y-33226778D01*
X37607983Y-33166455D01*
X37635746Y-33099429D01*
X37649900Y-33028274D01*
X37649900Y-32955726D01*
X37635746Y-32884571D01*
X37607983Y-32817545D01*
X37567677Y-32757222D01*
X37516378Y-32705923D01*
X37456055Y-32665617D01*
X37389029Y-32637854D01*
X37317874Y-32623700D01*
X37245326Y-32623700D01*
X37174171Y-32637854D01*
X37107145Y-32665617D01*
X37046822Y-32705923D01*
X36995523Y-32757222D01*
X36955217Y-32817545D01*
X36927454Y-32884571D01*
X36913300Y-32955726D01*
X36913300Y-33028274D01*
X36927454Y-33099429D01*
X36955217Y-33166455D01*
X36995523Y-33226778D01*
X37003245Y-33234500D01*
X36594755Y-33234500D01*
X36602477Y-33226778D01*
X36642783Y-33166455D01*
X36670546Y-33099429D01*
X36684700Y-33028274D01*
X36684700Y-32955726D01*
X36670546Y-32884571D01*
X36642783Y-32817545D01*
X36602477Y-32757222D01*
X36551178Y-32705923D01*
X36490855Y-32665617D01*
X36423829Y-32637854D01*
X36352674Y-32623700D01*
X36280126Y-32623700D01*
X36208971Y-32637854D01*
X36141945Y-32665617D01*
X36081622Y-32705923D01*
X36030323Y-32757222D01*
X35990017Y-32817545D01*
X35962254Y-32884571D01*
X35948100Y-32955726D01*
X35948100Y-33028274D01*
X35962254Y-33099429D01*
X35990017Y-33166455D01*
X36030323Y-33226778D01*
X36038045Y-33234500D01*
X35629555Y-33234500D01*
X35637277Y-33226778D01*
X35677583Y-33166455D01*
X35705346Y-33099429D01*
X35719500Y-33028274D01*
X35719500Y-32955726D01*
X35705346Y-32884571D01*
X35677583Y-32817545D01*
X35637277Y-32757222D01*
X35585978Y-32705923D01*
X35525655Y-32665617D01*
X35458629Y-32637854D01*
X35387474Y-32623700D01*
X35314926Y-32623700D01*
X35243771Y-32637854D01*
X35176745Y-32665617D01*
X35116422Y-32705923D01*
X35065123Y-32757222D01*
X35024817Y-32817545D01*
X34997054Y-32884571D01*
X34982900Y-32955726D01*
X34982900Y-33028274D01*
X34997054Y-33099429D01*
X35024817Y-33166455D01*
X35065123Y-33226778D01*
X35072845Y-33234500D01*
X34499100Y-33234500D01*
X34499100Y-32371537D01*
X35465500Y-32371537D01*
X35465500Y-32444085D01*
X35479654Y-32515240D01*
X35507417Y-32582266D01*
X35547723Y-32642589D01*
X35599022Y-32693888D01*
X35659345Y-32734194D01*
X35726371Y-32761957D01*
X35797526Y-32776111D01*
X35870074Y-32776111D01*
X35941229Y-32761957D01*
X36008255Y-32734194D01*
X36068578Y-32693888D01*
X36119877Y-32642589D01*
X36160183Y-32582266D01*
X36187946Y-32515240D01*
X36202100Y-32444085D01*
X36202100Y-32371537D01*
X36197046Y-32346126D01*
X36430700Y-32346126D01*
X36430700Y-32418674D01*
X36444854Y-32489829D01*
X36472617Y-32556855D01*
X36512923Y-32617178D01*
X36564222Y-32668477D01*
X36624545Y-32708783D01*
X36691571Y-32736546D01*
X36762726Y-32750700D01*
X36835274Y-32750700D01*
X36906429Y-32736546D01*
X36973455Y-32708783D01*
X37033778Y-32668477D01*
X37085077Y-32617178D01*
X37125383Y-32556855D01*
X37153146Y-32489829D01*
X37167300Y-32418674D01*
X37167300Y-32371536D01*
X37395900Y-32371536D01*
X37395900Y-32444084D01*
X37410054Y-32515239D01*
X37437817Y-32582265D01*
X37478123Y-32642588D01*
X37529422Y-32693887D01*
X37589745Y-32734193D01*
X37656771Y-32761956D01*
X37727926Y-32776110D01*
X37800474Y-32776110D01*
X37871629Y-32761956D01*
X37938655Y-32734193D01*
X37998978Y-32693887D01*
X38050277Y-32642588D01*
X38090583Y-32582265D01*
X38118346Y-32515239D01*
X38132500Y-32444084D01*
X38132500Y-32371536D01*
X38361100Y-32371536D01*
X38361100Y-32444084D01*
X38375254Y-32515239D01*
X38403017Y-32582265D01*
X38443323Y-32642588D01*
X38494622Y-32693887D01*
X38554945Y-32734193D01*
X38621971Y-32761956D01*
X38693126Y-32776110D01*
X38765674Y-32776110D01*
X38836829Y-32761956D01*
X38903855Y-32734193D01*
X38964178Y-32693887D01*
X39015477Y-32642588D01*
X39055783Y-32582265D01*
X39083546Y-32515239D01*
X39097700Y-32444084D01*
X39097700Y-32371536D01*
X39326300Y-32371536D01*
X39326300Y-32444084D01*
X39340454Y-32515239D01*
X39368217Y-32582265D01*
X39408523Y-32642588D01*
X39459822Y-32693887D01*
X39520145Y-32734193D01*
X39587171Y-32761956D01*
X39658326Y-32776110D01*
X39730874Y-32776110D01*
X39802029Y-32761956D01*
X39869055Y-32734193D01*
X39929378Y-32693887D01*
X39980677Y-32642588D01*
X40020983Y-32582265D01*
X40048746Y-32515239D01*
X40062900Y-32444084D01*
X40062900Y-32371536D01*
X40291500Y-32371536D01*
X40291500Y-32444084D01*
X40305654Y-32515239D01*
X40333417Y-32582265D01*
X40373723Y-32642588D01*
X40425022Y-32693887D01*
X40485345Y-32734193D01*
X40552371Y-32761956D01*
X40623526Y-32776110D01*
X40696074Y-32776110D01*
X40767229Y-32761956D01*
X40834255Y-32734193D01*
X40894578Y-32693887D01*
X40945877Y-32642588D01*
X40986183Y-32582265D01*
X41013946Y-32515239D01*
X41028100Y-32444084D01*
X41028100Y-32371536D01*
X41256700Y-32371536D01*
X41256700Y-32444084D01*
X41270854Y-32515239D01*
X41298617Y-32582265D01*
X41338923Y-32642588D01*
X41390222Y-32693887D01*
X41450545Y-32734193D01*
X41517571Y-32761956D01*
X41588726Y-32776110D01*
X41661274Y-32776110D01*
X41732429Y-32761956D01*
X41799455Y-32734193D01*
X41859778Y-32693887D01*
X41911077Y-32642588D01*
X41951383Y-32582265D01*
X41979146Y-32515239D01*
X41993300Y-32444084D01*
X41993300Y-32371536D01*
X41993299Y-32371526D01*
X42221900Y-32371526D01*
X42221900Y-32444074D01*
X42236054Y-32515229D01*
X42263817Y-32582255D01*
X42304123Y-32642578D01*
X42355422Y-32693877D01*
X42415745Y-32734183D01*
X42482771Y-32761946D01*
X42553926Y-32776100D01*
X42626474Y-32776100D01*
X42697629Y-32761946D01*
X42764655Y-32734183D01*
X42824978Y-32693877D01*
X42876277Y-32642578D01*
X42916583Y-32582255D01*
X42944346Y-32515229D01*
X42958500Y-32444074D01*
X42958500Y-32371526D01*
X42953448Y-32346126D01*
X43187100Y-32346126D01*
X43187100Y-32418674D01*
X43201254Y-32489829D01*
X43229017Y-32556855D01*
X43269323Y-32617178D01*
X43320622Y-32668477D01*
X43380945Y-32708783D01*
X43447971Y-32736546D01*
X43519126Y-32750700D01*
X43591674Y-32750700D01*
X43662829Y-32736546D01*
X43729855Y-32708783D01*
X43790178Y-32668477D01*
X43841477Y-32617178D01*
X43881783Y-32556855D01*
X43909546Y-32489829D01*
X43923700Y-32418674D01*
X43923700Y-32346126D01*
X43909546Y-32274971D01*
X43881783Y-32207945D01*
X43841477Y-32147622D01*
X43790178Y-32096323D01*
X43729855Y-32056017D01*
X43662829Y-32028254D01*
X43591674Y-32014100D01*
X43519126Y-32014100D01*
X43447971Y-32028254D01*
X43380945Y-32056017D01*
X43320622Y-32096323D01*
X43269323Y-32147622D01*
X43229017Y-32207945D01*
X43201254Y-32274971D01*
X43187100Y-32346126D01*
X42953448Y-32346126D01*
X42944346Y-32300371D01*
X42916583Y-32233345D01*
X42876277Y-32173022D01*
X42824978Y-32121723D01*
X42764655Y-32081417D01*
X42697629Y-32053654D01*
X42626474Y-32039500D01*
X42553926Y-32039500D01*
X42482771Y-32053654D01*
X42415745Y-32081417D01*
X42355422Y-32121723D01*
X42304123Y-32173022D01*
X42263817Y-32233345D01*
X42236054Y-32300371D01*
X42221900Y-32371526D01*
X41993299Y-32371526D01*
X41979146Y-32300381D01*
X41951383Y-32233355D01*
X41911077Y-32173032D01*
X41859778Y-32121733D01*
X41799455Y-32081427D01*
X41732429Y-32053664D01*
X41661274Y-32039510D01*
X41588726Y-32039510D01*
X41517571Y-32053664D01*
X41450545Y-32081427D01*
X41390222Y-32121733D01*
X41338923Y-32173032D01*
X41298617Y-32233355D01*
X41270854Y-32300381D01*
X41256700Y-32371536D01*
X41028100Y-32371536D01*
X41013946Y-32300381D01*
X40986183Y-32233355D01*
X40945877Y-32173032D01*
X40894578Y-32121733D01*
X40834255Y-32081427D01*
X40767229Y-32053664D01*
X40696074Y-32039510D01*
X40623526Y-32039510D01*
X40552371Y-32053664D01*
X40485345Y-32081427D01*
X40425022Y-32121733D01*
X40373723Y-32173032D01*
X40333417Y-32233355D01*
X40305654Y-32300381D01*
X40291500Y-32371536D01*
X40062900Y-32371536D01*
X40048746Y-32300381D01*
X40020983Y-32233355D01*
X39980677Y-32173032D01*
X39929378Y-32121733D01*
X39869055Y-32081427D01*
X39802029Y-32053664D01*
X39730874Y-32039510D01*
X39658326Y-32039510D01*
X39587171Y-32053664D01*
X39520145Y-32081427D01*
X39459822Y-32121733D01*
X39408523Y-32173032D01*
X39368217Y-32233355D01*
X39340454Y-32300381D01*
X39326300Y-32371536D01*
X39097700Y-32371536D01*
X39083546Y-32300381D01*
X39055783Y-32233355D01*
X39015477Y-32173032D01*
X38964178Y-32121733D01*
X38903855Y-32081427D01*
X38836829Y-32053664D01*
X38765674Y-32039510D01*
X38693126Y-32039510D01*
X38621971Y-32053664D01*
X38554945Y-32081427D01*
X38494622Y-32121733D01*
X38443323Y-32173032D01*
X38403017Y-32233355D01*
X38375254Y-32300381D01*
X38361100Y-32371536D01*
X38132500Y-32371536D01*
X38118346Y-32300381D01*
X38090583Y-32233355D01*
X38050277Y-32173032D01*
X37998978Y-32121733D01*
X37938655Y-32081427D01*
X37871629Y-32053664D01*
X37800474Y-32039510D01*
X37727926Y-32039510D01*
X37656771Y-32053664D01*
X37589745Y-32081427D01*
X37529422Y-32121733D01*
X37478123Y-32173032D01*
X37437817Y-32233355D01*
X37410054Y-32300381D01*
X37395900Y-32371536D01*
X37167300Y-32371536D01*
X37167300Y-32346126D01*
X37153146Y-32274971D01*
X37125383Y-32207945D01*
X37085077Y-32147622D01*
X37033778Y-32096323D01*
X36973455Y-32056017D01*
X36906429Y-32028254D01*
X36835274Y-32014100D01*
X36762726Y-32014100D01*
X36691571Y-32028254D01*
X36624545Y-32056017D01*
X36564222Y-32096323D01*
X36512923Y-32147622D01*
X36472617Y-32207945D01*
X36444854Y-32274971D01*
X36430700Y-32346126D01*
X36197046Y-32346126D01*
X36187946Y-32300382D01*
X36160183Y-32233356D01*
X36119877Y-32173033D01*
X36068578Y-32121734D01*
X36008255Y-32081428D01*
X35941229Y-32053665D01*
X35870074Y-32039511D01*
X35797526Y-32039511D01*
X35726371Y-32053665D01*
X35659345Y-32081428D01*
X35599022Y-32121734D01*
X35547723Y-32173033D01*
X35507417Y-32233356D01*
X35479654Y-32300382D01*
X35465500Y-32371537D01*
X34499100Y-32371537D01*
X34499100Y-31431726D01*
X34551100Y-31431726D01*
X34551100Y-31504274D01*
X34565254Y-31575429D01*
X34593017Y-31642455D01*
X34633323Y-31702778D01*
X34684622Y-31754077D01*
X34744945Y-31794383D01*
X34811971Y-31822146D01*
X34883126Y-31836300D01*
X34955674Y-31836300D01*
X35026829Y-31822146D01*
X35093855Y-31794383D01*
X35154178Y-31754077D01*
X35205477Y-31702778D01*
X35245783Y-31642455D01*
X35273546Y-31575429D01*
X35276868Y-31558726D01*
X36202074Y-31558726D01*
X36202074Y-31631274D01*
X36216228Y-31702429D01*
X36243991Y-31769455D01*
X36284297Y-31829778D01*
X36335596Y-31881077D01*
X36395919Y-31921383D01*
X36462945Y-31949146D01*
X36534100Y-31963300D01*
X36606648Y-31963300D01*
X36677803Y-31949146D01*
X36744829Y-31921383D01*
X36786281Y-31893686D01*
X36827732Y-31921383D01*
X36894758Y-31949146D01*
X36965913Y-31963300D01*
X37038461Y-31963300D01*
X37109616Y-31949146D01*
X37176642Y-31921383D01*
X37236965Y-31881077D01*
X37288264Y-31829778D01*
X37328570Y-31769455D01*
X37356333Y-31702429D01*
X37370487Y-31631274D01*
X37370487Y-31584126D01*
X37614901Y-31584126D01*
X37614901Y-31656674D01*
X37629055Y-31727829D01*
X37656818Y-31794855D01*
X37697124Y-31855178D01*
X37748423Y-31906477D01*
X37808746Y-31946783D01*
X37875772Y-31974546D01*
X37946927Y-31988700D01*
X38019475Y-31988700D01*
X38090630Y-31974546D01*
X38157656Y-31946783D01*
X38217979Y-31906477D01*
X38269278Y-31855178D01*
X38309584Y-31794855D01*
X38337347Y-31727829D01*
X38351501Y-31656674D01*
X38351501Y-31584126D01*
X38349738Y-31575263D01*
X41697363Y-31575263D01*
X41697363Y-31647811D01*
X41711517Y-31718966D01*
X41739280Y-31785992D01*
X41779586Y-31846315D01*
X41830885Y-31897614D01*
X41891208Y-31937920D01*
X41958234Y-31965683D01*
X42029389Y-31979837D01*
X42101937Y-31979837D01*
X42173092Y-31965683D01*
X42240118Y-31937920D01*
X42300441Y-31897614D01*
X42351740Y-31846315D01*
X42392046Y-31785992D01*
X42419809Y-31718966D01*
X42433963Y-31647811D01*
X42433963Y-31575263D01*
X42419809Y-31504108D01*
X42392046Y-31437082D01*
X42351740Y-31376759D01*
X42300441Y-31325460D01*
X42240118Y-31285154D01*
X42173092Y-31257391D01*
X42101937Y-31243237D01*
X42029389Y-31243237D01*
X41958234Y-31257391D01*
X41891208Y-31285154D01*
X41830885Y-31325460D01*
X41779586Y-31376759D01*
X41739280Y-31437082D01*
X41711517Y-31504108D01*
X41697363Y-31575263D01*
X38349738Y-31575263D01*
X38337347Y-31512971D01*
X38309584Y-31445945D01*
X38269278Y-31385622D01*
X38217979Y-31334323D01*
X38157656Y-31294017D01*
X38090630Y-31266254D01*
X38019475Y-31252100D01*
X37946927Y-31252100D01*
X37875772Y-31266254D01*
X37808746Y-31294017D01*
X37748423Y-31334323D01*
X37697124Y-31385622D01*
X37656818Y-31445945D01*
X37629055Y-31512971D01*
X37614901Y-31584126D01*
X37370487Y-31584126D01*
X37370487Y-31558726D01*
X37356333Y-31487571D01*
X37328570Y-31420545D01*
X37288264Y-31360222D01*
X37236965Y-31308923D01*
X37176642Y-31268617D01*
X37109616Y-31240854D01*
X37038461Y-31226700D01*
X36965913Y-31226700D01*
X36894758Y-31240854D01*
X36827732Y-31268617D01*
X36786281Y-31296314D01*
X36744829Y-31268617D01*
X36677803Y-31240854D01*
X36606648Y-31226700D01*
X36534100Y-31226700D01*
X36462945Y-31240854D01*
X36395919Y-31268617D01*
X36335596Y-31308923D01*
X36284297Y-31360222D01*
X36243991Y-31420545D01*
X36216228Y-31487571D01*
X36202074Y-31558726D01*
X35276868Y-31558726D01*
X35287700Y-31504274D01*
X35287700Y-31431726D01*
X35273546Y-31360571D01*
X35245783Y-31293545D01*
X35205477Y-31233222D01*
X35154178Y-31181923D01*
X35101535Y-31146748D01*
X35153829Y-31136346D01*
X35220855Y-31108583D01*
X35281178Y-31068277D01*
X35332477Y-31016978D01*
X35372783Y-30956655D01*
X35400546Y-30889629D01*
X35414700Y-30818474D01*
X35414700Y-30745926D01*
X35400546Y-30674771D01*
X35372783Y-30607745D01*
X35332477Y-30547422D01*
X35281178Y-30496123D01*
X35220855Y-30455817D01*
X35153829Y-30428054D01*
X35082674Y-30413900D01*
X35010126Y-30413900D01*
X34938971Y-30428054D01*
X34871945Y-30455817D01*
X34811622Y-30496123D01*
X34760323Y-30547422D01*
X34720017Y-30607745D01*
X34692254Y-30674771D01*
X34678100Y-30745926D01*
X34678100Y-30818474D01*
X34692254Y-30889629D01*
X34720017Y-30956655D01*
X34760323Y-31016978D01*
X34811622Y-31068277D01*
X34864265Y-31103452D01*
X34811971Y-31113854D01*
X34744945Y-31141617D01*
X34684622Y-31181923D01*
X34633323Y-31233222D01*
X34593017Y-31293545D01*
X34565254Y-31360571D01*
X34551100Y-31431726D01*
X34499100Y-31431726D01*
X34499100Y-30263326D01*
X35719500Y-30263326D01*
X35719500Y-30335874D01*
X35733654Y-30407029D01*
X35761417Y-30474055D01*
X35801723Y-30534378D01*
X35853022Y-30585677D01*
X35913345Y-30625983D01*
X35980371Y-30653746D01*
X36051526Y-30667900D01*
X36124074Y-30667900D01*
X36160907Y-30660573D01*
X36167817Y-30677255D01*
X36208123Y-30737578D01*
X36259422Y-30788877D01*
X36319745Y-30829183D01*
X36386771Y-30856946D01*
X36457926Y-30871100D01*
X36530474Y-30871100D01*
X36601629Y-30856946D01*
X36668655Y-30829183D01*
X36728978Y-30788877D01*
X36780277Y-30737578D01*
X36820583Y-30677255D01*
X36848346Y-30610229D01*
X36862500Y-30539074D01*
X36862500Y-30466526D01*
X36848346Y-30395371D01*
X36820583Y-30328345D01*
X36780277Y-30268022D01*
X36775581Y-30263326D01*
X43263300Y-30263326D01*
X43263300Y-30335874D01*
X43277454Y-30407029D01*
X43305217Y-30474055D01*
X43345523Y-30534378D01*
X43396822Y-30585677D01*
X43457145Y-30625983D01*
X43524171Y-30653746D01*
X43595326Y-30667900D01*
X43667874Y-30667900D01*
X43739029Y-30653746D01*
X43806055Y-30625983D01*
X43866378Y-30585677D01*
X43917677Y-30534378D01*
X43957983Y-30474055D01*
X43985746Y-30407029D01*
X43999900Y-30335874D01*
X43999900Y-30263326D01*
X43985746Y-30192171D01*
X43957983Y-30125145D01*
X43917677Y-30064822D01*
X43866378Y-30013523D01*
X43806055Y-29973217D01*
X43739029Y-29945454D01*
X43667874Y-29931300D01*
X43595326Y-29931300D01*
X43524171Y-29945454D01*
X43457145Y-29973217D01*
X43396822Y-30013523D01*
X43345523Y-30064822D01*
X43305217Y-30125145D01*
X43277454Y-30192171D01*
X43263300Y-30263326D01*
X36775581Y-30263326D01*
X36728978Y-30216723D01*
X36668655Y-30176417D01*
X36601629Y-30148654D01*
X36530474Y-30134500D01*
X36457926Y-30134500D01*
X36421093Y-30141827D01*
X36418058Y-30134500D01*
X36428874Y-30134500D01*
X36500029Y-30120346D01*
X36567055Y-30092583D01*
X36627378Y-30052277D01*
X36678677Y-30000978D01*
X36718983Y-29940655D01*
X36746746Y-29873629D01*
X36760900Y-29802474D01*
X36760900Y-29729926D01*
X36746746Y-29658771D01*
X36718983Y-29591745D01*
X36678677Y-29531422D01*
X36627378Y-29480123D01*
X36567055Y-29439817D01*
X36500029Y-29412054D01*
X36428874Y-29397900D01*
X36356326Y-29397900D01*
X36285171Y-29412054D01*
X36218145Y-29439817D01*
X36157822Y-29480123D01*
X36106523Y-29531422D01*
X36066217Y-29591745D01*
X36038454Y-29658771D01*
X36024300Y-29729926D01*
X36024300Y-29802474D01*
X36038454Y-29873629D01*
X36062342Y-29931300D01*
X36051526Y-29931300D01*
X35980371Y-29945454D01*
X35913345Y-29973217D01*
X35853022Y-30013523D01*
X35801723Y-30064822D01*
X35761417Y-30125145D01*
X35733654Y-30192171D01*
X35719500Y-30263326D01*
X34499100Y-30263326D01*
X34499100Y-29171126D01*
X37649900Y-29171126D01*
X37649900Y-29243674D01*
X37664054Y-29314829D01*
X37691817Y-29381855D01*
X37732123Y-29442178D01*
X37783422Y-29493477D01*
X37843745Y-29533783D01*
X37910771Y-29561546D01*
X37981926Y-29575700D01*
X38054474Y-29575700D01*
X38066300Y-29573348D01*
X38070454Y-29594229D01*
X38098217Y-29661255D01*
X38138523Y-29721578D01*
X38189822Y-29772877D01*
X38250145Y-29813183D01*
X38317171Y-29840946D01*
X38388326Y-29855100D01*
X38460874Y-29855100D01*
X38532029Y-29840946D01*
X38599055Y-29813183D01*
X38659378Y-29772877D01*
X38700108Y-29732147D01*
X38707345Y-29736983D01*
X38774371Y-29764746D01*
X38845526Y-29778900D01*
X38874516Y-29778900D01*
X38883254Y-29822829D01*
X38911017Y-29889855D01*
X38951323Y-29950178D01*
X39002622Y-30001477D01*
X39062945Y-30041783D01*
X39129971Y-30069546D01*
X39201126Y-30083700D01*
X39273674Y-30083700D01*
X39344829Y-30069546D01*
X39411855Y-30041783D01*
X39472178Y-30001477D01*
X39481210Y-29992445D01*
X39517035Y-30016383D01*
X39584061Y-30044146D01*
X39655216Y-30058300D01*
X39727764Y-30058300D01*
X39798919Y-30044146D01*
X39865945Y-30016383D01*
X39926268Y-29976077D01*
X39977567Y-29924778D01*
X40017873Y-29864455D01*
X40045636Y-29797429D01*
X40056102Y-29744816D01*
X40071640Y-29744816D01*
X40077054Y-29772035D01*
X40104817Y-29839061D01*
X40145123Y-29899384D01*
X40196422Y-29950683D01*
X40256745Y-29990989D01*
X40323771Y-30018752D01*
X40394926Y-30032906D01*
X40467474Y-30032906D01*
X40538629Y-30018752D01*
X40605655Y-29990989D01*
X40665978Y-29950683D01*
X40717277Y-29899384D01*
X40757583Y-29839061D01*
X40785346Y-29772035D01*
X40799500Y-29700880D01*
X40799500Y-29661764D01*
X40805523Y-29670778D01*
X40856822Y-29722077D01*
X40917145Y-29762383D01*
X40984171Y-29790146D01*
X41055326Y-29804300D01*
X41127874Y-29804300D01*
X41199029Y-29790146D01*
X41266055Y-29762383D01*
X41326378Y-29722077D01*
X41377677Y-29670778D01*
X41417983Y-29610455D01*
X41445746Y-29543429D01*
X41459900Y-29472274D01*
X41459900Y-29399726D01*
X41445746Y-29328571D01*
X41417983Y-29261545D01*
X41377677Y-29201222D01*
X41326378Y-29149923D01*
X41266055Y-29109617D01*
X41199029Y-29081854D01*
X41127874Y-29067700D01*
X41055326Y-29067700D01*
X40984171Y-29081854D01*
X40917145Y-29109617D01*
X40856822Y-29149923D01*
X40805523Y-29201222D01*
X40765217Y-29261545D01*
X40737454Y-29328571D01*
X40723300Y-29399726D01*
X40723300Y-29438842D01*
X40717277Y-29429828D01*
X40665978Y-29378529D01*
X40605655Y-29338223D01*
X40538629Y-29310460D01*
X40467474Y-29296306D01*
X40448038Y-29296306D01*
X40442624Y-29269087D01*
X40414861Y-29202061D01*
X40374555Y-29141738D01*
X40323256Y-29090439D01*
X40262933Y-29050133D01*
X40195907Y-29022370D01*
X40177588Y-29018726D01*
X42120300Y-29018726D01*
X42120300Y-29091274D01*
X42134454Y-29162429D01*
X42162217Y-29229455D01*
X42202523Y-29289778D01*
X42253822Y-29341077D01*
X42314145Y-29381383D01*
X42381171Y-29409146D01*
X42452326Y-29423300D01*
X42524874Y-29423300D01*
X42596029Y-29409146D01*
X42663055Y-29381383D01*
X42723378Y-29341077D01*
X42766329Y-29298126D01*
X43237900Y-29298126D01*
X43237900Y-29370674D01*
X43252054Y-29441829D01*
X43279817Y-29508855D01*
X43320123Y-29569178D01*
X43371422Y-29620477D01*
X43431745Y-29660783D01*
X43498771Y-29688546D01*
X43569926Y-29702700D01*
X43642474Y-29702700D01*
X43713629Y-29688546D01*
X43780655Y-29660783D01*
X43840978Y-29620477D01*
X43892277Y-29569178D01*
X43932583Y-29508855D01*
X43960346Y-29441829D01*
X43974500Y-29370674D01*
X43974500Y-29298126D01*
X43960346Y-29226971D01*
X43932583Y-29159945D01*
X43892277Y-29099622D01*
X43840978Y-29048323D01*
X43780655Y-29008017D01*
X43713629Y-28980254D01*
X43642474Y-28966100D01*
X43569926Y-28966100D01*
X43498771Y-28980254D01*
X43431745Y-29008017D01*
X43371422Y-29048323D01*
X43320123Y-29099622D01*
X43279817Y-29159945D01*
X43252054Y-29226971D01*
X43237900Y-29298126D01*
X42766329Y-29298126D01*
X42774677Y-29289778D01*
X42814983Y-29229455D01*
X42842746Y-29162429D01*
X42856900Y-29091274D01*
X42856900Y-29018726D01*
X42842746Y-28947571D01*
X42814983Y-28880545D01*
X42774677Y-28820222D01*
X42723378Y-28768923D01*
X42663055Y-28728617D01*
X42596029Y-28700854D01*
X42524874Y-28686700D01*
X42452326Y-28686700D01*
X42381171Y-28700854D01*
X42314145Y-28728617D01*
X42253822Y-28768923D01*
X42202523Y-28820222D01*
X42162217Y-28880545D01*
X42134454Y-28947571D01*
X42120300Y-29018726D01*
X40177588Y-29018726D01*
X40124752Y-29008216D01*
X40052204Y-29008216D01*
X39981049Y-29022370D01*
X39914023Y-29050133D01*
X39853700Y-29090439D01*
X39802401Y-29141738D01*
X39762095Y-29202061D01*
X39734332Y-29269087D01*
X39723866Y-29321700D01*
X39655216Y-29321700D01*
X39584061Y-29335854D01*
X39517035Y-29363617D01*
X39456712Y-29403923D01*
X39447680Y-29412955D01*
X39411855Y-29389017D01*
X39344829Y-29361254D01*
X39273674Y-29347100D01*
X39244684Y-29347100D01*
X39235946Y-29303171D01*
X39208183Y-29236145D01*
X39167877Y-29175822D01*
X39116578Y-29124523D01*
X39056255Y-29084217D01*
X38989229Y-29056454D01*
X38918074Y-29042300D01*
X38845526Y-29042300D01*
X38774371Y-29056454D01*
X38707345Y-29084217D01*
X38647022Y-29124523D01*
X38606292Y-29165253D01*
X38599055Y-29160417D01*
X38532029Y-29132654D01*
X38460874Y-29118500D01*
X38388326Y-29118500D01*
X38376500Y-29120852D01*
X38372346Y-29099971D01*
X38344583Y-29032945D01*
X38304277Y-28972622D01*
X38252978Y-28921323D01*
X38192655Y-28881017D01*
X38125629Y-28853254D01*
X38054474Y-28839100D01*
X37981926Y-28839100D01*
X37910771Y-28853254D01*
X37843745Y-28881017D01*
X37783422Y-28921323D01*
X37732123Y-28972622D01*
X37691817Y-29032945D01*
X37664054Y-29099971D01*
X37649900Y-29171126D01*
X34499100Y-29171126D01*
X34499100Y-28409126D01*
X38361100Y-28409126D01*
X38361100Y-28481674D01*
X38375254Y-28552829D01*
X38403017Y-28619855D01*
X38443323Y-28680178D01*
X38494622Y-28731477D01*
X38554945Y-28771783D01*
X38621971Y-28799546D01*
X38693126Y-28813700D01*
X38765674Y-28813700D01*
X38836829Y-28799546D01*
X38903855Y-28771783D01*
X38964178Y-28731477D01*
X39015477Y-28680178D01*
X39055783Y-28619855D01*
X39083546Y-28552829D01*
X39096973Y-28485326D01*
X40596300Y-28485326D01*
X40596300Y-28557874D01*
X40610454Y-28629029D01*
X40638217Y-28696055D01*
X40678523Y-28756378D01*
X40729822Y-28807677D01*
X40790145Y-28847983D01*
X40857171Y-28875746D01*
X40928326Y-28889900D01*
X41000874Y-28889900D01*
X41072029Y-28875746D01*
X41139055Y-28847983D01*
X41199378Y-28807677D01*
X41250677Y-28756378D01*
X41290983Y-28696055D01*
X41318746Y-28629029D01*
X41332900Y-28557874D01*
X41332900Y-28485326D01*
X41318746Y-28414171D01*
X41290983Y-28347145D01*
X41281483Y-28332926D01*
X43237900Y-28332926D01*
X43237900Y-28405474D01*
X43252054Y-28476629D01*
X43279817Y-28543655D01*
X43320123Y-28603978D01*
X43371422Y-28655277D01*
X43431745Y-28695583D01*
X43498771Y-28723346D01*
X43569926Y-28737500D01*
X43642474Y-28737500D01*
X43713629Y-28723346D01*
X43780655Y-28695583D01*
X43840978Y-28655277D01*
X43892277Y-28603978D01*
X43932583Y-28543655D01*
X43960346Y-28476629D01*
X43974500Y-28405474D01*
X43974500Y-28332926D01*
X43960346Y-28261771D01*
X43932583Y-28194745D01*
X43892277Y-28134422D01*
X43840978Y-28083123D01*
X43780655Y-28042817D01*
X43713629Y-28015054D01*
X43642474Y-28000900D01*
X43569926Y-28000900D01*
X43498771Y-28015054D01*
X43431745Y-28042817D01*
X43371422Y-28083123D01*
X43320123Y-28134422D01*
X43279817Y-28194745D01*
X43252054Y-28261771D01*
X43237900Y-28332926D01*
X41281483Y-28332926D01*
X41250677Y-28286822D01*
X41199378Y-28235523D01*
X41139055Y-28195217D01*
X41072029Y-28167454D01*
X41000874Y-28153300D01*
X40928326Y-28153300D01*
X40857171Y-28167454D01*
X40790145Y-28195217D01*
X40729822Y-28235523D01*
X40678523Y-28286822D01*
X40638217Y-28347145D01*
X40610454Y-28414171D01*
X40596300Y-28485326D01*
X39096973Y-28485326D01*
X39097700Y-28481674D01*
X39097700Y-28409126D01*
X39083546Y-28337971D01*
X39055783Y-28270945D01*
X39015477Y-28210622D01*
X38964178Y-28159323D01*
X38903855Y-28119017D01*
X38836829Y-28091254D01*
X38765674Y-28077100D01*
X38693126Y-28077100D01*
X38621971Y-28091254D01*
X38554945Y-28119017D01*
X38494622Y-28159323D01*
X38443323Y-28210622D01*
X38403017Y-28270945D01*
X38375254Y-28337971D01*
X38361100Y-28409126D01*
X34499100Y-28409126D01*
X34499100Y-27418526D01*
X34830500Y-27418526D01*
X34830500Y-27491074D01*
X34844654Y-27562229D01*
X34872417Y-27629255D01*
X34912723Y-27689578D01*
X34964022Y-27740877D01*
X35024345Y-27781183D01*
X35091371Y-27808946D01*
X35162526Y-27823100D01*
X35235074Y-27823100D01*
X35306229Y-27808946D01*
X35373255Y-27781183D01*
X35433578Y-27740877D01*
X35484877Y-27689578D01*
X35525183Y-27629255D01*
X35552946Y-27562229D01*
X35567100Y-27491074D01*
X35567100Y-27418526D01*
X35552946Y-27347371D01*
X35525183Y-27280345D01*
X35484877Y-27220022D01*
X35433578Y-27168723D01*
X35389283Y-27139126D01*
X37700700Y-27139126D01*
X37700700Y-27211674D01*
X37714854Y-27282829D01*
X37742617Y-27349855D01*
X37782923Y-27410178D01*
X37834222Y-27461477D01*
X37894545Y-27501783D01*
X37961571Y-27529546D01*
X38032726Y-27543700D01*
X38105274Y-27543700D01*
X38176429Y-27529546D01*
X38243455Y-27501783D01*
X38281145Y-27476600D01*
X38291422Y-27486877D01*
X38351745Y-27527183D01*
X38418771Y-27554946D01*
X38489926Y-27569100D01*
X38562474Y-27569100D01*
X38633629Y-27554946D01*
X38700655Y-27527183D01*
X38760978Y-27486877D01*
X38812277Y-27435578D01*
X38852583Y-27375255D01*
X38880346Y-27308229D01*
X38894500Y-27237074D01*
X38894500Y-27164526D01*
X38880346Y-27093371D01*
X38867736Y-27062926D01*
X40621700Y-27062926D01*
X40621700Y-27135474D01*
X40635854Y-27206629D01*
X40663617Y-27273655D01*
X40703923Y-27333978D01*
X40755222Y-27385277D01*
X40815545Y-27425583D01*
X40882571Y-27453346D01*
X40953726Y-27467500D01*
X41026274Y-27467500D01*
X41097429Y-27453346D01*
X41164455Y-27425583D01*
X41224778Y-27385277D01*
X41276077Y-27333978D01*
X41316383Y-27273655D01*
X41344146Y-27206629D01*
X41358300Y-27135474D01*
X41358300Y-27062926D01*
X41344146Y-26991771D01*
X41342054Y-26986720D01*
X41383700Y-26986720D01*
X41383700Y-27059268D01*
X41397854Y-27130423D01*
X41425617Y-27197449D01*
X41465923Y-27257772D01*
X41517222Y-27309071D01*
X41577545Y-27349377D01*
X41644571Y-27377140D01*
X41715726Y-27391294D01*
X41788274Y-27391294D01*
X41859429Y-27377140D01*
X41882156Y-27367726D01*
X43237900Y-27367726D01*
X43237900Y-27440274D01*
X43252054Y-27511429D01*
X43279817Y-27578455D01*
X43320123Y-27638778D01*
X43371422Y-27690077D01*
X43431745Y-27730383D01*
X43498771Y-27758146D01*
X43569926Y-27772300D01*
X43642474Y-27772300D01*
X43713629Y-27758146D01*
X43780655Y-27730383D01*
X43840978Y-27690077D01*
X43892277Y-27638778D01*
X43932583Y-27578455D01*
X43960346Y-27511429D01*
X43974500Y-27440274D01*
X43974500Y-27367726D01*
X43960346Y-27296571D01*
X43932583Y-27229545D01*
X43892277Y-27169222D01*
X43840978Y-27117923D01*
X43780655Y-27077617D01*
X43713629Y-27049854D01*
X43642474Y-27035700D01*
X43569926Y-27035700D01*
X43498771Y-27049854D01*
X43431745Y-27077617D01*
X43371422Y-27117923D01*
X43320123Y-27169222D01*
X43279817Y-27229545D01*
X43252054Y-27296571D01*
X43237900Y-27367726D01*
X41882156Y-27367726D01*
X41926455Y-27349377D01*
X41986778Y-27309071D01*
X42038077Y-27257772D01*
X42078383Y-27197449D01*
X42106146Y-27130423D01*
X42120300Y-27059268D01*
X42120300Y-26986720D01*
X42106146Y-26915565D01*
X42078383Y-26848539D01*
X42038077Y-26788216D01*
X41986778Y-26736917D01*
X41926455Y-26696611D01*
X41859429Y-26668848D01*
X41788274Y-26654694D01*
X41715726Y-26654694D01*
X41644571Y-26668848D01*
X41577545Y-26696611D01*
X41517222Y-26736917D01*
X41465923Y-26788216D01*
X41425617Y-26848539D01*
X41397854Y-26915565D01*
X41383700Y-26986720D01*
X41342054Y-26986720D01*
X41316383Y-26924745D01*
X41276077Y-26864422D01*
X41224778Y-26813123D01*
X41164455Y-26772817D01*
X41097429Y-26745054D01*
X41026274Y-26730900D01*
X40953726Y-26730900D01*
X40882571Y-26745054D01*
X40815545Y-26772817D01*
X40755222Y-26813123D01*
X40703923Y-26864422D01*
X40663617Y-26924745D01*
X40635854Y-26991771D01*
X40621700Y-27062926D01*
X38867736Y-27062926D01*
X38852583Y-27026345D01*
X38812277Y-26966022D01*
X38760978Y-26914723D01*
X38700655Y-26874417D01*
X38633629Y-26846654D01*
X38562474Y-26832500D01*
X38489926Y-26832500D01*
X38418771Y-26846654D01*
X38351745Y-26874417D01*
X38314055Y-26899600D01*
X38303778Y-26889323D01*
X38243455Y-26849017D01*
X38176429Y-26821254D01*
X38105274Y-26807100D01*
X38032726Y-26807100D01*
X37961571Y-26821254D01*
X37894545Y-26849017D01*
X37834222Y-26889323D01*
X37782923Y-26940622D01*
X37742617Y-27000945D01*
X37714854Y-27067971D01*
X37700700Y-27139126D01*
X35389283Y-27139126D01*
X35373255Y-27128417D01*
X35306229Y-27100654D01*
X35235074Y-27086500D01*
X35162526Y-27086500D01*
X35091371Y-27100654D01*
X35024345Y-27128417D01*
X34964022Y-27168723D01*
X34912723Y-27220022D01*
X34872417Y-27280345D01*
X34844654Y-27347371D01*
X34830500Y-27418526D01*
X34499100Y-27418526D01*
X34499100Y-26250126D01*
X34932100Y-26250126D01*
X34932100Y-26322674D01*
X34946254Y-26393829D01*
X34974017Y-26460855D01*
X35014323Y-26521178D01*
X35065622Y-26572477D01*
X35125945Y-26612783D01*
X35192971Y-26640546D01*
X35264126Y-26654700D01*
X35336674Y-26654700D01*
X35407829Y-26640546D01*
X35474855Y-26612783D01*
X35535178Y-26572477D01*
X35586477Y-26521178D01*
X35626783Y-26460855D01*
X35654546Y-26393829D01*
X35668700Y-26322674D01*
X35668700Y-26250126D01*
X36456100Y-26250126D01*
X36456100Y-26322674D01*
X36470254Y-26393829D01*
X36498017Y-26460855D01*
X36538323Y-26521178D01*
X36589622Y-26572477D01*
X36649945Y-26612783D01*
X36716971Y-26640546D01*
X36788126Y-26654700D01*
X36860674Y-26654700D01*
X36931829Y-26640546D01*
X36998855Y-26612783D01*
X37059178Y-26572477D01*
X37110477Y-26521178D01*
X37150783Y-26460855D01*
X37178546Y-26393829D01*
X37186921Y-26351726D01*
X38437300Y-26351726D01*
X38437300Y-26424274D01*
X38451454Y-26495429D01*
X38479217Y-26562455D01*
X38519523Y-26622778D01*
X38570822Y-26674077D01*
X38631145Y-26714383D01*
X38698171Y-26742146D01*
X38769326Y-26756300D01*
X38841874Y-26756300D01*
X38913029Y-26742146D01*
X38980055Y-26714383D01*
X39040378Y-26674077D01*
X39091677Y-26622778D01*
X39131983Y-26562455D01*
X39159746Y-26495429D01*
X39173900Y-26424274D01*
X39173900Y-26351726D01*
X39163795Y-26300926D01*
X39711900Y-26300926D01*
X39711900Y-26373474D01*
X39726054Y-26444629D01*
X39753817Y-26511655D01*
X39794123Y-26571978D01*
X39845422Y-26623277D01*
X39905745Y-26663583D01*
X39972771Y-26691346D01*
X40043926Y-26705500D01*
X40116474Y-26705500D01*
X40187629Y-26691346D01*
X40254655Y-26663583D01*
X40314978Y-26623277D01*
X40366277Y-26571978D01*
X40406583Y-26511655D01*
X40434346Y-26444629D01*
X40437668Y-26427926D01*
X43237900Y-26427926D01*
X43237900Y-26500474D01*
X43252054Y-26571629D01*
X43279817Y-26638655D01*
X43320123Y-26698978D01*
X43371422Y-26750277D01*
X43431745Y-26790583D01*
X43498771Y-26818346D01*
X43569926Y-26832500D01*
X43642474Y-26832500D01*
X43713629Y-26818346D01*
X43780655Y-26790583D01*
X43840978Y-26750277D01*
X43892277Y-26698978D01*
X43932583Y-26638655D01*
X43960346Y-26571629D01*
X43974500Y-26500474D01*
X43974500Y-26427926D01*
X43960346Y-26356771D01*
X43932583Y-26289745D01*
X43892277Y-26229422D01*
X43840978Y-26178123D01*
X43780655Y-26137817D01*
X43713629Y-26110054D01*
X43642474Y-26095900D01*
X43569926Y-26095900D01*
X43498771Y-26110054D01*
X43431745Y-26137817D01*
X43371422Y-26178123D01*
X43320123Y-26229422D01*
X43279817Y-26289745D01*
X43252054Y-26356771D01*
X43237900Y-26427926D01*
X40437668Y-26427926D01*
X40448500Y-26373474D01*
X40448500Y-26300926D01*
X40434346Y-26229771D01*
X40406583Y-26162745D01*
X40366277Y-26102422D01*
X40314978Y-26051123D01*
X40254655Y-26010817D01*
X40187629Y-25983054D01*
X40116474Y-25968900D01*
X40043926Y-25968900D01*
X39972771Y-25983054D01*
X39905745Y-26010817D01*
X39845422Y-26051123D01*
X39794123Y-26102422D01*
X39753817Y-26162745D01*
X39726054Y-26229771D01*
X39711900Y-26300926D01*
X39163795Y-26300926D01*
X39159746Y-26280571D01*
X39131983Y-26213545D01*
X39091677Y-26153222D01*
X39040378Y-26101923D01*
X38980055Y-26061617D01*
X38913029Y-26033854D01*
X38841874Y-26019700D01*
X38769326Y-26019700D01*
X38698171Y-26033854D01*
X38631145Y-26061617D01*
X38570822Y-26101923D01*
X38519523Y-26153222D01*
X38479217Y-26213545D01*
X38451454Y-26280571D01*
X38437300Y-26351726D01*
X37186921Y-26351726D01*
X37192700Y-26322674D01*
X37192700Y-26250126D01*
X37178546Y-26178971D01*
X37150783Y-26111945D01*
X37110477Y-26051622D01*
X37059178Y-26000323D01*
X36998855Y-25960017D01*
X36931829Y-25932254D01*
X36860674Y-25918100D01*
X36788126Y-25918100D01*
X36716971Y-25932254D01*
X36649945Y-25960017D01*
X36589622Y-26000323D01*
X36538323Y-26051622D01*
X36498017Y-26111945D01*
X36470254Y-26178971D01*
X36456100Y-26250126D01*
X35668700Y-26250126D01*
X35654546Y-26178971D01*
X35626783Y-26111945D01*
X35586477Y-26051622D01*
X35535178Y-26000323D01*
X35474855Y-25960017D01*
X35407829Y-25932254D01*
X35336674Y-25918100D01*
X35264126Y-25918100D01*
X35192971Y-25932254D01*
X35125945Y-25960017D01*
X35065622Y-26000323D01*
X35014323Y-26051622D01*
X34974017Y-26111945D01*
X34946254Y-26178971D01*
X34932100Y-26250126D01*
X34499100Y-26250126D01*
X34499100Y-25513532D01*
X35541700Y-25513532D01*
X35541700Y-25586080D01*
X35555854Y-25657235D01*
X35583617Y-25724261D01*
X35623923Y-25784584D01*
X35675222Y-25835883D01*
X35735545Y-25876189D01*
X35802571Y-25903952D01*
X35873726Y-25918106D01*
X35946274Y-25918106D01*
X36017429Y-25903952D01*
X36084455Y-25876189D01*
X36144778Y-25835883D01*
X36196077Y-25784584D01*
X36236383Y-25724261D01*
X36264146Y-25657235D01*
X36278300Y-25586080D01*
X36278300Y-25513532D01*
X36273247Y-25488126D01*
X37395900Y-25488126D01*
X37395900Y-25560674D01*
X37410054Y-25631829D01*
X37437817Y-25698855D01*
X37478123Y-25759178D01*
X37529422Y-25810477D01*
X37589745Y-25850783D01*
X37656771Y-25878546D01*
X37727926Y-25892700D01*
X37800474Y-25892700D01*
X37871629Y-25878546D01*
X37938655Y-25850783D01*
X37998978Y-25810477D01*
X38050277Y-25759178D01*
X38090583Y-25698855D01*
X38118346Y-25631829D01*
X38132500Y-25560674D01*
X38132500Y-25488126D01*
X38118346Y-25416971D01*
X38090583Y-25349945D01*
X38050277Y-25289622D01*
X37998978Y-25238323D01*
X37938655Y-25198017D01*
X37871629Y-25170254D01*
X37800474Y-25156100D01*
X37727926Y-25156100D01*
X37656771Y-25170254D01*
X37589745Y-25198017D01*
X37529422Y-25238323D01*
X37478123Y-25289622D01*
X37437817Y-25349945D01*
X37410054Y-25416971D01*
X37395900Y-25488126D01*
X36273247Y-25488126D01*
X36264146Y-25442377D01*
X36236383Y-25375351D01*
X36196077Y-25315028D01*
X36144778Y-25263729D01*
X36084455Y-25223423D01*
X36017429Y-25195660D01*
X35946274Y-25181506D01*
X35873726Y-25181506D01*
X35802571Y-25195660D01*
X35735545Y-25223423D01*
X35675222Y-25263729D01*
X35623923Y-25315028D01*
X35583617Y-25375351D01*
X35555854Y-25442377D01*
X35541700Y-25513532D01*
X34499100Y-25513532D01*
X34499100Y-24765500D01*
X43971245Y-24765500D01*
X43955123Y-24781622D01*
M02*
