G04 #@! TF.GenerationSoftware,KiCad,Pcbnew,(5.1.0)-1*
G04 #@! TF.CreationDate,2019-05-02T19:51:03-07:00*
G04 #@! TF.ProjectId,Miniscope-v4-PYTHON480,4d696e69-7363-46f7-9065-2d76342d5059,rev?*
G04 #@! TF.SameCoordinates,PX20a5d00PY1ff2b60*
G04 #@! TF.FileFunction,Copper,L6,Bot*
G04 #@! TF.FilePolarity,Positive*
%FSLAX46Y46*%
G04 Gerber Fmt 4.6, Leading zero omitted, Abs format (unit mm)*
G04 Created by KiCad (PCBNEW (5.1.0)-1) date 2019-05-02 19:51:03*
%MOMM*%
%LPD*%
G04 APERTURE LIST*
%ADD10C,0.250000*%
%ADD11R,0.340000X0.310000*%
%ADD12R,0.630000X0.580000*%
%ADD13C,0.355600*%
%ADD14C,0.076200*%
%ADD15C,0.152400*%
%ADD16C,0.304800*%
G04 APERTURE END LIST*
D10*
X2750000Y2411600D03*
X3250000Y2411600D03*
X3750000Y2411600D03*
X4250000Y2411600D03*
X4750000Y2411600D03*
X5250000Y2411600D03*
X5750000Y2411600D03*
X6250000Y2411600D03*
X6750000Y2411600D03*
X7250000Y2411600D03*
X7750000Y2411600D03*
X2750000Y2911600D03*
X3250000Y2911600D03*
X3750000Y2911600D03*
X4250000Y2911600D03*
X4750000Y2911600D03*
X5250000Y2911600D03*
X5750000Y2911600D03*
X6250000Y2911600D03*
X6750000Y2911600D03*
X7250000Y2911600D03*
X7750000Y2911600D03*
X2750000Y3411600D03*
X3250000Y3411600D03*
X3750000Y3411600D03*
X4250000Y3411600D03*
X4750000Y3411600D03*
X5250000Y3411600D03*
X5750000Y3411600D03*
X6250000Y3411600D03*
X6750000Y3411600D03*
X7250000Y3411600D03*
X7750000Y3411600D03*
X2750000Y3911600D03*
X3250000Y3911600D03*
X7250000Y3911600D03*
X7750000Y3911600D03*
X2750000Y4411600D03*
X3250000Y4411600D03*
X7250000Y4411600D03*
X7750000Y4411600D03*
X2750000Y4911600D03*
X3250000Y4911600D03*
X7250000Y4911600D03*
X7750000Y4911600D03*
X2750000Y5411600D03*
X3250000Y5411600D03*
X3750000Y5411600D03*
X4250000Y5411600D03*
X4750000Y5411600D03*
X5250000Y5411600D03*
X5750000Y5411600D03*
X6250000Y5411600D03*
X6750000Y5411600D03*
X7250000Y5411600D03*
X7750000Y5411600D03*
X2750000Y5911600D03*
X3250000Y5911600D03*
X3750000Y5911600D03*
X4250000Y5911600D03*
X4750000Y5911600D03*
X5250000Y5911600D03*
X5750000Y5911600D03*
X6250000Y5911600D03*
X6750000Y5911600D03*
X7250000Y5911600D03*
X7750000Y5911600D03*
D11*
X508000Y6125800D03*
X508000Y6675800D03*
X533400Y7844200D03*
X533400Y7294200D03*
D12*
X660400Y2019800D03*
X660400Y1129800D03*
X660400Y4584200D03*
X660400Y5474200D03*
X660400Y2857000D03*
X660400Y3747000D03*
D13*
X9448800Y2184400D03*
X9804400Y482600D03*
X609600Y1117600D03*
X533400Y7848600D03*
X2590800Y7874000D03*
X1742800Y4404000D03*
X8331200Y7188200D03*
X3582899Y3766400D03*
X3759200Y4838400D03*
X4749800Y6324600D03*
X5994400Y6400800D03*
X8305800Y5435600D03*
X3251197Y1904997D03*
X1854200Y1905000D03*
X1473200Y6223000D03*
X1473200Y5562600D03*
X8940800Y2844800D03*
X8610600Y2489200D03*
X5156198Y1854200D03*
X4572000Y7112000D03*
X1676400Y7950194D03*
X1066800Y7213600D03*
X10007600Y8483600D03*
X1600200Y1092189D03*
X787400Y2032000D03*
X2336774Y1905000D03*
X6858000Y4064000D03*
X5457890Y3810000D03*
X812800Y2717800D03*
X9982200Y2692400D03*
X9321800Y1117600D03*
X2590800Y7213600D03*
X2768587Y1905000D03*
X6553200Y6400800D03*
X7975600Y1879600D03*
X10007600Y7543800D03*
X1117600Y508000D03*
X3530600Y7975600D03*
X2260600Y2997200D03*
X7518400Y6477006D03*
X4495800Y5054600D03*
X965200Y6045200D03*
X8280401Y4267200D03*
X2159000Y3733800D03*
X6731000Y4978400D03*
X5846600Y7162800D03*
X9398000Y3200400D03*
X3749601Y1879600D03*
X3530600Y1092190D03*
X5461000Y1092190D03*
X6908800Y508000D03*
X8356600Y1092200D03*
X9982200Y4622800D03*
X4648200Y4089400D03*
X3048000Y508000D03*
X4978400Y508000D03*
X6426200Y1092190D03*
X8839200Y482600D03*
X9372600Y6096000D03*
X1854200Y3200400D03*
X10007600Y5588000D03*
X3784600Y4292600D03*
X9372600Y5130800D03*
X4191000Y4013200D03*
X4013200Y508000D03*
X5003800Y3784600D03*
X4495800Y1092190D03*
X5854878Y4123484D03*
X7391400Y1092190D03*
X6197600Y3835394D03*
X10007600Y6553200D03*
X3835400Y6324600D03*
X9372600Y7035800D03*
X4292600Y6299200D03*
X10007600Y3683000D03*
X2565400Y1117600D03*
X9372600Y4165600D03*
X2082800Y508000D03*
D14*
X3750000Y2911600D02*
X3750000Y2411600D01*
D15*
X3250000Y2911600D02*
X3250000Y3411600D01*
X3250000Y3411600D02*
X3250000Y3433501D01*
X3250000Y3433501D02*
X3582899Y3766400D01*
X3250000Y4411600D02*
X3250000Y3911600D01*
X3395200Y3766400D02*
X3250000Y3911600D01*
X3582899Y3766400D02*
X3395200Y3766400D01*
X5250000Y5411600D02*
X4750000Y5911600D01*
X7926776Y5411600D02*
X7950776Y5435600D01*
X7750000Y5411600D02*
X7926776Y5411600D01*
X7950776Y5435600D02*
X8305800Y5435600D01*
D14*
X3250000Y5411600D02*
X3759200Y4902400D01*
X3759200Y4902400D02*
X3759200Y4838400D01*
D15*
X4750000Y5911600D02*
X4750000Y6324400D01*
X4750000Y6324400D02*
X4749800Y6324600D01*
X5750000Y5411600D02*
X5750000Y5902400D01*
X6250000Y5411600D02*
X6250000Y5833000D01*
X6096000Y6400800D02*
X6096000Y6400800D01*
X5750000Y6156400D02*
X5994400Y6400800D01*
X5750000Y5911600D02*
X5750000Y6156400D01*
X6250000Y6145200D02*
X5994400Y6400800D01*
X6250000Y5911600D02*
X6250000Y6145200D01*
X8305800Y5435600D02*
X8305800Y5435600D01*
X8280400Y2413000D02*
X8280400Y2413000D01*
D14*
X3750000Y2411600D02*
X3251197Y1912797D01*
X3251197Y1912797D02*
X3251197Y1904997D01*
D15*
X508000Y6675800D02*
X1020400Y6675800D01*
X1020400Y6675800D02*
X1473200Y6223000D01*
X660400Y3747000D02*
X660400Y4584200D01*
X660400Y4584200D02*
X1473200Y5397000D01*
X1473200Y5397000D02*
X1473200Y5562600D01*
X7750000Y2411600D02*
X8533000Y2411600D01*
X8533000Y2411600D02*
X8610600Y2489200D01*
X5250000Y2411600D02*
X5250000Y1948002D01*
X5250000Y1948002D02*
X5156198Y1854200D01*
X4572000Y7112000D02*
X3905502Y7112000D01*
X1955805Y8229599D02*
X1854199Y8127993D01*
X2787903Y8229599D02*
X1955805Y8229599D01*
X1854199Y8127993D02*
X1676400Y7950194D01*
X3905502Y7112000D02*
X2787903Y8229599D01*
X614000Y7213600D02*
X533400Y7294200D01*
X1066800Y7213600D02*
X614000Y7213600D01*
D16*
X9906000Y8585200D02*
X10007600Y8483600D01*
X1397000Y8585200D02*
X9906000Y8585200D01*
X1066800Y7213600D02*
X1066800Y8255000D01*
X1066800Y8255000D02*
X1397000Y8585200D01*
X1422401Y1269988D02*
X1600200Y1092189D01*
X1336399Y4663799D02*
X1336399Y1355990D01*
X1336399Y1355990D02*
X1422401Y1269988D01*
X1066800Y7213600D02*
X1879600Y6400800D01*
X1879600Y6400800D02*
X1879600Y5207000D01*
X1879600Y5207000D02*
X1336399Y4663799D01*
D14*
X2336774Y1998374D02*
X2336774Y1905000D01*
X2750000Y2411600D02*
X2336774Y1998374D01*
X7010699Y3911301D02*
X6858000Y4064000D01*
X7250000Y2911600D02*
X7010699Y3150901D01*
X7010699Y3150901D02*
X7010699Y3911301D01*
X5250000Y2911600D02*
X5510699Y3172299D01*
X5510699Y3172299D02*
X5510699Y3505744D01*
X5457890Y3558553D02*
X5457890Y3810000D01*
X5510699Y3505744D02*
X5457890Y3558553D01*
X2768587Y1930187D02*
X2768587Y1905000D01*
X3250000Y2411600D02*
X2768587Y1930187D01*
D15*
X6730999Y6223001D02*
X6553200Y6400800D01*
X6750000Y5911600D02*
X6750000Y6204000D01*
X6750000Y6204000D02*
X6730999Y6223001D01*
X7782000Y1879600D02*
X7975600Y1879600D01*
X7250000Y2411600D02*
X7782000Y1879600D01*
X2750000Y2911600D02*
X2346200Y2911600D01*
X2346200Y2911600D02*
X2260600Y2997200D01*
X7518400Y6477000D02*
X7518400Y6477006D01*
X7250000Y5911600D02*
X7250000Y6208600D01*
X7250000Y6208600D02*
X7518400Y6477000D01*
X7750000Y6245406D02*
X7518400Y6477006D01*
X7750000Y5911600D02*
X7750000Y6245406D01*
X3750000Y5411600D02*
X4107000Y5054600D01*
X4244353Y5054600D02*
X4495800Y5054600D01*
X4107000Y5054600D02*
X4244353Y5054600D01*
X884600Y6125800D02*
X965200Y6045200D01*
X508000Y6125800D02*
X884600Y6125800D01*
X965200Y5779000D02*
X660400Y5474200D01*
X965200Y6045200D02*
X965200Y5779000D01*
X7750000Y4911600D02*
X8280401Y4381199D01*
X8280401Y4381199D02*
X8280401Y4267200D01*
D14*
X2159000Y3820600D02*
X2159000Y3733800D01*
X2750000Y4411600D02*
X2159000Y3820600D01*
D15*
X6731000Y5392600D02*
X6750000Y5411600D01*
X6731000Y4978400D02*
X6731000Y5392600D01*
X5250000Y6566200D02*
X5846600Y7162800D01*
X5250000Y5911600D02*
X5250000Y6566200D01*
D14*
X4250000Y2411600D02*
X4250000Y2379999D01*
X4250000Y2379999D02*
X3749601Y1879600D01*
X3657590Y1092190D02*
X3530600Y1092190D01*
X4750000Y2411600D02*
X4750000Y2184600D01*
X4750000Y2184600D02*
X3657590Y1092190D01*
X5638799Y1269989D02*
X5461000Y1092190D01*
X5750000Y1381190D02*
X5638799Y1269989D01*
X5750000Y2411600D02*
X5750000Y1381190D01*
X6908800Y1320800D02*
X6908800Y508000D01*
X6250000Y2411600D02*
X6250000Y1979600D01*
X6250000Y1979600D02*
X6908800Y1320800D01*
X7924800Y1092200D02*
X8356600Y1092200D01*
X6750000Y2411600D02*
X6750000Y2267000D01*
X6750000Y2267000D02*
X7924800Y1092200D01*
X4510699Y3172299D02*
X4510699Y3850299D01*
X4250000Y2911600D02*
X4510699Y3172299D01*
X4510699Y3850299D02*
X4510699Y3951899D01*
X4510699Y3951899D02*
X4648200Y4089400D01*
X3048000Y759447D02*
X3048000Y508000D01*
X4489301Y2650901D02*
X4489301Y2177901D01*
X4750000Y2911600D02*
X4489301Y2650901D01*
X3886200Y1574800D02*
X3352800Y1574800D01*
X4489301Y2177901D02*
X3886200Y1574800D01*
X3048000Y1270000D02*
X3048000Y759447D01*
X3352800Y1574800D02*
X3048000Y1270000D01*
X4978400Y1167890D02*
X4978400Y759447D01*
X5510699Y2672299D02*
X5510699Y1700189D01*
X5750000Y2911600D02*
X5510699Y2672299D01*
X4978400Y759447D02*
X4978400Y508000D01*
X5510699Y1700189D02*
X4978400Y1167890D01*
X6010699Y1507691D02*
X6248401Y1269989D01*
X6250000Y2911600D02*
X6010699Y2672299D01*
X6010699Y2672299D02*
X6010699Y1507691D01*
X6248401Y1269989D02*
X6426200Y1092190D01*
X8839200Y734047D02*
X8839200Y482600D01*
X7010699Y2650901D02*
X7010699Y2296735D01*
X6750000Y2911600D02*
X7010699Y2650901D01*
X7010699Y2296735D02*
X7808834Y1498600D01*
X7808834Y1498600D02*
X8509000Y1498600D01*
X8509000Y1498600D02*
X8839200Y1168400D01*
X8839200Y1168400D02*
X8839200Y734047D01*
X2573224Y3411600D02*
X2565224Y3403600D01*
X2750000Y3411600D02*
X2573224Y3411600D01*
X2057400Y3403600D02*
X1854200Y3200400D01*
X2311400Y3403600D02*
X2057400Y3403600D01*
X2311400Y3403600D02*
X2260600Y3403600D01*
X2565224Y3403600D02*
X2311400Y3403600D01*
X3875000Y4202200D02*
X3784600Y4292600D01*
X3750000Y3411600D02*
X3875000Y3536600D01*
X3875000Y3536600D02*
X3875000Y4202200D01*
X4250000Y3588376D02*
X4241800Y3596576D01*
X4250000Y3411600D02*
X4250000Y3588376D01*
X4241800Y3596576D02*
X4241800Y4013200D01*
X4241800Y4013200D02*
X4191000Y4013200D01*
X4750000Y3411600D02*
X4750000Y3530800D01*
X4750000Y3530800D02*
X5003800Y3784600D01*
X4495800Y1676400D02*
X4495800Y1092190D01*
X5010699Y2191299D02*
X4495800Y1676400D01*
X5250000Y3411600D02*
X5010699Y3172299D01*
X5010699Y3172299D02*
X5010699Y2191299D01*
X5750000Y4018606D02*
X5854878Y4123484D01*
X5750000Y3411600D02*
X5750000Y4018606D01*
X6250000Y3411600D02*
X6510699Y3150901D01*
X7391400Y1244600D02*
X7391400Y1092190D01*
X6510699Y2125301D02*
X7391400Y1244600D01*
X6510699Y3150901D02*
X6510699Y2125301D01*
X6750000Y3411600D02*
X6326206Y3835394D01*
X6326206Y3835394D02*
X6197600Y3835394D01*
X3989301Y5672299D02*
X3989301Y6170699D01*
X4250000Y5411600D02*
X3989301Y5672299D01*
X3989301Y6170699D02*
X3835400Y6324600D01*
X4489301Y5672299D02*
X4489301Y6127899D01*
X4750000Y5411600D02*
X4489301Y5672299D01*
X4489301Y6127899D02*
X4343400Y6273800D01*
X4343400Y6273800D02*
X4318000Y6273800D01*
X4318000Y6273800D02*
X4292600Y6299200D01*
M02*
