M48
; DRILL file {KiCad (5.1.0)-1} date 4/30/2019 9:20:54 PM
; FORMAT={-:-/ absolute / inch / decimal}
; #@! TF.CreationDate,2019-04-30T21:20:54-07:00
; #@! TF.GenerationSoftware,Kicad,Pcbnew,(5.1.0)-1
; #@! TF.FileFunction,Plated,1,6,PTH
FMAT,2
INCH
T1C0.0040
%
G90
G05
T1
X1.3688Y-1.0099
X1.3718Y-1.2749
X1.3748Y-1.2389
X1.3798Y-1.2119
X1.3858Y-1.0809
X1.3898Y-1.0349
X1.3918Y-1.2989
X1.4058Y-1.0739
X1.4058Y-1.0999
X1.4108Y-1.2759
X1.4138Y-1.0059
X1.4164Y-1.1455
X1.4208Y-1.1929
X1.4208Y-1.2439
X1.4298Y-1.2989
X1.4328Y-1.1719
X1.4368Y-1.2009
X1.4398Y-1.2439
X1.4488Y-1.2749
X1.4498Y-1.0089
X1.4498Y-1.0349
X1.4568Y-1.2439
X1.4678Y-1.2989
X1.4758Y-1.2439
X1.4868Y-1.0049
X1.4868Y-1.2759
X1.4888Y-1.1706
X1.4954Y-1.2449
X1.4958Y-1.1284
X1.4968Y-1.1499
X1.4988Y-1.0699
X1.5058Y-1.2989
X1.5128Y-1.1609
X1.5168Y-1.0709
X1.5248Y-1.1199
X1.5248Y-1.2759
X1.5278Y-1.0389
X1.5308Y-1.1579
X1.5348Y-1.0699
X1.5438Y-1.2989
X1.5448Y-1.1699
X1.5468Y-1.2489
X1.5627Y-1.1689
X1.5628Y-1.2759
X1.578Y-1.0369
X1.5783Y-1.1566
X1.5838Y-1.0669
X1.5918Y-1.1679
X1.6008Y-1.2759
X1.6128Y-1.1229
X1.6138Y-1.0669
X1.6178Y-1.1589
X1.6198Y-1.2989
X1.6388Y-1.2759
X1.6438Y-1.0639
X1.6561Y-1.2445
X1.6728Y-1.1439
X1.6738Y-1.2239
X1.6748Y-1.1049
X1.6758Y-1.0359
X1.6768Y-1.2759
X1.6808Y-1.2039
X1.6958Y-1.2999
X1.7148Y-1.2749
X1.7168Y-1.0419
X1.7168Y-1.0789
X1.7168Y-1.1169
X1.7168Y-1.1549
X1.7178Y-1.1929
X1.7188Y-1.2309
X1.7338Y-1.2999
X1.7408Y-1.1369
X1.7408Y-1.2129
X1.7418Y-0.9849
X1.7418Y-1.0219
X1.7418Y-1.0609
X1.7418Y-1.0989
X1.7418Y-1.1739
T0
M30
