G04 #@! TF.GenerationSoftware,KiCad,Pcbnew,(5.1.0)-1*
G04 #@! TF.CreationDate,2019-05-02T19:51:03-07:00*
G04 #@! TF.ProjectId,Miniscope-v4-PYTHON480,4d696e69-7363-46f7-9065-2d76342d5059,rev?*
G04 #@! TF.SameCoordinates,PX20a5d00PY1ff2b60*
G04 #@! TF.FileFunction,Paste,Top*
G04 #@! TF.FilePolarity,Positive*
%FSLAX46Y46*%
G04 Gerber Fmt 4.6, Leading zero omitted, Abs format (unit mm)*
G04 Created by KiCad (PCBNEW (5.1.0)-1) date 2019-05-02 19:51:03*
%MOMM*%
%LPD*%
G04 APERTURE LIST*
%ADD10C,0.508000*%
%ADD11R,0.310000X0.340000*%
%ADD12R,0.340000X0.310000*%
%ADD13C,0.100000*%
%ADD14C,0.590000*%
%ADD15R,0.280000X0.520000*%
%ADD16R,0.280000X0.170000*%
%ADD17R,0.810000X0.870000*%
%ADD18R,0.890000X0.920000*%
%ADD19R,0.880000X0.830000*%
%ADD20R,0.990000X0.340000*%
G04 APERTURE END LIST*
D10*
X9390400Y2226207D03*
X10000000Y2708806D03*
X9390400Y3191406D03*
X10000000Y3674005D03*
X9390400Y4156605D03*
X10000000Y4639204D03*
X9390400Y5121804D03*
X10000000Y5604403D03*
X9390400Y6087003D03*
X10000000Y6569602D03*
X9390400Y7052202D03*
X10000000Y7534801D03*
X9390400Y8017401D03*
X10000000Y8500000D03*
D11*
X8504600Y8509000D03*
X7954600Y8509000D03*
X1604600Y3733800D03*
X2154600Y3733800D03*
X461600Y3733800D03*
X1011600Y3733800D03*
D12*
X3530600Y7980000D03*
X3530600Y8530000D03*
D13*
G36*
X4960158Y8726690D02*
G01*
X4974476Y8724566D01*
X4988517Y8721049D01*
X5002146Y8716172D01*
X5015231Y8709983D01*
X5027647Y8702542D01*
X5039273Y8693919D01*
X5049998Y8684198D01*
X5059719Y8673473D01*
X5068342Y8661847D01*
X5075783Y8649431D01*
X5081972Y8636346D01*
X5086849Y8622717D01*
X5090366Y8608676D01*
X5092490Y8594358D01*
X5093200Y8579900D01*
X5093200Y8234900D01*
X5092490Y8220442D01*
X5090366Y8206124D01*
X5086849Y8192083D01*
X5081972Y8178454D01*
X5075783Y8165369D01*
X5068342Y8152953D01*
X5059719Y8141327D01*
X5049998Y8130602D01*
X5039273Y8120881D01*
X5027647Y8112258D01*
X5015231Y8104817D01*
X5002146Y8098628D01*
X4988517Y8093751D01*
X4974476Y8090234D01*
X4960158Y8088110D01*
X4945700Y8087400D01*
X4650700Y8087400D01*
X4636242Y8088110D01*
X4621924Y8090234D01*
X4607883Y8093751D01*
X4594254Y8098628D01*
X4581169Y8104817D01*
X4568753Y8112258D01*
X4557127Y8120881D01*
X4546402Y8130602D01*
X4536681Y8141327D01*
X4528058Y8152953D01*
X4520617Y8165369D01*
X4514428Y8178454D01*
X4509551Y8192083D01*
X4506034Y8206124D01*
X4503910Y8220442D01*
X4503200Y8234900D01*
X4503200Y8579900D01*
X4503910Y8594358D01*
X4506034Y8608676D01*
X4509551Y8622717D01*
X4514428Y8636346D01*
X4520617Y8649431D01*
X4528058Y8661847D01*
X4536681Y8673473D01*
X4546402Y8684198D01*
X4557127Y8693919D01*
X4568753Y8702542D01*
X4581169Y8709983D01*
X4594254Y8716172D01*
X4607883Y8721049D01*
X4621924Y8724566D01*
X4636242Y8726690D01*
X4650700Y8727400D01*
X4945700Y8727400D01*
X4960158Y8726690D01*
X4960158Y8726690D01*
G37*
D14*
X4798200Y8407400D03*
D13*
G36*
X5930158Y8726690D02*
G01*
X5944476Y8724566D01*
X5958517Y8721049D01*
X5972146Y8716172D01*
X5985231Y8709983D01*
X5997647Y8702542D01*
X6009273Y8693919D01*
X6019998Y8684198D01*
X6029719Y8673473D01*
X6038342Y8661847D01*
X6045783Y8649431D01*
X6051972Y8636346D01*
X6056849Y8622717D01*
X6060366Y8608676D01*
X6062490Y8594358D01*
X6063200Y8579900D01*
X6063200Y8234900D01*
X6062490Y8220442D01*
X6060366Y8206124D01*
X6056849Y8192083D01*
X6051972Y8178454D01*
X6045783Y8165369D01*
X6038342Y8152953D01*
X6029719Y8141327D01*
X6019998Y8130602D01*
X6009273Y8120881D01*
X5997647Y8112258D01*
X5985231Y8104817D01*
X5972146Y8098628D01*
X5958517Y8093751D01*
X5944476Y8090234D01*
X5930158Y8088110D01*
X5915700Y8087400D01*
X5620700Y8087400D01*
X5606242Y8088110D01*
X5591924Y8090234D01*
X5577883Y8093751D01*
X5564254Y8098628D01*
X5551169Y8104817D01*
X5538753Y8112258D01*
X5527127Y8120881D01*
X5516402Y8130602D01*
X5506681Y8141327D01*
X5498058Y8152953D01*
X5490617Y8165369D01*
X5484428Y8178454D01*
X5479551Y8192083D01*
X5476034Y8206124D01*
X5473910Y8220442D01*
X5473200Y8234900D01*
X5473200Y8579900D01*
X5473910Y8594358D01*
X5476034Y8608676D01*
X5479551Y8622717D01*
X5484428Y8636346D01*
X5490617Y8649431D01*
X5498058Y8661847D01*
X5506681Y8673473D01*
X5516402Y8684198D01*
X5527127Y8693919D01*
X5538753Y8702542D01*
X5551169Y8709983D01*
X5564254Y8716172D01*
X5577883Y8721049D01*
X5591924Y8724566D01*
X5606242Y8726690D01*
X5620700Y8727400D01*
X5915700Y8727400D01*
X5930158Y8726690D01*
X5930158Y8726690D01*
G37*
D14*
X5768200Y8407400D03*
D15*
X6634600Y8407400D03*
D16*
X7284600Y8582400D03*
X7284600Y8232400D03*
D12*
X5275400Y5410600D03*
X5275400Y5960600D03*
D11*
X3772400Y2383600D03*
X3222400Y2383600D03*
D12*
X7188200Y6036800D03*
X7188200Y5486800D03*
D11*
X3289800Y2993200D03*
X2739800Y2993200D03*
X7769000Y4902200D03*
X8319000Y4902200D03*
X7793400Y3022600D03*
X7243400Y3022600D03*
D12*
X5275400Y2938000D03*
X5275400Y2388000D03*
D11*
X2087200Y2395600D03*
X2637200Y2395600D03*
X6574200Y5892800D03*
X6024200Y5892800D03*
X7785600Y2409000D03*
X7235600Y2409000D03*
D12*
X3759200Y5388400D03*
X3759200Y4838400D03*
X3530600Y7387000D03*
X3530600Y6837000D03*
X7790000Y6036800D03*
X7790000Y5486800D03*
D17*
X7016200Y7188200D03*
X8376200Y7188200D03*
D10*
X9800000Y500000D03*
X9317401Y1109600D03*
X8834801Y500000D03*
X8352202Y1109600D03*
X7869602Y500000D03*
X7387003Y1109600D03*
X6904403Y500000D03*
X6421804Y1109600D03*
X5939204Y500000D03*
X5456605Y1109600D03*
X4974005Y500000D03*
X4491406Y1109600D03*
X4008806Y500000D03*
X3526207Y1109600D03*
X3043607Y500000D03*
X2561008Y1109600D03*
X2078408Y500000D03*
X1595809Y1109600D03*
X1113209Y500000D03*
X630610Y1109600D03*
D18*
X6955000Y4013200D03*
X8285000Y4013200D03*
X4516600Y7162800D03*
X5846600Y7162800D03*
D19*
X706000Y4664800D03*
X2596000Y4664800D03*
X2596000Y6104800D03*
X706000Y6104800D03*
D20*
X2586400Y7224000D03*
X2586400Y7874000D03*
X2586400Y8524000D03*
X766400Y8524000D03*
X766400Y7224000D03*
M02*
