G04 #@! TF.GenerationSoftware,KiCad,Pcbnew,(5.1.0)-1*
G04 #@! TF.CreationDate,2019-05-02T19:51:03-07:00*
G04 #@! TF.ProjectId,Miniscope-v4-PYTHON480,4d696e69-7363-46f7-9065-2d76342d5059,rev?*
G04 #@! TF.SameCoordinates,PX20a5d00PY1ff2b60*
G04 #@! TF.FileFunction,Paste,Bot*
G04 #@! TF.FilePolarity,Positive*
%FSLAX46Y46*%
G04 Gerber Fmt 4.6, Leading zero omitted, Abs format (unit mm)*
G04 Created by KiCad (PCBNEW (5.1.0)-1) date 2019-05-02 19:51:03*
%MOMM*%
%LPD*%
G04 APERTURE LIST*
%ADD10C,0.250000*%
%ADD11R,0.340000X0.310000*%
%ADD12R,0.630000X0.580000*%
G04 APERTURE END LIST*
D10*
X2750000Y2411600D03*
X3250000Y2411600D03*
X3750000Y2411600D03*
X4250000Y2411600D03*
X4750000Y2411600D03*
X5250000Y2411600D03*
X5750000Y2411600D03*
X6250000Y2411600D03*
X6750000Y2411600D03*
X7250000Y2411600D03*
X7750000Y2411600D03*
X2750000Y2911600D03*
X3250000Y2911600D03*
X3750000Y2911600D03*
X4250000Y2911600D03*
X4750000Y2911600D03*
X5250000Y2911600D03*
X5750000Y2911600D03*
X6250000Y2911600D03*
X6750000Y2911600D03*
X7250000Y2911600D03*
X7750000Y2911600D03*
X2750000Y3411600D03*
X3250000Y3411600D03*
X3750000Y3411600D03*
X4250000Y3411600D03*
X4750000Y3411600D03*
X5250000Y3411600D03*
X5750000Y3411600D03*
X6250000Y3411600D03*
X6750000Y3411600D03*
X7250000Y3411600D03*
X7750000Y3411600D03*
X2750000Y3911600D03*
X3250000Y3911600D03*
X7250000Y3911600D03*
X7750000Y3911600D03*
X2750000Y4411600D03*
X3250000Y4411600D03*
X7250000Y4411600D03*
X7750000Y4411600D03*
X2750000Y4911600D03*
X3250000Y4911600D03*
X7250000Y4911600D03*
X7750000Y4911600D03*
X2750000Y5411600D03*
X3250000Y5411600D03*
X3750000Y5411600D03*
X4250000Y5411600D03*
X4750000Y5411600D03*
X5250000Y5411600D03*
X5750000Y5411600D03*
X6250000Y5411600D03*
X6750000Y5411600D03*
X7250000Y5411600D03*
X7750000Y5411600D03*
X2750000Y5911600D03*
X3250000Y5911600D03*
X3750000Y5911600D03*
X4250000Y5911600D03*
X4750000Y5911600D03*
X5250000Y5911600D03*
X5750000Y5911600D03*
X6250000Y5911600D03*
X6750000Y5911600D03*
X7250000Y5911600D03*
X7750000Y5911600D03*
D11*
X508000Y6125800D03*
X508000Y6675800D03*
X533400Y7844200D03*
X533400Y7294200D03*
D12*
X660400Y2019800D03*
X660400Y1129800D03*
X660400Y4584200D03*
X660400Y5474200D03*
X660400Y2857000D03*
X660400Y3747000D03*
M02*
