G04 #@! TF.GenerationSoftware,KiCad,Pcbnew,(5.1.0)-1*
G04 #@! TF.CreationDate,2019-05-02T19:51:03-07:00*
G04 #@! TF.ProjectId,Miniscope-v4-PYTHON480,4d696e69-7363-46f7-9065-2d76342d5059,rev?*
G04 #@! TF.SameCoordinates,PX20a5d00PY1ff2b60*
G04 #@! TF.FileFunction,Copper,L4,Inr*
G04 #@! TF.FilePolarity,Positive*
%FSLAX46Y46*%
G04 Gerber Fmt 4.6, Leading zero omitted, Abs format (unit mm)*
G04 Created by KiCad (PCBNEW (5.1.0)-1) date 2019-05-02 19:51:03*
%MOMM*%
%LPD*%
G04 APERTURE LIST*
%ADD10C,0.355600*%
%ADD11C,0.304800*%
%ADD12C,0.127000*%
G04 APERTURE END LIST*
D10*
X9448800Y2184400D03*
X9804400Y482600D03*
X609600Y1117600D03*
X533400Y7848600D03*
X2590800Y7874000D03*
X1742800Y4404000D03*
X8331200Y7188200D03*
X3582899Y3766400D03*
X3759200Y4838400D03*
X4749800Y6324600D03*
X5994400Y6400800D03*
X8305800Y5435600D03*
X3251197Y1904997D03*
X1854200Y1905000D03*
X1473200Y6223000D03*
X1473200Y5562600D03*
X8940800Y2844800D03*
X8610600Y2489200D03*
X5156198Y1854200D03*
X4572000Y7112000D03*
X1676400Y7950194D03*
X1066800Y7213600D03*
X10007600Y8483600D03*
X1600200Y1092189D03*
X787400Y2032000D03*
X2336774Y1905000D03*
X6858000Y4064000D03*
X5457890Y3810000D03*
X812800Y2717800D03*
X9982200Y2692400D03*
X9321800Y1117600D03*
X2590800Y7213600D03*
X2768587Y1905000D03*
X6553200Y6400800D03*
X7975600Y1879600D03*
X10007600Y7543800D03*
X1117600Y508000D03*
X3530600Y7975600D03*
X2260600Y2997200D03*
X7518400Y6477006D03*
X4495800Y5054600D03*
X965200Y6045200D03*
X8280401Y4267200D03*
X2159000Y3733800D03*
X6731000Y4978400D03*
X5846600Y7162800D03*
X9398000Y3200400D03*
X3749601Y1879600D03*
X3530600Y1092190D03*
X5461000Y1092190D03*
X6908800Y508000D03*
X8356600Y1092200D03*
X9982200Y4622800D03*
X4648200Y4089400D03*
X3048000Y508000D03*
X4978400Y508000D03*
X6426200Y1092190D03*
X8839200Y482600D03*
X9372600Y6096000D03*
X1854200Y3200400D03*
X10007600Y5588000D03*
X3784600Y4292600D03*
X9372600Y5130800D03*
X4191000Y4013200D03*
X4013200Y508000D03*
X5003800Y3784600D03*
X4495800Y1092190D03*
X5854878Y4123484D03*
X7391400Y1092190D03*
X6197600Y3835394D03*
X10007600Y6553200D03*
X3835400Y6324600D03*
X9372600Y7035800D03*
X4292600Y6299200D03*
X10007600Y3683000D03*
X2565400Y1117600D03*
X9372600Y4165600D03*
X2082800Y508000D03*
D11*
X1625601Y1498599D02*
X1092200Y2032000D01*
X2049273Y1498599D02*
X1625601Y1498599D01*
X2336774Y1905000D02*
X2336774Y1786100D01*
X2336774Y1786100D02*
X2049273Y1498599D01*
X2336774Y2156447D02*
X2491728Y2311401D01*
X2491728Y2311401D02*
X4210738Y2311401D01*
X4210738Y2311401D02*
X5457890Y3558553D01*
X2336774Y1905000D02*
X2336774Y2156447D01*
X5457890Y3558553D02*
X5457890Y3810000D01*
X1092200Y2032000D02*
X937247Y2032000D01*
D12*
G36*
X740417Y7388055D02*
G01*
X712654Y7321029D01*
X698500Y7249874D01*
X698500Y7177326D01*
X712654Y7106171D01*
X740417Y7039145D01*
X780723Y6978822D01*
X832022Y6927523D01*
X892345Y6887217D01*
X959371Y6859454D01*
X1030526Y6845300D01*
X1103074Y6845300D01*
X1174229Y6859454D01*
X1241255Y6887217D01*
X1301578Y6927523D01*
X1352877Y6978822D01*
X1393183Y7039145D01*
X1420946Y7106171D01*
X1435100Y7177326D01*
X1435100Y7249874D01*
X1420946Y7321029D01*
X1393183Y7388055D01*
X1360814Y7436500D01*
X4394727Y7436500D01*
X4337222Y7398077D01*
X4285923Y7346778D01*
X4245617Y7286455D01*
X4217854Y7219429D01*
X4203700Y7148274D01*
X4203700Y7075726D01*
X4217854Y7004571D01*
X4245617Y6937545D01*
X4285923Y6877222D01*
X4337222Y6825923D01*
X4397545Y6785617D01*
X4464571Y6757854D01*
X4535726Y6743700D01*
X4608274Y6743700D01*
X4679429Y6757854D01*
X4746455Y6785617D01*
X4806778Y6825923D01*
X4858077Y6877222D01*
X4898383Y6937545D01*
X4926146Y7004571D01*
X4940300Y7075726D01*
X4940300Y7148274D01*
X4926146Y7219429D01*
X4898383Y7286455D01*
X4858077Y7346778D01*
X4806778Y7398077D01*
X4749273Y7436500D01*
X5599445Y7436500D01*
X5560523Y7397578D01*
X5520217Y7337255D01*
X5492454Y7270229D01*
X5478300Y7199074D01*
X5478300Y7126526D01*
X5492454Y7055371D01*
X5520217Y6988345D01*
X5560523Y6928022D01*
X5611822Y6876723D01*
X5672145Y6836417D01*
X5739171Y6808654D01*
X5810326Y6794500D01*
X5882874Y6794500D01*
X5954029Y6808654D01*
X6021055Y6836417D01*
X6081378Y6876723D01*
X6132677Y6928022D01*
X6172983Y6988345D01*
X6200746Y7055371D01*
X6214900Y7126526D01*
X6214900Y7195298D01*
X7937637Y5472561D01*
X7937500Y5471874D01*
X7937500Y5399326D01*
X7951654Y5328171D01*
X7979417Y5261145D01*
X8019723Y5200822D01*
X8071022Y5149523D01*
X8131345Y5109217D01*
X8198371Y5081454D01*
X8269526Y5067300D01*
X8342074Y5067300D01*
X8342761Y5067437D01*
X9055800Y4354398D01*
X9046217Y4340055D01*
X9018454Y4273029D01*
X9004300Y4201874D01*
X9004300Y4129326D01*
X9018454Y4058171D01*
X9046217Y3991145D01*
X9086523Y3930822D01*
X9137822Y3879523D01*
X9198145Y3839217D01*
X9265171Y3811454D01*
X9336326Y3797300D01*
X9408874Y3797300D01*
X9480029Y3811454D01*
X9547055Y3839217D01*
X9561398Y3848800D01*
X9647865Y3762333D01*
X9639300Y3719274D01*
X9639300Y3646726D01*
X9653454Y3575571D01*
X9681217Y3508545D01*
X9721523Y3448222D01*
X9772822Y3396923D01*
X9833145Y3356617D01*
X9900171Y3328854D01*
X9971326Y3314700D01*
X10043874Y3314700D01*
X10086933Y3323265D01*
X10234500Y3175698D01*
X10234500Y563500D01*
X10163823Y563500D01*
X10158546Y590029D01*
X10130783Y657055D01*
X10090477Y717378D01*
X10039178Y768677D01*
X9978855Y808983D01*
X9911829Y836746D01*
X9840674Y850900D01*
X9768126Y850900D01*
X9696971Y836746D01*
X9629945Y808983D01*
X9569622Y768677D01*
X9518323Y717378D01*
X9478017Y657055D01*
X9450254Y590029D01*
X9444977Y563500D01*
X9198623Y563500D01*
X9193346Y590029D01*
X9165583Y657055D01*
X9125277Y717378D01*
X9073978Y768677D01*
X9013655Y808983D01*
X8946629Y836746D01*
X8875474Y850900D01*
X8802926Y850900D01*
X8731771Y836746D01*
X8664745Y808983D01*
X8604422Y768677D01*
X8553123Y717378D01*
X8512817Y657055D01*
X8485054Y590029D01*
X8479777Y563500D01*
X7273276Y563500D01*
X7262946Y615429D01*
X7235183Y682455D01*
X7194877Y742778D01*
X7143578Y794077D01*
X7083255Y834383D01*
X7016229Y862146D01*
X6945074Y876300D01*
X6872526Y876300D01*
X6801371Y862146D01*
X6734345Y834383D01*
X6674022Y794077D01*
X6622723Y742778D01*
X6582417Y682455D01*
X6554654Y615429D01*
X6544324Y563500D01*
X5342876Y563500D01*
X5332546Y615429D01*
X5304783Y682455D01*
X5264477Y742778D01*
X5213178Y794077D01*
X5152855Y834383D01*
X5085829Y862146D01*
X5014674Y876300D01*
X4942126Y876300D01*
X4870971Y862146D01*
X4803945Y834383D01*
X4743622Y794077D01*
X4692323Y742778D01*
X4652017Y682455D01*
X4624254Y615429D01*
X4613924Y563500D01*
X4377676Y563500D01*
X4367346Y615429D01*
X4339583Y682455D01*
X4299277Y742778D01*
X4247978Y794077D01*
X4187655Y834383D01*
X4120629Y862146D01*
X4049474Y876300D01*
X3976926Y876300D01*
X3905771Y862146D01*
X3838745Y834383D01*
X3778422Y794077D01*
X3727123Y742778D01*
X3686817Y682455D01*
X3659054Y615429D01*
X3648724Y563500D01*
X3412476Y563500D01*
X3402146Y615429D01*
X3374383Y682455D01*
X3334077Y742778D01*
X3282778Y794077D01*
X3222455Y834383D01*
X3155429Y862146D01*
X3084274Y876300D01*
X3011726Y876300D01*
X2940571Y862146D01*
X2873545Y834383D01*
X2813222Y794077D01*
X2761923Y742778D01*
X2721617Y682455D01*
X2693854Y615429D01*
X2683524Y563500D01*
X2447276Y563500D01*
X2436946Y615429D01*
X2409183Y682455D01*
X2368877Y742778D01*
X2317578Y794077D01*
X2257255Y834383D01*
X2190229Y862146D01*
X2119074Y876300D01*
X2046526Y876300D01*
X1975371Y862146D01*
X1908345Y834383D01*
X1848022Y794077D01*
X1796723Y742778D01*
X1756417Y682455D01*
X1728654Y615429D01*
X1718324Y563500D01*
X1526302Y563500D01*
X1469888Y619914D01*
X1443983Y682455D01*
X1403677Y742778D01*
X1352378Y794077D01*
X1292055Y834383D01*
X1229514Y860288D01*
X977900Y1111902D01*
X977900Y1153874D01*
X963746Y1225029D01*
X935983Y1292055D01*
X895677Y1352378D01*
X844378Y1403677D01*
X784055Y1443983D01*
X717029Y1471746D01*
X645874Y1485900D01*
X603902Y1485900D01*
X313500Y1776302D01*
X313500Y2068274D01*
X419100Y2068274D01*
X419100Y1995726D01*
X433254Y1924571D01*
X461017Y1857545D01*
X501323Y1797222D01*
X552622Y1745923D01*
X612945Y1705617D01*
X679971Y1677854D01*
X751126Y1663700D01*
X823674Y1663700D01*
X894829Y1677854D01*
X921979Y1689100D01*
X950167Y1689100D01*
X1313392Y1325874D01*
X1273817Y1266644D01*
X1246054Y1199618D01*
X1231900Y1128463D01*
X1231900Y1055915D01*
X1246054Y984760D01*
X1273817Y917734D01*
X1314123Y857411D01*
X1365422Y806112D01*
X1425745Y765806D01*
X1492771Y738043D01*
X1563926Y723889D01*
X1636474Y723889D01*
X1707629Y738043D01*
X1774655Y765806D01*
X1834978Y806112D01*
X1886277Y857411D01*
X1926583Y917734D01*
X1954346Y984760D01*
X1968500Y1055915D01*
X1968500Y1128463D01*
X1963082Y1155699D01*
X2032438Y1155699D01*
X2049273Y1154041D01*
X2066108Y1155699D01*
X2066116Y1155699D01*
X2116493Y1160661D01*
X2181130Y1180268D01*
X2204875Y1192960D01*
X2197100Y1153874D01*
X2197100Y1081326D01*
X2211254Y1010171D01*
X2239017Y943145D01*
X2279323Y882822D01*
X2330622Y831523D01*
X2390945Y791217D01*
X2457971Y763454D01*
X2529126Y749300D01*
X2601674Y749300D01*
X2672829Y763454D01*
X2739855Y791217D01*
X2800178Y831523D01*
X2851477Y882822D01*
X2891783Y943145D01*
X2919546Y1010171D01*
X2933700Y1081326D01*
X2933700Y1128464D01*
X3162300Y1128464D01*
X3162300Y1055916D01*
X3176454Y984761D01*
X3204217Y917735D01*
X3244523Y857412D01*
X3295822Y806113D01*
X3356145Y765807D01*
X3423171Y738044D01*
X3494326Y723890D01*
X3566874Y723890D01*
X3638029Y738044D01*
X3705055Y765807D01*
X3765378Y806113D01*
X3816677Y857412D01*
X3856983Y917735D01*
X3884746Y984761D01*
X3898900Y1055916D01*
X3898900Y1128464D01*
X4127500Y1128464D01*
X4127500Y1055916D01*
X4141654Y984761D01*
X4169417Y917735D01*
X4209723Y857412D01*
X4261022Y806113D01*
X4321345Y765807D01*
X4388371Y738044D01*
X4459526Y723890D01*
X4532074Y723890D01*
X4603229Y738044D01*
X4670255Y765807D01*
X4730578Y806113D01*
X4781877Y857412D01*
X4822183Y917735D01*
X4849946Y984761D01*
X4864100Y1055916D01*
X4864100Y1128464D01*
X5092700Y1128464D01*
X5092700Y1055916D01*
X5106854Y984761D01*
X5134617Y917735D01*
X5174923Y857412D01*
X5226222Y806113D01*
X5286545Y765807D01*
X5353571Y738044D01*
X5424726Y723890D01*
X5497274Y723890D01*
X5568429Y738044D01*
X5635455Y765807D01*
X5695778Y806113D01*
X5747077Y857412D01*
X5787383Y917735D01*
X5815146Y984761D01*
X5829300Y1055916D01*
X5829300Y1128464D01*
X6057900Y1128464D01*
X6057900Y1055916D01*
X6072054Y984761D01*
X6099817Y917735D01*
X6140123Y857412D01*
X6191422Y806113D01*
X6251745Y765807D01*
X6318771Y738044D01*
X6389926Y723890D01*
X6462474Y723890D01*
X6533629Y738044D01*
X6600655Y765807D01*
X6660978Y806113D01*
X6712277Y857412D01*
X6752583Y917735D01*
X6780346Y984761D01*
X6794500Y1055916D01*
X6794500Y1128464D01*
X7023100Y1128464D01*
X7023100Y1055916D01*
X7037254Y984761D01*
X7065017Y917735D01*
X7105323Y857412D01*
X7156622Y806113D01*
X7216945Y765807D01*
X7283971Y738044D01*
X7355126Y723890D01*
X7427674Y723890D01*
X7498829Y738044D01*
X7565855Y765807D01*
X7626178Y806113D01*
X7677477Y857412D01*
X7717783Y917735D01*
X7745546Y984761D01*
X7759700Y1055916D01*
X7759700Y1128464D01*
X7759699Y1128474D01*
X7988300Y1128474D01*
X7988300Y1055926D01*
X8002454Y984771D01*
X8030217Y917745D01*
X8070523Y857422D01*
X8121822Y806123D01*
X8182145Y765817D01*
X8249171Y738054D01*
X8320326Y723900D01*
X8392874Y723900D01*
X8464029Y738054D01*
X8531055Y765817D01*
X8591378Y806123D01*
X8642677Y857422D01*
X8682983Y917745D01*
X8710746Y984771D01*
X8724900Y1055926D01*
X8724900Y1128474D01*
X8710746Y1199629D01*
X8682983Y1266655D01*
X8642677Y1326978D01*
X8591378Y1378277D01*
X8531055Y1418583D01*
X8464029Y1446346D01*
X8392874Y1460500D01*
X8320326Y1460500D01*
X8249171Y1446346D01*
X8182145Y1418583D01*
X8121822Y1378277D01*
X8070523Y1326978D01*
X8030217Y1266655D01*
X8002454Y1199629D01*
X7988300Y1128474D01*
X7759699Y1128474D01*
X7745546Y1199619D01*
X7717783Y1266645D01*
X7677477Y1326968D01*
X7626178Y1378267D01*
X7565855Y1418573D01*
X7498829Y1446336D01*
X7427674Y1460490D01*
X7355126Y1460490D01*
X7283971Y1446336D01*
X7216945Y1418573D01*
X7156622Y1378267D01*
X7105323Y1326968D01*
X7065017Y1266645D01*
X7037254Y1199619D01*
X7023100Y1128464D01*
X6794500Y1128464D01*
X6780346Y1199619D01*
X6752583Y1266645D01*
X6712277Y1326968D01*
X6660978Y1378267D01*
X6600655Y1418573D01*
X6533629Y1446336D01*
X6462474Y1460490D01*
X6389926Y1460490D01*
X6318771Y1446336D01*
X6251745Y1418573D01*
X6191422Y1378267D01*
X6140123Y1326968D01*
X6099817Y1266645D01*
X6072054Y1199619D01*
X6057900Y1128464D01*
X5829300Y1128464D01*
X5815146Y1199619D01*
X5787383Y1266645D01*
X5747077Y1326968D01*
X5695778Y1378267D01*
X5635455Y1418573D01*
X5568429Y1446336D01*
X5497274Y1460490D01*
X5424726Y1460490D01*
X5353571Y1446336D01*
X5286545Y1418573D01*
X5226222Y1378267D01*
X5174923Y1326968D01*
X5134617Y1266645D01*
X5106854Y1199619D01*
X5092700Y1128464D01*
X4864100Y1128464D01*
X4849946Y1199619D01*
X4822183Y1266645D01*
X4781877Y1326968D01*
X4730578Y1378267D01*
X4670255Y1418573D01*
X4603229Y1446336D01*
X4532074Y1460490D01*
X4459526Y1460490D01*
X4388371Y1446336D01*
X4321345Y1418573D01*
X4261022Y1378267D01*
X4209723Y1326968D01*
X4169417Y1266645D01*
X4141654Y1199619D01*
X4127500Y1128464D01*
X3898900Y1128464D01*
X3884746Y1199619D01*
X3856983Y1266645D01*
X3816677Y1326968D01*
X3765378Y1378267D01*
X3705055Y1418573D01*
X3638029Y1446336D01*
X3566874Y1460490D01*
X3494326Y1460490D01*
X3423171Y1446336D01*
X3356145Y1418573D01*
X3295822Y1378267D01*
X3244523Y1326968D01*
X3204217Y1266645D01*
X3176454Y1199619D01*
X3162300Y1128464D01*
X2933700Y1128464D01*
X2933700Y1153874D01*
X2919546Y1225029D01*
X2891783Y1292055D01*
X2851477Y1352378D01*
X2800178Y1403677D01*
X2739855Y1443983D01*
X2672829Y1471746D01*
X2601674Y1485900D01*
X2529126Y1485900D01*
X2519615Y1484008D01*
X2567326Y1531719D01*
X2580414Y1542460D01*
X2623264Y1594673D01*
X2636226Y1618923D01*
X2655105Y1654243D01*
X2674712Y1718880D01*
X2679824Y1770784D01*
X2690920Y1797571D01*
X2705074Y1868726D01*
X2705074Y1941274D01*
X2699658Y1968501D01*
X2888314Y1968501D01*
X2882897Y1941271D01*
X2882897Y1868723D01*
X2897051Y1797568D01*
X2924814Y1730542D01*
X2965120Y1670219D01*
X3016419Y1618920D01*
X3076742Y1578614D01*
X3143768Y1550851D01*
X3214923Y1536697D01*
X3287471Y1536697D01*
X3358626Y1550851D01*
X3425652Y1578614D01*
X3485975Y1618920D01*
X3487701Y1620645D01*
X3514823Y1593523D01*
X3575146Y1553217D01*
X3642172Y1525454D01*
X3713327Y1511300D01*
X3785875Y1511300D01*
X3857030Y1525454D01*
X3924056Y1553217D01*
X3984379Y1593523D01*
X4035678Y1644822D01*
X4075984Y1705145D01*
X4103747Y1772171D01*
X4117901Y1843326D01*
X4117901Y1890474D01*
X4787898Y1890474D01*
X4787898Y1817926D01*
X4802052Y1746771D01*
X4829815Y1679745D01*
X4870121Y1619422D01*
X4921420Y1568123D01*
X4981743Y1527817D01*
X5048769Y1500054D01*
X5119924Y1485900D01*
X5192472Y1485900D01*
X5263627Y1500054D01*
X5330653Y1527817D01*
X5390976Y1568123D01*
X5442275Y1619422D01*
X5482581Y1679745D01*
X5510344Y1746771D01*
X5524498Y1817926D01*
X5524498Y1890474D01*
X5510344Y1961629D01*
X5482581Y2028655D01*
X5442275Y2088978D01*
X5390976Y2140277D01*
X5330653Y2180583D01*
X5263627Y2208346D01*
X5192472Y2222500D01*
X5119924Y2222500D01*
X5048769Y2208346D01*
X4981743Y2180583D01*
X4921420Y2140277D01*
X4870121Y2088978D01*
X4829815Y2028655D01*
X4802052Y1961629D01*
X4787898Y1890474D01*
X4117901Y1890474D01*
X4117901Y1915874D01*
X4107433Y1968501D01*
X4193903Y1968501D01*
X4210738Y1966843D01*
X4227573Y1968501D01*
X4227581Y1968501D01*
X4277958Y1973463D01*
X4342595Y1993070D01*
X4402165Y2024911D01*
X4454378Y2067761D01*
X4465119Y2080849D01*
X4909744Y2525474D01*
X8242300Y2525474D01*
X8242300Y2452926D01*
X8256454Y2381771D01*
X8284217Y2314745D01*
X8324523Y2254422D01*
X8375822Y2203123D01*
X8436145Y2162817D01*
X8503171Y2135054D01*
X8574326Y2120900D01*
X8646874Y2120900D01*
X8718029Y2135054D01*
X8785055Y2162817D01*
X8845378Y2203123D01*
X8862929Y2220674D01*
X9080500Y2220674D01*
X9080500Y2148126D01*
X9094654Y2076971D01*
X9122417Y2009945D01*
X9162723Y1949622D01*
X9214022Y1898323D01*
X9274345Y1858017D01*
X9341371Y1830254D01*
X9412526Y1816100D01*
X9485074Y1816100D01*
X9556229Y1830254D01*
X9623255Y1858017D01*
X9683578Y1898323D01*
X9734877Y1949622D01*
X9775183Y2009945D01*
X9802946Y2076971D01*
X9817100Y2148126D01*
X9817100Y2220674D01*
X9802946Y2291829D01*
X9775183Y2358855D01*
X9734877Y2419178D01*
X9683578Y2470477D01*
X9623255Y2510783D01*
X9556229Y2538546D01*
X9485074Y2552700D01*
X9412526Y2552700D01*
X9341371Y2538546D01*
X9274345Y2510783D01*
X9214022Y2470477D01*
X9162723Y2419178D01*
X9122417Y2358855D01*
X9094654Y2291829D01*
X9080500Y2220674D01*
X8862929Y2220674D01*
X8896677Y2254422D01*
X8936983Y2314745D01*
X8964746Y2381771D01*
X8978900Y2452926D01*
X8978900Y2476863D01*
X9048229Y2490654D01*
X9115255Y2518417D01*
X9175578Y2558723D01*
X9226877Y2610022D01*
X9267183Y2670345D01*
X9294946Y2737371D01*
X9309100Y2808526D01*
X9309100Y2842568D01*
X9361726Y2832100D01*
X9434274Y2832100D01*
X9505429Y2846254D01*
X9572455Y2874017D01*
X9632778Y2914323D01*
X9684077Y2965622D01*
X9724383Y3025945D01*
X9752146Y3092971D01*
X9766300Y3164126D01*
X9766300Y3236674D01*
X9752146Y3307829D01*
X9724383Y3374855D01*
X9684077Y3435178D01*
X9632778Y3486477D01*
X9572455Y3526783D01*
X9505429Y3554546D01*
X9434274Y3568700D01*
X9361726Y3568700D01*
X9290571Y3554546D01*
X9223545Y3526783D01*
X9163222Y3486477D01*
X9111923Y3435178D01*
X9071617Y3374855D01*
X9043854Y3307829D01*
X9029700Y3236674D01*
X9029700Y3202632D01*
X8977074Y3213100D01*
X8904526Y3213100D01*
X8833371Y3198946D01*
X8766345Y3171183D01*
X8706022Y3130877D01*
X8654723Y3079578D01*
X8614417Y3019255D01*
X8586654Y2952229D01*
X8572500Y2881074D01*
X8572500Y2857137D01*
X8503171Y2843346D01*
X8436145Y2815583D01*
X8375822Y2775277D01*
X8324523Y2723978D01*
X8284217Y2663655D01*
X8256454Y2596629D01*
X8242300Y2525474D01*
X4909744Y2525474D01*
X5688452Y3304181D01*
X5701529Y3314913D01*
X5712262Y3327991D01*
X5712266Y3327995D01*
X5735755Y3356617D01*
X5744380Y3367126D01*
X5776221Y3426696D01*
X5795828Y3491333D01*
X5800790Y3541710D01*
X5800790Y3541717D01*
X5802448Y3558552D01*
X5800790Y3575387D01*
X5800790Y3675421D01*
X5812036Y3702571D01*
X5822502Y3755184D01*
X5838040Y3755184D01*
X5843454Y3727965D01*
X5871217Y3660939D01*
X5911523Y3600616D01*
X5962822Y3549317D01*
X6023145Y3509011D01*
X6090171Y3481248D01*
X6161326Y3467094D01*
X6233874Y3467094D01*
X6305029Y3481248D01*
X6372055Y3509011D01*
X6432378Y3549317D01*
X6483677Y3600616D01*
X6523983Y3660939D01*
X6551746Y3727965D01*
X6565900Y3799120D01*
X6565900Y3838236D01*
X6571923Y3829222D01*
X6623222Y3777923D01*
X6683545Y3737617D01*
X6750571Y3709854D01*
X6821726Y3695700D01*
X6894274Y3695700D01*
X6965429Y3709854D01*
X7032455Y3737617D01*
X7092778Y3777923D01*
X7144077Y3829222D01*
X7184383Y3889545D01*
X7212146Y3956571D01*
X7226300Y4027726D01*
X7226300Y4100274D01*
X7212146Y4171429D01*
X7184383Y4238455D01*
X7144077Y4298778D01*
X7139381Y4303474D01*
X7912101Y4303474D01*
X7912101Y4230926D01*
X7926255Y4159771D01*
X7954018Y4092745D01*
X7994324Y4032422D01*
X8045623Y3981123D01*
X8105946Y3940817D01*
X8172972Y3913054D01*
X8244127Y3898900D01*
X8316675Y3898900D01*
X8387830Y3913054D01*
X8454856Y3940817D01*
X8515179Y3981123D01*
X8566478Y4032422D01*
X8606784Y4092745D01*
X8634547Y4159771D01*
X8648701Y4230926D01*
X8648701Y4303474D01*
X8634547Y4374629D01*
X8606784Y4441655D01*
X8566478Y4501978D01*
X8515179Y4553277D01*
X8454856Y4593583D01*
X8387830Y4621346D01*
X8316675Y4635500D01*
X8244127Y4635500D01*
X8172972Y4621346D01*
X8105946Y4593583D01*
X8045623Y4553277D01*
X7994324Y4501978D01*
X7954018Y4441655D01*
X7926255Y4374629D01*
X7912101Y4303474D01*
X7139381Y4303474D01*
X7092778Y4350077D01*
X7032455Y4390383D01*
X6965429Y4418146D01*
X6894274Y4432300D01*
X6821726Y4432300D01*
X6750571Y4418146D01*
X6683545Y4390383D01*
X6623222Y4350077D01*
X6571923Y4298778D01*
X6531617Y4238455D01*
X6503854Y4171429D01*
X6489700Y4100274D01*
X6489700Y4061158D01*
X6483677Y4070172D01*
X6432378Y4121471D01*
X6372055Y4161777D01*
X6305029Y4189540D01*
X6233874Y4203694D01*
X6214438Y4203694D01*
X6209024Y4230913D01*
X6181261Y4297939D01*
X6140955Y4358262D01*
X6089656Y4409561D01*
X6029333Y4449867D01*
X5962307Y4477630D01*
X5891152Y4491784D01*
X5818604Y4491784D01*
X5747449Y4477630D01*
X5680423Y4449867D01*
X5620100Y4409561D01*
X5568801Y4358262D01*
X5528495Y4297939D01*
X5500732Y4230913D01*
X5490266Y4178300D01*
X5421616Y4178300D01*
X5350461Y4164146D01*
X5283435Y4136383D01*
X5223112Y4096077D01*
X5214080Y4087045D01*
X5178255Y4110983D01*
X5111229Y4138746D01*
X5040074Y4152900D01*
X5011084Y4152900D01*
X5002346Y4196829D01*
X4974583Y4263855D01*
X4934277Y4324178D01*
X4882978Y4375477D01*
X4822655Y4415783D01*
X4755629Y4443546D01*
X4684474Y4457700D01*
X4611926Y4457700D01*
X4540771Y4443546D01*
X4473745Y4415783D01*
X4413422Y4375477D01*
X4372692Y4334747D01*
X4365455Y4339583D01*
X4298429Y4367346D01*
X4227274Y4381500D01*
X4154726Y4381500D01*
X4142900Y4379148D01*
X4138746Y4400029D01*
X4110983Y4467055D01*
X4070677Y4527378D01*
X4019855Y4578200D01*
X4045277Y4603622D01*
X4085583Y4663945D01*
X4113346Y4730971D01*
X4127500Y4802126D01*
X4127500Y4874674D01*
X4113346Y4945829D01*
X4085583Y5012855D01*
X4045277Y5073178D01*
X4027581Y5090874D01*
X4127500Y5090874D01*
X4127500Y5018326D01*
X4141654Y4947171D01*
X4169417Y4880145D01*
X4209723Y4819822D01*
X4261022Y4768523D01*
X4321345Y4728217D01*
X4388371Y4700454D01*
X4459526Y4686300D01*
X4532074Y4686300D01*
X4603229Y4700454D01*
X4670255Y4728217D01*
X4730578Y4768523D01*
X4781877Y4819822D01*
X4822183Y4880145D01*
X4849946Y4947171D01*
X4863373Y5014674D01*
X6362700Y5014674D01*
X6362700Y4942126D01*
X6376854Y4870971D01*
X6404617Y4803945D01*
X6444923Y4743622D01*
X6496222Y4692323D01*
X6556545Y4652017D01*
X6623571Y4624254D01*
X6694726Y4610100D01*
X6767274Y4610100D01*
X6838429Y4624254D01*
X6905455Y4652017D01*
X6965778Y4692323D01*
X7017077Y4743622D01*
X7057383Y4803945D01*
X7085146Y4870971D01*
X7099300Y4942126D01*
X7099300Y5014674D01*
X7085146Y5085829D01*
X7057383Y5152855D01*
X7017077Y5213178D01*
X6965778Y5264477D01*
X6905455Y5304783D01*
X6838429Y5332546D01*
X6767274Y5346700D01*
X6694726Y5346700D01*
X6623571Y5332546D01*
X6556545Y5304783D01*
X6496222Y5264477D01*
X6444923Y5213178D01*
X6404617Y5152855D01*
X6376854Y5085829D01*
X6362700Y5014674D01*
X4863373Y5014674D01*
X4864100Y5018326D01*
X4864100Y5090874D01*
X4849946Y5162029D01*
X4822183Y5229055D01*
X4781877Y5289378D01*
X4730578Y5340677D01*
X4670255Y5380983D01*
X4603229Y5408746D01*
X4532074Y5422900D01*
X4459526Y5422900D01*
X4388371Y5408746D01*
X4321345Y5380983D01*
X4261022Y5340677D01*
X4209723Y5289378D01*
X4169417Y5229055D01*
X4141654Y5162029D01*
X4127500Y5090874D01*
X4027581Y5090874D01*
X3993978Y5124477D01*
X3933655Y5164783D01*
X3866629Y5192546D01*
X3795474Y5206700D01*
X3722926Y5206700D01*
X3651771Y5192546D01*
X3584745Y5164783D01*
X3524422Y5124477D01*
X3473123Y5073178D01*
X3432817Y5012855D01*
X3405054Y4945829D01*
X3390900Y4874674D01*
X3390900Y4802126D01*
X3405054Y4730971D01*
X3432817Y4663945D01*
X3473123Y4603622D01*
X3523945Y4552800D01*
X3498523Y4527378D01*
X3458217Y4467055D01*
X3430454Y4400029D01*
X3416300Y4328874D01*
X3416300Y4256326D01*
X3430454Y4185171D01*
X3458217Y4118145D01*
X3460700Y4114428D01*
X3408444Y4092783D01*
X3348121Y4052477D01*
X3296822Y4001178D01*
X3256516Y3940855D01*
X3228753Y3873829D01*
X3214599Y3802674D01*
X3214599Y3730126D01*
X3228753Y3658971D01*
X3256516Y3591945D01*
X3296822Y3531622D01*
X3348121Y3480323D01*
X3408444Y3440017D01*
X3475470Y3412254D01*
X3546625Y3398100D01*
X3619173Y3398100D01*
X3690328Y3412254D01*
X3757354Y3440017D01*
X3817677Y3480323D01*
X3868976Y3531622D01*
X3909282Y3591945D01*
X3937045Y3658971D01*
X3951199Y3730126D01*
X3951199Y3732146D01*
X3956222Y3727123D01*
X4016545Y3686817D01*
X4083571Y3659054D01*
X4154726Y3644900D01*
X4227274Y3644900D01*
X4298429Y3659054D01*
X4365455Y3686817D01*
X4425778Y3727123D01*
X4466508Y3767853D01*
X4473745Y3763017D01*
X4540771Y3735254D01*
X4611926Y3721100D01*
X4640916Y3721100D01*
X4649654Y3677171D01*
X4677417Y3610145D01*
X4717723Y3549822D01*
X4769022Y3498523D01*
X4829345Y3458217D01*
X4859945Y3445542D01*
X4068705Y2654301D01*
X2508562Y2654301D01*
X2491727Y2655959D01*
X2474892Y2654301D01*
X2474885Y2654301D01*
X2424508Y2649339D01*
X2359871Y2629732D01*
X2300301Y2597891D01*
X2248088Y2555041D01*
X2237347Y2541953D01*
X2106218Y2410824D01*
X2093135Y2400087D01*
X2050284Y2347874D01*
X2018443Y2288304D01*
X2004244Y2241494D01*
X1961629Y2259146D01*
X1890474Y2273300D01*
X1817926Y2273300D01*
X1746771Y2259146D01*
X1679745Y2231383D01*
X1619422Y2191077D01*
X1568123Y2139778D01*
X1528563Y2080571D01*
X1346581Y2262552D01*
X1335840Y2275640D01*
X1283627Y2318490D01*
X1224057Y2350331D01*
X1159420Y2369938D01*
X1109043Y2374900D01*
X1109035Y2374900D01*
X1092200Y2376558D01*
X1075365Y2374900D01*
X921979Y2374900D01*
X894829Y2386146D01*
X823674Y2400300D01*
X751126Y2400300D01*
X679971Y2386146D01*
X612945Y2358383D01*
X552622Y2318077D01*
X501323Y2266778D01*
X461017Y2206455D01*
X433254Y2139429D01*
X419100Y2068274D01*
X313500Y2068274D01*
X313500Y3236674D01*
X1485900Y3236674D01*
X1485900Y3164126D01*
X1500054Y3092971D01*
X1527817Y3025945D01*
X1568123Y2965622D01*
X1619422Y2914323D01*
X1679745Y2874017D01*
X1746771Y2846254D01*
X1817926Y2832100D01*
X1890474Y2832100D01*
X1927307Y2839427D01*
X1934217Y2822745D01*
X1974523Y2762422D01*
X2025822Y2711123D01*
X2086145Y2670817D01*
X2153171Y2643054D01*
X2224326Y2628900D01*
X2296874Y2628900D01*
X2368029Y2643054D01*
X2435055Y2670817D01*
X2495378Y2711123D01*
X2546677Y2762422D01*
X2586983Y2822745D01*
X2614746Y2889771D01*
X2628900Y2960926D01*
X2628900Y3033474D01*
X2614746Y3104629D01*
X2586983Y3171655D01*
X2546677Y3231978D01*
X2495378Y3283277D01*
X2435055Y3323583D01*
X2368029Y3351346D01*
X2296874Y3365500D01*
X2224326Y3365500D01*
X2187493Y3358173D01*
X2184458Y3365500D01*
X2195274Y3365500D01*
X2266429Y3379654D01*
X2333455Y3407417D01*
X2393778Y3447723D01*
X2445077Y3499022D01*
X2485383Y3559345D01*
X2513146Y3626371D01*
X2527300Y3697526D01*
X2527300Y3770074D01*
X2513146Y3841229D01*
X2485383Y3908255D01*
X2445077Y3968578D01*
X2393778Y4019877D01*
X2333455Y4060183D01*
X2266429Y4087946D01*
X2195274Y4102100D01*
X2122726Y4102100D01*
X2051571Y4087946D01*
X1984545Y4060183D01*
X1924222Y4019877D01*
X1872923Y3968578D01*
X1832617Y3908255D01*
X1804854Y3841229D01*
X1790700Y3770074D01*
X1790700Y3697526D01*
X1804854Y3626371D01*
X1828742Y3568700D01*
X1817926Y3568700D01*
X1746771Y3554546D01*
X1679745Y3526783D01*
X1619422Y3486477D01*
X1568123Y3435178D01*
X1527817Y3374855D01*
X1500054Y3307829D01*
X1485900Y3236674D01*
X313500Y3236674D01*
X313500Y4440274D01*
X1374500Y4440274D01*
X1374500Y4367726D01*
X1388654Y4296571D01*
X1416417Y4229545D01*
X1456723Y4169222D01*
X1508022Y4117923D01*
X1568345Y4077617D01*
X1635371Y4049854D01*
X1706526Y4035700D01*
X1779074Y4035700D01*
X1850229Y4049854D01*
X1917255Y4077617D01*
X1977578Y4117923D01*
X2028877Y4169222D01*
X2069183Y4229545D01*
X2096946Y4296571D01*
X2111100Y4367726D01*
X2111100Y4440274D01*
X2096946Y4511429D01*
X2069183Y4578455D01*
X2028877Y4638778D01*
X1977578Y4690077D01*
X1917255Y4730383D01*
X1850229Y4758146D01*
X1779074Y4772300D01*
X1706526Y4772300D01*
X1635371Y4758146D01*
X1568345Y4730383D01*
X1508022Y4690077D01*
X1456723Y4638778D01*
X1416417Y4578455D01*
X1388654Y4511429D01*
X1374500Y4440274D01*
X313500Y4440274D01*
X313500Y6081474D01*
X596900Y6081474D01*
X596900Y6008926D01*
X611054Y5937771D01*
X638817Y5870745D01*
X679123Y5810422D01*
X730422Y5759123D01*
X790745Y5718817D01*
X857771Y5691054D01*
X928926Y5676900D01*
X1001474Y5676900D01*
X1072629Y5691054D01*
X1139181Y5718621D01*
X1119054Y5670029D01*
X1104900Y5598874D01*
X1104900Y5526326D01*
X1119054Y5455171D01*
X1146817Y5388145D01*
X1187123Y5327822D01*
X1238422Y5276523D01*
X1298745Y5236217D01*
X1365771Y5208454D01*
X1436926Y5194300D01*
X1509474Y5194300D01*
X1580629Y5208454D01*
X1647655Y5236217D01*
X1707978Y5276523D01*
X1759277Y5327822D01*
X1799583Y5388145D01*
X1827346Y5455171D01*
X1841500Y5526326D01*
X1841500Y5598874D01*
X1827346Y5670029D01*
X1799583Y5737055D01*
X1759277Y5797378D01*
X1707978Y5848677D01*
X1647655Y5888983D01*
X1638440Y5892800D01*
X1647655Y5896617D01*
X1707978Y5936923D01*
X1759277Y5988222D01*
X1799583Y6048545D01*
X1827346Y6115571D01*
X1841500Y6186726D01*
X1841500Y6259274D01*
X1827346Y6330429D01*
X1814736Y6360874D01*
X3467100Y6360874D01*
X3467100Y6288326D01*
X3481254Y6217171D01*
X3509017Y6150145D01*
X3549323Y6089822D01*
X3600622Y6038523D01*
X3660945Y5998217D01*
X3727971Y5970454D01*
X3799126Y5956300D01*
X3871674Y5956300D01*
X3942829Y5970454D01*
X4009855Y5998217D01*
X4047545Y6023400D01*
X4057822Y6013123D01*
X4118145Y5972817D01*
X4185171Y5945054D01*
X4256326Y5930900D01*
X4328874Y5930900D01*
X4400029Y5945054D01*
X4467055Y5972817D01*
X4527378Y6013123D01*
X4537655Y6023400D01*
X4575345Y5998217D01*
X4642371Y5970454D01*
X4713526Y5956300D01*
X4786074Y5956300D01*
X4857229Y5970454D01*
X4924255Y5998217D01*
X4984578Y6038523D01*
X5035877Y6089822D01*
X5076183Y6150145D01*
X5103946Y6217171D01*
X5118100Y6288326D01*
X5118100Y6360874D01*
X5103946Y6432029D01*
X5101857Y6437074D01*
X5626100Y6437074D01*
X5626100Y6364526D01*
X5640254Y6293371D01*
X5668017Y6226345D01*
X5708323Y6166022D01*
X5759622Y6114723D01*
X5819945Y6074417D01*
X5886971Y6046654D01*
X5958126Y6032500D01*
X6030674Y6032500D01*
X6101829Y6046654D01*
X6168855Y6074417D01*
X6229178Y6114723D01*
X6280477Y6166022D01*
X6320783Y6226345D01*
X6348546Y6293371D01*
X6362700Y6364526D01*
X6362700Y6437074D01*
X6348546Y6508229D01*
X6320783Y6575255D01*
X6280477Y6635578D01*
X6229178Y6686877D01*
X6168855Y6727183D01*
X6101829Y6754946D01*
X6030674Y6769100D01*
X5958126Y6769100D01*
X5886971Y6754946D01*
X5819945Y6727183D01*
X5759622Y6686877D01*
X5708323Y6635578D01*
X5668017Y6575255D01*
X5640254Y6508229D01*
X5626100Y6437074D01*
X5101857Y6437074D01*
X5076183Y6499055D01*
X5035877Y6559378D01*
X4984578Y6610677D01*
X4924255Y6650983D01*
X4857229Y6678746D01*
X4786074Y6692900D01*
X4713526Y6692900D01*
X4642371Y6678746D01*
X4575345Y6650983D01*
X4515022Y6610677D01*
X4504745Y6600400D01*
X4467055Y6625583D01*
X4400029Y6653346D01*
X4328874Y6667500D01*
X4256326Y6667500D01*
X4185171Y6653346D01*
X4118145Y6625583D01*
X4080455Y6600400D01*
X4070178Y6610677D01*
X4009855Y6650983D01*
X3942829Y6678746D01*
X3871674Y6692900D01*
X3799126Y6692900D01*
X3727971Y6678746D01*
X3660945Y6650983D01*
X3600622Y6610677D01*
X3549323Y6559378D01*
X3509017Y6499055D01*
X3481254Y6432029D01*
X3467100Y6360874D01*
X1814736Y6360874D01*
X1799583Y6397455D01*
X1759277Y6457778D01*
X1707978Y6509077D01*
X1647655Y6549383D01*
X1580629Y6577146D01*
X1509474Y6591300D01*
X1436926Y6591300D01*
X1365771Y6577146D01*
X1298745Y6549383D01*
X1238422Y6509077D01*
X1187123Y6457778D01*
X1146817Y6397455D01*
X1136621Y6372840D01*
X1072629Y6399346D01*
X1001474Y6413500D01*
X928926Y6413500D01*
X857771Y6399346D01*
X790745Y6371583D01*
X730422Y6331277D01*
X679123Y6279978D01*
X638817Y6219655D01*
X611054Y6152629D01*
X596900Y6081474D01*
X313500Y6081474D01*
X313500Y7436500D01*
X772786Y7436500D01*
X740417Y7388055D01*
X740417Y7388055D01*
G37*
X740417Y7388055D02*
X712654Y7321029D01*
X698500Y7249874D01*
X698500Y7177326D01*
X712654Y7106171D01*
X740417Y7039145D01*
X780723Y6978822D01*
X832022Y6927523D01*
X892345Y6887217D01*
X959371Y6859454D01*
X1030526Y6845300D01*
X1103074Y6845300D01*
X1174229Y6859454D01*
X1241255Y6887217D01*
X1301578Y6927523D01*
X1352877Y6978822D01*
X1393183Y7039145D01*
X1420946Y7106171D01*
X1435100Y7177326D01*
X1435100Y7249874D01*
X1420946Y7321029D01*
X1393183Y7388055D01*
X1360814Y7436500D01*
X4394727Y7436500D01*
X4337222Y7398077D01*
X4285923Y7346778D01*
X4245617Y7286455D01*
X4217854Y7219429D01*
X4203700Y7148274D01*
X4203700Y7075726D01*
X4217854Y7004571D01*
X4245617Y6937545D01*
X4285923Y6877222D01*
X4337222Y6825923D01*
X4397545Y6785617D01*
X4464571Y6757854D01*
X4535726Y6743700D01*
X4608274Y6743700D01*
X4679429Y6757854D01*
X4746455Y6785617D01*
X4806778Y6825923D01*
X4858077Y6877222D01*
X4898383Y6937545D01*
X4926146Y7004571D01*
X4940300Y7075726D01*
X4940300Y7148274D01*
X4926146Y7219429D01*
X4898383Y7286455D01*
X4858077Y7346778D01*
X4806778Y7398077D01*
X4749273Y7436500D01*
X5599445Y7436500D01*
X5560523Y7397578D01*
X5520217Y7337255D01*
X5492454Y7270229D01*
X5478300Y7199074D01*
X5478300Y7126526D01*
X5492454Y7055371D01*
X5520217Y6988345D01*
X5560523Y6928022D01*
X5611822Y6876723D01*
X5672145Y6836417D01*
X5739171Y6808654D01*
X5810326Y6794500D01*
X5882874Y6794500D01*
X5954029Y6808654D01*
X6021055Y6836417D01*
X6081378Y6876723D01*
X6132677Y6928022D01*
X6172983Y6988345D01*
X6200746Y7055371D01*
X6214900Y7126526D01*
X6214900Y7195298D01*
X7937637Y5472561D01*
X7937500Y5471874D01*
X7937500Y5399326D01*
X7951654Y5328171D01*
X7979417Y5261145D01*
X8019723Y5200822D01*
X8071022Y5149523D01*
X8131345Y5109217D01*
X8198371Y5081454D01*
X8269526Y5067300D01*
X8342074Y5067300D01*
X8342761Y5067437D01*
X9055800Y4354398D01*
X9046217Y4340055D01*
X9018454Y4273029D01*
X9004300Y4201874D01*
X9004300Y4129326D01*
X9018454Y4058171D01*
X9046217Y3991145D01*
X9086523Y3930822D01*
X9137822Y3879523D01*
X9198145Y3839217D01*
X9265171Y3811454D01*
X9336326Y3797300D01*
X9408874Y3797300D01*
X9480029Y3811454D01*
X9547055Y3839217D01*
X9561398Y3848800D01*
X9647865Y3762333D01*
X9639300Y3719274D01*
X9639300Y3646726D01*
X9653454Y3575571D01*
X9681217Y3508545D01*
X9721523Y3448222D01*
X9772822Y3396923D01*
X9833145Y3356617D01*
X9900171Y3328854D01*
X9971326Y3314700D01*
X10043874Y3314700D01*
X10086933Y3323265D01*
X10234500Y3175698D01*
X10234500Y563500D01*
X10163823Y563500D01*
X10158546Y590029D01*
X10130783Y657055D01*
X10090477Y717378D01*
X10039178Y768677D01*
X9978855Y808983D01*
X9911829Y836746D01*
X9840674Y850900D01*
X9768126Y850900D01*
X9696971Y836746D01*
X9629945Y808983D01*
X9569622Y768677D01*
X9518323Y717378D01*
X9478017Y657055D01*
X9450254Y590029D01*
X9444977Y563500D01*
X9198623Y563500D01*
X9193346Y590029D01*
X9165583Y657055D01*
X9125277Y717378D01*
X9073978Y768677D01*
X9013655Y808983D01*
X8946629Y836746D01*
X8875474Y850900D01*
X8802926Y850900D01*
X8731771Y836746D01*
X8664745Y808983D01*
X8604422Y768677D01*
X8553123Y717378D01*
X8512817Y657055D01*
X8485054Y590029D01*
X8479777Y563500D01*
X7273276Y563500D01*
X7262946Y615429D01*
X7235183Y682455D01*
X7194877Y742778D01*
X7143578Y794077D01*
X7083255Y834383D01*
X7016229Y862146D01*
X6945074Y876300D01*
X6872526Y876300D01*
X6801371Y862146D01*
X6734345Y834383D01*
X6674022Y794077D01*
X6622723Y742778D01*
X6582417Y682455D01*
X6554654Y615429D01*
X6544324Y563500D01*
X5342876Y563500D01*
X5332546Y615429D01*
X5304783Y682455D01*
X5264477Y742778D01*
X5213178Y794077D01*
X5152855Y834383D01*
X5085829Y862146D01*
X5014674Y876300D01*
X4942126Y876300D01*
X4870971Y862146D01*
X4803945Y834383D01*
X4743622Y794077D01*
X4692323Y742778D01*
X4652017Y682455D01*
X4624254Y615429D01*
X4613924Y563500D01*
X4377676Y563500D01*
X4367346Y615429D01*
X4339583Y682455D01*
X4299277Y742778D01*
X4247978Y794077D01*
X4187655Y834383D01*
X4120629Y862146D01*
X4049474Y876300D01*
X3976926Y876300D01*
X3905771Y862146D01*
X3838745Y834383D01*
X3778422Y794077D01*
X3727123Y742778D01*
X3686817Y682455D01*
X3659054Y615429D01*
X3648724Y563500D01*
X3412476Y563500D01*
X3402146Y615429D01*
X3374383Y682455D01*
X3334077Y742778D01*
X3282778Y794077D01*
X3222455Y834383D01*
X3155429Y862146D01*
X3084274Y876300D01*
X3011726Y876300D01*
X2940571Y862146D01*
X2873545Y834383D01*
X2813222Y794077D01*
X2761923Y742778D01*
X2721617Y682455D01*
X2693854Y615429D01*
X2683524Y563500D01*
X2447276Y563500D01*
X2436946Y615429D01*
X2409183Y682455D01*
X2368877Y742778D01*
X2317578Y794077D01*
X2257255Y834383D01*
X2190229Y862146D01*
X2119074Y876300D01*
X2046526Y876300D01*
X1975371Y862146D01*
X1908345Y834383D01*
X1848022Y794077D01*
X1796723Y742778D01*
X1756417Y682455D01*
X1728654Y615429D01*
X1718324Y563500D01*
X1526302Y563500D01*
X1469888Y619914D01*
X1443983Y682455D01*
X1403677Y742778D01*
X1352378Y794077D01*
X1292055Y834383D01*
X1229514Y860288D01*
X977900Y1111902D01*
X977900Y1153874D01*
X963746Y1225029D01*
X935983Y1292055D01*
X895677Y1352378D01*
X844378Y1403677D01*
X784055Y1443983D01*
X717029Y1471746D01*
X645874Y1485900D01*
X603902Y1485900D01*
X313500Y1776302D01*
X313500Y2068274D01*
X419100Y2068274D01*
X419100Y1995726D01*
X433254Y1924571D01*
X461017Y1857545D01*
X501323Y1797222D01*
X552622Y1745923D01*
X612945Y1705617D01*
X679971Y1677854D01*
X751126Y1663700D01*
X823674Y1663700D01*
X894829Y1677854D01*
X921979Y1689100D01*
X950167Y1689100D01*
X1313392Y1325874D01*
X1273817Y1266644D01*
X1246054Y1199618D01*
X1231900Y1128463D01*
X1231900Y1055915D01*
X1246054Y984760D01*
X1273817Y917734D01*
X1314123Y857411D01*
X1365422Y806112D01*
X1425745Y765806D01*
X1492771Y738043D01*
X1563926Y723889D01*
X1636474Y723889D01*
X1707629Y738043D01*
X1774655Y765806D01*
X1834978Y806112D01*
X1886277Y857411D01*
X1926583Y917734D01*
X1954346Y984760D01*
X1968500Y1055915D01*
X1968500Y1128463D01*
X1963082Y1155699D01*
X2032438Y1155699D01*
X2049273Y1154041D01*
X2066108Y1155699D01*
X2066116Y1155699D01*
X2116493Y1160661D01*
X2181130Y1180268D01*
X2204875Y1192960D01*
X2197100Y1153874D01*
X2197100Y1081326D01*
X2211254Y1010171D01*
X2239017Y943145D01*
X2279323Y882822D01*
X2330622Y831523D01*
X2390945Y791217D01*
X2457971Y763454D01*
X2529126Y749300D01*
X2601674Y749300D01*
X2672829Y763454D01*
X2739855Y791217D01*
X2800178Y831523D01*
X2851477Y882822D01*
X2891783Y943145D01*
X2919546Y1010171D01*
X2933700Y1081326D01*
X2933700Y1128464D01*
X3162300Y1128464D01*
X3162300Y1055916D01*
X3176454Y984761D01*
X3204217Y917735D01*
X3244523Y857412D01*
X3295822Y806113D01*
X3356145Y765807D01*
X3423171Y738044D01*
X3494326Y723890D01*
X3566874Y723890D01*
X3638029Y738044D01*
X3705055Y765807D01*
X3765378Y806113D01*
X3816677Y857412D01*
X3856983Y917735D01*
X3884746Y984761D01*
X3898900Y1055916D01*
X3898900Y1128464D01*
X4127500Y1128464D01*
X4127500Y1055916D01*
X4141654Y984761D01*
X4169417Y917735D01*
X4209723Y857412D01*
X4261022Y806113D01*
X4321345Y765807D01*
X4388371Y738044D01*
X4459526Y723890D01*
X4532074Y723890D01*
X4603229Y738044D01*
X4670255Y765807D01*
X4730578Y806113D01*
X4781877Y857412D01*
X4822183Y917735D01*
X4849946Y984761D01*
X4864100Y1055916D01*
X4864100Y1128464D01*
X5092700Y1128464D01*
X5092700Y1055916D01*
X5106854Y984761D01*
X5134617Y917735D01*
X5174923Y857412D01*
X5226222Y806113D01*
X5286545Y765807D01*
X5353571Y738044D01*
X5424726Y723890D01*
X5497274Y723890D01*
X5568429Y738044D01*
X5635455Y765807D01*
X5695778Y806113D01*
X5747077Y857412D01*
X5787383Y917735D01*
X5815146Y984761D01*
X5829300Y1055916D01*
X5829300Y1128464D01*
X6057900Y1128464D01*
X6057900Y1055916D01*
X6072054Y984761D01*
X6099817Y917735D01*
X6140123Y857412D01*
X6191422Y806113D01*
X6251745Y765807D01*
X6318771Y738044D01*
X6389926Y723890D01*
X6462474Y723890D01*
X6533629Y738044D01*
X6600655Y765807D01*
X6660978Y806113D01*
X6712277Y857412D01*
X6752583Y917735D01*
X6780346Y984761D01*
X6794500Y1055916D01*
X6794500Y1128464D01*
X7023100Y1128464D01*
X7023100Y1055916D01*
X7037254Y984761D01*
X7065017Y917735D01*
X7105323Y857412D01*
X7156622Y806113D01*
X7216945Y765807D01*
X7283971Y738044D01*
X7355126Y723890D01*
X7427674Y723890D01*
X7498829Y738044D01*
X7565855Y765807D01*
X7626178Y806113D01*
X7677477Y857412D01*
X7717783Y917735D01*
X7745546Y984761D01*
X7759700Y1055916D01*
X7759700Y1128464D01*
X7759699Y1128474D01*
X7988300Y1128474D01*
X7988300Y1055926D01*
X8002454Y984771D01*
X8030217Y917745D01*
X8070523Y857422D01*
X8121822Y806123D01*
X8182145Y765817D01*
X8249171Y738054D01*
X8320326Y723900D01*
X8392874Y723900D01*
X8464029Y738054D01*
X8531055Y765817D01*
X8591378Y806123D01*
X8642677Y857422D01*
X8682983Y917745D01*
X8710746Y984771D01*
X8724900Y1055926D01*
X8724900Y1128474D01*
X8710746Y1199629D01*
X8682983Y1266655D01*
X8642677Y1326978D01*
X8591378Y1378277D01*
X8531055Y1418583D01*
X8464029Y1446346D01*
X8392874Y1460500D01*
X8320326Y1460500D01*
X8249171Y1446346D01*
X8182145Y1418583D01*
X8121822Y1378277D01*
X8070523Y1326978D01*
X8030217Y1266655D01*
X8002454Y1199629D01*
X7988300Y1128474D01*
X7759699Y1128474D01*
X7745546Y1199619D01*
X7717783Y1266645D01*
X7677477Y1326968D01*
X7626178Y1378267D01*
X7565855Y1418573D01*
X7498829Y1446336D01*
X7427674Y1460490D01*
X7355126Y1460490D01*
X7283971Y1446336D01*
X7216945Y1418573D01*
X7156622Y1378267D01*
X7105323Y1326968D01*
X7065017Y1266645D01*
X7037254Y1199619D01*
X7023100Y1128464D01*
X6794500Y1128464D01*
X6780346Y1199619D01*
X6752583Y1266645D01*
X6712277Y1326968D01*
X6660978Y1378267D01*
X6600655Y1418573D01*
X6533629Y1446336D01*
X6462474Y1460490D01*
X6389926Y1460490D01*
X6318771Y1446336D01*
X6251745Y1418573D01*
X6191422Y1378267D01*
X6140123Y1326968D01*
X6099817Y1266645D01*
X6072054Y1199619D01*
X6057900Y1128464D01*
X5829300Y1128464D01*
X5815146Y1199619D01*
X5787383Y1266645D01*
X5747077Y1326968D01*
X5695778Y1378267D01*
X5635455Y1418573D01*
X5568429Y1446336D01*
X5497274Y1460490D01*
X5424726Y1460490D01*
X5353571Y1446336D01*
X5286545Y1418573D01*
X5226222Y1378267D01*
X5174923Y1326968D01*
X5134617Y1266645D01*
X5106854Y1199619D01*
X5092700Y1128464D01*
X4864100Y1128464D01*
X4849946Y1199619D01*
X4822183Y1266645D01*
X4781877Y1326968D01*
X4730578Y1378267D01*
X4670255Y1418573D01*
X4603229Y1446336D01*
X4532074Y1460490D01*
X4459526Y1460490D01*
X4388371Y1446336D01*
X4321345Y1418573D01*
X4261022Y1378267D01*
X4209723Y1326968D01*
X4169417Y1266645D01*
X4141654Y1199619D01*
X4127500Y1128464D01*
X3898900Y1128464D01*
X3884746Y1199619D01*
X3856983Y1266645D01*
X3816677Y1326968D01*
X3765378Y1378267D01*
X3705055Y1418573D01*
X3638029Y1446336D01*
X3566874Y1460490D01*
X3494326Y1460490D01*
X3423171Y1446336D01*
X3356145Y1418573D01*
X3295822Y1378267D01*
X3244523Y1326968D01*
X3204217Y1266645D01*
X3176454Y1199619D01*
X3162300Y1128464D01*
X2933700Y1128464D01*
X2933700Y1153874D01*
X2919546Y1225029D01*
X2891783Y1292055D01*
X2851477Y1352378D01*
X2800178Y1403677D01*
X2739855Y1443983D01*
X2672829Y1471746D01*
X2601674Y1485900D01*
X2529126Y1485900D01*
X2519615Y1484008D01*
X2567326Y1531719D01*
X2580414Y1542460D01*
X2623264Y1594673D01*
X2636226Y1618923D01*
X2655105Y1654243D01*
X2674712Y1718880D01*
X2679824Y1770784D01*
X2690920Y1797571D01*
X2705074Y1868726D01*
X2705074Y1941274D01*
X2699658Y1968501D01*
X2888314Y1968501D01*
X2882897Y1941271D01*
X2882897Y1868723D01*
X2897051Y1797568D01*
X2924814Y1730542D01*
X2965120Y1670219D01*
X3016419Y1618920D01*
X3076742Y1578614D01*
X3143768Y1550851D01*
X3214923Y1536697D01*
X3287471Y1536697D01*
X3358626Y1550851D01*
X3425652Y1578614D01*
X3485975Y1618920D01*
X3487701Y1620645D01*
X3514823Y1593523D01*
X3575146Y1553217D01*
X3642172Y1525454D01*
X3713327Y1511300D01*
X3785875Y1511300D01*
X3857030Y1525454D01*
X3924056Y1553217D01*
X3984379Y1593523D01*
X4035678Y1644822D01*
X4075984Y1705145D01*
X4103747Y1772171D01*
X4117901Y1843326D01*
X4117901Y1890474D01*
X4787898Y1890474D01*
X4787898Y1817926D01*
X4802052Y1746771D01*
X4829815Y1679745D01*
X4870121Y1619422D01*
X4921420Y1568123D01*
X4981743Y1527817D01*
X5048769Y1500054D01*
X5119924Y1485900D01*
X5192472Y1485900D01*
X5263627Y1500054D01*
X5330653Y1527817D01*
X5390976Y1568123D01*
X5442275Y1619422D01*
X5482581Y1679745D01*
X5510344Y1746771D01*
X5524498Y1817926D01*
X5524498Y1890474D01*
X5510344Y1961629D01*
X5482581Y2028655D01*
X5442275Y2088978D01*
X5390976Y2140277D01*
X5330653Y2180583D01*
X5263627Y2208346D01*
X5192472Y2222500D01*
X5119924Y2222500D01*
X5048769Y2208346D01*
X4981743Y2180583D01*
X4921420Y2140277D01*
X4870121Y2088978D01*
X4829815Y2028655D01*
X4802052Y1961629D01*
X4787898Y1890474D01*
X4117901Y1890474D01*
X4117901Y1915874D01*
X4107433Y1968501D01*
X4193903Y1968501D01*
X4210738Y1966843D01*
X4227573Y1968501D01*
X4227581Y1968501D01*
X4277958Y1973463D01*
X4342595Y1993070D01*
X4402165Y2024911D01*
X4454378Y2067761D01*
X4465119Y2080849D01*
X4909744Y2525474D01*
X8242300Y2525474D01*
X8242300Y2452926D01*
X8256454Y2381771D01*
X8284217Y2314745D01*
X8324523Y2254422D01*
X8375822Y2203123D01*
X8436145Y2162817D01*
X8503171Y2135054D01*
X8574326Y2120900D01*
X8646874Y2120900D01*
X8718029Y2135054D01*
X8785055Y2162817D01*
X8845378Y2203123D01*
X8862929Y2220674D01*
X9080500Y2220674D01*
X9080500Y2148126D01*
X9094654Y2076971D01*
X9122417Y2009945D01*
X9162723Y1949622D01*
X9214022Y1898323D01*
X9274345Y1858017D01*
X9341371Y1830254D01*
X9412526Y1816100D01*
X9485074Y1816100D01*
X9556229Y1830254D01*
X9623255Y1858017D01*
X9683578Y1898323D01*
X9734877Y1949622D01*
X9775183Y2009945D01*
X9802946Y2076971D01*
X9817100Y2148126D01*
X9817100Y2220674D01*
X9802946Y2291829D01*
X9775183Y2358855D01*
X9734877Y2419178D01*
X9683578Y2470477D01*
X9623255Y2510783D01*
X9556229Y2538546D01*
X9485074Y2552700D01*
X9412526Y2552700D01*
X9341371Y2538546D01*
X9274345Y2510783D01*
X9214022Y2470477D01*
X9162723Y2419178D01*
X9122417Y2358855D01*
X9094654Y2291829D01*
X9080500Y2220674D01*
X8862929Y2220674D01*
X8896677Y2254422D01*
X8936983Y2314745D01*
X8964746Y2381771D01*
X8978900Y2452926D01*
X8978900Y2476863D01*
X9048229Y2490654D01*
X9115255Y2518417D01*
X9175578Y2558723D01*
X9226877Y2610022D01*
X9267183Y2670345D01*
X9294946Y2737371D01*
X9309100Y2808526D01*
X9309100Y2842568D01*
X9361726Y2832100D01*
X9434274Y2832100D01*
X9505429Y2846254D01*
X9572455Y2874017D01*
X9632778Y2914323D01*
X9684077Y2965622D01*
X9724383Y3025945D01*
X9752146Y3092971D01*
X9766300Y3164126D01*
X9766300Y3236674D01*
X9752146Y3307829D01*
X9724383Y3374855D01*
X9684077Y3435178D01*
X9632778Y3486477D01*
X9572455Y3526783D01*
X9505429Y3554546D01*
X9434274Y3568700D01*
X9361726Y3568700D01*
X9290571Y3554546D01*
X9223545Y3526783D01*
X9163222Y3486477D01*
X9111923Y3435178D01*
X9071617Y3374855D01*
X9043854Y3307829D01*
X9029700Y3236674D01*
X9029700Y3202632D01*
X8977074Y3213100D01*
X8904526Y3213100D01*
X8833371Y3198946D01*
X8766345Y3171183D01*
X8706022Y3130877D01*
X8654723Y3079578D01*
X8614417Y3019255D01*
X8586654Y2952229D01*
X8572500Y2881074D01*
X8572500Y2857137D01*
X8503171Y2843346D01*
X8436145Y2815583D01*
X8375822Y2775277D01*
X8324523Y2723978D01*
X8284217Y2663655D01*
X8256454Y2596629D01*
X8242300Y2525474D01*
X4909744Y2525474D01*
X5688452Y3304181D01*
X5701529Y3314913D01*
X5712262Y3327991D01*
X5712266Y3327995D01*
X5735755Y3356617D01*
X5744380Y3367126D01*
X5776221Y3426696D01*
X5795828Y3491333D01*
X5800790Y3541710D01*
X5800790Y3541717D01*
X5802448Y3558552D01*
X5800790Y3575387D01*
X5800790Y3675421D01*
X5812036Y3702571D01*
X5822502Y3755184D01*
X5838040Y3755184D01*
X5843454Y3727965D01*
X5871217Y3660939D01*
X5911523Y3600616D01*
X5962822Y3549317D01*
X6023145Y3509011D01*
X6090171Y3481248D01*
X6161326Y3467094D01*
X6233874Y3467094D01*
X6305029Y3481248D01*
X6372055Y3509011D01*
X6432378Y3549317D01*
X6483677Y3600616D01*
X6523983Y3660939D01*
X6551746Y3727965D01*
X6565900Y3799120D01*
X6565900Y3838236D01*
X6571923Y3829222D01*
X6623222Y3777923D01*
X6683545Y3737617D01*
X6750571Y3709854D01*
X6821726Y3695700D01*
X6894274Y3695700D01*
X6965429Y3709854D01*
X7032455Y3737617D01*
X7092778Y3777923D01*
X7144077Y3829222D01*
X7184383Y3889545D01*
X7212146Y3956571D01*
X7226300Y4027726D01*
X7226300Y4100274D01*
X7212146Y4171429D01*
X7184383Y4238455D01*
X7144077Y4298778D01*
X7139381Y4303474D01*
X7912101Y4303474D01*
X7912101Y4230926D01*
X7926255Y4159771D01*
X7954018Y4092745D01*
X7994324Y4032422D01*
X8045623Y3981123D01*
X8105946Y3940817D01*
X8172972Y3913054D01*
X8244127Y3898900D01*
X8316675Y3898900D01*
X8387830Y3913054D01*
X8454856Y3940817D01*
X8515179Y3981123D01*
X8566478Y4032422D01*
X8606784Y4092745D01*
X8634547Y4159771D01*
X8648701Y4230926D01*
X8648701Y4303474D01*
X8634547Y4374629D01*
X8606784Y4441655D01*
X8566478Y4501978D01*
X8515179Y4553277D01*
X8454856Y4593583D01*
X8387830Y4621346D01*
X8316675Y4635500D01*
X8244127Y4635500D01*
X8172972Y4621346D01*
X8105946Y4593583D01*
X8045623Y4553277D01*
X7994324Y4501978D01*
X7954018Y4441655D01*
X7926255Y4374629D01*
X7912101Y4303474D01*
X7139381Y4303474D01*
X7092778Y4350077D01*
X7032455Y4390383D01*
X6965429Y4418146D01*
X6894274Y4432300D01*
X6821726Y4432300D01*
X6750571Y4418146D01*
X6683545Y4390383D01*
X6623222Y4350077D01*
X6571923Y4298778D01*
X6531617Y4238455D01*
X6503854Y4171429D01*
X6489700Y4100274D01*
X6489700Y4061158D01*
X6483677Y4070172D01*
X6432378Y4121471D01*
X6372055Y4161777D01*
X6305029Y4189540D01*
X6233874Y4203694D01*
X6214438Y4203694D01*
X6209024Y4230913D01*
X6181261Y4297939D01*
X6140955Y4358262D01*
X6089656Y4409561D01*
X6029333Y4449867D01*
X5962307Y4477630D01*
X5891152Y4491784D01*
X5818604Y4491784D01*
X5747449Y4477630D01*
X5680423Y4449867D01*
X5620100Y4409561D01*
X5568801Y4358262D01*
X5528495Y4297939D01*
X5500732Y4230913D01*
X5490266Y4178300D01*
X5421616Y4178300D01*
X5350461Y4164146D01*
X5283435Y4136383D01*
X5223112Y4096077D01*
X5214080Y4087045D01*
X5178255Y4110983D01*
X5111229Y4138746D01*
X5040074Y4152900D01*
X5011084Y4152900D01*
X5002346Y4196829D01*
X4974583Y4263855D01*
X4934277Y4324178D01*
X4882978Y4375477D01*
X4822655Y4415783D01*
X4755629Y4443546D01*
X4684474Y4457700D01*
X4611926Y4457700D01*
X4540771Y4443546D01*
X4473745Y4415783D01*
X4413422Y4375477D01*
X4372692Y4334747D01*
X4365455Y4339583D01*
X4298429Y4367346D01*
X4227274Y4381500D01*
X4154726Y4381500D01*
X4142900Y4379148D01*
X4138746Y4400029D01*
X4110983Y4467055D01*
X4070677Y4527378D01*
X4019855Y4578200D01*
X4045277Y4603622D01*
X4085583Y4663945D01*
X4113346Y4730971D01*
X4127500Y4802126D01*
X4127500Y4874674D01*
X4113346Y4945829D01*
X4085583Y5012855D01*
X4045277Y5073178D01*
X4027581Y5090874D01*
X4127500Y5090874D01*
X4127500Y5018326D01*
X4141654Y4947171D01*
X4169417Y4880145D01*
X4209723Y4819822D01*
X4261022Y4768523D01*
X4321345Y4728217D01*
X4388371Y4700454D01*
X4459526Y4686300D01*
X4532074Y4686300D01*
X4603229Y4700454D01*
X4670255Y4728217D01*
X4730578Y4768523D01*
X4781877Y4819822D01*
X4822183Y4880145D01*
X4849946Y4947171D01*
X4863373Y5014674D01*
X6362700Y5014674D01*
X6362700Y4942126D01*
X6376854Y4870971D01*
X6404617Y4803945D01*
X6444923Y4743622D01*
X6496222Y4692323D01*
X6556545Y4652017D01*
X6623571Y4624254D01*
X6694726Y4610100D01*
X6767274Y4610100D01*
X6838429Y4624254D01*
X6905455Y4652017D01*
X6965778Y4692323D01*
X7017077Y4743622D01*
X7057383Y4803945D01*
X7085146Y4870971D01*
X7099300Y4942126D01*
X7099300Y5014674D01*
X7085146Y5085829D01*
X7057383Y5152855D01*
X7017077Y5213178D01*
X6965778Y5264477D01*
X6905455Y5304783D01*
X6838429Y5332546D01*
X6767274Y5346700D01*
X6694726Y5346700D01*
X6623571Y5332546D01*
X6556545Y5304783D01*
X6496222Y5264477D01*
X6444923Y5213178D01*
X6404617Y5152855D01*
X6376854Y5085829D01*
X6362700Y5014674D01*
X4863373Y5014674D01*
X4864100Y5018326D01*
X4864100Y5090874D01*
X4849946Y5162029D01*
X4822183Y5229055D01*
X4781877Y5289378D01*
X4730578Y5340677D01*
X4670255Y5380983D01*
X4603229Y5408746D01*
X4532074Y5422900D01*
X4459526Y5422900D01*
X4388371Y5408746D01*
X4321345Y5380983D01*
X4261022Y5340677D01*
X4209723Y5289378D01*
X4169417Y5229055D01*
X4141654Y5162029D01*
X4127500Y5090874D01*
X4027581Y5090874D01*
X3993978Y5124477D01*
X3933655Y5164783D01*
X3866629Y5192546D01*
X3795474Y5206700D01*
X3722926Y5206700D01*
X3651771Y5192546D01*
X3584745Y5164783D01*
X3524422Y5124477D01*
X3473123Y5073178D01*
X3432817Y5012855D01*
X3405054Y4945829D01*
X3390900Y4874674D01*
X3390900Y4802126D01*
X3405054Y4730971D01*
X3432817Y4663945D01*
X3473123Y4603622D01*
X3523945Y4552800D01*
X3498523Y4527378D01*
X3458217Y4467055D01*
X3430454Y4400029D01*
X3416300Y4328874D01*
X3416300Y4256326D01*
X3430454Y4185171D01*
X3458217Y4118145D01*
X3460700Y4114428D01*
X3408444Y4092783D01*
X3348121Y4052477D01*
X3296822Y4001178D01*
X3256516Y3940855D01*
X3228753Y3873829D01*
X3214599Y3802674D01*
X3214599Y3730126D01*
X3228753Y3658971D01*
X3256516Y3591945D01*
X3296822Y3531622D01*
X3348121Y3480323D01*
X3408444Y3440017D01*
X3475470Y3412254D01*
X3546625Y3398100D01*
X3619173Y3398100D01*
X3690328Y3412254D01*
X3757354Y3440017D01*
X3817677Y3480323D01*
X3868976Y3531622D01*
X3909282Y3591945D01*
X3937045Y3658971D01*
X3951199Y3730126D01*
X3951199Y3732146D01*
X3956222Y3727123D01*
X4016545Y3686817D01*
X4083571Y3659054D01*
X4154726Y3644900D01*
X4227274Y3644900D01*
X4298429Y3659054D01*
X4365455Y3686817D01*
X4425778Y3727123D01*
X4466508Y3767853D01*
X4473745Y3763017D01*
X4540771Y3735254D01*
X4611926Y3721100D01*
X4640916Y3721100D01*
X4649654Y3677171D01*
X4677417Y3610145D01*
X4717723Y3549822D01*
X4769022Y3498523D01*
X4829345Y3458217D01*
X4859945Y3445542D01*
X4068705Y2654301D01*
X2508562Y2654301D01*
X2491727Y2655959D01*
X2474892Y2654301D01*
X2474885Y2654301D01*
X2424508Y2649339D01*
X2359871Y2629732D01*
X2300301Y2597891D01*
X2248088Y2555041D01*
X2237347Y2541953D01*
X2106218Y2410824D01*
X2093135Y2400087D01*
X2050284Y2347874D01*
X2018443Y2288304D01*
X2004244Y2241494D01*
X1961629Y2259146D01*
X1890474Y2273300D01*
X1817926Y2273300D01*
X1746771Y2259146D01*
X1679745Y2231383D01*
X1619422Y2191077D01*
X1568123Y2139778D01*
X1528563Y2080571D01*
X1346581Y2262552D01*
X1335840Y2275640D01*
X1283627Y2318490D01*
X1224057Y2350331D01*
X1159420Y2369938D01*
X1109043Y2374900D01*
X1109035Y2374900D01*
X1092200Y2376558D01*
X1075365Y2374900D01*
X921979Y2374900D01*
X894829Y2386146D01*
X823674Y2400300D01*
X751126Y2400300D01*
X679971Y2386146D01*
X612945Y2358383D01*
X552622Y2318077D01*
X501323Y2266778D01*
X461017Y2206455D01*
X433254Y2139429D01*
X419100Y2068274D01*
X313500Y2068274D01*
X313500Y3236674D01*
X1485900Y3236674D01*
X1485900Y3164126D01*
X1500054Y3092971D01*
X1527817Y3025945D01*
X1568123Y2965622D01*
X1619422Y2914323D01*
X1679745Y2874017D01*
X1746771Y2846254D01*
X1817926Y2832100D01*
X1890474Y2832100D01*
X1927307Y2839427D01*
X1934217Y2822745D01*
X1974523Y2762422D01*
X2025822Y2711123D01*
X2086145Y2670817D01*
X2153171Y2643054D01*
X2224326Y2628900D01*
X2296874Y2628900D01*
X2368029Y2643054D01*
X2435055Y2670817D01*
X2495378Y2711123D01*
X2546677Y2762422D01*
X2586983Y2822745D01*
X2614746Y2889771D01*
X2628900Y2960926D01*
X2628900Y3033474D01*
X2614746Y3104629D01*
X2586983Y3171655D01*
X2546677Y3231978D01*
X2495378Y3283277D01*
X2435055Y3323583D01*
X2368029Y3351346D01*
X2296874Y3365500D01*
X2224326Y3365500D01*
X2187493Y3358173D01*
X2184458Y3365500D01*
X2195274Y3365500D01*
X2266429Y3379654D01*
X2333455Y3407417D01*
X2393778Y3447723D01*
X2445077Y3499022D01*
X2485383Y3559345D01*
X2513146Y3626371D01*
X2527300Y3697526D01*
X2527300Y3770074D01*
X2513146Y3841229D01*
X2485383Y3908255D01*
X2445077Y3968578D01*
X2393778Y4019877D01*
X2333455Y4060183D01*
X2266429Y4087946D01*
X2195274Y4102100D01*
X2122726Y4102100D01*
X2051571Y4087946D01*
X1984545Y4060183D01*
X1924222Y4019877D01*
X1872923Y3968578D01*
X1832617Y3908255D01*
X1804854Y3841229D01*
X1790700Y3770074D01*
X1790700Y3697526D01*
X1804854Y3626371D01*
X1828742Y3568700D01*
X1817926Y3568700D01*
X1746771Y3554546D01*
X1679745Y3526783D01*
X1619422Y3486477D01*
X1568123Y3435178D01*
X1527817Y3374855D01*
X1500054Y3307829D01*
X1485900Y3236674D01*
X313500Y3236674D01*
X313500Y4440274D01*
X1374500Y4440274D01*
X1374500Y4367726D01*
X1388654Y4296571D01*
X1416417Y4229545D01*
X1456723Y4169222D01*
X1508022Y4117923D01*
X1568345Y4077617D01*
X1635371Y4049854D01*
X1706526Y4035700D01*
X1779074Y4035700D01*
X1850229Y4049854D01*
X1917255Y4077617D01*
X1977578Y4117923D01*
X2028877Y4169222D01*
X2069183Y4229545D01*
X2096946Y4296571D01*
X2111100Y4367726D01*
X2111100Y4440274D01*
X2096946Y4511429D01*
X2069183Y4578455D01*
X2028877Y4638778D01*
X1977578Y4690077D01*
X1917255Y4730383D01*
X1850229Y4758146D01*
X1779074Y4772300D01*
X1706526Y4772300D01*
X1635371Y4758146D01*
X1568345Y4730383D01*
X1508022Y4690077D01*
X1456723Y4638778D01*
X1416417Y4578455D01*
X1388654Y4511429D01*
X1374500Y4440274D01*
X313500Y4440274D01*
X313500Y6081474D01*
X596900Y6081474D01*
X596900Y6008926D01*
X611054Y5937771D01*
X638817Y5870745D01*
X679123Y5810422D01*
X730422Y5759123D01*
X790745Y5718817D01*
X857771Y5691054D01*
X928926Y5676900D01*
X1001474Y5676900D01*
X1072629Y5691054D01*
X1139181Y5718621D01*
X1119054Y5670029D01*
X1104900Y5598874D01*
X1104900Y5526326D01*
X1119054Y5455171D01*
X1146817Y5388145D01*
X1187123Y5327822D01*
X1238422Y5276523D01*
X1298745Y5236217D01*
X1365771Y5208454D01*
X1436926Y5194300D01*
X1509474Y5194300D01*
X1580629Y5208454D01*
X1647655Y5236217D01*
X1707978Y5276523D01*
X1759277Y5327822D01*
X1799583Y5388145D01*
X1827346Y5455171D01*
X1841500Y5526326D01*
X1841500Y5598874D01*
X1827346Y5670029D01*
X1799583Y5737055D01*
X1759277Y5797378D01*
X1707978Y5848677D01*
X1647655Y5888983D01*
X1638440Y5892800D01*
X1647655Y5896617D01*
X1707978Y5936923D01*
X1759277Y5988222D01*
X1799583Y6048545D01*
X1827346Y6115571D01*
X1841500Y6186726D01*
X1841500Y6259274D01*
X1827346Y6330429D01*
X1814736Y6360874D01*
X3467100Y6360874D01*
X3467100Y6288326D01*
X3481254Y6217171D01*
X3509017Y6150145D01*
X3549323Y6089822D01*
X3600622Y6038523D01*
X3660945Y5998217D01*
X3727971Y5970454D01*
X3799126Y5956300D01*
X3871674Y5956300D01*
X3942829Y5970454D01*
X4009855Y5998217D01*
X4047545Y6023400D01*
X4057822Y6013123D01*
X4118145Y5972817D01*
X4185171Y5945054D01*
X4256326Y5930900D01*
X4328874Y5930900D01*
X4400029Y5945054D01*
X4467055Y5972817D01*
X4527378Y6013123D01*
X4537655Y6023400D01*
X4575345Y5998217D01*
X4642371Y5970454D01*
X4713526Y5956300D01*
X4786074Y5956300D01*
X4857229Y5970454D01*
X4924255Y5998217D01*
X4984578Y6038523D01*
X5035877Y6089822D01*
X5076183Y6150145D01*
X5103946Y6217171D01*
X5118100Y6288326D01*
X5118100Y6360874D01*
X5103946Y6432029D01*
X5101857Y6437074D01*
X5626100Y6437074D01*
X5626100Y6364526D01*
X5640254Y6293371D01*
X5668017Y6226345D01*
X5708323Y6166022D01*
X5759622Y6114723D01*
X5819945Y6074417D01*
X5886971Y6046654D01*
X5958126Y6032500D01*
X6030674Y6032500D01*
X6101829Y6046654D01*
X6168855Y6074417D01*
X6229178Y6114723D01*
X6280477Y6166022D01*
X6320783Y6226345D01*
X6348546Y6293371D01*
X6362700Y6364526D01*
X6362700Y6437074D01*
X6348546Y6508229D01*
X6320783Y6575255D01*
X6280477Y6635578D01*
X6229178Y6686877D01*
X6168855Y6727183D01*
X6101829Y6754946D01*
X6030674Y6769100D01*
X5958126Y6769100D01*
X5886971Y6754946D01*
X5819945Y6727183D01*
X5759622Y6686877D01*
X5708323Y6635578D01*
X5668017Y6575255D01*
X5640254Y6508229D01*
X5626100Y6437074D01*
X5101857Y6437074D01*
X5076183Y6499055D01*
X5035877Y6559378D01*
X4984578Y6610677D01*
X4924255Y6650983D01*
X4857229Y6678746D01*
X4786074Y6692900D01*
X4713526Y6692900D01*
X4642371Y6678746D01*
X4575345Y6650983D01*
X4515022Y6610677D01*
X4504745Y6600400D01*
X4467055Y6625583D01*
X4400029Y6653346D01*
X4328874Y6667500D01*
X4256326Y6667500D01*
X4185171Y6653346D01*
X4118145Y6625583D01*
X4080455Y6600400D01*
X4070178Y6610677D01*
X4009855Y6650983D01*
X3942829Y6678746D01*
X3871674Y6692900D01*
X3799126Y6692900D01*
X3727971Y6678746D01*
X3660945Y6650983D01*
X3600622Y6610677D01*
X3549323Y6559378D01*
X3509017Y6499055D01*
X3481254Y6432029D01*
X3467100Y6360874D01*
X1814736Y6360874D01*
X1799583Y6397455D01*
X1759277Y6457778D01*
X1707978Y6509077D01*
X1647655Y6549383D01*
X1580629Y6577146D01*
X1509474Y6591300D01*
X1436926Y6591300D01*
X1365771Y6577146D01*
X1298745Y6549383D01*
X1238422Y6509077D01*
X1187123Y6457778D01*
X1146817Y6397455D01*
X1136621Y6372840D01*
X1072629Y6399346D01*
X1001474Y6413500D01*
X928926Y6413500D01*
X857771Y6399346D01*
X790745Y6371583D01*
X730422Y6331277D01*
X679123Y6279978D01*
X638817Y6219655D01*
X611054Y6152629D01*
X596900Y6081474D01*
X313500Y6081474D01*
X313500Y7436500D01*
X772786Y7436500D01*
X740417Y7388055D01*
M02*
