G04 #@! TF.GenerationSoftware,KiCad,Pcbnew,(5.1.0)-1*
G04 #@! TF.CreationDate,2019-04-30T21:20:51-07:00*
G04 #@! TF.ProjectId,Miniscope-v4-PYTHON480,4d696e69-7363-46f7-9065-2d76342d5059,rev?*
G04 #@! TF.SameCoordinates,Original*
G04 #@! TF.FileFunction,Copper,L1,Top*
G04 #@! TF.FilePolarity,Positive*
%FSLAX46Y46*%
G04 Gerber Fmt 4.6, Leading zero omitted, Abs format (unit mm)*
G04 Created by KiCad (PCBNEW (5.1.0)-1) date 2019-04-30 21:20:51*
%MOMM*%
%LPD*%
G04 APERTURE LIST*
%ADD10C,0.508000*%
%ADD11R,0.310000X0.340000*%
%ADD12R,0.340000X0.310000*%
%ADD13C,0.100000*%
%ADD14C,0.590000*%
%ADD15R,0.280000X0.520000*%
%ADD16R,0.280000X0.170000*%
%ADD17R,0.810000X0.870000*%
%ADD18R,0.890000X0.920000*%
%ADD19R,0.880000X0.830000*%
%ADD20R,0.990000X0.340000*%
%ADD21C,0.355600*%
%ADD22C,0.127000*%
%ADD23C,0.152400*%
%ADD24C,0.076200*%
%ADD25C,0.304800*%
G04 APERTURE END LIST*
D10*
X43624000Y-31273793D03*
X44233600Y-30791194D03*
X43624000Y-30308594D03*
X44233600Y-29825995D03*
X43624000Y-29343395D03*
X44233600Y-28860796D03*
X43624000Y-28378196D03*
X44233600Y-27895597D03*
X43624000Y-27412997D03*
X44233600Y-26930398D03*
X43624000Y-26447798D03*
X44233600Y-25965199D03*
X43624000Y-25482599D03*
X44233600Y-25000000D03*
D11*
X42738200Y-24991000D03*
X42188200Y-24991000D03*
X35838200Y-29766200D03*
X36388200Y-29766200D03*
X34695200Y-29766200D03*
X35245200Y-29766200D03*
D12*
X37764200Y-25520000D03*
X37764200Y-24970000D03*
D13*
G36*
X39193758Y-24773310D02*
G01*
X39208076Y-24775434D01*
X39222117Y-24778951D01*
X39235746Y-24783828D01*
X39248831Y-24790017D01*
X39261247Y-24797458D01*
X39272873Y-24806081D01*
X39283598Y-24815802D01*
X39293319Y-24826527D01*
X39301942Y-24838153D01*
X39309383Y-24850569D01*
X39315572Y-24863654D01*
X39320449Y-24877283D01*
X39323966Y-24891324D01*
X39326090Y-24905642D01*
X39326800Y-24920100D01*
X39326800Y-25265100D01*
X39326090Y-25279558D01*
X39323966Y-25293876D01*
X39320449Y-25307917D01*
X39315572Y-25321546D01*
X39309383Y-25334631D01*
X39301942Y-25347047D01*
X39293319Y-25358673D01*
X39283598Y-25369398D01*
X39272873Y-25379119D01*
X39261247Y-25387742D01*
X39248831Y-25395183D01*
X39235746Y-25401372D01*
X39222117Y-25406249D01*
X39208076Y-25409766D01*
X39193758Y-25411890D01*
X39179300Y-25412600D01*
X38884300Y-25412600D01*
X38869842Y-25411890D01*
X38855524Y-25409766D01*
X38841483Y-25406249D01*
X38827854Y-25401372D01*
X38814769Y-25395183D01*
X38802353Y-25387742D01*
X38790727Y-25379119D01*
X38780002Y-25369398D01*
X38770281Y-25358673D01*
X38761658Y-25347047D01*
X38754217Y-25334631D01*
X38748028Y-25321546D01*
X38743151Y-25307917D01*
X38739634Y-25293876D01*
X38737510Y-25279558D01*
X38736800Y-25265100D01*
X38736800Y-24920100D01*
X38737510Y-24905642D01*
X38739634Y-24891324D01*
X38743151Y-24877283D01*
X38748028Y-24863654D01*
X38754217Y-24850569D01*
X38761658Y-24838153D01*
X38770281Y-24826527D01*
X38780002Y-24815802D01*
X38790727Y-24806081D01*
X38802353Y-24797458D01*
X38814769Y-24790017D01*
X38827854Y-24783828D01*
X38841483Y-24778951D01*
X38855524Y-24775434D01*
X38869842Y-24773310D01*
X38884300Y-24772600D01*
X39179300Y-24772600D01*
X39193758Y-24773310D01*
X39193758Y-24773310D01*
G37*
D14*
X39031800Y-25092600D03*
D13*
G36*
X40163758Y-24773310D02*
G01*
X40178076Y-24775434D01*
X40192117Y-24778951D01*
X40205746Y-24783828D01*
X40218831Y-24790017D01*
X40231247Y-24797458D01*
X40242873Y-24806081D01*
X40253598Y-24815802D01*
X40263319Y-24826527D01*
X40271942Y-24838153D01*
X40279383Y-24850569D01*
X40285572Y-24863654D01*
X40290449Y-24877283D01*
X40293966Y-24891324D01*
X40296090Y-24905642D01*
X40296800Y-24920100D01*
X40296800Y-25265100D01*
X40296090Y-25279558D01*
X40293966Y-25293876D01*
X40290449Y-25307917D01*
X40285572Y-25321546D01*
X40279383Y-25334631D01*
X40271942Y-25347047D01*
X40263319Y-25358673D01*
X40253598Y-25369398D01*
X40242873Y-25379119D01*
X40231247Y-25387742D01*
X40218831Y-25395183D01*
X40205746Y-25401372D01*
X40192117Y-25406249D01*
X40178076Y-25409766D01*
X40163758Y-25411890D01*
X40149300Y-25412600D01*
X39854300Y-25412600D01*
X39839842Y-25411890D01*
X39825524Y-25409766D01*
X39811483Y-25406249D01*
X39797854Y-25401372D01*
X39784769Y-25395183D01*
X39772353Y-25387742D01*
X39760727Y-25379119D01*
X39750002Y-25369398D01*
X39740281Y-25358673D01*
X39731658Y-25347047D01*
X39724217Y-25334631D01*
X39718028Y-25321546D01*
X39713151Y-25307917D01*
X39709634Y-25293876D01*
X39707510Y-25279558D01*
X39706800Y-25265100D01*
X39706800Y-24920100D01*
X39707510Y-24905642D01*
X39709634Y-24891324D01*
X39713151Y-24877283D01*
X39718028Y-24863654D01*
X39724217Y-24850569D01*
X39731658Y-24838153D01*
X39740281Y-24826527D01*
X39750002Y-24815802D01*
X39760727Y-24806081D01*
X39772353Y-24797458D01*
X39784769Y-24790017D01*
X39797854Y-24783828D01*
X39811483Y-24778951D01*
X39825524Y-24775434D01*
X39839842Y-24773310D01*
X39854300Y-24772600D01*
X40149300Y-24772600D01*
X40163758Y-24773310D01*
X40163758Y-24773310D01*
G37*
D14*
X40001800Y-25092600D03*
D15*
X40868200Y-25092600D03*
D16*
X41518200Y-24917600D03*
X41518200Y-25267600D03*
D12*
X39509000Y-28089400D03*
X39509000Y-27539400D03*
D11*
X38006000Y-31116400D03*
X37456000Y-31116400D03*
D12*
X41490200Y-27463200D03*
X41490200Y-28013200D03*
D11*
X37523400Y-30506800D03*
X36973400Y-30506800D03*
X42002600Y-28576400D03*
X42552600Y-28576400D03*
X41993800Y-30557600D03*
X41443800Y-30557600D03*
D12*
X39509000Y-30562000D03*
X39509000Y-31112000D03*
D11*
X36320800Y-31104400D03*
X36870800Y-31104400D03*
X40952400Y-27585800D03*
X40402400Y-27585800D03*
X42019200Y-31091000D03*
X41469200Y-31091000D03*
D12*
X37992800Y-28111600D03*
X37992800Y-28661600D03*
X37764200Y-26113000D03*
X37764200Y-26663000D03*
X42023600Y-27463200D03*
X42023600Y-28013200D03*
D17*
X41249800Y-26311800D03*
X42609800Y-26311800D03*
D10*
X44033600Y-33000000D03*
X43551001Y-32390400D03*
X43068401Y-33000000D03*
X42585802Y-32390400D03*
X42103202Y-33000000D03*
X41620603Y-32390400D03*
X41138003Y-33000000D03*
X40655404Y-32390400D03*
X40172804Y-33000000D03*
X39690205Y-32390400D03*
X39207605Y-33000000D03*
X38725006Y-32390400D03*
X38242406Y-33000000D03*
X37759807Y-32390400D03*
X37277207Y-33000000D03*
X36794608Y-32390400D03*
X36312008Y-33000000D03*
X35829409Y-32390400D03*
X35346809Y-33000000D03*
X34864210Y-32390400D03*
D18*
X41188600Y-29436000D03*
X42518600Y-29436000D03*
X38750200Y-26337200D03*
X40080200Y-26337200D03*
D19*
X34939600Y-28835200D03*
X36829600Y-28835200D03*
X36829600Y-27395200D03*
X34939600Y-27395200D03*
D20*
X36820000Y-26276000D03*
X36820000Y-25626000D03*
X36820000Y-24976000D03*
X35000000Y-24976000D03*
X35000000Y-26276000D03*
D21*
X43657000Y-31264800D03*
X44038000Y-33017400D03*
X34843200Y-32382400D03*
X34767000Y-25651400D03*
X36824400Y-25626000D03*
X35976400Y-29096000D03*
X42564800Y-26311800D03*
X37816499Y-29733600D03*
X37992800Y-28661600D03*
X38983400Y-27175400D03*
X40228000Y-27099200D03*
X42539400Y-28064400D03*
X42514000Y-31087000D03*
X37484797Y-31595003D03*
X36087800Y-31595000D03*
X42691796Y-30579000D03*
X39288200Y-31722000D03*
X35706800Y-27277000D03*
X35706800Y-27937400D03*
X38805600Y-26388000D03*
X35910000Y-25549806D03*
X35300400Y-26286400D03*
X44241200Y-25016400D03*
X35833800Y-32407811D03*
X34919400Y-31468000D03*
X36570374Y-31595000D03*
X41091600Y-29436000D03*
X39691490Y-29690000D03*
X35046400Y-30782200D03*
X44215800Y-30807600D03*
X43555400Y-32382400D03*
X36824400Y-26286400D03*
X40990000Y-27099200D03*
X42065663Y-31611537D03*
X37002187Y-31595000D03*
X44241200Y-25956200D03*
X35351200Y-32992000D03*
X37764200Y-25524400D03*
X36494200Y-30502800D03*
X41752000Y-27022994D03*
X42488600Y-29055000D03*
X38729400Y-28445400D03*
X35198800Y-27454800D03*
X36392600Y-29766200D03*
X40964600Y-28521600D03*
X40080200Y-26337200D03*
X43631600Y-30299600D03*
X37983201Y-31620400D03*
X37764200Y-32407810D03*
X39694600Y-32407810D03*
X41142400Y-32992000D03*
X42590200Y-32407800D03*
X44215800Y-28877200D03*
X38881800Y-29410600D03*
X37281600Y-32992000D03*
X39212000Y-32992000D03*
X40659800Y-32407810D03*
X43072800Y-33017400D03*
X43606200Y-27404000D03*
X36087800Y-30299600D03*
X44241200Y-27912000D03*
X38018200Y-29207400D03*
X43606200Y-28369200D03*
X38424600Y-29486800D03*
X38246800Y-32992000D03*
X39237400Y-29715400D03*
X38729400Y-32407810D03*
X40088478Y-29376516D03*
X41625000Y-32407810D03*
X40431200Y-29664606D03*
X44241200Y-26946800D03*
X38069000Y-27175400D03*
X43606200Y-26464200D03*
X38526200Y-27200800D03*
X44241200Y-29817000D03*
X36799000Y-32382400D03*
X43606200Y-29334400D03*
X36316400Y-32992000D03*
D22*
X42412400Y-26311800D02*
X42564800Y-26311800D01*
X41393600Y-24917600D02*
X41175256Y-25135944D01*
X41518200Y-24917600D02*
X41393600Y-24917600D01*
X41175256Y-25135944D02*
X41175256Y-25401118D01*
X41175256Y-25401118D02*
X41374738Y-25600600D01*
X41374738Y-25600600D02*
X41701200Y-25600600D01*
X41701200Y-25600600D02*
X42412400Y-26311800D01*
D23*
X35838200Y-29443800D02*
X35838200Y-29766200D01*
X35838200Y-29234200D02*
X35838200Y-29443800D01*
X36237200Y-28835200D02*
X35976400Y-29096000D01*
X36829600Y-28835200D02*
X36237200Y-28835200D01*
X35976400Y-29096000D02*
X35838200Y-29234200D01*
D22*
X42564800Y-26311800D02*
X42609800Y-26311800D01*
D24*
X37523400Y-30026699D02*
X37816499Y-29733600D01*
X37523400Y-30506800D02*
X37523400Y-30026699D01*
X39494000Y-28089400D02*
X39509000Y-28089400D01*
X38983400Y-27578800D02*
X39494000Y-28089400D01*
X38983400Y-27175400D02*
X38983400Y-27578800D01*
X42488200Y-28013200D02*
X42539400Y-28064400D01*
X41490200Y-28013200D02*
X42488200Y-28013200D01*
X42552600Y-28077600D02*
X42539400Y-28064400D01*
X42552600Y-28576400D02*
X42552600Y-28077600D01*
X42023200Y-31087000D02*
X42019200Y-31091000D01*
X42514000Y-31087000D02*
X42023200Y-31087000D01*
X38006000Y-31116400D02*
X38006000Y-31131400D01*
X37542397Y-31595003D02*
X37484797Y-31595003D01*
X38006000Y-31131400D02*
X37542397Y-31595003D01*
X36320800Y-31104400D02*
X36320800Y-31362000D01*
X36320800Y-31362000D02*
X36087800Y-31595000D01*
X41989804Y-30553600D02*
X42666400Y-30553600D01*
X42670396Y-30557600D02*
X42691796Y-30579000D01*
D23*
X39509000Y-31112000D02*
X39509000Y-31501200D01*
X39509000Y-31501200D02*
X39288200Y-31722000D01*
X37641600Y-26113000D02*
X37764200Y-26113000D01*
X36820000Y-25626000D02*
X37154600Y-25626000D01*
X37154600Y-25626000D02*
X37641600Y-26113000D01*
D24*
X40402400Y-27273600D02*
X40228000Y-27099200D01*
X40402400Y-27585800D02*
X40402400Y-27273600D01*
D23*
X35325000Y-24976000D02*
X35910000Y-25561000D01*
X36820000Y-24976000D02*
X36495000Y-24976000D01*
X35000000Y-24976000D02*
X35325000Y-24976000D01*
X35910000Y-25561000D02*
X35910000Y-25549806D01*
X36495000Y-24976000D02*
X35910000Y-25561000D01*
D24*
X40990000Y-29359800D02*
X41091600Y-29436000D01*
X36570374Y-31419826D02*
X36570374Y-31595000D01*
X36870800Y-31119400D02*
X36570374Y-31419826D01*
X36870800Y-31104400D02*
X36870800Y-31119400D01*
X41443800Y-29460200D02*
X41468000Y-29436000D01*
X41443800Y-30557600D02*
X41443800Y-29460200D01*
X39509000Y-29872490D02*
X39513691Y-29867799D01*
X39513691Y-29867799D02*
X39691490Y-29690000D01*
X39509000Y-30562000D02*
X39509000Y-29872490D01*
D25*
X40532800Y-28902600D02*
X39960918Y-28902600D01*
X39682076Y-29680586D02*
X39691490Y-29690000D01*
X40990000Y-29359800D02*
X40532800Y-28902600D01*
X39960918Y-28902600D02*
X39682076Y-29181442D01*
X39682076Y-29181442D02*
X39682076Y-29680586D01*
D23*
X37207000Y-26663000D02*
X36820000Y-26276000D01*
X37764200Y-26663000D02*
X37207000Y-26663000D01*
D24*
X41469200Y-31106000D02*
X41469200Y-31091000D01*
X41796938Y-31433738D02*
X41469200Y-31106000D01*
X41887864Y-31433738D02*
X41796938Y-31433738D01*
X42065663Y-31611537D02*
X41887864Y-31433738D01*
X37002187Y-31585213D02*
X37002187Y-31595000D01*
X37456000Y-31131400D02*
X37002187Y-31585213D01*
X37456000Y-31116400D02*
X37456000Y-31131400D01*
X40952400Y-27136800D02*
X40990000Y-27099200D01*
X40952400Y-27585800D02*
X40952400Y-27136800D01*
X36969400Y-30502800D02*
X36973400Y-30506800D01*
X36494200Y-30502800D02*
X36969400Y-30502800D01*
X42023600Y-27294594D02*
X41752000Y-27022994D01*
X42023600Y-27463200D02*
X42023600Y-27294594D01*
X41490200Y-27284794D02*
X41752000Y-27022994D01*
X41490200Y-27463200D02*
X41490200Y-27284794D01*
X42002600Y-28576400D02*
X42010000Y-28576400D01*
X42010000Y-28576400D02*
X42488600Y-29055000D01*
X38323000Y-28445400D02*
X38729400Y-28445400D01*
X37992800Y-28111600D02*
X38323000Y-28441800D01*
X38323000Y-28441800D02*
X38323000Y-28445400D01*
X36316401Y-30680599D02*
X36494200Y-30502800D01*
X35594599Y-30680599D02*
X36316401Y-30680599D01*
X34695200Y-29781200D02*
X35594599Y-30680599D01*
X34695200Y-29766200D02*
X34695200Y-29781200D01*
D23*
X35245200Y-29140800D02*
X34939600Y-28835200D01*
X35245200Y-29766200D02*
X35245200Y-29140800D01*
X40919925Y-28476925D02*
X40964600Y-28521600D01*
X39268925Y-28476925D02*
X40919925Y-28476925D01*
X38475400Y-27683400D02*
X39268925Y-28476925D01*
X36829600Y-27395200D02*
X37117800Y-27683400D01*
X37117800Y-27683400D02*
X38475400Y-27683400D01*
X41224400Y-26337200D02*
X41249800Y-26311800D01*
X40080200Y-26337200D02*
X40080200Y-26337200D01*
X40080200Y-26337200D02*
X41224400Y-26337200D01*
D24*
X39509000Y-26954600D02*
X39509000Y-27539400D01*
X40080200Y-26337200D02*
X40080200Y-26383400D01*
X40080200Y-26383400D02*
X39509000Y-26954600D01*
D23*
X40001800Y-25092600D02*
X40868200Y-25092600D01*
X41911600Y-25267600D02*
X42188200Y-24991000D01*
X41518200Y-25267600D02*
X41911600Y-25267600D01*
D24*
X38242406Y-32307406D02*
X38242406Y-33000000D01*
X38527713Y-32022099D02*
X38242406Y-32307406D01*
X38533061Y-32022099D02*
X38527713Y-32022099D01*
X38533061Y-30671186D02*
X38533061Y-32022099D01*
X39237400Y-29715400D02*
X39237400Y-29966847D01*
X39237400Y-29966847D02*
X38533061Y-30671186D01*
X40088478Y-32928678D02*
X40088478Y-29627963D01*
X40088478Y-29627963D02*
X40088478Y-29376516D01*
X40177200Y-33017400D02*
X40088478Y-32928678D01*
X42103202Y-32327913D02*
X40431200Y-30655911D01*
X42103202Y-33000000D02*
X42103202Y-32327913D01*
X40431200Y-29916053D02*
X40431200Y-29664606D01*
X40431200Y-30655911D02*
X40431200Y-29916053D01*
D23*
X38909200Y-24970000D02*
X39031800Y-25092600D01*
X37764200Y-24970000D02*
X38909200Y-24970000D01*
X43132401Y-24991000D02*
X43624000Y-25482599D01*
X42738200Y-24991000D02*
X43132401Y-24991000D01*
M02*
