G04 #@! TF.GenerationSoftware,KiCad,Pcbnew,(5.1.0)-1*
G04 #@! TF.CreationDate,2019-05-02T19:51:03-07:00*
G04 #@! TF.ProjectId,Miniscope-v4-PYTHON480,4d696e69-7363-46f7-9065-2d76342d5059,rev?*
G04 #@! TF.SameCoordinates,PX20a5d00PY1ff2b60*
G04 #@! TF.FileFunction,Legend,Top*
G04 #@! TF.FilePolarity,Positive*
%FSLAX46Y46*%
G04 Gerber Fmt 4.6, Leading zero omitted, Abs format (unit mm)*
G04 Created by KiCad (PCBNEW (5.1.0)-1) date 2019-05-02 19:51:03*
%MOMM*%
%LPD*%
G04 APERTURE LIST*
%ADD10C,0.100000*%
%ADD11C,0.120000*%
%ADD12C,0.150000*%
%ADD13C,0.050000*%
%ADD14C,0.160000*%
%ADD15C,0.090000*%
G04 APERTURE END LIST*
D10*
X6423200Y8407400D02*
G75*
G03X6423200Y8407400I-50000J0D01*
G01*
D11*
X6309600Y8847400D02*
X7609600Y8847400D01*
X6309600Y7967400D02*
X6309600Y8847400D01*
X7609600Y7967400D02*
X6309600Y7967400D01*
X7609600Y8847400D02*
X7609600Y7967400D01*
D10*
X7571200Y7668200D02*
X7821200Y7668200D01*
X7571200Y6708200D02*
X7821200Y6708200D01*
X321000Y5229800D02*
X321000Y5539800D01*
X2981000Y5229800D02*
X2981000Y5539800D01*
X1296000Y4304800D02*
X2006000Y4304800D01*
X2006000Y6464800D02*
X1296000Y6464800D01*
D12*
X376000Y5384800D02*
X1651000Y5384800D01*
X1651000Y5384800D02*
X1651000Y4334800D01*
D10*
X2376400Y8844000D02*
X2376400Y8954000D01*
X2376400Y8954000D02*
X976400Y8954000D01*
X976400Y8954000D02*
X976400Y8844000D01*
X2376400Y6904000D02*
X2376400Y6794000D01*
X2376400Y6794000D02*
X976400Y6794000D01*
X976400Y6794000D02*
X976400Y6904000D01*
D12*
X7202380Y7916667D02*
X7916666Y7916667D01*
X8059523Y7869048D01*
X8154761Y7773810D01*
X8202380Y7630953D01*
X8202380Y7535715D01*
X7297619Y8345239D02*
X7250000Y8392858D01*
X7202380Y8488096D01*
X7202380Y8726191D01*
X7250000Y8821429D01*
X7297619Y8869048D01*
X7392857Y8916667D01*
X7488095Y8916667D01*
X7630952Y8869048D01*
X8202380Y8297620D01*
X8202380Y8916667D01*
D13*
X8146266Y8282810D02*
X7979600Y8520905D01*
X7860552Y8282810D02*
X7860552Y8782810D01*
X8051028Y8782810D01*
X8098647Y8759000D01*
X8122457Y8735191D01*
X8146266Y8687572D01*
X8146266Y8616143D01*
X8122457Y8568524D01*
X8098647Y8544715D01*
X8051028Y8520905D01*
X7860552Y8520905D01*
X8574838Y8616143D02*
X8574838Y8282810D01*
X8455790Y8806620D02*
X8336742Y8449477D01*
X8646266Y8449477D01*
X1796266Y3507610D02*
X1629600Y3745705D01*
X1510552Y3507610D02*
X1510552Y4007610D01*
X1701028Y4007610D01*
X1748647Y3983800D01*
X1772457Y3959991D01*
X1796266Y3912372D01*
X1796266Y3840943D01*
X1772457Y3793324D01*
X1748647Y3769515D01*
X1701028Y3745705D01*
X1510552Y3745705D01*
X1962933Y4007610D02*
X2272457Y4007610D01*
X2105790Y3817134D01*
X2177219Y3817134D01*
X2224838Y3793324D01*
X2248647Y3769515D01*
X2272457Y3721896D01*
X2272457Y3602848D01*
X2248647Y3555229D01*
X2224838Y3531420D01*
X2177219Y3507610D01*
X2034361Y3507610D01*
X1986742Y3531420D01*
X1962933Y3555229D01*
X653266Y3507610D02*
X486600Y3745705D01*
X367552Y3507610D02*
X367552Y4007610D01*
X558028Y4007610D01*
X605647Y3983800D01*
X629457Y3959991D01*
X653266Y3912372D01*
X653266Y3840943D01*
X629457Y3793324D01*
X605647Y3769515D01*
X558028Y3745705D01*
X367552Y3745705D01*
X843742Y3959991D02*
X867552Y3983800D01*
X915171Y4007610D01*
X1034219Y4007610D01*
X1081838Y3983800D01*
X1105647Y3959991D01*
X1129457Y3912372D01*
X1129457Y3864753D01*
X1105647Y3793324D01*
X819933Y3507610D01*
X1129457Y3507610D01*
X3756790Y8414467D02*
X3518695Y8247800D01*
X3756790Y8128753D02*
X3256790Y8128753D01*
X3256790Y8319229D01*
X3280600Y8366848D01*
X3304409Y8390658D01*
X3352028Y8414467D01*
X3423457Y8414467D01*
X3471076Y8390658D01*
X3494885Y8366848D01*
X3518695Y8319229D01*
X3518695Y8128753D01*
X3756790Y8890658D02*
X3756790Y8604943D01*
X3756790Y8747800D02*
X3256790Y8747800D01*
X3328219Y8700181D01*
X3375838Y8652562D01*
X3399647Y8604943D01*
D12*
X4545104Y6785020D02*
X4545104Y7785020D01*
X4783200Y7785020D01*
X4926057Y7737400D01*
X5021295Y7642162D01*
X5068914Y7546924D01*
X5116533Y7356448D01*
X5116533Y7213591D01*
X5068914Y7023115D01*
X5021295Y6927877D01*
X4926057Y6832639D01*
X4783200Y6785020D01*
X4545104Y6785020D01*
X6068914Y6785020D02*
X5497485Y6785020D01*
X5783200Y6785020D02*
X5783200Y7785020D01*
X5687961Y7642162D01*
X5592723Y7546924D01*
X5497485Y7499305D01*
D11*
X6170314Y6275258D02*
X6056028Y6332400D01*
X5941742Y6446686D01*
X5770314Y6618115D01*
X5656028Y6675258D01*
X5541742Y6675258D01*
X5598885Y6389543D02*
X5484600Y6446686D01*
X5370314Y6560972D01*
X5313171Y6789543D01*
X5313171Y7189543D01*
X5370314Y7418115D01*
X5484600Y7532400D01*
X5598885Y7589543D01*
X5827457Y7589543D01*
X5941742Y7532400D01*
X6056028Y7418115D01*
X6113171Y7189543D01*
X6113171Y6789543D01*
X6056028Y6560972D01*
X5941742Y6446686D01*
X5827457Y6389543D01*
X5598885Y6389543D01*
X7256028Y6389543D02*
X6570314Y6389543D01*
X6913171Y6389543D02*
X6913171Y7589543D01*
X6798885Y7418115D01*
X6684600Y7303829D01*
X6570314Y7246686D01*
D13*
X5453971Y5364172D02*
X5477780Y5340362D01*
X5501590Y5268934D01*
X5501590Y5221315D01*
X5477780Y5149886D01*
X5430161Y5102267D01*
X5382542Y5078458D01*
X5287304Y5054648D01*
X5215876Y5054648D01*
X5120638Y5078458D01*
X5073019Y5102267D01*
X5025400Y5149886D01*
X5001590Y5221315D01*
X5001590Y5268934D01*
X5025400Y5340362D01*
X5049209Y5364172D01*
X5501590Y5840362D02*
X5501590Y5554648D01*
X5501590Y5697505D02*
X5001590Y5697505D01*
X5073019Y5649886D01*
X5120638Y5602267D01*
X5144447Y5554648D01*
X5501590Y6078458D02*
X5501590Y6173696D01*
X5477780Y6221315D01*
X5453971Y6245124D01*
X5382542Y6292743D01*
X5287304Y6316553D01*
X5096828Y6316553D01*
X5049209Y6292743D01*
X5025400Y6268934D01*
X5001590Y6221315D01*
X5001590Y6126077D01*
X5025400Y6078458D01*
X5049209Y6054648D01*
X5096828Y6030839D01*
X5215876Y6030839D01*
X5263495Y6054648D01*
X5287304Y6078458D01*
X5311114Y6126077D01*
X5311114Y6221315D01*
X5287304Y6268934D01*
X5263495Y6292743D01*
X5215876Y6316553D01*
X3175971Y2205029D02*
X3152161Y2181220D01*
X3080733Y2157410D01*
X3033114Y2157410D01*
X2961685Y2181220D01*
X2914066Y2228839D01*
X2890257Y2276458D01*
X2866447Y2371696D01*
X2866447Y2443124D01*
X2890257Y2538362D01*
X2914066Y2585981D01*
X2961685Y2633600D01*
X3033114Y2657410D01*
X3080733Y2657410D01*
X3152161Y2633600D01*
X3175971Y2609791D01*
X3652161Y2157410D02*
X3366447Y2157410D01*
X3509304Y2157410D02*
X3509304Y2657410D01*
X3461685Y2585981D01*
X3414066Y2538362D01*
X3366447Y2514553D01*
X3818828Y2657410D02*
X4128352Y2657410D01*
X3961685Y2466934D01*
X4033114Y2466934D01*
X4080733Y2443124D01*
X4104542Y2419315D01*
X4128352Y2371696D01*
X4128352Y2252648D01*
X4104542Y2205029D01*
X4080733Y2181220D01*
X4033114Y2157410D01*
X3890257Y2157410D01*
X3842638Y2181220D01*
X3818828Y2205029D01*
X7366771Y5678467D02*
X7390580Y5654658D01*
X7414390Y5583229D01*
X7414390Y5535610D01*
X7390580Y5464181D01*
X7342961Y5416562D01*
X7295342Y5392753D01*
X7200104Y5368943D01*
X7128676Y5368943D01*
X7033438Y5392753D01*
X6985819Y5416562D01*
X6938200Y5464181D01*
X6914390Y5535610D01*
X6914390Y5583229D01*
X6938200Y5654658D01*
X6962009Y5678467D01*
X6962009Y5868943D02*
X6938200Y5892753D01*
X6914390Y5940372D01*
X6914390Y6059420D01*
X6938200Y6107039D01*
X6962009Y6130848D01*
X7009628Y6154658D01*
X7057247Y6154658D01*
X7128676Y6130848D01*
X7414390Y5845134D01*
X7414390Y6154658D01*
X2931466Y2814629D02*
X2907657Y2790820D01*
X2836228Y2767010D01*
X2788609Y2767010D01*
X2717180Y2790820D01*
X2669561Y2838439D01*
X2645752Y2886058D01*
X2621942Y2981296D01*
X2621942Y3052724D01*
X2645752Y3147962D01*
X2669561Y3195581D01*
X2717180Y3243200D01*
X2788609Y3267010D01*
X2836228Y3267010D01*
X2907657Y3243200D01*
X2931466Y3219391D01*
X3098133Y3267010D02*
X3407657Y3267010D01*
X3240990Y3076534D01*
X3312419Y3076534D01*
X3360038Y3052724D01*
X3383847Y3028915D01*
X3407657Y2981296D01*
X3407657Y2862248D01*
X3383847Y2814629D01*
X3360038Y2790820D01*
X3312419Y2767010D01*
X3169561Y2767010D01*
X3121942Y2790820D01*
X3098133Y2814629D01*
X7960666Y4723629D02*
X7936857Y4699820D01*
X7865428Y4676010D01*
X7817809Y4676010D01*
X7746380Y4699820D01*
X7698761Y4747439D01*
X7674952Y4795058D01*
X7651142Y4890296D01*
X7651142Y4961724D01*
X7674952Y5056962D01*
X7698761Y5104581D01*
X7746380Y5152200D01*
X7817809Y5176010D01*
X7865428Y5176010D01*
X7936857Y5152200D01*
X7960666Y5128391D01*
X8389238Y5009343D02*
X8389238Y4676010D01*
X8270190Y5199820D02*
X8151142Y4842677D01*
X8460666Y4842677D01*
X7435066Y2844029D02*
X7411257Y2820220D01*
X7339828Y2796410D01*
X7292209Y2796410D01*
X7220780Y2820220D01*
X7173161Y2867839D01*
X7149352Y2915458D01*
X7125542Y3010696D01*
X7125542Y3082124D01*
X7149352Y3177362D01*
X7173161Y3224981D01*
X7220780Y3272600D01*
X7292209Y3296410D01*
X7339828Y3296410D01*
X7411257Y3272600D01*
X7435066Y3248791D01*
X7601733Y3296410D02*
X7935066Y3296410D01*
X7720780Y2796410D01*
X5453971Y2579667D02*
X5477780Y2555858D01*
X5501590Y2484429D01*
X5501590Y2436810D01*
X5477780Y2365381D01*
X5430161Y2317762D01*
X5382542Y2293953D01*
X5287304Y2270143D01*
X5215876Y2270143D01*
X5120638Y2293953D01*
X5073019Y2317762D01*
X5025400Y2365381D01*
X5001590Y2436810D01*
X5001590Y2484429D01*
X5025400Y2555858D01*
X5049209Y2579667D01*
X5215876Y2865381D02*
X5192066Y2817762D01*
X5168257Y2793953D01*
X5120638Y2770143D01*
X5096828Y2770143D01*
X5049209Y2793953D01*
X5025400Y2817762D01*
X5001590Y2865381D01*
X5001590Y2960620D01*
X5025400Y3008239D01*
X5049209Y3032048D01*
X5096828Y3055858D01*
X5120638Y3055858D01*
X5168257Y3032048D01*
X5192066Y3008239D01*
X5215876Y2960620D01*
X5215876Y2865381D01*
X5239685Y2817762D01*
X5263495Y2793953D01*
X5311114Y2770143D01*
X5406352Y2770143D01*
X5453971Y2793953D01*
X5477780Y2817762D01*
X5501590Y2865381D01*
X5501590Y2960620D01*
X5477780Y3008239D01*
X5453971Y3032048D01*
X5406352Y3055858D01*
X5311114Y3055858D01*
X5263495Y3032048D01*
X5239685Y3008239D01*
X5215876Y2960620D01*
X2278866Y2217029D02*
X2255057Y2193220D01*
X2183628Y2169410D01*
X2136009Y2169410D01*
X2064580Y2193220D01*
X2016961Y2240839D01*
X1993152Y2288458D01*
X1969342Y2383696D01*
X1969342Y2455124D01*
X1993152Y2550362D01*
X2016961Y2597981D01*
X2064580Y2645600D01*
X2136009Y2669410D01*
X2183628Y2669410D01*
X2255057Y2645600D01*
X2278866Y2621791D01*
X2516961Y2169410D02*
X2612200Y2169410D01*
X2659819Y2193220D01*
X2683628Y2217029D01*
X2731247Y2288458D01*
X2755057Y2383696D01*
X2755057Y2574172D01*
X2731247Y2621791D01*
X2707438Y2645600D01*
X2659819Y2669410D01*
X2564580Y2669410D01*
X2516961Y2645600D01*
X2493152Y2621791D01*
X2469342Y2574172D01*
X2469342Y2455124D01*
X2493152Y2407505D01*
X2516961Y2383696D01*
X2564580Y2359886D01*
X2659819Y2359886D01*
X2707438Y2383696D01*
X2731247Y2407505D01*
X2755057Y2455124D01*
X5977771Y5714229D02*
X5953961Y5690420D01*
X5882533Y5666610D01*
X5834914Y5666610D01*
X5763485Y5690420D01*
X5715866Y5738039D01*
X5692057Y5785658D01*
X5668247Y5880896D01*
X5668247Y5952324D01*
X5692057Y6047562D01*
X5715866Y6095181D01*
X5763485Y6142800D01*
X5834914Y6166610D01*
X5882533Y6166610D01*
X5953961Y6142800D01*
X5977771Y6118991D01*
X6453961Y5666610D02*
X6168247Y5666610D01*
X6311104Y5666610D02*
X6311104Y6166610D01*
X6263485Y6095181D01*
X6215866Y6047562D01*
X6168247Y6023753D01*
X6930152Y5666610D02*
X6644438Y5666610D01*
X6787295Y5666610D02*
X6787295Y6166610D01*
X6739676Y6095181D01*
X6692057Y6047562D01*
X6644438Y6023753D01*
X7189171Y2230429D02*
X7165361Y2206620D01*
X7093933Y2182810D01*
X7046314Y2182810D01*
X6974885Y2206620D01*
X6927266Y2254239D01*
X6903457Y2301858D01*
X6879647Y2397096D01*
X6879647Y2468524D01*
X6903457Y2563762D01*
X6927266Y2611381D01*
X6974885Y2659000D01*
X7046314Y2682810D01*
X7093933Y2682810D01*
X7165361Y2659000D01*
X7189171Y2635191D01*
X7665361Y2182810D02*
X7379647Y2182810D01*
X7522504Y2182810D02*
X7522504Y2682810D01*
X7474885Y2611381D01*
X7427266Y2563762D01*
X7379647Y2539953D01*
X7855838Y2635191D02*
X7879647Y2659000D01*
X7927266Y2682810D01*
X8046314Y2682810D01*
X8093933Y2659000D01*
X8117742Y2635191D01*
X8141552Y2587572D01*
X8141552Y2539953D01*
X8117742Y2468524D01*
X7832028Y2182810D01*
X8141552Y2182810D01*
X3937771Y5030067D02*
X3961580Y5006258D01*
X3985390Y4934829D01*
X3985390Y4887210D01*
X3961580Y4815781D01*
X3913961Y4768162D01*
X3866342Y4744353D01*
X3771104Y4720543D01*
X3699676Y4720543D01*
X3604438Y4744353D01*
X3556819Y4768162D01*
X3509200Y4815781D01*
X3485390Y4887210D01*
X3485390Y4934829D01*
X3509200Y5006258D01*
X3533009Y5030067D01*
X3985390Y5506258D02*
X3985390Y5220543D01*
X3985390Y5363400D02*
X3485390Y5363400D01*
X3556819Y5315781D01*
X3604438Y5268162D01*
X3628247Y5220543D01*
X4409171Y6990572D02*
X4432980Y6966762D01*
X4456790Y6895334D01*
X4456790Y6847715D01*
X4432980Y6776286D01*
X4385361Y6728667D01*
X4337742Y6704858D01*
X4242504Y6681048D01*
X4171076Y6681048D01*
X4075838Y6704858D01*
X4028219Y6728667D01*
X3980600Y6776286D01*
X3956790Y6847715D01*
X3956790Y6895334D01*
X3980600Y6966762D01*
X4004409Y6990572D01*
X4456790Y7466762D02*
X4456790Y7181048D01*
X4456790Y7323905D02*
X3956790Y7323905D01*
X4028219Y7276286D01*
X4075838Y7228667D01*
X4099647Y7181048D01*
X3956790Y7895334D02*
X3956790Y7800096D01*
X3980600Y7752477D01*
X4004409Y7728667D01*
X4075838Y7681048D01*
X4171076Y7657239D01*
X4361552Y7657239D01*
X4409171Y7681048D01*
X4432980Y7704858D01*
X4456790Y7752477D01*
X4456790Y7847715D01*
X4432980Y7895334D01*
X4409171Y7919143D01*
X4361552Y7942953D01*
X4242504Y7942953D01*
X4194885Y7919143D01*
X4171076Y7895334D01*
X4147266Y7847715D01*
X4147266Y7752477D01*
X4171076Y7704858D01*
X4194885Y7681048D01*
X4242504Y7657239D01*
X7968571Y5678467D02*
X7992380Y5654658D01*
X8016190Y5583229D01*
X8016190Y5535610D01*
X7992380Y5464181D01*
X7944761Y5416562D01*
X7897142Y5392753D01*
X7801904Y5368943D01*
X7730476Y5368943D01*
X7635238Y5392753D01*
X7587619Y5416562D01*
X7540000Y5464181D01*
X7516190Y5535610D01*
X7516190Y5583229D01*
X7540000Y5654658D01*
X7563809Y5678467D01*
X7516190Y6130848D02*
X7516190Y5892753D01*
X7754285Y5868943D01*
X7730476Y5892753D01*
X7706666Y5940372D01*
X7706666Y6059420D01*
X7730476Y6107039D01*
X7754285Y6130848D01*
X7801904Y6154658D01*
X7920952Y6154658D01*
X7968571Y6130848D01*
X7992380Y6107039D01*
X8016190Y6059420D01*
X8016190Y5940372D01*
X7992380Y5892753D01*
X7968571Y5868943D01*
X7474771Y7959629D02*
X7450961Y7935820D01*
X7379533Y7912010D01*
X7331914Y7912010D01*
X7260485Y7935820D01*
X7212866Y7983439D01*
X7189057Y8031058D01*
X7165247Y8126296D01*
X7165247Y8197724D01*
X7189057Y8292962D01*
X7212866Y8340581D01*
X7260485Y8388200D01*
X7331914Y8412010D01*
X7379533Y8412010D01*
X7450961Y8388200D01*
X7474771Y8364391D01*
X7950961Y7912010D02*
X7665247Y7912010D01*
X7808104Y7912010D02*
X7808104Y8412010D01*
X7760485Y8340581D01*
X7712866Y8292962D01*
X7665247Y8269153D01*
X8117628Y8412010D02*
X8450961Y8412010D01*
X8236676Y7912010D01*
D12*
X11452266Y1335020D02*
X11452266Y620734D01*
X11404647Y477877D01*
X11309409Y382639D01*
X11166552Y335020D01*
X11071314Y335020D01*
X12452266Y335020D02*
X11880838Y335020D01*
X12166552Y335020D02*
X12166552Y1335020D01*
X12071314Y1192162D01*
X11976076Y1096924D01*
X11880838Y1049305D01*
D13*
X7533333Y3777962D02*
X7285714Y3777962D01*
X7285714Y4297962D01*
X7979047Y3777962D02*
X7681904Y3777962D01*
X7830476Y3777962D02*
X7830476Y4297962D01*
X7780952Y4223677D01*
X7731428Y4174153D01*
X7681904Y4149391D01*
X4794933Y8227562D02*
X4547314Y8227562D01*
X4547314Y8747562D01*
X4943504Y8698039D02*
X4968266Y8722800D01*
X5017790Y8747562D01*
X5141600Y8747562D01*
X5191123Y8722800D01*
X5215885Y8698039D01*
X5240647Y8648515D01*
X5240647Y8598991D01*
X5215885Y8524705D01*
X4918742Y8227562D01*
X5240647Y8227562D01*
D14*
X1104809Y8569562D02*
X1104809Y7298610D01*
X1179571Y7149086D01*
X1254333Y7074324D01*
X1403857Y6999562D01*
X1702904Y6999562D01*
X1852428Y7074324D01*
X1927190Y7149086D01*
X2001952Y7298610D01*
X2001952Y8569562D01*
X2600047Y8569562D02*
X3571952Y8569562D01*
X3048619Y7971467D01*
X3272904Y7971467D01*
X3422428Y7896705D01*
X3497190Y7821943D01*
X3571952Y7672420D01*
X3571952Y7298610D01*
X3497190Y7149086D01*
X3422428Y7074324D01*
X3272904Y6999562D01*
X2824333Y6999562D01*
X2674809Y7074324D01*
X2600047Y7149086D01*
D15*
X1272590Y9373048D02*
X2017352Y9373048D01*
X2104971Y9416858D01*
X2148780Y9460667D01*
X2192590Y9548286D01*
X2192590Y9723524D01*
X2148780Y9811143D01*
X2104971Y9854953D01*
X2017352Y9898762D01*
X1272590Y9898762D01*
X2192590Y10818762D02*
X2192590Y10293048D01*
X2192590Y10555905D02*
X1272590Y10555905D01*
X1404019Y10468286D01*
X1491638Y10380667D01*
X1535447Y10293048D01*
M02*
