G04 #@! TF.GenerationSoftware,KiCad,Pcbnew,(5.1.0)-1*
G04 #@! TF.CreationDate,2019-04-30T21:20:52-07:00*
G04 #@! TF.ProjectId,Miniscope-v4-PYTHON480,4d696e69-7363-46f7-9065-2d76342d5059,rev?*
G04 #@! TF.SameCoordinates,Original*
G04 #@! TF.FileFunction,Paste,Bot*
G04 #@! TF.FilePolarity,Positive*
%FSLAX46Y46*%
G04 Gerber Fmt 4.6, Leading zero omitted, Abs format (unit mm)*
G04 Created by KiCad (PCBNEW (5.1.0)-1) date 2019-04-30 21:20:52*
%MOMM*%
%LPD*%
G04 APERTURE LIST*
%ADD10C,0.250000*%
%ADD11R,0.340000X0.310000*%
%ADD12R,0.630000X0.580000*%
G04 APERTURE END LIST*
D10*
X36983600Y-31088400D03*
X37483600Y-31088400D03*
X37983600Y-31088400D03*
X38483600Y-31088400D03*
X38983600Y-31088400D03*
X39483600Y-31088400D03*
X39983600Y-31088400D03*
X40483600Y-31088400D03*
X40983600Y-31088400D03*
X41483600Y-31088400D03*
X41983600Y-31088400D03*
X36983600Y-30588400D03*
X37483600Y-30588400D03*
X37983600Y-30588400D03*
X38483600Y-30588400D03*
X38983600Y-30588400D03*
X39483600Y-30588400D03*
X39983600Y-30588400D03*
X40483600Y-30588400D03*
X40983600Y-30588400D03*
X41483600Y-30588400D03*
X41983600Y-30588400D03*
X36983600Y-30088400D03*
X37483600Y-30088400D03*
X37983600Y-30088400D03*
X38483600Y-30088400D03*
X38983600Y-30088400D03*
X39483600Y-30088400D03*
X39983600Y-30088400D03*
X40483600Y-30088400D03*
X40983600Y-30088400D03*
X41483600Y-30088400D03*
X41983600Y-30088400D03*
X36983600Y-29588400D03*
X37483600Y-29588400D03*
X41483600Y-29588400D03*
X41983600Y-29588400D03*
X36983600Y-29088400D03*
X37483600Y-29088400D03*
X41483600Y-29088400D03*
X41983600Y-29088400D03*
X36983600Y-28588400D03*
X37483600Y-28588400D03*
X41483600Y-28588400D03*
X41983600Y-28588400D03*
X36983600Y-28088400D03*
X37483600Y-28088400D03*
X37983600Y-28088400D03*
X38483600Y-28088400D03*
X38983600Y-28088400D03*
X39483600Y-28088400D03*
X39983600Y-28088400D03*
X40483600Y-28088400D03*
X40983600Y-28088400D03*
X41483600Y-28088400D03*
X41983600Y-28088400D03*
X36983600Y-27588400D03*
X37483600Y-27588400D03*
X37983600Y-27588400D03*
X38483600Y-27588400D03*
X38983600Y-27588400D03*
X39483600Y-27588400D03*
X39983600Y-27588400D03*
X40483600Y-27588400D03*
X40983600Y-27588400D03*
X41483600Y-27588400D03*
X41983600Y-27588400D03*
D11*
X34741600Y-27374200D03*
X34741600Y-26824200D03*
X34767000Y-25655800D03*
X34767000Y-26205800D03*
D12*
X34894000Y-31480200D03*
X34894000Y-32370200D03*
X34894000Y-28915800D03*
X34894000Y-28025800D03*
X34894000Y-30643000D03*
X34894000Y-29753000D03*
M02*
