G04 #@! TF.GenerationSoftware,KiCad,Pcbnew,(5.1.0)-1*
G04 #@! TF.CreationDate,2019-04-30T21:20:52-07:00*
G04 #@! TF.ProjectId,Miniscope-v4-PYTHON480,4d696e69-7363-46f7-9065-2d76342d5059,rev?*
G04 #@! TF.SameCoordinates,Original*
G04 #@! TF.FileFunction,Soldermask,Bot*
G04 #@! TF.FilePolarity,Negative*
%FSLAX46Y46*%
G04 Gerber Fmt 4.6, Leading zero omitted, Abs format (unit mm)*
G04 Created by KiCad (PCBNEW (5.1.0)-1) date 2019-04-30 21:20:52*
%MOMM*%
%LPD*%
G04 APERTURE LIST*
%ADD10C,0.100000*%
G04 APERTURE END LIST*
D10*
G36*
X35234400Y-32685600D02*
G01*
X34553600Y-32685600D01*
X34553600Y-32054800D01*
X35234400Y-32054800D01*
X35234400Y-32685600D01*
X35234400Y-32685600D01*
G37*
G36*
X35234400Y-31795600D02*
G01*
X34553600Y-31795600D01*
X34553600Y-30327600D01*
X35234400Y-30327600D01*
X35234400Y-31795600D01*
X35234400Y-31795600D01*
G37*
G36*
X38984217Y-30886235D02*
G01*
X38995768Y-30907846D01*
X39011314Y-30926788D01*
X39030255Y-30942333D01*
X39051866Y-30953884D01*
X39054840Y-30955116D01*
X39054841Y-30955117D01*
X39079475Y-30971576D01*
X39100424Y-30992525D01*
X39100425Y-30992527D01*
X39116884Y-31017160D01*
X39118116Y-31020134D01*
X39129667Y-31041745D01*
X39145213Y-31060687D01*
X39164154Y-31076232D01*
X39185765Y-31087783D01*
X39187799Y-31088400D01*
X39185765Y-31089017D01*
X39164154Y-31100568D01*
X39145212Y-31116114D01*
X39129667Y-31135055D01*
X39118116Y-31156666D01*
X39116884Y-31159640D01*
X39116883Y-31159641D01*
X39100424Y-31184275D01*
X39079475Y-31205224D01*
X39071189Y-31210760D01*
X39054839Y-31221685D01*
X39027471Y-31233021D01*
X38998415Y-31238800D01*
X38968785Y-31238800D01*
X38939729Y-31233021D01*
X38912361Y-31221685D01*
X38896011Y-31210760D01*
X38887725Y-31205224D01*
X38866776Y-31184275D01*
X38850317Y-31159641D01*
X38850316Y-31159640D01*
X38849084Y-31156666D01*
X38837533Y-31135055D01*
X38821987Y-31116113D01*
X38803046Y-31100568D01*
X38781435Y-31089017D01*
X38779401Y-31088400D01*
X38781435Y-31087783D01*
X38803046Y-31076232D01*
X38821988Y-31060686D01*
X38837533Y-31041745D01*
X38849084Y-31020134D01*
X38850316Y-31017160D01*
X38866775Y-30992527D01*
X38866776Y-30992525D01*
X38887725Y-30971576D01*
X38912359Y-30955117D01*
X38912360Y-30955116D01*
X38915334Y-30953884D01*
X38936945Y-30942333D01*
X38955887Y-30926787D01*
X38971432Y-30907846D01*
X38982983Y-30886235D01*
X38983600Y-30884201D01*
X38984217Y-30886235D01*
X38984217Y-30886235D01*
G37*
G36*
X36984217Y-30886235D02*
G01*
X36995768Y-30907846D01*
X37011314Y-30926788D01*
X37030255Y-30942333D01*
X37051866Y-30953884D01*
X37054840Y-30955116D01*
X37054841Y-30955117D01*
X37079475Y-30971576D01*
X37100424Y-30992525D01*
X37100425Y-30992527D01*
X37116884Y-31017160D01*
X37118116Y-31020134D01*
X37129667Y-31041745D01*
X37145213Y-31060687D01*
X37164154Y-31076232D01*
X37185765Y-31087783D01*
X37187799Y-31088400D01*
X37185765Y-31089017D01*
X37164154Y-31100568D01*
X37145212Y-31116114D01*
X37129667Y-31135055D01*
X37118116Y-31156666D01*
X37116884Y-31159640D01*
X37116883Y-31159641D01*
X37100424Y-31184275D01*
X37079475Y-31205224D01*
X37071189Y-31210760D01*
X37054839Y-31221685D01*
X37027471Y-31233021D01*
X36998415Y-31238800D01*
X36968785Y-31238800D01*
X36939729Y-31233021D01*
X36912361Y-31221685D01*
X36896011Y-31210760D01*
X36887725Y-31205224D01*
X36866776Y-31184275D01*
X36861240Y-31175989D01*
X36850315Y-31159639D01*
X36838979Y-31132271D01*
X36833200Y-31103215D01*
X36833200Y-31073585D01*
X36838979Y-31044529D01*
X36850315Y-31017161D01*
X36866775Y-30992527D01*
X36866776Y-30992525D01*
X36887725Y-30971576D01*
X36912359Y-30955117D01*
X36912360Y-30955116D01*
X36915334Y-30953884D01*
X36936945Y-30942333D01*
X36955887Y-30926787D01*
X36971432Y-30907846D01*
X36982983Y-30886235D01*
X36983600Y-30884201D01*
X36984217Y-30886235D01*
X36984217Y-30886235D01*
G37*
G36*
X37484217Y-30886235D02*
G01*
X37495768Y-30907846D01*
X37511314Y-30926788D01*
X37530255Y-30942333D01*
X37551866Y-30953884D01*
X37554840Y-30955116D01*
X37554841Y-30955117D01*
X37579475Y-30971576D01*
X37600424Y-30992525D01*
X37600425Y-30992527D01*
X37616884Y-31017160D01*
X37618116Y-31020134D01*
X37629667Y-31041745D01*
X37645213Y-31060687D01*
X37664154Y-31076232D01*
X37685765Y-31087783D01*
X37687799Y-31088400D01*
X37685765Y-31089017D01*
X37664154Y-31100568D01*
X37645212Y-31116114D01*
X37629667Y-31135055D01*
X37618116Y-31156666D01*
X37616884Y-31159640D01*
X37616883Y-31159641D01*
X37600424Y-31184275D01*
X37579475Y-31205224D01*
X37571189Y-31210760D01*
X37554839Y-31221685D01*
X37527471Y-31233021D01*
X37498415Y-31238800D01*
X37468785Y-31238800D01*
X37439729Y-31233021D01*
X37412361Y-31221685D01*
X37396011Y-31210760D01*
X37387725Y-31205224D01*
X37366776Y-31184275D01*
X37350317Y-31159641D01*
X37350316Y-31159640D01*
X37349084Y-31156666D01*
X37337533Y-31135055D01*
X37321987Y-31116113D01*
X37303046Y-31100568D01*
X37281435Y-31089017D01*
X37279401Y-31088400D01*
X37281435Y-31087783D01*
X37303046Y-31076232D01*
X37321988Y-31060686D01*
X37337533Y-31041745D01*
X37349084Y-31020134D01*
X37350316Y-31017160D01*
X37366775Y-30992527D01*
X37366776Y-30992525D01*
X37387725Y-30971576D01*
X37412359Y-30955117D01*
X37412360Y-30955116D01*
X37415334Y-30953884D01*
X37436945Y-30942333D01*
X37455887Y-30926787D01*
X37471432Y-30907846D01*
X37482983Y-30886235D01*
X37483600Y-30884201D01*
X37484217Y-30886235D01*
X37484217Y-30886235D01*
G37*
G36*
X38484217Y-30886235D02*
G01*
X38495768Y-30907846D01*
X38511314Y-30926788D01*
X38530255Y-30942333D01*
X38551866Y-30953884D01*
X38554840Y-30955116D01*
X38554841Y-30955117D01*
X38579475Y-30971576D01*
X38600424Y-30992525D01*
X38600425Y-30992527D01*
X38616884Y-31017160D01*
X38618116Y-31020134D01*
X38629667Y-31041745D01*
X38645213Y-31060687D01*
X38664154Y-31076232D01*
X38685765Y-31087783D01*
X38687799Y-31088400D01*
X38685765Y-31089017D01*
X38664154Y-31100568D01*
X38645212Y-31116114D01*
X38629667Y-31135055D01*
X38618116Y-31156666D01*
X38616884Y-31159640D01*
X38616883Y-31159641D01*
X38600424Y-31184275D01*
X38579475Y-31205224D01*
X38571189Y-31210760D01*
X38554839Y-31221685D01*
X38527471Y-31233021D01*
X38498415Y-31238800D01*
X38468785Y-31238800D01*
X38439729Y-31233021D01*
X38412361Y-31221685D01*
X38396011Y-31210760D01*
X38387725Y-31205224D01*
X38366776Y-31184275D01*
X38350317Y-31159641D01*
X38350316Y-31159640D01*
X38349084Y-31156666D01*
X38337533Y-31135055D01*
X38321987Y-31116113D01*
X38303046Y-31100568D01*
X38281435Y-31089017D01*
X38279401Y-31088400D01*
X38281435Y-31087783D01*
X38303046Y-31076232D01*
X38321988Y-31060686D01*
X38337533Y-31041745D01*
X38349084Y-31020134D01*
X38350316Y-31017160D01*
X38366775Y-30992527D01*
X38366776Y-30992525D01*
X38387725Y-30971576D01*
X38412359Y-30955117D01*
X38412360Y-30955116D01*
X38415334Y-30953884D01*
X38436945Y-30942333D01*
X38455887Y-30926787D01*
X38471432Y-30907846D01*
X38482983Y-30886235D01*
X38483600Y-30884201D01*
X38484217Y-30886235D01*
X38484217Y-30886235D01*
G37*
G36*
X39484217Y-30886235D02*
G01*
X39495768Y-30907846D01*
X39511314Y-30926788D01*
X39530255Y-30942333D01*
X39551866Y-30953884D01*
X39554840Y-30955116D01*
X39554841Y-30955117D01*
X39579475Y-30971576D01*
X39600424Y-30992525D01*
X39600425Y-30992527D01*
X39616884Y-31017160D01*
X39618116Y-31020134D01*
X39629667Y-31041745D01*
X39645213Y-31060687D01*
X39664154Y-31076232D01*
X39685765Y-31087783D01*
X39687799Y-31088400D01*
X39685765Y-31089017D01*
X39664154Y-31100568D01*
X39645212Y-31116114D01*
X39629667Y-31135055D01*
X39618116Y-31156666D01*
X39616884Y-31159640D01*
X39616883Y-31159641D01*
X39600424Y-31184275D01*
X39579475Y-31205224D01*
X39571189Y-31210760D01*
X39554839Y-31221685D01*
X39527471Y-31233021D01*
X39498415Y-31238800D01*
X39468785Y-31238800D01*
X39439729Y-31233021D01*
X39412361Y-31221685D01*
X39396011Y-31210760D01*
X39387725Y-31205224D01*
X39366776Y-31184275D01*
X39350317Y-31159641D01*
X39350316Y-31159640D01*
X39349084Y-31156666D01*
X39337533Y-31135055D01*
X39321987Y-31116113D01*
X39303046Y-31100568D01*
X39281435Y-31089017D01*
X39279401Y-31088400D01*
X39281435Y-31087783D01*
X39303046Y-31076232D01*
X39321988Y-31060686D01*
X39337533Y-31041745D01*
X39349084Y-31020134D01*
X39350316Y-31017160D01*
X39366775Y-30992527D01*
X39366776Y-30992525D01*
X39387725Y-30971576D01*
X39412359Y-30955117D01*
X39412360Y-30955116D01*
X39415334Y-30953884D01*
X39436945Y-30942333D01*
X39455887Y-30926787D01*
X39471432Y-30907846D01*
X39482983Y-30886235D01*
X39483600Y-30884201D01*
X39484217Y-30886235D01*
X39484217Y-30886235D01*
G37*
G36*
X39984217Y-30886235D02*
G01*
X39995768Y-30907846D01*
X40011314Y-30926788D01*
X40030255Y-30942333D01*
X40051866Y-30953884D01*
X40054840Y-30955116D01*
X40054841Y-30955117D01*
X40079475Y-30971576D01*
X40100424Y-30992525D01*
X40100425Y-30992527D01*
X40116884Y-31017160D01*
X40118116Y-31020134D01*
X40129667Y-31041745D01*
X40145213Y-31060687D01*
X40164154Y-31076232D01*
X40185765Y-31087783D01*
X40187799Y-31088400D01*
X40185765Y-31089017D01*
X40164154Y-31100568D01*
X40145212Y-31116114D01*
X40129667Y-31135055D01*
X40118116Y-31156666D01*
X40116884Y-31159640D01*
X40116883Y-31159641D01*
X40100424Y-31184275D01*
X40079475Y-31205224D01*
X40071189Y-31210760D01*
X40054839Y-31221685D01*
X40027471Y-31233021D01*
X39998415Y-31238800D01*
X39968785Y-31238800D01*
X39939729Y-31233021D01*
X39912361Y-31221685D01*
X39896011Y-31210760D01*
X39887725Y-31205224D01*
X39866776Y-31184275D01*
X39850317Y-31159641D01*
X39850316Y-31159640D01*
X39849084Y-31156666D01*
X39837533Y-31135055D01*
X39821987Y-31116113D01*
X39803046Y-31100568D01*
X39781435Y-31089017D01*
X39779401Y-31088400D01*
X39781435Y-31087783D01*
X39803046Y-31076232D01*
X39821988Y-31060686D01*
X39837533Y-31041745D01*
X39849084Y-31020134D01*
X39850316Y-31017160D01*
X39866775Y-30992527D01*
X39866776Y-30992525D01*
X39887725Y-30971576D01*
X39912359Y-30955117D01*
X39912360Y-30955116D01*
X39915334Y-30953884D01*
X39936945Y-30942333D01*
X39955887Y-30926787D01*
X39971432Y-30907846D01*
X39982983Y-30886235D01*
X39983600Y-30884201D01*
X39984217Y-30886235D01*
X39984217Y-30886235D01*
G37*
G36*
X40484217Y-30886235D02*
G01*
X40495768Y-30907846D01*
X40511314Y-30926788D01*
X40530255Y-30942333D01*
X40551866Y-30953884D01*
X40554840Y-30955116D01*
X40554841Y-30955117D01*
X40579475Y-30971576D01*
X40600424Y-30992525D01*
X40600425Y-30992527D01*
X40616884Y-31017160D01*
X40618116Y-31020134D01*
X40629667Y-31041745D01*
X40645213Y-31060687D01*
X40664154Y-31076232D01*
X40685765Y-31087783D01*
X40687799Y-31088400D01*
X40685765Y-31089017D01*
X40664154Y-31100568D01*
X40645212Y-31116114D01*
X40629667Y-31135055D01*
X40618116Y-31156666D01*
X40616884Y-31159640D01*
X40616883Y-31159641D01*
X40600424Y-31184275D01*
X40579475Y-31205224D01*
X40571189Y-31210760D01*
X40554839Y-31221685D01*
X40527471Y-31233021D01*
X40498415Y-31238800D01*
X40468785Y-31238800D01*
X40439729Y-31233021D01*
X40412361Y-31221685D01*
X40396011Y-31210760D01*
X40387725Y-31205224D01*
X40366776Y-31184275D01*
X40350317Y-31159641D01*
X40350316Y-31159640D01*
X40349084Y-31156666D01*
X40337533Y-31135055D01*
X40321987Y-31116113D01*
X40303046Y-31100568D01*
X40281435Y-31089017D01*
X40279401Y-31088400D01*
X40281435Y-31087783D01*
X40303046Y-31076232D01*
X40321988Y-31060686D01*
X40337533Y-31041745D01*
X40349084Y-31020134D01*
X40350316Y-31017160D01*
X40366775Y-30992527D01*
X40366776Y-30992525D01*
X40387725Y-30971576D01*
X40412359Y-30955117D01*
X40412360Y-30955116D01*
X40415334Y-30953884D01*
X40436945Y-30942333D01*
X40455887Y-30926787D01*
X40471432Y-30907846D01*
X40482983Y-30886235D01*
X40483600Y-30884201D01*
X40484217Y-30886235D01*
X40484217Y-30886235D01*
G37*
G36*
X40984217Y-30886235D02*
G01*
X40995768Y-30907846D01*
X41011314Y-30926788D01*
X41030255Y-30942333D01*
X41051866Y-30953884D01*
X41054840Y-30955116D01*
X41054841Y-30955117D01*
X41079475Y-30971576D01*
X41100424Y-30992525D01*
X41100425Y-30992527D01*
X41116884Y-31017160D01*
X41118116Y-31020134D01*
X41129667Y-31041745D01*
X41145213Y-31060687D01*
X41164154Y-31076232D01*
X41185765Y-31087783D01*
X41187799Y-31088400D01*
X41185765Y-31089017D01*
X41164154Y-31100568D01*
X41145212Y-31116114D01*
X41129667Y-31135055D01*
X41118116Y-31156666D01*
X41116884Y-31159640D01*
X41116883Y-31159641D01*
X41100424Y-31184275D01*
X41079475Y-31205224D01*
X41071189Y-31210760D01*
X41054839Y-31221685D01*
X41027471Y-31233021D01*
X40998415Y-31238800D01*
X40968785Y-31238800D01*
X40939729Y-31233021D01*
X40912361Y-31221685D01*
X40896011Y-31210760D01*
X40887725Y-31205224D01*
X40866776Y-31184275D01*
X40850317Y-31159641D01*
X40850316Y-31159640D01*
X40849084Y-31156666D01*
X40837533Y-31135055D01*
X40821987Y-31116113D01*
X40803046Y-31100568D01*
X40781435Y-31089017D01*
X40779401Y-31088400D01*
X40781435Y-31087783D01*
X40803046Y-31076232D01*
X40821988Y-31060686D01*
X40837533Y-31041745D01*
X40849084Y-31020134D01*
X40850316Y-31017160D01*
X40866775Y-30992527D01*
X40866776Y-30992525D01*
X40887725Y-30971576D01*
X40912359Y-30955117D01*
X40912360Y-30955116D01*
X40915334Y-30953884D01*
X40936945Y-30942333D01*
X40955887Y-30926787D01*
X40971432Y-30907846D01*
X40982983Y-30886235D01*
X40983600Y-30884201D01*
X40984217Y-30886235D01*
X40984217Y-30886235D01*
G37*
G36*
X41484217Y-30886235D02*
G01*
X41495768Y-30907846D01*
X41511314Y-30926788D01*
X41530255Y-30942333D01*
X41551866Y-30953884D01*
X41554840Y-30955116D01*
X41554841Y-30955117D01*
X41579475Y-30971576D01*
X41600424Y-30992525D01*
X41600425Y-30992527D01*
X41616884Y-31017160D01*
X41618116Y-31020134D01*
X41629667Y-31041745D01*
X41645213Y-31060687D01*
X41664154Y-31076232D01*
X41685765Y-31087783D01*
X41687799Y-31088400D01*
X41685765Y-31089017D01*
X41664154Y-31100568D01*
X41645212Y-31116114D01*
X41629667Y-31135055D01*
X41618116Y-31156666D01*
X41616884Y-31159640D01*
X41616883Y-31159641D01*
X41600424Y-31184275D01*
X41579475Y-31205224D01*
X41571189Y-31210760D01*
X41554839Y-31221685D01*
X41527471Y-31233021D01*
X41498415Y-31238800D01*
X41468785Y-31238800D01*
X41439729Y-31233021D01*
X41412361Y-31221685D01*
X41396011Y-31210760D01*
X41387725Y-31205224D01*
X41366776Y-31184275D01*
X41350317Y-31159641D01*
X41350316Y-31159640D01*
X41349084Y-31156666D01*
X41337533Y-31135055D01*
X41321987Y-31116113D01*
X41303046Y-31100568D01*
X41281435Y-31089017D01*
X41279401Y-31088400D01*
X41281435Y-31087783D01*
X41303046Y-31076232D01*
X41321988Y-31060686D01*
X41337533Y-31041745D01*
X41349084Y-31020134D01*
X41350316Y-31017160D01*
X41366775Y-30992527D01*
X41366776Y-30992525D01*
X41387725Y-30971576D01*
X41412359Y-30955117D01*
X41412360Y-30955116D01*
X41415334Y-30953884D01*
X41436945Y-30942333D01*
X41455887Y-30926787D01*
X41471432Y-30907846D01*
X41482983Y-30886235D01*
X41483600Y-30884201D01*
X41484217Y-30886235D01*
X41484217Y-30886235D01*
G37*
G36*
X41984217Y-30886235D02*
G01*
X41995768Y-30907846D01*
X42011314Y-30926788D01*
X42030255Y-30942333D01*
X42051866Y-30953884D01*
X42054840Y-30955116D01*
X42054841Y-30955117D01*
X42079475Y-30971576D01*
X42100424Y-30992525D01*
X42100425Y-30992527D01*
X42116885Y-31017161D01*
X42128221Y-31044529D01*
X42134000Y-31073585D01*
X42134000Y-31103215D01*
X42128221Y-31132271D01*
X42116885Y-31159639D01*
X42105960Y-31175989D01*
X42100424Y-31184275D01*
X42079475Y-31205224D01*
X42071189Y-31210760D01*
X42054839Y-31221685D01*
X42027471Y-31233021D01*
X41998415Y-31238800D01*
X41968785Y-31238800D01*
X41939729Y-31233021D01*
X41912361Y-31221685D01*
X41896011Y-31210760D01*
X41887725Y-31205224D01*
X41866776Y-31184275D01*
X41850317Y-31159641D01*
X41850316Y-31159640D01*
X41849084Y-31156666D01*
X41837533Y-31135055D01*
X41821987Y-31116113D01*
X41803046Y-31100568D01*
X41781435Y-31089017D01*
X41779401Y-31088400D01*
X41781435Y-31087783D01*
X41803046Y-31076232D01*
X41821988Y-31060686D01*
X41837533Y-31041745D01*
X41849084Y-31020134D01*
X41850316Y-31017160D01*
X41866775Y-30992527D01*
X41866776Y-30992525D01*
X41887725Y-30971576D01*
X41912359Y-30955117D01*
X41912360Y-30955116D01*
X41915334Y-30953884D01*
X41936945Y-30942333D01*
X41955887Y-30926787D01*
X41971432Y-30907846D01*
X41982983Y-30886235D01*
X41983600Y-30884201D01*
X41984217Y-30886235D01*
X41984217Y-30886235D01*
G37*
G36*
X37984217Y-30886235D02*
G01*
X37995768Y-30907846D01*
X38011314Y-30926788D01*
X38030255Y-30942333D01*
X38051866Y-30953884D01*
X38054840Y-30955116D01*
X38054841Y-30955117D01*
X38079475Y-30971576D01*
X38100424Y-30992525D01*
X38100425Y-30992527D01*
X38116884Y-31017160D01*
X38118116Y-31020134D01*
X38129667Y-31041745D01*
X38145213Y-31060687D01*
X38164154Y-31076232D01*
X38185765Y-31087783D01*
X38187799Y-31088400D01*
X38185765Y-31089017D01*
X38164154Y-31100568D01*
X38145212Y-31116114D01*
X38129667Y-31135055D01*
X38118116Y-31156666D01*
X38116884Y-31159640D01*
X38116883Y-31159641D01*
X38100424Y-31184275D01*
X38079475Y-31205224D01*
X38071189Y-31210760D01*
X38054839Y-31221685D01*
X38027471Y-31233021D01*
X37998415Y-31238800D01*
X37968785Y-31238800D01*
X37939729Y-31233021D01*
X37912361Y-31221685D01*
X37896011Y-31210760D01*
X37887725Y-31205224D01*
X37866776Y-31184275D01*
X37850317Y-31159641D01*
X37850316Y-31159640D01*
X37849084Y-31156666D01*
X37837533Y-31135055D01*
X37821987Y-31116113D01*
X37803046Y-31100568D01*
X37781435Y-31089017D01*
X37779401Y-31088400D01*
X37781435Y-31087783D01*
X37803046Y-31076232D01*
X37821988Y-31060686D01*
X37837533Y-31041745D01*
X37849084Y-31020134D01*
X37850316Y-31017160D01*
X37866775Y-30992527D01*
X37866776Y-30992525D01*
X37887725Y-30971576D01*
X37912359Y-30955117D01*
X37912360Y-30955116D01*
X37915334Y-30953884D01*
X37936945Y-30942333D01*
X37955887Y-30926787D01*
X37971432Y-30907846D01*
X37982983Y-30886235D01*
X37983600Y-30884201D01*
X37984217Y-30886235D01*
X37984217Y-30886235D01*
G37*
G36*
X41984217Y-30386235D02*
G01*
X41995768Y-30407846D01*
X42011314Y-30426788D01*
X42030255Y-30442333D01*
X42051866Y-30453884D01*
X42054840Y-30455116D01*
X42054841Y-30455117D01*
X42079475Y-30471576D01*
X42100424Y-30492525D01*
X42100425Y-30492527D01*
X42116885Y-30517161D01*
X42128221Y-30544529D01*
X42134000Y-30573585D01*
X42134000Y-30603215D01*
X42128221Y-30632271D01*
X42116885Y-30659639D01*
X42105960Y-30675989D01*
X42100424Y-30684275D01*
X42079475Y-30705224D01*
X42067075Y-30713509D01*
X42054840Y-30721684D01*
X42051866Y-30722916D01*
X42030255Y-30734467D01*
X42011313Y-30750013D01*
X41995768Y-30768954D01*
X41984217Y-30790565D01*
X41983600Y-30792599D01*
X41982983Y-30790565D01*
X41971432Y-30768954D01*
X41955886Y-30750012D01*
X41936945Y-30734467D01*
X41915334Y-30722916D01*
X41912360Y-30721684D01*
X41900125Y-30713509D01*
X41887725Y-30705224D01*
X41866776Y-30684275D01*
X41850317Y-30659641D01*
X41850316Y-30659640D01*
X41849084Y-30656666D01*
X41837533Y-30635055D01*
X41821987Y-30616113D01*
X41803046Y-30600568D01*
X41781435Y-30589017D01*
X41779401Y-30588400D01*
X41781435Y-30587783D01*
X41803046Y-30576232D01*
X41821988Y-30560686D01*
X41837533Y-30541745D01*
X41849084Y-30520134D01*
X41850316Y-30517160D01*
X41866775Y-30492527D01*
X41866776Y-30492525D01*
X41887725Y-30471576D01*
X41912359Y-30455117D01*
X41912360Y-30455116D01*
X41915334Y-30453884D01*
X41936945Y-30442333D01*
X41955887Y-30426787D01*
X41971432Y-30407846D01*
X41982983Y-30386235D01*
X41983600Y-30384201D01*
X41984217Y-30386235D01*
X41984217Y-30386235D01*
G37*
G36*
X39984217Y-30386235D02*
G01*
X39995768Y-30407846D01*
X40011314Y-30426788D01*
X40030255Y-30442333D01*
X40051866Y-30453884D01*
X40054840Y-30455116D01*
X40054841Y-30455117D01*
X40079475Y-30471576D01*
X40100424Y-30492525D01*
X40100425Y-30492527D01*
X40116884Y-30517160D01*
X40118116Y-30520134D01*
X40129667Y-30541745D01*
X40145213Y-30560687D01*
X40164154Y-30576232D01*
X40185765Y-30587783D01*
X40187799Y-30588400D01*
X40185765Y-30589017D01*
X40164154Y-30600568D01*
X40145212Y-30616114D01*
X40129667Y-30635055D01*
X40118116Y-30656666D01*
X40116884Y-30659640D01*
X40116883Y-30659641D01*
X40100424Y-30684275D01*
X40079475Y-30705224D01*
X40067075Y-30713509D01*
X40054840Y-30721684D01*
X40051866Y-30722916D01*
X40030255Y-30734467D01*
X40011313Y-30750013D01*
X39995768Y-30768954D01*
X39984217Y-30790565D01*
X39983600Y-30792599D01*
X39982983Y-30790565D01*
X39971432Y-30768954D01*
X39955886Y-30750012D01*
X39936945Y-30734467D01*
X39915334Y-30722916D01*
X39912360Y-30721684D01*
X39900125Y-30713509D01*
X39887725Y-30705224D01*
X39866776Y-30684275D01*
X39850317Y-30659641D01*
X39850316Y-30659640D01*
X39849084Y-30656666D01*
X39837533Y-30635055D01*
X39821987Y-30616113D01*
X39803046Y-30600568D01*
X39781435Y-30589017D01*
X39779401Y-30588400D01*
X39781435Y-30587783D01*
X39803046Y-30576232D01*
X39821988Y-30560686D01*
X39837533Y-30541745D01*
X39849084Y-30520134D01*
X39850316Y-30517160D01*
X39866775Y-30492527D01*
X39866776Y-30492525D01*
X39887725Y-30471576D01*
X39912359Y-30455117D01*
X39912360Y-30455116D01*
X39915334Y-30453884D01*
X39936945Y-30442333D01*
X39955887Y-30426787D01*
X39971432Y-30407846D01*
X39982983Y-30386235D01*
X39983600Y-30384201D01*
X39984217Y-30386235D01*
X39984217Y-30386235D01*
G37*
G36*
X40484217Y-30386235D02*
G01*
X40495768Y-30407846D01*
X40511314Y-30426788D01*
X40530255Y-30442333D01*
X40551866Y-30453884D01*
X40554840Y-30455116D01*
X40554841Y-30455117D01*
X40579475Y-30471576D01*
X40600424Y-30492525D01*
X40600425Y-30492527D01*
X40616884Y-30517160D01*
X40618116Y-30520134D01*
X40629667Y-30541745D01*
X40645213Y-30560687D01*
X40664154Y-30576232D01*
X40685765Y-30587783D01*
X40687799Y-30588400D01*
X40685765Y-30589017D01*
X40664154Y-30600568D01*
X40645212Y-30616114D01*
X40629667Y-30635055D01*
X40618116Y-30656666D01*
X40616884Y-30659640D01*
X40616883Y-30659641D01*
X40600424Y-30684275D01*
X40579475Y-30705224D01*
X40567075Y-30713509D01*
X40554840Y-30721684D01*
X40551866Y-30722916D01*
X40530255Y-30734467D01*
X40511313Y-30750013D01*
X40495768Y-30768954D01*
X40484217Y-30790565D01*
X40483600Y-30792599D01*
X40482983Y-30790565D01*
X40471432Y-30768954D01*
X40455886Y-30750012D01*
X40436945Y-30734467D01*
X40415334Y-30722916D01*
X40412360Y-30721684D01*
X40400125Y-30713509D01*
X40387725Y-30705224D01*
X40366776Y-30684275D01*
X40350317Y-30659641D01*
X40350316Y-30659640D01*
X40349084Y-30656666D01*
X40337533Y-30635055D01*
X40321987Y-30616113D01*
X40303046Y-30600568D01*
X40281435Y-30589017D01*
X40279401Y-30588400D01*
X40281435Y-30587783D01*
X40303046Y-30576232D01*
X40321988Y-30560686D01*
X40337533Y-30541745D01*
X40349084Y-30520134D01*
X40350316Y-30517160D01*
X40366775Y-30492527D01*
X40366776Y-30492525D01*
X40387725Y-30471576D01*
X40412359Y-30455117D01*
X40412360Y-30455116D01*
X40415334Y-30453884D01*
X40436945Y-30442333D01*
X40455887Y-30426787D01*
X40471432Y-30407846D01*
X40482983Y-30386235D01*
X40483600Y-30384201D01*
X40484217Y-30386235D01*
X40484217Y-30386235D01*
G37*
G36*
X40984217Y-30386235D02*
G01*
X40995768Y-30407846D01*
X41011314Y-30426788D01*
X41030255Y-30442333D01*
X41051866Y-30453884D01*
X41054840Y-30455116D01*
X41054841Y-30455117D01*
X41079475Y-30471576D01*
X41100424Y-30492525D01*
X41100425Y-30492527D01*
X41116884Y-30517160D01*
X41118116Y-30520134D01*
X41129667Y-30541745D01*
X41145213Y-30560687D01*
X41164154Y-30576232D01*
X41185765Y-30587783D01*
X41187799Y-30588400D01*
X41185765Y-30589017D01*
X41164154Y-30600568D01*
X41145212Y-30616114D01*
X41129667Y-30635055D01*
X41118116Y-30656666D01*
X41116884Y-30659640D01*
X41116883Y-30659641D01*
X41100424Y-30684275D01*
X41079475Y-30705224D01*
X41067075Y-30713509D01*
X41054840Y-30721684D01*
X41051866Y-30722916D01*
X41030255Y-30734467D01*
X41011313Y-30750013D01*
X40995768Y-30768954D01*
X40984217Y-30790565D01*
X40983600Y-30792599D01*
X40982983Y-30790565D01*
X40971432Y-30768954D01*
X40955886Y-30750012D01*
X40936945Y-30734467D01*
X40915334Y-30722916D01*
X40912360Y-30721684D01*
X40900125Y-30713509D01*
X40887725Y-30705224D01*
X40866776Y-30684275D01*
X40850317Y-30659641D01*
X40850316Y-30659640D01*
X40849084Y-30656666D01*
X40837533Y-30635055D01*
X40821987Y-30616113D01*
X40803046Y-30600568D01*
X40781435Y-30589017D01*
X40779401Y-30588400D01*
X40781435Y-30587783D01*
X40803046Y-30576232D01*
X40821988Y-30560686D01*
X40837533Y-30541745D01*
X40849084Y-30520134D01*
X40850316Y-30517160D01*
X40866775Y-30492527D01*
X40866776Y-30492525D01*
X40887725Y-30471576D01*
X40912359Y-30455117D01*
X40912360Y-30455116D01*
X40915334Y-30453884D01*
X40936945Y-30442333D01*
X40955887Y-30426787D01*
X40971432Y-30407846D01*
X40982983Y-30386235D01*
X40983600Y-30384201D01*
X40984217Y-30386235D01*
X40984217Y-30386235D01*
G37*
G36*
X41484217Y-30386235D02*
G01*
X41495768Y-30407846D01*
X41511314Y-30426788D01*
X41530255Y-30442333D01*
X41551866Y-30453884D01*
X41554840Y-30455116D01*
X41554841Y-30455117D01*
X41579475Y-30471576D01*
X41600424Y-30492525D01*
X41600425Y-30492527D01*
X41616884Y-30517160D01*
X41618116Y-30520134D01*
X41629667Y-30541745D01*
X41645213Y-30560687D01*
X41664154Y-30576232D01*
X41685765Y-30587783D01*
X41687799Y-30588400D01*
X41685765Y-30589017D01*
X41664154Y-30600568D01*
X41645212Y-30616114D01*
X41629667Y-30635055D01*
X41618116Y-30656666D01*
X41616884Y-30659640D01*
X41616883Y-30659641D01*
X41600424Y-30684275D01*
X41579475Y-30705224D01*
X41567075Y-30713509D01*
X41554840Y-30721684D01*
X41551866Y-30722916D01*
X41530255Y-30734467D01*
X41511313Y-30750013D01*
X41495768Y-30768954D01*
X41484217Y-30790565D01*
X41483600Y-30792599D01*
X41482983Y-30790565D01*
X41471432Y-30768954D01*
X41455886Y-30750012D01*
X41436945Y-30734467D01*
X41415334Y-30722916D01*
X41412360Y-30721684D01*
X41400125Y-30713509D01*
X41387725Y-30705224D01*
X41366776Y-30684275D01*
X41350317Y-30659641D01*
X41350316Y-30659640D01*
X41349084Y-30656666D01*
X41337533Y-30635055D01*
X41321987Y-30616113D01*
X41303046Y-30600568D01*
X41281435Y-30589017D01*
X41279401Y-30588400D01*
X41281435Y-30587783D01*
X41303046Y-30576232D01*
X41321988Y-30560686D01*
X41337533Y-30541745D01*
X41349084Y-30520134D01*
X41350316Y-30517160D01*
X41366775Y-30492527D01*
X41366776Y-30492525D01*
X41387725Y-30471576D01*
X41412359Y-30455117D01*
X41412360Y-30455116D01*
X41415334Y-30453884D01*
X41436945Y-30442333D01*
X41455887Y-30426787D01*
X41471432Y-30407846D01*
X41482983Y-30386235D01*
X41483600Y-30384201D01*
X41484217Y-30386235D01*
X41484217Y-30386235D01*
G37*
G36*
X39484217Y-30386235D02*
G01*
X39495768Y-30407846D01*
X39511314Y-30426788D01*
X39530255Y-30442333D01*
X39551866Y-30453884D01*
X39554840Y-30455116D01*
X39554841Y-30455117D01*
X39579475Y-30471576D01*
X39600424Y-30492525D01*
X39600425Y-30492527D01*
X39616884Y-30517160D01*
X39618116Y-30520134D01*
X39629667Y-30541745D01*
X39645213Y-30560687D01*
X39664154Y-30576232D01*
X39685765Y-30587783D01*
X39687799Y-30588400D01*
X39685765Y-30589017D01*
X39664154Y-30600568D01*
X39645212Y-30616114D01*
X39629667Y-30635055D01*
X39618116Y-30656666D01*
X39616884Y-30659640D01*
X39616883Y-30659641D01*
X39600424Y-30684275D01*
X39579475Y-30705224D01*
X39567075Y-30713509D01*
X39554840Y-30721684D01*
X39551866Y-30722916D01*
X39530255Y-30734467D01*
X39511313Y-30750013D01*
X39495768Y-30768954D01*
X39484217Y-30790565D01*
X39483600Y-30792599D01*
X39482983Y-30790565D01*
X39471432Y-30768954D01*
X39455886Y-30750012D01*
X39436945Y-30734467D01*
X39415334Y-30722916D01*
X39412360Y-30721684D01*
X39400125Y-30713509D01*
X39387725Y-30705224D01*
X39366776Y-30684275D01*
X39350317Y-30659641D01*
X39350316Y-30659640D01*
X39349084Y-30656666D01*
X39337533Y-30635055D01*
X39321987Y-30616113D01*
X39303046Y-30600568D01*
X39281435Y-30589017D01*
X39279401Y-30588400D01*
X39281435Y-30587783D01*
X39303046Y-30576232D01*
X39321988Y-30560686D01*
X39337533Y-30541745D01*
X39349084Y-30520134D01*
X39350316Y-30517160D01*
X39366775Y-30492527D01*
X39366776Y-30492525D01*
X39387725Y-30471576D01*
X39412359Y-30455117D01*
X39412360Y-30455116D01*
X39415334Y-30453884D01*
X39436945Y-30442333D01*
X39455887Y-30426787D01*
X39471432Y-30407846D01*
X39482983Y-30386235D01*
X39483600Y-30384201D01*
X39484217Y-30386235D01*
X39484217Y-30386235D01*
G37*
G36*
X38484217Y-30386235D02*
G01*
X38495768Y-30407846D01*
X38511314Y-30426788D01*
X38530255Y-30442333D01*
X38551866Y-30453884D01*
X38554840Y-30455116D01*
X38554841Y-30455117D01*
X38579475Y-30471576D01*
X38600424Y-30492525D01*
X38600425Y-30492527D01*
X38616884Y-30517160D01*
X38618116Y-30520134D01*
X38629667Y-30541745D01*
X38645213Y-30560687D01*
X38664154Y-30576232D01*
X38685765Y-30587783D01*
X38687799Y-30588400D01*
X38685765Y-30589017D01*
X38664154Y-30600568D01*
X38645212Y-30616114D01*
X38629667Y-30635055D01*
X38618116Y-30656666D01*
X38616884Y-30659640D01*
X38616883Y-30659641D01*
X38600424Y-30684275D01*
X38579475Y-30705224D01*
X38567075Y-30713509D01*
X38554840Y-30721684D01*
X38551866Y-30722916D01*
X38530255Y-30734467D01*
X38511313Y-30750013D01*
X38495768Y-30768954D01*
X38484217Y-30790565D01*
X38483600Y-30792599D01*
X38482983Y-30790565D01*
X38471432Y-30768954D01*
X38455886Y-30750012D01*
X38436945Y-30734467D01*
X38415334Y-30722916D01*
X38412360Y-30721684D01*
X38400125Y-30713509D01*
X38387725Y-30705224D01*
X38366776Y-30684275D01*
X38350317Y-30659641D01*
X38350316Y-30659640D01*
X38349084Y-30656666D01*
X38337533Y-30635055D01*
X38321987Y-30616113D01*
X38303046Y-30600568D01*
X38281435Y-30589017D01*
X38279401Y-30588400D01*
X38281435Y-30587783D01*
X38303046Y-30576232D01*
X38321988Y-30560686D01*
X38337533Y-30541745D01*
X38349084Y-30520134D01*
X38350316Y-30517160D01*
X38366775Y-30492527D01*
X38366776Y-30492525D01*
X38387725Y-30471576D01*
X38412359Y-30455117D01*
X38412360Y-30455116D01*
X38415334Y-30453884D01*
X38436945Y-30442333D01*
X38455887Y-30426787D01*
X38471432Y-30407846D01*
X38482983Y-30386235D01*
X38483600Y-30384201D01*
X38484217Y-30386235D01*
X38484217Y-30386235D01*
G37*
G36*
X36984217Y-30386235D02*
G01*
X36995768Y-30407846D01*
X37011314Y-30426788D01*
X37030255Y-30442333D01*
X37051866Y-30453884D01*
X37054840Y-30455116D01*
X37054841Y-30455117D01*
X37079475Y-30471576D01*
X37100424Y-30492525D01*
X37100425Y-30492527D01*
X37116884Y-30517160D01*
X37118116Y-30520134D01*
X37129667Y-30541745D01*
X37145213Y-30560687D01*
X37164154Y-30576232D01*
X37185765Y-30587783D01*
X37187799Y-30588400D01*
X37185765Y-30589017D01*
X37164154Y-30600568D01*
X37145212Y-30616114D01*
X37129667Y-30635055D01*
X37118116Y-30656666D01*
X37116884Y-30659640D01*
X37116883Y-30659641D01*
X37100424Y-30684275D01*
X37079475Y-30705224D01*
X37067075Y-30713509D01*
X37054840Y-30721684D01*
X37051866Y-30722916D01*
X37030255Y-30734467D01*
X37011313Y-30750013D01*
X36995768Y-30768954D01*
X36984217Y-30790565D01*
X36983600Y-30792599D01*
X36982983Y-30790565D01*
X36971432Y-30768954D01*
X36955886Y-30750012D01*
X36936945Y-30734467D01*
X36915334Y-30722916D01*
X36912360Y-30721684D01*
X36900125Y-30713509D01*
X36887725Y-30705224D01*
X36866776Y-30684275D01*
X36861240Y-30675989D01*
X36850315Y-30659639D01*
X36838979Y-30632271D01*
X36833200Y-30603215D01*
X36833200Y-30573585D01*
X36838979Y-30544529D01*
X36850315Y-30517161D01*
X36866775Y-30492527D01*
X36866776Y-30492525D01*
X36887725Y-30471576D01*
X36912359Y-30455117D01*
X36912360Y-30455116D01*
X36915334Y-30453884D01*
X36936945Y-30442333D01*
X36955887Y-30426787D01*
X36971432Y-30407846D01*
X36982983Y-30386235D01*
X36983600Y-30384201D01*
X36984217Y-30386235D01*
X36984217Y-30386235D01*
G37*
G36*
X37484217Y-30386235D02*
G01*
X37495768Y-30407846D01*
X37511314Y-30426788D01*
X37530255Y-30442333D01*
X37551866Y-30453884D01*
X37554840Y-30455116D01*
X37554841Y-30455117D01*
X37579475Y-30471576D01*
X37600424Y-30492525D01*
X37600425Y-30492527D01*
X37616884Y-30517160D01*
X37618116Y-30520134D01*
X37629667Y-30541745D01*
X37645213Y-30560687D01*
X37664154Y-30576232D01*
X37685765Y-30587783D01*
X37687799Y-30588400D01*
X37685765Y-30589017D01*
X37664154Y-30600568D01*
X37645212Y-30616114D01*
X37629667Y-30635055D01*
X37618116Y-30656666D01*
X37616884Y-30659640D01*
X37616883Y-30659641D01*
X37600424Y-30684275D01*
X37579475Y-30705224D01*
X37567075Y-30713509D01*
X37554840Y-30721684D01*
X37551866Y-30722916D01*
X37530255Y-30734467D01*
X37511313Y-30750013D01*
X37495768Y-30768954D01*
X37484217Y-30790565D01*
X37483600Y-30792599D01*
X37482983Y-30790565D01*
X37471432Y-30768954D01*
X37455886Y-30750012D01*
X37436945Y-30734467D01*
X37415334Y-30722916D01*
X37412360Y-30721684D01*
X37400125Y-30713509D01*
X37387725Y-30705224D01*
X37366776Y-30684275D01*
X37350317Y-30659641D01*
X37350316Y-30659640D01*
X37349084Y-30656666D01*
X37337533Y-30635055D01*
X37321987Y-30616113D01*
X37303046Y-30600568D01*
X37281435Y-30589017D01*
X37279401Y-30588400D01*
X37281435Y-30587783D01*
X37303046Y-30576232D01*
X37321988Y-30560686D01*
X37337533Y-30541745D01*
X37349084Y-30520134D01*
X37350316Y-30517160D01*
X37366775Y-30492527D01*
X37366776Y-30492525D01*
X37387725Y-30471576D01*
X37412359Y-30455117D01*
X37412360Y-30455116D01*
X37415334Y-30453884D01*
X37436945Y-30442333D01*
X37455887Y-30426787D01*
X37471432Y-30407846D01*
X37482983Y-30386235D01*
X37483600Y-30384201D01*
X37484217Y-30386235D01*
X37484217Y-30386235D01*
G37*
G36*
X37984217Y-30386235D02*
G01*
X37995768Y-30407846D01*
X38011314Y-30426788D01*
X38030255Y-30442333D01*
X38051866Y-30453884D01*
X38054840Y-30455116D01*
X38054841Y-30455117D01*
X38079475Y-30471576D01*
X38100424Y-30492525D01*
X38100425Y-30492527D01*
X38116884Y-30517160D01*
X38118116Y-30520134D01*
X38129667Y-30541745D01*
X38145213Y-30560687D01*
X38164154Y-30576232D01*
X38185765Y-30587783D01*
X38187799Y-30588400D01*
X38185765Y-30589017D01*
X38164154Y-30600568D01*
X38145212Y-30616114D01*
X38129667Y-30635055D01*
X38118116Y-30656666D01*
X38116884Y-30659640D01*
X38116883Y-30659641D01*
X38100424Y-30684275D01*
X38079475Y-30705224D01*
X38067075Y-30713509D01*
X38054840Y-30721684D01*
X38051866Y-30722916D01*
X38030255Y-30734467D01*
X38011313Y-30750013D01*
X37995768Y-30768954D01*
X37984217Y-30790565D01*
X37983600Y-30792599D01*
X37982983Y-30790565D01*
X37971432Y-30768954D01*
X37955886Y-30750012D01*
X37936945Y-30734467D01*
X37915334Y-30722916D01*
X37912360Y-30721684D01*
X37900125Y-30713509D01*
X37887725Y-30705224D01*
X37866776Y-30684275D01*
X37850317Y-30659641D01*
X37850316Y-30659640D01*
X37849084Y-30656666D01*
X37837533Y-30635055D01*
X37821987Y-30616113D01*
X37803046Y-30600568D01*
X37781435Y-30589017D01*
X37779401Y-30588400D01*
X37781435Y-30587783D01*
X37803046Y-30576232D01*
X37821988Y-30560686D01*
X37837533Y-30541745D01*
X37849084Y-30520134D01*
X37850316Y-30517160D01*
X37866775Y-30492527D01*
X37866776Y-30492525D01*
X37887725Y-30471576D01*
X37912359Y-30455117D01*
X37912360Y-30455116D01*
X37915334Y-30453884D01*
X37936945Y-30442333D01*
X37955887Y-30426787D01*
X37971432Y-30407846D01*
X37982983Y-30386235D01*
X37983600Y-30384201D01*
X37984217Y-30386235D01*
X37984217Y-30386235D01*
G37*
G36*
X38984217Y-30386235D02*
G01*
X38995768Y-30407846D01*
X39011314Y-30426788D01*
X39030255Y-30442333D01*
X39051866Y-30453884D01*
X39054840Y-30455116D01*
X39054841Y-30455117D01*
X39079475Y-30471576D01*
X39100424Y-30492525D01*
X39100425Y-30492527D01*
X39116884Y-30517160D01*
X39118116Y-30520134D01*
X39129667Y-30541745D01*
X39145213Y-30560687D01*
X39164154Y-30576232D01*
X39185765Y-30587783D01*
X39187799Y-30588400D01*
X39185765Y-30589017D01*
X39164154Y-30600568D01*
X39145212Y-30616114D01*
X39129667Y-30635055D01*
X39118116Y-30656666D01*
X39116884Y-30659640D01*
X39116883Y-30659641D01*
X39100424Y-30684275D01*
X39079475Y-30705224D01*
X39067075Y-30713509D01*
X39054840Y-30721684D01*
X39051866Y-30722916D01*
X39030255Y-30734467D01*
X39011313Y-30750013D01*
X38995768Y-30768954D01*
X38984217Y-30790565D01*
X38983600Y-30792599D01*
X38982983Y-30790565D01*
X38971432Y-30768954D01*
X38955886Y-30750012D01*
X38936945Y-30734467D01*
X38915334Y-30722916D01*
X38912360Y-30721684D01*
X38900125Y-30713509D01*
X38887725Y-30705224D01*
X38866776Y-30684275D01*
X38850317Y-30659641D01*
X38850316Y-30659640D01*
X38849084Y-30656666D01*
X38837533Y-30635055D01*
X38821987Y-30616113D01*
X38803046Y-30600568D01*
X38781435Y-30589017D01*
X38779401Y-30588400D01*
X38781435Y-30587783D01*
X38803046Y-30576232D01*
X38821988Y-30560686D01*
X38837533Y-30541745D01*
X38849084Y-30520134D01*
X38850316Y-30517160D01*
X38866775Y-30492527D01*
X38866776Y-30492525D01*
X38887725Y-30471576D01*
X38912359Y-30455117D01*
X38912360Y-30455116D01*
X38915334Y-30453884D01*
X38936945Y-30442333D01*
X38955887Y-30426787D01*
X38971432Y-30407846D01*
X38982983Y-30386235D01*
X38983600Y-30384201D01*
X38984217Y-30386235D01*
X38984217Y-30386235D01*
G37*
G36*
X40527471Y-29943779D02*
G01*
X40554839Y-29955115D01*
X40571189Y-29966040D01*
X40579475Y-29971576D01*
X40600424Y-29992525D01*
X40600425Y-29992527D01*
X40616884Y-30017160D01*
X40618116Y-30020134D01*
X40629667Y-30041745D01*
X40645213Y-30060687D01*
X40664154Y-30076232D01*
X40685765Y-30087783D01*
X40687799Y-30088400D01*
X40685765Y-30089017D01*
X40664154Y-30100568D01*
X40645212Y-30116114D01*
X40629667Y-30135055D01*
X40618116Y-30156666D01*
X40616884Y-30159640D01*
X40616883Y-30159641D01*
X40600424Y-30184275D01*
X40579475Y-30205224D01*
X40567075Y-30213509D01*
X40554840Y-30221684D01*
X40551866Y-30222916D01*
X40530255Y-30234467D01*
X40511313Y-30250013D01*
X40495768Y-30268954D01*
X40484217Y-30290565D01*
X40483600Y-30292599D01*
X40482983Y-30290565D01*
X40471432Y-30268954D01*
X40455886Y-30250012D01*
X40436945Y-30234467D01*
X40415334Y-30222916D01*
X40412360Y-30221684D01*
X40400125Y-30213509D01*
X40387725Y-30205224D01*
X40366776Y-30184275D01*
X40350317Y-30159641D01*
X40350316Y-30159640D01*
X40349084Y-30156666D01*
X40337533Y-30135055D01*
X40321987Y-30116113D01*
X40303046Y-30100568D01*
X40281435Y-30089017D01*
X40279401Y-30088400D01*
X40281435Y-30087783D01*
X40303046Y-30076232D01*
X40321988Y-30060686D01*
X40337533Y-30041745D01*
X40349084Y-30020134D01*
X40350316Y-30017160D01*
X40366775Y-29992527D01*
X40366776Y-29992525D01*
X40387725Y-29971576D01*
X40396011Y-29966040D01*
X40412361Y-29955115D01*
X40439729Y-29943779D01*
X40468785Y-29938000D01*
X40498415Y-29938000D01*
X40527471Y-29943779D01*
X40527471Y-29943779D01*
G37*
G36*
X36984217Y-29886235D02*
G01*
X36995768Y-29907846D01*
X37011314Y-29926788D01*
X37030255Y-29942333D01*
X37051866Y-29953884D01*
X37054840Y-29955116D01*
X37054841Y-29955117D01*
X37079475Y-29971576D01*
X37100424Y-29992525D01*
X37100425Y-29992527D01*
X37116884Y-30017160D01*
X37118116Y-30020134D01*
X37129667Y-30041745D01*
X37145213Y-30060687D01*
X37164154Y-30076232D01*
X37185765Y-30087783D01*
X37187799Y-30088400D01*
X37185765Y-30089017D01*
X37164154Y-30100568D01*
X37145212Y-30116114D01*
X37129667Y-30135055D01*
X37118116Y-30156666D01*
X37116884Y-30159640D01*
X37116883Y-30159641D01*
X37100424Y-30184275D01*
X37079475Y-30205224D01*
X37067075Y-30213509D01*
X37054840Y-30221684D01*
X37051866Y-30222916D01*
X37030255Y-30234467D01*
X37011313Y-30250013D01*
X36995768Y-30268954D01*
X36984217Y-30290565D01*
X36983600Y-30292599D01*
X36982983Y-30290565D01*
X36971432Y-30268954D01*
X36955886Y-30250012D01*
X36936945Y-30234467D01*
X36915334Y-30222916D01*
X36912360Y-30221684D01*
X36900125Y-30213509D01*
X36887725Y-30205224D01*
X36866776Y-30184275D01*
X36861240Y-30175989D01*
X36850315Y-30159639D01*
X36838979Y-30132271D01*
X36833200Y-30103215D01*
X36833200Y-30073585D01*
X36838979Y-30044529D01*
X36850315Y-30017161D01*
X36866775Y-29992527D01*
X36866776Y-29992525D01*
X36887725Y-29971576D01*
X36912359Y-29955117D01*
X36912360Y-29955116D01*
X36915334Y-29953884D01*
X36936945Y-29942333D01*
X36955887Y-29926787D01*
X36971432Y-29907846D01*
X36982983Y-29886235D01*
X36983600Y-29884201D01*
X36984217Y-29886235D01*
X36984217Y-29886235D01*
G37*
G36*
X37484217Y-29886235D02*
G01*
X37495768Y-29907846D01*
X37511314Y-29926788D01*
X37530255Y-29942333D01*
X37551866Y-29953884D01*
X37554840Y-29955116D01*
X37554841Y-29955117D01*
X37579475Y-29971576D01*
X37600424Y-29992525D01*
X37600425Y-29992527D01*
X37616884Y-30017160D01*
X37618116Y-30020134D01*
X37629667Y-30041745D01*
X37645213Y-30060687D01*
X37664154Y-30076232D01*
X37685765Y-30087783D01*
X37687799Y-30088400D01*
X37685765Y-30089017D01*
X37664154Y-30100568D01*
X37645212Y-30116114D01*
X37629667Y-30135055D01*
X37618116Y-30156666D01*
X37616884Y-30159640D01*
X37616883Y-30159641D01*
X37600424Y-30184275D01*
X37579475Y-30205224D01*
X37567075Y-30213509D01*
X37554840Y-30221684D01*
X37551866Y-30222916D01*
X37530255Y-30234467D01*
X37511313Y-30250013D01*
X37495768Y-30268954D01*
X37484217Y-30290565D01*
X37483600Y-30292599D01*
X37482983Y-30290565D01*
X37471432Y-30268954D01*
X37455886Y-30250012D01*
X37436945Y-30234467D01*
X37415334Y-30222916D01*
X37412360Y-30221684D01*
X37400125Y-30213509D01*
X37387725Y-30205224D01*
X37366776Y-30184275D01*
X37350317Y-30159641D01*
X37350316Y-30159640D01*
X37349084Y-30156666D01*
X37337533Y-30135055D01*
X37321987Y-30116113D01*
X37303046Y-30100568D01*
X37281435Y-30089017D01*
X37279401Y-30088400D01*
X37281435Y-30087783D01*
X37303046Y-30076232D01*
X37321988Y-30060686D01*
X37337533Y-30041745D01*
X37349084Y-30020134D01*
X37350316Y-30017160D01*
X37366775Y-29992527D01*
X37366776Y-29992525D01*
X37387725Y-29971576D01*
X37412359Y-29955117D01*
X37412360Y-29955116D01*
X37415334Y-29953884D01*
X37436945Y-29942333D01*
X37455887Y-29926787D01*
X37471432Y-29907846D01*
X37482983Y-29886235D01*
X37483600Y-29884201D01*
X37484217Y-29886235D01*
X37484217Y-29886235D01*
G37*
G36*
X38027471Y-29943779D02*
G01*
X38054839Y-29955115D01*
X38071189Y-29966040D01*
X38079475Y-29971576D01*
X38100424Y-29992525D01*
X38100425Y-29992527D01*
X38116884Y-30017160D01*
X38118116Y-30020134D01*
X38129667Y-30041745D01*
X38145213Y-30060687D01*
X38164154Y-30076232D01*
X38185765Y-30087783D01*
X38187799Y-30088400D01*
X38185765Y-30089017D01*
X38164154Y-30100568D01*
X38145212Y-30116114D01*
X38129667Y-30135055D01*
X38118116Y-30156666D01*
X38116884Y-30159640D01*
X38116883Y-30159641D01*
X38100424Y-30184275D01*
X38079475Y-30205224D01*
X38067075Y-30213509D01*
X38054840Y-30221684D01*
X38051866Y-30222916D01*
X38030255Y-30234467D01*
X38011313Y-30250013D01*
X37995768Y-30268954D01*
X37984217Y-30290565D01*
X37983600Y-30292599D01*
X37982983Y-30290565D01*
X37971432Y-30268954D01*
X37955886Y-30250012D01*
X37936945Y-30234467D01*
X37915334Y-30222916D01*
X37912360Y-30221684D01*
X37900125Y-30213509D01*
X37887725Y-30205224D01*
X37866776Y-30184275D01*
X37850317Y-30159641D01*
X37850316Y-30159640D01*
X37849084Y-30156666D01*
X37837533Y-30135055D01*
X37821987Y-30116113D01*
X37803046Y-30100568D01*
X37781435Y-30089017D01*
X37779401Y-30088400D01*
X37781435Y-30087783D01*
X37803046Y-30076232D01*
X37821988Y-30060686D01*
X37837533Y-30041745D01*
X37849084Y-30020134D01*
X37850316Y-30017160D01*
X37866775Y-29992527D01*
X37866776Y-29992525D01*
X37887725Y-29971576D01*
X37896011Y-29966040D01*
X37912361Y-29955115D01*
X37939729Y-29943779D01*
X37968785Y-29938000D01*
X37998415Y-29938000D01*
X38027471Y-29943779D01*
X38027471Y-29943779D01*
G37*
G36*
X38527471Y-29943779D02*
G01*
X38554839Y-29955115D01*
X38571189Y-29966040D01*
X38579475Y-29971576D01*
X38600424Y-29992525D01*
X38600425Y-29992527D01*
X38616884Y-30017160D01*
X38618116Y-30020134D01*
X38629667Y-30041745D01*
X38645213Y-30060687D01*
X38664154Y-30076232D01*
X38685765Y-30087783D01*
X38687799Y-30088400D01*
X38685765Y-30089017D01*
X38664154Y-30100568D01*
X38645212Y-30116114D01*
X38629667Y-30135055D01*
X38618116Y-30156666D01*
X38616884Y-30159640D01*
X38616883Y-30159641D01*
X38600424Y-30184275D01*
X38579475Y-30205224D01*
X38567075Y-30213509D01*
X38554840Y-30221684D01*
X38551866Y-30222916D01*
X38530255Y-30234467D01*
X38511313Y-30250013D01*
X38495768Y-30268954D01*
X38484217Y-30290565D01*
X38483600Y-30292599D01*
X38482983Y-30290565D01*
X38471432Y-30268954D01*
X38455886Y-30250012D01*
X38436945Y-30234467D01*
X38415334Y-30222916D01*
X38412360Y-30221684D01*
X38400125Y-30213509D01*
X38387725Y-30205224D01*
X38366776Y-30184275D01*
X38350317Y-30159641D01*
X38350316Y-30159640D01*
X38349084Y-30156666D01*
X38337533Y-30135055D01*
X38321987Y-30116113D01*
X38303046Y-30100568D01*
X38281435Y-30089017D01*
X38279401Y-30088400D01*
X38281435Y-30087783D01*
X38303046Y-30076232D01*
X38321988Y-30060686D01*
X38337533Y-30041745D01*
X38349084Y-30020134D01*
X38350316Y-30017160D01*
X38366775Y-29992527D01*
X38366776Y-29992525D01*
X38387725Y-29971576D01*
X38396011Y-29966040D01*
X38412361Y-29955115D01*
X38439729Y-29943779D01*
X38468785Y-29938000D01*
X38498415Y-29938000D01*
X38527471Y-29943779D01*
X38527471Y-29943779D01*
G37*
G36*
X39027471Y-29943779D02*
G01*
X39054839Y-29955115D01*
X39071189Y-29966040D01*
X39079475Y-29971576D01*
X39100424Y-29992525D01*
X39100425Y-29992527D01*
X39116884Y-30017160D01*
X39118116Y-30020134D01*
X39129667Y-30041745D01*
X39145213Y-30060687D01*
X39164154Y-30076232D01*
X39185765Y-30087783D01*
X39187799Y-30088400D01*
X39185765Y-30089017D01*
X39164154Y-30100568D01*
X39145212Y-30116114D01*
X39129667Y-30135055D01*
X39118116Y-30156666D01*
X39116884Y-30159640D01*
X39116883Y-30159641D01*
X39100424Y-30184275D01*
X39079475Y-30205224D01*
X39067075Y-30213509D01*
X39054840Y-30221684D01*
X39051866Y-30222916D01*
X39030255Y-30234467D01*
X39011313Y-30250013D01*
X38995768Y-30268954D01*
X38984217Y-30290565D01*
X38983600Y-30292599D01*
X38982983Y-30290565D01*
X38971432Y-30268954D01*
X38955886Y-30250012D01*
X38936945Y-30234467D01*
X38915334Y-30222916D01*
X38912360Y-30221684D01*
X38900125Y-30213509D01*
X38887725Y-30205224D01*
X38866776Y-30184275D01*
X38850317Y-30159641D01*
X38850316Y-30159640D01*
X38849084Y-30156666D01*
X38837533Y-30135055D01*
X38821987Y-30116113D01*
X38803046Y-30100568D01*
X38781435Y-30089017D01*
X38779401Y-30088400D01*
X38781435Y-30087783D01*
X38803046Y-30076232D01*
X38821988Y-30060686D01*
X38837533Y-30041745D01*
X38849084Y-30020134D01*
X38850316Y-30017160D01*
X38866775Y-29992527D01*
X38866776Y-29992525D01*
X38887725Y-29971576D01*
X38896011Y-29966040D01*
X38912361Y-29955115D01*
X38939729Y-29943779D01*
X38968785Y-29938000D01*
X38998415Y-29938000D01*
X39027471Y-29943779D01*
X39027471Y-29943779D01*
G37*
G36*
X39527471Y-29943779D02*
G01*
X39554839Y-29955115D01*
X39571189Y-29966040D01*
X39579475Y-29971576D01*
X39600424Y-29992525D01*
X39600425Y-29992527D01*
X39616884Y-30017160D01*
X39618116Y-30020134D01*
X39629667Y-30041745D01*
X39645213Y-30060687D01*
X39664154Y-30076232D01*
X39685765Y-30087783D01*
X39687799Y-30088400D01*
X39685765Y-30089017D01*
X39664154Y-30100568D01*
X39645212Y-30116114D01*
X39629667Y-30135055D01*
X39618116Y-30156666D01*
X39616884Y-30159640D01*
X39616883Y-30159641D01*
X39600424Y-30184275D01*
X39579475Y-30205224D01*
X39567075Y-30213509D01*
X39554840Y-30221684D01*
X39551866Y-30222916D01*
X39530255Y-30234467D01*
X39511313Y-30250013D01*
X39495768Y-30268954D01*
X39484217Y-30290565D01*
X39483600Y-30292599D01*
X39482983Y-30290565D01*
X39471432Y-30268954D01*
X39455886Y-30250012D01*
X39436945Y-30234467D01*
X39415334Y-30222916D01*
X39412360Y-30221684D01*
X39400125Y-30213509D01*
X39387725Y-30205224D01*
X39366776Y-30184275D01*
X39350317Y-30159641D01*
X39350316Y-30159640D01*
X39349084Y-30156666D01*
X39337533Y-30135055D01*
X39321987Y-30116113D01*
X39303046Y-30100568D01*
X39281435Y-30089017D01*
X39279401Y-30088400D01*
X39281435Y-30087783D01*
X39303046Y-30076232D01*
X39321988Y-30060686D01*
X39337533Y-30041745D01*
X39349084Y-30020134D01*
X39350316Y-30017160D01*
X39366775Y-29992527D01*
X39366776Y-29992525D01*
X39387725Y-29971576D01*
X39396011Y-29966040D01*
X39412361Y-29955115D01*
X39439729Y-29943779D01*
X39468785Y-29938000D01*
X39498415Y-29938000D01*
X39527471Y-29943779D01*
X39527471Y-29943779D01*
G37*
G36*
X40027471Y-29943779D02*
G01*
X40054839Y-29955115D01*
X40071189Y-29966040D01*
X40079475Y-29971576D01*
X40100424Y-29992525D01*
X40100425Y-29992527D01*
X40116884Y-30017160D01*
X40118116Y-30020134D01*
X40129667Y-30041745D01*
X40145213Y-30060687D01*
X40164154Y-30076232D01*
X40185765Y-30087783D01*
X40187799Y-30088400D01*
X40185765Y-30089017D01*
X40164154Y-30100568D01*
X40145212Y-30116114D01*
X40129667Y-30135055D01*
X40118116Y-30156666D01*
X40116884Y-30159640D01*
X40116883Y-30159641D01*
X40100424Y-30184275D01*
X40079475Y-30205224D01*
X40067075Y-30213509D01*
X40054840Y-30221684D01*
X40051866Y-30222916D01*
X40030255Y-30234467D01*
X40011313Y-30250013D01*
X39995768Y-30268954D01*
X39984217Y-30290565D01*
X39983600Y-30292599D01*
X39982983Y-30290565D01*
X39971432Y-30268954D01*
X39955886Y-30250012D01*
X39936945Y-30234467D01*
X39915334Y-30222916D01*
X39912360Y-30221684D01*
X39900125Y-30213509D01*
X39887725Y-30205224D01*
X39866776Y-30184275D01*
X39850317Y-30159641D01*
X39850316Y-30159640D01*
X39849084Y-30156666D01*
X39837533Y-30135055D01*
X39821987Y-30116113D01*
X39803046Y-30100568D01*
X39781435Y-30089017D01*
X39779401Y-30088400D01*
X39781435Y-30087783D01*
X39803046Y-30076232D01*
X39821988Y-30060686D01*
X39837533Y-30041745D01*
X39849084Y-30020134D01*
X39850316Y-30017160D01*
X39866775Y-29992527D01*
X39866776Y-29992525D01*
X39887725Y-29971576D01*
X39896011Y-29966040D01*
X39912361Y-29955115D01*
X39939729Y-29943779D01*
X39968785Y-29938000D01*
X39998415Y-29938000D01*
X40027471Y-29943779D01*
X40027471Y-29943779D01*
G37*
G36*
X41027471Y-29943779D02*
G01*
X41054839Y-29955115D01*
X41071189Y-29966040D01*
X41079475Y-29971576D01*
X41100424Y-29992525D01*
X41100425Y-29992527D01*
X41116884Y-30017160D01*
X41118116Y-30020134D01*
X41129667Y-30041745D01*
X41145213Y-30060687D01*
X41164154Y-30076232D01*
X41185765Y-30087783D01*
X41187799Y-30088400D01*
X41185765Y-30089017D01*
X41164154Y-30100568D01*
X41145212Y-30116114D01*
X41129667Y-30135055D01*
X41118116Y-30156666D01*
X41116884Y-30159640D01*
X41116883Y-30159641D01*
X41100424Y-30184275D01*
X41079475Y-30205224D01*
X41067075Y-30213509D01*
X41054840Y-30221684D01*
X41051866Y-30222916D01*
X41030255Y-30234467D01*
X41011313Y-30250013D01*
X40995768Y-30268954D01*
X40984217Y-30290565D01*
X40983600Y-30292599D01*
X40982983Y-30290565D01*
X40971432Y-30268954D01*
X40955886Y-30250012D01*
X40936945Y-30234467D01*
X40915334Y-30222916D01*
X40912360Y-30221684D01*
X40900125Y-30213509D01*
X40887725Y-30205224D01*
X40866776Y-30184275D01*
X40850317Y-30159641D01*
X40850316Y-30159640D01*
X40849084Y-30156666D01*
X40837533Y-30135055D01*
X40821987Y-30116113D01*
X40803046Y-30100568D01*
X40781435Y-30089017D01*
X40779401Y-30088400D01*
X40781435Y-30087783D01*
X40803046Y-30076232D01*
X40821988Y-30060686D01*
X40837533Y-30041745D01*
X40849084Y-30020134D01*
X40850316Y-30017160D01*
X40866775Y-29992527D01*
X40866776Y-29992525D01*
X40887725Y-29971576D01*
X40896011Y-29966040D01*
X40912361Y-29955115D01*
X40939729Y-29943779D01*
X40968785Y-29938000D01*
X40998415Y-29938000D01*
X41027471Y-29943779D01*
X41027471Y-29943779D01*
G37*
G36*
X41484217Y-29886235D02*
G01*
X41495768Y-29907846D01*
X41511314Y-29926788D01*
X41530255Y-29942333D01*
X41551866Y-29953884D01*
X41554840Y-29955116D01*
X41554841Y-29955117D01*
X41579475Y-29971576D01*
X41600424Y-29992525D01*
X41600425Y-29992527D01*
X41616884Y-30017160D01*
X41618116Y-30020134D01*
X41629667Y-30041745D01*
X41645213Y-30060687D01*
X41664154Y-30076232D01*
X41685765Y-30087783D01*
X41687799Y-30088400D01*
X41685765Y-30089017D01*
X41664154Y-30100568D01*
X41645212Y-30116114D01*
X41629667Y-30135055D01*
X41618116Y-30156666D01*
X41616884Y-30159640D01*
X41616883Y-30159641D01*
X41600424Y-30184275D01*
X41579475Y-30205224D01*
X41567075Y-30213509D01*
X41554840Y-30221684D01*
X41551866Y-30222916D01*
X41530255Y-30234467D01*
X41511313Y-30250013D01*
X41495768Y-30268954D01*
X41484217Y-30290565D01*
X41483600Y-30292599D01*
X41482983Y-30290565D01*
X41471432Y-30268954D01*
X41455886Y-30250012D01*
X41436945Y-30234467D01*
X41415334Y-30222916D01*
X41412360Y-30221684D01*
X41400125Y-30213509D01*
X41387725Y-30205224D01*
X41366776Y-30184275D01*
X41350317Y-30159641D01*
X41350316Y-30159640D01*
X41349084Y-30156666D01*
X41337533Y-30135055D01*
X41321987Y-30116113D01*
X41303046Y-30100568D01*
X41281435Y-30089017D01*
X41279401Y-30088400D01*
X41281435Y-30087783D01*
X41303046Y-30076232D01*
X41321988Y-30060686D01*
X41337533Y-30041745D01*
X41349084Y-30020134D01*
X41350316Y-30017160D01*
X41366775Y-29992527D01*
X41366776Y-29992525D01*
X41387725Y-29971576D01*
X41412359Y-29955117D01*
X41412360Y-29955116D01*
X41415334Y-29953884D01*
X41436945Y-29942333D01*
X41455887Y-29926787D01*
X41471432Y-29907846D01*
X41482983Y-29886235D01*
X41483600Y-29884201D01*
X41484217Y-29886235D01*
X41484217Y-29886235D01*
G37*
G36*
X41984217Y-29886235D02*
G01*
X41995768Y-29907846D01*
X42011314Y-29926788D01*
X42030255Y-29942333D01*
X42051866Y-29953884D01*
X42054840Y-29955116D01*
X42054841Y-29955117D01*
X42079475Y-29971576D01*
X42100424Y-29992525D01*
X42100425Y-29992527D01*
X42116885Y-30017161D01*
X42128221Y-30044529D01*
X42134000Y-30073585D01*
X42134000Y-30103215D01*
X42128221Y-30132271D01*
X42116885Y-30159639D01*
X42105960Y-30175989D01*
X42100424Y-30184275D01*
X42079475Y-30205224D01*
X42067075Y-30213509D01*
X42054840Y-30221684D01*
X42051866Y-30222916D01*
X42030255Y-30234467D01*
X42011313Y-30250013D01*
X41995768Y-30268954D01*
X41984217Y-30290565D01*
X41983600Y-30292599D01*
X41982983Y-30290565D01*
X41971432Y-30268954D01*
X41955886Y-30250012D01*
X41936945Y-30234467D01*
X41915334Y-30222916D01*
X41912360Y-30221684D01*
X41900125Y-30213509D01*
X41887725Y-30205224D01*
X41866776Y-30184275D01*
X41850317Y-30159641D01*
X41850316Y-30159640D01*
X41849084Y-30156666D01*
X41837533Y-30135055D01*
X41821987Y-30116113D01*
X41803046Y-30100568D01*
X41781435Y-30089017D01*
X41779401Y-30088400D01*
X41781435Y-30087783D01*
X41803046Y-30076232D01*
X41821988Y-30060686D01*
X41837533Y-30041745D01*
X41849084Y-30020134D01*
X41850316Y-30017160D01*
X41866775Y-29992527D01*
X41866776Y-29992525D01*
X41887725Y-29971576D01*
X41912359Y-29955117D01*
X41912360Y-29955116D01*
X41915334Y-29953884D01*
X41936945Y-29942333D01*
X41955887Y-29926787D01*
X41971432Y-29907846D01*
X41982983Y-29886235D01*
X41983600Y-29884201D01*
X41984217Y-29886235D01*
X41984217Y-29886235D01*
G37*
G36*
X35234400Y-30068400D02*
G01*
X34553600Y-30068400D01*
X34553600Y-28600400D01*
X35234400Y-28600400D01*
X35234400Y-30068400D01*
X35234400Y-30068400D01*
G37*
G36*
X41984217Y-29386235D02*
G01*
X41995768Y-29407846D01*
X42011314Y-29426788D01*
X42030255Y-29442333D01*
X42051866Y-29453884D01*
X42054840Y-29455116D01*
X42054841Y-29455117D01*
X42079475Y-29471576D01*
X42100424Y-29492525D01*
X42100425Y-29492527D01*
X42116885Y-29517161D01*
X42128221Y-29544529D01*
X42134000Y-29573585D01*
X42134000Y-29603215D01*
X42128221Y-29632271D01*
X42116885Y-29659639D01*
X42105960Y-29675989D01*
X42100424Y-29684275D01*
X42079475Y-29705224D01*
X42067075Y-29713509D01*
X42054840Y-29721684D01*
X42051866Y-29722916D01*
X42030255Y-29734467D01*
X42011313Y-29750013D01*
X41995768Y-29768954D01*
X41984217Y-29790565D01*
X41983600Y-29792599D01*
X41982983Y-29790565D01*
X41971432Y-29768954D01*
X41955886Y-29750012D01*
X41936945Y-29734467D01*
X41915334Y-29722916D01*
X41912360Y-29721684D01*
X41900125Y-29713509D01*
X41887725Y-29705224D01*
X41866776Y-29684275D01*
X41850317Y-29659641D01*
X41850316Y-29659640D01*
X41849084Y-29656666D01*
X41837533Y-29635055D01*
X41821987Y-29616113D01*
X41803046Y-29600568D01*
X41781435Y-29589017D01*
X41779401Y-29588400D01*
X41781435Y-29587783D01*
X41803046Y-29576232D01*
X41821988Y-29560686D01*
X41837533Y-29541745D01*
X41849084Y-29520134D01*
X41850316Y-29517160D01*
X41866775Y-29492527D01*
X41866776Y-29492525D01*
X41887725Y-29471576D01*
X41912359Y-29455117D01*
X41912360Y-29455116D01*
X41915334Y-29453884D01*
X41936945Y-29442333D01*
X41955887Y-29426787D01*
X41971432Y-29407846D01*
X41982983Y-29386235D01*
X41983600Y-29384201D01*
X41984217Y-29386235D01*
X41984217Y-29386235D01*
G37*
G36*
X36984217Y-29386235D02*
G01*
X36995768Y-29407846D01*
X37011314Y-29426788D01*
X37030255Y-29442333D01*
X37051866Y-29453884D01*
X37054840Y-29455116D01*
X37054841Y-29455117D01*
X37079475Y-29471576D01*
X37100424Y-29492525D01*
X37100425Y-29492527D01*
X37116884Y-29517160D01*
X37118116Y-29520134D01*
X37129667Y-29541745D01*
X37145213Y-29560687D01*
X37164154Y-29576232D01*
X37185765Y-29587783D01*
X37187799Y-29588400D01*
X37185765Y-29589017D01*
X37164154Y-29600568D01*
X37145212Y-29616114D01*
X37129667Y-29635055D01*
X37118116Y-29656666D01*
X37116884Y-29659640D01*
X37116883Y-29659641D01*
X37100424Y-29684275D01*
X37079475Y-29705224D01*
X37067075Y-29713509D01*
X37054840Y-29721684D01*
X37051866Y-29722916D01*
X37030255Y-29734467D01*
X37011313Y-29750013D01*
X36995768Y-29768954D01*
X36984217Y-29790565D01*
X36983600Y-29792599D01*
X36982983Y-29790565D01*
X36971432Y-29768954D01*
X36955886Y-29750012D01*
X36936945Y-29734467D01*
X36915334Y-29722916D01*
X36912360Y-29721684D01*
X36900125Y-29713509D01*
X36887725Y-29705224D01*
X36866776Y-29684275D01*
X36861240Y-29675989D01*
X36850315Y-29659639D01*
X36838979Y-29632271D01*
X36833200Y-29603215D01*
X36833200Y-29573585D01*
X36838979Y-29544529D01*
X36850315Y-29517161D01*
X36866775Y-29492527D01*
X36866776Y-29492525D01*
X36887725Y-29471576D01*
X36912359Y-29455117D01*
X36912360Y-29455116D01*
X36915334Y-29453884D01*
X36936945Y-29442333D01*
X36955887Y-29426787D01*
X36971432Y-29407846D01*
X36982983Y-29386235D01*
X36983600Y-29384201D01*
X36984217Y-29386235D01*
X36984217Y-29386235D01*
G37*
G36*
X37484217Y-29386235D02*
G01*
X37495768Y-29407846D01*
X37511314Y-29426788D01*
X37530255Y-29442333D01*
X37551866Y-29453884D01*
X37554840Y-29455116D01*
X37554841Y-29455117D01*
X37579475Y-29471576D01*
X37600424Y-29492525D01*
X37600425Y-29492527D01*
X37616885Y-29517161D01*
X37628221Y-29544529D01*
X37634000Y-29573585D01*
X37634000Y-29603215D01*
X37628221Y-29632271D01*
X37616885Y-29659639D01*
X37605960Y-29675989D01*
X37600424Y-29684275D01*
X37579475Y-29705224D01*
X37567075Y-29713509D01*
X37554840Y-29721684D01*
X37551866Y-29722916D01*
X37530255Y-29734467D01*
X37511313Y-29750013D01*
X37495768Y-29768954D01*
X37484217Y-29790565D01*
X37483600Y-29792599D01*
X37482983Y-29790565D01*
X37471432Y-29768954D01*
X37455886Y-29750012D01*
X37436945Y-29734467D01*
X37415334Y-29722916D01*
X37412360Y-29721684D01*
X37400125Y-29713509D01*
X37387725Y-29705224D01*
X37366776Y-29684275D01*
X37350317Y-29659641D01*
X37350316Y-29659640D01*
X37349084Y-29656666D01*
X37337533Y-29635055D01*
X37321987Y-29616113D01*
X37303046Y-29600568D01*
X37281435Y-29589017D01*
X37279401Y-29588400D01*
X37281435Y-29587783D01*
X37303046Y-29576232D01*
X37321988Y-29560686D01*
X37337533Y-29541745D01*
X37349084Y-29520134D01*
X37350316Y-29517160D01*
X37366775Y-29492527D01*
X37366776Y-29492525D01*
X37387725Y-29471576D01*
X37412359Y-29455117D01*
X37412360Y-29455116D01*
X37415334Y-29453884D01*
X37436945Y-29442333D01*
X37455887Y-29426787D01*
X37471432Y-29407846D01*
X37482983Y-29386235D01*
X37483600Y-29384201D01*
X37484217Y-29386235D01*
X37484217Y-29386235D01*
G37*
G36*
X41484217Y-29386235D02*
G01*
X41495768Y-29407846D01*
X41511314Y-29426788D01*
X41530255Y-29442333D01*
X41551866Y-29453884D01*
X41554840Y-29455116D01*
X41554841Y-29455117D01*
X41579475Y-29471576D01*
X41600424Y-29492525D01*
X41600425Y-29492527D01*
X41616884Y-29517160D01*
X41618116Y-29520134D01*
X41629667Y-29541745D01*
X41645213Y-29560687D01*
X41664154Y-29576232D01*
X41685765Y-29587783D01*
X41687799Y-29588400D01*
X41685765Y-29589017D01*
X41664154Y-29600568D01*
X41645212Y-29616114D01*
X41629667Y-29635055D01*
X41618116Y-29656666D01*
X41616884Y-29659640D01*
X41616883Y-29659641D01*
X41600424Y-29684275D01*
X41579475Y-29705224D01*
X41567075Y-29713509D01*
X41554840Y-29721684D01*
X41551866Y-29722916D01*
X41530255Y-29734467D01*
X41511313Y-29750013D01*
X41495768Y-29768954D01*
X41484217Y-29790565D01*
X41483600Y-29792599D01*
X41482983Y-29790565D01*
X41471432Y-29768954D01*
X41455886Y-29750012D01*
X41436945Y-29734467D01*
X41415334Y-29722916D01*
X41412360Y-29721684D01*
X41400125Y-29713509D01*
X41387725Y-29705224D01*
X41366776Y-29684275D01*
X41361240Y-29675989D01*
X41350315Y-29659639D01*
X41338979Y-29632271D01*
X41333200Y-29603215D01*
X41333200Y-29573585D01*
X41338979Y-29544529D01*
X41350315Y-29517161D01*
X41366775Y-29492527D01*
X41366776Y-29492525D01*
X41387725Y-29471576D01*
X41412359Y-29455117D01*
X41412360Y-29455116D01*
X41415334Y-29453884D01*
X41436945Y-29442333D01*
X41455887Y-29426787D01*
X41471432Y-29407846D01*
X41482983Y-29386235D01*
X41483600Y-29384201D01*
X41484217Y-29386235D01*
X41484217Y-29386235D01*
G37*
G36*
X41984217Y-28886235D02*
G01*
X41995768Y-28907846D01*
X42011314Y-28926788D01*
X42030255Y-28942333D01*
X42051866Y-28953884D01*
X42054840Y-28955116D01*
X42054841Y-28955117D01*
X42079475Y-28971576D01*
X42100424Y-28992525D01*
X42100425Y-28992527D01*
X42116885Y-29017161D01*
X42128221Y-29044529D01*
X42134000Y-29073585D01*
X42134000Y-29103215D01*
X42128221Y-29132271D01*
X42116885Y-29159639D01*
X42105960Y-29175989D01*
X42100424Y-29184275D01*
X42079475Y-29205224D01*
X42067075Y-29213509D01*
X42054840Y-29221684D01*
X42051866Y-29222916D01*
X42030255Y-29234467D01*
X42011313Y-29250013D01*
X41995768Y-29268954D01*
X41984217Y-29290565D01*
X41983600Y-29292599D01*
X41982983Y-29290565D01*
X41971432Y-29268954D01*
X41955886Y-29250012D01*
X41936945Y-29234467D01*
X41915334Y-29222916D01*
X41912360Y-29221684D01*
X41900125Y-29213509D01*
X41887725Y-29205224D01*
X41866776Y-29184275D01*
X41850317Y-29159641D01*
X41850316Y-29159640D01*
X41849084Y-29156666D01*
X41837533Y-29135055D01*
X41821987Y-29116113D01*
X41803046Y-29100568D01*
X41781435Y-29089017D01*
X41779401Y-29088400D01*
X41781435Y-29087783D01*
X41803046Y-29076232D01*
X41821988Y-29060686D01*
X41837533Y-29041745D01*
X41849084Y-29020134D01*
X41850316Y-29017160D01*
X41866775Y-28992527D01*
X41866776Y-28992525D01*
X41887725Y-28971576D01*
X41912359Y-28955117D01*
X41912360Y-28955116D01*
X41915334Y-28953884D01*
X41936945Y-28942333D01*
X41955887Y-28926787D01*
X41971432Y-28907846D01*
X41982983Y-28886235D01*
X41983600Y-28884201D01*
X41984217Y-28886235D01*
X41984217Y-28886235D01*
G37*
G36*
X41484217Y-28886235D02*
G01*
X41495768Y-28907846D01*
X41511314Y-28926788D01*
X41530255Y-28942333D01*
X41551866Y-28953884D01*
X41554840Y-28955116D01*
X41554841Y-28955117D01*
X41579475Y-28971576D01*
X41600424Y-28992525D01*
X41600425Y-28992527D01*
X41616884Y-29017160D01*
X41618116Y-29020134D01*
X41629667Y-29041745D01*
X41645213Y-29060687D01*
X41664154Y-29076232D01*
X41685765Y-29087783D01*
X41687799Y-29088400D01*
X41685765Y-29089017D01*
X41664154Y-29100568D01*
X41645212Y-29116114D01*
X41629667Y-29135055D01*
X41618116Y-29156666D01*
X41616884Y-29159640D01*
X41616883Y-29159641D01*
X41600424Y-29184275D01*
X41579475Y-29205224D01*
X41567075Y-29213509D01*
X41554840Y-29221684D01*
X41551866Y-29222916D01*
X41530255Y-29234467D01*
X41511313Y-29250013D01*
X41495768Y-29268954D01*
X41484217Y-29290565D01*
X41483600Y-29292599D01*
X41482983Y-29290565D01*
X41471432Y-29268954D01*
X41455886Y-29250012D01*
X41436945Y-29234467D01*
X41415334Y-29222916D01*
X41412360Y-29221684D01*
X41400125Y-29213509D01*
X41387725Y-29205224D01*
X41366776Y-29184275D01*
X41361240Y-29175989D01*
X41350315Y-29159639D01*
X41338979Y-29132271D01*
X41333200Y-29103215D01*
X41333200Y-29073585D01*
X41338979Y-29044529D01*
X41350315Y-29017161D01*
X41366775Y-28992527D01*
X41366776Y-28992525D01*
X41387725Y-28971576D01*
X41412359Y-28955117D01*
X41412360Y-28955116D01*
X41415334Y-28953884D01*
X41436945Y-28942333D01*
X41455887Y-28926787D01*
X41471432Y-28907846D01*
X41482983Y-28886235D01*
X41483600Y-28884201D01*
X41484217Y-28886235D01*
X41484217Y-28886235D01*
G37*
G36*
X37484217Y-28886235D02*
G01*
X37495768Y-28907846D01*
X37511314Y-28926788D01*
X37530255Y-28942333D01*
X37551866Y-28953884D01*
X37554840Y-28955116D01*
X37554841Y-28955117D01*
X37579475Y-28971576D01*
X37600424Y-28992525D01*
X37600425Y-28992527D01*
X37616885Y-29017161D01*
X37628221Y-29044529D01*
X37634000Y-29073585D01*
X37634000Y-29103215D01*
X37628221Y-29132271D01*
X37616885Y-29159639D01*
X37605960Y-29175989D01*
X37600424Y-29184275D01*
X37579475Y-29205224D01*
X37567075Y-29213509D01*
X37554840Y-29221684D01*
X37551866Y-29222916D01*
X37530255Y-29234467D01*
X37511313Y-29250013D01*
X37495768Y-29268954D01*
X37484217Y-29290565D01*
X37483600Y-29292599D01*
X37482983Y-29290565D01*
X37471432Y-29268954D01*
X37455886Y-29250012D01*
X37436945Y-29234467D01*
X37415334Y-29222916D01*
X37412360Y-29221684D01*
X37400125Y-29213509D01*
X37387725Y-29205224D01*
X37366776Y-29184275D01*
X37350317Y-29159641D01*
X37350316Y-29159640D01*
X37349084Y-29156666D01*
X37337533Y-29135055D01*
X37321987Y-29116113D01*
X37303046Y-29100568D01*
X37281435Y-29089017D01*
X37279401Y-29088400D01*
X37281435Y-29087783D01*
X37303046Y-29076232D01*
X37321988Y-29060686D01*
X37337533Y-29041745D01*
X37349084Y-29020134D01*
X37350316Y-29017160D01*
X37366775Y-28992527D01*
X37366776Y-28992525D01*
X37387725Y-28971576D01*
X37412359Y-28955117D01*
X37412360Y-28955116D01*
X37415334Y-28953884D01*
X37436945Y-28942333D01*
X37455887Y-28926787D01*
X37471432Y-28907846D01*
X37482983Y-28886235D01*
X37483600Y-28884201D01*
X37484217Y-28886235D01*
X37484217Y-28886235D01*
G37*
G36*
X36984217Y-28886235D02*
G01*
X36995768Y-28907846D01*
X37011314Y-28926788D01*
X37030255Y-28942333D01*
X37051866Y-28953884D01*
X37054840Y-28955116D01*
X37054841Y-28955117D01*
X37079475Y-28971576D01*
X37100424Y-28992525D01*
X37100425Y-28992527D01*
X37116884Y-29017160D01*
X37118116Y-29020134D01*
X37129667Y-29041745D01*
X37145213Y-29060687D01*
X37164154Y-29076232D01*
X37185765Y-29087783D01*
X37187799Y-29088400D01*
X37185765Y-29089017D01*
X37164154Y-29100568D01*
X37145212Y-29116114D01*
X37129667Y-29135055D01*
X37118116Y-29156666D01*
X37116884Y-29159640D01*
X37116883Y-29159641D01*
X37100424Y-29184275D01*
X37079475Y-29205224D01*
X37067075Y-29213509D01*
X37054840Y-29221684D01*
X37051866Y-29222916D01*
X37030255Y-29234467D01*
X37011313Y-29250013D01*
X36995768Y-29268954D01*
X36984217Y-29290565D01*
X36983600Y-29292599D01*
X36982983Y-29290565D01*
X36971432Y-29268954D01*
X36955886Y-29250012D01*
X36936945Y-29234467D01*
X36915334Y-29222916D01*
X36912360Y-29221684D01*
X36900125Y-29213509D01*
X36887725Y-29205224D01*
X36866776Y-29184275D01*
X36861240Y-29175989D01*
X36850315Y-29159639D01*
X36838979Y-29132271D01*
X36833200Y-29103215D01*
X36833200Y-29073585D01*
X36838979Y-29044529D01*
X36850315Y-29017161D01*
X36866775Y-28992527D01*
X36866776Y-28992525D01*
X36887725Y-28971576D01*
X36912359Y-28955117D01*
X36912360Y-28955116D01*
X36915334Y-28953884D01*
X36936945Y-28942333D01*
X36955887Y-28926787D01*
X36971432Y-28907846D01*
X36982983Y-28886235D01*
X36983600Y-28884201D01*
X36984217Y-28886235D01*
X36984217Y-28886235D01*
G37*
G36*
X37484217Y-28386235D02*
G01*
X37495768Y-28407846D01*
X37511314Y-28426788D01*
X37530255Y-28442333D01*
X37551866Y-28453884D01*
X37554840Y-28455116D01*
X37554841Y-28455117D01*
X37579475Y-28471576D01*
X37600424Y-28492525D01*
X37600425Y-28492527D01*
X37616885Y-28517161D01*
X37628221Y-28544529D01*
X37634000Y-28573585D01*
X37634000Y-28603215D01*
X37628221Y-28632271D01*
X37616885Y-28659639D01*
X37605960Y-28675989D01*
X37600424Y-28684275D01*
X37579475Y-28705224D01*
X37567075Y-28713509D01*
X37554840Y-28721684D01*
X37551866Y-28722916D01*
X37530255Y-28734467D01*
X37511313Y-28750013D01*
X37495768Y-28768954D01*
X37484217Y-28790565D01*
X37483600Y-28792599D01*
X37482983Y-28790565D01*
X37471432Y-28768954D01*
X37455886Y-28750012D01*
X37436945Y-28734467D01*
X37415334Y-28722916D01*
X37412360Y-28721684D01*
X37400125Y-28713509D01*
X37387725Y-28705224D01*
X37366776Y-28684275D01*
X37350317Y-28659641D01*
X37350316Y-28659640D01*
X37349084Y-28656666D01*
X37337533Y-28635055D01*
X37321987Y-28616113D01*
X37303046Y-28600568D01*
X37281435Y-28589017D01*
X37279401Y-28588400D01*
X37281435Y-28587783D01*
X37303046Y-28576232D01*
X37321988Y-28560686D01*
X37337533Y-28541745D01*
X37349084Y-28520134D01*
X37350316Y-28517160D01*
X37366775Y-28492527D01*
X37366776Y-28492525D01*
X37387725Y-28471576D01*
X37412359Y-28455117D01*
X37412360Y-28455116D01*
X37415334Y-28453884D01*
X37436945Y-28442333D01*
X37455887Y-28426787D01*
X37471432Y-28407846D01*
X37482983Y-28386235D01*
X37483600Y-28384201D01*
X37484217Y-28386235D01*
X37484217Y-28386235D01*
G37*
G36*
X41484217Y-28386235D02*
G01*
X41495768Y-28407846D01*
X41511314Y-28426788D01*
X41530255Y-28442333D01*
X41551866Y-28453884D01*
X41554840Y-28455116D01*
X41554841Y-28455117D01*
X41579475Y-28471576D01*
X41600424Y-28492525D01*
X41600425Y-28492527D01*
X41616884Y-28517160D01*
X41618116Y-28520134D01*
X41629667Y-28541745D01*
X41645213Y-28560687D01*
X41664154Y-28576232D01*
X41685765Y-28587783D01*
X41687799Y-28588400D01*
X41685765Y-28589017D01*
X41664154Y-28600568D01*
X41645212Y-28616114D01*
X41629667Y-28635055D01*
X41618116Y-28656666D01*
X41616884Y-28659640D01*
X41616883Y-28659641D01*
X41600424Y-28684275D01*
X41579475Y-28705224D01*
X41567075Y-28713509D01*
X41554840Y-28721684D01*
X41551866Y-28722916D01*
X41530255Y-28734467D01*
X41511313Y-28750013D01*
X41495768Y-28768954D01*
X41484217Y-28790565D01*
X41483600Y-28792599D01*
X41482983Y-28790565D01*
X41471432Y-28768954D01*
X41455886Y-28750012D01*
X41436945Y-28734467D01*
X41415334Y-28722916D01*
X41412360Y-28721684D01*
X41400125Y-28713509D01*
X41387725Y-28705224D01*
X41366776Y-28684275D01*
X41361240Y-28675989D01*
X41350315Y-28659639D01*
X41338979Y-28632271D01*
X41333200Y-28603215D01*
X41333200Y-28573585D01*
X41338979Y-28544529D01*
X41350315Y-28517161D01*
X41366775Y-28492527D01*
X41366776Y-28492525D01*
X41387725Y-28471576D01*
X41412359Y-28455117D01*
X41412360Y-28455116D01*
X41415334Y-28453884D01*
X41436945Y-28442333D01*
X41455887Y-28426787D01*
X41471432Y-28407846D01*
X41482983Y-28386235D01*
X41483600Y-28384201D01*
X41484217Y-28386235D01*
X41484217Y-28386235D01*
G37*
G36*
X36984217Y-28386235D02*
G01*
X36995768Y-28407846D01*
X37011314Y-28426788D01*
X37030255Y-28442333D01*
X37051866Y-28453884D01*
X37054840Y-28455116D01*
X37054841Y-28455117D01*
X37079475Y-28471576D01*
X37100424Y-28492525D01*
X37100425Y-28492527D01*
X37116884Y-28517160D01*
X37118116Y-28520134D01*
X37129667Y-28541745D01*
X37145213Y-28560687D01*
X37164154Y-28576232D01*
X37185765Y-28587783D01*
X37187799Y-28588400D01*
X37185765Y-28589017D01*
X37164154Y-28600568D01*
X37145212Y-28616114D01*
X37129667Y-28635055D01*
X37118116Y-28656666D01*
X37116884Y-28659640D01*
X37116883Y-28659641D01*
X37100424Y-28684275D01*
X37079475Y-28705224D01*
X37067075Y-28713509D01*
X37054840Y-28721684D01*
X37051866Y-28722916D01*
X37030255Y-28734467D01*
X37011313Y-28750013D01*
X36995768Y-28768954D01*
X36984217Y-28790565D01*
X36983600Y-28792599D01*
X36982983Y-28790565D01*
X36971432Y-28768954D01*
X36955886Y-28750012D01*
X36936945Y-28734467D01*
X36915334Y-28722916D01*
X36912360Y-28721684D01*
X36900125Y-28713509D01*
X36887725Y-28705224D01*
X36866776Y-28684275D01*
X36861240Y-28675989D01*
X36850315Y-28659639D01*
X36838979Y-28632271D01*
X36833200Y-28603215D01*
X36833200Y-28573585D01*
X36838979Y-28544529D01*
X36850315Y-28517161D01*
X36866775Y-28492527D01*
X36866776Y-28492525D01*
X36887725Y-28471576D01*
X36912359Y-28455117D01*
X36912360Y-28455116D01*
X36915334Y-28453884D01*
X36936945Y-28442333D01*
X36955887Y-28426787D01*
X36971432Y-28407846D01*
X36982983Y-28386235D01*
X36983600Y-28384201D01*
X36984217Y-28386235D01*
X36984217Y-28386235D01*
G37*
G36*
X41984217Y-28386235D02*
G01*
X41995768Y-28407846D01*
X42011314Y-28426788D01*
X42030255Y-28442333D01*
X42051866Y-28453884D01*
X42054840Y-28455116D01*
X42054841Y-28455117D01*
X42079475Y-28471576D01*
X42100424Y-28492525D01*
X42100425Y-28492527D01*
X42116885Y-28517161D01*
X42128221Y-28544529D01*
X42134000Y-28573585D01*
X42134000Y-28603215D01*
X42128221Y-28632271D01*
X42116885Y-28659639D01*
X42105960Y-28675989D01*
X42100424Y-28684275D01*
X42079475Y-28705224D01*
X42067075Y-28713509D01*
X42054840Y-28721684D01*
X42051866Y-28722916D01*
X42030255Y-28734467D01*
X42011313Y-28750013D01*
X41995768Y-28768954D01*
X41984217Y-28790565D01*
X41983600Y-28792599D01*
X41982983Y-28790565D01*
X41971432Y-28768954D01*
X41955886Y-28750012D01*
X41936945Y-28734467D01*
X41915334Y-28722916D01*
X41912360Y-28721684D01*
X41900125Y-28713509D01*
X41887725Y-28705224D01*
X41866776Y-28684275D01*
X41850317Y-28659641D01*
X41850316Y-28659640D01*
X41849084Y-28656666D01*
X41837533Y-28635055D01*
X41821987Y-28616113D01*
X41803046Y-28600568D01*
X41781435Y-28589017D01*
X41779401Y-28588400D01*
X41781435Y-28587783D01*
X41803046Y-28576232D01*
X41821988Y-28560686D01*
X41837533Y-28541745D01*
X41849084Y-28520134D01*
X41850316Y-28517160D01*
X41866775Y-28492527D01*
X41866776Y-28492525D01*
X41887725Y-28471576D01*
X41912359Y-28455117D01*
X41912360Y-28455116D01*
X41915334Y-28453884D01*
X41936945Y-28442333D01*
X41955887Y-28426787D01*
X41971432Y-28407846D01*
X41982983Y-28386235D01*
X41983600Y-28384201D01*
X41984217Y-28386235D01*
X41984217Y-28386235D01*
G37*
G36*
X34937000Y-27585401D02*
G01*
X34939402Y-27609787D01*
X34946515Y-27633236D01*
X34958066Y-27654847D01*
X34973611Y-27673789D01*
X34992553Y-27689334D01*
X35014164Y-27700885D01*
X35037613Y-27707998D01*
X35061999Y-27710400D01*
X35234400Y-27710400D01*
X35234400Y-28341200D01*
X34553600Y-28341200D01*
X34553600Y-27679599D01*
X34551198Y-27655213D01*
X34546200Y-27638736D01*
X34546200Y-26643800D01*
X34937000Y-26643800D01*
X34937000Y-27585401D01*
X34937000Y-27585401D01*
G37*
G36*
X37484217Y-27886235D02*
G01*
X37495768Y-27907846D01*
X37511314Y-27926788D01*
X37530255Y-27942333D01*
X37551866Y-27953884D01*
X37554840Y-27955116D01*
X37554841Y-27955117D01*
X37579475Y-27971576D01*
X37600424Y-27992525D01*
X37600425Y-27992527D01*
X37616884Y-28017160D01*
X37618116Y-28020134D01*
X37629667Y-28041745D01*
X37645213Y-28060687D01*
X37664154Y-28076232D01*
X37685765Y-28087783D01*
X37687799Y-28088400D01*
X37685765Y-28089017D01*
X37664154Y-28100568D01*
X37645212Y-28116114D01*
X37629667Y-28135055D01*
X37618116Y-28156666D01*
X37616884Y-28159640D01*
X37616883Y-28159641D01*
X37600424Y-28184275D01*
X37579475Y-28205224D01*
X37567075Y-28213509D01*
X37554840Y-28221684D01*
X37551866Y-28222916D01*
X37530255Y-28234467D01*
X37511313Y-28250013D01*
X37495768Y-28268954D01*
X37484217Y-28290565D01*
X37483600Y-28292599D01*
X37482983Y-28290565D01*
X37471432Y-28268954D01*
X37455886Y-28250012D01*
X37436945Y-28234467D01*
X37415334Y-28222916D01*
X37412360Y-28221684D01*
X37400125Y-28213509D01*
X37387725Y-28205224D01*
X37366776Y-28184275D01*
X37350317Y-28159641D01*
X37350316Y-28159640D01*
X37349084Y-28156666D01*
X37337533Y-28135055D01*
X37321987Y-28116113D01*
X37303046Y-28100568D01*
X37281435Y-28089017D01*
X37279401Y-28088400D01*
X37281435Y-28087783D01*
X37303046Y-28076232D01*
X37321988Y-28060686D01*
X37337533Y-28041745D01*
X37349084Y-28020134D01*
X37350316Y-28017160D01*
X37366775Y-27992527D01*
X37366776Y-27992525D01*
X37387725Y-27971576D01*
X37412359Y-27955117D01*
X37412360Y-27955116D01*
X37415334Y-27953884D01*
X37436945Y-27942333D01*
X37455887Y-27926787D01*
X37471432Y-27907846D01*
X37482983Y-27886235D01*
X37483600Y-27884201D01*
X37484217Y-27886235D01*
X37484217Y-27886235D01*
G37*
G36*
X36984217Y-27886235D02*
G01*
X36995768Y-27907846D01*
X37011314Y-27926788D01*
X37030255Y-27942333D01*
X37051866Y-27953884D01*
X37054840Y-27955116D01*
X37054841Y-27955117D01*
X37079475Y-27971576D01*
X37100424Y-27992525D01*
X37100425Y-27992527D01*
X37116884Y-28017160D01*
X37118116Y-28020134D01*
X37129667Y-28041745D01*
X37145213Y-28060687D01*
X37164154Y-28076232D01*
X37185765Y-28087783D01*
X37187799Y-28088400D01*
X37185765Y-28089017D01*
X37164154Y-28100568D01*
X37145212Y-28116114D01*
X37129667Y-28135055D01*
X37118116Y-28156666D01*
X37116884Y-28159640D01*
X37116883Y-28159641D01*
X37100424Y-28184275D01*
X37079475Y-28205224D01*
X37067075Y-28213509D01*
X37054840Y-28221684D01*
X37051866Y-28222916D01*
X37030255Y-28234467D01*
X37011313Y-28250013D01*
X36995768Y-28268954D01*
X36984217Y-28290565D01*
X36983600Y-28292599D01*
X36982983Y-28290565D01*
X36971432Y-28268954D01*
X36955886Y-28250012D01*
X36936945Y-28234467D01*
X36915334Y-28222916D01*
X36912360Y-28221684D01*
X36900125Y-28213509D01*
X36887725Y-28205224D01*
X36866776Y-28184275D01*
X36861240Y-28175989D01*
X36850315Y-28159639D01*
X36838979Y-28132271D01*
X36833200Y-28103215D01*
X36833200Y-28073585D01*
X36838979Y-28044529D01*
X36850315Y-28017161D01*
X36866775Y-27992527D01*
X36866776Y-27992525D01*
X36887725Y-27971576D01*
X36912359Y-27955117D01*
X36912360Y-27955116D01*
X36915334Y-27953884D01*
X36936945Y-27942333D01*
X36955887Y-27926787D01*
X36971432Y-27907846D01*
X36982983Y-27886235D01*
X36983600Y-27884201D01*
X36984217Y-27886235D01*
X36984217Y-27886235D01*
G37*
G36*
X41484217Y-27886235D02*
G01*
X41495768Y-27907846D01*
X41511314Y-27926788D01*
X41530255Y-27942333D01*
X41551866Y-27953884D01*
X41554840Y-27955116D01*
X41554841Y-27955117D01*
X41579475Y-27971576D01*
X41600424Y-27992525D01*
X41600425Y-27992527D01*
X41616884Y-28017160D01*
X41618116Y-28020134D01*
X41629667Y-28041745D01*
X41645213Y-28060687D01*
X41664154Y-28076232D01*
X41685765Y-28087783D01*
X41687799Y-28088400D01*
X41685765Y-28089017D01*
X41664154Y-28100568D01*
X41645212Y-28116114D01*
X41629667Y-28135055D01*
X41618116Y-28156666D01*
X41616884Y-28159640D01*
X41616883Y-28159641D01*
X41600424Y-28184275D01*
X41579475Y-28205224D01*
X41567075Y-28213509D01*
X41554840Y-28221684D01*
X41551866Y-28222916D01*
X41530255Y-28234467D01*
X41511313Y-28250013D01*
X41495768Y-28268954D01*
X41484217Y-28290565D01*
X41483600Y-28292599D01*
X41482983Y-28290565D01*
X41471432Y-28268954D01*
X41455886Y-28250012D01*
X41436945Y-28234467D01*
X41415334Y-28222916D01*
X41412360Y-28221684D01*
X41400125Y-28213509D01*
X41387725Y-28205224D01*
X41366776Y-28184275D01*
X41350317Y-28159641D01*
X41350316Y-28159640D01*
X41349084Y-28156666D01*
X41337533Y-28135055D01*
X41321987Y-28116113D01*
X41303046Y-28100568D01*
X41281435Y-28089017D01*
X41279401Y-28088400D01*
X41281435Y-28087783D01*
X41303046Y-28076232D01*
X41321988Y-28060686D01*
X41337533Y-28041745D01*
X41349084Y-28020134D01*
X41350316Y-28017160D01*
X41366775Y-27992527D01*
X41366776Y-27992525D01*
X41387725Y-27971576D01*
X41412359Y-27955117D01*
X41412360Y-27955116D01*
X41415334Y-27953884D01*
X41436945Y-27942333D01*
X41455887Y-27926787D01*
X41471432Y-27907846D01*
X41482983Y-27886235D01*
X41483600Y-27884201D01*
X41484217Y-27886235D01*
X41484217Y-27886235D01*
G37*
G36*
X41984217Y-27886235D02*
G01*
X41995768Y-27907846D01*
X42011314Y-27926788D01*
X42030255Y-27942333D01*
X42051866Y-27953884D01*
X42054840Y-27955116D01*
X42054841Y-27955117D01*
X42079475Y-27971576D01*
X42100424Y-27992525D01*
X42100425Y-27992527D01*
X42116885Y-28017161D01*
X42128221Y-28044529D01*
X42134000Y-28073585D01*
X42134000Y-28103215D01*
X42128221Y-28132271D01*
X42116885Y-28159639D01*
X42105960Y-28175989D01*
X42100424Y-28184275D01*
X42079475Y-28205224D01*
X42067075Y-28213509D01*
X42054840Y-28221684D01*
X42051866Y-28222916D01*
X42030255Y-28234467D01*
X42011313Y-28250013D01*
X41995768Y-28268954D01*
X41984217Y-28290565D01*
X41983600Y-28292599D01*
X41982983Y-28290565D01*
X41971432Y-28268954D01*
X41955886Y-28250012D01*
X41936945Y-28234467D01*
X41915334Y-28222916D01*
X41912360Y-28221684D01*
X41900125Y-28213509D01*
X41887725Y-28205224D01*
X41866776Y-28184275D01*
X41850317Y-28159641D01*
X41850316Y-28159640D01*
X41849084Y-28156666D01*
X41837533Y-28135055D01*
X41821987Y-28116113D01*
X41803046Y-28100568D01*
X41781435Y-28089017D01*
X41779401Y-28088400D01*
X41781435Y-28087783D01*
X41803046Y-28076232D01*
X41821988Y-28060686D01*
X41837533Y-28041745D01*
X41849084Y-28020134D01*
X41850316Y-28017160D01*
X41866775Y-27992527D01*
X41866776Y-27992525D01*
X41887725Y-27971576D01*
X41912359Y-27955117D01*
X41912360Y-27955116D01*
X41915334Y-27953884D01*
X41936945Y-27942333D01*
X41955887Y-27926787D01*
X41971432Y-27907846D01*
X41982983Y-27886235D01*
X41983600Y-27884201D01*
X41984217Y-27886235D01*
X41984217Y-27886235D01*
G37*
G36*
X38984217Y-27886235D02*
G01*
X38995768Y-27907846D01*
X39011314Y-27926788D01*
X39030255Y-27942333D01*
X39051866Y-27953884D01*
X39054840Y-27955116D01*
X39054841Y-27955117D01*
X39079475Y-27971576D01*
X39100424Y-27992525D01*
X39100425Y-27992527D01*
X39116884Y-28017160D01*
X39118116Y-28020134D01*
X39129667Y-28041745D01*
X39145213Y-28060687D01*
X39164154Y-28076232D01*
X39185765Y-28087783D01*
X39187799Y-28088400D01*
X39185765Y-28089017D01*
X39164154Y-28100568D01*
X39145212Y-28116114D01*
X39129667Y-28135055D01*
X39118116Y-28156666D01*
X39116884Y-28159640D01*
X39116883Y-28159641D01*
X39100424Y-28184275D01*
X39079475Y-28205224D01*
X39071189Y-28210760D01*
X39054839Y-28221685D01*
X39027471Y-28233021D01*
X38998415Y-28238800D01*
X38968785Y-28238800D01*
X38939729Y-28233021D01*
X38912361Y-28221685D01*
X38896011Y-28210760D01*
X38887725Y-28205224D01*
X38866776Y-28184275D01*
X38850317Y-28159641D01*
X38850316Y-28159640D01*
X38849084Y-28156666D01*
X38837533Y-28135055D01*
X38821987Y-28116113D01*
X38803046Y-28100568D01*
X38781435Y-28089017D01*
X38779401Y-28088400D01*
X38781435Y-28087783D01*
X38803046Y-28076232D01*
X38821988Y-28060686D01*
X38837533Y-28041745D01*
X38849084Y-28020134D01*
X38850316Y-28017160D01*
X38866775Y-27992527D01*
X38866776Y-27992525D01*
X38887725Y-27971576D01*
X38912359Y-27955117D01*
X38912360Y-27955116D01*
X38915334Y-27953884D01*
X38936945Y-27942333D01*
X38955887Y-27926787D01*
X38971432Y-27907846D01*
X38982983Y-27886235D01*
X38983600Y-27884201D01*
X38984217Y-27886235D01*
X38984217Y-27886235D01*
G37*
G36*
X40984217Y-27886235D02*
G01*
X40995768Y-27907846D01*
X41011314Y-27926788D01*
X41030255Y-27942333D01*
X41051866Y-27953884D01*
X41054840Y-27955116D01*
X41054841Y-27955117D01*
X41079475Y-27971576D01*
X41100424Y-27992525D01*
X41100425Y-27992527D01*
X41116884Y-28017160D01*
X41118116Y-28020134D01*
X41129667Y-28041745D01*
X41145213Y-28060687D01*
X41164154Y-28076232D01*
X41185765Y-28087783D01*
X41187799Y-28088400D01*
X41185765Y-28089017D01*
X41164154Y-28100568D01*
X41145212Y-28116114D01*
X41129667Y-28135055D01*
X41118116Y-28156666D01*
X41116884Y-28159640D01*
X41116883Y-28159641D01*
X41100424Y-28184275D01*
X41079475Y-28205224D01*
X41071189Y-28210760D01*
X41054839Y-28221685D01*
X41027471Y-28233021D01*
X40998415Y-28238800D01*
X40968785Y-28238800D01*
X40939729Y-28233021D01*
X40912361Y-28221685D01*
X40896011Y-28210760D01*
X40887725Y-28205224D01*
X40866776Y-28184275D01*
X40850317Y-28159641D01*
X40850316Y-28159640D01*
X40849084Y-28156666D01*
X40837533Y-28135055D01*
X40821987Y-28116113D01*
X40803046Y-28100568D01*
X40781435Y-28089017D01*
X40779401Y-28088400D01*
X40781435Y-28087783D01*
X40803046Y-28076232D01*
X40821988Y-28060686D01*
X40837533Y-28041745D01*
X40849084Y-28020134D01*
X40850316Y-28017160D01*
X40866775Y-27992527D01*
X40866776Y-27992525D01*
X40887725Y-27971576D01*
X40912359Y-27955117D01*
X40912360Y-27955116D01*
X40915334Y-27953884D01*
X40936945Y-27942333D01*
X40955887Y-27926787D01*
X40971432Y-27907846D01*
X40982983Y-27886235D01*
X40983600Y-27884201D01*
X40984217Y-27886235D01*
X40984217Y-27886235D01*
G37*
G36*
X40484217Y-27886235D02*
G01*
X40495768Y-27907846D01*
X40511314Y-27926788D01*
X40530255Y-27942333D01*
X40551866Y-27953884D01*
X40554840Y-27955116D01*
X40554841Y-27955117D01*
X40579475Y-27971576D01*
X40600424Y-27992525D01*
X40600425Y-27992527D01*
X40616884Y-28017160D01*
X40618116Y-28020134D01*
X40629667Y-28041745D01*
X40645213Y-28060687D01*
X40664154Y-28076232D01*
X40685765Y-28087783D01*
X40687799Y-28088400D01*
X40685765Y-28089017D01*
X40664154Y-28100568D01*
X40645212Y-28116114D01*
X40629667Y-28135055D01*
X40618116Y-28156666D01*
X40616884Y-28159640D01*
X40616883Y-28159641D01*
X40600424Y-28184275D01*
X40579475Y-28205224D01*
X40571189Y-28210760D01*
X40554839Y-28221685D01*
X40527471Y-28233021D01*
X40498415Y-28238800D01*
X40468785Y-28238800D01*
X40439729Y-28233021D01*
X40412361Y-28221685D01*
X40396011Y-28210760D01*
X40387725Y-28205224D01*
X40366776Y-28184275D01*
X40350317Y-28159641D01*
X40350316Y-28159640D01*
X40349084Y-28156666D01*
X40337533Y-28135055D01*
X40321987Y-28116113D01*
X40303046Y-28100568D01*
X40281435Y-28089017D01*
X40279401Y-28088400D01*
X40281435Y-28087783D01*
X40303046Y-28076232D01*
X40321988Y-28060686D01*
X40337533Y-28041745D01*
X40349084Y-28020134D01*
X40350316Y-28017160D01*
X40366775Y-27992527D01*
X40366776Y-27992525D01*
X40387725Y-27971576D01*
X40412359Y-27955117D01*
X40412360Y-27955116D01*
X40415334Y-27953884D01*
X40436945Y-27942333D01*
X40455887Y-27926787D01*
X40471432Y-27907846D01*
X40482983Y-27886235D01*
X40483600Y-27884201D01*
X40484217Y-27886235D01*
X40484217Y-27886235D01*
G37*
G36*
X39984217Y-27886235D02*
G01*
X39995768Y-27907846D01*
X40011314Y-27926788D01*
X40030255Y-27942333D01*
X40051866Y-27953884D01*
X40054840Y-27955116D01*
X40054841Y-27955117D01*
X40079475Y-27971576D01*
X40100424Y-27992525D01*
X40100425Y-27992527D01*
X40116884Y-28017160D01*
X40118116Y-28020134D01*
X40129667Y-28041745D01*
X40145213Y-28060687D01*
X40164154Y-28076232D01*
X40185765Y-28087783D01*
X40187799Y-28088400D01*
X40185765Y-28089017D01*
X40164154Y-28100568D01*
X40145212Y-28116114D01*
X40129667Y-28135055D01*
X40118116Y-28156666D01*
X40116884Y-28159640D01*
X40116883Y-28159641D01*
X40100424Y-28184275D01*
X40079475Y-28205224D01*
X40071189Y-28210760D01*
X40054839Y-28221685D01*
X40027471Y-28233021D01*
X39998415Y-28238800D01*
X39968785Y-28238800D01*
X39939729Y-28233021D01*
X39912361Y-28221685D01*
X39896011Y-28210760D01*
X39887725Y-28205224D01*
X39866776Y-28184275D01*
X39850317Y-28159641D01*
X39850316Y-28159640D01*
X39849084Y-28156666D01*
X39837533Y-28135055D01*
X39821987Y-28116113D01*
X39803046Y-28100568D01*
X39781435Y-28089017D01*
X39779401Y-28088400D01*
X39781435Y-28087783D01*
X39803046Y-28076232D01*
X39821988Y-28060686D01*
X39837533Y-28041745D01*
X39849084Y-28020134D01*
X39850316Y-28017160D01*
X39866775Y-27992527D01*
X39866776Y-27992525D01*
X39887725Y-27971576D01*
X39912359Y-27955117D01*
X39912360Y-27955116D01*
X39915334Y-27953884D01*
X39936945Y-27942333D01*
X39955887Y-27926787D01*
X39971432Y-27907846D01*
X39982983Y-27886235D01*
X39983600Y-27884201D01*
X39984217Y-27886235D01*
X39984217Y-27886235D01*
G37*
G36*
X39484217Y-27886235D02*
G01*
X39495768Y-27907846D01*
X39511314Y-27926788D01*
X39530255Y-27942333D01*
X39551866Y-27953884D01*
X39554840Y-27955116D01*
X39554841Y-27955117D01*
X39579475Y-27971576D01*
X39600424Y-27992525D01*
X39600425Y-27992527D01*
X39616884Y-28017160D01*
X39618116Y-28020134D01*
X39629667Y-28041745D01*
X39645213Y-28060687D01*
X39664154Y-28076232D01*
X39685765Y-28087783D01*
X39687799Y-28088400D01*
X39685765Y-28089017D01*
X39664154Y-28100568D01*
X39645212Y-28116114D01*
X39629667Y-28135055D01*
X39618116Y-28156666D01*
X39616884Y-28159640D01*
X39616883Y-28159641D01*
X39600424Y-28184275D01*
X39579475Y-28205224D01*
X39571189Y-28210760D01*
X39554839Y-28221685D01*
X39527471Y-28233021D01*
X39498415Y-28238800D01*
X39468785Y-28238800D01*
X39439729Y-28233021D01*
X39412361Y-28221685D01*
X39396011Y-28210760D01*
X39387725Y-28205224D01*
X39366776Y-28184275D01*
X39350317Y-28159641D01*
X39350316Y-28159640D01*
X39349084Y-28156666D01*
X39337533Y-28135055D01*
X39321987Y-28116113D01*
X39303046Y-28100568D01*
X39281435Y-28089017D01*
X39279401Y-28088400D01*
X39281435Y-28087783D01*
X39303046Y-28076232D01*
X39321988Y-28060686D01*
X39337533Y-28041745D01*
X39349084Y-28020134D01*
X39350316Y-28017160D01*
X39366775Y-27992527D01*
X39366776Y-27992525D01*
X39387725Y-27971576D01*
X39412359Y-27955117D01*
X39412360Y-27955116D01*
X39415334Y-27953884D01*
X39436945Y-27942333D01*
X39455887Y-27926787D01*
X39471432Y-27907846D01*
X39482983Y-27886235D01*
X39483600Y-27884201D01*
X39484217Y-27886235D01*
X39484217Y-27886235D01*
G37*
G36*
X38484217Y-27886235D02*
G01*
X38495768Y-27907846D01*
X38511314Y-27926788D01*
X38530255Y-27942333D01*
X38551866Y-27953884D01*
X38554840Y-27955116D01*
X38554841Y-27955117D01*
X38579475Y-27971576D01*
X38600424Y-27992525D01*
X38600425Y-27992527D01*
X38616884Y-28017160D01*
X38618116Y-28020134D01*
X38629667Y-28041745D01*
X38645213Y-28060687D01*
X38664154Y-28076232D01*
X38685765Y-28087783D01*
X38687799Y-28088400D01*
X38685765Y-28089017D01*
X38664154Y-28100568D01*
X38645212Y-28116114D01*
X38629667Y-28135055D01*
X38618116Y-28156666D01*
X38616884Y-28159640D01*
X38616883Y-28159641D01*
X38600424Y-28184275D01*
X38579475Y-28205224D01*
X38571189Y-28210760D01*
X38554839Y-28221685D01*
X38527471Y-28233021D01*
X38498415Y-28238800D01*
X38468785Y-28238800D01*
X38439729Y-28233021D01*
X38412361Y-28221685D01*
X38396011Y-28210760D01*
X38387725Y-28205224D01*
X38366776Y-28184275D01*
X38350317Y-28159641D01*
X38350316Y-28159640D01*
X38349084Y-28156666D01*
X38337533Y-28135055D01*
X38321987Y-28116113D01*
X38303046Y-28100568D01*
X38281435Y-28089017D01*
X38279401Y-28088400D01*
X38281435Y-28087783D01*
X38303046Y-28076232D01*
X38321988Y-28060686D01*
X38337533Y-28041745D01*
X38349084Y-28020134D01*
X38350316Y-28017160D01*
X38366775Y-27992527D01*
X38366776Y-27992525D01*
X38387725Y-27971576D01*
X38412359Y-27955117D01*
X38412360Y-27955116D01*
X38415334Y-27953884D01*
X38436945Y-27942333D01*
X38455887Y-27926787D01*
X38471432Y-27907846D01*
X38482983Y-27886235D01*
X38483600Y-27884201D01*
X38484217Y-27886235D01*
X38484217Y-27886235D01*
G37*
G36*
X37984217Y-27886235D02*
G01*
X37995768Y-27907846D01*
X38011314Y-27926788D01*
X38030255Y-27942333D01*
X38051866Y-27953884D01*
X38054840Y-27955116D01*
X38054841Y-27955117D01*
X38079475Y-27971576D01*
X38100424Y-27992525D01*
X38100425Y-27992527D01*
X38116884Y-28017160D01*
X38118116Y-28020134D01*
X38129667Y-28041745D01*
X38145213Y-28060687D01*
X38164154Y-28076232D01*
X38185765Y-28087783D01*
X38187799Y-28088400D01*
X38185765Y-28089017D01*
X38164154Y-28100568D01*
X38145212Y-28116114D01*
X38129667Y-28135055D01*
X38118116Y-28156666D01*
X38116884Y-28159640D01*
X38116883Y-28159641D01*
X38100424Y-28184275D01*
X38079475Y-28205224D01*
X38071189Y-28210760D01*
X38054839Y-28221685D01*
X38027471Y-28233021D01*
X37998415Y-28238800D01*
X37968785Y-28238800D01*
X37939729Y-28233021D01*
X37912361Y-28221685D01*
X37896011Y-28210760D01*
X37887725Y-28205224D01*
X37866776Y-28184275D01*
X37850317Y-28159641D01*
X37850316Y-28159640D01*
X37849084Y-28156666D01*
X37837533Y-28135055D01*
X37821987Y-28116113D01*
X37803046Y-28100568D01*
X37781435Y-28089017D01*
X37779401Y-28088400D01*
X37781435Y-28087783D01*
X37803046Y-28076232D01*
X37821988Y-28060686D01*
X37837533Y-28041745D01*
X37849084Y-28020134D01*
X37850316Y-28017160D01*
X37866775Y-27992527D01*
X37866776Y-27992525D01*
X37887725Y-27971576D01*
X37912359Y-27955117D01*
X37912360Y-27955116D01*
X37915334Y-27953884D01*
X37936945Y-27942333D01*
X37955887Y-27926787D01*
X37971432Y-27907846D01*
X37982983Y-27886235D01*
X37983600Y-27884201D01*
X37984217Y-27886235D01*
X37984217Y-27886235D01*
G37*
G36*
X38027471Y-27443779D02*
G01*
X38054839Y-27455115D01*
X38071189Y-27466040D01*
X38079475Y-27471576D01*
X38100424Y-27492525D01*
X38100425Y-27492527D01*
X38116884Y-27517160D01*
X38118116Y-27520134D01*
X38129667Y-27541745D01*
X38145213Y-27560687D01*
X38164154Y-27576232D01*
X38185765Y-27587783D01*
X38187799Y-27588400D01*
X38185765Y-27589017D01*
X38164154Y-27600568D01*
X38145212Y-27616114D01*
X38129667Y-27635055D01*
X38118116Y-27656666D01*
X38116884Y-27659640D01*
X38116883Y-27659641D01*
X38100424Y-27684275D01*
X38079475Y-27705224D01*
X38075323Y-27707998D01*
X38054840Y-27721684D01*
X38051866Y-27722916D01*
X38030255Y-27734467D01*
X38011313Y-27750013D01*
X37995768Y-27768954D01*
X37984217Y-27790565D01*
X37983600Y-27792599D01*
X37982983Y-27790565D01*
X37971432Y-27768954D01*
X37955886Y-27750012D01*
X37936945Y-27734467D01*
X37915334Y-27722916D01*
X37912360Y-27721684D01*
X37891877Y-27707998D01*
X37887725Y-27705224D01*
X37866776Y-27684275D01*
X37850317Y-27659641D01*
X37850316Y-27659640D01*
X37849084Y-27656666D01*
X37837533Y-27635055D01*
X37821987Y-27616113D01*
X37803046Y-27600568D01*
X37781435Y-27589017D01*
X37779401Y-27588400D01*
X37781435Y-27587783D01*
X37803046Y-27576232D01*
X37821988Y-27560686D01*
X37837533Y-27541745D01*
X37849084Y-27520134D01*
X37850316Y-27517160D01*
X37866775Y-27492527D01*
X37866776Y-27492525D01*
X37887725Y-27471576D01*
X37896011Y-27466040D01*
X37912361Y-27455115D01*
X37939729Y-27443779D01*
X37968785Y-27438000D01*
X37998415Y-27438000D01*
X38027471Y-27443779D01*
X38027471Y-27443779D01*
G37*
G36*
X37027471Y-27443779D02*
G01*
X37054839Y-27455115D01*
X37071189Y-27466040D01*
X37079475Y-27471576D01*
X37100424Y-27492525D01*
X37100425Y-27492527D01*
X37116884Y-27517160D01*
X37118116Y-27520134D01*
X37129667Y-27541745D01*
X37145213Y-27560687D01*
X37164154Y-27576232D01*
X37185765Y-27587783D01*
X37187799Y-27588400D01*
X37185765Y-27589017D01*
X37164154Y-27600568D01*
X37145212Y-27616114D01*
X37129667Y-27635055D01*
X37118116Y-27656666D01*
X37116884Y-27659640D01*
X37116883Y-27659641D01*
X37100424Y-27684275D01*
X37079475Y-27705224D01*
X37075323Y-27707998D01*
X37054840Y-27721684D01*
X37051866Y-27722916D01*
X37030255Y-27734467D01*
X37011313Y-27750013D01*
X36995768Y-27768954D01*
X36984217Y-27790565D01*
X36983600Y-27792599D01*
X36982983Y-27790565D01*
X36971432Y-27768954D01*
X36955886Y-27750012D01*
X36936945Y-27734467D01*
X36915334Y-27722916D01*
X36912360Y-27721684D01*
X36891877Y-27707998D01*
X36887725Y-27705224D01*
X36866776Y-27684275D01*
X36859770Y-27673789D01*
X36850315Y-27659639D01*
X36838979Y-27632271D01*
X36833200Y-27603215D01*
X36833200Y-27573585D01*
X36838979Y-27544529D01*
X36850315Y-27517161D01*
X36866775Y-27492527D01*
X36866776Y-27492525D01*
X36887725Y-27471576D01*
X36896011Y-27466040D01*
X36912361Y-27455115D01*
X36939729Y-27443779D01*
X36968785Y-27438000D01*
X36998415Y-27438000D01*
X37027471Y-27443779D01*
X37027471Y-27443779D01*
G37*
G36*
X42027471Y-27443779D02*
G01*
X42054839Y-27455115D01*
X42071189Y-27466040D01*
X42079475Y-27471576D01*
X42100424Y-27492525D01*
X42100425Y-27492527D01*
X42116885Y-27517161D01*
X42128221Y-27544529D01*
X42134000Y-27573585D01*
X42134000Y-27603215D01*
X42128221Y-27632271D01*
X42116885Y-27659639D01*
X42107430Y-27673789D01*
X42100424Y-27684275D01*
X42079475Y-27705224D01*
X42075323Y-27707998D01*
X42054840Y-27721684D01*
X42051866Y-27722916D01*
X42030255Y-27734467D01*
X42011313Y-27750013D01*
X41995768Y-27768954D01*
X41984217Y-27790565D01*
X41983600Y-27792599D01*
X41982983Y-27790565D01*
X41971432Y-27768954D01*
X41955886Y-27750012D01*
X41936945Y-27734467D01*
X41915334Y-27722916D01*
X41912360Y-27721684D01*
X41891877Y-27707998D01*
X41887725Y-27705224D01*
X41866776Y-27684275D01*
X41850317Y-27659641D01*
X41850316Y-27659640D01*
X41849084Y-27656666D01*
X41837533Y-27635055D01*
X41821987Y-27616113D01*
X41803046Y-27600568D01*
X41781435Y-27589017D01*
X41779401Y-27588400D01*
X41781435Y-27587783D01*
X41803046Y-27576232D01*
X41821988Y-27560686D01*
X41837533Y-27541745D01*
X41849084Y-27520134D01*
X41850316Y-27517160D01*
X41866775Y-27492527D01*
X41866776Y-27492525D01*
X41887725Y-27471576D01*
X41896011Y-27466040D01*
X41912361Y-27455115D01*
X41939729Y-27443779D01*
X41968785Y-27438000D01*
X41998415Y-27438000D01*
X42027471Y-27443779D01*
X42027471Y-27443779D01*
G37*
G36*
X41527471Y-27443779D02*
G01*
X41554839Y-27455115D01*
X41571189Y-27466040D01*
X41579475Y-27471576D01*
X41600424Y-27492525D01*
X41600425Y-27492527D01*
X41616884Y-27517160D01*
X41618116Y-27520134D01*
X41629667Y-27541745D01*
X41645213Y-27560687D01*
X41664154Y-27576232D01*
X41685765Y-27587783D01*
X41687799Y-27588400D01*
X41685765Y-27589017D01*
X41664154Y-27600568D01*
X41645212Y-27616114D01*
X41629667Y-27635055D01*
X41618116Y-27656666D01*
X41616884Y-27659640D01*
X41616883Y-27659641D01*
X41600424Y-27684275D01*
X41579475Y-27705224D01*
X41575323Y-27707998D01*
X41554840Y-27721684D01*
X41551866Y-27722916D01*
X41530255Y-27734467D01*
X41511313Y-27750013D01*
X41495768Y-27768954D01*
X41484217Y-27790565D01*
X41483600Y-27792599D01*
X41482983Y-27790565D01*
X41471432Y-27768954D01*
X41455886Y-27750012D01*
X41436945Y-27734467D01*
X41415334Y-27722916D01*
X41412360Y-27721684D01*
X41391877Y-27707998D01*
X41387725Y-27705224D01*
X41366776Y-27684275D01*
X41350317Y-27659641D01*
X41350316Y-27659640D01*
X41349084Y-27656666D01*
X41337533Y-27635055D01*
X41321987Y-27616113D01*
X41303046Y-27600568D01*
X41281435Y-27589017D01*
X41279401Y-27588400D01*
X41281435Y-27587783D01*
X41303046Y-27576232D01*
X41321988Y-27560686D01*
X41337533Y-27541745D01*
X41349084Y-27520134D01*
X41350316Y-27517160D01*
X41366775Y-27492527D01*
X41366776Y-27492525D01*
X41387725Y-27471576D01*
X41396011Y-27466040D01*
X41412361Y-27455115D01*
X41439729Y-27443779D01*
X41468785Y-27438000D01*
X41498415Y-27438000D01*
X41527471Y-27443779D01*
X41527471Y-27443779D01*
G37*
G36*
X41027471Y-27443779D02*
G01*
X41054839Y-27455115D01*
X41071189Y-27466040D01*
X41079475Y-27471576D01*
X41100424Y-27492525D01*
X41100425Y-27492527D01*
X41116884Y-27517160D01*
X41118116Y-27520134D01*
X41129667Y-27541745D01*
X41145213Y-27560687D01*
X41164154Y-27576232D01*
X41185765Y-27587783D01*
X41187799Y-27588400D01*
X41185765Y-27589017D01*
X41164154Y-27600568D01*
X41145212Y-27616114D01*
X41129667Y-27635055D01*
X41118116Y-27656666D01*
X41116884Y-27659640D01*
X41116883Y-27659641D01*
X41100424Y-27684275D01*
X41079475Y-27705224D01*
X41075323Y-27707998D01*
X41054840Y-27721684D01*
X41051866Y-27722916D01*
X41030255Y-27734467D01*
X41011313Y-27750013D01*
X40995768Y-27768954D01*
X40984217Y-27790565D01*
X40983600Y-27792599D01*
X40982983Y-27790565D01*
X40971432Y-27768954D01*
X40955886Y-27750012D01*
X40936945Y-27734467D01*
X40915334Y-27722916D01*
X40912360Y-27721684D01*
X40891877Y-27707998D01*
X40887725Y-27705224D01*
X40866776Y-27684275D01*
X40850317Y-27659641D01*
X40850316Y-27659640D01*
X40849084Y-27656666D01*
X40837533Y-27635055D01*
X40821987Y-27616113D01*
X40803046Y-27600568D01*
X40781435Y-27589017D01*
X40779401Y-27588400D01*
X40781435Y-27587783D01*
X40803046Y-27576232D01*
X40821988Y-27560686D01*
X40837533Y-27541745D01*
X40849084Y-27520134D01*
X40850316Y-27517160D01*
X40866775Y-27492527D01*
X40866776Y-27492525D01*
X40887725Y-27471576D01*
X40896011Y-27466040D01*
X40912361Y-27455115D01*
X40939729Y-27443779D01*
X40968785Y-27438000D01*
X40998415Y-27438000D01*
X41027471Y-27443779D01*
X41027471Y-27443779D01*
G37*
G36*
X37527471Y-27443779D02*
G01*
X37554839Y-27455115D01*
X37571189Y-27466040D01*
X37579475Y-27471576D01*
X37600424Y-27492525D01*
X37600425Y-27492527D01*
X37616884Y-27517160D01*
X37618116Y-27520134D01*
X37629667Y-27541745D01*
X37645213Y-27560687D01*
X37664154Y-27576232D01*
X37685765Y-27587783D01*
X37687799Y-27588400D01*
X37685765Y-27589017D01*
X37664154Y-27600568D01*
X37645212Y-27616114D01*
X37629667Y-27635055D01*
X37618116Y-27656666D01*
X37616884Y-27659640D01*
X37616883Y-27659641D01*
X37600424Y-27684275D01*
X37579475Y-27705224D01*
X37575323Y-27707998D01*
X37554840Y-27721684D01*
X37551866Y-27722916D01*
X37530255Y-27734467D01*
X37511313Y-27750013D01*
X37495768Y-27768954D01*
X37484217Y-27790565D01*
X37483600Y-27792599D01*
X37482983Y-27790565D01*
X37471432Y-27768954D01*
X37455886Y-27750012D01*
X37436945Y-27734467D01*
X37415334Y-27722916D01*
X37412360Y-27721684D01*
X37391877Y-27707998D01*
X37387725Y-27705224D01*
X37366776Y-27684275D01*
X37350317Y-27659641D01*
X37350316Y-27659640D01*
X37349084Y-27656666D01*
X37337533Y-27635055D01*
X37321987Y-27616113D01*
X37303046Y-27600568D01*
X37281435Y-27589017D01*
X37279401Y-27588400D01*
X37281435Y-27587783D01*
X37303046Y-27576232D01*
X37321988Y-27560686D01*
X37337533Y-27541745D01*
X37349084Y-27520134D01*
X37350316Y-27517160D01*
X37366775Y-27492527D01*
X37366776Y-27492525D01*
X37387725Y-27471576D01*
X37396011Y-27466040D01*
X37412361Y-27455115D01*
X37439729Y-27443779D01*
X37468785Y-27438000D01*
X37498415Y-27438000D01*
X37527471Y-27443779D01*
X37527471Y-27443779D01*
G37*
G36*
X38527471Y-27443779D02*
G01*
X38554839Y-27455115D01*
X38571189Y-27466040D01*
X38579475Y-27471576D01*
X38600424Y-27492525D01*
X38600425Y-27492527D01*
X38616884Y-27517160D01*
X38618116Y-27520134D01*
X38629667Y-27541745D01*
X38645213Y-27560687D01*
X38664154Y-27576232D01*
X38685765Y-27587783D01*
X38687799Y-27588400D01*
X38685765Y-27589017D01*
X38664154Y-27600568D01*
X38645212Y-27616114D01*
X38629667Y-27635055D01*
X38618116Y-27656666D01*
X38616884Y-27659640D01*
X38616883Y-27659641D01*
X38600424Y-27684275D01*
X38579475Y-27705224D01*
X38575323Y-27707998D01*
X38554840Y-27721684D01*
X38551866Y-27722916D01*
X38530255Y-27734467D01*
X38511313Y-27750013D01*
X38495768Y-27768954D01*
X38484217Y-27790565D01*
X38483600Y-27792599D01*
X38482983Y-27790565D01*
X38471432Y-27768954D01*
X38455886Y-27750012D01*
X38436945Y-27734467D01*
X38415334Y-27722916D01*
X38412360Y-27721684D01*
X38391877Y-27707998D01*
X38387725Y-27705224D01*
X38366776Y-27684275D01*
X38350317Y-27659641D01*
X38350316Y-27659640D01*
X38349084Y-27656666D01*
X38337533Y-27635055D01*
X38321987Y-27616113D01*
X38303046Y-27600568D01*
X38281435Y-27589017D01*
X38279401Y-27588400D01*
X38281435Y-27587783D01*
X38303046Y-27576232D01*
X38321988Y-27560686D01*
X38337533Y-27541745D01*
X38349084Y-27520134D01*
X38350316Y-27517160D01*
X38366775Y-27492527D01*
X38366776Y-27492525D01*
X38387725Y-27471576D01*
X38396011Y-27466040D01*
X38412361Y-27455115D01*
X38439729Y-27443779D01*
X38468785Y-27438000D01*
X38498415Y-27438000D01*
X38527471Y-27443779D01*
X38527471Y-27443779D01*
G37*
G36*
X39027471Y-27443779D02*
G01*
X39054839Y-27455115D01*
X39071189Y-27466040D01*
X39079475Y-27471576D01*
X39100424Y-27492525D01*
X39100425Y-27492527D01*
X39116884Y-27517160D01*
X39118116Y-27520134D01*
X39129667Y-27541745D01*
X39145213Y-27560687D01*
X39164154Y-27576232D01*
X39185765Y-27587783D01*
X39187799Y-27588400D01*
X39185765Y-27589017D01*
X39164154Y-27600568D01*
X39145212Y-27616114D01*
X39129667Y-27635055D01*
X39118116Y-27656666D01*
X39116884Y-27659640D01*
X39116883Y-27659641D01*
X39100424Y-27684275D01*
X39079475Y-27705224D01*
X39075323Y-27707998D01*
X39054840Y-27721684D01*
X39051866Y-27722916D01*
X39030255Y-27734467D01*
X39011313Y-27750013D01*
X38995768Y-27768954D01*
X38984217Y-27790565D01*
X38983600Y-27792599D01*
X38982983Y-27790565D01*
X38971432Y-27768954D01*
X38955886Y-27750012D01*
X38936945Y-27734467D01*
X38915334Y-27722916D01*
X38912360Y-27721684D01*
X38891877Y-27707998D01*
X38887725Y-27705224D01*
X38866776Y-27684275D01*
X38850317Y-27659641D01*
X38850316Y-27659640D01*
X38849084Y-27656666D01*
X38837533Y-27635055D01*
X38821987Y-27616113D01*
X38803046Y-27600568D01*
X38781435Y-27589017D01*
X38779401Y-27588400D01*
X38781435Y-27587783D01*
X38803046Y-27576232D01*
X38821988Y-27560686D01*
X38837533Y-27541745D01*
X38849084Y-27520134D01*
X38850316Y-27517160D01*
X38866775Y-27492527D01*
X38866776Y-27492525D01*
X38887725Y-27471576D01*
X38896011Y-27466040D01*
X38912361Y-27455115D01*
X38939729Y-27443779D01*
X38968785Y-27438000D01*
X38998415Y-27438000D01*
X39027471Y-27443779D01*
X39027471Y-27443779D01*
G37*
G36*
X39527471Y-27443779D02*
G01*
X39554839Y-27455115D01*
X39571189Y-27466040D01*
X39579475Y-27471576D01*
X39600424Y-27492525D01*
X39600425Y-27492527D01*
X39616884Y-27517160D01*
X39618116Y-27520134D01*
X39629667Y-27541745D01*
X39645213Y-27560687D01*
X39664154Y-27576232D01*
X39685765Y-27587783D01*
X39687799Y-27588400D01*
X39685765Y-27589017D01*
X39664154Y-27600568D01*
X39645212Y-27616114D01*
X39629667Y-27635055D01*
X39618116Y-27656666D01*
X39616884Y-27659640D01*
X39616883Y-27659641D01*
X39600424Y-27684275D01*
X39579475Y-27705224D01*
X39575323Y-27707998D01*
X39554840Y-27721684D01*
X39551866Y-27722916D01*
X39530255Y-27734467D01*
X39511313Y-27750013D01*
X39495768Y-27768954D01*
X39484217Y-27790565D01*
X39483600Y-27792599D01*
X39482983Y-27790565D01*
X39471432Y-27768954D01*
X39455886Y-27750012D01*
X39436945Y-27734467D01*
X39415334Y-27722916D01*
X39412360Y-27721684D01*
X39391877Y-27707998D01*
X39387725Y-27705224D01*
X39366776Y-27684275D01*
X39350317Y-27659641D01*
X39350316Y-27659640D01*
X39349084Y-27656666D01*
X39337533Y-27635055D01*
X39321987Y-27616113D01*
X39303046Y-27600568D01*
X39281435Y-27589017D01*
X39279401Y-27588400D01*
X39281435Y-27587783D01*
X39303046Y-27576232D01*
X39321988Y-27560686D01*
X39337533Y-27541745D01*
X39349084Y-27520134D01*
X39350316Y-27517160D01*
X39366775Y-27492527D01*
X39366776Y-27492525D01*
X39387725Y-27471576D01*
X39396011Y-27466040D01*
X39412361Y-27455115D01*
X39439729Y-27443779D01*
X39468785Y-27438000D01*
X39498415Y-27438000D01*
X39527471Y-27443779D01*
X39527471Y-27443779D01*
G37*
G36*
X40027471Y-27443779D02*
G01*
X40054839Y-27455115D01*
X40071189Y-27466040D01*
X40079475Y-27471576D01*
X40100424Y-27492525D01*
X40100425Y-27492527D01*
X40116884Y-27517160D01*
X40118116Y-27520134D01*
X40129667Y-27541745D01*
X40145213Y-27560687D01*
X40164154Y-27576232D01*
X40185765Y-27587783D01*
X40187799Y-27588400D01*
X40185765Y-27589017D01*
X40164154Y-27600568D01*
X40145212Y-27616114D01*
X40129667Y-27635055D01*
X40118116Y-27656666D01*
X40116884Y-27659640D01*
X40116883Y-27659641D01*
X40100424Y-27684275D01*
X40079475Y-27705224D01*
X40075323Y-27707998D01*
X40054840Y-27721684D01*
X40051866Y-27722916D01*
X40030255Y-27734467D01*
X40011313Y-27750013D01*
X39995768Y-27768954D01*
X39984217Y-27790565D01*
X39983600Y-27792599D01*
X39982983Y-27790565D01*
X39971432Y-27768954D01*
X39955886Y-27750012D01*
X39936945Y-27734467D01*
X39915334Y-27722916D01*
X39912360Y-27721684D01*
X39891877Y-27707998D01*
X39887725Y-27705224D01*
X39866776Y-27684275D01*
X39850317Y-27659641D01*
X39850316Y-27659640D01*
X39849084Y-27656666D01*
X39837533Y-27635055D01*
X39821987Y-27616113D01*
X39803046Y-27600568D01*
X39781435Y-27589017D01*
X39779401Y-27588400D01*
X39781435Y-27587783D01*
X39803046Y-27576232D01*
X39821988Y-27560686D01*
X39837533Y-27541745D01*
X39849084Y-27520134D01*
X39850316Y-27517160D01*
X39866775Y-27492527D01*
X39866776Y-27492525D01*
X39887725Y-27471576D01*
X39896011Y-27466040D01*
X39912361Y-27455115D01*
X39939729Y-27443779D01*
X39968785Y-27438000D01*
X39998415Y-27438000D01*
X40027471Y-27443779D01*
X40027471Y-27443779D01*
G37*
G36*
X40527471Y-27443779D02*
G01*
X40554839Y-27455115D01*
X40571189Y-27466040D01*
X40579475Y-27471576D01*
X40600424Y-27492525D01*
X40600425Y-27492527D01*
X40616884Y-27517160D01*
X40618116Y-27520134D01*
X40629667Y-27541745D01*
X40645213Y-27560687D01*
X40664154Y-27576232D01*
X40685765Y-27587783D01*
X40687799Y-27588400D01*
X40685765Y-27589017D01*
X40664154Y-27600568D01*
X40645212Y-27616114D01*
X40629667Y-27635055D01*
X40618116Y-27656666D01*
X40616884Y-27659640D01*
X40616883Y-27659641D01*
X40600424Y-27684275D01*
X40579475Y-27705224D01*
X40575323Y-27707998D01*
X40554840Y-27721684D01*
X40551866Y-27722916D01*
X40530255Y-27734467D01*
X40511313Y-27750013D01*
X40495768Y-27768954D01*
X40484217Y-27790565D01*
X40483600Y-27792599D01*
X40482983Y-27790565D01*
X40471432Y-27768954D01*
X40455886Y-27750012D01*
X40436945Y-27734467D01*
X40415334Y-27722916D01*
X40412360Y-27721684D01*
X40391877Y-27707998D01*
X40387725Y-27705224D01*
X40366776Y-27684275D01*
X40350317Y-27659641D01*
X40350316Y-27659640D01*
X40349084Y-27656666D01*
X40337533Y-27635055D01*
X40321987Y-27616113D01*
X40303046Y-27600568D01*
X40281435Y-27589017D01*
X40279401Y-27588400D01*
X40281435Y-27587783D01*
X40303046Y-27576232D01*
X40321988Y-27560686D01*
X40337533Y-27541745D01*
X40349084Y-27520134D01*
X40350316Y-27517160D01*
X40366775Y-27492527D01*
X40366776Y-27492525D01*
X40387725Y-27471576D01*
X40396011Y-27466040D01*
X40412361Y-27455115D01*
X40439729Y-27443779D01*
X40468785Y-27438000D01*
X40498415Y-27438000D01*
X40527471Y-27443779D01*
X40527471Y-27443779D01*
G37*
G36*
X34962400Y-26386200D02*
G01*
X34571600Y-26386200D01*
X34571600Y-25475400D01*
X34962400Y-25475400D01*
X34962400Y-26386200D01*
X34962400Y-26386200D01*
G37*
M02*
