G04 #@! TF.GenerationSoftware,KiCad,Pcbnew,(5.1.6)-1*
G04 #@! TF.CreationDate,2020-11-27T13:51:03-08:00*
G04 #@! TF.ProjectId,Miniscope-v4-Rigid-Flex,4d696e69-7363-46f7-9065-2d76342d5269,rev?*
G04 #@! TF.SameCoordinates,Original*
G04 #@! TF.FileFunction,Copper,L2,Inr*
G04 #@! TF.FilePolarity,Positive*
%FSLAX46Y46*%
G04 Gerber Fmt 4.6, Leading zero omitted, Abs format (unit mm)*
G04 Created by KiCad (PCBNEW (5.1.6)-1) date 2020-11-27 13:51:03*
%MOMM*%
%LPD*%
G01*
G04 APERTURE LIST*
G04 #@! TA.AperFunction,ViaPad*
%ADD10C,0.350000*%
G04 #@! TD*
G04 #@! TA.AperFunction,ViaPad*
%ADD11C,0.300000*%
G04 #@! TD*
G04 #@! TA.AperFunction,Conductor*
%ADD12C,0.152400*%
G04 #@! TD*
G04 APERTURE END LIST*
D10*
X102967800Y-98080200D03*
X102459800Y-100213800D03*
X101824800Y-97191200D03*
X101901000Y-99588200D03*
X104441000Y-98072204D03*
X105380800Y-101225400D03*
X108153200Y-125282200D03*
X109423200Y-124571000D03*
X110042800Y-127500000D03*
X109792800Y-128500000D03*
X101833200Y-129476000D03*
X103805272Y-126232072D03*
X104991600Y-128180600D03*
X115450200Y-115976100D03*
X106854008Y-110111800D03*
X110515400Y-124494800D03*
X117238200Y-110373800D03*
X107268800Y-124573800D03*
X107010200Y-129295400D03*
X101734400Y-114680800D03*
X102234400Y-115180800D03*
X103727105Y-115714263D03*
X101172800Y-127850400D03*
X108153200Y-126171200D03*
X102425200Y-128206000D03*
X106234400Y-115180800D03*
X103729800Y-110162600D03*
X105990400Y-126740800D03*
X103803210Y-116715800D03*
X106041200Y-125597800D03*
X117862700Y-113338600D03*
X116963200Y-116749200D03*
X104736800Y-126948400D03*
X102409000Y-124691400D03*
X99774000Y-111621200D03*
X101729600Y-115758600D03*
X104734400Y-111680800D03*
X101734400Y-114180800D03*
X106234400Y-112180800D03*
X100000000Y-125215199D03*
X118588800Y-112378800D03*
D11*
X104234400Y-111680800D03*
D10*
X115109000Y-110653200D03*
X101323400Y-110300400D03*
X105584175Y-96353175D03*
X105330000Y-94355802D03*
X116154800Y-110378800D03*
X110000000Y-123859988D03*
X115349800Y-112877800D03*
X115349800Y-113877800D03*
X101346000Y-128914400D03*
X100123002Y-115199800D03*
X104017600Y-129450600D03*
X104978200Y-125064400D03*
X107253800Y-112992800D03*
X106512389Y-123949248D03*
X108149400Y-129707400D03*
X120188996Y-112380400D03*
X105734400Y-115180800D03*
X101734400Y-115180800D03*
X101323400Y-110960800D03*
X105234400Y-111680800D03*
X114956600Y-116469800D03*
X103234400Y-112180800D03*
X118919000Y-110551600D03*
X120189000Y-116106199D03*
X119604804Y-110492800D03*
X102734400Y-112180800D03*
X115349800Y-115361998D03*
X107412800Y-115572800D03*
X102734400Y-114180800D03*
X118769390Y-116698400D03*
X120039390Y-116673000D03*
X102234400Y-114180800D03*
X119833400Y-115377600D03*
X100656400Y-113642400D03*
X105380800Y-100675400D03*
X105533200Y-99091800D03*
X103454800Y-96327600D03*
X107818800Y-124573800D03*
X106234400Y-112680800D03*
X100910400Y-125441000D03*
X102237800Y-110066210D03*
X102234400Y-112180800D03*
X116688200Y-110378800D03*
X101234400Y-114680800D03*
X105734400Y-111680800D03*
X120112800Y-110035600D03*
X99716600Y-112245400D03*
X107235000Y-116487200D03*
D11*
X107387400Y-110111800D03*
D10*
X115349800Y-111867190D03*
X100377000Y-123548400D03*
X99799400Y-110960800D03*
X99183200Y-116741200D03*
X109343200Y-123853200D03*
X99386400Y-125699400D03*
X118360200Y-110475400D03*
X105533200Y-97644000D03*
X105126810Y-99545400D03*
X101977200Y-94533606D03*
X103653600Y-97240200D03*
X102180400Y-95752780D03*
X101723200Y-95092398D03*
X105787200Y-94101800D03*
X101175400Y-115736000D03*
X103734400Y-114680800D03*
X105734400Y-114680800D03*
X103734400Y-111680800D03*
X102358198Y-125199400D03*
X102586800Y-116444400D03*
X103234400Y-114680800D03*
X103145598Y-115826800D03*
X102307400Y-125707400D03*
X103272600Y-110518200D03*
X99310200Y-109654600D03*
X101234400Y-113180800D03*
X105234400Y-112180800D03*
X109542800Y-129500000D03*
X110029000Y-129941200D03*
X103475400Y-129450600D03*
X102383200Y-129476000D03*
X105516200Y-129450600D03*
X101722800Y-128409200D03*
X119533132Y-116770068D03*
X120239800Y-111339000D03*
X102734400Y-114680800D03*
X103153600Y-97240200D03*
X117801400Y-110399200D03*
X102536000Y-123726200D03*
X103234400Y-114180800D03*
X101977200Y-123728999D03*
X103734400Y-114180800D03*
X100046800Y-115953800D03*
X106015800Y-123972200D03*
X104234400Y-114680800D03*
X105507800Y-124023000D03*
X104263192Y-115631600D03*
X107598768Y-125301168D03*
X104234400Y-114180800D03*
X106727000Y-116309400D03*
X107285800Y-125699400D03*
X104734400Y-114680800D03*
X103704402Y-116190400D03*
X101678614Y-126152184D03*
X104734400Y-114180800D03*
X107071800Y-126198400D03*
X105234400Y-114198410D03*
X107412800Y-127198000D03*
X104127250Y-116365400D03*
X107184200Y-126698000D03*
X107477028Y-127667172D03*
X105234400Y-114680800D03*
X101671800Y-127212600D03*
X118284000Y-116698400D03*
X115566200Y-116631600D03*
X117776000Y-116673004D03*
X101469198Y-126639200D03*
X103526600Y-100899600D03*
X100910400Y-124891000D03*
X105350967Y-95176325D03*
X103933000Y-101153600D03*
X101494600Y-124891000D03*
X105750000Y-94750000D03*
D12*
G36*
X105923800Y-93721528D02*
G01*
X105904926Y-93713710D01*
X105826951Y-93698200D01*
X105747449Y-93698200D01*
X105669474Y-93713710D01*
X105596024Y-93744134D01*
X105529920Y-93788303D01*
X105473703Y-93844520D01*
X105429534Y-93910624D01*
X105399110Y-93984074D01*
X105383600Y-94062049D01*
X105383600Y-94141551D01*
X105399110Y-94219526D01*
X105429534Y-94292976D01*
X105473703Y-94359080D01*
X105527732Y-94413109D01*
X105492720Y-94436503D01*
X105436503Y-94492720D01*
X105392334Y-94558824D01*
X105361910Y-94632274D01*
X105346400Y-94710249D01*
X105346400Y-94772725D01*
X105311216Y-94772725D01*
X105233241Y-94788235D01*
X105159791Y-94818659D01*
X105093687Y-94862828D01*
X105037470Y-94919045D01*
X104993301Y-94985149D01*
X104962877Y-95058599D01*
X104947367Y-95136574D01*
X104947367Y-95216076D01*
X104962877Y-95294051D01*
X104993301Y-95367501D01*
X105037470Y-95433605D01*
X105093687Y-95489822D01*
X105159791Y-95533991D01*
X105233241Y-95564415D01*
X105311216Y-95579925D01*
X105390718Y-95579925D01*
X105468693Y-95564415D01*
X105542143Y-95533991D01*
X105608247Y-95489822D01*
X105664464Y-95433605D01*
X105708633Y-95367501D01*
X105739057Y-95294051D01*
X105754567Y-95216076D01*
X105754567Y-95153600D01*
X105789751Y-95153600D01*
X105867726Y-95138090D01*
X105923800Y-95114863D01*
X105923800Y-97538893D01*
X105921290Y-97526274D01*
X105890866Y-97452824D01*
X105846697Y-97386720D01*
X105790480Y-97330503D01*
X105724376Y-97286334D01*
X105650926Y-97255910D01*
X105572951Y-97240400D01*
X105493449Y-97240400D01*
X105415474Y-97255910D01*
X105342024Y-97286334D01*
X105275920Y-97330503D01*
X105219703Y-97386720D01*
X105175534Y-97452824D01*
X105145110Y-97526274D01*
X105129600Y-97604249D01*
X105129600Y-97683751D01*
X105145110Y-97761726D01*
X105175534Y-97835176D01*
X105219703Y-97901280D01*
X105275920Y-97957497D01*
X105342024Y-98001666D01*
X105415474Y-98032090D01*
X105493449Y-98047600D01*
X105572951Y-98047600D01*
X105650926Y-98032090D01*
X105724376Y-98001666D01*
X105790480Y-97957497D01*
X105846697Y-97901280D01*
X105890866Y-97835176D01*
X105921290Y-97761726D01*
X105923800Y-97749107D01*
X105923800Y-98986693D01*
X105921290Y-98974074D01*
X105890866Y-98900624D01*
X105846697Y-98834520D01*
X105790480Y-98778303D01*
X105724376Y-98734134D01*
X105650926Y-98703710D01*
X105572951Y-98688200D01*
X105493449Y-98688200D01*
X105415474Y-98703710D01*
X105342024Y-98734134D01*
X105275920Y-98778303D01*
X105219703Y-98834520D01*
X105175534Y-98900624D01*
X105145110Y-98974074D01*
X105129600Y-99052049D01*
X105129600Y-99131551D01*
X105131639Y-99141800D01*
X105087059Y-99141800D01*
X105009084Y-99157310D01*
X104935634Y-99187734D01*
X104869530Y-99231903D01*
X104813313Y-99288120D01*
X104769144Y-99354224D01*
X104738720Y-99427674D01*
X104723210Y-99505649D01*
X104723210Y-99585151D01*
X104738720Y-99663126D01*
X104769144Y-99736576D01*
X104813313Y-99802680D01*
X104869530Y-99858897D01*
X104935634Y-99903066D01*
X105009084Y-99933490D01*
X105087059Y-99949000D01*
X105166561Y-99949000D01*
X105244536Y-99933490D01*
X105317986Y-99903066D01*
X105384090Y-99858897D01*
X105440307Y-99802680D01*
X105484476Y-99736576D01*
X105514900Y-99663126D01*
X105530410Y-99585151D01*
X105530410Y-99505649D01*
X105528371Y-99495400D01*
X105572951Y-99495400D01*
X105650926Y-99479890D01*
X105724376Y-99449466D01*
X105790480Y-99405297D01*
X105846697Y-99349080D01*
X105890866Y-99282976D01*
X105921290Y-99209526D01*
X105923800Y-99196907D01*
X105923800Y-102173800D01*
X101576200Y-102173800D01*
X101576200Y-100859849D01*
X103123000Y-100859849D01*
X103123000Y-100939351D01*
X103138510Y-101017326D01*
X103168934Y-101090776D01*
X103213103Y-101156880D01*
X103269320Y-101213097D01*
X103335424Y-101257266D01*
X103408874Y-101287690D01*
X103486849Y-101303200D01*
X103558113Y-101303200D01*
X103575334Y-101344776D01*
X103619503Y-101410880D01*
X103675720Y-101467097D01*
X103741824Y-101511266D01*
X103815274Y-101541690D01*
X103893249Y-101557200D01*
X103972751Y-101557200D01*
X104050726Y-101541690D01*
X104124176Y-101511266D01*
X104190280Y-101467097D01*
X104246497Y-101410880D01*
X104290666Y-101344776D01*
X104321090Y-101271326D01*
X104336600Y-101193351D01*
X104336600Y-101113849D01*
X104321090Y-101035874D01*
X104290666Y-100962424D01*
X104246497Y-100896320D01*
X104190280Y-100840103D01*
X104124176Y-100795934D01*
X104050726Y-100765510D01*
X103972751Y-100750000D01*
X103901487Y-100750000D01*
X103884266Y-100708424D01*
X103840097Y-100642320D01*
X103833426Y-100635649D01*
X104977200Y-100635649D01*
X104977200Y-100715151D01*
X104992710Y-100793126D01*
X105023134Y-100866576D01*
X105067303Y-100932680D01*
X105123520Y-100988897D01*
X105189624Y-101033066D01*
X105263074Y-101063490D01*
X105341049Y-101079000D01*
X105420551Y-101079000D01*
X105498526Y-101063490D01*
X105571976Y-101033066D01*
X105638080Y-100988897D01*
X105694297Y-100932680D01*
X105738466Y-100866576D01*
X105768890Y-100793126D01*
X105784400Y-100715151D01*
X105784400Y-100635649D01*
X105768890Y-100557674D01*
X105738466Y-100484224D01*
X105694297Y-100418120D01*
X105638080Y-100361903D01*
X105571976Y-100317734D01*
X105498526Y-100287310D01*
X105420551Y-100271800D01*
X105341049Y-100271800D01*
X105263074Y-100287310D01*
X105189624Y-100317734D01*
X105123520Y-100361903D01*
X105067303Y-100418120D01*
X105023134Y-100484224D01*
X104992710Y-100557674D01*
X104977200Y-100635649D01*
X103833426Y-100635649D01*
X103783880Y-100586103D01*
X103717776Y-100541934D01*
X103644326Y-100511510D01*
X103566351Y-100496000D01*
X103486849Y-100496000D01*
X103408874Y-100511510D01*
X103335424Y-100541934D01*
X103269320Y-100586103D01*
X103213103Y-100642320D01*
X103168934Y-100708424D01*
X103138510Y-100781874D01*
X103123000Y-100859849D01*
X101576200Y-100859849D01*
X101576200Y-97200449D01*
X102750000Y-97200449D01*
X102750000Y-97279951D01*
X102765510Y-97357926D01*
X102795934Y-97431376D01*
X102840103Y-97497480D01*
X102896320Y-97553697D01*
X102962424Y-97597866D01*
X103035874Y-97628290D01*
X103113849Y-97643800D01*
X103193351Y-97643800D01*
X103271326Y-97628290D01*
X103344776Y-97597866D01*
X103403600Y-97558561D01*
X103462424Y-97597866D01*
X103535874Y-97628290D01*
X103613849Y-97643800D01*
X103693351Y-97643800D01*
X103771326Y-97628290D01*
X103844776Y-97597866D01*
X103910880Y-97553697D01*
X103967097Y-97497480D01*
X104011266Y-97431376D01*
X104041690Y-97357926D01*
X104057200Y-97279951D01*
X104057200Y-97200449D01*
X104041690Y-97122474D01*
X104011266Y-97049024D01*
X103967097Y-96982920D01*
X103910880Y-96926703D01*
X103844776Y-96882534D01*
X103771326Y-96852110D01*
X103693351Y-96836600D01*
X103613849Y-96836600D01*
X103535874Y-96852110D01*
X103462424Y-96882534D01*
X103403600Y-96921839D01*
X103344776Y-96882534D01*
X103271326Y-96852110D01*
X103193351Y-96836600D01*
X103113849Y-96836600D01*
X103035874Y-96852110D01*
X102962424Y-96882534D01*
X102896320Y-96926703D01*
X102840103Y-96982920D01*
X102795934Y-97049024D01*
X102765510Y-97122474D01*
X102750000Y-97200449D01*
X101576200Y-97200449D01*
X101576200Y-96287849D01*
X103051200Y-96287849D01*
X103051200Y-96367351D01*
X103066710Y-96445326D01*
X103097134Y-96518776D01*
X103141303Y-96584880D01*
X103197520Y-96641097D01*
X103263624Y-96685266D01*
X103337074Y-96715690D01*
X103415049Y-96731200D01*
X103494551Y-96731200D01*
X103572526Y-96715690D01*
X103645976Y-96685266D01*
X103712080Y-96641097D01*
X103768297Y-96584880D01*
X103812466Y-96518776D01*
X103842890Y-96445326D01*
X103858400Y-96367351D01*
X103858400Y-96287849D01*
X103842890Y-96209874D01*
X103812466Y-96136424D01*
X103768297Y-96070320D01*
X103712080Y-96014103D01*
X103645976Y-95969934D01*
X103572526Y-95939510D01*
X103494551Y-95924000D01*
X103415049Y-95924000D01*
X103337074Y-95939510D01*
X103263624Y-95969934D01*
X103197520Y-96014103D01*
X103141303Y-96070320D01*
X103097134Y-96136424D01*
X103066710Y-96209874D01*
X103051200Y-96287849D01*
X101576200Y-96287849D01*
X101576200Y-95468362D01*
X101605474Y-95480488D01*
X101683449Y-95495998D01*
X101762951Y-95495998D01*
X101840926Y-95480488D01*
X101910899Y-95451504D01*
X101866903Y-95495500D01*
X101822734Y-95561604D01*
X101792310Y-95635054D01*
X101776800Y-95713029D01*
X101776800Y-95792531D01*
X101792310Y-95870506D01*
X101822734Y-95943956D01*
X101866903Y-96010060D01*
X101923120Y-96066277D01*
X101989224Y-96110446D01*
X102062674Y-96140870D01*
X102140649Y-96156380D01*
X102220151Y-96156380D01*
X102298126Y-96140870D01*
X102371576Y-96110446D01*
X102437680Y-96066277D01*
X102493897Y-96010060D01*
X102538066Y-95943956D01*
X102568490Y-95870506D01*
X102584000Y-95792531D01*
X102584000Y-95713029D01*
X102568490Y-95635054D01*
X102538066Y-95561604D01*
X102493897Y-95495500D01*
X102437680Y-95439283D01*
X102371576Y-95395114D01*
X102298126Y-95364690D01*
X102220151Y-95349180D01*
X102140649Y-95349180D01*
X102062674Y-95364690D01*
X101992701Y-95393674D01*
X102036697Y-95349678D01*
X102080866Y-95283574D01*
X102111290Y-95210124D01*
X102126800Y-95132149D01*
X102126800Y-95052647D01*
X102111290Y-94974672D01*
X102089771Y-94922721D01*
X102094926Y-94921696D01*
X102168376Y-94891272D01*
X102234480Y-94847103D01*
X102290697Y-94790886D01*
X102334866Y-94724782D01*
X102365290Y-94651332D01*
X102380800Y-94573357D01*
X102380800Y-94493855D01*
X102365290Y-94415880D01*
X102334866Y-94342430D01*
X102290697Y-94276326D01*
X102234480Y-94220109D01*
X102168376Y-94175940D01*
X102094926Y-94145516D01*
X102016951Y-94130006D01*
X101937449Y-94130006D01*
X101859474Y-94145516D01*
X101786024Y-94175940D01*
X101719920Y-94220109D01*
X101663703Y-94276326D01*
X101619534Y-94342430D01*
X101589110Y-94415880D01*
X101576200Y-94480784D01*
X101576200Y-93326200D01*
X105923800Y-93326200D01*
X105923800Y-93721528D01*
G37*
X105923800Y-93721528D02*
X105904926Y-93713710D01*
X105826951Y-93698200D01*
X105747449Y-93698200D01*
X105669474Y-93713710D01*
X105596024Y-93744134D01*
X105529920Y-93788303D01*
X105473703Y-93844520D01*
X105429534Y-93910624D01*
X105399110Y-93984074D01*
X105383600Y-94062049D01*
X105383600Y-94141551D01*
X105399110Y-94219526D01*
X105429534Y-94292976D01*
X105473703Y-94359080D01*
X105527732Y-94413109D01*
X105492720Y-94436503D01*
X105436503Y-94492720D01*
X105392334Y-94558824D01*
X105361910Y-94632274D01*
X105346400Y-94710249D01*
X105346400Y-94772725D01*
X105311216Y-94772725D01*
X105233241Y-94788235D01*
X105159791Y-94818659D01*
X105093687Y-94862828D01*
X105037470Y-94919045D01*
X104993301Y-94985149D01*
X104962877Y-95058599D01*
X104947367Y-95136574D01*
X104947367Y-95216076D01*
X104962877Y-95294051D01*
X104993301Y-95367501D01*
X105037470Y-95433605D01*
X105093687Y-95489822D01*
X105159791Y-95533991D01*
X105233241Y-95564415D01*
X105311216Y-95579925D01*
X105390718Y-95579925D01*
X105468693Y-95564415D01*
X105542143Y-95533991D01*
X105608247Y-95489822D01*
X105664464Y-95433605D01*
X105708633Y-95367501D01*
X105739057Y-95294051D01*
X105754567Y-95216076D01*
X105754567Y-95153600D01*
X105789751Y-95153600D01*
X105867726Y-95138090D01*
X105923800Y-95114863D01*
X105923800Y-97538893D01*
X105921290Y-97526274D01*
X105890866Y-97452824D01*
X105846697Y-97386720D01*
X105790480Y-97330503D01*
X105724376Y-97286334D01*
X105650926Y-97255910D01*
X105572951Y-97240400D01*
X105493449Y-97240400D01*
X105415474Y-97255910D01*
X105342024Y-97286334D01*
X105275920Y-97330503D01*
X105219703Y-97386720D01*
X105175534Y-97452824D01*
X105145110Y-97526274D01*
X105129600Y-97604249D01*
X105129600Y-97683751D01*
X105145110Y-97761726D01*
X105175534Y-97835176D01*
X105219703Y-97901280D01*
X105275920Y-97957497D01*
X105342024Y-98001666D01*
X105415474Y-98032090D01*
X105493449Y-98047600D01*
X105572951Y-98047600D01*
X105650926Y-98032090D01*
X105724376Y-98001666D01*
X105790480Y-97957497D01*
X105846697Y-97901280D01*
X105890866Y-97835176D01*
X105921290Y-97761726D01*
X105923800Y-97749107D01*
X105923800Y-98986693D01*
X105921290Y-98974074D01*
X105890866Y-98900624D01*
X105846697Y-98834520D01*
X105790480Y-98778303D01*
X105724376Y-98734134D01*
X105650926Y-98703710D01*
X105572951Y-98688200D01*
X105493449Y-98688200D01*
X105415474Y-98703710D01*
X105342024Y-98734134D01*
X105275920Y-98778303D01*
X105219703Y-98834520D01*
X105175534Y-98900624D01*
X105145110Y-98974074D01*
X105129600Y-99052049D01*
X105129600Y-99131551D01*
X105131639Y-99141800D01*
X105087059Y-99141800D01*
X105009084Y-99157310D01*
X104935634Y-99187734D01*
X104869530Y-99231903D01*
X104813313Y-99288120D01*
X104769144Y-99354224D01*
X104738720Y-99427674D01*
X104723210Y-99505649D01*
X104723210Y-99585151D01*
X104738720Y-99663126D01*
X104769144Y-99736576D01*
X104813313Y-99802680D01*
X104869530Y-99858897D01*
X104935634Y-99903066D01*
X105009084Y-99933490D01*
X105087059Y-99949000D01*
X105166561Y-99949000D01*
X105244536Y-99933490D01*
X105317986Y-99903066D01*
X105384090Y-99858897D01*
X105440307Y-99802680D01*
X105484476Y-99736576D01*
X105514900Y-99663126D01*
X105530410Y-99585151D01*
X105530410Y-99505649D01*
X105528371Y-99495400D01*
X105572951Y-99495400D01*
X105650926Y-99479890D01*
X105724376Y-99449466D01*
X105790480Y-99405297D01*
X105846697Y-99349080D01*
X105890866Y-99282976D01*
X105921290Y-99209526D01*
X105923800Y-99196907D01*
X105923800Y-102173800D01*
X101576200Y-102173800D01*
X101576200Y-100859849D01*
X103123000Y-100859849D01*
X103123000Y-100939351D01*
X103138510Y-101017326D01*
X103168934Y-101090776D01*
X103213103Y-101156880D01*
X103269320Y-101213097D01*
X103335424Y-101257266D01*
X103408874Y-101287690D01*
X103486849Y-101303200D01*
X103558113Y-101303200D01*
X103575334Y-101344776D01*
X103619503Y-101410880D01*
X103675720Y-101467097D01*
X103741824Y-101511266D01*
X103815274Y-101541690D01*
X103893249Y-101557200D01*
X103972751Y-101557200D01*
X104050726Y-101541690D01*
X104124176Y-101511266D01*
X104190280Y-101467097D01*
X104246497Y-101410880D01*
X104290666Y-101344776D01*
X104321090Y-101271326D01*
X104336600Y-101193351D01*
X104336600Y-101113849D01*
X104321090Y-101035874D01*
X104290666Y-100962424D01*
X104246497Y-100896320D01*
X104190280Y-100840103D01*
X104124176Y-100795934D01*
X104050726Y-100765510D01*
X103972751Y-100750000D01*
X103901487Y-100750000D01*
X103884266Y-100708424D01*
X103840097Y-100642320D01*
X103833426Y-100635649D01*
X104977200Y-100635649D01*
X104977200Y-100715151D01*
X104992710Y-100793126D01*
X105023134Y-100866576D01*
X105067303Y-100932680D01*
X105123520Y-100988897D01*
X105189624Y-101033066D01*
X105263074Y-101063490D01*
X105341049Y-101079000D01*
X105420551Y-101079000D01*
X105498526Y-101063490D01*
X105571976Y-101033066D01*
X105638080Y-100988897D01*
X105694297Y-100932680D01*
X105738466Y-100866576D01*
X105768890Y-100793126D01*
X105784400Y-100715151D01*
X105784400Y-100635649D01*
X105768890Y-100557674D01*
X105738466Y-100484224D01*
X105694297Y-100418120D01*
X105638080Y-100361903D01*
X105571976Y-100317734D01*
X105498526Y-100287310D01*
X105420551Y-100271800D01*
X105341049Y-100271800D01*
X105263074Y-100287310D01*
X105189624Y-100317734D01*
X105123520Y-100361903D01*
X105067303Y-100418120D01*
X105023134Y-100484224D01*
X104992710Y-100557674D01*
X104977200Y-100635649D01*
X103833426Y-100635649D01*
X103783880Y-100586103D01*
X103717776Y-100541934D01*
X103644326Y-100511510D01*
X103566351Y-100496000D01*
X103486849Y-100496000D01*
X103408874Y-100511510D01*
X103335424Y-100541934D01*
X103269320Y-100586103D01*
X103213103Y-100642320D01*
X103168934Y-100708424D01*
X103138510Y-100781874D01*
X103123000Y-100859849D01*
X101576200Y-100859849D01*
X101576200Y-97200449D01*
X102750000Y-97200449D01*
X102750000Y-97279951D01*
X102765510Y-97357926D01*
X102795934Y-97431376D01*
X102840103Y-97497480D01*
X102896320Y-97553697D01*
X102962424Y-97597866D01*
X103035874Y-97628290D01*
X103113849Y-97643800D01*
X103193351Y-97643800D01*
X103271326Y-97628290D01*
X103344776Y-97597866D01*
X103403600Y-97558561D01*
X103462424Y-97597866D01*
X103535874Y-97628290D01*
X103613849Y-97643800D01*
X103693351Y-97643800D01*
X103771326Y-97628290D01*
X103844776Y-97597866D01*
X103910880Y-97553697D01*
X103967097Y-97497480D01*
X104011266Y-97431376D01*
X104041690Y-97357926D01*
X104057200Y-97279951D01*
X104057200Y-97200449D01*
X104041690Y-97122474D01*
X104011266Y-97049024D01*
X103967097Y-96982920D01*
X103910880Y-96926703D01*
X103844776Y-96882534D01*
X103771326Y-96852110D01*
X103693351Y-96836600D01*
X103613849Y-96836600D01*
X103535874Y-96852110D01*
X103462424Y-96882534D01*
X103403600Y-96921839D01*
X103344776Y-96882534D01*
X103271326Y-96852110D01*
X103193351Y-96836600D01*
X103113849Y-96836600D01*
X103035874Y-96852110D01*
X102962424Y-96882534D01*
X102896320Y-96926703D01*
X102840103Y-96982920D01*
X102795934Y-97049024D01*
X102765510Y-97122474D01*
X102750000Y-97200449D01*
X101576200Y-97200449D01*
X101576200Y-96287849D01*
X103051200Y-96287849D01*
X103051200Y-96367351D01*
X103066710Y-96445326D01*
X103097134Y-96518776D01*
X103141303Y-96584880D01*
X103197520Y-96641097D01*
X103263624Y-96685266D01*
X103337074Y-96715690D01*
X103415049Y-96731200D01*
X103494551Y-96731200D01*
X103572526Y-96715690D01*
X103645976Y-96685266D01*
X103712080Y-96641097D01*
X103768297Y-96584880D01*
X103812466Y-96518776D01*
X103842890Y-96445326D01*
X103858400Y-96367351D01*
X103858400Y-96287849D01*
X103842890Y-96209874D01*
X103812466Y-96136424D01*
X103768297Y-96070320D01*
X103712080Y-96014103D01*
X103645976Y-95969934D01*
X103572526Y-95939510D01*
X103494551Y-95924000D01*
X103415049Y-95924000D01*
X103337074Y-95939510D01*
X103263624Y-95969934D01*
X103197520Y-96014103D01*
X103141303Y-96070320D01*
X103097134Y-96136424D01*
X103066710Y-96209874D01*
X103051200Y-96287849D01*
X101576200Y-96287849D01*
X101576200Y-95468362D01*
X101605474Y-95480488D01*
X101683449Y-95495998D01*
X101762951Y-95495998D01*
X101840926Y-95480488D01*
X101910899Y-95451504D01*
X101866903Y-95495500D01*
X101822734Y-95561604D01*
X101792310Y-95635054D01*
X101776800Y-95713029D01*
X101776800Y-95792531D01*
X101792310Y-95870506D01*
X101822734Y-95943956D01*
X101866903Y-96010060D01*
X101923120Y-96066277D01*
X101989224Y-96110446D01*
X102062674Y-96140870D01*
X102140649Y-96156380D01*
X102220151Y-96156380D01*
X102298126Y-96140870D01*
X102371576Y-96110446D01*
X102437680Y-96066277D01*
X102493897Y-96010060D01*
X102538066Y-95943956D01*
X102568490Y-95870506D01*
X102584000Y-95792531D01*
X102584000Y-95713029D01*
X102568490Y-95635054D01*
X102538066Y-95561604D01*
X102493897Y-95495500D01*
X102437680Y-95439283D01*
X102371576Y-95395114D01*
X102298126Y-95364690D01*
X102220151Y-95349180D01*
X102140649Y-95349180D01*
X102062674Y-95364690D01*
X101992701Y-95393674D01*
X102036697Y-95349678D01*
X102080866Y-95283574D01*
X102111290Y-95210124D01*
X102126800Y-95132149D01*
X102126800Y-95052647D01*
X102111290Y-94974672D01*
X102089771Y-94922721D01*
X102094926Y-94921696D01*
X102168376Y-94891272D01*
X102234480Y-94847103D01*
X102290697Y-94790886D01*
X102334866Y-94724782D01*
X102365290Y-94651332D01*
X102380800Y-94573357D01*
X102380800Y-94493855D01*
X102365290Y-94415880D01*
X102334866Y-94342430D01*
X102290697Y-94276326D01*
X102234480Y-94220109D01*
X102168376Y-94175940D01*
X102094926Y-94145516D01*
X102016951Y-94130006D01*
X101937449Y-94130006D01*
X101859474Y-94145516D01*
X101786024Y-94175940D01*
X101719920Y-94220109D01*
X101663703Y-94276326D01*
X101619534Y-94342430D01*
X101589110Y-94415880D01*
X101576200Y-94480784D01*
X101576200Y-93326200D01*
X105923800Y-93326200D01*
X105923800Y-93721528D01*
G36*
X119755134Y-109844424D02*
G01*
X119724710Y-109917874D01*
X119709200Y-109995849D01*
X119709200Y-110075351D01*
X119714731Y-110103159D01*
X119644555Y-110089200D01*
X119565053Y-110089200D01*
X119487078Y-110104710D01*
X119413628Y-110135134D01*
X119347524Y-110179303D01*
X119291307Y-110235520D01*
X119247138Y-110301624D01*
X119243403Y-110310642D01*
X119232497Y-110294320D01*
X119176280Y-110238103D01*
X119110176Y-110193934D01*
X119036726Y-110163510D01*
X118958751Y-110148000D01*
X118879249Y-110148000D01*
X118801274Y-110163510D01*
X118727824Y-110193934D01*
X118679231Y-110226402D01*
X118673697Y-110218120D01*
X118617480Y-110161903D01*
X118551376Y-110117734D01*
X118477926Y-110087310D01*
X118399951Y-110071800D01*
X118320449Y-110071800D01*
X118242474Y-110087310D01*
X118169024Y-110117734D01*
X118120431Y-110150202D01*
X118114897Y-110141920D01*
X118058680Y-110085703D01*
X117992576Y-110041534D01*
X117919126Y-110011110D01*
X117841151Y-109995600D01*
X117761649Y-109995600D01*
X117683674Y-110011110D01*
X117610224Y-110041534D01*
X117544120Y-110085703D01*
X117487903Y-110141920D01*
X117443734Y-110208024D01*
X117413310Y-110281474D01*
X117397800Y-110359449D01*
X117397800Y-110438951D01*
X117413310Y-110516926D01*
X117443734Y-110590376D01*
X117487903Y-110656480D01*
X117544120Y-110712697D01*
X117610224Y-110756866D01*
X117683674Y-110787290D01*
X117761649Y-110802800D01*
X117841151Y-110802800D01*
X117919126Y-110787290D01*
X117992576Y-110756866D01*
X118041169Y-110724398D01*
X118046703Y-110732680D01*
X118102920Y-110788897D01*
X118169024Y-110833066D01*
X118242474Y-110863490D01*
X118320449Y-110879000D01*
X118399951Y-110879000D01*
X118477926Y-110863490D01*
X118551376Y-110833066D01*
X118599969Y-110800598D01*
X118605503Y-110808880D01*
X118661720Y-110865097D01*
X118727824Y-110909266D01*
X118801274Y-110939690D01*
X118879249Y-110955200D01*
X118958751Y-110955200D01*
X119036726Y-110939690D01*
X119110176Y-110909266D01*
X119176280Y-110865097D01*
X119232497Y-110808880D01*
X119276666Y-110742776D01*
X119280401Y-110733758D01*
X119291307Y-110750080D01*
X119347524Y-110806297D01*
X119413628Y-110850466D01*
X119487078Y-110880890D01*
X119565053Y-110896400D01*
X119644555Y-110896400D01*
X119722530Y-110880890D01*
X119795980Y-110850466D01*
X119862084Y-110806297D01*
X119918301Y-110750080D01*
X119962470Y-110683976D01*
X119992894Y-110610526D01*
X120008404Y-110532551D01*
X120008404Y-110453049D01*
X120002873Y-110425241D01*
X120073049Y-110439200D01*
X120152551Y-110439200D01*
X120230526Y-110423690D01*
X120303976Y-110393266D01*
X120370080Y-110349097D01*
X120423800Y-110295377D01*
X120423800Y-110978362D01*
X120357526Y-110950910D01*
X120279551Y-110935400D01*
X120200049Y-110935400D01*
X120122074Y-110950910D01*
X120048624Y-110981334D01*
X119982520Y-111025503D01*
X119926303Y-111081720D01*
X119882134Y-111147824D01*
X119851710Y-111221274D01*
X119836200Y-111299249D01*
X119836200Y-111378751D01*
X119851710Y-111456726D01*
X119882134Y-111530176D01*
X119926303Y-111596280D01*
X119982520Y-111652497D01*
X120048624Y-111696666D01*
X120122074Y-111727090D01*
X120200049Y-111742600D01*
X120279551Y-111742600D01*
X120357526Y-111727090D01*
X120423800Y-111699638D01*
X120423800Y-112051885D01*
X120380172Y-112022734D01*
X120306722Y-111992310D01*
X120228747Y-111976800D01*
X120149245Y-111976800D01*
X120071270Y-111992310D01*
X119997820Y-112022734D01*
X119931716Y-112066903D01*
X119875499Y-112123120D01*
X119831330Y-112189224D01*
X119800906Y-112262674D01*
X119785396Y-112340649D01*
X119785396Y-112420151D01*
X119800906Y-112498126D01*
X119831330Y-112571576D01*
X119875499Y-112637680D01*
X119931716Y-112693897D01*
X119997820Y-112738066D01*
X120071270Y-112768490D01*
X120149245Y-112784000D01*
X120228747Y-112784000D01*
X120306722Y-112768490D01*
X120380172Y-112738066D01*
X120423800Y-112708915D01*
X120423800Y-115777681D01*
X120380176Y-115748533D01*
X120306726Y-115718109D01*
X120228751Y-115702599D01*
X120149249Y-115702599D01*
X120071274Y-115718109D01*
X119997824Y-115748533D01*
X119931720Y-115792702D01*
X119875503Y-115848919D01*
X119831334Y-115915023D01*
X119800910Y-115988473D01*
X119785400Y-116066448D01*
X119785400Y-116145950D01*
X119800910Y-116223925D01*
X119831334Y-116297375D01*
X119844840Y-116317588D01*
X119782110Y-116359503D01*
X119727247Y-116414366D01*
X119724308Y-116412402D01*
X119650858Y-116381978D01*
X119572883Y-116366468D01*
X119493381Y-116366468D01*
X119415406Y-116381978D01*
X119341956Y-116412402D01*
X119275852Y-116456571D01*
X119219635Y-116512788D01*
X119175466Y-116578892D01*
X119163076Y-116608805D01*
X119157480Y-116580674D01*
X119127056Y-116507224D01*
X119082887Y-116441120D01*
X119026670Y-116384903D01*
X118960566Y-116340734D01*
X118887116Y-116310310D01*
X118809141Y-116294800D01*
X118729639Y-116294800D01*
X118651664Y-116310310D01*
X118578214Y-116340734D01*
X118526695Y-116375158D01*
X118475176Y-116340734D01*
X118401726Y-116310310D01*
X118323751Y-116294800D01*
X118244249Y-116294800D01*
X118166274Y-116310310D01*
X118092824Y-116340734D01*
X118045876Y-116372103D01*
X118033280Y-116359507D01*
X117967176Y-116315338D01*
X117893726Y-116284914D01*
X117815751Y-116269404D01*
X117736249Y-116269404D01*
X117658274Y-116284914D01*
X117584824Y-116315338D01*
X117518720Y-116359507D01*
X117462503Y-116415724D01*
X117418334Y-116481828D01*
X117387910Y-116555278D01*
X117372400Y-116633253D01*
X117372400Y-116712755D01*
X117387910Y-116790730D01*
X117418334Y-116864180D01*
X117462503Y-116930284D01*
X117518720Y-116986501D01*
X117584824Y-117030670D01*
X117658274Y-117061094D01*
X117736249Y-117076604D01*
X117815751Y-117076604D01*
X117893726Y-117061094D01*
X117967176Y-117030670D01*
X118014124Y-116999301D01*
X118026720Y-117011897D01*
X118092824Y-117056066D01*
X118166274Y-117086490D01*
X118244249Y-117102000D01*
X118323751Y-117102000D01*
X118401726Y-117086490D01*
X118475176Y-117056066D01*
X118526695Y-117021642D01*
X118578214Y-117056066D01*
X118651664Y-117086490D01*
X118729639Y-117102000D01*
X118809141Y-117102000D01*
X118887116Y-117086490D01*
X118960566Y-117056066D01*
X119026670Y-117011897D01*
X119082887Y-116955680D01*
X119127056Y-116889576D01*
X119139446Y-116859663D01*
X119145042Y-116887794D01*
X119175466Y-116961244D01*
X119219635Y-117027348D01*
X119275852Y-117083565D01*
X119341956Y-117127734D01*
X119415406Y-117158158D01*
X119493381Y-117173668D01*
X119572883Y-117173668D01*
X119650858Y-117158158D01*
X119724308Y-117127734D01*
X119790412Y-117083565D01*
X119845275Y-117028702D01*
X119848214Y-117030666D01*
X119921664Y-117061090D01*
X119999639Y-117076600D01*
X120079141Y-117076600D01*
X120157116Y-117061090D01*
X120230566Y-117030666D01*
X120296670Y-116986497D01*
X120352887Y-116930280D01*
X120397056Y-116864176D01*
X120423800Y-116799610D01*
X120423800Y-117173800D01*
X113576200Y-117173800D01*
X113576200Y-116430049D01*
X114553000Y-116430049D01*
X114553000Y-116509551D01*
X114568510Y-116587526D01*
X114598934Y-116660976D01*
X114643103Y-116727080D01*
X114699320Y-116783297D01*
X114765424Y-116827466D01*
X114838874Y-116857890D01*
X114916849Y-116873400D01*
X114996351Y-116873400D01*
X115074326Y-116857890D01*
X115147776Y-116827466D01*
X115196885Y-116794653D01*
X115208534Y-116822776D01*
X115252703Y-116888880D01*
X115308920Y-116945097D01*
X115375024Y-116989266D01*
X115448474Y-117019690D01*
X115526449Y-117035200D01*
X115605951Y-117035200D01*
X115683926Y-117019690D01*
X115757376Y-116989266D01*
X115823480Y-116945097D01*
X115879697Y-116888880D01*
X115923866Y-116822776D01*
X115954290Y-116749326D01*
X115969800Y-116671351D01*
X115969800Y-116591849D01*
X115954290Y-116513874D01*
X115923866Y-116440424D01*
X115879697Y-116374320D01*
X115823480Y-116318103D01*
X115757376Y-116273934D01*
X115683926Y-116243510D01*
X115605951Y-116228000D01*
X115526449Y-116228000D01*
X115448474Y-116243510D01*
X115375024Y-116273934D01*
X115325915Y-116306747D01*
X115314266Y-116278624D01*
X115270097Y-116212520D01*
X115213880Y-116156303D01*
X115147776Y-116112134D01*
X115074326Y-116081710D01*
X114996351Y-116066200D01*
X114916849Y-116066200D01*
X114838874Y-116081710D01*
X114765424Y-116112134D01*
X114699320Y-116156303D01*
X114643103Y-116212520D01*
X114598934Y-116278624D01*
X114568510Y-116352074D01*
X114553000Y-116430049D01*
X113576200Y-116430049D01*
X113576200Y-115322247D01*
X114946200Y-115322247D01*
X114946200Y-115401749D01*
X114961710Y-115479724D01*
X114992134Y-115553174D01*
X115036303Y-115619278D01*
X115092520Y-115675495D01*
X115158624Y-115719664D01*
X115232074Y-115750088D01*
X115310049Y-115765598D01*
X115389551Y-115765598D01*
X115467526Y-115750088D01*
X115540976Y-115719664D01*
X115607080Y-115675495D01*
X115663297Y-115619278D01*
X115707466Y-115553174D01*
X115737890Y-115479724D01*
X115753400Y-115401749D01*
X115753400Y-115337849D01*
X119429800Y-115337849D01*
X119429800Y-115417351D01*
X119445310Y-115495326D01*
X119475734Y-115568776D01*
X119519903Y-115634880D01*
X119576120Y-115691097D01*
X119642224Y-115735266D01*
X119715674Y-115765690D01*
X119793649Y-115781200D01*
X119873151Y-115781200D01*
X119951126Y-115765690D01*
X120024576Y-115735266D01*
X120090680Y-115691097D01*
X120146897Y-115634880D01*
X120191066Y-115568776D01*
X120221490Y-115495326D01*
X120237000Y-115417351D01*
X120237000Y-115337849D01*
X120221490Y-115259874D01*
X120191066Y-115186424D01*
X120146897Y-115120320D01*
X120090680Y-115064103D01*
X120024576Y-115019934D01*
X119951126Y-114989510D01*
X119873151Y-114974000D01*
X119793649Y-114974000D01*
X119715674Y-114989510D01*
X119642224Y-115019934D01*
X119576120Y-115064103D01*
X119519903Y-115120320D01*
X119475734Y-115186424D01*
X119445310Y-115259874D01*
X119429800Y-115337849D01*
X115753400Y-115337849D01*
X115753400Y-115322247D01*
X115737890Y-115244272D01*
X115707466Y-115170822D01*
X115663297Y-115104718D01*
X115607080Y-115048501D01*
X115540976Y-115004332D01*
X115467526Y-114973908D01*
X115389551Y-114958398D01*
X115310049Y-114958398D01*
X115232074Y-114973908D01*
X115158624Y-115004332D01*
X115092520Y-115048501D01*
X115036303Y-115104718D01*
X114992134Y-115170822D01*
X114961710Y-115244272D01*
X114946200Y-115322247D01*
X113576200Y-115322247D01*
X113576200Y-113838049D01*
X114946200Y-113838049D01*
X114946200Y-113917551D01*
X114961710Y-113995526D01*
X114992134Y-114068976D01*
X115036303Y-114135080D01*
X115092520Y-114191297D01*
X115158624Y-114235466D01*
X115232074Y-114265890D01*
X115310049Y-114281400D01*
X115389551Y-114281400D01*
X115467526Y-114265890D01*
X115540976Y-114235466D01*
X115607080Y-114191297D01*
X115663297Y-114135080D01*
X115707466Y-114068976D01*
X115737890Y-113995526D01*
X115753400Y-113917551D01*
X115753400Y-113838049D01*
X115737890Y-113760074D01*
X115707466Y-113686624D01*
X115663297Y-113620520D01*
X115607080Y-113564303D01*
X115540976Y-113520134D01*
X115467526Y-113489710D01*
X115389551Y-113474200D01*
X115310049Y-113474200D01*
X115232074Y-113489710D01*
X115158624Y-113520134D01*
X115092520Y-113564303D01*
X115036303Y-113620520D01*
X114992134Y-113686624D01*
X114961710Y-113760074D01*
X114946200Y-113838049D01*
X113576200Y-113838049D01*
X113576200Y-112838049D01*
X114946200Y-112838049D01*
X114946200Y-112917551D01*
X114961710Y-112995526D01*
X114992134Y-113068976D01*
X115036303Y-113135080D01*
X115092520Y-113191297D01*
X115158624Y-113235466D01*
X115232074Y-113265890D01*
X115310049Y-113281400D01*
X115389551Y-113281400D01*
X115467526Y-113265890D01*
X115540976Y-113235466D01*
X115607080Y-113191297D01*
X115663297Y-113135080D01*
X115707466Y-113068976D01*
X115737890Y-112995526D01*
X115753400Y-112917551D01*
X115753400Y-112838049D01*
X115737890Y-112760074D01*
X115707466Y-112686624D01*
X115663297Y-112620520D01*
X115607080Y-112564303D01*
X115540976Y-112520134D01*
X115467526Y-112489710D01*
X115389551Y-112474200D01*
X115310049Y-112474200D01*
X115232074Y-112489710D01*
X115158624Y-112520134D01*
X115092520Y-112564303D01*
X115036303Y-112620520D01*
X114992134Y-112686624D01*
X114961710Y-112760074D01*
X114946200Y-112838049D01*
X113576200Y-112838049D01*
X113576200Y-111827439D01*
X114946200Y-111827439D01*
X114946200Y-111906941D01*
X114961710Y-111984916D01*
X114992134Y-112058366D01*
X115036303Y-112124470D01*
X115092520Y-112180687D01*
X115158624Y-112224856D01*
X115232074Y-112255280D01*
X115310049Y-112270790D01*
X115389551Y-112270790D01*
X115467526Y-112255280D01*
X115540976Y-112224856D01*
X115607080Y-112180687D01*
X115663297Y-112124470D01*
X115707466Y-112058366D01*
X115737890Y-111984916D01*
X115753400Y-111906941D01*
X115753400Y-111827439D01*
X115737890Y-111749464D01*
X115707466Y-111676014D01*
X115663297Y-111609910D01*
X115607080Y-111553693D01*
X115540976Y-111509524D01*
X115467526Y-111479100D01*
X115389551Y-111463590D01*
X115310049Y-111463590D01*
X115232074Y-111479100D01*
X115158624Y-111509524D01*
X115092520Y-111553693D01*
X115036303Y-111609910D01*
X114992134Y-111676014D01*
X114961710Y-111749464D01*
X114946200Y-111827439D01*
X113576200Y-111827439D01*
X113576200Y-110339049D01*
X115751200Y-110339049D01*
X115751200Y-110418551D01*
X115766710Y-110496526D01*
X115797134Y-110569976D01*
X115841303Y-110636080D01*
X115897520Y-110692297D01*
X115963624Y-110736466D01*
X116037074Y-110766890D01*
X116115049Y-110782400D01*
X116194551Y-110782400D01*
X116272526Y-110766890D01*
X116345976Y-110736466D01*
X116412080Y-110692297D01*
X116421500Y-110682877D01*
X116430920Y-110692297D01*
X116497024Y-110736466D01*
X116570474Y-110766890D01*
X116648449Y-110782400D01*
X116727951Y-110782400D01*
X116805926Y-110766890D01*
X116879376Y-110736466D01*
X116945480Y-110692297D01*
X117001697Y-110636080D01*
X117045866Y-110569976D01*
X117076290Y-110496526D01*
X117091800Y-110418551D01*
X117091800Y-110339049D01*
X117076290Y-110261074D01*
X117045866Y-110187624D01*
X117001697Y-110121520D01*
X116945480Y-110065303D01*
X116879376Y-110021134D01*
X116805926Y-109990710D01*
X116727951Y-109975200D01*
X116648449Y-109975200D01*
X116570474Y-109990710D01*
X116497024Y-110021134D01*
X116430920Y-110065303D01*
X116421500Y-110074723D01*
X116412080Y-110065303D01*
X116345976Y-110021134D01*
X116272526Y-109990710D01*
X116194551Y-109975200D01*
X116115049Y-109975200D01*
X116037074Y-109990710D01*
X115963624Y-110021134D01*
X115897520Y-110065303D01*
X115841303Y-110121520D01*
X115797134Y-110187624D01*
X115766710Y-110261074D01*
X115751200Y-110339049D01*
X113576200Y-110339049D01*
X113576200Y-109826200D01*
X119767311Y-109826200D01*
X119755134Y-109844424D01*
G37*
X119755134Y-109844424D02*
X119724710Y-109917874D01*
X119709200Y-109995849D01*
X119709200Y-110075351D01*
X119714731Y-110103159D01*
X119644555Y-110089200D01*
X119565053Y-110089200D01*
X119487078Y-110104710D01*
X119413628Y-110135134D01*
X119347524Y-110179303D01*
X119291307Y-110235520D01*
X119247138Y-110301624D01*
X119243403Y-110310642D01*
X119232497Y-110294320D01*
X119176280Y-110238103D01*
X119110176Y-110193934D01*
X119036726Y-110163510D01*
X118958751Y-110148000D01*
X118879249Y-110148000D01*
X118801274Y-110163510D01*
X118727824Y-110193934D01*
X118679231Y-110226402D01*
X118673697Y-110218120D01*
X118617480Y-110161903D01*
X118551376Y-110117734D01*
X118477926Y-110087310D01*
X118399951Y-110071800D01*
X118320449Y-110071800D01*
X118242474Y-110087310D01*
X118169024Y-110117734D01*
X118120431Y-110150202D01*
X118114897Y-110141920D01*
X118058680Y-110085703D01*
X117992576Y-110041534D01*
X117919126Y-110011110D01*
X117841151Y-109995600D01*
X117761649Y-109995600D01*
X117683674Y-110011110D01*
X117610224Y-110041534D01*
X117544120Y-110085703D01*
X117487903Y-110141920D01*
X117443734Y-110208024D01*
X117413310Y-110281474D01*
X117397800Y-110359449D01*
X117397800Y-110438951D01*
X117413310Y-110516926D01*
X117443734Y-110590376D01*
X117487903Y-110656480D01*
X117544120Y-110712697D01*
X117610224Y-110756866D01*
X117683674Y-110787290D01*
X117761649Y-110802800D01*
X117841151Y-110802800D01*
X117919126Y-110787290D01*
X117992576Y-110756866D01*
X118041169Y-110724398D01*
X118046703Y-110732680D01*
X118102920Y-110788897D01*
X118169024Y-110833066D01*
X118242474Y-110863490D01*
X118320449Y-110879000D01*
X118399951Y-110879000D01*
X118477926Y-110863490D01*
X118551376Y-110833066D01*
X118599969Y-110800598D01*
X118605503Y-110808880D01*
X118661720Y-110865097D01*
X118727824Y-110909266D01*
X118801274Y-110939690D01*
X118879249Y-110955200D01*
X118958751Y-110955200D01*
X119036726Y-110939690D01*
X119110176Y-110909266D01*
X119176280Y-110865097D01*
X119232497Y-110808880D01*
X119276666Y-110742776D01*
X119280401Y-110733758D01*
X119291307Y-110750080D01*
X119347524Y-110806297D01*
X119413628Y-110850466D01*
X119487078Y-110880890D01*
X119565053Y-110896400D01*
X119644555Y-110896400D01*
X119722530Y-110880890D01*
X119795980Y-110850466D01*
X119862084Y-110806297D01*
X119918301Y-110750080D01*
X119962470Y-110683976D01*
X119992894Y-110610526D01*
X120008404Y-110532551D01*
X120008404Y-110453049D01*
X120002873Y-110425241D01*
X120073049Y-110439200D01*
X120152551Y-110439200D01*
X120230526Y-110423690D01*
X120303976Y-110393266D01*
X120370080Y-110349097D01*
X120423800Y-110295377D01*
X120423800Y-110978362D01*
X120357526Y-110950910D01*
X120279551Y-110935400D01*
X120200049Y-110935400D01*
X120122074Y-110950910D01*
X120048624Y-110981334D01*
X119982520Y-111025503D01*
X119926303Y-111081720D01*
X119882134Y-111147824D01*
X119851710Y-111221274D01*
X119836200Y-111299249D01*
X119836200Y-111378751D01*
X119851710Y-111456726D01*
X119882134Y-111530176D01*
X119926303Y-111596280D01*
X119982520Y-111652497D01*
X120048624Y-111696666D01*
X120122074Y-111727090D01*
X120200049Y-111742600D01*
X120279551Y-111742600D01*
X120357526Y-111727090D01*
X120423800Y-111699638D01*
X120423800Y-112051885D01*
X120380172Y-112022734D01*
X120306722Y-111992310D01*
X120228747Y-111976800D01*
X120149245Y-111976800D01*
X120071270Y-111992310D01*
X119997820Y-112022734D01*
X119931716Y-112066903D01*
X119875499Y-112123120D01*
X119831330Y-112189224D01*
X119800906Y-112262674D01*
X119785396Y-112340649D01*
X119785396Y-112420151D01*
X119800906Y-112498126D01*
X119831330Y-112571576D01*
X119875499Y-112637680D01*
X119931716Y-112693897D01*
X119997820Y-112738066D01*
X120071270Y-112768490D01*
X120149245Y-112784000D01*
X120228747Y-112784000D01*
X120306722Y-112768490D01*
X120380172Y-112738066D01*
X120423800Y-112708915D01*
X120423800Y-115777681D01*
X120380176Y-115748533D01*
X120306726Y-115718109D01*
X120228751Y-115702599D01*
X120149249Y-115702599D01*
X120071274Y-115718109D01*
X119997824Y-115748533D01*
X119931720Y-115792702D01*
X119875503Y-115848919D01*
X119831334Y-115915023D01*
X119800910Y-115988473D01*
X119785400Y-116066448D01*
X119785400Y-116145950D01*
X119800910Y-116223925D01*
X119831334Y-116297375D01*
X119844840Y-116317588D01*
X119782110Y-116359503D01*
X119727247Y-116414366D01*
X119724308Y-116412402D01*
X119650858Y-116381978D01*
X119572883Y-116366468D01*
X119493381Y-116366468D01*
X119415406Y-116381978D01*
X119341956Y-116412402D01*
X119275852Y-116456571D01*
X119219635Y-116512788D01*
X119175466Y-116578892D01*
X119163076Y-116608805D01*
X119157480Y-116580674D01*
X119127056Y-116507224D01*
X119082887Y-116441120D01*
X119026670Y-116384903D01*
X118960566Y-116340734D01*
X118887116Y-116310310D01*
X118809141Y-116294800D01*
X118729639Y-116294800D01*
X118651664Y-116310310D01*
X118578214Y-116340734D01*
X118526695Y-116375158D01*
X118475176Y-116340734D01*
X118401726Y-116310310D01*
X118323751Y-116294800D01*
X118244249Y-116294800D01*
X118166274Y-116310310D01*
X118092824Y-116340734D01*
X118045876Y-116372103D01*
X118033280Y-116359507D01*
X117967176Y-116315338D01*
X117893726Y-116284914D01*
X117815751Y-116269404D01*
X117736249Y-116269404D01*
X117658274Y-116284914D01*
X117584824Y-116315338D01*
X117518720Y-116359507D01*
X117462503Y-116415724D01*
X117418334Y-116481828D01*
X117387910Y-116555278D01*
X117372400Y-116633253D01*
X117372400Y-116712755D01*
X117387910Y-116790730D01*
X117418334Y-116864180D01*
X117462503Y-116930284D01*
X117518720Y-116986501D01*
X117584824Y-117030670D01*
X117658274Y-117061094D01*
X117736249Y-117076604D01*
X117815751Y-117076604D01*
X117893726Y-117061094D01*
X117967176Y-117030670D01*
X118014124Y-116999301D01*
X118026720Y-117011897D01*
X118092824Y-117056066D01*
X118166274Y-117086490D01*
X118244249Y-117102000D01*
X118323751Y-117102000D01*
X118401726Y-117086490D01*
X118475176Y-117056066D01*
X118526695Y-117021642D01*
X118578214Y-117056066D01*
X118651664Y-117086490D01*
X118729639Y-117102000D01*
X118809141Y-117102000D01*
X118887116Y-117086490D01*
X118960566Y-117056066D01*
X119026670Y-117011897D01*
X119082887Y-116955680D01*
X119127056Y-116889576D01*
X119139446Y-116859663D01*
X119145042Y-116887794D01*
X119175466Y-116961244D01*
X119219635Y-117027348D01*
X119275852Y-117083565D01*
X119341956Y-117127734D01*
X119415406Y-117158158D01*
X119493381Y-117173668D01*
X119572883Y-117173668D01*
X119650858Y-117158158D01*
X119724308Y-117127734D01*
X119790412Y-117083565D01*
X119845275Y-117028702D01*
X119848214Y-117030666D01*
X119921664Y-117061090D01*
X119999639Y-117076600D01*
X120079141Y-117076600D01*
X120157116Y-117061090D01*
X120230566Y-117030666D01*
X120296670Y-116986497D01*
X120352887Y-116930280D01*
X120397056Y-116864176D01*
X120423800Y-116799610D01*
X120423800Y-117173800D01*
X113576200Y-117173800D01*
X113576200Y-116430049D01*
X114553000Y-116430049D01*
X114553000Y-116509551D01*
X114568510Y-116587526D01*
X114598934Y-116660976D01*
X114643103Y-116727080D01*
X114699320Y-116783297D01*
X114765424Y-116827466D01*
X114838874Y-116857890D01*
X114916849Y-116873400D01*
X114996351Y-116873400D01*
X115074326Y-116857890D01*
X115147776Y-116827466D01*
X115196885Y-116794653D01*
X115208534Y-116822776D01*
X115252703Y-116888880D01*
X115308920Y-116945097D01*
X115375024Y-116989266D01*
X115448474Y-117019690D01*
X115526449Y-117035200D01*
X115605951Y-117035200D01*
X115683926Y-117019690D01*
X115757376Y-116989266D01*
X115823480Y-116945097D01*
X115879697Y-116888880D01*
X115923866Y-116822776D01*
X115954290Y-116749326D01*
X115969800Y-116671351D01*
X115969800Y-116591849D01*
X115954290Y-116513874D01*
X115923866Y-116440424D01*
X115879697Y-116374320D01*
X115823480Y-116318103D01*
X115757376Y-116273934D01*
X115683926Y-116243510D01*
X115605951Y-116228000D01*
X115526449Y-116228000D01*
X115448474Y-116243510D01*
X115375024Y-116273934D01*
X115325915Y-116306747D01*
X115314266Y-116278624D01*
X115270097Y-116212520D01*
X115213880Y-116156303D01*
X115147776Y-116112134D01*
X115074326Y-116081710D01*
X114996351Y-116066200D01*
X114916849Y-116066200D01*
X114838874Y-116081710D01*
X114765424Y-116112134D01*
X114699320Y-116156303D01*
X114643103Y-116212520D01*
X114598934Y-116278624D01*
X114568510Y-116352074D01*
X114553000Y-116430049D01*
X113576200Y-116430049D01*
X113576200Y-115322247D01*
X114946200Y-115322247D01*
X114946200Y-115401749D01*
X114961710Y-115479724D01*
X114992134Y-115553174D01*
X115036303Y-115619278D01*
X115092520Y-115675495D01*
X115158624Y-115719664D01*
X115232074Y-115750088D01*
X115310049Y-115765598D01*
X115389551Y-115765598D01*
X115467526Y-115750088D01*
X115540976Y-115719664D01*
X115607080Y-115675495D01*
X115663297Y-115619278D01*
X115707466Y-115553174D01*
X115737890Y-115479724D01*
X115753400Y-115401749D01*
X115753400Y-115337849D01*
X119429800Y-115337849D01*
X119429800Y-115417351D01*
X119445310Y-115495326D01*
X119475734Y-115568776D01*
X119519903Y-115634880D01*
X119576120Y-115691097D01*
X119642224Y-115735266D01*
X119715674Y-115765690D01*
X119793649Y-115781200D01*
X119873151Y-115781200D01*
X119951126Y-115765690D01*
X120024576Y-115735266D01*
X120090680Y-115691097D01*
X120146897Y-115634880D01*
X120191066Y-115568776D01*
X120221490Y-115495326D01*
X120237000Y-115417351D01*
X120237000Y-115337849D01*
X120221490Y-115259874D01*
X120191066Y-115186424D01*
X120146897Y-115120320D01*
X120090680Y-115064103D01*
X120024576Y-115019934D01*
X119951126Y-114989510D01*
X119873151Y-114974000D01*
X119793649Y-114974000D01*
X119715674Y-114989510D01*
X119642224Y-115019934D01*
X119576120Y-115064103D01*
X119519903Y-115120320D01*
X119475734Y-115186424D01*
X119445310Y-115259874D01*
X119429800Y-115337849D01*
X115753400Y-115337849D01*
X115753400Y-115322247D01*
X115737890Y-115244272D01*
X115707466Y-115170822D01*
X115663297Y-115104718D01*
X115607080Y-115048501D01*
X115540976Y-115004332D01*
X115467526Y-114973908D01*
X115389551Y-114958398D01*
X115310049Y-114958398D01*
X115232074Y-114973908D01*
X115158624Y-115004332D01*
X115092520Y-115048501D01*
X115036303Y-115104718D01*
X114992134Y-115170822D01*
X114961710Y-115244272D01*
X114946200Y-115322247D01*
X113576200Y-115322247D01*
X113576200Y-113838049D01*
X114946200Y-113838049D01*
X114946200Y-113917551D01*
X114961710Y-113995526D01*
X114992134Y-114068976D01*
X115036303Y-114135080D01*
X115092520Y-114191297D01*
X115158624Y-114235466D01*
X115232074Y-114265890D01*
X115310049Y-114281400D01*
X115389551Y-114281400D01*
X115467526Y-114265890D01*
X115540976Y-114235466D01*
X115607080Y-114191297D01*
X115663297Y-114135080D01*
X115707466Y-114068976D01*
X115737890Y-113995526D01*
X115753400Y-113917551D01*
X115753400Y-113838049D01*
X115737890Y-113760074D01*
X115707466Y-113686624D01*
X115663297Y-113620520D01*
X115607080Y-113564303D01*
X115540976Y-113520134D01*
X115467526Y-113489710D01*
X115389551Y-113474200D01*
X115310049Y-113474200D01*
X115232074Y-113489710D01*
X115158624Y-113520134D01*
X115092520Y-113564303D01*
X115036303Y-113620520D01*
X114992134Y-113686624D01*
X114961710Y-113760074D01*
X114946200Y-113838049D01*
X113576200Y-113838049D01*
X113576200Y-112838049D01*
X114946200Y-112838049D01*
X114946200Y-112917551D01*
X114961710Y-112995526D01*
X114992134Y-113068976D01*
X115036303Y-113135080D01*
X115092520Y-113191297D01*
X115158624Y-113235466D01*
X115232074Y-113265890D01*
X115310049Y-113281400D01*
X115389551Y-113281400D01*
X115467526Y-113265890D01*
X115540976Y-113235466D01*
X115607080Y-113191297D01*
X115663297Y-113135080D01*
X115707466Y-113068976D01*
X115737890Y-112995526D01*
X115753400Y-112917551D01*
X115753400Y-112838049D01*
X115737890Y-112760074D01*
X115707466Y-112686624D01*
X115663297Y-112620520D01*
X115607080Y-112564303D01*
X115540976Y-112520134D01*
X115467526Y-112489710D01*
X115389551Y-112474200D01*
X115310049Y-112474200D01*
X115232074Y-112489710D01*
X115158624Y-112520134D01*
X115092520Y-112564303D01*
X115036303Y-112620520D01*
X114992134Y-112686624D01*
X114961710Y-112760074D01*
X114946200Y-112838049D01*
X113576200Y-112838049D01*
X113576200Y-111827439D01*
X114946200Y-111827439D01*
X114946200Y-111906941D01*
X114961710Y-111984916D01*
X114992134Y-112058366D01*
X115036303Y-112124470D01*
X115092520Y-112180687D01*
X115158624Y-112224856D01*
X115232074Y-112255280D01*
X115310049Y-112270790D01*
X115389551Y-112270790D01*
X115467526Y-112255280D01*
X115540976Y-112224856D01*
X115607080Y-112180687D01*
X115663297Y-112124470D01*
X115707466Y-112058366D01*
X115737890Y-111984916D01*
X115753400Y-111906941D01*
X115753400Y-111827439D01*
X115737890Y-111749464D01*
X115707466Y-111676014D01*
X115663297Y-111609910D01*
X115607080Y-111553693D01*
X115540976Y-111509524D01*
X115467526Y-111479100D01*
X115389551Y-111463590D01*
X115310049Y-111463590D01*
X115232074Y-111479100D01*
X115158624Y-111509524D01*
X115092520Y-111553693D01*
X115036303Y-111609910D01*
X114992134Y-111676014D01*
X114961710Y-111749464D01*
X114946200Y-111827439D01*
X113576200Y-111827439D01*
X113576200Y-110339049D01*
X115751200Y-110339049D01*
X115751200Y-110418551D01*
X115766710Y-110496526D01*
X115797134Y-110569976D01*
X115841303Y-110636080D01*
X115897520Y-110692297D01*
X115963624Y-110736466D01*
X116037074Y-110766890D01*
X116115049Y-110782400D01*
X116194551Y-110782400D01*
X116272526Y-110766890D01*
X116345976Y-110736466D01*
X116412080Y-110692297D01*
X116421500Y-110682877D01*
X116430920Y-110692297D01*
X116497024Y-110736466D01*
X116570474Y-110766890D01*
X116648449Y-110782400D01*
X116727951Y-110782400D01*
X116805926Y-110766890D01*
X116879376Y-110736466D01*
X116945480Y-110692297D01*
X117001697Y-110636080D01*
X117045866Y-110569976D01*
X117076290Y-110496526D01*
X117091800Y-110418551D01*
X117091800Y-110339049D01*
X117076290Y-110261074D01*
X117045866Y-110187624D01*
X117001697Y-110121520D01*
X116945480Y-110065303D01*
X116879376Y-110021134D01*
X116805926Y-109990710D01*
X116727951Y-109975200D01*
X116648449Y-109975200D01*
X116570474Y-109990710D01*
X116497024Y-110021134D01*
X116430920Y-110065303D01*
X116421500Y-110074723D01*
X116412080Y-110065303D01*
X116345976Y-110021134D01*
X116272526Y-109990710D01*
X116194551Y-109975200D01*
X116115049Y-109975200D01*
X116037074Y-109990710D01*
X115963624Y-110021134D01*
X115897520Y-110065303D01*
X115841303Y-110121520D01*
X115797134Y-110187624D01*
X115766710Y-110261074D01*
X115751200Y-110339049D01*
X113576200Y-110339049D01*
X113576200Y-109826200D01*
X119767311Y-109826200D01*
X119755134Y-109844424D01*
G36*
X111923800Y-130173800D02*
G01*
X110358988Y-130173800D01*
X110386666Y-130132376D01*
X110417090Y-130058926D01*
X110432600Y-129980951D01*
X110432600Y-129901449D01*
X110417090Y-129823474D01*
X110386666Y-129750024D01*
X110342497Y-129683920D01*
X110286280Y-129627703D01*
X110220176Y-129583534D01*
X110146726Y-129553110D01*
X110068751Y-129537600D01*
X109989249Y-129537600D01*
X109945080Y-129546386D01*
X109946400Y-129539751D01*
X109946400Y-129460249D01*
X109930890Y-129382274D01*
X109900466Y-129308824D01*
X109856297Y-129242720D01*
X109800080Y-129186503D01*
X109733976Y-129142334D01*
X109660526Y-129111910D01*
X109582551Y-129096400D01*
X109503049Y-129096400D01*
X109425074Y-129111910D01*
X109351624Y-129142334D01*
X109285520Y-129186503D01*
X109229303Y-129242720D01*
X109185134Y-129308824D01*
X109154710Y-129382274D01*
X109139200Y-129460249D01*
X109139200Y-129539751D01*
X109154710Y-129617726D01*
X109185134Y-129691176D01*
X109229303Y-129757280D01*
X109285520Y-129813497D01*
X109351624Y-129857666D01*
X109425074Y-129888090D01*
X109503049Y-129903600D01*
X109582551Y-129903600D01*
X109626720Y-129894814D01*
X109625400Y-129901449D01*
X109625400Y-129980951D01*
X109640910Y-130058926D01*
X109671334Y-130132376D01*
X109699012Y-130173800D01*
X100576200Y-130173800D01*
X100576200Y-129436249D01*
X101979600Y-129436249D01*
X101979600Y-129515751D01*
X101995110Y-129593726D01*
X102025534Y-129667176D01*
X102069703Y-129733280D01*
X102125920Y-129789497D01*
X102192024Y-129833666D01*
X102265474Y-129864090D01*
X102343449Y-129879600D01*
X102422951Y-129879600D01*
X102500926Y-129864090D01*
X102574376Y-129833666D01*
X102640480Y-129789497D01*
X102696697Y-129733280D01*
X102740866Y-129667176D01*
X102771290Y-129593726D01*
X102786800Y-129515751D01*
X102786800Y-129436249D01*
X102781748Y-129410849D01*
X103071800Y-129410849D01*
X103071800Y-129490351D01*
X103087310Y-129568326D01*
X103117734Y-129641776D01*
X103161903Y-129707880D01*
X103218120Y-129764097D01*
X103284224Y-129808266D01*
X103357674Y-129838690D01*
X103435649Y-129854200D01*
X103515151Y-129854200D01*
X103593126Y-129838690D01*
X103666576Y-129808266D01*
X103732680Y-129764097D01*
X103746500Y-129750277D01*
X103760320Y-129764097D01*
X103826424Y-129808266D01*
X103899874Y-129838690D01*
X103977849Y-129854200D01*
X104057351Y-129854200D01*
X104135326Y-129838690D01*
X104208776Y-129808266D01*
X104274880Y-129764097D01*
X104331097Y-129707880D01*
X104375266Y-129641776D01*
X104405690Y-129568326D01*
X104421200Y-129490351D01*
X104421200Y-129410849D01*
X105112600Y-129410849D01*
X105112600Y-129490351D01*
X105128110Y-129568326D01*
X105158534Y-129641776D01*
X105202703Y-129707880D01*
X105258920Y-129764097D01*
X105325024Y-129808266D01*
X105398474Y-129838690D01*
X105476449Y-129854200D01*
X105555951Y-129854200D01*
X105633926Y-129838690D01*
X105707376Y-129808266D01*
X105773480Y-129764097D01*
X105829697Y-129707880D01*
X105856578Y-129667649D01*
X107745800Y-129667649D01*
X107745800Y-129747151D01*
X107761310Y-129825126D01*
X107791734Y-129898576D01*
X107835903Y-129964680D01*
X107892120Y-130020897D01*
X107958224Y-130065066D01*
X108031674Y-130095490D01*
X108109649Y-130111000D01*
X108189151Y-130111000D01*
X108267126Y-130095490D01*
X108340576Y-130065066D01*
X108406680Y-130020897D01*
X108462897Y-129964680D01*
X108507066Y-129898576D01*
X108537490Y-129825126D01*
X108553000Y-129747151D01*
X108553000Y-129667649D01*
X108537490Y-129589674D01*
X108507066Y-129516224D01*
X108462897Y-129450120D01*
X108406680Y-129393903D01*
X108340576Y-129349734D01*
X108267126Y-129319310D01*
X108189151Y-129303800D01*
X108109649Y-129303800D01*
X108031674Y-129319310D01*
X107958224Y-129349734D01*
X107892120Y-129393903D01*
X107835903Y-129450120D01*
X107791734Y-129516224D01*
X107761310Y-129589674D01*
X107745800Y-129667649D01*
X105856578Y-129667649D01*
X105873866Y-129641776D01*
X105904290Y-129568326D01*
X105919800Y-129490351D01*
X105919800Y-129410849D01*
X105904290Y-129332874D01*
X105873866Y-129259424D01*
X105829697Y-129193320D01*
X105773480Y-129137103D01*
X105707376Y-129092934D01*
X105633926Y-129062510D01*
X105555951Y-129047000D01*
X105476449Y-129047000D01*
X105398474Y-129062510D01*
X105325024Y-129092934D01*
X105258920Y-129137103D01*
X105202703Y-129193320D01*
X105158534Y-129259424D01*
X105128110Y-129332874D01*
X105112600Y-129410849D01*
X104421200Y-129410849D01*
X104405690Y-129332874D01*
X104375266Y-129259424D01*
X104331097Y-129193320D01*
X104274880Y-129137103D01*
X104208776Y-129092934D01*
X104135326Y-129062510D01*
X104057351Y-129047000D01*
X103977849Y-129047000D01*
X103899874Y-129062510D01*
X103826424Y-129092934D01*
X103760320Y-129137103D01*
X103746500Y-129150923D01*
X103732680Y-129137103D01*
X103666576Y-129092934D01*
X103593126Y-129062510D01*
X103515151Y-129047000D01*
X103435649Y-129047000D01*
X103357674Y-129062510D01*
X103284224Y-129092934D01*
X103218120Y-129137103D01*
X103161903Y-129193320D01*
X103117734Y-129259424D01*
X103087310Y-129332874D01*
X103071800Y-129410849D01*
X102781748Y-129410849D01*
X102771290Y-129358274D01*
X102740866Y-129284824D01*
X102696697Y-129218720D01*
X102640480Y-129162503D01*
X102574376Y-129118334D01*
X102500926Y-129087910D01*
X102422951Y-129072400D01*
X102343449Y-129072400D01*
X102265474Y-129087910D01*
X102192024Y-129118334D01*
X102125920Y-129162503D01*
X102069703Y-129218720D01*
X102025534Y-129284824D01*
X101995110Y-129358274D01*
X101979600Y-129436249D01*
X100576200Y-129436249D01*
X100576200Y-128874649D01*
X100942400Y-128874649D01*
X100942400Y-128954151D01*
X100957910Y-129032126D01*
X100988334Y-129105576D01*
X101032503Y-129171680D01*
X101088720Y-129227897D01*
X101154824Y-129272066D01*
X101228274Y-129302490D01*
X101306249Y-129318000D01*
X101385751Y-129318000D01*
X101463726Y-129302490D01*
X101537176Y-129272066D01*
X101603280Y-129227897D01*
X101659497Y-129171680D01*
X101703666Y-129105576D01*
X101734090Y-129032126D01*
X101749600Y-128954151D01*
X101749600Y-128874649D01*
X101737298Y-128812800D01*
X101762551Y-128812800D01*
X101840526Y-128797290D01*
X101913976Y-128766866D01*
X101980080Y-128722697D01*
X102036297Y-128666480D01*
X102080466Y-128600376D01*
X102110890Y-128526926D01*
X102126400Y-128448951D01*
X102126400Y-128369449D01*
X102110890Y-128291474D01*
X102080466Y-128218024D01*
X102036297Y-128151920D01*
X101980080Y-128095703D01*
X101913976Y-128051534D01*
X101840526Y-128021110D01*
X101762551Y-128005600D01*
X101683049Y-128005600D01*
X101605074Y-128021110D01*
X101531624Y-128051534D01*
X101465520Y-128095703D01*
X101409303Y-128151920D01*
X101365134Y-128218024D01*
X101334710Y-128291474D01*
X101319200Y-128369449D01*
X101319200Y-128448951D01*
X101331502Y-128510800D01*
X101306249Y-128510800D01*
X101228274Y-128526310D01*
X101154824Y-128556734D01*
X101088720Y-128600903D01*
X101032503Y-128657120D01*
X100988334Y-128723224D01*
X100957910Y-128796674D01*
X100942400Y-128874649D01*
X100576200Y-128874649D01*
X100576200Y-126599449D01*
X101065598Y-126599449D01*
X101065598Y-126678951D01*
X101081108Y-126756926D01*
X101111532Y-126830376D01*
X101155701Y-126896480D01*
X101211918Y-126952697D01*
X101278022Y-126996866D01*
X101319158Y-127013905D01*
X101314134Y-127021424D01*
X101283710Y-127094874D01*
X101268200Y-127172849D01*
X101268200Y-127252351D01*
X101283710Y-127330326D01*
X101314134Y-127403776D01*
X101358303Y-127469880D01*
X101414520Y-127526097D01*
X101480624Y-127570266D01*
X101554074Y-127600690D01*
X101632049Y-127616200D01*
X101711551Y-127616200D01*
X101789526Y-127600690D01*
X101862976Y-127570266D01*
X101929080Y-127526097D01*
X101985297Y-127469880D01*
X102029466Y-127403776D01*
X102059890Y-127330326D01*
X102075400Y-127252351D01*
X102075400Y-127172849D01*
X102059890Y-127094874D01*
X102029466Y-127021424D01*
X101985297Y-126955320D01*
X101929080Y-126899103D01*
X101862976Y-126854934D01*
X101821840Y-126837895D01*
X101826864Y-126830376D01*
X101857288Y-126756926D01*
X101872798Y-126678951D01*
X101872798Y-126599449D01*
X101857288Y-126521474D01*
X101855009Y-126515972D01*
X101869790Y-126509850D01*
X101935894Y-126465681D01*
X101992111Y-126409464D01*
X102036280Y-126343360D01*
X102066704Y-126269910D01*
X102082214Y-126191935D01*
X102082214Y-126158649D01*
X106668200Y-126158649D01*
X106668200Y-126238151D01*
X106683710Y-126316126D01*
X106714134Y-126389576D01*
X106758303Y-126455680D01*
X106814520Y-126511897D01*
X106822284Y-126517085D01*
X106796110Y-126580274D01*
X106780600Y-126658249D01*
X106780600Y-126737751D01*
X106796110Y-126815726D01*
X106826534Y-126889176D01*
X106870703Y-126955280D01*
X106926920Y-127011497D01*
X106993024Y-127055666D01*
X107028770Y-127070472D01*
X107024710Y-127080274D01*
X107009200Y-127158249D01*
X107009200Y-127237751D01*
X107024710Y-127315726D01*
X107055134Y-127389176D01*
X107099303Y-127455280D01*
X107119625Y-127475602D01*
X107119362Y-127475996D01*
X107088938Y-127549446D01*
X107073428Y-127627421D01*
X107073428Y-127706923D01*
X107088938Y-127784898D01*
X107119362Y-127858348D01*
X107163531Y-127924452D01*
X107219748Y-127980669D01*
X107285852Y-128024838D01*
X107359302Y-128055262D01*
X107437277Y-128070772D01*
X107516779Y-128070772D01*
X107594754Y-128055262D01*
X107668204Y-128024838D01*
X107734308Y-127980669D01*
X107790525Y-127924452D01*
X107834694Y-127858348D01*
X107865118Y-127784898D01*
X107880628Y-127706923D01*
X107880628Y-127627421D01*
X107865118Y-127549446D01*
X107834694Y-127475996D01*
X107790525Y-127409892D01*
X107770203Y-127389570D01*
X107770466Y-127389176D01*
X107800890Y-127315726D01*
X107816400Y-127237751D01*
X107816400Y-127158249D01*
X107800890Y-127080274D01*
X107770466Y-127006824D01*
X107726297Y-126940720D01*
X107670080Y-126884503D01*
X107603976Y-126840334D01*
X107568230Y-126825528D01*
X107572290Y-126815726D01*
X107587800Y-126737751D01*
X107587800Y-126658249D01*
X107572290Y-126580274D01*
X107541866Y-126506824D01*
X107497697Y-126440720D01*
X107441480Y-126384503D01*
X107433716Y-126379315D01*
X107459890Y-126316126D01*
X107475400Y-126238151D01*
X107475400Y-126158649D01*
X107459890Y-126080674D01*
X107454045Y-126066564D01*
X107476976Y-126057066D01*
X107543080Y-126012897D01*
X107599297Y-125956680D01*
X107643466Y-125890576D01*
X107673890Y-125817126D01*
X107689400Y-125739151D01*
X107689400Y-125694647D01*
X107716494Y-125689258D01*
X107789944Y-125658834D01*
X107856048Y-125614665D01*
X107912265Y-125558448D01*
X107956434Y-125492344D01*
X107986858Y-125418894D01*
X108002368Y-125340919D01*
X108002368Y-125261417D01*
X107986858Y-125183442D01*
X107956434Y-125109992D01*
X107912265Y-125043888D01*
X107856048Y-124987671D01*
X107840676Y-124977400D01*
X107858551Y-124977400D01*
X107936526Y-124961890D01*
X108009976Y-124931466D01*
X108076080Y-124887297D01*
X108132297Y-124831080D01*
X108176466Y-124764976D01*
X108206890Y-124691526D01*
X108222400Y-124613551D01*
X108222400Y-124534049D01*
X108206890Y-124456074D01*
X108176466Y-124382624D01*
X108132297Y-124316520D01*
X108076080Y-124260303D01*
X108009976Y-124216134D01*
X107936526Y-124185710D01*
X107858551Y-124170200D01*
X107779049Y-124170200D01*
X107701074Y-124185710D01*
X107627624Y-124216134D01*
X107561520Y-124260303D01*
X107505303Y-124316520D01*
X107461134Y-124382624D01*
X107430710Y-124456074D01*
X107415200Y-124534049D01*
X107415200Y-124613551D01*
X107430710Y-124691526D01*
X107461134Y-124764976D01*
X107505303Y-124831080D01*
X107561520Y-124887297D01*
X107576892Y-124897568D01*
X107559017Y-124897568D01*
X107481042Y-124913078D01*
X107407592Y-124943502D01*
X107341488Y-124987671D01*
X107285271Y-125043888D01*
X107241102Y-125109992D01*
X107210678Y-125183442D01*
X107195168Y-125261417D01*
X107195168Y-125305921D01*
X107168074Y-125311310D01*
X107094624Y-125341734D01*
X107028520Y-125385903D01*
X106972303Y-125442120D01*
X106928134Y-125508224D01*
X106897710Y-125581674D01*
X106882200Y-125659649D01*
X106882200Y-125739151D01*
X106897710Y-125817126D01*
X106903555Y-125831236D01*
X106880624Y-125840734D01*
X106814520Y-125884903D01*
X106758303Y-125941120D01*
X106714134Y-126007224D01*
X106683710Y-126080674D01*
X106668200Y-126158649D01*
X102082214Y-126158649D01*
X102082214Y-126112433D01*
X102066704Y-126034458D01*
X102065284Y-126031029D01*
X102116224Y-126065066D01*
X102189674Y-126095490D01*
X102267649Y-126111000D01*
X102347151Y-126111000D01*
X102425126Y-126095490D01*
X102498576Y-126065066D01*
X102564680Y-126020897D01*
X102620897Y-125964680D01*
X102665066Y-125898576D01*
X102695490Y-125825126D01*
X102711000Y-125747151D01*
X102711000Y-125667649D01*
X102695490Y-125589674D01*
X102665066Y-125516224D01*
X102643871Y-125484504D01*
X102671695Y-125456680D01*
X102715864Y-125390576D01*
X102746288Y-125317126D01*
X102761798Y-125239151D01*
X102761798Y-125159649D01*
X102746288Y-125081674D01*
X102722668Y-125024649D01*
X104574600Y-125024649D01*
X104574600Y-125104151D01*
X104590110Y-125182126D01*
X104620534Y-125255576D01*
X104664703Y-125321680D01*
X104720920Y-125377897D01*
X104787024Y-125422066D01*
X104860474Y-125452490D01*
X104938449Y-125468000D01*
X105017951Y-125468000D01*
X105095926Y-125452490D01*
X105169376Y-125422066D01*
X105235480Y-125377897D01*
X105291697Y-125321680D01*
X105335866Y-125255576D01*
X105366290Y-125182126D01*
X105381800Y-125104151D01*
X105381800Y-125024649D01*
X105366290Y-124946674D01*
X105335866Y-124873224D01*
X105291697Y-124807120D01*
X105235480Y-124750903D01*
X105169376Y-124706734D01*
X105095926Y-124676310D01*
X105017951Y-124660800D01*
X104938449Y-124660800D01*
X104860474Y-124676310D01*
X104787024Y-124706734D01*
X104720920Y-124750903D01*
X104664703Y-124807120D01*
X104620534Y-124873224D01*
X104590110Y-124946674D01*
X104574600Y-125024649D01*
X102722668Y-125024649D01*
X102715864Y-125008224D01*
X102671695Y-124942120D01*
X102615478Y-124885903D01*
X102549374Y-124841734D01*
X102475924Y-124811310D01*
X102397949Y-124795800D01*
X102318447Y-124795800D01*
X102240472Y-124811310D01*
X102167022Y-124841734D01*
X102100918Y-124885903D01*
X102044701Y-124942120D01*
X102000532Y-125008224D01*
X101970108Y-125081674D01*
X101954598Y-125159649D01*
X101954598Y-125239151D01*
X101970108Y-125317126D01*
X102000532Y-125390576D01*
X102021727Y-125422296D01*
X101993903Y-125450120D01*
X101949734Y-125516224D01*
X101919310Y-125589674D01*
X101903800Y-125667649D01*
X101903800Y-125747151D01*
X101919310Y-125825126D01*
X101920730Y-125828555D01*
X101869790Y-125794518D01*
X101796340Y-125764094D01*
X101718365Y-125748584D01*
X101638863Y-125748584D01*
X101560888Y-125764094D01*
X101487438Y-125794518D01*
X101421334Y-125838687D01*
X101365117Y-125894904D01*
X101320948Y-125961008D01*
X101290524Y-126034458D01*
X101275014Y-126112433D01*
X101275014Y-126191935D01*
X101290524Y-126269910D01*
X101292803Y-126275412D01*
X101278022Y-126281534D01*
X101211918Y-126325703D01*
X101155701Y-126381920D01*
X101111532Y-126448024D01*
X101081108Y-126521474D01*
X101065598Y-126599449D01*
X100576200Y-126599449D01*
X100576200Y-125667296D01*
X100596903Y-125698280D01*
X100653120Y-125754497D01*
X100719224Y-125798666D01*
X100792674Y-125829090D01*
X100870649Y-125844600D01*
X100950151Y-125844600D01*
X101028126Y-125829090D01*
X101101576Y-125798666D01*
X101167680Y-125754497D01*
X101223897Y-125698280D01*
X101268066Y-125632176D01*
X101298490Y-125558726D01*
X101314000Y-125480751D01*
X101314000Y-125401249D01*
X101298490Y-125323274D01*
X101268066Y-125249824D01*
X101238150Y-125205052D01*
X101303424Y-125248666D01*
X101376874Y-125279090D01*
X101454849Y-125294600D01*
X101534351Y-125294600D01*
X101612326Y-125279090D01*
X101685776Y-125248666D01*
X101751880Y-125204497D01*
X101808097Y-125148280D01*
X101852266Y-125082176D01*
X101882690Y-125008726D01*
X101898200Y-124930751D01*
X101898200Y-124851249D01*
X101882690Y-124773274D01*
X101852266Y-124699824D01*
X101808097Y-124633720D01*
X101751880Y-124577503D01*
X101685776Y-124533334D01*
X101612326Y-124502910D01*
X101534351Y-124487400D01*
X101454849Y-124487400D01*
X101376874Y-124502910D01*
X101303424Y-124533334D01*
X101237320Y-124577503D01*
X101202500Y-124612323D01*
X101167680Y-124577503D01*
X101101576Y-124533334D01*
X101028126Y-124502910D01*
X100950151Y-124487400D01*
X100870649Y-124487400D01*
X100792674Y-124502910D01*
X100719224Y-124533334D01*
X100653120Y-124577503D01*
X100596903Y-124633720D01*
X100576200Y-124664704D01*
X100576200Y-123900705D01*
X100634280Y-123861897D01*
X100690497Y-123805680D01*
X100734666Y-123739576D01*
X100755512Y-123689248D01*
X101573600Y-123689248D01*
X101573600Y-123768750D01*
X101589110Y-123846725D01*
X101619534Y-123920175D01*
X101663703Y-123986279D01*
X101719920Y-124042496D01*
X101786024Y-124086665D01*
X101859474Y-124117089D01*
X101937449Y-124132599D01*
X102016951Y-124132599D01*
X102094926Y-124117089D01*
X102168376Y-124086665D01*
X102234480Y-124042496D01*
X102258000Y-124018977D01*
X102278720Y-124039697D01*
X102344824Y-124083866D01*
X102418274Y-124114290D01*
X102496249Y-124129800D01*
X102575751Y-124129800D01*
X102653726Y-124114290D01*
X102727176Y-124083866D01*
X102793280Y-124039697D01*
X102849497Y-123983480D01*
X102849651Y-123983249D01*
X105104200Y-123983249D01*
X105104200Y-124062751D01*
X105119710Y-124140726D01*
X105150134Y-124214176D01*
X105194303Y-124280280D01*
X105250520Y-124336497D01*
X105316624Y-124380666D01*
X105390074Y-124411090D01*
X105468049Y-124426600D01*
X105547551Y-124426600D01*
X105625526Y-124411090D01*
X105698976Y-124380666D01*
X105765080Y-124336497D01*
X105792905Y-124308672D01*
X105824624Y-124329866D01*
X105898074Y-124360290D01*
X105976049Y-124375800D01*
X106055551Y-124375800D01*
X106133526Y-124360290D01*
X106206976Y-124329866D01*
X106273080Y-124285697D01*
X106279641Y-124279136D01*
X106321213Y-124306914D01*
X106394663Y-124337338D01*
X106472638Y-124352848D01*
X106552140Y-124352848D01*
X106630115Y-124337338D01*
X106703565Y-124306914D01*
X106769669Y-124262745D01*
X106825886Y-124206528D01*
X106870055Y-124140424D01*
X106900479Y-124066974D01*
X106915989Y-123988999D01*
X106915989Y-123909497D01*
X106900479Y-123831522D01*
X106892993Y-123813449D01*
X108939600Y-123813449D01*
X108939600Y-123892951D01*
X108955110Y-123970926D01*
X108985534Y-124044376D01*
X109029703Y-124110480D01*
X109085920Y-124166697D01*
X109152024Y-124210866D01*
X109225474Y-124241290D01*
X109303449Y-124256800D01*
X109382951Y-124256800D01*
X109460926Y-124241290D01*
X109534376Y-124210866D01*
X109600480Y-124166697D01*
X109656697Y-124110480D01*
X109669332Y-124091570D01*
X109686503Y-124117268D01*
X109742720Y-124173485D01*
X109808824Y-124217654D01*
X109882274Y-124248078D01*
X109960249Y-124263588D01*
X110039751Y-124263588D01*
X110117726Y-124248078D01*
X110191176Y-124217654D01*
X110257280Y-124173485D01*
X110313497Y-124117268D01*
X110357666Y-124051164D01*
X110388090Y-123977714D01*
X110403600Y-123899739D01*
X110403600Y-123820237D01*
X110388090Y-123742262D01*
X110357666Y-123668812D01*
X110313497Y-123602708D01*
X110257280Y-123546491D01*
X110191176Y-123502322D01*
X110117726Y-123471898D01*
X110039751Y-123456388D01*
X109960249Y-123456388D01*
X109882274Y-123471898D01*
X109808824Y-123502322D01*
X109742720Y-123546491D01*
X109686503Y-123602708D01*
X109673868Y-123621618D01*
X109656697Y-123595920D01*
X109600480Y-123539703D01*
X109534376Y-123495534D01*
X109460926Y-123465110D01*
X109382951Y-123449600D01*
X109303449Y-123449600D01*
X109225474Y-123465110D01*
X109152024Y-123495534D01*
X109085920Y-123539703D01*
X109029703Y-123595920D01*
X108985534Y-123662024D01*
X108955110Y-123735474D01*
X108939600Y-123813449D01*
X106892993Y-123813449D01*
X106870055Y-123758072D01*
X106825886Y-123691968D01*
X106769669Y-123635751D01*
X106703565Y-123591582D01*
X106630115Y-123561158D01*
X106552140Y-123545648D01*
X106472638Y-123545648D01*
X106394663Y-123561158D01*
X106321213Y-123591582D01*
X106255109Y-123635751D01*
X106248548Y-123642312D01*
X106206976Y-123614534D01*
X106133526Y-123584110D01*
X106055551Y-123568600D01*
X105976049Y-123568600D01*
X105898074Y-123584110D01*
X105824624Y-123614534D01*
X105758520Y-123658703D01*
X105730695Y-123686528D01*
X105698976Y-123665334D01*
X105625526Y-123634910D01*
X105547551Y-123619400D01*
X105468049Y-123619400D01*
X105390074Y-123634910D01*
X105316624Y-123665334D01*
X105250520Y-123709503D01*
X105194303Y-123765720D01*
X105150134Y-123831824D01*
X105119710Y-123905274D01*
X105104200Y-123983249D01*
X102849651Y-123983249D01*
X102893666Y-123917376D01*
X102924090Y-123843926D01*
X102939600Y-123765951D01*
X102939600Y-123686449D01*
X102924090Y-123608474D01*
X102893666Y-123535024D01*
X102849497Y-123468920D01*
X102793280Y-123412703D01*
X102727176Y-123368534D01*
X102653726Y-123338110D01*
X102575751Y-123322600D01*
X102496249Y-123322600D01*
X102418274Y-123338110D01*
X102344824Y-123368534D01*
X102278720Y-123412703D01*
X102255201Y-123436223D01*
X102234480Y-123415502D01*
X102168376Y-123371333D01*
X102094926Y-123340909D01*
X102016951Y-123325399D01*
X101937449Y-123325399D01*
X101859474Y-123340909D01*
X101786024Y-123371333D01*
X101719920Y-123415502D01*
X101663703Y-123471719D01*
X101619534Y-123537823D01*
X101589110Y-123611273D01*
X101573600Y-123689248D01*
X100755512Y-123689248D01*
X100765090Y-123666126D01*
X100780600Y-123588151D01*
X100780600Y-123508649D01*
X100765090Y-123430674D01*
X100734666Y-123357224D01*
X100690497Y-123291120D01*
X100634280Y-123234903D01*
X100576200Y-123196095D01*
X100576200Y-122826200D01*
X111923800Y-122826200D01*
X111923800Y-130173800D01*
G37*
X111923800Y-130173800D02*
X110358988Y-130173800D01*
X110386666Y-130132376D01*
X110417090Y-130058926D01*
X110432600Y-129980951D01*
X110432600Y-129901449D01*
X110417090Y-129823474D01*
X110386666Y-129750024D01*
X110342497Y-129683920D01*
X110286280Y-129627703D01*
X110220176Y-129583534D01*
X110146726Y-129553110D01*
X110068751Y-129537600D01*
X109989249Y-129537600D01*
X109945080Y-129546386D01*
X109946400Y-129539751D01*
X109946400Y-129460249D01*
X109930890Y-129382274D01*
X109900466Y-129308824D01*
X109856297Y-129242720D01*
X109800080Y-129186503D01*
X109733976Y-129142334D01*
X109660526Y-129111910D01*
X109582551Y-129096400D01*
X109503049Y-129096400D01*
X109425074Y-129111910D01*
X109351624Y-129142334D01*
X109285520Y-129186503D01*
X109229303Y-129242720D01*
X109185134Y-129308824D01*
X109154710Y-129382274D01*
X109139200Y-129460249D01*
X109139200Y-129539751D01*
X109154710Y-129617726D01*
X109185134Y-129691176D01*
X109229303Y-129757280D01*
X109285520Y-129813497D01*
X109351624Y-129857666D01*
X109425074Y-129888090D01*
X109503049Y-129903600D01*
X109582551Y-129903600D01*
X109626720Y-129894814D01*
X109625400Y-129901449D01*
X109625400Y-129980951D01*
X109640910Y-130058926D01*
X109671334Y-130132376D01*
X109699012Y-130173800D01*
X100576200Y-130173800D01*
X100576200Y-129436249D01*
X101979600Y-129436249D01*
X101979600Y-129515751D01*
X101995110Y-129593726D01*
X102025534Y-129667176D01*
X102069703Y-129733280D01*
X102125920Y-129789497D01*
X102192024Y-129833666D01*
X102265474Y-129864090D01*
X102343449Y-129879600D01*
X102422951Y-129879600D01*
X102500926Y-129864090D01*
X102574376Y-129833666D01*
X102640480Y-129789497D01*
X102696697Y-129733280D01*
X102740866Y-129667176D01*
X102771290Y-129593726D01*
X102786800Y-129515751D01*
X102786800Y-129436249D01*
X102781748Y-129410849D01*
X103071800Y-129410849D01*
X103071800Y-129490351D01*
X103087310Y-129568326D01*
X103117734Y-129641776D01*
X103161903Y-129707880D01*
X103218120Y-129764097D01*
X103284224Y-129808266D01*
X103357674Y-129838690D01*
X103435649Y-129854200D01*
X103515151Y-129854200D01*
X103593126Y-129838690D01*
X103666576Y-129808266D01*
X103732680Y-129764097D01*
X103746500Y-129750277D01*
X103760320Y-129764097D01*
X103826424Y-129808266D01*
X103899874Y-129838690D01*
X103977849Y-129854200D01*
X104057351Y-129854200D01*
X104135326Y-129838690D01*
X104208776Y-129808266D01*
X104274880Y-129764097D01*
X104331097Y-129707880D01*
X104375266Y-129641776D01*
X104405690Y-129568326D01*
X104421200Y-129490351D01*
X104421200Y-129410849D01*
X105112600Y-129410849D01*
X105112600Y-129490351D01*
X105128110Y-129568326D01*
X105158534Y-129641776D01*
X105202703Y-129707880D01*
X105258920Y-129764097D01*
X105325024Y-129808266D01*
X105398474Y-129838690D01*
X105476449Y-129854200D01*
X105555951Y-129854200D01*
X105633926Y-129838690D01*
X105707376Y-129808266D01*
X105773480Y-129764097D01*
X105829697Y-129707880D01*
X105856578Y-129667649D01*
X107745800Y-129667649D01*
X107745800Y-129747151D01*
X107761310Y-129825126D01*
X107791734Y-129898576D01*
X107835903Y-129964680D01*
X107892120Y-130020897D01*
X107958224Y-130065066D01*
X108031674Y-130095490D01*
X108109649Y-130111000D01*
X108189151Y-130111000D01*
X108267126Y-130095490D01*
X108340576Y-130065066D01*
X108406680Y-130020897D01*
X108462897Y-129964680D01*
X108507066Y-129898576D01*
X108537490Y-129825126D01*
X108553000Y-129747151D01*
X108553000Y-129667649D01*
X108537490Y-129589674D01*
X108507066Y-129516224D01*
X108462897Y-129450120D01*
X108406680Y-129393903D01*
X108340576Y-129349734D01*
X108267126Y-129319310D01*
X108189151Y-129303800D01*
X108109649Y-129303800D01*
X108031674Y-129319310D01*
X107958224Y-129349734D01*
X107892120Y-129393903D01*
X107835903Y-129450120D01*
X107791734Y-129516224D01*
X107761310Y-129589674D01*
X107745800Y-129667649D01*
X105856578Y-129667649D01*
X105873866Y-129641776D01*
X105904290Y-129568326D01*
X105919800Y-129490351D01*
X105919800Y-129410849D01*
X105904290Y-129332874D01*
X105873866Y-129259424D01*
X105829697Y-129193320D01*
X105773480Y-129137103D01*
X105707376Y-129092934D01*
X105633926Y-129062510D01*
X105555951Y-129047000D01*
X105476449Y-129047000D01*
X105398474Y-129062510D01*
X105325024Y-129092934D01*
X105258920Y-129137103D01*
X105202703Y-129193320D01*
X105158534Y-129259424D01*
X105128110Y-129332874D01*
X105112600Y-129410849D01*
X104421200Y-129410849D01*
X104405690Y-129332874D01*
X104375266Y-129259424D01*
X104331097Y-129193320D01*
X104274880Y-129137103D01*
X104208776Y-129092934D01*
X104135326Y-129062510D01*
X104057351Y-129047000D01*
X103977849Y-129047000D01*
X103899874Y-129062510D01*
X103826424Y-129092934D01*
X103760320Y-129137103D01*
X103746500Y-129150923D01*
X103732680Y-129137103D01*
X103666576Y-129092934D01*
X103593126Y-129062510D01*
X103515151Y-129047000D01*
X103435649Y-129047000D01*
X103357674Y-129062510D01*
X103284224Y-129092934D01*
X103218120Y-129137103D01*
X103161903Y-129193320D01*
X103117734Y-129259424D01*
X103087310Y-129332874D01*
X103071800Y-129410849D01*
X102781748Y-129410849D01*
X102771290Y-129358274D01*
X102740866Y-129284824D01*
X102696697Y-129218720D01*
X102640480Y-129162503D01*
X102574376Y-129118334D01*
X102500926Y-129087910D01*
X102422951Y-129072400D01*
X102343449Y-129072400D01*
X102265474Y-129087910D01*
X102192024Y-129118334D01*
X102125920Y-129162503D01*
X102069703Y-129218720D01*
X102025534Y-129284824D01*
X101995110Y-129358274D01*
X101979600Y-129436249D01*
X100576200Y-129436249D01*
X100576200Y-128874649D01*
X100942400Y-128874649D01*
X100942400Y-128954151D01*
X100957910Y-129032126D01*
X100988334Y-129105576D01*
X101032503Y-129171680D01*
X101088720Y-129227897D01*
X101154824Y-129272066D01*
X101228274Y-129302490D01*
X101306249Y-129318000D01*
X101385751Y-129318000D01*
X101463726Y-129302490D01*
X101537176Y-129272066D01*
X101603280Y-129227897D01*
X101659497Y-129171680D01*
X101703666Y-129105576D01*
X101734090Y-129032126D01*
X101749600Y-128954151D01*
X101749600Y-128874649D01*
X101737298Y-128812800D01*
X101762551Y-128812800D01*
X101840526Y-128797290D01*
X101913976Y-128766866D01*
X101980080Y-128722697D01*
X102036297Y-128666480D01*
X102080466Y-128600376D01*
X102110890Y-128526926D01*
X102126400Y-128448951D01*
X102126400Y-128369449D01*
X102110890Y-128291474D01*
X102080466Y-128218024D01*
X102036297Y-128151920D01*
X101980080Y-128095703D01*
X101913976Y-128051534D01*
X101840526Y-128021110D01*
X101762551Y-128005600D01*
X101683049Y-128005600D01*
X101605074Y-128021110D01*
X101531624Y-128051534D01*
X101465520Y-128095703D01*
X101409303Y-128151920D01*
X101365134Y-128218024D01*
X101334710Y-128291474D01*
X101319200Y-128369449D01*
X101319200Y-128448951D01*
X101331502Y-128510800D01*
X101306249Y-128510800D01*
X101228274Y-128526310D01*
X101154824Y-128556734D01*
X101088720Y-128600903D01*
X101032503Y-128657120D01*
X100988334Y-128723224D01*
X100957910Y-128796674D01*
X100942400Y-128874649D01*
X100576200Y-128874649D01*
X100576200Y-126599449D01*
X101065598Y-126599449D01*
X101065598Y-126678951D01*
X101081108Y-126756926D01*
X101111532Y-126830376D01*
X101155701Y-126896480D01*
X101211918Y-126952697D01*
X101278022Y-126996866D01*
X101319158Y-127013905D01*
X101314134Y-127021424D01*
X101283710Y-127094874D01*
X101268200Y-127172849D01*
X101268200Y-127252351D01*
X101283710Y-127330326D01*
X101314134Y-127403776D01*
X101358303Y-127469880D01*
X101414520Y-127526097D01*
X101480624Y-127570266D01*
X101554074Y-127600690D01*
X101632049Y-127616200D01*
X101711551Y-127616200D01*
X101789526Y-127600690D01*
X101862976Y-127570266D01*
X101929080Y-127526097D01*
X101985297Y-127469880D01*
X102029466Y-127403776D01*
X102059890Y-127330326D01*
X102075400Y-127252351D01*
X102075400Y-127172849D01*
X102059890Y-127094874D01*
X102029466Y-127021424D01*
X101985297Y-126955320D01*
X101929080Y-126899103D01*
X101862976Y-126854934D01*
X101821840Y-126837895D01*
X101826864Y-126830376D01*
X101857288Y-126756926D01*
X101872798Y-126678951D01*
X101872798Y-126599449D01*
X101857288Y-126521474D01*
X101855009Y-126515972D01*
X101869790Y-126509850D01*
X101935894Y-126465681D01*
X101992111Y-126409464D01*
X102036280Y-126343360D01*
X102066704Y-126269910D01*
X102082214Y-126191935D01*
X102082214Y-126158649D01*
X106668200Y-126158649D01*
X106668200Y-126238151D01*
X106683710Y-126316126D01*
X106714134Y-126389576D01*
X106758303Y-126455680D01*
X106814520Y-126511897D01*
X106822284Y-126517085D01*
X106796110Y-126580274D01*
X106780600Y-126658249D01*
X106780600Y-126737751D01*
X106796110Y-126815726D01*
X106826534Y-126889176D01*
X106870703Y-126955280D01*
X106926920Y-127011497D01*
X106993024Y-127055666D01*
X107028770Y-127070472D01*
X107024710Y-127080274D01*
X107009200Y-127158249D01*
X107009200Y-127237751D01*
X107024710Y-127315726D01*
X107055134Y-127389176D01*
X107099303Y-127455280D01*
X107119625Y-127475602D01*
X107119362Y-127475996D01*
X107088938Y-127549446D01*
X107073428Y-127627421D01*
X107073428Y-127706923D01*
X107088938Y-127784898D01*
X107119362Y-127858348D01*
X107163531Y-127924452D01*
X107219748Y-127980669D01*
X107285852Y-128024838D01*
X107359302Y-128055262D01*
X107437277Y-128070772D01*
X107516779Y-128070772D01*
X107594754Y-128055262D01*
X107668204Y-128024838D01*
X107734308Y-127980669D01*
X107790525Y-127924452D01*
X107834694Y-127858348D01*
X107865118Y-127784898D01*
X107880628Y-127706923D01*
X107880628Y-127627421D01*
X107865118Y-127549446D01*
X107834694Y-127475996D01*
X107790525Y-127409892D01*
X107770203Y-127389570D01*
X107770466Y-127389176D01*
X107800890Y-127315726D01*
X107816400Y-127237751D01*
X107816400Y-127158249D01*
X107800890Y-127080274D01*
X107770466Y-127006824D01*
X107726297Y-126940720D01*
X107670080Y-126884503D01*
X107603976Y-126840334D01*
X107568230Y-126825528D01*
X107572290Y-126815726D01*
X107587800Y-126737751D01*
X107587800Y-126658249D01*
X107572290Y-126580274D01*
X107541866Y-126506824D01*
X107497697Y-126440720D01*
X107441480Y-126384503D01*
X107433716Y-126379315D01*
X107459890Y-126316126D01*
X107475400Y-126238151D01*
X107475400Y-126158649D01*
X107459890Y-126080674D01*
X107454045Y-126066564D01*
X107476976Y-126057066D01*
X107543080Y-126012897D01*
X107599297Y-125956680D01*
X107643466Y-125890576D01*
X107673890Y-125817126D01*
X107689400Y-125739151D01*
X107689400Y-125694647D01*
X107716494Y-125689258D01*
X107789944Y-125658834D01*
X107856048Y-125614665D01*
X107912265Y-125558448D01*
X107956434Y-125492344D01*
X107986858Y-125418894D01*
X108002368Y-125340919D01*
X108002368Y-125261417D01*
X107986858Y-125183442D01*
X107956434Y-125109992D01*
X107912265Y-125043888D01*
X107856048Y-124987671D01*
X107840676Y-124977400D01*
X107858551Y-124977400D01*
X107936526Y-124961890D01*
X108009976Y-124931466D01*
X108076080Y-124887297D01*
X108132297Y-124831080D01*
X108176466Y-124764976D01*
X108206890Y-124691526D01*
X108222400Y-124613551D01*
X108222400Y-124534049D01*
X108206890Y-124456074D01*
X108176466Y-124382624D01*
X108132297Y-124316520D01*
X108076080Y-124260303D01*
X108009976Y-124216134D01*
X107936526Y-124185710D01*
X107858551Y-124170200D01*
X107779049Y-124170200D01*
X107701074Y-124185710D01*
X107627624Y-124216134D01*
X107561520Y-124260303D01*
X107505303Y-124316520D01*
X107461134Y-124382624D01*
X107430710Y-124456074D01*
X107415200Y-124534049D01*
X107415200Y-124613551D01*
X107430710Y-124691526D01*
X107461134Y-124764976D01*
X107505303Y-124831080D01*
X107561520Y-124887297D01*
X107576892Y-124897568D01*
X107559017Y-124897568D01*
X107481042Y-124913078D01*
X107407592Y-124943502D01*
X107341488Y-124987671D01*
X107285271Y-125043888D01*
X107241102Y-125109992D01*
X107210678Y-125183442D01*
X107195168Y-125261417D01*
X107195168Y-125305921D01*
X107168074Y-125311310D01*
X107094624Y-125341734D01*
X107028520Y-125385903D01*
X106972303Y-125442120D01*
X106928134Y-125508224D01*
X106897710Y-125581674D01*
X106882200Y-125659649D01*
X106882200Y-125739151D01*
X106897710Y-125817126D01*
X106903555Y-125831236D01*
X106880624Y-125840734D01*
X106814520Y-125884903D01*
X106758303Y-125941120D01*
X106714134Y-126007224D01*
X106683710Y-126080674D01*
X106668200Y-126158649D01*
X102082214Y-126158649D01*
X102082214Y-126112433D01*
X102066704Y-126034458D01*
X102065284Y-126031029D01*
X102116224Y-126065066D01*
X102189674Y-126095490D01*
X102267649Y-126111000D01*
X102347151Y-126111000D01*
X102425126Y-126095490D01*
X102498576Y-126065066D01*
X102564680Y-126020897D01*
X102620897Y-125964680D01*
X102665066Y-125898576D01*
X102695490Y-125825126D01*
X102711000Y-125747151D01*
X102711000Y-125667649D01*
X102695490Y-125589674D01*
X102665066Y-125516224D01*
X102643871Y-125484504D01*
X102671695Y-125456680D01*
X102715864Y-125390576D01*
X102746288Y-125317126D01*
X102761798Y-125239151D01*
X102761798Y-125159649D01*
X102746288Y-125081674D01*
X102722668Y-125024649D01*
X104574600Y-125024649D01*
X104574600Y-125104151D01*
X104590110Y-125182126D01*
X104620534Y-125255576D01*
X104664703Y-125321680D01*
X104720920Y-125377897D01*
X104787024Y-125422066D01*
X104860474Y-125452490D01*
X104938449Y-125468000D01*
X105017951Y-125468000D01*
X105095926Y-125452490D01*
X105169376Y-125422066D01*
X105235480Y-125377897D01*
X105291697Y-125321680D01*
X105335866Y-125255576D01*
X105366290Y-125182126D01*
X105381800Y-125104151D01*
X105381800Y-125024649D01*
X105366290Y-124946674D01*
X105335866Y-124873224D01*
X105291697Y-124807120D01*
X105235480Y-124750903D01*
X105169376Y-124706734D01*
X105095926Y-124676310D01*
X105017951Y-124660800D01*
X104938449Y-124660800D01*
X104860474Y-124676310D01*
X104787024Y-124706734D01*
X104720920Y-124750903D01*
X104664703Y-124807120D01*
X104620534Y-124873224D01*
X104590110Y-124946674D01*
X104574600Y-125024649D01*
X102722668Y-125024649D01*
X102715864Y-125008224D01*
X102671695Y-124942120D01*
X102615478Y-124885903D01*
X102549374Y-124841734D01*
X102475924Y-124811310D01*
X102397949Y-124795800D01*
X102318447Y-124795800D01*
X102240472Y-124811310D01*
X102167022Y-124841734D01*
X102100918Y-124885903D01*
X102044701Y-124942120D01*
X102000532Y-125008224D01*
X101970108Y-125081674D01*
X101954598Y-125159649D01*
X101954598Y-125239151D01*
X101970108Y-125317126D01*
X102000532Y-125390576D01*
X102021727Y-125422296D01*
X101993903Y-125450120D01*
X101949734Y-125516224D01*
X101919310Y-125589674D01*
X101903800Y-125667649D01*
X101903800Y-125747151D01*
X101919310Y-125825126D01*
X101920730Y-125828555D01*
X101869790Y-125794518D01*
X101796340Y-125764094D01*
X101718365Y-125748584D01*
X101638863Y-125748584D01*
X101560888Y-125764094D01*
X101487438Y-125794518D01*
X101421334Y-125838687D01*
X101365117Y-125894904D01*
X101320948Y-125961008D01*
X101290524Y-126034458D01*
X101275014Y-126112433D01*
X101275014Y-126191935D01*
X101290524Y-126269910D01*
X101292803Y-126275412D01*
X101278022Y-126281534D01*
X101211918Y-126325703D01*
X101155701Y-126381920D01*
X101111532Y-126448024D01*
X101081108Y-126521474D01*
X101065598Y-126599449D01*
X100576200Y-126599449D01*
X100576200Y-125667296D01*
X100596903Y-125698280D01*
X100653120Y-125754497D01*
X100719224Y-125798666D01*
X100792674Y-125829090D01*
X100870649Y-125844600D01*
X100950151Y-125844600D01*
X101028126Y-125829090D01*
X101101576Y-125798666D01*
X101167680Y-125754497D01*
X101223897Y-125698280D01*
X101268066Y-125632176D01*
X101298490Y-125558726D01*
X101314000Y-125480751D01*
X101314000Y-125401249D01*
X101298490Y-125323274D01*
X101268066Y-125249824D01*
X101238150Y-125205052D01*
X101303424Y-125248666D01*
X101376874Y-125279090D01*
X101454849Y-125294600D01*
X101534351Y-125294600D01*
X101612326Y-125279090D01*
X101685776Y-125248666D01*
X101751880Y-125204497D01*
X101808097Y-125148280D01*
X101852266Y-125082176D01*
X101882690Y-125008726D01*
X101898200Y-124930751D01*
X101898200Y-124851249D01*
X101882690Y-124773274D01*
X101852266Y-124699824D01*
X101808097Y-124633720D01*
X101751880Y-124577503D01*
X101685776Y-124533334D01*
X101612326Y-124502910D01*
X101534351Y-124487400D01*
X101454849Y-124487400D01*
X101376874Y-124502910D01*
X101303424Y-124533334D01*
X101237320Y-124577503D01*
X101202500Y-124612323D01*
X101167680Y-124577503D01*
X101101576Y-124533334D01*
X101028126Y-124502910D01*
X100950151Y-124487400D01*
X100870649Y-124487400D01*
X100792674Y-124502910D01*
X100719224Y-124533334D01*
X100653120Y-124577503D01*
X100596903Y-124633720D01*
X100576200Y-124664704D01*
X100576200Y-123900705D01*
X100634280Y-123861897D01*
X100690497Y-123805680D01*
X100734666Y-123739576D01*
X100755512Y-123689248D01*
X101573600Y-123689248D01*
X101573600Y-123768750D01*
X101589110Y-123846725D01*
X101619534Y-123920175D01*
X101663703Y-123986279D01*
X101719920Y-124042496D01*
X101786024Y-124086665D01*
X101859474Y-124117089D01*
X101937449Y-124132599D01*
X102016951Y-124132599D01*
X102094926Y-124117089D01*
X102168376Y-124086665D01*
X102234480Y-124042496D01*
X102258000Y-124018977D01*
X102278720Y-124039697D01*
X102344824Y-124083866D01*
X102418274Y-124114290D01*
X102496249Y-124129800D01*
X102575751Y-124129800D01*
X102653726Y-124114290D01*
X102727176Y-124083866D01*
X102793280Y-124039697D01*
X102849497Y-123983480D01*
X102849651Y-123983249D01*
X105104200Y-123983249D01*
X105104200Y-124062751D01*
X105119710Y-124140726D01*
X105150134Y-124214176D01*
X105194303Y-124280280D01*
X105250520Y-124336497D01*
X105316624Y-124380666D01*
X105390074Y-124411090D01*
X105468049Y-124426600D01*
X105547551Y-124426600D01*
X105625526Y-124411090D01*
X105698976Y-124380666D01*
X105765080Y-124336497D01*
X105792905Y-124308672D01*
X105824624Y-124329866D01*
X105898074Y-124360290D01*
X105976049Y-124375800D01*
X106055551Y-124375800D01*
X106133526Y-124360290D01*
X106206976Y-124329866D01*
X106273080Y-124285697D01*
X106279641Y-124279136D01*
X106321213Y-124306914D01*
X106394663Y-124337338D01*
X106472638Y-124352848D01*
X106552140Y-124352848D01*
X106630115Y-124337338D01*
X106703565Y-124306914D01*
X106769669Y-124262745D01*
X106825886Y-124206528D01*
X106870055Y-124140424D01*
X106900479Y-124066974D01*
X106915989Y-123988999D01*
X106915989Y-123909497D01*
X106900479Y-123831522D01*
X106892993Y-123813449D01*
X108939600Y-123813449D01*
X108939600Y-123892951D01*
X108955110Y-123970926D01*
X108985534Y-124044376D01*
X109029703Y-124110480D01*
X109085920Y-124166697D01*
X109152024Y-124210866D01*
X109225474Y-124241290D01*
X109303449Y-124256800D01*
X109382951Y-124256800D01*
X109460926Y-124241290D01*
X109534376Y-124210866D01*
X109600480Y-124166697D01*
X109656697Y-124110480D01*
X109669332Y-124091570D01*
X109686503Y-124117268D01*
X109742720Y-124173485D01*
X109808824Y-124217654D01*
X109882274Y-124248078D01*
X109960249Y-124263588D01*
X110039751Y-124263588D01*
X110117726Y-124248078D01*
X110191176Y-124217654D01*
X110257280Y-124173485D01*
X110313497Y-124117268D01*
X110357666Y-124051164D01*
X110388090Y-123977714D01*
X110403600Y-123899739D01*
X110403600Y-123820237D01*
X110388090Y-123742262D01*
X110357666Y-123668812D01*
X110313497Y-123602708D01*
X110257280Y-123546491D01*
X110191176Y-123502322D01*
X110117726Y-123471898D01*
X110039751Y-123456388D01*
X109960249Y-123456388D01*
X109882274Y-123471898D01*
X109808824Y-123502322D01*
X109742720Y-123546491D01*
X109686503Y-123602708D01*
X109673868Y-123621618D01*
X109656697Y-123595920D01*
X109600480Y-123539703D01*
X109534376Y-123495534D01*
X109460926Y-123465110D01*
X109382951Y-123449600D01*
X109303449Y-123449600D01*
X109225474Y-123465110D01*
X109152024Y-123495534D01*
X109085920Y-123539703D01*
X109029703Y-123595920D01*
X108985534Y-123662024D01*
X108955110Y-123735474D01*
X108939600Y-123813449D01*
X106892993Y-123813449D01*
X106870055Y-123758072D01*
X106825886Y-123691968D01*
X106769669Y-123635751D01*
X106703565Y-123591582D01*
X106630115Y-123561158D01*
X106552140Y-123545648D01*
X106472638Y-123545648D01*
X106394663Y-123561158D01*
X106321213Y-123591582D01*
X106255109Y-123635751D01*
X106248548Y-123642312D01*
X106206976Y-123614534D01*
X106133526Y-123584110D01*
X106055551Y-123568600D01*
X105976049Y-123568600D01*
X105898074Y-123584110D01*
X105824624Y-123614534D01*
X105758520Y-123658703D01*
X105730695Y-123686528D01*
X105698976Y-123665334D01*
X105625526Y-123634910D01*
X105547551Y-123619400D01*
X105468049Y-123619400D01*
X105390074Y-123634910D01*
X105316624Y-123665334D01*
X105250520Y-123709503D01*
X105194303Y-123765720D01*
X105150134Y-123831824D01*
X105119710Y-123905274D01*
X105104200Y-123983249D01*
X102849651Y-123983249D01*
X102893666Y-123917376D01*
X102924090Y-123843926D01*
X102939600Y-123765951D01*
X102939600Y-123686449D01*
X102924090Y-123608474D01*
X102893666Y-123535024D01*
X102849497Y-123468920D01*
X102793280Y-123412703D01*
X102727176Y-123368534D01*
X102653726Y-123338110D01*
X102575751Y-123322600D01*
X102496249Y-123322600D01*
X102418274Y-123338110D01*
X102344824Y-123368534D01*
X102278720Y-123412703D01*
X102255201Y-123436223D01*
X102234480Y-123415502D01*
X102168376Y-123371333D01*
X102094926Y-123340909D01*
X102016951Y-123325399D01*
X101937449Y-123325399D01*
X101859474Y-123340909D01*
X101786024Y-123371333D01*
X101719920Y-123415502D01*
X101663703Y-123471719D01*
X101619534Y-123537823D01*
X101589110Y-123611273D01*
X101573600Y-123689248D01*
X100755512Y-123689248D01*
X100765090Y-123666126D01*
X100780600Y-123588151D01*
X100780600Y-123508649D01*
X100765090Y-123430674D01*
X100734666Y-123357224D01*
X100690497Y-123291120D01*
X100634280Y-123234903D01*
X100576200Y-123196095D01*
X100576200Y-122826200D01*
X111923800Y-122826200D01*
X111923800Y-130173800D01*
G36*
X107996444Y-108846740D02*
G01*
X107998609Y-108850811D01*
X108045022Y-108936648D01*
X108061736Y-108961427D01*
X108078144Y-108986501D01*
X108081058Y-108990074D01*
X108143260Y-109065263D01*
X108164471Y-109086327D01*
X108185433Y-109107732D01*
X108188985Y-109110670D01*
X108264606Y-109172346D01*
X108289527Y-109188904D01*
X108314231Y-109205819D01*
X108318286Y-109208011D01*
X108404447Y-109253823D01*
X108423800Y-109261800D01*
X108423800Y-117673800D01*
X99511854Y-117673800D01*
X99503555Y-117653259D01*
X99501391Y-117649189D01*
X99454978Y-117563351D01*
X99438248Y-117538549D01*
X99421856Y-117513498D01*
X99418942Y-117509926D01*
X99356740Y-117434737D01*
X99335512Y-117413657D01*
X99314567Y-117392268D01*
X99311015Y-117389330D01*
X99235394Y-117327654D01*
X99210457Y-117311086D01*
X99185769Y-117294181D01*
X99181714Y-117291989D01*
X99095553Y-117246177D01*
X99076200Y-117238200D01*
X99076200Y-117131424D01*
X99143449Y-117144800D01*
X99222951Y-117144800D01*
X99300926Y-117129290D01*
X99374376Y-117098866D01*
X99440480Y-117054697D01*
X99496697Y-116998480D01*
X99540866Y-116932376D01*
X99571290Y-116858926D01*
X99586800Y-116780951D01*
X99586800Y-116701449D01*
X99571290Y-116623474D01*
X99540866Y-116550024D01*
X99496697Y-116483920D01*
X99440480Y-116427703D01*
X99405978Y-116404649D01*
X102183200Y-116404649D01*
X102183200Y-116484151D01*
X102198710Y-116562126D01*
X102229134Y-116635576D01*
X102273303Y-116701680D01*
X102329520Y-116757897D01*
X102395624Y-116802066D01*
X102469074Y-116832490D01*
X102547049Y-116848000D01*
X102626551Y-116848000D01*
X102704526Y-116832490D01*
X102777976Y-116802066D01*
X102844080Y-116757897D01*
X102900297Y-116701680D01*
X102944466Y-116635576D01*
X102974890Y-116562126D01*
X102990400Y-116484151D01*
X102990400Y-116404649D01*
X102974890Y-116326674D01*
X102944466Y-116253224D01*
X102900297Y-116187120D01*
X102844080Y-116130903D01*
X102777976Y-116086734D01*
X102704526Y-116056310D01*
X102626551Y-116040800D01*
X102547049Y-116040800D01*
X102469074Y-116056310D01*
X102395624Y-116086734D01*
X102329520Y-116130903D01*
X102273303Y-116187120D01*
X102229134Y-116253224D01*
X102198710Y-116326674D01*
X102183200Y-116404649D01*
X99405978Y-116404649D01*
X99374376Y-116383534D01*
X99300926Y-116353110D01*
X99222951Y-116337600D01*
X99143449Y-116337600D01*
X99076200Y-116350976D01*
X99076200Y-115914049D01*
X99643200Y-115914049D01*
X99643200Y-115993551D01*
X99658710Y-116071526D01*
X99689134Y-116144976D01*
X99733303Y-116211080D01*
X99789520Y-116267297D01*
X99855624Y-116311466D01*
X99929074Y-116341890D01*
X100007049Y-116357400D01*
X100086551Y-116357400D01*
X100164526Y-116341890D01*
X100237976Y-116311466D01*
X100304080Y-116267297D01*
X100360297Y-116211080D01*
X100404466Y-116144976D01*
X100434890Y-116071526D01*
X100450400Y-115993551D01*
X100450400Y-115914049D01*
X100434890Y-115836074D01*
X100404466Y-115762624D01*
X100360297Y-115696520D01*
X100360026Y-115696249D01*
X100771800Y-115696249D01*
X100771800Y-115775751D01*
X100787310Y-115853726D01*
X100817734Y-115927176D01*
X100861903Y-115993280D01*
X100918120Y-116049497D01*
X100984224Y-116093666D01*
X101057674Y-116124090D01*
X101135649Y-116139600D01*
X101215151Y-116139600D01*
X101293126Y-116124090D01*
X101366576Y-116093666D01*
X101432680Y-116049497D01*
X101488897Y-115993280D01*
X101533066Y-115927176D01*
X101563490Y-115853726D01*
X101576752Y-115787049D01*
X102741998Y-115787049D01*
X102741998Y-115866551D01*
X102757508Y-115944526D01*
X102787932Y-116017976D01*
X102832101Y-116084080D01*
X102888318Y-116140297D01*
X102954422Y-116184466D01*
X103027872Y-116214890D01*
X103105847Y-116230400D01*
X103185349Y-116230400D01*
X103263324Y-116214890D01*
X103300802Y-116199366D01*
X103300802Y-116230151D01*
X103316312Y-116308126D01*
X103346736Y-116381576D01*
X103390905Y-116447680D01*
X103447122Y-116503897D01*
X103513226Y-116548066D01*
X103586676Y-116578490D01*
X103664651Y-116594000D01*
X103744153Y-116594000D01*
X103788673Y-116585145D01*
X103813753Y-116622680D01*
X103869970Y-116678897D01*
X103936074Y-116723066D01*
X104009524Y-116753490D01*
X104087499Y-116769000D01*
X104167001Y-116769000D01*
X104244976Y-116753490D01*
X104318426Y-116723066D01*
X104384530Y-116678897D01*
X104440747Y-116622680D01*
X104484916Y-116556576D01*
X104515340Y-116483126D01*
X104530850Y-116405151D01*
X104530850Y-116325649D01*
X104519712Y-116269649D01*
X106323400Y-116269649D01*
X106323400Y-116349151D01*
X106338910Y-116427126D01*
X106369334Y-116500576D01*
X106413503Y-116566680D01*
X106469720Y-116622897D01*
X106535824Y-116667066D01*
X106609274Y-116697490D01*
X106687249Y-116713000D01*
X106766751Y-116713000D01*
X106844726Y-116697490D01*
X106880268Y-116682768D01*
X106921503Y-116744480D01*
X106977720Y-116800697D01*
X107043824Y-116844866D01*
X107117274Y-116875290D01*
X107195249Y-116890800D01*
X107274751Y-116890800D01*
X107352726Y-116875290D01*
X107426176Y-116844866D01*
X107492280Y-116800697D01*
X107548497Y-116744480D01*
X107592666Y-116678376D01*
X107623090Y-116604926D01*
X107638600Y-116526951D01*
X107638600Y-116447449D01*
X107623090Y-116369474D01*
X107592666Y-116296024D01*
X107548497Y-116229920D01*
X107492280Y-116173703D01*
X107426176Y-116129534D01*
X107352726Y-116099110D01*
X107274751Y-116083600D01*
X107195249Y-116083600D01*
X107117274Y-116099110D01*
X107081732Y-116113832D01*
X107040497Y-116052120D01*
X106984280Y-115995903D01*
X106918176Y-115951734D01*
X106844726Y-115921310D01*
X106766751Y-115905800D01*
X106687249Y-115905800D01*
X106609274Y-115921310D01*
X106535824Y-115951734D01*
X106469720Y-115995903D01*
X106413503Y-116052120D01*
X106369334Y-116118224D01*
X106338910Y-116191674D01*
X106323400Y-116269649D01*
X104519712Y-116269649D01*
X104515340Y-116247674D01*
X104484916Y-116174224D01*
X104440747Y-116108120D01*
X104384530Y-116051903D01*
X104346550Y-116026526D01*
X104380918Y-116019690D01*
X104454368Y-115989266D01*
X104520472Y-115945097D01*
X104576689Y-115888880D01*
X104620858Y-115822776D01*
X104651282Y-115749326D01*
X104666792Y-115671351D01*
X104666792Y-115591849D01*
X104651282Y-115513874D01*
X104620858Y-115440424D01*
X104576689Y-115374320D01*
X104520472Y-115318103D01*
X104454368Y-115273934D01*
X104380918Y-115243510D01*
X104302943Y-115228000D01*
X104223441Y-115228000D01*
X104145466Y-115243510D01*
X104072016Y-115273934D01*
X104005912Y-115318103D01*
X103949695Y-115374320D01*
X103905526Y-115440424D01*
X103875102Y-115513874D01*
X103859592Y-115591849D01*
X103859592Y-115671351D01*
X103875102Y-115749326D01*
X103905526Y-115822776D01*
X103925570Y-115852774D01*
X103895578Y-115832734D01*
X103822128Y-115802310D01*
X103744153Y-115786800D01*
X103664651Y-115786800D01*
X103586676Y-115802310D01*
X103549198Y-115817834D01*
X103549198Y-115787049D01*
X103533688Y-115709074D01*
X103503264Y-115635624D01*
X103459095Y-115569520D01*
X103402878Y-115513303D01*
X103336774Y-115469134D01*
X103263324Y-115438710D01*
X103185349Y-115423200D01*
X103105847Y-115423200D01*
X103027872Y-115438710D01*
X102954422Y-115469134D01*
X102888318Y-115513303D01*
X102832101Y-115569520D01*
X102787932Y-115635624D01*
X102757508Y-115709074D01*
X102741998Y-115787049D01*
X101576752Y-115787049D01*
X101579000Y-115775751D01*
X101579000Y-115696249D01*
X101563490Y-115618274D01*
X101533066Y-115544824D01*
X101517198Y-115521076D01*
X101543224Y-115538466D01*
X101616674Y-115568890D01*
X101694649Y-115584400D01*
X101774151Y-115584400D01*
X101852126Y-115568890D01*
X101925576Y-115538466D01*
X101991680Y-115494297D01*
X102047897Y-115438080D01*
X102092066Y-115371976D01*
X102122490Y-115298526D01*
X102138000Y-115220551D01*
X102138000Y-115141049D01*
X102122490Y-115063074D01*
X102092066Y-114989624D01*
X102047897Y-114923520D01*
X101991680Y-114867303D01*
X101925576Y-114823134D01*
X101852126Y-114792710D01*
X101774151Y-114777200D01*
X101694649Y-114777200D01*
X101623934Y-114791266D01*
X101638000Y-114720551D01*
X101638000Y-114641049D01*
X101622490Y-114563074D01*
X101592066Y-114489624D01*
X101547897Y-114423520D01*
X101491680Y-114367303D01*
X101425576Y-114323134D01*
X101352126Y-114292710D01*
X101274151Y-114277200D01*
X101194649Y-114277200D01*
X101116674Y-114292710D01*
X101043224Y-114323134D01*
X100977120Y-114367303D01*
X100920903Y-114423520D01*
X100876734Y-114489624D01*
X100846310Y-114563074D01*
X100830800Y-114641049D01*
X100830800Y-114720551D01*
X100846310Y-114798526D01*
X100876734Y-114871976D01*
X100920903Y-114938080D01*
X100977120Y-114994297D01*
X101043224Y-115038466D01*
X101116674Y-115068890D01*
X101194649Y-115084400D01*
X101274151Y-115084400D01*
X101344866Y-115070334D01*
X101330800Y-115141049D01*
X101330800Y-115220551D01*
X101346310Y-115298526D01*
X101376734Y-115371976D01*
X101392602Y-115395724D01*
X101366576Y-115378334D01*
X101293126Y-115347910D01*
X101215151Y-115332400D01*
X101135649Y-115332400D01*
X101057674Y-115347910D01*
X100984224Y-115378334D01*
X100918120Y-115422503D01*
X100861903Y-115478720D01*
X100817734Y-115544824D01*
X100787310Y-115618274D01*
X100771800Y-115696249D01*
X100360026Y-115696249D01*
X100304080Y-115640303D01*
X100237976Y-115596134D01*
X100225423Y-115590934D01*
X100240728Y-115587890D01*
X100314178Y-115557466D01*
X100380282Y-115513297D01*
X100436499Y-115457080D01*
X100480668Y-115390976D01*
X100511092Y-115317526D01*
X100526602Y-115239551D01*
X100526602Y-115160049D01*
X100511092Y-115082074D01*
X100480668Y-115008624D01*
X100436499Y-114942520D01*
X100380282Y-114886303D01*
X100314178Y-114842134D01*
X100240728Y-114811710D01*
X100162753Y-114796200D01*
X100083251Y-114796200D01*
X100005276Y-114811710D01*
X99931826Y-114842134D01*
X99865722Y-114886303D01*
X99809505Y-114942520D01*
X99765336Y-115008624D01*
X99734912Y-115082074D01*
X99719402Y-115160049D01*
X99719402Y-115239551D01*
X99734912Y-115317526D01*
X99765336Y-115390976D01*
X99809505Y-115457080D01*
X99865722Y-115513297D01*
X99931826Y-115557466D01*
X99944379Y-115562666D01*
X99929074Y-115565710D01*
X99855624Y-115596134D01*
X99789520Y-115640303D01*
X99733303Y-115696520D01*
X99689134Y-115762624D01*
X99658710Y-115836074D01*
X99643200Y-115914049D01*
X99076200Y-115914049D01*
X99076200Y-114141049D01*
X101830800Y-114141049D01*
X101830800Y-114220551D01*
X101846310Y-114298526D01*
X101876734Y-114371976D01*
X101920903Y-114438080D01*
X101977120Y-114494297D01*
X102043224Y-114538466D01*
X102116674Y-114568890D01*
X102194649Y-114584400D01*
X102274151Y-114584400D01*
X102344866Y-114570334D01*
X102330800Y-114641049D01*
X102330800Y-114720551D01*
X102346310Y-114798526D01*
X102376734Y-114871976D01*
X102420903Y-114938080D01*
X102477120Y-114994297D01*
X102543224Y-115038466D01*
X102616674Y-115068890D01*
X102694649Y-115084400D01*
X102774151Y-115084400D01*
X102852126Y-115068890D01*
X102925576Y-115038466D01*
X102984400Y-114999161D01*
X103043224Y-115038466D01*
X103116674Y-115068890D01*
X103194649Y-115084400D01*
X103274151Y-115084400D01*
X103352126Y-115068890D01*
X103425576Y-115038466D01*
X103484400Y-114999161D01*
X103543224Y-115038466D01*
X103616674Y-115068890D01*
X103694649Y-115084400D01*
X103774151Y-115084400D01*
X103852126Y-115068890D01*
X103925576Y-115038466D01*
X103984400Y-114999161D01*
X104043224Y-115038466D01*
X104116674Y-115068890D01*
X104194649Y-115084400D01*
X104274151Y-115084400D01*
X104352126Y-115068890D01*
X104425576Y-115038466D01*
X104484400Y-114999161D01*
X104543224Y-115038466D01*
X104616674Y-115068890D01*
X104694649Y-115084400D01*
X104774151Y-115084400D01*
X104852126Y-115068890D01*
X104925576Y-115038466D01*
X104984400Y-114999161D01*
X105043224Y-115038466D01*
X105116674Y-115068890D01*
X105194649Y-115084400D01*
X105274151Y-115084400D01*
X105344866Y-115070334D01*
X105330800Y-115141049D01*
X105330800Y-115220551D01*
X105346310Y-115298526D01*
X105376734Y-115371976D01*
X105420903Y-115438080D01*
X105477120Y-115494297D01*
X105543224Y-115538466D01*
X105616674Y-115568890D01*
X105694649Y-115584400D01*
X105774151Y-115584400D01*
X105852126Y-115568890D01*
X105925576Y-115538466D01*
X105933683Y-115533049D01*
X107009200Y-115533049D01*
X107009200Y-115612551D01*
X107024710Y-115690526D01*
X107055134Y-115763976D01*
X107099303Y-115830080D01*
X107155520Y-115886297D01*
X107221624Y-115930466D01*
X107295074Y-115960890D01*
X107373049Y-115976400D01*
X107452551Y-115976400D01*
X107530526Y-115960890D01*
X107603976Y-115930466D01*
X107670080Y-115886297D01*
X107726297Y-115830080D01*
X107770466Y-115763976D01*
X107800890Y-115690526D01*
X107816400Y-115612551D01*
X107816400Y-115533049D01*
X107800890Y-115455074D01*
X107770466Y-115381624D01*
X107726297Y-115315520D01*
X107670080Y-115259303D01*
X107603976Y-115215134D01*
X107530526Y-115184710D01*
X107452551Y-115169200D01*
X107373049Y-115169200D01*
X107295074Y-115184710D01*
X107221624Y-115215134D01*
X107155520Y-115259303D01*
X107099303Y-115315520D01*
X107055134Y-115381624D01*
X107024710Y-115455074D01*
X107009200Y-115533049D01*
X105933683Y-115533049D01*
X105991680Y-115494297D01*
X106047897Y-115438080D01*
X106092066Y-115371976D01*
X106122490Y-115298526D01*
X106138000Y-115220551D01*
X106138000Y-115141049D01*
X106122490Y-115063074D01*
X106092066Y-114989624D01*
X106052761Y-114930800D01*
X106092066Y-114871976D01*
X106122490Y-114798526D01*
X106138000Y-114720551D01*
X106138000Y-114641049D01*
X106122490Y-114563074D01*
X106092066Y-114489624D01*
X106047897Y-114423520D01*
X105991680Y-114367303D01*
X105925576Y-114323134D01*
X105852126Y-114292710D01*
X105774151Y-114277200D01*
X105694649Y-114277200D01*
X105627581Y-114290540D01*
X105638000Y-114238161D01*
X105638000Y-114158659D01*
X105622490Y-114080684D01*
X105592066Y-114007234D01*
X105547897Y-113941130D01*
X105491680Y-113884913D01*
X105425576Y-113840744D01*
X105352126Y-113810320D01*
X105274151Y-113794810D01*
X105194649Y-113794810D01*
X105116674Y-113810320D01*
X105043224Y-113840744D01*
X104996405Y-113872028D01*
X104991680Y-113867303D01*
X104925576Y-113823134D01*
X104852126Y-113792710D01*
X104774151Y-113777200D01*
X104694649Y-113777200D01*
X104616674Y-113792710D01*
X104543224Y-113823134D01*
X104484400Y-113862439D01*
X104425576Y-113823134D01*
X104352126Y-113792710D01*
X104274151Y-113777200D01*
X104194649Y-113777200D01*
X104116674Y-113792710D01*
X104043224Y-113823134D01*
X103984400Y-113862439D01*
X103925576Y-113823134D01*
X103852126Y-113792710D01*
X103774151Y-113777200D01*
X103694649Y-113777200D01*
X103616674Y-113792710D01*
X103543224Y-113823134D01*
X103484400Y-113862439D01*
X103425576Y-113823134D01*
X103352126Y-113792710D01*
X103274151Y-113777200D01*
X103194649Y-113777200D01*
X103116674Y-113792710D01*
X103043224Y-113823134D01*
X102984400Y-113862439D01*
X102925576Y-113823134D01*
X102852126Y-113792710D01*
X102774151Y-113777200D01*
X102694649Y-113777200D01*
X102616674Y-113792710D01*
X102543224Y-113823134D01*
X102484400Y-113862439D01*
X102425576Y-113823134D01*
X102352126Y-113792710D01*
X102274151Y-113777200D01*
X102194649Y-113777200D01*
X102116674Y-113792710D01*
X102043224Y-113823134D01*
X101977120Y-113867303D01*
X101920903Y-113923520D01*
X101876734Y-113989624D01*
X101846310Y-114063074D01*
X101830800Y-114141049D01*
X99076200Y-114141049D01*
X99076200Y-113602649D01*
X100252800Y-113602649D01*
X100252800Y-113682151D01*
X100268310Y-113760126D01*
X100298734Y-113833576D01*
X100342903Y-113899680D01*
X100399120Y-113955897D01*
X100465224Y-114000066D01*
X100538674Y-114030490D01*
X100616649Y-114046000D01*
X100696151Y-114046000D01*
X100774126Y-114030490D01*
X100847576Y-114000066D01*
X100913680Y-113955897D01*
X100969897Y-113899680D01*
X101014066Y-113833576D01*
X101044490Y-113760126D01*
X101060000Y-113682151D01*
X101060000Y-113602649D01*
X101047593Y-113540276D01*
X101116674Y-113568890D01*
X101194649Y-113584400D01*
X101274151Y-113584400D01*
X101352126Y-113568890D01*
X101425576Y-113538466D01*
X101491680Y-113494297D01*
X101547897Y-113438080D01*
X101592066Y-113371976D01*
X101622490Y-113298526D01*
X101638000Y-113220551D01*
X101638000Y-113141049D01*
X101622490Y-113063074D01*
X101592066Y-112989624D01*
X101547897Y-112923520D01*
X101491680Y-112867303D01*
X101425576Y-112823134D01*
X101352126Y-112792710D01*
X101274151Y-112777200D01*
X101194649Y-112777200D01*
X101116674Y-112792710D01*
X101043224Y-112823134D01*
X100977120Y-112867303D01*
X100920903Y-112923520D01*
X100876734Y-112989624D01*
X100846310Y-113063074D01*
X100830800Y-113141049D01*
X100830800Y-113220551D01*
X100843207Y-113282924D01*
X100774126Y-113254310D01*
X100696151Y-113238800D01*
X100616649Y-113238800D01*
X100538674Y-113254310D01*
X100465224Y-113284734D01*
X100399120Y-113328903D01*
X100342903Y-113385120D01*
X100298734Y-113451224D01*
X100268310Y-113524674D01*
X100252800Y-113602649D01*
X99076200Y-113602649D01*
X99076200Y-112205649D01*
X99313000Y-112205649D01*
X99313000Y-112285151D01*
X99328510Y-112363126D01*
X99358934Y-112436576D01*
X99403103Y-112502680D01*
X99459320Y-112558897D01*
X99525424Y-112603066D01*
X99598874Y-112633490D01*
X99676849Y-112649000D01*
X99756351Y-112649000D01*
X99796323Y-112641049D01*
X105830800Y-112641049D01*
X105830800Y-112720551D01*
X105846310Y-112798526D01*
X105876734Y-112871976D01*
X105920903Y-112938080D01*
X105977120Y-112994297D01*
X106043224Y-113038466D01*
X106116674Y-113068890D01*
X106194649Y-113084400D01*
X106274151Y-113084400D01*
X106352126Y-113068890D01*
X106425576Y-113038466D01*
X106491680Y-112994297D01*
X106532928Y-112953049D01*
X106850200Y-112953049D01*
X106850200Y-113032551D01*
X106865710Y-113110526D01*
X106896134Y-113183976D01*
X106940303Y-113250080D01*
X106996520Y-113306297D01*
X107062624Y-113350466D01*
X107136074Y-113380890D01*
X107214049Y-113396400D01*
X107293551Y-113396400D01*
X107371526Y-113380890D01*
X107444976Y-113350466D01*
X107511080Y-113306297D01*
X107567297Y-113250080D01*
X107611466Y-113183976D01*
X107641890Y-113110526D01*
X107657400Y-113032551D01*
X107657400Y-112953049D01*
X107641890Y-112875074D01*
X107611466Y-112801624D01*
X107567297Y-112735520D01*
X107511080Y-112679303D01*
X107444976Y-112635134D01*
X107371526Y-112604710D01*
X107293551Y-112589200D01*
X107214049Y-112589200D01*
X107136074Y-112604710D01*
X107062624Y-112635134D01*
X106996520Y-112679303D01*
X106940303Y-112735520D01*
X106896134Y-112801624D01*
X106865710Y-112875074D01*
X106850200Y-112953049D01*
X106532928Y-112953049D01*
X106547897Y-112938080D01*
X106592066Y-112871976D01*
X106622490Y-112798526D01*
X106638000Y-112720551D01*
X106638000Y-112641049D01*
X106622490Y-112563074D01*
X106592066Y-112489624D01*
X106547897Y-112423520D01*
X106491680Y-112367303D01*
X106425576Y-112323134D01*
X106352126Y-112292710D01*
X106274151Y-112277200D01*
X106194649Y-112277200D01*
X106116674Y-112292710D01*
X106043224Y-112323134D01*
X105977120Y-112367303D01*
X105920903Y-112423520D01*
X105876734Y-112489624D01*
X105846310Y-112563074D01*
X105830800Y-112641049D01*
X99796323Y-112641049D01*
X99834326Y-112633490D01*
X99907776Y-112603066D01*
X99973880Y-112558897D01*
X100030097Y-112502680D01*
X100074266Y-112436576D01*
X100104690Y-112363126D01*
X100120200Y-112285151D01*
X100120200Y-112205649D01*
X100107351Y-112141049D01*
X101830800Y-112141049D01*
X101830800Y-112220551D01*
X101846310Y-112298526D01*
X101876734Y-112371976D01*
X101920903Y-112438080D01*
X101977120Y-112494297D01*
X102043224Y-112538466D01*
X102116674Y-112568890D01*
X102194649Y-112584400D01*
X102274151Y-112584400D01*
X102352126Y-112568890D01*
X102425576Y-112538466D01*
X102484400Y-112499161D01*
X102543224Y-112538466D01*
X102616674Y-112568890D01*
X102694649Y-112584400D01*
X102774151Y-112584400D01*
X102852126Y-112568890D01*
X102925576Y-112538466D01*
X102984400Y-112499161D01*
X103043224Y-112538466D01*
X103116674Y-112568890D01*
X103194649Y-112584400D01*
X103274151Y-112584400D01*
X103352126Y-112568890D01*
X103425576Y-112538466D01*
X103491680Y-112494297D01*
X103547897Y-112438080D01*
X103592066Y-112371976D01*
X103622490Y-112298526D01*
X103638000Y-112220551D01*
X103638000Y-112141049D01*
X103623934Y-112070334D01*
X103694649Y-112084400D01*
X103774151Y-112084400D01*
X103852126Y-112068890D01*
X103925576Y-112038466D01*
X103991680Y-111994297D01*
X104047897Y-111938080D01*
X104092066Y-111871976D01*
X104122490Y-111798526D01*
X104138000Y-111720551D01*
X104138000Y-111641049D01*
X104830800Y-111641049D01*
X104830800Y-111720551D01*
X104846310Y-111798526D01*
X104876734Y-111871976D01*
X104916039Y-111930800D01*
X104876734Y-111989624D01*
X104846310Y-112063074D01*
X104830800Y-112141049D01*
X104830800Y-112220551D01*
X104846310Y-112298526D01*
X104876734Y-112371976D01*
X104920903Y-112438080D01*
X104977120Y-112494297D01*
X105043224Y-112538466D01*
X105116674Y-112568890D01*
X105194649Y-112584400D01*
X105274151Y-112584400D01*
X105352126Y-112568890D01*
X105425576Y-112538466D01*
X105491680Y-112494297D01*
X105547897Y-112438080D01*
X105592066Y-112371976D01*
X105622490Y-112298526D01*
X105638000Y-112220551D01*
X105638000Y-112141049D01*
X105623934Y-112070334D01*
X105694649Y-112084400D01*
X105774151Y-112084400D01*
X105852126Y-112068890D01*
X105925576Y-112038466D01*
X105991680Y-111994297D01*
X106047897Y-111938080D01*
X106092066Y-111871976D01*
X106122490Y-111798526D01*
X106138000Y-111720551D01*
X106138000Y-111641049D01*
X106122490Y-111563074D01*
X106092066Y-111489624D01*
X106047897Y-111423520D01*
X105991680Y-111367303D01*
X105925576Y-111323134D01*
X105852126Y-111292710D01*
X105774151Y-111277200D01*
X105694649Y-111277200D01*
X105616674Y-111292710D01*
X105543224Y-111323134D01*
X105484400Y-111362439D01*
X105425576Y-111323134D01*
X105352126Y-111292710D01*
X105274151Y-111277200D01*
X105194649Y-111277200D01*
X105116674Y-111292710D01*
X105043224Y-111323134D01*
X104977120Y-111367303D01*
X104920903Y-111423520D01*
X104876734Y-111489624D01*
X104846310Y-111563074D01*
X104830800Y-111641049D01*
X104138000Y-111641049D01*
X104122490Y-111563074D01*
X104092066Y-111489624D01*
X104047897Y-111423520D01*
X103991680Y-111367303D01*
X103925576Y-111323134D01*
X103852126Y-111292710D01*
X103774151Y-111277200D01*
X103694649Y-111277200D01*
X103616674Y-111292710D01*
X103543224Y-111323134D01*
X103477120Y-111367303D01*
X103420903Y-111423520D01*
X103376734Y-111489624D01*
X103346310Y-111563074D01*
X103330800Y-111641049D01*
X103330800Y-111720551D01*
X103344866Y-111791266D01*
X103274151Y-111777200D01*
X103194649Y-111777200D01*
X103116674Y-111792710D01*
X103043224Y-111823134D01*
X102984400Y-111862439D01*
X102925576Y-111823134D01*
X102852126Y-111792710D01*
X102774151Y-111777200D01*
X102694649Y-111777200D01*
X102616674Y-111792710D01*
X102543224Y-111823134D01*
X102484400Y-111862439D01*
X102425576Y-111823134D01*
X102352126Y-111792710D01*
X102274151Y-111777200D01*
X102194649Y-111777200D01*
X102116674Y-111792710D01*
X102043224Y-111823134D01*
X101977120Y-111867303D01*
X101920903Y-111923520D01*
X101876734Y-111989624D01*
X101846310Y-112063074D01*
X101830800Y-112141049D01*
X100107351Y-112141049D01*
X100104690Y-112127674D01*
X100074266Y-112054224D01*
X100030097Y-111988120D01*
X99973880Y-111931903D01*
X99907776Y-111887734D01*
X99834326Y-111857310D01*
X99756351Y-111841800D01*
X99676849Y-111841800D01*
X99598874Y-111857310D01*
X99525424Y-111887734D01*
X99459320Y-111931903D01*
X99403103Y-111988120D01*
X99358934Y-112054224D01*
X99328510Y-112127674D01*
X99313000Y-112205649D01*
X99076200Y-112205649D01*
X99076200Y-110921049D01*
X99395800Y-110921049D01*
X99395800Y-111000551D01*
X99411310Y-111078526D01*
X99441734Y-111151976D01*
X99485903Y-111218080D01*
X99542120Y-111274297D01*
X99608224Y-111318466D01*
X99681674Y-111348890D01*
X99759649Y-111364400D01*
X99839151Y-111364400D01*
X99917126Y-111348890D01*
X99990576Y-111318466D01*
X100056680Y-111274297D01*
X100112897Y-111218080D01*
X100157066Y-111151976D01*
X100187490Y-111078526D01*
X100203000Y-111000551D01*
X100203000Y-110921049D01*
X100919800Y-110921049D01*
X100919800Y-111000551D01*
X100935310Y-111078526D01*
X100965734Y-111151976D01*
X101009903Y-111218080D01*
X101066120Y-111274297D01*
X101132224Y-111318466D01*
X101205674Y-111348890D01*
X101283649Y-111364400D01*
X101363151Y-111364400D01*
X101441126Y-111348890D01*
X101514576Y-111318466D01*
X101580680Y-111274297D01*
X101636897Y-111218080D01*
X101681066Y-111151976D01*
X101711490Y-111078526D01*
X101727000Y-111000551D01*
X101727000Y-110921049D01*
X101711490Y-110843074D01*
X101681066Y-110769624D01*
X101636897Y-110703520D01*
X101580680Y-110647303D01*
X101514576Y-110603134D01*
X101441126Y-110572710D01*
X101363151Y-110557200D01*
X101283649Y-110557200D01*
X101205674Y-110572710D01*
X101132224Y-110603134D01*
X101066120Y-110647303D01*
X101009903Y-110703520D01*
X100965734Y-110769624D01*
X100935310Y-110843074D01*
X100919800Y-110921049D01*
X100203000Y-110921049D01*
X100187490Y-110843074D01*
X100157066Y-110769624D01*
X100112897Y-110703520D01*
X100056680Y-110647303D01*
X99990576Y-110603134D01*
X99917126Y-110572710D01*
X99839151Y-110557200D01*
X99759649Y-110557200D01*
X99681674Y-110572710D01*
X99608224Y-110603134D01*
X99542120Y-110647303D01*
X99485903Y-110703520D01*
X99441734Y-110769624D01*
X99411310Y-110843074D01*
X99395800Y-110921049D01*
X99076200Y-110921049D01*
X99076200Y-110478449D01*
X102869000Y-110478449D01*
X102869000Y-110557951D01*
X102884510Y-110635926D01*
X102914934Y-110709376D01*
X102959103Y-110775480D01*
X103015320Y-110831697D01*
X103081424Y-110875866D01*
X103154874Y-110906290D01*
X103232849Y-110921800D01*
X103312351Y-110921800D01*
X103390326Y-110906290D01*
X103463776Y-110875866D01*
X103529880Y-110831697D01*
X103586097Y-110775480D01*
X103630266Y-110709376D01*
X103660690Y-110635926D01*
X103676200Y-110557951D01*
X103676200Y-110478449D01*
X103660690Y-110400474D01*
X103630266Y-110327024D01*
X103586097Y-110260920D01*
X103529880Y-110204703D01*
X103463776Y-110160534D01*
X103390326Y-110130110D01*
X103312351Y-110114600D01*
X103232849Y-110114600D01*
X103154874Y-110130110D01*
X103081424Y-110160534D01*
X103015320Y-110204703D01*
X102959103Y-110260920D01*
X102914934Y-110327024D01*
X102884510Y-110400474D01*
X102869000Y-110478449D01*
X99076200Y-110478449D01*
X99076200Y-109983652D01*
X99119024Y-110012266D01*
X99192474Y-110042690D01*
X99270449Y-110058200D01*
X99349951Y-110058200D01*
X99427926Y-110042690D01*
X99467111Y-110026459D01*
X101834200Y-110026459D01*
X101834200Y-110105961D01*
X101849710Y-110183936D01*
X101880134Y-110257386D01*
X101924303Y-110323490D01*
X101980520Y-110379707D01*
X102046624Y-110423876D01*
X102120074Y-110454300D01*
X102198049Y-110469810D01*
X102277551Y-110469810D01*
X102355526Y-110454300D01*
X102428976Y-110423876D01*
X102495080Y-110379707D01*
X102551297Y-110323490D01*
X102595466Y-110257386D01*
X102625890Y-110183936D01*
X102641400Y-110105961D01*
X102641400Y-110074511D01*
X107008800Y-110074511D01*
X107008800Y-110149089D01*
X107023349Y-110222234D01*
X107051889Y-110291134D01*
X107093322Y-110353144D01*
X107146056Y-110405878D01*
X107208066Y-110447311D01*
X107276966Y-110475851D01*
X107350111Y-110490400D01*
X107424689Y-110490400D01*
X107497834Y-110475851D01*
X107566734Y-110447311D01*
X107628744Y-110405878D01*
X107681478Y-110353144D01*
X107722911Y-110291134D01*
X107751451Y-110222234D01*
X107766000Y-110149089D01*
X107766000Y-110074511D01*
X107751451Y-110001366D01*
X107722911Y-109932466D01*
X107681478Y-109870456D01*
X107628744Y-109817722D01*
X107566734Y-109776289D01*
X107497834Y-109747749D01*
X107424689Y-109733200D01*
X107350111Y-109733200D01*
X107276966Y-109747749D01*
X107208066Y-109776289D01*
X107146056Y-109817722D01*
X107093322Y-109870456D01*
X107051889Y-109932466D01*
X107023349Y-110001366D01*
X107008800Y-110074511D01*
X102641400Y-110074511D01*
X102641400Y-110026459D01*
X102625890Y-109948484D01*
X102595466Y-109875034D01*
X102551297Y-109808930D01*
X102495080Y-109752713D01*
X102428976Y-109708544D01*
X102355526Y-109678120D01*
X102277551Y-109662610D01*
X102198049Y-109662610D01*
X102120074Y-109678120D01*
X102046624Y-109708544D01*
X101980520Y-109752713D01*
X101924303Y-109808930D01*
X101880134Y-109875034D01*
X101849710Y-109948484D01*
X101834200Y-110026459D01*
X99467111Y-110026459D01*
X99501376Y-110012266D01*
X99567480Y-109968097D01*
X99623697Y-109911880D01*
X99667866Y-109845776D01*
X99698290Y-109772326D01*
X99713800Y-109694351D01*
X99713800Y-109614849D01*
X99698290Y-109536874D01*
X99667866Y-109463424D01*
X99623697Y-109397320D01*
X99567480Y-109341103D01*
X99501376Y-109296934D01*
X99427926Y-109266510D01*
X99349951Y-109251000D01*
X99270449Y-109251000D01*
X99192474Y-109266510D01*
X99119024Y-109296934D01*
X99076200Y-109325548D01*
X99076200Y-108826200D01*
X107988146Y-108826200D01*
X107996444Y-108846740D01*
G37*
X107996444Y-108846740D02*
X107998609Y-108850811D01*
X108045022Y-108936648D01*
X108061736Y-108961427D01*
X108078144Y-108986501D01*
X108081058Y-108990074D01*
X108143260Y-109065263D01*
X108164471Y-109086327D01*
X108185433Y-109107732D01*
X108188985Y-109110670D01*
X108264606Y-109172346D01*
X108289527Y-109188904D01*
X108314231Y-109205819D01*
X108318286Y-109208011D01*
X108404447Y-109253823D01*
X108423800Y-109261800D01*
X108423800Y-117673800D01*
X99511854Y-117673800D01*
X99503555Y-117653259D01*
X99501391Y-117649189D01*
X99454978Y-117563351D01*
X99438248Y-117538549D01*
X99421856Y-117513498D01*
X99418942Y-117509926D01*
X99356740Y-117434737D01*
X99335512Y-117413657D01*
X99314567Y-117392268D01*
X99311015Y-117389330D01*
X99235394Y-117327654D01*
X99210457Y-117311086D01*
X99185769Y-117294181D01*
X99181714Y-117291989D01*
X99095553Y-117246177D01*
X99076200Y-117238200D01*
X99076200Y-117131424D01*
X99143449Y-117144800D01*
X99222951Y-117144800D01*
X99300926Y-117129290D01*
X99374376Y-117098866D01*
X99440480Y-117054697D01*
X99496697Y-116998480D01*
X99540866Y-116932376D01*
X99571290Y-116858926D01*
X99586800Y-116780951D01*
X99586800Y-116701449D01*
X99571290Y-116623474D01*
X99540866Y-116550024D01*
X99496697Y-116483920D01*
X99440480Y-116427703D01*
X99405978Y-116404649D01*
X102183200Y-116404649D01*
X102183200Y-116484151D01*
X102198710Y-116562126D01*
X102229134Y-116635576D01*
X102273303Y-116701680D01*
X102329520Y-116757897D01*
X102395624Y-116802066D01*
X102469074Y-116832490D01*
X102547049Y-116848000D01*
X102626551Y-116848000D01*
X102704526Y-116832490D01*
X102777976Y-116802066D01*
X102844080Y-116757897D01*
X102900297Y-116701680D01*
X102944466Y-116635576D01*
X102974890Y-116562126D01*
X102990400Y-116484151D01*
X102990400Y-116404649D01*
X102974890Y-116326674D01*
X102944466Y-116253224D01*
X102900297Y-116187120D01*
X102844080Y-116130903D01*
X102777976Y-116086734D01*
X102704526Y-116056310D01*
X102626551Y-116040800D01*
X102547049Y-116040800D01*
X102469074Y-116056310D01*
X102395624Y-116086734D01*
X102329520Y-116130903D01*
X102273303Y-116187120D01*
X102229134Y-116253224D01*
X102198710Y-116326674D01*
X102183200Y-116404649D01*
X99405978Y-116404649D01*
X99374376Y-116383534D01*
X99300926Y-116353110D01*
X99222951Y-116337600D01*
X99143449Y-116337600D01*
X99076200Y-116350976D01*
X99076200Y-115914049D01*
X99643200Y-115914049D01*
X99643200Y-115993551D01*
X99658710Y-116071526D01*
X99689134Y-116144976D01*
X99733303Y-116211080D01*
X99789520Y-116267297D01*
X99855624Y-116311466D01*
X99929074Y-116341890D01*
X100007049Y-116357400D01*
X100086551Y-116357400D01*
X100164526Y-116341890D01*
X100237976Y-116311466D01*
X100304080Y-116267297D01*
X100360297Y-116211080D01*
X100404466Y-116144976D01*
X100434890Y-116071526D01*
X100450400Y-115993551D01*
X100450400Y-115914049D01*
X100434890Y-115836074D01*
X100404466Y-115762624D01*
X100360297Y-115696520D01*
X100360026Y-115696249D01*
X100771800Y-115696249D01*
X100771800Y-115775751D01*
X100787310Y-115853726D01*
X100817734Y-115927176D01*
X100861903Y-115993280D01*
X100918120Y-116049497D01*
X100984224Y-116093666D01*
X101057674Y-116124090D01*
X101135649Y-116139600D01*
X101215151Y-116139600D01*
X101293126Y-116124090D01*
X101366576Y-116093666D01*
X101432680Y-116049497D01*
X101488897Y-115993280D01*
X101533066Y-115927176D01*
X101563490Y-115853726D01*
X101576752Y-115787049D01*
X102741998Y-115787049D01*
X102741998Y-115866551D01*
X102757508Y-115944526D01*
X102787932Y-116017976D01*
X102832101Y-116084080D01*
X102888318Y-116140297D01*
X102954422Y-116184466D01*
X103027872Y-116214890D01*
X103105847Y-116230400D01*
X103185349Y-116230400D01*
X103263324Y-116214890D01*
X103300802Y-116199366D01*
X103300802Y-116230151D01*
X103316312Y-116308126D01*
X103346736Y-116381576D01*
X103390905Y-116447680D01*
X103447122Y-116503897D01*
X103513226Y-116548066D01*
X103586676Y-116578490D01*
X103664651Y-116594000D01*
X103744153Y-116594000D01*
X103788673Y-116585145D01*
X103813753Y-116622680D01*
X103869970Y-116678897D01*
X103936074Y-116723066D01*
X104009524Y-116753490D01*
X104087499Y-116769000D01*
X104167001Y-116769000D01*
X104244976Y-116753490D01*
X104318426Y-116723066D01*
X104384530Y-116678897D01*
X104440747Y-116622680D01*
X104484916Y-116556576D01*
X104515340Y-116483126D01*
X104530850Y-116405151D01*
X104530850Y-116325649D01*
X104519712Y-116269649D01*
X106323400Y-116269649D01*
X106323400Y-116349151D01*
X106338910Y-116427126D01*
X106369334Y-116500576D01*
X106413503Y-116566680D01*
X106469720Y-116622897D01*
X106535824Y-116667066D01*
X106609274Y-116697490D01*
X106687249Y-116713000D01*
X106766751Y-116713000D01*
X106844726Y-116697490D01*
X106880268Y-116682768D01*
X106921503Y-116744480D01*
X106977720Y-116800697D01*
X107043824Y-116844866D01*
X107117274Y-116875290D01*
X107195249Y-116890800D01*
X107274751Y-116890800D01*
X107352726Y-116875290D01*
X107426176Y-116844866D01*
X107492280Y-116800697D01*
X107548497Y-116744480D01*
X107592666Y-116678376D01*
X107623090Y-116604926D01*
X107638600Y-116526951D01*
X107638600Y-116447449D01*
X107623090Y-116369474D01*
X107592666Y-116296024D01*
X107548497Y-116229920D01*
X107492280Y-116173703D01*
X107426176Y-116129534D01*
X107352726Y-116099110D01*
X107274751Y-116083600D01*
X107195249Y-116083600D01*
X107117274Y-116099110D01*
X107081732Y-116113832D01*
X107040497Y-116052120D01*
X106984280Y-115995903D01*
X106918176Y-115951734D01*
X106844726Y-115921310D01*
X106766751Y-115905800D01*
X106687249Y-115905800D01*
X106609274Y-115921310D01*
X106535824Y-115951734D01*
X106469720Y-115995903D01*
X106413503Y-116052120D01*
X106369334Y-116118224D01*
X106338910Y-116191674D01*
X106323400Y-116269649D01*
X104519712Y-116269649D01*
X104515340Y-116247674D01*
X104484916Y-116174224D01*
X104440747Y-116108120D01*
X104384530Y-116051903D01*
X104346550Y-116026526D01*
X104380918Y-116019690D01*
X104454368Y-115989266D01*
X104520472Y-115945097D01*
X104576689Y-115888880D01*
X104620858Y-115822776D01*
X104651282Y-115749326D01*
X104666792Y-115671351D01*
X104666792Y-115591849D01*
X104651282Y-115513874D01*
X104620858Y-115440424D01*
X104576689Y-115374320D01*
X104520472Y-115318103D01*
X104454368Y-115273934D01*
X104380918Y-115243510D01*
X104302943Y-115228000D01*
X104223441Y-115228000D01*
X104145466Y-115243510D01*
X104072016Y-115273934D01*
X104005912Y-115318103D01*
X103949695Y-115374320D01*
X103905526Y-115440424D01*
X103875102Y-115513874D01*
X103859592Y-115591849D01*
X103859592Y-115671351D01*
X103875102Y-115749326D01*
X103905526Y-115822776D01*
X103925570Y-115852774D01*
X103895578Y-115832734D01*
X103822128Y-115802310D01*
X103744153Y-115786800D01*
X103664651Y-115786800D01*
X103586676Y-115802310D01*
X103549198Y-115817834D01*
X103549198Y-115787049D01*
X103533688Y-115709074D01*
X103503264Y-115635624D01*
X103459095Y-115569520D01*
X103402878Y-115513303D01*
X103336774Y-115469134D01*
X103263324Y-115438710D01*
X103185349Y-115423200D01*
X103105847Y-115423200D01*
X103027872Y-115438710D01*
X102954422Y-115469134D01*
X102888318Y-115513303D01*
X102832101Y-115569520D01*
X102787932Y-115635624D01*
X102757508Y-115709074D01*
X102741998Y-115787049D01*
X101576752Y-115787049D01*
X101579000Y-115775751D01*
X101579000Y-115696249D01*
X101563490Y-115618274D01*
X101533066Y-115544824D01*
X101517198Y-115521076D01*
X101543224Y-115538466D01*
X101616674Y-115568890D01*
X101694649Y-115584400D01*
X101774151Y-115584400D01*
X101852126Y-115568890D01*
X101925576Y-115538466D01*
X101991680Y-115494297D01*
X102047897Y-115438080D01*
X102092066Y-115371976D01*
X102122490Y-115298526D01*
X102138000Y-115220551D01*
X102138000Y-115141049D01*
X102122490Y-115063074D01*
X102092066Y-114989624D01*
X102047897Y-114923520D01*
X101991680Y-114867303D01*
X101925576Y-114823134D01*
X101852126Y-114792710D01*
X101774151Y-114777200D01*
X101694649Y-114777200D01*
X101623934Y-114791266D01*
X101638000Y-114720551D01*
X101638000Y-114641049D01*
X101622490Y-114563074D01*
X101592066Y-114489624D01*
X101547897Y-114423520D01*
X101491680Y-114367303D01*
X101425576Y-114323134D01*
X101352126Y-114292710D01*
X101274151Y-114277200D01*
X101194649Y-114277200D01*
X101116674Y-114292710D01*
X101043224Y-114323134D01*
X100977120Y-114367303D01*
X100920903Y-114423520D01*
X100876734Y-114489624D01*
X100846310Y-114563074D01*
X100830800Y-114641049D01*
X100830800Y-114720551D01*
X100846310Y-114798526D01*
X100876734Y-114871976D01*
X100920903Y-114938080D01*
X100977120Y-114994297D01*
X101043224Y-115038466D01*
X101116674Y-115068890D01*
X101194649Y-115084400D01*
X101274151Y-115084400D01*
X101344866Y-115070334D01*
X101330800Y-115141049D01*
X101330800Y-115220551D01*
X101346310Y-115298526D01*
X101376734Y-115371976D01*
X101392602Y-115395724D01*
X101366576Y-115378334D01*
X101293126Y-115347910D01*
X101215151Y-115332400D01*
X101135649Y-115332400D01*
X101057674Y-115347910D01*
X100984224Y-115378334D01*
X100918120Y-115422503D01*
X100861903Y-115478720D01*
X100817734Y-115544824D01*
X100787310Y-115618274D01*
X100771800Y-115696249D01*
X100360026Y-115696249D01*
X100304080Y-115640303D01*
X100237976Y-115596134D01*
X100225423Y-115590934D01*
X100240728Y-115587890D01*
X100314178Y-115557466D01*
X100380282Y-115513297D01*
X100436499Y-115457080D01*
X100480668Y-115390976D01*
X100511092Y-115317526D01*
X100526602Y-115239551D01*
X100526602Y-115160049D01*
X100511092Y-115082074D01*
X100480668Y-115008624D01*
X100436499Y-114942520D01*
X100380282Y-114886303D01*
X100314178Y-114842134D01*
X100240728Y-114811710D01*
X100162753Y-114796200D01*
X100083251Y-114796200D01*
X100005276Y-114811710D01*
X99931826Y-114842134D01*
X99865722Y-114886303D01*
X99809505Y-114942520D01*
X99765336Y-115008624D01*
X99734912Y-115082074D01*
X99719402Y-115160049D01*
X99719402Y-115239551D01*
X99734912Y-115317526D01*
X99765336Y-115390976D01*
X99809505Y-115457080D01*
X99865722Y-115513297D01*
X99931826Y-115557466D01*
X99944379Y-115562666D01*
X99929074Y-115565710D01*
X99855624Y-115596134D01*
X99789520Y-115640303D01*
X99733303Y-115696520D01*
X99689134Y-115762624D01*
X99658710Y-115836074D01*
X99643200Y-115914049D01*
X99076200Y-115914049D01*
X99076200Y-114141049D01*
X101830800Y-114141049D01*
X101830800Y-114220551D01*
X101846310Y-114298526D01*
X101876734Y-114371976D01*
X101920903Y-114438080D01*
X101977120Y-114494297D01*
X102043224Y-114538466D01*
X102116674Y-114568890D01*
X102194649Y-114584400D01*
X102274151Y-114584400D01*
X102344866Y-114570334D01*
X102330800Y-114641049D01*
X102330800Y-114720551D01*
X102346310Y-114798526D01*
X102376734Y-114871976D01*
X102420903Y-114938080D01*
X102477120Y-114994297D01*
X102543224Y-115038466D01*
X102616674Y-115068890D01*
X102694649Y-115084400D01*
X102774151Y-115084400D01*
X102852126Y-115068890D01*
X102925576Y-115038466D01*
X102984400Y-114999161D01*
X103043224Y-115038466D01*
X103116674Y-115068890D01*
X103194649Y-115084400D01*
X103274151Y-115084400D01*
X103352126Y-115068890D01*
X103425576Y-115038466D01*
X103484400Y-114999161D01*
X103543224Y-115038466D01*
X103616674Y-115068890D01*
X103694649Y-115084400D01*
X103774151Y-115084400D01*
X103852126Y-115068890D01*
X103925576Y-115038466D01*
X103984400Y-114999161D01*
X104043224Y-115038466D01*
X104116674Y-115068890D01*
X104194649Y-115084400D01*
X104274151Y-115084400D01*
X104352126Y-115068890D01*
X104425576Y-115038466D01*
X104484400Y-114999161D01*
X104543224Y-115038466D01*
X104616674Y-115068890D01*
X104694649Y-115084400D01*
X104774151Y-115084400D01*
X104852126Y-115068890D01*
X104925576Y-115038466D01*
X104984400Y-114999161D01*
X105043224Y-115038466D01*
X105116674Y-115068890D01*
X105194649Y-115084400D01*
X105274151Y-115084400D01*
X105344866Y-115070334D01*
X105330800Y-115141049D01*
X105330800Y-115220551D01*
X105346310Y-115298526D01*
X105376734Y-115371976D01*
X105420903Y-115438080D01*
X105477120Y-115494297D01*
X105543224Y-115538466D01*
X105616674Y-115568890D01*
X105694649Y-115584400D01*
X105774151Y-115584400D01*
X105852126Y-115568890D01*
X105925576Y-115538466D01*
X105933683Y-115533049D01*
X107009200Y-115533049D01*
X107009200Y-115612551D01*
X107024710Y-115690526D01*
X107055134Y-115763976D01*
X107099303Y-115830080D01*
X107155520Y-115886297D01*
X107221624Y-115930466D01*
X107295074Y-115960890D01*
X107373049Y-115976400D01*
X107452551Y-115976400D01*
X107530526Y-115960890D01*
X107603976Y-115930466D01*
X107670080Y-115886297D01*
X107726297Y-115830080D01*
X107770466Y-115763976D01*
X107800890Y-115690526D01*
X107816400Y-115612551D01*
X107816400Y-115533049D01*
X107800890Y-115455074D01*
X107770466Y-115381624D01*
X107726297Y-115315520D01*
X107670080Y-115259303D01*
X107603976Y-115215134D01*
X107530526Y-115184710D01*
X107452551Y-115169200D01*
X107373049Y-115169200D01*
X107295074Y-115184710D01*
X107221624Y-115215134D01*
X107155520Y-115259303D01*
X107099303Y-115315520D01*
X107055134Y-115381624D01*
X107024710Y-115455074D01*
X107009200Y-115533049D01*
X105933683Y-115533049D01*
X105991680Y-115494297D01*
X106047897Y-115438080D01*
X106092066Y-115371976D01*
X106122490Y-115298526D01*
X106138000Y-115220551D01*
X106138000Y-115141049D01*
X106122490Y-115063074D01*
X106092066Y-114989624D01*
X106052761Y-114930800D01*
X106092066Y-114871976D01*
X106122490Y-114798526D01*
X106138000Y-114720551D01*
X106138000Y-114641049D01*
X106122490Y-114563074D01*
X106092066Y-114489624D01*
X106047897Y-114423520D01*
X105991680Y-114367303D01*
X105925576Y-114323134D01*
X105852126Y-114292710D01*
X105774151Y-114277200D01*
X105694649Y-114277200D01*
X105627581Y-114290540D01*
X105638000Y-114238161D01*
X105638000Y-114158659D01*
X105622490Y-114080684D01*
X105592066Y-114007234D01*
X105547897Y-113941130D01*
X105491680Y-113884913D01*
X105425576Y-113840744D01*
X105352126Y-113810320D01*
X105274151Y-113794810D01*
X105194649Y-113794810D01*
X105116674Y-113810320D01*
X105043224Y-113840744D01*
X104996405Y-113872028D01*
X104991680Y-113867303D01*
X104925576Y-113823134D01*
X104852126Y-113792710D01*
X104774151Y-113777200D01*
X104694649Y-113777200D01*
X104616674Y-113792710D01*
X104543224Y-113823134D01*
X104484400Y-113862439D01*
X104425576Y-113823134D01*
X104352126Y-113792710D01*
X104274151Y-113777200D01*
X104194649Y-113777200D01*
X104116674Y-113792710D01*
X104043224Y-113823134D01*
X103984400Y-113862439D01*
X103925576Y-113823134D01*
X103852126Y-113792710D01*
X103774151Y-113777200D01*
X103694649Y-113777200D01*
X103616674Y-113792710D01*
X103543224Y-113823134D01*
X103484400Y-113862439D01*
X103425576Y-113823134D01*
X103352126Y-113792710D01*
X103274151Y-113777200D01*
X103194649Y-113777200D01*
X103116674Y-113792710D01*
X103043224Y-113823134D01*
X102984400Y-113862439D01*
X102925576Y-113823134D01*
X102852126Y-113792710D01*
X102774151Y-113777200D01*
X102694649Y-113777200D01*
X102616674Y-113792710D01*
X102543224Y-113823134D01*
X102484400Y-113862439D01*
X102425576Y-113823134D01*
X102352126Y-113792710D01*
X102274151Y-113777200D01*
X102194649Y-113777200D01*
X102116674Y-113792710D01*
X102043224Y-113823134D01*
X101977120Y-113867303D01*
X101920903Y-113923520D01*
X101876734Y-113989624D01*
X101846310Y-114063074D01*
X101830800Y-114141049D01*
X99076200Y-114141049D01*
X99076200Y-113602649D01*
X100252800Y-113602649D01*
X100252800Y-113682151D01*
X100268310Y-113760126D01*
X100298734Y-113833576D01*
X100342903Y-113899680D01*
X100399120Y-113955897D01*
X100465224Y-114000066D01*
X100538674Y-114030490D01*
X100616649Y-114046000D01*
X100696151Y-114046000D01*
X100774126Y-114030490D01*
X100847576Y-114000066D01*
X100913680Y-113955897D01*
X100969897Y-113899680D01*
X101014066Y-113833576D01*
X101044490Y-113760126D01*
X101060000Y-113682151D01*
X101060000Y-113602649D01*
X101047593Y-113540276D01*
X101116674Y-113568890D01*
X101194649Y-113584400D01*
X101274151Y-113584400D01*
X101352126Y-113568890D01*
X101425576Y-113538466D01*
X101491680Y-113494297D01*
X101547897Y-113438080D01*
X101592066Y-113371976D01*
X101622490Y-113298526D01*
X101638000Y-113220551D01*
X101638000Y-113141049D01*
X101622490Y-113063074D01*
X101592066Y-112989624D01*
X101547897Y-112923520D01*
X101491680Y-112867303D01*
X101425576Y-112823134D01*
X101352126Y-112792710D01*
X101274151Y-112777200D01*
X101194649Y-112777200D01*
X101116674Y-112792710D01*
X101043224Y-112823134D01*
X100977120Y-112867303D01*
X100920903Y-112923520D01*
X100876734Y-112989624D01*
X100846310Y-113063074D01*
X100830800Y-113141049D01*
X100830800Y-113220551D01*
X100843207Y-113282924D01*
X100774126Y-113254310D01*
X100696151Y-113238800D01*
X100616649Y-113238800D01*
X100538674Y-113254310D01*
X100465224Y-113284734D01*
X100399120Y-113328903D01*
X100342903Y-113385120D01*
X100298734Y-113451224D01*
X100268310Y-113524674D01*
X100252800Y-113602649D01*
X99076200Y-113602649D01*
X99076200Y-112205649D01*
X99313000Y-112205649D01*
X99313000Y-112285151D01*
X99328510Y-112363126D01*
X99358934Y-112436576D01*
X99403103Y-112502680D01*
X99459320Y-112558897D01*
X99525424Y-112603066D01*
X99598874Y-112633490D01*
X99676849Y-112649000D01*
X99756351Y-112649000D01*
X99796323Y-112641049D01*
X105830800Y-112641049D01*
X105830800Y-112720551D01*
X105846310Y-112798526D01*
X105876734Y-112871976D01*
X105920903Y-112938080D01*
X105977120Y-112994297D01*
X106043224Y-113038466D01*
X106116674Y-113068890D01*
X106194649Y-113084400D01*
X106274151Y-113084400D01*
X106352126Y-113068890D01*
X106425576Y-113038466D01*
X106491680Y-112994297D01*
X106532928Y-112953049D01*
X106850200Y-112953049D01*
X106850200Y-113032551D01*
X106865710Y-113110526D01*
X106896134Y-113183976D01*
X106940303Y-113250080D01*
X106996520Y-113306297D01*
X107062624Y-113350466D01*
X107136074Y-113380890D01*
X107214049Y-113396400D01*
X107293551Y-113396400D01*
X107371526Y-113380890D01*
X107444976Y-113350466D01*
X107511080Y-113306297D01*
X107567297Y-113250080D01*
X107611466Y-113183976D01*
X107641890Y-113110526D01*
X107657400Y-113032551D01*
X107657400Y-112953049D01*
X107641890Y-112875074D01*
X107611466Y-112801624D01*
X107567297Y-112735520D01*
X107511080Y-112679303D01*
X107444976Y-112635134D01*
X107371526Y-112604710D01*
X107293551Y-112589200D01*
X107214049Y-112589200D01*
X107136074Y-112604710D01*
X107062624Y-112635134D01*
X106996520Y-112679303D01*
X106940303Y-112735520D01*
X106896134Y-112801624D01*
X106865710Y-112875074D01*
X106850200Y-112953049D01*
X106532928Y-112953049D01*
X106547897Y-112938080D01*
X106592066Y-112871976D01*
X106622490Y-112798526D01*
X106638000Y-112720551D01*
X106638000Y-112641049D01*
X106622490Y-112563074D01*
X106592066Y-112489624D01*
X106547897Y-112423520D01*
X106491680Y-112367303D01*
X106425576Y-112323134D01*
X106352126Y-112292710D01*
X106274151Y-112277200D01*
X106194649Y-112277200D01*
X106116674Y-112292710D01*
X106043224Y-112323134D01*
X105977120Y-112367303D01*
X105920903Y-112423520D01*
X105876734Y-112489624D01*
X105846310Y-112563074D01*
X105830800Y-112641049D01*
X99796323Y-112641049D01*
X99834326Y-112633490D01*
X99907776Y-112603066D01*
X99973880Y-112558897D01*
X100030097Y-112502680D01*
X100074266Y-112436576D01*
X100104690Y-112363126D01*
X100120200Y-112285151D01*
X100120200Y-112205649D01*
X100107351Y-112141049D01*
X101830800Y-112141049D01*
X101830800Y-112220551D01*
X101846310Y-112298526D01*
X101876734Y-112371976D01*
X101920903Y-112438080D01*
X101977120Y-112494297D01*
X102043224Y-112538466D01*
X102116674Y-112568890D01*
X102194649Y-112584400D01*
X102274151Y-112584400D01*
X102352126Y-112568890D01*
X102425576Y-112538466D01*
X102484400Y-112499161D01*
X102543224Y-112538466D01*
X102616674Y-112568890D01*
X102694649Y-112584400D01*
X102774151Y-112584400D01*
X102852126Y-112568890D01*
X102925576Y-112538466D01*
X102984400Y-112499161D01*
X103043224Y-112538466D01*
X103116674Y-112568890D01*
X103194649Y-112584400D01*
X103274151Y-112584400D01*
X103352126Y-112568890D01*
X103425576Y-112538466D01*
X103491680Y-112494297D01*
X103547897Y-112438080D01*
X103592066Y-112371976D01*
X103622490Y-112298526D01*
X103638000Y-112220551D01*
X103638000Y-112141049D01*
X103623934Y-112070334D01*
X103694649Y-112084400D01*
X103774151Y-112084400D01*
X103852126Y-112068890D01*
X103925576Y-112038466D01*
X103991680Y-111994297D01*
X104047897Y-111938080D01*
X104092066Y-111871976D01*
X104122490Y-111798526D01*
X104138000Y-111720551D01*
X104138000Y-111641049D01*
X104830800Y-111641049D01*
X104830800Y-111720551D01*
X104846310Y-111798526D01*
X104876734Y-111871976D01*
X104916039Y-111930800D01*
X104876734Y-111989624D01*
X104846310Y-112063074D01*
X104830800Y-112141049D01*
X104830800Y-112220551D01*
X104846310Y-112298526D01*
X104876734Y-112371976D01*
X104920903Y-112438080D01*
X104977120Y-112494297D01*
X105043224Y-112538466D01*
X105116674Y-112568890D01*
X105194649Y-112584400D01*
X105274151Y-112584400D01*
X105352126Y-112568890D01*
X105425576Y-112538466D01*
X105491680Y-112494297D01*
X105547897Y-112438080D01*
X105592066Y-112371976D01*
X105622490Y-112298526D01*
X105638000Y-112220551D01*
X105638000Y-112141049D01*
X105623934Y-112070334D01*
X105694649Y-112084400D01*
X105774151Y-112084400D01*
X105852126Y-112068890D01*
X105925576Y-112038466D01*
X105991680Y-111994297D01*
X106047897Y-111938080D01*
X106092066Y-111871976D01*
X106122490Y-111798526D01*
X106138000Y-111720551D01*
X106138000Y-111641049D01*
X106122490Y-111563074D01*
X106092066Y-111489624D01*
X106047897Y-111423520D01*
X105991680Y-111367303D01*
X105925576Y-111323134D01*
X105852126Y-111292710D01*
X105774151Y-111277200D01*
X105694649Y-111277200D01*
X105616674Y-111292710D01*
X105543224Y-111323134D01*
X105484400Y-111362439D01*
X105425576Y-111323134D01*
X105352126Y-111292710D01*
X105274151Y-111277200D01*
X105194649Y-111277200D01*
X105116674Y-111292710D01*
X105043224Y-111323134D01*
X104977120Y-111367303D01*
X104920903Y-111423520D01*
X104876734Y-111489624D01*
X104846310Y-111563074D01*
X104830800Y-111641049D01*
X104138000Y-111641049D01*
X104122490Y-111563074D01*
X104092066Y-111489624D01*
X104047897Y-111423520D01*
X103991680Y-111367303D01*
X103925576Y-111323134D01*
X103852126Y-111292710D01*
X103774151Y-111277200D01*
X103694649Y-111277200D01*
X103616674Y-111292710D01*
X103543224Y-111323134D01*
X103477120Y-111367303D01*
X103420903Y-111423520D01*
X103376734Y-111489624D01*
X103346310Y-111563074D01*
X103330800Y-111641049D01*
X103330800Y-111720551D01*
X103344866Y-111791266D01*
X103274151Y-111777200D01*
X103194649Y-111777200D01*
X103116674Y-111792710D01*
X103043224Y-111823134D01*
X102984400Y-111862439D01*
X102925576Y-111823134D01*
X102852126Y-111792710D01*
X102774151Y-111777200D01*
X102694649Y-111777200D01*
X102616674Y-111792710D01*
X102543224Y-111823134D01*
X102484400Y-111862439D01*
X102425576Y-111823134D01*
X102352126Y-111792710D01*
X102274151Y-111777200D01*
X102194649Y-111777200D01*
X102116674Y-111792710D01*
X102043224Y-111823134D01*
X101977120Y-111867303D01*
X101920903Y-111923520D01*
X101876734Y-111989624D01*
X101846310Y-112063074D01*
X101830800Y-112141049D01*
X100107351Y-112141049D01*
X100104690Y-112127674D01*
X100074266Y-112054224D01*
X100030097Y-111988120D01*
X99973880Y-111931903D01*
X99907776Y-111887734D01*
X99834326Y-111857310D01*
X99756351Y-111841800D01*
X99676849Y-111841800D01*
X99598874Y-111857310D01*
X99525424Y-111887734D01*
X99459320Y-111931903D01*
X99403103Y-111988120D01*
X99358934Y-112054224D01*
X99328510Y-112127674D01*
X99313000Y-112205649D01*
X99076200Y-112205649D01*
X99076200Y-110921049D01*
X99395800Y-110921049D01*
X99395800Y-111000551D01*
X99411310Y-111078526D01*
X99441734Y-111151976D01*
X99485903Y-111218080D01*
X99542120Y-111274297D01*
X99608224Y-111318466D01*
X99681674Y-111348890D01*
X99759649Y-111364400D01*
X99839151Y-111364400D01*
X99917126Y-111348890D01*
X99990576Y-111318466D01*
X100056680Y-111274297D01*
X100112897Y-111218080D01*
X100157066Y-111151976D01*
X100187490Y-111078526D01*
X100203000Y-111000551D01*
X100203000Y-110921049D01*
X100919800Y-110921049D01*
X100919800Y-111000551D01*
X100935310Y-111078526D01*
X100965734Y-111151976D01*
X101009903Y-111218080D01*
X101066120Y-111274297D01*
X101132224Y-111318466D01*
X101205674Y-111348890D01*
X101283649Y-111364400D01*
X101363151Y-111364400D01*
X101441126Y-111348890D01*
X101514576Y-111318466D01*
X101580680Y-111274297D01*
X101636897Y-111218080D01*
X101681066Y-111151976D01*
X101711490Y-111078526D01*
X101727000Y-111000551D01*
X101727000Y-110921049D01*
X101711490Y-110843074D01*
X101681066Y-110769624D01*
X101636897Y-110703520D01*
X101580680Y-110647303D01*
X101514576Y-110603134D01*
X101441126Y-110572710D01*
X101363151Y-110557200D01*
X101283649Y-110557200D01*
X101205674Y-110572710D01*
X101132224Y-110603134D01*
X101066120Y-110647303D01*
X101009903Y-110703520D01*
X100965734Y-110769624D01*
X100935310Y-110843074D01*
X100919800Y-110921049D01*
X100203000Y-110921049D01*
X100187490Y-110843074D01*
X100157066Y-110769624D01*
X100112897Y-110703520D01*
X100056680Y-110647303D01*
X99990576Y-110603134D01*
X99917126Y-110572710D01*
X99839151Y-110557200D01*
X99759649Y-110557200D01*
X99681674Y-110572710D01*
X99608224Y-110603134D01*
X99542120Y-110647303D01*
X99485903Y-110703520D01*
X99441734Y-110769624D01*
X99411310Y-110843074D01*
X99395800Y-110921049D01*
X99076200Y-110921049D01*
X99076200Y-110478449D01*
X102869000Y-110478449D01*
X102869000Y-110557951D01*
X102884510Y-110635926D01*
X102914934Y-110709376D01*
X102959103Y-110775480D01*
X103015320Y-110831697D01*
X103081424Y-110875866D01*
X103154874Y-110906290D01*
X103232849Y-110921800D01*
X103312351Y-110921800D01*
X103390326Y-110906290D01*
X103463776Y-110875866D01*
X103529880Y-110831697D01*
X103586097Y-110775480D01*
X103630266Y-110709376D01*
X103660690Y-110635926D01*
X103676200Y-110557951D01*
X103676200Y-110478449D01*
X103660690Y-110400474D01*
X103630266Y-110327024D01*
X103586097Y-110260920D01*
X103529880Y-110204703D01*
X103463776Y-110160534D01*
X103390326Y-110130110D01*
X103312351Y-110114600D01*
X103232849Y-110114600D01*
X103154874Y-110130110D01*
X103081424Y-110160534D01*
X103015320Y-110204703D01*
X102959103Y-110260920D01*
X102914934Y-110327024D01*
X102884510Y-110400474D01*
X102869000Y-110478449D01*
X99076200Y-110478449D01*
X99076200Y-109983652D01*
X99119024Y-110012266D01*
X99192474Y-110042690D01*
X99270449Y-110058200D01*
X99349951Y-110058200D01*
X99427926Y-110042690D01*
X99467111Y-110026459D01*
X101834200Y-110026459D01*
X101834200Y-110105961D01*
X101849710Y-110183936D01*
X101880134Y-110257386D01*
X101924303Y-110323490D01*
X101980520Y-110379707D01*
X102046624Y-110423876D01*
X102120074Y-110454300D01*
X102198049Y-110469810D01*
X102277551Y-110469810D01*
X102355526Y-110454300D01*
X102428976Y-110423876D01*
X102495080Y-110379707D01*
X102551297Y-110323490D01*
X102595466Y-110257386D01*
X102625890Y-110183936D01*
X102641400Y-110105961D01*
X102641400Y-110074511D01*
X107008800Y-110074511D01*
X107008800Y-110149089D01*
X107023349Y-110222234D01*
X107051889Y-110291134D01*
X107093322Y-110353144D01*
X107146056Y-110405878D01*
X107208066Y-110447311D01*
X107276966Y-110475851D01*
X107350111Y-110490400D01*
X107424689Y-110490400D01*
X107497834Y-110475851D01*
X107566734Y-110447311D01*
X107628744Y-110405878D01*
X107681478Y-110353144D01*
X107722911Y-110291134D01*
X107751451Y-110222234D01*
X107766000Y-110149089D01*
X107766000Y-110074511D01*
X107751451Y-110001366D01*
X107722911Y-109932466D01*
X107681478Y-109870456D01*
X107628744Y-109817722D01*
X107566734Y-109776289D01*
X107497834Y-109747749D01*
X107424689Y-109733200D01*
X107350111Y-109733200D01*
X107276966Y-109747749D01*
X107208066Y-109776289D01*
X107146056Y-109817722D01*
X107093322Y-109870456D01*
X107051889Y-109932466D01*
X107023349Y-110001366D01*
X107008800Y-110074511D01*
X102641400Y-110074511D01*
X102641400Y-110026459D01*
X102625890Y-109948484D01*
X102595466Y-109875034D01*
X102551297Y-109808930D01*
X102495080Y-109752713D01*
X102428976Y-109708544D01*
X102355526Y-109678120D01*
X102277551Y-109662610D01*
X102198049Y-109662610D01*
X102120074Y-109678120D01*
X102046624Y-109708544D01*
X101980520Y-109752713D01*
X101924303Y-109808930D01*
X101880134Y-109875034D01*
X101849710Y-109948484D01*
X101834200Y-110026459D01*
X99467111Y-110026459D01*
X99501376Y-110012266D01*
X99567480Y-109968097D01*
X99623697Y-109911880D01*
X99667866Y-109845776D01*
X99698290Y-109772326D01*
X99713800Y-109694351D01*
X99713800Y-109614849D01*
X99698290Y-109536874D01*
X99667866Y-109463424D01*
X99623697Y-109397320D01*
X99567480Y-109341103D01*
X99501376Y-109296934D01*
X99427926Y-109266510D01*
X99349951Y-109251000D01*
X99270449Y-109251000D01*
X99192474Y-109266510D01*
X99119024Y-109296934D01*
X99076200Y-109325548D01*
X99076200Y-108826200D01*
X107988146Y-108826200D01*
X107996444Y-108846740D01*
M02*
