G04 #@! TF.GenerationSoftware,KiCad,Pcbnew,(5.1.6)-1*
G04 #@! TF.CreationDate,2020-11-27T13:51:03-08:00*
G04 #@! TF.ProjectId,Miniscope-v4-Rigid-Flex,4d696e69-7363-46f7-9065-2d76342d5269,rev?*
G04 #@! TF.SameCoordinates,Original*
G04 #@! TF.FileFunction,Paste,Bot*
G04 #@! TF.FilePolarity,Positive*
%FSLAX46Y46*%
G04 Gerber Fmt 4.6, Leading zero omitted, Abs format (unit mm)*
G04 Created by KiCad (PCBNEW (5.1.6)-1) date 2020-11-27 13:51:03*
%MOMM*%
%LPD*%
G01*
G04 APERTURE LIST*
%ADD10R,0.450000X1.500000*%
%ADD11R,0.870000X2.620000*%
%ADD12R,0.270000X0.740000*%
%ADD13R,0.270000X0.820000*%
%ADD14R,0.270800X0.450800*%
%ADD15R,0.370800X0.450800*%
%ADD16R,0.450800X0.270800*%
%ADD17C,0.250000*%
%ADD18R,1.350000X1.350000*%
%ADD19R,0.260000X0.680000*%
%ADD20R,0.680000X0.260000*%
%ADD21R,0.540000X1.060000*%
G04 APERTURE END LIST*
D10*
X103400000Y-99750000D03*
X104100000Y-99750000D03*
G36*
G01*
X114811200Y-116945500D02*
X114811200Y-117130500D01*
G75*
G02*
X114733700Y-117208000I-77500J0D01*
G01*
X114578700Y-117208000D01*
G75*
G02*
X114501200Y-117130500I0J77500D01*
G01*
X114501200Y-116945500D01*
G75*
G02*
X114578700Y-116868000I77500J0D01*
G01*
X114733700Y-116868000D01*
G75*
G02*
X114811200Y-116945500I0J-77500D01*
G01*
G37*
G36*
G01*
X115361200Y-116945500D02*
X115361200Y-117130500D01*
G75*
G02*
X115283700Y-117208000I-77500J0D01*
G01*
X115128700Y-117208000D01*
G75*
G02*
X115051200Y-117130500I0J77500D01*
G01*
X115051200Y-116945500D01*
G75*
G02*
X115128700Y-116868000I77500J0D01*
G01*
X115283700Y-116868000D01*
G75*
G02*
X115361200Y-116945500I0J-77500D01*
G01*
G37*
G36*
G01*
X116295800Y-117130500D02*
X116295800Y-116945500D01*
G75*
G02*
X116373300Y-116868000I77500J0D01*
G01*
X116528300Y-116868000D01*
G75*
G02*
X116605800Y-116945500I0J-77500D01*
G01*
X116605800Y-117130500D01*
G75*
G02*
X116528300Y-117208000I-77500J0D01*
G01*
X116373300Y-117208000D01*
G75*
G02*
X116295800Y-117130500I0J77500D01*
G01*
G37*
G36*
G01*
X115745800Y-117130500D02*
X115745800Y-116945500D01*
G75*
G02*
X115823300Y-116868000I77500J0D01*
G01*
X115978300Y-116868000D01*
G75*
G02*
X116055800Y-116945500I0J-77500D01*
G01*
X116055800Y-117130500D01*
G75*
G02*
X115978300Y-117208000I-77500J0D01*
G01*
X115823300Y-117208000D01*
G75*
G02*
X115745800Y-117130500I0J77500D01*
G01*
G37*
G36*
G01*
X101567800Y-128501700D02*
X101567800Y-128316700D01*
G75*
G02*
X101645300Y-128239200I77500J0D01*
G01*
X101800300Y-128239200D01*
G75*
G02*
X101877800Y-128316700I0J-77500D01*
G01*
X101877800Y-128501700D01*
G75*
G02*
X101800300Y-128579200I-77500J0D01*
G01*
X101645300Y-128579200D01*
G75*
G02*
X101567800Y-128501700I0J77500D01*
G01*
G37*
G36*
G01*
X101017800Y-128501700D02*
X101017800Y-128316700D01*
G75*
G02*
X101095300Y-128239200I77500J0D01*
G01*
X101250300Y-128239200D01*
G75*
G02*
X101327800Y-128316700I0J-77500D01*
G01*
X101327800Y-128501700D01*
G75*
G02*
X101250300Y-128579200I-77500J0D01*
G01*
X101095300Y-128579200D01*
G75*
G02*
X101017800Y-128501700I0J77500D01*
G01*
G37*
G36*
G01*
X102228200Y-129009700D02*
X102228200Y-128824700D01*
G75*
G02*
X102305700Y-128747200I77500J0D01*
G01*
X102460700Y-128747200D01*
G75*
G02*
X102538200Y-128824700I0J-77500D01*
G01*
X102538200Y-129009700D01*
G75*
G02*
X102460700Y-129087200I-77500J0D01*
G01*
X102305700Y-129087200D01*
G75*
G02*
X102228200Y-129009700I0J77500D01*
G01*
G37*
G36*
G01*
X101678200Y-129009700D02*
X101678200Y-128824700D01*
G75*
G02*
X101755700Y-128747200I77500J0D01*
G01*
X101910700Y-128747200D01*
G75*
G02*
X101988200Y-128824700I0J-77500D01*
G01*
X101988200Y-129009700D01*
G75*
G02*
X101910700Y-129087200I-77500J0D01*
G01*
X101755700Y-129087200D01*
G75*
G02*
X101678200Y-129009700I0J77500D01*
G01*
G37*
G36*
G01*
X101327800Y-127757900D02*
X101327800Y-127942900D01*
G75*
G02*
X101250300Y-128020400I-77500J0D01*
G01*
X101095300Y-128020400D01*
G75*
G02*
X101017800Y-127942900I0J77500D01*
G01*
X101017800Y-127757900D01*
G75*
G02*
X101095300Y-127680400I77500J0D01*
G01*
X101250300Y-127680400D01*
G75*
G02*
X101327800Y-127757900I0J-77500D01*
G01*
G37*
G36*
G01*
X101877800Y-127757900D02*
X101877800Y-127942900D01*
G75*
G02*
X101800300Y-128020400I-77500J0D01*
G01*
X101645300Y-128020400D01*
G75*
G02*
X101567800Y-127942900I0J77500D01*
G01*
X101567800Y-127757900D01*
G75*
G02*
X101645300Y-127680400I77500J0D01*
G01*
X101800300Y-127680400D01*
G75*
G02*
X101877800Y-127757900I0J-77500D01*
G01*
G37*
G36*
G01*
X110961800Y-126401500D02*
X110961800Y-126216500D01*
G75*
G02*
X111039300Y-126139000I77500J0D01*
G01*
X111194300Y-126139000D01*
G75*
G02*
X111271800Y-126216500I0J-77500D01*
G01*
X111271800Y-126401500D01*
G75*
G02*
X111194300Y-126479000I-77500J0D01*
G01*
X111039300Y-126479000D01*
G75*
G02*
X110961800Y-126401500I0J77500D01*
G01*
G37*
G36*
G01*
X110411800Y-126401500D02*
X110411800Y-126216500D01*
G75*
G02*
X110489300Y-126139000I77500J0D01*
G01*
X110644300Y-126139000D01*
G75*
G02*
X110721800Y-126216500I0J-77500D01*
G01*
X110721800Y-126401500D01*
G75*
G02*
X110644300Y-126479000I-77500J0D01*
G01*
X110489300Y-126479000D01*
G75*
G02*
X110411800Y-126401500I0J77500D01*
G01*
G37*
G36*
G01*
X107423800Y-124481300D02*
X107423800Y-124666300D01*
G75*
G02*
X107346300Y-124743800I-77500J0D01*
G01*
X107191300Y-124743800D01*
G75*
G02*
X107113800Y-124666300I0J77500D01*
G01*
X107113800Y-124481300D01*
G75*
G02*
X107191300Y-124403800I77500J0D01*
G01*
X107346300Y-124403800D01*
G75*
G02*
X107423800Y-124481300I0J-77500D01*
G01*
G37*
G36*
G01*
X107973800Y-124481300D02*
X107973800Y-124666300D01*
G75*
G02*
X107896300Y-124743800I-77500J0D01*
G01*
X107741300Y-124743800D01*
G75*
G02*
X107663800Y-124666300I0J77500D01*
G01*
X107663800Y-124481300D01*
G75*
G02*
X107741300Y-124403800I77500J0D01*
G01*
X107896300Y-124403800D01*
G75*
G02*
X107973800Y-124481300I0J-77500D01*
G01*
G37*
D11*
X108330200Y-128061600D03*
X111380200Y-128061600D03*
G36*
G01*
X106438400Y-127540300D02*
X106438400Y-127195300D01*
G75*
G02*
X106585900Y-127047800I147500J0D01*
G01*
X106880900Y-127047800D01*
G75*
G02*
X107028400Y-127195300I0J-147500D01*
G01*
X107028400Y-127540300D01*
G75*
G02*
X106880900Y-127687800I-147500J0D01*
G01*
X106585900Y-127687800D01*
G75*
G02*
X106438400Y-127540300I0J147500D01*
G01*
G37*
G36*
G01*
X105468400Y-127540300D02*
X105468400Y-127195300D01*
G75*
G02*
X105615900Y-127047800I147500J0D01*
G01*
X105910900Y-127047800D01*
G75*
G02*
X106058400Y-127195300I0J-147500D01*
G01*
X106058400Y-127540300D01*
G75*
G02*
X105910900Y-127687800I-147500J0D01*
G01*
X105615900Y-127687800D01*
G75*
G02*
X105468400Y-127540300I0J147500D01*
G01*
G37*
G36*
G01*
X102629400Y-127195300D02*
X102629400Y-127540300D01*
G75*
G02*
X102481900Y-127687800I-147500J0D01*
G01*
X102186900Y-127687800D01*
G75*
G02*
X102039400Y-127540300I0J147500D01*
G01*
X102039400Y-127195300D01*
G75*
G02*
X102186900Y-127047800I147500J0D01*
G01*
X102481900Y-127047800D01*
G75*
G02*
X102629400Y-127195300I0J-147500D01*
G01*
G37*
G36*
G01*
X103599400Y-127195300D02*
X103599400Y-127540300D01*
G75*
G02*
X103451900Y-127687800I-147500J0D01*
G01*
X103156900Y-127687800D01*
G75*
G02*
X103009400Y-127540300I0J147500D01*
G01*
X103009400Y-127195300D01*
G75*
G02*
X103156900Y-127047800I147500J0D01*
G01*
X103451900Y-127047800D01*
G75*
G02*
X103599400Y-127195300I0J-147500D01*
G01*
G37*
D12*
X111523600Y-124475600D03*
X111023600Y-124475600D03*
X110523600Y-124475600D03*
X110523600Y-125535600D03*
X111023600Y-125535600D03*
D13*
X111523600Y-125495600D03*
G36*
G01*
X106204600Y-124963900D02*
X106204600Y-125148900D01*
G75*
G02*
X106127100Y-125226400I-77500J0D01*
G01*
X105972100Y-125226400D01*
G75*
G02*
X105894600Y-125148900I0J77500D01*
G01*
X105894600Y-124963900D01*
G75*
G02*
X105972100Y-124886400I77500J0D01*
G01*
X106127100Y-124886400D01*
G75*
G02*
X106204600Y-124963900I0J-77500D01*
G01*
G37*
G36*
G01*
X106754600Y-124963900D02*
X106754600Y-125148900D01*
G75*
G02*
X106677100Y-125226400I-77500J0D01*
G01*
X106522100Y-125226400D01*
G75*
G02*
X106444600Y-125148900I0J77500D01*
G01*
X106444600Y-124963900D01*
G75*
G02*
X106522100Y-124886400I77500J0D01*
G01*
X106677100Y-124886400D01*
G75*
G02*
X106754600Y-124963900I0J-77500D01*
G01*
G37*
G36*
G01*
X105911200Y-129543100D02*
X105911200Y-129358100D01*
G75*
G02*
X105988700Y-129280600I77500J0D01*
G01*
X106143700Y-129280600D01*
G75*
G02*
X106221200Y-129358100I0J-77500D01*
G01*
X106221200Y-129543100D01*
G75*
G02*
X106143700Y-129620600I-77500J0D01*
G01*
X105988700Y-129620600D01*
G75*
G02*
X105911200Y-129543100I0J77500D01*
G01*
G37*
G36*
G01*
X105361200Y-129543100D02*
X105361200Y-129358100D01*
G75*
G02*
X105438700Y-129280600I77500J0D01*
G01*
X105593700Y-129280600D01*
G75*
G02*
X105671200Y-129358100I0J-77500D01*
G01*
X105671200Y-129543100D01*
G75*
G02*
X105593700Y-129620600I-77500J0D01*
G01*
X105438700Y-129620600D01*
G75*
G02*
X105361200Y-129543100I0J77500D01*
G01*
G37*
G36*
G01*
X105377800Y-124564700D02*
X105377800Y-124379700D01*
G75*
G02*
X105455300Y-124302200I77500J0D01*
G01*
X105610300Y-124302200D01*
G75*
G02*
X105687800Y-124379700I0J-77500D01*
G01*
X105687800Y-124564700D01*
G75*
G02*
X105610300Y-124642200I-77500J0D01*
G01*
X105455300Y-124642200D01*
G75*
G02*
X105377800Y-124564700I0J77500D01*
G01*
G37*
G36*
G01*
X104827800Y-124564700D02*
X104827800Y-124379700D01*
G75*
G02*
X104905300Y-124302200I77500J0D01*
G01*
X105060300Y-124302200D01*
G75*
G02*
X105137800Y-124379700I0J-77500D01*
G01*
X105137800Y-124564700D01*
G75*
G02*
X105060300Y-124642200I-77500J0D01*
G01*
X104905300Y-124642200D01*
G75*
G02*
X104827800Y-124564700I0J77500D01*
G01*
G37*
G36*
G01*
X110705600Y-130062900D02*
X110705600Y-129717900D01*
G75*
G02*
X110853100Y-129570400I147500J0D01*
G01*
X111148100Y-129570400D01*
G75*
G02*
X111295600Y-129717900I0J-147500D01*
G01*
X111295600Y-130062900D01*
G75*
G02*
X111148100Y-130210400I-147500J0D01*
G01*
X110853100Y-130210400D01*
G75*
G02*
X110705600Y-130062900I0J147500D01*
G01*
G37*
G36*
G01*
X109735600Y-130062900D02*
X109735600Y-129717900D01*
G75*
G02*
X109883100Y-129570400I147500J0D01*
G01*
X110178100Y-129570400D01*
G75*
G02*
X110325600Y-129717900I0J-147500D01*
G01*
X110325600Y-130062900D01*
G75*
G02*
X110178100Y-130210400I-147500J0D01*
G01*
X109883100Y-130210400D01*
G75*
G02*
X109735600Y-130062900I0J147500D01*
G01*
G37*
G36*
G01*
X105377800Y-125148900D02*
X105377800Y-124963900D01*
G75*
G02*
X105455300Y-124886400I77500J0D01*
G01*
X105610300Y-124886400D01*
G75*
G02*
X105687800Y-124963900I0J-77500D01*
G01*
X105687800Y-125148900D01*
G75*
G02*
X105610300Y-125226400I-77500J0D01*
G01*
X105455300Y-125226400D01*
G75*
G02*
X105377800Y-125148900I0J77500D01*
G01*
G37*
G36*
G01*
X104827800Y-125148900D02*
X104827800Y-124963900D01*
G75*
G02*
X104905300Y-124886400I77500J0D01*
G01*
X105060300Y-124886400D01*
G75*
G02*
X105137800Y-124963900I0J-77500D01*
G01*
X105137800Y-125148900D01*
G75*
G02*
X105060300Y-125226400I-77500J0D01*
G01*
X104905300Y-125226400D01*
G75*
G02*
X104827800Y-125148900I0J77500D01*
G01*
G37*
G36*
G01*
X106204600Y-124379700D02*
X106204600Y-124564700D01*
G75*
G02*
X106127100Y-124642200I-77500J0D01*
G01*
X105972100Y-124642200D01*
G75*
G02*
X105894600Y-124564700I0J77500D01*
G01*
X105894600Y-124379700D01*
G75*
G02*
X105972100Y-124302200I77500J0D01*
G01*
X106127100Y-124302200D01*
G75*
G02*
X106204600Y-124379700I0J-77500D01*
G01*
G37*
G36*
G01*
X106754600Y-124379700D02*
X106754600Y-124564700D01*
G75*
G02*
X106677100Y-124642200I-77500J0D01*
G01*
X106522100Y-124642200D01*
G75*
G02*
X106444600Y-124564700I0J77500D01*
G01*
X106444600Y-124379700D01*
G75*
G02*
X106522100Y-124302200I77500J0D01*
G01*
X106677100Y-124302200D01*
G75*
G02*
X106754600Y-124379700I0J-77500D01*
G01*
G37*
G36*
G01*
X101402100Y-124736000D02*
X101587100Y-124736000D01*
G75*
G02*
X101664600Y-124813500I0J-77500D01*
G01*
X101664600Y-124968500D01*
G75*
G02*
X101587100Y-125046000I-77500J0D01*
G01*
X101402100Y-125046000D01*
G75*
G02*
X101324600Y-124968500I0J77500D01*
G01*
X101324600Y-124813500D01*
G75*
G02*
X101402100Y-124736000I77500J0D01*
G01*
G37*
G36*
G01*
X101402100Y-125286000D02*
X101587100Y-125286000D01*
G75*
G02*
X101664600Y-125363500I0J-77500D01*
G01*
X101664600Y-125518500D01*
G75*
G02*
X101587100Y-125596000I-77500J0D01*
G01*
X101402100Y-125596000D01*
G75*
G02*
X101324600Y-125518500I0J77500D01*
G01*
X101324600Y-125363500D01*
G75*
G02*
X101402100Y-125286000I77500J0D01*
G01*
G37*
D14*
X102975800Y-124531000D03*
X103475800Y-124531000D03*
X103975800Y-124531000D03*
D15*
X104025800Y-125731000D03*
D14*
X102975800Y-125731000D03*
X103475800Y-125731000D03*
D16*
X102875800Y-125131000D03*
X104075800Y-125131000D03*
G36*
G01*
X100817900Y-124736000D02*
X101002900Y-124736000D01*
G75*
G02*
X101080400Y-124813500I0J-77500D01*
G01*
X101080400Y-124968500D01*
G75*
G02*
X101002900Y-125046000I-77500J0D01*
G01*
X100817900Y-125046000D01*
G75*
G02*
X100740400Y-124968500I0J77500D01*
G01*
X100740400Y-124813500D01*
G75*
G02*
X100817900Y-124736000I77500J0D01*
G01*
G37*
G36*
G01*
X100817900Y-125286000D02*
X101002900Y-125286000D01*
G75*
G02*
X101080400Y-125363500I0J-77500D01*
G01*
X101080400Y-125518500D01*
G75*
G02*
X101002900Y-125596000I-77500J0D01*
G01*
X100817900Y-125596000D01*
G75*
G02*
X100740400Y-125518500I0J77500D01*
G01*
X100740400Y-125363500D01*
G75*
G02*
X100817900Y-125286000I77500J0D01*
G01*
G37*
G36*
G01*
X114279900Y-113110000D02*
X114464900Y-113110000D01*
G75*
G02*
X114542400Y-113187500I0J-77500D01*
G01*
X114542400Y-113342500D01*
G75*
G02*
X114464900Y-113420000I-77500J0D01*
G01*
X114279900Y-113420000D01*
G75*
G02*
X114202400Y-113342500I0J77500D01*
G01*
X114202400Y-113187500D01*
G75*
G02*
X114279900Y-113110000I77500J0D01*
G01*
G37*
G36*
G01*
X114279900Y-112560000D02*
X114464900Y-112560000D01*
G75*
G02*
X114542400Y-112637500I0J-77500D01*
G01*
X114542400Y-112792500D01*
G75*
G02*
X114464900Y-112870000I-77500J0D01*
G01*
X114279900Y-112870000D01*
G75*
G02*
X114202400Y-112792500I0J77500D01*
G01*
X114202400Y-112637500D01*
G75*
G02*
X114279900Y-112560000I77500J0D01*
G01*
G37*
G36*
G01*
X114187400Y-114570200D02*
X114527400Y-114570200D01*
G75*
G02*
X114672400Y-114715200I0J-145000D01*
G01*
X114672400Y-115005200D01*
G75*
G02*
X114527400Y-115150200I-145000J0D01*
G01*
X114187400Y-115150200D01*
G75*
G02*
X114042400Y-115005200I0J145000D01*
G01*
X114042400Y-114715200D01*
G75*
G02*
X114187400Y-114570200I145000J0D01*
G01*
G37*
G36*
G01*
X114187400Y-113680200D02*
X114527400Y-113680200D01*
G75*
G02*
X114672400Y-113825200I0J-145000D01*
G01*
X114672400Y-114115200D01*
G75*
G02*
X114527400Y-114260200I-145000J0D01*
G01*
X114187400Y-114260200D01*
G75*
G02*
X114042400Y-114115200I0J145000D01*
G01*
X114042400Y-113825200D01*
G75*
G02*
X114187400Y-113680200I145000J0D01*
G01*
G37*
D17*
X106234400Y-111680800D03*
X105734400Y-111680800D03*
X105234400Y-111680800D03*
X104734400Y-111680800D03*
X104234400Y-111680800D03*
X103734400Y-111680800D03*
X103234400Y-111680800D03*
X102734400Y-111680800D03*
X102234400Y-111680800D03*
X101734400Y-111680800D03*
X101234400Y-111680800D03*
X106234400Y-112180800D03*
X105734400Y-112180800D03*
X105234400Y-112180800D03*
X104734400Y-112180800D03*
X104234400Y-112180800D03*
X103734400Y-112180800D03*
X103234400Y-112180800D03*
X102734400Y-112180800D03*
X102234400Y-112180800D03*
X101734400Y-112180800D03*
X101234400Y-112180800D03*
X106234400Y-112680800D03*
X105734400Y-112680800D03*
X101734400Y-112680800D03*
X101234400Y-112680800D03*
X106234400Y-113180800D03*
X105734400Y-113180800D03*
X101734400Y-113180800D03*
X101234400Y-113180800D03*
X106234400Y-113680800D03*
X105734400Y-113680800D03*
X101734400Y-113680800D03*
X101234400Y-113680800D03*
X106234400Y-114180800D03*
X105734400Y-114180800D03*
X105234400Y-114180800D03*
X104734400Y-114180800D03*
X104234400Y-114180800D03*
X103734400Y-114180800D03*
X103234400Y-114180800D03*
X102734400Y-114180800D03*
X102234400Y-114180800D03*
X101734400Y-114180800D03*
X101234400Y-114180800D03*
X106234400Y-114680800D03*
X105734400Y-114680800D03*
X105234400Y-114680800D03*
X104734400Y-114680800D03*
X104234400Y-114680800D03*
X103734400Y-114680800D03*
X103234400Y-114680800D03*
X102734400Y-114680800D03*
X102234400Y-114680800D03*
X101734400Y-114680800D03*
X101234400Y-114680800D03*
X106234400Y-115180800D03*
X105734400Y-115180800D03*
X105234400Y-115180800D03*
X104734400Y-115180800D03*
X104234400Y-115180800D03*
X103734400Y-115180800D03*
X103234400Y-115180800D03*
X102734400Y-115180800D03*
X102234400Y-115180800D03*
X101734400Y-115180800D03*
X101234400Y-115180800D03*
D18*
X118459800Y-114402800D03*
X116909800Y-114402800D03*
X118459800Y-112852800D03*
X116909800Y-112852800D03*
D19*
X115934800Y-115962800D03*
X116434800Y-115962800D03*
X116934800Y-115962800D03*
X117434800Y-115962800D03*
X117934800Y-115962800D03*
X118434800Y-115962800D03*
X118934800Y-115962800D03*
X119434800Y-115962800D03*
D20*
X120019800Y-115377800D03*
X120019800Y-114877800D03*
X120019800Y-114377800D03*
X120019800Y-113877800D03*
X120019800Y-113377800D03*
X120019800Y-112877800D03*
X120019800Y-112377800D03*
X120019800Y-111877800D03*
D19*
X119434800Y-111292800D03*
X118934800Y-111292800D03*
X118434800Y-111292800D03*
X117934800Y-111292800D03*
X117434800Y-111292800D03*
X116934800Y-111292800D03*
X116434800Y-111292800D03*
X115934800Y-111292800D03*
D20*
X115349800Y-111877800D03*
X115349800Y-112377800D03*
X115349800Y-112877800D03*
X115349800Y-113377800D03*
X115349800Y-113877800D03*
X115349800Y-114377800D03*
X115349800Y-114877800D03*
X115349800Y-115377800D03*
G36*
G01*
X102715200Y-128036000D02*
X102715200Y-128376000D01*
G75*
G02*
X102570200Y-128521000I-145000J0D01*
G01*
X102280200Y-128521000D01*
G75*
G02*
X102135200Y-128376000I0J145000D01*
G01*
X102135200Y-128036000D01*
G75*
G02*
X102280200Y-127891000I145000J0D01*
G01*
X102570200Y-127891000D01*
G75*
G02*
X102715200Y-128036000I0J-145000D01*
G01*
G37*
G36*
G01*
X103605200Y-128036000D02*
X103605200Y-128376000D01*
G75*
G02*
X103460200Y-128521000I-145000J0D01*
G01*
X103170200Y-128521000D01*
G75*
G02*
X103025200Y-128376000I0J145000D01*
G01*
X103025200Y-128036000D01*
G75*
G02*
X103170200Y-127891000I145000J0D01*
G01*
X103460200Y-127891000D01*
G75*
G02*
X103605200Y-128036000I0J-145000D01*
G01*
G37*
G36*
G01*
X104412600Y-128984300D02*
X104412600Y-128799300D01*
G75*
G02*
X104490100Y-128721800I77500J0D01*
G01*
X104645100Y-128721800D01*
G75*
G02*
X104722600Y-128799300I0J-77500D01*
G01*
X104722600Y-128984300D01*
G75*
G02*
X104645100Y-129061800I-77500J0D01*
G01*
X104490100Y-129061800D01*
G75*
G02*
X104412600Y-128984300I0J77500D01*
G01*
G37*
G36*
G01*
X103862600Y-128984300D02*
X103862600Y-128799300D01*
G75*
G02*
X103940100Y-128721800I77500J0D01*
G01*
X104095100Y-128721800D01*
G75*
G02*
X104172600Y-128799300I0J-77500D01*
G01*
X104172600Y-128984300D01*
G75*
G02*
X104095100Y-129061800I-77500J0D01*
G01*
X103940100Y-129061800D01*
G75*
G02*
X103862600Y-128984300I0J77500D01*
G01*
G37*
G36*
G01*
X104412600Y-129543100D02*
X104412600Y-129358100D01*
G75*
G02*
X104490100Y-129280600I77500J0D01*
G01*
X104645100Y-129280600D01*
G75*
G02*
X104722600Y-129358100I0J-77500D01*
G01*
X104722600Y-129543100D01*
G75*
G02*
X104645100Y-129620600I-77500J0D01*
G01*
X104490100Y-129620600D01*
G75*
G02*
X104412600Y-129543100I0J77500D01*
G01*
G37*
G36*
G01*
X103862600Y-129543100D02*
X103862600Y-129358100D01*
G75*
G02*
X103940100Y-129280600I77500J0D01*
G01*
X104095100Y-129280600D01*
G75*
G02*
X104172600Y-129358100I0J-77500D01*
G01*
X104172600Y-129543100D01*
G75*
G02*
X104095100Y-129620600I-77500J0D01*
G01*
X103940100Y-129620600D01*
G75*
G02*
X103862600Y-129543100I0J77500D01*
G01*
G37*
G36*
G01*
X103080400Y-128824700D02*
X103080400Y-129009700D01*
G75*
G02*
X103002900Y-129087200I-77500J0D01*
G01*
X102847900Y-129087200D01*
G75*
G02*
X102770400Y-129009700I0J77500D01*
G01*
X102770400Y-128824700D01*
G75*
G02*
X102847900Y-128747200I77500J0D01*
G01*
X103002900Y-128747200D01*
G75*
G02*
X103080400Y-128824700I0J-77500D01*
G01*
G37*
G36*
G01*
X103630400Y-128824700D02*
X103630400Y-129009700D01*
G75*
G02*
X103552900Y-129087200I-77500J0D01*
G01*
X103397900Y-129087200D01*
G75*
G02*
X103320400Y-129009700I0J77500D01*
G01*
X103320400Y-128824700D01*
G75*
G02*
X103397900Y-128747200I77500J0D01*
G01*
X103552900Y-128747200D01*
G75*
G02*
X103630400Y-128824700I0J-77500D01*
G01*
G37*
G36*
G01*
X103080400Y-129358100D02*
X103080400Y-129543100D01*
G75*
G02*
X103002900Y-129620600I-77500J0D01*
G01*
X102847900Y-129620600D01*
G75*
G02*
X102770400Y-129543100I0J77500D01*
G01*
X102770400Y-129358100D01*
G75*
G02*
X102847900Y-129280600I77500J0D01*
G01*
X103002900Y-129280600D01*
G75*
G02*
X103080400Y-129358100I0J-77500D01*
G01*
G37*
G36*
G01*
X103630400Y-129358100D02*
X103630400Y-129543100D01*
G75*
G02*
X103552900Y-129620600I-77500J0D01*
G01*
X103397900Y-129620600D01*
G75*
G02*
X103320400Y-129543100I0J77500D01*
G01*
X103320400Y-129358100D01*
G75*
G02*
X103397900Y-129280600I77500J0D01*
G01*
X103552900Y-129280600D01*
G75*
G02*
X103630400Y-129358100I0J-77500D01*
G01*
G37*
G36*
G01*
X108455600Y-126004000D02*
X108455600Y-126344000D01*
G75*
G02*
X108310600Y-126489000I-145000J0D01*
G01*
X108020600Y-126489000D01*
G75*
G02*
X107875600Y-126344000I0J145000D01*
G01*
X107875600Y-126004000D01*
G75*
G02*
X108020600Y-125859000I145000J0D01*
G01*
X108310600Y-125859000D01*
G75*
G02*
X108455600Y-126004000I0J-145000D01*
G01*
G37*
G36*
G01*
X109345600Y-126004000D02*
X109345600Y-126344000D01*
G75*
G02*
X109200600Y-126489000I-145000J0D01*
G01*
X108910600Y-126489000D01*
G75*
G02*
X108765600Y-126344000I0J145000D01*
G01*
X108765600Y-126004000D01*
G75*
G02*
X108910600Y-125859000I145000J0D01*
G01*
X109200600Y-125859000D01*
G75*
G02*
X109345600Y-126004000I0J-145000D01*
G01*
G37*
G36*
G01*
X108455600Y-125140400D02*
X108455600Y-125480400D01*
G75*
G02*
X108310600Y-125625400I-145000J0D01*
G01*
X108020600Y-125625400D01*
G75*
G02*
X107875600Y-125480400I0J145000D01*
G01*
X107875600Y-125140400D01*
G75*
G02*
X108020600Y-124995400I145000J0D01*
G01*
X108310600Y-124995400D01*
G75*
G02*
X108455600Y-125140400I0J-145000D01*
G01*
G37*
G36*
G01*
X109345600Y-125140400D02*
X109345600Y-125480400D01*
G75*
G02*
X109200600Y-125625400I-145000J0D01*
G01*
X108910600Y-125625400D01*
G75*
G02*
X108765600Y-125480400I0J145000D01*
G01*
X108765600Y-125140400D01*
G75*
G02*
X108910600Y-124995400I145000J0D01*
G01*
X109200600Y-124995400D01*
G75*
G02*
X109345600Y-125140400I0J-145000D01*
G01*
G37*
G36*
G01*
X106378000Y-128376000D02*
X106378000Y-128036000D01*
G75*
G02*
X106523000Y-127891000I145000J0D01*
G01*
X106813000Y-127891000D01*
G75*
G02*
X106958000Y-128036000I0J-145000D01*
G01*
X106958000Y-128376000D01*
G75*
G02*
X106813000Y-128521000I-145000J0D01*
G01*
X106523000Y-128521000D01*
G75*
G02*
X106378000Y-128376000I0J145000D01*
G01*
G37*
G36*
G01*
X105488000Y-128376000D02*
X105488000Y-128036000D01*
G75*
G02*
X105633000Y-127891000I145000J0D01*
G01*
X105923000Y-127891000D01*
G75*
G02*
X106068000Y-128036000I0J-145000D01*
G01*
X106068000Y-128376000D01*
G75*
G02*
X105923000Y-128521000I-145000J0D01*
G01*
X105633000Y-128521000D01*
G75*
G02*
X105488000Y-128376000I0J145000D01*
G01*
G37*
G36*
G01*
X108516000Y-124481300D02*
X108516000Y-124666300D01*
G75*
G02*
X108438500Y-124743800I-77500J0D01*
G01*
X108283500Y-124743800D01*
G75*
G02*
X108206000Y-124666300I0J77500D01*
G01*
X108206000Y-124481300D01*
G75*
G02*
X108283500Y-124403800I77500J0D01*
G01*
X108438500Y-124403800D01*
G75*
G02*
X108516000Y-124481300I0J-77500D01*
G01*
G37*
G36*
G01*
X109066000Y-124481300D02*
X109066000Y-124666300D01*
G75*
G02*
X108988500Y-124743800I-77500J0D01*
G01*
X108833500Y-124743800D01*
G75*
G02*
X108756000Y-124666300I0J77500D01*
G01*
X108756000Y-124481300D01*
G75*
G02*
X108833500Y-124403800I77500J0D01*
G01*
X108988500Y-124403800D01*
G75*
G02*
X109066000Y-124481300I0J-77500D01*
G01*
G37*
G36*
G01*
X104701600Y-128350600D02*
X104701600Y-128010600D01*
G75*
G02*
X104846600Y-127865600I145000J0D01*
G01*
X105136600Y-127865600D01*
G75*
G02*
X105281600Y-128010600I0J-145000D01*
G01*
X105281600Y-128350600D01*
G75*
G02*
X105136600Y-128495600I-145000J0D01*
G01*
X104846600Y-128495600D01*
G75*
G02*
X104701600Y-128350600I0J145000D01*
G01*
G37*
G36*
G01*
X103811600Y-128350600D02*
X103811600Y-128010600D01*
G75*
G02*
X103956600Y-127865600I145000J0D01*
G01*
X104246600Y-127865600D01*
G75*
G02*
X104391600Y-128010600I0J-145000D01*
G01*
X104391600Y-128350600D01*
G75*
G02*
X104246600Y-128495600I-145000J0D01*
G01*
X103956600Y-128495600D01*
G75*
G02*
X103811600Y-128350600I0J145000D01*
G01*
G37*
G36*
G01*
X105911200Y-129009700D02*
X105911200Y-128824700D01*
G75*
G02*
X105988700Y-128747200I77500J0D01*
G01*
X106143700Y-128747200D01*
G75*
G02*
X106221200Y-128824700I0J-77500D01*
G01*
X106221200Y-129009700D01*
G75*
G02*
X106143700Y-129087200I-77500J0D01*
G01*
X105988700Y-129087200D01*
G75*
G02*
X105911200Y-129009700I0J77500D01*
G01*
G37*
G36*
G01*
X105361200Y-129009700D02*
X105361200Y-128824700D01*
G75*
G02*
X105438700Y-128747200I77500J0D01*
G01*
X105593700Y-128747200D01*
G75*
G02*
X105671200Y-128824700I0J-77500D01*
G01*
X105671200Y-129009700D01*
G75*
G02*
X105593700Y-129087200I-77500J0D01*
G01*
X105438700Y-129087200D01*
G75*
G02*
X105361200Y-129009700I0J77500D01*
G01*
G37*
G36*
G01*
X109582800Y-124481300D02*
X109582800Y-124666300D01*
G75*
G02*
X109505300Y-124743800I-77500J0D01*
G01*
X109350300Y-124743800D01*
G75*
G02*
X109272800Y-124666300I0J77500D01*
G01*
X109272800Y-124481300D01*
G75*
G02*
X109350300Y-124403800I77500J0D01*
G01*
X109505300Y-124403800D01*
G75*
G02*
X109582800Y-124481300I0J-77500D01*
G01*
G37*
G36*
G01*
X110132800Y-124481300D02*
X110132800Y-124666300D01*
G75*
G02*
X110055300Y-124743800I-77500J0D01*
G01*
X109900300Y-124743800D01*
G75*
G02*
X109822800Y-124666300I0J77500D01*
G01*
X109822800Y-124481300D01*
G75*
G02*
X109900300Y-124403800I77500J0D01*
G01*
X110055300Y-124403800D01*
G75*
G02*
X110132800Y-124481300I0J-77500D01*
G01*
G37*
G36*
G01*
X101988200Y-129383500D02*
X101988200Y-129568500D01*
G75*
G02*
X101910700Y-129646000I-77500J0D01*
G01*
X101755700Y-129646000D01*
G75*
G02*
X101678200Y-129568500I0J77500D01*
G01*
X101678200Y-129383500D01*
G75*
G02*
X101755700Y-129306000I77500J0D01*
G01*
X101910700Y-129306000D01*
G75*
G02*
X101988200Y-129383500I0J-77500D01*
G01*
G37*
G36*
G01*
X102538200Y-129383500D02*
X102538200Y-129568500D01*
G75*
G02*
X102460700Y-129646000I-77500J0D01*
G01*
X102305700Y-129646000D01*
G75*
G02*
X102228200Y-129568500I0J77500D01*
G01*
X102228200Y-129383500D01*
G75*
G02*
X102305700Y-129306000I77500J0D01*
G01*
X102460700Y-129306000D01*
G75*
G02*
X102538200Y-129383500I0J-77500D01*
G01*
G37*
G36*
G01*
X104803200Y-96628100D02*
X104803200Y-95773100D01*
G75*
G02*
X105035700Y-95540600I232500J0D01*
G01*
X105500700Y-95540600D01*
G75*
G02*
X105733200Y-95773100I0J-232500D01*
G01*
X105733200Y-96628100D01*
G75*
G02*
X105500700Y-96860600I-232500J0D01*
G01*
X105035700Y-96860600D01*
G75*
G02*
X104803200Y-96628100I0J232500D01*
G01*
G37*
G36*
G01*
X103163200Y-96628100D02*
X103163200Y-95773100D01*
G75*
G02*
X103395700Y-95540600I232500J0D01*
G01*
X103860700Y-95540600D01*
G75*
G02*
X104093200Y-95773100I0J-232500D01*
G01*
X104093200Y-96628100D01*
G75*
G02*
X103860700Y-96860600I-232500J0D01*
G01*
X103395700Y-96860600D01*
G75*
G02*
X103163200Y-96628100I0J232500D01*
G01*
G37*
G36*
G01*
X103560600Y-94616900D02*
X103560600Y-95091900D01*
G75*
G02*
X103338100Y-95314400I-222500J0D01*
G01*
X102893100Y-95314400D01*
G75*
G02*
X102670600Y-95091900I0J222500D01*
G01*
X102670600Y-94616900D01*
G75*
G02*
X102893100Y-94394400I222500J0D01*
G01*
X103338100Y-94394400D01*
G75*
G02*
X103560600Y-94616900I0J-222500D01*
G01*
G37*
G36*
G01*
X104890600Y-94616900D02*
X104890600Y-95091900D01*
G75*
G02*
X104668100Y-95314400I-222500J0D01*
G01*
X104223100Y-95314400D01*
G75*
G02*
X104000600Y-95091900I0J222500D01*
G01*
X104000600Y-94616900D01*
G75*
G02*
X104223100Y-94394400I222500J0D01*
G01*
X104668100Y-94394400D01*
G75*
G02*
X104890600Y-94616900I0J-222500D01*
G01*
G37*
G36*
G01*
X104030200Y-93943900D02*
X104030200Y-93478900D01*
G75*
G02*
X104232700Y-93276400I202500J0D01*
G01*
X104637700Y-93276400D01*
G75*
G02*
X104840200Y-93478900I0J-202500D01*
G01*
X104840200Y-93943900D01*
G75*
G02*
X104637700Y-94146400I-202500J0D01*
G01*
X104232700Y-94146400D01*
G75*
G02*
X104030200Y-93943900I0J202500D01*
G01*
G37*
G36*
G01*
X102670200Y-93943900D02*
X102670200Y-93478900D01*
G75*
G02*
X102872700Y-93276400I202500J0D01*
G01*
X103277700Y-93276400D01*
G75*
G02*
X103480200Y-93478900I0J-202500D01*
G01*
X103480200Y-93943900D01*
G75*
G02*
X103277700Y-94146400I-202500J0D01*
G01*
X102872700Y-94146400D01*
G75*
G02*
X102670200Y-93943900I0J202500D01*
G01*
G37*
D21*
X101901000Y-96290800D03*
X101901000Y-94230800D03*
M02*
