G04 #@! TF.GenerationSoftware,KiCad,Pcbnew,(5.1.6)-1*
G04 #@! TF.CreationDate,2020-11-27T13:51:03-08:00*
G04 #@! TF.ProjectId,Miniscope-v4-Rigid-Flex,4d696e69-7363-46f7-9065-2d76342d5269,rev?*
G04 #@! TF.SameCoordinates,Original*
G04 #@! TF.FileFunction,Paste,Top*
G04 #@! TF.FilePolarity,Positive*
%FSLAX46Y46*%
G04 Gerber Fmt 4.6, Leading zero omitted, Abs format (unit mm)*
G04 Created by KiCad (PCBNEW (5.1.6)-1) date 2020-11-27 13:51:03*
%MOMM*%
%LPD*%
G01*
G04 APERTURE LIST*
%ADD10R,0.400000X0.700000*%
%ADD11R,0.400000X0.250000*%
%ADD12C,0.100000*%
%ADD13R,2.500000X2.500000*%
%ADD14R,0.680000X0.260000*%
%ADD15R,0.260000X0.680000*%
%ADD16R,1.350000X1.350000*%
%ADD17R,0.254000X0.675000*%
%ADD18R,0.675000X0.254000*%
%ADD19R,0.990000X0.340000*%
%ADD20R,0.880000X0.830000*%
%ADD21R,0.610000X0.220000*%
%ADD22R,0.220000X0.610000*%
%ADD23R,0.270000X0.640000*%
%ADD24R,2.390000X0.640000*%
%ADD25C,0.350000*%
G04 APERTURE END LIST*
D10*
X104986600Y-109767000D03*
D11*
X105686600Y-109542000D03*
X105686600Y-109992000D03*
D12*
G36*
X105631600Y-117442600D02*
G01*
X105811600Y-117262600D01*
X105881600Y-117262600D01*
X105881600Y-117662600D01*
X105631600Y-117662600D01*
X105631600Y-117442600D01*
G37*
G36*
X105231600Y-116582600D02*
G01*
X105051600Y-116762600D01*
X104981600Y-116762600D01*
X104981600Y-116362600D01*
X105231600Y-116362600D01*
X105231600Y-116582600D01*
G37*
G36*
X104981600Y-117262600D02*
G01*
X105051600Y-117262600D01*
X105231600Y-117442600D01*
X105231600Y-117662600D01*
X104981600Y-117662600D01*
X104981600Y-117262600D01*
G37*
G36*
X105881600Y-116832600D02*
G01*
X105631600Y-116582600D01*
X105631600Y-116362600D01*
X105881600Y-116362600D01*
X105881600Y-116832600D01*
G37*
G36*
X105431600Y-116673189D02*
G01*
X105771011Y-117012600D01*
X105431600Y-117352011D01*
X105092189Y-117012600D01*
X105431600Y-116673189D01*
G37*
G36*
G01*
X105836200Y-115878700D02*
X105836200Y-116063700D01*
G75*
G02*
X105758700Y-116141200I-77500J0D01*
G01*
X105603700Y-116141200D01*
G75*
G02*
X105526200Y-116063700I0J77500D01*
G01*
X105526200Y-115878700D01*
G75*
G02*
X105603700Y-115801200I77500J0D01*
G01*
X105758700Y-115801200D01*
G75*
G02*
X105836200Y-115878700I0J-77500D01*
G01*
G37*
G36*
G01*
X105286200Y-115878700D02*
X105286200Y-116063700D01*
G75*
G02*
X105208700Y-116141200I-77500J0D01*
G01*
X105053700Y-116141200D01*
G75*
G02*
X104976200Y-116063700I0J77500D01*
G01*
X104976200Y-115878700D01*
G75*
G02*
X105053700Y-115801200I77500J0D01*
G01*
X105208700Y-115801200D01*
G75*
G02*
X105286200Y-115878700I0J-77500D01*
G01*
G37*
G36*
G01*
X104635100Y-117070400D02*
X104450100Y-117070400D01*
G75*
G02*
X104372600Y-116992900I0J77500D01*
G01*
X104372600Y-116837900D01*
G75*
G02*
X104450100Y-116760400I77500J0D01*
G01*
X104635100Y-116760400D01*
G75*
G02*
X104712600Y-116837900I0J-77500D01*
G01*
X104712600Y-116992900D01*
G75*
G02*
X104635100Y-117070400I-77500J0D01*
G01*
G37*
G36*
G01*
X104635100Y-117620400D02*
X104450100Y-117620400D01*
G75*
G02*
X104372600Y-117542900I0J77500D01*
G01*
X104372600Y-117387900D01*
G75*
G02*
X104450100Y-117310400I77500J0D01*
G01*
X104635100Y-117310400D01*
G75*
G02*
X104712600Y-117387900I0J-77500D01*
G01*
X104712600Y-117542900D01*
G75*
G02*
X104635100Y-117620400I-77500J0D01*
G01*
G37*
G36*
G01*
X114811200Y-116945500D02*
X114811200Y-117130500D01*
G75*
G02*
X114733700Y-117208000I-77500J0D01*
G01*
X114578700Y-117208000D01*
G75*
G02*
X114501200Y-117130500I0J77500D01*
G01*
X114501200Y-116945500D01*
G75*
G02*
X114578700Y-116868000I77500J0D01*
G01*
X114733700Y-116868000D01*
G75*
G02*
X114811200Y-116945500I0J-77500D01*
G01*
G37*
G36*
G01*
X115361200Y-116945500D02*
X115361200Y-117130500D01*
G75*
G02*
X115283700Y-117208000I-77500J0D01*
G01*
X115128700Y-117208000D01*
G75*
G02*
X115051200Y-117130500I0J77500D01*
G01*
X115051200Y-116945500D01*
G75*
G02*
X115128700Y-116868000I77500J0D01*
G01*
X115283700Y-116868000D01*
G75*
G02*
X115361200Y-116945500I0J-77500D01*
G01*
G37*
G36*
G01*
X116295800Y-117130500D02*
X116295800Y-116945500D01*
G75*
G02*
X116373300Y-116868000I77500J0D01*
G01*
X116528300Y-116868000D01*
G75*
G02*
X116605800Y-116945500I0J-77500D01*
G01*
X116605800Y-117130500D01*
G75*
G02*
X116528300Y-117208000I-77500J0D01*
G01*
X116373300Y-117208000D01*
G75*
G02*
X116295800Y-117130500I0J77500D01*
G01*
G37*
G36*
G01*
X115745800Y-117130500D02*
X115745800Y-116945500D01*
G75*
G02*
X115823300Y-116868000I77500J0D01*
G01*
X115978300Y-116868000D01*
G75*
G02*
X116055800Y-116945500I0J-77500D01*
G01*
X116055800Y-117130500D01*
G75*
G02*
X115978300Y-117208000I-77500J0D01*
G01*
X115823300Y-117208000D01*
G75*
G02*
X115745800Y-117130500I0J77500D01*
G01*
G37*
G36*
G01*
X102668600Y-130149900D02*
X102668600Y-129964900D01*
G75*
G02*
X102746100Y-129887400I77500J0D01*
G01*
X102901100Y-129887400D01*
G75*
G02*
X102978600Y-129964900I0J-77500D01*
G01*
X102978600Y-130149900D01*
G75*
G02*
X102901100Y-130227400I-77500J0D01*
G01*
X102746100Y-130227400D01*
G75*
G02*
X102668600Y-130149900I0J77500D01*
G01*
G37*
G36*
G01*
X103218600Y-130149900D02*
X103218600Y-129964900D01*
G75*
G02*
X103296100Y-129887400I77500J0D01*
G01*
X103451100Y-129887400D01*
G75*
G02*
X103528600Y-129964900I0J-77500D01*
G01*
X103528600Y-130149900D01*
G75*
G02*
X103451100Y-130227400I-77500J0D01*
G01*
X103296100Y-130227400D01*
G75*
G02*
X103218600Y-130149900I0J77500D01*
G01*
G37*
D13*
X109677400Y-125386600D03*
D14*
X102401800Y-125198400D03*
X102401800Y-125698400D03*
X102401800Y-126198400D03*
X102401800Y-126698400D03*
X102401800Y-127198400D03*
X102401800Y-127698400D03*
X102401800Y-128198400D03*
X102401800Y-128698400D03*
D15*
X102986800Y-129283400D03*
X103486800Y-129283400D03*
X103986800Y-129283400D03*
X104486800Y-129283400D03*
X104986800Y-129283400D03*
X105486800Y-129283400D03*
X105986800Y-129283400D03*
X106486800Y-129283400D03*
D14*
X107071800Y-128698400D03*
X107071800Y-128198400D03*
X107071800Y-127698400D03*
X107071800Y-127198400D03*
X107071800Y-126698400D03*
X107071800Y-126198400D03*
X107071800Y-125698400D03*
X107071800Y-125198400D03*
D15*
X106486800Y-124613400D03*
X105986800Y-124613400D03*
X105486800Y-124613400D03*
X104986800Y-124613400D03*
X104486800Y-124613400D03*
X103986800Y-124613400D03*
X103486800Y-124613400D03*
X102986800Y-124613400D03*
D16*
X103961800Y-127723400D03*
X105511800Y-127723400D03*
X103961800Y-126173400D03*
X105511800Y-126173400D03*
G36*
G01*
X109329800Y-130034300D02*
X109329800Y-129484300D01*
G75*
G02*
X109579800Y-129234300I250000J0D01*
G01*
X110079800Y-129234300D01*
G75*
G02*
X110329800Y-129484300I0J-250000D01*
G01*
X110329800Y-130034300D01*
G75*
G02*
X110079800Y-130284300I-250000J0D01*
G01*
X109579800Y-130284300D01*
G75*
G02*
X109329800Y-130034300I0J250000D01*
G01*
G37*
G36*
G01*
X107829800Y-129094300D02*
X107829800Y-127419300D01*
G75*
G02*
X108092300Y-127156800I262500J0D01*
G01*
X108617300Y-127156800D01*
G75*
G02*
X108879800Y-127419300I0J-262500D01*
G01*
X108879800Y-129094300D01*
G75*
G02*
X108617300Y-129356800I-262500J0D01*
G01*
X108092300Y-129356800D01*
G75*
G02*
X107829800Y-129094300I0J262500D01*
G01*
G37*
G36*
G01*
X110779800Y-129094300D02*
X110779800Y-127419300D01*
G75*
G02*
X111042300Y-127156800I262500J0D01*
G01*
X111567300Y-127156800D01*
G75*
G02*
X111829800Y-127419300I0J-262500D01*
G01*
X111829800Y-129094300D01*
G75*
G02*
X111567300Y-129356800I-262500J0D01*
G01*
X111042300Y-129356800D01*
G75*
G02*
X110779800Y-129094300I0J262500D01*
G01*
G37*
G36*
G01*
X117393200Y-110281300D02*
X117393200Y-110466300D01*
G75*
G02*
X117315700Y-110543800I-77500J0D01*
G01*
X117160700Y-110543800D01*
G75*
G02*
X117083200Y-110466300I0J77500D01*
G01*
X117083200Y-110281300D01*
G75*
G02*
X117160700Y-110203800I77500J0D01*
G01*
X117315700Y-110203800D01*
G75*
G02*
X117393200Y-110281300I0J-77500D01*
G01*
G37*
G36*
G01*
X116843200Y-110281300D02*
X116843200Y-110466300D01*
G75*
G02*
X116765700Y-110543800I-77500J0D01*
G01*
X116610700Y-110543800D01*
G75*
G02*
X116533200Y-110466300I0J77500D01*
G01*
X116533200Y-110281300D01*
G75*
G02*
X116610700Y-110203800I77500J0D01*
G01*
X116765700Y-110203800D01*
G75*
G02*
X116843200Y-110281300I0J-77500D01*
G01*
G37*
G36*
G01*
X118506700Y-111673800D02*
X118691700Y-111673800D01*
G75*
G02*
X118769200Y-111751300I0J-77500D01*
G01*
X118769200Y-111906300D01*
G75*
G02*
X118691700Y-111983800I-77500J0D01*
G01*
X118506700Y-111983800D01*
G75*
G02*
X118429200Y-111906300I0J77500D01*
G01*
X118429200Y-111751300D01*
G75*
G02*
X118506700Y-111673800I77500J0D01*
G01*
G37*
G36*
G01*
X118506700Y-112223800D02*
X118691700Y-112223800D01*
G75*
G02*
X118769200Y-112301300I0J-77500D01*
G01*
X118769200Y-112456300D01*
G75*
G02*
X118691700Y-112533800I-77500J0D01*
G01*
X118506700Y-112533800D01*
G75*
G02*
X118429200Y-112456300I0J77500D01*
G01*
X118429200Y-112301300D01*
G75*
G02*
X118506700Y-112223800I77500J0D01*
G01*
G37*
G36*
G01*
X119090900Y-111673800D02*
X119275900Y-111673800D01*
G75*
G02*
X119353400Y-111751300I0J-77500D01*
G01*
X119353400Y-111906300D01*
G75*
G02*
X119275900Y-111983800I-77500J0D01*
G01*
X119090900Y-111983800D01*
G75*
G02*
X119013400Y-111906300I0J77500D01*
G01*
X119013400Y-111751300D01*
G75*
G02*
X119090900Y-111673800I77500J0D01*
G01*
G37*
G36*
G01*
X119090900Y-112223800D02*
X119275900Y-112223800D01*
G75*
G02*
X119353400Y-112301300I0J-77500D01*
G01*
X119353400Y-112456300D01*
G75*
G02*
X119275900Y-112533800I-77500J0D01*
G01*
X119090900Y-112533800D01*
G75*
G02*
X119013400Y-112456300I0J77500D01*
G01*
X119013400Y-112301300D01*
G75*
G02*
X119090900Y-112223800I77500J0D01*
G01*
G37*
G36*
G01*
X116301000Y-110281300D02*
X116301000Y-110466300D01*
G75*
G02*
X116223500Y-110543800I-77500J0D01*
G01*
X116068500Y-110543800D01*
G75*
G02*
X115991000Y-110466300I0J77500D01*
G01*
X115991000Y-110281300D01*
G75*
G02*
X116068500Y-110203800I77500J0D01*
G01*
X116223500Y-110203800D01*
G75*
G02*
X116301000Y-110281300I0J-77500D01*
G01*
G37*
G36*
G01*
X115751000Y-110281300D02*
X115751000Y-110466300D01*
G75*
G02*
X115673500Y-110543800I-77500J0D01*
G01*
X115518500Y-110543800D01*
G75*
G02*
X115441000Y-110466300I0J77500D01*
G01*
X115441000Y-110281300D01*
G75*
G02*
X115518500Y-110203800I77500J0D01*
G01*
X115673500Y-110203800D01*
G75*
G02*
X115751000Y-110281300I0J-77500D01*
G01*
G37*
G36*
G01*
X113779100Y-114565800D02*
X113594100Y-114565800D01*
G75*
G02*
X113516600Y-114488300I0J77500D01*
G01*
X113516600Y-114333300D01*
G75*
G02*
X113594100Y-114255800I77500J0D01*
G01*
X113779100Y-114255800D01*
G75*
G02*
X113856600Y-114333300I0J-77500D01*
G01*
X113856600Y-114488300D01*
G75*
G02*
X113779100Y-114565800I-77500J0D01*
G01*
G37*
G36*
G01*
X113779100Y-114015800D02*
X113594100Y-114015800D01*
G75*
G02*
X113516600Y-113938300I0J77500D01*
G01*
X113516600Y-113783300D01*
G75*
G02*
X113594100Y-113705800I77500J0D01*
G01*
X113779100Y-113705800D01*
G75*
G02*
X113856600Y-113783300I0J-77500D01*
G01*
X113856600Y-113938300D01*
G75*
G02*
X113779100Y-114015800I-77500J0D01*
G01*
G37*
G36*
G01*
X113629900Y-112105600D02*
X113814900Y-112105600D01*
G75*
G02*
X113892400Y-112183100I0J-77500D01*
G01*
X113892400Y-112338100D01*
G75*
G02*
X113814900Y-112415600I-77500J0D01*
G01*
X113629900Y-112415600D01*
G75*
G02*
X113552400Y-112338100I0J77500D01*
G01*
X113552400Y-112183100D01*
G75*
G02*
X113629900Y-112105600I77500J0D01*
G01*
G37*
G36*
G01*
X113629900Y-112655600D02*
X113814900Y-112655600D01*
G75*
G02*
X113892400Y-112733100I0J-77500D01*
G01*
X113892400Y-112888100D01*
G75*
G02*
X113814900Y-112965600I-77500J0D01*
G01*
X113629900Y-112965600D01*
G75*
G02*
X113552400Y-112888100I0J77500D01*
G01*
X113552400Y-112733100D01*
G75*
G02*
X113629900Y-112655600I77500J0D01*
G01*
G37*
D17*
X115450200Y-115976100D03*
X115950200Y-115976100D03*
X116450200Y-115976100D03*
D18*
X114537700Y-115838600D03*
X114537700Y-115338600D03*
X114537700Y-114838600D03*
X114537700Y-114338600D03*
X114537700Y-113838600D03*
X114537700Y-113338600D03*
X114537700Y-112838600D03*
X114537700Y-112338600D03*
X114537700Y-111838600D03*
X117862700Y-115838600D03*
X117862700Y-115338600D03*
X117862700Y-114838600D03*
X117862700Y-114338600D03*
X117862700Y-113838600D03*
X117862700Y-113338600D03*
X117862700Y-112838600D03*
X117862700Y-112338600D03*
X117862700Y-111838600D03*
D17*
X115450200Y-111201100D03*
X115950200Y-111201100D03*
X116450200Y-111201100D03*
D18*
X117862700Y-111338600D03*
D17*
X116950200Y-111201100D03*
D18*
X114537700Y-111338600D03*
D17*
X116950200Y-115976100D03*
G36*
G01*
X105567000Y-114787100D02*
X105567000Y-114602100D01*
G75*
G02*
X105644500Y-114524600I77500J0D01*
G01*
X105799500Y-114524600D01*
G75*
G02*
X105877000Y-114602100I0J-77500D01*
G01*
X105877000Y-114787100D01*
G75*
G02*
X105799500Y-114864600I-77500J0D01*
G01*
X105644500Y-114864600D01*
G75*
G02*
X105567000Y-114787100I0J77500D01*
G01*
G37*
G36*
G01*
X106117000Y-114787100D02*
X106117000Y-114602100D01*
G75*
G02*
X106194500Y-114524600I77500J0D01*
G01*
X106349500Y-114524600D01*
G75*
G02*
X106427000Y-114602100I0J-77500D01*
G01*
X106427000Y-114787100D01*
G75*
G02*
X106349500Y-114864600I-77500J0D01*
G01*
X106194500Y-114864600D01*
G75*
G02*
X106117000Y-114787100I0J77500D01*
G01*
G37*
G36*
G01*
X106133100Y-112512000D02*
X106318100Y-112512000D01*
G75*
G02*
X106395600Y-112589500I0J-77500D01*
G01*
X106395600Y-112744500D01*
G75*
G02*
X106318100Y-112822000I-77500J0D01*
G01*
X106133100Y-112822000D01*
G75*
G02*
X106055600Y-112744500I0J77500D01*
G01*
X106055600Y-112589500D01*
G75*
G02*
X106133100Y-112512000I77500J0D01*
G01*
G37*
G36*
G01*
X106133100Y-113062000D02*
X106318100Y-113062000D01*
G75*
G02*
X106395600Y-113139500I0J-77500D01*
G01*
X106395600Y-113294500D01*
G75*
G02*
X106318100Y-113372000I-77500J0D01*
G01*
X106133100Y-113372000D01*
G75*
G02*
X106055600Y-113294500I0J77500D01*
G01*
X106055600Y-113139500D01*
G75*
G02*
X106133100Y-113062000I77500J0D01*
G01*
G37*
G36*
G01*
X105675900Y-111496000D02*
X105860900Y-111496000D01*
G75*
G02*
X105938400Y-111573500I0J-77500D01*
G01*
X105938400Y-111728500D01*
G75*
G02*
X105860900Y-111806000I-77500J0D01*
G01*
X105675900Y-111806000D01*
G75*
G02*
X105598400Y-111728500I0J77500D01*
G01*
X105598400Y-111573500D01*
G75*
G02*
X105675900Y-111496000I77500J0D01*
G01*
G37*
G36*
G01*
X105675900Y-112046000D02*
X105860900Y-112046000D01*
G75*
G02*
X105938400Y-112123500I0J-77500D01*
G01*
X105938400Y-112278500D01*
G75*
G02*
X105860900Y-112356000I-77500J0D01*
G01*
X105675900Y-112356000D01*
G75*
G02*
X105598400Y-112278500I0J77500D01*
G01*
X105598400Y-112123500D01*
G75*
G02*
X105675900Y-112046000I77500J0D01*
G01*
G37*
G36*
G01*
X106938400Y-112146800D02*
X106938400Y-111806800D01*
G75*
G02*
X107083400Y-111661800I145000J0D01*
G01*
X107373400Y-111661800D01*
G75*
G02*
X107518400Y-111806800I0J-145000D01*
G01*
X107518400Y-112146800D01*
G75*
G02*
X107373400Y-112291800I-145000J0D01*
G01*
X107083400Y-112291800D01*
G75*
G02*
X106938400Y-112146800I0J145000D01*
G01*
G37*
G36*
G01*
X107828400Y-112146800D02*
X107828400Y-111806800D01*
G75*
G02*
X107973400Y-111661800I145000J0D01*
G01*
X108263400Y-111661800D01*
G75*
G02*
X108408400Y-111806800I0J-145000D01*
G01*
X108408400Y-112146800D01*
G75*
G02*
X108263400Y-112291800I-145000J0D01*
G01*
X107973400Y-112291800D01*
G75*
G02*
X107828400Y-112146800I0J145000D01*
G01*
G37*
G36*
G01*
X101020400Y-115828500D02*
X101020400Y-115643500D01*
G75*
G02*
X101097900Y-115566000I77500J0D01*
G01*
X101252900Y-115566000D01*
G75*
G02*
X101330400Y-115643500I0J-77500D01*
G01*
X101330400Y-115828500D01*
G75*
G02*
X101252900Y-115906000I-77500J0D01*
G01*
X101097900Y-115906000D01*
G75*
G02*
X101020400Y-115828500I0J77500D01*
G01*
G37*
G36*
G01*
X101570400Y-115828500D02*
X101570400Y-115643500D01*
G75*
G02*
X101647900Y-115566000I77500J0D01*
G01*
X101802900Y-115566000D01*
G75*
G02*
X101880400Y-115643500I0J-77500D01*
G01*
X101880400Y-115828500D01*
G75*
G02*
X101802900Y-115906000I-77500J0D01*
G01*
X101647900Y-115906000D01*
G75*
G02*
X101570400Y-115828500I0J77500D01*
G01*
G37*
D19*
X99499000Y-110950400D03*
X99499000Y-109650400D03*
X101319000Y-109650400D03*
X101319000Y-110300400D03*
X101319000Y-110950400D03*
G36*
G01*
X103509600Y-111764500D02*
X103509600Y-111579500D01*
G75*
G02*
X103587100Y-111502000I77500J0D01*
G01*
X103742100Y-111502000D01*
G75*
G02*
X103819600Y-111579500I0J-77500D01*
G01*
X103819600Y-111764500D01*
G75*
G02*
X103742100Y-111842000I-77500J0D01*
G01*
X103587100Y-111842000D01*
G75*
G02*
X103509600Y-111764500I0J77500D01*
G01*
G37*
G36*
G01*
X104059600Y-111764500D02*
X104059600Y-111579500D01*
G75*
G02*
X104137100Y-111502000I77500J0D01*
G01*
X104292100Y-111502000D01*
G75*
G02*
X104369600Y-111579500I0J-77500D01*
G01*
X104369600Y-111764500D01*
G75*
G02*
X104292100Y-111842000I-77500J0D01*
G01*
X104137100Y-111842000D01*
G75*
G02*
X104059600Y-111764500I0J77500D01*
G01*
G37*
G36*
G01*
X102145300Y-112994600D02*
X102330300Y-112994600D01*
G75*
G02*
X102407800Y-113072100I0J-77500D01*
G01*
X102407800Y-113227100D01*
G75*
G02*
X102330300Y-113304600I-77500J0D01*
G01*
X102145300Y-113304600D01*
G75*
G02*
X102067800Y-113227100I0J77500D01*
G01*
X102067800Y-113072100D01*
G75*
G02*
X102145300Y-112994600I77500J0D01*
G01*
G37*
G36*
G01*
X102145300Y-113544600D02*
X102330300Y-113544600D01*
G75*
G02*
X102407800Y-113622100I0J-77500D01*
G01*
X102407800Y-113777100D01*
G75*
G02*
X102330300Y-113854600I-77500J0D01*
G01*
X102145300Y-113854600D01*
G75*
G02*
X102067800Y-113777100I0J77500D01*
G01*
X102067800Y-113622100D01*
G75*
G02*
X102145300Y-113544600I77500J0D01*
G01*
G37*
G36*
G01*
X103643900Y-114518600D02*
X103828900Y-114518600D01*
G75*
G02*
X103906400Y-114596100I0J-77500D01*
G01*
X103906400Y-114751100D01*
G75*
G02*
X103828900Y-114828600I-77500J0D01*
G01*
X103643900Y-114828600D01*
G75*
G02*
X103566400Y-114751100I0J77500D01*
G01*
X103566400Y-114596100D01*
G75*
G02*
X103643900Y-114518600I77500J0D01*
G01*
G37*
G36*
G01*
X103643900Y-115068600D02*
X103828900Y-115068600D01*
G75*
G02*
X103906400Y-115146100I0J-77500D01*
G01*
X103906400Y-115301100D01*
G75*
G02*
X103828900Y-115378600I-77500J0D01*
G01*
X103643900Y-115378600D01*
G75*
G02*
X103566400Y-115301100I0J77500D01*
G01*
X103566400Y-115146100D01*
G75*
G02*
X103643900Y-115068600I77500J0D01*
G01*
G37*
G36*
G01*
X106158500Y-111496000D02*
X106343500Y-111496000D01*
G75*
G02*
X106421000Y-111573500I0J-77500D01*
G01*
X106421000Y-111728500D01*
G75*
G02*
X106343500Y-111806000I-77500J0D01*
G01*
X106158500Y-111806000D01*
G75*
G02*
X106081000Y-111728500I0J77500D01*
G01*
X106081000Y-111573500D01*
G75*
G02*
X106158500Y-111496000I77500J0D01*
G01*
G37*
G36*
G01*
X106158500Y-112046000D02*
X106343500Y-112046000D01*
G75*
G02*
X106421000Y-112123500I0J-77500D01*
G01*
X106421000Y-112278500D01*
G75*
G02*
X106343500Y-112356000I-77500J0D01*
G01*
X106158500Y-112356000D01*
G75*
G02*
X106081000Y-112278500I0J77500D01*
G01*
X106081000Y-112123500D01*
G75*
G02*
X106158500Y-112046000I77500J0D01*
G01*
G37*
G36*
G01*
X102145300Y-109337000D02*
X102330300Y-109337000D01*
G75*
G02*
X102407800Y-109414500I0J-77500D01*
G01*
X102407800Y-109569500D01*
G75*
G02*
X102330300Y-109647000I-77500J0D01*
G01*
X102145300Y-109647000D01*
G75*
G02*
X102067800Y-109569500I0J77500D01*
G01*
X102067800Y-109414500D01*
G75*
G02*
X102145300Y-109337000I77500J0D01*
G01*
G37*
G36*
G01*
X102145300Y-109887000D02*
X102330300Y-109887000D01*
G75*
G02*
X102407800Y-109964500I0J-77500D01*
G01*
X102407800Y-110119500D01*
G75*
G02*
X102330300Y-110197000I-77500J0D01*
G01*
X102145300Y-110197000D01*
G75*
G02*
X102067800Y-110119500I0J77500D01*
G01*
X102067800Y-109964500D01*
G75*
G02*
X102145300Y-109887000I77500J0D01*
G01*
G37*
G36*
G01*
X102330300Y-112381400D02*
X102145300Y-112381400D01*
G75*
G02*
X102067800Y-112303900I0J77500D01*
G01*
X102067800Y-112148900D01*
G75*
G02*
X102145300Y-112071400I77500J0D01*
G01*
X102330300Y-112071400D01*
G75*
G02*
X102407800Y-112148900I0J-77500D01*
G01*
X102407800Y-112303900D01*
G75*
G02*
X102330300Y-112381400I-77500J0D01*
G01*
G37*
G36*
G01*
X102330300Y-111831400D02*
X102145300Y-111831400D01*
G75*
G02*
X102067800Y-111753900I0J77500D01*
G01*
X102067800Y-111598900D01*
G75*
G02*
X102145300Y-111521400I77500J0D01*
G01*
X102330300Y-111521400D01*
G75*
G02*
X102407800Y-111598900I0J-77500D01*
G01*
X102407800Y-111753900D01*
G75*
G02*
X102330300Y-111831400I-77500J0D01*
G01*
G37*
G36*
G01*
X101553800Y-115269700D02*
X101553800Y-115084700D01*
G75*
G02*
X101631300Y-115007200I77500J0D01*
G01*
X101786300Y-115007200D01*
G75*
G02*
X101863800Y-115084700I0J-77500D01*
G01*
X101863800Y-115269700D01*
G75*
G02*
X101786300Y-115347200I-77500J0D01*
G01*
X101631300Y-115347200D01*
G75*
G02*
X101553800Y-115269700I0J77500D01*
G01*
G37*
G36*
G01*
X102103800Y-115269700D02*
X102103800Y-115084700D01*
G75*
G02*
X102181300Y-115007200I77500J0D01*
G01*
X102336300Y-115007200D01*
G75*
G02*
X102413800Y-115084700I0J-77500D01*
G01*
X102413800Y-115269700D01*
G75*
G02*
X102336300Y-115347200I-77500J0D01*
G01*
X102181300Y-115347200D01*
G75*
G02*
X102103800Y-115269700I0J77500D01*
G01*
G37*
G36*
G01*
X102330300Y-111289200D02*
X102145300Y-111289200D01*
G75*
G02*
X102067800Y-111211700I0J77500D01*
G01*
X102067800Y-111056700D01*
G75*
G02*
X102145300Y-110979200I77500J0D01*
G01*
X102330300Y-110979200D01*
G75*
G02*
X102407800Y-111056700I0J-77500D01*
G01*
X102407800Y-111211700D01*
G75*
G02*
X102330300Y-111289200I-77500J0D01*
G01*
G37*
G36*
G01*
X102330300Y-110739200D02*
X102145300Y-110739200D01*
G75*
G02*
X102067800Y-110661700I0J77500D01*
G01*
X102067800Y-110506700D01*
G75*
G02*
X102145300Y-110429200I77500J0D01*
G01*
X102330300Y-110429200D01*
G75*
G02*
X102407800Y-110506700I0J-77500D01*
G01*
X102407800Y-110661700D01*
G75*
G02*
X102330300Y-110739200I-77500J0D01*
G01*
G37*
G36*
G01*
X105567000Y-115295100D02*
X105567000Y-115110100D01*
G75*
G02*
X105644500Y-115032600I77500J0D01*
G01*
X105799500Y-115032600D01*
G75*
G02*
X105877000Y-115110100I0J-77500D01*
G01*
X105877000Y-115295100D01*
G75*
G02*
X105799500Y-115372600I-77500J0D01*
G01*
X105644500Y-115372600D01*
G75*
G02*
X105567000Y-115295100I0J77500D01*
G01*
G37*
G36*
G01*
X106117000Y-115295100D02*
X106117000Y-115110100D01*
G75*
G02*
X106194500Y-115032600I77500J0D01*
G01*
X106349500Y-115032600D01*
G75*
G02*
X106427000Y-115110100I0J-77500D01*
G01*
X106427000Y-115295100D01*
G75*
G02*
X106349500Y-115372600I-77500J0D01*
G01*
X106194500Y-115372600D01*
G75*
G02*
X106117000Y-115295100I0J77500D01*
G01*
G37*
G36*
G01*
X100182200Y-111713700D02*
X100182200Y-111528700D01*
G75*
G02*
X100259700Y-111451200I77500J0D01*
G01*
X100414700Y-111451200D01*
G75*
G02*
X100492200Y-111528700I0J-77500D01*
G01*
X100492200Y-111713700D01*
G75*
G02*
X100414700Y-111791200I-77500J0D01*
G01*
X100259700Y-111791200D01*
G75*
G02*
X100182200Y-111713700I0J77500D01*
G01*
G37*
G36*
G01*
X100732200Y-111713700D02*
X100732200Y-111528700D01*
G75*
G02*
X100809700Y-111451200I77500J0D01*
G01*
X100964700Y-111451200D01*
G75*
G02*
X101042200Y-111528700I0J-77500D01*
G01*
X101042200Y-111713700D01*
G75*
G02*
X100964700Y-111791200I-77500J0D01*
G01*
X100809700Y-111791200D01*
G75*
G02*
X100732200Y-111713700I0J77500D01*
G01*
G37*
G36*
G01*
X105436400Y-111579500D02*
X105436400Y-111764500D01*
G75*
G02*
X105358900Y-111842000I-77500J0D01*
G01*
X105203900Y-111842000D01*
G75*
G02*
X105126400Y-111764500I0J77500D01*
G01*
X105126400Y-111579500D01*
G75*
G02*
X105203900Y-111502000I77500J0D01*
G01*
X105358900Y-111502000D01*
G75*
G02*
X105436400Y-111579500I0J-77500D01*
G01*
G37*
G36*
G01*
X104886400Y-111579500D02*
X104886400Y-111764500D01*
G75*
G02*
X104808900Y-111842000I-77500J0D01*
G01*
X104653900Y-111842000D01*
G75*
G02*
X104576400Y-111764500I0J77500D01*
G01*
X104576400Y-111579500D01*
G75*
G02*
X104653900Y-111502000I77500J0D01*
G01*
X104808900Y-111502000D01*
G75*
G02*
X104886400Y-111579500I0J-77500D01*
G01*
G37*
G36*
G01*
X107828400Y-114051800D02*
X107828400Y-113711800D01*
G75*
G02*
X107973400Y-113566800I145000J0D01*
G01*
X108263400Y-113566800D01*
G75*
G02*
X108408400Y-113711800I0J-145000D01*
G01*
X108408400Y-114051800D01*
G75*
G02*
X108263400Y-114196800I-145000J0D01*
G01*
X107973400Y-114196800D01*
G75*
G02*
X107828400Y-114051800I0J145000D01*
G01*
G37*
G36*
G01*
X106938400Y-114051800D02*
X106938400Y-113711800D01*
G75*
G02*
X107083400Y-113566800I145000J0D01*
G01*
X107373400Y-113566800D01*
G75*
G02*
X107518400Y-113711800I0J-145000D01*
G01*
X107518400Y-114051800D01*
G75*
G02*
X107373400Y-114196800I-145000J0D01*
G01*
X107083400Y-114196800D01*
G75*
G02*
X106938400Y-114051800I0J145000D01*
G01*
G37*
G36*
G01*
X101066800Y-114761700D02*
X101066800Y-114576700D01*
G75*
G02*
X101144300Y-114499200I77500J0D01*
G01*
X101299300Y-114499200D01*
G75*
G02*
X101376800Y-114576700I0J-77500D01*
G01*
X101376800Y-114761700D01*
G75*
G02*
X101299300Y-114839200I-77500J0D01*
G01*
X101144300Y-114839200D01*
G75*
G02*
X101066800Y-114761700I0J77500D01*
G01*
G37*
G36*
G01*
X101616800Y-114761700D02*
X101616800Y-114576700D01*
G75*
G02*
X101694300Y-114499200I77500J0D01*
G01*
X101849300Y-114499200D01*
G75*
G02*
X101926800Y-114576700I0J-77500D01*
G01*
X101926800Y-114761700D01*
G75*
G02*
X101849300Y-114839200I-77500J0D01*
G01*
X101694300Y-114839200D01*
G75*
G02*
X101616800Y-114761700I0J77500D01*
G01*
G37*
D20*
X99489400Y-113890600D03*
X101379400Y-113890600D03*
X101379400Y-112450600D03*
X99489400Y-112450600D03*
G36*
G01*
X106608400Y-109732500D02*
X106608400Y-109547500D01*
G75*
G02*
X106685900Y-109470000I77500J0D01*
G01*
X106840900Y-109470000D01*
G75*
G02*
X106918400Y-109547500I0J-77500D01*
G01*
X106918400Y-109732500D01*
G75*
G02*
X106840900Y-109810000I-77500J0D01*
G01*
X106685900Y-109810000D01*
G75*
G02*
X106608400Y-109732500I0J77500D01*
G01*
G37*
G36*
G01*
X107158400Y-109732500D02*
X107158400Y-109547500D01*
G75*
G02*
X107235900Y-109470000I77500J0D01*
G01*
X107390900Y-109470000D01*
G75*
G02*
X107468400Y-109547500I0J-77500D01*
G01*
X107468400Y-109732500D01*
G75*
G02*
X107390900Y-109810000I-77500J0D01*
G01*
X107235900Y-109810000D01*
G75*
G02*
X107158400Y-109732500I0J77500D01*
G01*
G37*
G36*
G01*
X103760800Y-130149900D02*
X103760800Y-129964900D01*
G75*
G02*
X103838300Y-129887400I77500J0D01*
G01*
X103993300Y-129887400D01*
G75*
G02*
X104070800Y-129964900I0J-77500D01*
G01*
X104070800Y-130149900D01*
G75*
G02*
X103993300Y-130227400I-77500J0D01*
G01*
X103838300Y-130227400D01*
G75*
G02*
X103760800Y-130149900I0J77500D01*
G01*
G37*
G36*
G01*
X104310800Y-130149900D02*
X104310800Y-129964900D01*
G75*
G02*
X104388300Y-129887400I77500J0D01*
G01*
X104543300Y-129887400D01*
G75*
G02*
X104620800Y-129964900I0J-77500D01*
G01*
X104620800Y-130149900D01*
G75*
G02*
X104543300Y-130227400I-77500J0D01*
G01*
X104388300Y-130227400D01*
G75*
G02*
X104310800Y-130149900I0J77500D01*
G01*
G37*
G36*
G01*
X106217200Y-129967700D02*
X106217200Y-130152700D01*
G75*
G02*
X106139700Y-130230200I-77500J0D01*
G01*
X105984700Y-130230200D01*
G75*
G02*
X105907200Y-130152700I0J77500D01*
G01*
X105907200Y-129967700D01*
G75*
G02*
X105984700Y-129890200I77500J0D01*
G01*
X106139700Y-129890200D01*
G75*
G02*
X106217200Y-129967700I0J-77500D01*
G01*
G37*
G36*
G01*
X105667200Y-129967700D02*
X105667200Y-130152700D01*
G75*
G02*
X105589700Y-130230200I-77500J0D01*
G01*
X105434700Y-130230200D01*
G75*
G02*
X105357200Y-130152700I0J77500D01*
G01*
X105357200Y-129967700D01*
G75*
G02*
X105434700Y-129890200I77500J0D01*
G01*
X105589700Y-129890200D01*
G75*
G02*
X105667200Y-129967700I0J-77500D01*
G01*
G37*
G36*
G01*
X99614600Y-111713700D02*
X99614600Y-111528700D01*
G75*
G02*
X99692100Y-111451200I77500J0D01*
G01*
X99847100Y-111451200D01*
G75*
G02*
X99924600Y-111528700I0J-77500D01*
G01*
X99924600Y-111713700D01*
G75*
G02*
X99847100Y-111791200I-77500J0D01*
G01*
X99692100Y-111791200D01*
G75*
G02*
X99614600Y-111713700I0J77500D01*
G01*
G37*
G36*
G01*
X99064600Y-111713700D02*
X99064600Y-111528700D01*
G75*
G02*
X99142100Y-111451200I77500J0D01*
G01*
X99297100Y-111451200D01*
G75*
G02*
X99374600Y-111528700I0J-77500D01*
G01*
X99374600Y-111713700D01*
G75*
G02*
X99297100Y-111791200I-77500J0D01*
G01*
X99142100Y-111791200D01*
G75*
G02*
X99064600Y-111713700I0J77500D01*
G01*
G37*
G36*
G01*
X102601000Y-110995100D02*
X102601000Y-110520100D01*
G75*
G02*
X102823500Y-110297600I222500J0D01*
G01*
X103268500Y-110297600D01*
G75*
G02*
X103491000Y-110520100I0J-222500D01*
G01*
X103491000Y-110995100D01*
G75*
G02*
X103268500Y-111217600I-222500J0D01*
G01*
X102823500Y-111217600D01*
G75*
G02*
X102601000Y-110995100I0J222500D01*
G01*
G37*
G36*
G01*
X103931000Y-110995100D02*
X103931000Y-110520100D01*
G75*
G02*
X104153500Y-110297600I222500J0D01*
G01*
X104598500Y-110297600D01*
G75*
G02*
X104821000Y-110520100I0J-222500D01*
G01*
X104821000Y-110995100D01*
G75*
G02*
X104598500Y-111217600I-222500J0D01*
G01*
X104153500Y-111217600D01*
G75*
G02*
X103931000Y-110995100I0J222500D01*
G01*
G37*
G36*
G01*
X108234500Y-115333600D02*
X107759500Y-115333600D01*
G75*
G02*
X107537000Y-115111100I0J222500D01*
G01*
X107537000Y-114666100D01*
G75*
G02*
X107759500Y-114443600I222500J0D01*
G01*
X108234500Y-114443600D01*
G75*
G02*
X108457000Y-114666100I0J-222500D01*
G01*
X108457000Y-115111100D01*
G75*
G02*
X108234500Y-115333600I-222500J0D01*
G01*
G37*
G36*
G01*
X108234500Y-116663600D02*
X107759500Y-116663600D01*
G75*
G02*
X107537000Y-116441100I0J222500D01*
G01*
X107537000Y-115996100D01*
G75*
G02*
X107759500Y-115773600I222500J0D01*
G01*
X108234500Y-115773600D01*
G75*
G02*
X108457000Y-115996100I0J-222500D01*
G01*
X108457000Y-116441100D01*
G75*
G02*
X108234500Y-116663600I-222500J0D01*
G01*
G37*
G36*
G01*
X106475200Y-110990100D02*
X106475200Y-110525100D01*
G75*
G02*
X106677700Y-110322600I202500J0D01*
G01*
X107082700Y-110322600D01*
G75*
G02*
X107285200Y-110525100I0J-202500D01*
G01*
X107285200Y-110990100D01*
G75*
G02*
X107082700Y-111192600I-202500J0D01*
G01*
X106677700Y-111192600D01*
G75*
G02*
X106475200Y-110990100I0J202500D01*
G01*
G37*
G36*
G01*
X105115200Y-110990100D02*
X105115200Y-110525100D01*
G75*
G02*
X105317700Y-110322600I202500J0D01*
G01*
X105722700Y-110322600D01*
G75*
G02*
X105925200Y-110525100I0J-202500D01*
G01*
X105925200Y-110990100D01*
G75*
G02*
X105722700Y-111192600I-202500J0D01*
G01*
X105317700Y-111192600D01*
G75*
G02*
X105115200Y-110990100I0J202500D01*
G01*
G37*
G36*
G01*
X106963800Y-113162800D02*
X106963800Y-112822800D01*
G75*
G02*
X107108800Y-112677800I145000J0D01*
G01*
X107398800Y-112677800D01*
G75*
G02*
X107543800Y-112822800I0J-145000D01*
G01*
X107543800Y-113162800D01*
G75*
G02*
X107398800Y-113307800I-145000J0D01*
G01*
X107108800Y-113307800D01*
G75*
G02*
X106963800Y-113162800I0J145000D01*
G01*
G37*
G36*
G01*
X107853800Y-113162800D02*
X107853800Y-112822800D01*
G75*
G02*
X107998800Y-112677800I145000J0D01*
G01*
X108288800Y-112677800D01*
G75*
G02*
X108433800Y-112822800I0J-145000D01*
G01*
X108433800Y-113162800D01*
G75*
G02*
X108288800Y-113307800I-145000J0D01*
G01*
X107998800Y-113307800D01*
G75*
G02*
X107853800Y-113162800I0J145000D01*
G01*
G37*
G36*
G01*
X99598000Y-114787100D02*
X99598000Y-114602100D01*
G75*
G02*
X99675500Y-114524600I77500J0D01*
G01*
X99830500Y-114524600D01*
G75*
G02*
X99908000Y-114602100I0J-77500D01*
G01*
X99908000Y-114787100D01*
G75*
G02*
X99830500Y-114864600I-77500J0D01*
G01*
X99675500Y-114864600D01*
G75*
G02*
X99598000Y-114787100I0J77500D01*
G01*
G37*
G36*
G01*
X100148000Y-114787100D02*
X100148000Y-114602100D01*
G75*
G02*
X100225500Y-114524600I77500J0D01*
G01*
X100380500Y-114524600D01*
G75*
G02*
X100458000Y-114602100I0J-77500D01*
G01*
X100458000Y-114787100D01*
G75*
G02*
X100380500Y-114864600I-77500J0D01*
G01*
X100225500Y-114864600D01*
G75*
G02*
X100148000Y-114787100I0J77500D01*
G01*
G37*
G36*
G01*
X104567200Y-109431300D02*
X104567200Y-109776300D01*
G75*
G02*
X104419700Y-109923800I-147500J0D01*
G01*
X104124700Y-109923800D01*
G75*
G02*
X103977200Y-109776300I0J147500D01*
G01*
X103977200Y-109431300D01*
G75*
G02*
X104124700Y-109283800I147500J0D01*
G01*
X104419700Y-109283800D01*
G75*
G02*
X104567200Y-109431300I0J-147500D01*
G01*
G37*
G36*
G01*
X103597200Y-109431300D02*
X103597200Y-109776300D01*
G75*
G02*
X103449700Y-109923800I-147500J0D01*
G01*
X103154700Y-109923800D01*
G75*
G02*
X103007200Y-109776300I0J147500D01*
G01*
X103007200Y-109431300D01*
G75*
G02*
X103154700Y-109283800I147500J0D01*
G01*
X103449700Y-109283800D01*
G75*
G02*
X103597200Y-109431300I0J-147500D01*
G01*
G37*
G36*
G01*
X102145900Y-101355000D02*
X101960900Y-101355000D01*
G75*
G02*
X101883400Y-101277500I0J77500D01*
G01*
X101883400Y-101122500D01*
G75*
G02*
X101960900Y-101045000I77500J0D01*
G01*
X102145900Y-101045000D01*
G75*
G02*
X102223400Y-101122500I0J-77500D01*
G01*
X102223400Y-101277500D01*
G75*
G02*
X102145900Y-101355000I-77500J0D01*
G01*
G37*
G36*
G01*
X102145900Y-100805000D02*
X101960900Y-100805000D01*
G75*
G02*
X101883400Y-100727500I0J77500D01*
G01*
X101883400Y-100572500D01*
G75*
G02*
X101960900Y-100495000I77500J0D01*
G01*
X102145900Y-100495000D01*
G75*
G02*
X102223400Y-100572500I0J-77500D01*
G01*
X102223400Y-100727500D01*
G75*
G02*
X102145900Y-100805000I-77500J0D01*
G01*
G37*
D21*
X104556000Y-100735800D03*
X104556000Y-101135800D03*
D22*
X104511000Y-101780800D03*
X104111000Y-101780800D03*
X103711000Y-101780800D03*
X103311000Y-101780800D03*
X102911000Y-101780800D03*
D21*
X102866000Y-101135800D03*
X102866000Y-100735800D03*
D22*
X102911000Y-100090800D03*
X103311000Y-100090800D03*
X103711000Y-100090800D03*
X104111000Y-100090800D03*
X104511000Y-100090800D03*
D23*
X104653600Y-97240200D03*
X104153600Y-97240200D03*
X103653600Y-97240200D03*
X103153600Y-97240200D03*
X102653600Y-97240200D03*
X102653600Y-98920200D03*
X103153600Y-98920200D03*
X103653600Y-98920200D03*
X104153600Y-98920200D03*
X104653600Y-98920200D03*
D24*
X103653600Y-98080200D03*
G36*
G01*
X105625700Y-99246800D02*
X105440700Y-99246800D01*
G75*
G02*
X105363200Y-99169300I0J77500D01*
G01*
X105363200Y-99014300D01*
G75*
G02*
X105440700Y-98936800I77500J0D01*
G01*
X105625700Y-98936800D01*
G75*
G02*
X105703200Y-99014300I0J-77500D01*
G01*
X105703200Y-99169300D01*
G75*
G02*
X105625700Y-99246800I-77500J0D01*
G01*
G37*
G36*
G01*
X105625700Y-98696800D02*
X105440700Y-98696800D01*
G75*
G02*
X105363200Y-98619300I0J77500D01*
G01*
X105363200Y-98464300D01*
G75*
G02*
X105440700Y-98386800I77500J0D01*
G01*
X105625700Y-98386800D01*
G75*
G02*
X105703200Y-98464300I0J-77500D01*
G01*
X105703200Y-98619300D01*
G75*
G02*
X105625700Y-98696800I-77500J0D01*
G01*
G37*
G36*
G01*
X105625700Y-97799000D02*
X105440700Y-97799000D01*
G75*
G02*
X105363200Y-97721500I0J77500D01*
G01*
X105363200Y-97566500D01*
G75*
G02*
X105440700Y-97489000I77500J0D01*
G01*
X105625700Y-97489000D01*
G75*
G02*
X105703200Y-97566500I0J-77500D01*
G01*
X105703200Y-97721500D01*
G75*
G02*
X105625700Y-97799000I-77500J0D01*
G01*
G37*
G36*
G01*
X105625700Y-97249000D02*
X105440700Y-97249000D01*
G75*
G02*
X105363200Y-97171500I0J77500D01*
G01*
X105363200Y-97016500D01*
G75*
G02*
X105440700Y-96939000I77500J0D01*
G01*
X105625700Y-96939000D01*
G75*
G02*
X105703200Y-97016500I0J-77500D01*
G01*
X105703200Y-97171500D01*
G75*
G02*
X105625700Y-97249000I-77500J0D01*
G01*
G37*
G36*
G01*
X105288300Y-100520400D02*
X105473300Y-100520400D01*
G75*
G02*
X105550800Y-100597900I0J-77500D01*
G01*
X105550800Y-100752900D01*
G75*
G02*
X105473300Y-100830400I-77500J0D01*
G01*
X105288300Y-100830400D01*
G75*
G02*
X105210800Y-100752900I0J77500D01*
G01*
X105210800Y-100597900D01*
G75*
G02*
X105288300Y-100520400I77500J0D01*
G01*
G37*
G36*
G01*
X105288300Y-101070400D02*
X105473300Y-101070400D01*
G75*
G02*
X105550800Y-101147900I0J-77500D01*
G01*
X105550800Y-101302900D01*
G75*
G02*
X105473300Y-101380400I-77500J0D01*
G01*
X105288300Y-101380400D01*
G75*
G02*
X105210800Y-101302900I0J77500D01*
G01*
X105210800Y-101147900D01*
G75*
G02*
X105288300Y-101070400I77500J0D01*
G01*
G37*
G36*
G01*
X104404000Y-96523000D02*
X104404000Y-96183000D01*
G75*
G02*
X104549000Y-96038000I145000J0D01*
G01*
X104839000Y-96038000D01*
G75*
G02*
X104984000Y-96183000I0J-145000D01*
G01*
X104984000Y-96523000D01*
G75*
G02*
X104839000Y-96668000I-145000J0D01*
G01*
X104549000Y-96668000D01*
G75*
G02*
X104404000Y-96523000I0J145000D01*
G01*
G37*
G36*
G01*
X105294000Y-96523000D02*
X105294000Y-96183000D01*
G75*
G02*
X105439000Y-96038000I145000J0D01*
G01*
X105729000Y-96038000D01*
G75*
G02*
X105874000Y-96183000I0J-145000D01*
G01*
X105874000Y-96523000D01*
G75*
G02*
X105729000Y-96668000I-145000J0D01*
G01*
X105439000Y-96668000D01*
G75*
G02*
X105294000Y-96523000I0J145000D01*
G01*
G37*
G36*
G01*
X103299800Y-96420100D02*
X103299800Y-96235100D01*
G75*
G02*
X103377300Y-96157600I77500J0D01*
G01*
X103532300Y-96157600D01*
G75*
G02*
X103609800Y-96235100I0J-77500D01*
G01*
X103609800Y-96420100D01*
G75*
G02*
X103532300Y-96497600I-77500J0D01*
G01*
X103377300Y-96497600D01*
G75*
G02*
X103299800Y-96420100I0J77500D01*
G01*
G37*
G36*
G01*
X103849800Y-96420100D02*
X103849800Y-96235100D01*
G75*
G02*
X103927300Y-96157600I77500J0D01*
G01*
X104082300Y-96157600D01*
G75*
G02*
X104159800Y-96235100I0J-77500D01*
G01*
X104159800Y-96420100D01*
G75*
G02*
X104082300Y-96497600I-77500J0D01*
G01*
X103927300Y-96497600D01*
G75*
G02*
X103849800Y-96420100I0J77500D01*
G01*
G37*
D25*
X102755200Y-94456000D03*
X103255200Y-94456000D03*
X103755200Y-94456000D03*
X104255200Y-94456000D03*
X104755200Y-94456000D03*
X102755200Y-94956000D03*
X103255200Y-94956000D03*
X103755200Y-94956000D03*
X104255200Y-94956000D03*
X104755200Y-94956000D03*
X102755200Y-95456000D03*
X103255200Y-95456000D03*
X103755200Y-95456000D03*
X104255200Y-95456000D03*
X104755200Y-95456000D03*
G36*
G01*
X103017000Y-96157600D02*
X103017000Y-96497600D01*
G75*
G02*
X102872000Y-96642600I-145000J0D01*
G01*
X102582000Y-96642600D01*
G75*
G02*
X102437000Y-96497600I0J145000D01*
G01*
X102437000Y-96157600D01*
G75*
G02*
X102582000Y-96012600I145000J0D01*
G01*
X102872000Y-96012600D01*
G75*
G02*
X103017000Y-96157600I0J-145000D01*
G01*
G37*
G36*
G01*
X102127000Y-96157600D02*
X102127000Y-96497600D01*
G75*
G02*
X101982000Y-96642600I-145000J0D01*
G01*
X101692000Y-96642600D01*
G75*
G02*
X101547000Y-96497600I0J145000D01*
G01*
X101547000Y-96157600D01*
G75*
G02*
X101692000Y-96012600I145000J0D01*
G01*
X101982000Y-96012600D01*
G75*
G02*
X102127000Y-96157600I0J-145000D01*
G01*
G37*
M02*
