G04 #@! TF.GenerationSoftware,KiCad,Pcbnew,(5.1.6)-1*
G04 #@! TF.CreationDate,2020-11-27T13:51:03-08:00*
G04 #@! TF.ProjectId,Miniscope-v4-Rigid-Flex,4d696e69-7363-46f7-9065-2d76342d5269,rev?*
G04 #@! TF.SameCoordinates,Original*
G04 #@! TF.FileFunction,Profile,NP*
%FSLAX46Y46*%
G04 Gerber Fmt 4.6, Leading zero omitted, Abs format (unit mm)*
G04 Created by KiCad (PCBNEW (5.1.6)-1) date 2020-11-27 13:51:03*
%MOMM*%
%LPD*%
G01*
G04 APERTURE LIST*
G04 #@! TA.AperFunction,Profile*
%ADD10C,0.050000*%
G04 #@! TD*
G04 #@! TA.AperFunction,Profile*
%ADD11C,0.203200*%
G04 #@! TD*
G04 APERTURE END LIST*
D10*
X107250000Y-99000000D02*
G75*
G02*
X106250000Y-98000000I0J1000000D01*
G01*
X106250000Y-102000000D02*
G75*
G02*
X107250000Y-101000000I1000000J0D01*
G01*
X100250000Y-101000000D02*
G75*
G02*
X101250000Y-102000000I0J-1000000D01*
G01*
X101250000Y-98000000D02*
G75*
G02*
X100250000Y-99000000I-1000000J0D01*
G01*
X102750000Y-91500000D02*
G75*
G02*
X101250000Y-93000000I-1500000J0D01*
G01*
X106250000Y-93000000D02*
G75*
G02*
X104750000Y-91500000I0J1500000D01*
G01*
X113851612Y-91000000D02*
G75*
G03*
X113851612Y-91000000I-3101612J0D01*
G01*
X107749706Y-88800402D02*
G75*
G03*
X108550001Y-88000001I3000294J-2199598D01*
G01*
X104750000Y-91500000D02*
X104750000Y-87700000D01*
X106036471Y-87076043D02*
X107750001Y-88800001D01*
X106830029Y-86281098D02*
G75*
G03*
X102750001Y-87699999I-3080029J2281098D01*
G01*
X102750000Y-91500000D02*
X102750000Y-87700000D01*
X106036471Y-87076043D02*
G75*
G02*
X104749999Y-87699999I-2286471J3076043D01*
G01*
X106828076Y-86283734D02*
X108550000Y-88000000D01*
X106297600Y-84000000D02*
G75*
G03*
X106297600Y-84000000I-2547600J0D01*
G01*
X101250000Y-102000000D02*
X101250000Y-102500000D01*
X100250000Y-101000000D02*
G75*
G02*
X100250000Y-99000000I0J1000000D01*
G01*
X106250000Y-102000000D02*
X106250000Y-102500000D01*
X107250000Y-99000000D02*
G75*
G02*
X107250000Y-101000000I0J-1000000D01*
G01*
D11*
X98750000Y-117500000D02*
G75*
G02*
X99250000Y-118000000I0J-500000D01*
G01*
D10*
X99250000Y-118000000D02*
G75*
G02*
X100250000Y-119000000I0J-1000000D01*
G01*
D11*
X108750000Y-109000000D02*
G75*
G02*
X108250000Y-108500000I0J500000D01*
G01*
D10*
X105250000Y-103500000D02*
X105250000Y-107000000D01*
X120750000Y-109500000D02*
X113250000Y-109500000D01*
X120750000Y-117500000D02*
X120750000Y-109500000D01*
X113250000Y-109500000D02*
G75*
G02*
X111750000Y-111000000I-1500000J0D01*
G01*
X102250000Y-103500000D02*
X102250000Y-107000000D01*
X111750000Y-116000000D02*
G75*
G02*
X113250000Y-117500000I0J-1500000D01*
G01*
X98750000Y-122500000D02*
X98750000Y-126000000D01*
X98750000Y-126000000D02*
X100250000Y-127500000D01*
X108750000Y-122500000D02*
X112250000Y-122500000D01*
X100250000Y-121000000D02*
X100250000Y-119000000D01*
X108750000Y-122500000D02*
G75*
G02*
X107250000Y-121000000I0J1500000D01*
G01*
X107250000Y-119500000D02*
X107250000Y-121000000D01*
X112250000Y-122500000D02*
X112250000Y-130500000D01*
X100250000Y-130500000D02*
X100250000Y-127500000D01*
X110250000Y-111000000D02*
X111750000Y-111000000D01*
X100250000Y-121000000D02*
G75*
G02*
X98750000Y-122500000I-1500000J0D01*
G01*
X113250000Y-117500000D02*
X120750000Y-117500000D01*
X110250000Y-116000000D02*
X111750000Y-116000000D01*
X112250000Y-130500000D02*
X100250000Y-130500000D01*
X107250000Y-119500000D02*
G75*
G02*
X108750000Y-118000000I1500000J0D01*
G01*
X108250000Y-108500000D02*
X106750000Y-108500000D01*
X108750000Y-117500000D02*
X108750000Y-118000000D01*
X102250000Y-107000000D02*
G75*
G02*
X100750000Y-108500000I-1500000J0D01*
G01*
X106750000Y-108500000D02*
G75*
G02*
X105250000Y-107000000I0J1500000D01*
G01*
X98750000Y-117500000D02*
X98750000Y-108500000D01*
X108750000Y-117500000D02*
G75*
G02*
X110250000Y-116000000I1500000J0D01*
G01*
X108750000Y-109000000D02*
X108750000Y-109500000D01*
X100750000Y-108500000D02*
X98750000Y-108500000D01*
X110250000Y-111000000D02*
G75*
G02*
X108750000Y-109500000I0J1500000D01*
G01*
X101250000Y-102500000D02*
G75*
G02*
X102250000Y-103500000I0J-1000000D01*
G01*
X105250000Y-103500000D02*
G75*
G02*
X106250000Y-102500000I1000000J0D01*
G01*
X101250000Y-98000000D02*
X101250000Y-93000000D01*
X106250000Y-93000000D02*
X106250000Y-98000000D01*
M02*
