G04 #@! TF.GenerationSoftware,KiCad,Pcbnew,(5.1.6)-1*
G04 #@! TF.CreationDate,2020-11-27T13:51:03-08:00*
G04 #@! TF.ProjectId,Miniscope-v4-Rigid-Flex,4d696e69-7363-46f7-9065-2d76342d5269,rev?*
G04 #@! TF.SameCoordinates,Original*
G04 #@! TF.FileFunction,Copper,L6,Bot*
G04 #@! TF.FilePolarity,Positive*
%FSLAX46Y46*%
G04 Gerber Fmt 4.6, Leading zero omitted, Abs format (unit mm)*
G04 Created by KiCad (PCBNEW (5.1.6)-1) date 2020-11-27 13:51:03*
%MOMM*%
%LPD*%
G01*
G04 APERTURE LIST*
G04 #@! TA.AperFunction,SMDPad,CuDef*
%ADD10R,0.450000X1.500000*%
G04 #@! TD*
G04 #@! TA.AperFunction,SMDPad,CuDef*
%ADD11R,0.870000X2.620000*%
G04 #@! TD*
G04 #@! TA.AperFunction,SMDPad,CuDef*
%ADD12R,0.270000X0.740000*%
G04 #@! TD*
G04 #@! TA.AperFunction,SMDPad,CuDef*
%ADD13R,0.270000X0.820000*%
G04 #@! TD*
G04 #@! TA.AperFunction,SMDPad,CuDef*
%ADD14R,0.220000X0.400000*%
G04 #@! TD*
G04 #@! TA.AperFunction,SMDPad,CuDef*
%ADD15R,0.320000X0.400000*%
G04 #@! TD*
G04 #@! TA.AperFunction,SMDPad,CuDef*
%ADD16R,0.400000X0.220000*%
G04 #@! TD*
G04 #@! TA.AperFunction,SMDPad,CuDef*
%ADD17C,0.250000*%
G04 #@! TD*
G04 #@! TA.AperFunction,SMDPad,CuDef*
%ADD18R,3.100000X3.100000*%
G04 #@! TD*
G04 #@! TA.AperFunction,SMDPad,CuDef*
%ADD19R,0.260000X0.680000*%
G04 #@! TD*
G04 #@! TA.AperFunction,SMDPad,CuDef*
%ADD20R,0.680000X0.260000*%
G04 #@! TD*
G04 #@! TA.AperFunction,SMDPad,CuDef*
%ADD21R,0.540000X1.060000*%
G04 #@! TD*
G04 #@! TA.AperFunction,ViaPad*
%ADD22C,0.350000*%
G04 #@! TD*
G04 #@! TA.AperFunction,ViaPad*
%ADD23C,0.300000*%
G04 #@! TD*
G04 #@! TA.AperFunction,Conductor*
%ADD24C,0.152400*%
G04 #@! TD*
G04 #@! TA.AperFunction,Conductor*
%ADD25C,0.304800*%
G04 #@! TD*
G04 #@! TA.AperFunction,Conductor*
%ADD26C,0.203200*%
G04 #@! TD*
G04 #@! TA.AperFunction,Conductor*
%ADD27C,0.254000*%
G04 #@! TD*
G04 #@! TA.AperFunction,Conductor*
%ADD28C,0.101600*%
G04 #@! TD*
G04 APERTURE END LIST*
D10*
X103400000Y-99750000D03*
X104100000Y-99750000D03*
G04 #@! TA.AperFunction,SMDPad,CuDef*
G36*
G01*
X114811200Y-116945500D02*
X114811200Y-117130500D01*
G75*
G02*
X114733700Y-117208000I-77500J0D01*
G01*
X114578700Y-117208000D01*
G75*
G02*
X114501200Y-117130500I0J77500D01*
G01*
X114501200Y-116945500D01*
G75*
G02*
X114578700Y-116868000I77500J0D01*
G01*
X114733700Y-116868000D01*
G75*
G02*
X114811200Y-116945500I0J-77500D01*
G01*
G37*
G04 #@! TD.AperFunction*
G04 #@! TA.AperFunction,SMDPad,CuDef*
G36*
G01*
X115361200Y-116945500D02*
X115361200Y-117130500D01*
G75*
G02*
X115283700Y-117208000I-77500J0D01*
G01*
X115128700Y-117208000D01*
G75*
G02*
X115051200Y-117130500I0J77500D01*
G01*
X115051200Y-116945500D01*
G75*
G02*
X115128700Y-116868000I77500J0D01*
G01*
X115283700Y-116868000D01*
G75*
G02*
X115361200Y-116945500I0J-77500D01*
G01*
G37*
G04 #@! TD.AperFunction*
G04 #@! TA.AperFunction,SMDPad,CuDef*
G36*
G01*
X116295800Y-117130500D02*
X116295800Y-116945500D01*
G75*
G02*
X116373300Y-116868000I77500J0D01*
G01*
X116528300Y-116868000D01*
G75*
G02*
X116605800Y-116945500I0J-77500D01*
G01*
X116605800Y-117130500D01*
G75*
G02*
X116528300Y-117208000I-77500J0D01*
G01*
X116373300Y-117208000D01*
G75*
G02*
X116295800Y-117130500I0J77500D01*
G01*
G37*
G04 #@! TD.AperFunction*
G04 #@! TA.AperFunction,SMDPad,CuDef*
G36*
G01*
X115745800Y-117130500D02*
X115745800Y-116945500D01*
G75*
G02*
X115823300Y-116868000I77500J0D01*
G01*
X115978300Y-116868000D01*
G75*
G02*
X116055800Y-116945500I0J-77500D01*
G01*
X116055800Y-117130500D01*
G75*
G02*
X115978300Y-117208000I-77500J0D01*
G01*
X115823300Y-117208000D01*
G75*
G02*
X115745800Y-117130500I0J77500D01*
G01*
G37*
G04 #@! TD.AperFunction*
G04 #@! TA.AperFunction,SMDPad,CuDef*
G36*
G01*
X101567800Y-128501700D02*
X101567800Y-128316700D01*
G75*
G02*
X101645300Y-128239200I77500J0D01*
G01*
X101800300Y-128239200D01*
G75*
G02*
X101877800Y-128316700I0J-77500D01*
G01*
X101877800Y-128501700D01*
G75*
G02*
X101800300Y-128579200I-77500J0D01*
G01*
X101645300Y-128579200D01*
G75*
G02*
X101567800Y-128501700I0J77500D01*
G01*
G37*
G04 #@! TD.AperFunction*
G04 #@! TA.AperFunction,SMDPad,CuDef*
G36*
G01*
X101017800Y-128501700D02*
X101017800Y-128316700D01*
G75*
G02*
X101095300Y-128239200I77500J0D01*
G01*
X101250300Y-128239200D01*
G75*
G02*
X101327800Y-128316700I0J-77500D01*
G01*
X101327800Y-128501700D01*
G75*
G02*
X101250300Y-128579200I-77500J0D01*
G01*
X101095300Y-128579200D01*
G75*
G02*
X101017800Y-128501700I0J77500D01*
G01*
G37*
G04 #@! TD.AperFunction*
G04 #@! TA.AperFunction,SMDPad,CuDef*
G36*
G01*
X102228200Y-129009700D02*
X102228200Y-128824700D01*
G75*
G02*
X102305700Y-128747200I77500J0D01*
G01*
X102460700Y-128747200D01*
G75*
G02*
X102538200Y-128824700I0J-77500D01*
G01*
X102538200Y-129009700D01*
G75*
G02*
X102460700Y-129087200I-77500J0D01*
G01*
X102305700Y-129087200D01*
G75*
G02*
X102228200Y-129009700I0J77500D01*
G01*
G37*
G04 #@! TD.AperFunction*
G04 #@! TA.AperFunction,SMDPad,CuDef*
G36*
G01*
X101678200Y-129009700D02*
X101678200Y-128824700D01*
G75*
G02*
X101755700Y-128747200I77500J0D01*
G01*
X101910700Y-128747200D01*
G75*
G02*
X101988200Y-128824700I0J-77500D01*
G01*
X101988200Y-129009700D01*
G75*
G02*
X101910700Y-129087200I-77500J0D01*
G01*
X101755700Y-129087200D01*
G75*
G02*
X101678200Y-129009700I0J77500D01*
G01*
G37*
G04 #@! TD.AperFunction*
G04 #@! TA.AperFunction,SMDPad,CuDef*
G36*
G01*
X101327800Y-127757900D02*
X101327800Y-127942900D01*
G75*
G02*
X101250300Y-128020400I-77500J0D01*
G01*
X101095300Y-128020400D01*
G75*
G02*
X101017800Y-127942900I0J77500D01*
G01*
X101017800Y-127757900D01*
G75*
G02*
X101095300Y-127680400I77500J0D01*
G01*
X101250300Y-127680400D01*
G75*
G02*
X101327800Y-127757900I0J-77500D01*
G01*
G37*
G04 #@! TD.AperFunction*
G04 #@! TA.AperFunction,SMDPad,CuDef*
G36*
G01*
X101877800Y-127757900D02*
X101877800Y-127942900D01*
G75*
G02*
X101800300Y-128020400I-77500J0D01*
G01*
X101645300Y-128020400D01*
G75*
G02*
X101567800Y-127942900I0J77500D01*
G01*
X101567800Y-127757900D01*
G75*
G02*
X101645300Y-127680400I77500J0D01*
G01*
X101800300Y-127680400D01*
G75*
G02*
X101877800Y-127757900I0J-77500D01*
G01*
G37*
G04 #@! TD.AperFunction*
G04 #@! TA.AperFunction,SMDPad,CuDef*
G36*
G01*
X110961800Y-126401500D02*
X110961800Y-126216500D01*
G75*
G02*
X111039300Y-126139000I77500J0D01*
G01*
X111194300Y-126139000D01*
G75*
G02*
X111271800Y-126216500I0J-77500D01*
G01*
X111271800Y-126401500D01*
G75*
G02*
X111194300Y-126479000I-77500J0D01*
G01*
X111039300Y-126479000D01*
G75*
G02*
X110961800Y-126401500I0J77500D01*
G01*
G37*
G04 #@! TD.AperFunction*
G04 #@! TA.AperFunction,SMDPad,CuDef*
G36*
G01*
X110411800Y-126401500D02*
X110411800Y-126216500D01*
G75*
G02*
X110489300Y-126139000I77500J0D01*
G01*
X110644300Y-126139000D01*
G75*
G02*
X110721800Y-126216500I0J-77500D01*
G01*
X110721800Y-126401500D01*
G75*
G02*
X110644300Y-126479000I-77500J0D01*
G01*
X110489300Y-126479000D01*
G75*
G02*
X110411800Y-126401500I0J77500D01*
G01*
G37*
G04 #@! TD.AperFunction*
G04 #@! TA.AperFunction,SMDPad,CuDef*
G36*
G01*
X107423800Y-124481300D02*
X107423800Y-124666300D01*
G75*
G02*
X107346300Y-124743800I-77500J0D01*
G01*
X107191300Y-124743800D01*
G75*
G02*
X107113800Y-124666300I0J77500D01*
G01*
X107113800Y-124481300D01*
G75*
G02*
X107191300Y-124403800I77500J0D01*
G01*
X107346300Y-124403800D01*
G75*
G02*
X107423800Y-124481300I0J-77500D01*
G01*
G37*
G04 #@! TD.AperFunction*
G04 #@! TA.AperFunction,SMDPad,CuDef*
G36*
G01*
X107973800Y-124481300D02*
X107973800Y-124666300D01*
G75*
G02*
X107896300Y-124743800I-77500J0D01*
G01*
X107741300Y-124743800D01*
G75*
G02*
X107663800Y-124666300I0J77500D01*
G01*
X107663800Y-124481300D01*
G75*
G02*
X107741300Y-124403800I77500J0D01*
G01*
X107896300Y-124403800D01*
G75*
G02*
X107973800Y-124481300I0J-77500D01*
G01*
G37*
G04 #@! TD.AperFunction*
D11*
X108330200Y-128061600D03*
X111380200Y-128061600D03*
G04 #@! TA.AperFunction,SMDPad,CuDef*
G36*
G01*
X106438400Y-127540300D02*
X106438400Y-127195300D01*
G75*
G02*
X106585900Y-127047800I147500J0D01*
G01*
X106880900Y-127047800D01*
G75*
G02*
X107028400Y-127195300I0J-147500D01*
G01*
X107028400Y-127540300D01*
G75*
G02*
X106880900Y-127687800I-147500J0D01*
G01*
X106585900Y-127687800D01*
G75*
G02*
X106438400Y-127540300I0J147500D01*
G01*
G37*
G04 #@! TD.AperFunction*
G04 #@! TA.AperFunction,SMDPad,CuDef*
G36*
G01*
X105468400Y-127540300D02*
X105468400Y-127195300D01*
G75*
G02*
X105615900Y-127047800I147500J0D01*
G01*
X105910900Y-127047800D01*
G75*
G02*
X106058400Y-127195300I0J-147500D01*
G01*
X106058400Y-127540300D01*
G75*
G02*
X105910900Y-127687800I-147500J0D01*
G01*
X105615900Y-127687800D01*
G75*
G02*
X105468400Y-127540300I0J147500D01*
G01*
G37*
G04 #@! TD.AperFunction*
G04 #@! TA.AperFunction,SMDPad,CuDef*
G36*
G01*
X102629400Y-127195300D02*
X102629400Y-127540300D01*
G75*
G02*
X102481900Y-127687800I-147500J0D01*
G01*
X102186900Y-127687800D01*
G75*
G02*
X102039400Y-127540300I0J147500D01*
G01*
X102039400Y-127195300D01*
G75*
G02*
X102186900Y-127047800I147500J0D01*
G01*
X102481900Y-127047800D01*
G75*
G02*
X102629400Y-127195300I0J-147500D01*
G01*
G37*
G04 #@! TD.AperFunction*
G04 #@! TA.AperFunction,SMDPad,CuDef*
G36*
G01*
X103599400Y-127195300D02*
X103599400Y-127540300D01*
G75*
G02*
X103451900Y-127687800I-147500J0D01*
G01*
X103156900Y-127687800D01*
G75*
G02*
X103009400Y-127540300I0J147500D01*
G01*
X103009400Y-127195300D01*
G75*
G02*
X103156900Y-127047800I147500J0D01*
G01*
X103451900Y-127047800D01*
G75*
G02*
X103599400Y-127195300I0J-147500D01*
G01*
G37*
G04 #@! TD.AperFunction*
D12*
X111523600Y-124475600D03*
X111023600Y-124475600D03*
X110523600Y-124475600D03*
X110523600Y-125535600D03*
X111023600Y-125535600D03*
D13*
X111523600Y-125495600D03*
G04 #@! TA.AperFunction,SMDPad,CuDef*
G36*
G01*
X106204600Y-124963900D02*
X106204600Y-125148900D01*
G75*
G02*
X106127100Y-125226400I-77500J0D01*
G01*
X105972100Y-125226400D01*
G75*
G02*
X105894600Y-125148900I0J77500D01*
G01*
X105894600Y-124963900D01*
G75*
G02*
X105972100Y-124886400I77500J0D01*
G01*
X106127100Y-124886400D01*
G75*
G02*
X106204600Y-124963900I0J-77500D01*
G01*
G37*
G04 #@! TD.AperFunction*
G04 #@! TA.AperFunction,SMDPad,CuDef*
G36*
G01*
X106754600Y-124963900D02*
X106754600Y-125148900D01*
G75*
G02*
X106677100Y-125226400I-77500J0D01*
G01*
X106522100Y-125226400D01*
G75*
G02*
X106444600Y-125148900I0J77500D01*
G01*
X106444600Y-124963900D01*
G75*
G02*
X106522100Y-124886400I77500J0D01*
G01*
X106677100Y-124886400D01*
G75*
G02*
X106754600Y-124963900I0J-77500D01*
G01*
G37*
G04 #@! TD.AperFunction*
G04 #@! TA.AperFunction,SMDPad,CuDef*
G36*
G01*
X105911200Y-129543100D02*
X105911200Y-129358100D01*
G75*
G02*
X105988700Y-129280600I77500J0D01*
G01*
X106143700Y-129280600D01*
G75*
G02*
X106221200Y-129358100I0J-77500D01*
G01*
X106221200Y-129543100D01*
G75*
G02*
X106143700Y-129620600I-77500J0D01*
G01*
X105988700Y-129620600D01*
G75*
G02*
X105911200Y-129543100I0J77500D01*
G01*
G37*
G04 #@! TD.AperFunction*
G04 #@! TA.AperFunction,SMDPad,CuDef*
G36*
G01*
X105361200Y-129543100D02*
X105361200Y-129358100D01*
G75*
G02*
X105438700Y-129280600I77500J0D01*
G01*
X105593700Y-129280600D01*
G75*
G02*
X105671200Y-129358100I0J-77500D01*
G01*
X105671200Y-129543100D01*
G75*
G02*
X105593700Y-129620600I-77500J0D01*
G01*
X105438700Y-129620600D01*
G75*
G02*
X105361200Y-129543100I0J77500D01*
G01*
G37*
G04 #@! TD.AperFunction*
G04 #@! TA.AperFunction,SMDPad,CuDef*
G36*
G01*
X105377800Y-124564700D02*
X105377800Y-124379700D01*
G75*
G02*
X105455300Y-124302200I77500J0D01*
G01*
X105610300Y-124302200D01*
G75*
G02*
X105687800Y-124379700I0J-77500D01*
G01*
X105687800Y-124564700D01*
G75*
G02*
X105610300Y-124642200I-77500J0D01*
G01*
X105455300Y-124642200D01*
G75*
G02*
X105377800Y-124564700I0J77500D01*
G01*
G37*
G04 #@! TD.AperFunction*
G04 #@! TA.AperFunction,SMDPad,CuDef*
G36*
G01*
X104827800Y-124564700D02*
X104827800Y-124379700D01*
G75*
G02*
X104905300Y-124302200I77500J0D01*
G01*
X105060300Y-124302200D01*
G75*
G02*
X105137800Y-124379700I0J-77500D01*
G01*
X105137800Y-124564700D01*
G75*
G02*
X105060300Y-124642200I-77500J0D01*
G01*
X104905300Y-124642200D01*
G75*
G02*
X104827800Y-124564700I0J77500D01*
G01*
G37*
G04 #@! TD.AperFunction*
G04 #@! TA.AperFunction,SMDPad,CuDef*
G36*
G01*
X110705600Y-130062900D02*
X110705600Y-129717900D01*
G75*
G02*
X110853100Y-129570400I147500J0D01*
G01*
X111148100Y-129570400D01*
G75*
G02*
X111295600Y-129717900I0J-147500D01*
G01*
X111295600Y-130062900D01*
G75*
G02*
X111148100Y-130210400I-147500J0D01*
G01*
X110853100Y-130210400D01*
G75*
G02*
X110705600Y-130062900I0J147500D01*
G01*
G37*
G04 #@! TD.AperFunction*
G04 #@! TA.AperFunction,SMDPad,CuDef*
G36*
G01*
X109735600Y-130062900D02*
X109735600Y-129717900D01*
G75*
G02*
X109883100Y-129570400I147500J0D01*
G01*
X110178100Y-129570400D01*
G75*
G02*
X110325600Y-129717900I0J-147500D01*
G01*
X110325600Y-130062900D01*
G75*
G02*
X110178100Y-130210400I-147500J0D01*
G01*
X109883100Y-130210400D01*
G75*
G02*
X109735600Y-130062900I0J147500D01*
G01*
G37*
G04 #@! TD.AperFunction*
G04 #@! TA.AperFunction,SMDPad,CuDef*
G36*
G01*
X105377800Y-125148900D02*
X105377800Y-124963900D01*
G75*
G02*
X105455300Y-124886400I77500J0D01*
G01*
X105610300Y-124886400D01*
G75*
G02*
X105687800Y-124963900I0J-77500D01*
G01*
X105687800Y-125148900D01*
G75*
G02*
X105610300Y-125226400I-77500J0D01*
G01*
X105455300Y-125226400D01*
G75*
G02*
X105377800Y-125148900I0J77500D01*
G01*
G37*
G04 #@! TD.AperFunction*
G04 #@! TA.AperFunction,SMDPad,CuDef*
G36*
G01*
X104827800Y-125148900D02*
X104827800Y-124963900D01*
G75*
G02*
X104905300Y-124886400I77500J0D01*
G01*
X105060300Y-124886400D01*
G75*
G02*
X105137800Y-124963900I0J-77500D01*
G01*
X105137800Y-125148900D01*
G75*
G02*
X105060300Y-125226400I-77500J0D01*
G01*
X104905300Y-125226400D01*
G75*
G02*
X104827800Y-125148900I0J77500D01*
G01*
G37*
G04 #@! TD.AperFunction*
G04 #@! TA.AperFunction,SMDPad,CuDef*
G36*
G01*
X106204600Y-124379700D02*
X106204600Y-124564700D01*
G75*
G02*
X106127100Y-124642200I-77500J0D01*
G01*
X105972100Y-124642200D01*
G75*
G02*
X105894600Y-124564700I0J77500D01*
G01*
X105894600Y-124379700D01*
G75*
G02*
X105972100Y-124302200I77500J0D01*
G01*
X106127100Y-124302200D01*
G75*
G02*
X106204600Y-124379700I0J-77500D01*
G01*
G37*
G04 #@! TD.AperFunction*
G04 #@! TA.AperFunction,SMDPad,CuDef*
G36*
G01*
X106754600Y-124379700D02*
X106754600Y-124564700D01*
G75*
G02*
X106677100Y-124642200I-77500J0D01*
G01*
X106522100Y-124642200D01*
G75*
G02*
X106444600Y-124564700I0J77500D01*
G01*
X106444600Y-124379700D01*
G75*
G02*
X106522100Y-124302200I77500J0D01*
G01*
X106677100Y-124302200D01*
G75*
G02*
X106754600Y-124379700I0J-77500D01*
G01*
G37*
G04 #@! TD.AperFunction*
G04 #@! TA.AperFunction,SMDPad,CuDef*
G36*
G01*
X101402100Y-124736000D02*
X101587100Y-124736000D01*
G75*
G02*
X101664600Y-124813500I0J-77500D01*
G01*
X101664600Y-124968500D01*
G75*
G02*
X101587100Y-125046000I-77500J0D01*
G01*
X101402100Y-125046000D01*
G75*
G02*
X101324600Y-124968500I0J77500D01*
G01*
X101324600Y-124813500D01*
G75*
G02*
X101402100Y-124736000I77500J0D01*
G01*
G37*
G04 #@! TD.AperFunction*
G04 #@! TA.AperFunction,SMDPad,CuDef*
G36*
G01*
X101402100Y-125286000D02*
X101587100Y-125286000D01*
G75*
G02*
X101664600Y-125363500I0J-77500D01*
G01*
X101664600Y-125518500D01*
G75*
G02*
X101587100Y-125596000I-77500J0D01*
G01*
X101402100Y-125596000D01*
G75*
G02*
X101324600Y-125518500I0J77500D01*
G01*
X101324600Y-125363500D01*
G75*
G02*
X101402100Y-125286000I77500J0D01*
G01*
G37*
G04 #@! TD.AperFunction*
D14*
X102975800Y-124531000D03*
X103475800Y-124531000D03*
X103975800Y-124531000D03*
D15*
X104025800Y-125731000D03*
D14*
X102975800Y-125731000D03*
X103475800Y-125731000D03*
D16*
X102875800Y-125131000D03*
X104075800Y-125131000D03*
G04 #@! TA.AperFunction,SMDPad,CuDef*
G36*
G01*
X100817900Y-124736000D02*
X101002900Y-124736000D01*
G75*
G02*
X101080400Y-124813500I0J-77500D01*
G01*
X101080400Y-124968500D01*
G75*
G02*
X101002900Y-125046000I-77500J0D01*
G01*
X100817900Y-125046000D01*
G75*
G02*
X100740400Y-124968500I0J77500D01*
G01*
X100740400Y-124813500D01*
G75*
G02*
X100817900Y-124736000I77500J0D01*
G01*
G37*
G04 #@! TD.AperFunction*
G04 #@! TA.AperFunction,SMDPad,CuDef*
G36*
G01*
X100817900Y-125286000D02*
X101002900Y-125286000D01*
G75*
G02*
X101080400Y-125363500I0J-77500D01*
G01*
X101080400Y-125518500D01*
G75*
G02*
X101002900Y-125596000I-77500J0D01*
G01*
X100817900Y-125596000D01*
G75*
G02*
X100740400Y-125518500I0J77500D01*
G01*
X100740400Y-125363500D01*
G75*
G02*
X100817900Y-125286000I77500J0D01*
G01*
G37*
G04 #@! TD.AperFunction*
G04 #@! TA.AperFunction,SMDPad,CuDef*
G36*
G01*
X114279900Y-113110000D02*
X114464900Y-113110000D01*
G75*
G02*
X114542400Y-113187500I0J-77500D01*
G01*
X114542400Y-113342500D01*
G75*
G02*
X114464900Y-113420000I-77500J0D01*
G01*
X114279900Y-113420000D01*
G75*
G02*
X114202400Y-113342500I0J77500D01*
G01*
X114202400Y-113187500D01*
G75*
G02*
X114279900Y-113110000I77500J0D01*
G01*
G37*
G04 #@! TD.AperFunction*
G04 #@! TA.AperFunction,SMDPad,CuDef*
G36*
G01*
X114279900Y-112560000D02*
X114464900Y-112560000D01*
G75*
G02*
X114542400Y-112637500I0J-77500D01*
G01*
X114542400Y-112792500D01*
G75*
G02*
X114464900Y-112870000I-77500J0D01*
G01*
X114279900Y-112870000D01*
G75*
G02*
X114202400Y-112792500I0J77500D01*
G01*
X114202400Y-112637500D01*
G75*
G02*
X114279900Y-112560000I77500J0D01*
G01*
G37*
G04 #@! TD.AperFunction*
G04 #@! TA.AperFunction,SMDPad,CuDef*
G36*
G01*
X114187400Y-114570200D02*
X114527400Y-114570200D01*
G75*
G02*
X114672400Y-114715200I0J-145000D01*
G01*
X114672400Y-115005200D01*
G75*
G02*
X114527400Y-115150200I-145000J0D01*
G01*
X114187400Y-115150200D01*
G75*
G02*
X114042400Y-115005200I0J145000D01*
G01*
X114042400Y-114715200D01*
G75*
G02*
X114187400Y-114570200I145000J0D01*
G01*
G37*
G04 #@! TD.AperFunction*
G04 #@! TA.AperFunction,SMDPad,CuDef*
G36*
G01*
X114187400Y-113680200D02*
X114527400Y-113680200D01*
G75*
G02*
X114672400Y-113825200I0J-145000D01*
G01*
X114672400Y-114115200D01*
G75*
G02*
X114527400Y-114260200I-145000J0D01*
G01*
X114187400Y-114260200D01*
G75*
G02*
X114042400Y-114115200I0J145000D01*
G01*
X114042400Y-113825200D01*
G75*
G02*
X114187400Y-113680200I145000J0D01*
G01*
G37*
G04 #@! TD.AperFunction*
D17*
X106234400Y-111680800D03*
X105734400Y-111680800D03*
X105234400Y-111680800D03*
X104734400Y-111680800D03*
X104234400Y-111680800D03*
X103734400Y-111680800D03*
X103234400Y-111680800D03*
X102734400Y-111680800D03*
X102234400Y-111680800D03*
X101734400Y-111680800D03*
X101234400Y-111680800D03*
X106234400Y-112180800D03*
X105734400Y-112180800D03*
X105234400Y-112180800D03*
X104734400Y-112180800D03*
X104234400Y-112180800D03*
X103734400Y-112180800D03*
X103234400Y-112180800D03*
X102734400Y-112180800D03*
X102234400Y-112180800D03*
X101734400Y-112180800D03*
X101234400Y-112180800D03*
X106234400Y-112680800D03*
X105734400Y-112680800D03*
X101734400Y-112680800D03*
X101234400Y-112680800D03*
X106234400Y-113180800D03*
X105734400Y-113180800D03*
X101734400Y-113180800D03*
X101234400Y-113180800D03*
X106234400Y-113680800D03*
X105734400Y-113680800D03*
X101734400Y-113680800D03*
X101234400Y-113680800D03*
X106234400Y-114180800D03*
X105734400Y-114180800D03*
X105234400Y-114180800D03*
X104734400Y-114180800D03*
X104234400Y-114180800D03*
X103734400Y-114180800D03*
X103234400Y-114180800D03*
X102734400Y-114180800D03*
X102234400Y-114180800D03*
X101734400Y-114180800D03*
X101234400Y-114180800D03*
X106234400Y-114680800D03*
X105734400Y-114680800D03*
X105234400Y-114680800D03*
X104734400Y-114680800D03*
X104234400Y-114680800D03*
X103734400Y-114680800D03*
X103234400Y-114680800D03*
X102734400Y-114680800D03*
X102234400Y-114680800D03*
X101734400Y-114680800D03*
X101234400Y-114680800D03*
X106234400Y-115180800D03*
X105734400Y-115180800D03*
X105234400Y-115180800D03*
X104734400Y-115180800D03*
X104234400Y-115180800D03*
X103734400Y-115180800D03*
X103234400Y-115180800D03*
X102734400Y-115180800D03*
X102234400Y-115180800D03*
X101734400Y-115180800D03*
X101234400Y-115180800D03*
D18*
X117684800Y-113627800D03*
D19*
X115934800Y-115962800D03*
X116434800Y-115962800D03*
X116934800Y-115962800D03*
X117434800Y-115962800D03*
X117934800Y-115962800D03*
X118434800Y-115962800D03*
X118934800Y-115962800D03*
X119434800Y-115962800D03*
D20*
X120019800Y-115377800D03*
X120019800Y-114877800D03*
X120019800Y-114377800D03*
X120019800Y-113877800D03*
X120019800Y-113377800D03*
X120019800Y-112877800D03*
X120019800Y-112377800D03*
X120019800Y-111877800D03*
D19*
X119434800Y-111292800D03*
X118934800Y-111292800D03*
X118434800Y-111292800D03*
X117934800Y-111292800D03*
X117434800Y-111292800D03*
X116934800Y-111292800D03*
X116434800Y-111292800D03*
X115934800Y-111292800D03*
D20*
X115349800Y-111877800D03*
X115349800Y-112377800D03*
X115349800Y-112877800D03*
X115349800Y-113377800D03*
X115349800Y-113877800D03*
X115349800Y-114377800D03*
X115349800Y-114877800D03*
X115349800Y-115377800D03*
G04 #@! TA.AperFunction,SMDPad,CuDef*
G36*
G01*
X102715200Y-128036000D02*
X102715200Y-128376000D01*
G75*
G02*
X102570200Y-128521000I-145000J0D01*
G01*
X102280200Y-128521000D01*
G75*
G02*
X102135200Y-128376000I0J145000D01*
G01*
X102135200Y-128036000D01*
G75*
G02*
X102280200Y-127891000I145000J0D01*
G01*
X102570200Y-127891000D01*
G75*
G02*
X102715200Y-128036000I0J-145000D01*
G01*
G37*
G04 #@! TD.AperFunction*
G04 #@! TA.AperFunction,SMDPad,CuDef*
G36*
G01*
X103605200Y-128036000D02*
X103605200Y-128376000D01*
G75*
G02*
X103460200Y-128521000I-145000J0D01*
G01*
X103170200Y-128521000D01*
G75*
G02*
X103025200Y-128376000I0J145000D01*
G01*
X103025200Y-128036000D01*
G75*
G02*
X103170200Y-127891000I145000J0D01*
G01*
X103460200Y-127891000D01*
G75*
G02*
X103605200Y-128036000I0J-145000D01*
G01*
G37*
G04 #@! TD.AperFunction*
G04 #@! TA.AperFunction,SMDPad,CuDef*
G36*
G01*
X104412600Y-128984300D02*
X104412600Y-128799300D01*
G75*
G02*
X104490100Y-128721800I77500J0D01*
G01*
X104645100Y-128721800D01*
G75*
G02*
X104722600Y-128799300I0J-77500D01*
G01*
X104722600Y-128984300D01*
G75*
G02*
X104645100Y-129061800I-77500J0D01*
G01*
X104490100Y-129061800D01*
G75*
G02*
X104412600Y-128984300I0J77500D01*
G01*
G37*
G04 #@! TD.AperFunction*
G04 #@! TA.AperFunction,SMDPad,CuDef*
G36*
G01*
X103862600Y-128984300D02*
X103862600Y-128799300D01*
G75*
G02*
X103940100Y-128721800I77500J0D01*
G01*
X104095100Y-128721800D01*
G75*
G02*
X104172600Y-128799300I0J-77500D01*
G01*
X104172600Y-128984300D01*
G75*
G02*
X104095100Y-129061800I-77500J0D01*
G01*
X103940100Y-129061800D01*
G75*
G02*
X103862600Y-128984300I0J77500D01*
G01*
G37*
G04 #@! TD.AperFunction*
G04 #@! TA.AperFunction,SMDPad,CuDef*
G36*
G01*
X104412600Y-129543100D02*
X104412600Y-129358100D01*
G75*
G02*
X104490100Y-129280600I77500J0D01*
G01*
X104645100Y-129280600D01*
G75*
G02*
X104722600Y-129358100I0J-77500D01*
G01*
X104722600Y-129543100D01*
G75*
G02*
X104645100Y-129620600I-77500J0D01*
G01*
X104490100Y-129620600D01*
G75*
G02*
X104412600Y-129543100I0J77500D01*
G01*
G37*
G04 #@! TD.AperFunction*
G04 #@! TA.AperFunction,SMDPad,CuDef*
G36*
G01*
X103862600Y-129543100D02*
X103862600Y-129358100D01*
G75*
G02*
X103940100Y-129280600I77500J0D01*
G01*
X104095100Y-129280600D01*
G75*
G02*
X104172600Y-129358100I0J-77500D01*
G01*
X104172600Y-129543100D01*
G75*
G02*
X104095100Y-129620600I-77500J0D01*
G01*
X103940100Y-129620600D01*
G75*
G02*
X103862600Y-129543100I0J77500D01*
G01*
G37*
G04 #@! TD.AperFunction*
G04 #@! TA.AperFunction,SMDPad,CuDef*
G36*
G01*
X103080400Y-128824700D02*
X103080400Y-129009700D01*
G75*
G02*
X103002900Y-129087200I-77500J0D01*
G01*
X102847900Y-129087200D01*
G75*
G02*
X102770400Y-129009700I0J77500D01*
G01*
X102770400Y-128824700D01*
G75*
G02*
X102847900Y-128747200I77500J0D01*
G01*
X103002900Y-128747200D01*
G75*
G02*
X103080400Y-128824700I0J-77500D01*
G01*
G37*
G04 #@! TD.AperFunction*
G04 #@! TA.AperFunction,SMDPad,CuDef*
G36*
G01*
X103630400Y-128824700D02*
X103630400Y-129009700D01*
G75*
G02*
X103552900Y-129087200I-77500J0D01*
G01*
X103397900Y-129087200D01*
G75*
G02*
X103320400Y-129009700I0J77500D01*
G01*
X103320400Y-128824700D01*
G75*
G02*
X103397900Y-128747200I77500J0D01*
G01*
X103552900Y-128747200D01*
G75*
G02*
X103630400Y-128824700I0J-77500D01*
G01*
G37*
G04 #@! TD.AperFunction*
G04 #@! TA.AperFunction,SMDPad,CuDef*
G36*
G01*
X103080400Y-129358100D02*
X103080400Y-129543100D01*
G75*
G02*
X103002900Y-129620600I-77500J0D01*
G01*
X102847900Y-129620600D01*
G75*
G02*
X102770400Y-129543100I0J77500D01*
G01*
X102770400Y-129358100D01*
G75*
G02*
X102847900Y-129280600I77500J0D01*
G01*
X103002900Y-129280600D01*
G75*
G02*
X103080400Y-129358100I0J-77500D01*
G01*
G37*
G04 #@! TD.AperFunction*
G04 #@! TA.AperFunction,SMDPad,CuDef*
G36*
G01*
X103630400Y-129358100D02*
X103630400Y-129543100D01*
G75*
G02*
X103552900Y-129620600I-77500J0D01*
G01*
X103397900Y-129620600D01*
G75*
G02*
X103320400Y-129543100I0J77500D01*
G01*
X103320400Y-129358100D01*
G75*
G02*
X103397900Y-129280600I77500J0D01*
G01*
X103552900Y-129280600D01*
G75*
G02*
X103630400Y-129358100I0J-77500D01*
G01*
G37*
G04 #@! TD.AperFunction*
G04 #@! TA.AperFunction,SMDPad,CuDef*
G36*
G01*
X108455600Y-126004000D02*
X108455600Y-126344000D01*
G75*
G02*
X108310600Y-126489000I-145000J0D01*
G01*
X108020600Y-126489000D01*
G75*
G02*
X107875600Y-126344000I0J145000D01*
G01*
X107875600Y-126004000D01*
G75*
G02*
X108020600Y-125859000I145000J0D01*
G01*
X108310600Y-125859000D01*
G75*
G02*
X108455600Y-126004000I0J-145000D01*
G01*
G37*
G04 #@! TD.AperFunction*
G04 #@! TA.AperFunction,SMDPad,CuDef*
G36*
G01*
X109345600Y-126004000D02*
X109345600Y-126344000D01*
G75*
G02*
X109200600Y-126489000I-145000J0D01*
G01*
X108910600Y-126489000D01*
G75*
G02*
X108765600Y-126344000I0J145000D01*
G01*
X108765600Y-126004000D01*
G75*
G02*
X108910600Y-125859000I145000J0D01*
G01*
X109200600Y-125859000D01*
G75*
G02*
X109345600Y-126004000I0J-145000D01*
G01*
G37*
G04 #@! TD.AperFunction*
G04 #@! TA.AperFunction,SMDPad,CuDef*
G36*
G01*
X108455600Y-125140400D02*
X108455600Y-125480400D01*
G75*
G02*
X108310600Y-125625400I-145000J0D01*
G01*
X108020600Y-125625400D01*
G75*
G02*
X107875600Y-125480400I0J145000D01*
G01*
X107875600Y-125140400D01*
G75*
G02*
X108020600Y-124995400I145000J0D01*
G01*
X108310600Y-124995400D01*
G75*
G02*
X108455600Y-125140400I0J-145000D01*
G01*
G37*
G04 #@! TD.AperFunction*
G04 #@! TA.AperFunction,SMDPad,CuDef*
G36*
G01*
X109345600Y-125140400D02*
X109345600Y-125480400D01*
G75*
G02*
X109200600Y-125625400I-145000J0D01*
G01*
X108910600Y-125625400D01*
G75*
G02*
X108765600Y-125480400I0J145000D01*
G01*
X108765600Y-125140400D01*
G75*
G02*
X108910600Y-124995400I145000J0D01*
G01*
X109200600Y-124995400D01*
G75*
G02*
X109345600Y-125140400I0J-145000D01*
G01*
G37*
G04 #@! TD.AperFunction*
G04 #@! TA.AperFunction,SMDPad,CuDef*
G36*
G01*
X106378000Y-128376000D02*
X106378000Y-128036000D01*
G75*
G02*
X106523000Y-127891000I145000J0D01*
G01*
X106813000Y-127891000D01*
G75*
G02*
X106958000Y-128036000I0J-145000D01*
G01*
X106958000Y-128376000D01*
G75*
G02*
X106813000Y-128521000I-145000J0D01*
G01*
X106523000Y-128521000D01*
G75*
G02*
X106378000Y-128376000I0J145000D01*
G01*
G37*
G04 #@! TD.AperFunction*
G04 #@! TA.AperFunction,SMDPad,CuDef*
G36*
G01*
X105488000Y-128376000D02*
X105488000Y-128036000D01*
G75*
G02*
X105633000Y-127891000I145000J0D01*
G01*
X105923000Y-127891000D01*
G75*
G02*
X106068000Y-128036000I0J-145000D01*
G01*
X106068000Y-128376000D01*
G75*
G02*
X105923000Y-128521000I-145000J0D01*
G01*
X105633000Y-128521000D01*
G75*
G02*
X105488000Y-128376000I0J145000D01*
G01*
G37*
G04 #@! TD.AperFunction*
G04 #@! TA.AperFunction,SMDPad,CuDef*
G36*
G01*
X108516000Y-124481300D02*
X108516000Y-124666300D01*
G75*
G02*
X108438500Y-124743800I-77500J0D01*
G01*
X108283500Y-124743800D01*
G75*
G02*
X108206000Y-124666300I0J77500D01*
G01*
X108206000Y-124481300D01*
G75*
G02*
X108283500Y-124403800I77500J0D01*
G01*
X108438500Y-124403800D01*
G75*
G02*
X108516000Y-124481300I0J-77500D01*
G01*
G37*
G04 #@! TD.AperFunction*
G04 #@! TA.AperFunction,SMDPad,CuDef*
G36*
G01*
X109066000Y-124481300D02*
X109066000Y-124666300D01*
G75*
G02*
X108988500Y-124743800I-77500J0D01*
G01*
X108833500Y-124743800D01*
G75*
G02*
X108756000Y-124666300I0J77500D01*
G01*
X108756000Y-124481300D01*
G75*
G02*
X108833500Y-124403800I77500J0D01*
G01*
X108988500Y-124403800D01*
G75*
G02*
X109066000Y-124481300I0J-77500D01*
G01*
G37*
G04 #@! TD.AperFunction*
G04 #@! TA.AperFunction,SMDPad,CuDef*
G36*
G01*
X104701600Y-128350600D02*
X104701600Y-128010600D01*
G75*
G02*
X104846600Y-127865600I145000J0D01*
G01*
X105136600Y-127865600D01*
G75*
G02*
X105281600Y-128010600I0J-145000D01*
G01*
X105281600Y-128350600D01*
G75*
G02*
X105136600Y-128495600I-145000J0D01*
G01*
X104846600Y-128495600D01*
G75*
G02*
X104701600Y-128350600I0J145000D01*
G01*
G37*
G04 #@! TD.AperFunction*
G04 #@! TA.AperFunction,SMDPad,CuDef*
G36*
G01*
X103811600Y-128350600D02*
X103811600Y-128010600D01*
G75*
G02*
X103956600Y-127865600I145000J0D01*
G01*
X104246600Y-127865600D01*
G75*
G02*
X104391600Y-128010600I0J-145000D01*
G01*
X104391600Y-128350600D01*
G75*
G02*
X104246600Y-128495600I-145000J0D01*
G01*
X103956600Y-128495600D01*
G75*
G02*
X103811600Y-128350600I0J145000D01*
G01*
G37*
G04 #@! TD.AperFunction*
G04 #@! TA.AperFunction,SMDPad,CuDef*
G36*
G01*
X105911200Y-129009700D02*
X105911200Y-128824700D01*
G75*
G02*
X105988700Y-128747200I77500J0D01*
G01*
X106143700Y-128747200D01*
G75*
G02*
X106221200Y-128824700I0J-77500D01*
G01*
X106221200Y-129009700D01*
G75*
G02*
X106143700Y-129087200I-77500J0D01*
G01*
X105988700Y-129087200D01*
G75*
G02*
X105911200Y-129009700I0J77500D01*
G01*
G37*
G04 #@! TD.AperFunction*
G04 #@! TA.AperFunction,SMDPad,CuDef*
G36*
G01*
X105361200Y-129009700D02*
X105361200Y-128824700D01*
G75*
G02*
X105438700Y-128747200I77500J0D01*
G01*
X105593700Y-128747200D01*
G75*
G02*
X105671200Y-128824700I0J-77500D01*
G01*
X105671200Y-129009700D01*
G75*
G02*
X105593700Y-129087200I-77500J0D01*
G01*
X105438700Y-129087200D01*
G75*
G02*
X105361200Y-129009700I0J77500D01*
G01*
G37*
G04 #@! TD.AperFunction*
G04 #@! TA.AperFunction,SMDPad,CuDef*
G36*
G01*
X109582800Y-124481300D02*
X109582800Y-124666300D01*
G75*
G02*
X109505300Y-124743800I-77500J0D01*
G01*
X109350300Y-124743800D01*
G75*
G02*
X109272800Y-124666300I0J77500D01*
G01*
X109272800Y-124481300D01*
G75*
G02*
X109350300Y-124403800I77500J0D01*
G01*
X109505300Y-124403800D01*
G75*
G02*
X109582800Y-124481300I0J-77500D01*
G01*
G37*
G04 #@! TD.AperFunction*
G04 #@! TA.AperFunction,SMDPad,CuDef*
G36*
G01*
X110132800Y-124481300D02*
X110132800Y-124666300D01*
G75*
G02*
X110055300Y-124743800I-77500J0D01*
G01*
X109900300Y-124743800D01*
G75*
G02*
X109822800Y-124666300I0J77500D01*
G01*
X109822800Y-124481300D01*
G75*
G02*
X109900300Y-124403800I77500J0D01*
G01*
X110055300Y-124403800D01*
G75*
G02*
X110132800Y-124481300I0J-77500D01*
G01*
G37*
G04 #@! TD.AperFunction*
G04 #@! TA.AperFunction,SMDPad,CuDef*
G36*
G01*
X101988200Y-129383500D02*
X101988200Y-129568500D01*
G75*
G02*
X101910700Y-129646000I-77500J0D01*
G01*
X101755700Y-129646000D01*
G75*
G02*
X101678200Y-129568500I0J77500D01*
G01*
X101678200Y-129383500D01*
G75*
G02*
X101755700Y-129306000I77500J0D01*
G01*
X101910700Y-129306000D01*
G75*
G02*
X101988200Y-129383500I0J-77500D01*
G01*
G37*
G04 #@! TD.AperFunction*
G04 #@! TA.AperFunction,SMDPad,CuDef*
G36*
G01*
X102538200Y-129383500D02*
X102538200Y-129568500D01*
G75*
G02*
X102460700Y-129646000I-77500J0D01*
G01*
X102305700Y-129646000D01*
G75*
G02*
X102228200Y-129568500I0J77500D01*
G01*
X102228200Y-129383500D01*
G75*
G02*
X102305700Y-129306000I77500J0D01*
G01*
X102460700Y-129306000D01*
G75*
G02*
X102538200Y-129383500I0J-77500D01*
G01*
G37*
G04 #@! TD.AperFunction*
G04 #@! TA.AperFunction,SMDPad,CuDef*
G36*
G01*
X104803200Y-96628100D02*
X104803200Y-95773100D01*
G75*
G02*
X105035700Y-95540600I232500J0D01*
G01*
X105500700Y-95540600D01*
G75*
G02*
X105733200Y-95773100I0J-232500D01*
G01*
X105733200Y-96628100D01*
G75*
G02*
X105500700Y-96860600I-232500J0D01*
G01*
X105035700Y-96860600D01*
G75*
G02*
X104803200Y-96628100I0J232500D01*
G01*
G37*
G04 #@! TD.AperFunction*
G04 #@! TA.AperFunction,SMDPad,CuDef*
G36*
G01*
X103163200Y-96628100D02*
X103163200Y-95773100D01*
G75*
G02*
X103395700Y-95540600I232500J0D01*
G01*
X103860700Y-95540600D01*
G75*
G02*
X104093200Y-95773100I0J-232500D01*
G01*
X104093200Y-96628100D01*
G75*
G02*
X103860700Y-96860600I-232500J0D01*
G01*
X103395700Y-96860600D01*
G75*
G02*
X103163200Y-96628100I0J232500D01*
G01*
G37*
G04 #@! TD.AperFunction*
G04 #@! TA.AperFunction,SMDPad,CuDef*
G36*
G01*
X103560600Y-94616900D02*
X103560600Y-95091900D01*
G75*
G02*
X103338100Y-95314400I-222500J0D01*
G01*
X102893100Y-95314400D01*
G75*
G02*
X102670600Y-95091900I0J222500D01*
G01*
X102670600Y-94616900D01*
G75*
G02*
X102893100Y-94394400I222500J0D01*
G01*
X103338100Y-94394400D01*
G75*
G02*
X103560600Y-94616900I0J-222500D01*
G01*
G37*
G04 #@! TD.AperFunction*
G04 #@! TA.AperFunction,SMDPad,CuDef*
G36*
G01*
X104890600Y-94616900D02*
X104890600Y-95091900D01*
G75*
G02*
X104668100Y-95314400I-222500J0D01*
G01*
X104223100Y-95314400D01*
G75*
G02*
X104000600Y-95091900I0J222500D01*
G01*
X104000600Y-94616900D01*
G75*
G02*
X104223100Y-94394400I222500J0D01*
G01*
X104668100Y-94394400D01*
G75*
G02*
X104890600Y-94616900I0J-222500D01*
G01*
G37*
G04 #@! TD.AperFunction*
G04 #@! TA.AperFunction,SMDPad,CuDef*
G36*
G01*
X104030200Y-93943900D02*
X104030200Y-93478900D01*
G75*
G02*
X104232700Y-93276400I202500J0D01*
G01*
X104637700Y-93276400D01*
G75*
G02*
X104840200Y-93478900I0J-202500D01*
G01*
X104840200Y-93943900D01*
G75*
G02*
X104637700Y-94146400I-202500J0D01*
G01*
X104232700Y-94146400D01*
G75*
G02*
X104030200Y-93943900I0J202500D01*
G01*
G37*
G04 #@! TD.AperFunction*
G04 #@! TA.AperFunction,SMDPad,CuDef*
G36*
G01*
X102670200Y-93943900D02*
X102670200Y-93478900D01*
G75*
G02*
X102872700Y-93276400I202500J0D01*
G01*
X103277700Y-93276400D01*
G75*
G02*
X103480200Y-93478900I0J-202500D01*
G01*
X103480200Y-93943900D01*
G75*
G02*
X103277700Y-94146400I-202500J0D01*
G01*
X102872700Y-94146400D01*
G75*
G02*
X102670200Y-93943900I0J202500D01*
G01*
G37*
G04 #@! TD.AperFunction*
D21*
X101901000Y-96290800D03*
X101901000Y-94230800D03*
D22*
X102967800Y-98080200D03*
X102459800Y-100213800D03*
X101824800Y-97191200D03*
X101901000Y-99588200D03*
X104441000Y-98072204D03*
X105380800Y-101225400D03*
X108153200Y-125282200D03*
X109423200Y-124571000D03*
X110042800Y-127500000D03*
X109792800Y-128500000D03*
X101833200Y-129476000D03*
X103805272Y-126232072D03*
X104991600Y-128180600D03*
X115450200Y-115976100D03*
X106854008Y-110111800D03*
X110515400Y-124494800D03*
X117238200Y-110373800D03*
X107268800Y-124573800D03*
X107010200Y-129295400D03*
X101734400Y-114680800D03*
X102234400Y-115180800D03*
X103727105Y-115714263D03*
X101172800Y-127850400D03*
X108153200Y-126171200D03*
X102425200Y-128206000D03*
X106234400Y-115180800D03*
X103729800Y-110162600D03*
X105990400Y-126740800D03*
X103803210Y-116715800D03*
X106041200Y-125597800D03*
X117862700Y-113338600D03*
X116963200Y-116749200D03*
X104736800Y-126948400D03*
X102409000Y-124691400D03*
X99774000Y-111621200D03*
X101729600Y-115758600D03*
X104734400Y-111680800D03*
X101734400Y-114180800D03*
X106234400Y-112180800D03*
X100000000Y-125215199D03*
X118588800Y-112378800D03*
D23*
X104234400Y-111680800D03*
D22*
X115109000Y-110653200D03*
X101323400Y-110300400D03*
X105584175Y-96353175D03*
X105330000Y-94355802D03*
X116154800Y-110378800D03*
X110000000Y-123859988D03*
X115349800Y-112877800D03*
X115349800Y-113877800D03*
X101346000Y-128914400D03*
X100123002Y-115199800D03*
X104017600Y-129450600D03*
X104978200Y-125064400D03*
X107253800Y-112992800D03*
X106512389Y-123949248D03*
X108149400Y-129707400D03*
X120188996Y-112380400D03*
X105734400Y-115180800D03*
X101734400Y-115180800D03*
X101323400Y-110960800D03*
X105234400Y-111680800D03*
X114956600Y-116469800D03*
X103234400Y-112180800D03*
X118919000Y-110551600D03*
X120189000Y-116106199D03*
X119604804Y-110492800D03*
X102734400Y-112180800D03*
X115349800Y-115361998D03*
X107412800Y-115572800D03*
X102734400Y-114180800D03*
X118769390Y-116698400D03*
X120039390Y-116673000D03*
X102234400Y-114180800D03*
X119833400Y-115377600D03*
X100656400Y-113642400D03*
X105380800Y-100675400D03*
X105533200Y-99091800D03*
X103454800Y-96327600D03*
X107818800Y-124573800D03*
X106234400Y-112680800D03*
X100910400Y-125441000D03*
X102237800Y-110066210D03*
X102234400Y-112180800D03*
X116688200Y-110378800D03*
X101234400Y-114680800D03*
X105734400Y-111680800D03*
X120112800Y-110035600D03*
X99716600Y-112245400D03*
X107235000Y-116487200D03*
D23*
X107387400Y-110111800D03*
D22*
X115349800Y-111867190D03*
X100377000Y-123548400D03*
X99799400Y-110960800D03*
X99183200Y-116741200D03*
X109343200Y-123853200D03*
X99386400Y-125699400D03*
X118360200Y-110475400D03*
X105533200Y-97644000D03*
X105126810Y-99545400D03*
X101977200Y-94533606D03*
X103653600Y-97240200D03*
X102180400Y-95752780D03*
X101723200Y-95092398D03*
X105787200Y-94101800D03*
X101175400Y-115736000D03*
X103734400Y-114680800D03*
X105734400Y-114680800D03*
X103734400Y-111680800D03*
X102358198Y-125199400D03*
X102586800Y-116444400D03*
X103234400Y-114680800D03*
X103145598Y-115826800D03*
X102307400Y-125707400D03*
X103272600Y-110518200D03*
X99310200Y-109654600D03*
X101234400Y-113180800D03*
X105234400Y-112180800D03*
X109542800Y-129500000D03*
X110029000Y-129941200D03*
X103475400Y-129450600D03*
X102383200Y-129476000D03*
X105516200Y-129450600D03*
X101722800Y-128409200D03*
X119533132Y-116770068D03*
X120239800Y-111339000D03*
X102734400Y-114680800D03*
X103153600Y-97240200D03*
X117801400Y-110399200D03*
X102536000Y-123726200D03*
X103234400Y-114180800D03*
X101977200Y-123728999D03*
X103734400Y-114180800D03*
X100046800Y-115953800D03*
X106015800Y-123972200D03*
X104234400Y-114680800D03*
X105507800Y-124023000D03*
X104263192Y-115631600D03*
X107598768Y-125301168D03*
X104234400Y-114180800D03*
X106727000Y-116309400D03*
X107285800Y-125699400D03*
X104734400Y-114680800D03*
X103704402Y-116190400D03*
X101678614Y-126152184D03*
X104734400Y-114180800D03*
X107071800Y-126198400D03*
X105234400Y-114198410D03*
X107412800Y-127198000D03*
X104127250Y-116365400D03*
X107184200Y-126698000D03*
X107477028Y-127667172D03*
X105234400Y-114680800D03*
X101671800Y-127212600D03*
X118284000Y-116698400D03*
X115566200Y-116631600D03*
X117776000Y-116673004D03*
X101469198Y-126639200D03*
X103526600Y-100899600D03*
X100910400Y-124891000D03*
X105350967Y-95176325D03*
X103933000Y-101153600D03*
X101494600Y-124891000D03*
X105750000Y-94750000D03*
D24*
X103300000Y-99750000D02*
X102923600Y-99750000D01*
X102923600Y-99750000D02*
X102459800Y-100213800D01*
X103734400Y-112180800D02*
X103234400Y-111680800D01*
X101734400Y-112232654D02*
X102053400Y-112551654D01*
X102234400Y-114680800D02*
X102234400Y-115180800D01*
X103734400Y-115706968D02*
X103727105Y-115714263D01*
X103734400Y-112180800D02*
X104734400Y-112180800D01*
X101734400Y-113680800D02*
X101734400Y-113180800D01*
X101734400Y-114180800D02*
X101734400Y-114180800D01*
X101734400Y-114180800D02*
X101734400Y-113680800D01*
X104734400Y-112180800D02*
X104734400Y-111680800D01*
X103734400Y-115180800D02*
X103734400Y-115706968D01*
X102053400Y-112861800D02*
X101859399Y-113055801D01*
X102053400Y-112551654D02*
X102053400Y-112861800D01*
X101859399Y-113055801D02*
X101734400Y-113180800D01*
X101734400Y-112180800D02*
X101734400Y-112232654D01*
X105532800Y-125056400D02*
X105532800Y-125249800D01*
D25*
X100962870Y-126178069D02*
X100962870Y-127640470D01*
D24*
X120019800Y-113877800D02*
X118122500Y-113877800D01*
X114485200Y-113377800D02*
X114372400Y-113265000D01*
X115349800Y-113377800D02*
X117434800Y-113377800D01*
X117684800Y-113767000D02*
X117684800Y-113627800D01*
X118122500Y-113877800D02*
X117862700Y-113618000D01*
X102583999Y-124866399D02*
X102409000Y-124691400D01*
X106049600Y-125589400D02*
X106041200Y-125597800D01*
X117074000Y-114377800D02*
X117684800Y-113767000D01*
X115349800Y-114377800D02*
X117074000Y-114377800D01*
X114450000Y-114860200D02*
X114932400Y-114377800D01*
X114932400Y-114377800D02*
X115349800Y-114377800D01*
D26*
X108361000Y-124573800D02*
X108361000Y-125115000D01*
D24*
X106049600Y-125056400D02*
X106049600Y-125589400D01*
X114357400Y-114860200D02*
X114450000Y-114860200D01*
X105880800Y-125597800D02*
X106041200Y-125597800D01*
X117862700Y-113618000D02*
X117862700Y-113338600D01*
X105532800Y-125249800D02*
X105880800Y-125597800D01*
X102848600Y-125131000D02*
X102583999Y-124866399D01*
X102875800Y-125131000D02*
X102848600Y-125131000D01*
X117434800Y-113377800D02*
X117684800Y-113627800D01*
X115349800Y-113377800D02*
X114485200Y-113377800D01*
D25*
X100000000Y-125215199D02*
X100962870Y-126178069D01*
D26*
X108361000Y-125115000D02*
X108165600Y-125310400D01*
D25*
X100962870Y-127640470D02*
X101172800Y-127850400D01*
D24*
X105532800Y-125056400D02*
X105532800Y-124472200D01*
X106066200Y-128917200D02*
X106066200Y-129450600D01*
X102925400Y-128706200D02*
X102425200Y-128206000D01*
X106066200Y-129450600D02*
X106855000Y-129450600D01*
X104991600Y-128180600D02*
X104991600Y-128467800D01*
X102925400Y-128917200D02*
X102925400Y-128706200D01*
X106855000Y-129450600D02*
X107010200Y-129295400D01*
X106049600Y-125056400D02*
X106049600Y-124472200D01*
X106668000Y-128315400D02*
X106066200Y-128917200D01*
X104991600Y-128467800D02*
X104567600Y-128891800D01*
X104567600Y-129450600D02*
X104567600Y-128891800D01*
X106668000Y-128206000D02*
X106668000Y-128315400D01*
X102925400Y-128917200D02*
X102925400Y-129450600D01*
X104685598Y-93711400D02*
X105330000Y-94355802D01*
X104435200Y-93711400D02*
X104685598Y-93711400D01*
X116674400Y-117038000D02*
X116963200Y-116749200D01*
X116450800Y-117038000D02*
X116674400Y-117038000D01*
D26*
X102391600Y-127367800D02*
X102967800Y-126791600D01*
D24*
X104982800Y-125056400D02*
X104982800Y-124472200D01*
X106599600Y-124036459D02*
X106512389Y-123949248D01*
D26*
X102334400Y-127367800D02*
X102391600Y-127367800D01*
D24*
X106599600Y-124472200D02*
X106599600Y-124036459D01*
X115349800Y-113877800D02*
X114449800Y-113877800D01*
X114418800Y-112761400D02*
X114372400Y-112715000D01*
X102975800Y-124621000D02*
X102975800Y-124531000D01*
D26*
X104487610Y-126232810D02*
X104025800Y-125771000D01*
D24*
X104025800Y-125671000D02*
X102975800Y-124621000D01*
X114819000Y-112877800D02*
X114702600Y-112761400D01*
X114449800Y-113877800D02*
X114357400Y-113970200D01*
D25*
X109977800Y-123882188D02*
X110000000Y-123859988D01*
D24*
X115349800Y-112877800D02*
X114819000Y-112877800D01*
D26*
X104101600Y-127290400D02*
X104101600Y-127765600D01*
X106733400Y-126925000D02*
X106041210Y-126232810D01*
X106733400Y-127458400D02*
X107463600Y-128188600D01*
X104025800Y-125771000D02*
X104025800Y-125731000D01*
X107865238Y-129707400D02*
X108149400Y-129707400D01*
D24*
X104025800Y-125731000D02*
X104025800Y-125671000D01*
D26*
X107463600Y-129305762D02*
X107865238Y-129707400D01*
X106041210Y-126232810D02*
X104487610Y-126232810D01*
D25*
X110008389Y-123851599D02*
X110000000Y-123859988D01*
D26*
X106733400Y-127367800D02*
X106733400Y-127458400D01*
D25*
X110861801Y-123851599D02*
X110008389Y-123851599D01*
X111023600Y-124475600D02*
X111023600Y-124013398D01*
X111023600Y-124013398D02*
X110861801Y-123851599D01*
D26*
X104101600Y-127765600D02*
X104101600Y-128180600D01*
D24*
X114702600Y-112761400D02*
X114418800Y-112761400D01*
D26*
X103602800Y-126791600D02*
X104101600Y-127290400D01*
X102967800Y-126791600D02*
X103602800Y-126791600D01*
X107463600Y-128188600D02*
X107463600Y-129305762D01*
X106733400Y-127367800D02*
X106733400Y-126925000D01*
D25*
X105234400Y-111504024D02*
X105234400Y-111680800D01*
X105779478Y-111000800D02*
X106676200Y-111000800D01*
X101338000Y-110975400D02*
X104705776Y-110975400D01*
X104705776Y-110975400D02*
X105234400Y-111504024D01*
X100148400Y-115174402D02*
X100148400Y-112135800D01*
X100123002Y-115199800D02*
X100148400Y-115174402D01*
X105234400Y-111545878D02*
X105779478Y-111000800D01*
X101323400Y-110960800D02*
X101338000Y-110975400D01*
X107235000Y-112974000D02*
X107253800Y-112992800D01*
X106676200Y-111000800D02*
X107235000Y-111559600D01*
X100148400Y-112135800D02*
X101323400Y-110960800D01*
X105234400Y-111680800D02*
X105234400Y-111545878D01*
X107235000Y-111559600D02*
X107235000Y-112974000D01*
D24*
X101348800Y-128917200D02*
X101346000Y-128914400D01*
X106599600Y-125056400D02*
X106599600Y-124472200D01*
X104101600Y-128807800D02*
X104017600Y-128891800D01*
X101833200Y-128917200D02*
X101348800Y-128917200D01*
D25*
X109977800Y-124573800D02*
X109977800Y-123882188D01*
D24*
X101172800Y-128741200D02*
X101346000Y-128914400D01*
X101172800Y-128409200D02*
X101172800Y-128741200D01*
X104101600Y-128180600D02*
X104101600Y-128807800D01*
X104017600Y-129450600D02*
X104017600Y-128891800D01*
X114711400Y-116715000D02*
X114956600Y-116469800D01*
X114711400Y-117038000D02*
X114711400Y-116715000D01*
X118934800Y-110567400D02*
X118919000Y-110551600D01*
X118934800Y-111292800D02*
X118934800Y-110567400D01*
X120130200Y-117155600D02*
X120392200Y-116893600D01*
X120363999Y-116281198D02*
X120189000Y-116106199D01*
X117397798Y-115925602D02*
X117397798Y-116896398D01*
X120392200Y-116893600D02*
X120392200Y-116309399D01*
X117434800Y-115962800D02*
X117434800Y-115888600D01*
X120392200Y-116309399D02*
X120363999Y-116281198D01*
X117434800Y-115888600D02*
X117397798Y-115925602D01*
X117657000Y-117155600D02*
X120130200Y-117155600D01*
X117397798Y-116896398D02*
X117657000Y-117155600D01*
X119434800Y-111292800D02*
X119434800Y-110662804D01*
X119434800Y-110662804D02*
X119604804Y-110492800D01*
X102734400Y-115264800D02*
X102139001Y-115860199D01*
X104618800Y-117147600D02*
X106193600Y-115572800D01*
X102663000Y-117147600D02*
X104618800Y-117147600D01*
X102139001Y-115860199D02*
X102139001Y-116623601D01*
X106193600Y-115572800D02*
X107412800Y-115572800D01*
X102734400Y-115180800D02*
X102734400Y-115264800D01*
X102139001Y-116623601D02*
X102663000Y-117147600D01*
X115349800Y-115377800D02*
X115349800Y-115361998D01*
X118934800Y-116532990D02*
X118769390Y-116698400D01*
X118934800Y-115962800D02*
X118934800Y-116532990D01*
X119434800Y-115962800D02*
X119434800Y-116172800D01*
X119935000Y-116673000D02*
X120039390Y-116673000D01*
X119434800Y-116172800D02*
X119935000Y-116673000D01*
X100696000Y-113642400D02*
X100656400Y-113642400D01*
X101234400Y-114180800D02*
X100696000Y-113642400D01*
X103628200Y-95671800D02*
X103628200Y-96200600D01*
X104445600Y-94854400D02*
X103628200Y-95671800D01*
X104075800Y-125131000D02*
X104165800Y-125131000D01*
X104988200Y-125953400D02*
X106439200Y-125953400D01*
D25*
X111136200Y-123413400D02*
X108208200Y-123413400D01*
X111523600Y-124475600D02*
X111523600Y-123800800D01*
X108208200Y-123413400D02*
X107818800Y-123802800D01*
D24*
X100910400Y-125441000D02*
X101494600Y-125441000D01*
X106439200Y-125953400D02*
X107608870Y-124783730D01*
X104165800Y-125131000D02*
X104988200Y-125953400D01*
D25*
X111523600Y-123800800D02*
X111136200Y-123413400D01*
X107818800Y-124573800D02*
X107818800Y-124573800D01*
D24*
X107608870Y-124783730D02*
X107818800Y-124573800D01*
D25*
X107818800Y-123802800D02*
X107818800Y-124573800D01*
D24*
X105734400Y-111680800D02*
X106234400Y-111680800D01*
D27*
X99220572Y-111539628D02*
X99799400Y-110960800D01*
X108911000Y-124573800D02*
X108911000Y-124285400D01*
X108911000Y-124285400D02*
X109343200Y-123853200D01*
X99220572Y-116703828D02*
X99220572Y-111539628D01*
D26*
X99386400Y-124539000D02*
X100377000Y-123548400D01*
X99386400Y-125699400D02*
X99386400Y-124539000D01*
D24*
X117934800Y-111292800D02*
X117934800Y-110900800D01*
X117934800Y-110900800D02*
X118360200Y-110475400D01*
X105126810Y-99297913D02*
X105126810Y-99545400D01*
X105533200Y-97644000D02*
X105126810Y-98050390D01*
X105126810Y-98050390D02*
X105126810Y-99297913D01*
X102231194Y-94533606D02*
X102224687Y-94533606D01*
X103075200Y-93711400D02*
X103053400Y-93711400D01*
X103053400Y-93711400D02*
X102231194Y-94533606D01*
D28*
X101901000Y-94457406D02*
X101977200Y-94533606D01*
X101901000Y-94230800D02*
X101901000Y-94457406D01*
D24*
X102231194Y-94533606D02*
X101977200Y-94533606D01*
X103653600Y-97916546D02*
X104000000Y-98262946D01*
X103653600Y-97240200D02*
X103653600Y-97916546D01*
X104000000Y-98262946D02*
X104000000Y-98847600D01*
X104000000Y-98847600D02*
X104000000Y-99750000D01*
X102217220Y-95752780D02*
X102180400Y-95752780D01*
X101901000Y-96290800D02*
X101901000Y-96032180D01*
X101901000Y-96032180D02*
X102005401Y-95927779D01*
X103115600Y-94854400D02*
X102217220Y-95752780D01*
X102005401Y-95927779D02*
X102180400Y-95752780D01*
X101234400Y-115677000D02*
X101175400Y-115736000D01*
X101234400Y-115180800D02*
X101234400Y-115677000D01*
X103234400Y-115737998D02*
X103145598Y-115826800D01*
X103234400Y-115180800D02*
X103234400Y-115737998D01*
X100994600Y-109654600D02*
X99310200Y-109654600D01*
X103272600Y-110518200D02*
X102391600Y-109637200D01*
X101012000Y-109637200D02*
X100994600Y-109654600D01*
X102391600Y-109637200D02*
X101012000Y-109637200D01*
D25*
X111380200Y-128129800D02*
X111380200Y-129553600D01*
X111380200Y-129553600D02*
X111000600Y-129933200D01*
X111120800Y-127870400D02*
X111380200Y-128129800D01*
X111120800Y-126377200D02*
X111120800Y-127870400D01*
X109542800Y-129500000D02*
X109587800Y-129500000D01*
X109587800Y-129500000D02*
X110029000Y-129941200D01*
D24*
X103315200Y-127378600D02*
X103304400Y-127367800D01*
X103475400Y-128366200D02*
X103315200Y-128206000D01*
X103475400Y-128917200D02*
X103475400Y-129450600D01*
X103475400Y-128917200D02*
X103475400Y-128366200D01*
X103315200Y-128206000D02*
X103315200Y-127378600D01*
X102383200Y-128917200D02*
X102383200Y-129476000D01*
X105516200Y-128917200D02*
X105516200Y-129450600D01*
X105763400Y-128191400D02*
X105778000Y-128206000D01*
X105763400Y-127367800D02*
X105763400Y-128191400D01*
X105516200Y-128467800D02*
X105778000Y-128206000D01*
X105516200Y-128917200D02*
X105516200Y-128467800D01*
X101722800Y-127850400D02*
X101722800Y-128409200D01*
X120019800Y-111559000D02*
X120064801Y-111513999D01*
X120064801Y-111513999D02*
X120239800Y-111339000D01*
X120019800Y-111877800D02*
X120019800Y-111559000D01*
X117434800Y-110765800D02*
X117801400Y-110399200D01*
X117434800Y-111292800D02*
X117434800Y-110765800D01*
D26*
X104234400Y-115602808D02*
X104263192Y-115631600D01*
X104234400Y-115180800D02*
X104234400Y-115602808D01*
D24*
X103780600Y-116190400D02*
X103704402Y-116190400D01*
X104734400Y-115736600D02*
X104466400Y-116004600D01*
X104466400Y-116004600D02*
X103966400Y-116004600D01*
X103966400Y-116004600D02*
X103780600Y-116190400D01*
X104734400Y-115180800D02*
X104734400Y-115736600D01*
X105234400Y-115617600D02*
X104486600Y-116365400D01*
X105234400Y-115180800D02*
X105234400Y-115617600D01*
X104486600Y-116365400D02*
X104127250Y-116365400D01*
X101846799Y-127037601D02*
X101671800Y-127212600D01*
X102219800Y-126664600D02*
X101846799Y-127037601D01*
X103475800Y-125821000D02*
X102632200Y-126664600D01*
X103475800Y-125731000D02*
X103475800Y-125821000D01*
X118434800Y-116547600D02*
X118284000Y-116698400D01*
X118434800Y-115962800D02*
X118434800Y-116547600D01*
X102632200Y-126664600D02*
X102219800Y-126664600D01*
X115900800Y-117038000D02*
X115261400Y-117038000D01*
X115896400Y-116809400D02*
X115896400Y-117033600D01*
X115896400Y-117033600D02*
X115900800Y-117038000D01*
X115617000Y-116631600D02*
X115718600Y-116631600D01*
X115718600Y-116631600D02*
X115896400Y-116809400D01*
X115566200Y-116631600D02*
X115718600Y-116631600D01*
X101782000Y-126639200D02*
X101469198Y-126639200D01*
X102975800Y-125731000D02*
X102975800Y-125843800D01*
X117776000Y-116614000D02*
X117776000Y-116673004D01*
X102975800Y-125843800D02*
X102477200Y-126342400D01*
X117934800Y-115962800D02*
X117934800Y-116455200D01*
X102078800Y-126342400D02*
X101782000Y-126639200D01*
X117934800Y-116455200D02*
X117776000Y-116614000D01*
X102477200Y-126342400D02*
X102078800Y-126342400D01*
X100910400Y-124891000D02*
X100910400Y-124234200D01*
X100910400Y-124234200D02*
X101850200Y-123294400D01*
X103975800Y-124353200D02*
X103975800Y-124531000D01*
X102917000Y-123294400D02*
X103975800Y-124353200D01*
X101850200Y-123294400D02*
X102917000Y-123294400D01*
X103182042Y-124107200D02*
X103232842Y-124158000D01*
X101494600Y-124891000D02*
X101494600Y-124425000D01*
X103475800Y-124378600D02*
X103475800Y-124531000D01*
X101494600Y-124425000D02*
X101812400Y-124107200D01*
X101812400Y-124107200D02*
X103182042Y-124107200D01*
X103232842Y-124158000D02*
X103255200Y-124158000D01*
X103255200Y-124158000D02*
X103475800Y-124378600D01*
G36*
X102765510Y-97122474D02*
G01*
X102750000Y-97200449D01*
X102750000Y-97279951D01*
X102765510Y-97357926D01*
X102795934Y-97431376D01*
X102840103Y-97497480D01*
X102896320Y-97553697D01*
X102962424Y-97597866D01*
X103035874Y-97628290D01*
X103113849Y-97643800D01*
X103193351Y-97643800D01*
X103271326Y-97628290D01*
X103271400Y-97628259D01*
X103271400Y-98500000D01*
X103279081Y-98558759D01*
X103294789Y-98600729D01*
X103318383Y-98638828D01*
X103526600Y-98911221D01*
X103526600Y-100496000D01*
X103486849Y-100496000D01*
X103408874Y-100511510D01*
X103335424Y-100541934D01*
X103269320Y-100586103D01*
X103213103Y-100642320D01*
X103168934Y-100708424D01*
X103138510Y-100781874D01*
X103123000Y-100859849D01*
X103123000Y-100939351D01*
X103138510Y-101017326D01*
X103168934Y-101090776D01*
X103213103Y-101156880D01*
X103269320Y-101213097D01*
X103335424Y-101257266D01*
X103408874Y-101287690D01*
X103486849Y-101303200D01*
X103526600Y-101303200D01*
X103526600Y-102173800D01*
X101576200Y-102173800D01*
X101576200Y-97076106D01*
X102785336Y-97074611D01*
X102765510Y-97122474D01*
G37*
X102765510Y-97122474D02*
X102750000Y-97200449D01*
X102750000Y-97279951D01*
X102765510Y-97357926D01*
X102795934Y-97431376D01*
X102840103Y-97497480D01*
X102896320Y-97553697D01*
X102962424Y-97597866D01*
X103035874Y-97628290D01*
X103113849Y-97643800D01*
X103193351Y-97643800D01*
X103271326Y-97628290D01*
X103271400Y-97628259D01*
X103271400Y-98500000D01*
X103279081Y-98558759D01*
X103294789Y-98600729D01*
X103318383Y-98638828D01*
X103526600Y-98911221D01*
X103526600Y-100496000D01*
X103486849Y-100496000D01*
X103408874Y-100511510D01*
X103335424Y-100541934D01*
X103269320Y-100586103D01*
X103213103Y-100642320D01*
X103168934Y-100708424D01*
X103138510Y-100781874D01*
X103123000Y-100859849D01*
X103123000Y-100939351D01*
X103138510Y-101017326D01*
X103168934Y-101090776D01*
X103213103Y-101156880D01*
X103269320Y-101213097D01*
X103335424Y-101257266D01*
X103408874Y-101287690D01*
X103486849Y-101303200D01*
X103526600Y-101303200D01*
X103526600Y-102173800D01*
X101576200Y-102173800D01*
X101576200Y-97076106D01*
X102785336Y-97074611D01*
X102765510Y-97122474D01*
D27*
G36*
X104935570Y-97131489D02*
G01*
X105035700Y-97141351D01*
X105500700Y-97141351D01*
X105600830Y-97131489D01*
X105615628Y-97127000D01*
X105873000Y-97127000D01*
X105873000Y-97341181D01*
X105822863Y-97291044D01*
X105748439Y-97241316D01*
X105665744Y-97207062D01*
X105577955Y-97189600D01*
X105488445Y-97189600D01*
X105400656Y-97207062D01*
X105317961Y-97241316D01*
X105243537Y-97291044D01*
X105180244Y-97354337D01*
X105130516Y-97428761D01*
X105096262Y-97511456D01*
X105079728Y-97594578D01*
X104887711Y-97786596D01*
X104874147Y-97797728D01*
X104835538Y-97844773D01*
X104793956Y-97782541D01*
X104730663Y-97719248D01*
X104656239Y-97669520D01*
X104573544Y-97635266D01*
X104485755Y-97617804D01*
X104396245Y-97617804D01*
X104308456Y-97635266D01*
X104225761Y-97669520D01*
X104151337Y-97719248D01*
X104088044Y-97782541D01*
X104038316Y-97856965D01*
X104004062Y-97939660D01*
X103986600Y-98027449D01*
X103986600Y-98116959D01*
X104004062Y-98204748D01*
X104038316Y-98287443D01*
X104088044Y-98361867D01*
X104151337Y-98425160D01*
X104225761Y-98474888D01*
X104308456Y-98509142D01*
X104396245Y-98526604D01*
X104485755Y-98526604D01*
X104573544Y-98509142D01*
X104656239Y-98474888D01*
X104730663Y-98425160D01*
X104771210Y-98384613D01*
X104771211Y-99259693D01*
X104724126Y-99330161D01*
X104689872Y-99412856D01*
X104672410Y-99500645D01*
X104672410Y-99590155D01*
X104689872Y-99677944D01*
X104724126Y-99760639D01*
X104773854Y-99835063D01*
X104837147Y-99898356D01*
X104911571Y-99948084D01*
X104994266Y-99982338D01*
X105082055Y-99999800D01*
X105171565Y-99999800D01*
X105259354Y-99982338D01*
X105342049Y-99948084D01*
X105416473Y-99898356D01*
X105479766Y-99835063D01*
X105529494Y-99760639D01*
X105563748Y-99677944D01*
X105581210Y-99590155D01*
X105581210Y-99545553D01*
X105665744Y-99528738D01*
X105748439Y-99494484D01*
X105822863Y-99444756D01*
X105873000Y-99394619D01*
X105873000Y-102123000D01*
X104009200Y-102123000D01*
X104009200Y-101601745D01*
X104065544Y-101590538D01*
X104148239Y-101556284D01*
X104222663Y-101506556D01*
X104285956Y-101443263D01*
X104335684Y-101368839D01*
X104369938Y-101286144D01*
X104387400Y-101198355D01*
X104387400Y-101108845D01*
X104369938Y-101021056D01*
X104335684Y-100938361D01*
X104285956Y-100863937D01*
X104222663Y-100800644D01*
X104148239Y-100750916D01*
X104065544Y-100716662D01*
X104009200Y-100705455D01*
X104009200Y-100630645D01*
X104926400Y-100630645D01*
X104926400Y-100720155D01*
X104943862Y-100807944D01*
X104978116Y-100890639D01*
X105018047Y-100950400D01*
X104978116Y-101010161D01*
X104943862Y-101092856D01*
X104926400Y-101180645D01*
X104926400Y-101270155D01*
X104943862Y-101357944D01*
X104978116Y-101440639D01*
X105027844Y-101515063D01*
X105091137Y-101578356D01*
X105165561Y-101628084D01*
X105248256Y-101662338D01*
X105336045Y-101679800D01*
X105425555Y-101679800D01*
X105513344Y-101662338D01*
X105596039Y-101628084D01*
X105670463Y-101578356D01*
X105733756Y-101515063D01*
X105783484Y-101440639D01*
X105817738Y-101357944D01*
X105835200Y-101270155D01*
X105835200Y-101180645D01*
X105817738Y-101092856D01*
X105783484Y-101010161D01*
X105743553Y-100950400D01*
X105783484Y-100890639D01*
X105817738Y-100807944D01*
X105835200Y-100720155D01*
X105835200Y-100630645D01*
X105817738Y-100542856D01*
X105783484Y-100460161D01*
X105733756Y-100385737D01*
X105670463Y-100322444D01*
X105596039Y-100272716D01*
X105513344Y-100238462D01*
X105425555Y-100221000D01*
X105336045Y-100221000D01*
X105248256Y-100238462D01*
X105165561Y-100272716D01*
X105091137Y-100322444D01*
X105027844Y-100385737D01*
X104978116Y-100460161D01*
X104943862Y-100542856D01*
X104926400Y-100630645D01*
X104009200Y-100630645D01*
X104009200Y-99000000D01*
X104006760Y-98975224D01*
X103999533Y-98951399D01*
X103983098Y-98922873D01*
X103627000Y-98457020D01*
X103627000Y-97141351D01*
X103860700Y-97141351D01*
X103960830Y-97131489D01*
X103975628Y-97127000D01*
X104920772Y-97127000D01*
X104935570Y-97131489D01*
G37*
X104935570Y-97131489D02*
X105035700Y-97141351D01*
X105500700Y-97141351D01*
X105600830Y-97131489D01*
X105615628Y-97127000D01*
X105873000Y-97127000D01*
X105873000Y-97341181D01*
X105822863Y-97291044D01*
X105748439Y-97241316D01*
X105665744Y-97207062D01*
X105577955Y-97189600D01*
X105488445Y-97189600D01*
X105400656Y-97207062D01*
X105317961Y-97241316D01*
X105243537Y-97291044D01*
X105180244Y-97354337D01*
X105130516Y-97428761D01*
X105096262Y-97511456D01*
X105079728Y-97594578D01*
X104887711Y-97786596D01*
X104874147Y-97797728D01*
X104835538Y-97844773D01*
X104793956Y-97782541D01*
X104730663Y-97719248D01*
X104656239Y-97669520D01*
X104573544Y-97635266D01*
X104485755Y-97617804D01*
X104396245Y-97617804D01*
X104308456Y-97635266D01*
X104225761Y-97669520D01*
X104151337Y-97719248D01*
X104088044Y-97782541D01*
X104038316Y-97856965D01*
X104004062Y-97939660D01*
X103986600Y-98027449D01*
X103986600Y-98116959D01*
X104004062Y-98204748D01*
X104038316Y-98287443D01*
X104088044Y-98361867D01*
X104151337Y-98425160D01*
X104225761Y-98474888D01*
X104308456Y-98509142D01*
X104396245Y-98526604D01*
X104485755Y-98526604D01*
X104573544Y-98509142D01*
X104656239Y-98474888D01*
X104730663Y-98425160D01*
X104771210Y-98384613D01*
X104771211Y-99259693D01*
X104724126Y-99330161D01*
X104689872Y-99412856D01*
X104672410Y-99500645D01*
X104672410Y-99590155D01*
X104689872Y-99677944D01*
X104724126Y-99760639D01*
X104773854Y-99835063D01*
X104837147Y-99898356D01*
X104911571Y-99948084D01*
X104994266Y-99982338D01*
X105082055Y-99999800D01*
X105171565Y-99999800D01*
X105259354Y-99982338D01*
X105342049Y-99948084D01*
X105416473Y-99898356D01*
X105479766Y-99835063D01*
X105529494Y-99760639D01*
X105563748Y-99677944D01*
X105581210Y-99590155D01*
X105581210Y-99545553D01*
X105665744Y-99528738D01*
X105748439Y-99494484D01*
X105822863Y-99444756D01*
X105873000Y-99394619D01*
X105873000Y-102123000D01*
X104009200Y-102123000D01*
X104009200Y-101601745D01*
X104065544Y-101590538D01*
X104148239Y-101556284D01*
X104222663Y-101506556D01*
X104285956Y-101443263D01*
X104335684Y-101368839D01*
X104369938Y-101286144D01*
X104387400Y-101198355D01*
X104387400Y-101108845D01*
X104369938Y-101021056D01*
X104335684Y-100938361D01*
X104285956Y-100863937D01*
X104222663Y-100800644D01*
X104148239Y-100750916D01*
X104065544Y-100716662D01*
X104009200Y-100705455D01*
X104009200Y-100630645D01*
X104926400Y-100630645D01*
X104926400Y-100720155D01*
X104943862Y-100807944D01*
X104978116Y-100890639D01*
X105018047Y-100950400D01*
X104978116Y-101010161D01*
X104943862Y-101092856D01*
X104926400Y-101180645D01*
X104926400Y-101270155D01*
X104943862Y-101357944D01*
X104978116Y-101440639D01*
X105027844Y-101515063D01*
X105091137Y-101578356D01*
X105165561Y-101628084D01*
X105248256Y-101662338D01*
X105336045Y-101679800D01*
X105425555Y-101679800D01*
X105513344Y-101662338D01*
X105596039Y-101628084D01*
X105670463Y-101578356D01*
X105733756Y-101515063D01*
X105783484Y-101440639D01*
X105817738Y-101357944D01*
X105835200Y-101270155D01*
X105835200Y-101180645D01*
X105817738Y-101092856D01*
X105783484Y-101010161D01*
X105743553Y-100950400D01*
X105783484Y-100890639D01*
X105817738Y-100807944D01*
X105835200Y-100720155D01*
X105835200Y-100630645D01*
X105817738Y-100542856D01*
X105783484Y-100460161D01*
X105733756Y-100385737D01*
X105670463Y-100322444D01*
X105596039Y-100272716D01*
X105513344Y-100238462D01*
X105425555Y-100221000D01*
X105336045Y-100221000D01*
X105248256Y-100238462D01*
X105165561Y-100272716D01*
X105091137Y-100322444D01*
X105027844Y-100385737D01*
X104978116Y-100460161D01*
X104943862Y-100542856D01*
X104926400Y-100630645D01*
X104009200Y-100630645D01*
X104009200Y-99000000D01*
X104006760Y-98975224D01*
X103999533Y-98951399D01*
X103983098Y-98922873D01*
X103627000Y-98457020D01*
X103627000Y-97141351D01*
X103860700Y-97141351D01*
X103960830Y-97131489D01*
X103975628Y-97127000D01*
X104920772Y-97127000D01*
X104935570Y-97131489D01*
D24*
G36*
X108991400Y-124698000D02*
G01*
X108992864Y-124712866D01*
X108997200Y-124727160D01*
X109004242Y-124740334D01*
X109013718Y-124751882D01*
X109090340Y-124828504D01*
X109094868Y-124836975D01*
X109133073Y-124883527D01*
X109179625Y-124921732D01*
X109188096Y-124926260D01*
X109394718Y-125132882D01*
X109406266Y-125142358D01*
X109419440Y-125149400D01*
X109433734Y-125153736D01*
X109448600Y-125155200D01*
X111582200Y-125155200D01*
X111582200Y-125841000D01*
X111023400Y-125841000D01*
X111008534Y-125842464D01*
X110994240Y-125846800D01*
X110981066Y-125853842D01*
X110969518Y-125863318D01*
X110875377Y-125957459D01*
X110868625Y-125961068D01*
X110822073Y-125999273D01*
X110783868Y-126045825D01*
X110780259Y-126052577D01*
X110690118Y-126142718D01*
X110680642Y-126154266D01*
X110673600Y-126167440D01*
X110669264Y-126181734D01*
X110667800Y-126196600D01*
X110667800Y-126476000D01*
X110490000Y-126476000D01*
X110475134Y-126477464D01*
X110460840Y-126481800D01*
X110447666Y-126488842D01*
X110436118Y-126498318D01*
X108734318Y-128200118D01*
X108724842Y-128211666D01*
X108717800Y-128224840D01*
X108713464Y-128239134D01*
X108712000Y-128254000D01*
X108712000Y-129371600D01*
X108373301Y-129371600D01*
X108340576Y-129349734D01*
X108267126Y-129319310D01*
X108189151Y-129303800D01*
X108109649Y-129303800D01*
X108031674Y-129319310D01*
X107969764Y-129344954D01*
X107950000Y-129325190D01*
X107950000Y-126907800D01*
X108331000Y-126907800D01*
X108345866Y-126906336D01*
X108360160Y-126902000D01*
X108373334Y-126894958D01*
X108384882Y-126885482D01*
X108791282Y-126479082D01*
X108800758Y-126467534D01*
X108807800Y-126454360D01*
X108812136Y-126440066D01*
X108813600Y-126425200D01*
X108813600Y-124469400D01*
X108991400Y-124469400D01*
X108991400Y-124698000D01*
G37*
X108991400Y-124698000D02*
X108992864Y-124712866D01*
X108997200Y-124727160D01*
X109004242Y-124740334D01*
X109013718Y-124751882D01*
X109090340Y-124828504D01*
X109094868Y-124836975D01*
X109133073Y-124883527D01*
X109179625Y-124921732D01*
X109188096Y-124926260D01*
X109394718Y-125132882D01*
X109406266Y-125142358D01*
X109419440Y-125149400D01*
X109433734Y-125153736D01*
X109448600Y-125155200D01*
X111582200Y-125155200D01*
X111582200Y-125841000D01*
X111023400Y-125841000D01*
X111008534Y-125842464D01*
X110994240Y-125846800D01*
X110981066Y-125853842D01*
X110969518Y-125863318D01*
X110875377Y-125957459D01*
X110868625Y-125961068D01*
X110822073Y-125999273D01*
X110783868Y-126045825D01*
X110780259Y-126052577D01*
X110690118Y-126142718D01*
X110680642Y-126154266D01*
X110673600Y-126167440D01*
X110669264Y-126181734D01*
X110667800Y-126196600D01*
X110667800Y-126476000D01*
X110490000Y-126476000D01*
X110475134Y-126477464D01*
X110460840Y-126481800D01*
X110447666Y-126488842D01*
X110436118Y-126498318D01*
X108734318Y-128200118D01*
X108724842Y-128211666D01*
X108717800Y-128224840D01*
X108713464Y-128239134D01*
X108712000Y-128254000D01*
X108712000Y-129371600D01*
X108373301Y-129371600D01*
X108340576Y-129349734D01*
X108267126Y-129319310D01*
X108189151Y-129303800D01*
X108109649Y-129303800D01*
X108031674Y-129319310D01*
X107969764Y-129344954D01*
X107950000Y-129325190D01*
X107950000Y-126907800D01*
X108331000Y-126907800D01*
X108345866Y-126906336D01*
X108360160Y-126902000D01*
X108373334Y-126894958D01*
X108384882Y-126885482D01*
X108791282Y-126479082D01*
X108800758Y-126467534D01*
X108807800Y-126454360D01*
X108812136Y-126440066D01*
X108813600Y-126425200D01*
X108813600Y-124469400D01*
X108991400Y-124469400D01*
X108991400Y-124698000D01*
M02*
