G04 #@! TF.GenerationSoftware,KiCad,Pcbnew,(5.1.6)-1*
G04 #@! TF.CreationDate,2020-11-27T13:51:03-08:00*
G04 #@! TF.ProjectId,Miniscope-v4-Rigid-Flex,4d696e69-7363-46f7-9065-2d76342d5269,rev?*
G04 #@! TF.SameCoordinates,Original*
G04 #@! TF.FileFunction,Legend,Top*
G04 #@! TF.FilePolarity,Positive*
%FSLAX46Y46*%
G04 Gerber Fmt 4.6, Leading zero omitted, Abs format (unit mm)*
G04 Created by KiCad (PCBNEW (5.1.6)-1) date 2020-11-27 13:51:03*
%MOMM*%
%LPD*%
G01*
G04 APERTURE LIST*
%ADD10C,0.120000*%
%ADD11C,0.177800*%
%ADD12C,0.100000*%
%ADD13C,0.150000*%
G04 APERTURE END LIST*
D10*
X106500001Y-100749999D02*
G75*
G02*
X106500001Y-99250001I749999J749999D01*
G01*
X100999999Y-99250001D02*
G75*
G02*
X100999999Y-100749999I-749999J-749999D01*
G01*
D11*
X102569866Y-113240700D02*
X102781533Y-113833366D01*
X102993200Y-113240700D01*
X103712866Y-113240700D02*
X103712866Y-113833366D01*
X103501200Y-112902033D02*
X103289533Y-113537033D01*
X103839866Y-113537033D01*
X104178533Y-113748700D02*
X104220866Y-113791033D01*
X104178533Y-113833366D01*
X104136200Y-113791033D01*
X104178533Y-113748700D01*
X104178533Y-113833366D01*
X104982866Y-113240700D02*
X104982866Y-113833366D01*
X104771200Y-112902033D02*
X104559533Y-113537033D01*
X105109866Y-113537033D01*
X105617866Y-112944366D02*
X105702533Y-112944366D01*
X105787200Y-112986700D01*
X105829533Y-113029033D01*
X105871866Y-113113700D01*
X105914200Y-113283033D01*
X105914200Y-113494700D01*
X105871866Y-113664033D01*
X105829533Y-113748700D01*
X105787200Y-113791033D01*
X105702533Y-113833366D01*
X105617866Y-113833366D01*
X105533200Y-113791033D01*
X105490866Y-113748700D01*
X105448533Y-113664033D01*
X105406200Y-113494700D01*
X105406200Y-113283033D01*
X105448533Y-113113700D01*
X105490866Y-113029033D01*
X105533200Y-112986700D01*
X105617866Y-112944366D01*
D10*
X104686600Y-109327000D02*
X105986600Y-109327000D01*
X104686600Y-110207000D02*
X104686600Y-109327000D01*
X105986600Y-110207000D02*
X104686600Y-110207000D01*
X105986600Y-109327000D02*
X105986600Y-110207000D01*
D12*
X105931600Y-117162600D02*
X105931600Y-116862600D01*
X105531600Y-116512600D02*
X105331600Y-116512600D01*
X104931600Y-116912600D02*
X104931600Y-117112600D01*
X105331600Y-117512600D02*
X105531600Y-117512600D01*
X102156800Y-124918400D02*
X102156800Y-124368400D01*
X102156800Y-124368400D02*
X102706800Y-124368400D01*
X102156800Y-128978400D02*
X102156800Y-129528400D01*
X102156800Y-129528400D02*
X102706800Y-129528400D01*
X107316800Y-128978400D02*
X107316800Y-129528400D01*
X107316800Y-129528400D02*
X106766800Y-129528400D01*
X107316800Y-124918400D02*
X107316800Y-124368400D01*
X107316800Y-124368400D02*
X106766800Y-124368400D01*
D10*
X114190200Y-110878600D02*
X114190200Y-111138600D01*
X114190200Y-110878600D02*
X114450200Y-110878600D01*
X118210200Y-110878600D02*
X118210200Y-111138600D01*
X114190200Y-116298600D02*
X114190200Y-116038600D01*
X114190200Y-116298600D02*
X114450200Y-116298600D01*
X118210200Y-116298600D02*
X118210200Y-116038600D01*
X118210200Y-116298600D02*
X117950200Y-116298600D01*
D12*
X99709000Y-111380400D02*
X99709000Y-111270400D01*
X101109000Y-111380400D02*
X99709000Y-111380400D01*
X101109000Y-111270400D02*
X101109000Y-111380400D01*
X99709000Y-109220400D02*
X99709000Y-109330400D01*
X101109000Y-109220400D02*
X99709000Y-109220400D01*
X101109000Y-109330400D02*
X101109000Y-109220400D01*
X99104400Y-113325600D02*
X99104400Y-113015600D01*
X101764400Y-113325600D02*
X101764400Y-113015600D01*
X100079400Y-114250600D02*
X100789400Y-114250600D01*
X100789400Y-112090600D02*
X100079400Y-112090600D01*
D13*
X99159400Y-113170600D02*
X100434400Y-113170600D01*
X100434400Y-113170600D02*
X100434400Y-114220600D01*
D12*
X106075200Y-111237600D02*
X106325200Y-111237600D01*
X106075200Y-110277600D02*
X106325200Y-110277600D01*
X104927200Y-109603800D02*
G75*
G03*
X104927200Y-109603800I-50000J0D01*
G01*
X104771000Y-101965800D02*
X104771000Y-101395800D01*
X102651000Y-101965800D02*
X102651000Y-101395800D01*
X102651000Y-99905800D02*
X102651000Y-100475800D01*
X104771000Y-99905800D02*
X104771000Y-100475800D01*
X102368600Y-97030200D02*
X102103600Y-97030200D01*
X102103600Y-97030200D02*
X102103600Y-99130200D01*
X102103600Y-99130200D02*
X102368600Y-99130200D01*
X104938600Y-97030200D02*
X105203600Y-97030200D01*
X105203600Y-97030200D02*
X105203600Y-99130200D01*
X105203600Y-99130200D02*
X104938600Y-99130200D01*
X102415200Y-95796000D02*
X102835200Y-95796000D01*
X102415200Y-95376000D02*
X102415200Y-95796000D01*
X102415200Y-94116000D02*
X102835200Y-94116000D01*
X102415200Y-94536000D02*
X102415200Y-94116000D01*
X105095200Y-94116000D02*
X104675200Y-94116000D01*
X105095200Y-94536000D02*
X105095200Y-94116000D01*
X105095200Y-95796000D02*
X104675200Y-95796000D01*
X105095200Y-95376000D02*
X105095200Y-95796000D01*
M02*
