G04 #@! TF.GenerationSoftware,KiCad,Pcbnew,(5.1.6)-1*
G04 #@! TF.CreationDate,2020-11-27T13:51:03-08:00*
G04 #@! TF.ProjectId,Miniscope-v4-Rigid-Flex,4d696e69-7363-46f7-9065-2d76342d5269,rev?*
G04 #@! TF.SameCoordinates,Original*
G04 #@! TF.FileFunction,Soldermask,Bot*
G04 #@! TF.FilePolarity,Negative*
%FSLAX46Y46*%
G04 Gerber Fmt 4.6, Leading zero omitted, Abs format (unit mm)*
G04 Created by KiCad (PCBNEW (5.1.6)-1) date 2020-11-27 13:51:03*
%MOMM*%
%LPD*%
G01*
G04 APERTURE LIST*
%ADD10C,0.100000*%
G04 APERTURE END LIST*
D10*
G36*
X111212450Y-129547831D02*
G01*
X111237688Y-129555487D01*
X111260955Y-129567923D01*
X111281344Y-129584656D01*
X111298077Y-129605045D01*
X111310513Y-129628312D01*
X111318169Y-129653550D01*
X111321000Y-129682291D01*
X111321000Y-130098509D01*
X111318169Y-130127250D01*
X111310513Y-130152488D01*
X111298077Y-130175755D01*
X111281344Y-130196144D01*
X111260955Y-130212877D01*
X111237688Y-130225313D01*
X111212450Y-130232969D01*
X111183709Y-130235800D01*
X110817491Y-130235800D01*
X110788750Y-130232969D01*
X110763512Y-130225313D01*
X110740245Y-130212877D01*
X110719856Y-130196144D01*
X110703123Y-130175755D01*
X110690687Y-130152488D01*
X110683031Y-130127250D01*
X110680200Y-130098509D01*
X110680200Y-129682291D01*
X110683031Y-129653550D01*
X110690687Y-129628312D01*
X110703123Y-129605045D01*
X110719856Y-129584656D01*
X110740245Y-129567923D01*
X110763512Y-129555487D01*
X110788750Y-129547831D01*
X110817491Y-129545000D01*
X111183709Y-129545000D01*
X111212450Y-129547831D01*
G37*
G36*
X110242450Y-129547831D02*
G01*
X110267688Y-129555487D01*
X110290955Y-129567923D01*
X110311344Y-129584656D01*
X110328077Y-129605045D01*
X110340513Y-129628312D01*
X110348169Y-129653550D01*
X110351000Y-129682291D01*
X110351000Y-130098509D01*
X110348169Y-130127250D01*
X110340513Y-130152488D01*
X110328077Y-130175755D01*
X110311344Y-130196144D01*
X110290955Y-130212877D01*
X110267688Y-130225313D01*
X110242450Y-130232969D01*
X110213709Y-130235800D01*
X109847491Y-130235800D01*
X109818750Y-130232969D01*
X109793512Y-130225313D01*
X109770245Y-130212877D01*
X109749856Y-130196144D01*
X109733123Y-130175755D01*
X109720687Y-130152488D01*
X109713031Y-130127250D01*
X109710200Y-130098509D01*
X109710200Y-129682291D01*
X109713031Y-129653550D01*
X109720687Y-129628312D01*
X109733123Y-129605045D01*
X109749856Y-129584656D01*
X109770245Y-129567923D01*
X109793512Y-129555487D01*
X109818750Y-129547831D01*
X109847491Y-129545000D01*
X110213709Y-129545000D01*
X110242450Y-129547831D01*
G37*
G36*
X101961392Y-129282085D02*
G01*
X101973503Y-129285759D01*
X101984663Y-129291724D01*
X101994447Y-129299753D01*
X102002476Y-129309537D01*
X102008441Y-129320697D01*
X102012115Y-129332808D01*
X102013600Y-129347891D01*
X102013600Y-129604109D01*
X102012115Y-129619192D01*
X102008441Y-129631303D01*
X102002476Y-129642463D01*
X101994447Y-129652247D01*
X101984663Y-129660276D01*
X101973503Y-129666241D01*
X101961392Y-129669915D01*
X101946309Y-129671400D01*
X101720091Y-129671400D01*
X101705008Y-129669915D01*
X101692897Y-129666241D01*
X101681737Y-129660276D01*
X101671953Y-129652247D01*
X101663924Y-129642463D01*
X101657959Y-129631303D01*
X101654285Y-129619192D01*
X101652800Y-129604109D01*
X101652800Y-129347891D01*
X101654285Y-129332808D01*
X101657959Y-129320697D01*
X101663924Y-129309537D01*
X101671953Y-129299753D01*
X101681737Y-129291724D01*
X101692897Y-129285759D01*
X101705008Y-129282085D01*
X101720091Y-129280600D01*
X101946309Y-129280600D01*
X101961392Y-129282085D01*
G37*
G36*
X102511392Y-129282085D02*
G01*
X102523503Y-129285759D01*
X102534663Y-129291724D01*
X102544447Y-129299753D01*
X102552476Y-129309537D01*
X102558441Y-129320697D01*
X102562115Y-129332808D01*
X102563600Y-129347891D01*
X102563600Y-129604109D01*
X102562115Y-129619192D01*
X102558441Y-129631303D01*
X102552476Y-129642463D01*
X102544447Y-129652247D01*
X102534663Y-129660276D01*
X102523503Y-129666241D01*
X102511392Y-129669915D01*
X102496309Y-129671400D01*
X102270091Y-129671400D01*
X102255008Y-129669915D01*
X102242897Y-129666241D01*
X102231737Y-129660276D01*
X102221953Y-129652247D01*
X102213924Y-129642463D01*
X102207959Y-129631303D01*
X102204285Y-129619192D01*
X102202800Y-129604109D01*
X102202800Y-129347891D01*
X102204285Y-129332808D01*
X102207959Y-129320697D01*
X102213924Y-129309537D01*
X102221953Y-129299753D01*
X102231737Y-129291724D01*
X102242897Y-129285759D01*
X102255008Y-129282085D01*
X102270091Y-129280600D01*
X102496309Y-129280600D01*
X102511392Y-129282085D01*
G37*
G36*
X105644392Y-129256685D02*
G01*
X105656503Y-129260359D01*
X105667663Y-129266324D01*
X105677447Y-129274353D01*
X105685476Y-129284137D01*
X105691441Y-129295297D01*
X105695115Y-129307408D01*
X105696600Y-129322491D01*
X105696600Y-129578709D01*
X105695115Y-129593792D01*
X105691441Y-129605903D01*
X105685476Y-129617063D01*
X105677447Y-129626847D01*
X105667663Y-129634876D01*
X105656503Y-129640841D01*
X105644392Y-129644515D01*
X105629309Y-129646000D01*
X105403091Y-129646000D01*
X105388008Y-129644515D01*
X105375897Y-129640841D01*
X105364737Y-129634876D01*
X105354953Y-129626847D01*
X105346924Y-129617063D01*
X105340959Y-129605903D01*
X105337285Y-129593792D01*
X105335800Y-129578709D01*
X105335800Y-129322491D01*
X105337285Y-129307408D01*
X105340959Y-129295297D01*
X105346924Y-129284137D01*
X105354953Y-129274353D01*
X105364737Y-129266324D01*
X105375897Y-129260359D01*
X105388008Y-129256685D01*
X105403091Y-129255200D01*
X105629309Y-129255200D01*
X105644392Y-129256685D01*
G37*
G36*
X106194392Y-129256685D02*
G01*
X106206503Y-129260359D01*
X106217663Y-129266324D01*
X106227447Y-129274353D01*
X106235476Y-129284137D01*
X106241441Y-129295297D01*
X106245115Y-129307408D01*
X106246600Y-129322491D01*
X106246600Y-129578709D01*
X106245115Y-129593792D01*
X106241441Y-129605903D01*
X106235476Y-129617063D01*
X106227447Y-129626847D01*
X106217663Y-129634876D01*
X106206503Y-129640841D01*
X106194392Y-129644515D01*
X106179309Y-129646000D01*
X105953091Y-129646000D01*
X105938008Y-129644515D01*
X105925897Y-129640841D01*
X105914737Y-129634876D01*
X105904953Y-129626847D01*
X105896924Y-129617063D01*
X105890959Y-129605903D01*
X105887285Y-129593792D01*
X105885800Y-129578709D01*
X105885800Y-129322491D01*
X105887285Y-129307408D01*
X105890959Y-129295297D01*
X105896924Y-129284137D01*
X105904953Y-129274353D01*
X105914737Y-129266324D01*
X105925897Y-129260359D01*
X105938008Y-129256685D01*
X105953091Y-129255200D01*
X106179309Y-129255200D01*
X106194392Y-129256685D01*
G37*
G36*
X104695792Y-129256685D02*
G01*
X104707903Y-129260359D01*
X104719063Y-129266324D01*
X104728847Y-129274353D01*
X104736876Y-129284137D01*
X104742841Y-129295297D01*
X104746515Y-129307408D01*
X104748000Y-129322491D01*
X104748000Y-129578709D01*
X104746515Y-129593792D01*
X104742841Y-129605903D01*
X104736876Y-129617063D01*
X104728847Y-129626847D01*
X104719063Y-129634876D01*
X104707903Y-129640841D01*
X104695792Y-129644515D01*
X104680709Y-129646000D01*
X104454491Y-129646000D01*
X104439408Y-129644515D01*
X104427297Y-129640841D01*
X104416137Y-129634876D01*
X104406353Y-129626847D01*
X104398324Y-129617063D01*
X104392359Y-129605903D01*
X104388685Y-129593792D01*
X104387200Y-129578709D01*
X104387200Y-129322491D01*
X104388685Y-129307408D01*
X104392359Y-129295297D01*
X104398324Y-129284137D01*
X104406353Y-129274353D01*
X104416137Y-129266324D01*
X104427297Y-129260359D01*
X104439408Y-129256685D01*
X104454491Y-129255200D01*
X104680709Y-129255200D01*
X104695792Y-129256685D01*
G37*
G36*
X103053592Y-129256685D02*
G01*
X103065703Y-129260359D01*
X103076863Y-129266324D01*
X103086647Y-129274353D01*
X103094676Y-129284137D01*
X103100641Y-129295297D01*
X103104315Y-129307408D01*
X103105800Y-129322491D01*
X103105800Y-129578709D01*
X103104315Y-129593792D01*
X103100641Y-129605903D01*
X103094676Y-129617063D01*
X103086647Y-129626847D01*
X103076863Y-129634876D01*
X103065703Y-129640841D01*
X103053592Y-129644515D01*
X103038509Y-129646000D01*
X102812291Y-129646000D01*
X102797208Y-129644515D01*
X102785097Y-129640841D01*
X102773937Y-129634876D01*
X102764153Y-129626847D01*
X102756124Y-129617063D01*
X102750159Y-129605903D01*
X102746485Y-129593792D01*
X102745000Y-129578709D01*
X102745000Y-129322491D01*
X102746485Y-129307408D01*
X102750159Y-129295297D01*
X102756124Y-129284137D01*
X102764153Y-129274353D01*
X102773937Y-129266324D01*
X102785097Y-129260359D01*
X102797208Y-129256685D01*
X102812291Y-129255200D01*
X103038509Y-129255200D01*
X103053592Y-129256685D01*
G37*
G36*
X103603592Y-129256685D02*
G01*
X103615703Y-129260359D01*
X103626863Y-129266324D01*
X103636647Y-129274353D01*
X103644676Y-129284137D01*
X103650641Y-129295297D01*
X103654315Y-129307408D01*
X103655800Y-129322491D01*
X103655800Y-129578709D01*
X103654315Y-129593792D01*
X103650641Y-129605903D01*
X103644676Y-129617063D01*
X103636647Y-129626847D01*
X103626863Y-129634876D01*
X103615703Y-129640841D01*
X103603592Y-129644515D01*
X103588509Y-129646000D01*
X103362291Y-129646000D01*
X103347208Y-129644515D01*
X103335097Y-129640841D01*
X103323937Y-129634876D01*
X103314153Y-129626847D01*
X103306124Y-129617063D01*
X103300159Y-129605903D01*
X103296485Y-129593792D01*
X103295000Y-129578709D01*
X103295000Y-129322491D01*
X103296485Y-129307408D01*
X103300159Y-129295297D01*
X103306124Y-129284137D01*
X103314153Y-129274353D01*
X103323937Y-129266324D01*
X103335097Y-129260359D01*
X103347208Y-129256685D01*
X103362291Y-129255200D01*
X103588509Y-129255200D01*
X103603592Y-129256685D01*
G37*
G36*
X104145792Y-129256685D02*
G01*
X104157903Y-129260359D01*
X104169063Y-129266324D01*
X104178847Y-129274353D01*
X104186876Y-129284137D01*
X104192841Y-129295297D01*
X104196515Y-129307408D01*
X104198000Y-129322491D01*
X104198000Y-129578709D01*
X104196515Y-129593792D01*
X104192841Y-129605903D01*
X104186876Y-129617063D01*
X104178847Y-129626847D01*
X104169063Y-129634876D01*
X104157903Y-129640841D01*
X104145792Y-129644515D01*
X104130709Y-129646000D01*
X103904491Y-129646000D01*
X103889408Y-129644515D01*
X103877297Y-129640841D01*
X103866137Y-129634876D01*
X103856353Y-129626847D01*
X103848324Y-129617063D01*
X103842359Y-129605903D01*
X103838685Y-129593792D01*
X103837200Y-129578709D01*
X103837200Y-129322491D01*
X103838685Y-129307408D01*
X103842359Y-129295297D01*
X103848324Y-129284137D01*
X103856353Y-129274353D01*
X103866137Y-129266324D01*
X103877297Y-129260359D01*
X103889408Y-129256685D01*
X103904491Y-129255200D01*
X104130709Y-129255200D01*
X104145792Y-129256685D01*
G37*
G36*
X111840600Y-129397000D02*
G01*
X110919800Y-129397000D01*
X110919800Y-126726200D01*
X111840600Y-126726200D01*
X111840600Y-129397000D01*
G37*
G36*
X108790600Y-129397000D02*
G01*
X107869800Y-129397000D01*
X107869800Y-126726200D01*
X108790600Y-126726200D01*
X108790600Y-129397000D01*
G37*
G36*
X101961392Y-128723285D02*
G01*
X101973503Y-128726959D01*
X101984663Y-128732924D01*
X101994447Y-128740953D01*
X102002476Y-128750737D01*
X102008441Y-128761897D01*
X102012115Y-128774008D01*
X102013600Y-128789091D01*
X102013600Y-129045309D01*
X102012115Y-129060392D01*
X102008441Y-129072503D01*
X102002476Y-129083663D01*
X101994447Y-129093447D01*
X101984663Y-129101476D01*
X101973503Y-129107441D01*
X101961392Y-129111115D01*
X101946309Y-129112600D01*
X101720091Y-129112600D01*
X101705008Y-129111115D01*
X101692897Y-129107441D01*
X101681737Y-129101476D01*
X101671953Y-129093447D01*
X101663924Y-129083663D01*
X101657959Y-129072503D01*
X101654285Y-129060392D01*
X101652800Y-129045309D01*
X101652800Y-128789091D01*
X101654285Y-128774008D01*
X101657959Y-128761897D01*
X101663924Y-128750737D01*
X101671953Y-128740953D01*
X101681737Y-128732924D01*
X101692897Y-128726959D01*
X101705008Y-128723285D01*
X101720091Y-128721800D01*
X101946309Y-128721800D01*
X101961392Y-128723285D01*
G37*
G36*
X103603592Y-128723285D02*
G01*
X103615703Y-128726959D01*
X103626863Y-128732924D01*
X103636647Y-128740953D01*
X103644676Y-128750737D01*
X103650641Y-128761897D01*
X103654315Y-128774008D01*
X103655800Y-128789091D01*
X103655800Y-129045309D01*
X103654315Y-129060392D01*
X103650641Y-129072503D01*
X103644676Y-129083663D01*
X103636647Y-129093447D01*
X103626863Y-129101476D01*
X103615703Y-129107441D01*
X103603592Y-129111115D01*
X103588509Y-129112600D01*
X103362291Y-129112600D01*
X103347208Y-129111115D01*
X103335097Y-129107441D01*
X103323937Y-129101476D01*
X103314153Y-129093447D01*
X103306124Y-129083663D01*
X103300159Y-129072503D01*
X103296485Y-129060392D01*
X103295000Y-129045309D01*
X103295000Y-128789091D01*
X103296485Y-128774008D01*
X103300159Y-128761897D01*
X103306124Y-128750737D01*
X103314153Y-128740953D01*
X103323937Y-128732924D01*
X103335097Y-128726959D01*
X103347208Y-128723285D01*
X103362291Y-128721800D01*
X103588509Y-128721800D01*
X103603592Y-128723285D01*
G37*
G36*
X103053592Y-128723285D02*
G01*
X103065703Y-128726959D01*
X103076863Y-128732924D01*
X103086647Y-128740953D01*
X103094676Y-128750737D01*
X103100641Y-128761897D01*
X103104315Y-128774008D01*
X103105800Y-128789091D01*
X103105800Y-129045309D01*
X103104315Y-129060392D01*
X103100641Y-129072503D01*
X103094676Y-129083663D01*
X103086647Y-129093447D01*
X103076863Y-129101476D01*
X103065703Y-129107441D01*
X103053592Y-129111115D01*
X103038509Y-129112600D01*
X102812291Y-129112600D01*
X102797208Y-129111115D01*
X102785097Y-129107441D01*
X102773937Y-129101476D01*
X102764153Y-129093447D01*
X102756124Y-129083663D01*
X102750159Y-129072503D01*
X102746485Y-129060392D01*
X102745000Y-129045309D01*
X102745000Y-128789091D01*
X102746485Y-128774008D01*
X102750159Y-128761897D01*
X102756124Y-128750737D01*
X102764153Y-128740953D01*
X102773937Y-128732924D01*
X102785097Y-128726959D01*
X102797208Y-128723285D01*
X102812291Y-128721800D01*
X103038509Y-128721800D01*
X103053592Y-128723285D01*
G37*
G36*
X105644392Y-128723285D02*
G01*
X105656503Y-128726959D01*
X105667663Y-128732924D01*
X105677447Y-128740953D01*
X105685476Y-128750737D01*
X105691441Y-128761897D01*
X105695115Y-128774008D01*
X105696600Y-128789091D01*
X105696600Y-129045309D01*
X105695115Y-129060392D01*
X105691441Y-129072503D01*
X105685476Y-129083663D01*
X105677447Y-129093447D01*
X105667663Y-129101476D01*
X105656503Y-129107441D01*
X105644392Y-129111115D01*
X105629309Y-129112600D01*
X105403091Y-129112600D01*
X105388008Y-129111115D01*
X105375897Y-129107441D01*
X105364737Y-129101476D01*
X105354953Y-129093447D01*
X105346924Y-129083663D01*
X105340959Y-129072503D01*
X105337285Y-129060392D01*
X105335800Y-129045309D01*
X105335800Y-128789091D01*
X105337285Y-128774008D01*
X105340959Y-128761897D01*
X105346924Y-128750737D01*
X105354953Y-128740953D01*
X105364737Y-128732924D01*
X105375897Y-128726959D01*
X105388008Y-128723285D01*
X105403091Y-128721800D01*
X105629309Y-128721800D01*
X105644392Y-128723285D01*
G37*
G36*
X102511392Y-128723285D02*
G01*
X102523503Y-128726959D01*
X102534663Y-128732924D01*
X102544447Y-128740953D01*
X102552476Y-128750737D01*
X102558441Y-128761897D01*
X102562115Y-128774008D01*
X102563600Y-128789091D01*
X102563600Y-129045309D01*
X102562115Y-129060392D01*
X102558441Y-129072503D01*
X102552476Y-129083663D01*
X102544447Y-129093447D01*
X102534663Y-129101476D01*
X102523503Y-129107441D01*
X102511392Y-129111115D01*
X102496309Y-129112600D01*
X102270091Y-129112600D01*
X102255008Y-129111115D01*
X102242897Y-129107441D01*
X102231737Y-129101476D01*
X102221953Y-129093447D01*
X102213924Y-129083663D01*
X102207959Y-129072503D01*
X102204285Y-129060392D01*
X102202800Y-129045309D01*
X102202800Y-128789091D01*
X102204285Y-128774008D01*
X102207959Y-128761897D01*
X102213924Y-128750737D01*
X102221953Y-128740953D01*
X102231737Y-128732924D01*
X102242897Y-128726959D01*
X102255008Y-128723285D01*
X102270091Y-128721800D01*
X102496309Y-128721800D01*
X102511392Y-128723285D01*
G37*
G36*
X106194392Y-128723285D02*
G01*
X106206503Y-128726959D01*
X106217663Y-128732924D01*
X106227447Y-128740953D01*
X106235476Y-128750737D01*
X106241441Y-128761897D01*
X106245115Y-128774008D01*
X106246600Y-128789091D01*
X106246600Y-129045309D01*
X106245115Y-129060392D01*
X106241441Y-129072503D01*
X106235476Y-129083663D01*
X106227447Y-129093447D01*
X106217663Y-129101476D01*
X106206503Y-129107441D01*
X106194392Y-129111115D01*
X106179309Y-129112600D01*
X105953091Y-129112600D01*
X105938008Y-129111115D01*
X105925897Y-129107441D01*
X105914737Y-129101476D01*
X105904953Y-129093447D01*
X105896924Y-129083663D01*
X105890959Y-129072503D01*
X105887285Y-129060392D01*
X105885800Y-129045309D01*
X105885800Y-128789091D01*
X105887285Y-128774008D01*
X105890959Y-128761897D01*
X105896924Y-128750737D01*
X105904953Y-128740953D01*
X105914737Y-128732924D01*
X105925897Y-128726959D01*
X105938008Y-128723285D01*
X105953091Y-128721800D01*
X106179309Y-128721800D01*
X106194392Y-128723285D01*
G37*
G36*
X104145792Y-128697885D02*
G01*
X104157903Y-128701559D01*
X104169063Y-128707524D01*
X104178847Y-128715553D01*
X104186876Y-128725337D01*
X104192841Y-128736497D01*
X104196515Y-128748608D01*
X104198000Y-128763691D01*
X104198000Y-129019909D01*
X104196515Y-129034992D01*
X104192841Y-129047103D01*
X104186876Y-129058263D01*
X104178847Y-129068047D01*
X104169063Y-129076076D01*
X104157903Y-129082041D01*
X104145792Y-129085715D01*
X104130709Y-129087200D01*
X103904491Y-129087200D01*
X103889408Y-129085715D01*
X103877297Y-129082041D01*
X103866137Y-129076076D01*
X103856353Y-129068047D01*
X103848324Y-129058263D01*
X103842359Y-129047103D01*
X103838685Y-129034992D01*
X103837200Y-129019909D01*
X103837200Y-128763691D01*
X103838685Y-128748608D01*
X103842359Y-128736497D01*
X103848324Y-128725337D01*
X103856353Y-128715553D01*
X103866137Y-128707524D01*
X103877297Y-128701559D01*
X103889408Y-128697885D01*
X103904491Y-128696400D01*
X104130709Y-128696400D01*
X104145792Y-128697885D01*
G37*
G36*
X104695792Y-128697885D02*
G01*
X104707903Y-128701559D01*
X104719063Y-128707524D01*
X104728847Y-128715553D01*
X104736876Y-128725337D01*
X104742841Y-128736497D01*
X104746515Y-128748608D01*
X104748000Y-128763691D01*
X104748000Y-129019909D01*
X104746515Y-129034992D01*
X104742841Y-129047103D01*
X104736876Y-129058263D01*
X104728847Y-129068047D01*
X104719063Y-129076076D01*
X104707903Y-129082041D01*
X104695792Y-129085715D01*
X104680709Y-129087200D01*
X104454491Y-129087200D01*
X104439408Y-129085715D01*
X104427297Y-129082041D01*
X104416137Y-129076076D01*
X104406353Y-129068047D01*
X104398324Y-129058263D01*
X104392359Y-129047103D01*
X104388685Y-129034992D01*
X104387200Y-129019909D01*
X104387200Y-128763691D01*
X104388685Y-128748608D01*
X104392359Y-128736497D01*
X104398324Y-128725337D01*
X104406353Y-128715553D01*
X104416137Y-128707524D01*
X104427297Y-128701559D01*
X104439408Y-128697885D01*
X104454491Y-128696400D01*
X104680709Y-128696400D01*
X104695792Y-128697885D01*
G37*
G36*
X101300992Y-128215285D02*
G01*
X101313103Y-128218959D01*
X101324263Y-128224924D01*
X101334047Y-128232953D01*
X101342076Y-128242737D01*
X101348041Y-128253897D01*
X101351715Y-128266008D01*
X101353200Y-128281091D01*
X101353200Y-128537309D01*
X101351715Y-128552392D01*
X101348041Y-128564503D01*
X101342076Y-128575663D01*
X101334047Y-128585447D01*
X101324263Y-128593476D01*
X101313103Y-128599441D01*
X101300992Y-128603115D01*
X101285909Y-128604600D01*
X101059691Y-128604600D01*
X101044608Y-128603115D01*
X101032497Y-128599441D01*
X101021337Y-128593476D01*
X101011553Y-128585447D01*
X101003524Y-128575663D01*
X100997559Y-128564503D01*
X100993885Y-128552392D01*
X100992400Y-128537309D01*
X100992400Y-128281091D01*
X100993885Y-128266008D01*
X100997559Y-128253897D01*
X101003524Y-128242737D01*
X101011553Y-128232953D01*
X101021337Y-128224924D01*
X101032497Y-128218959D01*
X101044608Y-128215285D01*
X101059691Y-128213800D01*
X101285909Y-128213800D01*
X101300992Y-128215285D01*
G37*
G36*
X101850992Y-128215285D02*
G01*
X101863103Y-128218959D01*
X101874263Y-128224924D01*
X101884047Y-128232953D01*
X101892076Y-128242737D01*
X101898041Y-128253897D01*
X101901715Y-128266008D01*
X101903200Y-128281091D01*
X101903200Y-128537309D01*
X101901715Y-128552392D01*
X101898041Y-128564503D01*
X101892076Y-128575663D01*
X101884047Y-128585447D01*
X101874263Y-128593476D01*
X101863103Y-128599441D01*
X101850992Y-128603115D01*
X101835909Y-128604600D01*
X101609691Y-128604600D01*
X101594608Y-128603115D01*
X101582497Y-128599441D01*
X101571337Y-128593476D01*
X101561553Y-128585447D01*
X101553524Y-128575663D01*
X101547559Y-128564503D01*
X101543885Y-128552392D01*
X101542400Y-128537309D01*
X101542400Y-128281091D01*
X101543885Y-128266008D01*
X101547559Y-128253897D01*
X101553524Y-128242737D01*
X101561553Y-128232953D01*
X101571337Y-128224924D01*
X101582497Y-128218959D01*
X101594608Y-128215285D01*
X101609691Y-128213800D01*
X101835909Y-128213800D01*
X101850992Y-128215285D01*
G37*
G36*
X103524062Y-127868383D02*
G01*
X103548831Y-127875896D01*
X103571669Y-127888104D01*
X103591677Y-127904523D01*
X103608096Y-127924531D01*
X103620304Y-127947369D01*
X103627817Y-127972138D01*
X103630600Y-128000391D01*
X103630600Y-128411609D01*
X103627817Y-128439862D01*
X103620304Y-128464631D01*
X103608096Y-128487469D01*
X103591677Y-128507477D01*
X103571669Y-128523896D01*
X103548831Y-128536104D01*
X103524062Y-128543617D01*
X103495809Y-128546400D01*
X103134591Y-128546400D01*
X103106338Y-128543617D01*
X103081569Y-128536104D01*
X103058731Y-128523896D01*
X103038723Y-128507477D01*
X103022304Y-128487469D01*
X103010096Y-128464631D01*
X103002583Y-128439862D01*
X102999800Y-128411609D01*
X102999800Y-128000391D01*
X103002583Y-127972138D01*
X103010096Y-127947369D01*
X103022304Y-127924531D01*
X103038723Y-127904523D01*
X103058731Y-127888104D01*
X103081569Y-127875896D01*
X103106338Y-127868383D01*
X103134591Y-127865600D01*
X103495809Y-127865600D01*
X103524062Y-127868383D01*
G37*
G36*
X106876862Y-127868383D02*
G01*
X106901631Y-127875896D01*
X106924469Y-127888104D01*
X106944477Y-127904523D01*
X106960896Y-127924531D01*
X106973104Y-127947369D01*
X106980617Y-127972138D01*
X106983400Y-128000391D01*
X106983400Y-128411609D01*
X106980617Y-128439862D01*
X106973104Y-128464631D01*
X106960896Y-128487469D01*
X106944477Y-128507477D01*
X106924469Y-128523896D01*
X106901631Y-128536104D01*
X106876862Y-128543617D01*
X106848609Y-128546400D01*
X106487391Y-128546400D01*
X106459138Y-128543617D01*
X106434369Y-128536104D01*
X106411531Y-128523896D01*
X106391523Y-128507477D01*
X106375104Y-128487469D01*
X106362896Y-128464631D01*
X106355383Y-128439862D01*
X106352600Y-128411609D01*
X106352600Y-128000391D01*
X106355383Y-127972138D01*
X106362896Y-127947369D01*
X106375104Y-127924531D01*
X106391523Y-127904523D01*
X106411531Y-127888104D01*
X106434369Y-127875896D01*
X106459138Y-127868383D01*
X106487391Y-127865600D01*
X106848609Y-127865600D01*
X106876862Y-127868383D01*
G37*
G36*
X102634062Y-127868383D02*
G01*
X102658831Y-127875896D01*
X102681669Y-127888104D01*
X102701677Y-127904523D01*
X102718096Y-127924531D01*
X102730304Y-127947369D01*
X102737817Y-127972138D01*
X102740600Y-128000391D01*
X102740600Y-128411609D01*
X102737817Y-128439862D01*
X102730304Y-128464631D01*
X102718096Y-128487469D01*
X102701677Y-128507477D01*
X102681669Y-128523896D01*
X102658831Y-128536104D01*
X102634062Y-128543617D01*
X102605809Y-128546400D01*
X102244591Y-128546400D01*
X102216338Y-128543617D01*
X102191569Y-128536104D01*
X102168731Y-128523896D01*
X102148723Y-128507477D01*
X102132304Y-128487469D01*
X102120096Y-128464631D01*
X102112583Y-128439862D01*
X102109800Y-128411609D01*
X102109800Y-128000391D01*
X102112583Y-127972138D01*
X102120096Y-127947369D01*
X102132304Y-127924531D01*
X102148723Y-127904523D01*
X102168731Y-127888104D01*
X102191569Y-127875896D01*
X102216338Y-127868383D01*
X102244591Y-127865600D01*
X102605809Y-127865600D01*
X102634062Y-127868383D01*
G37*
G36*
X105986862Y-127868383D02*
G01*
X106011631Y-127875896D01*
X106034469Y-127888104D01*
X106054477Y-127904523D01*
X106070896Y-127924531D01*
X106083104Y-127947369D01*
X106090617Y-127972138D01*
X106093400Y-128000391D01*
X106093400Y-128411609D01*
X106090617Y-128439862D01*
X106083104Y-128464631D01*
X106070896Y-128487469D01*
X106054477Y-128507477D01*
X106034469Y-128523896D01*
X106011631Y-128536104D01*
X105986862Y-128543617D01*
X105958609Y-128546400D01*
X105597391Y-128546400D01*
X105569138Y-128543617D01*
X105544369Y-128536104D01*
X105521531Y-128523896D01*
X105501523Y-128507477D01*
X105485104Y-128487469D01*
X105472896Y-128464631D01*
X105465383Y-128439862D01*
X105462600Y-128411609D01*
X105462600Y-128000391D01*
X105465383Y-127972138D01*
X105472896Y-127947369D01*
X105485104Y-127924531D01*
X105501523Y-127904523D01*
X105521531Y-127888104D01*
X105544369Y-127875896D01*
X105569138Y-127868383D01*
X105597391Y-127865600D01*
X105958609Y-127865600D01*
X105986862Y-127868383D01*
G37*
G36*
X104310462Y-127842983D02*
G01*
X104335231Y-127850496D01*
X104358069Y-127862704D01*
X104378077Y-127879123D01*
X104394496Y-127899131D01*
X104406704Y-127921969D01*
X104414217Y-127946738D01*
X104417000Y-127974991D01*
X104417000Y-128386209D01*
X104414217Y-128414462D01*
X104406704Y-128439231D01*
X104394496Y-128462069D01*
X104378077Y-128482077D01*
X104358069Y-128498496D01*
X104335231Y-128510704D01*
X104310462Y-128518217D01*
X104282209Y-128521000D01*
X103920991Y-128521000D01*
X103892738Y-128518217D01*
X103867969Y-128510704D01*
X103845131Y-128498496D01*
X103825123Y-128482077D01*
X103808704Y-128462069D01*
X103796496Y-128439231D01*
X103788983Y-128414462D01*
X103786200Y-128386209D01*
X103786200Y-127974991D01*
X103788983Y-127946738D01*
X103796496Y-127921969D01*
X103808704Y-127899131D01*
X103825123Y-127879123D01*
X103845131Y-127862704D01*
X103867969Y-127850496D01*
X103892738Y-127842983D01*
X103920991Y-127840200D01*
X104282209Y-127840200D01*
X104310462Y-127842983D01*
G37*
G36*
X105200462Y-127842983D02*
G01*
X105225231Y-127850496D01*
X105248069Y-127862704D01*
X105268077Y-127879123D01*
X105284496Y-127899131D01*
X105296704Y-127921969D01*
X105304217Y-127946738D01*
X105307000Y-127974991D01*
X105307000Y-128386209D01*
X105304217Y-128414462D01*
X105296704Y-128439231D01*
X105284496Y-128462069D01*
X105268077Y-128482077D01*
X105248069Y-128498496D01*
X105225231Y-128510704D01*
X105200462Y-128518217D01*
X105172209Y-128521000D01*
X104810991Y-128521000D01*
X104782738Y-128518217D01*
X104757969Y-128510704D01*
X104735131Y-128498496D01*
X104715123Y-128482077D01*
X104698704Y-128462069D01*
X104686496Y-128439231D01*
X104678983Y-128414462D01*
X104676200Y-128386209D01*
X104676200Y-127974991D01*
X104678983Y-127946738D01*
X104686496Y-127921969D01*
X104698704Y-127899131D01*
X104715123Y-127879123D01*
X104735131Y-127862704D01*
X104757969Y-127850496D01*
X104782738Y-127842983D01*
X104810991Y-127840200D01*
X105172209Y-127840200D01*
X105200462Y-127842983D01*
G37*
G36*
X101850992Y-127656485D02*
G01*
X101863103Y-127660159D01*
X101874263Y-127666124D01*
X101884047Y-127674153D01*
X101892076Y-127683937D01*
X101898041Y-127695097D01*
X101901715Y-127707208D01*
X101903200Y-127722291D01*
X101903200Y-127978509D01*
X101901715Y-127993592D01*
X101898041Y-128005703D01*
X101892076Y-128016863D01*
X101884047Y-128026647D01*
X101874263Y-128034676D01*
X101863103Y-128040641D01*
X101850992Y-128044315D01*
X101835909Y-128045800D01*
X101609691Y-128045800D01*
X101594608Y-128044315D01*
X101582497Y-128040641D01*
X101571337Y-128034676D01*
X101561553Y-128026647D01*
X101553524Y-128016863D01*
X101547559Y-128005703D01*
X101543885Y-127993592D01*
X101542400Y-127978509D01*
X101542400Y-127722291D01*
X101543885Y-127707208D01*
X101547559Y-127695097D01*
X101553524Y-127683937D01*
X101561553Y-127674153D01*
X101571337Y-127666124D01*
X101582497Y-127660159D01*
X101594608Y-127656485D01*
X101609691Y-127655000D01*
X101835909Y-127655000D01*
X101850992Y-127656485D01*
G37*
G36*
X101300992Y-127656485D02*
G01*
X101313103Y-127660159D01*
X101324263Y-127666124D01*
X101334047Y-127674153D01*
X101342076Y-127683937D01*
X101348041Y-127695097D01*
X101351715Y-127707208D01*
X101353200Y-127722291D01*
X101353200Y-127978509D01*
X101351715Y-127993592D01*
X101348041Y-128005703D01*
X101342076Y-128016863D01*
X101334047Y-128026647D01*
X101324263Y-128034676D01*
X101313103Y-128040641D01*
X101300992Y-128044315D01*
X101285909Y-128045800D01*
X101059691Y-128045800D01*
X101044608Y-128044315D01*
X101032497Y-128040641D01*
X101021337Y-128034676D01*
X101011553Y-128026647D01*
X101003524Y-128016863D01*
X100997559Y-128005703D01*
X100993885Y-127993592D01*
X100992400Y-127978509D01*
X100992400Y-127722291D01*
X100993885Y-127707208D01*
X100997559Y-127695097D01*
X101003524Y-127683937D01*
X101011553Y-127674153D01*
X101021337Y-127666124D01*
X101032497Y-127660159D01*
X101044608Y-127656485D01*
X101059691Y-127655000D01*
X101285909Y-127655000D01*
X101300992Y-127656485D01*
G37*
G36*
X102546250Y-127025231D02*
G01*
X102571488Y-127032887D01*
X102594755Y-127045323D01*
X102615144Y-127062056D01*
X102631877Y-127082445D01*
X102644313Y-127105712D01*
X102651969Y-127130950D01*
X102654800Y-127159691D01*
X102654800Y-127575909D01*
X102651969Y-127604650D01*
X102644313Y-127629888D01*
X102631877Y-127653155D01*
X102615144Y-127673544D01*
X102594755Y-127690277D01*
X102571488Y-127702713D01*
X102546250Y-127710369D01*
X102517509Y-127713200D01*
X102151291Y-127713200D01*
X102122550Y-127710369D01*
X102097312Y-127702713D01*
X102074045Y-127690277D01*
X102053656Y-127673544D01*
X102036923Y-127653155D01*
X102024487Y-127629888D01*
X102016831Y-127604650D01*
X102014000Y-127575909D01*
X102014000Y-127159691D01*
X102016831Y-127130950D01*
X102024487Y-127105712D01*
X102036923Y-127082445D01*
X102053656Y-127062056D01*
X102074045Y-127045323D01*
X102097312Y-127032887D01*
X102122550Y-127025231D01*
X102151291Y-127022400D01*
X102517509Y-127022400D01*
X102546250Y-127025231D01*
G37*
G36*
X106945250Y-127025231D02*
G01*
X106970488Y-127032887D01*
X106993755Y-127045323D01*
X107014144Y-127062056D01*
X107030877Y-127082445D01*
X107043313Y-127105712D01*
X107050969Y-127130950D01*
X107053800Y-127159691D01*
X107053800Y-127575909D01*
X107050969Y-127604650D01*
X107043313Y-127629888D01*
X107030877Y-127653155D01*
X107014144Y-127673544D01*
X106993755Y-127690277D01*
X106970488Y-127702713D01*
X106945250Y-127710369D01*
X106916509Y-127713200D01*
X106550291Y-127713200D01*
X106521550Y-127710369D01*
X106496312Y-127702713D01*
X106473045Y-127690277D01*
X106452656Y-127673544D01*
X106435923Y-127653155D01*
X106423487Y-127629888D01*
X106415831Y-127604650D01*
X106413000Y-127575909D01*
X106413000Y-127159691D01*
X106415831Y-127130950D01*
X106423487Y-127105712D01*
X106435923Y-127082445D01*
X106452656Y-127062056D01*
X106473045Y-127045323D01*
X106496312Y-127032887D01*
X106521550Y-127025231D01*
X106550291Y-127022400D01*
X106916509Y-127022400D01*
X106945250Y-127025231D01*
G37*
G36*
X105975250Y-127025231D02*
G01*
X106000488Y-127032887D01*
X106023755Y-127045323D01*
X106044144Y-127062056D01*
X106060877Y-127082445D01*
X106073313Y-127105712D01*
X106080969Y-127130950D01*
X106083800Y-127159691D01*
X106083800Y-127575909D01*
X106080969Y-127604650D01*
X106073313Y-127629888D01*
X106060877Y-127653155D01*
X106044144Y-127673544D01*
X106023755Y-127690277D01*
X106000488Y-127702713D01*
X105975250Y-127710369D01*
X105946509Y-127713200D01*
X105580291Y-127713200D01*
X105551550Y-127710369D01*
X105526312Y-127702713D01*
X105503045Y-127690277D01*
X105482656Y-127673544D01*
X105465923Y-127653155D01*
X105453487Y-127629888D01*
X105445831Y-127604650D01*
X105443000Y-127575909D01*
X105443000Y-127159691D01*
X105445831Y-127130950D01*
X105453487Y-127105712D01*
X105465923Y-127082445D01*
X105482656Y-127062056D01*
X105503045Y-127045323D01*
X105526312Y-127032887D01*
X105551550Y-127025231D01*
X105580291Y-127022400D01*
X105946509Y-127022400D01*
X105975250Y-127025231D01*
G37*
G36*
X103516250Y-127025231D02*
G01*
X103541488Y-127032887D01*
X103564755Y-127045323D01*
X103585144Y-127062056D01*
X103601877Y-127082445D01*
X103614313Y-127105712D01*
X103621969Y-127130950D01*
X103624800Y-127159691D01*
X103624800Y-127575909D01*
X103621969Y-127604650D01*
X103614313Y-127629888D01*
X103601877Y-127653155D01*
X103585144Y-127673544D01*
X103564755Y-127690277D01*
X103541488Y-127702713D01*
X103516250Y-127710369D01*
X103487509Y-127713200D01*
X103121291Y-127713200D01*
X103092550Y-127710369D01*
X103067312Y-127702713D01*
X103044045Y-127690277D01*
X103023656Y-127673544D01*
X103006923Y-127653155D01*
X102994487Y-127629888D01*
X102986831Y-127604650D01*
X102984000Y-127575909D01*
X102984000Y-127159691D01*
X102986831Y-127130950D01*
X102994487Y-127105712D01*
X103006923Y-127082445D01*
X103023656Y-127062056D01*
X103044045Y-127045323D01*
X103067312Y-127032887D01*
X103092550Y-127025231D01*
X103121291Y-127022400D01*
X103487509Y-127022400D01*
X103516250Y-127025231D01*
G37*
G36*
X109264462Y-125836383D02*
G01*
X109289231Y-125843896D01*
X109312069Y-125856104D01*
X109332077Y-125872523D01*
X109348496Y-125892531D01*
X109360704Y-125915369D01*
X109368217Y-125940138D01*
X109371000Y-125968391D01*
X109371000Y-126379609D01*
X109368217Y-126407862D01*
X109360704Y-126432631D01*
X109348496Y-126455469D01*
X109332077Y-126475477D01*
X109312069Y-126491896D01*
X109289231Y-126504104D01*
X109264462Y-126511617D01*
X109236209Y-126514400D01*
X108874991Y-126514400D01*
X108846738Y-126511617D01*
X108821969Y-126504104D01*
X108799131Y-126491896D01*
X108779123Y-126475477D01*
X108762704Y-126455469D01*
X108750496Y-126432631D01*
X108742983Y-126407862D01*
X108740200Y-126379609D01*
X108740200Y-125968391D01*
X108742983Y-125940138D01*
X108750496Y-125915369D01*
X108762704Y-125892531D01*
X108779123Y-125872523D01*
X108799131Y-125856104D01*
X108821969Y-125843896D01*
X108846738Y-125836383D01*
X108874991Y-125833600D01*
X109236209Y-125833600D01*
X109264462Y-125836383D01*
G37*
G36*
X108374462Y-125836383D02*
G01*
X108399231Y-125843896D01*
X108422069Y-125856104D01*
X108442077Y-125872523D01*
X108458496Y-125892531D01*
X108470704Y-125915369D01*
X108478217Y-125940138D01*
X108481000Y-125968391D01*
X108481000Y-126379609D01*
X108478217Y-126407862D01*
X108470704Y-126432631D01*
X108458496Y-126455469D01*
X108442077Y-126475477D01*
X108422069Y-126491896D01*
X108399231Y-126504104D01*
X108374462Y-126511617D01*
X108346209Y-126514400D01*
X107984991Y-126514400D01*
X107956738Y-126511617D01*
X107931969Y-126504104D01*
X107909131Y-126491896D01*
X107889123Y-126475477D01*
X107872704Y-126455469D01*
X107860496Y-126432631D01*
X107852983Y-126407862D01*
X107850200Y-126379609D01*
X107850200Y-125968391D01*
X107852983Y-125940138D01*
X107860496Y-125915369D01*
X107872704Y-125892531D01*
X107889123Y-125872523D01*
X107909131Y-125856104D01*
X107931969Y-125843896D01*
X107956738Y-125836383D01*
X107984991Y-125833600D01*
X108346209Y-125833600D01*
X108374462Y-125836383D01*
G37*
G36*
X111244992Y-126115085D02*
G01*
X111257103Y-126118759D01*
X111268263Y-126124724D01*
X111278047Y-126132753D01*
X111286076Y-126142537D01*
X111292041Y-126153697D01*
X111295715Y-126165808D01*
X111297200Y-126180891D01*
X111297200Y-126437109D01*
X111295715Y-126452192D01*
X111292041Y-126464303D01*
X111286076Y-126475463D01*
X111278047Y-126485247D01*
X111268263Y-126493276D01*
X111257103Y-126499241D01*
X111244992Y-126502915D01*
X111229909Y-126504400D01*
X111003691Y-126504400D01*
X110988608Y-126502915D01*
X110976497Y-126499241D01*
X110965337Y-126493276D01*
X110955553Y-126485247D01*
X110947524Y-126475463D01*
X110941559Y-126464303D01*
X110937885Y-126452192D01*
X110936400Y-126437109D01*
X110936400Y-126180891D01*
X110937885Y-126165808D01*
X110941559Y-126153697D01*
X110947524Y-126142537D01*
X110955553Y-126132753D01*
X110965337Y-126124724D01*
X110976497Y-126118759D01*
X110988608Y-126115085D01*
X111003691Y-126113600D01*
X111229909Y-126113600D01*
X111244992Y-126115085D01*
G37*
G36*
X110694992Y-126115085D02*
G01*
X110707103Y-126118759D01*
X110718263Y-126124724D01*
X110728047Y-126132753D01*
X110736076Y-126142537D01*
X110742041Y-126153697D01*
X110745715Y-126165808D01*
X110747200Y-126180891D01*
X110747200Y-126437109D01*
X110745715Y-126452192D01*
X110742041Y-126464303D01*
X110736076Y-126475463D01*
X110728047Y-126485247D01*
X110718263Y-126493276D01*
X110707103Y-126499241D01*
X110694992Y-126502915D01*
X110679909Y-126504400D01*
X110453691Y-126504400D01*
X110438608Y-126502915D01*
X110426497Y-126499241D01*
X110415337Y-126493276D01*
X110405553Y-126485247D01*
X110397524Y-126475463D01*
X110391559Y-126464303D01*
X110387885Y-126452192D01*
X110386400Y-126437109D01*
X110386400Y-126180891D01*
X110387885Y-126165808D01*
X110391559Y-126153697D01*
X110397524Y-126142537D01*
X110405553Y-126132753D01*
X110415337Y-126124724D01*
X110426497Y-126118759D01*
X110438608Y-126115085D01*
X110453691Y-126113600D01*
X110679909Y-126113600D01*
X110694992Y-126115085D01*
G37*
G36*
X103611200Y-125956400D02*
G01*
X103340400Y-125956400D01*
X103340400Y-125505600D01*
X103611200Y-125505600D01*
X103611200Y-125956400D01*
G37*
G36*
X104211200Y-125956400D02*
G01*
X103840400Y-125956400D01*
X103840400Y-125505600D01*
X104211200Y-125505600D01*
X104211200Y-125956400D01*
G37*
G36*
X103111200Y-125956400D02*
G01*
X102840400Y-125956400D01*
X102840400Y-125505600D01*
X103111200Y-125505600D01*
X103111200Y-125956400D01*
G37*
G36*
X110684000Y-125931000D02*
G01*
X110363200Y-125931000D01*
X110363200Y-125140200D01*
X110684000Y-125140200D01*
X110684000Y-125931000D01*
G37*
G36*
X111184000Y-125931000D02*
G01*
X110863200Y-125931000D01*
X110863200Y-125140200D01*
X111184000Y-125140200D01*
X111184000Y-125931000D01*
G37*
G36*
X111684000Y-125931000D02*
G01*
X111363200Y-125931000D01*
X111363200Y-125060200D01*
X111684000Y-125060200D01*
X111684000Y-125931000D01*
G37*
G36*
X108374462Y-124972783D02*
G01*
X108399231Y-124980296D01*
X108422069Y-124992504D01*
X108442077Y-125008923D01*
X108458496Y-125028931D01*
X108470704Y-125051769D01*
X108478217Y-125076538D01*
X108481000Y-125104791D01*
X108481000Y-125516009D01*
X108478217Y-125544262D01*
X108470704Y-125569031D01*
X108458496Y-125591869D01*
X108442077Y-125611877D01*
X108422069Y-125628296D01*
X108399231Y-125640504D01*
X108374462Y-125648017D01*
X108346209Y-125650800D01*
X107984991Y-125650800D01*
X107956738Y-125648017D01*
X107931969Y-125640504D01*
X107909131Y-125628296D01*
X107889123Y-125611877D01*
X107872704Y-125591869D01*
X107860496Y-125569031D01*
X107852983Y-125544262D01*
X107850200Y-125516009D01*
X107850200Y-125104791D01*
X107852983Y-125076538D01*
X107860496Y-125051769D01*
X107872704Y-125028931D01*
X107889123Y-125008923D01*
X107909131Y-124992504D01*
X107931969Y-124980296D01*
X107956738Y-124972783D01*
X107984991Y-124970000D01*
X108346209Y-124970000D01*
X108374462Y-124972783D01*
G37*
G36*
X109264462Y-124972783D02*
G01*
X109289231Y-124980296D01*
X109312069Y-124992504D01*
X109332077Y-125008923D01*
X109348496Y-125028931D01*
X109360704Y-125051769D01*
X109368217Y-125076538D01*
X109371000Y-125104791D01*
X109371000Y-125516009D01*
X109368217Y-125544262D01*
X109360704Y-125569031D01*
X109348496Y-125591869D01*
X109332077Y-125611877D01*
X109312069Y-125628296D01*
X109289231Y-125640504D01*
X109264462Y-125648017D01*
X109236209Y-125650800D01*
X108874991Y-125650800D01*
X108846738Y-125648017D01*
X108821969Y-125640504D01*
X108799131Y-125628296D01*
X108779123Y-125611877D01*
X108762704Y-125591869D01*
X108750496Y-125569031D01*
X108742983Y-125544262D01*
X108740200Y-125516009D01*
X108740200Y-125104791D01*
X108742983Y-125076538D01*
X108750496Y-125051769D01*
X108762704Y-125028931D01*
X108779123Y-125008923D01*
X108799131Y-124992504D01*
X108821969Y-124980296D01*
X108846738Y-124972783D01*
X108874991Y-124970000D01*
X109236209Y-124970000D01*
X109264462Y-124972783D01*
G37*
G36*
X101637792Y-125262085D02*
G01*
X101649903Y-125265759D01*
X101661063Y-125271724D01*
X101670847Y-125279753D01*
X101678876Y-125289537D01*
X101684841Y-125300697D01*
X101688515Y-125312808D01*
X101690000Y-125327891D01*
X101690000Y-125554109D01*
X101688515Y-125569192D01*
X101684841Y-125581303D01*
X101678876Y-125592463D01*
X101670847Y-125602247D01*
X101661063Y-125610276D01*
X101649903Y-125616241D01*
X101637792Y-125619915D01*
X101622709Y-125621400D01*
X101366491Y-125621400D01*
X101351408Y-125619915D01*
X101339297Y-125616241D01*
X101328137Y-125610276D01*
X101318353Y-125602247D01*
X101310324Y-125592463D01*
X101304359Y-125581303D01*
X101300685Y-125569192D01*
X101299200Y-125554109D01*
X101299200Y-125327891D01*
X101300685Y-125312808D01*
X101304359Y-125300697D01*
X101310324Y-125289537D01*
X101318353Y-125279753D01*
X101328137Y-125271724D01*
X101339297Y-125265759D01*
X101351408Y-125262085D01*
X101366491Y-125260600D01*
X101622709Y-125260600D01*
X101637792Y-125262085D01*
G37*
G36*
X101053592Y-125262085D02*
G01*
X101065703Y-125265759D01*
X101076863Y-125271724D01*
X101086647Y-125279753D01*
X101094676Y-125289537D01*
X101100641Y-125300697D01*
X101104315Y-125312808D01*
X101105800Y-125327891D01*
X101105800Y-125554109D01*
X101104315Y-125569192D01*
X101100641Y-125581303D01*
X101094676Y-125592463D01*
X101086647Y-125602247D01*
X101076863Y-125610276D01*
X101065703Y-125616241D01*
X101053592Y-125619915D01*
X101038509Y-125621400D01*
X100782291Y-125621400D01*
X100767208Y-125619915D01*
X100755097Y-125616241D01*
X100743937Y-125610276D01*
X100734153Y-125602247D01*
X100726124Y-125592463D01*
X100720159Y-125581303D01*
X100716485Y-125569192D01*
X100715000Y-125554109D01*
X100715000Y-125327891D01*
X100716485Y-125312808D01*
X100720159Y-125300697D01*
X100726124Y-125289537D01*
X100734153Y-125279753D01*
X100743937Y-125271724D01*
X100755097Y-125265759D01*
X100767208Y-125262085D01*
X100782291Y-125260600D01*
X101038509Y-125260600D01*
X101053592Y-125262085D01*
G37*
G36*
X104301200Y-125266400D02*
G01*
X103850400Y-125266400D01*
X103850400Y-124995600D01*
X104301200Y-124995600D01*
X104301200Y-125266400D01*
G37*
G36*
X103101200Y-125266400D02*
G01*
X102650400Y-125266400D01*
X102650400Y-124995600D01*
X103101200Y-124995600D01*
X103101200Y-125266400D01*
G37*
G36*
X105110992Y-124862485D02*
G01*
X105123103Y-124866159D01*
X105134263Y-124872124D01*
X105144047Y-124880153D01*
X105152076Y-124889937D01*
X105158041Y-124901097D01*
X105161715Y-124913208D01*
X105163200Y-124928291D01*
X105163200Y-125184509D01*
X105161715Y-125199592D01*
X105158041Y-125211703D01*
X105152076Y-125222863D01*
X105144047Y-125232647D01*
X105134263Y-125240676D01*
X105123103Y-125246641D01*
X105110992Y-125250315D01*
X105095909Y-125251800D01*
X104869691Y-125251800D01*
X104854608Y-125250315D01*
X104842497Y-125246641D01*
X104831337Y-125240676D01*
X104821553Y-125232647D01*
X104813524Y-125222863D01*
X104807559Y-125211703D01*
X104803885Y-125199592D01*
X104802400Y-125184509D01*
X104802400Y-124928291D01*
X104803885Y-124913208D01*
X104807559Y-124901097D01*
X104813524Y-124889937D01*
X104821553Y-124880153D01*
X104831337Y-124872124D01*
X104842497Y-124866159D01*
X104854608Y-124862485D01*
X104869691Y-124861000D01*
X105095909Y-124861000D01*
X105110992Y-124862485D01*
G37*
G36*
X105660992Y-124862485D02*
G01*
X105673103Y-124866159D01*
X105684263Y-124872124D01*
X105694047Y-124880153D01*
X105702076Y-124889937D01*
X105708041Y-124901097D01*
X105711715Y-124913208D01*
X105713200Y-124928291D01*
X105713200Y-125184509D01*
X105711715Y-125199592D01*
X105708041Y-125211703D01*
X105702076Y-125222863D01*
X105694047Y-125232647D01*
X105684263Y-125240676D01*
X105673103Y-125246641D01*
X105660992Y-125250315D01*
X105645909Y-125251800D01*
X105419691Y-125251800D01*
X105404608Y-125250315D01*
X105392497Y-125246641D01*
X105381337Y-125240676D01*
X105371553Y-125232647D01*
X105363524Y-125222863D01*
X105357559Y-125211703D01*
X105353885Y-125199592D01*
X105352400Y-125184509D01*
X105352400Y-124928291D01*
X105353885Y-124913208D01*
X105357559Y-124901097D01*
X105363524Y-124889937D01*
X105371553Y-124880153D01*
X105381337Y-124872124D01*
X105392497Y-124866159D01*
X105404608Y-124862485D01*
X105419691Y-124861000D01*
X105645909Y-124861000D01*
X105660992Y-124862485D01*
G37*
G36*
X106177792Y-124862485D02*
G01*
X106189903Y-124866159D01*
X106201063Y-124872124D01*
X106210847Y-124880153D01*
X106218876Y-124889937D01*
X106224841Y-124901097D01*
X106228515Y-124913208D01*
X106230000Y-124928291D01*
X106230000Y-125184509D01*
X106228515Y-125199592D01*
X106224841Y-125211703D01*
X106218876Y-125222863D01*
X106210847Y-125232647D01*
X106201063Y-125240676D01*
X106189903Y-125246641D01*
X106177792Y-125250315D01*
X106162709Y-125251800D01*
X105936491Y-125251800D01*
X105921408Y-125250315D01*
X105909297Y-125246641D01*
X105898137Y-125240676D01*
X105888353Y-125232647D01*
X105880324Y-125222863D01*
X105874359Y-125211703D01*
X105870685Y-125199592D01*
X105869200Y-125184509D01*
X105869200Y-124928291D01*
X105870685Y-124913208D01*
X105874359Y-124901097D01*
X105880324Y-124889937D01*
X105888353Y-124880153D01*
X105898137Y-124872124D01*
X105909297Y-124866159D01*
X105921408Y-124862485D01*
X105936491Y-124861000D01*
X106162709Y-124861000D01*
X106177792Y-124862485D01*
G37*
G36*
X106727792Y-124862485D02*
G01*
X106739903Y-124866159D01*
X106751063Y-124872124D01*
X106760847Y-124880153D01*
X106768876Y-124889937D01*
X106774841Y-124901097D01*
X106778515Y-124913208D01*
X106780000Y-124928291D01*
X106780000Y-125184509D01*
X106778515Y-125199592D01*
X106774841Y-125211703D01*
X106768876Y-125222863D01*
X106760847Y-125232647D01*
X106751063Y-125240676D01*
X106739903Y-125246641D01*
X106727792Y-125250315D01*
X106712709Y-125251800D01*
X106486491Y-125251800D01*
X106471408Y-125250315D01*
X106459297Y-125246641D01*
X106448137Y-125240676D01*
X106438353Y-125232647D01*
X106430324Y-125222863D01*
X106424359Y-125211703D01*
X106420685Y-125199592D01*
X106419200Y-125184509D01*
X106419200Y-124928291D01*
X106420685Y-124913208D01*
X106424359Y-124901097D01*
X106430324Y-124889937D01*
X106438353Y-124880153D01*
X106448137Y-124872124D01*
X106459297Y-124866159D01*
X106471408Y-124862485D01*
X106486491Y-124861000D01*
X106712709Y-124861000D01*
X106727792Y-124862485D01*
G37*
G36*
X101053592Y-124712085D02*
G01*
X101065703Y-124715759D01*
X101076863Y-124721724D01*
X101086647Y-124729753D01*
X101094676Y-124739537D01*
X101100641Y-124750697D01*
X101104315Y-124762808D01*
X101105800Y-124777891D01*
X101105800Y-125004109D01*
X101104315Y-125019192D01*
X101100641Y-125031303D01*
X101094676Y-125042463D01*
X101086647Y-125052247D01*
X101076863Y-125060276D01*
X101065703Y-125066241D01*
X101053592Y-125069915D01*
X101038509Y-125071400D01*
X100782291Y-125071400D01*
X100767208Y-125069915D01*
X100755097Y-125066241D01*
X100743937Y-125060276D01*
X100734153Y-125052247D01*
X100726124Y-125042463D01*
X100720159Y-125031303D01*
X100716485Y-125019192D01*
X100715000Y-125004109D01*
X100715000Y-124777891D01*
X100716485Y-124762808D01*
X100720159Y-124750697D01*
X100726124Y-124739537D01*
X100734153Y-124729753D01*
X100743937Y-124721724D01*
X100755097Y-124715759D01*
X100767208Y-124712085D01*
X100782291Y-124710600D01*
X101038509Y-124710600D01*
X101053592Y-124712085D01*
G37*
G36*
X101637792Y-124712085D02*
G01*
X101649903Y-124715759D01*
X101661063Y-124721724D01*
X101670847Y-124729753D01*
X101678876Y-124739537D01*
X101684841Y-124750697D01*
X101688515Y-124762808D01*
X101690000Y-124777891D01*
X101690000Y-125004109D01*
X101688515Y-125019192D01*
X101684841Y-125031303D01*
X101678876Y-125042463D01*
X101670847Y-125052247D01*
X101661063Y-125060276D01*
X101649903Y-125066241D01*
X101637792Y-125069915D01*
X101622709Y-125071400D01*
X101366491Y-125071400D01*
X101351408Y-125069915D01*
X101339297Y-125066241D01*
X101328137Y-125060276D01*
X101318353Y-125052247D01*
X101310324Y-125042463D01*
X101304359Y-125031303D01*
X101300685Y-125019192D01*
X101299200Y-125004109D01*
X101299200Y-124777891D01*
X101300685Y-124762808D01*
X101304359Y-124750697D01*
X101310324Y-124739537D01*
X101318353Y-124729753D01*
X101328137Y-124721724D01*
X101339297Y-124715759D01*
X101351408Y-124712085D01*
X101366491Y-124710600D01*
X101622709Y-124710600D01*
X101637792Y-124712085D01*
G37*
G36*
X111184000Y-124871000D02*
G01*
X110863200Y-124871000D01*
X110863200Y-124080200D01*
X111184000Y-124080200D01*
X111184000Y-124871000D01*
G37*
G36*
X111684000Y-124871000D02*
G01*
X111363200Y-124871000D01*
X111363200Y-124080200D01*
X111684000Y-124080200D01*
X111684000Y-124871000D01*
G37*
G36*
X110684000Y-124871000D02*
G01*
X110363200Y-124871000D01*
X110363200Y-124080200D01*
X110684000Y-124080200D01*
X110684000Y-124871000D01*
G37*
G36*
X107396992Y-124379885D02*
G01*
X107409103Y-124383559D01*
X107420263Y-124389524D01*
X107430047Y-124397553D01*
X107438076Y-124407337D01*
X107444041Y-124418497D01*
X107447715Y-124430608D01*
X107449200Y-124445691D01*
X107449200Y-124701909D01*
X107447715Y-124716992D01*
X107444041Y-124729103D01*
X107438076Y-124740263D01*
X107430047Y-124750047D01*
X107420263Y-124758076D01*
X107409103Y-124764041D01*
X107396992Y-124767715D01*
X107381909Y-124769200D01*
X107155691Y-124769200D01*
X107140608Y-124767715D01*
X107128497Y-124764041D01*
X107117337Y-124758076D01*
X107107553Y-124750047D01*
X107099524Y-124740263D01*
X107093559Y-124729103D01*
X107089885Y-124716992D01*
X107088400Y-124701909D01*
X107088400Y-124445691D01*
X107089885Y-124430608D01*
X107093559Y-124418497D01*
X107099524Y-124407337D01*
X107107553Y-124397553D01*
X107117337Y-124389524D01*
X107128497Y-124383559D01*
X107140608Y-124379885D01*
X107155691Y-124378400D01*
X107381909Y-124378400D01*
X107396992Y-124379885D01*
G37*
G36*
X108489192Y-124379885D02*
G01*
X108501303Y-124383559D01*
X108512463Y-124389524D01*
X108522247Y-124397553D01*
X108530276Y-124407337D01*
X108536241Y-124418497D01*
X108539915Y-124430608D01*
X108541400Y-124445691D01*
X108541400Y-124701909D01*
X108539915Y-124716992D01*
X108536241Y-124729103D01*
X108530276Y-124740263D01*
X108522247Y-124750047D01*
X108512463Y-124758076D01*
X108501303Y-124764041D01*
X108489192Y-124767715D01*
X108474109Y-124769200D01*
X108247891Y-124769200D01*
X108232808Y-124767715D01*
X108220697Y-124764041D01*
X108209537Y-124758076D01*
X108199753Y-124750047D01*
X108191724Y-124740263D01*
X108185759Y-124729103D01*
X108182085Y-124716992D01*
X108180600Y-124701909D01*
X108180600Y-124445691D01*
X108182085Y-124430608D01*
X108185759Y-124418497D01*
X108191724Y-124407337D01*
X108199753Y-124397553D01*
X108209537Y-124389524D01*
X108220697Y-124383559D01*
X108232808Y-124379885D01*
X108247891Y-124378400D01*
X108474109Y-124378400D01*
X108489192Y-124379885D01*
G37*
G36*
X109039192Y-124379885D02*
G01*
X109051303Y-124383559D01*
X109062463Y-124389524D01*
X109072247Y-124397553D01*
X109080276Y-124407337D01*
X109086241Y-124418497D01*
X109089915Y-124430608D01*
X109091400Y-124445691D01*
X109091400Y-124701909D01*
X109089915Y-124716992D01*
X109086241Y-124729103D01*
X109080276Y-124740263D01*
X109072247Y-124750047D01*
X109062463Y-124758076D01*
X109051303Y-124764041D01*
X109039192Y-124767715D01*
X109024109Y-124769200D01*
X108797891Y-124769200D01*
X108782808Y-124767715D01*
X108770697Y-124764041D01*
X108759537Y-124758076D01*
X108749753Y-124750047D01*
X108741724Y-124740263D01*
X108735759Y-124729103D01*
X108732085Y-124716992D01*
X108730600Y-124701909D01*
X108730600Y-124445691D01*
X108732085Y-124430608D01*
X108735759Y-124418497D01*
X108741724Y-124407337D01*
X108749753Y-124397553D01*
X108759537Y-124389524D01*
X108770697Y-124383559D01*
X108782808Y-124379885D01*
X108797891Y-124378400D01*
X109024109Y-124378400D01*
X109039192Y-124379885D01*
G37*
G36*
X109555992Y-124379885D02*
G01*
X109568103Y-124383559D01*
X109579263Y-124389524D01*
X109589047Y-124397553D01*
X109597076Y-124407337D01*
X109603041Y-124418497D01*
X109606715Y-124430608D01*
X109608200Y-124445691D01*
X109608200Y-124701909D01*
X109606715Y-124716992D01*
X109603041Y-124729103D01*
X109597076Y-124740263D01*
X109589047Y-124750047D01*
X109579263Y-124758076D01*
X109568103Y-124764041D01*
X109555992Y-124767715D01*
X109540909Y-124769200D01*
X109314691Y-124769200D01*
X109299608Y-124767715D01*
X109287497Y-124764041D01*
X109276337Y-124758076D01*
X109266553Y-124750047D01*
X109258524Y-124740263D01*
X109252559Y-124729103D01*
X109248885Y-124716992D01*
X109247400Y-124701909D01*
X109247400Y-124445691D01*
X109248885Y-124430608D01*
X109252559Y-124418497D01*
X109258524Y-124407337D01*
X109266553Y-124397553D01*
X109276337Y-124389524D01*
X109287497Y-124383559D01*
X109299608Y-124379885D01*
X109314691Y-124378400D01*
X109540909Y-124378400D01*
X109555992Y-124379885D01*
G37*
G36*
X110105992Y-124379885D02*
G01*
X110118103Y-124383559D01*
X110129263Y-124389524D01*
X110139047Y-124397553D01*
X110147076Y-124407337D01*
X110153041Y-124418497D01*
X110156715Y-124430608D01*
X110158200Y-124445691D01*
X110158200Y-124701909D01*
X110156715Y-124716992D01*
X110153041Y-124729103D01*
X110147076Y-124740263D01*
X110139047Y-124750047D01*
X110129263Y-124758076D01*
X110118103Y-124764041D01*
X110105992Y-124767715D01*
X110090909Y-124769200D01*
X109864691Y-124769200D01*
X109849608Y-124767715D01*
X109837497Y-124764041D01*
X109826337Y-124758076D01*
X109816553Y-124750047D01*
X109808524Y-124740263D01*
X109802559Y-124729103D01*
X109798885Y-124716992D01*
X109797400Y-124701909D01*
X109797400Y-124445691D01*
X109798885Y-124430608D01*
X109802559Y-124418497D01*
X109808524Y-124407337D01*
X109816553Y-124397553D01*
X109826337Y-124389524D01*
X109837497Y-124383559D01*
X109849608Y-124379885D01*
X109864691Y-124378400D01*
X110090909Y-124378400D01*
X110105992Y-124379885D01*
G37*
G36*
X107946992Y-124379885D02*
G01*
X107959103Y-124383559D01*
X107970263Y-124389524D01*
X107980047Y-124397553D01*
X107988076Y-124407337D01*
X107994041Y-124418497D01*
X107997715Y-124430608D01*
X107999200Y-124445691D01*
X107999200Y-124701909D01*
X107997715Y-124716992D01*
X107994041Y-124729103D01*
X107988076Y-124740263D01*
X107980047Y-124750047D01*
X107970263Y-124758076D01*
X107959103Y-124764041D01*
X107946992Y-124767715D01*
X107931909Y-124769200D01*
X107705691Y-124769200D01*
X107690608Y-124767715D01*
X107678497Y-124764041D01*
X107667337Y-124758076D01*
X107657553Y-124750047D01*
X107649524Y-124740263D01*
X107643559Y-124729103D01*
X107639885Y-124716992D01*
X107638400Y-124701909D01*
X107638400Y-124445691D01*
X107639885Y-124430608D01*
X107643559Y-124418497D01*
X107649524Y-124407337D01*
X107657553Y-124397553D01*
X107667337Y-124389524D01*
X107678497Y-124383559D01*
X107690608Y-124379885D01*
X107705691Y-124378400D01*
X107931909Y-124378400D01*
X107946992Y-124379885D01*
G37*
G36*
X103111200Y-124756400D02*
G01*
X102840400Y-124756400D01*
X102840400Y-124305600D01*
X103111200Y-124305600D01*
X103111200Y-124756400D01*
G37*
G36*
X104111200Y-124756400D02*
G01*
X103840400Y-124756400D01*
X103840400Y-124305600D01*
X104111200Y-124305600D01*
X104111200Y-124756400D01*
G37*
G36*
X103611200Y-124756400D02*
G01*
X103340400Y-124756400D01*
X103340400Y-124305600D01*
X103611200Y-124305600D01*
X103611200Y-124756400D01*
G37*
G36*
X106177792Y-124278285D02*
G01*
X106189903Y-124281959D01*
X106201063Y-124287924D01*
X106210847Y-124295953D01*
X106218876Y-124305737D01*
X106224841Y-124316897D01*
X106228515Y-124329008D01*
X106230000Y-124344091D01*
X106230000Y-124600309D01*
X106228515Y-124615392D01*
X106224841Y-124627503D01*
X106218876Y-124638663D01*
X106210847Y-124648447D01*
X106201063Y-124656476D01*
X106189903Y-124662441D01*
X106177792Y-124666115D01*
X106162709Y-124667600D01*
X105936491Y-124667600D01*
X105921408Y-124666115D01*
X105909297Y-124662441D01*
X105898137Y-124656476D01*
X105888353Y-124648447D01*
X105880324Y-124638663D01*
X105874359Y-124627503D01*
X105870685Y-124615392D01*
X105869200Y-124600309D01*
X105869200Y-124344091D01*
X105870685Y-124329008D01*
X105874359Y-124316897D01*
X105880324Y-124305737D01*
X105888353Y-124295953D01*
X105898137Y-124287924D01*
X105909297Y-124281959D01*
X105921408Y-124278285D01*
X105936491Y-124276800D01*
X106162709Y-124276800D01*
X106177792Y-124278285D01*
G37*
G36*
X105110992Y-124278285D02*
G01*
X105123103Y-124281959D01*
X105134263Y-124287924D01*
X105144047Y-124295953D01*
X105152076Y-124305737D01*
X105158041Y-124316897D01*
X105161715Y-124329008D01*
X105163200Y-124344091D01*
X105163200Y-124600309D01*
X105161715Y-124615392D01*
X105158041Y-124627503D01*
X105152076Y-124638663D01*
X105144047Y-124648447D01*
X105134263Y-124656476D01*
X105123103Y-124662441D01*
X105110992Y-124666115D01*
X105095909Y-124667600D01*
X104869691Y-124667600D01*
X104854608Y-124666115D01*
X104842497Y-124662441D01*
X104831337Y-124656476D01*
X104821553Y-124648447D01*
X104813524Y-124638663D01*
X104807559Y-124627503D01*
X104803885Y-124615392D01*
X104802400Y-124600309D01*
X104802400Y-124344091D01*
X104803885Y-124329008D01*
X104807559Y-124316897D01*
X104813524Y-124305737D01*
X104821553Y-124295953D01*
X104831337Y-124287924D01*
X104842497Y-124281959D01*
X104854608Y-124278285D01*
X104869691Y-124276800D01*
X105095909Y-124276800D01*
X105110992Y-124278285D01*
G37*
G36*
X106727792Y-124278285D02*
G01*
X106739903Y-124281959D01*
X106751063Y-124287924D01*
X106760847Y-124295953D01*
X106768876Y-124305737D01*
X106774841Y-124316897D01*
X106778515Y-124329008D01*
X106780000Y-124344091D01*
X106780000Y-124600309D01*
X106778515Y-124615392D01*
X106774841Y-124627503D01*
X106768876Y-124638663D01*
X106760847Y-124648447D01*
X106751063Y-124656476D01*
X106739903Y-124662441D01*
X106727792Y-124666115D01*
X106712709Y-124667600D01*
X106486491Y-124667600D01*
X106471408Y-124666115D01*
X106459297Y-124662441D01*
X106448137Y-124656476D01*
X106438353Y-124648447D01*
X106430324Y-124638663D01*
X106424359Y-124627503D01*
X106420685Y-124615392D01*
X106419200Y-124600309D01*
X106419200Y-124344091D01*
X106420685Y-124329008D01*
X106424359Y-124316897D01*
X106430324Y-124305737D01*
X106438353Y-124295953D01*
X106448137Y-124287924D01*
X106459297Y-124281959D01*
X106471408Y-124278285D01*
X106486491Y-124276800D01*
X106712709Y-124276800D01*
X106727792Y-124278285D01*
G37*
G36*
X105660992Y-124278285D02*
G01*
X105673103Y-124281959D01*
X105684263Y-124287924D01*
X105694047Y-124295953D01*
X105702076Y-124305737D01*
X105708041Y-124316897D01*
X105711715Y-124329008D01*
X105713200Y-124344091D01*
X105713200Y-124600309D01*
X105711715Y-124615392D01*
X105708041Y-124627503D01*
X105702076Y-124638663D01*
X105694047Y-124648447D01*
X105684263Y-124656476D01*
X105673103Y-124662441D01*
X105660992Y-124666115D01*
X105645909Y-124667600D01*
X105419691Y-124667600D01*
X105404608Y-124666115D01*
X105392497Y-124662441D01*
X105381337Y-124656476D01*
X105371553Y-124648447D01*
X105363524Y-124638663D01*
X105357559Y-124627503D01*
X105353885Y-124615392D01*
X105352400Y-124600309D01*
X105352400Y-124344091D01*
X105353885Y-124329008D01*
X105357559Y-124316897D01*
X105363524Y-124305737D01*
X105371553Y-124295953D01*
X105381337Y-124287924D01*
X105392497Y-124281959D01*
X105404608Y-124278285D01*
X105419691Y-124276800D01*
X105645909Y-124276800D01*
X105660992Y-124278285D01*
G37*
G36*
X116578992Y-116844085D02*
G01*
X116591103Y-116847759D01*
X116602263Y-116853724D01*
X116612047Y-116861753D01*
X116620076Y-116871537D01*
X116626041Y-116882697D01*
X116629715Y-116894808D01*
X116631200Y-116909891D01*
X116631200Y-117166109D01*
X116629715Y-117181192D01*
X116626041Y-117193303D01*
X116620076Y-117204463D01*
X116612047Y-117214247D01*
X116602263Y-117222276D01*
X116591103Y-117228241D01*
X116578992Y-117231915D01*
X116563909Y-117233400D01*
X116337691Y-117233400D01*
X116322608Y-117231915D01*
X116310497Y-117228241D01*
X116299337Y-117222276D01*
X116289553Y-117214247D01*
X116281524Y-117204463D01*
X116275559Y-117193303D01*
X116271885Y-117181192D01*
X116270400Y-117166109D01*
X116270400Y-116909891D01*
X116271885Y-116894808D01*
X116275559Y-116882697D01*
X116281524Y-116871537D01*
X116289553Y-116861753D01*
X116299337Y-116853724D01*
X116310497Y-116847759D01*
X116322608Y-116844085D01*
X116337691Y-116842600D01*
X116563909Y-116842600D01*
X116578992Y-116844085D01*
G37*
G36*
X116028992Y-116844085D02*
G01*
X116041103Y-116847759D01*
X116052263Y-116853724D01*
X116062047Y-116861753D01*
X116070076Y-116871537D01*
X116076041Y-116882697D01*
X116079715Y-116894808D01*
X116081200Y-116909891D01*
X116081200Y-117166109D01*
X116079715Y-117181192D01*
X116076041Y-117193303D01*
X116070076Y-117204463D01*
X116062047Y-117214247D01*
X116052263Y-117222276D01*
X116041103Y-117228241D01*
X116028992Y-117231915D01*
X116013909Y-117233400D01*
X115787691Y-117233400D01*
X115772608Y-117231915D01*
X115760497Y-117228241D01*
X115749337Y-117222276D01*
X115739553Y-117214247D01*
X115731524Y-117204463D01*
X115725559Y-117193303D01*
X115721885Y-117181192D01*
X115720400Y-117166109D01*
X115720400Y-116909891D01*
X115721885Y-116894808D01*
X115725559Y-116882697D01*
X115731524Y-116871537D01*
X115739553Y-116861753D01*
X115749337Y-116853724D01*
X115760497Y-116847759D01*
X115772608Y-116844085D01*
X115787691Y-116842600D01*
X116013909Y-116842600D01*
X116028992Y-116844085D01*
G37*
G36*
X115334392Y-116844085D02*
G01*
X115346503Y-116847759D01*
X115357663Y-116853724D01*
X115367447Y-116861753D01*
X115375476Y-116871537D01*
X115381441Y-116882697D01*
X115385115Y-116894808D01*
X115386600Y-116909891D01*
X115386600Y-117166109D01*
X115385115Y-117181192D01*
X115381441Y-117193303D01*
X115375476Y-117204463D01*
X115367447Y-117214247D01*
X115357663Y-117222276D01*
X115346503Y-117228241D01*
X115334392Y-117231915D01*
X115319309Y-117233400D01*
X115093091Y-117233400D01*
X115078008Y-117231915D01*
X115065897Y-117228241D01*
X115054737Y-117222276D01*
X115044953Y-117214247D01*
X115036924Y-117204463D01*
X115030959Y-117193303D01*
X115027285Y-117181192D01*
X115025800Y-117166109D01*
X115025800Y-116909891D01*
X115027285Y-116894808D01*
X115030959Y-116882697D01*
X115036924Y-116871537D01*
X115044953Y-116861753D01*
X115054737Y-116853724D01*
X115065897Y-116847759D01*
X115078008Y-116844085D01*
X115093091Y-116842600D01*
X115319309Y-116842600D01*
X115334392Y-116844085D01*
G37*
G36*
X114784392Y-116844085D02*
G01*
X114796503Y-116847759D01*
X114807663Y-116853724D01*
X114817447Y-116861753D01*
X114825476Y-116871537D01*
X114831441Y-116882697D01*
X114835115Y-116894808D01*
X114836600Y-116909891D01*
X114836600Y-117166109D01*
X114835115Y-117181192D01*
X114831441Y-117193303D01*
X114825476Y-117204463D01*
X114817447Y-117214247D01*
X114807663Y-117222276D01*
X114796503Y-117228241D01*
X114784392Y-117231915D01*
X114769309Y-117233400D01*
X114543091Y-117233400D01*
X114528008Y-117231915D01*
X114515897Y-117228241D01*
X114504737Y-117222276D01*
X114494953Y-117214247D01*
X114486924Y-117204463D01*
X114480959Y-117193303D01*
X114477285Y-117181192D01*
X114475800Y-117166109D01*
X114475800Y-116909891D01*
X114477285Y-116894808D01*
X114480959Y-116882697D01*
X114486924Y-116871537D01*
X114494953Y-116861753D01*
X114504737Y-116853724D01*
X114515897Y-116847759D01*
X114528008Y-116844085D01*
X114543091Y-116842600D01*
X114769309Y-116842600D01*
X114784392Y-116844085D01*
G37*
G36*
X117590200Y-116328200D02*
G01*
X117279400Y-116328200D01*
X117279400Y-115597400D01*
X117590200Y-115597400D01*
X117590200Y-116328200D01*
G37*
G36*
X116590200Y-116328200D02*
G01*
X116279400Y-116328200D01*
X116279400Y-115597400D01*
X116590200Y-115597400D01*
X116590200Y-116328200D01*
G37*
G36*
X117090200Y-116328200D02*
G01*
X116779400Y-116328200D01*
X116779400Y-115597400D01*
X117090200Y-115597400D01*
X117090200Y-116328200D01*
G37*
G36*
X116090200Y-116328200D02*
G01*
X115779400Y-116328200D01*
X115779400Y-115597400D01*
X116090200Y-115597400D01*
X116090200Y-116328200D01*
G37*
G36*
X118090200Y-116328200D02*
G01*
X117779400Y-116328200D01*
X117779400Y-115597400D01*
X118090200Y-115597400D01*
X118090200Y-116328200D01*
G37*
G36*
X118590200Y-116328200D02*
G01*
X118279400Y-116328200D01*
X118279400Y-115597400D01*
X118590200Y-115597400D01*
X118590200Y-116328200D01*
G37*
G36*
X119090200Y-116328200D02*
G01*
X118779400Y-116328200D01*
X118779400Y-115597400D01*
X119090200Y-115597400D01*
X119090200Y-116328200D01*
G37*
G36*
X119590200Y-116328200D02*
G01*
X119279400Y-116328200D01*
X119279400Y-115597400D01*
X119590200Y-115597400D01*
X119590200Y-116328200D01*
G37*
G36*
X115715200Y-115533200D02*
G01*
X114984400Y-115533200D01*
X114984400Y-115222400D01*
X115715200Y-115222400D01*
X115715200Y-115533200D01*
G37*
G36*
X120385200Y-115533200D02*
G01*
X119654400Y-115533200D01*
X119654400Y-115222400D01*
X120385200Y-115222400D01*
X120385200Y-115533200D01*
G37*
G36*
X106270120Y-115063046D02*
G01*
X106281264Y-115067662D01*
X106292403Y-115072275D01*
X106292404Y-115072276D01*
X106292407Y-115072277D01*
X106312464Y-115085679D01*
X106329521Y-115102736D01*
X106342923Y-115122793D01*
X106352154Y-115145080D01*
X106356860Y-115168739D01*
X106356860Y-115192861D01*
X106352154Y-115216520D01*
X106342923Y-115238807D01*
X106329521Y-115258864D01*
X106312464Y-115275921D01*
X106292407Y-115289323D01*
X106292404Y-115289324D01*
X106292403Y-115289325D01*
X106281264Y-115293938D01*
X106270120Y-115298554D01*
X106246461Y-115303260D01*
X106222339Y-115303260D01*
X106198680Y-115298554D01*
X106187536Y-115293938D01*
X106176397Y-115289325D01*
X106176396Y-115289324D01*
X106176393Y-115289323D01*
X106156336Y-115275921D01*
X106139279Y-115258864D01*
X106125877Y-115238807D01*
X106116646Y-115216520D01*
X106111940Y-115192861D01*
X106111940Y-115168739D01*
X106116646Y-115145080D01*
X106125877Y-115122793D01*
X106139279Y-115102736D01*
X106156336Y-115085679D01*
X106176393Y-115072277D01*
X106176396Y-115072276D01*
X106176397Y-115072275D01*
X106187536Y-115067662D01*
X106198680Y-115063046D01*
X106222339Y-115058340D01*
X106246461Y-115058340D01*
X106270120Y-115063046D01*
G37*
G36*
X101270120Y-115063046D02*
G01*
X101281264Y-115067662D01*
X101292403Y-115072275D01*
X101292404Y-115072276D01*
X101292407Y-115072277D01*
X101312464Y-115085679D01*
X101329521Y-115102736D01*
X101342923Y-115122793D01*
X101352154Y-115145080D01*
X101356860Y-115168739D01*
X101356860Y-115192861D01*
X101352154Y-115216520D01*
X101342923Y-115238807D01*
X101329521Y-115258864D01*
X101312464Y-115275921D01*
X101292407Y-115289323D01*
X101292404Y-115289324D01*
X101292403Y-115289325D01*
X101281264Y-115293938D01*
X101270120Y-115298554D01*
X101246461Y-115303260D01*
X101222339Y-115303260D01*
X101198680Y-115298554D01*
X101187536Y-115293938D01*
X101176397Y-115289325D01*
X101176396Y-115289324D01*
X101176393Y-115289323D01*
X101156336Y-115275921D01*
X101139279Y-115258864D01*
X101125877Y-115238807D01*
X101116646Y-115216520D01*
X101111940Y-115192861D01*
X101111940Y-115168739D01*
X101116646Y-115145080D01*
X101125877Y-115122793D01*
X101139279Y-115102736D01*
X101156336Y-115085679D01*
X101176393Y-115072277D01*
X101176396Y-115072276D01*
X101176397Y-115072275D01*
X101187536Y-115067662D01*
X101198680Y-115063046D01*
X101222339Y-115058340D01*
X101246461Y-115058340D01*
X101270120Y-115063046D01*
G37*
G36*
X105270120Y-115063046D02*
G01*
X105281264Y-115067662D01*
X105292403Y-115072275D01*
X105292404Y-115072276D01*
X105292407Y-115072277D01*
X105312464Y-115085679D01*
X105329521Y-115102736D01*
X105342923Y-115122793D01*
X105352154Y-115145080D01*
X105356860Y-115168739D01*
X105356860Y-115192861D01*
X105352154Y-115216520D01*
X105342923Y-115238807D01*
X105329521Y-115258864D01*
X105312464Y-115275921D01*
X105292407Y-115289323D01*
X105292404Y-115289324D01*
X105292403Y-115289325D01*
X105281264Y-115293938D01*
X105270120Y-115298554D01*
X105246461Y-115303260D01*
X105222339Y-115303260D01*
X105198680Y-115298554D01*
X105187536Y-115293938D01*
X105176397Y-115289325D01*
X105176396Y-115289324D01*
X105176393Y-115289323D01*
X105156336Y-115275921D01*
X105139279Y-115258864D01*
X105125877Y-115238807D01*
X105116646Y-115216520D01*
X105111940Y-115192861D01*
X105111940Y-115168739D01*
X105116646Y-115145080D01*
X105125877Y-115122793D01*
X105139279Y-115102736D01*
X105156336Y-115085679D01*
X105176393Y-115072277D01*
X105176396Y-115072276D01*
X105176397Y-115072275D01*
X105187536Y-115067662D01*
X105198680Y-115063046D01*
X105222339Y-115058340D01*
X105246461Y-115058340D01*
X105270120Y-115063046D01*
G37*
G36*
X104270120Y-115063046D02*
G01*
X104281264Y-115067662D01*
X104292403Y-115072275D01*
X104292404Y-115072276D01*
X104292407Y-115072277D01*
X104312464Y-115085679D01*
X104329521Y-115102736D01*
X104342923Y-115122793D01*
X104352154Y-115145080D01*
X104356860Y-115168739D01*
X104356860Y-115192861D01*
X104352154Y-115216520D01*
X104342923Y-115238807D01*
X104329521Y-115258864D01*
X104312464Y-115275921D01*
X104292407Y-115289323D01*
X104292404Y-115289324D01*
X104292403Y-115289325D01*
X104281264Y-115293938D01*
X104270120Y-115298554D01*
X104246461Y-115303260D01*
X104222339Y-115303260D01*
X104198680Y-115298554D01*
X104187536Y-115293938D01*
X104176397Y-115289325D01*
X104176396Y-115289324D01*
X104176393Y-115289323D01*
X104156336Y-115275921D01*
X104139279Y-115258864D01*
X104125877Y-115238807D01*
X104116646Y-115216520D01*
X104111940Y-115192861D01*
X104111940Y-115168739D01*
X104116646Y-115145080D01*
X104125877Y-115122793D01*
X104139279Y-115102736D01*
X104156336Y-115085679D01*
X104176393Y-115072277D01*
X104176396Y-115072276D01*
X104176397Y-115072275D01*
X104187536Y-115067662D01*
X104198680Y-115063046D01*
X104222339Y-115058340D01*
X104246461Y-115058340D01*
X104270120Y-115063046D01*
G37*
G36*
X105770120Y-115063046D02*
G01*
X105781264Y-115067662D01*
X105792403Y-115072275D01*
X105792404Y-115072276D01*
X105792407Y-115072277D01*
X105812464Y-115085679D01*
X105829521Y-115102736D01*
X105842923Y-115122793D01*
X105852154Y-115145080D01*
X105856860Y-115168739D01*
X105856860Y-115192861D01*
X105852154Y-115216520D01*
X105842923Y-115238807D01*
X105829521Y-115258864D01*
X105812464Y-115275921D01*
X105792407Y-115289323D01*
X105792404Y-115289324D01*
X105792403Y-115289325D01*
X105781264Y-115293938D01*
X105770120Y-115298554D01*
X105746461Y-115303260D01*
X105722339Y-115303260D01*
X105698680Y-115298554D01*
X105687536Y-115293938D01*
X105676397Y-115289325D01*
X105676396Y-115289324D01*
X105676393Y-115289323D01*
X105656336Y-115275921D01*
X105639279Y-115258864D01*
X105625877Y-115238807D01*
X105616646Y-115216520D01*
X105611940Y-115192861D01*
X105611940Y-115168739D01*
X105616646Y-115145080D01*
X105625877Y-115122793D01*
X105639279Y-115102736D01*
X105656336Y-115085679D01*
X105676393Y-115072277D01*
X105676396Y-115072276D01*
X105676397Y-115072275D01*
X105687536Y-115067662D01*
X105698680Y-115063046D01*
X105722339Y-115058340D01*
X105746461Y-115058340D01*
X105770120Y-115063046D01*
G37*
G36*
X102270120Y-115063046D02*
G01*
X102281264Y-115067662D01*
X102292403Y-115072275D01*
X102292404Y-115072276D01*
X102292407Y-115072277D01*
X102312464Y-115085679D01*
X102329521Y-115102736D01*
X102342923Y-115122793D01*
X102352154Y-115145080D01*
X102356860Y-115168739D01*
X102356860Y-115192861D01*
X102352154Y-115216520D01*
X102342923Y-115238807D01*
X102329521Y-115258864D01*
X102312464Y-115275921D01*
X102292407Y-115289323D01*
X102292404Y-115289324D01*
X102292403Y-115289325D01*
X102281264Y-115293938D01*
X102270120Y-115298554D01*
X102246461Y-115303260D01*
X102222339Y-115303260D01*
X102198680Y-115298554D01*
X102187536Y-115293938D01*
X102176397Y-115289325D01*
X102176396Y-115289324D01*
X102176393Y-115289323D01*
X102156336Y-115275921D01*
X102139279Y-115258864D01*
X102125877Y-115238807D01*
X102116646Y-115216520D01*
X102111940Y-115192861D01*
X102111940Y-115168739D01*
X102116646Y-115145080D01*
X102125877Y-115122793D01*
X102139279Y-115102736D01*
X102156336Y-115085679D01*
X102176393Y-115072277D01*
X102176396Y-115072276D01*
X102176397Y-115072275D01*
X102187536Y-115067662D01*
X102198680Y-115063046D01*
X102222339Y-115058340D01*
X102246461Y-115058340D01*
X102270120Y-115063046D01*
G37*
G36*
X101770120Y-115063046D02*
G01*
X101781264Y-115067662D01*
X101792403Y-115072275D01*
X101792404Y-115072276D01*
X101792407Y-115072277D01*
X101812464Y-115085679D01*
X101829521Y-115102736D01*
X101842923Y-115122793D01*
X101852154Y-115145080D01*
X101856860Y-115168739D01*
X101856860Y-115192861D01*
X101852154Y-115216520D01*
X101842923Y-115238807D01*
X101829521Y-115258864D01*
X101812464Y-115275921D01*
X101792407Y-115289323D01*
X101792404Y-115289324D01*
X101792403Y-115289325D01*
X101781264Y-115293938D01*
X101770120Y-115298554D01*
X101746461Y-115303260D01*
X101722339Y-115303260D01*
X101698680Y-115298554D01*
X101687536Y-115293938D01*
X101676397Y-115289325D01*
X101676396Y-115289324D01*
X101676393Y-115289323D01*
X101656336Y-115275921D01*
X101639279Y-115258864D01*
X101625877Y-115238807D01*
X101616646Y-115216520D01*
X101611940Y-115192861D01*
X101611940Y-115168739D01*
X101616646Y-115145080D01*
X101625877Y-115122793D01*
X101639279Y-115102736D01*
X101656336Y-115085679D01*
X101676393Y-115072277D01*
X101676396Y-115072276D01*
X101676397Y-115072275D01*
X101687536Y-115067662D01*
X101698680Y-115063046D01*
X101722339Y-115058340D01*
X101746461Y-115058340D01*
X101770120Y-115063046D01*
G37*
G36*
X104770120Y-115063046D02*
G01*
X104781264Y-115067662D01*
X104792403Y-115072275D01*
X104792404Y-115072276D01*
X104792407Y-115072277D01*
X104812464Y-115085679D01*
X104829521Y-115102736D01*
X104842923Y-115122793D01*
X104852154Y-115145080D01*
X104856860Y-115168739D01*
X104856860Y-115192861D01*
X104852154Y-115216520D01*
X104842923Y-115238807D01*
X104829521Y-115258864D01*
X104812464Y-115275921D01*
X104792407Y-115289323D01*
X104792404Y-115289324D01*
X104792403Y-115289325D01*
X104781264Y-115293938D01*
X104770120Y-115298554D01*
X104746461Y-115303260D01*
X104722339Y-115303260D01*
X104698680Y-115298554D01*
X104687536Y-115293938D01*
X104676397Y-115289325D01*
X104676396Y-115289324D01*
X104676393Y-115289323D01*
X104656336Y-115275921D01*
X104639279Y-115258864D01*
X104625877Y-115238807D01*
X104616646Y-115216520D01*
X104611940Y-115192861D01*
X104611940Y-115168739D01*
X104616646Y-115145080D01*
X104625877Y-115122793D01*
X104639279Y-115102736D01*
X104656336Y-115085679D01*
X104676393Y-115072277D01*
X104676396Y-115072276D01*
X104676397Y-115072275D01*
X104687536Y-115067662D01*
X104698680Y-115063046D01*
X104722339Y-115058340D01*
X104746461Y-115058340D01*
X104770120Y-115063046D01*
G37*
G36*
X103770120Y-115063046D02*
G01*
X103781264Y-115067662D01*
X103792403Y-115072275D01*
X103792404Y-115072276D01*
X103792407Y-115072277D01*
X103812464Y-115085679D01*
X103829521Y-115102736D01*
X103842923Y-115122793D01*
X103852154Y-115145080D01*
X103856860Y-115168739D01*
X103856860Y-115192861D01*
X103852154Y-115216520D01*
X103842923Y-115238807D01*
X103829521Y-115258864D01*
X103812464Y-115275921D01*
X103792407Y-115289323D01*
X103792404Y-115289324D01*
X103792403Y-115289325D01*
X103781264Y-115293938D01*
X103770120Y-115298554D01*
X103746461Y-115303260D01*
X103722339Y-115303260D01*
X103698680Y-115298554D01*
X103687536Y-115293938D01*
X103676397Y-115289325D01*
X103676396Y-115289324D01*
X103676393Y-115289323D01*
X103656336Y-115275921D01*
X103639279Y-115258864D01*
X103625877Y-115238807D01*
X103616646Y-115216520D01*
X103611940Y-115192861D01*
X103611940Y-115168739D01*
X103616646Y-115145080D01*
X103625877Y-115122793D01*
X103639279Y-115102736D01*
X103656336Y-115085679D01*
X103676393Y-115072277D01*
X103676396Y-115072276D01*
X103676397Y-115072275D01*
X103687536Y-115067662D01*
X103698680Y-115063046D01*
X103722339Y-115058340D01*
X103746461Y-115058340D01*
X103770120Y-115063046D01*
G37*
G36*
X102770120Y-115063046D02*
G01*
X102781264Y-115067662D01*
X102792403Y-115072275D01*
X102792404Y-115072276D01*
X102792407Y-115072277D01*
X102812464Y-115085679D01*
X102829521Y-115102736D01*
X102842923Y-115122793D01*
X102852154Y-115145080D01*
X102856860Y-115168739D01*
X102856860Y-115192861D01*
X102852154Y-115216520D01*
X102842923Y-115238807D01*
X102829521Y-115258864D01*
X102812464Y-115275921D01*
X102792407Y-115289323D01*
X102792404Y-115289324D01*
X102792403Y-115289325D01*
X102781264Y-115293938D01*
X102770120Y-115298554D01*
X102746461Y-115303260D01*
X102722339Y-115303260D01*
X102698680Y-115298554D01*
X102687536Y-115293938D01*
X102676397Y-115289325D01*
X102676396Y-115289324D01*
X102676393Y-115289323D01*
X102656336Y-115275921D01*
X102639279Y-115258864D01*
X102625877Y-115238807D01*
X102616646Y-115216520D01*
X102611940Y-115192861D01*
X102611940Y-115168739D01*
X102616646Y-115145080D01*
X102625877Y-115122793D01*
X102639279Y-115102736D01*
X102656336Y-115085679D01*
X102676393Y-115072277D01*
X102676396Y-115072276D01*
X102676397Y-115072275D01*
X102687536Y-115067662D01*
X102698680Y-115063046D01*
X102722339Y-115058340D01*
X102746461Y-115058340D01*
X102770120Y-115063046D01*
G37*
G36*
X103270120Y-115063046D02*
G01*
X103281264Y-115067662D01*
X103292403Y-115072275D01*
X103292404Y-115072276D01*
X103292407Y-115072277D01*
X103312464Y-115085679D01*
X103329521Y-115102736D01*
X103342923Y-115122793D01*
X103352154Y-115145080D01*
X103356860Y-115168739D01*
X103356860Y-115192861D01*
X103352154Y-115216520D01*
X103342923Y-115238807D01*
X103329521Y-115258864D01*
X103312464Y-115275921D01*
X103292407Y-115289323D01*
X103292404Y-115289324D01*
X103292403Y-115289325D01*
X103281264Y-115293938D01*
X103270120Y-115298554D01*
X103246461Y-115303260D01*
X103222339Y-115303260D01*
X103198680Y-115298554D01*
X103187536Y-115293938D01*
X103176397Y-115289325D01*
X103176396Y-115289324D01*
X103176393Y-115289323D01*
X103156336Y-115275921D01*
X103139279Y-115258864D01*
X103125877Y-115238807D01*
X103116646Y-115216520D01*
X103111940Y-115192861D01*
X103111940Y-115168739D01*
X103116646Y-115145080D01*
X103125877Y-115122793D01*
X103139279Y-115102736D01*
X103156336Y-115085679D01*
X103176393Y-115072277D01*
X103176396Y-115072276D01*
X103176397Y-115072275D01*
X103187536Y-115067662D01*
X103198680Y-115063046D01*
X103222339Y-115058340D01*
X103246461Y-115058340D01*
X103270120Y-115063046D01*
G37*
G36*
X119260200Y-115203200D02*
G01*
X116109400Y-115203200D01*
X116109400Y-112052400D01*
X119260200Y-112052400D01*
X119260200Y-115203200D01*
G37*
G36*
X114591262Y-114547583D02*
G01*
X114616031Y-114555096D01*
X114638869Y-114567304D01*
X114658877Y-114583723D01*
X114675296Y-114603731D01*
X114687504Y-114626569D01*
X114695017Y-114651338D01*
X114697800Y-114679591D01*
X114697800Y-115040809D01*
X114695017Y-115069062D01*
X114687504Y-115093831D01*
X114675296Y-115116669D01*
X114658877Y-115136677D01*
X114638869Y-115153096D01*
X114616031Y-115165304D01*
X114591262Y-115172817D01*
X114563009Y-115175600D01*
X114151791Y-115175600D01*
X114123538Y-115172817D01*
X114098769Y-115165304D01*
X114075931Y-115153096D01*
X114055923Y-115136677D01*
X114039504Y-115116669D01*
X114027296Y-115093831D01*
X114019783Y-115069062D01*
X114017000Y-115040809D01*
X114017000Y-114679591D01*
X114019783Y-114651338D01*
X114027296Y-114626569D01*
X114039504Y-114603731D01*
X114055923Y-114583723D01*
X114075931Y-114567304D01*
X114098769Y-114555096D01*
X114123538Y-114547583D01*
X114151791Y-114544800D01*
X114563009Y-114544800D01*
X114591262Y-114547583D01*
G37*
G36*
X120385200Y-115033200D02*
G01*
X119654400Y-115033200D01*
X119654400Y-114722400D01*
X120385200Y-114722400D01*
X120385200Y-115033200D01*
G37*
G36*
X115715200Y-115033200D02*
G01*
X114984400Y-115033200D01*
X114984400Y-114722400D01*
X115715200Y-114722400D01*
X115715200Y-115033200D01*
G37*
G36*
X101270120Y-114563046D02*
G01*
X101280400Y-114567304D01*
X101292403Y-114572275D01*
X101292404Y-114572276D01*
X101292407Y-114572277D01*
X101312464Y-114585679D01*
X101329521Y-114602736D01*
X101342923Y-114622793D01*
X101352154Y-114645080D01*
X101356860Y-114668739D01*
X101356860Y-114692861D01*
X101352154Y-114716520D01*
X101342923Y-114738807D01*
X101329521Y-114758864D01*
X101312464Y-114775921D01*
X101292407Y-114789323D01*
X101292404Y-114789324D01*
X101292403Y-114789325D01*
X101281264Y-114793938D01*
X101270120Y-114798554D01*
X101246461Y-114803260D01*
X101222339Y-114803260D01*
X101198680Y-114798554D01*
X101187536Y-114793938D01*
X101176397Y-114789325D01*
X101176396Y-114789324D01*
X101176393Y-114789323D01*
X101156336Y-114775921D01*
X101139279Y-114758864D01*
X101125877Y-114738807D01*
X101116646Y-114716520D01*
X101111940Y-114692861D01*
X101111940Y-114668739D01*
X101116646Y-114645080D01*
X101125877Y-114622793D01*
X101139279Y-114602736D01*
X101156336Y-114585679D01*
X101176393Y-114572277D01*
X101176396Y-114572276D01*
X101176397Y-114572275D01*
X101188400Y-114567304D01*
X101198680Y-114563046D01*
X101222339Y-114558340D01*
X101246461Y-114558340D01*
X101270120Y-114563046D01*
G37*
G36*
X101770120Y-114563046D02*
G01*
X101780400Y-114567304D01*
X101792403Y-114572275D01*
X101792404Y-114572276D01*
X101792407Y-114572277D01*
X101812464Y-114585679D01*
X101829521Y-114602736D01*
X101842923Y-114622793D01*
X101852154Y-114645080D01*
X101856860Y-114668739D01*
X101856860Y-114692861D01*
X101852154Y-114716520D01*
X101842923Y-114738807D01*
X101829521Y-114758864D01*
X101812464Y-114775921D01*
X101792407Y-114789323D01*
X101792404Y-114789324D01*
X101792403Y-114789325D01*
X101781264Y-114793938D01*
X101770120Y-114798554D01*
X101746461Y-114803260D01*
X101722339Y-114803260D01*
X101698680Y-114798554D01*
X101687536Y-114793938D01*
X101676397Y-114789325D01*
X101676396Y-114789324D01*
X101676393Y-114789323D01*
X101656336Y-114775921D01*
X101639279Y-114758864D01*
X101625877Y-114738807D01*
X101616646Y-114716520D01*
X101611940Y-114692861D01*
X101611940Y-114668739D01*
X101616646Y-114645080D01*
X101625877Y-114622793D01*
X101639279Y-114602736D01*
X101656336Y-114585679D01*
X101676393Y-114572277D01*
X101676396Y-114572276D01*
X101676397Y-114572275D01*
X101688400Y-114567304D01*
X101698680Y-114563046D01*
X101722339Y-114558340D01*
X101746461Y-114558340D01*
X101770120Y-114563046D01*
G37*
G36*
X105770120Y-114563046D02*
G01*
X105780400Y-114567304D01*
X105792403Y-114572275D01*
X105792404Y-114572276D01*
X105792407Y-114572277D01*
X105812464Y-114585679D01*
X105829521Y-114602736D01*
X105842923Y-114622793D01*
X105852154Y-114645080D01*
X105856860Y-114668739D01*
X105856860Y-114692861D01*
X105852154Y-114716520D01*
X105842923Y-114738807D01*
X105829521Y-114758864D01*
X105812464Y-114775921D01*
X105792407Y-114789323D01*
X105792404Y-114789324D01*
X105792403Y-114789325D01*
X105781264Y-114793938D01*
X105770120Y-114798554D01*
X105746461Y-114803260D01*
X105722339Y-114803260D01*
X105698680Y-114798554D01*
X105687536Y-114793938D01*
X105676397Y-114789325D01*
X105676396Y-114789324D01*
X105676393Y-114789323D01*
X105656336Y-114775921D01*
X105639279Y-114758864D01*
X105625877Y-114738807D01*
X105616646Y-114716520D01*
X105611940Y-114692861D01*
X105611940Y-114668739D01*
X105616646Y-114645080D01*
X105625877Y-114622793D01*
X105639279Y-114602736D01*
X105656336Y-114585679D01*
X105676393Y-114572277D01*
X105676396Y-114572276D01*
X105676397Y-114572275D01*
X105688400Y-114567304D01*
X105698680Y-114563046D01*
X105722339Y-114558340D01*
X105746461Y-114558340D01*
X105770120Y-114563046D01*
G37*
G36*
X105270120Y-114563046D02*
G01*
X105280400Y-114567304D01*
X105292403Y-114572275D01*
X105292404Y-114572276D01*
X105292407Y-114572277D01*
X105312464Y-114585679D01*
X105329521Y-114602736D01*
X105342923Y-114622793D01*
X105352154Y-114645080D01*
X105356860Y-114668739D01*
X105356860Y-114692861D01*
X105352154Y-114716520D01*
X105342923Y-114738807D01*
X105329521Y-114758864D01*
X105312464Y-114775921D01*
X105292407Y-114789323D01*
X105292404Y-114789324D01*
X105292403Y-114789325D01*
X105281264Y-114793938D01*
X105270120Y-114798554D01*
X105246461Y-114803260D01*
X105222339Y-114803260D01*
X105198680Y-114798554D01*
X105187536Y-114793938D01*
X105176397Y-114789325D01*
X105176396Y-114789324D01*
X105176393Y-114789323D01*
X105156336Y-114775921D01*
X105139279Y-114758864D01*
X105125877Y-114738807D01*
X105116646Y-114716520D01*
X105111940Y-114692861D01*
X105111940Y-114668739D01*
X105116646Y-114645080D01*
X105125877Y-114622793D01*
X105139279Y-114602736D01*
X105156336Y-114585679D01*
X105176393Y-114572277D01*
X105176396Y-114572276D01*
X105176397Y-114572275D01*
X105188400Y-114567304D01*
X105198680Y-114563046D01*
X105222339Y-114558340D01*
X105246461Y-114558340D01*
X105270120Y-114563046D01*
G37*
G36*
X104770120Y-114563046D02*
G01*
X104780400Y-114567304D01*
X104792403Y-114572275D01*
X104792404Y-114572276D01*
X104792407Y-114572277D01*
X104812464Y-114585679D01*
X104829521Y-114602736D01*
X104842923Y-114622793D01*
X104852154Y-114645080D01*
X104856860Y-114668739D01*
X104856860Y-114692861D01*
X104852154Y-114716520D01*
X104842923Y-114738807D01*
X104829521Y-114758864D01*
X104812464Y-114775921D01*
X104792407Y-114789323D01*
X104792404Y-114789324D01*
X104792403Y-114789325D01*
X104781264Y-114793938D01*
X104770120Y-114798554D01*
X104746461Y-114803260D01*
X104722339Y-114803260D01*
X104698680Y-114798554D01*
X104687536Y-114793938D01*
X104676397Y-114789325D01*
X104676396Y-114789324D01*
X104676393Y-114789323D01*
X104656336Y-114775921D01*
X104639279Y-114758864D01*
X104625877Y-114738807D01*
X104616646Y-114716520D01*
X104611940Y-114692861D01*
X104611940Y-114668739D01*
X104616646Y-114645080D01*
X104625877Y-114622793D01*
X104639279Y-114602736D01*
X104656336Y-114585679D01*
X104676393Y-114572277D01*
X104676396Y-114572276D01*
X104676397Y-114572275D01*
X104688400Y-114567304D01*
X104698680Y-114563046D01*
X104722339Y-114558340D01*
X104746461Y-114558340D01*
X104770120Y-114563046D01*
G37*
G36*
X102270120Y-114563046D02*
G01*
X102280400Y-114567304D01*
X102292403Y-114572275D01*
X102292404Y-114572276D01*
X102292407Y-114572277D01*
X102312464Y-114585679D01*
X102329521Y-114602736D01*
X102342923Y-114622793D01*
X102352154Y-114645080D01*
X102356860Y-114668739D01*
X102356860Y-114692861D01*
X102352154Y-114716520D01*
X102342923Y-114738807D01*
X102329521Y-114758864D01*
X102312464Y-114775921D01*
X102292407Y-114789323D01*
X102292404Y-114789324D01*
X102292403Y-114789325D01*
X102281264Y-114793938D01*
X102270120Y-114798554D01*
X102246461Y-114803260D01*
X102222339Y-114803260D01*
X102198680Y-114798554D01*
X102187536Y-114793938D01*
X102176397Y-114789325D01*
X102176396Y-114789324D01*
X102176393Y-114789323D01*
X102156336Y-114775921D01*
X102139279Y-114758864D01*
X102125877Y-114738807D01*
X102116646Y-114716520D01*
X102111940Y-114692861D01*
X102111940Y-114668739D01*
X102116646Y-114645080D01*
X102125877Y-114622793D01*
X102139279Y-114602736D01*
X102156336Y-114585679D01*
X102176393Y-114572277D01*
X102176396Y-114572276D01*
X102176397Y-114572275D01*
X102188400Y-114567304D01*
X102198680Y-114563046D01*
X102222339Y-114558340D01*
X102246461Y-114558340D01*
X102270120Y-114563046D01*
G37*
G36*
X104270120Y-114563046D02*
G01*
X104280400Y-114567304D01*
X104292403Y-114572275D01*
X104292404Y-114572276D01*
X104292407Y-114572277D01*
X104312464Y-114585679D01*
X104329521Y-114602736D01*
X104342923Y-114622793D01*
X104352154Y-114645080D01*
X104356860Y-114668739D01*
X104356860Y-114692861D01*
X104352154Y-114716520D01*
X104342923Y-114738807D01*
X104329521Y-114758864D01*
X104312464Y-114775921D01*
X104292407Y-114789323D01*
X104292404Y-114789324D01*
X104292403Y-114789325D01*
X104281264Y-114793938D01*
X104270120Y-114798554D01*
X104246461Y-114803260D01*
X104222339Y-114803260D01*
X104198680Y-114798554D01*
X104187536Y-114793938D01*
X104176397Y-114789325D01*
X104176396Y-114789324D01*
X104176393Y-114789323D01*
X104156336Y-114775921D01*
X104139279Y-114758864D01*
X104125877Y-114738807D01*
X104116646Y-114716520D01*
X104111940Y-114692861D01*
X104111940Y-114668739D01*
X104116646Y-114645080D01*
X104125877Y-114622793D01*
X104139279Y-114602736D01*
X104156336Y-114585679D01*
X104176393Y-114572277D01*
X104176396Y-114572276D01*
X104176397Y-114572275D01*
X104188400Y-114567304D01*
X104198680Y-114563046D01*
X104222339Y-114558340D01*
X104246461Y-114558340D01*
X104270120Y-114563046D01*
G37*
G36*
X103770120Y-114563046D02*
G01*
X103780400Y-114567304D01*
X103792403Y-114572275D01*
X103792404Y-114572276D01*
X103792407Y-114572277D01*
X103812464Y-114585679D01*
X103829521Y-114602736D01*
X103842923Y-114622793D01*
X103852154Y-114645080D01*
X103856860Y-114668739D01*
X103856860Y-114692861D01*
X103852154Y-114716520D01*
X103842923Y-114738807D01*
X103829521Y-114758864D01*
X103812464Y-114775921D01*
X103792407Y-114789323D01*
X103792404Y-114789324D01*
X103792403Y-114789325D01*
X103781264Y-114793938D01*
X103770120Y-114798554D01*
X103746461Y-114803260D01*
X103722339Y-114803260D01*
X103698680Y-114798554D01*
X103687536Y-114793938D01*
X103676397Y-114789325D01*
X103676396Y-114789324D01*
X103676393Y-114789323D01*
X103656336Y-114775921D01*
X103639279Y-114758864D01*
X103625877Y-114738807D01*
X103616646Y-114716520D01*
X103611940Y-114692861D01*
X103611940Y-114668739D01*
X103616646Y-114645080D01*
X103625877Y-114622793D01*
X103639279Y-114602736D01*
X103656336Y-114585679D01*
X103676393Y-114572277D01*
X103676396Y-114572276D01*
X103676397Y-114572275D01*
X103688400Y-114567304D01*
X103698680Y-114563046D01*
X103722339Y-114558340D01*
X103746461Y-114558340D01*
X103770120Y-114563046D01*
G37*
G36*
X106270120Y-114563046D02*
G01*
X106280400Y-114567304D01*
X106292403Y-114572275D01*
X106292404Y-114572276D01*
X106292407Y-114572277D01*
X106312464Y-114585679D01*
X106329521Y-114602736D01*
X106342923Y-114622793D01*
X106352154Y-114645080D01*
X106356860Y-114668739D01*
X106356860Y-114692861D01*
X106352154Y-114716520D01*
X106342923Y-114738807D01*
X106329521Y-114758864D01*
X106312464Y-114775921D01*
X106292407Y-114789323D01*
X106292404Y-114789324D01*
X106292403Y-114789325D01*
X106281264Y-114793938D01*
X106270120Y-114798554D01*
X106246461Y-114803260D01*
X106222339Y-114803260D01*
X106198680Y-114798554D01*
X106187536Y-114793938D01*
X106176397Y-114789325D01*
X106176396Y-114789324D01*
X106176393Y-114789323D01*
X106156336Y-114775921D01*
X106139279Y-114758864D01*
X106125877Y-114738807D01*
X106116646Y-114716520D01*
X106111940Y-114692861D01*
X106111940Y-114668739D01*
X106116646Y-114645080D01*
X106125877Y-114622793D01*
X106139279Y-114602736D01*
X106156336Y-114585679D01*
X106176393Y-114572277D01*
X106176396Y-114572276D01*
X106176397Y-114572275D01*
X106188400Y-114567304D01*
X106198680Y-114563046D01*
X106222339Y-114558340D01*
X106246461Y-114558340D01*
X106270120Y-114563046D01*
G37*
G36*
X103270120Y-114563046D02*
G01*
X103280400Y-114567304D01*
X103292403Y-114572275D01*
X103292404Y-114572276D01*
X103292407Y-114572277D01*
X103312464Y-114585679D01*
X103329521Y-114602736D01*
X103342923Y-114622793D01*
X103352154Y-114645080D01*
X103356860Y-114668739D01*
X103356860Y-114692861D01*
X103352154Y-114716520D01*
X103342923Y-114738807D01*
X103329521Y-114758864D01*
X103312464Y-114775921D01*
X103292407Y-114789323D01*
X103292404Y-114789324D01*
X103292403Y-114789325D01*
X103281264Y-114793938D01*
X103270120Y-114798554D01*
X103246461Y-114803260D01*
X103222339Y-114803260D01*
X103198680Y-114798554D01*
X103187536Y-114793938D01*
X103176397Y-114789325D01*
X103176396Y-114789324D01*
X103176393Y-114789323D01*
X103156336Y-114775921D01*
X103139279Y-114758864D01*
X103125877Y-114738807D01*
X103116646Y-114716520D01*
X103111940Y-114692861D01*
X103111940Y-114668739D01*
X103116646Y-114645080D01*
X103125877Y-114622793D01*
X103139279Y-114602736D01*
X103156336Y-114585679D01*
X103176393Y-114572277D01*
X103176396Y-114572276D01*
X103176397Y-114572275D01*
X103188400Y-114567304D01*
X103198680Y-114563046D01*
X103222339Y-114558340D01*
X103246461Y-114558340D01*
X103270120Y-114563046D01*
G37*
G36*
X102770120Y-114563046D02*
G01*
X102780400Y-114567304D01*
X102792403Y-114572275D01*
X102792404Y-114572276D01*
X102792407Y-114572277D01*
X102812464Y-114585679D01*
X102829521Y-114602736D01*
X102842923Y-114622793D01*
X102852154Y-114645080D01*
X102856860Y-114668739D01*
X102856860Y-114692861D01*
X102852154Y-114716520D01*
X102842923Y-114738807D01*
X102829521Y-114758864D01*
X102812464Y-114775921D01*
X102792407Y-114789323D01*
X102792404Y-114789324D01*
X102792403Y-114789325D01*
X102781264Y-114793938D01*
X102770120Y-114798554D01*
X102746461Y-114803260D01*
X102722339Y-114803260D01*
X102698680Y-114798554D01*
X102687536Y-114793938D01*
X102676397Y-114789325D01*
X102676396Y-114789324D01*
X102676393Y-114789323D01*
X102656336Y-114775921D01*
X102639279Y-114758864D01*
X102625877Y-114738807D01*
X102616646Y-114716520D01*
X102611940Y-114692861D01*
X102611940Y-114668739D01*
X102616646Y-114645080D01*
X102625877Y-114622793D01*
X102639279Y-114602736D01*
X102656336Y-114585679D01*
X102676393Y-114572277D01*
X102676396Y-114572276D01*
X102676397Y-114572275D01*
X102688400Y-114567304D01*
X102698680Y-114563046D01*
X102722339Y-114558340D01*
X102746461Y-114558340D01*
X102770120Y-114563046D01*
G37*
G36*
X120385200Y-114533200D02*
G01*
X119654400Y-114533200D01*
X119654400Y-114222400D01*
X120385200Y-114222400D01*
X120385200Y-114533200D01*
G37*
G36*
X115715200Y-114533200D02*
G01*
X114984400Y-114533200D01*
X114984400Y-114222400D01*
X115715200Y-114222400D01*
X115715200Y-114533200D01*
G37*
G36*
X104270120Y-114063046D02*
G01*
X104281263Y-114067661D01*
X104292403Y-114072275D01*
X104292404Y-114072276D01*
X104292407Y-114072277D01*
X104312464Y-114085679D01*
X104329521Y-114102736D01*
X104342923Y-114122793D01*
X104352154Y-114145080D01*
X104356860Y-114168739D01*
X104356860Y-114192861D01*
X104352154Y-114216520D01*
X104342923Y-114238807D01*
X104329521Y-114258864D01*
X104312464Y-114275921D01*
X104292407Y-114289323D01*
X104292404Y-114289324D01*
X104292403Y-114289325D01*
X104281264Y-114293938D01*
X104270120Y-114298554D01*
X104246461Y-114303260D01*
X104222339Y-114303260D01*
X104198680Y-114298554D01*
X104187536Y-114293938D01*
X104176397Y-114289325D01*
X104176396Y-114289324D01*
X104176393Y-114289323D01*
X104156336Y-114275921D01*
X104139279Y-114258864D01*
X104125877Y-114238807D01*
X104116646Y-114216520D01*
X104111940Y-114192861D01*
X104111940Y-114168739D01*
X104116646Y-114145080D01*
X104125877Y-114122793D01*
X104139279Y-114102736D01*
X104156336Y-114085679D01*
X104176393Y-114072277D01*
X104176396Y-114072276D01*
X104176397Y-114072275D01*
X104187537Y-114067661D01*
X104198680Y-114063046D01*
X104222339Y-114058340D01*
X104246461Y-114058340D01*
X104270120Y-114063046D01*
G37*
G36*
X101270120Y-114063046D02*
G01*
X101281263Y-114067661D01*
X101292403Y-114072275D01*
X101292404Y-114072276D01*
X101292407Y-114072277D01*
X101312464Y-114085679D01*
X101329521Y-114102736D01*
X101342923Y-114122793D01*
X101352154Y-114145080D01*
X101356860Y-114168739D01*
X101356860Y-114192861D01*
X101352154Y-114216520D01*
X101342923Y-114238807D01*
X101329521Y-114258864D01*
X101312464Y-114275921D01*
X101292407Y-114289323D01*
X101292404Y-114289324D01*
X101292403Y-114289325D01*
X101281264Y-114293938D01*
X101270120Y-114298554D01*
X101246461Y-114303260D01*
X101222339Y-114303260D01*
X101198680Y-114298554D01*
X101187536Y-114293938D01*
X101176397Y-114289325D01*
X101176396Y-114289324D01*
X101176393Y-114289323D01*
X101156336Y-114275921D01*
X101139279Y-114258864D01*
X101125877Y-114238807D01*
X101116646Y-114216520D01*
X101111940Y-114192861D01*
X101111940Y-114168739D01*
X101116646Y-114145080D01*
X101125877Y-114122793D01*
X101139279Y-114102736D01*
X101156336Y-114085679D01*
X101176393Y-114072277D01*
X101176396Y-114072276D01*
X101176397Y-114072275D01*
X101187537Y-114067661D01*
X101198680Y-114063046D01*
X101222339Y-114058340D01*
X101246461Y-114058340D01*
X101270120Y-114063046D01*
G37*
G36*
X101770120Y-114063046D02*
G01*
X101781263Y-114067661D01*
X101792403Y-114072275D01*
X101792404Y-114072276D01*
X101792407Y-114072277D01*
X101812464Y-114085679D01*
X101829521Y-114102736D01*
X101842923Y-114122793D01*
X101852154Y-114145080D01*
X101856860Y-114168739D01*
X101856860Y-114192861D01*
X101852154Y-114216520D01*
X101842923Y-114238807D01*
X101829521Y-114258864D01*
X101812464Y-114275921D01*
X101792407Y-114289323D01*
X101792404Y-114289324D01*
X101792403Y-114289325D01*
X101781264Y-114293938D01*
X101770120Y-114298554D01*
X101746461Y-114303260D01*
X101722339Y-114303260D01*
X101698680Y-114298554D01*
X101687536Y-114293938D01*
X101676397Y-114289325D01*
X101676396Y-114289324D01*
X101676393Y-114289323D01*
X101656336Y-114275921D01*
X101639279Y-114258864D01*
X101625877Y-114238807D01*
X101616646Y-114216520D01*
X101611940Y-114192861D01*
X101611940Y-114168739D01*
X101616646Y-114145080D01*
X101625877Y-114122793D01*
X101639279Y-114102736D01*
X101656336Y-114085679D01*
X101676393Y-114072277D01*
X101676396Y-114072276D01*
X101676397Y-114072275D01*
X101687537Y-114067661D01*
X101698680Y-114063046D01*
X101722339Y-114058340D01*
X101746461Y-114058340D01*
X101770120Y-114063046D01*
G37*
G36*
X102270120Y-114063046D02*
G01*
X102281263Y-114067661D01*
X102292403Y-114072275D01*
X102292404Y-114072276D01*
X102292407Y-114072277D01*
X102312464Y-114085679D01*
X102329521Y-114102736D01*
X102342923Y-114122793D01*
X102352154Y-114145080D01*
X102356860Y-114168739D01*
X102356860Y-114192861D01*
X102352154Y-114216520D01*
X102342923Y-114238807D01*
X102329521Y-114258864D01*
X102312464Y-114275921D01*
X102292407Y-114289323D01*
X102292404Y-114289324D01*
X102292403Y-114289325D01*
X102281264Y-114293938D01*
X102270120Y-114298554D01*
X102246461Y-114303260D01*
X102222339Y-114303260D01*
X102198680Y-114298554D01*
X102187536Y-114293938D01*
X102176397Y-114289325D01*
X102176396Y-114289324D01*
X102176393Y-114289323D01*
X102156336Y-114275921D01*
X102139279Y-114258864D01*
X102125877Y-114238807D01*
X102116646Y-114216520D01*
X102111940Y-114192861D01*
X102111940Y-114168739D01*
X102116646Y-114145080D01*
X102125877Y-114122793D01*
X102139279Y-114102736D01*
X102156336Y-114085679D01*
X102176393Y-114072277D01*
X102176396Y-114072276D01*
X102176397Y-114072275D01*
X102187537Y-114067661D01*
X102198680Y-114063046D01*
X102222339Y-114058340D01*
X102246461Y-114058340D01*
X102270120Y-114063046D01*
G37*
G36*
X102770120Y-114063046D02*
G01*
X102781263Y-114067661D01*
X102792403Y-114072275D01*
X102792404Y-114072276D01*
X102792407Y-114072277D01*
X102812464Y-114085679D01*
X102829521Y-114102736D01*
X102842923Y-114122793D01*
X102852154Y-114145080D01*
X102856860Y-114168739D01*
X102856860Y-114192861D01*
X102852154Y-114216520D01*
X102842923Y-114238807D01*
X102829521Y-114258864D01*
X102812464Y-114275921D01*
X102792407Y-114289323D01*
X102792404Y-114289324D01*
X102792403Y-114289325D01*
X102781264Y-114293938D01*
X102770120Y-114298554D01*
X102746461Y-114303260D01*
X102722339Y-114303260D01*
X102698680Y-114298554D01*
X102687536Y-114293938D01*
X102676397Y-114289325D01*
X102676396Y-114289324D01*
X102676393Y-114289323D01*
X102656336Y-114275921D01*
X102639279Y-114258864D01*
X102625877Y-114238807D01*
X102616646Y-114216520D01*
X102611940Y-114192861D01*
X102611940Y-114168739D01*
X102616646Y-114145080D01*
X102625877Y-114122793D01*
X102639279Y-114102736D01*
X102656336Y-114085679D01*
X102676393Y-114072277D01*
X102676396Y-114072276D01*
X102676397Y-114072275D01*
X102687537Y-114067661D01*
X102698680Y-114063046D01*
X102722339Y-114058340D01*
X102746461Y-114058340D01*
X102770120Y-114063046D01*
G37*
G36*
X103270120Y-114063046D02*
G01*
X103281263Y-114067661D01*
X103292403Y-114072275D01*
X103292404Y-114072276D01*
X103292407Y-114072277D01*
X103312464Y-114085679D01*
X103329521Y-114102736D01*
X103342923Y-114122793D01*
X103352154Y-114145080D01*
X103356860Y-114168739D01*
X103356860Y-114192861D01*
X103352154Y-114216520D01*
X103342923Y-114238807D01*
X103329521Y-114258864D01*
X103312464Y-114275921D01*
X103292407Y-114289323D01*
X103292404Y-114289324D01*
X103292403Y-114289325D01*
X103281264Y-114293938D01*
X103270120Y-114298554D01*
X103246461Y-114303260D01*
X103222339Y-114303260D01*
X103198680Y-114298554D01*
X103187536Y-114293938D01*
X103176397Y-114289325D01*
X103176396Y-114289324D01*
X103176393Y-114289323D01*
X103156336Y-114275921D01*
X103139279Y-114258864D01*
X103125877Y-114238807D01*
X103116646Y-114216520D01*
X103111940Y-114192861D01*
X103111940Y-114168739D01*
X103116646Y-114145080D01*
X103125877Y-114122793D01*
X103139279Y-114102736D01*
X103156336Y-114085679D01*
X103176393Y-114072277D01*
X103176396Y-114072276D01*
X103176397Y-114072275D01*
X103187537Y-114067661D01*
X103198680Y-114063046D01*
X103222339Y-114058340D01*
X103246461Y-114058340D01*
X103270120Y-114063046D01*
G37*
G36*
X104770120Y-114063046D02*
G01*
X104781263Y-114067661D01*
X104792403Y-114072275D01*
X104792404Y-114072276D01*
X104792407Y-114072277D01*
X104812464Y-114085679D01*
X104829521Y-114102736D01*
X104842923Y-114122793D01*
X104852154Y-114145080D01*
X104856860Y-114168739D01*
X104856860Y-114192861D01*
X104852154Y-114216520D01*
X104842923Y-114238807D01*
X104829521Y-114258864D01*
X104812464Y-114275921D01*
X104792407Y-114289323D01*
X104792404Y-114289324D01*
X104792403Y-114289325D01*
X104781264Y-114293938D01*
X104770120Y-114298554D01*
X104746461Y-114303260D01*
X104722339Y-114303260D01*
X104698680Y-114298554D01*
X104687536Y-114293938D01*
X104676397Y-114289325D01*
X104676396Y-114289324D01*
X104676393Y-114289323D01*
X104656336Y-114275921D01*
X104639279Y-114258864D01*
X104625877Y-114238807D01*
X104616646Y-114216520D01*
X104611940Y-114192861D01*
X104611940Y-114168739D01*
X104616646Y-114145080D01*
X104625877Y-114122793D01*
X104639279Y-114102736D01*
X104656336Y-114085679D01*
X104676393Y-114072277D01*
X104676396Y-114072276D01*
X104676397Y-114072275D01*
X104687537Y-114067661D01*
X104698680Y-114063046D01*
X104722339Y-114058340D01*
X104746461Y-114058340D01*
X104770120Y-114063046D01*
G37*
G36*
X105270120Y-114063046D02*
G01*
X105281263Y-114067661D01*
X105292403Y-114072275D01*
X105292404Y-114072276D01*
X105292407Y-114072277D01*
X105312464Y-114085679D01*
X105329521Y-114102736D01*
X105342923Y-114122793D01*
X105352154Y-114145080D01*
X105356860Y-114168739D01*
X105356860Y-114192861D01*
X105352154Y-114216520D01*
X105342923Y-114238807D01*
X105329521Y-114258864D01*
X105312464Y-114275921D01*
X105292407Y-114289323D01*
X105292404Y-114289324D01*
X105292403Y-114289325D01*
X105281264Y-114293938D01*
X105270120Y-114298554D01*
X105246461Y-114303260D01*
X105222339Y-114303260D01*
X105198680Y-114298554D01*
X105187536Y-114293938D01*
X105176397Y-114289325D01*
X105176396Y-114289324D01*
X105176393Y-114289323D01*
X105156336Y-114275921D01*
X105139279Y-114258864D01*
X105125877Y-114238807D01*
X105116646Y-114216520D01*
X105111940Y-114192861D01*
X105111940Y-114168739D01*
X105116646Y-114145080D01*
X105125877Y-114122793D01*
X105139279Y-114102736D01*
X105156336Y-114085679D01*
X105176393Y-114072277D01*
X105176396Y-114072276D01*
X105176397Y-114072275D01*
X105187537Y-114067661D01*
X105198680Y-114063046D01*
X105222339Y-114058340D01*
X105246461Y-114058340D01*
X105270120Y-114063046D01*
G37*
G36*
X105770120Y-114063046D02*
G01*
X105781263Y-114067661D01*
X105792403Y-114072275D01*
X105792404Y-114072276D01*
X105792407Y-114072277D01*
X105812464Y-114085679D01*
X105829521Y-114102736D01*
X105842923Y-114122793D01*
X105852154Y-114145080D01*
X105856860Y-114168739D01*
X105856860Y-114192861D01*
X105852154Y-114216520D01*
X105842923Y-114238807D01*
X105829521Y-114258864D01*
X105812464Y-114275921D01*
X105792407Y-114289323D01*
X105792404Y-114289324D01*
X105792403Y-114289325D01*
X105781264Y-114293938D01*
X105770120Y-114298554D01*
X105746461Y-114303260D01*
X105722339Y-114303260D01*
X105698680Y-114298554D01*
X105687536Y-114293938D01*
X105676397Y-114289325D01*
X105676396Y-114289324D01*
X105676393Y-114289323D01*
X105656336Y-114275921D01*
X105639279Y-114258864D01*
X105625877Y-114238807D01*
X105616646Y-114216520D01*
X105611940Y-114192861D01*
X105611940Y-114168739D01*
X105616646Y-114145080D01*
X105625877Y-114122793D01*
X105639279Y-114102736D01*
X105656336Y-114085679D01*
X105676393Y-114072277D01*
X105676396Y-114072276D01*
X105676397Y-114072275D01*
X105687537Y-114067661D01*
X105698680Y-114063046D01*
X105722339Y-114058340D01*
X105746461Y-114058340D01*
X105770120Y-114063046D01*
G37*
G36*
X106270120Y-114063046D02*
G01*
X106281263Y-114067661D01*
X106292403Y-114072275D01*
X106292404Y-114072276D01*
X106292407Y-114072277D01*
X106312464Y-114085679D01*
X106329521Y-114102736D01*
X106342923Y-114122793D01*
X106352154Y-114145080D01*
X106356860Y-114168739D01*
X106356860Y-114192861D01*
X106352154Y-114216520D01*
X106342923Y-114238807D01*
X106329521Y-114258864D01*
X106312464Y-114275921D01*
X106292407Y-114289323D01*
X106292404Y-114289324D01*
X106292403Y-114289325D01*
X106281264Y-114293938D01*
X106270120Y-114298554D01*
X106246461Y-114303260D01*
X106222339Y-114303260D01*
X106198680Y-114298554D01*
X106187536Y-114293938D01*
X106176397Y-114289325D01*
X106176396Y-114289324D01*
X106176393Y-114289323D01*
X106156336Y-114275921D01*
X106139279Y-114258864D01*
X106125877Y-114238807D01*
X106116646Y-114216520D01*
X106111940Y-114192861D01*
X106111940Y-114168739D01*
X106116646Y-114145080D01*
X106125877Y-114122793D01*
X106139279Y-114102736D01*
X106156336Y-114085679D01*
X106176393Y-114072277D01*
X106176396Y-114072276D01*
X106176397Y-114072275D01*
X106187537Y-114067661D01*
X106198680Y-114063046D01*
X106222339Y-114058340D01*
X106246461Y-114058340D01*
X106270120Y-114063046D01*
G37*
G36*
X103770120Y-114063046D02*
G01*
X103781263Y-114067661D01*
X103792403Y-114072275D01*
X103792404Y-114072276D01*
X103792407Y-114072277D01*
X103812464Y-114085679D01*
X103829521Y-114102736D01*
X103842923Y-114122793D01*
X103852154Y-114145080D01*
X103856860Y-114168739D01*
X103856860Y-114192861D01*
X103852154Y-114216520D01*
X103842923Y-114238807D01*
X103829521Y-114258864D01*
X103812464Y-114275921D01*
X103792407Y-114289323D01*
X103792404Y-114289324D01*
X103792403Y-114289325D01*
X103781264Y-114293938D01*
X103770120Y-114298554D01*
X103746461Y-114303260D01*
X103722339Y-114303260D01*
X103698680Y-114298554D01*
X103687536Y-114293938D01*
X103676397Y-114289325D01*
X103676396Y-114289324D01*
X103676393Y-114289323D01*
X103656336Y-114275921D01*
X103639279Y-114258864D01*
X103625877Y-114238807D01*
X103616646Y-114216520D01*
X103611940Y-114192861D01*
X103611940Y-114168739D01*
X103616646Y-114145080D01*
X103625877Y-114122793D01*
X103639279Y-114102736D01*
X103656336Y-114085679D01*
X103676393Y-114072277D01*
X103676396Y-114072276D01*
X103676397Y-114072275D01*
X103687537Y-114067661D01*
X103698680Y-114063046D01*
X103722339Y-114058340D01*
X103746461Y-114058340D01*
X103770120Y-114063046D01*
G37*
G36*
X114591262Y-113657583D02*
G01*
X114616031Y-113665096D01*
X114638869Y-113677304D01*
X114658877Y-113693723D01*
X114675296Y-113713731D01*
X114687504Y-113736569D01*
X114695017Y-113761338D01*
X114697800Y-113789591D01*
X114697800Y-114150809D01*
X114695017Y-114179062D01*
X114687504Y-114203831D01*
X114675296Y-114226669D01*
X114658877Y-114246677D01*
X114638869Y-114263096D01*
X114616031Y-114275304D01*
X114591262Y-114282817D01*
X114563009Y-114285600D01*
X114151791Y-114285600D01*
X114123538Y-114282817D01*
X114098769Y-114275304D01*
X114075931Y-114263096D01*
X114055923Y-114246677D01*
X114039504Y-114226669D01*
X114027296Y-114203831D01*
X114019783Y-114179062D01*
X114017000Y-114150809D01*
X114017000Y-113789591D01*
X114019783Y-113761338D01*
X114027296Y-113736569D01*
X114039504Y-113713731D01*
X114055923Y-113693723D01*
X114075931Y-113677304D01*
X114098769Y-113665096D01*
X114123538Y-113657583D01*
X114151791Y-113654800D01*
X114563009Y-113654800D01*
X114591262Y-113657583D01*
G37*
G36*
X120385200Y-114033200D02*
G01*
X119654400Y-114033200D01*
X119654400Y-113722400D01*
X120385200Y-113722400D01*
X120385200Y-114033200D01*
G37*
G36*
X115715200Y-114033200D02*
G01*
X114984400Y-114033200D01*
X114984400Y-113722400D01*
X115715200Y-113722400D01*
X115715200Y-114033200D01*
G37*
G36*
X101270120Y-113563046D02*
G01*
X101281264Y-113567662D01*
X101292403Y-113572275D01*
X101292404Y-113572276D01*
X101292407Y-113572277D01*
X101312464Y-113585679D01*
X101329521Y-113602736D01*
X101342923Y-113622793D01*
X101352154Y-113645080D01*
X101356860Y-113668739D01*
X101356860Y-113692861D01*
X101352154Y-113716520D01*
X101342923Y-113738807D01*
X101329521Y-113758864D01*
X101312464Y-113775921D01*
X101292407Y-113789323D01*
X101292404Y-113789324D01*
X101292403Y-113789325D01*
X101281263Y-113793939D01*
X101270120Y-113798554D01*
X101246461Y-113803260D01*
X101222339Y-113803260D01*
X101198680Y-113798554D01*
X101187537Y-113793939D01*
X101176397Y-113789325D01*
X101176396Y-113789324D01*
X101176393Y-113789323D01*
X101156336Y-113775921D01*
X101139279Y-113758864D01*
X101125877Y-113738807D01*
X101116646Y-113716520D01*
X101111940Y-113692861D01*
X101111940Y-113668739D01*
X101116646Y-113645080D01*
X101125877Y-113622793D01*
X101139279Y-113602736D01*
X101156336Y-113585679D01*
X101176393Y-113572277D01*
X101176396Y-113572276D01*
X101176397Y-113572275D01*
X101187536Y-113567662D01*
X101198680Y-113563046D01*
X101222339Y-113558340D01*
X101246461Y-113558340D01*
X101270120Y-113563046D01*
G37*
G36*
X101770120Y-113563046D02*
G01*
X101781264Y-113567662D01*
X101792403Y-113572275D01*
X101792404Y-113572276D01*
X101792407Y-113572277D01*
X101812464Y-113585679D01*
X101829521Y-113602736D01*
X101842923Y-113622793D01*
X101852154Y-113645080D01*
X101856860Y-113668739D01*
X101856860Y-113692861D01*
X101852154Y-113716520D01*
X101842923Y-113738807D01*
X101829521Y-113758864D01*
X101812464Y-113775921D01*
X101792407Y-113789323D01*
X101792404Y-113789324D01*
X101792403Y-113789325D01*
X101781263Y-113793939D01*
X101770120Y-113798554D01*
X101746461Y-113803260D01*
X101722339Y-113803260D01*
X101698680Y-113798554D01*
X101687537Y-113793939D01*
X101676397Y-113789325D01*
X101676396Y-113789324D01*
X101676393Y-113789323D01*
X101656336Y-113775921D01*
X101639279Y-113758864D01*
X101625877Y-113738807D01*
X101616646Y-113716520D01*
X101611940Y-113692861D01*
X101611940Y-113668739D01*
X101616646Y-113645080D01*
X101625877Y-113622793D01*
X101639279Y-113602736D01*
X101656336Y-113585679D01*
X101676393Y-113572277D01*
X101676396Y-113572276D01*
X101676397Y-113572275D01*
X101687536Y-113567662D01*
X101698680Y-113563046D01*
X101722339Y-113558340D01*
X101746461Y-113558340D01*
X101770120Y-113563046D01*
G37*
G36*
X105770120Y-113563046D02*
G01*
X105781264Y-113567662D01*
X105792403Y-113572275D01*
X105792404Y-113572276D01*
X105792407Y-113572277D01*
X105812464Y-113585679D01*
X105829521Y-113602736D01*
X105842923Y-113622793D01*
X105852154Y-113645080D01*
X105856860Y-113668739D01*
X105856860Y-113692861D01*
X105852154Y-113716520D01*
X105842923Y-113738807D01*
X105829521Y-113758864D01*
X105812464Y-113775921D01*
X105792407Y-113789323D01*
X105792404Y-113789324D01*
X105792403Y-113789325D01*
X105781263Y-113793939D01*
X105770120Y-113798554D01*
X105746461Y-113803260D01*
X105722339Y-113803260D01*
X105698680Y-113798554D01*
X105687537Y-113793939D01*
X105676397Y-113789325D01*
X105676396Y-113789324D01*
X105676393Y-113789323D01*
X105656336Y-113775921D01*
X105639279Y-113758864D01*
X105625877Y-113738807D01*
X105616646Y-113716520D01*
X105611940Y-113692861D01*
X105611940Y-113668739D01*
X105616646Y-113645080D01*
X105625877Y-113622793D01*
X105639279Y-113602736D01*
X105656336Y-113585679D01*
X105676393Y-113572277D01*
X105676396Y-113572276D01*
X105676397Y-113572275D01*
X105687536Y-113567662D01*
X105698680Y-113563046D01*
X105722339Y-113558340D01*
X105746461Y-113558340D01*
X105770120Y-113563046D01*
G37*
G36*
X106270120Y-113563046D02*
G01*
X106281264Y-113567662D01*
X106292403Y-113572275D01*
X106292404Y-113572276D01*
X106292407Y-113572277D01*
X106312464Y-113585679D01*
X106329521Y-113602736D01*
X106342923Y-113622793D01*
X106352154Y-113645080D01*
X106356860Y-113668739D01*
X106356860Y-113692861D01*
X106352154Y-113716520D01*
X106342923Y-113738807D01*
X106329521Y-113758864D01*
X106312464Y-113775921D01*
X106292407Y-113789323D01*
X106292404Y-113789324D01*
X106292403Y-113789325D01*
X106281263Y-113793939D01*
X106270120Y-113798554D01*
X106246461Y-113803260D01*
X106222339Y-113803260D01*
X106198680Y-113798554D01*
X106187537Y-113793939D01*
X106176397Y-113789325D01*
X106176396Y-113789324D01*
X106176393Y-113789323D01*
X106156336Y-113775921D01*
X106139279Y-113758864D01*
X106125877Y-113738807D01*
X106116646Y-113716520D01*
X106111940Y-113692861D01*
X106111940Y-113668739D01*
X106116646Y-113645080D01*
X106125877Y-113622793D01*
X106139279Y-113602736D01*
X106156336Y-113585679D01*
X106176393Y-113572277D01*
X106176396Y-113572276D01*
X106176397Y-113572275D01*
X106187536Y-113567662D01*
X106198680Y-113563046D01*
X106222339Y-113558340D01*
X106246461Y-113558340D01*
X106270120Y-113563046D01*
G37*
G36*
X120385200Y-113533200D02*
G01*
X119654400Y-113533200D01*
X119654400Y-113222400D01*
X120385200Y-113222400D01*
X120385200Y-113533200D01*
G37*
G36*
X115715200Y-113533200D02*
G01*
X114984400Y-113533200D01*
X114984400Y-113222400D01*
X115715200Y-113222400D01*
X115715200Y-113533200D01*
G37*
G36*
X114515592Y-113086085D02*
G01*
X114527703Y-113089759D01*
X114538863Y-113095724D01*
X114548647Y-113103753D01*
X114556676Y-113113537D01*
X114562641Y-113124697D01*
X114566315Y-113136808D01*
X114567800Y-113151891D01*
X114567800Y-113378109D01*
X114566315Y-113393192D01*
X114562641Y-113405303D01*
X114556676Y-113416463D01*
X114548647Y-113426247D01*
X114538863Y-113434276D01*
X114527703Y-113440241D01*
X114515592Y-113443915D01*
X114500509Y-113445400D01*
X114244291Y-113445400D01*
X114229208Y-113443915D01*
X114217097Y-113440241D01*
X114205937Y-113434276D01*
X114196153Y-113426247D01*
X114188124Y-113416463D01*
X114182159Y-113405303D01*
X114178485Y-113393192D01*
X114177000Y-113378109D01*
X114177000Y-113151891D01*
X114178485Y-113136808D01*
X114182159Y-113124697D01*
X114188124Y-113113537D01*
X114196153Y-113103753D01*
X114205937Y-113095724D01*
X114217097Y-113089759D01*
X114229208Y-113086085D01*
X114244291Y-113084600D01*
X114500509Y-113084600D01*
X114515592Y-113086085D01*
G37*
G36*
X101270120Y-113063046D02*
G01*
X101281263Y-113067661D01*
X101292403Y-113072275D01*
X101292404Y-113072276D01*
X101292407Y-113072277D01*
X101312464Y-113085679D01*
X101329521Y-113102736D01*
X101342923Y-113122793D01*
X101352154Y-113145080D01*
X101356860Y-113168739D01*
X101356860Y-113192861D01*
X101352154Y-113216520D01*
X101342923Y-113238807D01*
X101329521Y-113258864D01*
X101312464Y-113275921D01*
X101292407Y-113289323D01*
X101292404Y-113289324D01*
X101292403Y-113289325D01*
X101281264Y-113293938D01*
X101270120Y-113298554D01*
X101246461Y-113303260D01*
X101222339Y-113303260D01*
X101198680Y-113298554D01*
X101187536Y-113293938D01*
X101176397Y-113289325D01*
X101176396Y-113289324D01*
X101176393Y-113289323D01*
X101156336Y-113275921D01*
X101139279Y-113258864D01*
X101125877Y-113238807D01*
X101116646Y-113216520D01*
X101111940Y-113192861D01*
X101111940Y-113168739D01*
X101116646Y-113145080D01*
X101125877Y-113122793D01*
X101139279Y-113102736D01*
X101156336Y-113085679D01*
X101176393Y-113072277D01*
X101176396Y-113072276D01*
X101176397Y-113072275D01*
X101187537Y-113067661D01*
X101198680Y-113063046D01*
X101222339Y-113058340D01*
X101246461Y-113058340D01*
X101270120Y-113063046D01*
G37*
G36*
X101770120Y-113063046D02*
G01*
X101781263Y-113067661D01*
X101792403Y-113072275D01*
X101792404Y-113072276D01*
X101792407Y-113072277D01*
X101812464Y-113085679D01*
X101829521Y-113102736D01*
X101842923Y-113122793D01*
X101852154Y-113145080D01*
X101856860Y-113168739D01*
X101856860Y-113192861D01*
X101852154Y-113216520D01*
X101842923Y-113238807D01*
X101829521Y-113258864D01*
X101812464Y-113275921D01*
X101792407Y-113289323D01*
X101792404Y-113289324D01*
X101792403Y-113289325D01*
X101781264Y-113293938D01*
X101770120Y-113298554D01*
X101746461Y-113303260D01*
X101722339Y-113303260D01*
X101698680Y-113298554D01*
X101687536Y-113293938D01*
X101676397Y-113289325D01*
X101676396Y-113289324D01*
X101676393Y-113289323D01*
X101656336Y-113275921D01*
X101639279Y-113258864D01*
X101625877Y-113238807D01*
X101616646Y-113216520D01*
X101611940Y-113192861D01*
X101611940Y-113168739D01*
X101616646Y-113145080D01*
X101625877Y-113122793D01*
X101639279Y-113102736D01*
X101656336Y-113085679D01*
X101676393Y-113072277D01*
X101676396Y-113072276D01*
X101676397Y-113072275D01*
X101687537Y-113067661D01*
X101698680Y-113063046D01*
X101722339Y-113058340D01*
X101746461Y-113058340D01*
X101770120Y-113063046D01*
G37*
G36*
X106270120Y-113063046D02*
G01*
X106281263Y-113067661D01*
X106292403Y-113072275D01*
X106292404Y-113072276D01*
X106292407Y-113072277D01*
X106312464Y-113085679D01*
X106329521Y-113102736D01*
X106342923Y-113122793D01*
X106352154Y-113145080D01*
X106356860Y-113168739D01*
X106356860Y-113192861D01*
X106352154Y-113216520D01*
X106342923Y-113238807D01*
X106329521Y-113258864D01*
X106312464Y-113275921D01*
X106292407Y-113289323D01*
X106292404Y-113289324D01*
X106292403Y-113289325D01*
X106281264Y-113293938D01*
X106270120Y-113298554D01*
X106246461Y-113303260D01*
X106222339Y-113303260D01*
X106198680Y-113298554D01*
X106187536Y-113293938D01*
X106176397Y-113289325D01*
X106176396Y-113289324D01*
X106176393Y-113289323D01*
X106156336Y-113275921D01*
X106139279Y-113258864D01*
X106125877Y-113238807D01*
X106116646Y-113216520D01*
X106111940Y-113192861D01*
X106111940Y-113168739D01*
X106116646Y-113145080D01*
X106125877Y-113122793D01*
X106139279Y-113102736D01*
X106156336Y-113085679D01*
X106176393Y-113072277D01*
X106176396Y-113072276D01*
X106176397Y-113072275D01*
X106187537Y-113067661D01*
X106198680Y-113063046D01*
X106222339Y-113058340D01*
X106246461Y-113058340D01*
X106270120Y-113063046D01*
G37*
G36*
X105770120Y-113063046D02*
G01*
X105781263Y-113067661D01*
X105792403Y-113072275D01*
X105792404Y-113072276D01*
X105792407Y-113072277D01*
X105812464Y-113085679D01*
X105829521Y-113102736D01*
X105842923Y-113122793D01*
X105852154Y-113145080D01*
X105856860Y-113168739D01*
X105856860Y-113192861D01*
X105852154Y-113216520D01*
X105842923Y-113238807D01*
X105829521Y-113258864D01*
X105812464Y-113275921D01*
X105792407Y-113289323D01*
X105792404Y-113289324D01*
X105792403Y-113289325D01*
X105781264Y-113293938D01*
X105770120Y-113298554D01*
X105746461Y-113303260D01*
X105722339Y-113303260D01*
X105698680Y-113298554D01*
X105687536Y-113293938D01*
X105676397Y-113289325D01*
X105676396Y-113289324D01*
X105676393Y-113289323D01*
X105656336Y-113275921D01*
X105639279Y-113258864D01*
X105625877Y-113238807D01*
X105616646Y-113216520D01*
X105611940Y-113192861D01*
X105611940Y-113168739D01*
X105616646Y-113145080D01*
X105625877Y-113122793D01*
X105639279Y-113102736D01*
X105656336Y-113085679D01*
X105676393Y-113072277D01*
X105676396Y-113072276D01*
X105676397Y-113072275D01*
X105687537Y-113067661D01*
X105698680Y-113063046D01*
X105722339Y-113058340D01*
X105746461Y-113058340D01*
X105770120Y-113063046D01*
G37*
G36*
X115715200Y-113033200D02*
G01*
X114984400Y-113033200D01*
X114984400Y-112722400D01*
X115715200Y-112722400D01*
X115715200Y-113033200D01*
G37*
G36*
X120385200Y-113033200D02*
G01*
X119654400Y-113033200D01*
X119654400Y-112722400D01*
X120385200Y-112722400D01*
X120385200Y-113033200D01*
G37*
G36*
X114515592Y-112536085D02*
G01*
X114527703Y-112539759D01*
X114538863Y-112545724D01*
X114548647Y-112553753D01*
X114556676Y-112563537D01*
X114562641Y-112574697D01*
X114566315Y-112586808D01*
X114567800Y-112601891D01*
X114567800Y-112828109D01*
X114566315Y-112843192D01*
X114562641Y-112855303D01*
X114556676Y-112866463D01*
X114548647Y-112876247D01*
X114538863Y-112884276D01*
X114527703Y-112890241D01*
X114515592Y-112893915D01*
X114500509Y-112895400D01*
X114244291Y-112895400D01*
X114229208Y-112893915D01*
X114217097Y-112890241D01*
X114205937Y-112884276D01*
X114196153Y-112876247D01*
X114188124Y-112866463D01*
X114182159Y-112855303D01*
X114178485Y-112843192D01*
X114177000Y-112828109D01*
X114177000Y-112601891D01*
X114178485Y-112586808D01*
X114182159Y-112574697D01*
X114188124Y-112563537D01*
X114196153Y-112553753D01*
X114205937Y-112545724D01*
X114217097Y-112539759D01*
X114229208Y-112536085D01*
X114244291Y-112534600D01*
X114500509Y-112534600D01*
X114515592Y-112536085D01*
G37*
G36*
X101770120Y-112563046D02*
G01*
X101771305Y-112563537D01*
X101792403Y-112572275D01*
X101792404Y-112572276D01*
X101792407Y-112572277D01*
X101812464Y-112585679D01*
X101829521Y-112602736D01*
X101842923Y-112622793D01*
X101842924Y-112622796D01*
X101842925Y-112622797D01*
X101847538Y-112633936D01*
X101852154Y-112645080D01*
X101856860Y-112668739D01*
X101856860Y-112692861D01*
X101852154Y-112716520D01*
X101842923Y-112738807D01*
X101829521Y-112758864D01*
X101812464Y-112775921D01*
X101792407Y-112789323D01*
X101792404Y-112789324D01*
X101792403Y-112789325D01*
X101781263Y-112793939D01*
X101770120Y-112798554D01*
X101746461Y-112803260D01*
X101722339Y-112803260D01*
X101698680Y-112798554D01*
X101687537Y-112793939D01*
X101676397Y-112789325D01*
X101676396Y-112789324D01*
X101676393Y-112789323D01*
X101656336Y-112775921D01*
X101639279Y-112758864D01*
X101625877Y-112738807D01*
X101616646Y-112716520D01*
X101611940Y-112692861D01*
X101611940Y-112668739D01*
X101616646Y-112645080D01*
X101621262Y-112633936D01*
X101625875Y-112622797D01*
X101625876Y-112622796D01*
X101625877Y-112622793D01*
X101639279Y-112602736D01*
X101656336Y-112585679D01*
X101676393Y-112572277D01*
X101676396Y-112572276D01*
X101676397Y-112572275D01*
X101697495Y-112563537D01*
X101698680Y-112563046D01*
X101722339Y-112558340D01*
X101746461Y-112558340D01*
X101770120Y-112563046D01*
G37*
G36*
X101270120Y-112563046D02*
G01*
X101271305Y-112563537D01*
X101292403Y-112572275D01*
X101292404Y-112572276D01*
X101292407Y-112572277D01*
X101312464Y-112585679D01*
X101329521Y-112602736D01*
X101342923Y-112622793D01*
X101342924Y-112622796D01*
X101342925Y-112622797D01*
X101347538Y-112633936D01*
X101352154Y-112645080D01*
X101356860Y-112668739D01*
X101356860Y-112692861D01*
X101352154Y-112716520D01*
X101342923Y-112738807D01*
X101329521Y-112758864D01*
X101312464Y-112775921D01*
X101292407Y-112789323D01*
X101292404Y-112789324D01*
X101292403Y-112789325D01*
X101281263Y-112793939D01*
X101270120Y-112798554D01*
X101246461Y-112803260D01*
X101222339Y-112803260D01*
X101198680Y-112798554D01*
X101187537Y-112793939D01*
X101176397Y-112789325D01*
X101176396Y-112789324D01*
X101176393Y-112789323D01*
X101156336Y-112775921D01*
X101139279Y-112758864D01*
X101125877Y-112738807D01*
X101116646Y-112716520D01*
X101111940Y-112692861D01*
X101111940Y-112668739D01*
X101116646Y-112645080D01*
X101121262Y-112633936D01*
X101125875Y-112622797D01*
X101125876Y-112622796D01*
X101125877Y-112622793D01*
X101139279Y-112602736D01*
X101156336Y-112585679D01*
X101176393Y-112572277D01*
X101176396Y-112572276D01*
X101176397Y-112572275D01*
X101197495Y-112563537D01*
X101198680Y-112563046D01*
X101222339Y-112558340D01*
X101246461Y-112558340D01*
X101270120Y-112563046D01*
G37*
G36*
X106270120Y-112563046D02*
G01*
X106271305Y-112563537D01*
X106292403Y-112572275D01*
X106292404Y-112572276D01*
X106292407Y-112572277D01*
X106312464Y-112585679D01*
X106329521Y-112602736D01*
X106342923Y-112622793D01*
X106342924Y-112622796D01*
X106342925Y-112622797D01*
X106347538Y-112633936D01*
X106352154Y-112645080D01*
X106356860Y-112668739D01*
X106356860Y-112692861D01*
X106352154Y-112716520D01*
X106342923Y-112738807D01*
X106329521Y-112758864D01*
X106312464Y-112775921D01*
X106292407Y-112789323D01*
X106292404Y-112789324D01*
X106292403Y-112789325D01*
X106281263Y-112793939D01*
X106270120Y-112798554D01*
X106246461Y-112803260D01*
X106222339Y-112803260D01*
X106198680Y-112798554D01*
X106187537Y-112793939D01*
X106176397Y-112789325D01*
X106176396Y-112789324D01*
X106176393Y-112789323D01*
X106156336Y-112775921D01*
X106139279Y-112758864D01*
X106125877Y-112738807D01*
X106116646Y-112716520D01*
X106111940Y-112692861D01*
X106111940Y-112668739D01*
X106116646Y-112645080D01*
X106121262Y-112633936D01*
X106125875Y-112622797D01*
X106125876Y-112622796D01*
X106125877Y-112622793D01*
X106139279Y-112602736D01*
X106156336Y-112585679D01*
X106176393Y-112572277D01*
X106176396Y-112572276D01*
X106176397Y-112572275D01*
X106197495Y-112563537D01*
X106198680Y-112563046D01*
X106222339Y-112558340D01*
X106246461Y-112558340D01*
X106270120Y-112563046D01*
G37*
G36*
X105770120Y-112563046D02*
G01*
X105771305Y-112563537D01*
X105792403Y-112572275D01*
X105792404Y-112572276D01*
X105792407Y-112572277D01*
X105812464Y-112585679D01*
X105829521Y-112602736D01*
X105842923Y-112622793D01*
X105842924Y-112622796D01*
X105842925Y-112622797D01*
X105847538Y-112633936D01*
X105852154Y-112645080D01*
X105856860Y-112668739D01*
X105856860Y-112692861D01*
X105852154Y-112716520D01*
X105842923Y-112738807D01*
X105829521Y-112758864D01*
X105812464Y-112775921D01*
X105792407Y-112789323D01*
X105792404Y-112789324D01*
X105792403Y-112789325D01*
X105781263Y-112793939D01*
X105770120Y-112798554D01*
X105746461Y-112803260D01*
X105722339Y-112803260D01*
X105698680Y-112798554D01*
X105687537Y-112793939D01*
X105676397Y-112789325D01*
X105676396Y-112789324D01*
X105676393Y-112789323D01*
X105656336Y-112775921D01*
X105639279Y-112758864D01*
X105625877Y-112738807D01*
X105616646Y-112716520D01*
X105611940Y-112692861D01*
X105611940Y-112668739D01*
X105616646Y-112645080D01*
X105621262Y-112633936D01*
X105625875Y-112622797D01*
X105625876Y-112622796D01*
X105625877Y-112622793D01*
X105639279Y-112602736D01*
X105656336Y-112585679D01*
X105676393Y-112572277D01*
X105676396Y-112572276D01*
X105676397Y-112572275D01*
X105697495Y-112563537D01*
X105698680Y-112563046D01*
X105722339Y-112558340D01*
X105746461Y-112558340D01*
X105770120Y-112563046D01*
G37*
G36*
X115715200Y-112533200D02*
G01*
X114984400Y-112533200D01*
X114984400Y-112222400D01*
X115715200Y-112222400D01*
X115715200Y-112533200D01*
G37*
G36*
X120385200Y-112533200D02*
G01*
X119654400Y-112533200D01*
X119654400Y-112222400D01*
X120385200Y-112222400D01*
X120385200Y-112533200D01*
G37*
G36*
X102770120Y-112063046D02*
G01*
X102781264Y-112067662D01*
X102792403Y-112072275D01*
X102792404Y-112072276D01*
X102792407Y-112072277D01*
X102812464Y-112085679D01*
X102829521Y-112102736D01*
X102842923Y-112122793D01*
X102852154Y-112145080D01*
X102856860Y-112168739D01*
X102856860Y-112192861D01*
X102852154Y-112216520D01*
X102842923Y-112238807D01*
X102829521Y-112258864D01*
X102812464Y-112275921D01*
X102792407Y-112289323D01*
X102792404Y-112289324D01*
X102792403Y-112289325D01*
X102781264Y-112293938D01*
X102770120Y-112298554D01*
X102746461Y-112303260D01*
X102722339Y-112303260D01*
X102698680Y-112298554D01*
X102687536Y-112293938D01*
X102676397Y-112289325D01*
X102676396Y-112289324D01*
X102676393Y-112289323D01*
X102656336Y-112275921D01*
X102639279Y-112258864D01*
X102625877Y-112238807D01*
X102616646Y-112216520D01*
X102611940Y-112192861D01*
X102611940Y-112168739D01*
X102616646Y-112145080D01*
X102625877Y-112122793D01*
X102639279Y-112102736D01*
X102656336Y-112085679D01*
X102676393Y-112072277D01*
X102676396Y-112072276D01*
X102676397Y-112072275D01*
X102687536Y-112067662D01*
X102698680Y-112063046D01*
X102722339Y-112058340D01*
X102746461Y-112058340D01*
X102770120Y-112063046D01*
G37*
G36*
X101270120Y-112063046D02*
G01*
X101281264Y-112067662D01*
X101292403Y-112072275D01*
X101292404Y-112072276D01*
X101292407Y-112072277D01*
X101312464Y-112085679D01*
X101329521Y-112102736D01*
X101342923Y-112122793D01*
X101352154Y-112145080D01*
X101356860Y-112168739D01*
X101356860Y-112192861D01*
X101352154Y-112216520D01*
X101342923Y-112238807D01*
X101329521Y-112258864D01*
X101312464Y-112275921D01*
X101292407Y-112289323D01*
X101292404Y-112289324D01*
X101292403Y-112289325D01*
X101281264Y-112293938D01*
X101270120Y-112298554D01*
X101246461Y-112303260D01*
X101222339Y-112303260D01*
X101198680Y-112298554D01*
X101187536Y-112293938D01*
X101176397Y-112289325D01*
X101176396Y-112289324D01*
X101176393Y-112289323D01*
X101156336Y-112275921D01*
X101139279Y-112258864D01*
X101125877Y-112238807D01*
X101116646Y-112216520D01*
X101111940Y-112192861D01*
X101111940Y-112168739D01*
X101116646Y-112145080D01*
X101125877Y-112122793D01*
X101139279Y-112102736D01*
X101156336Y-112085679D01*
X101176393Y-112072277D01*
X101176396Y-112072276D01*
X101176397Y-112072275D01*
X101187536Y-112067662D01*
X101198680Y-112063046D01*
X101222339Y-112058340D01*
X101246461Y-112058340D01*
X101270120Y-112063046D01*
G37*
G36*
X101770120Y-112063046D02*
G01*
X101781264Y-112067662D01*
X101792403Y-112072275D01*
X101792404Y-112072276D01*
X101792407Y-112072277D01*
X101812464Y-112085679D01*
X101829521Y-112102736D01*
X101842923Y-112122793D01*
X101852154Y-112145080D01*
X101856860Y-112168739D01*
X101856860Y-112192861D01*
X101852154Y-112216520D01*
X101842923Y-112238807D01*
X101829521Y-112258864D01*
X101812464Y-112275921D01*
X101792407Y-112289323D01*
X101792404Y-112289324D01*
X101792403Y-112289325D01*
X101781264Y-112293938D01*
X101770120Y-112298554D01*
X101746461Y-112303260D01*
X101722339Y-112303260D01*
X101698680Y-112298554D01*
X101687536Y-112293938D01*
X101676397Y-112289325D01*
X101676396Y-112289324D01*
X101676393Y-112289323D01*
X101656336Y-112275921D01*
X101639279Y-112258864D01*
X101625877Y-112238807D01*
X101616646Y-112216520D01*
X101611940Y-112192861D01*
X101611940Y-112168739D01*
X101616646Y-112145080D01*
X101625877Y-112122793D01*
X101639279Y-112102736D01*
X101656336Y-112085679D01*
X101676393Y-112072277D01*
X101676396Y-112072276D01*
X101676397Y-112072275D01*
X101687536Y-112067662D01*
X101698680Y-112063046D01*
X101722339Y-112058340D01*
X101746461Y-112058340D01*
X101770120Y-112063046D01*
G37*
G36*
X102270120Y-112063046D02*
G01*
X102281264Y-112067662D01*
X102292403Y-112072275D01*
X102292404Y-112072276D01*
X102292407Y-112072277D01*
X102312464Y-112085679D01*
X102329521Y-112102736D01*
X102342923Y-112122793D01*
X102352154Y-112145080D01*
X102356860Y-112168739D01*
X102356860Y-112192861D01*
X102352154Y-112216520D01*
X102342923Y-112238807D01*
X102329521Y-112258864D01*
X102312464Y-112275921D01*
X102292407Y-112289323D01*
X102292404Y-112289324D01*
X102292403Y-112289325D01*
X102281264Y-112293938D01*
X102270120Y-112298554D01*
X102246461Y-112303260D01*
X102222339Y-112303260D01*
X102198680Y-112298554D01*
X102187536Y-112293938D01*
X102176397Y-112289325D01*
X102176396Y-112289324D01*
X102176393Y-112289323D01*
X102156336Y-112275921D01*
X102139279Y-112258864D01*
X102125877Y-112238807D01*
X102116646Y-112216520D01*
X102111940Y-112192861D01*
X102111940Y-112168739D01*
X102116646Y-112145080D01*
X102125877Y-112122793D01*
X102139279Y-112102736D01*
X102156336Y-112085679D01*
X102176393Y-112072277D01*
X102176396Y-112072276D01*
X102176397Y-112072275D01*
X102187536Y-112067662D01*
X102198680Y-112063046D01*
X102222339Y-112058340D01*
X102246461Y-112058340D01*
X102270120Y-112063046D01*
G37*
G36*
X103270120Y-112063046D02*
G01*
X103281264Y-112067662D01*
X103292403Y-112072275D01*
X103292404Y-112072276D01*
X103292407Y-112072277D01*
X103312464Y-112085679D01*
X103329521Y-112102736D01*
X103342923Y-112122793D01*
X103352154Y-112145080D01*
X103356860Y-112168739D01*
X103356860Y-112192861D01*
X103352154Y-112216520D01*
X103342923Y-112238807D01*
X103329521Y-112258864D01*
X103312464Y-112275921D01*
X103292407Y-112289323D01*
X103292404Y-112289324D01*
X103292403Y-112289325D01*
X103281264Y-112293938D01*
X103270120Y-112298554D01*
X103246461Y-112303260D01*
X103222339Y-112303260D01*
X103198680Y-112298554D01*
X103187536Y-112293938D01*
X103176397Y-112289325D01*
X103176396Y-112289324D01*
X103176393Y-112289323D01*
X103156336Y-112275921D01*
X103139279Y-112258864D01*
X103125877Y-112238807D01*
X103116646Y-112216520D01*
X103111940Y-112192861D01*
X103111940Y-112168739D01*
X103116646Y-112145080D01*
X103125877Y-112122793D01*
X103139279Y-112102736D01*
X103156336Y-112085679D01*
X103176393Y-112072277D01*
X103176396Y-112072276D01*
X103176397Y-112072275D01*
X103187536Y-112067662D01*
X103198680Y-112063046D01*
X103222339Y-112058340D01*
X103246461Y-112058340D01*
X103270120Y-112063046D01*
G37*
G36*
X103770120Y-112063046D02*
G01*
X103781264Y-112067662D01*
X103792403Y-112072275D01*
X103792404Y-112072276D01*
X103792407Y-112072277D01*
X103812464Y-112085679D01*
X103829521Y-112102736D01*
X103842923Y-112122793D01*
X103852154Y-112145080D01*
X103856860Y-112168739D01*
X103856860Y-112192861D01*
X103852154Y-112216520D01*
X103842923Y-112238807D01*
X103829521Y-112258864D01*
X103812464Y-112275921D01*
X103792407Y-112289323D01*
X103792404Y-112289324D01*
X103792403Y-112289325D01*
X103781264Y-112293938D01*
X103770120Y-112298554D01*
X103746461Y-112303260D01*
X103722339Y-112303260D01*
X103698680Y-112298554D01*
X103687536Y-112293938D01*
X103676397Y-112289325D01*
X103676396Y-112289324D01*
X103676393Y-112289323D01*
X103656336Y-112275921D01*
X103639279Y-112258864D01*
X103625877Y-112238807D01*
X103616646Y-112216520D01*
X103611940Y-112192861D01*
X103611940Y-112168739D01*
X103616646Y-112145080D01*
X103625877Y-112122793D01*
X103639279Y-112102736D01*
X103656336Y-112085679D01*
X103676393Y-112072277D01*
X103676396Y-112072276D01*
X103676397Y-112072275D01*
X103687536Y-112067662D01*
X103698680Y-112063046D01*
X103722339Y-112058340D01*
X103746461Y-112058340D01*
X103770120Y-112063046D01*
G37*
G36*
X104270120Y-112063046D02*
G01*
X104281264Y-112067662D01*
X104292403Y-112072275D01*
X104292404Y-112072276D01*
X104292407Y-112072277D01*
X104312464Y-112085679D01*
X104329521Y-112102736D01*
X104342923Y-112122793D01*
X104352154Y-112145080D01*
X104356860Y-112168739D01*
X104356860Y-112192861D01*
X104352154Y-112216520D01*
X104342923Y-112238807D01*
X104329521Y-112258864D01*
X104312464Y-112275921D01*
X104292407Y-112289323D01*
X104292404Y-112289324D01*
X104292403Y-112289325D01*
X104281264Y-112293938D01*
X104270120Y-112298554D01*
X104246461Y-112303260D01*
X104222339Y-112303260D01*
X104198680Y-112298554D01*
X104187536Y-112293938D01*
X104176397Y-112289325D01*
X104176396Y-112289324D01*
X104176393Y-112289323D01*
X104156336Y-112275921D01*
X104139279Y-112258864D01*
X104125877Y-112238807D01*
X104116646Y-112216520D01*
X104111940Y-112192861D01*
X104111940Y-112168739D01*
X104116646Y-112145080D01*
X104125877Y-112122793D01*
X104139279Y-112102736D01*
X104156336Y-112085679D01*
X104176393Y-112072277D01*
X104176396Y-112072276D01*
X104176397Y-112072275D01*
X104187536Y-112067662D01*
X104198680Y-112063046D01*
X104222339Y-112058340D01*
X104246461Y-112058340D01*
X104270120Y-112063046D01*
G37*
G36*
X104770120Y-112063046D02*
G01*
X104781264Y-112067662D01*
X104792403Y-112072275D01*
X104792404Y-112072276D01*
X104792407Y-112072277D01*
X104812464Y-112085679D01*
X104829521Y-112102736D01*
X104842923Y-112122793D01*
X104852154Y-112145080D01*
X104856860Y-112168739D01*
X104856860Y-112192861D01*
X104852154Y-112216520D01*
X104842923Y-112238807D01*
X104829521Y-112258864D01*
X104812464Y-112275921D01*
X104792407Y-112289323D01*
X104792404Y-112289324D01*
X104792403Y-112289325D01*
X104781264Y-112293938D01*
X104770120Y-112298554D01*
X104746461Y-112303260D01*
X104722339Y-112303260D01*
X104698680Y-112298554D01*
X104687536Y-112293938D01*
X104676397Y-112289325D01*
X104676396Y-112289324D01*
X104676393Y-112289323D01*
X104656336Y-112275921D01*
X104639279Y-112258864D01*
X104625877Y-112238807D01*
X104616646Y-112216520D01*
X104611940Y-112192861D01*
X104611940Y-112168739D01*
X104616646Y-112145080D01*
X104625877Y-112122793D01*
X104639279Y-112102736D01*
X104656336Y-112085679D01*
X104676393Y-112072277D01*
X104676396Y-112072276D01*
X104676397Y-112072275D01*
X104687536Y-112067662D01*
X104698680Y-112063046D01*
X104722339Y-112058340D01*
X104746461Y-112058340D01*
X104770120Y-112063046D01*
G37*
G36*
X105270120Y-112063046D02*
G01*
X105281264Y-112067662D01*
X105292403Y-112072275D01*
X105292404Y-112072276D01*
X105292407Y-112072277D01*
X105312464Y-112085679D01*
X105329521Y-112102736D01*
X105342923Y-112122793D01*
X105352154Y-112145080D01*
X105356860Y-112168739D01*
X105356860Y-112192861D01*
X105352154Y-112216520D01*
X105342923Y-112238807D01*
X105329521Y-112258864D01*
X105312464Y-112275921D01*
X105292407Y-112289323D01*
X105292404Y-112289324D01*
X105292403Y-112289325D01*
X105281264Y-112293938D01*
X105270120Y-112298554D01*
X105246461Y-112303260D01*
X105222339Y-112303260D01*
X105198680Y-112298554D01*
X105187536Y-112293938D01*
X105176397Y-112289325D01*
X105176396Y-112289324D01*
X105176393Y-112289323D01*
X105156336Y-112275921D01*
X105139279Y-112258864D01*
X105125877Y-112238807D01*
X105116646Y-112216520D01*
X105111940Y-112192861D01*
X105111940Y-112168739D01*
X105116646Y-112145080D01*
X105125877Y-112122793D01*
X105139279Y-112102736D01*
X105156336Y-112085679D01*
X105176393Y-112072277D01*
X105176396Y-112072276D01*
X105176397Y-112072275D01*
X105187536Y-112067662D01*
X105198680Y-112063046D01*
X105222339Y-112058340D01*
X105246461Y-112058340D01*
X105270120Y-112063046D01*
G37*
G36*
X105770120Y-112063046D02*
G01*
X105781264Y-112067662D01*
X105792403Y-112072275D01*
X105792404Y-112072276D01*
X105792407Y-112072277D01*
X105812464Y-112085679D01*
X105829521Y-112102736D01*
X105842923Y-112122793D01*
X105852154Y-112145080D01*
X105856860Y-112168739D01*
X105856860Y-112192861D01*
X105852154Y-112216520D01*
X105842923Y-112238807D01*
X105829521Y-112258864D01*
X105812464Y-112275921D01*
X105792407Y-112289323D01*
X105792404Y-112289324D01*
X105792403Y-112289325D01*
X105781264Y-112293938D01*
X105770120Y-112298554D01*
X105746461Y-112303260D01*
X105722339Y-112303260D01*
X105698680Y-112298554D01*
X105687536Y-112293938D01*
X105676397Y-112289325D01*
X105676396Y-112289324D01*
X105676393Y-112289323D01*
X105656336Y-112275921D01*
X105639279Y-112258864D01*
X105625877Y-112238807D01*
X105616646Y-112216520D01*
X105611940Y-112192861D01*
X105611940Y-112168739D01*
X105616646Y-112145080D01*
X105625877Y-112122793D01*
X105639279Y-112102736D01*
X105656336Y-112085679D01*
X105676393Y-112072277D01*
X105676396Y-112072276D01*
X105676397Y-112072275D01*
X105687536Y-112067662D01*
X105698680Y-112063046D01*
X105722339Y-112058340D01*
X105746461Y-112058340D01*
X105770120Y-112063046D01*
G37*
G36*
X106270120Y-112063046D02*
G01*
X106281264Y-112067662D01*
X106292403Y-112072275D01*
X106292404Y-112072276D01*
X106292407Y-112072277D01*
X106312464Y-112085679D01*
X106329521Y-112102736D01*
X106342923Y-112122793D01*
X106352154Y-112145080D01*
X106356860Y-112168739D01*
X106356860Y-112192861D01*
X106352154Y-112216520D01*
X106342923Y-112238807D01*
X106329521Y-112258864D01*
X106312464Y-112275921D01*
X106292407Y-112289323D01*
X106292404Y-112289324D01*
X106292403Y-112289325D01*
X106281264Y-112293938D01*
X106270120Y-112298554D01*
X106246461Y-112303260D01*
X106222339Y-112303260D01*
X106198680Y-112298554D01*
X106187536Y-112293938D01*
X106176397Y-112289325D01*
X106176396Y-112289324D01*
X106176393Y-112289323D01*
X106156336Y-112275921D01*
X106139279Y-112258864D01*
X106125877Y-112238807D01*
X106116646Y-112216520D01*
X106111940Y-112192861D01*
X106111940Y-112168739D01*
X106116646Y-112145080D01*
X106125877Y-112122793D01*
X106139279Y-112102736D01*
X106156336Y-112085679D01*
X106176393Y-112072277D01*
X106176396Y-112072276D01*
X106176397Y-112072275D01*
X106187536Y-112067662D01*
X106198680Y-112063046D01*
X106222339Y-112058340D01*
X106246461Y-112058340D01*
X106270120Y-112063046D01*
G37*
G36*
X120385200Y-112033200D02*
G01*
X119654400Y-112033200D01*
X119654400Y-111722400D01*
X120385200Y-111722400D01*
X120385200Y-112033200D01*
G37*
G36*
X115715200Y-112033200D02*
G01*
X114984400Y-112033200D01*
X114984400Y-111722400D01*
X115715200Y-111722400D01*
X115715200Y-112033200D01*
G37*
G36*
X104270120Y-111563046D02*
G01*
X104281263Y-111567661D01*
X104292403Y-111572275D01*
X104292404Y-111572276D01*
X104292407Y-111572277D01*
X104312464Y-111585679D01*
X104329521Y-111602736D01*
X104342923Y-111622793D01*
X104352154Y-111645080D01*
X104356860Y-111668739D01*
X104356860Y-111692861D01*
X104352154Y-111716520D01*
X104342923Y-111738807D01*
X104329521Y-111758864D01*
X104312464Y-111775921D01*
X104292407Y-111789323D01*
X104292404Y-111789324D01*
X104292403Y-111789325D01*
X104281263Y-111793939D01*
X104270120Y-111798554D01*
X104246461Y-111803260D01*
X104222339Y-111803260D01*
X104198680Y-111798554D01*
X104187537Y-111793939D01*
X104176397Y-111789325D01*
X104176396Y-111789324D01*
X104176393Y-111789323D01*
X104156336Y-111775921D01*
X104139279Y-111758864D01*
X104125877Y-111738807D01*
X104116646Y-111716520D01*
X104111940Y-111692861D01*
X104111940Y-111668739D01*
X104116646Y-111645080D01*
X104125877Y-111622793D01*
X104139279Y-111602736D01*
X104156336Y-111585679D01*
X104176393Y-111572277D01*
X104176396Y-111572276D01*
X104176397Y-111572275D01*
X104187537Y-111567661D01*
X104198680Y-111563046D01*
X104222339Y-111558340D01*
X104246461Y-111558340D01*
X104270120Y-111563046D01*
G37*
G36*
X104770120Y-111563046D02*
G01*
X104781263Y-111567661D01*
X104792403Y-111572275D01*
X104792404Y-111572276D01*
X104792407Y-111572277D01*
X104812464Y-111585679D01*
X104829521Y-111602736D01*
X104842923Y-111622793D01*
X104852154Y-111645080D01*
X104856860Y-111668739D01*
X104856860Y-111692861D01*
X104852154Y-111716520D01*
X104842923Y-111738807D01*
X104829521Y-111758864D01*
X104812464Y-111775921D01*
X104792407Y-111789323D01*
X104792404Y-111789324D01*
X104792403Y-111789325D01*
X104781263Y-111793939D01*
X104770120Y-111798554D01*
X104746461Y-111803260D01*
X104722339Y-111803260D01*
X104698680Y-111798554D01*
X104687537Y-111793939D01*
X104676397Y-111789325D01*
X104676396Y-111789324D01*
X104676393Y-111789323D01*
X104656336Y-111775921D01*
X104639279Y-111758864D01*
X104625877Y-111738807D01*
X104616646Y-111716520D01*
X104611940Y-111692861D01*
X104611940Y-111668739D01*
X104616646Y-111645080D01*
X104625877Y-111622793D01*
X104639279Y-111602736D01*
X104656336Y-111585679D01*
X104676393Y-111572277D01*
X104676396Y-111572276D01*
X104676397Y-111572275D01*
X104687537Y-111567661D01*
X104698680Y-111563046D01*
X104722339Y-111558340D01*
X104746461Y-111558340D01*
X104770120Y-111563046D01*
G37*
G36*
X105270120Y-111563046D02*
G01*
X105281263Y-111567661D01*
X105292403Y-111572275D01*
X105292404Y-111572276D01*
X105292407Y-111572277D01*
X105312464Y-111585679D01*
X105329521Y-111602736D01*
X105342923Y-111622793D01*
X105352154Y-111645080D01*
X105356860Y-111668739D01*
X105356860Y-111692861D01*
X105352154Y-111716520D01*
X105342923Y-111738807D01*
X105329521Y-111758864D01*
X105312464Y-111775921D01*
X105292407Y-111789323D01*
X105292404Y-111789324D01*
X105292403Y-111789325D01*
X105281263Y-111793939D01*
X105270120Y-111798554D01*
X105246461Y-111803260D01*
X105222339Y-111803260D01*
X105198680Y-111798554D01*
X105187537Y-111793939D01*
X105176397Y-111789325D01*
X105176396Y-111789324D01*
X105176393Y-111789323D01*
X105156336Y-111775921D01*
X105139279Y-111758864D01*
X105125877Y-111738807D01*
X105116646Y-111716520D01*
X105111940Y-111692861D01*
X105111940Y-111668739D01*
X105116646Y-111645080D01*
X105125877Y-111622793D01*
X105139279Y-111602736D01*
X105156336Y-111585679D01*
X105176393Y-111572277D01*
X105176396Y-111572276D01*
X105176397Y-111572275D01*
X105187537Y-111567661D01*
X105198680Y-111563046D01*
X105222339Y-111558340D01*
X105246461Y-111558340D01*
X105270120Y-111563046D01*
G37*
G36*
X101270120Y-111563046D02*
G01*
X101281263Y-111567661D01*
X101292403Y-111572275D01*
X101292404Y-111572276D01*
X101292407Y-111572277D01*
X101312464Y-111585679D01*
X101329521Y-111602736D01*
X101342923Y-111622793D01*
X101352154Y-111645080D01*
X101356860Y-111668739D01*
X101356860Y-111692861D01*
X101352154Y-111716520D01*
X101342923Y-111738807D01*
X101329521Y-111758864D01*
X101312464Y-111775921D01*
X101292407Y-111789323D01*
X101292404Y-111789324D01*
X101292403Y-111789325D01*
X101281263Y-111793939D01*
X101270120Y-111798554D01*
X101246461Y-111803260D01*
X101222339Y-111803260D01*
X101198680Y-111798554D01*
X101187537Y-111793939D01*
X101176397Y-111789325D01*
X101176396Y-111789324D01*
X101176393Y-111789323D01*
X101156336Y-111775921D01*
X101139279Y-111758864D01*
X101125877Y-111738807D01*
X101116646Y-111716520D01*
X101111940Y-111692861D01*
X101111940Y-111668739D01*
X101116646Y-111645080D01*
X101125877Y-111622793D01*
X101139279Y-111602736D01*
X101156336Y-111585679D01*
X101176393Y-111572277D01*
X101176396Y-111572276D01*
X101176397Y-111572275D01*
X101187537Y-111567661D01*
X101198680Y-111563046D01*
X101222339Y-111558340D01*
X101246461Y-111558340D01*
X101270120Y-111563046D01*
G37*
G36*
X101770120Y-111563046D02*
G01*
X101781263Y-111567661D01*
X101792403Y-111572275D01*
X101792404Y-111572276D01*
X101792407Y-111572277D01*
X101812464Y-111585679D01*
X101829521Y-111602736D01*
X101842923Y-111622793D01*
X101852154Y-111645080D01*
X101856860Y-111668739D01*
X101856860Y-111692861D01*
X101852154Y-111716520D01*
X101842923Y-111738807D01*
X101829521Y-111758864D01*
X101812464Y-111775921D01*
X101792407Y-111789323D01*
X101792404Y-111789324D01*
X101792403Y-111789325D01*
X101781263Y-111793939D01*
X101770120Y-111798554D01*
X101746461Y-111803260D01*
X101722339Y-111803260D01*
X101698680Y-111798554D01*
X101687537Y-111793939D01*
X101676397Y-111789325D01*
X101676396Y-111789324D01*
X101676393Y-111789323D01*
X101656336Y-111775921D01*
X101639279Y-111758864D01*
X101625877Y-111738807D01*
X101616646Y-111716520D01*
X101611940Y-111692861D01*
X101611940Y-111668739D01*
X101616646Y-111645080D01*
X101625877Y-111622793D01*
X101639279Y-111602736D01*
X101656336Y-111585679D01*
X101676393Y-111572277D01*
X101676396Y-111572276D01*
X101676397Y-111572275D01*
X101687537Y-111567661D01*
X101698680Y-111563046D01*
X101722339Y-111558340D01*
X101746461Y-111558340D01*
X101770120Y-111563046D01*
G37*
G36*
X102770120Y-111563046D02*
G01*
X102781263Y-111567661D01*
X102792403Y-111572275D01*
X102792404Y-111572276D01*
X102792407Y-111572277D01*
X102812464Y-111585679D01*
X102829521Y-111602736D01*
X102842923Y-111622793D01*
X102852154Y-111645080D01*
X102856860Y-111668739D01*
X102856860Y-111692861D01*
X102852154Y-111716520D01*
X102842923Y-111738807D01*
X102829521Y-111758864D01*
X102812464Y-111775921D01*
X102792407Y-111789323D01*
X102792404Y-111789324D01*
X102792403Y-111789325D01*
X102781263Y-111793939D01*
X102770120Y-111798554D01*
X102746461Y-111803260D01*
X102722339Y-111803260D01*
X102698680Y-111798554D01*
X102687537Y-111793939D01*
X102676397Y-111789325D01*
X102676396Y-111789324D01*
X102676393Y-111789323D01*
X102656336Y-111775921D01*
X102639279Y-111758864D01*
X102625877Y-111738807D01*
X102616646Y-111716520D01*
X102611940Y-111692861D01*
X102611940Y-111668739D01*
X102616646Y-111645080D01*
X102625877Y-111622793D01*
X102639279Y-111602736D01*
X102656336Y-111585679D01*
X102676393Y-111572277D01*
X102676396Y-111572276D01*
X102676397Y-111572275D01*
X102687537Y-111567661D01*
X102698680Y-111563046D01*
X102722339Y-111558340D01*
X102746461Y-111558340D01*
X102770120Y-111563046D01*
G37*
G36*
X106270120Y-111563046D02*
G01*
X106281263Y-111567661D01*
X106292403Y-111572275D01*
X106292404Y-111572276D01*
X106292407Y-111572277D01*
X106312464Y-111585679D01*
X106329521Y-111602736D01*
X106342923Y-111622793D01*
X106352154Y-111645080D01*
X106356860Y-111668739D01*
X106356860Y-111692861D01*
X106352154Y-111716520D01*
X106342923Y-111738807D01*
X106329521Y-111758864D01*
X106312464Y-111775921D01*
X106292407Y-111789323D01*
X106292404Y-111789324D01*
X106292403Y-111789325D01*
X106281263Y-111793939D01*
X106270120Y-111798554D01*
X106246461Y-111803260D01*
X106222339Y-111803260D01*
X106198680Y-111798554D01*
X106187537Y-111793939D01*
X106176397Y-111789325D01*
X106176396Y-111789324D01*
X106176393Y-111789323D01*
X106156336Y-111775921D01*
X106139279Y-111758864D01*
X106125877Y-111738807D01*
X106116646Y-111716520D01*
X106111940Y-111692861D01*
X106111940Y-111668739D01*
X106116646Y-111645080D01*
X106125877Y-111622793D01*
X106139279Y-111602736D01*
X106156336Y-111585679D01*
X106176393Y-111572277D01*
X106176396Y-111572276D01*
X106176397Y-111572275D01*
X106187537Y-111567661D01*
X106198680Y-111563046D01*
X106222339Y-111558340D01*
X106246461Y-111558340D01*
X106270120Y-111563046D01*
G37*
G36*
X103270120Y-111563046D02*
G01*
X103281263Y-111567661D01*
X103292403Y-111572275D01*
X103292404Y-111572276D01*
X103292407Y-111572277D01*
X103312464Y-111585679D01*
X103329521Y-111602736D01*
X103342923Y-111622793D01*
X103352154Y-111645080D01*
X103356860Y-111668739D01*
X103356860Y-111692861D01*
X103352154Y-111716520D01*
X103342923Y-111738807D01*
X103329521Y-111758864D01*
X103312464Y-111775921D01*
X103292407Y-111789323D01*
X103292404Y-111789324D01*
X103292403Y-111789325D01*
X103281263Y-111793939D01*
X103270120Y-111798554D01*
X103246461Y-111803260D01*
X103222339Y-111803260D01*
X103198680Y-111798554D01*
X103187537Y-111793939D01*
X103176397Y-111789325D01*
X103176396Y-111789324D01*
X103176393Y-111789323D01*
X103156336Y-111775921D01*
X103139279Y-111758864D01*
X103125877Y-111738807D01*
X103116646Y-111716520D01*
X103111940Y-111692861D01*
X103111940Y-111668739D01*
X103116646Y-111645080D01*
X103125877Y-111622793D01*
X103139279Y-111602736D01*
X103156336Y-111585679D01*
X103176393Y-111572277D01*
X103176396Y-111572276D01*
X103176397Y-111572275D01*
X103187537Y-111567661D01*
X103198680Y-111563046D01*
X103222339Y-111558340D01*
X103246461Y-111558340D01*
X103270120Y-111563046D01*
G37*
G36*
X103770120Y-111563046D02*
G01*
X103781263Y-111567661D01*
X103792403Y-111572275D01*
X103792404Y-111572276D01*
X103792407Y-111572277D01*
X103812464Y-111585679D01*
X103829521Y-111602736D01*
X103842923Y-111622793D01*
X103852154Y-111645080D01*
X103856860Y-111668739D01*
X103856860Y-111692861D01*
X103852154Y-111716520D01*
X103842923Y-111738807D01*
X103829521Y-111758864D01*
X103812464Y-111775921D01*
X103792407Y-111789323D01*
X103792404Y-111789324D01*
X103792403Y-111789325D01*
X103781263Y-111793939D01*
X103770120Y-111798554D01*
X103746461Y-111803260D01*
X103722339Y-111803260D01*
X103698680Y-111798554D01*
X103687537Y-111793939D01*
X103676397Y-111789325D01*
X103676396Y-111789324D01*
X103676393Y-111789323D01*
X103656336Y-111775921D01*
X103639279Y-111758864D01*
X103625877Y-111738807D01*
X103616646Y-111716520D01*
X103611940Y-111692861D01*
X103611940Y-111668739D01*
X103616646Y-111645080D01*
X103625877Y-111622793D01*
X103639279Y-111602736D01*
X103656336Y-111585679D01*
X103676393Y-111572277D01*
X103676396Y-111572276D01*
X103676397Y-111572275D01*
X103687537Y-111567661D01*
X103698680Y-111563046D01*
X103722339Y-111558340D01*
X103746461Y-111558340D01*
X103770120Y-111563046D01*
G37*
G36*
X105770120Y-111563046D02*
G01*
X105781263Y-111567661D01*
X105792403Y-111572275D01*
X105792404Y-111572276D01*
X105792407Y-111572277D01*
X105812464Y-111585679D01*
X105829521Y-111602736D01*
X105842923Y-111622793D01*
X105852154Y-111645080D01*
X105856860Y-111668739D01*
X105856860Y-111692861D01*
X105852154Y-111716520D01*
X105842923Y-111738807D01*
X105829521Y-111758864D01*
X105812464Y-111775921D01*
X105792407Y-111789323D01*
X105792404Y-111789324D01*
X105792403Y-111789325D01*
X105781263Y-111793939D01*
X105770120Y-111798554D01*
X105746461Y-111803260D01*
X105722339Y-111803260D01*
X105698680Y-111798554D01*
X105687537Y-111793939D01*
X105676397Y-111789325D01*
X105676396Y-111789324D01*
X105676393Y-111789323D01*
X105656336Y-111775921D01*
X105639279Y-111758864D01*
X105625877Y-111738807D01*
X105616646Y-111716520D01*
X105611940Y-111692861D01*
X105611940Y-111668739D01*
X105616646Y-111645080D01*
X105625877Y-111622793D01*
X105639279Y-111602736D01*
X105656336Y-111585679D01*
X105676393Y-111572277D01*
X105676396Y-111572276D01*
X105676397Y-111572275D01*
X105687537Y-111567661D01*
X105698680Y-111563046D01*
X105722339Y-111558340D01*
X105746461Y-111558340D01*
X105770120Y-111563046D01*
G37*
G36*
X102270120Y-111563046D02*
G01*
X102281263Y-111567661D01*
X102292403Y-111572275D01*
X102292404Y-111572276D01*
X102292407Y-111572277D01*
X102312464Y-111585679D01*
X102329521Y-111602736D01*
X102342923Y-111622793D01*
X102352154Y-111645080D01*
X102356860Y-111668739D01*
X102356860Y-111692861D01*
X102352154Y-111716520D01*
X102342923Y-111738807D01*
X102329521Y-111758864D01*
X102312464Y-111775921D01*
X102292407Y-111789323D01*
X102292404Y-111789324D01*
X102292403Y-111789325D01*
X102281263Y-111793939D01*
X102270120Y-111798554D01*
X102246461Y-111803260D01*
X102222339Y-111803260D01*
X102198680Y-111798554D01*
X102187537Y-111793939D01*
X102176397Y-111789325D01*
X102176396Y-111789324D01*
X102176393Y-111789323D01*
X102156336Y-111775921D01*
X102139279Y-111758864D01*
X102125877Y-111738807D01*
X102116646Y-111716520D01*
X102111940Y-111692861D01*
X102111940Y-111668739D01*
X102116646Y-111645080D01*
X102125877Y-111622793D01*
X102139279Y-111602736D01*
X102156336Y-111585679D01*
X102176393Y-111572277D01*
X102176396Y-111572276D01*
X102176397Y-111572275D01*
X102187537Y-111567661D01*
X102198680Y-111563046D01*
X102222339Y-111558340D01*
X102246461Y-111558340D01*
X102270120Y-111563046D01*
G37*
G36*
X118590200Y-111658200D02*
G01*
X118279400Y-111658200D01*
X118279400Y-110927400D01*
X118590200Y-110927400D01*
X118590200Y-111658200D01*
G37*
G36*
X117590200Y-111658200D02*
G01*
X117279400Y-111658200D01*
X117279400Y-110927400D01*
X117590200Y-110927400D01*
X117590200Y-111658200D01*
G37*
G36*
X117090200Y-111658200D02*
G01*
X116779400Y-111658200D01*
X116779400Y-110927400D01*
X117090200Y-110927400D01*
X117090200Y-111658200D01*
G37*
G36*
X116590200Y-111658200D02*
G01*
X116279400Y-111658200D01*
X116279400Y-110927400D01*
X116590200Y-110927400D01*
X116590200Y-111658200D01*
G37*
G36*
X116090200Y-111658200D02*
G01*
X115779400Y-111658200D01*
X115779400Y-110927400D01*
X116090200Y-110927400D01*
X116090200Y-111658200D01*
G37*
G36*
X119090200Y-111658200D02*
G01*
X118779400Y-111658200D01*
X118779400Y-110927400D01*
X119090200Y-110927400D01*
X119090200Y-111658200D01*
G37*
G36*
X119590200Y-111658200D02*
G01*
X119279400Y-111658200D01*
X119279400Y-110927400D01*
X119590200Y-110927400D01*
X119590200Y-111658200D01*
G37*
G36*
X118090200Y-111658200D02*
G01*
X117779400Y-111658200D01*
X117779400Y-110927400D01*
X118090200Y-110927400D01*
X118090200Y-111658200D01*
G37*
G36*
X103650400Y-100525400D02*
G01*
X103149600Y-100525400D01*
X103149600Y-98974600D01*
X103650400Y-98974600D01*
X103650400Y-100525400D01*
G37*
G36*
X107403254Y-99494791D02*
G01*
X107498868Y-99534395D01*
X107533291Y-99557396D01*
X107584923Y-99591895D01*
X107658105Y-99665077D01*
X107692604Y-99716709D01*
X107715605Y-99751132D01*
X107755209Y-99846746D01*
X107775400Y-99948252D01*
X107775400Y-100051748D01*
X107755209Y-100153254D01*
X107715605Y-100248868D01*
X107692604Y-100283291D01*
X107658105Y-100334923D01*
X107584923Y-100408105D01*
X107533291Y-100442604D01*
X107498868Y-100465605D01*
X107403254Y-100505209D01*
X107301748Y-100525400D01*
X107198252Y-100525400D01*
X107096746Y-100505209D01*
X107001132Y-100465605D01*
X106966709Y-100442604D01*
X106915077Y-100408105D01*
X106841895Y-100334923D01*
X106807396Y-100283291D01*
X106784395Y-100248868D01*
X106744791Y-100153254D01*
X106724600Y-100051748D01*
X106724600Y-99948252D01*
X106744791Y-99846746D01*
X106784395Y-99751132D01*
X106807396Y-99716709D01*
X106841895Y-99665077D01*
X106915077Y-99591895D01*
X106966709Y-99557396D01*
X107001132Y-99534395D01*
X107096746Y-99494791D01*
X107198252Y-99474600D01*
X107301748Y-99474600D01*
X107403254Y-99494791D01*
G37*
G36*
X104350400Y-100525400D02*
G01*
X103849600Y-100525400D01*
X103849600Y-98974600D01*
X104350400Y-98974600D01*
X104350400Y-100525400D01*
G37*
G36*
X100403254Y-99494791D02*
G01*
X100498868Y-99534395D01*
X100533291Y-99557396D01*
X100584923Y-99591895D01*
X100658105Y-99665077D01*
X100692604Y-99716709D01*
X100715605Y-99751132D01*
X100755209Y-99846746D01*
X100775400Y-99948252D01*
X100775400Y-100051748D01*
X100755209Y-100153254D01*
X100715605Y-100248868D01*
X100692604Y-100283291D01*
X100658105Y-100334923D01*
X100584923Y-100408105D01*
X100533291Y-100442604D01*
X100498868Y-100465605D01*
X100403254Y-100505209D01*
X100301748Y-100525400D01*
X100198252Y-100525400D01*
X100096746Y-100505209D01*
X100001132Y-100465605D01*
X99966709Y-100442604D01*
X99915077Y-100408105D01*
X99841895Y-100334923D01*
X99807396Y-100283291D01*
X99784395Y-100248868D01*
X99744791Y-100153254D01*
X99724600Y-100051748D01*
X99724600Y-99948252D01*
X99744791Y-99846746D01*
X99784395Y-99751132D01*
X99807396Y-99716709D01*
X99841895Y-99665077D01*
X99915077Y-99591895D01*
X99966709Y-99557396D01*
X100001132Y-99534395D01*
X100096746Y-99494791D01*
X100198252Y-99474600D01*
X100301748Y-99474600D01*
X100403254Y-99494791D01*
G37*
G36*
X103941629Y-95519663D02*
G01*
X103982821Y-95532159D01*
X104020777Y-95552447D01*
X104054048Y-95579752D01*
X104081353Y-95613023D01*
X104101641Y-95650979D01*
X104114137Y-95692171D01*
X104118600Y-95737491D01*
X104118600Y-96663709D01*
X104114137Y-96709029D01*
X104101641Y-96750221D01*
X104081353Y-96788177D01*
X104054048Y-96821448D01*
X104020777Y-96848753D01*
X103982821Y-96869041D01*
X103941629Y-96881537D01*
X103896309Y-96886000D01*
X103360091Y-96886000D01*
X103314771Y-96881537D01*
X103273579Y-96869041D01*
X103235623Y-96848753D01*
X103202352Y-96821448D01*
X103175047Y-96788177D01*
X103154759Y-96750221D01*
X103142263Y-96709029D01*
X103137800Y-96663709D01*
X103137800Y-95737491D01*
X103142263Y-95692171D01*
X103154759Y-95650979D01*
X103175047Y-95613023D01*
X103202352Y-95579752D01*
X103235623Y-95552447D01*
X103273579Y-95532159D01*
X103314771Y-95519663D01*
X103360091Y-95515200D01*
X103896309Y-95515200D01*
X103941629Y-95519663D01*
G37*
G36*
X105581629Y-95519663D02*
G01*
X105622821Y-95532159D01*
X105660777Y-95552447D01*
X105694048Y-95579752D01*
X105721353Y-95613023D01*
X105741641Y-95650979D01*
X105754137Y-95692171D01*
X105758600Y-95737491D01*
X105758600Y-96663709D01*
X105754137Y-96709029D01*
X105741641Y-96750221D01*
X105721353Y-96788177D01*
X105694048Y-96821448D01*
X105660777Y-96848753D01*
X105622821Y-96869041D01*
X105581629Y-96881537D01*
X105536309Y-96886000D01*
X105000091Y-96886000D01*
X104954771Y-96881537D01*
X104913579Y-96869041D01*
X104875623Y-96848753D01*
X104842352Y-96821448D01*
X104815047Y-96788177D01*
X104794759Y-96750221D01*
X104782263Y-96709029D01*
X104777800Y-96663709D01*
X104777800Y-95737491D01*
X104782263Y-95692171D01*
X104794759Y-95650979D01*
X104815047Y-95613023D01*
X104842352Y-95579752D01*
X104875623Y-95552447D01*
X104913579Y-95532159D01*
X104954771Y-95519663D01*
X105000091Y-95515200D01*
X105536309Y-95515200D01*
X105581629Y-95519663D01*
G37*
G36*
X102196400Y-96846200D02*
G01*
X101605600Y-96846200D01*
X101605600Y-95735400D01*
X102196400Y-95735400D01*
X102196400Y-96846200D01*
G37*
G36*
X103417078Y-94373271D02*
G01*
X103456392Y-94385197D01*
X103492623Y-94404563D01*
X103524377Y-94430623D01*
X103550437Y-94462377D01*
X103569803Y-94498608D01*
X103581729Y-94537922D01*
X103586000Y-94581291D01*
X103586000Y-95127509D01*
X103581729Y-95170878D01*
X103569803Y-95210192D01*
X103550437Y-95246423D01*
X103524377Y-95278177D01*
X103492623Y-95304237D01*
X103456392Y-95323603D01*
X103417078Y-95335529D01*
X103373709Y-95339800D01*
X102857491Y-95339800D01*
X102814122Y-95335529D01*
X102774808Y-95323603D01*
X102738577Y-95304237D01*
X102706823Y-95278177D01*
X102680763Y-95246423D01*
X102661397Y-95210192D01*
X102649471Y-95170878D01*
X102645200Y-95127509D01*
X102645200Y-94581291D01*
X102649471Y-94537922D01*
X102661397Y-94498608D01*
X102680763Y-94462377D01*
X102706823Y-94430623D01*
X102738577Y-94404563D01*
X102774808Y-94385197D01*
X102814122Y-94373271D01*
X102857491Y-94369000D01*
X103373709Y-94369000D01*
X103417078Y-94373271D01*
G37*
G36*
X104747078Y-94373271D02*
G01*
X104786392Y-94385197D01*
X104822623Y-94404563D01*
X104854377Y-94430623D01*
X104880437Y-94462377D01*
X104899803Y-94498608D01*
X104911729Y-94537922D01*
X104916000Y-94581291D01*
X104916000Y-95127509D01*
X104911729Y-95170878D01*
X104899803Y-95210192D01*
X104880437Y-95246423D01*
X104854377Y-95278177D01*
X104822623Y-95304237D01*
X104786392Y-95323603D01*
X104747078Y-95335529D01*
X104703709Y-95339800D01*
X104187491Y-95339800D01*
X104144122Y-95335529D01*
X104104808Y-95323603D01*
X104068577Y-95304237D01*
X104036823Y-95278177D01*
X104010763Y-95246423D01*
X103991397Y-95210192D01*
X103979471Y-95170878D01*
X103975200Y-95127509D01*
X103975200Y-94581291D01*
X103979471Y-94537922D01*
X103991397Y-94498608D01*
X104010763Y-94462377D01*
X104036823Y-94430623D01*
X104068577Y-94404563D01*
X104104808Y-94385197D01*
X104144122Y-94373271D01*
X104187491Y-94369000D01*
X104703709Y-94369000D01*
X104747078Y-94373271D01*
G37*
G36*
X102196400Y-94786200D02*
G01*
X101605600Y-94786200D01*
X101605600Y-93675400D01*
X102196400Y-93675400D01*
X102196400Y-94786200D01*
G37*
G36*
X103352780Y-93254888D02*
G01*
X103388337Y-93265674D01*
X103421110Y-93283191D01*
X103449835Y-93306765D01*
X103473409Y-93335490D01*
X103490926Y-93368263D01*
X103501712Y-93403820D01*
X103505600Y-93443291D01*
X103505600Y-93979509D01*
X103501712Y-94018980D01*
X103490926Y-94054537D01*
X103473409Y-94087310D01*
X103449835Y-94116035D01*
X103421110Y-94139609D01*
X103388337Y-94157126D01*
X103352780Y-94167912D01*
X103313309Y-94171800D01*
X102837091Y-94171800D01*
X102797620Y-94167912D01*
X102762063Y-94157126D01*
X102729290Y-94139609D01*
X102700565Y-94116035D01*
X102676991Y-94087310D01*
X102659474Y-94054537D01*
X102648688Y-94018980D01*
X102644800Y-93979509D01*
X102644800Y-93443291D01*
X102648688Y-93403820D01*
X102659474Y-93368263D01*
X102676991Y-93335490D01*
X102700565Y-93306765D01*
X102729290Y-93283191D01*
X102762063Y-93265674D01*
X102797620Y-93254888D01*
X102837091Y-93251000D01*
X103313309Y-93251000D01*
X103352780Y-93254888D01*
G37*
G36*
X104712780Y-93254888D02*
G01*
X104748337Y-93265674D01*
X104781110Y-93283191D01*
X104809835Y-93306765D01*
X104833409Y-93335490D01*
X104850926Y-93368263D01*
X104861712Y-93403820D01*
X104865600Y-93443291D01*
X104865600Y-93979509D01*
X104861712Y-94018980D01*
X104850926Y-94054537D01*
X104833409Y-94087310D01*
X104809835Y-94116035D01*
X104781110Y-94139609D01*
X104748337Y-94157126D01*
X104712780Y-94167912D01*
X104673309Y-94171800D01*
X104197091Y-94171800D01*
X104157620Y-94167912D01*
X104122063Y-94157126D01*
X104089290Y-94139609D01*
X104060565Y-94116035D01*
X104036991Y-94087310D01*
X104019474Y-94054537D01*
X104008688Y-94018980D01*
X104004800Y-93979509D01*
X104004800Y-93443291D01*
X104008688Y-93403820D01*
X104019474Y-93368263D01*
X104036991Y-93335490D01*
X104060565Y-93306765D01*
X104089290Y-93283191D01*
X104122063Y-93265674D01*
X104157620Y-93254888D01*
X104197091Y-93251000D01*
X104673309Y-93251000D01*
X104712780Y-93254888D01*
G37*
M02*
