M48
; DRILL file {KiCad (5.1.6)-1} date 11/27/20 13:51:05
; FORMAT={-:-/ absolute / inch / decimal}
; #@! TF.CreationDate,2020-11-27T13:51:05-08:00
; #@! TF.GenerationSoftware,Kicad,Pcbnew,(5.1.6)-1
; #@! TF.FileFunction,Plated,1,6,PTH
FMAT,2
INCH
T1C0.0059
%
G90
G05
T1
X3.9049Y-4.5961
X3.9099Y-4.3171
X3.9129Y-4.9488
X3.9259Y-4.4191
X3.9281Y-4.3945
X3.9291Y-4.3685
X3.937Y-4.9297
X3.9389Y-4.5651
X3.9419Y-4.5354
X3.9519Y-4.8641
X3.9629Y-4.4741
X3.9729Y-4.917
X3.9729Y-4.9386
X3.9832Y-5.0335
X3.9833Y-4.5565
X3.9856Y-4.4559
X3.9856Y-4.515
X3.9891Y-4.3425
X3.9891Y-4.3685
X3.99Y-5.0754
X3.9949Y-4.9858
X3.9959Y-4.917
X4.0028Y-5.0084
X4.0031Y-4.9666
X4.0048Y-5.0555
X4.0049Y-3.7438
X4.0051Y-4.5574
X4.0053Y-4.4953
X4.0053Y-4.515
X4.0053Y-4.5347
X4.0089Y-3.8264
X4.0092Y-5.0975
X4.0119Y-3.9208
X4.0149Y-3.7218
X4.0149Y-4.8712
X4.0229Y-3.7698
X4.025Y-4.4166
X4.025Y-4.4953
X4.025Y-4.5347
X4.0251Y-4.3333
X4.0279Y-4.9491
X4.0299Y-4.9291
X4.0308Y-5.0975
X4.0319Y-4.9091
X4.0325Y-5.0475
X4.0339Y-3.9454
X4.0369Y-4.8711
X4.0389Y-4.5844
X4.0447Y-4.4166
X4.0447Y-4.4953
X4.0447Y-4.515
X4.0539Y-3.8614
X4.0609Y-4.5601
X4.0612Y-3.8284
X4.0643Y-4.4166
X4.0643Y-4.4953
X4.0643Y-4.515
X4.0659Y-4.3511
X4.073Y-3.7924
X4.0738Y-5.0965
X4.0759Y-3.9724
X4.0809Y-3.8284
X4.0829Y-4.5744
X4.0837Y-4.5557
X4.0839Y-4.3371
X4.084Y-4.3969
X4.084Y-4.4953
X4.084Y-4.515
X4.0867Y-4.5951
X4.0868Y-4.9698
X4.0919Y-3.9824
X4.0952Y-5.0965
X4.0995Y-4.5813
X4.1037Y-4.3969
X4.1037Y-4.4953
X4.1037Y-4.515
X4.1049Y-4.5524
X4.1119Y-3.8611
X4.1234Y-4.3969
X4.1234Y-4.4953
X4.1234Y-4.515
X4.1235Y-4.998
X4.133Y-4.9238
X4.1335Y-5.0465
X4.1389Y-3.9191
X4.1431Y-4.3969
X4.1431Y-4.4166
X4.1431Y-4.496
X4.1431Y-4.515
X4.1469Y-3.7148
X4.1477Y-3.7471
X4.1489Y-3.9636
X4.1489Y-3.9853
X4.1539Y-4.8828
X4.1542Y-5.0965
X4.1549Y-3.8443
X4.1549Y-3.9013
X4.1569Y-3.7934
X4.1628Y-4.3969
X4.1628Y-4.515
X4.1628Y-4.5347
X4.1634Y-3.7303
X4.1649Y-3.7048
X4.1729Y-4.9898
X4.1739Y-4.8808
X4.1749Y-4.9448
X4.1825Y-4.4166
X4.1825Y-4.4363
X4.1825Y-4.5347
X4.1934Y-4.8799
X4.2019Y-4.5791
X4.2069Y-4.3351
X4.213Y-5.0904
X4.2154Y-4.9684
X4.2199Y-4.9881
X4.2219Y-4.5861
X4.2226Y-4.4485
X4.2232Y-4.9045
X4.2239Y-4.9488
X4.2279Y-4.3351
X4.2289Y-4.5501
X4.2289Y-5.0078
X4.2314Y-5.0263
X4.2362Y-4.9331
X4.2448Y-4.9045
X4.2579Y-5.1066
X4.258Y-4.9324
X4.258Y-4.9674
X4.3049Y-4.8761
X4.308Y-4.9044
X4.3127Y-5.0984
X4.3226Y-5.0591
X4.3307Y-4.8764
X4.3319Y-5.1158
X4.3324Y-5.0197
X4.351Y-4.9014
X4.5259Y-4.5854
X4.5319Y-4.3564
X4.5413Y-4.4042
X4.5413Y-4.444
X4.5413Y-4.4834
X4.5413Y-4.5418
X4.5453Y-4.566
X4.5499Y-4.5918
X4.573Y-4.3456
X4.594Y-4.3456
X4.6049Y-4.5964
X4.6157Y-4.3454
X4.6369Y-4.5934
X4.6379Y-4.3464
X4.6403Y-4.4621
X4.6569Y-4.5944
X4.6599Y-4.3494
X4.6689Y-4.4244
X4.676Y-4.5944
X4.6819Y-4.3524
X4.706Y-4.5972
X4.7089Y-4.3501
X4.7179Y-4.5424
X4.726Y-4.5934
X4.7289Y-4.3321
X4.7319Y-4.4244
X4.7319Y-4.5711
X4.7339Y-4.3834
T0
M30
