G04 #@! TF.GenerationSoftware,KiCad,Pcbnew,(5.1.6)-1*
G04 #@! TF.CreationDate,2020-11-27T13:51:03-08:00*
G04 #@! TF.ProjectId,Miniscope-v4-Rigid-Flex,4d696e69-7363-46f7-9065-2d76342d5269,rev?*
G04 #@! TF.SameCoordinates,Original*
G04 #@! TF.FileFunction,Soldermask,Top*
G04 #@! TF.FilePolarity,Negative*
%FSLAX46Y46*%
G04 Gerber Fmt 4.6, Leading zero omitted, Abs format (unit mm)*
G04 Created by KiCad (PCBNEW (5.1.6)-1) date 2020-11-27 13:51:03*
%MOMM*%
%LPD*%
G01*
G04 APERTURE LIST*
%ADD10C,0.100000*%
G04 APERTURE END LIST*
D10*
G36*
X110164143Y-129213700D02*
G01*
X110208616Y-129227190D01*
X110249604Y-129249099D01*
X110285523Y-129278577D01*
X110315001Y-129314496D01*
X110336910Y-129355484D01*
X110350400Y-129399957D01*
X110355200Y-129448692D01*
X110355200Y-130069908D01*
X110350400Y-130118643D01*
X110336910Y-130163116D01*
X110315001Y-130204104D01*
X110285523Y-130240023D01*
X110249604Y-130269501D01*
X110208616Y-130291410D01*
X110164143Y-130304900D01*
X110115408Y-130309700D01*
X109544192Y-130309700D01*
X109495457Y-130304900D01*
X109450984Y-130291410D01*
X109409996Y-130269501D01*
X109374077Y-130240023D01*
X109344599Y-130204104D01*
X109322690Y-130163116D01*
X109309200Y-130118643D01*
X109304400Y-130069908D01*
X109304400Y-129448692D01*
X109309200Y-129399957D01*
X109322690Y-129355484D01*
X109344599Y-129314496D01*
X109374077Y-129278577D01*
X109409996Y-129249099D01*
X109450984Y-129227190D01*
X109495457Y-129213700D01*
X109544192Y-129208900D01*
X110115408Y-129208900D01*
X110164143Y-129213700D01*
G37*
G36*
X106190392Y-129866285D02*
G01*
X106202503Y-129869959D01*
X106213663Y-129875924D01*
X106223447Y-129883953D01*
X106231476Y-129893737D01*
X106237441Y-129904897D01*
X106241115Y-129917008D01*
X106242600Y-129932091D01*
X106242600Y-130188309D01*
X106241115Y-130203392D01*
X106237441Y-130215503D01*
X106231476Y-130226663D01*
X106223447Y-130236447D01*
X106213663Y-130244476D01*
X106202503Y-130250441D01*
X106190392Y-130254115D01*
X106175309Y-130255600D01*
X105949091Y-130255600D01*
X105934008Y-130254115D01*
X105921897Y-130250441D01*
X105910737Y-130244476D01*
X105900953Y-130236447D01*
X105892924Y-130226663D01*
X105886959Y-130215503D01*
X105883285Y-130203392D01*
X105881800Y-130188309D01*
X105881800Y-129932091D01*
X105883285Y-129917008D01*
X105886959Y-129904897D01*
X105892924Y-129893737D01*
X105900953Y-129883953D01*
X105910737Y-129875924D01*
X105921897Y-129869959D01*
X105934008Y-129866285D01*
X105949091Y-129864800D01*
X106175309Y-129864800D01*
X106190392Y-129866285D01*
G37*
G36*
X105640392Y-129866285D02*
G01*
X105652503Y-129869959D01*
X105663663Y-129875924D01*
X105673447Y-129883953D01*
X105681476Y-129893737D01*
X105687441Y-129904897D01*
X105691115Y-129917008D01*
X105692600Y-129932091D01*
X105692600Y-130188309D01*
X105691115Y-130203392D01*
X105687441Y-130215503D01*
X105681476Y-130226663D01*
X105673447Y-130236447D01*
X105663663Y-130244476D01*
X105652503Y-130250441D01*
X105640392Y-130254115D01*
X105625309Y-130255600D01*
X105399091Y-130255600D01*
X105384008Y-130254115D01*
X105371897Y-130250441D01*
X105360737Y-130244476D01*
X105350953Y-130236447D01*
X105342924Y-130226663D01*
X105336959Y-130215503D01*
X105333285Y-130203392D01*
X105331800Y-130188309D01*
X105331800Y-129932091D01*
X105333285Y-129917008D01*
X105336959Y-129904897D01*
X105342924Y-129893737D01*
X105350953Y-129883953D01*
X105360737Y-129875924D01*
X105371897Y-129869959D01*
X105384008Y-129866285D01*
X105399091Y-129864800D01*
X105625309Y-129864800D01*
X105640392Y-129866285D01*
G37*
G36*
X102951792Y-129863485D02*
G01*
X102963903Y-129867159D01*
X102975063Y-129873124D01*
X102984847Y-129881153D01*
X102992876Y-129890937D01*
X102998841Y-129902097D01*
X103002515Y-129914208D01*
X103004000Y-129929291D01*
X103004000Y-130185509D01*
X103002515Y-130200592D01*
X102998841Y-130212703D01*
X102992876Y-130223863D01*
X102984847Y-130233647D01*
X102975063Y-130241676D01*
X102963903Y-130247641D01*
X102951792Y-130251315D01*
X102936709Y-130252800D01*
X102710491Y-130252800D01*
X102695408Y-130251315D01*
X102683297Y-130247641D01*
X102672137Y-130241676D01*
X102662353Y-130233647D01*
X102654324Y-130223863D01*
X102648359Y-130212703D01*
X102644685Y-130200592D01*
X102643200Y-130185509D01*
X102643200Y-129929291D01*
X102644685Y-129914208D01*
X102648359Y-129902097D01*
X102654324Y-129890937D01*
X102662353Y-129881153D01*
X102672137Y-129873124D01*
X102683297Y-129867159D01*
X102695408Y-129863485D01*
X102710491Y-129862000D01*
X102936709Y-129862000D01*
X102951792Y-129863485D01*
G37*
G36*
X104593992Y-129863485D02*
G01*
X104606103Y-129867159D01*
X104617263Y-129873124D01*
X104627047Y-129881153D01*
X104635076Y-129890937D01*
X104641041Y-129902097D01*
X104644715Y-129914208D01*
X104646200Y-129929291D01*
X104646200Y-130185509D01*
X104644715Y-130200592D01*
X104641041Y-130212703D01*
X104635076Y-130223863D01*
X104627047Y-130233647D01*
X104617263Y-130241676D01*
X104606103Y-130247641D01*
X104593992Y-130251315D01*
X104578909Y-130252800D01*
X104352691Y-130252800D01*
X104337608Y-130251315D01*
X104325497Y-130247641D01*
X104314337Y-130241676D01*
X104304553Y-130233647D01*
X104296524Y-130223863D01*
X104290559Y-130212703D01*
X104286885Y-130200592D01*
X104285400Y-130185509D01*
X104285400Y-129929291D01*
X104286885Y-129914208D01*
X104290559Y-129902097D01*
X104296524Y-129890937D01*
X104304553Y-129881153D01*
X104314337Y-129873124D01*
X104325497Y-129867159D01*
X104337608Y-129863485D01*
X104352691Y-129862000D01*
X104578909Y-129862000D01*
X104593992Y-129863485D01*
G37*
G36*
X103501792Y-129863485D02*
G01*
X103513903Y-129867159D01*
X103525063Y-129873124D01*
X103534847Y-129881153D01*
X103542876Y-129890937D01*
X103548841Y-129902097D01*
X103552515Y-129914208D01*
X103554000Y-129929291D01*
X103554000Y-130185509D01*
X103552515Y-130200592D01*
X103548841Y-130212703D01*
X103542876Y-130223863D01*
X103534847Y-130233647D01*
X103525063Y-130241676D01*
X103513903Y-130247641D01*
X103501792Y-130251315D01*
X103486709Y-130252800D01*
X103260491Y-130252800D01*
X103245408Y-130251315D01*
X103233297Y-130247641D01*
X103222137Y-130241676D01*
X103212353Y-130233647D01*
X103204324Y-130223863D01*
X103198359Y-130212703D01*
X103194685Y-130200592D01*
X103193200Y-130185509D01*
X103193200Y-129929291D01*
X103194685Y-129914208D01*
X103198359Y-129902097D01*
X103204324Y-129890937D01*
X103212353Y-129881153D01*
X103222137Y-129873124D01*
X103233297Y-129867159D01*
X103245408Y-129863485D01*
X103260491Y-129862000D01*
X103486709Y-129862000D01*
X103501792Y-129863485D01*
G37*
G36*
X104043992Y-129863485D02*
G01*
X104056103Y-129867159D01*
X104067263Y-129873124D01*
X104077047Y-129881153D01*
X104085076Y-129890937D01*
X104091041Y-129902097D01*
X104094715Y-129914208D01*
X104096200Y-129929291D01*
X104096200Y-130185509D01*
X104094715Y-130200592D01*
X104091041Y-130212703D01*
X104085076Y-130223863D01*
X104077047Y-130233647D01*
X104067263Y-130241676D01*
X104056103Y-130247641D01*
X104043992Y-130251315D01*
X104028909Y-130252800D01*
X103802691Y-130252800D01*
X103787608Y-130251315D01*
X103775497Y-130247641D01*
X103764337Y-130241676D01*
X103754553Y-130233647D01*
X103746524Y-130223863D01*
X103740559Y-130212703D01*
X103736885Y-130200592D01*
X103735400Y-130185509D01*
X103735400Y-129929291D01*
X103736885Y-129914208D01*
X103740559Y-129902097D01*
X103746524Y-129890937D01*
X103754553Y-129881153D01*
X103764337Y-129873124D01*
X103775497Y-129867159D01*
X103787608Y-129863485D01*
X103802691Y-129862000D01*
X104028909Y-129862000D01*
X104043992Y-129863485D01*
G37*
G36*
X103642200Y-129648800D02*
G01*
X103331400Y-129648800D01*
X103331400Y-128918000D01*
X103642200Y-128918000D01*
X103642200Y-129648800D01*
G37*
G36*
X106642200Y-129648800D02*
G01*
X106331400Y-129648800D01*
X106331400Y-128918000D01*
X106642200Y-128918000D01*
X106642200Y-129648800D01*
G37*
G36*
X106142200Y-129648800D02*
G01*
X105831400Y-129648800D01*
X105831400Y-128918000D01*
X106142200Y-128918000D01*
X106142200Y-129648800D01*
G37*
G36*
X105642200Y-129648800D02*
G01*
X105331400Y-129648800D01*
X105331400Y-128918000D01*
X105642200Y-128918000D01*
X105642200Y-129648800D01*
G37*
G36*
X105142200Y-129648800D02*
G01*
X104831400Y-129648800D01*
X104831400Y-128918000D01*
X105142200Y-128918000D01*
X105142200Y-129648800D01*
G37*
G36*
X104642200Y-129648800D02*
G01*
X104331400Y-129648800D01*
X104331400Y-128918000D01*
X104642200Y-128918000D01*
X104642200Y-129648800D01*
G37*
G36*
X104142200Y-129648800D02*
G01*
X103831400Y-129648800D01*
X103831400Y-128918000D01*
X104142200Y-128918000D01*
X104142200Y-129648800D01*
G37*
G36*
X103142200Y-129648800D02*
G01*
X102831400Y-129648800D01*
X102831400Y-128918000D01*
X103142200Y-128918000D01*
X103142200Y-129648800D01*
G37*
G36*
X111654082Y-127136440D02*
G01*
X111700901Y-127150643D01*
X111744048Y-127173705D01*
X111781862Y-127204738D01*
X111812895Y-127242552D01*
X111835957Y-127285699D01*
X111850160Y-127332518D01*
X111855200Y-127383692D01*
X111855200Y-129129908D01*
X111850160Y-129181082D01*
X111835957Y-129227901D01*
X111812895Y-129271048D01*
X111781862Y-129308862D01*
X111744048Y-129339895D01*
X111700901Y-129362957D01*
X111654082Y-129377160D01*
X111602908Y-129382200D01*
X111006692Y-129382200D01*
X110955518Y-129377160D01*
X110908699Y-129362957D01*
X110865552Y-129339895D01*
X110827738Y-129308862D01*
X110796705Y-129271048D01*
X110773643Y-129227901D01*
X110759440Y-129181082D01*
X110754400Y-129129908D01*
X110754400Y-127383692D01*
X110759440Y-127332518D01*
X110773643Y-127285699D01*
X110796705Y-127242552D01*
X110827738Y-127204738D01*
X110865552Y-127173705D01*
X110908699Y-127150643D01*
X110955518Y-127136440D01*
X111006692Y-127131400D01*
X111602908Y-127131400D01*
X111654082Y-127136440D01*
G37*
G36*
X108704082Y-127136440D02*
G01*
X108750901Y-127150643D01*
X108794048Y-127173705D01*
X108831862Y-127204738D01*
X108862895Y-127242552D01*
X108885957Y-127285699D01*
X108900160Y-127332518D01*
X108905200Y-127383692D01*
X108905200Y-129129908D01*
X108900160Y-129181082D01*
X108885957Y-129227901D01*
X108862895Y-129271048D01*
X108831862Y-129308862D01*
X108794048Y-129339895D01*
X108750901Y-129362957D01*
X108704082Y-129377160D01*
X108652908Y-129382200D01*
X108056692Y-129382200D01*
X108005518Y-129377160D01*
X107958699Y-129362957D01*
X107915552Y-129339895D01*
X107877738Y-129308862D01*
X107846705Y-129271048D01*
X107823643Y-129227901D01*
X107809440Y-129181082D01*
X107804400Y-129129908D01*
X107804400Y-127383692D01*
X107809440Y-127332518D01*
X107823643Y-127285699D01*
X107846705Y-127242552D01*
X107877738Y-127204738D01*
X107915552Y-127173705D01*
X107958699Y-127150643D01*
X108005518Y-127136440D01*
X108056692Y-127131400D01*
X108652908Y-127131400D01*
X108704082Y-127136440D01*
G37*
G36*
X107437200Y-128853800D02*
G01*
X106706400Y-128853800D01*
X106706400Y-128543000D01*
X107437200Y-128543000D01*
X107437200Y-128853800D01*
G37*
G36*
X102767200Y-128853800D02*
G01*
X102036400Y-128853800D01*
X102036400Y-128543000D01*
X102767200Y-128543000D01*
X102767200Y-128853800D01*
G37*
G36*
X106312200Y-128523800D02*
G01*
X103161400Y-128523800D01*
X103161400Y-125373000D01*
X106312200Y-125373000D01*
X106312200Y-128523800D01*
G37*
G36*
X107437200Y-128353800D02*
G01*
X106706400Y-128353800D01*
X106706400Y-128043000D01*
X107437200Y-128043000D01*
X107437200Y-128353800D01*
G37*
G36*
X102767200Y-128353800D02*
G01*
X102036400Y-128353800D01*
X102036400Y-128043000D01*
X102767200Y-128043000D01*
X102767200Y-128353800D01*
G37*
G36*
X107437200Y-127853800D02*
G01*
X106706400Y-127853800D01*
X106706400Y-127543000D01*
X107437200Y-127543000D01*
X107437200Y-127853800D01*
G37*
G36*
X102767200Y-127853800D02*
G01*
X102036400Y-127853800D01*
X102036400Y-127543000D01*
X102767200Y-127543000D01*
X102767200Y-127853800D01*
G37*
G36*
X107437200Y-127353800D02*
G01*
X106706400Y-127353800D01*
X106706400Y-127043000D01*
X107437200Y-127043000D01*
X107437200Y-127353800D01*
G37*
G36*
X102767200Y-127353800D02*
G01*
X102036400Y-127353800D01*
X102036400Y-127043000D01*
X102767200Y-127043000D01*
X102767200Y-127353800D01*
G37*
G36*
X102767200Y-126853800D02*
G01*
X102036400Y-126853800D01*
X102036400Y-126543000D01*
X102767200Y-126543000D01*
X102767200Y-126853800D01*
G37*
G36*
X107437200Y-126853800D02*
G01*
X106706400Y-126853800D01*
X106706400Y-126543000D01*
X107437200Y-126543000D01*
X107437200Y-126853800D01*
G37*
G36*
X110952800Y-126662000D02*
G01*
X108402000Y-126662000D01*
X108402000Y-124111200D01*
X110952800Y-124111200D01*
X110952800Y-126662000D01*
G37*
G36*
X100081499Y-125911735D02*
G01*
X100132346Y-125932796D01*
X100178109Y-125963374D01*
X100217024Y-126002289D01*
X100247602Y-126048052D01*
X100268663Y-126098899D01*
X100279400Y-126152879D01*
X100279400Y-126207917D01*
X100268663Y-126261897D01*
X100247602Y-126312744D01*
X100217024Y-126358507D01*
X100178109Y-126397422D01*
X100132346Y-126428000D01*
X100081499Y-126449061D01*
X100027519Y-126459798D01*
X99972481Y-126459798D01*
X99918501Y-126449061D01*
X99867654Y-126428000D01*
X99821891Y-126397422D01*
X99782976Y-126358507D01*
X99752398Y-126312744D01*
X99731337Y-126261897D01*
X99720600Y-126207917D01*
X99720600Y-126152879D01*
X99731337Y-126098899D01*
X99752398Y-126048052D01*
X99782976Y-126002289D01*
X99821891Y-125963374D01*
X99867654Y-125932796D01*
X99918501Y-125911735D01*
X99972481Y-125900998D01*
X100027519Y-125900998D01*
X100081499Y-125911735D01*
G37*
G36*
X102767200Y-126353800D02*
G01*
X102036400Y-126353800D01*
X102036400Y-126043000D01*
X102767200Y-126043000D01*
X102767200Y-126353800D01*
G37*
G36*
X107437200Y-126353800D02*
G01*
X106706400Y-126353800D01*
X106706400Y-126043000D01*
X107437200Y-126043000D01*
X107437200Y-126353800D01*
G37*
G36*
X99471899Y-125429135D02*
G01*
X99522746Y-125450196D01*
X99568509Y-125480774D01*
X99607424Y-125519689D01*
X99638002Y-125565452D01*
X99659063Y-125616299D01*
X99669800Y-125670279D01*
X99669800Y-125725317D01*
X99659063Y-125779297D01*
X99638002Y-125830144D01*
X99607424Y-125875907D01*
X99568509Y-125914822D01*
X99522746Y-125945400D01*
X99471899Y-125966461D01*
X99417919Y-125977198D01*
X99362881Y-125977198D01*
X99308901Y-125966461D01*
X99258054Y-125945400D01*
X99212291Y-125914822D01*
X99173376Y-125875907D01*
X99142798Y-125830144D01*
X99121737Y-125779297D01*
X99111000Y-125725317D01*
X99111000Y-125670279D01*
X99121737Y-125616299D01*
X99142798Y-125565452D01*
X99173376Y-125519689D01*
X99212291Y-125480774D01*
X99258054Y-125450196D01*
X99308901Y-125429135D01*
X99362881Y-125418398D01*
X99417919Y-125418398D01*
X99471899Y-125429135D01*
G37*
G36*
X107437200Y-125853800D02*
G01*
X106706400Y-125853800D01*
X106706400Y-125543000D01*
X107437200Y-125543000D01*
X107437200Y-125853800D01*
G37*
G36*
X102767200Y-125853800D02*
G01*
X102036400Y-125853800D01*
X102036400Y-125543000D01*
X102767200Y-125543000D01*
X102767200Y-125853800D01*
G37*
G36*
X100081499Y-124946536D02*
G01*
X100132346Y-124967597D01*
X100178109Y-124998175D01*
X100217024Y-125037090D01*
X100247602Y-125082853D01*
X100268663Y-125133700D01*
X100279400Y-125187680D01*
X100279400Y-125242718D01*
X100268663Y-125296698D01*
X100247602Y-125347545D01*
X100217024Y-125393308D01*
X100178109Y-125432223D01*
X100132346Y-125462801D01*
X100081499Y-125483862D01*
X100027519Y-125494599D01*
X99972481Y-125494599D01*
X99918501Y-125483862D01*
X99867654Y-125462801D01*
X99821891Y-125432223D01*
X99782976Y-125393308D01*
X99752398Y-125347545D01*
X99731337Y-125296698D01*
X99720600Y-125242718D01*
X99720600Y-125187680D01*
X99731337Y-125133700D01*
X99752398Y-125082853D01*
X99782976Y-125037090D01*
X99821891Y-124998175D01*
X99867654Y-124967597D01*
X99918501Y-124946536D01*
X99972481Y-124935799D01*
X100027519Y-124935799D01*
X100081499Y-124946536D01*
G37*
G36*
X107437200Y-125353800D02*
G01*
X106706400Y-125353800D01*
X106706400Y-125043000D01*
X107437200Y-125043000D01*
X107437200Y-125353800D01*
G37*
G36*
X102767200Y-125353800D02*
G01*
X102036400Y-125353800D01*
X102036400Y-125043000D01*
X102767200Y-125043000D01*
X102767200Y-125353800D01*
G37*
G36*
X99471899Y-124463936D02*
G01*
X99522746Y-124484997D01*
X99568509Y-124515575D01*
X99607424Y-124554490D01*
X99638002Y-124600253D01*
X99659063Y-124651100D01*
X99669800Y-124705080D01*
X99669800Y-124760118D01*
X99659063Y-124814098D01*
X99638002Y-124864945D01*
X99607424Y-124910708D01*
X99568509Y-124949623D01*
X99522746Y-124980201D01*
X99471899Y-125001262D01*
X99417919Y-125011999D01*
X99362881Y-125011999D01*
X99308901Y-125001262D01*
X99258054Y-124980201D01*
X99212291Y-124949623D01*
X99173376Y-124910708D01*
X99142798Y-124864945D01*
X99121737Y-124814098D01*
X99111000Y-124760118D01*
X99111000Y-124705080D01*
X99121737Y-124651100D01*
X99142798Y-124600253D01*
X99173376Y-124554490D01*
X99212291Y-124515575D01*
X99258054Y-124484997D01*
X99308901Y-124463936D01*
X99362881Y-124453199D01*
X99417919Y-124453199D01*
X99471899Y-124463936D01*
G37*
G36*
X106142200Y-124978800D02*
G01*
X105831400Y-124978800D01*
X105831400Y-124248000D01*
X106142200Y-124248000D01*
X106142200Y-124978800D01*
G37*
G36*
X105142200Y-124978800D02*
G01*
X104831400Y-124978800D01*
X104831400Y-124248000D01*
X105142200Y-124248000D01*
X105142200Y-124978800D01*
G37*
G36*
X104642200Y-124978800D02*
G01*
X104331400Y-124978800D01*
X104331400Y-124248000D01*
X104642200Y-124248000D01*
X104642200Y-124978800D01*
G37*
G36*
X104142200Y-124978800D02*
G01*
X103831400Y-124978800D01*
X103831400Y-124248000D01*
X104142200Y-124248000D01*
X104142200Y-124978800D01*
G37*
G36*
X103642200Y-124978800D02*
G01*
X103331400Y-124978800D01*
X103331400Y-124248000D01*
X103642200Y-124248000D01*
X103642200Y-124978800D01*
G37*
G36*
X103142200Y-124978800D02*
G01*
X102831400Y-124978800D01*
X102831400Y-124248000D01*
X103142200Y-124248000D01*
X103142200Y-124978800D01*
G37*
G36*
X105642200Y-124978800D02*
G01*
X105331400Y-124978800D01*
X105331400Y-124248000D01*
X105642200Y-124248000D01*
X105642200Y-124978800D01*
G37*
G36*
X106642200Y-124978800D02*
G01*
X106331400Y-124978800D01*
X106331400Y-124248000D01*
X106642200Y-124248000D01*
X106642200Y-124978800D01*
G37*
G36*
X100081499Y-123981337D02*
G01*
X100132346Y-124002398D01*
X100178109Y-124032976D01*
X100217024Y-124071891D01*
X100247602Y-124117654D01*
X100268663Y-124168501D01*
X100279400Y-124222481D01*
X100279400Y-124277519D01*
X100268663Y-124331499D01*
X100247602Y-124382346D01*
X100217024Y-124428109D01*
X100178109Y-124467024D01*
X100132346Y-124497602D01*
X100081499Y-124518663D01*
X100027519Y-124529400D01*
X99972481Y-124529400D01*
X99918501Y-124518663D01*
X99867654Y-124497602D01*
X99821891Y-124467024D01*
X99782976Y-124428109D01*
X99752398Y-124382346D01*
X99731337Y-124331499D01*
X99720600Y-124277519D01*
X99720600Y-124222481D01*
X99731337Y-124168501D01*
X99752398Y-124117654D01*
X99782976Y-124071891D01*
X99821891Y-124032976D01*
X99867654Y-124002398D01*
X99918501Y-123981337D01*
X99972481Y-123970600D01*
X100027519Y-123970600D01*
X100081499Y-123981337D01*
G37*
G36*
X105886576Y-117237566D02*
G01*
X105891366Y-117239019D01*
X105893574Y-117240199D01*
X105895780Y-117241378D01*
X105895782Y-117241379D01*
X105895781Y-117241379D01*
X105899648Y-117244552D01*
X105902821Y-117248419D01*
X105905181Y-117252834D01*
X105906634Y-117257624D01*
X105907369Y-117265090D01*
X105907369Y-117660110D01*
X105906634Y-117667576D01*
X105905181Y-117672366D01*
X105902821Y-117676781D01*
X105899648Y-117680648D01*
X105896127Y-117683537D01*
X105895780Y-117683822D01*
X105893573Y-117685001D01*
X105891366Y-117686181D01*
X105886576Y-117687634D01*
X105879110Y-117688369D01*
X105634090Y-117688369D01*
X105626624Y-117687634D01*
X105621834Y-117686181D01*
X105619627Y-117685001D01*
X105617420Y-117683822D01*
X105617073Y-117683537D01*
X105613552Y-117680648D01*
X105610379Y-117676781D01*
X105608019Y-117672366D01*
X105606566Y-117667576D01*
X105605831Y-117660110D01*
X105605831Y-117445090D01*
X105606566Y-117437624D01*
X105608019Y-117432834D01*
X105610379Y-117428419D01*
X105615148Y-117422608D01*
X105791608Y-117246148D01*
X105797419Y-117241379D01*
X105797418Y-117241379D01*
X105797420Y-117241378D01*
X105799627Y-117240199D01*
X105801834Y-117239019D01*
X105806624Y-117237566D01*
X105814090Y-117236831D01*
X105879110Y-117236831D01*
X105886576Y-117237566D01*
G37*
G36*
X105056576Y-117237566D02*
G01*
X105061366Y-117239019D01*
X105063574Y-117240199D01*
X105065780Y-117241378D01*
X105065782Y-117241379D01*
X105065781Y-117241379D01*
X105071592Y-117246148D01*
X105248052Y-117422608D01*
X105252821Y-117428419D01*
X105255181Y-117432834D01*
X105256634Y-117437624D01*
X105257369Y-117445090D01*
X105257369Y-117660110D01*
X105256634Y-117667576D01*
X105255181Y-117672366D01*
X105252821Y-117676781D01*
X105249648Y-117680648D01*
X105246127Y-117683537D01*
X105245780Y-117683822D01*
X105243573Y-117685001D01*
X105241366Y-117686181D01*
X105236576Y-117687634D01*
X105229110Y-117688369D01*
X104984090Y-117688369D01*
X104976624Y-117687634D01*
X104971834Y-117686181D01*
X104969627Y-117685001D01*
X104967420Y-117683822D01*
X104967073Y-117683537D01*
X104963552Y-117680648D01*
X104960379Y-117676781D01*
X104958019Y-117672366D01*
X104956566Y-117667576D01*
X104955831Y-117660110D01*
X104955831Y-117265090D01*
X104956566Y-117257624D01*
X104958019Y-117252834D01*
X104960379Y-117248419D01*
X104963552Y-117244552D01*
X104967419Y-117241379D01*
X104967418Y-117241379D01*
X104967420Y-117241378D01*
X104969627Y-117240199D01*
X104971834Y-117239019D01*
X104976624Y-117237566D01*
X104984090Y-117236831D01*
X105049110Y-117236831D01*
X105056576Y-117237566D01*
G37*
G36*
X104685792Y-117286485D02*
G01*
X104697903Y-117290159D01*
X104709063Y-117296124D01*
X104718847Y-117304153D01*
X104726876Y-117313937D01*
X104732841Y-117325097D01*
X104736515Y-117337208D01*
X104738000Y-117352291D01*
X104738000Y-117578509D01*
X104736515Y-117593592D01*
X104732841Y-117605703D01*
X104726876Y-117616863D01*
X104718847Y-117626647D01*
X104709063Y-117634676D01*
X104697903Y-117640641D01*
X104685792Y-117644315D01*
X104670709Y-117645800D01*
X104414491Y-117645800D01*
X104399408Y-117644315D01*
X104387297Y-117640641D01*
X104376137Y-117634676D01*
X104366353Y-117626647D01*
X104358324Y-117616863D01*
X104352359Y-117605703D01*
X104348685Y-117593592D01*
X104347200Y-117578509D01*
X104347200Y-117352291D01*
X104348685Y-117337208D01*
X104352359Y-117325097D01*
X104358324Y-117313937D01*
X104366353Y-117304153D01*
X104376137Y-117296124D01*
X104387297Y-117290159D01*
X104399408Y-117286485D01*
X104414491Y-117285000D01*
X104670709Y-117285000D01*
X104685792Y-117286485D01*
G37*
G36*
X105806933Y-117012600D02*
G01*
X105431600Y-117387933D01*
X105056267Y-117012600D01*
X105431600Y-116637267D01*
X105806933Y-117012600D01*
G37*
G36*
X116578992Y-116844085D02*
G01*
X116591103Y-116847759D01*
X116602263Y-116853724D01*
X116612047Y-116861753D01*
X116620076Y-116871537D01*
X116626041Y-116882697D01*
X116629715Y-116894808D01*
X116631200Y-116909891D01*
X116631200Y-117166109D01*
X116629715Y-117181192D01*
X116626041Y-117193303D01*
X116620076Y-117204463D01*
X116612047Y-117214247D01*
X116602263Y-117222276D01*
X116591103Y-117228241D01*
X116578992Y-117231915D01*
X116563909Y-117233400D01*
X116337691Y-117233400D01*
X116322608Y-117231915D01*
X116310497Y-117228241D01*
X116299337Y-117222276D01*
X116289553Y-117214247D01*
X116281524Y-117204463D01*
X116275559Y-117193303D01*
X116271885Y-117181192D01*
X116270400Y-117166109D01*
X116270400Y-116909891D01*
X116271885Y-116894808D01*
X116275559Y-116882697D01*
X116281524Y-116871537D01*
X116289553Y-116861753D01*
X116299337Y-116853724D01*
X116310497Y-116847759D01*
X116322608Y-116844085D01*
X116337691Y-116842600D01*
X116563909Y-116842600D01*
X116578992Y-116844085D01*
G37*
G36*
X116028992Y-116844085D02*
G01*
X116041103Y-116847759D01*
X116052263Y-116853724D01*
X116062047Y-116861753D01*
X116070076Y-116871537D01*
X116076041Y-116882697D01*
X116079715Y-116894808D01*
X116081200Y-116909891D01*
X116081200Y-117166109D01*
X116079715Y-117181192D01*
X116076041Y-117193303D01*
X116070076Y-117204463D01*
X116062047Y-117214247D01*
X116052263Y-117222276D01*
X116041103Y-117228241D01*
X116028992Y-117231915D01*
X116013909Y-117233400D01*
X115787691Y-117233400D01*
X115772608Y-117231915D01*
X115760497Y-117228241D01*
X115749337Y-117222276D01*
X115739553Y-117214247D01*
X115731524Y-117204463D01*
X115725559Y-117193303D01*
X115721885Y-117181192D01*
X115720400Y-117166109D01*
X115720400Y-116909891D01*
X115721885Y-116894808D01*
X115725559Y-116882697D01*
X115731524Y-116871537D01*
X115739553Y-116861753D01*
X115749337Y-116853724D01*
X115760497Y-116847759D01*
X115772608Y-116844085D01*
X115787691Y-116842600D01*
X116013909Y-116842600D01*
X116028992Y-116844085D01*
G37*
G36*
X115334392Y-116844085D02*
G01*
X115346503Y-116847759D01*
X115357663Y-116853724D01*
X115367447Y-116861753D01*
X115375476Y-116871537D01*
X115381441Y-116882697D01*
X115385115Y-116894808D01*
X115386600Y-116909891D01*
X115386600Y-117166109D01*
X115385115Y-117181192D01*
X115381441Y-117193303D01*
X115375476Y-117204463D01*
X115367447Y-117214247D01*
X115357663Y-117222276D01*
X115346503Y-117228241D01*
X115334392Y-117231915D01*
X115319309Y-117233400D01*
X115093091Y-117233400D01*
X115078008Y-117231915D01*
X115065897Y-117228241D01*
X115054737Y-117222276D01*
X115044953Y-117214247D01*
X115036924Y-117204463D01*
X115030959Y-117193303D01*
X115027285Y-117181192D01*
X115025800Y-117166109D01*
X115025800Y-116909891D01*
X115027285Y-116894808D01*
X115030959Y-116882697D01*
X115036924Y-116871537D01*
X115044953Y-116861753D01*
X115054737Y-116853724D01*
X115065897Y-116847759D01*
X115078008Y-116844085D01*
X115093091Y-116842600D01*
X115319309Y-116842600D01*
X115334392Y-116844085D01*
G37*
G36*
X114784392Y-116844085D02*
G01*
X114796503Y-116847759D01*
X114807663Y-116853724D01*
X114817447Y-116861753D01*
X114825476Y-116871537D01*
X114831441Y-116882697D01*
X114835115Y-116894808D01*
X114836600Y-116909891D01*
X114836600Y-117166109D01*
X114835115Y-117181192D01*
X114831441Y-117193303D01*
X114825476Y-117204463D01*
X114817447Y-117214247D01*
X114807663Y-117222276D01*
X114796503Y-117228241D01*
X114784392Y-117231915D01*
X114769309Y-117233400D01*
X114543091Y-117233400D01*
X114528008Y-117231915D01*
X114515897Y-117228241D01*
X114504737Y-117222276D01*
X114494953Y-117214247D01*
X114486924Y-117204463D01*
X114480959Y-117193303D01*
X114477285Y-117181192D01*
X114475800Y-117166109D01*
X114475800Y-116909891D01*
X114477285Y-116894808D01*
X114480959Y-116882697D01*
X114486924Y-116871537D01*
X114494953Y-116861753D01*
X114504737Y-116853724D01*
X114515897Y-116847759D01*
X114528008Y-116844085D01*
X114543091Y-116842600D01*
X114769309Y-116842600D01*
X114784392Y-116844085D01*
G37*
G36*
X104685792Y-116736485D02*
G01*
X104697903Y-116740159D01*
X104709063Y-116746124D01*
X104718847Y-116754153D01*
X104726876Y-116763937D01*
X104732841Y-116775097D01*
X104736515Y-116787208D01*
X104738000Y-116802291D01*
X104738000Y-117028509D01*
X104736515Y-117043592D01*
X104732841Y-117055703D01*
X104726876Y-117066863D01*
X104718847Y-117076647D01*
X104709063Y-117084676D01*
X104697903Y-117090641D01*
X104685792Y-117094315D01*
X104670709Y-117095800D01*
X104414491Y-117095800D01*
X104399408Y-117094315D01*
X104387297Y-117090641D01*
X104376137Y-117084676D01*
X104366353Y-117076647D01*
X104358324Y-117066863D01*
X104352359Y-117055703D01*
X104348685Y-117043592D01*
X104347200Y-117028509D01*
X104347200Y-116802291D01*
X104348685Y-116787208D01*
X104352359Y-116775097D01*
X104358324Y-116763937D01*
X104366353Y-116754153D01*
X104376137Y-116746124D01*
X104387297Y-116740159D01*
X104399408Y-116736485D01*
X104414491Y-116735000D01*
X104670709Y-116735000D01*
X104685792Y-116736485D01*
G37*
G36*
X105886576Y-116337566D02*
G01*
X105891366Y-116339019D01*
X105893574Y-116340199D01*
X105895780Y-116341378D01*
X105895782Y-116341379D01*
X105895781Y-116341379D01*
X105899648Y-116344552D01*
X105902821Y-116348419D01*
X105905181Y-116352834D01*
X105906634Y-116357624D01*
X105907369Y-116365090D01*
X105907369Y-116830110D01*
X105906634Y-116837576D01*
X105905181Y-116842366D01*
X105902821Y-116846781D01*
X105899648Y-116850648D01*
X105896127Y-116853537D01*
X105895780Y-116853822D01*
X105893574Y-116855001D01*
X105891366Y-116856181D01*
X105886576Y-116857634D01*
X105881600Y-116858124D01*
X105876624Y-116857634D01*
X105871834Y-116856181D01*
X105869626Y-116855001D01*
X105867420Y-116853822D01*
X105866929Y-116853419D01*
X105861608Y-116849052D01*
X105615148Y-116602592D01*
X105610379Y-116596781D01*
X105608019Y-116592366D01*
X105606566Y-116587576D01*
X105605831Y-116580110D01*
X105605831Y-116365090D01*
X105606566Y-116357624D01*
X105608019Y-116352834D01*
X105610379Y-116348419D01*
X105613552Y-116344552D01*
X105617419Y-116341379D01*
X105617418Y-116341379D01*
X105617420Y-116341378D01*
X105619626Y-116340199D01*
X105621834Y-116339019D01*
X105626624Y-116337566D01*
X105634090Y-116336831D01*
X105879110Y-116336831D01*
X105886576Y-116337566D01*
G37*
G36*
X105236576Y-116337566D02*
G01*
X105241366Y-116339019D01*
X105243574Y-116340199D01*
X105245780Y-116341378D01*
X105245782Y-116341379D01*
X105245781Y-116341379D01*
X105249648Y-116344552D01*
X105252821Y-116348419D01*
X105255181Y-116352834D01*
X105256634Y-116357624D01*
X105257369Y-116365090D01*
X105257369Y-116580110D01*
X105256634Y-116587576D01*
X105255181Y-116592366D01*
X105252821Y-116596781D01*
X105248052Y-116602592D01*
X105071592Y-116779052D01*
X105066271Y-116783419D01*
X105065780Y-116783822D01*
X105063574Y-116785001D01*
X105061366Y-116786181D01*
X105056576Y-116787634D01*
X105049110Y-116788369D01*
X104984090Y-116788369D01*
X104976624Y-116787634D01*
X104971834Y-116786181D01*
X104969626Y-116785001D01*
X104967420Y-116783822D01*
X104967073Y-116783537D01*
X104963552Y-116780648D01*
X104960379Y-116776781D01*
X104958019Y-116772366D01*
X104956566Y-116767576D01*
X104955831Y-116760110D01*
X104955831Y-116365090D01*
X104956566Y-116357624D01*
X104958019Y-116352834D01*
X104960379Y-116348419D01*
X104963552Y-116344552D01*
X104967419Y-116341379D01*
X104967418Y-116341379D01*
X104967420Y-116341378D01*
X104969626Y-116340199D01*
X104971834Y-116339019D01*
X104976624Y-116337566D01*
X104984090Y-116336831D01*
X105229110Y-116336831D01*
X105236576Y-116337566D01*
G37*
G36*
X108313478Y-115752471D02*
G01*
X108352792Y-115764397D01*
X108389023Y-115783763D01*
X108420777Y-115809823D01*
X108446837Y-115841577D01*
X108466203Y-115877808D01*
X108478129Y-115917122D01*
X108482400Y-115960491D01*
X108482400Y-116476709D01*
X108478129Y-116520078D01*
X108466203Y-116559392D01*
X108446837Y-116595623D01*
X108420777Y-116627377D01*
X108389023Y-116653437D01*
X108352792Y-116672803D01*
X108313478Y-116684729D01*
X108270109Y-116689000D01*
X107723891Y-116689000D01*
X107680522Y-116684729D01*
X107641208Y-116672803D01*
X107604977Y-116653437D01*
X107573223Y-116627377D01*
X107547163Y-116595623D01*
X107527797Y-116559392D01*
X107515871Y-116520078D01*
X107511600Y-116476709D01*
X107511600Y-115960491D01*
X107515871Y-115917122D01*
X107527797Y-115877808D01*
X107547163Y-115841577D01*
X107573223Y-115809823D01*
X107604977Y-115783763D01*
X107641208Y-115764397D01*
X107680522Y-115752471D01*
X107723891Y-115748200D01*
X108270109Y-115748200D01*
X108313478Y-115752471D01*
G37*
G36*
X115602600Y-116339000D02*
G01*
X115297800Y-116339000D01*
X115297800Y-115613200D01*
X115602600Y-115613200D01*
X115602600Y-116339000D01*
G37*
G36*
X116602600Y-116339000D02*
G01*
X116297800Y-116339000D01*
X116297800Y-115613200D01*
X116602600Y-115613200D01*
X116602600Y-116339000D01*
G37*
G36*
X117102600Y-116339000D02*
G01*
X116797800Y-116339000D01*
X116797800Y-115613200D01*
X117102600Y-115613200D01*
X117102600Y-116339000D01*
G37*
G36*
X116102600Y-116339000D02*
G01*
X115797800Y-116339000D01*
X115797800Y-115613200D01*
X116102600Y-115613200D01*
X116102600Y-116339000D01*
G37*
G36*
X120200074Y-115699498D02*
G01*
X120254524Y-115722052D01*
X120303529Y-115754796D01*
X120345204Y-115796471D01*
X120377948Y-115845476D01*
X120400502Y-115899926D01*
X120412000Y-115957731D01*
X120412000Y-116016669D01*
X120400502Y-116074474D01*
X120377948Y-116128924D01*
X120345204Y-116177929D01*
X120303529Y-116219604D01*
X120254524Y-116252348D01*
X120200074Y-116274902D01*
X120142269Y-116286400D01*
X120083331Y-116286400D01*
X120025526Y-116274902D01*
X119971076Y-116252348D01*
X119922071Y-116219604D01*
X119880396Y-116177929D01*
X119847652Y-116128924D01*
X119825098Y-116074474D01*
X119813600Y-116016669D01*
X119813600Y-115957731D01*
X119825098Y-115899926D01*
X119847652Y-115845476D01*
X119880396Y-115796471D01*
X119922071Y-115754796D01*
X119971076Y-115722052D01*
X120025526Y-115699498D01*
X120083331Y-115688000D01*
X120142269Y-115688000D01*
X120200074Y-115699498D01*
G37*
G36*
X118930074Y-115699498D02*
G01*
X118984524Y-115722052D01*
X119033529Y-115754796D01*
X119075204Y-115796471D01*
X119107948Y-115845476D01*
X119130502Y-115899926D01*
X119142000Y-115957731D01*
X119142000Y-116016669D01*
X119130502Y-116074474D01*
X119107948Y-116128924D01*
X119075204Y-116177929D01*
X119033529Y-116219604D01*
X118984524Y-116252348D01*
X118930074Y-116274902D01*
X118872269Y-116286400D01*
X118813331Y-116286400D01*
X118755526Y-116274902D01*
X118701076Y-116252348D01*
X118652071Y-116219604D01*
X118610396Y-116177929D01*
X118577652Y-116128924D01*
X118555098Y-116074474D01*
X118543600Y-116016669D01*
X118543600Y-115957731D01*
X118555098Y-115899926D01*
X118577652Y-115845476D01*
X118610396Y-115796471D01*
X118652071Y-115754796D01*
X118701076Y-115722052D01*
X118755526Y-115699498D01*
X118813331Y-115688000D01*
X118872269Y-115688000D01*
X118930074Y-115699498D01*
G37*
G36*
X105259392Y-115777285D02*
G01*
X105271503Y-115780959D01*
X105282663Y-115786924D01*
X105292447Y-115794953D01*
X105300476Y-115804737D01*
X105306441Y-115815897D01*
X105310115Y-115828008D01*
X105311600Y-115843091D01*
X105311600Y-116099309D01*
X105310115Y-116114392D01*
X105306441Y-116126503D01*
X105300476Y-116137663D01*
X105292447Y-116147447D01*
X105282663Y-116155476D01*
X105271503Y-116161441D01*
X105259392Y-116165115D01*
X105244309Y-116166600D01*
X105018091Y-116166600D01*
X105003008Y-116165115D01*
X104990897Y-116161441D01*
X104979737Y-116155476D01*
X104969953Y-116147447D01*
X104961924Y-116137663D01*
X104955959Y-116126503D01*
X104952285Y-116114392D01*
X104950800Y-116099309D01*
X104950800Y-115843091D01*
X104952285Y-115828008D01*
X104955959Y-115815897D01*
X104961924Y-115804737D01*
X104969953Y-115794953D01*
X104979737Y-115786924D01*
X104990897Y-115780959D01*
X105003008Y-115777285D01*
X105018091Y-115775800D01*
X105244309Y-115775800D01*
X105259392Y-115777285D01*
G37*
G36*
X105809392Y-115777285D02*
G01*
X105821503Y-115780959D01*
X105832663Y-115786924D01*
X105842447Y-115794953D01*
X105850476Y-115804737D01*
X105856441Y-115815897D01*
X105860115Y-115828008D01*
X105861600Y-115843091D01*
X105861600Y-116099309D01*
X105860115Y-116114392D01*
X105856441Y-116126503D01*
X105850476Y-116137663D01*
X105842447Y-116147447D01*
X105832663Y-116155476D01*
X105821503Y-116161441D01*
X105809392Y-116165115D01*
X105794309Y-116166600D01*
X105568091Y-116166600D01*
X105553008Y-116165115D01*
X105540897Y-116161441D01*
X105529737Y-116155476D01*
X105519953Y-116147447D01*
X105511924Y-116137663D01*
X105505959Y-116126503D01*
X105502285Y-116114392D01*
X105500800Y-116099309D01*
X105500800Y-115843091D01*
X105502285Y-115828008D01*
X105505959Y-115815897D01*
X105511924Y-115804737D01*
X105519953Y-115794953D01*
X105529737Y-115786924D01*
X105540897Y-115780959D01*
X105553008Y-115777285D01*
X105568091Y-115775800D01*
X105794309Y-115775800D01*
X105809392Y-115777285D01*
G37*
G36*
X114900600Y-115991000D02*
G01*
X114174800Y-115991000D01*
X114174800Y-115686200D01*
X114900600Y-115686200D01*
X114900600Y-115991000D01*
G37*
G36*
X118225600Y-115991000D02*
G01*
X117499800Y-115991000D01*
X117499800Y-115686200D01*
X118225600Y-115686200D01*
X118225600Y-115991000D01*
G37*
G36*
X101853592Y-115542085D02*
G01*
X101865703Y-115545759D01*
X101876863Y-115551724D01*
X101886647Y-115559753D01*
X101894676Y-115569537D01*
X101900641Y-115580697D01*
X101904315Y-115592808D01*
X101905800Y-115607891D01*
X101905800Y-115864109D01*
X101904315Y-115879192D01*
X101900641Y-115891303D01*
X101894676Y-115902463D01*
X101886647Y-115912247D01*
X101876863Y-115920276D01*
X101865703Y-115926241D01*
X101853592Y-115929915D01*
X101838509Y-115931400D01*
X101612291Y-115931400D01*
X101597208Y-115929915D01*
X101585097Y-115926241D01*
X101573937Y-115920276D01*
X101564153Y-115912247D01*
X101556124Y-115902463D01*
X101550159Y-115891303D01*
X101546485Y-115879192D01*
X101545000Y-115864109D01*
X101545000Y-115607891D01*
X101546485Y-115592808D01*
X101550159Y-115580697D01*
X101556124Y-115569537D01*
X101564153Y-115559753D01*
X101573937Y-115551724D01*
X101585097Y-115545759D01*
X101597208Y-115542085D01*
X101612291Y-115540600D01*
X101838509Y-115540600D01*
X101853592Y-115542085D01*
G37*
G36*
X101303592Y-115542085D02*
G01*
X101315703Y-115545759D01*
X101326863Y-115551724D01*
X101336647Y-115559753D01*
X101344676Y-115569537D01*
X101350641Y-115580697D01*
X101354315Y-115592808D01*
X101355800Y-115607891D01*
X101355800Y-115864109D01*
X101354315Y-115879192D01*
X101350641Y-115891303D01*
X101344676Y-115902463D01*
X101336647Y-115912247D01*
X101326863Y-115920276D01*
X101315703Y-115926241D01*
X101303592Y-115929915D01*
X101288509Y-115931400D01*
X101062291Y-115931400D01*
X101047208Y-115929915D01*
X101035097Y-115926241D01*
X101023937Y-115920276D01*
X101014153Y-115912247D01*
X101006124Y-115902463D01*
X101000159Y-115891303D01*
X100996485Y-115879192D01*
X100995000Y-115864109D01*
X100995000Y-115607891D01*
X100996485Y-115592808D01*
X101000159Y-115580697D01*
X101006124Y-115569537D01*
X101014153Y-115559753D01*
X101023937Y-115551724D01*
X101035097Y-115545759D01*
X101047208Y-115542085D01*
X101062291Y-115540600D01*
X101288509Y-115540600D01*
X101303592Y-115542085D01*
G37*
G36*
X118225600Y-115491000D02*
G01*
X117499800Y-115491000D01*
X117499800Y-115186200D01*
X118225600Y-115186200D01*
X118225600Y-115491000D01*
G37*
G36*
X114900600Y-115491000D02*
G01*
X114174800Y-115491000D01*
X114174800Y-115186200D01*
X114900600Y-115186200D01*
X114900600Y-115491000D01*
G37*
G36*
X103879592Y-115044685D02*
G01*
X103891703Y-115048359D01*
X103902863Y-115054324D01*
X103912647Y-115062353D01*
X103920676Y-115072137D01*
X103926641Y-115083297D01*
X103930315Y-115095408D01*
X103931800Y-115110491D01*
X103931800Y-115336709D01*
X103930315Y-115351792D01*
X103926641Y-115363903D01*
X103920676Y-115375063D01*
X103912647Y-115384847D01*
X103902863Y-115392876D01*
X103891703Y-115398841D01*
X103879592Y-115402515D01*
X103864509Y-115404000D01*
X103608291Y-115404000D01*
X103593208Y-115402515D01*
X103581097Y-115398841D01*
X103569937Y-115392876D01*
X103560153Y-115384847D01*
X103552124Y-115375063D01*
X103546159Y-115363903D01*
X103542485Y-115351792D01*
X103541000Y-115336709D01*
X103541000Y-115110491D01*
X103542485Y-115095408D01*
X103546159Y-115083297D01*
X103552124Y-115072137D01*
X103560153Y-115062353D01*
X103569937Y-115054324D01*
X103581097Y-115048359D01*
X103593208Y-115044685D01*
X103608291Y-115043200D01*
X103864509Y-115043200D01*
X103879592Y-115044685D01*
G37*
G36*
X105850192Y-115008685D02*
G01*
X105862303Y-115012359D01*
X105873463Y-115018324D01*
X105883247Y-115026353D01*
X105891276Y-115036137D01*
X105897241Y-115047297D01*
X105900915Y-115059408D01*
X105902400Y-115074491D01*
X105902400Y-115330709D01*
X105900915Y-115345792D01*
X105897241Y-115357903D01*
X105891276Y-115369063D01*
X105883247Y-115378847D01*
X105873463Y-115386876D01*
X105862303Y-115392841D01*
X105850192Y-115396515D01*
X105835109Y-115398000D01*
X105608891Y-115398000D01*
X105593808Y-115396515D01*
X105581697Y-115392841D01*
X105570537Y-115386876D01*
X105560753Y-115378847D01*
X105552724Y-115369063D01*
X105546759Y-115357903D01*
X105543085Y-115345792D01*
X105541600Y-115330709D01*
X105541600Y-115074491D01*
X105543085Y-115059408D01*
X105546759Y-115047297D01*
X105552724Y-115036137D01*
X105560753Y-115026353D01*
X105570537Y-115018324D01*
X105581697Y-115012359D01*
X105593808Y-115008685D01*
X105608891Y-115007200D01*
X105835109Y-115007200D01*
X105850192Y-115008685D01*
G37*
G36*
X106400192Y-115008685D02*
G01*
X106412303Y-115012359D01*
X106423463Y-115018324D01*
X106433247Y-115026353D01*
X106441276Y-115036137D01*
X106447241Y-115047297D01*
X106450915Y-115059408D01*
X106452400Y-115074491D01*
X106452400Y-115330709D01*
X106450915Y-115345792D01*
X106447241Y-115357903D01*
X106441276Y-115369063D01*
X106433247Y-115378847D01*
X106423463Y-115386876D01*
X106412303Y-115392841D01*
X106400192Y-115396515D01*
X106385109Y-115398000D01*
X106158891Y-115398000D01*
X106143808Y-115396515D01*
X106131697Y-115392841D01*
X106120537Y-115386876D01*
X106110753Y-115378847D01*
X106102724Y-115369063D01*
X106096759Y-115357903D01*
X106093085Y-115345792D01*
X106091600Y-115330709D01*
X106091600Y-115074491D01*
X106093085Y-115059408D01*
X106096759Y-115047297D01*
X106102724Y-115036137D01*
X106110753Y-115026353D01*
X106120537Y-115018324D01*
X106131697Y-115012359D01*
X106143808Y-115008685D01*
X106158891Y-115007200D01*
X106385109Y-115007200D01*
X106400192Y-115008685D01*
G37*
G36*
X102386992Y-114983285D02*
G01*
X102399103Y-114986959D01*
X102410263Y-114992924D01*
X102420047Y-115000953D01*
X102428076Y-115010737D01*
X102434041Y-115021897D01*
X102437715Y-115034008D01*
X102439200Y-115049091D01*
X102439200Y-115305309D01*
X102437715Y-115320392D01*
X102434041Y-115332503D01*
X102428076Y-115343663D01*
X102420047Y-115353447D01*
X102410263Y-115361476D01*
X102399103Y-115367441D01*
X102386992Y-115371115D01*
X102371909Y-115372600D01*
X102145691Y-115372600D01*
X102130608Y-115371115D01*
X102118497Y-115367441D01*
X102107337Y-115361476D01*
X102097553Y-115353447D01*
X102089524Y-115343663D01*
X102083559Y-115332503D01*
X102079885Y-115320392D01*
X102078400Y-115305309D01*
X102078400Y-115049091D01*
X102079885Y-115034008D01*
X102083559Y-115021897D01*
X102089524Y-115010737D01*
X102097553Y-115000953D01*
X102107337Y-114992924D01*
X102118497Y-114986959D01*
X102130608Y-114983285D01*
X102145691Y-114981800D01*
X102371909Y-114981800D01*
X102386992Y-114983285D01*
G37*
G36*
X101836992Y-114983285D02*
G01*
X101849103Y-114986959D01*
X101860263Y-114992924D01*
X101870047Y-115000953D01*
X101878076Y-115010737D01*
X101884041Y-115021897D01*
X101887715Y-115034008D01*
X101889200Y-115049091D01*
X101889200Y-115305309D01*
X101887715Y-115320392D01*
X101884041Y-115332503D01*
X101878076Y-115343663D01*
X101870047Y-115353447D01*
X101860263Y-115361476D01*
X101849103Y-115367441D01*
X101836992Y-115371115D01*
X101821909Y-115372600D01*
X101595691Y-115372600D01*
X101580608Y-115371115D01*
X101568497Y-115367441D01*
X101557337Y-115361476D01*
X101547553Y-115353447D01*
X101539524Y-115343663D01*
X101533559Y-115332503D01*
X101529885Y-115320392D01*
X101528400Y-115305309D01*
X101528400Y-115049091D01*
X101529885Y-115034008D01*
X101533559Y-115021897D01*
X101539524Y-115010737D01*
X101547553Y-115000953D01*
X101557337Y-114992924D01*
X101568497Y-114986959D01*
X101580608Y-114983285D01*
X101595691Y-114981800D01*
X101821909Y-114981800D01*
X101836992Y-114983285D01*
G37*
G36*
X108313478Y-114422471D02*
G01*
X108352792Y-114434397D01*
X108389023Y-114453763D01*
X108420777Y-114479823D01*
X108446837Y-114511577D01*
X108466203Y-114547808D01*
X108478129Y-114587122D01*
X108482400Y-114630491D01*
X108482400Y-115146709D01*
X108478129Y-115190078D01*
X108466203Y-115229392D01*
X108446837Y-115265623D01*
X108420777Y-115297377D01*
X108389023Y-115323437D01*
X108352792Y-115342803D01*
X108313478Y-115354729D01*
X108270109Y-115359000D01*
X107723891Y-115359000D01*
X107680522Y-115354729D01*
X107641208Y-115342803D01*
X107604977Y-115323437D01*
X107573223Y-115297377D01*
X107547163Y-115265623D01*
X107527797Y-115229392D01*
X107515871Y-115190078D01*
X107511600Y-115146709D01*
X107511600Y-114630491D01*
X107515871Y-114587122D01*
X107527797Y-114547808D01*
X107547163Y-114511577D01*
X107573223Y-114479823D01*
X107604977Y-114453763D01*
X107641208Y-114434397D01*
X107680522Y-114422471D01*
X107723891Y-114418200D01*
X108270109Y-114418200D01*
X108313478Y-114422471D01*
G37*
G36*
X118930074Y-114429498D02*
G01*
X118984524Y-114452052D01*
X119033529Y-114484796D01*
X119075204Y-114526471D01*
X119107948Y-114575476D01*
X119130502Y-114629926D01*
X119142000Y-114687731D01*
X119142000Y-114746669D01*
X119130502Y-114804474D01*
X119107948Y-114858924D01*
X119075204Y-114907929D01*
X119033529Y-114949604D01*
X118984524Y-114982348D01*
X118930074Y-115004902D01*
X118872269Y-115016400D01*
X118813331Y-115016400D01*
X118755526Y-115004902D01*
X118701076Y-114982348D01*
X118652071Y-114949604D01*
X118610396Y-114907929D01*
X118577652Y-114858924D01*
X118555098Y-114804474D01*
X118543600Y-114746669D01*
X118543600Y-114687731D01*
X118555098Y-114629926D01*
X118577652Y-114575476D01*
X118610396Y-114526471D01*
X118652071Y-114484796D01*
X118701076Y-114452052D01*
X118755526Y-114429498D01*
X118813331Y-114418000D01*
X118872269Y-114418000D01*
X118930074Y-114429498D01*
G37*
G36*
X120200074Y-114429498D02*
G01*
X120254524Y-114452052D01*
X120303529Y-114484796D01*
X120345204Y-114526471D01*
X120377948Y-114575476D01*
X120400502Y-114629926D01*
X120412000Y-114687731D01*
X120412000Y-114746669D01*
X120400502Y-114804474D01*
X120377948Y-114858924D01*
X120345204Y-114907929D01*
X120303529Y-114949604D01*
X120254524Y-114982348D01*
X120200074Y-115004902D01*
X120142269Y-115016400D01*
X120083331Y-115016400D01*
X120025526Y-115004902D01*
X119971076Y-114982348D01*
X119922071Y-114949604D01*
X119880396Y-114907929D01*
X119847652Y-114858924D01*
X119825098Y-114804474D01*
X119813600Y-114746669D01*
X119813600Y-114687731D01*
X119825098Y-114629926D01*
X119847652Y-114575476D01*
X119880396Y-114526471D01*
X119922071Y-114484796D01*
X119971076Y-114452052D01*
X120025526Y-114429498D01*
X120083331Y-114418000D01*
X120142269Y-114418000D01*
X120200074Y-114429498D01*
G37*
G36*
X118225600Y-114991000D02*
G01*
X117499800Y-114991000D01*
X117499800Y-114686200D01*
X118225600Y-114686200D01*
X118225600Y-114991000D01*
G37*
G36*
X114900600Y-114991000D02*
G01*
X114174800Y-114991000D01*
X114174800Y-114686200D01*
X114900600Y-114686200D01*
X114900600Y-114991000D01*
G37*
G36*
X100431192Y-114500685D02*
G01*
X100443303Y-114504359D01*
X100454463Y-114510324D01*
X100464247Y-114518353D01*
X100472276Y-114528137D01*
X100478241Y-114539297D01*
X100481915Y-114551408D01*
X100483400Y-114566491D01*
X100483400Y-114822709D01*
X100481915Y-114837792D01*
X100478241Y-114849903D01*
X100472276Y-114861063D01*
X100464247Y-114870847D01*
X100454463Y-114878876D01*
X100443303Y-114884841D01*
X100431192Y-114888515D01*
X100416109Y-114890000D01*
X100189891Y-114890000D01*
X100174808Y-114888515D01*
X100162697Y-114884841D01*
X100151537Y-114878876D01*
X100141753Y-114870847D01*
X100133724Y-114861063D01*
X100127759Y-114849903D01*
X100124085Y-114837792D01*
X100122600Y-114822709D01*
X100122600Y-114566491D01*
X100124085Y-114551408D01*
X100127759Y-114539297D01*
X100133724Y-114528137D01*
X100141753Y-114518353D01*
X100151537Y-114510324D01*
X100162697Y-114504359D01*
X100174808Y-114500685D01*
X100189891Y-114499200D01*
X100416109Y-114499200D01*
X100431192Y-114500685D01*
G37*
G36*
X106400192Y-114500685D02*
G01*
X106412303Y-114504359D01*
X106423463Y-114510324D01*
X106433247Y-114518353D01*
X106441276Y-114528137D01*
X106447241Y-114539297D01*
X106450915Y-114551408D01*
X106452400Y-114566491D01*
X106452400Y-114822709D01*
X106450915Y-114837792D01*
X106447241Y-114849903D01*
X106441276Y-114861063D01*
X106433247Y-114870847D01*
X106423463Y-114878876D01*
X106412303Y-114884841D01*
X106400192Y-114888515D01*
X106385109Y-114890000D01*
X106158891Y-114890000D01*
X106143808Y-114888515D01*
X106131697Y-114884841D01*
X106120537Y-114878876D01*
X106110753Y-114870847D01*
X106102724Y-114861063D01*
X106096759Y-114849903D01*
X106093085Y-114837792D01*
X106091600Y-114822709D01*
X106091600Y-114566491D01*
X106093085Y-114551408D01*
X106096759Y-114539297D01*
X106102724Y-114528137D01*
X106110753Y-114518353D01*
X106120537Y-114510324D01*
X106131697Y-114504359D01*
X106143808Y-114500685D01*
X106158891Y-114499200D01*
X106385109Y-114499200D01*
X106400192Y-114500685D01*
G37*
G36*
X105850192Y-114500685D02*
G01*
X105862303Y-114504359D01*
X105873463Y-114510324D01*
X105883247Y-114518353D01*
X105891276Y-114528137D01*
X105897241Y-114539297D01*
X105900915Y-114551408D01*
X105902400Y-114566491D01*
X105902400Y-114822709D01*
X105900915Y-114837792D01*
X105897241Y-114849903D01*
X105891276Y-114861063D01*
X105883247Y-114870847D01*
X105873463Y-114878876D01*
X105862303Y-114884841D01*
X105850192Y-114888515D01*
X105835109Y-114890000D01*
X105608891Y-114890000D01*
X105593808Y-114888515D01*
X105581697Y-114884841D01*
X105570537Y-114878876D01*
X105560753Y-114870847D01*
X105552724Y-114861063D01*
X105546759Y-114849903D01*
X105543085Y-114837792D01*
X105541600Y-114822709D01*
X105541600Y-114566491D01*
X105543085Y-114551408D01*
X105546759Y-114539297D01*
X105552724Y-114528137D01*
X105560753Y-114518353D01*
X105570537Y-114510324D01*
X105581697Y-114504359D01*
X105593808Y-114500685D01*
X105608891Y-114499200D01*
X105835109Y-114499200D01*
X105850192Y-114500685D01*
G37*
G36*
X99881192Y-114500685D02*
G01*
X99893303Y-114504359D01*
X99904463Y-114510324D01*
X99914247Y-114518353D01*
X99922276Y-114528137D01*
X99928241Y-114539297D01*
X99931915Y-114551408D01*
X99933400Y-114566491D01*
X99933400Y-114822709D01*
X99931915Y-114837792D01*
X99928241Y-114849903D01*
X99922276Y-114861063D01*
X99914247Y-114870847D01*
X99904463Y-114878876D01*
X99893303Y-114884841D01*
X99881192Y-114888515D01*
X99866109Y-114890000D01*
X99639891Y-114890000D01*
X99624808Y-114888515D01*
X99612697Y-114884841D01*
X99601537Y-114878876D01*
X99591753Y-114870847D01*
X99583724Y-114861063D01*
X99577759Y-114849903D01*
X99574085Y-114837792D01*
X99572600Y-114822709D01*
X99572600Y-114566491D01*
X99574085Y-114551408D01*
X99577759Y-114539297D01*
X99583724Y-114528137D01*
X99591753Y-114518353D01*
X99601537Y-114510324D01*
X99612697Y-114504359D01*
X99624808Y-114500685D01*
X99639891Y-114499200D01*
X99866109Y-114499200D01*
X99881192Y-114500685D01*
G37*
G36*
X101349992Y-114475285D02*
G01*
X101362103Y-114478959D01*
X101373263Y-114484924D01*
X101383047Y-114492953D01*
X101391076Y-114502737D01*
X101397041Y-114513897D01*
X101400715Y-114526008D01*
X101402200Y-114541091D01*
X101402200Y-114797309D01*
X101400715Y-114812392D01*
X101397041Y-114824503D01*
X101391076Y-114835663D01*
X101383047Y-114845447D01*
X101373263Y-114853476D01*
X101362103Y-114859441D01*
X101349992Y-114863115D01*
X101334909Y-114864600D01*
X101108691Y-114864600D01*
X101093608Y-114863115D01*
X101081497Y-114859441D01*
X101070337Y-114853476D01*
X101060553Y-114845447D01*
X101052524Y-114835663D01*
X101046559Y-114824503D01*
X101042885Y-114812392D01*
X101041400Y-114797309D01*
X101041400Y-114541091D01*
X101042885Y-114526008D01*
X101046559Y-114513897D01*
X101052524Y-114502737D01*
X101060553Y-114492953D01*
X101070337Y-114484924D01*
X101081497Y-114478959D01*
X101093608Y-114475285D01*
X101108691Y-114473800D01*
X101334909Y-114473800D01*
X101349992Y-114475285D01*
G37*
G36*
X101899992Y-114475285D02*
G01*
X101912103Y-114478959D01*
X101923263Y-114484924D01*
X101933047Y-114492953D01*
X101941076Y-114502737D01*
X101947041Y-114513897D01*
X101950715Y-114526008D01*
X101952200Y-114541091D01*
X101952200Y-114797309D01*
X101950715Y-114812392D01*
X101947041Y-114824503D01*
X101941076Y-114835663D01*
X101933047Y-114845447D01*
X101923263Y-114853476D01*
X101912103Y-114859441D01*
X101899992Y-114863115D01*
X101884909Y-114864600D01*
X101658691Y-114864600D01*
X101643608Y-114863115D01*
X101631497Y-114859441D01*
X101620337Y-114853476D01*
X101610553Y-114845447D01*
X101602524Y-114835663D01*
X101596559Y-114824503D01*
X101592885Y-114812392D01*
X101591400Y-114797309D01*
X101591400Y-114541091D01*
X101592885Y-114526008D01*
X101596559Y-114513897D01*
X101602524Y-114502737D01*
X101610553Y-114492953D01*
X101620337Y-114484924D01*
X101631497Y-114478959D01*
X101643608Y-114475285D01*
X101658691Y-114473800D01*
X101884909Y-114473800D01*
X101899992Y-114475285D01*
G37*
G36*
X103879592Y-114494685D02*
G01*
X103891703Y-114498359D01*
X103902863Y-114504324D01*
X103912647Y-114512353D01*
X103920676Y-114522137D01*
X103926641Y-114533297D01*
X103930315Y-114545408D01*
X103931800Y-114560491D01*
X103931800Y-114786709D01*
X103930315Y-114801792D01*
X103926641Y-114813903D01*
X103920676Y-114825063D01*
X103912647Y-114834847D01*
X103902863Y-114842876D01*
X103891703Y-114848841D01*
X103879592Y-114852515D01*
X103864509Y-114854000D01*
X103608291Y-114854000D01*
X103593208Y-114852515D01*
X103581097Y-114848841D01*
X103569937Y-114842876D01*
X103560153Y-114834847D01*
X103552124Y-114825063D01*
X103546159Y-114813903D01*
X103542485Y-114801792D01*
X103541000Y-114786709D01*
X103541000Y-114560491D01*
X103542485Y-114545408D01*
X103546159Y-114533297D01*
X103552124Y-114522137D01*
X103560153Y-114512353D01*
X103569937Y-114504324D01*
X103581097Y-114498359D01*
X103593208Y-114494685D01*
X103608291Y-114493200D01*
X103864509Y-114493200D01*
X103879592Y-114494685D01*
G37*
G36*
X113829792Y-114231885D02*
G01*
X113841903Y-114235559D01*
X113853063Y-114241524D01*
X113862847Y-114249553D01*
X113870876Y-114259337D01*
X113876841Y-114270497D01*
X113880515Y-114282608D01*
X113882000Y-114297691D01*
X113882000Y-114523909D01*
X113880515Y-114538992D01*
X113876841Y-114551103D01*
X113870876Y-114562263D01*
X113862847Y-114572047D01*
X113853063Y-114580076D01*
X113841903Y-114586041D01*
X113829792Y-114589715D01*
X113814709Y-114591200D01*
X113558491Y-114591200D01*
X113543408Y-114589715D01*
X113531297Y-114586041D01*
X113520137Y-114580076D01*
X113510353Y-114572047D01*
X113502324Y-114562263D01*
X113496359Y-114551103D01*
X113492685Y-114538992D01*
X113491200Y-114523909D01*
X113491200Y-114297691D01*
X113492685Y-114282608D01*
X113496359Y-114270497D01*
X113502324Y-114259337D01*
X113510353Y-114249553D01*
X113520137Y-114241524D01*
X113531297Y-114235559D01*
X113543408Y-114231885D01*
X113558491Y-114230400D01*
X113814709Y-114230400D01*
X113829792Y-114231885D01*
G37*
G36*
X118225600Y-114491000D02*
G01*
X117499800Y-114491000D01*
X117499800Y-114186200D01*
X118225600Y-114186200D01*
X118225600Y-114491000D01*
G37*
G36*
X114900600Y-114491000D02*
G01*
X114174800Y-114491000D01*
X114174800Y-114186200D01*
X114900600Y-114186200D01*
X114900600Y-114491000D01*
G37*
G36*
X101844800Y-114331000D02*
G01*
X100914000Y-114331000D01*
X100914000Y-113450200D01*
X101844800Y-113450200D01*
X101844800Y-114331000D01*
G37*
G36*
X99954800Y-114331000D02*
G01*
X99024000Y-114331000D01*
X99024000Y-113450200D01*
X99954800Y-113450200D01*
X99954800Y-114331000D01*
G37*
G36*
X107437262Y-113544183D02*
G01*
X107462031Y-113551696D01*
X107484869Y-113563904D01*
X107504877Y-113580323D01*
X107521296Y-113600331D01*
X107533504Y-113623169D01*
X107541017Y-113647938D01*
X107543800Y-113676191D01*
X107543800Y-114087409D01*
X107541017Y-114115662D01*
X107533504Y-114140431D01*
X107521296Y-114163269D01*
X107504877Y-114183277D01*
X107484869Y-114199696D01*
X107462031Y-114211904D01*
X107437262Y-114219417D01*
X107409009Y-114222200D01*
X107047791Y-114222200D01*
X107019538Y-114219417D01*
X106994769Y-114211904D01*
X106971931Y-114199696D01*
X106951923Y-114183277D01*
X106935504Y-114163269D01*
X106923296Y-114140431D01*
X106915783Y-114115662D01*
X106913000Y-114087409D01*
X106913000Y-113676191D01*
X106915783Y-113647938D01*
X106923296Y-113623169D01*
X106935504Y-113600331D01*
X106951923Y-113580323D01*
X106971931Y-113563904D01*
X106994769Y-113551696D01*
X107019538Y-113544183D01*
X107047791Y-113541400D01*
X107409009Y-113541400D01*
X107437262Y-113544183D01*
G37*
G36*
X108327262Y-113544183D02*
G01*
X108352031Y-113551696D01*
X108374869Y-113563904D01*
X108394877Y-113580323D01*
X108411296Y-113600331D01*
X108423504Y-113623169D01*
X108431017Y-113647938D01*
X108433800Y-113676191D01*
X108433800Y-114087409D01*
X108431017Y-114115662D01*
X108423504Y-114140431D01*
X108411296Y-114163269D01*
X108394877Y-114183277D01*
X108374869Y-114199696D01*
X108352031Y-114211904D01*
X108327262Y-114219417D01*
X108299009Y-114222200D01*
X107937791Y-114222200D01*
X107909538Y-114219417D01*
X107884769Y-114211904D01*
X107861931Y-114199696D01*
X107841923Y-114183277D01*
X107825504Y-114163269D01*
X107813296Y-114140431D01*
X107805783Y-114115662D01*
X107803000Y-114087409D01*
X107803000Y-113676191D01*
X107805783Y-113647938D01*
X107813296Y-113623169D01*
X107825504Y-113600331D01*
X107841923Y-113580323D01*
X107861931Y-113563904D01*
X107884769Y-113551696D01*
X107909538Y-113544183D01*
X107937791Y-113541400D01*
X108299009Y-113541400D01*
X108327262Y-113544183D01*
G37*
G36*
X113829792Y-113681885D02*
G01*
X113841903Y-113685559D01*
X113853063Y-113691524D01*
X113862847Y-113699553D01*
X113870876Y-113709337D01*
X113876841Y-113720497D01*
X113880515Y-113732608D01*
X113882000Y-113747691D01*
X113882000Y-113973909D01*
X113880515Y-113988992D01*
X113876841Y-114001103D01*
X113870876Y-114012263D01*
X113862847Y-114022047D01*
X113853063Y-114030076D01*
X113841903Y-114036041D01*
X113829792Y-114039715D01*
X113814709Y-114041200D01*
X113558491Y-114041200D01*
X113543408Y-114039715D01*
X113531297Y-114036041D01*
X113520137Y-114030076D01*
X113510353Y-114022047D01*
X113502324Y-114012263D01*
X113496359Y-114001103D01*
X113492685Y-113988992D01*
X113491200Y-113973909D01*
X113491200Y-113747691D01*
X113492685Y-113732608D01*
X113496359Y-113720497D01*
X113502324Y-113709337D01*
X113510353Y-113699553D01*
X113520137Y-113691524D01*
X113531297Y-113685559D01*
X113543408Y-113681885D01*
X113558491Y-113680400D01*
X113814709Y-113680400D01*
X113829792Y-113681885D01*
G37*
G36*
X114900600Y-113991000D02*
G01*
X114174800Y-113991000D01*
X114174800Y-113686200D01*
X114900600Y-113686200D01*
X114900600Y-113991000D01*
G37*
G36*
X118225600Y-113991000D02*
G01*
X117499800Y-113991000D01*
X117499800Y-113686200D01*
X118225600Y-113686200D01*
X118225600Y-113991000D01*
G37*
G36*
X102380992Y-113520685D02*
G01*
X102393103Y-113524359D01*
X102404263Y-113530324D01*
X102414047Y-113538353D01*
X102422076Y-113548137D01*
X102428041Y-113559297D01*
X102431715Y-113571408D01*
X102433200Y-113586491D01*
X102433200Y-113812709D01*
X102431715Y-113827792D01*
X102428041Y-113839903D01*
X102422076Y-113851063D01*
X102414047Y-113860847D01*
X102404263Y-113868876D01*
X102393103Y-113874841D01*
X102380992Y-113878515D01*
X102365909Y-113880000D01*
X102109691Y-113880000D01*
X102094608Y-113878515D01*
X102082497Y-113874841D01*
X102071337Y-113868876D01*
X102061553Y-113860847D01*
X102053524Y-113851063D01*
X102047559Y-113839903D01*
X102043885Y-113827792D01*
X102042400Y-113812709D01*
X102042400Y-113586491D01*
X102043885Y-113571408D01*
X102047559Y-113559297D01*
X102053524Y-113548137D01*
X102061553Y-113538353D01*
X102071337Y-113530324D01*
X102082497Y-113524359D01*
X102094608Y-113520685D01*
X102109691Y-113519200D01*
X102365909Y-113519200D01*
X102380992Y-113520685D01*
G37*
G36*
X120200074Y-113159498D02*
G01*
X120254524Y-113182052D01*
X120303529Y-113214796D01*
X120345204Y-113256471D01*
X120377948Y-113305476D01*
X120400502Y-113359926D01*
X120412000Y-113417731D01*
X120412000Y-113476669D01*
X120400502Y-113534474D01*
X120377948Y-113588924D01*
X120345204Y-113637929D01*
X120303529Y-113679604D01*
X120254524Y-113712348D01*
X120200074Y-113734902D01*
X120142269Y-113746400D01*
X120083331Y-113746400D01*
X120025526Y-113734902D01*
X119971076Y-113712348D01*
X119922071Y-113679604D01*
X119880396Y-113637929D01*
X119847652Y-113588924D01*
X119825098Y-113534474D01*
X119813600Y-113476669D01*
X119813600Y-113417731D01*
X119825098Y-113359926D01*
X119847652Y-113305476D01*
X119880396Y-113256471D01*
X119922071Y-113214796D01*
X119971076Y-113182052D01*
X120025526Y-113159498D01*
X120083331Y-113148000D01*
X120142269Y-113148000D01*
X120200074Y-113159498D01*
G37*
G36*
X118930074Y-113159498D02*
G01*
X118984524Y-113182052D01*
X119033529Y-113214796D01*
X119075204Y-113256471D01*
X119107948Y-113305476D01*
X119130502Y-113359926D01*
X119142000Y-113417731D01*
X119142000Y-113476669D01*
X119130502Y-113534474D01*
X119107948Y-113588924D01*
X119075204Y-113637929D01*
X119033529Y-113679604D01*
X118984524Y-113712348D01*
X118930074Y-113734902D01*
X118872269Y-113746400D01*
X118813331Y-113746400D01*
X118755526Y-113734902D01*
X118701076Y-113712348D01*
X118652071Y-113679604D01*
X118610396Y-113637929D01*
X118577652Y-113588924D01*
X118555098Y-113534474D01*
X118543600Y-113476669D01*
X118543600Y-113417731D01*
X118555098Y-113359926D01*
X118577652Y-113305476D01*
X118610396Y-113256471D01*
X118652071Y-113214796D01*
X118701076Y-113182052D01*
X118755526Y-113159498D01*
X118813331Y-113148000D01*
X118872269Y-113148000D01*
X118930074Y-113159498D01*
G37*
G36*
X118225600Y-113491000D02*
G01*
X117499800Y-113491000D01*
X117499800Y-113186200D01*
X118225600Y-113186200D01*
X118225600Y-113491000D01*
G37*
G36*
X114900600Y-113491000D02*
G01*
X114174800Y-113491000D01*
X114174800Y-113186200D01*
X114900600Y-113186200D01*
X114900600Y-113491000D01*
G37*
G36*
X106368792Y-113038085D02*
G01*
X106380903Y-113041759D01*
X106392063Y-113047724D01*
X106401847Y-113055753D01*
X106409876Y-113065537D01*
X106415841Y-113076697D01*
X106419515Y-113088808D01*
X106421000Y-113103891D01*
X106421000Y-113330109D01*
X106419515Y-113345192D01*
X106415841Y-113357303D01*
X106409876Y-113368463D01*
X106401847Y-113378247D01*
X106392063Y-113386276D01*
X106380903Y-113392241D01*
X106368792Y-113395915D01*
X106353709Y-113397400D01*
X106097491Y-113397400D01*
X106082408Y-113395915D01*
X106070297Y-113392241D01*
X106059137Y-113386276D01*
X106049353Y-113378247D01*
X106041324Y-113368463D01*
X106035359Y-113357303D01*
X106031685Y-113345192D01*
X106030200Y-113330109D01*
X106030200Y-113103891D01*
X106031685Y-113088808D01*
X106035359Y-113076697D01*
X106041324Y-113065537D01*
X106049353Y-113055753D01*
X106059137Y-113047724D01*
X106070297Y-113041759D01*
X106082408Y-113038085D01*
X106097491Y-113036600D01*
X106353709Y-113036600D01*
X106368792Y-113038085D01*
G37*
G36*
X107462662Y-112655183D02*
G01*
X107487431Y-112662696D01*
X107510269Y-112674904D01*
X107530277Y-112691323D01*
X107546696Y-112711331D01*
X107558904Y-112734169D01*
X107566417Y-112758938D01*
X107569200Y-112787191D01*
X107569200Y-113198409D01*
X107566417Y-113226662D01*
X107558904Y-113251431D01*
X107546696Y-113274269D01*
X107530277Y-113294277D01*
X107510269Y-113310696D01*
X107487431Y-113322904D01*
X107462662Y-113330417D01*
X107434409Y-113333200D01*
X107073191Y-113333200D01*
X107044938Y-113330417D01*
X107020169Y-113322904D01*
X106997331Y-113310696D01*
X106977323Y-113294277D01*
X106960904Y-113274269D01*
X106948696Y-113251431D01*
X106941183Y-113226662D01*
X106938400Y-113198409D01*
X106938400Y-112787191D01*
X106941183Y-112758938D01*
X106948696Y-112734169D01*
X106960904Y-112711331D01*
X106977323Y-112691323D01*
X106997331Y-112674904D01*
X107020169Y-112662696D01*
X107044938Y-112655183D01*
X107073191Y-112652400D01*
X107434409Y-112652400D01*
X107462662Y-112655183D01*
G37*
G36*
X108352662Y-112655183D02*
G01*
X108377431Y-112662696D01*
X108400269Y-112674904D01*
X108420277Y-112691323D01*
X108436696Y-112711331D01*
X108448904Y-112734169D01*
X108456417Y-112758938D01*
X108459200Y-112787191D01*
X108459200Y-113198409D01*
X108456417Y-113226662D01*
X108448904Y-113251431D01*
X108436696Y-113274269D01*
X108420277Y-113294277D01*
X108400269Y-113310696D01*
X108377431Y-113322904D01*
X108352662Y-113330417D01*
X108324409Y-113333200D01*
X107963191Y-113333200D01*
X107934938Y-113330417D01*
X107910169Y-113322904D01*
X107887331Y-113310696D01*
X107867323Y-113294277D01*
X107850904Y-113274269D01*
X107838696Y-113251431D01*
X107831183Y-113226662D01*
X107828400Y-113198409D01*
X107828400Y-112787191D01*
X107831183Y-112758938D01*
X107838696Y-112734169D01*
X107850904Y-112711331D01*
X107867323Y-112691323D01*
X107887331Y-112674904D01*
X107910169Y-112662696D01*
X107934938Y-112655183D01*
X107963191Y-112652400D01*
X108324409Y-112652400D01*
X108352662Y-112655183D01*
G37*
G36*
X102380992Y-112970685D02*
G01*
X102393103Y-112974359D01*
X102404263Y-112980324D01*
X102414047Y-112988353D01*
X102422076Y-112998137D01*
X102428041Y-113009297D01*
X102431715Y-113021408D01*
X102433200Y-113036491D01*
X102433200Y-113262709D01*
X102431715Y-113277792D01*
X102428041Y-113289903D01*
X102422076Y-113301063D01*
X102414047Y-113310847D01*
X102404263Y-113318876D01*
X102393103Y-113324841D01*
X102380992Y-113328515D01*
X102365909Y-113330000D01*
X102109691Y-113330000D01*
X102094608Y-113328515D01*
X102082497Y-113324841D01*
X102071337Y-113318876D01*
X102061553Y-113310847D01*
X102053524Y-113301063D01*
X102047559Y-113289903D01*
X102043885Y-113277792D01*
X102042400Y-113262709D01*
X102042400Y-113036491D01*
X102043885Y-113021408D01*
X102047559Y-113009297D01*
X102053524Y-112998137D01*
X102061553Y-112988353D01*
X102071337Y-112980324D01*
X102082497Y-112974359D01*
X102094608Y-112970685D01*
X102109691Y-112969200D01*
X102365909Y-112969200D01*
X102380992Y-112970685D01*
G37*
G36*
X114900600Y-112991000D02*
G01*
X114174800Y-112991000D01*
X114174800Y-112686200D01*
X114900600Y-112686200D01*
X114900600Y-112991000D01*
G37*
G36*
X113865592Y-112631685D02*
G01*
X113877703Y-112635359D01*
X113888863Y-112641324D01*
X113898647Y-112649353D01*
X113906676Y-112659137D01*
X113912641Y-112670297D01*
X113916315Y-112682408D01*
X113917800Y-112697491D01*
X113917800Y-112923709D01*
X113916315Y-112938792D01*
X113912641Y-112950903D01*
X113906676Y-112962063D01*
X113898647Y-112971847D01*
X113888863Y-112979876D01*
X113877703Y-112985841D01*
X113865592Y-112989515D01*
X113850509Y-112991000D01*
X113594291Y-112991000D01*
X113579208Y-112989515D01*
X113567097Y-112985841D01*
X113555937Y-112979876D01*
X113546153Y-112971847D01*
X113538124Y-112962063D01*
X113532159Y-112950903D01*
X113528485Y-112938792D01*
X113527000Y-112923709D01*
X113527000Y-112697491D01*
X113528485Y-112682408D01*
X113532159Y-112670297D01*
X113538124Y-112659137D01*
X113546153Y-112649353D01*
X113555937Y-112641324D01*
X113567097Y-112635359D01*
X113579208Y-112631685D01*
X113594291Y-112630200D01*
X113850509Y-112630200D01*
X113865592Y-112631685D01*
G37*
G36*
X118225600Y-112991000D02*
G01*
X117499800Y-112991000D01*
X117499800Y-112686200D01*
X118225600Y-112686200D01*
X118225600Y-112991000D01*
G37*
G36*
X99954800Y-112891000D02*
G01*
X99024000Y-112891000D01*
X99024000Y-112010200D01*
X99954800Y-112010200D01*
X99954800Y-112891000D01*
G37*
G36*
X101844800Y-112891000D02*
G01*
X100914000Y-112891000D01*
X100914000Y-112010200D01*
X101844800Y-112010200D01*
X101844800Y-112891000D01*
G37*
G36*
X106368792Y-112488085D02*
G01*
X106380903Y-112491759D01*
X106392063Y-112497724D01*
X106401847Y-112505753D01*
X106409876Y-112515537D01*
X106415841Y-112526697D01*
X106419515Y-112538808D01*
X106421000Y-112553891D01*
X106421000Y-112780109D01*
X106419515Y-112795192D01*
X106415841Y-112807303D01*
X106409876Y-112818463D01*
X106401847Y-112828247D01*
X106392063Y-112836276D01*
X106380903Y-112842241D01*
X106368792Y-112845915D01*
X106353709Y-112847400D01*
X106097491Y-112847400D01*
X106082408Y-112845915D01*
X106070297Y-112842241D01*
X106059137Y-112836276D01*
X106049353Y-112828247D01*
X106041324Y-112818463D01*
X106035359Y-112807303D01*
X106031685Y-112795192D01*
X106030200Y-112780109D01*
X106030200Y-112553891D01*
X106031685Y-112538808D01*
X106035359Y-112526697D01*
X106041324Y-112515537D01*
X106049353Y-112505753D01*
X106059137Y-112497724D01*
X106070297Y-112491759D01*
X106082408Y-112488085D01*
X106097491Y-112486600D01*
X106353709Y-112486600D01*
X106368792Y-112488085D01*
G37*
G36*
X118742392Y-112199885D02*
G01*
X118754503Y-112203559D01*
X118765663Y-112209524D01*
X118775447Y-112217553D01*
X118783476Y-112227337D01*
X118789441Y-112238497D01*
X118793115Y-112250608D01*
X118794600Y-112265691D01*
X118794600Y-112491909D01*
X118793115Y-112506992D01*
X118789441Y-112519103D01*
X118783476Y-112530263D01*
X118775447Y-112540047D01*
X118765663Y-112548076D01*
X118754503Y-112554041D01*
X118742392Y-112557715D01*
X118727309Y-112559200D01*
X118471091Y-112559200D01*
X118456008Y-112557715D01*
X118443897Y-112554041D01*
X118432737Y-112548076D01*
X118422953Y-112540047D01*
X118414924Y-112530263D01*
X118408959Y-112519103D01*
X118405285Y-112506992D01*
X118403800Y-112491909D01*
X118403800Y-112265691D01*
X118405285Y-112250608D01*
X118408959Y-112238497D01*
X118414924Y-112227337D01*
X118422953Y-112217553D01*
X118432737Y-112209524D01*
X118443897Y-112203559D01*
X118456008Y-112199885D01*
X118471091Y-112198400D01*
X118727309Y-112198400D01*
X118742392Y-112199885D01*
G37*
G36*
X119326592Y-112199885D02*
G01*
X119338703Y-112203559D01*
X119349863Y-112209524D01*
X119359647Y-112217553D01*
X119367676Y-112227337D01*
X119373641Y-112238497D01*
X119377315Y-112250608D01*
X119378800Y-112265691D01*
X119378800Y-112491909D01*
X119377315Y-112506992D01*
X119373641Y-112519103D01*
X119367676Y-112530263D01*
X119359647Y-112540047D01*
X119349863Y-112548076D01*
X119338703Y-112554041D01*
X119326592Y-112557715D01*
X119311509Y-112559200D01*
X119055291Y-112559200D01*
X119040208Y-112557715D01*
X119028097Y-112554041D01*
X119016937Y-112548076D01*
X119007153Y-112540047D01*
X118999124Y-112530263D01*
X118993159Y-112519103D01*
X118989485Y-112506992D01*
X118988000Y-112491909D01*
X118988000Y-112265691D01*
X118989485Y-112250608D01*
X118993159Y-112238497D01*
X118999124Y-112227337D01*
X119007153Y-112217553D01*
X119016937Y-112209524D01*
X119028097Y-112203559D01*
X119040208Y-112199885D01*
X119055291Y-112198400D01*
X119311509Y-112198400D01*
X119326592Y-112199885D01*
G37*
G36*
X118225600Y-112491000D02*
G01*
X117499800Y-112491000D01*
X117499800Y-112186200D01*
X118225600Y-112186200D01*
X118225600Y-112491000D01*
G37*
G36*
X114900600Y-112491000D02*
G01*
X114174800Y-112491000D01*
X114174800Y-112186200D01*
X114900600Y-112186200D01*
X114900600Y-112491000D01*
G37*
G36*
X113865592Y-112081685D02*
G01*
X113877703Y-112085359D01*
X113888863Y-112091324D01*
X113898647Y-112099353D01*
X113906676Y-112109137D01*
X113912641Y-112120297D01*
X113916315Y-112132408D01*
X113917800Y-112147491D01*
X113917800Y-112373709D01*
X113916315Y-112388792D01*
X113912641Y-112400903D01*
X113906676Y-112412063D01*
X113898647Y-112421847D01*
X113888863Y-112429876D01*
X113877703Y-112435841D01*
X113865592Y-112439515D01*
X113850509Y-112441000D01*
X113594291Y-112441000D01*
X113579208Y-112439515D01*
X113567097Y-112435841D01*
X113555937Y-112429876D01*
X113546153Y-112421847D01*
X113538124Y-112412063D01*
X113532159Y-112400903D01*
X113528485Y-112388792D01*
X113527000Y-112373709D01*
X113527000Y-112147491D01*
X113528485Y-112132408D01*
X113532159Y-112120297D01*
X113538124Y-112109137D01*
X113546153Y-112099353D01*
X113555937Y-112091324D01*
X113567097Y-112085359D01*
X113579208Y-112081685D01*
X113594291Y-112080200D01*
X113850509Y-112080200D01*
X113865592Y-112081685D01*
G37*
G36*
X102380992Y-112047485D02*
G01*
X102393103Y-112051159D01*
X102404263Y-112057124D01*
X102414047Y-112065153D01*
X102422076Y-112074937D01*
X102428041Y-112086097D01*
X102431715Y-112098208D01*
X102433200Y-112113291D01*
X102433200Y-112339509D01*
X102431715Y-112354592D01*
X102428041Y-112366703D01*
X102422076Y-112377863D01*
X102414047Y-112387647D01*
X102404263Y-112395676D01*
X102393103Y-112401641D01*
X102380992Y-112405315D01*
X102365909Y-112406800D01*
X102109691Y-112406800D01*
X102094608Y-112405315D01*
X102082497Y-112401641D01*
X102071337Y-112395676D01*
X102061553Y-112387647D01*
X102053524Y-112377863D01*
X102047559Y-112366703D01*
X102043885Y-112354592D01*
X102042400Y-112339509D01*
X102042400Y-112113291D01*
X102043885Y-112098208D01*
X102047559Y-112086097D01*
X102053524Y-112074937D01*
X102061553Y-112065153D01*
X102071337Y-112057124D01*
X102082497Y-112051159D01*
X102094608Y-112047485D01*
X102109691Y-112046000D01*
X102365909Y-112046000D01*
X102380992Y-112047485D01*
G37*
G36*
X105911592Y-112022085D02*
G01*
X105923703Y-112025759D01*
X105934863Y-112031724D01*
X105944647Y-112039753D01*
X105952676Y-112049537D01*
X105958640Y-112060695D01*
X105961088Y-112068765D01*
X105964899Y-112077965D01*
X105970432Y-112086245D01*
X105977473Y-112093287D01*
X105985753Y-112098819D01*
X105994953Y-112102630D01*
X106004720Y-112104573D01*
X106014679Y-112104573D01*
X106024446Y-112102631D01*
X106033646Y-112098820D01*
X106041926Y-112093287D01*
X106048968Y-112086246D01*
X106054500Y-112077966D01*
X106058312Y-112068765D01*
X106060760Y-112060695D01*
X106066724Y-112049537D01*
X106074753Y-112039753D01*
X106084537Y-112031724D01*
X106095697Y-112025759D01*
X106107808Y-112022085D01*
X106122891Y-112020600D01*
X106379109Y-112020600D01*
X106394192Y-112022085D01*
X106406303Y-112025759D01*
X106417463Y-112031724D01*
X106427247Y-112039753D01*
X106435276Y-112049537D01*
X106441241Y-112060697D01*
X106444915Y-112072808D01*
X106446400Y-112087891D01*
X106446400Y-112314109D01*
X106444915Y-112329192D01*
X106441241Y-112341303D01*
X106435276Y-112352463D01*
X106427247Y-112362247D01*
X106417463Y-112370276D01*
X106406303Y-112376241D01*
X106394192Y-112379915D01*
X106379109Y-112381400D01*
X106122891Y-112381400D01*
X106107808Y-112379915D01*
X106095697Y-112376241D01*
X106084537Y-112370276D01*
X106074753Y-112362247D01*
X106066724Y-112352463D01*
X106060760Y-112341305D01*
X106058312Y-112333235D01*
X106054501Y-112324035D01*
X106048968Y-112315755D01*
X106041927Y-112308713D01*
X106033647Y-112303181D01*
X106024447Y-112299370D01*
X106014680Y-112297427D01*
X106004721Y-112297427D01*
X105994954Y-112299369D01*
X105985754Y-112303180D01*
X105977474Y-112308713D01*
X105970432Y-112315754D01*
X105964900Y-112324034D01*
X105961088Y-112333235D01*
X105958640Y-112341305D01*
X105952676Y-112352463D01*
X105944647Y-112362247D01*
X105934863Y-112370276D01*
X105923703Y-112376241D01*
X105911592Y-112379915D01*
X105896509Y-112381400D01*
X105640291Y-112381400D01*
X105625208Y-112379915D01*
X105613097Y-112376241D01*
X105601937Y-112370276D01*
X105592153Y-112362247D01*
X105584124Y-112352463D01*
X105578159Y-112341303D01*
X105574485Y-112329192D01*
X105573000Y-112314109D01*
X105573000Y-112087891D01*
X105574485Y-112072808D01*
X105578159Y-112060697D01*
X105584124Y-112049537D01*
X105592153Y-112039753D01*
X105601937Y-112031724D01*
X105613097Y-112025759D01*
X105625208Y-112022085D01*
X105640291Y-112020600D01*
X105896509Y-112020600D01*
X105911592Y-112022085D01*
G37*
G36*
X107437262Y-111639183D02*
G01*
X107462031Y-111646696D01*
X107484869Y-111658904D01*
X107504877Y-111675323D01*
X107521296Y-111695331D01*
X107533504Y-111718169D01*
X107541017Y-111742938D01*
X107543800Y-111771191D01*
X107543800Y-112182409D01*
X107541017Y-112210662D01*
X107533504Y-112235431D01*
X107521296Y-112258269D01*
X107504877Y-112278277D01*
X107484869Y-112294696D01*
X107462031Y-112306904D01*
X107437262Y-112314417D01*
X107409009Y-112317200D01*
X107047791Y-112317200D01*
X107019538Y-112314417D01*
X106994769Y-112306904D01*
X106971931Y-112294696D01*
X106951923Y-112278277D01*
X106935504Y-112258269D01*
X106923296Y-112235431D01*
X106915783Y-112210662D01*
X106913000Y-112182409D01*
X106913000Y-111771191D01*
X106915783Y-111742938D01*
X106923296Y-111718169D01*
X106935504Y-111695331D01*
X106951923Y-111675323D01*
X106971931Y-111658904D01*
X106994769Y-111646696D01*
X107019538Y-111639183D01*
X107047791Y-111636400D01*
X107409009Y-111636400D01*
X107437262Y-111639183D01*
G37*
G36*
X108327262Y-111639183D02*
G01*
X108352031Y-111646696D01*
X108374869Y-111658904D01*
X108394877Y-111675323D01*
X108411296Y-111695331D01*
X108423504Y-111718169D01*
X108431017Y-111742938D01*
X108433800Y-111771191D01*
X108433800Y-112182409D01*
X108431017Y-112210662D01*
X108423504Y-112235431D01*
X108411296Y-112258269D01*
X108394877Y-112278277D01*
X108374869Y-112294696D01*
X108352031Y-112306904D01*
X108327262Y-112314417D01*
X108299009Y-112317200D01*
X107937791Y-112317200D01*
X107909538Y-112314417D01*
X107884769Y-112306904D01*
X107861931Y-112294696D01*
X107841923Y-112278277D01*
X107825504Y-112258269D01*
X107813296Y-112235431D01*
X107805783Y-112210662D01*
X107803000Y-112182409D01*
X107803000Y-111771191D01*
X107805783Y-111742938D01*
X107813296Y-111718169D01*
X107825504Y-111695331D01*
X107841923Y-111675323D01*
X107861931Y-111658904D01*
X107884769Y-111646696D01*
X107909538Y-111639183D01*
X107937791Y-111636400D01*
X108299009Y-111636400D01*
X108327262Y-111639183D01*
G37*
G36*
X119326592Y-111649885D02*
G01*
X119338703Y-111653559D01*
X119349863Y-111659524D01*
X119359647Y-111667553D01*
X119367676Y-111677337D01*
X119373641Y-111688497D01*
X119377315Y-111700608D01*
X119378800Y-111715691D01*
X119378800Y-111941909D01*
X119377315Y-111956992D01*
X119373641Y-111969103D01*
X119367676Y-111980263D01*
X119359647Y-111990047D01*
X119349863Y-111998076D01*
X119338703Y-112004041D01*
X119326592Y-112007715D01*
X119311509Y-112009200D01*
X119055291Y-112009200D01*
X119040208Y-112007715D01*
X119028097Y-112004041D01*
X119016937Y-111998076D01*
X119007153Y-111990047D01*
X118999124Y-111980263D01*
X118993159Y-111969103D01*
X118989485Y-111956992D01*
X118988000Y-111941909D01*
X118988000Y-111715691D01*
X118989485Y-111700608D01*
X118993159Y-111688497D01*
X118999124Y-111677337D01*
X119007153Y-111667553D01*
X119016937Y-111659524D01*
X119028097Y-111653559D01*
X119040208Y-111649885D01*
X119055291Y-111648400D01*
X119311509Y-111648400D01*
X119326592Y-111649885D01*
G37*
G36*
X118742392Y-111649885D02*
G01*
X118754503Y-111653559D01*
X118765663Y-111659524D01*
X118775447Y-111667553D01*
X118783476Y-111677337D01*
X118789441Y-111688497D01*
X118793115Y-111700608D01*
X118794600Y-111715691D01*
X118794600Y-111941909D01*
X118793115Y-111956992D01*
X118789441Y-111969103D01*
X118783476Y-111980263D01*
X118775447Y-111990047D01*
X118765663Y-111998076D01*
X118754503Y-112004041D01*
X118742392Y-112007715D01*
X118727309Y-112009200D01*
X118471091Y-112009200D01*
X118456008Y-112007715D01*
X118443897Y-112004041D01*
X118432737Y-111998076D01*
X118422953Y-111990047D01*
X118414924Y-111980263D01*
X118408959Y-111969103D01*
X118405285Y-111956992D01*
X118403800Y-111941909D01*
X118403800Y-111715691D01*
X118405285Y-111700608D01*
X118408959Y-111688497D01*
X118414924Y-111677337D01*
X118422953Y-111667553D01*
X118432737Y-111659524D01*
X118443897Y-111653559D01*
X118456008Y-111649885D01*
X118471091Y-111648400D01*
X118727309Y-111648400D01*
X118742392Y-111649885D01*
G37*
G36*
X118225600Y-111991000D02*
G01*
X117499800Y-111991000D01*
X117499800Y-111686200D01*
X118225600Y-111686200D01*
X118225600Y-111991000D01*
G37*
G36*
X114900600Y-111991000D02*
G01*
X114174800Y-111991000D01*
X114174800Y-111686200D01*
X114900600Y-111686200D01*
X114900600Y-111991000D01*
G37*
G36*
X103792792Y-111478085D02*
G01*
X103804903Y-111481759D01*
X103816063Y-111487724D01*
X103825847Y-111495753D01*
X103833876Y-111505537D01*
X103839841Y-111516697D01*
X103843515Y-111528808D01*
X103845000Y-111543891D01*
X103845000Y-111800109D01*
X103843515Y-111815192D01*
X103839841Y-111827303D01*
X103833876Y-111838463D01*
X103825847Y-111848247D01*
X103816063Y-111856276D01*
X103804903Y-111862241D01*
X103792792Y-111865915D01*
X103777709Y-111867400D01*
X103551491Y-111867400D01*
X103536408Y-111865915D01*
X103524297Y-111862241D01*
X103513137Y-111856276D01*
X103503353Y-111848247D01*
X103495324Y-111838463D01*
X103489359Y-111827303D01*
X103485685Y-111815192D01*
X103484200Y-111800109D01*
X103484200Y-111543891D01*
X103485685Y-111528808D01*
X103489359Y-111516697D01*
X103495324Y-111505537D01*
X103503353Y-111495753D01*
X103513137Y-111487724D01*
X103524297Y-111481759D01*
X103536408Y-111478085D01*
X103551491Y-111476600D01*
X103777709Y-111476600D01*
X103792792Y-111478085D01*
G37*
G36*
X105409592Y-111478085D02*
G01*
X105421703Y-111481759D01*
X105432863Y-111487724D01*
X105442647Y-111495753D01*
X105450676Y-111505537D01*
X105456641Y-111516697D01*
X105460315Y-111528808D01*
X105461800Y-111543891D01*
X105461800Y-111800109D01*
X105460315Y-111815192D01*
X105456641Y-111827303D01*
X105450676Y-111838463D01*
X105442647Y-111848247D01*
X105432863Y-111856276D01*
X105421703Y-111862241D01*
X105409592Y-111865915D01*
X105394509Y-111867400D01*
X105168291Y-111867400D01*
X105153208Y-111865915D01*
X105141097Y-111862241D01*
X105129937Y-111856276D01*
X105120153Y-111848247D01*
X105112124Y-111838463D01*
X105106159Y-111827303D01*
X105102485Y-111815192D01*
X105101000Y-111800109D01*
X105101000Y-111543891D01*
X105102485Y-111528808D01*
X105106159Y-111516697D01*
X105112124Y-111505537D01*
X105120153Y-111495753D01*
X105129937Y-111487724D01*
X105141097Y-111481759D01*
X105153208Y-111478085D01*
X105168291Y-111476600D01*
X105394509Y-111476600D01*
X105409592Y-111478085D01*
G37*
G36*
X104342792Y-111478085D02*
G01*
X104354903Y-111481759D01*
X104366063Y-111487724D01*
X104375847Y-111495753D01*
X104383876Y-111505537D01*
X104389841Y-111516697D01*
X104393515Y-111528808D01*
X104395000Y-111543891D01*
X104395000Y-111800109D01*
X104393515Y-111815192D01*
X104389841Y-111827303D01*
X104383876Y-111838463D01*
X104375847Y-111848247D01*
X104366063Y-111856276D01*
X104354903Y-111862241D01*
X104342792Y-111865915D01*
X104327709Y-111867400D01*
X104101491Y-111867400D01*
X104086408Y-111865915D01*
X104074297Y-111862241D01*
X104063137Y-111856276D01*
X104053353Y-111848247D01*
X104045324Y-111838463D01*
X104039359Y-111827303D01*
X104035685Y-111815192D01*
X104034200Y-111800109D01*
X104034200Y-111543891D01*
X104035685Y-111528808D01*
X104039359Y-111516697D01*
X104045324Y-111505537D01*
X104053353Y-111495753D01*
X104063137Y-111487724D01*
X104074297Y-111481759D01*
X104086408Y-111478085D01*
X104101491Y-111476600D01*
X104327709Y-111476600D01*
X104342792Y-111478085D01*
G37*
G36*
X104859592Y-111478085D02*
G01*
X104871703Y-111481759D01*
X104882863Y-111487724D01*
X104892647Y-111495753D01*
X104900676Y-111505537D01*
X104906641Y-111516697D01*
X104910315Y-111528808D01*
X104911800Y-111543891D01*
X104911800Y-111800109D01*
X104910315Y-111815192D01*
X104906641Y-111827303D01*
X104900676Y-111838463D01*
X104892647Y-111848247D01*
X104882863Y-111856276D01*
X104871703Y-111862241D01*
X104859592Y-111865915D01*
X104844509Y-111867400D01*
X104618291Y-111867400D01*
X104603208Y-111865915D01*
X104591097Y-111862241D01*
X104579937Y-111856276D01*
X104570153Y-111848247D01*
X104562124Y-111838463D01*
X104556159Y-111827303D01*
X104552485Y-111815192D01*
X104551000Y-111800109D01*
X104551000Y-111543891D01*
X104552485Y-111528808D01*
X104556159Y-111516697D01*
X104562124Y-111505537D01*
X104570153Y-111495753D01*
X104579937Y-111487724D01*
X104591097Y-111481759D01*
X104603208Y-111478085D01*
X104618291Y-111476600D01*
X104844509Y-111476600D01*
X104859592Y-111478085D01*
G37*
G36*
X102380992Y-111497485D02*
G01*
X102393103Y-111501159D01*
X102404263Y-111507124D01*
X102414047Y-111515153D01*
X102422076Y-111524937D01*
X102428041Y-111536097D01*
X102431715Y-111548208D01*
X102433200Y-111563291D01*
X102433200Y-111789509D01*
X102431715Y-111804592D01*
X102428041Y-111816703D01*
X102422076Y-111827863D01*
X102414047Y-111837647D01*
X102404263Y-111845676D01*
X102393103Y-111851641D01*
X102380992Y-111855315D01*
X102365909Y-111856800D01*
X102109691Y-111856800D01*
X102094608Y-111855315D01*
X102082497Y-111851641D01*
X102071337Y-111845676D01*
X102061553Y-111837647D01*
X102053524Y-111827863D01*
X102047559Y-111816703D01*
X102043885Y-111804592D01*
X102042400Y-111789509D01*
X102042400Y-111563291D01*
X102043885Y-111548208D01*
X102047559Y-111536097D01*
X102053524Y-111524937D01*
X102061553Y-111515153D01*
X102071337Y-111507124D01*
X102082497Y-111501159D01*
X102094608Y-111497485D01*
X102109691Y-111496000D01*
X102365909Y-111496000D01*
X102380992Y-111497485D01*
G37*
G36*
X105911592Y-111472085D02*
G01*
X105923703Y-111475759D01*
X105934863Y-111481724D01*
X105944647Y-111489753D01*
X105952676Y-111499537D01*
X105958640Y-111510695D01*
X105961088Y-111518765D01*
X105964899Y-111527965D01*
X105970432Y-111536245D01*
X105977473Y-111543287D01*
X105985753Y-111548819D01*
X105994953Y-111552630D01*
X106004720Y-111554573D01*
X106014679Y-111554573D01*
X106024446Y-111552631D01*
X106033646Y-111548820D01*
X106041926Y-111543287D01*
X106048968Y-111536246D01*
X106054500Y-111527966D01*
X106058312Y-111518765D01*
X106060760Y-111510695D01*
X106066724Y-111499537D01*
X106074753Y-111489753D01*
X106084537Y-111481724D01*
X106095697Y-111475759D01*
X106107808Y-111472085D01*
X106122891Y-111470600D01*
X106379109Y-111470600D01*
X106394192Y-111472085D01*
X106406303Y-111475759D01*
X106417463Y-111481724D01*
X106427247Y-111489753D01*
X106435276Y-111499537D01*
X106441241Y-111510697D01*
X106444915Y-111522808D01*
X106446400Y-111537891D01*
X106446400Y-111764109D01*
X106444915Y-111779192D01*
X106441241Y-111791303D01*
X106435276Y-111802463D01*
X106427247Y-111812247D01*
X106417463Y-111820276D01*
X106406303Y-111826241D01*
X106394192Y-111829915D01*
X106379109Y-111831400D01*
X106122891Y-111831400D01*
X106107808Y-111829915D01*
X106095697Y-111826241D01*
X106084537Y-111820276D01*
X106074753Y-111812247D01*
X106066724Y-111802463D01*
X106060760Y-111791305D01*
X106058312Y-111783235D01*
X106054501Y-111774035D01*
X106048968Y-111765755D01*
X106041927Y-111758713D01*
X106033647Y-111753181D01*
X106024447Y-111749370D01*
X106014680Y-111747427D01*
X106004721Y-111747427D01*
X105994954Y-111749369D01*
X105985754Y-111753180D01*
X105977474Y-111758713D01*
X105970432Y-111765754D01*
X105964900Y-111774034D01*
X105961088Y-111783235D01*
X105958640Y-111791305D01*
X105952676Y-111802463D01*
X105944647Y-111812247D01*
X105934863Y-111820276D01*
X105923703Y-111826241D01*
X105911592Y-111829915D01*
X105896509Y-111831400D01*
X105640291Y-111831400D01*
X105625208Y-111829915D01*
X105613097Y-111826241D01*
X105601937Y-111820276D01*
X105592153Y-111812247D01*
X105584124Y-111802463D01*
X105578159Y-111791303D01*
X105574485Y-111779192D01*
X105573000Y-111764109D01*
X105573000Y-111537891D01*
X105574485Y-111522808D01*
X105578159Y-111510697D01*
X105584124Y-111499537D01*
X105592153Y-111489753D01*
X105601937Y-111481724D01*
X105613097Y-111475759D01*
X105625208Y-111472085D01*
X105640291Y-111470600D01*
X105896509Y-111470600D01*
X105911592Y-111472085D01*
G37*
G36*
X101015392Y-111427285D02*
G01*
X101027503Y-111430959D01*
X101038663Y-111436924D01*
X101048447Y-111444953D01*
X101056476Y-111454737D01*
X101062441Y-111465897D01*
X101066115Y-111478008D01*
X101067600Y-111493091D01*
X101067600Y-111749309D01*
X101066115Y-111764392D01*
X101062441Y-111776503D01*
X101056476Y-111787663D01*
X101048447Y-111797447D01*
X101038663Y-111805476D01*
X101027503Y-111811441D01*
X101015392Y-111815115D01*
X101000309Y-111816600D01*
X100774091Y-111816600D01*
X100759008Y-111815115D01*
X100746897Y-111811441D01*
X100735737Y-111805476D01*
X100725953Y-111797447D01*
X100717924Y-111787663D01*
X100711959Y-111776503D01*
X100708285Y-111764392D01*
X100706800Y-111749309D01*
X100706800Y-111493091D01*
X100708285Y-111478008D01*
X100711959Y-111465897D01*
X100717924Y-111454737D01*
X100725953Y-111444953D01*
X100735737Y-111436924D01*
X100746897Y-111430959D01*
X100759008Y-111427285D01*
X100774091Y-111425800D01*
X101000309Y-111425800D01*
X101015392Y-111427285D01*
G37*
G36*
X100465392Y-111427285D02*
G01*
X100477503Y-111430959D01*
X100488663Y-111436924D01*
X100498447Y-111444953D01*
X100506476Y-111454737D01*
X100512441Y-111465897D01*
X100516115Y-111478008D01*
X100517600Y-111493091D01*
X100517600Y-111749309D01*
X100516115Y-111764392D01*
X100512441Y-111776503D01*
X100506476Y-111787663D01*
X100498447Y-111797447D01*
X100488663Y-111805476D01*
X100477503Y-111811441D01*
X100465392Y-111815115D01*
X100450309Y-111816600D01*
X100224091Y-111816600D01*
X100209008Y-111815115D01*
X100196897Y-111811441D01*
X100185737Y-111805476D01*
X100175953Y-111797447D01*
X100167924Y-111787663D01*
X100161959Y-111776503D01*
X100158285Y-111764392D01*
X100156800Y-111749309D01*
X100156800Y-111493091D01*
X100158285Y-111478008D01*
X100161959Y-111465897D01*
X100167924Y-111454737D01*
X100175953Y-111444953D01*
X100185737Y-111436924D01*
X100196897Y-111430959D01*
X100209008Y-111427285D01*
X100224091Y-111425800D01*
X100450309Y-111425800D01*
X100465392Y-111427285D01*
G37*
G36*
X99347792Y-111427285D02*
G01*
X99359903Y-111430959D01*
X99371063Y-111436924D01*
X99380847Y-111444953D01*
X99388876Y-111454737D01*
X99394841Y-111465897D01*
X99398515Y-111478008D01*
X99400000Y-111493091D01*
X99400000Y-111749309D01*
X99398515Y-111764392D01*
X99394841Y-111776503D01*
X99388876Y-111787663D01*
X99380847Y-111797447D01*
X99371063Y-111805476D01*
X99359903Y-111811441D01*
X99347792Y-111815115D01*
X99332709Y-111816600D01*
X99106491Y-111816600D01*
X99091408Y-111815115D01*
X99079297Y-111811441D01*
X99068137Y-111805476D01*
X99058353Y-111797447D01*
X99050324Y-111787663D01*
X99044359Y-111776503D01*
X99040685Y-111764392D01*
X99039200Y-111749309D01*
X99039200Y-111493091D01*
X99040685Y-111478008D01*
X99044359Y-111465897D01*
X99050324Y-111454737D01*
X99058353Y-111444953D01*
X99068137Y-111436924D01*
X99079297Y-111430959D01*
X99091408Y-111427285D01*
X99106491Y-111425800D01*
X99332709Y-111425800D01*
X99347792Y-111427285D01*
G37*
G36*
X99897792Y-111427285D02*
G01*
X99909903Y-111430959D01*
X99921063Y-111436924D01*
X99930847Y-111444953D01*
X99938876Y-111454737D01*
X99944841Y-111465897D01*
X99948515Y-111478008D01*
X99950000Y-111493091D01*
X99950000Y-111749309D01*
X99948515Y-111764392D01*
X99944841Y-111776503D01*
X99938876Y-111787663D01*
X99930847Y-111797447D01*
X99921063Y-111805476D01*
X99909903Y-111811441D01*
X99897792Y-111815115D01*
X99882709Y-111816600D01*
X99656491Y-111816600D01*
X99641408Y-111815115D01*
X99629297Y-111811441D01*
X99618137Y-111805476D01*
X99608353Y-111797447D01*
X99600324Y-111787663D01*
X99594359Y-111776503D01*
X99590685Y-111764392D01*
X99589200Y-111749309D01*
X99589200Y-111493091D01*
X99590685Y-111478008D01*
X99594359Y-111465897D01*
X99600324Y-111454737D01*
X99608353Y-111444953D01*
X99618137Y-111436924D01*
X99629297Y-111430959D01*
X99641408Y-111427285D01*
X99656491Y-111425800D01*
X99882709Y-111425800D01*
X99897792Y-111427285D01*
G37*
G36*
X116602600Y-111564000D02*
G01*
X116297800Y-111564000D01*
X116297800Y-110838200D01*
X116602600Y-110838200D01*
X116602600Y-111564000D01*
G37*
G36*
X115602600Y-111564000D02*
G01*
X115297800Y-111564000D01*
X115297800Y-110838200D01*
X115602600Y-110838200D01*
X115602600Y-111564000D01*
G37*
G36*
X117102600Y-111564000D02*
G01*
X116797800Y-111564000D01*
X116797800Y-110838200D01*
X117102600Y-110838200D01*
X117102600Y-111564000D01*
G37*
G36*
X116102600Y-111564000D02*
G01*
X115797800Y-111564000D01*
X115797800Y-110838200D01*
X116102600Y-110838200D01*
X116102600Y-111564000D01*
G37*
G36*
X118225600Y-111491000D02*
G01*
X117499800Y-111491000D01*
X117499800Y-111186200D01*
X118225600Y-111186200D01*
X118225600Y-111491000D01*
G37*
G36*
X114900600Y-111491000D02*
G01*
X114174800Y-111491000D01*
X114174800Y-111186200D01*
X114900600Y-111186200D01*
X114900600Y-111491000D01*
G37*
G36*
X102380992Y-110955285D02*
G01*
X102393103Y-110958959D01*
X102404263Y-110964924D01*
X102414047Y-110972953D01*
X102422076Y-110982737D01*
X102428041Y-110993897D01*
X102431715Y-111006008D01*
X102433200Y-111021091D01*
X102433200Y-111247309D01*
X102431715Y-111262392D01*
X102428041Y-111274503D01*
X102422076Y-111285663D01*
X102414047Y-111295447D01*
X102404263Y-111303476D01*
X102393103Y-111309441D01*
X102380992Y-111313115D01*
X102365909Y-111314600D01*
X102109691Y-111314600D01*
X102094608Y-111313115D01*
X102082497Y-111309441D01*
X102071337Y-111303476D01*
X102061553Y-111295447D01*
X102053524Y-111285663D01*
X102047559Y-111274503D01*
X102043885Y-111262392D01*
X102042400Y-111247309D01*
X102042400Y-111021091D01*
X102043885Y-111006008D01*
X102047559Y-110993897D01*
X102053524Y-110982737D01*
X102061553Y-110972953D01*
X102071337Y-110964924D01*
X102082497Y-110958959D01*
X102094608Y-110955285D01*
X102109691Y-110953800D01*
X102365909Y-110953800D01*
X102380992Y-110955285D01*
G37*
G36*
X103347478Y-110276471D02*
G01*
X103386792Y-110288397D01*
X103423023Y-110307763D01*
X103454777Y-110333823D01*
X103480837Y-110365577D01*
X103500203Y-110401808D01*
X103512129Y-110441122D01*
X103516400Y-110484491D01*
X103516400Y-111030709D01*
X103512129Y-111074078D01*
X103500203Y-111113392D01*
X103480837Y-111149623D01*
X103454777Y-111181377D01*
X103423023Y-111207437D01*
X103386792Y-111226803D01*
X103347478Y-111238729D01*
X103304109Y-111243000D01*
X102787891Y-111243000D01*
X102744522Y-111238729D01*
X102705208Y-111226803D01*
X102668977Y-111207437D01*
X102637223Y-111181377D01*
X102611163Y-111149623D01*
X102591797Y-111113392D01*
X102579871Y-111074078D01*
X102575600Y-111030709D01*
X102575600Y-110484491D01*
X102579871Y-110441122D01*
X102591797Y-110401808D01*
X102611163Y-110365577D01*
X102637223Y-110333823D01*
X102668977Y-110307763D01*
X102705208Y-110288397D01*
X102744522Y-110276471D01*
X102787891Y-110272200D01*
X103304109Y-110272200D01*
X103347478Y-110276471D01*
G37*
G36*
X104677478Y-110276471D02*
G01*
X104716792Y-110288397D01*
X104753023Y-110307763D01*
X104784777Y-110333823D01*
X104810837Y-110365577D01*
X104830203Y-110401808D01*
X104842129Y-110441122D01*
X104846400Y-110484491D01*
X104846400Y-111030709D01*
X104842129Y-111074078D01*
X104830203Y-111113392D01*
X104810837Y-111149623D01*
X104784777Y-111181377D01*
X104753023Y-111207437D01*
X104716792Y-111226803D01*
X104677478Y-111238729D01*
X104634109Y-111243000D01*
X104117891Y-111243000D01*
X104074522Y-111238729D01*
X104035208Y-111226803D01*
X103998977Y-111207437D01*
X103967223Y-111181377D01*
X103941163Y-111149623D01*
X103921797Y-111113392D01*
X103909871Y-111074078D01*
X103905600Y-111030709D01*
X103905600Y-110484491D01*
X103909871Y-110441122D01*
X103921797Y-110401808D01*
X103941163Y-110365577D01*
X103967223Y-110333823D01*
X103998977Y-110307763D01*
X104035208Y-110288397D01*
X104074522Y-110276471D01*
X104117891Y-110272200D01*
X104634109Y-110272200D01*
X104677478Y-110276471D01*
G37*
G36*
X107157780Y-110301088D02*
G01*
X107193337Y-110311874D01*
X107226110Y-110329391D01*
X107254835Y-110352965D01*
X107278409Y-110381690D01*
X107295926Y-110414463D01*
X107306712Y-110450020D01*
X107310600Y-110489491D01*
X107310600Y-111025709D01*
X107306712Y-111065180D01*
X107295926Y-111100737D01*
X107278409Y-111133510D01*
X107254835Y-111162235D01*
X107226110Y-111185809D01*
X107193337Y-111203326D01*
X107157780Y-111214112D01*
X107118309Y-111218000D01*
X106642091Y-111218000D01*
X106602620Y-111214112D01*
X106567063Y-111203326D01*
X106534290Y-111185809D01*
X106505565Y-111162235D01*
X106481991Y-111133510D01*
X106464474Y-111100737D01*
X106453688Y-111065180D01*
X106449800Y-111025709D01*
X106449800Y-110489491D01*
X106453688Y-110450020D01*
X106464474Y-110414463D01*
X106481991Y-110381690D01*
X106505565Y-110352965D01*
X106534290Y-110329391D01*
X106567063Y-110311874D01*
X106602620Y-110301088D01*
X106642091Y-110297200D01*
X107118309Y-110297200D01*
X107157780Y-110301088D01*
G37*
G36*
X105797780Y-110301088D02*
G01*
X105833337Y-110311874D01*
X105866110Y-110329391D01*
X105894835Y-110352965D01*
X105918409Y-110381690D01*
X105935926Y-110414463D01*
X105946712Y-110450020D01*
X105950600Y-110489491D01*
X105950600Y-111025709D01*
X105946712Y-111065180D01*
X105935926Y-111100737D01*
X105918409Y-111133510D01*
X105894835Y-111162235D01*
X105866110Y-111185809D01*
X105833337Y-111203326D01*
X105797780Y-111214112D01*
X105758309Y-111218000D01*
X105282091Y-111218000D01*
X105242620Y-111214112D01*
X105207063Y-111203326D01*
X105174290Y-111185809D01*
X105145565Y-111162235D01*
X105121991Y-111133510D01*
X105104474Y-111100737D01*
X105093688Y-111065180D01*
X105089800Y-111025709D01*
X105089800Y-110489491D01*
X105093688Y-110450020D01*
X105104474Y-110414463D01*
X105121991Y-110381690D01*
X105145565Y-110352965D01*
X105174290Y-110329391D01*
X105207063Y-110311874D01*
X105242620Y-110301088D01*
X105282091Y-110297200D01*
X105758309Y-110297200D01*
X105797780Y-110301088D01*
G37*
G36*
X100019400Y-111145800D02*
G01*
X98978600Y-111145800D01*
X98978600Y-110755000D01*
X100019400Y-110755000D01*
X100019400Y-111145800D01*
G37*
G36*
X101839400Y-111145800D02*
G01*
X100798600Y-111145800D01*
X100798600Y-110755000D01*
X101839400Y-110755000D01*
X101839400Y-111145800D01*
G37*
G36*
X102380992Y-110405285D02*
G01*
X102393103Y-110408959D01*
X102404263Y-110414924D01*
X102414047Y-110422953D01*
X102422076Y-110432737D01*
X102428041Y-110443897D01*
X102431715Y-110456008D01*
X102433200Y-110471091D01*
X102433200Y-110697309D01*
X102431715Y-110712392D01*
X102428041Y-110724503D01*
X102422076Y-110735663D01*
X102414047Y-110745447D01*
X102404263Y-110753476D01*
X102393103Y-110759441D01*
X102380992Y-110763115D01*
X102365909Y-110764600D01*
X102109691Y-110764600D01*
X102094608Y-110763115D01*
X102082497Y-110759441D01*
X102071337Y-110753476D01*
X102061553Y-110745447D01*
X102053524Y-110735663D01*
X102047559Y-110724503D01*
X102043885Y-110712392D01*
X102042400Y-110697309D01*
X102042400Y-110471091D01*
X102043885Y-110456008D01*
X102047559Y-110443897D01*
X102053524Y-110432737D01*
X102061553Y-110422953D01*
X102071337Y-110414924D01*
X102082497Y-110408959D01*
X102094608Y-110405285D01*
X102109691Y-110403800D01*
X102365909Y-110403800D01*
X102380992Y-110405285D01*
G37*
G36*
X117366392Y-110179885D02*
G01*
X117378503Y-110183559D01*
X117389663Y-110189524D01*
X117399447Y-110197553D01*
X117407476Y-110207337D01*
X117413441Y-110218497D01*
X117417115Y-110230608D01*
X117418600Y-110245691D01*
X117418600Y-110501909D01*
X117417115Y-110516992D01*
X117413441Y-110529103D01*
X117407476Y-110540263D01*
X117399447Y-110550047D01*
X117389663Y-110558076D01*
X117378503Y-110564041D01*
X117366392Y-110567715D01*
X117351309Y-110569200D01*
X117125091Y-110569200D01*
X117110008Y-110567715D01*
X117097897Y-110564041D01*
X117086737Y-110558076D01*
X117076953Y-110550047D01*
X117068924Y-110540263D01*
X117062959Y-110529103D01*
X117059285Y-110516992D01*
X117057800Y-110501909D01*
X117057800Y-110245691D01*
X117059285Y-110230608D01*
X117062959Y-110218497D01*
X117068924Y-110207337D01*
X117076953Y-110197553D01*
X117086737Y-110189524D01*
X117097897Y-110183559D01*
X117110008Y-110179885D01*
X117125091Y-110178400D01*
X117351309Y-110178400D01*
X117366392Y-110179885D01*
G37*
G36*
X115724192Y-110179885D02*
G01*
X115736303Y-110183559D01*
X115747463Y-110189524D01*
X115757247Y-110197553D01*
X115765276Y-110207337D01*
X115771241Y-110218497D01*
X115774915Y-110230608D01*
X115776400Y-110245691D01*
X115776400Y-110501909D01*
X115774915Y-110516992D01*
X115771241Y-110529103D01*
X115765276Y-110540263D01*
X115757247Y-110550047D01*
X115747463Y-110558076D01*
X115736303Y-110564041D01*
X115724192Y-110567715D01*
X115709109Y-110569200D01*
X115482891Y-110569200D01*
X115467808Y-110567715D01*
X115455697Y-110564041D01*
X115444537Y-110558076D01*
X115434753Y-110550047D01*
X115426724Y-110540263D01*
X115420759Y-110529103D01*
X115417085Y-110516992D01*
X115415600Y-110501909D01*
X115415600Y-110245691D01*
X115417085Y-110230608D01*
X115420759Y-110218497D01*
X115426724Y-110207337D01*
X115434753Y-110197553D01*
X115444537Y-110189524D01*
X115455697Y-110183559D01*
X115467808Y-110179885D01*
X115482891Y-110178400D01*
X115709109Y-110178400D01*
X115724192Y-110179885D01*
G37*
G36*
X116274192Y-110179885D02*
G01*
X116286303Y-110183559D01*
X116297463Y-110189524D01*
X116307247Y-110197553D01*
X116315276Y-110207337D01*
X116321241Y-110218497D01*
X116324915Y-110230608D01*
X116326400Y-110245691D01*
X116326400Y-110501909D01*
X116324915Y-110516992D01*
X116321241Y-110529103D01*
X116315276Y-110540263D01*
X116307247Y-110550047D01*
X116297463Y-110558076D01*
X116286303Y-110564041D01*
X116274192Y-110567715D01*
X116259109Y-110569200D01*
X116032891Y-110569200D01*
X116017808Y-110567715D01*
X116005697Y-110564041D01*
X115994537Y-110558076D01*
X115984753Y-110550047D01*
X115976724Y-110540263D01*
X115970759Y-110529103D01*
X115967085Y-110516992D01*
X115965600Y-110501909D01*
X115965600Y-110245691D01*
X115967085Y-110230608D01*
X115970759Y-110218497D01*
X115976724Y-110207337D01*
X115984753Y-110197553D01*
X115994537Y-110189524D01*
X116005697Y-110183559D01*
X116017808Y-110179885D01*
X116032891Y-110178400D01*
X116259109Y-110178400D01*
X116274192Y-110179885D01*
G37*
G36*
X116816392Y-110179885D02*
G01*
X116828503Y-110183559D01*
X116839663Y-110189524D01*
X116849447Y-110197553D01*
X116857476Y-110207337D01*
X116863441Y-110218497D01*
X116867115Y-110230608D01*
X116868600Y-110245691D01*
X116868600Y-110501909D01*
X116867115Y-110516992D01*
X116863441Y-110529103D01*
X116857476Y-110540263D01*
X116849447Y-110550047D01*
X116839663Y-110558076D01*
X116828503Y-110564041D01*
X116816392Y-110567715D01*
X116801309Y-110569200D01*
X116575091Y-110569200D01*
X116560008Y-110567715D01*
X116547897Y-110564041D01*
X116536737Y-110558076D01*
X116526953Y-110550047D01*
X116518924Y-110540263D01*
X116512959Y-110529103D01*
X116509285Y-110516992D01*
X116507800Y-110501909D01*
X116507800Y-110245691D01*
X116509285Y-110230608D01*
X116512959Y-110218497D01*
X116518924Y-110207337D01*
X116526953Y-110197553D01*
X116536737Y-110189524D01*
X116547897Y-110183559D01*
X116560008Y-110179885D01*
X116575091Y-110178400D01*
X116801309Y-110178400D01*
X116816392Y-110179885D01*
G37*
G36*
X101839400Y-110495800D02*
G01*
X100798600Y-110495800D01*
X100798600Y-110105000D01*
X101839400Y-110105000D01*
X101839400Y-110495800D01*
G37*
G36*
X114256474Y-109849498D02*
G01*
X114310924Y-109872052D01*
X114359929Y-109904796D01*
X114401604Y-109946471D01*
X114434348Y-109995476D01*
X114456902Y-110049926D01*
X114468400Y-110107731D01*
X114468400Y-110166669D01*
X114456902Y-110224474D01*
X114434348Y-110278924D01*
X114401604Y-110327929D01*
X114359929Y-110369604D01*
X114310924Y-110402348D01*
X114256474Y-110424902D01*
X114198669Y-110436400D01*
X114139731Y-110436400D01*
X114081926Y-110424902D01*
X114027476Y-110402348D01*
X113978471Y-110369604D01*
X113936796Y-110327929D01*
X113904052Y-110278924D01*
X113881498Y-110224474D01*
X113870000Y-110166669D01*
X113870000Y-110107731D01*
X113881498Y-110049926D01*
X113904052Y-109995476D01*
X113936796Y-109946471D01*
X113978471Y-109904796D01*
X114027476Y-109872052D01*
X114081926Y-109849498D01*
X114139731Y-109838000D01*
X114198669Y-109838000D01*
X114256474Y-109849498D01*
G37*
G36*
X102380992Y-109863085D02*
G01*
X102393103Y-109866759D01*
X102404263Y-109872724D01*
X102414047Y-109880753D01*
X102422076Y-109890537D01*
X102428041Y-109901697D01*
X102431715Y-109913808D01*
X102433200Y-109928891D01*
X102433200Y-110155109D01*
X102431715Y-110170192D01*
X102428041Y-110182303D01*
X102422076Y-110193463D01*
X102414047Y-110203247D01*
X102404263Y-110211276D01*
X102393103Y-110217241D01*
X102380992Y-110220915D01*
X102365909Y-110222400D01*
X102109691Y-110222400D01*
X102094608Y-110220915D01*
X102082497Y-110217241D01*
X102071337Y-110211276D01*
X102061553Y-110203247D01*
X102053524Y-110193463D01*
X102047559Y-110182303D01*
X102043885Y-110170192D01*
X102042400Y-110155109D01*
X102042400Y-109928891D01*
X102043885Y-109913808D01*
X102047559Y-109901697D01*
X102053524Y-109890537D01*
X102061553Y-109880753D01*
X102071337Y-109872724D01*
X102082497Y-109866759D01*
X102094608Y-109863085D01*
X102109691Y-109861600D01*
X102365909Y-109861600D01*
X102380992Y-109863085D01*
G37*
G36*
X105912000Y-110142400D02*
G01*
X105461200Y-110142400D01*
X105461200Y-109841600D01*
X105912000Y-109841600D01*
X105912000Y-110142400D01*
G37*
G36*
X105212000Y-110142400D02*
G01*
X104761200Y-110142400D01*
X104761200Y-109391600D01*
X105212000Y-109391600D01*
X105212000Y-110142400D01*
G37*
G36*
X103514050Y-109261231D02*
G01*
X103539288Y-109268887D01*
X103562555Y-109281323D01*
X103582944Y-109298056D01*
X103599677Y-109318445D01*
X103612113Y-109341712D01*
X103619769Y-109366950D01*
X103622600Y-109395691D01*
X103622600Y-109811909D01*
X103619769Y-109840650D01*
X103612113Y-109865888D01*
X103599677Y-109889155D01*
X103582944Y-109909544D01*
X103562555Y-109926277D01*
X103539288Y-109938713D01*
X103514050Y-109946369D01*
X103485309Y-109949200D01*
X103119091Y-109949200D01*
X103090350Y-109946369D01*
X103065112Y-109938713D01*
X103041845Y-109926277D01*
X103021456Y-109909544D01*
X103004723Y-109889155D01*
X102992287Y-109865888D01*
X102984631Y-109840650D01*
X102981800Y-109811909D01*
X102981800Y-109395691D01*
X102984631Y-109366950D01*
X102992287Y-109341712D01*
X103004723Y-109318445D01*
X103021456Y-109298056D01*
X103041845Y-109281323D01*
X103065112Y-109268887D01*
X103090350Y-109261231D01*
X103119091Y-109258400D01*
X103485309Y-109258400D01*
X103514050Y-109261231D01*
G37*
G36*
X104484050Y-109261231D02*
G01*
X104509288Y-109268887D01*
X104532555Y-109281323D01*
X104552944Y-109298056D01*
X104569677Y-109318445D01*
X104582113Y-109341712D01*
X104589769Y-109366950D01*
X104592600Y-109395691D01*
X104592600Y-109811909D01*
X104589769Y-109840650D01*
X104582113Y-109865888D01*
X104569677Y-109889155D01*
X104552944Y-109909544D01*
X104532555Y-109926277D01*
X104509288Y-109938713D01*
X104484050Y-109946369D01*
X104455309Y-109949200D01*
X104089091Y-109949200D01*
X104060350Y-109946369D01*
X104035112Y-109938713D01*
X104011845Y-109926277D01*
X103991456Y-109909544D01*
X103974723Y-109889155D01*
X103962287Y-109865888D01*
X103954631Y-109840650D01*
X103951800Y-109811909D01*
X103951800Y-109395691D01*
X103954631Y-109366950D01*
X103962287Y-109341712D01*
X103974723Y-109318445D01*
X103991456Y-109298056D01*
X104011845Y-109281323D01*
X104035112Y-109268887D01*
X104060350Y-109261231D01*
X104089091Y-109258400D01*
X104455309Y-109258400D01*
X104484050Y-109261231D01*
G37*
G36*
X101839400Y-109845800D02*
G01*
X100798600Y-109845800D01*
X100798600Y-109455000D01*
X101839400Y-109455000D01*
X101839400Y-109845800D01*
G37*
G36*
X100019400Y-109845800D02*
G01*
X98978600Y-109845800D01*
X98978600Y-109455000D01*
X100019400Y-109455000D01*
X100019400Y-109845800D01*
G37*
G36*
X107441592Y-109446085D02*
G01*
X107453703Y-109449759D01*
X107464863Y-109455724D01*
X107474647Y-109463753D01*
X107482676Y-109473537D01*
X107488641Y-109484697D01*
X107492315Y-109496808D01*
X107493800Y-109511891D01*
X107493800Y-109768109D01*
X107492315Y-109783192D01*
X107488641Y-109795303D01*
X107482676Y-109806463D01*
X107474647Y-109816247D01*
X107464863Y-109824276D01*
X107453703Y-109830241D01*
X107441592Y-109833915D01*
X107426509Y-109835400D01*
X107200291Y-109835400D01*
X107185208Y-109833915D01*
X107173097Y-109830241D01*
X107161937Y-109824276D01*
X107152153Y-109816247D01*
X107144124Y-109806463D01*
X107138159Y-109795303D01*
X107134485Y-109783192D01*
X107133000Y-109768109D01*
X107133000Y-109511891D01*
X107134485Y-109496808D01*
X107138159Y-109484697D01*
X107144124Y-109473537D01*
X107152153Y-109463753D01*
X107161937Y-109455724D01*
X107173097Y-109449759D01*
X107185208Y-109446085D01*
X107200291Y-109444600D01*
X107426509Y-109444600D01*
X107441592Y-109446085D01*
G37*
G36*
X106891592Y-109446085D02*
G01*
X106903703Y-109449759D01*
X106914863Y-109455724D01*
X106924647Y-109463753D01*
X106932676Y-109473537D01*
X106938641Y-109484697D01*
X106942315Y-109496808D01*
X106943800Y-109511891D01*
X106943800Y-109768109D01*
X106942315Y-109783192D01*
X106938641Y-109795303D01*
X106932676Y-109806463D01*
X106924647Y-109816247D01*
X106914863Y-109824276D01*
X106903703Y-109830241D01*
X106891592Y-109833915D01*
X106876509Y-109835400D01*
X106650291Y-109835400D01*
X106635208Y-109833915D01*
X106623097Y-109830241D01*
X106611937Y-109824276D01*
X106602153Y-109816247D01*
X106594124Y-109806463D01*
X106588159Y-109795303D01*
X106584485Y-109783192D01*
X106583000Y-109768109D01*
X106583000Y-109511891D01*
X106584485Y-109496808D01*
X106588159Y-109484697D01*
X106594124Y-109473537D01*
X106602153Y-109463753D01*
X106611937Y-109455724D01*
X106623097Y-109449759D01*
X106635208Y-109446085D01*
X106650291Y-109444600D01*
X106876509Y-109444600D01*
X106891592Y-109446085D01*
G37*
G36*
X105912000Y-109692400D02*
G01*
X105461200Y-109692400D01*
X105461200Y-109391600D01*
X105912000Y-109391600D01*
X105912000Y-109692400D01*
G37*
G36*
X102380992Y-109313085D02*
G01*
X102393103Y-109316759D01*
X102404263Y-109322724D01*
X102414047Y-109330753D01*
X102422076Y-109340537D01*
X102428041Y-109351697D01*
X102431715Y-109363808D01*
X102433200Y-109378891D01*
X102433200Y-109605109D01*
X102431715Y-109620192D01*
X102428041Y-109632303D01*
X102422076Y-109643463D01*
X102414047Y-109653247D01*
X102404263Y-109661276D01*
X102393103Y-109667241D01*
X102380992Y-109670915D01*
X102365909Y-109672400D01*
X102109691Y-109672400D01*
X102094608Y-109670915D01*
X102082497Y-109667241D01*
X102071337Y-109661276D01*
X102061553Y-109653247D01*
X102053524Y-109643463D01*
X102047559Y-109632303D01*
X102043885Y-109620192D01*
X102042400Y-109605109D01*
X102042400Y-109378891D01*
X102043885Y-109363808D01*
X102047559Y-109351697D01*
X102053524Y-109340537D01*
X102061553Y-109330753D01*
X102071337Y-109322724D01*
X102082497Y-109316759D01*
X102094608Y-109313085D01*
X102109691Y-109311600D01*
X102365909Y-109311600D01*
X102380992Y-109313085D01*
G37*
G36*
X103446400Y-102111200D02*
G01*
X103175600Y-102111200D01*
X103175600Y-101450400D01*
X103446400Y-101450400D01*
X103446400Y-102111200D01*
G37*
G36*
X103846400Y-102111200D02*
G01*
X103575600Y-102111200D01*
X103575600Y-101450400D01*
X103846400Y-101450400D01*
X103846400Y-102111200D01*
G37*
G36*
X104246400Y-102111200D02*
G01*
X103975600Y-102111200D01*
X103975600Y-101450400D01*
X104246400Y-101450400D01*
X104246400Y-102111200D01*
G37*
G36*
X103046400Y-102111200D02*
G01*
X102775600Y-102111200D01*
X102775600Y-101450400D01*
X103046400Y-101450400D01*
X103046400Y-102111200D01*
G37*
G36*
X104646400Y-102111200D02*
G01*
X104375600Y-102111200D01*
X104375600Y-101450400D01*
X104646400Y-101450400D01*
X104646400Y-102111200D01*
G37*
G36*
X105523992Y-101046485D02*
G01*
X105536103Y-101050159D01*
X105547263Y-101056124D01*
X105557047Y-101064153D01*
X105565076Y-101073937D01*
X105571041Y-101085097D01*
X105574715Y-101097208D01*
X105576200Y-101112291D01*
X105576200Y-101338509D01*
X105574715Y-101353592D01*
X105571041Y-101365703D01*
X105565076Y-101376863D01*
X105557047Y-101386647D01*
X105547263Y-101394676D01*
X105536103Y-101400641D01*
X105523992Y-101404315D01*
X105508909Y-101405800D01*
X105252691Y-101405800D01*
X105237608Y-101404315D01*
X105225497Y-101400641D01*
X105214337Y-101394676D01*
X105204553Y-101386647D01*
X105196524Y-101376863D01*
X105190559Y-101365703D01*
X105186885Y-101353592D01*
X105185400Y-101338509D01*
X105185400Y-101112291D01*
X105186885Y-101097208D01*
X105190559Y-101085097D01*
X105196524Y-101073937D01*
X105204553Y-101064153D01*
X105214337Y-101056124D01*
X105225497Y-101050159D01*
X105237608Y-101046485D01*
X105252691Y-101045000D01*
X105508909Y-101045000D01*
X105523992Y-101046485D01*
G37*
G36*
X102196592Y-101021085D02*
G01*
X102208703Y-101024759D01*
X102219863Y-101030724D01*
X102229647Y-101038753D01*
X102237676Y-101048537D01*
X102243641Y-101059697D01*
X102247315Y-101071808D01*
X102248800Y-101086891D01*
X102248800Y-101313109D01*
X102247315Y-101328192D01*
X102243641Y-101340303D01*
X102237676Y-101351463D01*
X102229647Y-101361247D01*
X102219863Y-101369276D01*
X102208703Y-101375241D01*
X102196592Y-101378915D01*
X102181509Y-101380400D01*
X101925291Y-101380400D01*
X101910208Y-101378915D01*
X101898097Y-101375241D01*
X101886937Y-101369276D01*
X101877153Y-101361247D01*
X101869124Y-101351463D01*
X101863159Y-101340303D01*
X101859485Y-101328192D01*
X101858000Y-101313109D01*
X101858000Y-101086891D01*
X101859485Y-101071808D01*
X101863159Y-101059697D01*
X101869124Y-101048537D01*
X101877153Y-101038753D01*
X101886937Y-101030724D01*
X101898097Y-101024759D01*
X101910208Y-101021085D01*
X101925291Y-101019600D01*
X102181509Y-101019600D01*
X102196592Y-101021085D01*
G37*
G36*
X103196400Y-101271200D02*
G01*
X102535600Y-101271200D01*
X102535600Y-101000400D01*
X103196400Y-101000400D01*
X103196400Y-101271200D01*
G37*
G36*
X104886400Y-101271200D02*
G01*
X104225600Y-101271200D01*
X104225600Y-101000400D01*
X104886400Y-101000400D01*
X104886400Y-101271200D01*
G37*
G36*
X103196400Y-100871200D02*
G01*
X102535600Y-100871200D01*
X102535600Y-100600400D01*
X103196400Y-100600400D01*
X103196400Y-100871200D01*
G37*
G36*
X104886400Y-100871200D02*
G01*
X104225600Y-100871200D01*
X104225600Y-100600400D01*
X104886400Y-100600400D01*
X104886400Y-100871200D01*
G37*
G36*
X105523992Y-100496485D02*
G01*
X105536103Y-100500159D01*
X105547263Y-100506124D01*
X105557047Y-100514153D01*
X105565076Y-100523937D01*
X105571041Y-100535097D01*
X105574715Y-100547208D01*
X105576200Y-100562291D01*
X105576200Y-100788509D01*
X105574715Y-100803592D01*
X105571041Y-100815703D01*
X105565076Y-100826863D01*
X105557047Y-100836647D01*
X105547263Y-100844676D01*
X105536103Y-100850641D01*
X105523992Y-100854315D01*
X105508909Y-100855800D01*
X105252691Y-100855800D01*
X105237608Y-100854315D01*
X105225497Y-100850641D01*
X105214337Y-100844676D01*
X105204553Y-100836647D01*
X105196524Y-100826863D01*
X105190559Y-100815703D01*
X105186885Y-100803592D01*
X105185400Y-100788509D01*
X105185400Y-100562291D01*
X105186885Y-100547208D01*
X105190559Y-100535097D01*
X105196524Y-100523937D01*
X105204553Y-100514153D01*
X105214337Y-100506124D01*
X105225497Y-100500159D01*
X105237608Y-100496485D01*
X105252691Y-100495000D01*
X105508909Y-100495000D01*
X105523992Y-100496485D01*
G37*
G36*
X102196592Y-100471085D02*
G01*
X102208703Y-100474759D01*
X102219863Y-100480724D01*
X102229647Y-100488753D01*
X102237676Y-100498537D01*
X102243641Y-100509697D01*
X102247315Y-100521808D01*
X102248800Y-100536891D01*
X102248800Y-100763109D01*
X102247315Y-100778192D01*
X102243641Y-100790303D01*
X102237676Y-100801463D01*
X102229647Y-100811247D01*
X102219863Y-100819276D01*
X102208703Y-100825241D01*
X102196592Y-100828915D01*
X102181509Y-100830400D01*
X101925291Y-100830400D01*
X101910208Y-100828915D01*
X101898097Y-100825241D01*
X101886937Y-100819276D01*
X101877153Y-100811247D01*
X101869124Y-100801463D01*
X101863159Y-100790303D01*
X101859485Y-100778192D01*
X101858000Y-100763109D01*
X101858000Y-100536891D01*
X101859485Y-100521808D01*
X101863159Y-100509697D01*
X101869124Y-100498537D01*
X101877153Y-100488753D01*
X101886937Y-100480724D01*
X101898097Y-100474759D01*
X101910208Y-100471085D01*
X101925291Y-100469600D01*
X102181509Y-100469600D01*
X102196592Y-100471085D01*
G37*
G36*
X100403254Y-99494791D02*
G01*
X100498868Y-99534395D01*
X100533291Y-99557396D01*
X100584923Y-99591895D01*
X100658105Y-99665077D01*
X100692604Y-99716709D01*
X100715605Y-99751132D01*
X100755209Y-99846746D01*
X100775400Y-99948252D01*
X100775400Y-100051748D01*
X100755209Y-100153254D01*
X100715605Y-100248868D01*
X100692604Y-100283291D01*
X100658105Y-100334923D01*
X100584923Y-100408105D01*
X100533291Y-100442604D01*
X100498868Y-100465605D01*
X100403254Y-100505209D01*
X100301748Y-100525400D01*
X100198252Y-100525400D01*
X100096746Y-100505209D01*
X100001132Y-100465605D01*
X99966709Y-100442604D01*
X99915077Y-100408105D01*
X99841895Y-100334923D01*
X99807396Y-100283291D01*
X99784395Y-100248868D01*
X99744791Y-100153254D01*
X99724600Y-100051748D01*
X99724600Y-99948252D01*
X99744791Y-99846746D01*
X99784395Y-99751132D01*
X99807396Y-99716709D01*
X99841895Y-99665077D01*
X99915077Y-99591895D01*
X99966709Y-99557396D01*
X100001132Y-99534395D01*
X100096746Y-99494791D01*
X100198252Y-99474600D01*
X100301748Y-99474600D01*
X100403254Y-99494791D01*
G37*
G36*
X107403254Y-99494791D02*
G01*
X107498868Y-99534395D01*
X107533291Y-99557396D01*
X107584923Y-99591895D01*
X107658105Y-99665077D01*
X107692604Y-99716709D01*
X107715605Y-99751132D01*
X107755209Y-99846746D01*
X107775400Y-99948252D01*
X107775400Y-100051748D01*
X107755209Y-100153254D01*
X107715605Y-100248868D01*
X107692604Y-100283291D01*
X107658105Y-100334923D01*
X107584923Y-100408105D01*
X107533291Y-100442604D01*
X107498868Y-100465605D01*
X107403254Y-100505209D01*
X107301748Y-100525400D01*
X107198252Y-100525400D01*
X107096746Y-100505209D01*
X107001132Y-100465605D01*
X106966709Y-100442604D01*
X106915077Y-100408105D01*
X106841895Y-100334923D01*
X106807396Y-100283291D01*
X106784395Y-100248868D01*
X106744791Y-100153254D01*
X106724600Y-100051748D01*
X106724600Y-99948252D01*
X106744791Y-99846746D01*
X106784395Y-99751132D01*
X106807396Y-99716709D01*
X106841895Y-99665077D01*
X106915077Y-99591895D01*
X106966709Y-99557396D01*
X107001132Y-99534395D01*
X107096746Y-99494791D01*
X107198252Y-99474600D01*
X107301748Y-99474600D01*
X107403254Y-99494791D01*
G37*
G36*
X103046400Y-100421200D02*
G01*
X102775600Y-100421200D01*
X102775600Y-99760400D01*
X103046400Y-99760400D01*
X103046400Y-100421200D01*
G37*
G36*
X103846400Y-100421200D02*
G01*
X103575600Y-100421200D01*
X103575600Y-99760400D01*
X103846400Y-99760400D01*
X103846400Y-100421200D01*
G37*
G36*
X103446400Y-100421200D02*
G01*
X103175600Y-100421200D01*
X103175600Y-99760400D01*
X103446400Y-99760400D01*
X103446400Y-100421200D01*
G37*
G36*
X104246400Y-100421200D02*
G01*
X103975600Y-100421200D01*
X103975600Y-99760400D01*
X104246400Y-99760400D01*
X104246400Y-100421200D01*
G37*
G36*
X104646400Y-100421200D02*
G01*
X104375600Y-100421200D01*
X104375600Y-99760400D01*
X104646400Y-99760400D01*
X104646400Y-100421200D01*
G37*
G36*
X105676392Y-98912885D02*
G01*
X105688503Y-98916559D01*
X105699663Y-98922524D01*
X105709447Y-98930553D01*
X105717476Y-98940337D01*
X105723441Y-98951497D01*
X105727115Y-98963608D01*
X105728600Y-98978691D01*
X105728600Y-99204909D01*
X105727115Y-99219992D01*
X105723441Y-99232103D01*
X105717476Y-99243263D01*
X105709447Y-99253047D01*
X105699663Y-99261076D01*
X105688503Y-99267041D01*
X105676392Y-99270715D01*
X105661309Y-99272200D01*
X105405091Y-99272200D01*
X105390008Y-99270715D01*
X105377897Y-99267041D01*
X105366737Y-99261076D01*
X105356953Y-99253047D01*
X105348924Y-99243263D01*
X105342959Y-99232103D01*
X105339285Y-99219992D01*
X105337800Y-99204909D01*
X105337800Y-98978691D01*
X105339285Y-98963608D01*
X105342959Y-98951497D01*
X105348924Y-98940337D01*
X105356953Y-98930553D01*
X105366737Y-98922524D01*
X105377897Y-98916559D01*
X105390008Y-98912885D01*
X105405091Y-98911400D01*
X105661309Y-98911400D01*
X105676392Y-98912885D01*
G37*
G36*
X104314000Y-99265600D02*
G01*
X103993200Y-99265600D01*
X103993200Y-98574800D01*
X104314000Y-98574800D01*
X104314000Y-99265600D01*
G37*
G36*
X102814000Y-99265600D02*
G01*
X102493200Y-99265600D01*
X102493200Y-98574800D01*
X102814000Y-98574800D01*
X102814000Y-99265600D01*
G37*
G36*
X103314000Y-99265600D02*
G01*
X102993200Y-99265600D01*
X102993200Y-98574800D01*
X103314000Y-98574800D01*
X103314000Y-99265600D01*
G37*
G36*
X103814000Y-99265600D02*
G01*
X103493200Y-99265600D01*
X103493200Y-98574800D01*
X103814000Y-98574800D01*
X103814000Y-99265600D01*
G37*
G36*
X104814000Y-99265600D02*
G01*
X104493200Y-99265600D01*
X104493200Y-98574800D01*
X104814000Y-98574800D01*
X104814000Y-99265600D01*
G37*
G36*
X105676392Y-98362885D02*
G01*
X105688503Y-98366559D01*
X105699663Y-98372524D01*
X105709447Y-98380553D01*
X105717476Y-98390337D01*
X105723441Y-98401497D01*
X105727115Y-98413608D01*
X105728600Y-98428691D01*
X105728600Y-98654909D01*
X105727115Y-98669992D01*
X105723441Y-98682103D01*
X105717476Y-98693263D01*
X105709447Y-98703047D01*
X105699663Y-98711076D01*
X105688503Y-98717041D01*
X105676392Y-98720715D01*
X105661309Y-98722200D01*
X105405091Y-98722200D01*
X105390008Y-98720715D01*
X105377897Y-98717041D01*
X105366737Y-98711076D01*
X105356953Y-98703047D01*
X105348924Y-98693263D01*
X105342959Y-98682103D01*
X105339285Y-98669992D01*
X105337800Y-98654909D01*
X105337800Y-98428691D01*
X105339285Y-98413608D01*
X105342959Y-98401497D01*
X105348924Y-98390337D01*
X105356953Y-98380553D01*
X105366737Y-98372524D01*
X105377897Y-98366559D01*
X105390008Y-98362885D01*
X105405091Y-98361400D01*
X105661309Y-98361400D01*
X105676392Y-98362885D01*
G37*
G36*
X104874000Y-98425600D02*
G01*
X102433200Y-98425600D01*
X102433200Y-97734800D01*
X104874000Y-97734800D01*
X104874000Y-98425600D01*
G37*
G36*
X105676392Y-97465085D02*
G01*
X105688503Y-97468759D01*
X105699663Y-97474724D01*
X105709447Y-97482753D01*
X105717476Y-97492537D01*
X105723441Y-97503697D01*
X105727115Y-97515808D01*
X105728600Y-97530891D01*
X105728600Y-97757109D01*
X105727115Y-97772192D01*
X105723441Y-97784303D01*
X105717476Y-97795463D01*
X105709447Y-97805247D01*
X105699663Y-97813276D01*
X105688503Y-97819241D01*
X105676392Y-97822915D01*
X105661309Y-97824400D01*
X105405091Y-97824400D01*
X105390008Y-97822915D01*
X105377897Y-97819241D01*
X105366737Y-97813276D01*
X105356953Y-97805247D01*
X105348924Y-97795463D01*
X105342959Y-97784303D01*
X105339285Y-97772192D01*
X105337800Y-97757109D01*
X105337800Y-97530891D01*
X105339285Y-97515808D01*
X105342959Y-97503697D01*
X105348924Y-97492537D01*
X105356953Y-97482753D01*
X105366737Y-97474724D01*
X105377897Y-97468759D01*
X105390008Y-97465085D01*
X105405091Y-97463600D01*
X105661309Y-97463600D01*
X105676392Y-97465085D01*
G37*
G36*
X104814000Y-97585600D02*
G01*
X104493200Y-97585600D01*
X104493200Y-96894800D01*
X104814000Y-96894800D01*
X104814000Y-97585600D01*
G37*
G36*
X102814000Y-97585600D02*
G01*
X102493200Y-97585600D01*
X102493200Y-96894800D01*
X102814000Y-96894800D01*
X102814000Y-97585600D01*
G37*
G36*
X103314000Y-97585600D02*
G01*
X102993200Y-97585600D01*
X102993200Y-96894800D01*
X103314000Y-96894800D01*
X103314000Y-97585600D01*
G37*
G36*
X104314000Y-97585600D02*
G01*
X103993200Y-97585600D01*
X103993200Y-96894800D01*
X104314000Y-96894800D01*
X104314000Y-97585600D01*
G37*
G36*
X103814000Y-97585600D02*
G01*
X103493200Y-97585600D01*
X103493200Y-96894800D01*
X103814000Y-96894800D01*
X103814000Y-97585600D01*
G37*
G36*
X105676392Y-96915085D02*
G01*
X105688503Y-96918759D01*
X105699663Y-96924724D01*
X105709447Y-96932753D01*
X105717476Y-96942537D01*
X105723441Y-96953697D01*
X105727115Y-96965808D01*
X105728600Y-96980891D01*
X105728600Y-97207109D01*
X105727115Y-97222192D01*
X105723441Y-97234303D01*
X105717476Y-97245463D01*
X105709447Y-97255247D01*
X105699663Y-97263276D01*
X105688503Y-97269241D01*
X105676392Y-97272915D01*
X105661309Y-97274400D01*
X105405091Y-97274400D01*
X105390008Y-97272915D01*
X105377897Y-97269241D01*
X105366737Y-97263276D01*
X105356953Y-97255247D01*
X105348924Y-97245463D01*
X105342959Y-97234303D01*
X105339285Y-97222192D01*
X105337800Y-97207109D01*
X105337800Y-96980891D01*
X105339285Y-96965808D01*
X105342959Y-96953697D01*
X105348924Y-96942537D01*
X105356953Y-96932753D01*
X105366737Y-96924724D01*
X105377897Y-96918759D01*
X105390008Y-96915085D01*
X105405091Y-96913600D01*
X105661309Y-96913600D01*
X105676392Y-96915085D01*
G37*
G36*
X105792862Y-96015383D02*
G01*
X105817631Y-96022896D01*
X105840469Y-96035104D01*
X105860477Y-96051523D01*
X105876896Y-96071531D01*
X105889104Y-96094369D01*
X105896617Y-96119138D01*
X105899400Y-96147391D01*
X105899400Y-96558609D01*
X105896617Y-96586862D01*
X105889104Y-96611631D01*
X105876896Y-96634469D01*
X105860477Y-96654477D01*
X105840469Y-96670896D01*
X105817631Y-96683104D01*
X105792862Y-96690617D01*
X105764609Y-96693400D01*
X105403391Y-96693400D01*
X105375138Y-96690617D01*
X105350369Y-96683104D01*
X105327531Y-96670896D01*
X105307523Y-96654477D01*
X105291104Y-96634469D01*
X105278896Y-96611631D01*
X105271383Y-96586862D01*
X105268600Y-96558609D01*
X105268600Y-96147391D01*
X105271383Y-96119138D01*
X105278896Y-96094369D01*
X105291104Y-96071531D01*
X105307523Y-96051523D01*
X105327531Y-96035104D01*
X105350369Y-96022896D01*
X105375138Y-96015383D01*
X105403391Y-96012600D01*
X105764609Y-96012600D01*
X105792862Y-96015383D01*
G37*
G36*
X104902862Y-96015383D02*
G01*
X104927631Y-96022896D01*
X104950469Y-96035104D01*
X104970477Y-96051523D01*
X104986896Y-96071531D01*
X104999104Y-96094369D01*
X105006617Y-96119138D01*
X105009400Y-96147391D01*
X105009400Y-96558609D01*
X105006617Y-96586862D01*
X104999104Y-96611631D01*
X104986896Y-96634469D01*
X104970477Y-96654477D01*
X104950469Y-96670896D01*
X104927631Y-96683104D01*
X104902862Y-96690617D01*
X104874609Y-96693400D01*
X104513391Y-96693400D01*
X104485138Y-96690617D01*
X104460369Y-96683104D01*
X104437531Y-96670896D01*
X104417523Y-96654477D01*
X104401104Y-96634469D01*
X104388896Y-96611631D01*
X104381383Y-96586862D01*
X104378600Y-96558609D01*
X104378600Y-96147391D01*
X104381383Y-96119138D01*
X104388896Y-96094369D01*
X104401104Y-96071531D01*
X104417523Y-96051523D01*
X104437531Y-96035104D01*
X104460369Y-96022896D01*
X104485138Y-96015383D01*
X104513391Y-96012600D01*
X104874609Y-96012600D01*
X104902862Y-96015383D01*
G37*
G36*
X102935862Y-95989983D02*
G01*
X102960631Y-95997496D01*
X102983469Y-96009704D01*
X103003477Y-96026123D01*
X103019896Y-96046131D01*
X103032104Y-96068969D01*
X103039617Y-96093738D01*
X103042400Y-96121991D01*
X103042400Y-96533209D01*
X103039617Y-96561462D01*
X103032104Y-96586231D01*
X103019896Y-96609069D01*
X103003477Y-96629077D01*
X102983469Y-96645496D01*
X102960631Y-96657704D01*
X102935862Y-96665217D01*
X102907609Y-96668000D01*
X102546391Y-96668000D01*
X102518138Y-96665217D01*
X102493369Y-96657704D01*
X102470531Y-96645496D01*
X102450523Y-96629077D01*
X102434104Y-96609069D01*
X102421896Y-96586231D01*
X102414383Y-96561462D01*
X102411600Y-96533209D01*
X102411600Y-96121991D01*
X102414383Y-96093738D01*
X102421896Y-96068969D01*
X102434104Y-96046131D01*
X102450523Y-96026123D01*
X102470531Y-96009704D01*
X102493369Y-95997496D01*
X102518138Y-95989983D01*
X102546391Y-95987200D01*
X102907609Y-95987200D01*
X102935862Y-95989983D01*
G37*
G36*
X102045862Y-95989983D02*
G01*
X102070631Y-95997496D01*
X102093469Y-96009704D01*
X102113477Y-96026123D01*
X102129896Y-96046131D01*
X102142104Y-96068969D01*
X102149617Y-96093738D01*
X102152400Y-96121991D01*
X102152400Y-96533209D01*
X102149617Y-96561462D01*
X102142104Y-96586231D01*
X102129896Y-96609069D01*
X102113477Y-96629077D01*
X102093469Y-96645496D01*
X102070631Y-96657704D01*
X102045862Y-96665217D01*
X102017609Y-96668000D01*
X101656391Y-96668000D01*
X101628138Y-96665217D01*
X101603369Y-96657704D01*
X101580531Y-96645496D01*
X101560523Y-96629077D01*
X101544104Y-96609069D01*
X101531896Y-96586231D01*
X101524383Y-96561462D01*
X101521600Y-96533209D01*
X101521600Y-96121991D01*
X101524383Y-96093738D01*
X101531896Y-96068969D01*
X101544104Y-96046131D01*
X101560523Y-96026123D01*
X101580531Y-96009704D01*
X101603369Y-95997496D01*
X101628138Y-95989983D01*
X101656391Y-95987200D01*
X102017609Y-95987200D01*
X102045862Y-95989983D01*
G37*
G36*
X103582992Y-96133685D02*
G01*
X103595103Y-96137359D01*
X103606263Y-96143324D01*
X103616047Y-96151353D01*
X103624076Y-96161137D01*
X103630041Y-96172297D01*
X103633715Y-96184408D01*
X103635200Y-96199491D01*
X103635200Y-96455709D01*
X103633715Y-96470792D01*
X103630041Y-96482903D01*
X103624076Y-96494063D01*
X103616047Y-96503847D01*
X103606263Y-96511876D01*
X103595103Y-96517841D01*
X103582992Y-96521515D01*
X103567909Y-96523000D01*
X103341691Y-96523000D01*
X103326608Y-96521515D01*
X103314497Y-96517841D01*
X103303337Y-96511876D01*
X103293553Y-96503847D01*
X103285524Y-96494063D01*
X103279559Y-96482903D01*
X103275885Y-96470792D01*
X103274400Y-96455709D01*
X103274400Y-96199491D01*
X103275885Y-96184408D01*
X103279559Y-96172297D01*
X103285524Y-96161137D01*
X103293553Y-96151353D01*
X103303337Y-96143324D01*
X103314497Y-96137359D01*
X103326608Y-96133685D01*
X103341691Y-96132200D01*
X103567909Y-96132200D01*
X103582992Y-96133685D01*
G37*
G36*
X104132992Y-96133685D02*
G01*
X104145103Y-96137359D01*
X104156263Y-96143324D01*
X104166047Y-96151353D01*
X104174076Y-96161137D01*
X104180041Y-96172297D01*
X104183715Y-96184408D01*
X104185200Y-96199491D01*
X104185200Y-96455709D01*
X104183715Y-96470792D01*
X104180041Y-96482903D01*
X104174076Y-96494063D01*
X104166047Y-96503847D01*
X104156263Y-96511876D01*
X104145103Y-96517841D01*
X104132992Y-96521515D01*
X104117909Y-96523000D01*
X103891691Y-96523000D01*
X103876608Y-96521515D01*
X103864497Y-96517841D01*
X103853337Y-96511876D01*
X103843553Y-96503847D01*
X103835524Y-96494063D01*
X103829559Y-96482903D01*
X103825885Y-96470792D01*
X103824400Y-96455709D01*
X103824400Y-96199491D01*
X103825885Y-96184408D01*
X103829559Y-96172297D01*
X103835524Y-96161137D01*
X103843553Y-96151353D01*
X103853337Y-96143324D01*
X103864497Y-96137359D01*
X103876608Y-96133685D01*
X103891691Y-96132200D01*
X104117909Y-96132200D01*
X104132992Y-96133685D01*
G37*
G36*
X104757746Y-95248238D02*
G01*
X104766529Y-95252932D01*
X104776053Y-95255822D01*
X104813655Y-95263301D01*
X104850125Y-95278408D01*
X104882948Y-95300339D01*
X104910861Y-95328252D01*
X104932792Y-95361075D01*
X104947899Y-95397545D01*
X104955600Y-95436262D01*
X104955600Y-95475738D01*
X104947899Y-95514455D01*
X104932792Y-95550925D01*
X104910861Y-95583748D01*
X104882948Y-95611661D01*
X104850125Y-95633592D01*
X104813655Y-95648699D01*
X104774938Y-95656400D01*
X104735462Y-95656400D01*
X104696745Y-95648699D01*
X104660275Y-95633592D01*
X104627452Y-95611661D01*
X104599539Y-95583748D01*
X104577608Y-95550925D01*
X104562501Y-95514455D01*
X104555022Y-95476853D01*
X104552132Y-95467328D01*
X104547438Y-95458545D01*
X104545349Y-95456000D01*
X104547438Y-95453454D01*
X104552132Y-95444671D01*
X104555023Y-95435143D01*
X104562501Y-95397545D01*
X104577608Y-95361075D01*
X104599539Y-95328252D01*
X104627452Y-95300339D01*
X104660275Y-95278408D01*
X104696745Y-95263301D01*
X104734347Y-95255822D01*
X104743872Y-95252932D01*
X104752655Y-95248238D01*
X104755200Y-95246149D01*
X104757746Y-95248238D01*
G37*
G36*
X102757746Y-95248238D02*
G01*
X102766529Y-95252932D01*
X102776053Y-95255822D01*
X102813655Y-95263301D01*
X102850125Y-95278408D01*
X102882948Y-95300339D01*
X102910861Y-95328252D01*
X102932792Y-95361075D01*
X102947899Y-95397545D01*
X102955377Y-95435143D01*
X102958268Y-95444672D01*
X102962962Y-95453455D01*
X102965051Y-95456000D01*
X102962962Y-95458546D01*
X102958268Y-95467329D01*
X102955378Y-95476853D01*
X102947899Y-95514455D01*
X102932792Y-95550925D01*
X102910861Y-95583748D01*
X102882948Y-95611661D01*
X102850125Y-95633592D01*
X102813655Y-95648699D01*
X102774938Y-95656400D01*
X102735462Y-95656400D01*
X102696745Y-95648699D01*
X102660275Y-95633592D01*
X102627452Y-95611661D01*
X102599539Y-95583748D01*
X102577608Y-95550925D01*
X102562501Y-95514455D01*
X102554800Y-95475738D01*
X102554800Y-95436262D01*
X102562501Y-95397545D01*
X102577608Y-95361075D01*
X102599539Y-95328252D01*
X102627452Y-95300339D01*
X102660275Y-95278408D01*
X102696745Y-95263301D01*
X102734347Y-95255822D01*
X102743872Y-95252932D01*
X102752655Y-95248238D01*
X102755200Y-95246149D01*
X102757746Y-95248238D01*
G37*
G36*
X103757746Y-95248238D02*
G01*
X103766529Y-95252932D01*
X103776053Y-95255822D01*
X103813655Y-95263301D01*
X103850125Y-95278408D01*
X103882948Y-95300339D01*
X103910861Y-95328252D01*
X103932792Y-95361075D01*
X103947899Y-95397545D01*
X103955377Y-95435143D01*
X103958268Y-95444672D01*
X103962962Y-95453455D01*
X103965051Y-95456000D01*
X103962962Y-95458546D01*
X103958268Y-95467329D01*
X103955378Y-95476853D01*
X103947899Y-95514455D01*
X103932792Y-95550925D01*
X103910861Y-95583748D01*
X103882948Y-95611661D01*
X103850125Y-95633592D01*
X103813655Y-95648699D01*
X103774938Y-95656400D01*
X103735462Y-95656400D01*
X103696745Y-95648699D01*
X103660275Y-95633592D01*
X103627452Y-95611661D01*
X103599539Y-95583748D01*
X103577608Y-95550925D01*
X103562501Y-95514455D01*
X103555022Y-95476853D01*
X103552132Y-95467328D01*
X103547438Y-95458545D01*
X103545349Y-95456000D01*
X103547438Y-95453454D01*
X103552132Y-95444671D01*
X103555023Y-95435143D01*
X103562501Y-95397545D01*
X103577608Y-95361075D01*
X103599539Y-95328252D01*
X103627452Y-95300339D01*
X103660275Y-95278408D01*
X103696745Y-95263301D01*
X103734347Y-95255822D01*
X103743872Y-95252932D01*
X103752655Y-95248238D01*
X103755200Y-95246149D01*
X103757746Y-95248238D01*
G37*
G36*
X103257746Y-95248238D02*
G01*
X103266529Y-95252932D01*
X103276053Y-95255822D01*
X103313655Y-95263301D01*
X103350125Y-95278408D01*
X103382948Y-95300339D01*
X103410861Y-95328252D01*
X103432792Y-95361075D01*
X103447899Y-95397545D01*
X103455377Y-95435143D01*
X103458268Y-95444672D01*
X103462962Y-95453455D01*
X103465051Y-95456000D01*
X103462962Y-95458546D01*
X103458268Y-95467329D01*
X103455378Y-95476853D01*
X103447899Y-95514455D01*
X103432792Y-95550925D01*
X103410861Y-95583748D01*
X103382948Y-95611661D01*
X103350125Y-95633592D01*
X103313655Y-95648699D01*
X103274938Y-95656400D01*
X103235462Y-95656400D01*
X103196745Y-95648699D01*
X103160275Y-95633592D01*
X103127452Y-95611661D01*
X103099539Y-95583748D01*
X103077608Y-95550925D01*
X103062501Y-95514455D01*
X103055022Y-95476853D01*
X103052132Y-95467328D01*
X103047438Y-95458545D01*
X103045349Y-95456000D01*
X103047438Y-95453454D01*
X103052132Y-95444671D01*
X103055023Y-95435143D01*
X103062501Y-95397545D01*
X103077608Y-95361075D01*
X103099539Y-95328252D01*
X103127452Y-95300339D01*
X103160275Y-95278408D01*
X103196745Y-95263301D01*
X103234347Y-95255822D01*
X103243872Y-95252932D01*
X103252655Y-95248238D01*
X103255200Y-95246149D01*
X103257746Y-95248238D01*
G37*
G36*
X104257746Y-95248238D02*
G01*
X104266529Y-95252932D01*
X104276053Y-95255822D01*
X104313655Y-95263301D01*
X104350125Y-95278408D01*
X104382948Y-95300339D01*
X104410861Y-95328252D01*
X104432792Y-95361075D01*
X104447899Y-95397545D01*
X104455377Y-95435143D01*
X104458268Y-95444672D01*
X104462962Y-95453455D01*
X104465051Y-95456000D01*
X104462962Y-95458546D01*
X104458268Y-95467329D01*
X104455378Y-95476853D01*
X104447899Y-95514455D01*
X104432792Y-95550925D01*
X104410861Y-95583748D01*
X104382948Y-95611661D01*
X104350125Y-95633592D01*
X104313655Y-95648699D01*
X104274938Y-95656400D01*
X104235462Y-95656400D01*
X104196745Y-95648699D01*
X104160275Y-95633592D01*
X104127452Y-95611661D01*
X104099539Y-95583748D01*
X104077608Y-95550925D01*
X104062501Y-95514455D01*
X104055022Y-95476853D01*
X104052132Y-95467328D01*
X104047438Y-95458545D01*
X104045349Y-95456000D01*
X104047438Y-95453454D01*
X104052132Y-95444671D01*
X104055023Y-95435143D01*
X104062501Y-95397545D01*
X104077608Y-95361075D01*
X104099539Y-95328252D01*
X104127452Y-95300339D01*
X104160275Y-95278408D01*
X104196745Y-95263301D01*
X104234347Y-95255822D01*
X104243872Y-95252932D01*
X104252655Y-95248238D01*
X104255200Y-95246149D01*
X104257746Y-95248238D01*
G37*
G36*
X102757746Y-94748238D02*
G01*
X102766529Y-94752932D01*
X102776053Y-94755822D01*
X102813655Y-94763301D01*
X102850125Y-94778408D01*
X102882948Y-94800339D01*
X102910861Y-94828252D01*
X102932792Y-94861075D01*
X102947899Y-94897545D01*
X102955377Y-94935143D01*
X102958268Y-94944672D01*
X102962962Y-94953455D01*
X102965051Y-94956000D01*
X102962962Y-94958546D01*
X102958268Y-94967329D01*
X102955378Y-94976853D01*
X102947899Y-95014455D01*
X102932792Y-95050925D01*
X102910861Y-95083748D01*
X102882948Y-95111661D01*
X102850125Y-95133592D01*
X102813655Y-95148699D01*
X102776053Y-95156178D01*
X102766528Y-95159068D01*
X102757745Y-95163762D01*
X102755200Y-95165851D01*
X102752654Y-95163762D01*
X102743871Y-95159068D01*
X102734347Y-95156178D01*
X102696745Y-95148699D01*
X102660275Y-95133592D01*
X102627452Y-95111661D01*
X102599539Y-95083748D01*
X102577608Y-95050925D01*
X102562501Y-95014455D01*
X102554800Y-94975738D01*
X102554800Y-94936262D01*
X102562501Y-94897545D01*
X102577608Y-94861075D01*
X102599539Y-94828252D01*
X102627452Y-94800339D01*
X102660275Y-94778408D01*
X102696745Y-94763301D01*
X102734347Y-94755822D01*
X102743872Y-94752932D01*
X102752655Y-94748238D01*
X102755200Y-94746149D01*
X102757746Y-94748238D01*
G37*
G36*
X103257746Y-94748238D02*
G01*
X103266529Y-94752932D01*
X103276053Y-94755822D01*
X103313655Y-94763301D01*
X103350125Y-94778408D01*
X103382948Y-94800339D01*
X103410861Y-94828252D01*
X103432792Y-94861075D01*
X103447899Y-94897545D01*
X103455377Y-94935143D01*
X103458268Y-94944672D01*
X103462962Y-94953455D01*
X103465051Y-94956000D01*
X103462962Y-94958546D01*
X103458268Y-94967329D01*
X103455378Y-94976853D01*
X103447899Y-95014455D01*
X103432792Y-95050925D01*
X103410861Y-95083748D01*
X103382948Y-95111661D01*
X103350125Y-95133592D01*
X103313655Y-95148699D01*
X103276053Y-95156178D01*
X103266528Y-95159068D01*
X103257745Y-95163762D01*
X103255200Y-95165851D01*
X103252654Y-95163762D01*
X103243871Y-95159068D01*
X103234347Y-95156178D01*
X103196745Y-95148699D01*
X103160275Y-95133592D01*
X103127452Y-95111661D01*
X103099539Y-95083748D01*
X103077608Y-95050925D01*
X103062501Y-95014455D01*
X103055022Y-94976853D01*
X103052132Y-94967328D01*
X103047438Y-94958545D01*
X103045349Y-94956000D01*
X103047438Y-94953454D01*
X103052132Y-94944671D01*
X103055023Y-94935143D01*
X103062501Y-94897545D01*
X103077608Y-94861075D01*
X103099539Y-94828252D01*
X103127452Y-94800339D01*
X103160275Y-94778408D01*
X103196745Y-94763301D01*
X103234347Y-94755822D01*
X103243872Y-94752932D01*
X103252655Y-94748238D01*
X103255200Y-94746149D01*
X103257746Y-94748238D01*
G37*
G36*
X103757746Y-94748238D02*
G01*
X103766529Y-94752932D01*
X103776053Y-94755822D01*
X103813655Y-94763301D01*
X103850125Y-94778408D01*
X103882948Y-94800339D01*
X103910861Y-94828252D01*
X103932792Y-94861075D01*
X103947899Y-94897545D01*
X103955377Y-94935143D01*
X103958268Y-94944672D01*
X103962962Y-94953455D01*
X103965051Y-94956000D01*
X103962962Y-94958546D01*
X103958268Y-94967329D01*
X103955378Y-94976853D01*
X103947899Y-95014455D01*
X103932792Y-95050925D01*
X103910861Y-95083748D01*
X103882948Y-95111661D01*
X103850125Y-95133592D01*
X103813655Y-95148699D01*
X103776053Y-95156178D01*
X103766528Y-95159068D01*
X103757745Y-95163762D01*
X103755200Y-95165851D01*
X103752654Y-95163762D01*
X103743871Y-95159068D01*
X103734347Y-95156178D01*
X103696745Y-95148699D01*
X103660275Y-95133592D01*
X103627452Y-95111661D01*
X103599539Y-95083748D01*
X103577608Y-95050925D01*
X103562501Y-95014455D01*
X103555022Y-94976853D01*
X103552132Y-94967328D01*
X103547438Y-94958545D01*
X103545349Y-94956000D01*
X103547438Y-94953454D01*
X103552132Y-94944671D01*
X103555023Y-94935143D01*
X103562501Y-94897545D01*
X103577608Y-94861075D01*
X103599539Y-94828252D01*
X103627452Y-94800339D01*
X103660275Y-94778408D01*
X103696745Y-94763301D01*
X103734347Y-94755822D01*
X103743872Y-94752932D01*
X103752655Y-94748238D01*
X103755200Y-94746149D01*
X103757746Y-94748238D01*
G37*
G36*
X104257746Y-94748238D02*
G01*
X104266529Y-94752932D01*
X104276053Y-94755822D01*
X104313655Y-94763301D01*
X104350125Y-94778408D01*
X104382948Y-94800339D01*
X104410861Y-94828252D01*
X104432792Y-94861075D01*
X104447899Y-94897545D01*
X104455377Y-94935143D01*
X104458268Y-94944672D01*
X104462962Y-94953455D01*
X104465051Y-94956000D01*
X104462962Y-94958546D01*
X104458268Y-94967329D01*
X104455378Y-94976853D01*
X104447899Y-95014455D01*
X104432792Y-95050925D01*
X104410861Y-95083748D01*
X104382948Y-95111661D01*
X104350125Y-95133592D01*
X104313655Y-95148699D01*
X104276053Y-95156178D01*
X104266528Y-95159068D01*
X104257745Y-95163762D01*
X104255200Y-95165851D01*
X104252654Y-95163762D01*
X104243871Y-95159068D01*
X104234347Y-95156178D01*
X104196745Y-95148699D01*
X104160275Y-95133592D01*
X104127452Y-95111661D01*
X104099539Y-95083748D01*
X104077608Y-95050925D01*
X104062501Y-95014455D01*
X104055022Y-94976853D01*
X104052132Y-94967328D01*
X104047438Y-94958545D01*
X104045349Y-94956000D01*
X104047438Y-94953454D01*
X104052132Y-94944671D01*
X104055023Y-94935143D01*
X104062501Y-94897545D01*
X104077608Y-94861075D01*
X104099539Y-94828252D01*
X104127452Y-94800339D01*
X104160275Y-94778408D01*
X104196745Y-94763301D01*
X104234347Y-94755822D01*
X104243872Y-94752932D01*
X104252655Y-94748238D01*
X104255200Y-94746149D01*
X104257746Y-94748238D01*
G37*
G36*
X104757746Y-94748238D02*
G01*
X104766529Y-94752932D01*
X104776053Y-94755822D01*
X104813655Y-94763301D01*
X104850125Y-94778408D01*
X104882948Y-94800339D01*
X104910861Y-94828252D01*
X104932792Y-94861075D01*
X104947899Y-94897545D01*
X104955600Y-94936262D01*
X104955600Y-94975738D01*
X104947899Y-95014455D01*
X104932792Y-95050925D01*
X104910861Y-95083748D01*
X104882948Y-95111661D01*
X104850125Y-95133592D01*
X104813655Y-95148699D01*
X104776053Y-95156178D01*
X104766528Y-95159068D01*
X104757745Y-95163762D01*
X104755200Y-95165851D01*
X104752654Y-95163762D01*
X104743871Y-95159068D01*
X104734347Y-95156178D01*
X104696745Y-95148699D01*
X104660275Y-95133592D01*
X104627452Y-95111661D01*
X104599539Y-95083748D01*
X104577608Y-95050925D01*
X104562501Y-95014455D01*
X104555022Y-94976853D01*
X104552132Y-94967328D01*
X104547438Y-94958545D01*
X104545349Y-94956000D01*
X104547438Y-94953454D01*
X104552132Y-94944671D01*
X104555023Y-94935143D01*
X104562501Y-94897545D01*
X104577608Y-94861075D01*
X104599539Y-94828252D01*
X104627452Y-94800339D01*
X104660275Y-94778408D01*
X104696745Y-94763301D01*
X104734347Y-94755822D01*
X104743872Y-94752932D01*
X104752655Y-94748238D01*
X104755200Y-94746149D01*
X104757746Y-94748238D01*
G37*
G36*
X102813655Y-94263301D02*
G01*
X102850125Y-94278408D01*
X102882948Y-94300339D01*
X102910861Y-94328252D01*
X102932792Y-94361075D01*
X102947899Y-94397545D01*
X102955377Y-94435143D01*
X102958268Y-94444672D01*
X102962962Y-94453455D01*
X102965051Y-94456000D01*
X102962962Y-94458546D01*
X102958268Y-94467329D01*
X102955378Y-94476853D01*
X102947899Y-94514455D01*
X102932792Y-94550925D01*
X102910861Y-94583748D01*
X102882948Y-94611661D01*
X102850125Y-94633592D01*
X102813655Y-94648699D01*
X102776053Y-94656178D01*
X102766528Y-94659068D01*
X102757745Y-94663762D01*
X102755200Y-94665851D01*
X102752654Y-94663762D01*
X102743871Y-94659068D01*
X102734347Y-94656178D01*
X102696745Y-94648699D01*
X102660275Y-94633592D01*
X102627452Y-94611661D01*
X102599539Y-94583748D01*
X102577608Y-94550925D01*
X102562501Y-94514455D01*
X102554800Y-94475738D01*
X102554800Y-94436262D01*
X102562501Y-94397545D01*
X102577608Y-94361075D01*
X102599539Y-94328252D01*
X102627452Y-94300339D01*
X102660275Y-94278408D01*
X102696745Y-94263301D01*
X102735462Y-94255600D01*
X102774938Y-94255600D01*
X102813655Y-94263301D01*
G37*
G36*
X104313655Y-94263301D02*
G01*
X104350125Y-94278408D01*
X104382948Y-94300339D01*
X104410861Y-94328252D01*
X104432792Y-94361075D01*
X104447899Y-94397545D01*
X104455377Y-94435143D01*
X104458268Y-94444672D01*
X104462962Y-94453455D01*
X104465051Y-94456000D01*
X104462962Y-94458546D01*
X104458268Y-94467329D01*
X104455378Y-94476853D01*
X104447899Y-94514455D01*
X104432792Y-94550925D01*
X104410861Y-94583748D01*
X104382948Y-94611661D01*
X104350125Y-94633592D01*
X104313655Y-94648699D01*
X104276053Y-94656178D01*
X104266528Y-94659068D01*
X104257745Y-94663762D01*
X104255200Y-94665851D01*
X104252654Y-94663762D01*
X104243871Y-94659068D01*
X104234347Y-94656178D01*
X104196745Y-94648699D01*
X104160275Y-94633592D01*
X104127452Y-94611661D01*
X104099539Y-94583748D01*
X104077608Y-94550925D01*
X104062501Y-94514455D01*
X104055022Y-94476853D01*
X104052132Y-94467328D01*
X104047438Y-94458545D01*
X104045349Y-94456000D01*
X104047438Y-94453454D01*
X104052132Y-94444671D01*
X104055023Y-94435143D01*
X104062501Y-94397545D01*
X104077608Y-94361075D01*
X104099539Y-94328252D01*
X104127452Y-94300339D01*
X104160275Y-94278408D01*
X104196745Y-94263301D01*
X104235462Y-94255600D01*
X104274938Y-94255600D01*
X104313655Y-94263301D01*
G37*
G36*
X103813655Y-94263301D02*
G01*
X103850125Y-94278408D01*
X103882948Y-94300339D01*
X103910861Y-94328252D01*
X103932792Y-94361075D01*
X103947899Y-94397545D01*
X103955377Y-94435143D01*
X103958268Y-94444672D01*
X103962962Y-94453455D01*
X103965051Y-94456000D01*
X103962962Y-94458546D01*
X103958268Y-94467329D01*
X103955378Y-94476853D01*
X103947899Y-94514455D01*
X103932792Y-94550925D01*
X103910861Y-94583748D01*
X103882948Y-94611661D01*
X103850125Y-94633592D01*
X103813655Y-94648699D01*
X103776053Y-94656178D01*
X103766528Y-94659068D01*
X103757745Y-94663762D01*
X103755200Y-94665851D01*
X103752654Y-94663762D01*
X103743871Y-94659068D01*
X103734347Y-94656178D01*
X103696745Y-94648699D01*
X103660275Y-94633592D01*
X103627452Y-94611661D01*
X103599539Y-94583748D01*
X103577608Y-94550925D01*
X103562501Y-94514455D01*
X103555022Y-94476853D01*
X103552132Y-94467328D01*
X103547438Y-94458545D01*
X103545349Y-94456000D01*
X103547438Y-94453454D01*
X103552132Y-94444671D01*
X103555023Y-94435143D01*
X103562501Y-94397545D01*
X103577608Y-94361075D01*
X103599539Y-94328252D01*
X103627452Y-94300339D01*
X103660275Y-94278408D01*
X103696745Y-94263301D01*
X103735462Y-94255600D01*
X103774938Y-94255600D01*
X103813655Y-94263301D01*
G37*
G36*
X103313655Y-94263301D02*
G01*
X103350125Y-94278408D01*
X103382948Y-94300339D01*
X103410861Y-94328252D01*
X103432792Y-94361075D01*
X103447899Y-94397545D01*
X103455377Y-94435143D01*
X103458268Y-94444672D01*
X103462962Y-94453455D01*
X103465051Y-94456000D01*
X103462962Y-94458546D01*
X103458268Y-94467329D01*
X103455378Y-94476853D01*
X103447899Y-94514455D01*
X103432792Y-94550925D01*
X103410861Y-94583748D01*
X103382948Y-94611661D01*
X103350125Y-94633592D01*
X103313655Y-94648699D01*
X103276053Y-94656178D01*
X103266528Y-94659068D01*
X103257745Y-94663762D01*
X103255200Y-94665851D01*
X103252654Y-94663762D01*
X103243871Y-94659068D01*
X103234347Y-94656178D01*
X103196745Y-94648699D01*
X103160275Y-94633592D01*
X103127452Y-94611661D01*
X103099539Y-94583748D01*
X103077608Y-94550925D01*
X103062501Y-94514455D01*
X103055022Y-94476853D01*
X103052132Y-94467328D01*
X103047438Y-94458545D01*
X103045349Y-94456000D01*
X103047438Y-94453454D01*
X103052132Y-94444671D01*
X103055023Y-94435143D01*
X103062501Y-94397545D01*
X103077608Y-94361075D01*
X103099539Y-94328252D01*
X103127452Y-94300339D01*
X103160275Y-94278408D01*
X103196745Y-94263301D01*
X103235462Y-94255600D01*
X103274938Y-94255600D01*
X103313655Y-94263301D01*
G37*
G36*
X104813655Y-94263301D02*
G01*
X104850125Y-94278408D01*
X104882948Y-94300339D01*
X104910861Y-94328252D01*
X104932792Y-94361075D01*
X104947899Y-94397545D01*
X104955600Y-94436262D01*
X104955600Y-94475738D01*
X104947899Y-94514455D01*
X104932792Y-94550925D01*
X104910861Y-94583748D01*
X104882948Y-94611661D01*
X104850125Y-94633592D01*
X104813655Y-94648699D01*
X104776053Y-94656178D01*
X104766528Y-94659068D01*
X104757745Y-94663762D01*
X104755200Y-94665851D01*
X104752654Y-94663762D01*
X104743871Y-94659068D01*
X104734347Y-94656178D01*
X104696745Y-94648699D01*
X104660275Y-94633592D01*
X104627452Y-94611661D01*
X104599539Y-94583748D01*
X104577608Y-94550925D01*
X104562501Y-94514455D01*
X104555022Y-94476853D01*
X104552132Y-94467328D01*
X104547438Y-94458545D01*
X104545349Y-94456000D01*
X104547438Y-94453454D01*
X104552132Y-94444671D01*
X104555023Y-94435143D01*
X104562501Y-94397545D01*
X104577608Y-94361075D01*
X104599539Y-94328252D01*
X104627452Y-94300339D01*
X104660275Y-94278408D01*
X104696745Y-94263301D01*
X104735462Y-94255600D01*
X104774938Y-94255600D01*
X104813655Y-94263301D01*
G37*
G36*
X103283517Y-93288467D02*
G01*
X103309121Y-93296234D01*
X103332710Y-93308842D01*
X103353388Y-93325812D01*
X103370358Y-93346490D01*
X103382966Y-93370079D01*
X103390733Y-93395683D01*
X103393600Y-93424793D01*
X103393600Y-93794807D01*
X103390733Y-93823917D01*
X103382966Y-93849521D01*
X103370358Y-93873110D01*
X103353388Y-93893788D01*
X103332710Y-93910758D01*
X103309121Y-93923366D01*
X103283517Y-93931133D01*
X103254407Y-93934000D01*
X102884393Y-93934000D01*
X102855283Y-93931133D01*
X102829679Y-93923366D01*
X102806090Y-93910758D01*
X102785412Y-93893788D01*
X102768442Y-93873110D01*
X102755834Y-93849521D01*
X102748067Y-93823917D01*
X102745200Y-93794807D01*
X102745200Y-93424793D01*
X102748067Y-93395683D01*
X102755834Y-93370079D01*
X102768442Y-93346490D01*
X102785412Y-93325812D01*
X102806090Y-93308842D01*
X102829679Y-93296234D01*
X102855283Y-93288467D01*
X102884393Y-93285600D01*
X103254407Y-93285600D01*
X103283517Y-93288467D01*
G37*
G36*
X104680517Y-93288467D02*
G01*
X104706121Y-93296234D01*
X104729710Y-93308842D01*
X104750388Y-93325812D01*
X104767358Y-93346490D01*
X104779966Y-93370079D01*
X104787733Y-93395683D01*
X104790600Y-93424793D01*
X104790600Y-93794807D01*
X104787733Y-93823917D01*
X104779966Y-93849521D01*
X104767358Y-93873110D01*
X104750388Y-93893788D01*
X104729710Y-93910758D01*
X104706121Y-93923366D01*
X104680517Y-93931133D01*
X104651407Y-93934000D01*
X104281393Y-93934000D01*
X104252283Y-93931133D01*
X104226679Y-93923366D01*
X104203090Y-93910758D01*
X104182412Y-93893788D01*
X104165442Y-93873110D01*
X104152834Y-93849521D01*
X104145067Y-93823917D01*
X104142200Y-93794807D01*
X104142200Y-93424793D01*
X104145067Y-93395683D01*
X104152834Y-93370079D01*
X104165442Y-93346490D01*
X104182412Y-93325812D01*
X104203090Y-93308842D01*
X104226679Y-93296234D01*
X104252283Y-93288467D01*
X104281393Y-93285600D01*
X104651407Y-93285600D01*
X104680517Y-93288467D01*
G37*
M02*
