G04 #@! TF.GenerationSoftware,KiCad,Pcbnew,(5.1.6)-1*
G04 #@! TF.CreationDate,2020-11-27T13:51:03-08:00*
G04 #@! TF.ProjectId,Miniscope-v4-Rigid-Flex,4d696e69-7363-46f7-9065-2d76342d5269,rev?*
G04 #@! TF.SameCoordinates,Original*
G04 #@! TF.FileFunction,Legend,Bot*
G04 #@! TF.FilePolarity,Positive*
%FSLAX46Y46*%
G04 Gerber Fmt 4.6, Leading zero omitted, Abs format (unit mm)*
G04 Created by KiCad (PCBNEW (5.1.6)-1) date 2020-11-27 13:51:03*
%MOMM*%
%LPD*%
G01*
G04 APERTURE LIST*
%ADD10C,0.203200*%
%ADD11C,0.300000*%
%ADD12C,0.120000*%
%ADD13C,0.150000*%
%ADD14C,0.100000*%
G04 APERTURE END LIST*
D10*
X102689340Y-98939340D02*
G75*
G02*
X104810660Y-98939340I1060660J-1060660D01*
G01*
X104810660Y-101060660D02*
G75*
G02*
X102689340Y-101060660I-1060660J1060660D01*
G01*
D11*
X102802628Y-100021542D02*
X101659771Y-100021542D01*
X105850628Y-99974742D02*
X104707771Y-99974742D01*
X105279200Y-100546171D02*
X105279200Y-99403314D01*
D12*
X107484400Y-116430800D02*
X99984400Y-116430800D01*
X99984400Y-109930800D02*
X107484400Y-109930800D01*
X99984400Y-116430800D02*
X99984400Y-109930800D01*
X107484400Y-109930800D02*
X107484400Y-116430800D01*
D10*
X102250000Y-97500000D02*
X105250000Y-97500000D01*
D13*
X103770000Y-99945000D02*
G75*
G03*
X103770000Y-99945000I-20000J0D01*
G01*
D14*
X110795200Y-129411600D02*
X108915200Y-129411600D01*
X110795200Y-126711600D02*
X108915200Y-126711600D01*
X110238600Y-125785600D02*
X110238600Y-124225600D01*
X111808600Y-125785600D02*
X111808600Y-124225600D01*
D13*
X102675800Y-125931000D02*
X102675800Y-125531000D01*
X102675800Y-124731000D02*
X102675800Y-124331000D01*
X104275800Y-124331000D02*
X104275800Y-124731000D01*
D14*
G36*
X103475800Y-125131000D02*
G01*
X103775800Y-125131000D01*
X103775800Y-125431000D01*
X103475800Y-125431000D01*
X103475800Y-125131000D01*
G37*
X103475800Y-125131000D02*
X103775800Y-125131000D01*
X103775800Y-125431000D01*
X103475800Y-125431000D01*
X103475800Y-125131000D01*
D13*
G36*
X100684400Y-115880800D02*
G01*
X101234400Y-115880800D01*
X101234400Y-115430800D01*
X100684400Y-115430800D01*
X100684400Y-115880800D01*
G37*
X100684400Y-115880800D02*
X101234400Y-115880800D01*
X101234400Y-115430800D01*
X100684400Y-115430800D01*
X100684400Y-115880800D01*
X103734400Y-112830800D02*
X103734400Y-113630800D01*
X103234400Y-113255800D02*
X104234400Y-113255800D01*
D12*
X106804400Y-115900800D02*
X105569400Y-115900800D01*
X106804400Y-114665800D02*
X106804400Y-115900800D01*
X106804400Y-110960800D02*
X105569400Y-110960800D01*
X106804400Y-112195800D02*
X106804400Y-110960800D01*
X100664400Y-110960800D02*
X101899400Y-110960800D01*
X100664400Y-112195800D02*
X100664400Y-110960800D01*
X100664400Y-115900800D02*
X101899400Y-115900800D01*
X100664400Y-114665800D02*
X100664400Y-115900800D01*
D14*
X120264800Y-116207800D02*
X119714800Y-116207800D01*
X120264800Y-115657800D02*
X120264800Y-116207800D01*
X120264800Y-111047800D02*
X119714800Y-111047800D01*
X120264800Y-111597800D02*
X120264800Y-111047800D01*
X115104800Y-111047800D02*
X115654800Y-111047800D01*
X115104800Y-111597800D02*
X115104800Y-111047800D01*
X115104800Y-116207800D02*
X115654800Y-116207800D01*
X115104800Y-115657800D02*
X115104800Y-116207800D01*
X104243200Y-95500600D02*
X104653200Y-95500600D01*
X104243200Y-96900600D02*
X104653200Y-96900600D01*
X103630200Y-93231400D02*
X103880200Y-93231400D01*
X103630200Y-94191400D02*
X103880200Y-94191400D01*
X102061000Y-93550800D02*
X101741000Y-93550800D01*
X101221000Y-96160800D02*
X101481000Y-96160800D01*
X101221000Y-94360800D02*
X101221000Y-96160800D01*
X102581000Y-94360800D02*
X102321000Y-94360800D01*
X102581000Y-96160800D02*
X102581000Y-94360800D01*
X102321000Y-96160800D02*
X102581000Y-96160800D01*
X101481000Y-94360800D02*
X101221000Y-94360800D01*
M02*
