G04 #@! TF.GenerationSoftware,KiCad,Pcbnew,(5.1.6)-1*
G04 #@! TF.CreationDate,2020-11-27T13:51:03-08:00*
G04 #@! TF.ProjectId,Miniscope-v4-Rigid-Flex,4d696e69-7363-46f7-9065-2d76342d5269,rev?*
G04 #@! TF.SameCoordinates,Original*
G04 #@! TF.FileFunction,Copper,L5,Inr*
G04 #@! TF.FilePolarity,Positive*
%FSLAX46Y46*%
G04 Gerber Fmt 4.6, Leading zero omitted, Abs format (unit mm)*
G04 Created by KiCad (PCBNEW (5.1.6)-1) date 2020-11-27 13:51:03*
%MOMM*%
%LPD*%
G01*
G04 APERTURE LIST*
G04 #@! TA.AperFunction,ViaPad*
%ADD10C,0.350000*%
G04 #@! TD*
G04 #@! TA.AperFunction,ViaPad*
%ADD11C,0.300000*%
G04 #@! TD*
G04 #@! TA.AperFunction,Conductor*
%ADD12C,0.304800*%
G04 #@! TD*
G04 #@! TA.AperFunction,Conductor*
%ADD13C,0.152400*%
G04 #@! TD*
G04 APERTURE END LIST*
D10*
X102967800Y-98080200D03*
X102459800Y-100213800D03*
X101824800Y-97191200D03*
X101901000Y-99588200D03*
X104441000Y-98072204D03*
X105380800Y-101225400D03*
X108153200Y-125282200D03*
X109423200Y-124571000D03*
X110042800Y-127500000D03*
X109792800Y-128500000D03*
X101833200Y-129476000D03*
X103805272Y-126232072D03*
X104991600Y-128180600D03*
X115450200Y-115976100D03*
X106854008Y-110111800D03*
X110515400Y-124494800D03*
X117238200Y-110373800D03*
X107268800Y-124573800D03*
X107010200Y-129295400D03*
X101734400Y-114680800D03*
X102234400Y-115180800D03*
X103727105Y-115714263D03*
X101172800Y-127850400D03*
X108153200Y-126171200D03*
X102425200Y-128206000D03*
X106234400Y-115180800D03*
X103729800Y-110162600D03*
X105990400Y-126740800D03*
X103803210Y-116715800D03*
X106041200Y-125597800D03*
X117862700Y-113338600D03*
X116963200Y-116749200D03*
X104736800Y-126948400D03*
X102409000Y-124691400D03*
X99774000Y-111621200D03*
X101729600Y-115758600D03*
X104734400Y-111680800D03*
X101734400Y-114180800D03*
X106234400Y-112180800D03*
X100000000Y-125215199D03*
X118588800Y-112378800D03*
D11*
X104234400Y-111680800D03*
D10*
X115109000Y-110653200D03*
X101323400Y-110300400D03*
X105584175Y-96353175D03*
X105330000Y-94355802D03*
X116154800Y-110378800D03*
X110000000Y-123859988D03*
X115349800Y-112877800D03*
X115349800Y-113877800D03*
X101346000Y-128914400D03*
X100123002Y-115199800D03*
X104017600Y-129450600D03*
X104978200Y-125064400D03*
X107253800Y-112992800D03*
X106512389Y-123949248D03*
X108149400Y-129707400D03*
X120188996Y-112380400D03*
X105734400Y-115180800D03*
X101734400Y-115180800D03*
X101323400Y-110960800D03*
X105234400Y-111680800D03*
X114956600Y-116469800D03*
X103234400Y-112180800D03*
X118919000Y-110551600D03*
X120189000Y-116106199D03*
X119604804Y-110492800D03*
X102734400Y-112180800D03*
X115349800Y-115361998D03*
X107412800Y-115572800D03*
X102734400Y-114180800D03*
X118769390Y-116698400D03*
X120039390Y-116673000D03*
X102234400Y-114180800D03*
X119833400Y-115377600D03*
X100656400Y-113642400D03*
X105380800Y-100675400D03*
X105533200Y-99091800D03*
X103454800Y-96327600D03*
X107818800Y-124573800D03*
X106234400Y-112680800D03*
X100910400Y-125441000D03*
X102237800Y-110066210D03*
X102234400Y-112180800D03*
X116688200Y-110378800D03*
X101234400Y-114680800D03*
X105734400Y-111680800D03*
X120112800Y-110035600D03*
X99716600Y-112245400D03*
X107235000Y-116487200D03*
D11*
X107387400Y-110111800D03*
D10*
X115349800Y-111867190D03*
X100377000Y-123548400D03*
X99799400Y-110960800D03*
X99183200Y-116741200D03*
X109343200Y-123853200D03*
X99386400Y-125699400D03*
X118360200Y-110475400D03*
X105533200Y-97644000D03*
X105126810Y-99545400D03*
X101977200Y-94533606D03*
X103653600Y-97240200D03*
X102180400Y-95752780D03*
X101723200Y-95092398D03*
X105787200Y-94101800D03*
X101175400Y-115736000D03*
X103734400Y-114680800D03*
X105734400Y-114680800D03*
X103734400Y-111680800D03*
X102358198Y-125199400D03*
X102586800Y-116444400D03*
X103234400Y-114680800D03*
X103145598Y-115826800D03*
X102307400Y-125707400D03*
X103272600Y-110518200D03*
X99310200Y-109654600D03*
X101234400Y-113180800D03*
X105234400Y-112180800D03*
X109542800Y-129500000D03*
X110029000Y-129941200D03*
X103475400Y-129450600D03*
X102383200Y-129476000D03*
X105516200Y-129450600D03*
X101722800Y-128409200D03*
X119533132Y-116770068D03*
X120239800Y-111339000D03*
X102734400Y-114680800D03*
X103153600Y-97240200D03*
X117801400Y-110399200D03*
X102536000Y-123726200D03*
X103234400Y-114180800D03*
X101977200Y-123728999D03*
X103734400Y-114180800D03*
X100046800Y-115953800D03*
X106015800Y-123972200D03*
X104234400Y-114680800D03*
X105507800Y-124023000D03*
X104263192Y-115631600D03*
X107598768Y-125301168D03*
X104234400Y-114180800D03*
X106727000Y-116309400D03*
X107285800Y-125699400D03*
X104734400Y-114680800D03*
X103704402Y-116190400D03*
X101678614Y-126152184D03*
X104734400Y-114180800D03*
X107071800Y-126198400D03*
X105234400Y-114198410D03*
X107412800Y-127198000D03*
X104127250Y-116365400D03*
X107184200Y-126698000D03*
X107477028Y-127667172D03*
X105234400Y-114680800D03*
X101671800Y-127212600D03*
X118284000Y-116698400D03*
X115566200Y-116631600D03*
X117776000Y-116673004D03*
X101469198Y-126639200D03*
X103526600Y-100899600D03*
X100910400Y-124891000D03*
X105350967Y-95176325D03*
X103933000Y-101153600D03*
X101494600Y-124891000D03*
X105750000Y-94750000D03*
D12*
X106663401Y-115542799D02*
X106498400Y-115707800D01*
X106015800Y-115707800D02*
X105736400Y-115428400D01*
X105736400Y-115182800D02*
X105734400Y-115180800D01*
X105736400Y-115428400D02*
X105736400Y-115182800D01*
X107253800Y-112992800D02*
X107232200Y-112992800D01*
X107232200Y-112992800D02*
X106663401Y-113561599D01*
X106498400Y-115707800D02*
X106015800Y-115707800D01*
X106663401Y-113561599D02*
X106663401Y-115542799D01*
D13*
G36*
X105923800Y-93721528D02*
G01*
X105904926Y-93713710D01*
X105826951Y-93698200D01*
X105747449Y-93698200D01*
X105669474Y-93713710D01*
X105596024Y-93744134D01*
X105529920Y-93788303D01*
X105473703Y-93844520D01*
X105429534Y-93910624D01*
X105409072Y-93960023D01*
X105369751Y-93952202D01*
X105290249Y-93952202D01*
X105212274Y-93967712D01*
X105138824Y-93998136D01*
X105072720Y-94042305D01*
X105016503Y-94098522D01*
X104972334Y-94164626D01*
X104941910Y-94238076D01*
X104926400Y-94316051D01*
X104926400Y-94395553D01*
X104941910Y-94473528D01*
X104972334Y-94546978D01*
X105016503Y-94613082D01*
X105072720Y-94669299D01*
X105138824Y-94713468D01*
X105212274Y-94743892D01*
X105290249Y-94759402D01*
X105346400Y-94759402D01*
X105346400Y-94772725D01*
X105311216Y-94772725D01*
X105233241Y-94788235D01*
X105159791Y-94818659D01*
X105093687Y-94862828D01*
X105037470Y-94919045D01*
X104993301Y-94985149D01*
X104962877Y-95058599D01*
X104947367Y-95136574D01*
X104947367Y-95216076D01*
X104962877Y-95294051D01*
X104993301Y-95367501D01*
X105037470Y-95433605D01*
X105093687Y-95489822D01*
X105159791Y-95533991D01*
X105233241Y-95564415D01*
X105311216Y-95579925D01*
X105390718Y-95579925D01*
X105468693Y-95564415D01*
X105542143Y-95533991D01*
X105608247Y-95489822D01*
X105664464Y-95433605D01*
X105708633Y-95367501D01*
X105739057Y-95294051D01*
X105754567Y-95216076D01*
X105754567Y-95153600D01*
X105789751Y-95153600D01*
X105867726Y-95138090D01*
X105923800Y-95114863D01*
X105923800Y-96134999D01*
X105897672Y-96095895D01*
X105841455Y-96039678D01*
X105775351Y-95995509D01*
X105701901Y-95965085D01*
X105623926Y-95949575D01*
X105544424Y-95949575D01*
X105466449Y-95965085D01*
X105392999Y-95995509D01*
X105326895Y-96039678D01*
X105270678Y-96095895D01*
X105226509Y-96161999D01*
X105196085Y-96235449D01*
X105180575Y-96313424D01*
X105180575Y-96392926D01*
X105196085Y-96470901D01*
X105226509Y-96544351D01*
X105270678Y-96610455D01*
X105326895Y-96666672D01*
X105392999Y-96710841D01*
X105466449Y-96741265D01*
X105544424Y-96756775D01*
X105623926Y-96756775D01*
X105701901Y-96741265D01*
X105775351Y-96710841D01*
X105841455Y-96666672D01*
X105897672Y-96610455D01*
X105923800Y-96571351D01*
X105923800Y-97538893D01*
X105921290Y-97526274D01*
X105890866Y-97452824D01*
X105846697Y-97386720D01*
X105790480Y-97330503D01*
X105724376Y-97286334D01*
X105650926Y-97255910D01*
X105572951Y-97240400D01*
X105493449Y-97240400D01*
X105415474Y-97255910D01*
X105342024Y-97286334D01*
X105275920Y-97330503D01*
X105219703Y-97386720D01*
X105175534Y-97452824D01*
X105145110Y-97526274D01*
X105129600Y-97604249D01*
X105129600Y-97683751D01*
X105145110Y-97761726D01*
X105175534Y-97835176D01*
X105219703Y-97901280D01*
X105275920Y-97957497D01*
X105342024Y-98001666D01*
X105415474Y-98032090D01*
X105493449Y-98047600D01*
X105572951Y-98047600D01*
X105650926Y-98032090D01*
X105724376Y-98001666D01*
X105790480Y-97957497D01*
X105846697Y-97901280D01*
X105890866Y-97835176D01*
X105921290Y-97761726D01*
X105923800Y-97749107D01*
X105923800Y-102173800D01*
X101576200Y-102173800D01*
X101576200Y-100859849D01*
X103123000Y-100859849D01*
X103123000Y-100939351D01*
X103138510Y-101017326D01*
X103168934Y-101090776D01*
X103213103Y-101156880D01*
X103269320Y-101213097D01*
X103335424Y-101257266D01*
X103408874Y-101287690D01*
X103486849Y-101303200D01*
X103558113Y-101303200D01*
X103575334Y-101344776D01*
X103619503Y-101410880D01*
X103675720Y-101467097D01*
X103741824Y-101511266D01*
X103815274Y-101541690D01*
X103893249Y-101557200D01*
X103972751Y-101557200D01*
X104050726Y-101541690D01*
X104124176Y-101511266D01*
X104190280Y-101467097D01*
X104246497Y-101410880D01*
X104290666Y-101344776D01*
X104321090Y-101271326D01*
X104336600Y-101193351D01*
X104336600Y-101185649D01*
X104977200Y-101185649D01*
X104977200Y-101265151D01*
X104992710Y-101343126D01*
X105023134Y-101416576D01*
X105067303Y-101482680D01*
X105123520Y-101538897D01*
X105189624Y-101583066D01*
X105263074Y-101613490D01*
X105341049Y-101629000D01*
X105420551Y-101629000D01*
X105498526Y-101613490D01*
X105571976Y-101583066D01*
X105638080Y-101538897D01*
X105694297Y-101482680D01*
X105738466Y-101416576D01*
X105768890Y-101343126D01*
X105784400Y-101265151D01*
X105784400Y-101185649D01*
X105768890Y-101107674D01*
X105738466Y-101034224D01*
X105694297Y-100968120D01*
X105638080Y-100911903D01*
X105571976Y-100867734D01*
X105498526Y-100837310D01*
X105420551Y-100821800D01*
X105341049Y-100821800D01*
X105263074Y-100837310D01*
X105189624Y-100867734D01*
X105123520Y-100911903D01*
X105067303Y-100968120D01*
X105023134Y-101034224D01*
X104992710Y-101107674D01*
X104977200Y-101185649D01*
X104336600Y-101185649D01*
X104336600Y-101113849D01*
X104321090Y-101035874D01*
X104290666Y-100962424D01*
X104246497Y-100896320D01*
X104190280Y-100840103D01*
X104124176Y-100795934D01*
X104050726Y-100765510D01*
X103972751Y-100750000D01*
X103901487Y-100750000D01*
X103884266Y-100708424D01*
X103840097Y-100642320D01*
X103783880Y-100586103D01*
X103717776Y-100541934D01*
X103644326Y-100511510D01*
X103566351Y-100496000D01*
X103486849Y-100496000D01*
X103408874Y-100511510D01*
X103335424Y-100541934D01*
X103269320Y-100586103D01*
X103213103Y-100642320D01*
X103168934Y-100708424D01*
X103138510Y-100781874D01*
X103123000Y-100859849D01*
X101576200Y-100859849D01*
X101576200Y-100174049D01*
X102056200Y-100174049D01*
X102056200Y-100253551D01*
X102071710Y-100331526D01*
X102102134Y-100404976D01*
X102146303Y-100471080D01*
X102202520Y-100527297D01*
X102268624Y-100571466D01*
X102342074Y-100601890D01*
X102420049Y-100617400D01*
X102499551Y-100617400D01*
X102577526Y-100601890D01*
X102650976Y-100571466D01*
X102717080Y-100527297D01*
X102773297Y-100471080D01*
X102817466Y-100404976D01*
X102847890Y-100331526D01*
X102863400Y-100253551D01*
X102863400Y-100174049D01*
X102847890Y-100096074D01*
X102817466Y-100022624D01*
X102773297Y-99956520D01*
X102717080Y-99900303D01*
X102650976Y-99856134D01*
X102577526Y-99825710D01*
X102499551Y-99810200D01*
X102420049Y-99810200D01*
X102342074Y-99825710D01*
X102268624Y-99856134D01*
X102202520Y-99900303D01*
X102146303Y-99956520D01*
X102102134Y-100022624D01*
X102071710Y-100096074D01*
X102056200Y-100174049D01*
X101576200Y-100174049D01*
X101576200Y-99828564D01*
X101587503Y-99845480D01*
X101643720Y-99901697D01*
X101709824Y-99945866D01*
X101783274Y-99976290D01*
X101861249Y-99991800D01*
X101940751Y-99991800D01*
X102018726Y-99976290D01*
X102092176Y-99945866D01*
X102158280Y-99901697D01*
X102214497Y-99845480D01*
X102258666Y-99779376D01*
X102289090Y-99705926D01*
X102304600Y-99627951D01*
X102304600Y-99548449D01*
X102296087Y-99505649D01*
X104723210Y-99505649D01*
X104723210Y-99585151D01*
X104738720Y-99663126D01*
X104769144Y-99736576D01*
X104813313Y-99802680D01*
X104869530Y-99858897D01*
X104935634Y-99903066D01*
X105009084Y-99933490D01*
X105087059Y-99949000D01*
X105166561Y-99949000D01*
X105244536Y-99933490D01*
X105317986Y-99903066D01*
X105384090Y-99858897D01*
X105440307Y-99802680D01*
X105484476Y-99736576D01*
X105514900Y-99663126D01*
X105530410Y-99585151D01*
X105530410Y-99505649D01*
X105514900Y-99427674D01*
X105484476Y-99354224D01*
X105440307Y-99288120D01*
X105384090Y-99231903D01*
X105317986Y-99187734D01*
X105244536Y-99157310D01*
X105166561Y-99141800D01*
X105087059Y-99141800D01*
X105009084Y-99157310D01*
X104935634Y-99187734D01*
X104869530Y-99231903D01*
X104813313Y-99288120D01*
X104769144Y-99354224D01*
X104738720Y-99427674D01*
X104723210Y-99505649D01*
X102296087Y-99505649D01*
X102289090Y-99470474D01*
X102258666Y-99397024D01*
X102214497Y-99330920D01*
X102158280Y-99274703D01*
X102092176Y-99230534D01*
X102018726Y-99200110D01*
X101940751Y-99184600D01*
X101861249Y-99184600D01*
X101783274Y-99200110D01*
X101709824Y-99230534D01*
X101643720Y-99274703D01*
X101587503Y-99330920D01*
X101576200Y-99347836D01*
X101576200Y-98040449D01*
X102564200Y-98040449D01*
X102564200Y-98119951D01*
X102579710Y-98197926D01*
X102610134Y-98271376D01*
X102654303Y-98337480D01*
X102710520Y-98393697D01*
X102776624Y-98437866D01*
X102850074Y-98468290D01*
X102928049Y-98483800D01*
X103007551Y-98483800D01*
X103085526Y-98468290D01*
X103158976Y-98437866D01*
X103225080Y-98393697D01*
X103281297Y-98337480D01*
X103325466Y-98271376D01*
X103355890Y-98197926D01*
X103371400Y-98119951D01*
X103371400Y-98040449D01*
X103369810Y-98032453D01*
X104037400Y-98032453D01*
X104037400Y-98111955D01*
X104052910Y-98189930D01*
X104083334Y-98263380D01*
X104127503Y-98329484D01*
X104183720Y-98385701D01*
X104249824Y-98429870D01*
X104323274Y-98460294D01*
X104401249Y-98475804D01*
X104480751Y-98475804D01*
X104558726Y-98460294D01*
X104632176Y-98429870D01*
X104698280Y-98385701D01*
X104754497Y-98329484D01*
X104798666Y-98263380D01*
X104829090Y-98189930D01*
X104844600Y-98111955D01*
X104844600Y-98032453D01*
X104829090Y-97954478D01*
X104798666Y-97881028D01*
X104754497Y-97814924D01*
X104698280Y-97758707D01*
X104632176Y-97714538D01*
X104558726Y-97684114D01*
X104480751Y-97668604D01*
X104401249Y-97668604D01*
X104323274Y-97684114D01*
X104249824Y-97714538D01*
X104183720Y-97758707D01*
X104127503Y-97814924D01*
X104083334Y-97881028D01*
X104052910Y-97954478D01*
X104037400Y-98032453D01*
X103369810Y-98032453D01*
X103355890Y-97962474D01*
X103325466Y-97889024D01*
X103281297Y-97822920D01*
X103225080Y-97766703D01*
X103158976Y-97722534D01*
X103085526Y-97692110D01*
X103007551Y-97676600D01*
X102928049Y-97676600D01*
X102850074Y-97692110D01*
X102776624Y-97722534D01*
X102710520Y-97766703D01*
X102654303Y-97822920D01*
X102610134Y-97889024D01*
X102579710Y-97962474D01*
X102564200Y-98040449D01*
X101576200Y-98040449D01*
X101576200Y-97510497D01*
X101633624Y-97548866D01*
X101707074Y-97579290D01*
X101785049Y-97594800D01*
X101864551Y-97594800D01*
X101942526Y-97579290D01*
X102015976Y-97548866D01*
X102082080Y-97504697D01*
X102138297Y-97448480D01*
X102182466Y-97382376D01*
X102212890Y-97308926D01*
X102228400Y-97230951D01*
X102228400Y-97200449D01*
X102750000Y-97200449D01*
X102750000Y-97279951D01*
X102765510Y-97357926D01*
X102795934Y-97431376D01*
X102840103Y-97497480D01*
X102896320Y-97553697D01*
X102962424Y-97597866D01*
X103035874Y-97628290D01*
X103113849Y-97643800D01*
X103193351Y-97643800D01*
X103271326Y-97628290D01*
X103344776Y-97597866D01*
X103403600Y-97558561D01*
X103462424Y-97597866D01*
X103535874Y-97628290D01*
X103613849Y-97643800D01*
X103693351Y-97643800D01*
X103771326Y-97628290D01*
X103844776Y-97597866D01*
X103910880Y-97553697D01*
X103967097Y-97497480D01*
X104011266Y-97431376D01*
X104041690Y-97357926D01*
X104057200Y-97279951D01*
X104057200Y-97200449D01*
X104041690Y-97122474D01*
X104011266Y-97049024D01*
X103967097Y-96982920D01*
X103910880Y-96926703D01*
X103844776Y-96882534D01*
X103771326Y-96852110D01*
X103693351Y-96836600D01*
X103613849Y-96836600D01*
X103535874Y-96852110D01*
X103462424Y-96882534D01*
X103403600Y-96921839D01*
X103344776Y-96882534D01*
X103271326Y-96852110D01*
X103193351Y-96836600D01*
X103113849Y-96836600D01*
X103035874Y-96852110D01*
X102962424Y-96882534D01*
X102896320Y-96926703D01*
X102840103Y-96982920D01*
X102795934Y-97049024D01*
X102765510Y-97122474D01*
X102750000Y-97200449D01*
X102228400Y-97200449D01*
X102228400Y-97151449D01*
X102212890Y-97073474D01*
X102182466Y-97000024D01*
X102138297Y-96933920D01*
X102082080Y-96877703D01*
X102015976Y-96833534D01*
X101942526Y-96803110D01*
X101864551Y-96787600D01*
X101785049Y-96787600D01*
X101707074Y-96803110D01*
X101633624Y-96833534D01*
X101576200Y-96871903D01*
X101576200Y-95468362D01*
X101605474Y-95480488D01*
X101683449Y-95495998D01*
X101762951Y-95495998D01*
X101840926Y-95480488D01*
X101910899Y-95451504D01*
X101866903Y-95495500D01*
X101822734Y-95561604D01*
X101792310Y-95635054D01*
X101776800Y-95713029D01*
X101776800Y-95792531D01*
X101792310Y-95870506D01*
X101822734Y-95943956D01*
X101866903Y-96010060D01*
X101923120Y-96066277D01*
X101989224Y-96110446D01*
X102062674Y-96140870D01*
X102140649Y-96156380D01*
X102220151Y-96156380D01*
X102298126Y-96140870D01*
X102371576Y-96110446D01*
X102437680Y-96066277D01*
X102493897Y-96010060D01*
X102538066Y-95943956D01*
X102568490Y-95870506D01*
X102584000Y-95792531D01*
X102584000Y-95713029D01*
X102568490Y-95635054D01*
X102538066Y-95561604D01*
X102493897Y-95495500D01*
X102437680Y-95439283D01*
X102371576Y-95395114D01*
X102298126Y-95364690D01*
X102220151Y-95349180D01*
X102140649Y-95349180D01*
X102062674Y-95364690D01*
X101992701Y-95393674D01*
X102036697Y-95349678D01*
X102080866Y-95283574D01*
X102111290Y-95210124D01*
X102126800Y-95132149D01*
X102126800Y-95052647D01*
X102111290Y-94974672D01*
X102089771Y-94922721D01*
X102094926Y-94921696D01*
X102168376Y-94891272D01*
X102234480Y-94847103D01*
X102290697Y-94790886D01*
X102334866Y-94724782D01*
X102365290Y-94651332D01*
X102380800Y-94573357D01*
X102380800Y-94493855D01*
X102365290Y-94415880D01*
X102334866Y-94342430D01*
X102290697Y-94276326D01*
X102234480Y-94220109D01*
X102168376Y-94175940D01*
X102094926Y-94145516D01*
X102016951Y-94130006D01*
X101937449Y-94130006D01*
X101859474Y-94145516D01*
X101786024Y-94175940D01*
X101719920Y-94220109D01*
X101663703Y-94276326D01*
X101619534Y-94342430D01*
X101589110Y-94415880D01*
X101576200Y-94480784D01*
X101576200Y-93326200D01*
X105923800Y-93326200D01*
X105923800Y-93721528D01*
G37*
X105923800Y-93721528D02*
X105904926Y-93713710D01*
X105826951Y-93698200D01*
X105747449Y-93698200D01*
X105669474Y-93713710D01*
X105596024Y-93744134D01*
X105529920Y-93788303D01*
X105473703Y-93844520D01*
X105429534Y-93910624D01*
X105409072Y-93960023D01*
X105369751Y-93952202D01*
X105290249Y-93952202D01*
X105212274Y-93967712D01*
X105138824Y-93998136D01*
X105072720Y-94042305D01*
X105016503Y-94098522D01*
X104972334Y-94164626D01*
X104941910Y-94238076D01*
X104926400Y-94316051D01*
X104926400Y-94395553D01*
X104941910Y-94473528D01*
X104972334Y-94546978D01*
X105016503Y-94613082D01*
X105072720Y-94669299D01*
X105138824Y-94713468D01*
X105212274Y-94743892D01*
X105290249Y-94759402D01*
X105346400Y-94759402D01*
X105346400Y-94772725D01*
X105311216Y-94772725D01*
X105233241Y-94788235D01*
X105159791Y-94818659D01*
X105093687Y-94862828D01*
X105037470Y-94919045D01*
X104993301Y-94985149D01*
X104962877Y-95058599D01*
X104947367Y-95136574D01*
X104947367Y-95216076D01*
X104962877Y-95294051D01*
X104993301Y-95367501D01*
X105037470Y-95433605D01*
X105093687Y-95489822D01*
X105159791Y-95533991D01*
X105233241Y-95564415D01*
X105311216Y-95579925D01*
X105390718Y-95579925D01*
X105468693Y-95564415D01*
X105542143Y-95533991D01*
X105608247Y-95489822D01*
X105664464Y-95433605D01*
X105708633Y-95367501D01*
X105739057Y-95294051D01*
X105754567Y-95216076D01*
X105754567Y-95153600D01*
X105789751Y-95153600D01*
X105867726Y-95138090D01*
X105923800Y-95114863D01*
X105923800Y-96134999D01*
X105897672Y-96095895D01*
X105841455Y-96039678D01*
X105775351Y-95995509D01*
X105701901Y-95965085D01*
X105623926Y-95949575D01*
X105544424Y-95949575D01*
X105466449Y-95965085D01*
X105392999Y-95995509D01*
X105326895Y-96039678D01*
X105270678Y-96095895D01*
X105226509Y-96161999D01*
X105196085Y-96235449D01*
X105180575Y-96313424D01*
X105180575Y-96392926D01*
X105196085Y-96470901D01*
X105226509Y-96544351D01*
X105270678Y-96610455D01*
X105326895Y-96666672D01*
X105392999Y-96710841D01*
X105466449Y-96741265D01*
X105544424Y-96756775D01*
X105623926Y-96756775D01*
X105701901Y-96741265D01*
X105775351Y-96710841D01*
X105841455Y-96666672D01*
X105897672Y-96610455D01*
X105923800Y-96571351D01*
X105923800Y-97538893D01*
X105921290Y-97526274D01*
X105890866Y-97452824D01*
X105846697Y-97386720D01*
X105790480Y-97330503D01*
X105724376Y-97286334D01*
X105650926Y-97255910D01*
X105572951Y-97240400D01*
X105493449Y-97240400D01*
X105415474Y-97255910D01*
X105342024Y-97286334D01*
X105275920Y-97330503D01*
X105219703Y-97386720D01*
X105175534Y-97452824D01*
X105145110Y-97526274D01*
X105129600Y-97604249D01*
X105129600Y-97683751D01*
X105145110Y-97761726D01*
X105175534Y-97835176D01*
X105219703Y-97901280D01*
X105275920Y-97957497D01*
X105342024Y-98001666D01*
X105415474Y-98032090D01*
X105493449Y-98047600D01*
X105572951Y-98047600D01*
X105650926Y-98032090D01*
X105724376Y-98001666D01*
X105790480Y-97957497D01*
X105846697Y-97901280D01*
X105890866Y-97835176D01*
X105921290Y-97761726D01*
X105923800Y-97749107D01*
X105923800Y-102173800D01*
X101576200Y-102173800D01*
X101576200Y-100859849D01*
X103123000Y-100859849D01*
X103123000Y-100939351D01*
X103138510Y-101017326D01*
X103168934Y-101090776D01*
X103213103Y-101156880D01*
X103269320Y-101213097D01*
X103335424Y-101257266D01*
X103408874Y-101287690D01*
X103486849Y-101303200D01*
X103558113Y-101303200D01*
X103575334Y-101344776D01*
X103619503Y-101410880D01*
X103675720Y-101467097D01*
X103741824Y-101511266D01*
X103815274Y-101541690D01*
X103893249Y-101557200D01*
X103972751Y-101557200D01*
X104050726Y-101541690D01*
X104124176Y-101511266D01*
X104190280Y-101467097D01*
X104246497Y-101410880D01*
X104290666Y-101344776D01*
X104321090Y-101271326D01*
X104336600Y-101193351D01*
X104336600Y-101185649D01*
X104977200Y-101185649D01*
X104977200Y-101265151D01*
X104992710Y-101343126D01*
X105023134Y-101416576D01*
X105067303Y-101482680D01*
X105123520Y-101538897D01*
X105189624Y-101583066D01*
X105263074Y-101613490D01*
X105341049Y-101629000D01*
X105420551Y-101629000D01*
X105498526Y-101613490D01*
X105571976Y-101583066D01*
X105638080Y-101538897D01*
X105694297Y-101482680D01*
X105738466Y-101416576D01*
X105768890Y-101343126D01*
X105784400Y-101265151D01*
X105784400Y-101185649D01*
X105768890Y-101107674D01*
X105738466Y-101034224D01*
X105694297Y-100968120D01*
X105638080Y-100911903D01*
X105571976Y-100867734D01*
X105498526Y-100837310D01*
X105420551Y-100821800D01*
X105341049Y-100821800D01*
X105263074Y-100837310D01*
X105189624Y-100867734D01*
X105123520Y-100911903D01*
X105067303Y-100968120D01*
X105023134Y-101034224D01*
X104992710Y-101107674D01*
X104977200Y-101185649D01*
X104336600Y-101185649D01*
X104336600Y-101113849D01*
X104321090Y-101035874D01*
X104290666Y-100962424D01*
X104246497Y-100896320D01*
X104190280Y-100840103D01*
X104124176Y-100795934D01*
X104050726Y-100765510D01*
X103972751Y-100750000D01*
X103901487Y-100750000D01*
X103884266Y-100708424D01*
X103840097Y-100642320D01*
X103783880Y-100586103D01*
X103717776Y-100541934D01*
X103644326Y-100511510D01*
X103566351Y-100496000D01*
X103486849Y-100496000D01*
X103408874Y-100511510D01*
X103335424Y-100541934D01*
X103269320Y-100586103D01*
X103213103Y-100642320D01*
X103168934Y-100708424D01*
X103138510Y-100781874D01*
X103123000Y-100859849D01*
X101576200Y-100859849D01*
X101576200Y-100174049D01*
X102056200Y-100174049D01*
X102056200Y-100253551D01*
X102071710Y-100331526D01*
X102102134Y-100404976D01*
X102146303Y-100471080D01*
X102202520Y-100527297D01*
X102268624Y-100571466D01*
X102342074Y-100601890D01*
X102420049Y-100617400D01*
X102499551Y-100617400D01*
X102577526Y-100601890D01*
X102650976Y-100571466D01*
X102717080Y-100527297D01*
X102773297Y-100471080D01*
X102817466Y-100404976D01*
X102847890Y-100331526D01*
X102863400Y-100253551D01*
X102863400Y-100174049D01*
X102847890Y-100096074D01*
X102817466Y-100022624D01*
X102773297Y-99956520D01*
X102717080Y-99900303D01*
X102650976Y-99856134D01*
X102577526Y-99825710D01*
X102499551Y-99810200D01*
X102420049Y-99810200D01*
X102342074Y-99825710D01*
X102268624Y-99856134D01*
X102202520Y-99900303D01*
X102146303Y-99956520D01*
X102102134Y-100022624D01*
X102071710Y-100096074D01*
X102056200Y-100174049D01*
X101576200Y-100174049D01*
X101576200Y-99828564D01*
X101587503Y-99845480D01*
X101643720Y-99901697D01*
X101709824Y-99945866D01*
X101783274Y-99976290D01*
X101861249Y-99991800D01*
X101940751Y-99991800D01*
X102018726Y-99976290D01*
X102092176Y-99945866D01*
X102158280Y-99901697D01*
X102214497Y-99845480D01*
X102258666Y-99779376D01*
X102289090Y-99705926D01*
X102304600Y-99627951D01*
X102304600Y-99548449D01*
X102296087Y-99505649D01*
X104723210Y-99505649D01*
X104723210Y-99585151D01*
X104738720Y-99663126D01*
X104769144Y-99736576D01*
X104813313Y-99802680D01*
X104869530Y-99858897D01*
X104935634Y-99903066D01*
X105009084Y-99933490D01*
X105087059Y-99949000D01*
X105166561Y-99949000D01*
X105244536Y-99933490D01*
X105317986Y-99903066D01*
X105384090Y-99858897D01*
X105440307Y-99802680D01*
X105484476Y-99736576D01*
X105514900Y-99663126D01*
X105530410Y-99585151D01*
X105530410Y-99505649D01*
X105514900Y-99427674D01*
X105484476Y-99354224D01*
X105440307Y-99288120D01*
X105384090Y-99231903D01*
X105317986Y-99187734D01*
X105244536Y-99157310D01*
X105166561Y-99141800D01*
X105087059Y-99141800D01*
X105009084Y-99157310D01*
X104935634Y-99187734D01*
X104869530Y-99231903D01*
X104813313Y-99288120D01*
X104769144Y-99354224D01*
X104738720Y-99427674D01*
X104723210Y-99505649D01*
X102296087Y-99505649D01*
X102289090Y-99470474D01*
X102258666Y-99397024D01*
X102214497Y-99330920D01*
X102158280Y-99274703D01*
X102092176Y-99230534D01*
X102018726Y-99200110D01*
X101940751Y-99184600D01*
X101861249Y-99184600D01*
X101783274Y-99200110D01*
X101709824Y-99230534D01*
X101643720Y-99274703D01*
X101587503Y-99330920D01*
X101576200Y-99347836D01*
X101576200Y-98040449D01*
X102564200Y-98040449D01*
X102564200Y-98119951D01*
X102579710Y-98197926D01*
X102610134Y-98271376D01*
X102654303Y-98337480D01*
X102710520Y-98393697D01*
X102776624Y-98437866D01*
X102850074Y-98468290D01*
X102928049Y-98483800D01*
X103007551Y-98483800D01*
X103085526Y-98468290D01*
X103158976Y-98437866D01*
X103225080Y-98393697D01*
X103281297Y-98337480D01*
X103325466Y-98271376D01*
X103355890Y-98197926D01*
X103371400Y-98119951D01*
X103371400Y-98040449D01*
X103369810Y-98032453D01*
X104037400Y-98032453D01*
X104037400Y-98111955D01*
X104052910Y-98189930D01*
X104083334Y-98263380D01*
X104127503Y-98329484D01*
X104183720Y-98385701D01*
X104249824Y-98429870D01*
X104323274Y-98460294D01*
X104401249Y-98475804D01*
X104480751Y-98475804D01*
X104558726Y-98460294D01*
X104632176Y-98429870D01*
X104698280Y-98385701D01*
X104754497Y-98329484D01*
X104798666Y-98263380D01*
X104829090Y-98189930D01*
X104844600Y-98111955D01*
X104844600Y-98032453D01*
X104829090Y-97954478D01*
X104798666Y-97881028D01*
X104754497Y-97814924D01*
X104698280Y-97758707D01*
X104632176Y-97714538D01*
X104558726Y-97684114D01*
X104480751Y-97668604D01*
X104401249Y-97668604D01*
X104323274Y-97684114D01*
X104249824Y-97714538D01*
X104183720Y-97758707D01*
X104127503Y-97814924D01*
X104083334Y-97881028D01*
X104052910Y-97954478D01*
X104037400Y-98032453D01*
X103369810Y-98032453D01*
X103355890Y-97962474D01*
X103325466Y-97889024D01*
X103281297Y-97822920D01*
X103225080Y-97766703D01*
X103158976Y-97722534D01*
X103085526Y-97692110D01*
X103007551Y-97676600D01*
X102928049Y-97676600D01*
X102850074Y-97692110D01*
X102776624Y-97722534D01*
X102710520Y-97766703D01*
X102654303Y-97822920D01*
X102610134Y-97889024D01*
X102579710Y-97962474D01*
X102564200Y-98040449D01*
X101576200Y-98040449D01*
X101576200Y-97510497D01*
X101633624Y-97548866D01*
X101707074Y-97579290D01*
X101785049Y-97594800D01*
X101864551Y-97594800D01*
X101942526Y-97579290D01*
X102015976Y-97548866D01*
X102082080Y-97504697D01*
X102138297Y-97448480D01*
X102182466Y-97382376D01*
X102212890Y-97308926D01*
X102228400Y-97230951D01*
X102228400Y-97200449D01*
X102750000Y-97200449D01*
X102750000Y-97279951D01*
X102765510Y-97357926D01*
X102795934Y-97431376D01*
X102840103Y-97497480D01*
X102896320Y-97553697D01*
X102962424Y-97597866D01*
X103035874Y-97628290D01*
X103113849Y-97643800D01*
X103193351Y-97643800D01*
X103271326Y-97628290D01*
X103344776Y-97597866D01*
X103403600Y-97558561D01*
X103462424Y-97597866D01*
X103535874Y-97628290D01*
X103613849Y-97643800D01*
X103693351Y-97643800D01*
X103771326Y-97628290D01*
X103844776Y-97597866D01*
X103910880Y-97553697D01*
X103967097Y-97497480D01*
X104011266Y-97431376D01*
X104041690Y-97357926D01*
X104057200Y-97279951D01*
X104057200Y-97200449D01*
X104041690Y-97122474D01*
X104011266Y-97049024D01*
X103967097Y-96982920D01*
X103910880Y-96926703D01*
X103844776Y-96882534D01*
X103771326Y-96852110D01*
X103693351Y-96836600D01*
X103613849Y-96836600D01*
X103535874Y-96852110D01*
X103462424Y-96882534D01*
X103403600Y-96921839D01*
X103344776Y-96882534D01*
X103271326Y-96852110D01*
X103193351Y-96836600D01*
X103113849Y-96836600D01*
X103035874Y-96852110D01*
X102962424Y-96882534D01*
X102896320Y-96926703D01*
X102840103Y-96982920D01*
X102795934Y-97049024D01*
X102765510Y-97122474D01*
X102750000Y-97200449D01*
X102228400Y-97200449D01*
X102228400Y-97151449D01*
X102212890Y-97073474D01*
X102182466Y-97000024D01*
X102138297Y-96933920D01*
X102082080Y-96877703D01*
X102015976Y-96833534D01*
X101942526Y-96803110D01*
X101864551Y-96787600D01*
X101785049Y-96787600D01*
X101707074Y-96803110D01*
X101633624Y-96833534D01*
X101576200Y-96871903D01*
X101576200Y-95468362D01*
X101605474Y-95480488D01*
X101683449Y-95495998D01*
X101762951Y-95495998D01*
X101840926Y-95480488D01*
X101910899Y-95451504D01*
X101866903Y-95495500D01*
X101822734Y-95561604D01*
X101792310Y-95635054D01*
X101776800Y-95713029D01*
X101776800Y-95792531D01*
X101792310Y-95870506D01*
X101822734Y-95943956D01*
X101866903Y-96010060D01*
X101923120Y-96066277D01*
X101989224Y-96110446D01*
X102062674Y-96140870D01*
X102140649Y-96156380D01*
X102220151Y-96156380D01*
X102298126Y-96140870D01*
X102371576Y-96110446D01*
X102437680Y-96066277D01*
X102493897Y-96010060D01*
X102538066Y-95943956D01*
X102568490Y-95870506D01*
X102584000Y-95792531D01*
X102584000Y-95713029D01*
X102568490Y-95635054D01*
X102538066Y-95561604D01*
X102493897Y-95495500D01*
X102437680Y-95439283D01*
X102371576Y-95395114D01*
X102298126Y-95364690D01*
X102220151Y-95349180D01*
X102140649Y-95349180D01*
X102062674Y-95364690D01*
X101992701Y-95393674D01*
X102036697Y-95349678D01*
X102080866Y-95283574D01*
X102111290Y-95210124D01*
X102126800Y-95132149D01*
X102126800Y-95052647D01*
X102111290Y-94974672D01*
X102089771Y-94922721D01*
X102094926Y-94921696D01*
X102168376Y-94891272D01*
X102234480Y-94847103D01*
X102290697Y-94790886D01*
X102334866Y-94724782D01*
X102365290Y-94651332D01*
X102380800Y-94573357D01*
X102380800Y-94493855D01*
X102365290Y-94415880D01*
X102334866Y-94342430D01*
X102290697Y-94276326D01*
X102234480Y-94220109D01*
X102168376Y-94175940D01*
X102094926Y-94145516D01*
X102016951Y-94130006D01*
X101937449Y-94130006D01*
X101859474Y-94145516D01*
X101786024Y-94175940D01*
X101719920Y-94220109D01*
X101663703Y-94276326D01*
X101619534Y-94342430D01*
X101589110Y-94415880D01*
X101576200Y-94480784D01*
X101576200Y-93326200D01*
X105923800Y-93326200D01*
X105923800Y-93721528D01*
G36*
X111923800Y-130173800D02*
G01*
X110358988Y-130173800D01*
X110386666Y-130132376D01*
X110417090Y-130058926D01*
X110432600Y-129980951D01*
X110432600Y-129901449D01*
X110417090Y-129823474D01*
X110386666Y-129750024D01*
X110342497Y-129683920D01*
X110286280Y-129627703D01*
X110220176Y-129583534D01*
X110146726Y-129553110D01*
X110068751Y-129537600D01*
X109989249Y-129537600D01*
X109945080Y-129546386D01*
X109946400Y-129539751D01*
X109946400Y-129460249D01*
X109930890Y-129382274D01*
X109900466Y-129308824D01*
X109856297Y-129242720D01*
X109800080Y-129186503D01*
X109733976Y-129142334D01*
X109660526Y-129111910D01*
X109582551Y-129096400D01*
X109503049Y-129096400D01*
X109425074Y-129111910D01*
X109351624Y-129142334D01*
X109285520Y-129186503D01*
X109229303Y-129242720D01*
X109185134Y-129308824D01*
X109154710Y-129382274D01*
X109139200Y-129460249D01*
X109139200Y-129539751D01*
X109154710Y-129617726D01*
X109185134Y-129691176D01*
X109229303Y-129757280D01*
X109285520Y-129813497D01*
X109351624Y-129857666D01*
X109425074Y-129888090D01*
X109503049Y-129903600D01*
X109582551Y-129903600D01*
X109626720Y-129894814D01*
X109625400Y-129901449D01*
X109625400Y-129980951D01*
X109640910Y-130058926D01*
X109671334Y-130132376D01*
X109699012Y-130173800D01*
X100576200Y-130173800D01*
X100576200Y-129436249D01*
X101429600Y-129436249D01*
X101429600Y-129515751D01*
X101445110Y-129593726D01*
X101475534Y-129667176D01*
X101519703Y-129733280D01*
X101575920Y-129789497D01*
X101642024Y-129833666D01*
X101715474Y-129864090D01*
X101793449Y-129879600D01*
X101872951Y-129879600D01*
X101950926Y-129864090D01*
X102024376Y-129833666D01*
X102090480Y-129789497D01*
X102108200Y-129771777D01*
X102125920Y-129789497D01*
X102192024Y-129833666D01*
X102265474Y-129864090D01*
X102343449Y-129879600D01*
X102422951Y-129879600D01*
X102500926Y-129864090D01*
X102574376Y-129833666D01*
X102640480Y-129789497D01*
X102696697Y-129733280D01*
X102740866Y-129667176D01*
X102771290Y-129593726D01*
X102786800Y-129515751D01*
X102786800Y-129436249D01*
X102781748Y-129410849D01*
X103071800Y-129410849D01*
X103071800Y-129490351D01*
X103087310Y-129568326D01*
X103117734Y-129641776D01*
X103161903Y-129707880D01*
X103218120Y-129764097D01*
X103284224Y-129808266D01*
X103357674Y-129838690D01*
X103435649Y-129854200D01*
X103515151Y-129854200D01*
X103593126Y-129838690D01*
X103666576Y-129808266D01*
X103732680Y-129764097D01*
X103788897Y-129707880D01*
X103833066Y-129641776D01*
X103863490Y-129568326D01*
X103879000Y-129490351D01*
X103879000Y-129410849D01*
X105112600Y-129410849D01*
X105112600Y-129490351D01*
X105128110Y-129568326D01*
X105158534Y-129641776D01*
X105202703Y-129707880D01*
X105258920Y-129764097D01*
X105325024Y-129808266D01*
X105398474Y-129838690D01*
X105476449Y-129854200D01*
X105555951Y-129854200D01*
X105633926Y-129838690D01*
X105707376Y-129808266D01*
X105773480Y-129764097D01*
X105829697Y-129707880D01*
X105873866Y-129641776D01*
X105904290Y-129568326D01*
X105919800Y-129490351D01*
X105919800Y-129410849D01*
X105904290Y-129332874D01*
X105873866Y-129259424D01*
X105871344Y-129255649D01*
X106606600Y-129255649D01*
X106606600Y-129335151D01*
X106622110Y-129413126D01*
X106652534Y-129486576D01*
X106696703Y-129552680D01*
X106752920Y-129608897D01*
X106819024Y-129653066D01*
X106892474Y-129683490D01*
X106970449Y-129699000D01*
X107049951Y-129699000D01*
X107127926Y-129683490D01*
X107201376Y-129653066D01*
X107267480Y-129608897D01*
X107323697Y-129552680D01*
X107367866Y-129486576D01*
X107398290Y-129413126D01*
X107413800Y-129335151D01*
X107413800Y-129255649D01*
X107398290Y-129177674D01*
X107367866Y-129104224D01*
X107323697Y-129038120D01*
X107267480Y-128981903D01*
X107201376Y-128937734D01*
X107127926Y-128907310D01*
X107049951Y-128891800D01*
X106970449Y-128891800D01*
X106892474Y-128907310D01*
X106819024Y-128937734D01*
X106752920Y-128981903D01*
X106696703Y-129038120D01*
X106652534Y-129104224D01*
X106622110Y-129177674D01*
X106606600Y-129255649D01*
X105871344Y-129255649D01*
X105829697Y-129193320D01*
X105773480Y-129137103D01*
X105707376Y-129092934D01*
X105633926Y-129062510D01*
X105555951Y-129047000D01*
X105476449Y-129047000D01*
X105398474Y-129062510D01*
X105325024Y-129092934D01*
X105258920Y-129137103D01*
X105202703Y-129193320D01*
X105158534Y-129259424D01*
X105128110Y-129332874D01*
X105112600Y-129410849D01*
X103879000Y-129410849D01*
X103863490Y-129332874D01*
X103833066Y-129259424D01*
X103788897Y-129193320D01*
X103732680Y-129137103D01*
X103666576Y-129092934D01*
X103593126Y-129062510D01*
X103515151Y-129047000D01*
X103435649Y-129047000D01*
X103357674Y-129062510D01*
X103284224Y-129092934D01*
X103218120Y-129137103D01*
X103161903Y-129193320D01*
X103117734Y-129259424D01*
X103087310Y-129332874D01*
X103071800Y-129410849D01*
X102781748Y-129410849D01*
X102771290Y-129358274D01*
X102740866Y-129284824D01*
X102696697Y-129218720D01*
X102640480Y-129162503D01*
X102574376Y-129118334D01*
X102500926Y-129087910D01*
X102422951Y-129072400D01*
X102343449Y-129072400D01*
X102265474Y-129087910D01*
X102192024Y-129118334D01*
X102125920Y-129162503D01*
X102108200Y-129180223D01*
X102090480Y-129162503D01*
X102024376Y-129118334D01*
X101950926Y-129087910D01*
X101872951Y-129072400D01*
X101793449Y-129072400D01*
X101715474Y-129087910D01*
X101642024Y-129118334D01*
X101575920Y-129162503D01*
X101519703Y-129218720D01*
X101475534Y-129284824D01*
X101445110Y-129358274D01*
X101429600Y-129436249D01*
X100576200Y-129436249D01*
X100576200Y-127810649D01*
X100769200Y-127810649D01*
X100769200Y-127890151D01*
X100784710Y-127968126D01*
X100815134Y-128041576D01*
X100859303Y-128107680D01*
X100915520Y-128163897D01*
X100981624Y-128208066D01*
X101055074Y-128238490D01*
X101133049Y-128254000D01*
X101212551Y-128254000D01*
X101290526Y-128238490D01*
X101363976Y-128208066D01*
X101378088Y-128198637D01*
X101365134Y-128218024D01*
X101334710Y-128291474D01*
X101319200Y-128369449D01*
X101319200Y-128448951D01*
X101334710Y-128526926D01*
X101365134Y-128600376D01*
X101409303Y-128666480D01*
X101465520Y-128722697D01*
X101531624Y-128766866D01*
X101605074Y-128797290D01*
X101683049Y-128812800D01*
X101762551Y-128812800D01*
X101840526Y-128797290D01*
X101913976Y-128766866D01*
X101980080Y-128722697D01*
X102036297Y-128666480D01*
X102080466Y-128600376D01*
X102110890Y-128526926D01*
X102121584Y-128473161D01*
X102167920Y-128519497D01*
X102234024Y-128563666D01*
X102307474Y-128594090D01*
X102385449Y-128609600D01*
X102464951Y-128609600D01*
X102542926Y-128594090D01*
X102616376Y-128563666D01*
X102682480Y-128519497D01*
X102738697Y-128463280D01*
X102782866Y-128397176D01*
X102813290Y-128323726D01*
X102828800Y-128245751D01*
X102828800Y-128166249D01*
X102823748Y-128140849D01*
X104588000Y-128140849D01*
X104588000Y-128220351D01*
X104603510Y-128298326D01*
X104633934Y-128371776D01*
X104678103Y-128437880D01*
X104734320Y-128494097D01*
X104800424Y-128538266D01*
X104873874Y-128568690D01*
X104951849Y-128584200D01*
X105031351Y-128584200D01*
X105109326Y-128568690D01*
X105182776Y-128538266D01*
X105248880Y-128494097D01*
X105282728Y-128460249D01*
X109389200Y-128460249D01*
X109389200Y-128539751D01*
X109404710Y-128617726D01*
X109435134Y-128691176D01*
X109479303Y-128757280D01*
X109535520Y-128813497D01*
X109601624Y-128857666D01*
X109675074Y-128888090D01*
X109753049Y-128903600D01*
X109832551Y-128903600D01*
X109910526Y-128888090D01*
X109983976Y-128857666D01*
X110050080Y-128813497D01*
X110106297Y-128757280D01*
X110150466Y-128691176D01*
X110180890Y-128617726D01*
X110196400Y-128539751D01*
X110196400Y-128460249D01*
X110180890Y-128382274D01*
X110150466Y-128308824D01*
X110106297Y-128242720D01*
X110050080Y-128186503D01*
X109983976Y-128142334D01*
X109910526Y-128111910D01*
X109832551Y-128096400D01*
X109753049Y-128096400D01*
X109675074Y-128111910D01*
X109601624Y-128142334D01*
X109535520Y-128186503D01*
X109479303Y-128242720D01*
X109435134Y-128308824D01*
X109404710Y-128382274D01*
X109389200Y-128460249D01*
X105282728Y-128460249D01*
X105305097Y-128437880D01*
X105349266Y-128371776D01*
X105379690Y-128298326D01*
X105395200Y-128220351D01*
X105395200Y-128140849D01*
X105379690Y-128062874D01*
X105349266Y-127989424D01*
X105305097Y-127923320D01*
X105248880Y-127867103D01*
X105182776Y-127822934D01*
X105109326Y-127792510D01*
X105031351Y-127777000D01*
X104951849Y-127777000D01*
X104873874Y-127792510D01*
X104800424Y-127822934D01*
X104734320Y-127867103D01*
X104678103Y-127923320D01*
X104633934Y-127989424D01*
X104603510Y-128062874D01*
X104588000Y-128140849D01*
X102823748Y-128140849D01*
X102813290Y-128088274D01*
X102782866Y-128014824D01*
X102738697Y-127948720D01*
X102682480Y-127892503D01*
X102616376Y-127848334D01*
X102542926Y-127817910D01*
X102464951Y-127802400D01*
X102385449Y-127802400D01*
X102307474Y-127817910D01*
X102234024Y-127848334D01*
X102167920Y-127892503D01*
X102111703Y-127948720D01*
X102067534Y-128014824D01*
X102037110Y-128088274D01*
X102026416Y-128142039D01*
X101980080Y-128095703D01*
X101913976Y-128051534D01*
X101840526Y-128021110D01*
X101762551Y-128005600D01*
X101683049Y-128005600D01*
X101605074Y-128021110D01*
X101531624Y-128051534D01*
X101517512Y-128060963D01*
X101530466Y-128041576D01*
X101560890Y-127968126D01*
X101576400Y-127890151D01*
X101576400Y-127810649D01*
X101560890Y-127732674D01*
X101530466Y-127659224D01*
X101486297Y-127593120D01*
X101430080Y-127536903D01*
X101363976Y-127492734D01*
X101290526Y-127462310D01*
X101212551Y-127446800D01*
X101133049Y-127446800D01*
X101055074Y-127462310D01*
X100981624Y-127492734D01*
X100915520Y-127536903D01*
X100859303Y-127593120D01*
X100815134Y-127659224D01*
X100784710Y-127732674D01*
X100769200Y-127810649D01*
X100576200Y-127810649D01*
X100576200Y-126599449D01*
X101065598Y-126599449D01*
X101065598Y-126678951D01*
X101081108Y-126756926D01*
X101111532Y-126830376D01*
X101155701Y-126896480D01*
X101211918Y-126952697D01*
X101278022Y-126996866D01*
X101319158Y-127013905D01*
X101314134Y-127021424D01*
X101283710Y-127094874D01*
X101268200Y-127172849D01*
X101268200Y-127252351D01*
X101283710Y-127330326D01*
X101314134Y-127403776D01*
X101358303Y-127469880D01*
X101414520Y-127526097D01*
X101480624Y-127570266D01*
X101554074Y-127600690D01*
X101632049Y-127616200D01*
X101711551Y-127616200D01*
X101789526Y-127600690D01*
X101862976Y-127570266D01*
X101929080Y-127526097D01*
X101985297Y-127469880D01*
X102029466Y-127403776D01*
X102059890Y-127330326D01*
X102075400Y-127252351D01*
X102075400Y-127172849D01*
X102059890Y-127094874D01*
X102029466Y-127021424D01*
X101985297Y-126955320D01*
X101938626Y-126908649D01*
X104333200Y-126908649D01*
X104333200Y-126988151D01*
X104348710Y-127066126D01*
X104379134Y-127139576D01*
X104423303Y-127205680D01*
X104479520Y-127261897D01*
X104545624Y-127306066D01*
X104619074Y-127336490D01*
X104697049Y-127352000D01*
X104776551Y-127352000D01*
X104854526Y-127336490D01*
X104927976Y-127306066D01*
X104994080Y-127261897D01*
X105050297Y-127205680D01*
X105094466Y-127139576D01*
X105124890Y-127066126D01*
X105140400Y-126988151D01*
X105140400Y-126908649D01*
X105124890Y-126830674D01*
X105094466Y-126757224D01*
X105056932Y-126701049D01*
X105586800Y-126701049D01*
X105586800Y-126780551D01*
X105602310Y-126858526D01*
X105632734Y-126931976D01*
X105676903Y-126998080D01*
X105733120Y-127054297D01*
X105799224Y-127098466D01*
X105872674Y-127128890D01*
X105950649Y-127144400D01*
X106030151Y-127144400D01*
X106108126Y-127128890D01*
X106181576Y-127098466D01*
X106247680Y-127054297D01*
X106303897Y-126998080D01*
X106348066Y-126931976D01*
X106378490Y-126858526D01*
X106394000Y-126780551D01*
X106394000Y-126701049D01*
X106378490Y-126623074D01*
X106348066Y-126549624D01*
X106303897Y-126483520D01*
X106247680Y-126427303D01*
X106181576Y-126383134D01*
X106108126Y-126352710D01*
X106030151Y-126337200D01*
X105950649Y-126337200D01*
X105872674Y-126352710D01*
X105799224Y-126383134D01*
X105733120Y-126427303D01*
X105676903Y-126483520D01*
X105632734Y-126549624D01*
X105602310Y-126623074D01*
X105586800Y-126701049D01*
X105056932Y-126701049D01*
X105050297Y-126691120D01*
X104994080Y-126634903D01*
X104927976Y-126590734D01*
X104854526Y-126560310D01*
X104776551Y-126544800D01*
X104697049Y-126544800D01*
X104619074Y-126560310D01*
X104545624Y-126590734D01*
X104479520Y-126634903D01*
X104423303Y-126691120D01*
X104379134Y-126757224D01*
X104348710Y-126830674D01*
X104333200Y-126908649D01*
X101938626Y-126908649D01*
X101929080Y-126899103D01*
X101862976Y-126854934D01*
X101821840Y-126837895D01*
X101826864Y-126830376D01*
X101857288Y-126756926D01*
X101872798Y-126678951D01*
X101872798Y-126599449D01*
X101857288Y-126521474D01*
X101855009Y-126515972D01*
X101869790Y-126509850D01*
X101935894Y-126465681D01*
X101992111Y-126409464D01*
X102036280Y-126343360D01*
X102066704Y-126269910D01*
X102082137Y-126192321D01*
X103401672Y-126192321D01*
X103401672Y-126271823D01*
X103417182Y-126349798D01*
X103447606Y-126423248D01*
X103491775Y-126489352D01*
X103547992Y-126545569D01*
X103614096Y-126589738D01*
X103687546Y-126620162D01*
X103765521Y-126635672D01*
X103845023Y-126635672D01*
X103922998Y-126620162D01*
X103996448Y-126589738D01*
X104062552Y-126545569D01*
X104118769Y-126489352D01*
X104162938Y-126423248D01*
X104193362Y-126349798D01*
X104208872Y-126271823D01*
X104208872Y-126192321D01*
X104202175Y-126158649D01*
X106668200Y-126158649D01*
X106668200Y-126238151D01*
X106683710Y-126316126D01*
X106714134Y-126389576D01*
X106758303Y-126455680D01*
X106814520Y-126511897D01*
X106822284Y-126517085D01*
X106796110Y-126580274D01*
X106780600Y-126658249D01*
X106780600Y-126737751D01*
X106796110Y-126815726D01*
X106826534Y-126889176D01*
X106870703Y-126955280D01*
X106926920Y-127011497D01*
X106993024Y-127055666D01*
X107028770Y-127070472D01*
X107024710Y-127080274D01*
X107009200Y-127158249D01*
X107009200Y-127237751D01*
X107024710Y-127315726D01*
X107055134Y-127389176D01*
X107099303Y-127455280D01*
X107119625Y-127475602D01*
X107119362Y-127475996D01*
X107088938Y-127549446D01*
X107073428Y-127627421D01*
X107073428Y-127706923D01*
X107088938Y-127784898D01*
X107119362Y-127858348D01*
X107163531Y-127924452D01*
X107219748Y-127980669D01*
X107285852Y-128024838D01*
X107359302Y-128055262D01*
X107437277Y-128070772D01*
X107516779Y-128070772D01*
X107594754Y-128055262D01*
X107668204Y-128024838D01*
X107734308Y-127980669D01*
X107790525Y-127924452D01*
X107834694Y-127858348D01*
X107865118Y-127784898D01*
X107880628Y-127706923D01*
X107880628Y-127627421D01*
X107865118Y-127549446D01*
X107834694Y-127475996D01*
X107824173Y-127460249D01*
X109639200Y-127460249D01*
X109639200Y-127539751D01*
X109654710Y-127617726D01*
X109685134Y-127691176D01*
X109729303Y-127757280D01*
X109785520Y-127813497D01*
X109851624Y-127857666D01*
X109925074Y-127888090D01*
X110003049Y-127903600D01*
X110082551Y-127903600D01*
X110160526Y-127888090D01*
X110233976Y-127857666D01*
X110300080Y-127813497D01*
X110356297Y-127757280D01*
X110400466Y-127691176D01*
X110430890Y-127617726D01*
X110446400Y-127539751D01*
X110446400Y-127460249D01*
X110430890Y-127382274D01*
X110400466Y-127308824D01*
X110356297Y-127242720D01*
X110300080Y-127186503D01*
X110233976Y-127142334D01*
X110160526Y-127111910D01*
X110082551Y-127096400D01*
X110003049Y-127096400D01*
X109925074Y-127111910D01*
X109851624Y-127142334D01*
X109785520Y-127186503D01*
X109729303Y-127242720D01*
X109685134Y-127308824D01*
X109654710Y-127382274D01*
X109639200Y-127460249D01*
X107824173Y-127460249D01*
X107790525Y-127409892D01*
X107770203Y-127389570D01*
X107770466Y-127389176D01*
X107800890Y-127315726D01*
X107816400Y-127237751D01*
X107816400Y-127158249D01*
X107800890Y-127080274D01*
X107770466Y-127006824D01*
X107726297Y-126940720D01*
X107670080Y-126884503D01*
X107603976Y-126840334D01*
X107568230Y-126825528D01*
X107572290Y-126815726D01*
X107587800Y-126737751D01*
X107587800Y-126658249D01*
X107572290Y-126580274D01*
X107541866Y-126506824D01*
X107497697Y-126440720D01*
X107441480Y-126384503D01*
X107433716Y-126379315D01*
X107459890Y-126316126D01*
X107475400Y-126238151D01*
X107475400Y-126158649D01*
X107469990Y-126131449D01*
X107749600Y-126131449D01*
X107749600Y-126210951D01*
X107765110Y-126288926D01*
X107795534Y-126362376D01*
X107839703Y-126428480D01*
X107895920Y-126484697D01*
X107962024Y-126528866D01*
X108035474Y-126559290D01*
X108113449Y-126574800D01*
X108192951Y-126574800D01*
X108270926Y-126559290D01*
X108344376Y-126528866D01*
X108410480Y-126484697D01*
X108466697Y-126428480D01*
X108510866Y-126362376D01*
X108541290Y-126288926D01*
X108556800Y-126210951D01*
X108556800Y-126131449D01*
X108541290Y-126053474D01*
X108510866Y-125980024D01*
X108466697Y-125913920D01*
X108410480Y-125857703D01*
X108344376Y-125813534D01*
X108270926Y-125783110D01*
X108192951Y-125767600D01*
X108113449Y-125767600D01*
X108035474Y-125783110D01*
X107962024Y-125813534D01*
X107895920Y-125857703D01*
X107839703Y-125913920D01*
X107795534Y-125980024D01*
X107765110Y-126053474D01*
X107749600Y-126131449D01*
X107469990Y-126131449D01*
X107459890Y-126080674D01*
X107454045Y-126066564D01*
X107476976Y-126057066D01*
X107543080Y-126012897D01*
X107599297Y-125956680D01*
X107643466Y-125890576D01*
X107673890Y-125817126D01*
X107689400Y-125739151D01*
X107689400Y-125694647D01*
X107716494Y-125689258D01*
X107789944Y-125658834D01*
X107856048Y-125614665D01*
X107885468Y-125585245D01*
X107895920Y-125595697D01*
X107962024Y-125639866D01*
X108035474Y-125670290D01*
X108113449Y-125685800D01*
X108192951Y-125685800D01*
X108270926Y-125670290D01*
X108344376Y-125639866D01*
X108410480Y-125595697D01*
X108466697Y-125539480D01*
X108510866Y-125473376D01*
X108541290Y-125399926D01*
X108556800Y-125321951D01*
X108556800Y-125242449D01*
X108541290Y-125164474D01*
X108510866Y-125091024D01*
X108466697Y-125024920D01*
X108410480Y-124968703D01*
X108344376Y-124924534D01*
X108270926Y-124894110D01*
X108192951Y-124878600D01*
X108113449Y-124878600D01*
X108077658Y-124885719D01*
X108132297Y-124831080D01*
X108176466Y-124764976D01*
X108206890Y-124691526D01*
X108222400Y-124613551D01*
X108222400Y-124534049D01*
X108206890Y-124456074D01*
X108176466Y-124382624D01*
X108132297Y-124316520D01*
X108076080Y-124260303D01*
X108009976Y-124216134D01*
X107936526Y-124185710D01*
X107858551Y-124170200D01*
X107779049Y-124170200D01*
X107701074Y-124185710D01*
X107627624Y-124216134D01*
X107561520Y-124260303D01*
X107543800Y-124278023D01*
X107526080Y-124260303D01*
X107459976Y-124216134D01*
X107386526Y-124185710D01*
X107308551Y-124170200D01*
X107229049Y-124170200D01*
X107151074Y-124185710D01*
X107077624Y-124216134D01*
X107011520Y-124260303D01*
X106955303Y-124316520D01*
X106911134Y-124382624D01*
X106880710Y-124456074D01*
X106865200Y-124534049D01*
X106865200Y-124613551D01*
X106880710Y-124691526D01*
X106911134Y-124764976D01*
X106955303Y-124831080D01*
X107011520Y-124887297D01*
X107077624Y-124931466D01*
X107151074Y-124961890D01*
X107229049Y-124977400D01*
X107308551Y-124977400D01*
X107377337Y-124963718D01*
X107341488Y-124987671D01*
X107285271Y-125043888D01*
X107241102Y-125109992D01*
X107210678Y-125183442D01*
X107195168Y-125261417D01*
X107195168Y-125305921D01*
X107168074Y-125311310D01*
X107094624Y-125341734D01*
X107028520Y-125385903D01*
X106972303Y-125442120D01*
X106928134Y-125508224D01*
X106897710Y-125581674D01*
X106882200Y-125659649D01*
X106882200Y-125739151D01*
X106897710Y-125817126D01*
X106903555Y-125831236D01*
X106880624Y-125840734D01*
X106814520Y-125884903D01*
X106758303Y-125941120D01*
X106714134Y-126007224D01*
X106683710Y-126080674D01*
X106668200Y-126158649D01*
X104202175Y-126158649D01*
X104193362Y-126114346D01*
X104162938Y-126040896D01*
X104118769Y-125974792D01*
X104062552Y-125918575D01*
X103996448Y-125874406D01*
X103922998Y-125843982D01*
X103845023Y-125828472D01*
X103765521Y-125828472D01*
X103687546Y-125843982D01*
X103614096Y-125874406D01*
X103547992Y-125918575D01*
X103491775Y-125974792D01*
X103447606Y-126040896D01*
X103417182Y-126114346D01*
X103401672Y-126192321D01*
X102082137Y-126192321D01*
X102082214Y-126191935D01*
X102082214Y-126112433D01*
X102066704Y-126034458D01*
X102065284Y-126031029D01*
X102116224Y-126065066D01*
X102189674Y-126095490D01*
X102267649Y-126111000D01*
X102347151Y-126111000D01*
X102425126Y-126095490D01*
X102498576Y-126065066D01*
X102564680Y-126020897D01*
X102620897Y-125964680D01*
X102665066Y-125898576D01*
X102695490Y-125825126D01*
X102711000Y-125747151D01*
X102711000Y-125667649D01*
X102695490Y-125589674D01*
X102682391Y-125558049D01*
X105637600Y-125558049D01*
X105637600Y-125637551D01*
X105653110Y-125715526D01*
X105683534Y-125788976D01*
X105727703Y-125855080D01*
X105783920Y-125911297D01*
X105850024Y-125955466D01*
X105923474Y-125985890D01*
X106001449Y-126001400D01*
X106080951Y-126001400D01*
X106158926Y-125985890D01*
X106232376Y-125955466D01*
X106298480Y-125911297D01*
X106354697Y-125855080D01*
X106398866Y-125788976D01*
X106429290Y-125715526D01*
X106444800Y-125637551D01*
X106444800Y-125558049D01*
X106429290Y-125480074D01*
X106398866Y-125406624D01*
X106354697Y-125340520D01*
X106298480Y-125284303D01*
X106232376Y-125240134D01*
X106158926Y-125209710D01*
X106080951Y-125194200D01*
X106001449Y-125194200D01*
X105923474Y-125209710D01*
X105850024Y-125240134D01*
X105783920Y-125284303D01*
X105727703Y-125340520D01*
X105683534Y-125406624D01*
X105653110Y-125480074D01*
X105637600Y-125558049D01*
X102682391Y-125558049D01*
X102665066Y-125516224D01*
X102643871Y-125484504D01*
X102671695Y-125456680D01*
X102715864Y-125390576D01*
X102746288Y-125317126D01*
X102761798Y-125239151D01*
X102761798Y-125159649D01*
X102746288Y-125081674D01*
X102715864Y-125008224D01*
X102694671Y-124976506D01*
X102722497Y-124948680D01*
X102766666Y-124882576D01*
X102797090Y-124809126D01*
X102812600Y-124731151D01*
X102812600Y-124651649D01*
X102797090Y-124573674D01*
X102766666Y-124500224D01*
X102722497Y-124434120D01*
X102666280Y-124377903D01*
X102600176Y-124333734D01*
X102526726Y-124303310D01*
X102448751Y-124287800D01*
X102369249Y-124287800D01*
X102291274Y-124303310D01*
X102217824Y-124333734D01*
X102151720Y-124377903D01*
X102095503Y-124434120D01*
X102051334Y-124500224D01*
X102020910Y-124573674D01*
X102005400Y-124651649D01*
X102005400Y-124731151D01*
X102020910Y-124809126D01*
X102051334Y-124882576D01*
X102072527Y-124914294D01*
X102044701Y-124942120D01*
X102000532Y-125008224D01*
X101970108Y-125081674D01*
X101954598Y-125159649D01*
X101954598Y-125239151D01*
X101970108Y-125317126D01*
X102000532Y-125390576D01*
X102021727Y-125422296D01*
X101993903Y-125450120D01*
X101949734Y-125516224D01*
X101919310Y-125589674D01*
X101903800Y-125667649D01*
X101903800Y-125747151D01*
X101919310Y-125825126D01*
X101920730Y-125828555D01*
X101869790Y-125794518D01*
X101796340Y-125764094D01*
X101718365Y-125748584D01*
X101638863Y-125748584D01*
X101560888Y-125764094D01*
X101487438Y-125794518D01*
X101421334Y-125838687D01*
X101365117Y-125894904D01*
X101320948Y-125961008D01*
X101290524Y-126034458D01*
X101275014Y-126112433D01*
X101275014Y-126191935D01*
X101290524Y-126269910D01*
X101292803Y-126275412D01*
X101278022Y-126281534D01*
X101211918Y-126325703D01*
X101155701Y-126381920D01*
X101111532Y-126448024D01*
X101081108Y-126521474D01*
X101065598Y-126599449D01*
X100576200Y-126599449D01*
X100576200Y-125667296D01*
X100596903Y-125698280D01*
X100653120Y-125754497D01*
X100719224Y-125798666D01*
X100792674Y-125829090D01*
X100870649Y-125844600D01*
X100950151Y-125844600D01*
X101028126Y-125829090D01*
X101101576Y-125798666D01*
X101167680Y-125754497D01*
X101223897Y-125698280D01*
X101268066Y-125632176D01*
X101298490Y-125558726D01*
X101314000Y-125480751D01*
X101314000Y-125401249D01*
X101298490Y-125323274D01*
X101268066Y-125249824D01*
X101238150Y-125205052D01*
X101303424Y-125248666D01*
X101376874Y-125279090D01*
X101454849Y-125294600D01*
X101534351Y-125294600D01*
X101612326Y-125279090D01*
X101685776Y-125248666D01*
X101751880Y-125204497D01*
X101808097Y-125148280D01*
X101852266Y-125082176D01*
X101882690Y-125008726D01*
X101898200Y-124930751D01*
X101898200Y-124851249D01*
X101882690Y-124773274D01*
X101852266Y-124699824D01*
X101808097Y-124633720D01*
X101751880Y-124577503D01*
X101685776Y-124533334D01*
X101612326Y-124502910D01*
X101534351Y-124487400D01*
X101454849Y-124487400D01*
X101376874Y-124502910D01*
X101303424Y-124533334D01*
X101237320Y-124577503D01*
X101202500Y-124612323D01*
X101167680Y-124577503D01*
X101101576Y-124533334D01*
X101028126Y-124502910D01*
X100950151Y-124487400D01*
X100870649Y-124487400D01*
X100792674Y-124502910D01*
X100719224Y-124533334D01*
X100653120Y-124577503D01*
X100596903Y-124633720D01*
X100576200Y-124664704D01*
X100576200Y-123900705D01*
X100634280Y-123861897D01*
X100690497Y-123805680D01*
X100734666Y-123739576D01*
X100755512Y-123689248D01*
X101573600Y-123689248D01*
X101573600Y-123768750D01*
X101589110Y-123846725D01*
X101619534Y-123920175D01*
X101663703Y-123986279D01*
X101719920Y-124042496D01*
X101786024Y-124086665D01*
X101859474Y-124117089D01*
X101937449Y-124132599D01*
X102016951Y-124132599D01*
X102094926Y-124117089D01*
X102168376Y-124086665D01*
X102234480Y-124042496D01*
X102258000Y-124018977D01*
X102278720Y-124039697D01*
X102344824Y-124083866D01*
X102418274Y-124114290D01*
X102496249Y-124129800D01*
X102575751Y-124129800D01*
X102653726Y-124114290D01*
X102727176Y-124083866D01*
X102793280Y-124039697D01*
X102849497Y-123983480D01*
X102849651Y-123983249D01*
X105104200Y-123983249D01*
X105104200Y-124062751D01*
X105119710Y-124140726D01*
X105150134Y-124214176D01*
X105194303Y-124280280D01*
X105250520Y-124336497D01*
X105316624Y-124380666D01*
X105390074Y-124411090D01*
X105468049Y-124426600D01*
X105547551Y-124426600D01*
X105625526Y-124411090D01*
X105698976Y-124380666D01*
X105765080Y-124336497D01*
X105792905Y-124308672D01*
X105824624Y-124329866D01*
X105898074Y-124360290D01*
X105976049Y-124375800D01*
X106055551Y-124375800D01*
X106133526Y-124360290D01*
X106206976Y-124329866D01*
X106273080Y-124285697D01*
X106329297Y-124229480D01*
X106373466Y-124163376D01*
X106403890Y-124089926D01*
X106419400Y-124011951D01*
X106419400Y-123932449D01*
X106403890Y-123854474D01*
X106386897Y-123813449D01*
X108939600Y-123813449D01*
X108939600Y-123892951D01*
X108955110Y-123970926D01*
X108985534Y-124044376D01*
X109029703Y-124110480D01*
X109085920Y-124166697D01*
X109152024Y-124210866D01*
X109203689Y-124232266D01*
X109165920Y-124257503D01*
X109109703Y-124313720D01*
X109065534Y-124379824D01*
X109035110Y-124453274D01*
X109019600Y-124531249D01*
X109019600Y-124610751D01*
X109035110Y-124688726D01*
X109065534Y-124762176D01*
X109109703Y-124828280D01*
X109165920Y-124884497D01*
X109232024Y-124928666D01*
X109305474Y-124959090D01*
X109383449Y-124974600D01*
X109462951Y-124974600D01*
X109540926Y-124959090D01*
X109614376Y-124928666D01*
X109680480Y-124884497D01*
X109736697Y-124828280D01*
X109780866Y-124762176D01*
X109811290Y-124688726D01*
X109826800Y-124610751D01*
X109826800Y-124531249D01*
X109811644Y-124455049D01*
X110111800Y-124455049D01*
X110111800Y-124534551D01*
X110127310Y-124612526D01*
X110157734Y-124685976D01*
X110201903Y-124752080D01*
X110258120Y-124808297D01*
X110324224Y-124852466D01*
X110397674Y-124882890D01*
X110475649Y-124898400D01*
X110555151Y-124898400D01*
X110633126Y-124882890D01*
X110706576Y-124852466D01*
X110772680Y-124808297D01*
X110828897Y-124752080D01*
X110873066Y-124685976D01*
X110903490Y-124612526D01*
X110919000Y-124534551D01*
X110919000Y-124455049D01*
X110903490Y-124377074D01*
X110873066Y-124303624D01*
X110828897Y-124237520D01*
X110772680Y-124181303D01*
X110706576Y-124137134D01*
X110633126Y-124106710D01*
X110555151Y-124091200D01*
X110475649Y-124091200D01*
X110397674Y-124106710D01*
X110324224Y-124137134D01*
X110258120Y-124181303D01*
X110201903Y-124237520D01*
X110157734Y-124303624D01*
X110127310Y-124377074D01*
X110111800Y-124455049D01*
X109811644Y-124455049D01*
X109811290Y-124453274D01*
X109780866Y-124379824D01*
X109736697Y-124313720D01*
X109680480Y-124257503D01*
X109614376Y-124213334D01*
X109562711Y-124191934D01*
X109600480Y-124166697D01*
X109656697Y-124110480D01*
X109700866Y-124044376D01*
X109731290Y-123970926D01*
X109746800Y-123892951D01*
X109746800Y-123813449D01*
X109731290Y-123735474D01*
X109700866Y-123662024D01*
X109656697Y-123595920D01*
X109600480Y-123539703D01*
X109534376Y-123495534D01*
X109460926Y-123465110D01*
X109382951Y-123449600D01*
X109303449Y-123449600D01*
X109225474Y-123465110D01*
X109152024Y-123495534D01*
X109085920Y-123539703D01*
X109029703Y-123595920D01*
X108985534Y-123662024D01*
X108955110Y-123735474D01*
X108939600Y-123813449D01*
X106386897Y-123813449D01*
X106373466Y-123781024D01*
X106329297Y-123714920D01*
X106273080Y-123658703D01*
X106206976Y-123614534D01*
X106133526Y-123584110D01*
X106055551Y-123568600D01*
X105976049Y-123568600D01*
X105898074Y-123584110D01*
X105824624Y-123614534D01*
X105758520Y-123658703D01*
X105730695Y-123686528D01*
X105698976Y-123665334D01*
X105625526Y-123634910D01*
X105547551Y-123619400D01*
X105468049Y-123619400D01*
X105390074Y-123634910D01*
X105316624Y-123665334D01*
X105250520Y-123709503D01*
X105194303Y-123765720D01*
X105150134Y-123831824D01*
X105119710Y-123905274D01*
X105104200Y-123983249D01*
X102849651Y-123983249D01*
X102893666Y-123917376D01*
X102924090Y-123843926D01*
X102939600Y-123765951D01*
X102939600Y-123686449D01*
X102924090Y-123608474D01*
X102893666Y-123535024D01*
X102849497Y-123468920D01*
X102793280Y-123412703D01*
X102727176Y-123368534D01*
X102653726Y-123338110D01*
X102575751Y-123322600D01*
X102496249Y-123322600D01*
X102418274Y-123338110D01*
X102344824Y-123368534D01*
X102278720Y-123412703D01*
X102255201Y-123436223D01*
X102234480Y-123415502D01*
X102168376Y-123371333D01*
X102094926Y-123340909D01*
X102016951Y-123325399D01*
X101937449Y-123325399D01*
X101859474Y-123340909D01*
X101786024Y-123371333D01*
X101719920Y-123415502D01*
X101663703Y-123471719D01*
X101619534Y-123537823D01*
X101589110Y-123611273D01*
X101573600Y-123689248D01*
X100755512Y-123689248D01*
X100765090Y-123666126D01*
X100780600Y-123588151D01*
X100780600Y-123508649D01*
X100765090Y-123430674D01*
X100734666Y-123357224D01*
X100690497Y-123291120D01*
X100634280Y-123234903D01*
X100576200Y-123196095D01*
X100576200Y-122826200D01*
X111923800Y-122826200D01*
X111923800Y-130173800D01*
G37*
X111923800Y-130173800D02*
X110358988Y-130173800D01*
X110386666Y-130132376D01*
X110417090Y-130058926D01*
X110432600Y-129980951D01*
X110432600Y-129901449D01*
X110417090Y-129823474D01*
X110386666Y-129750024D01*
X110342497Y-129683920D01*
X110286280Y-129627703D01*
X110220176Y-129583534D01*
X110146726Y-129553110D01*
X110068751Y-129537600D01*
X109989249Y-129537600D01*
X109945080Y-129546386D01*
X109946400Y-129539751D01*
X109946400Y-129460249D01*
X109930890Y-129382274D01*
X109900466Y-129308824D01*
X109856297Y-129242720D01*
X109800080Y-129186503D01*
X109733976Y-129142334D01*
X109660526Y-129111910D01*
X109582551Y-129096400D01*
X109503049Y-129096400D01*
X109425074Y-129111910D01*
X109351624Y-129142334D01*
X109285520Y-129186503D01*
X109229303Y-129242720D01*
X109185134Y-129308824D01*
X109154710Y-129382274D01*
X109139200Y-129460249D01*
X109139200Y-129539751D01*
X109154710Y-129617726D01*
X109185134Y-129691176D01*
X109229303Y-129757280D01*
X109285520Y-129813497D01*
X109351624Y-129857666D01*
X109425074Y-129888090D01*
X109503049Y-129903600D01*
X109582551Y-129903600D01*
X109626720Y-129894814D01*
X109625400Y-129901449D01*
X109625400Y-129980951D01*
X109640910Y-130058926D01*
X109671334Y-130132376D01*
X109699012Y-130173800D01*
X100576200Y-130173800D01*
X100576200Y-129436249D01*
X101429600Y-129436249D01*
X101429600Y-129515751D01*
X101445110Y-129593726D01*
X101475534Y-129667176D01*
X101519703Y-129733280D01*
X101575920Y-129789497D01*
X101642024Y-129833666D01*
X101715474Y-129864090D01*
X101793449Y-129879600D01*
X101872951Y-129879600D01*
X101950926Y-129864090D01*
X102024376Y-129833666D01*
X102090480Y-129789497D01*
X102108200Y-129771777D01*
X102125920Y-129789497D01*
X102192024Y-129833666D01*
X102265474Y-129864090D01*
X102343449Y-129879600D01*
X102422951Y-129879600D01*
X102500926Y-129864090D01*
X102574376Y-129833666D01*
X102640480Y-129789497D01*
X102696697Y-129733280D01*
X102740866Y-129667176D01*
X102771290Y-129593726D01*
X102786800Y-129515751D01*
X102786800Y-129436249D01*
X102781748Y-129410849D01*
X103071800Y-129410849D01*
X103071800Y-129490351D01*
X103087310Y-129568326D01*
X103117734Y-129641776D01*
X103161903Y-129707880D01*
X103218120Y-129764097D01*
X103284224Y-129808266D01*
X103357674Y-129838690D01*
X103435649Y-129854200D01*
X103515151Y-129854200D01*
X103593126Y-129838690D01*
X103666576Y-129808266D01*
X103732680Y-129764097D01*
X103788897Y-129707880D01*
X103833066Y-129641776D01*
X103863490Y-129568326D01*
X103879000Y-129490351D01*
X103879000Y-129410849D01*
X105112600Y-129410849D01*
X105112600Y-129490351D01*
X105128110Y-129568326D01*
X105158534Y-129641776D01*
X105202703Y-129707880D01*
X105258920Y-129764097D01*
X105325024Y-129808266D01*
X105398474Y-129838690D01*
X105476449Y-129854200D01*
X105555951Y-129854200D01*
X105633926Y-129838690D01*
X105707376Y-129808266D01*
X105773480Y-129764097D01*
X105829697Y-129707880D01*
X105873866Y-129641776D01*
X105904290Y-129568326D01*
X105919800Y-129490351D01*
X105919800Y-129410849D01*
X105904290Y-129332874D01*
X105873866Y-129259424D01*
X105871344Y-129255649D01*
X106606600Y-129255649D01*
X106606600Y-129335151D01*
X106622110Y-129413126D01*
X106652534Y-129486576D01*
X106696703Y-129552680D01*
X106752920Y-129608897D01*
X106819024Y-129653066D01*
X106892474Y-129683490D01*
X106970449Y-129699000D01*
X107049951Y-129699000D01*
X107127926Y-129683490D01*
X107201376Y-129653066D01*
X107267480Y-129608897D01*
X107323697Y-129552680D01*
X107367866Y-129486576D01*
X107398290Y-129413126D01*
X107413800Y-129335151D01*
X107413800Y-129255649D01*
X107398290Y-129177674D01*
X107367866Y-129104224D01*
X107323697Y-129038120D01*
X107267480Y-128981903D01*
X107201376Y-128937734D01*
X107127926Y-128907310D01*
X107049951Y-128891800D01*
X106970449Y-128891800D01*
X106892474Y-128907310D01*
X106819024Y-128937734D01*
X106752920Y-128981903D01*
X106696703Y-129038120D01*
X106652534Y-129104224D01*
X106622110Y-129177674D01*
X106606600Y-129255649D01*
X105871344Y-129255649D01*
X105829697Y-129193320D01*
X105773480Y-129137103D01*
X105707376Y-129092934D01*
X105633926Y-129062510D01*
X105555951Y-129047000D01*
X105476449Y-129047000D01*
X105398474Y-129062510D01*
X105325024Y-129092934D01*
X105258920Y-129137103D01*
X105202703Y-129193320D01*
X105158534Y-129259424D01*
X105128110Y-129332874D01*
X105112600Y-129410849D01*
X103879000Y-129410849D01*
X103863490Y-129332874D01*
X103833066Y-129259424D01*
X103788897Y-129193320D01*
X103732680Y-129137103D01*
X103666576Y-129092934D01*
X103593126Y-129062510D01*
X103515151Y-129047000D01*
X103435649Y-129047000D01*
X103357674Y-129062510D01*
X103284224Y-129092934D01*
X103218120Y-129137103D01*
X103161903Y-129193320D01*
X103117734Y-129259424D01*
X103087310Y-129332874D01*
X103071800Y-129410849D01*
X102781748Y-129410849D01*
X102771290Y-129358274D01*
X102740866Y-129284824D01*
X102696697Y-129218720D01*
X102640480Y-129162503D01*
X102574376Y-129118334D01*
X102500926Y-129087910D01*
X102422951Y-129072400D01*
X102343449Y-129072400D01*
X102265474Y-129087910D01*
X102192024Y-129118334D01*
X102125920Y-129162503D01*
X102108200Y-129180223D01*
X102090480Y-129162503D01*
X102024376Y-129118334D01*
X101950926Y-129087910D01*
X101872951Y-129072400D01*
X101793449Y-129072400D01*
X101715474Y-129087910D01*
X101642024Y-129118334D01*
X101575920Y-129162503D01*
X101519703Y-129218720D01*
X101475534Y-129284824D01*
X101445110Y-129358274D01*
X101429600Y-129436249D01*
X100576200Y-129436249D01*
X100576200Y-127810649D01*
X100769200Y-127810649D01*
X100769200Y-127890151D01*
X100784710Y-127968126D01*
X100815134Y-128041576D01*
X100859303Y-128107680D01*
X100915520Y-128163897D01*
X100981624Y-128208066D01*
X101055074Y-128238490D01*
X101133049Y-128254000D01*
X101212551Y-128254000D01*
X101290526Y-128238490D01*
X101363976Y-128208066D01*
X101378088Y-128198637D01*
X101365134Y-128218024D01*
X101334710Y-128291474D01*
X101319200Y-128369449D01*
X101319200Y-128448951D01*
X101334710Y-128526926D01*
X101365134Y-128600376D01*
X101409303Y-128666480D01*
X101465520Y-128722697D01*
X101531624Y-128766866D01*
X101605074Y-128797290D01*
X101683049Y-128812800D01*
X101762551Y-128812800D01*
X101840526Y-128797290D01*
X101913976Y-128766866D01*
X101980080Y-128722697D01*
X102036297Y-128666480D01*
X102080466Y-128600376D01*
X102110890Y-128526926D01*
X102121584Y-128473161D01*
X102167920Y-128519497D01*
X102234024Y-128563666D01*
X102307474Y-128594090D01*
X102385449Y-128609600D01*
X102464951Y-128609600D01*
X102542926Y-128594090D01*
X102616376Y-128563666D01*
X102682480Y-128519497D01*
X102738697Y-128463280D01*
X102782866Y-128397176D01*
X102813290Y-128323726D01*
X102828800Y-128245751D01*
X102828800Y-128166249D01*
X102823748Y-128140849D01*
X104588000Y-128140849D01*
X104588000Y-128220351D01*
X104603510Y-128298326D01*
X104633934Y-128371776D01*
X104678103Y-128437880D01*
X104734320Y-128494097D01*
X104800424Y-128538266D01*
X104873874Y-128568690D01*
X104951849Y-128584200D01*
X105031351Y-128584200D01*
X105109326Y-128568690D01*
X105182776Y-128538266D01*
X105248880Y-128494097D01*
X105282728Y-128460249D01*
X109389200Y-128460249D01*
X109389200Y-128539751D01*
X109404710Y-128617726D01*
X109435134Y-128691176D01*
X109479303Y-128757280D01*
X109535520Y-128813497D01*
X109601624Y-128857666D01*
X109675074Y-128888090D01*
X109753049Y-128903600D01*
X109832551Y-128903600D01*
X109910526Y-128888090D01*
X109983976Y-128857666D01*
X110050080Y-128813497D01*
X110106297Y-128757280D01*
X110150466Y-128691176D01*
X110180890Y-128617726D01*
X110196400Y-128539751D01*
X110196400Y-128460249D01*
X110180890Y-128382274D01*
X110150466Y-128308824D01*
X110106297Y-128242720D01*
X110050080Y-128186503D01*
X109983976Y-128142334D01*
X109910526Y-128111910D01*
X109832551Y-128096400D01*
X109753049Y-128096400D01*
X109675074Y-128111910D01*
X109601624Y-128142334D01*
X109535520Y-128186503D01*
X109479303Y-128242720D01*
X109435134Y-128308824D01*
X109404710Y-128382274D01*
X109389200Y-128460249D01*
X105282728Y-128460249D01*
X105305097Y-128437880D01*
X105349266Y-128371776D01*
X105379690Y-128298326D01*
X105395200Y-128220351D01*
X105395200Y-128140849D01*
X105379690Y-128062874D01*
X105349266Y-127989424D01*
X105305097Y-127923320D01*
X105248880Y-127867103D01*
X105182776Y-127822934D01*
X105109326Y-127792510D01*
X105031351Y-127777000D01*
X104951849Y-127777000D01*
X104873874Y-127792510D01*
X104800424Y-127822934D01*
X104734320Y-127867103D01*
X104678103Y-127923320D01*
X104633934Y-127989424D01*
X104603510Y-128062874D01*
X104588000Y-128140849D01*
X102823748Y-128140849D01*
X102813290Y-128088274D01*
X102782866Y-128014824D01*
X102738697Y-127948720D01*
X102682480Y-127892503D01*
X102616376Y-127848334D01*
X102542926Y-127817910D01*
X102464951Y-127802400D01*
X102385449Y-127802400D01*
X102307474Y-127817910D01*
X102234024Y-127848334D01*
X102167920Y-127892503D01*
X102111703Y-127948720D01*
X102067534Y-128014824D01*
X102037110Y-128088274D01*
X102026416Y-128142039D01*
X101980080Y-128095703D01*
X101913976Y-128051534D01*
X101840526Y-128021110D01*
X101762551Y-128005600D01*
X101683049Y-128005600D01*
X101605074Y-128021110D01*
X101531624Y-128051534D01*
X101517512Y-128060963D01*
X101530466Y-128041576D01*
X101560890Y-127968126D01*
X101576400Y-127890151D01*
X101576400Y-127810649D01*
X101560890Y-127732674D01*
X101530466Y-127659224D01*
X101486297Y-127593120D01*
X101430080Y-127536903D01*
X101363976Y-127492734D01*
X101290526Y-127462310D01*
X101212551Y-127446800D01*
X101133049Y-127446800D01*
X101055074Y-127462310D01*
X100981624Y-127492734D01*
X100915520Y-127536903D01*
X100859303Y-127593120D01*
X100815134Y-127659224D01*
X100784710Y-127732674D01*
X100769200Y-127810649D01*
X100576200Y-127810649D01*
X100576200Y-126599449D01*
X101065598Y-126599449D01*
X101065598Y-126678951D01*
X101081108Y-126756926D01*
X101111532Y-126830376D01*
X101155701Y-126896480D01*
X101211918Y-126952697D01*
X101278022Y-126996866D01*
X101319158Y-127013905D01*
X101314134Y-127021424D01*
X101283710Y-127094874D01*
X101268200Y-127172849D01*
X101268200Y-127252351D01*
X101283710Y-127330326D01*
X101314134Y-127403776D01*
X101358303Y-127469880D01*
X101414520Y-127526097D01*
X101480624Y-127570266D01*
X101554074Y-127600690D01*
X101632049Y-127616200D01*
X101711551Y-127616200D01*
X101789526Y-127600690D01*
X101862976Y-127570266D01*
X101929080Y-127526097D01*
X101985297Y-127469880D01*
X102029466Y-127403776D01*
X102059890Y-127330326D01*
X102075400Y-127252351D01*
X102075400Y-127172849D01*
X102059890Y-127094874D01*
X102029466Y-127021424D01*
X101985297Y-126955320D01*
X101938626Y-126908649D01*
X104333200Y-126908649D01*
X104333200Y-126988151D01*
X104348710Y-127066126D01*
X104379134Y-127139576D01*
X104423303Y-127205680D01*
X104479520Y-127261897D01*
X104545624Y-127306066D01*
X104619074Y-127336490D01*
X104697049Y-127352000D01*
X104776551Y-127352000D01*
X104854526Y-127336490D01*
X104927976Y-127306066D01*
X104994080Y-127261897D01*
X105050297Y-127205680D01*
X105094466Y-127139576D01*
X105124890Y-127066126D01*
X105140400Y-126988151D01*
X105140400Y-126908649D01*
X105124890Y-126830674D01*
X105094466Y-126757224D01*
X105056932Y-126701049D01*
X105586800Y-126701049D01*
X105586800Y-126780551D01*
X105602310Y-126858526D01*
X105632734Y-126931976D01*
X105676903Y-126998080D01*
X105733120Y-127054297D01*
X105799224Y-127098466D01*
X105872674Y-127128890D01*
X105950649Y-127144400D01*
X106030151Y-127144400D01*
X106108126Y-127128890D01*
X106181576Y-127098466D01*
X106247680Y-127054297D01*
X106303897Y-126998080D01*
X106348066Y-126931976D01*
X106378490Y-126858526D01*
X106394000Y-126780551D01*
X106394000Y-126701049D01*
X106378490Y-126623074D01*
X106348066Y-126549624D01*
X106303897Y-126483520D01*
X106247680Y-126427303D01*
X106181576Y-126383134D01*
X106108126Y-126352710D01*
X106030151Y-126337200D01*
X105950649Y-126337200D01*
X105872674Y-126352710D01*
X105799224Y-126383134D01*
X105733120Y-126427303D01*
X105676903Y-126483520D01*
X105632734Y-126549624D01*
X105602310Y-126623074D01*
X105586800Y-126701049D01*
X105056932Y-126701049D01*
X105050297Y-126691120D01*
X104994080Y-126634903D01*
X104927976Y-126590734D01*
X104854526Y-126560310D01*
X104776551Y-126544800D01*
X104697049Y-126544800D01*
X104619074Y-126560310D01*
X104545624Y-126590734D01*
X104479520Y-126634903D01*
X104423303Y-126691120D01*
X104379134Y-126757224D01*
X104348710Y-126830674D01*
X104333200Y-126908649D01*
X101938626Y-126908649D01*
X101929080Y-126899103D01*
X101862976Y-126854934D01*
X101821840Y-126837895D01*
X101826864Y-126830376D01*
X101857288Y-126756926D01*
X101872798Y-126678951D01*
X101872798Y-126599449D01*
X101857288Y-126521474D01*
X101855009Y-126515972D01*
X101869790Y-126509850D01*
X101935894Y-126465681D01*
X101992111Y-126409464D01*
X102036280Y-126343360D01*
X102066704Y-126269910D01*
X102082137Y-126192321D01*
X103401672Y-126192321D01*
X103401672Y-126271823D01*
X103417182Y-126349798D01*
X103447606Y-126423248D01*
X103491775Y-126489352D01*
X103547992Y-126545569D01*
X103614096Y-126589738D01*
X103687546Y-126620162D01*
X103765521Y-126635672D01*
X103845023Y-126635672D01*
X103922998Y-126620162D01*
X103996448Y-126589738D01*
X104062552Y-126545569D01*
X104118769Y-126489352D01*
X104162938Y-126423248D01*
X104193362Y-126349798D01*
X104208872Y-126271823D01*
X104208872Y-126192321D01*
X104202175Y-126158649D01*
X106668200Y-126158649D01*
X106668200Y-126238151D01*
X106683710Y-126316126D01*
X106714134Y-126389576D01*
X106758303Y-126455680D01*
X106814520Y-126511897D01*
X106822284Y-126517085D01*
X106796110Y-126580274D01*
X106780600Y-126658249D01*
X106780600Y-126737751D01*
X106796110Y-126815726D01*
X106826534Y-126889176D01*
X106870703Y-126955280D01*
X106926920Y-127011497D01*
X106993024Y-127055666D01*
X107028770Y-127070472D01*
X107024710Y-127080274D01*
X107009200Y-127158249D01*
X107009200Y-127237751D01*
X107024710Y-127315726D01*
X107055134Y-127389176D01*
X107099303Y-127455280D01*
X107119625Y-127475602D01*
X107119362Y-127475996D01*
X107088938Y-127549446D01*
X107073428Y-127627421D01*
X107073428Y-127706923D01*
X107088938Y-127784898D01*
X107119362Y-127858348D01*
X107163531Y-127924452D01*
X107219748Y-127980669D01*
X107285852Y-128024838D01*
X107359302Y-128055262D01*
X107437277Y-128070772D01*
X107516779Y-128070772D01*
X107594754Y-128055262D01*
X107668204Y-128024838D01*
X107734308Y-127980669D01*
X107790525Y-127924452D01*
X107834694Y-127858348D01*
X107865118Y-127784898D01*
X107880628Y-127706923D01*
X107880628Y-127627421D01*
X107865118Y-127549446D01*
X107834694Y-127475996D01*
X107824173Y-127460249D01*
X109639200Y-127460249D01*
X109639200Y-127539751D01*
X109654710Y-127617726D01*
X109685134Y-127691176D01*
X109729303Y-127757280D01*
X109785520Y-127813497D01*
X109851624Y-127857666D01*
X109925074Y-127888090D01*
X110003049Y-127903600D01*
X110082551Y-127903600D01*
X110160526Y-127888090D01*
X110233976Y-127857666D01*
X110300080Y-127813497D01*
X110356297Y-127757280D01*
X110400466Y-127691176D01*
X110430890Y-127617726D01*
X110446400Y-127539751D01*
X110446400Y-127460249D01*
X110430890Y-127382274D01*
X110400466Y-127308824D01*
X110356297Y-127242720D01*
X110300080Y-127186503D01*
X110233976Y-127142334D01*
X110160526Y-127111910D01*
X110082551Y-127096400D01*
X110003049Y-127096400D01*
X109925074Y-127111910D01*
X109851624Y-127142334D01*
X109785520Y-127186503D01*
X109729303Y-127242720D01*
X109685134Y-127308824D01*
X109654710Y-127382274D01*
X109639200Y-127460249D01*
X107824173Y-127460249D01*
X107790525Y-127409892D01*
X107770203Y-127389570D01*
X107770466Y-127389176D01*
X107800890Y-127315726D01*
X107816400Y-127237751D01*
X107816400Y-127158249D01*
X107800890Y-127080274D01*
X107770466Y-127006824D01*
X107726297Y-126940720D01*
X107670080Y-126884503D01*
X107603976Y-126840334D01*
X107568230Y-126825528D01*
X107572290Y-126815726D01*
X107587800Y-126737751D01*
X107587800Y-126658249D01*
X107572290Y-126580274D01*
X107541866Y-126506824D01*
X107497697Y-126440720D01*
X107441480Y-126384503D01*
X107433716Y-126379315D01*
X107459890Y-126316126D01*
X107475400Y-126238151D01*
X107475400Y-126158649D01*
X107469990Y-126131449D01*
X107749600Y-126131449D01*
X107749600Y-126210951D01*
X107765110Y-126288926D01*
X107795534Y-126362376D01*
X107839703Y-126428480D01*
X107895920Y-126484697D01*
X107962024Y-126528866D01*
X108035474Y-126559290D01*
X108113449Y-126574800D01*
X108192951Y-126574800D01*
X108270926Y-126559290D01*
X108344376Y-126528866D01*
X108410480Y-126484697D01*
X108466697Y-126428480D01*
X108510866Y-126362376D01*
X108541290Y-126288926D01*
X108556800Y-126210951D01*
X108556800Y-126131449D01*
X108541290Y-126053474D01*
X108510866Y-125980024D01*
X108466697Y-125913920D01*
X108410480Y-125857703D01*
X108344376Y-125813534D01*
X108270926Y-125783110D01*
X108192951Y-125767600D01*
X108113449Y-125767600D01*
X108035474Y-125783110D01*
X107962024Y-125813534D01*
X107895920Y-125857703D01*
X107839703Y-125913920D01*
X107795534Y-125980024D01*
X107765110Y-126053474D01*
X107749600Y-126131449D01*
X107469990Y-126131449D01*
X107459890Y-126080674D01*
X107454045Y-126066564D01*
X107476976Y-126057066D01*
X107543080Y-126012897D01*
X107599297Y-125956680D01*
X107643466Y-125890576D01*
X107673890Y-125817126D01*
X107689400Y-125739151D01*
X107689400Y-125694647D01*
X107716494Y-125689258D01*
X107789944Y-125658834D01*
X107856048Y-125614665D01*
X107885468Y-125585245D01*
X107895920Y-125595697D01*
X107962024Y-125639866D01*
X108035474Y-125670290D01*
X108113449Y-125685800D01*
X108192951Y-125685800D01*
X108270926Y-125670290D01*
X108344376Y-125639866D01*
X108410480Y-125595697D01*
X108466697Y-125539480D01*
X108510866Y-125473376D01*
X108541290Y-125399926D01*
X108556800Y-125321951D01*
X108556800Y-125242449D01*
X108541290Y-125164474D01*
X108510866Y-125091024D01*
X108466697Y-125024920D01*
X108410480Y-124968703D01*
X108344376Y-124924534D01*
X108270926Y-124894110D01*
X108192951Y-124878600D01*
X108113449Y-124878600D01*
X108077658Y-124885719D01*
X108132297Y-124831080D01*
X108176466Y-124764976D01*
X108206890Y-124691526D01*
X108222400Y-124613551D01*
X108222400Y-124534049D01*
X108206890Y-124456074D01*
X108176466Y-124382624D01*
X108132297Y-124316520D01*
X108076080Y-124260303D01*
X108009976Y-124216134D01*
X107936526Y-124185710D01*
X107858551Y-124170200D01*
X107779049Y-124170200D01*
X107701074Y-124185710D01*
X107627624Y-124216134D01*
X107561520Y-124260303D01*
X107543800Y-124278023D01*
X107526080Y-124260303D01*
X107459976Y-124216134D01*
X107386526Y-124185710D01*
X107308551Y-124170200D01*
X107229049Y-124170200D01*
X107151074Y-124185710D01*
X107077624Y-124216134D01*
X107011520Y-124260303D01*
X106955303Y-124316520D01*
X106911134Y-124382624D01*
X106880710Y-124456074D01*
X106865200Y-124534049D01*
X106865200Y-124613551D01*
X106880710Y-124691526D01*
X106911134Y-124764976D01*
X106955303Y-124831080D01*
X107011520Y-124887297D01*
X107077624Y-124931466D01*
X107151074Y-124961890D01*
X107229049Y-124977400D01*
X107308551Y-124977400D01*
X107377337Y-124963718D01*
X107341488Y-124987671D01*
X107285271Y-125043888D01*
X107241102Y-125109992D01*
X107210678Y-125183442D01*
X107195168Y-125261417D01*
X107195168Y-125305921D01*
X107168074Y-125311310D01*
X107094624Y-125341734D01*
X107028520Y-125385903D01*
X106972303Y-125442120D01*
X106928134Y-125508224D01*
X106897710Y-125581674D01*
X106882200Y-125659649D01*
X106882200Y-125739151D01*
X106897710Y-125817126D01*
X106903555Y-125831236D01*
X106880624Y-125840734D01*
X106814520Y-125884903D01*
X106758303Y-125941120D01*
X106714134Y-126007224D01*
X106683710Y-126080674D01*
X106668200Y-126158649D01*
X104202175Y-126158649D01*
X104193362Y-126114346D01*
X104162938Y-126040896D01*
X104118769Y-125974792D01*
X104062552Y-125918575D01*
X103996448Y-125874406D01*
X103922998Y-125843982D01*
X103845023Y-125828472D01*
X103765521Y-125828472D01*
X103687546Y-125843982D01*
X103614096Y-125874406D01*
X103547992Y-125918575D01*
X103491775Y-125974792D01*
X103447606Y-126040896D01*
X103417182Y-126114346D01*
X103401672Y-126192321D01*
X102082137Y-126192321D01*
X102082214Y-126191935D01*
X102082214Y-126112433D01*
X102066704Y-126034458D01*
X102065284Y-126031029D01*
X102116224Y-126065066D01*
X102189674Y-126095490D01*
X102267649Y-126111000D01*
X102347151Y-126111000D01*
X102425126Y-126095490D01*
X102498576Y-126065066D01*
X102564680Y-126020897D01*
X102620897Y-125964680D01*
X102665066Y-125898576D01*
X102695490Y-125825126D01*
X102711000Y-125747151D01*
X102711000Y-125667649D01*
X102695490Y-125589674D01*
X102682391Y-125558049D01*
X105637600Y-125558049D01*
X105637600Y-125637551D01*
X105653110Y-125715526D01*
X105683534Y-125788976D01*
X105727703Y-125855080D01*
X105783920Y-125911297D01*
X105850024Y-125955466D01*
X105923474Y-125985890D01*
X106001449Y-126001400D01*
X106080951Y-126001400D01*
X106158926Y-125985890D01*
X106232376Y-125955466D01*
X106298480Y-125911297D01*
X106354697Y-125855080D01*
X106398866Y-125788976D01*
X106429290Y-125715526D01*
X106444800Y-125637551D01*
X106444800Y-125558049D01*
X106429290Y-125480074D01*
X106398866Y-125406624D01*
X106354697Y-125340520D01*
X106298480Y-125284303D01*
X106232376Y-125240134D01*
X106158926Y-125209710D01*
X106080951Y-125194200D01*
X106001449Y-125194200D01*
X105923474Y-125209710D01*
X105850024Y-125240134D01*
X105783920Y-125284303D01*
X105727703Y-125340520D01*
X105683534Y-125406624D01*
X105653110Y-125480074D01*
X105637600Y-125558049D01*
X102682391Y-125558049D01*
X102665066Y-125516224D01*
X102643871Y-125484504D01*
X102671695Y-125456680D01*
X102715864Y-125390576D01*
X102746288Y-125317126D01*
X102761798Y-125239151D01*
X102761798Y-125159649D01*
X102746288Y-125081674D01*
X102715864Y-125008224D01*
X102694671Y-124976506D01*
X102722497Y-124948680D01*
X102766666Y-124882576D01*
X102797090Y-124809126D01*
X102812600Y-124731151D01*
X102812600Y-124651649D01*
X102797090Y-124573674D01*
X102766666Y-124500224D01*
X102722497Y-124434120D01*
X102666280Y-124377903D01*
X102600176Y-124333734D01*
X102526726Y-124303310D01*
X102448751Y-124287800D01*
X102369249Y-124287800D01*
X102291274Y-124303310D01*
X102217824Y-124333734D01*
X102151720Y-124377903D01*
X102095503Y-124434120D01*
X102051334Y-124500224D01*
X102020910Y-124573674D01*
X102005400Y-124651649D01*
X102005400Y-124731151D01*
X102020910Y-124809126D01*
X102051334Y-124882576D01*
X102072527Y-124914294D01*
X102044701Y-124942120D01*
X102000532Y-125008224D01*
X101970108Y-125081674D01*
X101954598Y-125159649D01*
X101954598Y-125239151D01*
X101970108Y-125317126D01*
X102000532Y-125390576D01*
X102021727Y-125422296D01*
X101993903Y-125450120D01*
X101949734Y-125516224D01*
X101919310Y-125589674D01*
X101903800Y-125667649D01*
X101903800Y-125747151D01*
X101919310Y-125825126D01*
X101920730Y-125828555D01*
X101869790Y-125794518D01*
X101796340Y-125764094D01*
X101718365Y-125748584D01*
X101638863Y-125748584D01*
X101560888Y-125764094D01*
X101487438Y-125794518D01*
X101421334Y-125838687D01*
X101365117Y-125894904D01*
X101320948Y-125961008D01*
X101290524Y-126034458D01*
X101275014Y-126112433D01*
X101275014Y-126191935D01*
X101290524Y-126269910D01*
X101292803Y-126275412D01*
X101278022Y-126281534D01*
X101211918Y-126325703D01*
X101155701Y-126381920D01*
X101111532Y-126448024D01*
X101081108Y-126521474D01*
X101065598Y-126599449D01*
X100576200Y-126599449D01*
X100576200Y-125667296D01*
X100596903Y-125698280D01*
X100653120Y-125754497D01*
X100719224Y-125798666D01*
X100792674Y-125829090D01*
X100870649Y-125844600D01*
X100950151Y-125844600D01*
X101028126Y-125829090D01*
X101101576Y-125798666D01*
X101167680Y-125754497D01*
X101223897Y-125698280D01*
X101268066Y-125632176D01*
X101298490Y-125558726D01*
X101314000Y-125480751D01*
X101314000Y-125401249D01*
X101298490Y-125323274D01*
X101268066Y-125249824D01*
X101238150Y-125205052D01*
X101303424Y-125248666D01*
X101376874Y-125279090D01*
X101454849Y-125294600D01*
X101534351Y-125294600D01*
X101612326Y-125279090D01*
X101685776Y-125248666D01*
X101751880Y-125204497D01*
X101808097Y-125148280D01*
X101852266Y-125082176D01*
X101882690Y-125008726D01*
X101898200Y-124930751D01*
X101898200Y-124851249D01*
X101882690Y-124773274D01*
X101852266Y-124699824D01*
X101808097Y-124633720D01*
X101751880Y-124577503D01*
X101685776Y-124533334D01*
X101612326Y-124502910D01*
X101534351Y-124487400D01*
X101454849Y-124487400D01*
X101376874Y-124502910D01*
X101303424Y-124533334D01*
X101237320Y-124577503D01*
X101202500Y-124612323D01*
X101167680Y-124577503D01*
X101101576Y-124533334D01*
X101028126Y-124502910D01*
X100950151Y-124487400D01*
X100870649Y-124487400D01*
X100792674Y-124502910D01*
X100719224Y-124533334D01*
X100653120Y-124577503D01*
X100596903Y-124633720D01*
X100576200Y-124664704D01*
X100576200Y-123900705D01*
X100634280Y-123861897D01*
X100690497Y-123805680D01*
X100734666Y-123739576D01*
X100755512Y-123689248D01*
X101573600Y-123689248D01*
X101573600Y-123768750D01*
X101589110Y-123846725D01*
X101619534Y-123920175D01*
X101663703Y-123986279D01*
X101719920Y-124042496D01*
X101786024Y-124086665D01*
X101859474Y-124117089D01*
X101937449Y-124132599D01*
X102016951Y-124132599D01*
X102094926Y-124117089D01*
X102168376Y-124086665D01*
X102234480Y-124042496D01*
X102258000Y-124018977D01*
X102278720Y-124039697D01*
X102344824Y-124083866D01*
X102418274Y-124114290D01*
X102496249Y-124129800D01*
X102575751Y-124129800D01*
X102653726Y-124114290D01*
X102727176Y-124083866D01*
X102793280Y-124039697D01*
X102849497Y-123983480D01*
X102849651Y-123983249D01*
X105104200Y-123983249D01*
X105104200Y-124062751D01*
X105119710Y-124140726D01*
X105150134Y-124214176D01*
X105194303Y-124280280D01*
X105250520Y-124336497D01*
X105316624Y-124380666D01*
X105390074Y-124411090D01*
X105468049Y-124426600D01*
X105547551Y-124426600D01*
X105625526Y-124411090D01*
X105698976Y-124380666D01*
X105765080Y-124336497D01*
X105792905Y-124308672D01*
X105824624Y-124329866D01*
X105898074Y-124360290D01*
X105976049Y-124375800D01*
X106055551Y-124375800D01*
X106133526Y-124360290D01*
X106206976Y-124329866D01*
X106273080Y-124285697D01*
X106329297Y-124229480D01*
X106373466Y-124163376D01*
X106403890Y-124089926D01*
X106419400Y-124011951D01*
X106419400Y-123932449D01*
X106403890Y-123854474D01*
X106386897Y-123813449D01*
X108939600Y-123813449D01*
X108939600Y-123892951D01*
X108955110Y-123970926D01*
X108985534Y-124044376D01*
X109029703Y-124110480D01*
X109085920Y-124166697D01*
X109152024Y-124210866D01*
X109203689Y-124232266D01*
X109165920Y-124257503D01*
X109109703Y-124313720D01*
X109065534Y-124379824D01*
X109035110Y-124453274D01*
X109019600Y-124531249D01*
X109019600Y-124610751D01*
X109035110Y-124688726D01*
X109065534Y-124762176D01*
X109109703Y-124828280D01*
X109165920Y-124884497D01*
X109232024Y-124928666D01*
X109305474Y-124959090D01*
X109383449Y-124974600D01*
X109462951Y-124974600D01*
X109540926Y-124959090D01*
X109614376Y-124928666D01*
X109680480Y-124884497D01*
X109736697Y-124828280D01*
X109780866Y-124762176D01*
X109811290Y-124688726D01*
X109826800Y-124610751D01*
X109826800Y-124531249D01*
X109811644Y-124455049D01*
X110111800Y-124455049D01*
X110111800Y-124534551D01*
X110127310Y-124612526D01*
X110157734Y-124685976D01*
X110201903Y-124752080D01*
X110258120Y-124808297D01*
X110324224Y-124852466D01*
X110397674Y-124882890D01*
X110475649Y-124898400D01*
X110555151Y-124898400D01*
X110633126Y-124882890D01*
X110706576Y-124852466D01*
X110772680Y-124808297D01*
X110828897Y-124752080D01*
X110873066Y-124685976D01*
X110903490Y-124612526D01*
X110919000Y-124534551D01*
X110919000Y-124455049D01*
X110903490Y-124377074D01*
X110873066Y-124303624D01*
X110828897Y-124237520D01*
X110772680Y-124181303D01*
X110706576Y-124137134D01*
X110633126Y-124106710D01*
X110555151Y-124091200D01*
X110475649Y-124091200D01*
X110397674Y-124106710D01*
X110324224Y-124137134D01*
X110258120Y-124181303D01*
X110201903Y-124237520D01*
X110157734Y-124303624D01*
X110127310Y-124377074D01*
X110111800Y-124455049D01*
X109811644Y-124455049D01*
X109811290Y-124453274D01*
X109780866Y-124379824D01*
X109736697Y-124313720D01*
X109680480Y-124257503D01*
X109614376Y-124213334D01*
X109562711Y-124191934D01*
X109600480Y-124166697D01*
X109656697Y-124110480D01*
X109700866Y-124044376D01*
X109731290Y-123970926D01*
X109746800Y-123892951D01*
X109746800Y-123813449D01*
X109731290Y-123735474D01*
X109700866Y-123662024D01*
X109656697Y-123595920D01*
X109600480Y-123539703D01*
X109534376Y-123495534D01*
X109460926Y-123465110D01*
X109382951Y-123449600D01*
X109303449Y-123449600D01*
X109225474Y-123465110D01*
X109152024Y-123495534D01*
X109085920Y-123539703D01*
X109029703Y-123595920D01*
X108985534Y-123662024D01*
X108955110Y-123735474D01*
X108939600Y-123813449D01*
X106386897Y-123813449D01*
X106373466Y-123781024D01*
X106329297Y-123714920D01*
X106273080Y-123658703D01*
X106206976Y-123614534D01*
X106133526Y-123584110D01*
X106055551Y-123568600D01*
X105976049Y-123568600D01*
X105898074Y-123584110D01*
X105824624Y-123614534D01*
X105758520Y-123658703D01*
X105730695Y-123686528D01*
X105698976Y-123665334D01*
X105625526Y-123634910D01*
X105547551Y-123619400D01*
X105468049Y-123619400D01*
X105390074Y-123634910D01*
X105316624Y-123665334D01*
X105250520Y-123709503D01*
X105194303Y-123765720D01*
X105150134Y-123831824D01*
X105119710Y-123905274D01*
X105104200Y-123983249D01*
X102849651Y-123983249D01*
X102893666Y-123917376D01*
X102924090Y-123843926D01*
X102939600Y-123765951D01*
X102939600Y-123686449D01*
X102924090Y-123608474D01*
X102893666Y-123535024D01*
X102849497Y-123468920D01*
X102793280Y-123412703D01*
X102727176Y-123368534D01*
X102653726Y-123338110D01*
X102575751Y-123322600D01*
X102496249Y-123322600D01*
X102418274Y-123338110D01*
X102344824Y-123368534D01*
X102278720Y-123412703D01*
X102255201Y-123436223D01*
X102234480Y-123415502D01*
X102168376Y-123371333D01*
X102094926Y-123340909D01*
X102016951Y-123325399D01*
X101937449Y-123325399D01*
X101859474Y-123340909D01*
X101786024Y-123371333D01*
X101719920Y-123415502D01*
X101663703Y-123471719D01*
X101619534Y-123537823D01*
X101589110Y-123611273D01*
X101573600Y-123689248D01*
X100755512Y-123689248D01*
X100765090Y-123666126D01*
X100780600Y-123588151D01*
X100780600Y-123508649D01*
X100765090Y-123430674D01*
X100734666Y-123357224D01*
X100690497Y-123291120D01*
X100634280Y-123234903D01*
X100576200Y-123196095D01*
X100576200Y-122826200D01*
X111923800Y-122826200D01*
X111923800Y-130173800D01*
G36*
X116271400Y-111500000D02*
G01*
X116275792Y-111544598D01*
X116288801Y-111587481D01*
X116309926Y-111627003D01*
X116338355Y-111661645D01*
X116372997Y-111690074D01*
X116412519Y-111711199D01*
X116455402Y-111724208D01*
X116500000Y-111728600D01*
X120129665Y-111728600D01*
X120200049Y-111742600D01*
X120279551Y-111742600D01*
X120349935Y-111728600D01*
X120423800Y-111728600D01*
X120423800Y-115777681D01*
X120380176Y-115748533D01*
X120306726Y-115718109D01*
X120228751Y-115702599D01*
X120149249Y-115702599D01*
X120071274Y-115718109D01*
X119997824Y-115748533D01*
X119931720Y-115792702D01*
X119875503Y-115848919D01*
X119831334Y-115915023D01*
X119800910Y-115988473D01*
X119785400Y-116066448D01*
X119785400Y-116145950D01*
X119800910Y-116223925D01*
X119831334Y-116297375D01*
X119844840Y-116317588D01*
X119782110Y-116359503D01*
X119727247Y-116414366D01*
X119724308Y-116412402D01*
X119650858Y-116381978D01*
X119572883Y-116366468D01*
X119493381Y-116366468D01*
X119415406Y-116381978D01*
X119341956Y-116412402D01*
X119275852Y-116456571D01*
X119219635Y-116512788D01*
X119175466Y-116578892D01*
X119163076Y-116608805D01*
X119157480Y-116580674D01*
X119127056Y-116507224D01*
X119082887Y-116441120D01*
X119026670Y-116384903D01*
X118960566Y-116340734D01*
X118887116Y-116310310D01*
X118809141Y-116294800D01*
X118729639Y-116294800D01*
X118651664Y-116310310D01*
X118578214Y-116340734D01*
X118526695Y-116375158D01*
X118475176Y-116340734D01*
X118401726Y-116310310D01*
X118323751Y-116294800D01*
X118244249Y-116294800D01*
X118166274Y-116310310D01*
X118092824Y-116340734D01*
X118045876Y-116372103D01*
X118033280Y-116359507D01*
X117967176Y-116315338D01*
X117893726Y-116284914D01*
X117815751Y-116269404D01*
X117736249Y-116269404D01*
X117658274Y-116284914D01*
X117584824Y-116315338D01*
X117518720Y-116359507D01*
X117462503Y-116415724D01*
X117418334Y-116481828D01*
X117387910Y-116555278D01*
X117372400Y-116633253D01*
X117372400Y-116712755D01*
X117387910Y-116790730D01*
X117418334Y-116864180D01*
X117462503Y-116930284D01*
X117518720Y-116986501D01*
X117584824Y-117030670D01*
X117658274Y-117061094D01*
X117736249Y-117076604D01*
X117815751Y-117076604D01*
X117893726Y-117061094D01*
X117967176Y-117030670D01*
X118014124Y-116999301D01*
X118026720Y-117011897D01*
X118092824Y-117056066D01*
X118166274Y-117086490D01*
X118244249Y-117102000D01*
X118323751Y-117102000D01*
X118401726Y-117086490D01*
X118475176Y-117056066D01*
X118526695Y-117021642D01*
X118578214Y-117056066D01*
X118651664Y-117086490D01*
X118729639Y-117102000D01*
X118809141Y-117102000D01*
X118887116Y-117086490D01*
X118960566Y-117056066D01*
X119026670Y-117011897D01*
X119082887Y-116955680D01*
X119127056Y-116889576D01*
X119139446Y-116859663D01*
X119145042Y-116887794D01*
X119175466Y-116961244D01*
X119219635Y-117027348D01*
X119275852Y-117083565D01*
X119341956Y-117127734D01*
X119415406Y-117158158D01*
X119493381Y-117173668D01*
X119572883Y-117173668D01*
X119650858Y-117158158D01*
X119724308Y-117127734D01*
X119790412Y-117083565D01*
X119845275Y-117028702D01*
X119848214Y-117030666D01*
X119921664Y-117061090D01*
X119999639Y-117076600D01*
X120079141Y-117076600D01*
X120157116Y-117061090D01*
X120230566Y-117030666D01*
X120296670Y-116986497D01*
X120352887Y-116930280D01*
X120397056Y-116864176D01*
X120423800Y-116799610D01*
X120423800Y-117173800D01*
X113576200Y-117173800D01*
X113576200Y-115322247D01*
X114946200Y-115322247D01*
X114946200Y-115401749D01*
X114961710Y-115479724D01*
X114992134Y-115553174D01*
X115036303Y-115619278D01*
X115092520Y-115675495D01*
X115144977Y-115710546D01*
X115136703Y-115718820D01*
X115092534Y-115784924D01*
X115062110Y-115858374D01*
X115046600Y-115936349D01*
X115046600Y-116015851D01*
X115062110Y-116093826D01*
X115092534Y-116167276D01*
X115136703Y-116233380D01*
X115192920Y-116289597D01*
X115259024Y-116333766D01*
X115283230Y-116343793D01*
X115252703Y-116374320D01*
X115208534Y-116440424D01*
X115178110Y-116513874D01*
X115162600Y-116591849D01*
X115162600Y-116671351D01*
X115178110Y-116749326D01*
X115208534Y-116822776D01*
X115252703Y-116888880D01*
X115308920Y-116945097D01*
X115375024Y-116989266D01*
X115448474Y-117019690D01*
X115526449Y-117035200D01*
X115605951Y-117035200D01*
X115683926Y-117019690D01*
X115757376Y-116989266D01*
X115823480Y-116945097D01*
X115879697Y-116888880D01*
X115923866Y-116822776D01*
X115954290Y-116749326D01*
X115962221Y-116709449D01*
X116559600Y-116709449D01*
X116559600Y-116788951D01*
X116575110Y-116866926D01*
X116605534Y-116940376D01*
X116649703Y-117006480D01*
X116705920Y-117062697D01*
X116772024Y-117106866D01*
X116845474Y-117137290D01*
X116923449Y-117152800D01*
X117002951Y-117152800D01*
X117080926Y-117137290D01*
X117154376Y-117106866D01*
X117220480Y-117062697D01*
X117276697Y-117006480D01*
X117320866Y-116940376D01*
X117351290Y-116866926D01*
X117366800Y-116788951D01*
X117366800Y-116709449D01*
X117351290Y-116631474D01*
X117320866Y-116558024D01*
X117276697Y-116491920D01*
X117220480Y-116435703D01*
X117154376Y-116391534D01*
X117080926Y-116361110D01*
X117002951Y-116345600D01*
X116923449Y-116345600D01*
X116845474Y-116361110D01*
X116772024Y-116391534D01*
X116705920Y-116435703D01*
X116649703Y-116491920D01*
X116605534Y-116558024D01*
X116575110Y-116631474D01*
X116559600Y-116709449D01*
X115962221Y-116709449D01*
X115969800Y-116671351D01*
X115969800Y-116591849D01*
X115954290Y-116513874D01*
X115923866Y-116440424D01*
X115879697Y-116374320D01*
X115823480Y-116318103D01*
X115757376Y-116273934D01*
X115733170Y-116263907D01*
X115763697Y-116233380D01*
X115807866Y-116167276D01*
X115838290Y-116093826D01*
X115853800Y-116015851D01*
X115853800Y-115936349D01*
X115838290Y-115858374D01*
X115807866Y-115784924D01*
X115763697Y-115718820D01*
X115707480Y-115662603D01*
X115655023Y-115627552D01*
X115663297Y-115619278D01*
X115707466Y-115553174D01*
X115737890Y-115479724D01*
X115753400Y-115401749D01*
X115753400Y-115337849D01*
X119429800Y-115337849D01*
X119429800Y-115417351D01*
X119445310Y-115495326D01*
X119475734Y-115568776D01*
X119519903Y-115634880D01*
X119576120Y-115691097D01*
X119642224Y-115735266D01*
X119715674Y-115765690D01*
X119793649Y-115781200D01*
X119873151Y-115781200D01*
X119951126Y-115765690D01*
X120024576Y-115735266D01*
X120090680Y-115691097D01*
X120146897Y-115634880D01*
X120191066Y-115568776D01*
X120221490Y-115495326D01*
X120237000Y-115417351D01*
X120237000Y-115337849D01*
X120221490Y-115259874D01*
X120191066Y-115186424D01*
X120146897Y-115120320D01*
X120090680Y-115064103D01*
X120024576Y-115019934D01*
X119951126Y-114989510D01*
X119873151Y-114974000D01*
X119793649Y-114974000D01*
X119715674Y-114989510D01*
X119642224Y-115019934D01*
X119576120Y-115064103D01*
X119519903Y-115120320D01*
X119475734Y-115186424D01*
X119445310Y-115259874D01*
X119429800Y-115337849D01*
X115753400Y-115337849D01*
X115753400Y-115322247D01*
X115737890Y-115244272D01*
X115707466Y-115170822D01*
X115663297Y-115104718D01*
X115607080Y-115048501D01*
X115540976Y-115004332D01*
X115467526Y-114973908D01*
X115389551Y-114958398D01*
X115310049Y-114958398D01*
X115232074Y-114973908D01*
X115158624Y-115004332D01*
X115092520Y-115048501D01*
X115036303Y-115104718D01*
X114992134Y-115170822D01*
X114961710Y-115244272D01*
X114946200Y-115322247D01*
X113576200Y-115322247D01*
X113576200Y-113298849D01*
X117459100Y-113298849D01*
X117459100Y-113378351D01*
X117474610Y-113456326D01*
X117505034Y-113529776D01*
X117549203Y-113595880D01*
X117605420Y-113652097D01*
X117671524Y-113696266D01*
X117744974Y-113726690D01*
X117822949Y-113742200D01*
X117902451Y-113742200D01*
X117980426Y-113726690D01*
X118053876Y-113696266D01*
X118119980Y-113652097D01*
X118176197Y-113595880D01*
X118220366Y-113529776D01*
X118250790Y-113456326D01*
X118266300Y-113378351D01*
X118266300Y-113298849D01*
X118250790Y-113220874D01*
X118220366Y-113147424D01*
X118176197Y-113081320D01*
X118119980Y-113025103D01*
X118053876Y-112980934D01*
X117980426Y-112950510D01*
X117902451Y-112935000D01*
X117822949Y-112935000D01*
X117744974Y-112950510D01*
X117671524Y-112980934D01*
X117605420Y-113025103D01*
X117549203Y-113081320D01*
X117505034Y-113147424D01*
X117474610Y-113220874D01*
X117459100Y-113298849D01*
X113576200Y-113298849D01*
X113576200Y-112339049D01*
X118185200Y-112339049D01*
X118185200Y-112418551D01*
X118200710Y-112496526D01*
X118231134Y-112569976D01*
X118275303Y-112636080D01*
X118331520Y-112692297D01*
X118397624Y-112736466D01*
X118471074Y-112766890D01*
X118549049Y-112782400D01*
X118628551Y-112782400D01*
X118706526Y-112766890D01*
X118779976Y-112736466D01*
X118846080Y-112692297D01*
X118902297Y-112636080D01*
X118946466Y-112569976D01*
X118976890Y-112496526D01*
X118992400Y-112418551D01*
X118992400Y-112339049D01*
X118976890Y-112261074D01*
X118946466Y-112187624D01*
X118902297Y-112121520D01*
X118846080Y-112065303D01*
X118779976Y-112021134D01*
X118706526Y-111990710D01*
X118628551Y-111975200D01*
X118549049Y-111975200D01*
X118471074Y-111990710D01*
X118397624Y-112021134D01*
X118331520Y-112065303D01*
X118275303Y-112121520D01*
X118231134Y-112187624D01*
X118200710Y-112261074D01*
X118185200Y-112339049D01*
X113576200Y-112339049D01*
X113576200Y-111827439D01*
X114946200Y-111827439D01*
X114946200Y-111906941D01*
X114961710Y-111984916D01*
X114992134Y-112058366D01*
X115036303Y-112124470D01*
X115092520Y-112180687D01*
X115158624Y-112224856D01*
X115232074Y-112255280D01*
X115310049Y-112270790D01*
X115389551Y-112270790D01*
X115467526Y-112255280D01*
X115540976Y-112224856D01*
X115607080Y-112180687D01*
X115663297Y-112124470D01*
X115707466Y-112058366D01*
X115737890Y-111984916D01*
X115753400Y-111906941D01*
X115753400Y-111827439D01*
X115737890Y-111749464D01*
X115707466Y-111676014D01*
X115663297Y-111609910D01*
X115607080Y-111553693D01*
X115540976Y-111509524D01*
X115467526Y-111479100D01*
X115389551Y-111463590D01*
X115310049Y-111463590D01*
X115232074Y-111479100D01*
X115158624Y-111509524D01*
X115092520Y-111553693D01*
X115036303Y-111609910D01*
X114992134Y-111676014D01*
X114961710Y-111749464D01*
X114946200Y-111827439D01*
X113576200Y-111827439D01*
X113576200Y-110613449D01*
X114705400Y-110613449D01*
X114705400Y-110692951D01*
X114720910Y-110770926D01*
X114751334Y-110844376D01*
X114795503Y-110910480D01*
X114851720Y-110966697D01*
X114917824Y-111010866D01*
X114991274Y-111041290D01*
X115069249Y-111056800D01*
X115148751Y-111056800D01*
X115226726Y-111041290D01*
X115300176Y-111010866D01*
X115366280Y-110966697D01*
X115422497Y-110910480D01*
X115466666Y-110844376D01*
X115497090Y-110770926D01*
X115512600Y-110692951D01*
X115512600Y-110613449D01*
X115497090Y-110535474D01*
X115466666Y-110462024D01*
X115422497Y-110395920D01*
X115366280Y-110339703D01*
X115300176Y-110295534D01*
X115226726Y-110265110D01*
X115148751Y-110249600D01*
X115069249Y-110249600D01*
X114991274Y-110265110D01*
X114917824Y-110295534D01*
X114851720Y-110339703D01*
X114795503Y-110395920D01*
X114751334Y-110462024D01*
X114720910Y-110535474D01*
X114705400Y-110613449D01*
X113576200Y-110613449D01*
X113576200Y-109826200D01*
X116271400Y-109826200D01*
X116271400Y-111500000D01*
G37*
X116271400Y-111500000D02*
X116275792Y-111544598D01*
X116288801Y-111587481D01*
X116309926Y-111627003D01*
X116338355Y-111661645D01*
X116372997Y-111690074D01*
X116412519Y-111711199D01*
X116455402Y-111724208D01*
X116500000Y-111728600D01*
X120129665Y-111728600D01*
X120200049Y-111742600D01*
X120279551Y-111742600D01*
X120349935Y-111728600D01*
X120423800Y-111728600D01*
X120423800Y-115777681D01*
X120380176Y-115748533D01*
X120306726Y-115718109D01*
X120228751Y-115702599D01*
X120149249Y-115702599D01*
X120071274Y-115718109D01*
X119997824Y-115748533D01*
X119931720Y-115792702D01*
X119875503Y-115848919D01*
X119831334Y-115915023D01*
X119800910Y-115988473D01*
X119785400Y-116066448D01*
X119785400Y-116145950D01*
X119800910Y-116223925D01*
X119831334Y-116297375D01*
X119844840Y-116317588D01*
X119782110Y-116359503D01*
X119727247Y-116414366D01*
X119724308Y-116412402D01*
X119650858Y-116381978D01*
X119572883Y-116366468D01*
X119493381Y-116366468D01*
X119415406Y-116381978D01*
X119341956Y-116412402D01*
X119275852Y-116456571D01*
X119219635Y-116512788D01*
X119175466Y-116578892D01*
X119163076Y-116608805D01*
X119157480Y-116580674D01*
X119127056Y-116507224D01*
X119082887Y-116441120D01*
X119026670Y-116384903D01*
X118960566Y-116340734D01*
X118887116Y-116310310D01*
X118809141Y-116294800D01*
X118729639Y-116294800D01*
X118651664Y-116310310D01*
X118578214Y-116340734D01*
X118526695Y-116375158D01*
X118475176Y-116340734D01*
X118401726Y-116310310D01*
X118323751Y-116294800D01*
X118244249Y-116294800D01*
X118166274Y-116310310D01*
X118092824Y-116340734D01*
X118045876Y-116372103D01*
X118033280Y-116359507D01*
X117967176Y-116315338D01*
X117893726Y-116284914D01*
X117815751Y-116269404D01*
X117736249Y-116269404D01*
X117658274Y-116284914D01*
X117584824Y-116315338D01*
X117518720Y-116359507D01*
X117462503Y-116415724D01*
X117418334Y-116481828D01*
X117387910Y-116555278D01*
X117372400Y-116633253D01*
X117372400Y-116712755D01*
X117387910Y-116790730D01*
X117418334Y-116864180D01*
X117462503Y-116930284D01*
X117518720Y-116986501D01*
X117584824Y-117030670D01*
X117658274Y-117061094D01*
X117736249Y-117076604D01*
X117815751Y-117076604D01*
X117893726Y-117061094D01*
X117967176Y-117030670D01*
X118014124Y-116999301D01*
X118026720Y-117011897D01*
X118092824Y-117056066D01*
X118166274Y-117086490D01*
X118244249Y-117102000D01*
X118323751Y-117102000D01*
X118401726Y-117086490D01*
X118475176Y-117056066D01*
X118526695Y-117021642D01*
X118578214Y-117056066D01*
X118651664Y-117086490D01*
X118729639Y-117102000D01*
X118809141Y-117102000D01*
X118887116Y-117086490D01*
X118960566Y-117056066D01*
X119026670Y-117011897D01*
X119082887Y-116955680D01*
X119127056Y-116889576D01*
X119139446Y-116859663D01*
X119145042Y-116887794D01*
X119175466Y-116961244D01*
X119219635Y-117027348D01*
X119275852Y-117083565D01*
X119341956Y-117127734D01*
X119415406Y-117158158D01*
X119493381Y-117173668D01*
X119572883Y-117173668D01*
X119650858Y-117158158D01*
X119724308Y-117127734D01*
X119790412Y-117083565D01*
X119845275Y-117028702D01*
X119848214Y-117030666D01*
X119921664Y-117061090D01*
X119999639Y-117076600D01*
X120079141Y-117076600D01*
X120157116Y-117061090D01*
X120230566Y-117030666D01*
X120296670Y-116986497D01*
X120352887Y-116930280D01*
X120397056Y-116864176D01*
X120423800Y-116799610D01*
X120423800Y-117173800D01*
X113576200Y-117173800D01*
X113576200Y-115322247D01*
X114946200Y-115322247D01*
X114946200Y-115401749D01*
X114961710Y-115479724D01*
X114992134Y-115553174D01*
X115036303Y-115619278D01*
X115092520Y-115675495D01*
X115144977Y-115710546D01*
X115136703Y-115718820D01*
X115092534Y-115784924D01*
X115062110Y-115858374D01*
X115046600Y-115936349D01*
X115046600Y-116015851D01*
X115062110Y-116093826D01*
X115092534Y-116167276D01*
X115136703Y-116233380D01*
X115192920Y-116289597D01*
X115259024Y-116333766D01*
X115283230Y-116343793D01*
X115252703Y-116374320D01*
X115208534Y-116440424D01*
X115178110Y-116513874D01*
X115162600Y-116591849D01*
X115162600Y-116671351D01*
X115178110Y-116749326D01*
X115208534Y-116822776D01*
X115252703Y-116888880D01*
X115308920Y-116945097D01*
X115375024Y-116989266D01*
X115448474Y-117019690D01*
X115526449Y-117035200D01*
X115605951Y-117035200D01*
X115683926Y-117019690D01*
X115757376Y-116989266D01*
X115823480Y-116945097D01*
X115879697Y-116888880D01*
X115923866Y-116822776D01*
X115954290Y-116749326D01*
X115962221Y-116709449D01*
X116559600Y-116709449D01*
X116559600Y-116788951D01*
X116575110Y-116866926D01*
X116605534Y-116940376D01*
X116649703Y-117006480D01*
X116705920Y-117062697D01*
X116772024Y-117106866D01*
X116845474Y-117137290D01*
X116923449Y-117152800D01*
X117002951Y-117152800D01*
X117080926Y-117137290D01*
X117154376Y-117106866D01*
X117220480Y-117062697D01*
X117276697Y-117006480D01*
X117320866Y-116940376D01*
X117351290Y-116866926D01*
X117366800Y-116788951D01*
X117366800Y-116709449D01*
X117351290Y-116631474D01*
X117320866Y-116558024D01*
X117276697Y-116491920D01*
X117220480Y-116435703D01*
X117154376Y-116391534D01*
X117080926Y-116361110D01*
X117002951Y-116345600D01*
X116923449Y-116345600D01*
X116845474Y-116361110D01*
X116772024Y-116391534D01*
X116705920Y-116435703D01*
X116649703Y-116491920D01*
X116605534Y-116558024D01*
X116575110Y-116631474D01*
X116559600Y-116709449D01*
X115962221Y-116709449D01*
X115969800Y-116671351D01*
X115969800Y-116591849D01*
X115954290Y-116513874D01*
X115923866Y-116440424D01*
X115879697Y-116374320D01*
X115823480Y-116318103D01*
X115757376Y-116273934D01*
X115733170Y-116263907D01*
X115763697Y-116233380D01*
X115807866Y-116167276D01*
X115838290Y-116093826D01*
X115853800Y-116015851D01*
X115853800Y-115936349D01*
X115838290Y-115858374D01*
X115807866Y-115784924D01*
X115763697Y-115718820D01*
X115707480Y-115662603D01*
X115655023Y-115627552D01*
X115663297Y-115619278D01*
X115707466Y-115553174D01*
X115737890Y-115479724D01*
X115753400Y-115401749D01*
X115753400Y-115337849D01*
X119429800Y-115337849D01*
X119429800Y-115417351D01*
X119445310Y-115495326D01*
X119475734Y-115568776D01*
X119519903Y-115634880D01*
X119576120Y-115691097D01*
X119642224Y-115735266D01*
X119715674Y-115765690D01*
X119793649Y-115781200D01*
X119873151Y-115781200D01*
X119951126Y-115765690D01*
X120024576Y-115735266D01*
X120090680Y-115691097D01*
X120146897Y-115634880D01*
X120191066Y-115568776D01*
X120221490Y-115495326D01*
X120237000Y-115417351D01*
X120237000Y-115337849D01*
X120221490Y-115259874D01*
X120191066Y-115186424D01*
X120146897Y-115120320D01*
X120090680Y-115064103D01*
X120024576Y-115019934D01*
X119951126Y-114989510D01*
X119873151Y-114974000D01*
X119793649Y-114974000D01*
X119715674Y-114989510D01*
X119642224Y-115019934D01*
X119576120Y-115064103D01*
X119519903Y-115120320D01*
X119475734Y-115186424D01*
X119445310Y-115259874D01*
X119429800Y-115337849D01*
X115753400Y-115337849D01*
X115753400Y-115322247D01*
X115737890Y-115244272D01*
X115707466Y-115170822D01*
X115663297Y-115104718D01*
X115607080Y-115048501D01*
X115540976Y-115004332D01*
X115467526Y-114973908D01*
X115389551Y-114958398D01*
X115310049Y-114958398D01*
X115232074Y-114973908D01*
X115158624Y-115004332D01*
X115092520Y-115048501D01*
X115036303Y-115104718D01*
X114992134Y-115170822D01*
X114961710Y-115244272D01*
X114946200Y-115322247D01*
X113576200Y-115322247D01*
X113576200Y-113298849D01*
X117459100Y-113298849D01*
X117459100Y-113378351D01*
X117474610Y-113456326D01*
X117505034Y-113529776D01*
X117549203Y-113595880D01*
X117605420Y-113652097D01*
X117671524Y-113696266D01*
X117744974Y-113726690D01*
X117822949Y-113742200D01*
X117902451Y-113742200D01*
X117980426Y-113726690D01*
X118053876Y-113696266D01*
X118119980Y-113652097D01*
X118176197Y-113595880D01*
X118220366Y-113529776D01*
X118250790Y-113456326D01*
X118266300Y-113378351D01*
X118266300Y-113298849D01*
X118250790Y-113220874D01*
X118220366Y-113147424D01*
X118176197Y-113081320D01*
X118119980Y-113025103D01*
X118053876Y-112980934D01*
X117980426Y-112950510D01*
X117902451Y-112935000D01*
X117822949Y-112935000D01*
X117744974Y-112950510D01*
X117671524Y-112980934D01*
X117605420Y-113025103D01*
X117549203Y-113081320D01*
X117505034Y-113147424D01*
X117474610Y-113220874D01*
X117459100Y-113298849D01*
X113576200Y-113298849D01*
X113576200Y-112339049D01*
X118185200Y-112339049D01*
X118185200Y-112418551D01*
X118200710Y-112496526D01*
X118231134Y-112569976D01*
X118275303Y-112636080D01*
X118331520Y-112692297D01*
X118397624Y-112736466D01*
X118471074Y-112766890D01*
X118549049Y-112782400D01*
X118628551Y-112782400D01*
X118706526Y-112766890D01*
X118779976Y-112736466D01*
X118846080Y-112692297D01*
X118902297Y-112636080D01*
X118946466Y-112569976D01*
X118976890Y-112496526D01*
X118992400Y-112418551D01*
X118992400Y-112339049D01*
X118976890Y-112261074D01*
X118946466Y-112187624D01*
X118902297Y-112121520D01*
X118846080Y-112065303D01*
X118779976Y-112021134D01*
X118706526Y-111990710D01*
X118628551Y-111975200D01*
X118549049Y-111975200D01*
X118471074Y-111990710D01*
X118397624Y-112021134D01*
X118331520Y-112065303D01*
X118275303Y-112121520D01*
X118231134Y-112187624D01*
X118200710Y-112261074D01*
X118185200Y-112339049D01*
X113576200Y-112339049D01*
X113576200Y-111827439D01*
X114946200Y-111827439D01*
X114946200Y-111906941D01*
X114961710Y-111984916D01*
X114992134Y-112058366D01*
X115036303Y-112124470D01*
X115092520Y-112180687D01*
X115158624Y-112224856D01*
X115232074Y-112255280D01*
X115310049Y-112270790D01*
X115389551Y-112270790D01*
X115467526Y-112255280D01*
X115540976Y-112224856D01*
X115607080Y-112180687D01*
X115663297Y-112124470D01*
X115707466Y-112058366D01*
X115737890Y-111984916D01*
X115753400Y-111906941D01*
X115753400Y-111827439D01*
X115737890Y-111749464D01*
X115707466Y-111676014D01*
X115663297Y-111609910D01*
X115607080Y-111553693D01*
X115540976Y-111509524D01*
X115467526Y-111479100D01*
X115389551Y-111463590D01*
X115310049Y-111463590D01*
X115232074Y-111479100D01*
X115158624Y-111509524D01*
X115092520Y-111553693D01*
X115036303Y-111609910D01*
X114992134Y-111676014D01*
X114961710Y-111749464D01*
X114946200Y-111827439D01*
X113576200Y-111827439D01*
X113576200Y-110613449D01*
X114705400Y-110613449D01*
X114705400Y-110692951D01*
X114720910Y-110770926D01*
X114751334Y-110844376D01*
X114795503Y-110910480D01*
X114851720Y-110966697D01*
X114917824Y-111010866D01*
X114991274Y-111041290D01*
X115069249Y-111056800D01*
X115148751Y-111056800D01*
X115226726Y-111041290D01*
X115300176Y-111010866D01*
X115366280Y-110966697D01*
X115422497Y-110910480D01*
X115466666Y-110844376D01*
X115497090Y-110770926D01*
X115512600Y-110692951D01*
X115512600Y-110613449D01*
X115497090Y-110535474D01*
X115466666Y-110462024D01*
X115422497Y-110395920D01*
X115366280Y-110339703D01*
X115300176Y-110295534D01*
X115226726Y-110265110D01*
X115148751Y-110249600D01*
X115069249Y-110249600D01*
X114991274Y-110265110D01*
X114917824Y-110295534D01*
X114851720Y-110339703D01*
X114795503Y-110395920D01*
X114751334Y-110462024D01*
X114720910Y-110535474D01*
X114705400Y-110613449D01*
X113576200Y-110613449D01*
X113576200Y-109826200D01*
X116271400Y-109826200D01*
X116271400Y-111500000D01*
G36*
X107996444Y-108846740D02*
G01*
X107998609Y-108850811D01*
X108045022Y-108936648D01*
X108061736Y-108961427D01*
X108078144Y-108986501D01*
X108081058Y-108990074D01*
X108143260Y-109065263D01*
X108164471Y-109086327D01*
X108185433Y-109107732D01*
X108188985Y-109110670D01*
X108264606Y-109172346D01*
X108289527Y-109188904D01*
X108314231Y-109205819D01*
X108318286Y-109208011D01*
X108404447Y-109253823D01*
X108423800Y-109261800D01*
X108423800Y-117673800D01*
X99511854Y-117673800D01*
X99503555Y-117653259D01*
X99501391Y-117649189D01*
X99454978Y-117563351D01*
X99438248Y-117538549D01*
X99421856Y-117513498D01*
X99418942Y-117509926D01*
X99356740Y-117434737D01*
X99335512Y-117413657D01*
X99314567Y-117392268D01*
X99311015Y-117389330D01*
X99235394Y-117327654D01*
X99210457Y-117311086D01*
X99185769Y-117294181D01*
X99181714Y-117291989D01*
X99095553Y-117246177D01*
X99076200Y-117238200D01*
X99076200Y-117131424D01*
X99143449Y-117144800D01*
X99222951Y-117144800D01*
X99300926Y-117129290D01*
X99374376Y-117098866D01*
X99440480Y-117054697D01*
X99496697Y-116998480D01*
X99540866Y-116932376D01*
X99571290Y-116858926D01*
X99586800Y-116780951D01*
X99586800Y-116701449D01*
X99571290Y-116623474D01*
X99540866Y-116550024D01*
X99496697Y-116483920D01*
X99440480Y-116427703D01*
X99405978Y-116404649D01*
X102183200Y-116404649D01*
X102183200Y-116484151D01*
X102198710Y-116562126D01*
X102229134Y-116635576D01*
X102273303Y-116701680D01*
X102329520Y-116757897D01*
X102395624Y-116802066D01*
X102469074Y-116832490D01*
X102547049Y-116848000D01*
X102626551Y-116848000D01*
X102704526Y-116832490D01*
X102777976Y-116802066D01*
X102844080Y-116757897D01*
X102900297Y-116701680D01*
X102944466Y-116635576D01*
X102974890Y-116562126D01*
X102990400Y-116484151D01*
X102990400Y-116404649D01*
X102974890Y-116326674D01*
X102944466Y-116253224D01*
X102900297Y-116187120D01*
X102844080Y-116130903D01*
X102777976Y-116086734D01*
X102704526Y-116056310D01*
X102626551Y-116040800D01*
X102547049Y-116040800D01*
X102469074Y-116056310D01*
X102395624Y-116086734D01*
X102329520Y-116130903D01*
X102273303Y-116187120D01*
X102229134Y-116253224D01*
X102198710Y-116326674D01*
X102183200Y-116404649D01*
X99405978Y-116404649D01*
X99374376Y-116383534D01*
X99300926Y-116353110D01*
X99222951Y-116337600D01*
X99143449Y-116337600D01*
X99076200Y-116350976D01*
X99076200Y-115914049D01*
X99643200Y-115914049D01*
X99643200Y-115993551D01*
X99658710Y-116071526D01*
X99689134Y-116144976D01*
X99733303Y-116211080D01*
X99789520Y-116267297D01*
X99855624Y-116311466D01*
X99929074Y-116341890D01*
X100007049Y-116357400D01*
X100086551Y-116357400D01*
X100164526Y-116341890D01*
X100237976Y-116311466D01*
X100304080Y-116267297D01*
X100360297Y-116211080D01*
X100404466Y-116144976D01*
X100434890Y-116071526D01*
X100450400Y-115993551D01*
X100450400Y-115914049D01*
X100434890Y-115836074D01*
X100404466Y-115762624D01*
X100360297Y-115696520D01*
X100360026Y-115696249D01*
X100771800Y-115696249D01*
X100771800Y-115775751D01*
X100787310Y-115853726D01*
X100817734Y-115927176D01*
X100861903Y-115993280D01*
X100918120Y-116049497D01*
X100984224Y-116093666D01*
X101057674Y-116124090D01*
X101135649Y-116139600D01*
X101215151Y-116139600D01*
X101293126Y-116124090D01*
X101366576Y-116093666D01*
X101432680Y-116049497D01*
X101441200Y-116040977D01*
X101472320Y-116072097D01*
X101538424Y-116116266D01*
X101611874Y-116146690D01*
X101689849Y-116162200D01*
X101769351Y-116162200D01*
X101847326Y-116146690D01*
X101920776Y-116116266D01*
X101986880Y-116072097D01*
X102043097Y-116015880D01*
X102087266Y-115949776D01*
X102117690Y-115876326D01*
X102133200Y-115798351D01*
X102133200Y-115787049D01*
X102741998Y-115787049D01*
X102741998Y-115866551D01*
X102757508Y-115944526D01*
X102787932Y-116017976D01*
X102832101Y-116084080D01*
X102888318Y-116140297D01*
X102954422Y-116184466D01*
X103027872Y-116214890D01*
X103105847Y-116230400D01*
X103185349Y-116230400D01*
X103263324Y-116214890D01*
X103300802Y-116199366D01*
X103300802Y-116230151D01*
X103316312Y-116308126D01*
X103346736Y-116381576D01*
X103390905Y-116447680D01*
X103447122Y-116503897D01*
X103455606Y-116509566D01*
X103445544Y-116524624D01*
X103415120Y-116598074D01*
X103399610Y-116676049D01*
X103399610Y-116755551D01*
X103415120Y-116833526D01*
X103445544Y-116906976D01*
X103489713Y-116973080D01*
X103545930Y-117029297D01*
X103612034Y-117073466D01*
X103685484Y-117103890D01*
X103763459Y-117119400D01*
X103842961Y-117119400D01*
X103920936Y-117103890D01*
X103994386Y-117073466D01*
X104060490Y-117029297D01*
X104116707Y-116973080D01*
X104160876Y-116906976D01*
X104191300Y-116833526D01*
X104205665Y-116761309D01*
X104244976Y-116753490D01*
X104318426Y-116723066D01*
X104384530Y-116678897D01*
X104440747Y-116622680D01*
X104484916Y-116556576D01*
X104515340Y-116483126D01*
X104530850Y-116405151D01*
X104530850Y-116325649D01*
X104515340Y-116247674D01*
X104484916Y-116174224D01*
X104440747Y-116108120D01*
X104384530Y-116051903D01*
X104346550Y-116026526D01*
X104380918Y-116019690D01*
X104454368Y-115989266D01*
X104520472Y-115945097D01*
X104576689Y-115888880D01*
X104620858Y-115822776D01*
X104651282Y-115749326D01*
X104666792Y-115671351D01*
X104666792Y-115591849D01*
X104651282Y-115513874D01*
X104620858Y-115440424D01*
X104576689Y-115374320D01*
X104520472Y-115318103D01*
X104454368Y-115273934D01*
X104380918Y-115243510D01*
X104302943Y-115228000D01*
X104223441Y-115228000D01*
X104145466Y-115243510D01*
X104072016Y-115273934D01*
X104005912Y-115318103D01*
X103949695Y-115374320D01*
X103948186Y-115376579D01*
X103918281Y-115356597D01*
X103844831Y-115326173D01*
X103766856Y-115310663D01*
X103687354Y-115310663D01*
X103609379Y-115326173D01*
X103535929Y-115356597D01*
X103469825Y-115400766D01*
X103413608Y-115456983D01*
X103384280Y-115500876D01*
X103336774Y-115469134D01*
X103263324Y-115438710D01*
X103185349Y-115423200D01*
X103105847Y-115423200D01*
X103027872Y-115438710D01*
X102954422Y-115469134D01*
X102888318Y-115513303D01*
X102832101Y-115569520D01*
X102787932Y-115635624D01*
X102757508Y-115709074D01*
X102741998Y-115787049D01*
X102133200Y-115787049D01*
X102133200Y-115718849D01*
X102117690Y-115640874D01*
X102087266Y-115567424D01*
X102077367Y-115552608D01*
X102116674Y-115568890D01*
X102194649Y-115584400D01*
X102274151Y-115584400D01*
X102352126Y-115568890D01*
X102425576Y-115538466D01*
X102491680Y-115494297D01*
X102547897Y-115438080D01*
X102592066Y-115371976D01*
X102622490Y-115298526D01*
X102638000Y-115220551D01*
X102638000Y-115141049D01*
X102623934Y-115070334D01*
X102694649Y-115084400D01*
X102774151Y-115084400D01*
X102852126Y-115068890D01*
X102925576Y-115038466D01*
X102984400Y-114999161D01*
X103043224Y-115038466D01*
X103116674Y-115068890D01*
X103194649Y-115084400D01*
X103274151Y-115084400D01*
X103352126Y-115068890D01*
X103425576Y-115038466D01*
X103484400Y-114999161D01*
X103543224Y-115038466D01*
X103616674Y-115068890D01*
X103694649Y-115084400D01*
X103774151Y-115084400D01*
X103852126Y-115068890D01*
X103925576Y-115038466D01*
X103984400Y-114999161D01*
X104043224Y-115038466D01*
X104116674Y-115068890D01*
X104194649Y-115084400D01*
X104274151Y-115084400D01*
X104352126Y-115068890D01*
X104425576Y-115038466D01*
X104484400Y-114999161D01*
X104543224Y-115038466D01*
X104616674Y-115068890D01*
X104694649Y-115084400D01*
X104774151Y-115084400D01*
X104852126Y-115068890D01*
X104925576Y-115038466D01*
X104984400Y-114999161D01*
X105043224Y-115038466D01*
X105116674Y-115068890D01*
X105194649Y-115084400D01*
X105274151Y-115084400D01*
X105344866Y-115070334D01*
X105330800Y-115141049D01*
X105330800Y-115220551D01*
X105346310Y-115298526D01*
X105355400Y-115320471D01*
X105355400Y-115409690D01*
X105353557Y-115428400D01*
X105355400Y-115447110D01*
X105355400Y-115447112D01*
X105360913Y-115503088D01*
X105377657Y-115558286D01*
X105382699Y-115574907D01*
X105418078Y-115641096D01*
X105434066Y-115660577D01*
X105465689Y-115699111D01*
X105480231Y-115711045D01*
X105733158Y-115963973D01*
X105745089Y-115978511D01*
X105763416Y-115993551D01*
X105803103Y-116026122D01*
X105806168Y-116027760D01*
X105869292Y-116061501D01*
X105941111Y-116083287D01*
X105997087Y-116088800D01*
X105997096Y-116088800D01*
X106015799Y-116090642D01*
X106034502Y-116088800D01*
X106388994Y-116088800D01*
X106369334Y-116118224D01*
X106338910Y-116191674D01*
X106323400Y-116269649D01*
X106323400Y-116349151D01*
X106338910Y-116427126D01*
X106369334Y-116500576D01*
X106413503Y-116566680D01*
X106469720Y-116622897D01*
X106535824Y-116667066D01*
X106609274Y-116697490D01*
X106687249Y-116713000D01*
X106766751Y-116713000D01*
X106844726Y-116697490D01*
X106918176Y-116667066D01*
X106984280Y-116622897D01*
X107040497Y-116566680D01*
X107084666Y-116500576D01*
X107115090Y-116427126D01*
X107130600Y-116349151D01*
X107130600Y-116269649D01*
X107115090Y-116191674D01*
X107084666Y-116118224D01*
X107040497Y-116052120D01*
X106984280Y-115995903D01*
X106918176Y-115951734D01*
X106844726Y-115921310D01*
X106827192Y-115917822D01*
X106919574Y-115825441D01*
X106934112Y-115813510D01*
X106981723Y-115755495D01*
X107017102Y-115689307D01*
X107021551Y-115674642D01*
X107024710Y-115690526D01*
X107055134Y-115763976D01*
X107099303Y-115830080D01*
X107155520Y-115886297D01*
X107221624Y-115930466D01*
X107295074Y-115960890D01*
X107373049Y-115976400D01*
X107452551Y-115976400D01*
X107530526Y-115960890D01*
X107603976Y-115930466D01*
X107670080Y-115886297D01*
X107726297Y-115830080D01*
X107770466Y-115763976D01*
X107800890Y-115690526D01*
X107816400Y-115612551D01*
X107816400Y-115533049D01*
X107800890Y-115455074D01*
X107770466Y-115381624D01*
X107726297Y-115315520D01*
X107670080Y-115259303D01*
X107603976Y-115215134D01*
X107530526Y-115184710D01*
X107452551Y-115169200D01*
X107373049Y-115169200D01*
X107295074Y-115184710D01*
X107221624Y-115215134D01*
X107155520Y-115259303D01*
X107099303Y-115315520D01*
X107055134Y-115381624D01*
X107044401Y-115407536D01*
X107044401Y-113719413D01*
X107390985Y-113372830D01*
X107444976Y-113350466D01*
X107511080Y-113306297D01*
X107567297Y-113250080D01*
X107611466Y-113183976D01*
X107641890Y-113110526D01*
X107657400Y-113032551D01*
X107657400Y-112953049D01*
X107641890Y-112875074D01*
X107611466Y-112801624D01*
X107567297Y-112735520D01*
X107511080Y-112679303D01*
X107444976Y-112635134D01*
X107371526Y-112604710D01*
X107293551Y-112589200D01*
X107214049Y-112589200D01*
X107136074Y-112604710D01*
X107062624Y-112635134D01*
X106996520Y-112679303D01*
X106940303Y-112735520D01*
X106919438Y-112766748D01*
X106407233Y-113278953D01*
X106392690Y-113290888D01*
X106361493Y-113328903D01*
X106345079Y-113348903D01*
X106319691Y-113396400D01*
X106309700Y-113415092D01*
X106287914Y-113486911D01*
X106282401Y-113542886D01*
X106280558Y-113561599D01*
X106282401Y-113580309D01*
X106282402Y-114778841D01*
X106274151Y-114777200D01*
X106194649Y-114777200D01*
X106123934Y-114791266D01*
X106138000Y-114720551D01*
X106138000Y-114641049D01*
X106122490Y-114563074D01*
X106092066Y-114489624D01*
X106047897Y-114423520D01*
X105991680Y-114367303D01*
X105925576Y-114323134D01*
X105852126Y-114292710D01*
X105774151Y-114277200D01*
X105694649Y-114277200D01*
X105627581Y-114290540D01*
X105638000Y-114238161D01*
X105638000Y-114158659D01*
X105622490Y-114080684D01*
X105592066Y-114007234D01*
X105547897Y-113941130D01*
X105491680Y-113884913D01*
X105425576Y-113840744D01*
X105352126Y-113810320D01*
X105274151Y-113794810D01*
X105194649Y-113794810D01*
X105116674Y-113810320D01*
X105043224Y-113840744D01*
X104996405Y-113872028D01*
X104991680Y-113867303D01*
X104925576Y-113823134D01*
X104852126Y-113792710D01*
X104774151Y-113777200D01*
X104694649Y-113777200D01*
X104616674Y-113792710D01*
X104543224Y-113823134D01*
X104484400Y-113862439D01*
X104425576Y-113823134D01*
X104352126Y-113792710D01*
X104274151Y-113777200D01*
X104194649Y-113777200D01*
X104116674Y-113792710D01*
X104043224Y-113823134D01*
X103984400Y-113862439D01*
X103925576Y-113823134D01*
X103852126Y-113792710D01*
X103774151Y-113777200D01*
X103694649Y-113777200D01*
X103616674Y-113792710D01*
X103543224Y-113823134D01*
X103484400Y-113862439D01*
X103425576Y-113823134D01*
X103352126Y-113792710D01*
X103274151Y-113777200D01*
X103194649Y-113777200D01*
X103116674Y-113792710D01*
X103043224Y-113823134D01*
X102984400Y-113862439D01*
X102925576Y-113823134D01*
X102852126Y-113792710D01*
X102774151Y-113777200D01*
X102694649Y-113777200D01*
X102616674Y-113792710D01*
X102543224Y-113823134D01*
X102484400Y-113862439D01*
X102425576Y-113823134D01*
X102352126Y-113792710D01*
X102274151Y-113777200D01*
X102194649Y-113777200D01*
X102116674Y-113792710D01*
X102043224Y-113823134D01*
X101984400Y-113862439D01*
X101925576Y-113823134D01*
X101852126Y-113792710D01*
X101774151Y-113777200D01*
X101694649Y-113777200D01*
X101616674Y-113792710D01*
X101543224Y-113823134D01*
X101477120Y-113867303D01*
X101420903Y-113923520D01*
X101376734Y-113989624D01*
X101346310Y-114063074D01*
X101330800Y-114141049D01*
X101330800Y-114220551D01*
X101346310Y-114298526D01*
X101376734Y-114371976D01*
X101416039Y-114430800D01*
X101376734Y-114489624D01*
X101346310Y-114563074D01*
X101330800Y-114641049D01*
X101330800Y-114720551D01*
X101346310Y-114798526D01*
X101376734Y-114871976D01*
X101416039Y-114930800D01*
X101376734Y-114989624D01*
X101346310Y-115063074D01*
X101330800Y-115141049D01*
X101330800Y-115220551D01*
X101346310Y-115298526D01*
X101376734Y-115371976D01*
X101392602Y-115395724D01*
X101366576Y-115378334D01*
X101293126Y-115347910D01*
X101215151Y-115332400D01*
X101135649Y-115332400D01*
X101057674Y-115347910D01*
X100984224Y-115378334D01*
X100918120Y-115422503D01*
X100861903Y-115478720D01*
X100817734Y-115544824D01*
X100787310Y-115618274D01*
X100771800Y-115696249D01*
X100360026Y-115696249D01*
X100304080Y-115640303D01*
X100237976Y-115596134D01*
X100225423Y-115590934D01*
X100240728Y-115587890D01*
X100314178Y-115557466D01*
X100380282Y-115513297D01*
X100436499Y-115457080D01*
X100480668Y-115390976D01*
X100511092Y-115317526D01*
X100526602Y-115239551D01*
X100526602Y-115160049D01*
X100511092Y-115082074D01*
X100480668Y-115008624D01*
X100436499Y-114942520D01*
X100380282Y-114886303D01*
X100314178Y-114842134D01*
X100240728Y-114811710D01*
X100162753Y-114796200D01*
X100083251Y-114796200D01*
X100005276Y-114811710D01*
X99931826Y-114842134D01*
X99865722Y-114886303D01*
X99809505Y-114942520D01*
X99765336Y-115008624D01*
X99734912Y-115082074D01*
X99719402Y-115160049D01*
X99719402Y-115239551D01*
X99734912Y-115317526D01*
X99765336Y-115390976D01*
X99809505Y-115457080D01*
X99865722Y-115513297D01*
X99931826Y-115557466D01*
X99944379Y-115562666D01*
X99929074Y-115565710D01*
X99855624Y-115596134D01*
X99789520Y-115640303D01*
X99733303Y-115696520D01*
X99689134Y-115762624D01*
X99658710Y-115836074D01*
X99643200Y-115914049D01*
X99076200Y-115914049D01*
X99076200Y-113602649D01*
X100252800Y-113602649D01*
X100252800Y-113682151D01*
X100268310Y-113760126D01*
X100298734Y-113833576D01*
X100342903Y-113899680D01*
X100399120Y-113955897D01*
X100465224Y-114000066D01*
X100538674Y-114030490D01*
X100616649Y-114046000D01*
X100696151Y-114046000D01*
X100774126Y-114030490D01*
X100847576Y-114000066D01*
X100913680Y-113955897D01*
X100969897Y-113899680D01*
X101014066Y-113833576D01*
X101044490Y-113760126D01*
X101060000Y-113682151D01*
X101060000Y-113602649D01*
X101047593Y-113540276D01*
X101116674Y-113568890D01*
X101194649Y-113584400D01*
X101274151Y-113584400D01*
X101352126Y-113568890D01*
X101425576Y-113538466D01*
X101491680Y-113494297D01*
X101547897Y-113438080D01*
X101592066Y-113371976D01*
X101622490Y-113298526D01*
X101638000Y-113220551D01*
X101638000Y-113141049D01*
X101622490Y-113063074D01*
X101592066Y-112989624D01*
X101547897Y-112923520D01*
X101491680Y-112867303D01*
X101425576Y-112823134D01*
X101352126Y-112792710D01*
X101274151Y-112777200D01*
X101194649Y-112777200D01*
X101116674Y-112792710D01*
X101043224Y-112823134D01*
X100977120Y-112867303D01*
X100920903Y-112923520D01*
X100876734Y-112989624D01*
X100846310Y-113063074D01*
X100830800Y-113141049D01*
X100830800Y-113220551D01*
X100843207Y-113282924D01*
X100774126Y-113254310D01*
X100696151Y-113238800D01*
X100616649Y-113238800D01*
X100538674Y-113254310D01*
X100465224Y-113284734D01*
X100399120Y-113328903D01*
X100342903Y-113385120D01*
X100298734Y-113451224D01*
X100268310Y-113524674D01*
X100252800Y-113602649D01*
X99076200Y-113602649D01*
X99076200Y-112141049D01*
X102330800Y-112141049D01*
X102330800Y-112220551D01*
X102346310Y-112298526D01*
X102376734Y-112371976D01*
X102420903Y-112438080D01*
X102477120Y-112494297D01*
X102543224Y-112538466D01*
X102616674Y-112568890D01*
X102694649Y-112584400D01*
X102774151Y-112584400D01*
X102852126Y-112568890D01*
X102925576Y-112538466D01*
X102984400Y-112499161D01*
X103043224Y-112538466D01*
X103116674Y-112568890D01*
X103194649Y-112584400D01*
X103274151Y-112584400D01*
X103352126Y-112568890D01*
X103425576Y-112538466D01*
X103491680Y-112494297D01*
X103547897Y-112438080D01*
X103592066Y-112371976D01*
X103622490Y-112298526D01*
X103638000Y-112220551D01*
X103638000Y-112141049D01*
X103623934Y-112070334D01*
X103694649Y-112084400D01*
X103774151Y-112084400D01*
X103852126Y-112068890D01*
X103925576Y-112038466D01*
X103991680Y-111994297D01*
X104003872Y-111982105D01*
X104055066Y-112016311D01*
X104123966Y-112044851D01*
X104197111Y-112059400D01*
X104271689Y-112059400D01*
X104344834Y-112044851D01*
X104413734Y-112016311D01*
X104464928Y-111982105D01*
X104477120Y-111994297D01*
X104543224Y-112038466D01*
X104616674Y-112068890D01*
X104694649Y-112084400D01*
X104774151Y-112084400D01*
X104844866Y-112070334D01*
X104830800Y-112141049D01*
X104830800Y-112220551D01*
X104846310Y-112298526D01*
X104876734Y-112371976D01*
X104920903Y-112438080D01*
X104977120Y-112494297D01*
X105043224Y-112538466D01*
X105116674Y-112568890D01*
X105194649Y-112584400D01*
X105274151Y-112584400D01*
X105352126Y-112568890D01*
X105425576Y-112538466D01*
X105491680Y-112494297D01*
X105547897Y-112438080D01*
X105592066Y-112371976D01*
X105622490Y-112298526D01*
X105638000Y-112220551D01*
X105638000Y-112141049D01*
X105830800Y-112141049D01*
X105830800Y-112220551D01*
X105846310Y-112298526D01*
X105876734Y-112371976D01*
X105920903Y-112438080D01*
X105977120Y-112494297D01*
X106043224Y-112538466D01*
X106116674Y-112568890D01*
X106194649Y-112584400D01*
X106274151Y-112584400D01*
X106352126Y-112568890D01*
X106425576Y-112538466D01*
X106491680Y-112494297D01*
X106547897Y-112438080D01*
X106592066Y-112371976D01*
X106622490Y-112298526D01*
X106638000Y-112220551D01*
X106638000Y-112141049D01*
X106622490Y-112063074D01*
X106592066Y-111989624D01*
X106547897Y-111923520D01*
X106491680Y-111867303D01*
X106425576Y-111823134D01*
X106352126Y-111792710D01*
X106274151Y-111777200D01*
X106194649Y-111777200D01*
X106116674Y-111792710D01*
X106043224Y-111823134D01*
X105977120Y-111867303D01*
X105920903Y-111923520D01*
X105876734Y-111989624D01*
X105846310Y-112063074D01*
X105830800Y-112141049D01*
X105638000Y-112141049D01*
X105622490Y-112063074D01*
X105592066Y-111989624D01*
X105552761Y-111930800D01*
X105592066Y-111871976D01*
X105622490Y-111798526D01*
X105638000Y-111720551D01*
X105638000Y-111641049D01*
X105622490Y-111563074D01*
X105592066Y-111489624D01*
X105547897Y-111423520D01*
X105491680Y-111367303D01*
X105425576Y-111323134D01*
X105352126Y-111292710D01*
X105274151Y-111277200D01*
X105194649Y-111277200D01*
X105116674Y-111292710D01*
X105043224Y-111323134D01*
X104984400Y-111362439D01*
X104925576Y-111323134D01*
X104852126Y-111292710D01*
X104774151Y-111277200D01*
X104694649Y-111277200D01*
X104616674Y-111292710D01*
X104543224Y-111323134D01*
X104477120Y-111367303D01*
X104464928Y-111379495D01*
X104413734Y-111345289D01*
X104344834Y-111316749D01*
X104271689Y-111302200D01*
X104197111Y-111302200D01*
X104123966Y-111316749D01*
X104055066Y-111345289D01*
X104003872Y-111379495D01*
X103991680Y-111367303D01*
X103925576Y-111323134D01*
X103852126Y-111292710D01*
X103774151Y-111277200D01*
X103694649Y-111277200D01*
X103616674Y-111292710D01*
X103543224Y-111323134D01*
X103477120Y-111367303D01*
X103420903Y-111423520D01*
X103376734Y-111489624D01*
X103346310Y-111563074D01*
X103330800Y-111641049D01*
X103330800Y-111720551D01*
X103344866Y-111791266D01*
X103274151Y-111777200D01*
X103194649Y-111777200D01*
X103116674Y-111792710D01*
X103043224Y-111823134D01*
X102984400Y-111862439D01*
X102925576Y-111823134D01*
X102852126Y-111792710D01*
X102774151Y-111777200D01*
X102694649Y-111777200D01*
X102616674Y-111792710D01*
X102543224Y-111823134D01*
X102477120Y-111867303D01*
X102420903Y-111923520D01*
X102376734Y-111989624D01*
X102346310Y-112063074D01*
X102330800Y-112141049D01*
X99076200Y-112141049D01*
X99076200Y-111581449D01*
X99370400Y-111581449D01*
X99370400Y-111660951D01*
X99385910Y-111738926D01*
X99416334Y-111812376D01*
X99460503Y-111878480D01*
X99516720Y-111934697D01*
X99582824Y-111978866D01*
X99656274Y-112009290D01*
X99734249Y-112024800D01*
X99813751Y-112024800D01*
X99891726Y-112009290D01*
X99965176Y-111978866D01*
X100031280Y-111934697D01*
X100087497Y-111878480D01*
X100131666Y-111812376D01*
X100162090Y-111738926D01*
X100177600Y-111660951D01*
X100177600Y-111581449D01*
X100162090Y-111503474D01*
X100131666Y-111430024D01*
X100087497Y-111363920D01*
X100031280Y-111307703D01*
X100018982Y-111299486D01*
X100056680Y-111274297D01*
X100112897Y-111218080D01*
X100157066Y-111151976D01*
X100187490Y-111078526D01*
X100203000Y-111000551D01*
X100203000Y-110921049D01*
X100187490Y-110843074D01*
X100157066Y-110769624D01*
X100112897Y-110703520D01*
X100056680Y-110647303D01*
X99990576Y-110603134D01*
X99917126Y-110572710D01*
X99839151Y-110557200D01*
X99759649Y-110557200D01*
X99681674Y-110572710D01*
X99608224Y-110603134D01*
X99542120Y-110647303D01*
X99485903Y-110703520D01*
X99441734Y-110769624D01*
X99411310Y-110843074D01*
X99395800Y-110921049D01*
X99395800Y-111000551D01*
X99411310Y-111078526D01*
X99441734Y-111151976D01*
X99485903Y-111218080D01*
X99542120Y-111274297D01*
X99554418Y-111282514D01*
X99516720Y-111307703D01*
X99460503Y-111363920D01*
X99416334Y-111430024D01*
X99385910Y-111503474D01*
X99370400Y-111581449D01*
X99076200Y-111581449D01*
X99076200Y-110260649D01*
X100919800Y-110260649D01*
X100919800Y-110340151D01*
X100935310Y-110418126D01*
X100965734Y-110491576D01*
X101009903Y-110557680D01*
X101066120Y-110613897D01*
X101091118Y-110630600D01*
X101066120Y-110647303D01*
X101009903Y-110703520D01*
X100965734Y-110769624D01*
X100935310Y-110843074D01*
X100919800Y-110921049D01*
X100919800Y-111000551D01*
X100935310Y-111078526D01*
X100965734Y-111151976D01*
X101009903Y-111218080D01*
X101066120Y-111274297D01*
X101132224Y-111318466D01*
X101205674Y-111348890D01*
X101283649Y-111364400D01*
X101363151Y-111364400D01*
X101441126Y-111348890D01*
X101514576Y-111318466D01*
X101580680Y-111274297D01*
X101636897Y-111218080D01*
X101681066Y-111151976D01*
X101711490Y-111078526D01*
X101727000Y-111000551D01*
X101727000Y-110921049D01*
X101711490Y-110843074D01*
X101681066Y-110769624D01*
X101636897Y-110703520D01*
X101580680Y-110647303D01*
X101555682Y-110630600D01*
X101580680Y-110613897D01*
X101636897Y-110557680D01*
X101681066Y-110491576D01*
X101686503Y-110478449D01*
X102869000Y-110478449D01*
X102869000Y-110557951D01*
X102884510Y-110635926D01*
X102914934Y-110709376D01*
X102959103Y-110775480D01*
X103015320Y-110831697D01*
X103081424Y-110875866D01*
X103154874Y-110906290D01*
X103232849Y-110921800D01*
X103312351Y-110921800D01*
X103390326Y-110906290D01*
X103463776Y-110875866D01*
X103529880Y-110831697D01*
X103586097Y-110775480D01*
X103630266Y-110709376D01*
X103660690Y-110635926D01*
X103675149Y-110563236D01*
X103690049Y-110566200D01*
X103769551Y-110566200D01*
X103847526Y-110550690D01*
X103920976Y-110520266D01*
X103987080Y-110476097D01*
X104043297Y-110419880D01*
X104087466Y-110353776D01*
X104117890Y-110280326D01*
X104133400Y-110202351D01*
X104133400Y-110122849D01*
X104123296Y-110072049D01*
X106450408Y-110072049D01*
X106450408Y-110151551D01*
X106465918Y-110229526D01*
X106496342Y-110302976D01*
X106540511Y-110369080D01*
X106596728Y-110425297D01*
X106662832Y-110469466D01*
X106736282Y-110499890D01*
X106814257Y-110515400D01*
X106893759Y-110515400D01*
X106971734Y-110499890D01*
X107045184Y-110469466D01*
X107111288Y-110425297D01*
X107138382Y-110398204D01*
X107146056Y-110405878D01*
X107208066Y-110447311D01*
X107276966Y-110475851D01*
X107350111Y-110490400D01*
X107424689Y-110490400D01*
X107497834Y-110475851D01*
X107566734Y-110447311D01*
X107628744Y-110405878D01*
X107681478Y-110353144D01*
X107722911Y-110291134D01*
X107751451Y-110222234D01*
X107766000Y-110149089D01*
X107766000Y-110074511D01*
X107751451Y-110001366D01*
X107722911Y-109932466D01*
X107681478Y-109870456D01*
X107628744Y-109817722D01*
X107566734Y-109776289D01*
X107497834Y-109747749D01*
X107424689Y-109733200D01*
X107350111Y-109733200D01*
X107276966Y-109747749D01*
X107208066Y-109776289D01*
X107146056Y-109817722D01*
X107138382Y-109825397D01*
X107111288Y-109798303D01*
X107045184Y-109754134D01*
X106971734Y-109723710D01*
X106893759Y-109708200D01*
X106814257Y-109708200D01*
X106736282Y-109723710D01*
X106662832Y-109754134D01*
X106596728Y-109798303D01*
X106540511Y-109854520D01*
X106496342Y-109920624D01*
X106465918Y-109994074D01*
X106450408Y-110072049D01*
X104123296Y-110072049D01*
X104117890Y-110044874D01*
X104087466Y-109971424D01*
X104043297Y-109905320D01*
X103987080Y-109849103D01*
X103920976Y-109804934D01*
X103847526Y-109774510D01*
X103769551Y-109759000D01*
X103690049Y-109759000D01*
X103612074Y-109774510D01*
X103538624Y-109804934D01*
X103472520Y-109849103D01*
X103416303Y-109905320D01*
X103372134Y-109971424D01*
X103341710Y-110044874D01*
X103327251Y-110117564D01*
X103312351Y-110114600D01*
X103232849Y-110114600D01*
X103154874Y-110130110D01*
X103081424Y-110160534D01*
X103015320Y-110204703D01*
X102959103Y-110260920D01*
X102914934Y-110327024D01*
X102884510Y-110400474D01*
X102869000Y-110478449D01*
X101686503Y-110478449D01*
X101711490Y-110418126D01*
X101727000Y-110340151D01*
X101727000Y-110260649D01*
X101711490Y-110182674D01*
X101681066Y-110109224D01*
X101636897Y-110043120D01*
X101580680Y-109986903D01*
X101514576Y-109942734D01*
X101441126Y-109912310D01*
X101363151Y-109896800D01*
X101283649Y-109896800D01*
X101205674Y-109912310D01*
X101132224Y-109942734D01*
X101066120Y-109986903D01*
X101009903Y-110043120D01*
X100965734Y-110109224D01*
X100935310Y-110182674D01*
X100919800Y-110260649D01*
X99076200Y-110260649D01*
X99076200Y-109983652D01*
X99119024Y-110012266D01*
X99192474Y-110042690D01*
X99270449Y-110058200D01*
X99349951Y-110058200D01*
X99427926Y-110042690D01*
X99501376Y-110012266D01*
X99567480Y-109968097D01*
X99623697Y-109911880D01*
X99667866Y-109845776D01*
X99698290Y-109772326D01*
X99713800Y-109694351D01*
X99713800Y-109614849D01*
X99698290Y-109536874D01*
X99667866Y-109463424D01*
X99623697Y-109397320D01*
X99567480Y-109341103D01*
X99501376Y-109296934D01*
X99427926Y-109266510D01*
X99349951Y-109251000D01*
X99270449Y-109251000D01*
X99192474Y-109266510D01*
X99119024Y-109296934D01*
X99076200Y-109325548D01*
X99076200Y-108826200D01*
X107988146Y-108826200D01*
X107996444Y-108846740D01*
G37*
X107996444Y-108846740D02*
X107998609Y-108850811D01*
X108045022Y-108936648D01*
X108061736Y-108961427D01*
X108078144Y-108986501D01*
X108081058Y-108990074D01*
X108143260Y-109065263D01*
X108164471Y-109086327D01*
X108185433Y-109107732D01*
X108188985Y-109110670D01*
X108264606Y-109172346D01*
X108289527Y-109188904D01*
X108314231Y-109205819D01*
X108318286Y-109208011D01*
X108404447Y-109253823D01*
X108423800Y-109261800D01*
X108423800Y-117673800D01*
X99511854Y-117673800D01*
X99503555Y-117653259D01*
X99501391Y-117649189D01*
X99454978Y-117563351D01*
X99438248Y-117538549D01*
X99421856Y-117513498D01*
X99418942Y-117509926D01*
X99356740Y-117434737D01*
X99335512Y-117413657D01*
X99314567Y-117392268D01*
X99311015Y-117389330D01*
X99235394Y-117327654D01*
X99210457Y-117311086D01*
X99185769Y-117294181D01*
X99181714Y-117291989D01*
X99095553Y-117246177D01*
X99076200Y-117238200D01*
X99076200Y-117131424D01*
X99143449Y-117144800D01*
X99222951Y-117144800D01*
X99300926Y-117129290D01*
X99374376Y-117098866D01*
X99440480Y-117054697D01*
X99496697Y-116998480D01*
X99540866Y-116932376D01*
X99571290Y-116858926D01*
X99586800Y-116780951D01*
X99586800Y-116701449D01*
X99571290Y-116623474D01*
X99540866Y-116550024D01*
X99496697Y-116483920D01*
X99440480Y-116427703D01*
X99405978Y-116404649D01*
X102183200Y-116404649D01*
X102183200Y-116484151D01*
X102198710Y-116562126D01*
X102229134Y-116635576D01*
X102273303Y-116701680D01*
X102329520Y-116757897D01*
X102395624Y-116802066D01*
X102469074Y-116832490D01*
X102547049Y-116848000D01*
X102626551Y-116848000D01*
X102704526Y-116832490D01*
X102777976Y-116802066D01*
X102844080Y-116757897D01*
X102900297Y-116701680D01*
X102944466Y-116635576D01*
X102974890Y-116562126D01*
X102990400Y-116484151D01*
X102990400Y-116404649D01*
X102974890Y-116326674D01*
X102944466Y-116253224D01*
X102900297Y-116187120D01*
X102844080Y-116130903D01*
X102777976Y-116086734D01*
X102704526Y-116056310D01*
X102626551Y-116040800D01*
X102547049Y-116040800D01*
X102469074Y-116056310D01*
X102395624Y-116086734D01*
X102329520Y-116130903D01*
X102273303Y-116187120D01*
X102229134Y-116253224D01*
X102198710Y-116326674D01*
X102183200Y-116404649D01*
X99405978Y-116404649D01*
X99374376Y-116383534D01*
X99300926Y-116353110D01*
X99222951Y-116337600D01*
X99143449Y-116337600D01*
X99076200Y-116350976D01*
X99076200Y-115914049D01*
X99643200Y-115914049D01*
X99643200Y-115993551D01*
X99658710Y-116071526D01*
X99689134Y-116144976D01*
X99733303Y-116211080D01*
X99789520Y-116267297D01*
X99855624Y-116311466D01*
X99929074Y-116341890D01*
X100007049Y-116357400D01*
X100086551Y-116357400D01*
X100164526Y-116341890D01*
X100237976Y-116311466D01*
X100304080Y-116267297D01*
X100360297Y-116211080D01*
X100404466Y-116144976D01*
X100434890Y-116071526D01*
X100450400Y-115993551D01*
X100450400Y-115914049D01*
X100434890Y-115836074D01*
X100404466Y-115762624D01*
X100360297Y-115696520D01*
X100360026Y-115696249D01*
X100771800Y-115696249D01*
X100771800Y-115775751D01*
X100787310Y-115853726D01*
X100817734Y-115927176D01*
X100861903Y-115993280D01*
X100918120Y-116049497D01*
X100984224Y-116093666D01*
X101057674Y-116124090D01*
X101135649Y-116139600D01*
X101215151Y-116139600D01*
X101293126Y-116124090D01*
X101366576Y-116093666D01*
X101432680Y-116049497D01*
X101441200Y-116040977D01*
X101472320Y-116072097D01*
X101538424Y-116116266D01*
X101611874Y-116146690D01*
X101689849Y-116162200D01*
X101769351Y-116162200D01*
X101847326Y-116146690D01*
X101920776Y-116116266D01*
X101986880Y-116072097D01*
X102043097Y-116015880D01*
X102087266Y-115949776D01*
X102117690Y-115876326D01*
X102133200Y-115798351D01*
X102133200Y-115787049D01*
X102741998Y-115787049D01*
X102741998Y-115866551D01*
X102757508Y-115944526D01*
X102787932Y-116017976D01*
X102832101Y-116084080D01*
X102888318Y-116140297D01*
X102954422Y-116184466D01*
X103027872Y-116214890D01*
X103105847Y-116230400D01*
X103185349Y-116230400D01*
X103263324Y-116214890D01*
X103300802Y-116199366D01*
X103300802Y-116230151D01*
X103316312Y-116308126D01*
X103346736Y-116381576D01*
X103390905Y-116447680D01*
X103447122Y-116503897D01*
X103455606Y-116509566D01*
X103445544Y-116524624D01*
X103415120Y-116598074D01*
X103399610Y-116676049D01*
X103399610Y-116755551D01*
X103415120Y-116833526D01*
X103445544Y-116906976D01*
X103489713Y-116973080D01*
X103545930Y-117029297D01*
X103612034Y-117073466D01*
X103685484Y-117103890D01*
X103763459Y-117119400D01*
X103842961Y-117119400D01*
X103920936Y-117103890D01*
X103994386Y-117073466D01*
X104060490Y-117029297D01*
X104116707Y-116973080D01*
X104160876Y-116906976D01*
X104191300Y-116833526D01*
X104205665Y-116761309D01*
X104244976Y-116753490D01*
X104318426Y-116723066D01*
X104384530Y-116678897D01*
X104440747Y-116622680D01*
X104484916Y-116556576D01*
X104515340Y-116483126D01*
X104530850Y-116405151D01*
X104530850Y-116325649D01*
X104515340Y-116247674D01*
X104484916Y-116174224D01*
X104440747Y-116108120D01*
X104384530Y-116051903D01*
X104346550Y-116026526D01*
X104380918Y-116019690D01*
X104454368Y-115989266D01*
X104520472Y-115945097D01*
X104576689Y-115888880D01*
X104620858Y-115822776D01*
X104651282Y-115749326D01*
X104666792Y-115671351D01*
X104666792Y-115591849D01*
X104651282Y-115513874D01*
X104620858Y-115440424D01*
X104576689Y-115374320D01*
X104520472Y-115318103D01*
X104454368Y-115273934D01*
X104380918Y-115243510D01*
X104302943Y-115228000D01*
X104223441Y-115228000D01*
X104145466Y-115243510D01*
X104072016Y-115273934D01*
X104005912Y-115318103D01*
X103949695Y-115374320D01*
X103948186Y-115376579D01*
X103918281Y-115356597D01*
X103844831Y-115326173D01*
X103766856Y-115310663D01*
X103687354Y-115310663D01*
X103609379Y-115326173D01*
X103535929Y-115356597D01*
X103469825Y-115400766D01*
X103413608Y-115456983D01*
X103384280Y-115500876D01*
X103336774Y-115469134D01*
X103263324Y-115438710D01*
X103185349Y-115423200D01*
X103105847Y-115423200D01*
X103027872Y-115438710D01*
X102954422Y-115469134D01*
X102888318Y-115513303D01*
X102832101Y-115569520D01*
X102787932Y-115635624D01*
X102757508Y-115709074D01*
X102741998Y-115787049D01*
X102133200Y-115787049D01*
X102133200Y-115718849D01*
X102117690Y-115640874D01*
X102087266Y-115567424D01*
X102077367Y-115552608D01*
X102116674Y-115568890D01*
X102194649Y-115584400D01*
X102274151Y-115584400D01*
X102352126Y-115568890D01*
X102425576Y-115538466D01*
X102491680Y-115494297D01*
X102547897Y-115438080D01*
X102592066Y-115371976D01*
X102622490Y-115298526D01*
X102638000Y-115220551D01*
X102638000Y-115141049D01*
X102623934Y-115070334D01*
X102694649Y-115084400D01*
X102774151Y-115084400D01*
X102852126Y-115068890D01*
X102925576Y-115038466D01*
X102984400Y-114999161D01*
X103043224Y-115038466D01*
X103116674Y-115068890D01*
X103194649Y-115084400D01*
X103274151Y-115084400D01*
X103352126Y-115068890D01*
X103425576Y-115038466D01*
X103484400Y-114999161D01*
X103543224Y-115038466D01*
X103616674Y-115068890D01*
X103694649Y-115084400D01*
X103774151Y-115084400D01*
X103852126Y-115068890D01*
X103925576Y-115038466D01*
X103984400Y-114999161D01*
X104043224Y-115038466D01*
X104116674Y-115068890D01*
X104194649Y-115084400D01*
X104274151Y-115084400D01*
X104352126Y-115068890D01*
X104425576Y-115038466D01*
X104484400Y-114999161D01*
X104543224Y-115038466D01*
X104616674Y-115068890D01*
X104694649Y-115084400D01*
X104774151Y-115084400D01*
X104852126Y-115068890D01*
X104925576Y-115038466D01*
X104984400Y-114999161D01*
X105043224Y-115038466D01*
X105116674Y-115068890D01*
X105194649Y-115084400D01*
X105274151Y-115084400D01*
X105344866Y-115070334D01*
X105330800Y-115141049D01*
X105330800Y-115220551D01*
X105346310Y-115298526D01*
X105355400Y-115320471D01*
X105355400Y-115409690D01*
X105353557Y-115428400D01*
X105355400Y-115447110D01*
X105355400Y-115447112D01*
X105360913Y-115503088D01*
X105377657Y-115558286D01*
X105382699Y-115574907D01*
X105418078Y-115641096D01*
X105434066Y-115660577D01*
X105465689Y-115699111D01*
X105480231Y-115711045D01*
X105733158Y-115963973D01*
X105745089Y-115978511D01*
X105763416Y-115993551D01*
X105803103Y-116026122D01*
X105806168Y-116027760D01*
X105869292Y-116061501D01*
X105941111Y-116083287D01*
X105997087Y-116088800D01*
X105997096Y-116088800D01*
X106015799Y-116090642D01*
X106034502Y-116088800D01*
X106388994Y-116088800D01*
X106369334Y-116118224D01*
X106338910Y-116191674D01*
X106323400Y-116269649D01*
X106323400Y-116349151D01*
X106338910Y-116427126D01*
X106369334Y-116500576D01*
X106413503Y-116566680D01*
X106469720Y-116622897D01*
X106535824Y-116667066D01*
X106609274Y-116697490D01*
X106687249Y-116713000D01*
X106766751Y-116713000D01*
X106844726Y-116697490D01*
X106918176Y-116667066D01*
X106984280Y-116622897D01*
X107040497Y-116566680D01*
X107084666Y-116500576D01*
X107115090Y-116427126D01*
X107130600Y-116349151D01*
X107130600Y-116269649D01*
X107115090Y-116191674D01*
X107084666Y-116118224D01*
X107040497Y-116052120D01*
X106984280Y-115995903D01*
X106918176Y-115951734D01*
X106844726Y-115921310D01*
X106827192Y-115917822D01*
X106919574Y-115825441D01*
X106934112Y-115813510D01*
X106981723Y-115755495D01*
X107017102Y-115689307D01*
X107021551Y-115674642D01*
X107024710Y-115690526D01*
X107055134Y-115763976D01*
X107099303Y-115830080D01*
X107155520Y-115886297D01*
X107221624Y-115930466D01*
X107295074Y-115960890D01*
X107373049Y-115976400D01*
X107452551Y-115976400D01*
X107530526Y-115960890D01*
X107603976Y-115930466D01*
X107670080Y-115886297D01*
X107726297Y-115830080D01*
X107770466Y-115763976D01*
X107800890Y-115690526D01*
X107816400Y-115612551D01*
X107816400Y-115533049D01*
X107800890Y-115455074D01*
X107770466Y-115381624D01*
X107726297Y-115315520D01*
X107670080Y-115259303D01*
X107603976Y-115215134D01*
X107530526Y-115184710D01*
X107452551Y-115169200D01*
X107373049Y-115169200D01*
X107295074Y-115184710D01*
X107221624Y-115215134D01*
X107155520Y-115259303D01*
X107099303Y-115315520D01*
X107055134Y-115381624D01*
X107044401Y-115407536D01*
X107044401Y-113719413D01*
X107390985Y-113372830D01*
X107444976Y-113350466D01*
X107511080Y-113306297D01*
X107567297Y-113250080D01*
X107611466Y-113183976D01*
X107641890Y-113110526D01*
X107657400Y-113032551D01*
X107657400Y-112953049D01*
X107641890Y-112875074D01*
X107611466Y-112801624D01*
X107567297Y-112735520D01*
X107511080Y-112679303D01*
X107444976Y-112635134D01*
X107371526Y-112604710D01*
X107293551Y-112589200D01*
X107214049Y-112589200D01*
X107136074Y-112604710D01*
X107062624Y-112635134D01*
X106996520Y-112679303D01*
X106940303Y-112735520D01*
X106919438Y-112766748D01*
X106407233Y-113278953D01*
X106392690Y-113290888D01*
X106361493Y-113328903D01*
X106345079Y-113348903D01*
X106319691Y-113396400D01*
X106309700Y-113415092D01*
X106287914Y-113486911D01*
X106282401Y-113542886D01*
X106280558Y-113561599D01*
X106282401Y-113580309D01*
X106282402Y-114778841D01*
X106274151Y-114777200D01*
X106194649Y-114777200D01*
X106123934Y-114791266D01*
X106138000Y-114720551D01*
X106138000Y-114641049D01*
X106122490Y-114563074D01*
X106092066Y-114489624D01*
X106047897Y-114423520D01*
X105991680Y-114367303D01*
X105925576Y-114323134D01*
X105852126Y-114292710D01*
X105774151Y-114277200D01*
X105694649Y-114277200D01*
X105627581Y-114290540D01*
X105638000Y-114238161D01*
X105638000Y-114158659D01*
X105622490Y-114080684D01*
X105592066Y-114007234D01*
X105547897Y-113941130D01*
X105491680Y-113884913D01*
X105425576Y-113840744D01*
X105352126Y-113810320D01*
X105274151Y-113794810D01*
X105194649Y-113794810D01*
X105116674Y-113810320D01*
X105043224Y-113840744D01*
X104996405Y-113872028D01*
X104991680Y-113867303D01*
X104925576Y-113823134D01*
X104852126Y-113792710D01*
X104774151Y-113777200D01*
X104694649Y-113777200D01*
X104616674Y-113792710D01*
X104543224Y-113823134D01*
X104484400Y-113862439D01*
X104425576Y-113823134D01*
X104352126Y-113792710D01*
X104274151Y-113777200D01*
X104194649Y-113777200D01*
X104116674Y-113792710D01*
X104043224Y-113823134D01*
X103984400Y-113862439D01*
X103925576Y-113823134D01*
X103852126Y-113792710D01*
X103774151Y-113777200D01*
X103694649Y-113777200D01*
X103616674Y-113792710D01*
X103543224Y-113823134D01*
X103484400Y-113862439D01*
X103425576Y-113823134D01*
X103352126Y-113792710D01*
X103274151Y-113777200D01*
X103194649Y-113777200D01*
X103116674Y-113792710D01*
X103043224Y-113823134D01*
X102984400Y-113862439D01*
X102925576Y-113823134D01*
X102852126Y-113792710D01*
X102774151Y-113777200D01*
X102694649Y-113777200D01*
X102616674Y-113792710D01*
X102543224Y-113823134D01*
X102484400Y-113862439D01*
X102425576Y-113823134D01*
X102352126Y-113792710D01*
X102274151Y-113777200D01*
X102194649Y-113777200D01*
X102116674Y-113792710D01*
X102043224Y-113823134D01*
X101984400Y-113862439D01*
X101925576Y-113823134D01*
X101852126Y-113792710D01*
X101774151Y-113777200D01*
X101694649Y-113777200D01*
X101616674Y-113792710D01*
X101543224Y-113823134D01*
X101477120Y-113867303D01*
X101420903Y-113923520D01*
X101376734Y-113989624D01*
X101346310Y-114063074D01*
X101330800Y-114141049D01*
X101330800Y-114220551D01*
X101346310Y-114298526D01*
X101376734Y-114371976D01*
X101416039Y-114430800D01*
X101376734Y-114489624D01*
X101346310Y-114563074D01*
X101330800Y-114641049D01*
X101330800Y-114720551D01*
X101346310Y-114798526D01*
X101376734Y-114871976D01*
X101416039Y-114930800D01*
X101376734Y-114989624D01*
X101346310Y-115063074D01*
X101330800Y-115141049D01*
X101330800Y-115220551D01*
X101346310Y-115298526D01*
X101376734Y-115371976D01*
X101392602Y-115395724D01*
X101366576Y-115378334D01*
X101293126Y-115347910D01*
X101215151Y-115332400D01*
X101135649Y-115332400D01*
X101057674Y-115347910D01*
X100984224Y-115378334D01*
X100918120Y-115422503D01*
X100861903Y-115478720D01*
X100817734Y-115544824D01*
X100787310Y-115618274D01*
X100771800Y-115696249D01*
X100360026Y-115696249D01*
X100304080Y-115640303D01*
X100237976Y-115596134D01*
X100225423Y-115590934D01*
X100240728Y-115587890D01*
X100314178Y-115557466D01*
X100380282Y-115513297D01*
X100436499Y-115457080D01*
X100480668Y-115390976D01*
X100511092Y-115317526D01*
X100526602Y-115239551D01*
X100526602Y-115160049D01*
X100511092Y-115082074D01*
X100480668Y-115008624D01*
X100436499Y-114942520D01*
X100380282Y-114886303D01*
X100314178Y-114842134D01*
X100240728Y-114811710D01*
X100162753Y-114796200D01*
X100083251Y-114796200D01*
X100005276Y-114811710D01*
X99931826Y-114842134D01*
X99865722Y-114886303D01*
X99809505Y-114942520D01*
X99765336Y-115008624D01*
X99734912Y-115082074D01*
X99719402Y-115160049D01*
X99719402Y-115239551D01*
X99734912Y-115317526D01*
X99765336Y-115390976D01*
X99809505Y-115457080D01*
X99865722Y-115513297D01*
X99931826Y-115557466D01*
X99944379Y-115562666D01*
X99929074Y-115565710D01*
X99855624Y-115596134D01*
X99789520Y-115640303D01*
X99733303Y-115696520D01*
X99689134Y-115762624D01*
X99658710Y-115836074D01*
X99643200Y-115914049D01*
X99076200Y-115914049D01*
X99076200Y-113602649D01*
X100252800Y-113602649D01*
X100252800Y-113682151D01*
X100268310Y-113760126D01*
X100298734Y-113833576D01*
X100342903Y-113899680D01*
X100399120Y-113955897D01*
X100465224Y-114000066D01*
X100538674Y-114030490D01*
X100616649Y-114046000D01*
X100696151Y-114046000D01*
X100774126Y-114030490D01*
X100847576Y-114000066D01*
X100913680Y-113955897D01*
X100969897Y-113899680D01*
X101014066Y-113833576D01*
X101044490Y-113760126D01*
X101060000Y-113682151D01*
X101060000Y-113602649D01*
X101047593Y-113540276D01*
X101116674Y-113568890D01*
X101194649Y-113584400D01*
X101274151Y-113584400D01*
X101352126Y-113568890D01*
X101425576Y-113538466D01*
X101491680Y-113494297D01*
X101547897Y-113438080D01*
X101592066Y-113371976D01*
X101622490Y-113298526D01*
X101638000Y-113220551D01*
X101638000Y-113141049D01*
X101622490Y-113063074D01*
X101592066Y-112989624D01*
X101547897Y-112923520D01*
X101491680Y-112867303D01*
X101425576Y-112823134D01*
X101352126Y-112792710D01*
X101274151Y-112777200D01*
X101194649Y-112777200D01*
X101116674Y-112792710D01*
X101043224Y-112823134D01*
X100977120Y-112867303D01*
X100920903Y-112923520D01*
X100876734Y-112989624D01*
X100846310Y-113063074D01*
X100830800Y-113141049D01*
X100830800Y-113220551D01*
X100843207Y-113282924D01*
X100774126Y-113254310D01*
X100696151Y-113238800D01*
X100616649Y-113238800D01*
X100538674Y-113254310D01*
X100465224Y-113284734D01*
X100399120Y-113328903D01*
X100342903Y-113385120D01*
X100298734Y-113451224D01*
X100268310Y-113524674D01*
X100252800Y-113602649D01*
X99076200Y-113602649D01*
X99076200Y-112141049D01*
X102330800Y-112141049D01*
X102330800Y-112220551D01*
X102346310Y-112298526D01*
X102376734Y-112371976D01*
X102420903Y-112438080D01*
X102477120Y-112494297D01*
X102543224Y-112538466D01*
X102616674Y-112568890D01*
X102694649Y-112584400D01*
X102774151Y-112584400D01*
X102852126Y-112568890D01*
X102925576Y-112538466D01*
X102984400Y-112499161D01*
X103043224Y-112538466D01*
X103116674Y-112568890D01*
X103194649Y-112584400D01*
X103274151Y-112584400D01*
X103352126Y-112568890D01*
X103425576Y-112538466D01*
X103491680Y-112494297D01*
X103547897Y-112438080D01*
X103592066Y-112371976D01*
X103622490Y-112298526D01*
X103638000Y-112220551D01*
X103638000Y-112141049D01*
X103623934Y-112070334D01*
X103694649Y-112084400D01*
X103774151Y-112084400D01*
X103852126Y-112068890D01*
X103925576Y-112038466D01*
X103991680Y-111994297D01*
X104003872Y-111982105D01*
X104055066Y-112016311D01*
X104123966Y-112044851D01*
X104197111Y-112059400D01*
X104271689Y-112059400D01*
X104344834Y-112044851D01*
X104413734Y-112016311D01*
X104464928Y-111982105D01*
X104477120Y-111994297D01*
X104543224Y-112038466D01*
X104616674Y-112068890D01*
X104694649Y-112084400D01*
X104774151Y-112084400D01*
X104844866Y-112070334D01*
X104830800Y-112141049D01*
X104830800Y-112220551D01*
X104846310Y-112298526D01*
X104876734Y-112371976D01*
X104920903Y-112438080D01*
X104977120Y-112494297D01*
X105043224Y-112538466D01*
X105116674Y-112568890D01*
X105194649Y-112584400D01*
X105274151Y-112584400D01*
X105352126Y-112568890D01*
X105425576Y-112538466D01*
X105491680Y-112494297D01*
X105547897Y-112438080D01*
X105592066Y-112371976D01*
X105622490Y-112298526D01*
X105638000Y-112220551D01*
X105638000Y-112141049D01*
X105830800Y-112141049D01*
X105830800Y-112220551D01*
X105846310Y-112298526D01*
X105876734Y-112371976D01*
X105920903Y-112438080D01*
X105977120Y-112494297D01*
X106043224Y-112538466D01*
X106116674Y-112568890D01*
X106194649Y-112584400D01*
X106274151Y-112584400D01*
X106352126Y-112568890D01*
X106425576Y-112538466D01*
X106491680Y-112494297D01*
X106547897Y-112438080D01*
X106592066Y-112371976D01*
X106622490Y-112298526D01*
X106638000Y-112220551D01*
X106638000Y-112141049D01*
X106622490Y-112063074D01*
X106592066Y-111989624D01*
X106547897Y-111923520D01*
X106491680Y-111867303D01*
X106425576Y-111823134D01*
X106352126Y-111792710D01*
X106274151Y-111777200D01*
X106194649Y-111777200D01*
X106116674Y-111792710D01*
X106043224Y-111823134D01*
X105977120Y-111867303D01*
X105920903Y-111923520D01*
X105876734Y-111989624D01*
X105846310Y-112063074D01*
X105830800Y-112141049D01*
X105638000Y-112141049D01*
X105622490Y-112063074D01*
X105592066Y-111989624D01*
X105552761Y-111930800D01*
X105592066Y-111871976D01*
X105622490Y-111798526D01*
X105638000Y-111720551D01*
X105638000Y-111641049D01*
X105622490Y-111563074D01*
X105592066Y-111489624D01*
X105547897Y-111423520D01*
X105491680Y-111367303D01*
X105425576Y-111323134D01*
X105352126Y-111292710D01*
X105274151Y-111277200D01*
X105194649Y-111277200D01*
X105116674Y-111292710D01*
X105043224Y-111323134D01*
X104984400Y-111362439D01*
X104925576Y-111323134D01*
X104852126Y-111292710D01*
X104774151Y-111277200D01*
X104694649Y-111277200D01*
X104616674Y-111292710D01*
X104543224Y-111323134D01*
X104477120Y-111367303D01*
X104464928Y-111379495D01*
X104413734Y-111345289D01*
X104344834Y-111316749D01*
X104271689Y-111302200D01*
X104197111Y-111302200D01*
X104123966Y-111316749D01*
X104055066Y-111345289D01*
X104003872Y-111379495D01*
X103991680Y-111367303D01*
X103925576Y-111323134D01*
X103852126Y-111292710D01*
X103774151Y-111277200D01*
X103694649Y-111277200D01*
X103616674Y-111292710D01*
X103543224Y-111323134D01*
X103477120Y-111367303D01*
X103420903Y-111423520D01*
X103376734Y-111489624D01*
X103346310Y-111563074D01*
X103330800Y-111641049D01*
X103330800Y-111720551D01*
X103344866Y-111791266D01*
X103274151Y-111777200D01*
X103194649Y-111777200D01*
X103116674Y-111792710D01*
X103043224Y-111823134D01*
X102984400Y-111862439D01*
X102925576Y-111823134D01*
X102852126Y-111792710D01*
X102774151Y-111777200D01*
X102694649Y-111777200D01*
X102616674Y-111792710D01*
X102543224Y-111823134D01*
X102477120Y-111867303D01*
X102420903Y-111923520D01*
X102376734Y-111989624D01*
X102346310Y-112063074D01*
X102330800Y-112141049D01*
X99076200Y-112141049D01*
X99076200Y-111581449D01*
X99370400Y-111581449D01*
X99370400Y-111660951D01*
X99385910Y-111738926D01*
X99416334Y-111812376D01*
X99460503Y-111878480D01*
X99516720Y-111934697D01*
X99582824Y-111978866D01*
X99656274Y-112009290D01*
X99734249Y-112024800D01*
X99813751Y-112024800D01*
X99891726Y-112009290D01*
X99965176Y-111978866D01*
X100031280Y-111934697D01*
X100087497Y-111878480D01*
X100131666Y-111812376D01*
X100162090Y-111738926D01*
X100177600Y-111660951D01*
X100177600Y-111581449D01*
X100162090Y-111503474D01*
X100131666Y-111430024D01*
X100087497Y-111363920D01*
X100031280Y-111307703D01*
X100018982Y-111299486D01*
X100056680Y-111274297D01*
X100112897Y-111218080D01*
X100157066Y-111151976D01*
X100187490Y-111078526D01*
X100203000Y-111000551D01*
X100203000Y-110921049D01*
X100187490Y-110843074D01*
X100157066Y-110769624D01*
X100112897Y-110703520D01*
X100056680Y-110647303D01*
X99990576Y-110603134D01*
X99917126Y-110572710D01*
X99839151Y-110557200D01*
X99759649Y-110557200D01*
X99681674Y-110572710D01*
X99608224Y-110603134D01*
X99542120Y-110647303D01*
X99485903Y-110703520D01*
X99441734Y-110769624D01*
X99411310Y-110843074D01*
X99395800Y-110921049D01*
X99395800Y-111000551D01*
X99411310Y-111078526D01*
X99441734Y-111151976D01*
X99485903Y-111218080D01*
X99542120Y-111274297D01*
X99554418Y-111282514D01*
X99516720Y-111307703D01*
X99460503Y-111363920D01*
X99416334Y-111430024D01*
X99385910Y-111503474D01*
X99370400Y-111581449D01*
X99076200Y-111581449D01*
X99076200Y-110260649D01*
X100919800Y-110260649D01*
X100919800Y-110340151D01*
X100935310Y-110418126D01*
X100965734Y-110491576D01*
X101009903Y-110557680D01*
X101066120Y-110613897D01*
X101091118Y-110630600D01*
X101066120Y-110647303D01*
X101009903Y-110703520D01*
X100965734Y-110769624D01*
X100935310Y-110843074D01*
X100919800Y-110921049D01*
X100919800Y-111000551D01*
X100935310Y-111078526D01*
X100965734Y-111151976D01*
X101009903Y-111218080D01*
X101066120Y-111274297D01*
X101132224Y-111318466D01*
X101205674Y-111348890D01*
X101283649Y-111364400D01*
X101363151Y-111364400D01*
X101441126Y-111348890D01*
X101514576Y-111318466D01*
X101580680Y-111274297D01*
X101636897Y-111218080D01*
X101681066Y-111151976D01*
X101711490Y-111078526D01*
X101727000Y-111000551D01*
X101727000Y-110921049D01*
X101711490Y-110843074D01*
X101681066Y-110769624D01*
X101636897Y-110703520D01*
X101580680Y-110647303D01*
X101555682Y-110630600D01*
X101580680Y-110613897D01*
X101636897Y-110557680D01*
X101681066Y-110491576D01*
X101686503Y-110478449D01*
X102869000Y-110478449D01*
X102869000Y-110557951D01*
X102884510Y-110635926D01*
X102914934Y-110709376D01*
X102959103Y-110775480D01*
X103015320Y-110831697D01*
X103081424Y-110875866D01*
X103154874Y-110906290D01*
X103232849Y-110921800D01*
X103312351Y-110921800D01*
X103390326Y-110906290D01*
X103463776Y-110875866D01*
X103529880Y-110831697D01*
X103586097Y-110775480D01*
X103630266Y-110709376D01*
X103660690Y-110635926D01*
X103675149Y-110563236D01*
X103690049Y-110566200D01*
X103769551Y-110566200D01*
X103847526Y-110550690D01*
X103920976Y-110520266D01*
X103987080Y-110476097D01*
X104043297Y-110419880D01*
X104087466Y-110353776D01*
X104117890Y-110280326D01*
X104133400Y-110202351D01*
X104133400Y-110122849D01*
X104123296Y-110072049D01*
X106450408Y-110072049D01*
X106450408Y-110151551D01*
X106465918Y-110229526D01*
X106496342Y-110302976D01*
X106540511Y-110369080D01*
X106596728Y-110425297D01*
X106662832Y-110469466D01*
X106736282Y-110499890D01*
X106814257Y-110515400D01*
X106893759Y-110515400D01*
X106971734Y-110499890D01*
X107045184Y-110469466D01*
X107111288Y-110425297D01*
X107138382Y-110398204D01*
X107146056Y-110405878D01*
X107208066Y-110447311D01*
X107276966Y-110475851D01*
X107350111Y-110490400D01*
X107424689Y-110490400D01*
X107497834Y-110475851D01*
X107566734Y-110447311D01*
X107628744Y-110405878D01*
X107681478Y-110353144D01*
X107722911Y-110291134D01*
X107751451Y-110222234D01*
X107766000Y-110149089D01*
X107766000Y-110074511D01*
X107751451Y-110001366D01*
X107722911Y-109932466D01*
X107681478Y-109870456D01*
X107628744Y-109817722D01*
X107566734Y-109776289D01*
X107497834Y-109747749D01*
X107424689Y-109733200D01*
X107350111Y-109733200D01*
X107276966Y-109747749D01*
X107208066Y-109776289D01*
X107146056Y-109817722D01*
X107138382Y-109825397D01*
X107111288Y-109798303D01*
X107045184Y-109754134D01*
X106971734Y-109723710D01*
X106893759Y-109708200D01*
X106814257Y-109708200D01*
X106736282Y-109723710D01*
X106662832Y-109754134D01*
X106596728Y-109798303D01*
X106540511Y-109854520D01*
X106496342Y-109920624D01*
X106465918Y-109994074D01*
X106450408Y-110072049D01*
X104123296Y-110072049D01*
X104117890Y-110044874D01*
X104087466Y-109971424D01*
X104043297Y-109905320D01*
X103987080Y-109849103D01*
X103920976Y-109804934D01*
X103847526Y-109774510D01*
X103769551Y-109759000D01*
X103690049Y-109759000D01*
X103612074Y-109774510D01*
X103538624Y-109804934D01*
X103472520Y-109849103D01*
X103416303Y-109905320D01*
X103372134Y-109971424D01*
X103341710Y-110044874D01*
X103327251Y-110117564D01*
X103312351Y-110114600D01*
X103232849Y-110114600D01*
X103154874Y-110130110D01*
X103081424Y-110160534D01*
X103015320Y-110204703D01*
X102959103Y-110260920D01*
X102914934Y-110327024D01*
X102884510Y-110400474D01*
X102869000Y-110478449D01*
X101686503Y-110478449D01*
X101711490Y-110418126D01*
X101727000Y-110340151D01*
X101727000Y-110260649D01*
X101711490Y-110182674D01*
X101681066Y-110109224D01*
X101636897Y-110043120D01*
X101580680Y-109986903D01*
X101514576Y-109942734D01*
X101441126Y-109912310D01*
X101363151Y-109896800D01*
X101283649Y-109896800D01*
X101205674Y-109912310D01*
X101132224Y-109942734D01*
X101066120Y-109986903D01*
X101009903Y-110043120D01*
X100965734Y-110109224D01*
X100935310Y-110182674D01*
X100919800Y-110260649D01*
X99076200Y-110260649D01*
X99076200Y-109983652D01*
X99119024Y-110012266D01*
X99192474Y-110042690D01*
X99270449Y-110058200D01*
X99349951Y-110058200D01*
X99427926Y-110042690D01*
X99501376Y-110012266D01*
X99567480Y-109968097D01*
X99623697Y-109911880D01*
X99667866Y-109845776D01*
X99698290Y-109772326D01*
X99713800Y-109694351D01*
X99713800Y-109614849D01*
X99698290Y-109536874D01*
X99667866Y-109463424D01*
X99623697Y-109397320D01*
X99567480Y-109341103D01*
X99501376Y-109296934D01*
X99427926Y-109266510D01*
X99349951Y-109251000D01*
X99270449Y-109251000D01*
X99192474Y-109266510D01*
X99119024Y-109296934D01*
X99076200Y-109325548D01*
X99076200Y-108826200D01*
X107988146Y-108826200D01*
X107996444Y-108846740D01*
G36*
X120423800Y-110978362D02*
G01*
X120357526Y-110950910D01*
X120279551Y-110935400D01*
X120200049Y-110935400D01*
X120122074Y-110950910D01*
X120048624Y-110981334D01*
X119982520Y-111025503D01*
X119926303Y-111081720D01*
X119882134Y-111147824D01*
X119851710Y-111221274D01*
X119836200Y-111299249D01*
X119836200Y-111378751D01*
X119845161Y-111423800D01*
X116576200Y-111423800D01*
X116576200Y-110334049D01*
X116834600Y-110334049D01*
X116834600Y-110413551D01*
X116850110Y-110491526D01*
X116880534Y-110564976D01*
X116924703Y-110631080D01*
X116980920Y-110687297D01*
X117047024Y-110731466D01*
X117120474Y-110761890D01*
X117198449Y-110777400D01*
X117277951Y-110777400D01*
X117355926Y-110761890D01*
X117429376Y-110731466D01*
X117495480Y-110687297D01*
X117507100Y-110675677D01*
X117544120Y-110712697D01*
X117610224Y-110756866D01*
X117683674Y-110787290D01*
X117761649Y-110802800D01*
X117841151Y-110802800D01*
X117919126Y-110787290D01*
X117992576Y-110756866D01*
X118041169Y-110724398D01*
X118046703Y-110732680D01*
X118102920Y-110788897D01*
X118169024Y-110833066D01*
X118242474Y-110863490D01*
X118320449Y-110879000D01*
X118399951Y-110879000D01*
X118477926Y-110863490D01*
X118551376Y-110833066D01*
X118599969Y-110800598D01*
X118605503Y-110808880D01*
X118661720Y-110865097D01*
X118727824Y-110909266D01*
X118801274Y-110939690D01*
X118879249Y-110955200D01*
X118958751Y-110955200D01*
X119036726Y-110939690D01*
X119110176Y-110909266D01*
X119176280Y-110865097D01*
X119232497Y-110808880D01*
X119276666Y-110742776D01*
X119280401Y-110733758D01*
X119291307Y-110750080D01*
X119347524Y-110806297D01*
X119413628Y-110850466D01*
X119487078Y-110880890D01*
X119565053Y-110896400D01*
X119644555Y-110896400D01*
X119722530Y-110880890D01*
X119795980Y-110850466D01*
X119862084Y-110806297D01*
X119918301Y-110750080D01*
X119962470Y-110683976D01*
X119992894Y-110610526D01*
X120008404Y-110532551D01*
X120008404Y-110453049D01*
X119992894Y-110375074D01*
X119962470Y-110301624D01*
X119918301Y-110235520D01*
X119862084Y-110179303D01*
X119795980Y-110135134D01*
X119722530Y-110104710D01*
X119644555Y-110089200D01*
X119565053Y-110089200D01*
X119487078Y-110104710D01*
X119413628Y-110135134D01*
X119347524Y-110179303D01*
X119291307Y-110235520D01*
X119247138Y-110301624D01*
X119243403Y-110310642D01*
X119232497Y-110294320D01*
X119176280Y-110238103D01*
X119110176Y-110193934D01*
X119036726Y-110163510D01*
X118958751Y-110148000D01*
X118879249Y-110148000D01*
X118801274Y-110163510D01*
X118727824Y-110193934D01*
X118679231Y-110226402D01*
X118673697Y-110218120D01*
X118617480Y-110161903D01*
X118551376Y-110117734D01*
X118477926Y-110087310D01*
X118399951Y-110071800D01*
X118320449Y-110071800D01*
X118242474Y-110087310D01*
X118169024Y-110117734D01*
X118120431Y-110150202D01*
X118114897Y-110141920D01*
X118058680Y-110085703D01*
X117992576Y-110041534D01*
X117919126Y-110011110D01*
X117841151Y-109995600D01*
X117761649Y-109995600D01*
X117683674Y-110011110D01*
X117610224Y-110041534D01*
X117544120Y-110085703D01*
X117532500Y-110097323D01*
X117495480Y-110060303D01*
X117429376Y-110016134D01*
X117355926Y-109985710D01*
X117277951Y-109970200D01*
X117198449Y-109970200D01*
X117120474Y-109985710D01*
X117047024Y-110016134D01*
X116980920Y-110060303D01*
X116924703Y-110116520D01*
X116880534Y-110182624D01*
X116850110Y-110256074D01*
X116834600Y-110334049D01*
X116576200Y-110334049D01*
X116576200Y-109826200D01*
X120423800Y-109826200D01*
X120423800Y-110978362D01*
G37*
X120423800Y-110978362D02*
X120357526Y-110950910D01*
X120279551Y-110935400D01*
X120200049Y-110935400D01*
X120122074Y-110950910D01*
X120048624Y-110981334D01*
X119982520Y-111025503D01*
X119926303Y-111081720D01*
X119882134Y-111147824D01*
X119851710Y-111221274D01*
X119836200Y-111299249D01*
X119836200Y-111378751D01*
X119845161Y-111423800D01*
X116576200Y-111423800D01*
X116576200Y-110334049D01*
X116834600Y-110334049D01*
X116834600Y-110413551D01*
X116850110Y-110491526D01*
X116880534Y-110564976D01*
X116924703Y-110631080D01*
X116980920Y-110687297D01*
X117047024Y-110731466D01*
X117120474Y-110761890D01*
X117198449Y-110777400D01*
X117277951Y-110777400D01*
X117355926Y-110761890D01*
X117429376Y-110731466D01*
X117495480Y-110687297D01*
X117507100Y-110675677D01*
X117544120Y-110712697D01*
X117610224Y-110756866D01*
X117683674Y-110787290D01*
X117761649Y-110802800D01*
X117841151Y-110802800D01*
X117919126Y-110787290D01*
X117992576Y-110756866D01*
X118041169Y-110724398D01*
X118046703Y-110732680D01*
X118102920Y-110788897D01*
X118169024Y-110833066D01*
X118242474Y-110863490D01*
X118320449Y-110879000D01*
X118399951Y-110879000D01*
X118477926Y-110863490D01*
X118551376Y-110833066D01*
X118599969Y-110800598D01*
X118605503Y-110808880D01*
X118661720Y-110865097D01*
X118727824Y-110909266D01*
X118801274Y-110939690D01*
X118879249Y-110955200D01*
X118958751Y-110955200D01*
X119036726Y-110939690D01*
X119110176Y-110909266D01*
X119176280Y-110865097D01*
X119232497Y-110808880D01*
X119276666Y-110742776D01*
X119280401Y-110733758D01*
X119291307Y-110750080D01*
X119347524Y-110806297D01*
X119413628Y-110850466D01*
X119487078Y-110880890D01*
X119565053Y-110896400D01*
X119644555Y-110896400D01*
X119722530Y-110880890D01*
X119795980Y-110850466D01*
X119862084Y-110806297D01*
X119918301Y-110750080D01*
X119962470Y-110683976D01*
X119992894Y-110610526D01*
X120008404Y-110532551D01*
X120008404Y-110453049D01*
X119992894Y-110375074D01*
X119962470Y-110301624D01*
X119918301Y-110235520D01*
X119862084Y-110179303D01*
X119795980Y-110135134D01*
X119722530Y-110104710D01*
X119644555Y-110089200D01*
X119565053Y-110089200D01*
X119487078Y-110104710D01*
X119413628Y-110135134D01*
X119347524Y-110179303D01*
X119291307Y-110235520D01*
X119247138Y-110301624D01*
X119243403Y-110310642D01*
X119232497Y-110294320D01*
X119176280Y-110238103D01*
X119110176Y-110193934D01*
X119036726Y-110163510D01*
X118958751Y-110148000D01*
X118879249Y-110148000D01*
X118801274Y-110163510D01*
X118727824Y-110193934D01*
X118679231Y-110226402D01*
X118673697Y-110218120D01*
X118617480Y-110161903D01*
X118551376Y-110117734D01*
X118477926Y-110087310D01*
X118399951Y-110071800D01*
X118320449Y-110071800D01*
X118242474Y-110087310D01*
X118169024Y-110117734D01*
X118120431Y-110150202D01*
X118114897Y-110141920D01*
X118058680Y-110085703D01*
X117992576Y-110041534D01*
X117919126Y-110011110D01*
X117841151Y-109995600D01*
X117761649Y-109995600D01*
X117683674Y-110011110D01*
X117610224Y-110041534D01*
X117544120Y-110085703D01*
X117532500Y-110097323D01*
X117495480Y-110060303D01*
X117429376Y-110016134D01*
X117355926Y-109985710D01*
X117277951Y-109970200D01*
X117198449Y-109970200D01*
X117120474Y-109985710D01*
X117047024Y-110016134D01*
X116980920Y-110060303D01*
X116924703Y-110116520D01*
X116880534Y-110182624D01*
X116850110Y-110256074D01*
X116834600Y-110334049D01*
X116576200Y-110334049D01*
X116576200Y-109826200D01*
X120423800Y-109826200D01*
X120423800Y-110978362D01*
M02*
