G04 #@! TF.GenerationSoftware,KiCad,Pcbnew,(5.1.0)-1*
G04 #@! TF.CreationDate,2019-05-03T22:13:54-07:00*
G04 #@! TF.ProjectId,Miniscope-v4-FlexPC,4d696e69-7363-46f7-9065-2d76342d466c,rev?*
G04 #@! TF.SameCoordinates,PXff95b0PYe11130*
G04 #@! TF.FileFunction,Soldermask,Bot*
G04 #@! TF.FilePolarity,Negative*
%FSLAX46Y46*%
G04 Gerber Fmt 4.6, Leading zero omitted, Abs format (unit mm)*
G04 Created by KiCad (PCBNEW (5.1.0)-1) date 2019-05-03 22:13:54*
%MOMM*%
%LPD*%
G04 APERTURE LIST*
%ADD10C,0.100000*%
G04 APERTURE END LIST*
D10*
G36*
X24617804Y-13350380D02*
G01*
X24673310Y-13373371D01*
X24673312Y-13373372D01*
X24698459Y-13390175D01*
X24723265Y-13406750D01*
X24765750Y-13449235D01*
X24799129Y-13499190D01*
X24822120Y-13554696D01*
X24833840Y-13613618D01*
X24833840Y-13673702D01*
X24822120Y-13732624D01*
X24805005Y-13773944D01*
X24799128Y-13788132D01*
X24795951Y-13792886D01*
X24765844Y-13837945D01*
X24765749Y-13838086D01*
X24723266Y-13880569D01*
X24673312Y-13913948D01*
X24673311Y-13913949D01*
X24673310Y-13913949D01*
X24617804Y-13936940D01*
X24558882Y-13948660D01*
X24498798Y-13948660D01*
X24439878Y-13936941D01*
X24386405Y-13914792D01*
X24362956Y-13907680D01*
X24338570Y-13905278D01*
X24314184Y-13907680D01*
X24290735Y-13914794D01*
X24269124Y-13926345D01*
X24250182Y-13941890D01*
X24234637Y-13960832D01*
X24223086Y-13982443D01*
X24215974Y-14005892D01*
X24213572Y-14030278D01*
X24215974Y-14054663D01*
X24224240Y-14096218D01*
X24224240Y-14156300D01*
X24215974Y-14197857D01*
X24213572Y-14222244D01*
X24215974Y-14246630D01*
X24223087Y-14270079D01*
X24234638Y-14291689D01*
X24250184Y-14310631D01*
X24269126Y-14326176D01*
X24290737Y-14337727D01*
X24314185Y-14344840D01*
X24338572Y-14347242D01*
X24362958Y-14344840D01*
X24386406Y-14337727D01*
X24439876Y-14315579D01*
X24498798Y-14303859D01*
X24558882Y-14303859D01*
X24617804Y-14315579D01*
X24673310Y-14338570D01*
X24673312Y-14338571D01*
X24682694Y-14344840D01*
X24723265Y-14371949D01*
X24765750Y-14414434D01*
X24799129Y-14464389D01*
X24822120Y-14519895D01*
X24833840Y-14578817D01*
X24833840Y-14638901D01*
X24822120Y-14697823D01*
X24799129Y-14753329D01*
X24769162Y-14798178D01*
X24765749Y-14803285D01*
X24723266Y-14845768D01*
X24673312Y-14879147D01*
X24673311Y-14879148D01*
X24673310Y-14879148D01*
X24617804Y-14902139D01*
X24558882Y-14913859D01*
X24498798Y-14913859D01*
X24439878Y-14902140D01*
X24386405Y-14879991D01*
X24362956Y-14872879D01*
X24338570Y-14870477D01*
X24314184Y-14872879D01*
X24290735Y-14879993D01*
X24269124Y-14891544D01*
X24250182Y-14907089D01*
X24234637Y-14926031D01*
X24223086Y-14947642D01*
X24215974Y-14971091D01*
X24213572Y-14995477D01*
X24215974Y-15019862D01*
X24224240Y-15061417D01*
X24224240Y-15121499D01*
X24215974Y-15163056D01*
X24213572Y-15187443D01*
X24215974Y-15211829D01*
X24223087Y-15235278D01*
X24234638Y-15256888D01*
X24250184Y-15275830D01*
X24269126Y-15291375D01*
X24290737Y-15302926D01*
X24314185Y-15310039D01*
X24338572Y-15312441D01*
X24362958Y-15310039D01*
X24386406Y-15302926D01*
X24439876Y-15280778D01*
X24498798Y-15269058D01*
X24558882Y-15269058D01*
X24617804Y-15280778D01*
X24673310Y-15303769D01*
X24673312Y-15303770D01*
X24682694Y-15310039D01*
X24723265Y-15337148D01*
X24765750Y-15379633D01*
X24799129Y-15429588D01*
X24822120Y-15485094D01*
X24833840Y-15544016D01*
X24833840Y-15604100D01*
X24822120Y-15663022D01*
X24799129Y-15718528D01*
X24769162Y-15763377D01*
X24765749Y-15768484D01*
X24723266Y-15810967D01*
X24673312Y-15844346D01*
X24673311Y-15844347D01*
X24673310Y-15844347D01*
X24617804Y-15867338D01*
X24558882Y-15879058D01*
X24498798Y-15879058D01*
X24439878Y-15867339D01*
X24386405Y-15845190D01*
X24362956Y-15838078D01*
X24338570Y-15835676D01*
X24314184Y-15838078D01*
X24290735Y-15845192D01*
X24269124Y-15856743D01*
X24250182Y-15872288D01*
X24234637Y-15891230D01*
X24223086Y-15912841D01*
X24215974Y-15936290D01*
X24213572Y-15960676D01*
X24215974Y-15985061D01*
X24224240Y-16026616D01*
X24224240Y-16086698D01*
X24215974Y-16128255D01*
X24213572Y-16152642D01*
X24215974Y-16177028D01*
X24223087Y-16200477D01*
X24234638Y-16222087D01*
X24250184Y-16241029D01*
X24269126Y-16256574D01*
X24290737Y-16268125D01*
X24314185Y-16275238D01*
X24338572Y-16277640D01*
X24362958Y-16275238D01*
X24386406Y-16268125D01*
X24439876Y-16245977D01*
X24498798Y-16234257D01*
X24558882Y-16234257D01*
X24617804Y-16245977D01*
X24673310Y-16268968D01*
X24673312Y-16268969D01*
X24682694Y-16275238D01*
X24723265Y-16302347D01*
X24765750Y-16344832D01*
X24799129Y-16394787D01*
X24822120Y-16450293D01*
X24833840Y-16509215D01*
X24833840Y-16569299D01*
X24822120Y-16628221D01*
X24799129Y-16683727D01*
X24769162Y-16728576D01*
X24765749Y-16733683D01*
X24723266Y-16776166D01*
X24673312Y-16809545D01*
X24673311Y-16809546D01*
X24673310Y-16809546D01*
X24617804Y-16832537D01*
X24558882Y-16844257D01*
X24498798Y-16844257D01*
X24439878Y-16832538D01*
X24386405Y-16810389D01*
X24362956Y-16803277D01*
X24338570Y-16800875D01*
X24314184Y-16803277D01*
X24290735Y-16810391D01*
X24269124Y-16821942D01*
X24250182Y-16837487D01*
X24234637Y-16856429D01*
X24223086Y-16878040D01*
X24215974Y-16901489D01*
X24213572Y-16925875D01*
X24215974Y-16950260D01*
X24224240Y-16991815D01*
X24224240Y-17051897D01*
X24215974Y-17093454D01*
X24213572Y-17117841D01*
X24215974Y-17142227D01*
X24223087Y-17165676D01*
X24234638Y-17187286D01*
X24250184Y-17206228D01*
X24269126Y-17221773D01*
X24290737Y-17233324D01*
X24314185Y-17240437D01*
X24338572Y-17242839D01*
X24362958Y-17240437D01*
X24386406Y-17233324D01*
X24439876Y-17211176D01*
X24498798Y-17199456D01*
X24558882Y-17199456D01*
X24617804Y-17211176D01*
X24673310Y-17234167D01*
X24673312Y-17234168D01*
X24682694Y-17240437D01*
X24723265Y-17267546D01*
X24765750Y-17310031D01*
X24799129Y-17359986D01*
X24822120Y-17415492D01*
X24833840Y-17474414D01*
X24833840Y-17534498D01*
X24822120Y-17593420D01*
X24799129Y-17648926D01*
X24769162Y-17693775D01*
X24765749Y-17698882D01*
X24723266Y-17741365D01*
X24673312Y-17774744D01*
X24673311Y-17774745D01*
X24673310Y-17774745D01*
X24617804Y-17797736D01*
X24558882Y-17809456D01*
X24498798Y-17809456D01*
X24439878Y-17797737D01*
X24386405Y-17775588D01*
X24362956Y-17768476D01*
X24338570Y-17766074D01*
X24314184Y-17768476D01*
X24290735Y-17775590D01*
X24269124Y-17787141D01*
X24250182Y-17802686D01*
X24234637Y-17821628D01*
X24223086Y-17843239D01*
X24215974Y-17866688D01*
X24213572Y-17891074D01*
X24215974Y-17915459D01*
X24224240Y-17957014D01*
X24224240Y-18017096D01*
X24215974Y-18058653D01*
X24213572Y-18083040D01*
X24215974Y-18107426D01*
X24223087Y-18130875D01*
X24234638Y-18152485D01*
X24250184Y-18171427D01*
X24269126Y-18186972D01*
X24290737Y-18198523D01*
X24314185Y-18205636D01*
X24338572Y-18208038D01*
X24362958Y-18205636D01*
X24386406Y-18198523D01*
X24439876Y-18176375D01*
X24498798Y-18164655D01*
X24558882Y-18164655D01*
X24617804Y-18176375D01*
X24673310Y-18199366D01*
X24673312Y-18199367D01*
X24682694Y-18205636D01*
X24723265Y-18232745D01*
X24765750Y-18275230D01*
X24799129Y-18325185D01*
X24822120Y-18380691D01*
X24833840Y-18439613D01*
X24833840Y-18499697D01*
X24822120Y-18558619D01*
X24799129Y-18614125D01*
X24769162Y-18658974D01*
X24765749Y-18664081D01*
X24723266Y-18706564D01*
X24673312Y-18739943D01*
X24673311Y-18739944D01*
X24673310Y-18739944D01*
X24617804Y-18762935D01*
X24558882Y-18774655D01*
X24498798Y-18774655D01*
X24439878Y-18762936D01*
X24386405Y-18740787D01*
X24362956Y-18733675D01*
X24338570Y-18731273D01*
X24314184Y-18733675D01*
X24290735Y-18740789D01*
X24269124Y-18752340D01*
X24250182Y-18767885D01*
X24234637Y-18786827D01*
X24223086Y-18808438D01*
X24215974Y-18831887D01*
X24213572Y-18856273D01*
X24215974Y-18880658D01*
X24224240Y-18922213D01*
X24224240Y-18982295D01*
X24215974Y-19023852D01*
X24213572Y-19048239D01*
X24215974Y-19072625D01*
X24223087Y-19096074D01*
X24234638Y-19117684D01*
X24250184Y-19136626D01*
X24269126Y-19152171D01*
X24290737Y-19163722D01*
X24314185Y-19170835D01*
X24338572Y-19173237D01*
X24362958Y-19170835D01*
X24386406Y-19163722D01*
X24439876Y-19141574D01*
X24498798Y-19129854D01*
X24558882Y-19129854D01*
X24617804Y-19141574D01*
X24673310Y-19164565D01*
X24673312Y-19164566D01*
X24682694Y-19170835D01*
X24723265Y-19197944D01*
X24765750Y-19240429D01*
X24799129Y-19290384D01*
X24822120Y-19345890D01*
X24833840Y-19404812D01*
X24833840Y-19464896D01*
X24822120Y-19523818D01*
X24799129Y-19579324D01*
X24769162Y-19624173D01*
X24765749Y-19629280D01*
X24723266Y-19671763D01*
X24673312Y-19705142D01*
X24673311Y-19705143D01*
X24673310Y-19705143D01*
X24617804Y-19728134D01*
X24558882Y-19739854D01*
X24498798Y-19739854D01*
X24439878Y-19728135D01*
X24386405Y-19705986D01*
X24362956Y-19698874D01*
X24338570Y-19696472D01*
X24314184Y-19698874D01*
X24290735Y-19705988D01*
X24269124Y-19717539D01*
X24250182Y-19733084D01*
X24234637Y-19752026D01*
X24223086Y-19773637D01*
X24215974Y-19797086D01*
X24213572Y-19821472D01*
X24215974Y-19845857D01*
X24224240Y-19887412D01*
X24224240Y-19947494D01*
X24215974Y-19989051D01*
X24213572Y-20013438D01*
X24215974Y-20037824D01*
X24223087Y-20061273D01*
X24234638Y-20082883D01*
X24250184Y-20101825D01*
X24269126Y-20117370D01*
X24290737Y-20128921D01*
X24314185Y-20136034D01*
X24338572Y-20138436D01*
X24362958Y-20136034D01*
X24386406Y-20128921D01*
X24439876Y-20106773D01*
X24498798Y-20095053D01*
X24558882Y-20095053D01*
X24617804Y-20106773D01*
X24673310Y-20129764D01*
X24673312Y-20129765D01*
X24682694Y-20136034D01*
X24723265Y-20163143D01*
X24765750Y-20205628D01*
X24799129Y-20255583D01*
X24822120Y-20311089D01*
X24833840Y-20370011D01*
X24833840Y-20430095D01*
X24822120Y-20489017D01*
X24799129Y-20544523D01*
X24769162Y-20589372D01*
X24765749Y-20594479D01*
X24723266Y-20636962D01*
X24673312Y-20670341D01*
X24673311Y-20670342D01*
X24673310Y-20670342D01*
X24617804Y-20693333D01*
X24558882Y-20705053D01*
X24498798Y-20705053D01*
X24439878Y-20693334D01*
X24386405Y-20671185D01*
X24362956Y-20664073D01*
X24338570Y-20661671D01*
X24314184Y-20664073D01*
X24290735Y-20671187D01*
X24269124Y-20682738D01*
X24250182Y-20698283D01*
X24234637Y-20717225D01*
X24223086Y-20738836D01*
X24215974Y-20762285D01*
X24213572Y-20786671D01*
X24215974Y-20811056D01*
X24224240Y-20852611D01*
X24224240Y-20912693D01*
X24215974Y-20954250D01*
X24213572Y-20978637D01*
X24215974Y-21003023D01*
X24223087Y-21026472D01*
X24234638Y-21048082D01*
X24250184Y-21067024D01*
X24269126Y-21082569D01*
X24290737Y-21094120D01*
X24314185Y-21101233D01*
X24338572Y-21103635D01*
X24362958Y-21101233D01*
X24386406Y-21094120D01*
X24439876Y-21071972D01*
X24498798Y-21060252D01*
X24558882Y-21060252D01*
X24617804Y-21071972D01*
X24673310Y-21094963D01*
X24673312Y-21094964D01*
X24682694Y-21101233D01*
X24723265Y-21128342D01*
X24765750Y-21170827D01*
X24799129Y-21220782D01*
X24822120Y-21276288D01*
X24833840Y-21335210D01*
X24833840Y-21395294D01*
X24822120Y-21454216D01*
X24799129Y-21509722D01*
X24769162Y-21554571D01*
X24765749Y-21559678D01*
X24723266Y-21602161D01*
X24673312Y-21635540D01*
X24673311Y-21635541D01*
X24673310Y-21635541D01*
X24617804Y-21658532D01*
X24558882Y-21670252D01*
X24498798Y-21670252D01*
X24439878Y-21658533D01*
X24386405Y-21636384D01*
X24362956Y-21629272D01*
X24338570Y-21626870D01*
X24314184Y-21629272D01*
X24290735Y-21636386D01*
X24269124Y-21647937D01*
X24250182Y-21663482D01*
X24234637Y-21682424D01*
X24223086Y-21704035D01*
X24215974Y-21727484D01*
X24213572Y-21751870D01*
X24215974Y-21776255D01*
X24224240Y-21817810D01*
X24224240Y-21877892D01*
X24215974Y-21919449D01*
X24213572Y-21943836D01*
X24215974Y-21968222D01*
X24223087Y-21991671D01*
X24234638Y-22013281D01*
X24250184Y-22032223D01*
X24269126Y-22047768D01*
X24290737Y-22059319D01*
X24314185Y-22066432D01*
X24338572Y-22068834D01*
X24362958Y-22066432D01*
X24386406Y-22059319D01*
X24439876Y-22037171D01*
X24498798Y-22025451D01*
X24558882Y-22025451D01*
X24617804Y-22037171D01*
X24673310Y-22060162D01*
X24673312Y-22060163D01*
X24682694Y-22066432D01*
X24723265Y-22093541D01*
X24765750Y-22136026D01*
X24799129Y-22185981D01*
X24822120Y-22241487D01*
X24833840Y-22300409D01*
X24833840Y-22360493D01*
X24822120Y-22419415D01*
X24799129Y-22474921D01*
X24769162Y-22519770D01*
X24765749Y-22524877D01*
X24723266Y-22567360D01*
X24673312Y-22600739D01*
X24673311Y-22600740D01*
X24673310Y-22600740D01*
X24617804Y-22623731D01*
X24558882Y-22635451D01*
X24498798Y-22635451D01*
X24439878Y-22623732D01*
X24386405Y-22601583D01*
X24362956Y-22594471D01*
X24338570Y-22592069D01*
X24314184Y-22594471D01*
X24290735Y-22601585D01*
X24269124Y-22613136D01*
X24250182Y-22628681D01*
X24234637Y-22647623D01*
X24223086Y-22669234D01*
X24215974Y-22692683D01*
X24213572Y-22717069D01*
X24215974Y-22741454D01*
X24224240Y-22783009D01*
X24224240Y-22843092D01*
X24212520Y-22902014D01*
X24189529Y-22957520D01*
X24189528Y-22957522D01*
X24156149Y-23007476D01*
X24113666Y-23049959D01*
X24063712Y-23083338D01*
X24063711Y-23083339D01*
X24063710Y-23083339D01*
X24008204Y-23106330D01*
X23949282Y-23118050D01*
X23889198Y-23118050D01*
X23830276Y-23106330D01*
X23774770Y-23083339D01*
X23774769Y-23083339D01*
X23774768Y-23083338D01*
X23724814Y-23049959D01*
X23682331Y-23007476D01*
X23648952Y-22957522D01*
X23648951Y-22957520D01*
X23625960Y-22902014D01*
X23614240Y-22843092D01*
X23614240Y-22783008D01*
X23625960Y-22724086D01*
X23648951Y-22668580D01*
X23682330Y-22618625D01*
X23724815Y-22576140D01*
X23765388Y-22549030D01*
X23774768Y-22542762D01*
X23774770Y-22542761D01*
X23830276Y-22519770D01*
X23889198Y-22508050D01*
X23949282Y-22508050D01*
X24008202Y-22519769D01*
X24061675Y-22541918D01*
X24085124Y-22549030D01*
X24109510Y-22551432D01*
X24133896Y-22549030D01*
X24157345Y-22541916D01*
X24178956Y-22530365D01*
X24197898Y-22514820D01*
X24213443Y-22495878D01*
X24224994Y-22474267D01*
X24232106Y-22450818D01*
X24234508Y-22426432D01*
X24232106Y-22402047D01*
X24223840Y-22360492D01*
X24223840Y-22300410D01*
X24232106Y-22258853D01*
X24234508Y-22234466D01*
X24232106Y-22210080D01*
X24224993Y-22186631D01*
X24213442Y-22165021D01*
X24197896Y-22146079D01*
X24178954Y-22130534D01*
X24157343Y-22118983D01*
X24133895Y-22111870D01*
X24109508Y-22109468D01*
X24085122Y-22111870D01*
X24061674Y-22118983D01*
X24008204Y-22141131D01*
X23949282Y-22152851D01*
X23889198Y-22152851D01*
X23830276Y-22141131D01*
X23774770Y-22118140D01*
X23774769Y-22118140D01*
X23774768Y-22118139D01*
X23724814Y-22084760D01*
X23682331Y-22042277D01*
X23648952Y-21992323D01*
X23638969Y-21968222D01*
X23625960Y-21936815D01*
X23614240Y-21877893D01*
X23614240Y-21817809D01*
X23625960Y-21758887D01*
X23648951Y-21703381D01*
X23682330Y-21653426D01*
X23724815Y-21610941D01*
X23765388Y-21583831D01*
X23774768Y-21577563D01*
X23774770Y-21577562D01*
X23830276Y-21554571D01*
X23889198Y-21542851D01*
X23949282Y-21542851D01*
X24008202Y-21554570D01*
X24061675Y-21576719D01*
X24085124Y-21583831D01*
X24109510Y-21586233D01*
X24133896Y-21583831D01*
X24157345Y-21576717D01*
X24178956Y-21565166D01*
X24197898Y-21549621D01*
X24213443Y-21530679D01*
X24224994Y-21509068D01*
X24232106Y-21485619D01*
X24234508Y-21461233D01*
X24232106Y-21436848D01*
X24223840Y-21395293D01*
X24223840Y-21335211D01*
X24232106Y-21293654D01*
X24234508Y-21269267D01*
X24232106Y-21244881D01*
X24224993Y-21221432D01*
X24213442Y-21199822D01*
X24197896Y-21180880D01*
X24178954Y-21165335D01*
X24157343Y-21153784D01*
X24133895Y-21146671D01*
X24109508Y-21144269D01*
X24085122Y-21146671D01*
X24061674Y-21153784D01*
X24008204Y-21175932D01*
X23949282Y-21187652D01*
X23889198Y-21187652D01*
X23830276Y-21175932D01*
X23774770Y-21152941D01*
X23774769Y-21152941D01*
X23774768Y-21152940D01*
X23724814Y-21119561D01*
X23682331Y-21077078D01*
X23648952Y-21027124D01*
X23638969Y-21003023D01*
X23625960Y-20971616D01*
X23614240Y-20912694D01*
X23614240Y-20852610D01*
X23625960Y-20793688D01*
X23648951Y-20738182D01*
X23682330Y-20688227D01*
X23724815Y-20645742D01*
X23765388Y-20618632D01*
X23774768Y-20612364D01*
X23774770Y-20612363D01*
X23830276Y-20589372D01*
X23889198Y-20577652D01*
X23949282Y-20577652D01*
X24008202Y-20589371D01*
X24061675Y-20611520D01*
X24085124Y-20618632D01*
X24109510Y-20621034D01*
X24133896Y-20618632D01*
X24157345Y-20611518D01*
X24178956Y-20599967D01*
X24197898Y-20584422D01*
X24213443Y-20565480D01*
X24224994Y-20543869D01*
X24232106Y-20520420D01*
X24234508Y-20496034D01*
X24232106Y-20471649D01*
X24223840Y-20430094D01*
X24223840Y-20370012D01*
X24232106Y-20328455D01*
X24234508Y-20304068D01*
X24232106Y-20279682D01*
X24224993Y-20256233D01*
X24213442Y-20234623D01*
X24197896Y-20215681D01*
X24178954Y-20200136D01*
X24157343Y-20188585D01*
X24133895Y-20181472D01*
X24109508Y-20179070D01*
X24085122Y-20181472D01*
X24061674Y-20188585D01*
X24008204Y-20210733D01*
X23949282Y-20222453D01*
X23889198Y-20222453D01*
X23830276Y-20210733D01*
X23774770Y-20187742D01*
X23774769Y-20187742D01*
X23774768Y-20187741D01*
X23724814Y-20154362D01*
X23682331Y-20111879D01*
X23648952Y-20061925D01*
X23638969Y-20037824D01*
X23625960Y-20006417D01*
X23614240Y-19947495D01*
X23614240Y-19887411D01*
X23625960Y-19828489D01*
X23648951Y-19772983D01*
X23682330Y-19723028D01*
X23724815Y-19680543D01*
X23765388Y-19653433D01*
X23774768Y-19647165D01*
X23774770Y-19647164D01*
X23830276Y-19624173D01*
X23889198Y-19612453D01*
X23949282Y-19612453D01*
X24008202Y-19624172D01*
X24061675Y-19646321D01*
X24085124Y-19653433D01*
X24109510Y-19655835D01*
X24133896Y-19653433D01*
X24157345Y-19646319D01*
X24178956Y-19634768D01*
X24197898Y-19619223D01*
X24213443Y-19600281D01*
X24224994Y-19578670D01*
X24232106Y-19555221D01*
X24234508Y-19530835D01*
X24232106Y-19506450D01*
X24223840Y-19464895D01*
X24223840Y-19404813D01*
X24232106Y-19363256D01*
X24234508Y-19338869D01*
X24232106Y-19314483D01*
X24224993Y-19291034D01*
X24213442Y-19269424D01*
X24197896Y-19250482D01*
X24178954Y-19234937D01*
X24157343Y-19223386D01*
X24133895Y-19216273D01*
X24109508Y-19213871D01*
X24085122Y-19216273D01*
X24061674Y-19223386D01*
X24008204Y-19245534D01*
X23949282Y-19257254D01*
X23889198Y-19257254D01*
X23830276Y-19245534D01*
X23774770Y-19222543D01*
X23774769Y-19222543D01*
X23774768Y-19222542D01*
X23724814Y-19189163D01*
X23682331Y-19146680D01*
X23648952Y-19096726D01*
X23638969Y-19072625D01*
X23625960Y-19041218D01*
X23614240Y-18982296D01*
X23614240Y-18922212D01*
X23625960Y-18863290D01*
X23648951Y-18807784D01*
X23682330Y-18757829D01*
X23724815Y-18715344D01*
X23765388Y-18688234D01*
X23774768Y-18681966D01*
X23774770Y-18681965D01*
X23830276Y-18658974D01*
X23889198Y-18647254D01*
X23949282Y-18647254D01*
X24008202Y-18658973D01*
X24061675Y-18681122D01*
X24085124Y-18688234D01*
X24109510Y-18690636D01*
X24133896Y-18688234D01*
X24157345Y-18681120D01*
X24178956Y-18669569D01*
X24197898Y-18654024D01*
X24213443Y-18635082D01*
X24224994Y-18613471D01*
X24232106Y-18590022D01*
X24234508Y-18565636D01*
X24232106Y-18541251D01*
X24223840Y-18499696D01*
X24223840Y-18439614D01*
X24232106Y-18398057D01*
X24234508Y-18373670D01*
X24232106Y-18349284D01*
X24224993Y-18325835D01*
X24213442Y-18304225D01*
X24197896Y-18285283D01*
X24178954Y-18269738D01*
X24157343Y-18258187D01*
X24133895Y-18251074D01*
X24109508Y-18248672D01*
X24085122Y-18251074D01*
X24061674Y-18258187D01*
X24008204Y-18280335D01*
X23949282Y-18292055D01*
X23889198Y-18292055D01*
X23830276Y-18280335D01*
X23774770Y-18257344D01*
X23774769Y-18257344D01*
X23774768Y-18257343D01*
X23724814Y-18223964D01*
X23682331Y-18181481D01*
X23648952Y-18131527D01*
X23638969Y-18107426D01*
X23625960Y-18076019D01*
X23614240Y-18017097D01*
X23614240Y-17957013D01*
X23625960Y-17898091D01*
X23648951Y-17842585D01*
X23682330Y-17792630D01*
X23724815Y-17750145D01*
X23765388Y-17723035D01*
X23774768Y-17716767D01*
X23774770Y-17716766D01*
X23830276Y-17693775D01*
X23889198Y-17682055D01*
X23949282Y-17682055D01*
X24008202Y-17693774D01*
X24061675Y-17715923D01*
X24085124Y-17723035D01*
X24109510Y-17725437D01*
X24133896Y-17723035D01*
X24157345Y-17715921D01*
X24178956Y-17704370D01*
X24197898Y-17688825D01*
X24213443Y-17669883D01*
X24224994Y-17648272D01*
X24232106Y-17624823D01*
X24234508Y-17600437D01*
X24232106Y-17576052D01*
X24223840Y-17534497D01*
X24223840Y-17474415D01*
X24232106Y-17432858D01*
X24234508Y-17408471D01*
X24232106Y-17384085D01*
X24224993Y-17360636D01*
X24213442Y-17339026D01*
X24197896Y-17320084D01*
X24178954Y-17304539D01*
X24157343Y-17292988D01*
X24133895Y-17285875D01*
X24109508Y-17283473D01*
X24085122Y-17285875D01*
X24061674Y-17292988D01*
X24008204Y-17315136D01*
X23949282Y-17326856D01*
X23889198Y-17326856D01*
X23830276Y-17315136D01*
X23774770Y-17292145D01*
X23774769Y-17292145D01*
X23774768Y-17292144D01*
X23724814Y-17258765D01*
X23682331Y-17216282D01*
X23648952Y-17166328D01*
X23638969Y-17142227D01*
X23625960Y-17110820D01*
X23614240Y-17051898D01*
X23614240Y-16991814D01*
X23625960Y-16932892D01*
X23648951Y-16877386D01*
X23682330Y-16827431D01*
X23724815Y-16784946D01*
X23765388Y-16757836D01*
X23774768Y-16751568D01*
X23774770Y-16751567D01*
X23830276Y-16728576D01*
X23889198Y-16716856D01*
X23949282Y-16716856D01*
X24008202Y-16728575D01*
X24061675Y-16750724D01*
X24085124Y-16757836D01*
X24109510Y-16760238D01*
X24133896Y-16757836D01*
X24157345Y-16750722D01*
X24178956Y-16739171D01*
X24197898Y-16723626D01*
X24213443Y-16704684D01*
X24224994Y-16683073D01*
X24232106Y-16659624D01*
X24234508Y-16635238D01*
X24232106Y-16610853D01*
X24223840Y-16569298D01*
X24223840Y-16509216D01*
X24232106Y-16467659D01*
X24234508Y-16443272D01*
X24232106Y-16418886D01*
X24224993Y-16395437D01*
X24213442Y-16373827D01*
X24197896Y-16354885D01*
X24178954Y-16339340D01*
X24157343Y-16327789D01*
X24133895Y-16320676D01*
X24109508Y-16318274D01*
X24085122Y-16320676D01*
X24061674Y-16327789D01*
X24008204Y-16349937D01*
X23949282Y-16361657D01*
X23889198Y-16361657D01*
X23830276Y-16349937D01*
X23774770Y-16326946D01*
X23774769Y-16326946D01*
X23774768Y-16326945D01*
X23724814Y-16293566D01*
X23682331Y-16251083D01*
X23648952Y-16201129D01*
X23638969Y-16177028D01*
X23625960Y-16145621D01*
X23614240Y-16086699D01*
X23614240Y-16026615D01*
X23625960Y-15967693D01*
X23648951Y-15912187D01*
X23682330Y-15862232D01*
X23724815Y-15819747D01*
X23765388Y-15792637D01*
X23774768Y-15786369D01*
X23774770Y-15786368D01*
X23830276Y-15763377D01*
X23889198Y-15751657D01*
X23949282Y-15751657D01*
X24008202Y-15763376D01*
X24061675Y-15785525D01*
X24085124Y-15792637D01*
X24109510Y-15795039D01*
X24133896Y-15792637D01*
X24157345Y-15785523D01*
X24178956Y-15773972D01*
X24197898Y-15758427D01*
X24213443Y-15739485D01*
X24224994Y-15717874D01*
X24232106Y-15694425D01*
X24234508Y-15670039D01*
X24232106Y-15645654D01*
X24223840Y-15604099D01*
X24223840Y-15544017D01*
X24232106Y-15502460D01*
X24234508Y-15478073D01*
X24232106Y-15453687D01*
X24224993Y-15430238D01*
X24213442Y-15408628D01*
X24197896Y-15389686D01*
X24178954Y-15374141D01*
X24157343Y-15362590D01*
X24133895Y-15355477D01*
X24109508Y-15353075D01*
X24085122Y-15355477D01*
X24061674Y-15362590D01*
X24008204Y-15384738D01*
X23949282Y-15396458D01*
X23889198Y-15396458D01*
X23830276Y-15384738D01*
X23774770Y-15361747D01*
X23774769Y-15361747D01*
X23774768Y-15361746D01*
X23724814Y-15328367D01*
X23682331Y-15285884D01*
X23648952Y-15235930D01*
X23638969Y-15211829D01*
X23625960Y-15180422D01*
X23614240Y-15121500D01*
X23614240Y-15061416D01*
X23625960Y-15002494D01*
X23648951Y-14946988D01*
X23682330Y-14897033D01*
X23724815Y-14854548D01*
X23765388Y-14827438D01*
X23774768Y-14821170D01*
X23774770Y-14821169D01*
X23830276Y-14798178D01*
X23889198Y-14786458D01*
X23949282Y-14786458D01*
X24008202Y-14798177D01*
X24061675Y-14820326D01*
X24085124Y-14827438D01*
X24109510Y-14829840D01*
X24133896Y-14827438D01*
X24157345Y-14820324D01*
X24178956Y-14808773D01*
X24197898Y-14793228D01*
X24213443Y-14774286D01*
X24224994Y-14752675D01*
X24232106Y-14729226D01*
X24234508Y-14704840D01*
X24232106Y-14680455D01*
X24223840Y-14638900D01*
X24223840Y-14578818D01*
X24232106Y-14537261D01*
X24234508Y-14512874D01*
X24232106Y-14488488D01*
X24224993Y-14465039D01*
X24213442Y-14443429D01*
X24197896Y-14424487D01*
X24178954Y-14408942D01*
X24157343Y-14397391D01*
X24133895Y-14390278D01*
X24109508Y-14387876D01*
X24085122Y-14390278D01*
X24061674Y-14397391D01*
X24008204Y-14419539D01*
X23949282Y-14431259D01*
X23889198Y-14431259D01*
X23830276Y-14419539D01*
X23774770Y-14396548D01*
X23774769Y-14396548D01*
X23774768Y-14396547D01*
X23724814Y-14363168D01*
X23682331Y-14320685D01*
X23648952Y-14270731D01*
X23638969Y-14246630D01*
X23625960Y-14215223D01*
X23614240Y-14156301D01*
X23614240Y-14096217D01*
X23625960Y-14037295D01*
X23648951Y-13981789D01*
X23682330Y-13931834D01*
X23724815Y-13889349D01*
X23761793Y-13864641D01*
X23774768Y-13855971D01*
X23774770Y-13855970D01*
X23830276Y-13832979D01*
X23889198Y-13821259D01*
X23949282Y-13821259D01*
X24008202Y-13832978D01*
X24061675Y-13855127D01*
X24085124Y-13862239D01*
X24109510Y-13864641D01*
X24133896Y-13862239D01*
X24157345Y-13855125D01*
X24178956Y-13843574D01*
X24197898Y-13828029D01*
X24213443Y-13809087D01*
X24224994Y-13787476D01*
X24232106Y-13764027D01*
X24234508Y-13739641D01*
X24232106Y-13715256D01*
X24223840Y-13673701D01*
X24223840Y-13613618D01*
X24235560Y-13554696D01*
X24258551Y-13499190D01*
X24291930Y-13449235D01*
X24334415Y-13406750D01*
X24359221Y-13390175D01*
X24384368Y-13373372D01*
X24384370Y-13373371D01*
X24439876Y-13350380D01*
X24498798Y-13338660D01*
X24558882Y-13338660D01*
X24617804Y-13350380D01*
X24617804Y-13350380D01*
G37*
G36*
X18617804Y-13350380D02*
G01*
X18673310Y-13373371D01*
X18673312Y-13373372D01*
X18698459Y-13390175D01*
X18723265Y-13406750D01*
X18765750Y-13449235D01*
X18799129Y-13499190D01*
X18822120Y-13554696D01*
X18833840Y-13613618D01*
X18833840Y-13673702D01*
X18822120Y-13732624D01*
X18805005Y-13773944D01*
X18799128Y-13788132D01*
X18795951Y-13792886D01*
X18765844Y-13837945D01*
X18765749Y-13838086D01*
X18723266Y-13880569D01*
X18673312Y-13913948D01*
X18673311Y-13913949D01*
X18673310Y-13913949D01*
X18617804Y-13936940D01*
X18558882Y-13948660D01*
X18498798Y-13948660D01*
X18439878Y-13936941D01*
X18386405Y-13914792D01*
X18362956Y-13907680D01*
X18338570Y-13905278D01*
X18314184Y-13907680D01*
X18290735Y-13914794D01*
X18269124Y-13926345D01*
X18250182Y-13941890D01*
X18234637Y-13960832D01*
X18223086Y-13982443D01*
X18215974Y-14005892D01*
X18213572Y-14030278D01*
X18215974Y-14054663D01*
X18224240Y-14096218D01*
X18224240Y-14156300D01*
X18215974Y-14197857D01*
X18213572Y-14222244D01*
X18215974Y-14246630D01*
X18223087Y-14270079D01*
X18234638Y-14291689D01*
X18250184Y-14310631D01*
X18269126Y-14326176D01*
X18290737Y-14337727D01*
X18314185Y-14344840D01*
X18338572Y-14347242D01*
X18362958Y-14344840D01*
X18386406Y-14337727D01*
X18439876Y-14315579D01*
X18498798Y-14303859D01*
X18558882Y-14303859D01*
X18617804Y-14315579D01*
X18673310Y-14338570D01*
X18673312Y-14338571D01*
X18682694Y-14344840D01*
X18723265Y-14371949D01*
X18765750Y-14414434D01*
X18799129Y-14464389D01*
X18822120Y-14519895D01*
X18833840Y-14578817D01*
X18833840Y-14638901D01*
X18822120Y-14697823D01*
X18799129Y-14753329D01*
X18769162Y-14798178D01*
X18765749Y-14803285D01*
X18723266Y-14845768D01*
X18673312Y-14879147D01*
X18673311Y-14879148D01*
X18673310Y-14879148D01*
X18617804Y-14902139D01*
X18558882Y-14913859D01*
X18498798Y-14913859D01*
X18439878Y-14902140D01*
X18386405Y-14879991D01*
X18362956Y-14872879D01*
X18338570Y-14870477D01*
X18314184Y-14872879D01*
X18290735Y-14879993D01*
X18269124Y-14891544D01*
X18250182Y-14907089D01*
X18234637Y-14926031D01*
X18223086Y-14947642D01*
X18215974Y-14971091D01*
X18213572Y-14995477D01*
X18215974Y-15019862D01*
X18224240Y-15061417D01*
X18224240Y-15121499D01*
X18215974Y-15163056D01*
X18213572Y-15187443D01*
X18215974Y-15211829D01*
X18223087Y-15235278D01*
X18234638Y-15256888D01*
X18250184Y-15275830D01*
X18269126Y-15291375D01*
X18290737Y-15302926D01*
X18314185Y-15310039D01*
X18338572Y-15312441D01*
X18362958Y-15310039D01*
X18386406Y-15302926D01*
X18439876Y-15280778D01*
X18498798Y-15269058D01*
X18558882Y-15269058D01*
X18617804Y-15280778D01*
X18673310Y-15303769D01*
X18673312Y-15303770D01*
X18682694Y-15310039D01*
X18723265Y-15337148D01*
X18765750Y-15379633D01*
X18799129Y-15429588D01*
X18822120Y-15485094D01*
X18833840Y-15544016D01*
X18833840Y-15604100D01*
X18822120Y-15663022D01*
X18799129Y-15718528D01*
X18769162Y-15763377D01*
X18765749Y-15768484D01*
X18723266Y-15810967D01*
X18673312Y-15844346D01*
X18673311Y-15844347D01*
X18673310Y-15844347D01*
X18617804Y-15867338D01*
X18558882Y-15879058D01*
X18498798Y-15879058D01*
X18439878Y-15867339D01*
X18386405Y-15845190D01*
X18362956Y-15838078D01*
X18338570Y-15835676D01*
X18314184Y-15838078D01*
X18290735Y-15845192D01*
X18269124Y-15856743D01*
X18250182Y-15872288D01*
X18234637Y-15891230D01*
X18223086Y-15912841D01*
X18215974Y-15936290D01*
X18213572Y-15960676D01*
X18215974Y-15985061D01*
X18224240Y-16026616D01*
X18224240Y-16086698D01*
X18215974Y-16128255D01*
X18213572Y-16152642D01*
X18215974Y-16177028D01*
X18223087Y-16200477D01*
X18234638Y-16222087D01*
X18250184Y-16241029D01*
X18269126Y-16256574D01*
X18290737Y-16268125D01*
X18314185Y-16275238D01*
X18338572Y-16277640D01*
X18362958Y-16275238D01*
X18386406Y-16268125D01*
X18439876Y-16245977D01*
X18498798Y-16234257D01*
X18558882Y-16234257D01*
X18617804Y-16245977D01*
X18673310Y-16268968D01*
X18673312Y-16268969D01*
X18682694Y-16275238D01*
X18723265Y-16302347D01*
X18765750Y-16344832D01*
X18799129Y-16394787D01*
X18822120Y-16450293D01*
X18833840Y-16509215D01*
X18833840Y-16569299D01*
X18822120Y-16628221D01*
X18799129Y-16683727D01*
X18769162Y-16728576D01*
X18765749Y-16733683D01*
X18723266Y-16776166D01*
X18673312Y-16809545D01*
X18673311Y-16809546D01*
X18673310Y-16809546D01*
X18617804Y-16832537D01*
X18558882Y-16844257D01*
X18498798Y-16844257D01*
X18439878Y-16832538D01*
X18386405Y-16810389D01*
X18362956Y-16803277D01*
X18338570Y-16800875D01*
X18314184Y-16803277D01*
X18290735Y-16810391D01*
X18269124Y-16821942D01*
X18250182Y-16837487D01*
X18234637Y-16856429D01*
X18223086Y-16878040D01*
X18215974Y-16901489D01*
X18213572Y-16925875D01*
X18215974Y-16950260D01*
X18224240Y-16991815D01*
X18224240Y-17051897D01*
X18215974Y-17093454D01*
X18213572Y-17117841D01*
X18215974Y-17142227D01*
X18223087Y-17165676D01*
X18234638Y-17187286D01*
X18250184Y-17206228D01*
X18269126Y-17221773D01*
X18290737Y-17233324D01*
X18314185Y-17240437D01*
X18338572Y-17242839D01*
X18362958Y-17240437D01*
X18386406Y-17233324D01*
X18439876Y-17211176D01*
X18498798Y-17199456D01*
X18558882Y-17199456D01*
X18617804Y-17211176D01*
X18673310Y-17234167D01*
X18673312Y-17234168D01*
X18682694Y-17240437D01*
X18723265Y-17267546D01*
X18765750Y-17310031D01*
X18799129Y-17359986D01*
X18822120Y-17415492D01*
X18833840Y-17474414D01*
X18833840Y-17534498D01*
X18822120Y-17593420D01*
X18799129Y-17648926D01*
X18769162Y-17693775D01*
X18765749Y-17698882D01*
X18723266Y-17741365D01*
X18673312Y-17774744D01*
X18673311Y-17774745D01*
X18673310Y-17774745D01*
X18617804Y-17797736D01*
X18558882Y-17809456D01*
X18498798Y-17809456D01*
X18439878Y-17797737D01*
X18386405Y-17775588D01*
X18362956Y-17768476D01*
X18338570Y-17766074D01*
X18314184Y-17768476D01*
X18290735Y-17775590D01*
X18269124Y-17787141D01*
X18250182Y-17802686D01*
X18234637Y-17821628D01*
X18223086Y-17843239D01*
X18215974Y-17866688D01*
X18213572Y-17891074D01*
X18215974Y-17915459D01*
X18224240Y-17957014D01*
X18224240Y-18017096D01*
X18215974Y-18058653D01*
X18213572Y-18083040D01*
X18215974Y-18107426D01*
X18223087Y-18130875D01*
X18234638Y-18152485D01*
X18250184Y-18171427D01*
X18269126Y-18186972D01*
X18290737Y-18198523D01*
X18314185Y-18205636D01*
X18338572Y-18208038D01*
X18362958Y-18205636D01*
X18386406Y-18198523D01*
X18439876Y-18176375D01*
X18498798Y-18164655D01*
X18558882Y-18164655D01*
X18617804Y-18176375D01*
X18673310Y-18199366D01*
X18673312Y-18199367D01*
X18682694Y-18205636D01*
X18723265Y-18232745D01*
X18765750Y-18275230D01*
X18799129Y-18325185D01*
X18822120Y-18380691D01*
X18833840Y-18439613D01*
X18833840Y-18499697D01*
X18822120Y-18558619D01*
X18799129Y-18614125D01*
X18769162Y-18658974D01*
X18765749Y-18664081D01*
X18723266Y-18706564D01*
X18673312Y-18739943D01*
X18673311Y-18739944D01*
X18673310Y-18739944D01*
X18617804Y-18762935D01*
X18558882Y-18774655D01*
X18498798Y-18774655D01*
X18439878Y-18762936D01*
X18386405Y-18740787D01*
X18362956Y-18733675D01*
X18338570Y-18731273D01*
X18314184Y-18733675D01*
X18290735Y-18740789D01*
X18269124Y-18752340D01*
X18250182Y-18767885D01*
X18234637Y-18786827D01*
X18223086Y-18808438D01*
X18215974Y-18831887D01*
X18213572Y-18856273D01*
X18215974Y-18880658D01*
X18224240Y-18922213D01*
X18224240Y-18982295D01*
X18215974Y-19023852D01*
X18213572Y-19048239D01*
X18215974Y-19072625D01*
X18223087Y-19096074D01*
X18234638Y-19117684D01*
X18250184Y-19136626D01*
X18269126Y-19152171D01*
X18290737Y-19163722D01*
X18314185Y-19170835D01*
X18338572Y-19173237D01*
X18362958Y-19170835D01*
X18386406Y-19163722D01*
X18439876Y-19141574D01*
X18498798Y-19129854D01*
X18558882Y-19129854D01*
X18617804Y-19141574D01*
X18673310Y-19164565D01*
X18673312Y-19164566D01*
X18682694Y-19170835D01*
X18723265Y-19197944D01*
X18765750Y-19240429D01*
X18799129Y-19290384D01*
X18822120Y-19345890D01*
X18833840Y-19404812D01*
X18833840Y-19464896D01*
X18822120Y-19523818D01*
X18799129Y-19579324D01*
X18769162Y-19624173D01*
X18765749Y-19629280D01*
X18723266Y-19671763D01*
X18673312Y-19705142D01*
X18673311Y-19705143D01*
X18673310Y-19705143D01*
X18617804Y-19728134D01*
X18558882Y-19739854D01*
X18498798Y-19739854D01*
X18439878Y-19728135D01*
X18386405Y-19705986D01*
X18362956Y-19698874D01*
X18338570Y-19696472D01*
X18314184Y-19698874D01*
X18290735Y-19705988D01*
X18269124Y-19717539D01*
X18250182Y-19733084D01*
X18234637Y-19752026D01*
X18223086Y-19773637D01*
X18215974Y-19797086D01*
X18213572Y-19821472D01*
X18215974Y-19845857D01*
X18224240Y-19887412D01*
X18224240Y-19947494D01*
X18215974Y-19989051D01*
X18213572Y-20013438D01*
X18215974Y-20037824D01*
X18223087Y-20061273D01*
X18234638Y-20082883D01*
X18250184Y-20101825D01*
X18269126Y-20117370D01*
X18290737Y-20128921D01*
X18314185Y-20136034D01*
X18338572Y-20138436D01*
X18362958Y-20136034D01*
X18386406Y-20128921D01*
X18439876Y-20106773D01*
X18498798Y-20095053D01*
X18558882Y-20095053D01*
X18617804Y-20106773D01*
X18673310Y-20129764D01*
X18673312Y-20129765D01*
X18682694Y-20136034D01*
X18723265Y-20163143D01*
X18765750Y-20205628D01*
X18799129Y-20255583D01*
X18822120Y-20311089D01*
X18833840Y-20370011D01*
X18833840Y-20430095D01*
X18822120Y-20489017D01*
X18799129Y-20544523D01*
X18769162Y-20589372D01*
X18765749Y-20594479D01*
X18723266Y-20636962D01*
X18673312Y-20670341D01*
X18673311Y-20670342D01*
X18673310Y-20670342D01*
X18617804Y-20693333D01*
X18558882Y-20705053D01*
X18498798Y-20705053D01*
X18439878Y-20693334D01*
X18386405Y-20671185D01*
X18362956Y-20664073D01*
X18338570Y-20661671D01*
X18314184Y-20664073D01*
X18290735Y-20671187D01*
X18269124Y-20682738D01*
X18250182Y-20698283D01*
X18234637Y-20717225D01*
X18223086Y-20738836D01*
X18215974Y-20762285D01*
X18213572Y-20786671D01*
X18215974Y-20811056D01*
X18224240Y-20852611D01*
X18224240Y-20912693D01*
X18215974Y-20954250D01*
X18213572Y-20978637D01*
X18215974Y-21003023D01*
X18223087Y-21026472D01*
X18234638Y-21048082D01*
X18250184Y-21067024D01*
X18269126Y-21082569D01*
X18290737Y-21094120D01*
X18314185Y-21101233D01*
X18338572Y-21103635D01*
X18362958Y-21101233D01*
X18386406Y-21094120D01*
X18439876Y-21071972D01*
X18498798Y-21060252D01*
X18558882Y-21060252D01*
X18617804Y-21071972D01*
X18673310Y-21094963D01*
X18673312Y-21094964D01*
X18682694Y-21101233D01*
X18723265Y-21128342D01*
X18765750Y-21170827D01*
X18799129Y-21220782D01*
X18822120Y-21276288D01*
X18833840Y-21335210D01*
X18833840Y-21395294D01*
X18822120Y-21454216D01*
X18799129Y-21509722D01*
X18769162Y-21554571D01*
X18765749Y-21559678D01*
X18723266Y-21602161D01*
X18673312Y-21635540D01*
X18673311Y-21635541D01*
X18673310Y-21635541D01*
X18617804Y-21658532D01*
X18558882Y-21670252D01*
X18498798Y-21670252D01*
X18439878Y-21658533D01*
X18386405Y-21636384D01*
X18362956Y-21629272D01*
X18338570Y-21626870D01*
X18314184Y-21629272D01*
X18290735Y-21636386D01*
X18269124Y-21647937D01*
X18250182Y-21663482D01*
X18234637Y-21682424D01*
X18223086Y-21704035D01*
X18215974Y-21727484D01*
X18213572Y-21751870D01*
X18215974Y-21776255D01*
X18224240Y-21817810D01*
X18224240Y-21877892D01*
X18215974Y-21919449D01*
X18213572Y-21943836D01*
X18215974Y-21968222D01*
X18223087Y-21991671D01*
X18234638Y-22013281D01*
X18250184Y-22032223D01*
X18269126Y-22047768D01*
X18290737Y-22059319D01*
X18314185Y-22066432D01*
X18338572Y-22068834D01*
X18362958Y-22066432D01*
X18386406Y-22059319D01*
X18439876Y-22037171D01*
X18498798Y-22025451D01*
X18558882Y-22025451D01*
X18617804Y-22037171D01*
X18673310Y-22060162D01*
X18673312Y-22060163D01*
X18682694Y-22066432D01*
X18723265Y-22093541D01*
X18765750Y-22136026D01*
X18799129Y-22185981D01*
X18822120Y-22241487D01*
X18833840Y-22300409D01*
X18833840Y-22360493D01*
X18822120Y-22419415D01*
X18799129Y-22474921D01*
X18769162Y-22519770D01*
X18765749Y-22524877D01*
X18723266Y-22567360D01*
X18673312Y-22600739D01*
X18673311Y-22600740D01*
X18673310Y-22600740D01*
X18617804Y-22623731D01*
X18558882Y-22635451D01*
X18498798Y-22635451D01*
X18439878Y-22623732D01*
X18386405Y-22601583D01*
X18362956Y-22594471D01*
X18338570Y-22592069D01*
X18314184Y-22594471D01*
X18290735Y-22601585D01*
X18269124Y-22613136D01*
X18250182Y-22628681D01*
X18234637Y-22647623D01*
X18223086Y-22669234D01*
X18215974Y-22692683D01*
X18213572Y-22717069D01*
X18215974Y-22741454D01*
X18224240Y-22783009D01*
X18224240Y-22843092D01*
X18212520Y-22902014D01*
X18189529Y-22957520D01*
X18189528Y-22957522D01*
X18156149Y-23007476D01*
X18113666Y-23049959D01*
X18063712Y-23083338D01*
X18063711Y-23083339D01*
X18063710Y-23083339D01*
X18008204Y-23106330D01*
X17949282Y-23118050D01*
X17889198Y-23118050D01*
X17830276Y-23106330D01*
X17774770Y-23083339D01*
X17774769Y-23083339D01*
X17774768Y-23083338D01*
X17724814Y-23049959D01*
X17682331Y-23007476D01*
X17648952Y-22957522D01*
X17648951Y-22957520D01*
X17625960Y-22902014D01*
X17614240Y-22843092D01*
X17614240Y-22783008D01*
X17625960Y-22724086D01*
X17648951Y-22668580D01*
X17682330Y-22618625D01*
X17724815Y-22576140D01*
X17765388Y-22549030D01*
X17774768Y-22542762D01*
X17774770Y-22542761D01*
X17830276Y-22519770D01*
X17889198Y-22508050D01*
X17949282Y-22508050D01*
X18008202Y-22519769D01*
X18061675Y-22541918D01*
X18085124Y-22549030D01*
X18109510Y-22551432D01*
X18133896Y-22549030D01*
X18157345Y-22541916D01*
X18178956Y-22530365D01*
X18197898Y-22514820D01*
X18213443Y-22495878D01*
X18224994Y-22474267D01*
X18232106Y-22450818D01*
X18234508Y-22426432D01*
X18232106Y-22402047D01*
X18223840Y-22360492D01*
X18223840Y-22300410D01*
X18232106Y-22258853D01*
X18234508Y-22234466D01*
X18232106Y-22210080D01*
X18224993Y-22186631D01*
X18213442Y-22165021D01*
X18197896Y-22146079D01*
X18178954Y-22130534D01*
X18157343Y-22118983D01*
X18133895Y-22111870D01*
X18109508Y-22109468D01*
X18085122Y-22111870D01*
X18061674Y-22118983D01*
X18008204Y-22141131D01*
X17949282Y-22152851D01*
X17889198Y-22152851D01*
X17830276Y-22141131D01*
X17774770Y-22118140D01*
X17774769Y-22118140D01*
X17774768Y-22118139D01*
X17724814Y-22084760D01*
X17682331Y-22042277D01*
X17648952Y-21992323D01*
X17638969Y-21968222D01*
X17625960Y-21936815D01*
X17614240Y-21877893D01*
X17614240Y-21817809D01*
X17625960Y-21758887D01*
X17648951Y-21703381D01*
X17682330Y-21653426D01*
X17724815Y-21610941D01*
X17765388Y-21583831D01*
X17774768Y-21577563D01*
X17774770Y-21577562D01*
X17830276Y-21554571D01*
X17889198Y-21542851D01*
X17949282Y-21542851D01*
X18008202Y-21554570D01*
X18061675Y-21576719D01*
X18085124Y-21583831D01*
X18109510Y-21586233D01*
X18133896Y-21583831D01*
X18157345Y-21576717D01*
X18178956Y-21565166D01*
X18197898Y-21549621D01*
X18213443Y-21530679D01*
X18224994Y-21509068D01*
X18232106Y-21485619D01*
X18234508Y-21461233D01*
X18232106Y-21436848D01*
X18223840Y-21395293D01*
X18223840Y-21335211D01*
X18232106Y-21293654D01*
X18234508Y-21269267D01*
X18232106Y-21244881D01*
X18224993Y-21221432D01*
X18213442Y-21199822D01*
X18197896Y-21180880D01*
X18178954Y-21165335D01*
X18157343Y-21153784D01*
X18133895Y-21146671D01*
X18109508Y-21144269D01*
X18085122Y-21146671D01*
X18061674Y-21153784D01*
X18008204Y-21175932D01*
X17949282Y-21187652D01*
X17889198Y-21187652D01*
X17830276Y-21175932D01*
X17774770Y-21152941D01*
X17774769Y-21152941D01*
X17774768Y-21152940D01*
X17724814Y-21119561D01*
X17682331Y-21077078D01*
X17648952Y-21027124D01*
X17638969Y-21003023D01*
X17625960Y-20971616D01*
X17614240Y-20912694D01*
X17614240Y-20852610D01*
X17625960Y-20793688D01*
X17648951Y-20738182D01*
X17682330Y-20688227D01*
X17724815Y-20645742D01*
X17765388Y-20618632D01*
X17774768Y-20612364D01*
X17774770Y-20612363D01*
X17830276Y-20589372D01*
X17889198Y-20577652D01*
X17949282Y-20577652D01*
X18008202Y-20589371D01*
X18061675Y-20611520D01*
X18085124Y-20618632D01*
X18109510Y-20621034D01*
X18133896Y-20618632D01*
X18157345Y-20611518D01*
X18178956Y-20599967D01*
X18197898Y-20584422D01*
X18213443Y-20565480D01*
X18224994Y-20543869D01*
X18232106Y-20520420D01*
X18234508Y-20496034D01*
X18232106Y-20471649D01*
X18223840Y-20430094D01*
X18223840Y-20370012D01*
X18232106Y-20328455D01*
X18234508Y-20304068D01*
X18232106Y-20279682D01*
X18224993Y-20256233D01*
X18213442Y-20234623D01*
X18197896Y-20215681D01*
X18178954Y-20200136D01*
X18157343Y-20188585D01*
X18133895Y-20181472D01*
X18109508Y-20179070D01*
X18085122Y-20181472D01*
X18061674Y-20188585D01*
X18008204Y-20210733D01*
X17949282Y-20222453D01*
X17889198Y-20222453D01*
X17830276Y-20210733D01*
X17774770Y-20187742D01*
X17774769Y-20187742D01*
X17774768Y-20187741D01*
X17724814Y-20154362D01*
X17682331Y-20111879D01*
X17648952Y-20061925D01*
X17638969Y-20037824D01*
X17625960Y-20006417D01*
X17614240Y-19947495D01*
X17614240Y-19887411D01*
X17625960Y-19828489D01*
X17648951Y-19772983D01*
X17682330Y-19723028D01*
X17724815Y-19680543D01*
X17765388Y-19653433D01*
X17774768Y-19647165D01*
X17774770Y-19647164D01*
X17830276Y-19624173D01*
X17889198Y-19612453D01*
X17949282Y-19612453D01*
X18008202Y-19624172D01*
X18061675Y-19646321D01*
X18085124Y-19653433D01*
X18109510Y-19655835D01*
X18133896Y-19653433D01*
X18157345Y-19646319D01*
X18178956Y-19634768D01*
X18197898Y-19619223D01*
X18213443Y-19600281D01*
X18224994Y-19578670D01*
X18232106Y-19555221D01*
X18234508Y-19530835D01*
X18232106Y-19506450D01*
X18223840Y-19464895D01*
X18223840Y-19404813D01*
X18232106Y-19363256D01*
X18234508Y-19338869D01*
X18232106Y-19314483D01*
X18224993Y-19291034D01*
X18213442Y-19269424D01*
X18197896Y-19250482D01*
X18178954Y-19234937D01*
X18157343Y-19223386D01*
X18133895Y-19216273D01*
X18109508Y-19213871D01*
X18085122Y-19216273D01*
X18061674Y-19223386D01*
X18008204Y-19245534D01*
X17949282Y-19257254D01*
X17889198Y-19257254D01*
X17830276Y-19245534D01*
X17774770Y-19222543D01*
X17774769Y-19222543D01*
X17774768Y-19222542D01*
X17724814Y-19189163D01*
X17682331Y-19146680D01*
X17648952Y-19096726D01*
X17638969Y-19072625D01*
X17625960Y-19041218D01*
X17614240Y-18982296D01*
X17614240Y-18922212D01*
X17625960Y-18863290D01*
X17648951Y-18807784D01*
X17682330Y-18757829D01*
X17724815Y-18715344D01*
X17765388Y-18688234D01*
X17774768Y-18681966D01*
X17774770Y-18681965D01*
X17830276Y-18658974D01*
X17889198Y-18647254D01*
X17949282Y-18647254D01*
X18008202Y-18658973D01*
X18061675Y-18681122D01*
X18085124Y-18688234D01*
X18109510Y-18690636D01*
X18133896Y-18688234D01*
X18157345Y-18681120D01*
X18178956Y-18669569D01*
X18197898Y-18654024D01*
X18213443Y-18635082D01*
X18224994Y-18613471D01*
X18232106Y-18590022D01*
X18234508Y-18565636D01*
X18232106Y-18541251D01*
X18223840Y-18499696D01*
X18223840Y-18439614D01*
X18232106Y-18398057D01*
X18234508Y-18373670D01*
X18232106Y-18349284D01*
X18224993Y-18325835D01*
X18213442Y-18304225D01*
X18197896Y-18285283D01*
X18178954Y-18269738D01*
X18157343Y-18258187D01*
X18133895Y-18251074D01*
X18109508Y-18248672D01*
X18085122Y-18251074D01*
X18061674Y-18258187D01*
X18008204Y-18280335D01*
X17949282Y-18292055D01*
X17889198Y-18292055D01*
X17830276Y-18280335D01*
X17774770Y-18257344D01*
X17774769Y-18257344D01*
X17774768Y-18257343D01*
X17724814Y-18223964D01*
X17682331Y-18181481D01*
X17648952Y-18131527D01*
X17638969Y-18107426D01*
X17625960Y-18076019D01*
X17614240Y-18017097D01*
X17614240Y-17957013D01*
X17625960Y-17898091D01*
X17648951Y-17842585D01*
X17682330Y-17792630D01*
X17724815Y-17750145D01*
X17765388Y-17723035D01*
X17774768Y-17716767D01*
X17774770Y-17716766D01*
X17830276Y-17693775D01*
X17889198Y-17682055D01*
X17949282Y-17682055D01*
X18008202Y-17693774D01*
X18061675Y-17715923D01*
X18085124Y-17723035D01*
X18109510Y-17725437D01*
X18133896Y-17723035D01*
X18157345Y-17715921D01*
X18178956Y-17704370D01*
X18197898Y-17688825D01*
X18213443Y-17669883D01*
X18224994Y-17648272D01*
X18232106Y-17624823D01*
X18234508Y-17600437D01*
X18232106Y-17576052D01*
X18223840Y-17534497D01*
X18223840Y-17474415D01*
X18232106Y-17432858D01*
X18234508Y-17408471D01*
X18232106Y-17384085D01*
X18224993Y-17360636D01*
X18213442Y-17339026D01*
X18197896Y-17320084D01*
X18178954Y-17304539D01*
X18157343Y-17292988D01*
X18133895Y-17285875D01*
X18109508Y-17283473D01*
X18085122Y-17285875D01*
X18061674Y-17292988D01*
X18008204Y-17315136D01*
X17949282Y-17326856D01*
X17889198Y-17326856D01*
X17830276Y-17315136D01*
X17774770Y-17292145D01*
X17774769Y-17292145D01*
X17774768Y-17292144D01*
X17724814Y-17258765D01*
X17682331Y-17216282D01*
X17648952Y-17166328D01*
X17638969Y-17142227D01*
X17625960Y-17110820D01*
X17614240Y-17051898D01*
X17614240Y-16991814D01*
X17625960Y-16932892D01*
X17648951Y-16877386D01*
X17682330Y-16827431D01*
X17724815Y-16784946D01*
X17765388Y-16757836D01*
X17774768Y-16751568D01*
X17774770Y-16751567D01*
X17830276Y-16728576D01*
X17889198Y-16716856D01*
X17949282Y-16716856D01*
X18008202Y-16728575D01*
X18061675Y-16750724D01*
X18085124Y-16757836D01*
X18109510Y-16760238D01*
X18133896Y-16757836D01*
X18157345Y-16750722D01*
X18178956Y-16739171D01*
X18197898Y-16723626D01*
X18213443Y-16704684D01*
X18224994Y-16683073D01*
X18232106Y-16659624D01*
X18234508Y-16635238D01*
X18232106Y-16610853D01*
X18223840Y-16569298D01*
X18223840Y-16509216D01*
X18232106Y-16467659D01*
X18234508Y-16443272D01*
X18232106Y-16418886D01*
X18224993Y-16395437D01*
X18213442Y-16373827D01*
X18197896Y-16354885D01*
X18178954Y-16339340D01*
X18157343Y-16327789D01*
X18133895Y-16320676D01*
X18109508Y-16318274D01*
X18085122Y-16320676D01*
X18061674Y-16327789D01*
X18008204Y-16349937D01*
X17949282Y-16361657D01*
X17889198Y-16361657D01*
X17830276Y-16349937D01*
X17774770Y-16326946D01*
X17774769Y-16326946D01*
X17774768Y-16326945D01*
X17724814Y-16293566D01*
X17682331Y-16251083D01*
X17648952Y-16201129D01*
X17638969Y-16177028D01*
X17625960Y-16145621D01*
X17614240Y-16086699D01*
X17614240Y-16026615D01*
X17625960Y-15967693D01*
X17648951Y-15912187D01*
X17682330Y-15862232D01*
X17724815Y-15819747D01*
X17765388Y-15792637D01*
X17774768Y-15786369D01*
X17774770Y-15786368D01*
X17830276Y-15763377D01*
X17889198Y-15751657D01*
X17949282Y-15751657D01*
X18008202Y-15763376D01*
X18061675Y-15785525D01*
X18085124Y-15792637D01*
X18109510Y-15795039D01*
X18133896Y-15792637D01*
X18157345Y-15785523D01*
X18178956Y-15773972D01*
X18197898Y-15758427D01*
X18213443Y-15739485D01*
X18224994Y-15717874D01*
X18232106Y-15694425D01*
X18234508Y-15670039D01*
X18232106Y-15645654D01*
X18223840Y-15604099D01*
X18223840Y-15544017D01*
X18232106Y-15502460D01*
X18234508Y-15478073D01*
X18232106Y-15453687D01*
X18224993Y-15430238D01*
X18213442Y-15408628D01*
X18197896Y-15389686D01*
X18178954Y-15374141D01*
X18157343Y-15362590D01*
X18133895Y-15355477D01*
X18109508Y-15353075D01*
X18085122Y-15355477D01*
X18061674Y-15362590D01*
X18008204Y-15384738D01*
X17949282Y-15396458D01*
X17889198Y-15396458D01*
X17830276Y-15384738D01*
X17774770Y-15361747D01*
X17774769Y-15361747D01*
X17774768Y-15361746D01*
X17724814Y-15328367D01*
X17682331Y-15285884D01*
X17648952Y-15235930D01*
X17638969Y-15211829D01*
X17625960Y-15180422D01*
X17614240Y-15121500D01*
X17614240Y-15061416D01*
X17625960Y-15002494D01*
X17648951Y-14946988D01*
X17682330Y-14897033D01*
X17724815Y-14854548D01*
X17765388Y-14827438D01*
X17774768Y-14821170D01*
X17774770Y-14821169D01*
X17830276Y-14798178D01*
X17889198Y-14786458D01*
X17949282Y-14786458D01*
X18008202Y-14798177D01*
X18061675Y-14820326D01*
X18085124Y-14827438D01*
X18109510Y-14829840D01*
X18133896Y-14827438D01*
X18157345Y-14820324D01*
X18178956Y-14808773D01*
X18197898Y-14793228D01*
X18213443Y-14774286D01*
X18224994Y-14752675D01*
X18232106Y-14729226D01*
X18234508Y-14704840D01*
X18232106Y-14680455D01*
X18223840Y-14638900D01*
X18223840Y-14578818D01*
X18232106Y-14537261D01*
X18234508Y-14512874D01*
X18232106Y-14488488D01*
X18224993Y-14465039D01*
X18213442Y-14443429D01*
X18197896Y-14424487D01*
X18178954Y-14408942D01*
X18157343Y-14397391D01*
X18133895Y-14390278D01*
X18109508Y-14387876D01*
X18085122Y-14390278D01*
X18061674Y-14397391D01*
X18008204Y-14419539D01*
X17949282Y-14431259D01*
X17889198Y-14431259D01*
X17830276Y-14419539D01*
X17774770Y-14396548D01*
X17774769Y-14396548D01*
X17774768Y-14396547D01*
X17724814Y-14363168D01*
X17682331Y-14320685D01*
X17648952Y-14270731D01*
X17638969Y-14246630D01*
X17625960Y-14215223D01*
X17614240Y-14156301D01*
X17614240Y-14096217D01*
X17625960Y-14037295D01*
X17648951Y-13981789D01*
X17682330Y-13931834D01*
X17724815Y-13889349D01*
X17761793Y-13864641D01*
X17774768Y-13855971D01*
X17774770Y-13855970D01*
X17830276Y-13832979D01*
X17889198Y-13821259D01*
X17949282Y-13821259D01*
X18008202Y-13832978D01*
X18061675Y-13855127D01*
X18085124Y-13862239D01*
X18109510Y-13864641D01*
X18133896Y-13862239D01*
X18157345Y-13855125D01*
X18178956Y-13843574D01*
X18197898Y-13828029D01*
X18213443Y-13809087D01*
X18224994Y-13787476D01*
X18232106Y-13764027D01*
X18234508Y-13739641D01*
X18232106Y-13715256D01*
X18223840Y-13673701D01*
X18223840Y-13613618D01*
X18235560Y-13554696D01*
X18258551Y-13499190D01*
X18291930Y-13449235D01*
X18334415Y-13406750D01*
X18359221Y-13390175D01*
X18384368Y-13373372D01*
X18384370Y-13373371D01*
X18439876Y-13350380D01*
X18498798Y-13338660D01*
X18558882Y-13338660D01*
X18617804Y-13350380D01*
X18617804Y-13350380D01*
G37*
G36*
X10619344Y-13149720D02*
G01*
X10674850Y-13172711D01*
X10674852Y-13172712D01*
X10699999Y-13189515D01*
X10724805Y-13206090D01*
X10767290Y-13248575D01*
X10800669Y-13298530D01*
X10823660Y-13354036D01*
X10835380Y-13412958D01*
X10835380Y-13473042D01*
X10823661Y-13531962D01*
X10801512Y-13585435D01*
X10794400Y-13608884D01*
X10791998Y-13633270D01*
X10794400Y-13657656D01*
X10801514Y-13681105D01*
X10813065Y-13702716D01*
X10828610Y-13721658D01*
X10847552Y-13737203D01*
X10869163Y-13748754D01*
X10892612Y-13755866D01*
X10916998Y-13758268D01*
X10941383Y-13755866D01*
X10982938Y-13747600D01*
X11043020Y-13747600D01*
X11084577Y-13755866D01*
X11108964Y-13758268D01*
X11133350Y-13755866D01*
X11156799Y-13748753D01*
X11178409Y-13737202D01*
X11197351Y-13721656D01*
X11212896Y-13702714D01*
X11224447Y-13681103D01*
X11231560Y-13657655D01*
X11233962Y-13633268D01*
X11231560Y-13608882D01*
X11224447Y-13585434D01*
X11202299Y-13531964D01*
X11190579Y-13473042D01*
X11190579Y-13412958D01*
X11202299Y-13354036D01*
X11225290Y-13298530D01*
X11258669Y-13248575D01*
X11301154Y-13206090D01*
X11325960Y-13189515D01*
X11351107Y-13172712D01*
X11351109Y-13172711D01*
X11406615Y-13149720D01*
X11465537Y-13138000D01*
X11525621Y-13138000D01*
X11584543Y-13149720D01*
X11640049Y-13172711D01*
X11640051Y-13172712D01*
X11665198Y-13189515D01*
X11690004Y-13206090D01*
X11732489Y-13248575D01*
X11765868Y-13298530D01*
X11788859Y-13354036D01*
X11800579Y-13412958D01*
X11800579Y-13473042D01*
X11788860Y-13531962D01*
X11766711Y-13585435D01*
X11759599Y-13608884D01*
X11757197Y-13633270D01*
X11759599Y-13657656D01*
X11766713Y-13681105D01*
X11778264Y-13702716D01*
X11793809Y-13721658D01*
X11812751Y-13737203D01*
X11834362Y-13748754D01*
X11857811Y-13755866D01*
X11882197Y-13758268D01*
X11906582Y-13755866D01*
X11948137Y-13747600D01*
X12008219Y-13747600D01*
X12049776Y-13755866D01*
X12074163Y-13758268D01*
X12098549Y-13755866D01*
X12121998Y-13748753D01*
X12143608Y-13737202D01*
X12162550Y-13721656D01*
X12178095Y-13702714D01*
X12189646Y-13681103D01*
X12196759Y-13657655D01*
X12199161Y-13633268D01*
X12196759Y-13608882D01*
X12189646Y-13585434D01*
X12167498Y-13531964D01*
X12155778Y-13473042D01*
X12155778Y-13412958D01*
X12167498Y-13354036D01*
X12190489Y-13298530D01*
X12223868Y-13248575D01*
X12266353Y-13206090D01*
X12291159Y-13189515D01*
X12316306Y-13172712D01*
X12316308Y-13172711D01*
X12371814Y-13149720D01*
X12430736Y-13138000D01*
X12490820Y-13138000D01*
X12549742Y-13149720D01*
X12605248Y-13172711D01*
X12605250Y-13172712D01*
X12630397Y-13189515D01*
X12655203Y-13206090D01*
X12697688Y-13248575D01*
X12731067Y-13298530D01*
X12754058Y-13354036D01*
X12765778Y-13412958D01*
X12765778Y-13473042D01*
X12754059Y-13531962D01*
X12731910Y-13585435D01*
X12724798Y-13608884D01*
X12722396Y-13633270D01*
X12724798Y-13657656D01*
X12731912Y-13681105D01*
X12743463Y-13702716D01*
X12759008Y-13721658D01*
X12777950Y-13737203D01*
X12799561Y-13748754D01*
X12823010Y-13755866D01*
X12847396Y-13758268D01*
X12871781Y-13755866D01*
X12913336Y-13747600D01*
X12973418Y-13747600D01*
X13014975Y-13755866D01*
X13039362Y-13758268D01*
X13063748Y-13755866D01*
X13087197Y-13748753D01*
X13108807Y-13737202D01*
X13127749Y-13721656D01*
X13143294Y-13702714D01*
X13154845Y-13681103D01*
X13161958Y-13657655D01*
X13164360Y-13633268D01*
X13161958Y-13608882D01*
X13154845Y-13585434D01*
X13132697Y-13531964D01*
X13120977Y-13473042D01*
X13120977Y-13412958D01*
X13132697Y-13354036D01*
X13155688Y-13298530D01*
X13189067Y-13248575D01*
X13231552Y-13206090D01*
X13256358Y-13189515D01*
X13281505Y-13172712D01*
X13281507Y-13172711D01*
X13337013Y-13149720D01*
X13395935Y-13138000D01*
X13456019Y-13138000D01*
X13514941Y-13149720D01*
X13570447Y-13172711D01*
X13570449Y-13172712D01*
X13595596Y-13189515D01*
X13620402Y-13206090D01*
X13662887Y-13248575D01*
X13696266Y-13298530D01*
X13719257Y-13354036D01*
X13730977Y-13412958D01*
X13730977Y-13473042D01*
X13719258Y-13531962D01*
X13697109Y-13585435D01*
X13689997Y-13608884D01*
X13687595Y-13633270D01*
X13689997Y-13657656D01*
X13697111Y-13681105D01*
X13708662Y-13702716D01*
X13724207Y-13721658D01*
X13743149Y-13737203D01*
X13764760Y-13748754D01*
X13788209Y-13755866D01*
X13812595Y-13758268D01*
X13836980Y-13755866D01*
X13878535Y-13747600D01*
X13938617Y-13747600D01*
X13980174Y-13755866D01*
X14004561Y-13758268D01*
X14028947Y-13755866D01*
X14052396Y-13748753D01*
X14074006Y-13737202D01*
X14092948Y-13721656D01*
X14108493Y-13702714D01*
X14120044Y-13681103D01*
X14127157Y-13657655D01*
X14129559Y-13633268D01*
X14127157Y-13608882D01*
X14120044Y-13585434D01*
X14097896Y-13531964D01*
X14086176Y-13473042D01*
X14086176Y-13412958D01*
X14097896Y-13354036D01*
X14120887Y-13298530D01*
X14154266Y-13248575D01*
X14196751Y-13206090D01*
X14221557Y-13189515D01*
X14246704Y-13172712D01*
X14246706Y-13172711D01*
X14302212Y-13149720D01*
X14361134Y-13138000D01*
X14421218Y-13138000D01*
X14480140Y-13149720D01*
X14535646Y-13172711D01*
X14535648Y-13172712D01*
X14560795Y-13189515D01*
X14585601Y-13206090D01*
X14628086Y-13248575D01*
X14661465Y-13298530D01*
X14684456Y-13354036D01*
X14696176Y-13412958D01*
X14696176Y-13473042D01*
X14684457Y-13531962D01*
X14662308Y-13585435D01*
X14655196Y-13608884D01*
X14652794Y-13633270D01*
X14655196Y-13657656D01*
X14662310Y-13681105D01*
X14673861Y-13702716D01*
X14689406Y-13721658D01*
X14708348Y-13737203D01*
X14729959Y-13748754D01*
X14753408Y-13755866D01*
X14777794Y-13758268D01*
X14802179Y-13755866D01*
X14843734Y-13747600D01*
X14903816Y-13747600D01*
X14945373Y-13755866D01*
X14969760Y-13758268D01*
X14994146Y-13755866D01*
X15017595Y-13748753D01*
X15039205Y-13737202D01*
X15058147Y-13721656D01*
X15073692Y-13702714D01*
X15085243Y-13681103D01*
X15092356Y-13657655D01*
X15094758Y-13633268D01*
X15092356Y-13608882D01*
X15085243Y-13585434D01*
X15063095Y-13531964D01*
X15051375Y-13473042D01*
X15051375Y-13412958D01*
X15063095Y-13354036D01*
X15086086Y-13298530D01*
X15119465Y-13248575D01*
X15161950Y-13206090D01*
X15186756Y-13189515D01*
X15211903Y-13172712D01*
X15211905Y-13172711D01*
X15267411Y-13149720D01*
X15326333Y-13138000D01*
X15386417Y-13138000D01*
X15445339Y-13149720D01*
X15500845Y-13172711D01*
X15500847Y-13172712D01*
X15525994Y-13189515D01*
X15550800Y-13206090D01*
X15593285Y-13248575D01*
X15626664Y-13298530D01*
X15649655Y-13354036D01*
X15661375Y-13412958D01*
X15661375Y-13473042D01*
X15649656Y-13531962D01*
X15627507Y-13585435D01*
X15620395Y-13608884D01*
X15617993Y-13633270D01*
X15620395Y-13657656D01*
X15627509Y-13681105D01*
X15639060Y-13702716D01*
X15654605Y-13721658D01*
X15673547Y-13737203D01*
X15695158Y-13748754D01*
X15718607Y-13755866D01*
X15742993Y-13758268D01*
X15767378Y-13755866D01*
X15808933Y-13747600D01*
X15869015Y-13747600D01*
X15910572Y-13755866D01*
X15934959Y-13758268D01*
X15959345Y-13755866D01*
X15982794Y-13748753D01*
X16004404Y-13737202D01*
X16023346Y-13721656D01*
X16038891Y-13702714D01*
X16050442Y-13681103D01*
X16057555Y-13657655D01*
X16059957Y-13633268D01*
X16057555Y-13608882D01*
X16050442Y-13585434D01*
X16028294Y-13531964D01*
X16016574Y-13473042D01*
X16016574Y-13412958D01*
X16028294Y-13354036D01*
X16051285Y-13298530D01*
X16084664Y-13248575D01*
X16127149Y-13206090D01*
X16151955Y-13189515D01*
X16177102Y-13172712D01*
X16177104Y-13172711D01*
X16232610Y-13149720D01*
X16291532Y-13138000D01*
X16351616Y-13138000D01*
X16410538Y-13149720D01*
X16466044Y-13172711D01*
X16466046Y-13172712D01*
X16491193Y-13189515D01*
X16515999Y-13206090D01*
X16558484Y-13248575D01*
X16591863Y-13298530D01*
X16614854Y-13354036D01*
X16626574Y-13412958D01*
X16626574Y-13473042D01*
X16614855Y-13531962D01*
X16592706Y-13585435D01*
X16585594Y-13608884D01*
X16583192Y-13633270D01*
X16585594Y-13657656D01*
X16592708Y-13681105D01*
X16604259Y-13702716D01*
X16619804Y-13721658D01*
X16638746Y-13737203D01*
X16660357Y-13748754D01*
X16683806Y-13755866D01*
X16708192Y-13758268D01*
X16732577Y-13755866D01*
X16774132Y-13747600D01*
X16834215Y-13747600D01*
X16893137Y-13759320D01*
X16948643Y-13782311D01*
X16948645Y-13782312D01*
X16956373Y-13787476D01*
X16998598Y-13815690D01*
X17041083Y-13858175D01*
X17045403Y-13864641D01*
X17074162Y-13907680D01*
X17074462Y-13908130D01*
X17097453Y-13963636D01*
X17109173Y-14022558D01*
X17109173Y-14082642D01*
X17097453Y-14141564D01*
X17074462Y-14197070D01*
X17041083Y-14247025D01*
X16998598Y-14289510D01*
X16977123Y-14303859D01*
X16948645Y-14322888D01*
X16948644Y-14322889D01*
X16948643Y-14322889D01*
X16893137Y-14345880D01*
X16834215Y-14357600D01*
X16774131Y-14357600D01*
X16715209Y-14345880D01*
X16659703Y-14322889D01*
X16659702Y-14322889D01*
X16659701Y-14322888D01*
X16631223Y-14303859D01*
X16609748Y-14289510D01*
X16567263Y-14247025D01*
X16533884Y-14197070D01*
X16510893Y-14141564D01*
X16499173Y-14082642D01*
X16499173Y-14022558D01*
X16510892Y-13963638D01*
X16533041Y-13910165D01*
X16540153Y-13886716D01*
X16542555Y-13862330D01*
X16540153Y-13837944D01*
X16533039Y-13814495D01*
X16521488Y-13792884D01*
X16505943Y-13773942D01*
X16487001Y-13758397D01*
X16465390Y-13746846D01*
X16441941Y-13739734D01*
X16417555Y-13737332D01*
X16393170Y-13739734D01*
X16351615Y-13748000D01*
X16291533Y-13748000D01*
X16249976Y-13739734D01*
X16225589Y-13737332D01*
X16201203Y-13739734D01*
X16177754Y-13746847D01*
X16156144Y-13758398D01*
X16137202Y-13773944D01*
X16121657Y-13792886D01*
X16110106Y-13814497D01*
X16102993Y-13837945D01*
X16100591Y-13862332D01*
X16102993Y-13886718D01*
X16110106Y-13910166D01*
X16132254Y-13963636D01*
X16143974Y-14022558D01*
X16143974Y-14082642D01*
X16132254Y-14141564D01*
X16109263Y-14197070D01*
X16075884Y-14247025D01*
X16033399Y-14289510D01*
X16011924Y-14303859D01*
X15983446Y-14322888D01*
X15983445Y-14322889D01*
X15983444Y-14322889D01*
X15927938Y-14345880D01*
X15869016Y-14357600D01*
X15808932Y-14357600D01*
X15750010Y-14345880D01*
X15694504Y-14322889D01*
X15694503Y-14322889D01*
X15694502Y-14322888D01*
X15666024Y-14303859D01*
X15644549Y-14289510D01*
X15602064Y-14247025D01*
X15568685Y-14197070D01*
X15545694Y-14141564D01*
X15533974Y-14082642D01*
X15533974Y-14022558D01*
X15545693Y-13963638D01*
X15567842Y-13910165D01*
X15574954Y-13886716D01*
X15577356Y-13862330D01*
X15574954Y-13837944D01*
X15567840Y-13814495D01*
X15556289Y-13792884D01*
X15540744Y-13773942D01*
X15521802Y-13758397D01*
X15500191Y-13746846D01*
X15476742Y-13739734D01*
X15452356Y-13737332D01*
X15427971Y-13739734D01*
X15386416Y-13748000D01*
X15326334Y-13748000D01*
X15284777Y-13739734D01*
X15260390Y-13737332D01*
X15236004Y-13739734D01*
X15212555Y-13746847D01*
X15190945Y-13758398D01*
X15172003Y-13773944D01*
X15156458Y-13792886D01*
X15144907Y-13814497D01*
X15137794Y-13837945D01*
X15135392Y-13862332D01*
X15137794Y-13886718D01*
X15144907Y-13910166D01*
X15167055Y-13963636D01*
X15178775Y-14022558D01*
X15178775Y-14082642D01*
X15167055Y-14141564D01*
X15144064Y-14197070D01*
X15110685Y-14247025D01*
X15068200Y-14289510D01*
X15046725Y-14303859D01*
X15018247Y-14322888D01*
X15018246Y-14322889D01*
X15018245Y-14322889D01*
X14962739Y-14345880D01*
X14903817Y-14357600D01*
X14843733Y-14357600D01*
X14784811Y-14345880D01*
X14729305Y-14322889D01*
X14729304Y-14322889D01*
X14729303Y-14322888D01*
X14700825Y-14303859D01*
X14679350Y-14289510D01*
X14636865Y-14247025D01*
X14603486Y-14197070D01*
X14580495Y-14141564D01*
X14568775Y-14082642D01*
X14568775Y-14022558D01*
X14580494Y-13963638D01*
X14602643Y-13910165D01*
X14609755Y-13886716D01*
X14612157Y-13862330D01*
X14609755Y-13837944D01*
X14602641Y-13814495D01*
X14591090Y-13792884D01*
X14575545Y-13773942D01*
X14556603Y-13758397D01*
X14534992Y-13746846D01*
X14511543Y-13739734D01*
X14487157Y-13737332D01*
X14462772Y-13739734D01*
X14421217Y-13748000D01*
X14361135Y-13748000D01*
X14319578Y-13739734D01*
X14295191Y-13737332D01*
X14270805Y-13739734D01*
X14247356Y-13746847D01*
X14225746Y-13758398D01*
X14206804Y-13773944D01*
X14191259Y-13792886D01*
X14179708Y-13814497D01*
X14172595Y-13837945D01*
X14170193Y-13862332D01*
X14172595Y-13886718D01*
X14179708Y-13910166D01*
X14201856Y-13963636D01*
X14213576Y-14022558D01*
X14213576Y-14082642D01*
X14201856Y-14141564D01*
X14178865Y-14197070D01*
X14145486Y-14247025D01*
X14103001Y-14289510D01*
X14081526Y-14303859D01*
X14053048Y-14322888D01*
X14053047Y-14322889D01*
X14053046Y-14322889D01*
X13997540Y-14345880D01*
X13938618Y-14357600D01*
X13878534Y-14357600D01*
X13819612Y-14345880D01*
X13764106Y-14322889D01*
X13764105Y-14322889D01*
X13764104Y-14322888D01*
X13735626Y-14303859D01*
X13714151Y-14289510D01*
X13671666Y-14247025D01*
X13638287Y-14197070D01*
X13615296Y-14141564D01*
X13603576Y-14082642D01*
X13603576Y-14022558D01*
X13615295Y-13963638D01*
X13637444Y-13910165D01*
X13644556Y-13886716D01*
X13646958Y-13862330D01*
X13644556Y-13837944D01*
X13637442Y-13814495D01*
X13625891Y-13792884D01*
X13610346Y-13773942D01*
X13591404Y-13758397D01*
X13569793Y-13746846D01*
X13546344Y-13739734D01*
X13521958Y-13737332D01*
X13497573Y-13739734D01*
X13456018Y-13748000D01*
X13395936Y-13748000D01*
X13354379Y-13739734D01*
X13329992Y-13737332D01*
X13305606Y-13739734D01*
X13282157Y-13746847D01*
X13260547Y-13758398D01*
X13241605Y-13773944D01*
X13226060Y-13792886D01*
X13214509Y-13814497D01*
X13207396Y-13837945D01*
X13204994Y-13862332D01*
X13207396Y-13886718D01*
X13214509Y-13910166D01*
X13236657Y-13963636D01*
X13248377Y-14022558D01*
X13248377Y-14082642D01*
X13236657Y-14141564D01*
X13213666Y-14197070D01*
X13180287Y-14247025D01*
X13137802Y-14289510D01*
X13116327Y-14303859D01*
X13087849Y-14322888D01*
X13087848Y-14322889D01*
X13087847Y-14322889D01*
X13032341Y-14345880D01*
X12973419Y-14357600D01*
X12913335Y-14357600D01*
X12854413Y-14345880D01*
X12798907Y-14322889D01*
X12798906Y-14322889D01*
X12798905Y-14322888D01*
X12770427Y-14303859D01*
X12748952Y-14289510D01*
X12706467Y-14247025D01*
X12673088Y-14197070D01*
X12650097Y-14141564D01*
X12638377Y-14082642D01*
X12638377Y-14022558D01*
X12650096Y-13963638D01*
X12672245Y-13910165D01*
X12679357Y-13886716D01*
X12681759Y-13862330D01*
X12679357Y-13837944D01*
X12672243Y-13814495D01*
X12660692Y-13792884D01*
X12645147Y-13773942D01*
X12626205Y-13758397D01*
X12604594Y-13746846D01*
X12581145Y-13739734D01*
X12556759Y-13737332D01*
X12532374Y-13739734D01*
X12490819Y-13748000D01*
X12430737Y-13748000D01*
X12389180Y-13739734D01*
X12364793Y-13737332D01*
X12340407Y-13739734D01*
X12316958Y-13746847D01*
X12295348Y-13758398D01*
X12276406Y-13773944D01*
X12260861Y-13792886D01*
X12249310Y-13814497D01*
X12242197Y-13837945D01*
X12239795Y-13862332D01*
X12242197Y-13886718D01*
X12249310Y-13910166D01*
X12271458Y-13963636D01*
X12283178Y-14022558D01*
X12283178Y-14082642D01*
X12271458Y-14141564D01*
X12248467Y-14197070D01*
X12215088Y-14247025D01*
X12172603Y-14289510D01*
X12151128Y-14303859D01*
X12122650Y-14322888D01*
X12122649Y-14322889D01*
X12122648Y-14322889D01*
X12067142Y-14345880D01*
X12008220Y-14357600D01*
X11948136Y-14357600D01*
X11889214Y-14345880D01*
X11833708Y-14322889D01*
X11833707Y-14322889D01*
X11833706Y-14322888D01*
X11805228Y-14303859D01*
X11783753Y-14289510D01*
X11741268Y-14247025D01*
X11707889Y-14197070D01*
X11684898Y-14141564D01*
X11673178Y-14082642D01*
X11673178Y-14022558D01*
X11684897Y-13963638D01*
X11707046Y-13910165D01*
X11714158Y-13886716D01*
X11716560Y-13862330D01*
X11714158Y-13837944D01*
X11707044Y-13814495D01*
X11695493Y-13792884D01*
X11679948Y-13773942D01*
X11661006Y-13758397D01*
X11639395Y-13746846D01*
X11615946Y-13739734D01*
X11591560Y-13737332D01*
X11567175Y-13739734D01*
X11525620Y-13748000D01*
X11465538Y-13748000D01*
X11423981Y-13739734D01*
X11399594Y-13737332D01*
X11375208Y-13739734D01*
X11351759Y-13746847D01*
X11330149Y-13758398D01*
X11311207Y-13773944D01*
X11295662Y-13792886D01*
X11284111Y-13814497D01*
X11276998Y-13837945D01*
X11274596Y-13862332D01*
X11276998Y-13886718D01*
X11284111Y-13910166D01*
X11306259Y-13963636D01*
X11317979Y-14022558D01*
X11317979Y-14082642D01*
X11306259Y-14141564D01*
X11283268Y-14197070D01*
X11249889Y-14247025D01*
X11207404Y-14289510D01*
X11185929Y-14303859D01*
X11157451Y-14322888D01*
X11157450Y-14322889D01*
X11157449Y-14322889D01*
X11101943Y-14345880D01*
X11043021Y-14357600D01*
X10982937Y-14357600D01*
X10924015Y-14345880D01*
X10868509Y-14322889D01*
X10868508Y-14322889D01*
X10868507Y-14322888D01*
X10840029Y-14303859D01*
X10818554Y-14289510D01*
X10776069Y-14247025D01*
X10742690Y-14197070D01*
X10719699Y-14141564D01*
X10707979Y-14082642D01*
X10707979Y-14022558D01*
X10719698Y-13963638D01*
X10741847Y-13910165D01*
X10748959Y-13886716D01*
X10751361Y-13862330D01*
X10748959Y-13837944D01*
X10741845Y-13814495D01*
X10730294Y-13792884D01*
X10714749Y-13773942D01*
X10695807Y-13758397D01*
X10674196Y-13746846D01*
X10650747Y-13739734D01*
X10626361Y-13737332D01*
X10601976Y-13739734D01*
X10560421Y-13748000D01*
X10500338Y-13748000D01*
X10441416Y-13736280D01*
X10385910Y-13713289D01*
X10385909Y-13713289D01*
X10385908Y-13713288D01*
X10360761Y-13696485D01*
X10335955Y-13679910D01*
X10293470Y-13637425D01*
X10260091Y-13587470D01*
X10237100Y-13531964D01*
X10225380Y-13473042D01*
X10225380Y-13412958D01*
X10237100Y-13354036D01*
X10260091Y-13298530D01*
X10293470Y-13248575D01*
X10335955Y-13206090D01*
X10360761Y-13189515D01*
X10385908Y-13172712D01*
X10385910Y-13172711D01*
X10441416Y-13149720D01*
X10500338Y-13138000D01*
X10560422Y-13138000D01*
X10619344Y-13149720D01*
X10619344Y-13149720D01*
G37*
G36*
X10619344Y-5149720D02*
G01*
X10674850Y-5172711D01*
X10674852Y-5172712D01*
X10699999Y-5189515D01*
X10724805Y-5206090D01*
X10767290Y-5248575D01*
X10800669Y-5298530D01*
X10823660Y-5354036D01*
X10835380Y-5412958D01*
X10835380Y-5473042D01*
X10823661Y-5531962D01*
X10801512Y-5585435D01*
X10794400Y-5608884D01*
X10791998Y-5633270D01*
X10794400Y-5657656D01*
X10801514Y-5681105D01*
X10813065Y-5702716D01*
X10828610Y-5721658D01*
X10847552Y-5737203D01*
X10869163Y-5748754D01*
X10892612Y-5755866D01*
X10916998Y-5758268D01*
X10941383Y-5755866D01*
X10982938Y-5747600D01*
X11043020Y-5747600D01*
X11084577Y-5755866D01*
X11108964Y-5758268D01*
X11133350Y-5755866D01*
X11156799Y-5748753D01*
X11178409Y-5737202D01*
X11197351Y-5721656D01*
X11212896Y-5702714D01*
X11224447Y-5681103D01*
X11231560Y-5657655D01*
X11233962Y-5633268D01*
X11231560Y-5608882D01*
X11224447Y-5585434D01*
X11202299Y-5531964D01*
X11190579Y-5473042D01*
X11190579Y-5412958D01*
X11202299Y-5354036D01*
X11225290Y-5298530D01*
X11258669Y-5248575D01*
X11301154Y-5206090D01*
X11325960Y-5189515D01*
X11351107Y-5172712D01*
X11351109Y-5172711D01*
X11406615Y-5149720D01*
X11465537Y-5138000D01*
X11525621Y-5138000D01*
X11584543Y-5149720D01*
X11640049Y-5172711D01*
X11640051Y-5172712D01*
X11665198Y-5189515D01*
X11690004Y-5206090D01*
X11732489Y-5248575D01*
X11765868Y-5298530D01*
X11788859Y-5354036D01*
X11800579Y-5412958D01*
X11800579Y-5473042D01*
X11788860Y-5531962D01*
X11766711Y-5585435D01*
X11759599Y-5608884D01*
X11757197Y-5633270D01*
X11759599Y-5657656D01*
X11766713Y-5681105D01*
X11778264Y-5702716D01*
X11793809Y-5721658D01*
X11812751Y-5737203D01*
X11834362Y-5748754D01*
X11857811Y-5755866D01*
X11882197Y-5758268D01*
X11906582Y-5755866D01*
X11948137Y-5747600D01*
X12008219Y-5747600D01*
X12049776Y-5755866D01*
X12074163Y-5758268D01*
X12098549Y-5755866D01*
X12121998Y-5748753D01*
X12143608Y-5737202D01*
X12162550Y-5721656D01*
X12178095Y-5702714D01*
X12189646Y-5681103D01*
X12196759Y-5657655D01*
X12199161Y-5633268D01*
X12196759Y-5608882D01*
X12189646Y-5585434D01*
X12167498Y-5531964D01*
X12155778Y-5473042D01*
X12155778Y-5412958D01*
X12167498Y-5354036D01*
X12190489Y-5298530D01*
X12223868Y-5248575D01*
X12266353Y-5206090D01*
X12291159Y-5189515D01*
X12316306Y-5172712D01*
X12316308Y-5172711D01*
X12371814Y-5149720D01*
X12430736Y-5138000D01*
X12490820Y-5138000D01*
X12549742Y-5149720D01*
X12605248Y-5172711D01*
X12605250Y-5172712D01*
X12630397Y-5189515D01*
X12655203Y-5206090D01*
X12697688Y-5248575D01*
X12731067Y-5298530D01*
X12754058Y-5354036D01*
X12765778Y-5412958D01*
X12765778Y-5473042D01*
X12754059Y-5531962D01*
X12731910Y-5585435D01*
X12724798Y-5608884D01*
X12722396Y-5633270D01*
X12724798Y-5657656D01*
X12731912Y-5681105D01*
X12743463Y-5702716D01*
X12759008Y-5721658D01*
X12777950Y-5737203D01*
X12799561Y-5748754D01*
X12823010Y-5755866D01*
X12847396Y-5758268D01*
X12871781Y-5755866D01*
X12913336Y-5747600D01*
X12973418Y-5747600D01*
X13014975Y-5755866D01*
X13039362Y-5758268D01*
X13063748Y-5755866D01*
X13087197Y-5748753D01*
X13108807Y-5737202D01*
X13127749Y-5721656D01*
X13143294Y-5702714D01*
X13154845Y-5681103D01*
X13161958Y-5657655D01*
X13164360Y-5633268D01*
X13161958Y-5608882D01*
X13154845Y-5585434D01*
X13132697Y-5531964D01*
X13120977Y-5473042D01*
X13120977Y-5412958D01*
X13132697Y-5354036D01*
X13155688Y-5298530D01*
X13189067Y-5248575D01*
X13231552Y-5206090D01*
X13256358Y-5189515D01*
X13281505Y-5172712D01*
X13281507Y-5172711D01*
X13337013Y-5149720D01*
X13395935Y-5138000D01*
X13456019Y-5138000D01*
X13514941Y-5149720D01*
X13570447Y-5172711D01*
X13570449Y-5172712D01*
X13595596Y-5189515D01*
X13620402Y-5206090D01*
X13662887Y-5248575D01*
X13696266Y-5298530D01*
X13719257Y-5354036D01*
X13730977Y-5412958D01*
X13730977Y-5473042D01*
X13719258Y-5531962D01*
X13697109Y-5585435D01*
X13689997Y-5608884D01*
X13687595Y-5633270D01*
X13689997Y-5657656D01*
X13697111Y-5681105D01*
X13708662Y-5702716D01*
X13724207Y-5721658D01*
X13743149Y-5737203D01*
X13764760Y-5748754D01*
X13788209Y-5755866D01*
X13812595Y-5758268D01*
X13836980Y-5755866D01*
X13878535Y-5747600D01*
X13938617Y-5747600D01*
X13980174Y-5755866D01*
X14004561Y-5758268D01*
X14028947Y-5755866D01*
X14052396Y-5748753D01*
X14074006Y-5737202D01*
X14092948Y-5721656D01*
X14108493Y-5702714D01*
X14120044Y-5681103D01*
X14127157Y-5657655D01*
X14129559Y-5633268D01*
X14127157Y-5608882D01*
X14120044Y-5585434D01*
X14097896Y-5531964D01*
X14086176Y-5473042D01*
X14086176Y-5412958D01*
X14097896Y-5354036D01*
X14120887Y-5298530D01*
X14154266Y-5248575D01*
X14196751Y-5206090D01*
X14221557Y-5189515D01*
X14246704Y-5172712D01*
X14246706Y-5172711D01*
X14302212Y-5149720D01*
X14361134Y-5138000D01*
X14421218Y-5138000D01*
X14480140Y-5149720D01*
X14535646Y-5172711D01*
X14535648Y-5172712D01*
X14560795Y-5189515D01*
X14585601Y-5206090D01*
X14628086Y-5248575D01*
X14661465Y-5298530D01*
X14684456Y-5354036D01*
X14696176Y-5412958D01*
X14696176Y-5473042D01*
X14684457Y-5531962D01*
X14662308Y-5585435D01*
X14655196Y-5608884D01*
X14652794Y-5633270D01*
X14655196Y-5657656D01*
X14662310Y-5681105D01*
X14673861Y-5702716D01*
X14689406Y-5721658D01*
X14708348Y-5737203D01*
X14729959Y-5748754D01*
X14753408Y-5755866D01*
X14777794Y-5758268D01*
X14802179Y-5755866D01*
X14843734Y-5747600D01*
X14903816Y-5747600D01*
X14945373Y-5755866D01*
X14969760Y-5758268D01*
X14994146Y-5755866D01*
X15017595Y-5748753D01*
X15039205Y-5737202D01*
X15058147Y-5721656D01*
X15073692Y-5702714D01*
X15085243Y-5681103D01*
X15092356Y-5657655D01*
X15094758Y-5633268D01*
X15092356Y-5608882D01*
X15085243Y-5585434D01*
X15063095Y-5531964D01*
X15051375Y-5473042D01*
X15051375Y-5412958D01*
X15063095Y-5354036D01*
X15086086Y-5298530D01*
X15119465Y-5248575D01*
X15161950Y-5206090D01*
X15186756Y-5189515D01*
X15211903Y-5172712D01*
X15211905Y-5172711D01*
X15267411Y-5149720D01*
X15326333Y-5138000D01*
X15386417Y-5138000D01*
X15445339Y-5149720D01*
X15500845Y-5172711D01*
X15500847Y-5172712D01*
X15525994Y-5189515D01*
X15550800Y-5206090D01*
X15593285Y-5248575D01*
X15626664Y-5298530D01*
X15649655Y-5354036D01*
X15661375Y-5412958D01*
X15661375Y-5473042D01*
X15649656Y-5531962D01*
X15627507Y-5585435D01*
X15620395Y-5608884D01*
X15617993Y-5633270D01*
X15620395Y-5657656D01*
X15627509Y-5681105D01*
X15639060Y-5702716D01*
X15654605Y-5721658D01*
X15673547Y-5737203D01*
X15695158Y-5748754D01*
X15718607Y-5755866D01*
X15742993Y-5758268D01*
X15767378Y-5755866D01*
X15808933Y-5747600D01*
X15869015Y-5747600D01*
X15910572Y-5755866D01*
X15934959Y-5758268D01*
X15959345Y-5755866D01*
X15982794Y-5748753D01*
X16004404Y-5737202D01*
X16023346Y-5721656D01*
X16038891Y-5702714D01*
X16050442Y-5681103D01*
X16057555Y-5657655D01*
X16059957Y-5633268D01*
X16057555Y-5608882D01*
X16050442Y-5585434D01*
X16028294Y-5531964D01*
X16016574Y-5473042D01*
X16016574Y-5412958D01*
X16028294Y-5354036D01*
X16051285Y-5298530D01*
X16084664Y-5248575D01*
X16127149Y-5206090D01*
X16151955Y-5189515D01*
X16177102Y-5172712D01*
X16177104Y-5172711D01*
X16232610Y-5149720D01*
X16291532Y-5138000D01*
X16351616Y-5138000D01*
X16410538Y-5149720D01*
X16466044Y-5172711D01*
X16466046Y-5172712D01*
X16491193Y-5189515D01*
X16515999Y-5206090D01*
X16558484Y-5248575D01*
X16591863Y-5298530D01*
X16614854Y-5354036D01*
X16626574Y-5412958D01*
X16626574Y-5473042D01*
X16614855Y-5531962D01*
X16592706Y-5585435D01*
X16585594Y-5608884D01*
X16583192Y-5633270D01*
X16585594Y-5657656D01*
X16592708Y-5681105D01*
X16604259Y-5702716D01*
X16619804Y-5721658D01*
X16638746Y-5737203D01*
X16660357Y-5748754D01*
X16683806Y-5755866D01*
X16708192Y-5758268D01*
X16732577Y-5755866D01*
X16774132Y-5747600D01*
X16834215Y-5747600D01*
X16893137Y-5759320D01*
X16948643Y-5782311D01*
X16948645Y-5782312D01*
X16964467Y-5792884D01*
X16998598Y-5815690D01*
X17041083Y-5858175D01*
X17074462Y-5908130D01*
X17097453Y-5963636D01*
X17109173Y-6022558D01*
X17109173Y-6082642D01*
X17097453Y-6141564D01*
X17074462Y-6197070D01*
X17074461Y-6197072D01*
X17041082Y-6247026D01*
X16998599Y-6289509D01*
X16948645Y-6322888D01*
X16948644Y-6322889D01*
X16948643Y-6322889D01*
X16893137Y-6345880D01*
X16834215Y-6357600D01*
X16774131Y-6357600D01*
X16715209Y-6345880D01*
X16659703Y-6322889D01*
X16659702Y-6322889D01*
X16659701Y-6322888D01*
X16609747Y-6289509D01*
X16567264Y-6247026D01*
X16533885Y-6197072D01*
X16533884Y-6197070D01*
X16510893Y-6141564D01*
X16499173Y-6082642D01*
X16499173Y-6022558D01*
X16510892Y-5963638D01*
X16533041Y-5910165D01*
X16540153Y-5886716D01*
X16542555Y-5862330D01*
X16540153Y-5837944D01*
X16533039Y-5814495D01*
X16521488Y-5792884D01*
X16505943Y-5773942D01*
X16487001Y-5758397D01*
X16465390Y-5746846D01*
X16441941Y-5739734D01*
X16417555Y-5737332D01*
X16393170Y-5739734D01*
X16351615Y-5748000D01*
X16291533Y-5748000D01*
X16249976Y-5739734D01*
X16225589Y-5737332D01*
X16201203Y-5739734D01*
X16177754Y-5746847D01*
X16156144Y-5758398D01*
X16137202Y-5773944D01*
X16121657Y-5792886D01*
X16110106Y-5814497D01*
X16102993Y-5837945D01*
X16100591Y-5862332D01*
X16102993Y-5886718D01*
X16110106Y-5910166D01*
X16132254Y-5963636D01*
X16143974Y-6022558D01*
X16143974Y-6082642D01*
X16132254Y-6141564D01*
X16109263Y-6197070D01*
X16109262Y-6197072D01*
X16075883Y-6247026D01*
X16033400Y-6289509D01*
X15983446Y-6322888D01*
X15983445Y-6322889D01*
X15983444Y-6322889D01*
X15927938Y-6345880D01*
X15869016Y-6357600D01*
X15808932Y-6357600D01*
X15750010Y-6345880D01*
X15694504Y-6322889D01*
X15694503Y-6322889D01*
X15694502Y-6322888D01*
X15644548Y-6289509D01*
X15602065Y-6247026D01*
X15568686Y-6197072D01*
X15568685Y-6197070D01*
X15545694Y-6141564D01*
X15533974Y-6082642D01*
X15533974Y-6022558D01*
X15545693Y-5963638D01*
X15567842Y-5910165D01*
X15574954Y-5886716D01*
X15577356Y-5862330D01*
X15574954Y-5837944D01*
X15567840Y-5814495D01*
X15556289Y-5792884D01*
X15540744Y-5773942D01*
X15521802Y-5758397D01*
X15500191Y-5746846D01*
X15476742Y-5739734D01*
X15452356Y-5737332D01*
X15427971Y-5739734D01*
X15386416Y-5748000D01*
X15326334Y-5748000D01*
X15284777Y-5739734D01*
X15260390Y-5737332D01*
X15236004Y-5739734D01*
X15212555Y-5746847D01*
X15190945Y-5758398D01*
X15172003Y-5773944D01*
X15156458Y-5792886D01*
X15144907Y-5814497D01*
X15137794Y-5837945D01*
X15135392Y-5862332D01*
X15137794Y-5886718D01*
X15144907Y-5910166D01*
X15167055Y-5963636D01*
X15178775Y-6022558D01*
X15178775Y-6082642D01*
X15167055Y-6141564D01*
X15144064Y-6197070D01*
X15144063Y-6197072D01*
X15110684Y-6247026D01*
X15068201Y-6289509D01*
X15018247Y-6322888D01*
X15018246Y-6322889D01*
X15018245Y-6322889D01*
X14962739Y-6345880D01*
X14903817Y-6357600D01*
X14843733Y-6357600D01*
X14784811Y-6345880D01*
X14729305Y-6322889D01*
X14729304Y-6322889D01*
X14729303Y-6322888D01*
X14679349Y-6289509D01*
X14636866Y-6247026D01*
X14603487Y-6197072D01*
X14603486Y-6197070D01*
X14580495Y-6141564D01*
X14568775Y-6082642D01*
X14568775Y-6022558D01*
X14580494Y-5963638D01*
X14602643Y-5910165D01*
X14609755Y-5886716D01*
X14612157Y-5862330D01*
X14609755Y-5837944D01*
X14602641Y-5814495D01*
X14591090Y-5792884D01*
X14575545Y-5773942D01*
X14556603Y-5758397D01*
X14534992Y-5746846D01*
X14511543Y-5739734D01*
X14487157Y-5737332D01*
X14462772Y-5739734D01*
X14421217Y-5748000D01*
X14361135Y-5748000D01*
X14319578Y-5739734D01*
X14295191Y-5737332D01*
X14270805Y-5739734D01*
X14247356Y-5746847D01*
X14225746Y-5758398D01*
X14206804Y-5773944D01*
X14191259Y-5792886D01*
X14179708Y-5814497D01*
X14172595Y-5837945D01*
X14170193Y-5862332D01*
X14172595Y-5886718D01*
X14179708Y-5910166D01*
X14201856Y-5963636D01*
X14213576Y-6022558D01*
X14213576Y-6082642D01*
X14201856Y-6141564D01*
X14178865Y-6197070D01*
X14178864Y-6197072D01*
X14145485Y-6247026D01*
X14103002Y-6289509D01*
X14053048Y-6322888D01*
X14053047Y-6322889D01*
X14053046Y-6322889D01*
X13997540Y-6345880D01*
X13938618Y-6357600D01*
X13878534Y-6357600D01*
X13819612Y-6345880D01*
X13764106Y-6322889D01*
X13764105Y-6322889D01*
X13764104Y-6322888D01*
X13714150Y-6289509D01*
X13671667Y-6247026D01*
X13638288Y-6197072D01*
X13638287Y-6197070D01*
X13615296Y-6141564D01*
X13603576Y-6082642D01*
X13603576Y-6022558D01*
X13615295Y-5963638D01*
X13637444Y-5910165D01*
X13644556Y-5886716D01*
X13646958Y-5862330D01*
X13644556Y-5837944D01*
X13637442Y-5814495D01*
X13625891Y-5792884D01*
X13610346Y-5773942D01*
X13591404Y-5758397D01*
X13569793Y-5746846D01*
X13546344Y-5739734D01*
X13521958Y-5737332D01*
X13497573Y-5739734D01*
X13456018Y-5748000D01*
X13395936Y-5748000D01*
X13354379Y-5739734D01*
X13329992Y-5737332D01*
X13305606Y-5739734D01*
X13282157Y-5746847D01*
X13260547Y-5758398D01*
X13241605Y-5773944D01*
X13226060Y-5792886D01*
X13214509Y-5814497D01*
X13207396Y-5837945D01*
X13204994Y-5862332D01*
X13207396Y-5886718D01*
X13214509Y-5910166D01*
X13236657Y-5963636D01*
X13248377Y-6022558D01*
X13248377Y-6082642D01*
X13236657Y-6141564D01*
X13213666Y-6197070D01*
X13213665Y-6197072D01*
X13180286Y-6247026D01*
X13137803Y-6289509D01*
X13087849Y-6322888D01*
X13087848Y-6322889D01*
X13087847Y-6322889D01*
X13032341Y-6345880D01*
X12973419Y-6357600D01*
X12913335Y-6357600D01*
X12854413Y-6345880D01*
X12798907Y-6322889D01*
X12798906Y-6322889D01*
X12798905Y-6322888D01*
X12748951Y-6289509D01*
X12706468Y-6247026D01*
X12673089Y-6197072D01*
X12673088Y-6197070D01*
X12650097Y-6141564D01*
X12638377Y-6082642D01*
X12638377Y-6022558D01*
X12650096Y-5963638D01*
X12672245Y-5910165D01*
X12679357Y-5886716D01*
X12681759Y-5862330D01*
X12679357Y-5837944D01*
X12672243Y-5814495D01*
X12660692Y-5792884D01*
X12645147Y-5773942D01*
X12626205Y-5758397D01*
X12604594Y-5746846D01*
X12581145Y-5739734D01*
X12556759Y-5737332D01*
X12532374Y-5739734D01*
X12490819Y-5748000D01*
X12430737Y-5748000D01*
X12389180Y-5739734D01*
X12364793Y-5737332D01*
X12340407Y-5739734D01*
X12316958Y-5746847D01*
X12295348Y-5758398D01*
X12276406Y-5773944D01*
X12260861Y-5792886D01*
X12249310Y-5814497D01*
X12242197Y-5837945D01*
X12239795Y-5862332D01*
X12242197Y-5886718D01*
X12249310Y-5910166D01*
X12271458Y-5963636D01*
X12283178Y-6022558D01*
X12283178Y-6082642D01*
X12271458Y-6141564D01*
X12248467Y-6197070D01*
X12248466Y-6197072D01*
X12215087Y-6247026D01*
X12172604Y-6289509D01*
X12122650Y-6322888D01*
X12122649Y-6322889D01*
X12122648Y-6322889D01*
X12067142Y-6345880D01*
X12008220Y-6357600D01*
X11948136Y-6357600D01*
X11889214Y-6345880D01*
X11833708Y-6322889D01*
X11833707Y-6322889D01*
X11833706Y-6322888D01*
X11783752Y-6289509D01*
X11741269Y-6247026D01*
X11707890Y-6197072D01*
X11707889Y-6197070D01*
X11684898Y-6141564D01*
X11673178Y-6082642D01*
X11673178Y-6022558D01*
X11684897Y-5963638D01*
X11707046Y-5910165D01*
X11714158Y-5886716D01*
X11716560Y-5862330D01*
X11714158Y-5837944D01*
X11707044Y-5814495D01*
X11695493Y-5792884D01*
X11679948Y-5773942D01*
X11661006Y-5758397D01*
X11639395Y-5746846D01*
X11615946Y-5739734D01*
X11591560Y-5737332D01*
X11567175Y-5739734D01*
X11525620Y-5748000D01*
X11465538Y-5748000D01*
X11423981Y-5739734D01*
X11399594Y-5737332D01*
X11375208Y-5739734D01*
X11351759Y-5746847D01*
X11330149Y-5758398D01*
X11311207Y-5773944D01*
X11295662Y-5792886D01*
X11284111Y-5814497D01*
X11276998Y-5837945D01*
X11274596Y-5862332D01*
X11276998Y-5886718D01*
X11284111Y-5910166D01*
X11306259Y-5963636D01*
X11317979Y-6022558D01*
X11317979Y-6082642D01*
X11306259Y-6141564D01*
X11283268Y-6197070D01*
X11283267Y-6197072D01*
X11249888Y-6247026D01*
X11207405Y-6289509D01*
X11157451Y-6322888D01*
X11157450Y-6322889D01*
X11157449Y-6322889D01*
X11101943Y-6345880D01*
X11043021Y-6357600D01*
X10982937Y-6357600D01*
X10924015Y-6345880D01*
X10868509Y-6322889D01*
X10868508Y-6322889D01*
X10868507Y-6322888D01*
X10818553Y-6289509D01*
X10776070Y-6247026D01*
X10742691Y-6197072D01*
X10742690Y-6197070D01*
X10719699Y-6141564D01*
X10707979Y-6082642D01*
X10707979Y-6022558D01*
X10719698Y-5963638D01*
X10741847Y-5910165D01*
X10748959Y-5886716D01*
X10751361Y-5862330D01*
X10748959Y-5837944D01*
X10741845Y-5814495D01*
X10730294Y-5792884D01*
X10714749Y-5773942D01*
X10695807Y-5758397D01*
X10674196Y-5746846D01*
X10650747Y-5739734D01*
X10626361Y-5737332D01*
X10601976Y-5739734D01*
X10560421Y-5748000D01*
X10500338Y-5748000D01*
X10441416Y-5736280D01*
X10385910Y-5713289D01*
X10385909Y-5713289D01*
X10385908Y-5713288D01*
X10360761Y-5696485D01*
X10335955Y-5679910D01*
X10293470Y-5637425D01*
X10260091Y-5587470D01*
X10237100Y-5531964D01*
X10225380Y-5473042D01*
X10225380Y-5412958D01*
X10237100Y-5354036D01*
X10260091Y-5298530D01*
X10293470Y-5248575D01*
X10335955Y-5206090D01*
X10360761Y-5189515D01*
X10385908Y-5172712D01*
X10385910Y-5172711D01*
X10441416Y-5149720D01*
X10500338Y-5138000D01*
X10560422Y-5138000D01*
X10619344Y-5149720D01*
X10619344Y-5149720D01*
G37*
G36*
X525764Y-374922D02*
G01*
X581270Y-397913D01*
X581272Y-397914D01*
X606419Y-414717D01*
X631225Y-431292D01*
X673710Y-473777D01*
X707089Y-523732D01*
X730080Y-579238D01*
X741800Y-638160D01*
X741800Y-698243D01*
X733534Y-739800D01*
X731132Y-764187D01*
X733534Y-788573D01*
X740647Y-812022D01*
X752198Y-833632D01*
X767744Y-852574D01*
X786686Y-868119D01*
X808297Y-879670D01*
X831745Y-886783D01*
X856132Y-889185D01*
X880518Y-886783D01*
X903966Y-879670D01*
X957436Y-857522D01*
X1016358Y-845802D01*
X1076442Y-845802D01*
X1135364Y-857522D01*
X1190870Y-880513D01*
X1190872Y-880514D01*
X1200254Y-886783D01*
X1240825Y-913892D01*
X1283310Y-956377D01*
X1316689Y-1006332D01*
X1339680Y-1061838D01*
X1351400Y-1120760D01*
X1351400Y-1180844D01*
X1339680Y-1239766D01*
X1316689Y-1295272D01*
X1286722Y-1340121D01*
X1283309Y-1345228D01*
X1240826Y-1387711D01*
X1190872Y-1421090D01*
X1190871Y-1421091D01*
X1190870Y-1421091D01*
X1135364Y-1444082D01*
X1076442Y-1455802D01*
X1016358Y-1455802D01*
X957438Y-1444083D01*
X903965Y-1421934D01*
X880516Y-1414822D01*
X856130Y-1412420D01*
X831744Y-1414822D01*
X808295Y-1421936D01*
X786684Y-1433487D01*
X767742Y-1449032D01*
X752197Y-1467974D01*
X740646Y-1489585D01*
X733534Y-1513034D01*
X731132Y-1537420D01*
X733534Y-1561805D01*
X741800Y-1603360D01*
X741800Y-1663442D01*
X733534Y-1704999D01*
X731132Y-1729386D01*
X733534Y-1753772D01*
X740647Y-1777221D01*
X752198Y-1798831D01*
X767744Y-1817773D01*
X786686Y-1833318D01*
X808297Y-1844869D01*
X831745Y-1851982D01*
X856132Y-1854384D01*
X880518Y-1851982D01*
X903966Y-1844869D01*
X957436Y-1822721D01*
X1016358Y-1811001D01*
X1076442Y-1811001D01*
X1135364Y-1822721D01*
X1190870Y-1845712D01*
X1190872Y-1845713D01*
X1200254Y-1851982D01*
X1240825Y-1879091D01*
X1283310Y-1921576D01*
X1316689Y-1971531D01*
X1339680Y-2027037D01*
X1351400Y-2085959D01*
X1351400Y-2146043D01*
X1339680Y-2204965D01*
X1316689Y-2260471D01*
X1286722Y-2305320D01*
X1283309Y-2310427D01*
X1240826Y-2352910D01*
X1190872Y-2386289D01*
X1190871Y-2386290D01*
X1190870Y-2386290D01*
X1135364Y-2409281D01*
X1076442Y-2421001D01*
X1016358Y-2421001D01*
X957438Y-2409282D01*
X903965Y-2387133D01*
X880516Y-2380021D01*
X856130Y-2377619D01*
X831744Y-2380021D01*
X808295Y-2387135D01*
X786684Y-2398686D01*
X767742Y-2414231D01*
X752197Y-2433173D01*
X740646Y-2454784D01*
X733534Y-2478233D01*
X731132Y-2502619D01*
X733534Y-2527004D01*
X741800Y-2568559D01*
X741800Y-2628642D01*
X730080Y-2687564D01*
X707089Y-2743070D01*
X707088Y-2743072D01*
X673709Y-2793026D01*
X631226Y-2835509D01*
X581272Y-2868888D01*
X581271Y-2868889D01*
X581270Y-2868889D01*
X525764Y-2891880D01*
X466842Y-2903600D01*
X406758Y-2903600D01*
X347836Y-2891880D01*
X292330Y-2868889D01*
X292329Y-2868889D01*
X292328Y-2868888D01*
X242374Y-2835509D01*
X199891Y-2793026D01*
X166512Y-2743072D01*
X166511Y-2743070D01*
X143520Y-2687564D01*
X131800Y-2628642D01*
X131800Y-2568558D01*
X143520Y-2509636D01*
X166511Y-2454130D01*
X199890Y-2404175D01*
X242375Y-2361690D01*
X282948Y-2334580D01*
X292328Y-2328312D01*
X292330Y-2328311D01*
X347836Y-2305320D01*
X406758Y-2293600D01*
X466842Y-2293600D01*
X525762Y-2305319D01*
X579235Y-2327468D01*
X602684Y-2334580D01*
X627070Y-2336982D01*
X651456Y-2334580D01*
X674905Y-2327466D01*
X696516Y-2315915D01*
X715458Y-2300370D01*
X731003Y-2281428D01*
X742554Y-2259817D01*
X749666Y-2236368D01*
X752068Y-2211982D01*
X749666Y-2187597D01*
X741400Y-2146042D01*
X741400Y-2085960D01*
X749666Y-2044403D01*
X752068Y-2020016D01*
X749666Y-1995630D01*
X742553Y-1972181D01*
X731002Y-1950571D01*
X715456Y-1931629D01*
X696514Y-1916084D01*
X674903Y-1904533D01*
X651455Y-1897420D01*
X627068Y-1895018D01*
X602682Y-1897420D01*
X579234Y-1904533D01*
X525764Y-1926681D01*
X466842Y-1938401D01*
X406758Y-1938401D01*
X347836Y-1926681D01*
X292330Y-1903690D01*
X292329Y-1903690D01*
X292328Y-1903689D01*
X242374Y-1870310D01*
X199891Y-1827827D01*
X166512Y-1777873D01*
X156529Y-1753772D01*
X143520Y-1722365D01*
X131800Y-1663443D01*
X131800Y-1603359D01*
X143520Y-1544437D01*
X166511Y-1488931D01*
X199890Y-1438976D01*
X242375Y-1396491D01*
X282948Y-1369381D01*
X292328Y-1363113D01*
X292330Y-1363112D01*
X347836Y-1340121D01*
X406758Y-1328401D01*
X466842Y-1328401D01*
X525762Y-1340120D01*
X579235Y-1362269D01*
X602684Y-1369381D01*
X627070Y-1371783D01*
X651456Y-1369381D01*
X674905Y-1362267D01*
X696516Y-1350716D01*
X715458Y-1335171D01*
X731003Y-1316229D01*
X742554Y-1294618D01*
X749666Y-1271169D01*
X752068Y-1246783D01*
X749666Y-1222398D01*
X741400Y-1180843D01*
X741400Y-1120761D01*
X749666Y-1079204D01*
X752068Y-1054817D01*
X749666Y-1030431D01*
X742553Y-1006982D01*
X731002Y-985372D01*
X715456Y-966430D01*
X696514Y-950885D01*
X674903Y-939334D01*
X651455Y-932221D01*
X627068Y-929819D01*
X602682Y-932221D01*
X579234Y-939334D01*
X525764Y-961482D01*
X466842Y-973202D01*
X406758Y-973202D01*
X347836Y-961482D01*
X292330Y-938491D01*
X292329Y-938491D01*
X292328Y-938490D01*
X242374Y-905111D01*
X199891Y-862628D01*
X166512Y-812674D01*
X156529Y-788573D01*
X143520Y-757166D01*
X131800Y-698244D01*
X131800Y-638160D01*
X143520Y-579238D01*
X166511Y-523732D01*
X199890Y-473777D01*
X242375Y-431292D01*
X267181Y-414717D01*
X292328Y-397914D01*
X292330Y-397913D01*
X347836Y-374922D01*
X406758Y-363202D01*
X466842Y-363202D01*
X525764Y-374922D01*
X525764Y-374922D01*
G37*
G36*
X10525764Y-374922D02*
G01*
X10581270Y-397913D01*
X10581272Y-397914D01*
X10606419Y-414717D01*
X10631225Y-431292D01*
X10673710Y-473777D01*
X10707089Y-523732D01*
X10730080Y-579238D01*
X10741800Y-638160D01*
X10741800Y-698243D01*
X10733534Y-739800D01*
X10731132Y-764187D01*
X10733534Y-788573D01*
X10740647Y-812022D01*
X10752198Y-833632D01*
X10767744Y-852574D01*
X10786686Y-868119D01*
X10808297Y-879670D01*
X10831745Y-886783D01*
X10856132Y-889185D01*
X10880518Y-886783D01*
X10903966Y-879670D01*
X10957436Y-857522D01*
X11016358Y-845802D01*
X11076442Y-845802D01*
X11135364Y-857522D01*
X11190870Y-880513D01*
X11190872Y-880514D01*
X11200254Y-886783D01*
X11240825Y-913892D01*
X11283310Y-956377D01*
X11316689Y-1006332D01*
X11339680Y-1061838D01*
X11351400Y-1120760D01*
X11351400Y-1180844D01*
X11339680Y-1239766D01*
X11316689Y-1295272D01*
X11286722Y-1340121D01*
X11283309Y-1345228D01*
X11240826Y-1387711D01*
X11190872Y-1421090D01*
X11190871Y-1421091D01*
X11190870Y-1421091D01*
X11135364Y-1444082D01*
X11076442Y-1455802D01*
X11016358Y-1455802D01*
X10957438Y-1444083D01*
X10903965Y-1421934D01*
X10880516Y-1414822D01*
X10856130Y-1412420D01*
X10831744Y-1414822D01*
X10808295Y-1421936D01*
X10786684Y-1433487D01*
X10767742Y-1449032D01*
X10752197Y-1467974D01*
X10740646Y-1489585D01*
X10733534Y-1513034D01*
X10731132Y-1537420D01*
X10733534Y-1561805D01*
X10741800Y-1603360D01*
X10741800Y-1663442D01*
X10733534Y-1704999D01*
X10731132Y-1729386D01*
X10733534Y-1753772D01*
X10740647Y-1777221D01*
X10752198Y-1798831D01*
X10767744Y-1817773D01*
X10786686Y-1833318D01*
X10808297Y-1844869D01*
X10831745Y-1851982D01*
X10856132Y-1854384D01*
X10880518Y-1851982D01*
X10903966Y-1844869D01*
X10957436Y-1822721D01*
X11016358Y-1811001D01*
X11076442Y-1811001D01*
X11135364Y-1822721D01*
X11190870Y-1845712D01*
X11190872Y-1845713D01*
X11200254Y-1851982D01*
X11240825Y-1879091D01*
X11283310Y-1921576D01*
X11316689Y-1971531D01*
X11339680Y-2027037D01*
X11351400Y-2085959D01*
X11351400Y-2146043D01*
X11339680Y-2204965D01*
X11316689Y-2260471D01*
X11286722Y-2305320D01*
X11283309Y-2310427D01*
X11240826Y-2352910D01*
X11190872Y-2386289D01*
X11190871Y-2386290D01*
X11190870Y-2386290D01*
X11135364Y-2409281D01*
X11076442Y-2421001D01*
X11016358Y-2421001D01*
X10957438Y-2409282D01*
X10903965Y-2387133D01*
X10880516Y-2380021D01*
X10856130Y-2377619D01*
X10831744Y-2380021D01*
X10808295Y-2387135D01*
X10786684Y-2398686D01*
X10767742Y-2414231D01*
X10752197Y-2433173D01*
X10740646Y-2454784D01*
X10733534Y-2478233D01*
X10731132Y-2502619D01*
X10733534Y-2527004D01*
X10741800Y-2568559D01*
X10741800Y-2628642D01*
X10730080Y-2687564D01*
X10707089Y-2743070D01*
X10707088Y-2743072D01*
X10673709Y-2793026D01*
X10631226Y-2835509D01*
X10581272Y-2868888D01*
X10581271Y-2868889D01*
X10581270Y-2868889D01*
X10525764Y-2891880D01*
X10466842Y-2903600D01*
X10406758Y-2903600D01*
X10347836Y-2891880D01*
X10292330Y-2868889D01*
X10292329Y-2868889D01*
X10292328Y-2868888D01*
X10242374Y-2835509D01*
X10199891Y-2793026D01*
X10166512Y-2743072D01*
X10166511Y-2743070D01*
X10143520Y-2687564D01*
X10131800Y-2628642D01*
X10131800Y-2568558D01*
X10143520Y-2509636D01*
X10166511Y-2454130D01*
X10199890Y-2404175D01*
X10242375Y-2361690D01*
X10282948Y-2334580D01*
X10292328Y-2328312D01*
X10292330Y-2328311D01*
X10347836Y-2305320D01*
X10406758Y-2293600D01*
X10466842Y-2293600D01*
X10525762Y-2305319D01*
X10579235Y-2327468D01*
X10602684Y-2334580D01*
X10627070Y-2336982D01*
X10651456Y-2334580D01*
X10674905Y-2327466D01*
X10696516Y-2315915D01*
X10715458Y-2300370D01*
X10731003Y-2281428D01*
X10742554Y-2259817D01*
X10749666Y-2236368D01*
X10752068Y-2211982D01*
X10749666Y-2187597D01*
X10741400Y-2146042D01*
X10741400Y-2085960D01*
X10749666Y-2044403D01*
X10752068Y-2020016D01*
X10749666Y-1995630D01*
X10742553Y-1972181D01*
X10731002Y-1950571D01*
X10715456Y-1931629D01*
X10696514Y-1916084D01*
X10674903Y-1904533D01*
X10651455Y-1897420D01*
X10627068Y-1895018D01*
X10602682Y-1897420D01*
X10579234Y-1904533D01*
X10525764Y-1926681D01*
X10466842Y-1938401D01*
X10406758Y-1938401D01*
X10347836Y-1926681D01*
X10292330Y-1903690D01*
X10292329Y-1903690D01*
X10292328Y-1903689D01*
X10242374Y-1870310D01*
X10199891Y-1827827D01*
X10166512Y-1777873D01*
X10156529Y-1753772D01*
X10143520Y-1722365D01*
X10131800Y-1663443D01*
X10131800Y-1603359D01*
X10143520Y-1544437D01*
X10166511Y-1488931D01*
X10199890Y-1438976D01*
X10242375Y-1396491D01*
X10282948Y-1369381D01*
X10292328Y-1363113D01*
X10292330Y-1363112D01*
X10347836Y-1340121D01*
X10406758Y-1328401D01*
X10466842Y-1328401D01*
X10525762Y-1340120D01*
X10579235Y-1362269D01*
X10602684Y-1369381D01*
X10627070Y-1371783D01*
X10651456Y-1369381D01*
X10674905Y-1362267D01*
X10696516Y-1350716D01*
X10715458Y-1335171D01*
X10731003Y-1316229D01*
X10742554Y-1294618D01*
X10749666Y-1271169D01*
X10752068Y-1246783D01*
X10749666Y-1222398D01*
X10741400Y-1180843D01*
X10741400Y-1120761D01*
X10749666Y-1079204D01*
X10752068Y-1054817D01*
X10749666Y-1030431D01*
X10742553Y-1006982D01*
X10731002Y-985372D01*
X10715456Y-966430D01*
X10696514Y-950885D01*
X10674903Y-939334D01*
X10651455Y-932221D01*
X10627068Y-929819D01*
X10602682Y-932221D01*
X10579234Y-939334D01*
X10525764Y-961482D01*
X10466842Y-973202D01*
X10406758Y-973202D01*
X10347836Y-961482D01*
X10292330Y-938491D01*
X10292329Y-938491D01*
X10292328Y-938490D01*
X10242374Y-905111D01*
X10199891Y-862628D01*
X10166512Y-812674D01*
X10156529Y-788573D01*
X10143520Y-757166D01*
X10131800Y-698244D01*
X10131800Y-638160D01*
X10143520Y-579238D01*
X10166511Y-523732D01*
X10199890Y-473777D01*
X10242375Y-431292D01*
X10267181Y-414717D01*
X10292328Y-397914D01*
X10292330Y-397913D01*
X10347836Y-374922D01*
X10406758Y-363202D01*
X10466842Y-363202D01*
X10525764Y-374922D01*
X10525764Y-374922D01*
G37*
M02*
