M48
; DRILL file {KiCad (5.1.0)-1} date 5/3/2019 10:13:56 PM
; FORMAT={-:-/ absolute / inch / decimal}
; #@! TF.CreationDate,2019-05-03T22:13:56-07:00
; #@! TF.GenerationSoftware,Kicad,Pcbnew,(5.1.0)-1
; #@! TF.FileFunction,Plated,1,2,PTH
FMAT,2
INCH
T1C0.0100
%
G90
G05
T1
X0.0172Y-0.0263
X0.0172Y-0.0643
X0.0172Y-0.1023
X0.0412Y-0.0453
X0.0412Y-0.0833
X0.4109Y-0.0263
X0.4109Y-0.0643
X0.4109Y-0.1023
X0.4349Y-0.0453
X0.4349Y-0.0833
X0.4146Y-0.5293
X0.4336Y-0.5533
X0.4526Y-0.5293
X0.4716Y-0.5533
X0.4906Y-0.5293
X0.5096Y-0.5533
X0.5286Y-0.5293
X0.5476Y-0.5533
X0.5666Y-0.5293
X0.5856Y-0.5533
X0.6046Y-0.5293
X0.6236Y-0.5533
X0.6426Y-0.5293
X0.6616Y-0.5533
X0.7055Y-0.5562
X0.7055Y-0.5942
X0.7055Y-0.6322
X0.7055Y-0.6702
X0.7055Y-0.7082
X0.7055Y-0.7462
X0.7055Y-0.7842
X0.7055Y-0.8222
X0.7055Y-0.8602
X0.7055Y-0.8982
X0.7295Y-0.5372
X0.7295Y-0.5752
X0.7295Y-0.6132
X0.7295Y-0.6512
X0.7295Y-0.6892
X0.7295Y-0.7272
X0.7295Y-0.7652
X0.7295Y-0.8032
X0.7295Y-0.8412
X0.7295Y-0.8792
X0.4146Y-0.2143
X0.4336Y-0.2383
X0.4526Y-0.2143
X0.4716Y-0.2383
X0.4906Y-0.2143
X0.5096Y-0.2383
X0.5286Y-0.2143
X0.5476Y-0.2383
X0.5666Y-0.2143
X0.5856Y-0.2383
X0.6046Y-0.2143
X0.6236Y-0.2383
X0.6426Y-0.2143
X0.6616Y-0.2383
X0.9417Y-0.5562
X0.9417Y-0.5942
X0.9417Y-0.6322
X0.9417Y-0.6702
X0.9417Y-0.7082
X0.9417Y-0.7462
X0.9417Y-0.7842
X0.9417Y-0.8222
X0.9417Y-0.8602
X0.9417Y-0.8982
X0.9657Y-0.5372
X0.9657Y-0.5752
X0.9657Y-0.6132
X0.9657Y-0.6512
X0.9657Y-0.6892
X0.9657Y-0.7272
X0.9657Y-0.7652
X0.9657Y-0.8032
X0.9657Y-0.8412
X0.9657Y-0.8792
T0
M30
