G04 #@! TF.GenerationSoftware,KiCad,Pcbnew,(5.1.0)-1*
G04 #@! TF.CreationDate,2019-09-04T17:57:14-07:00*
G04 #@! TF.ProjectId,Miniscope-v4-FlexPC,4d696e69-7363-46f7-9065-2d76342d466c,rev?*
G04 #@! TF.SameCoordinates,Original*
G04 #@! TF.FileFunction,Soldermask,Top*
G04 #@! TF.FilePolarity,Negative*
%FSLAX46Y46*%
G04 Gerber Fmt 4.6, Leading zero omitted, Abs format (unit mm)*
G04 Created by KiCad (PCBNEW (5.1.0)-1) date 2019-09-04 17:57:14*
%MOMM*%
%LPD*%
G04 APERTURE LIST*
%ADD10C,0.100000*%
G04 APERTURE END LIST*
D10*
G36*
X41367804Y-28100380D02*
G01*
X41423310Y-28123371D01*
X41423312Y-28123372D01*
X41448459Y-28140175D01*
X41473265Y-28156750D01*
X41515750Y-28199235D01*
X41549129Y-28249190D01*
X41572120Y-28304696D01*
X41583840Y-28363618D01*
X41583840Y-28423702D01*
X41572120Y-28482624D01*
X41555005Y-28523944D01*
X41549128Y-28538132D01*
X41545951Y-28542886D01*
X41515844Y-28587945D01*
X41515749Y-28588086D01*
X41473266Y-28630569D01*
X41423312Y-28663948D01*
X41423311Y-28663949D01*
X41423310Y-28663949D01*
X41367804Y-28686940D01*
X41308882Y-28698660D01*
X41248798Y-28698660D01*
X41189878Y-28686941D01*
X41136405Y-28664792D01*
X41112956Y-28657680D01*
X41088570Y-28655278D01*
X41064184Y-28657680D01*
X41040735Y-28664794D01*
X41019124Y-28676345D01*
X41000182Y-28691890D01*
X40984637Y-28710832D01*
X40973086Y-28732443D01*
X40965974Y-28755892D01*
X40963572Y-28780278D01*
X40965974Y-28804663D01*
X40974240Y-28846218D01*
X40974240Y-28906300D01*
X40965974Y-28947857D01*
X40963572Y-28972244D01*
X40965974Y-28996630D01*
X40973087Y-29020079D01*
X40984638Y-29041689D01*
X41000184Y-29060631D01*
X41019126Y-29076176D01*
X41040737Y-29087727D01*
X41064185Y-29094840D01*
X41088572Y-29097242D01*
X41112958Y-29094840D01*
X41136406Y-29087727D01*
X41189876Y-29065579D01*
X41248798Y-29053859D01*
X41308882Y-29053859D01*
X41367804Y-29065579D01*
X41423310Y-29088570D01*
X41423312Y-29088571D01*
X41432694Y-29094840D01*
X41473265Y-29121949D01*
X41515750Y-29164434D01*
X41549129Y-29214389D01*
X41572120Y-29269895D01*
X41583840Y-29328817D01*
X41583840Y-29388901D01*
X41572120Y-29447823D01*
X41549129Y-29503329D01*
X41519162Y-29548178D01*
X41515749Y-29553285D01*
X41473266Y-29595768D01*
X41423312Y-29629147D01*
X41423311Y-29629148D01*
X41423310Y-29629148D01*
X41367804Y-29652139D01*
X41308882Y-29663859D01*
X41248798Y-29663859D01*
X41189878Y-29652140D01*
X41136405Y-29629991D01*
X41112956Y-29622879D01*
X41088570Y-29620477D01*
X41064184Y-29622879D01*
X41040735Y-29629993D01*
X41019124Y-29641544D01*
X41000182Y-29657089D01*
X40984637Y-29676031D01*
X40973086Y-29697642D01*
X40965974Y-29721091D01*
X40963572Y-29745477D01*
X40965974Y-29769862D01*
X40974240Y-29811417D01*
X40974240Y-29871499D01*
X40965974Y-29913056D01*
X40963572Y-29937443D01*
X40965974Y-29961829D01*
X40973087Y-29985278D01*
X40984638Y-30006888D01*
X41000184Y-30025830D01*
X41019126Y-30041375D01*
X41040737Y-30052926D01*
X41064185Y-30060039D01*
X41088572Y-30062441D01*
X41112958Y-30060039D01*
X41136406Y-30052926D01*
X41189876Y-30030778D01*
X41248798Y-30019058D01*
X41308882Y-30019058D01*
X41367804Y-30030778D01*
X41423310Y-30053769D01*
X41423312Y-30053770D01*
X41432694Y-30060039D01*
X41473265Y-30087148D01*
X41515750Y-30129633D01*
X41549129Y-30179588D01*
X41572120Y-30235094D01*
X41583840Y-30294016D01*
X41583840Y-30354100D01*
X41572120Y-30413022D01*
X41549129Y-30468528D01*
X41519162Y-30513377D01*
X41515749Y-30518484D01*
X41473266Y-30560967D01*
X41423312Y-30594346D01*
X41423311Y-30594347D01*
X41423310Y-30594347D01*
X41367804Y-30617338D01*
X41308882Y-30629058D01*
X41248798Y-30629058D01*
X41189878Y-30617339D01*
X41136405Y-30595190D01*
X41112956Y-30588078D01*
X41088570Y-30585676D01*
X41064184Y-30588078D01*
X41040735Y-30595192D01*
X41019124Y-30606743D01*
X41000182Y-30622288D01*
X40984637Y-30641230D01*
X40973086Y-30662841D01*
X40965974Y-30686290D01*
X40963572Y-30710676D01*
X40965974Y-30735061D01*
X40974240Y-30776616D01*
X40974240Y-30836698D01*
X40965974Y-30878255D01*
X40963572Y-30902642D01*
X40965974Y-30927028D01*
X40973087Y-30950477D01*
X40984638Y-30972087D01*
X41000184Y-30991029D01*
X41019126Y-31006574D01*
X41040737Y-31018125D01*
X41064185Y-31025238D01*
X41088572Y-31027640D01*
X41112958Y-31025238D01*
X41136406Y-31018125D01*
X41189876Y-30995977D01*
X41248798Y-30984257D01*
X41308882Y-30984257D01*
X41367804Y-30995977D01*
X41423310Y-31018968D01*
X41423312Y-31018969D01*
X41432694Y-31025238D01*
X41473265Y-31052347D01*
X41515750Y-31094832D01*
X41549129Y-31144787D01*
X41572120Y-31200293D01*
X41583840Y-31259215D01*
X41583840Y-31319299D01*
X41572120Y-31378221D01*
X41549129Y-31433727D01*
X41519162Y-31478576D01*
X41515749Y-31483683D01*
X41473266Y-31526166D01*
X41423312Y-31559545D01*
X41423311Y-31559546D01*
X41423310Y-31559546D01*
X41367804Y-31582537D01*
X41308882Y-31594257D01*
X41248798Y-31594257D01*
X41189878Y-31582538D01*
X41136405Y-31560389D01*
X41112956Y-31553277D01*
X41088570Y-31550875D01*
X41064184Y-31553277D01*
X41040735Y-31560391D01*
X41019124Y-31571942D01*
X41000182Y-31587487D01*
X40984637Y-31606429D01*
X40973086Y-31628040D01*
X40965974Y-31651489D01*
X40963572Y-31675875D01*
X40965974Y-31700260D01*
X40974240Y-31741815D01*
X40974240Y-31801897D01*
X40965974Y-31843454D01*
X40963572Y-31867841D01*
X40965974Y-31892227D01*
X40973087Y-31915676D01*
X40984638Y-31937286D01*
X41000184Y-31956228D01*
X41019126Y-31971773D01*
X41040737Y-31983324D01*
X41064185Y-31990437D01*
X41088572Y-31992839D01*
X41112958Y-31990437D01*
X41136406Y-31983324D01*
X41189876Y-31961176D01*
X41248798Y-31949456D01*
X41308882Y-31949456D01*
X41367804Y-31961176D01*
X41423310Y-31984167D01*
X41423312Y-31984168D01*
X41432694Y-31990437D01*
X41473265Y-32017546D01*
X41515750Y-32060031D01*
X41549129Y-32109986D01*
X41572120Y-32165492D01*
X41583840Y-32224414D01*
X41583840Y-32284498D01*
X41572120Y-32343420D01*
X41549129Y-32398926D01*
X41519162Y-32443775D01*
X41515749Y-32448882D01*
X41473266Y-32491365D01*
X41423312Y-32524744D01*
X41423311Y-32524745D01*
X41423310Y-32524745D01*
X41367804Y-32547736D01*
X41308882Y-32559456D01*
X41248798Y-32559456D01*
X41189878Y-32547737D01*
X41136405Y-32525588D01*
X41112956Y-32518476D01*
X41088570Y-32516074D01*
X41064184Y-32518476D01*
X41040735Y-32525590D01*
X41019124Y-32537141D01*
X41000182Y-32552686D01*
X40984637Y-32571628D01*
X40973086Y-32593239D01*
X40965974Y-32616688D01*
X40963572Y-32641074D01*
X40965974Y-32665459D01*
X40974240Y-32707014D01*
X40974240Y-32767096D01*
X40965974Y-32808653D01*
X40963572Y-32833040D01*
X40965974Y-32857426D01*
X40973087Y-32880875D01*
X40984638Y-32902485D01*
X41000184Y-32921427D01*
X41019126Y-32936972D01*
X41040737Y-32948523D01*
X41064185Y-32955636D01*
X41088572Y-32958038D01*
X41112958Y-32955636D01*
X41136406Y-32948523D01*
X41189876Y-32926375D01*
X41248798Y-32914655D01*
X41308882Y-32914655D01*
X41367804Y-32926375D01*
X41423310Y-32949366D01*
X41423312Y-32949367D01*
X41432694Y-32955636D01*
X41473265Y-32982745D01*
X41515750Y-33025230D01*
X41549129Y-33075185D01*
X41572120Y-33130691D01*
X41583840Y-33189613D01*
X41583840Y-33249697D01*
X41572120Y-33308619D01*
X41549129Y-33364125D01*
X41519162Y-33408974D01*
X41515749Y-33414081D01*
X41473266Y-33456564D01*
X41423312Y-33489943D01*
X41423311Y-33489944D01*
X41423310Y-33489944D01*
X41367804Y-33512935D01*
X41308882Y-33524655D01*
X41248798Y-33524655D01*
X41189878Y-33512936D01*
X41136405Y-33490787D01*
X41112956Y-33483675D01*
X41088570Y-33481273D01*
X41064184Y-33483675D01*
X41040735Y-33490789D01*
X41019124Y-33502340D01*
X41000182Y-33517885D01*
X40984637Y-33536827D01*
X40973086Y-33558438D01*
X40965974Y-33581887D01*
X40963572Y-33606273D01*
X40965974Y-33630658D01*
X40974240Y-33672213D01*
X40974240Y-33732295D01*
X40965974Y-33773852D01*
X40963572Y-33798239D01*
X40965974Y-33822625D01*
X40973087Y-33846074D01*
X40984638Y-33867684D01*
X41000184Y-33886626D01*
X41019126Y-33902171D01*
X41040737Y-33913722D01*
X41064185Y-33920835D01*
X41088572Y-33923237D01*
X41112958Y-33920835D01*
X41136406Y-33913722D01*
X41189876Y-33891574D01*
X41248798Y-33879854D01*
X41308882Y-33879854D01*
X41367804Y-33891574D01*
X41423310Y-33914565D01*
X41423312Y-33914566D01*
X41432694Y-33920835D01*
X41473265Y-33947944D01*
X41515750Y-33990429D01*
X41549129Y-34040384D01*
X41572120Y-34095890D01*
X41583840Y-34154812D01*
X41583840Y-34214896D01*
X41572120Y-34273818D01*
X41549129Y-34329324D01*
X41519162Y-34374173D01*
X41515749Y-34379280D01*
X41473266Y-34421763D01*
X41423312Y-34455142D01*
X41423311Y-34455143D01*
X41423310Y-34455143D01*
X41367804Y-34478134D01*
X41308882Y-34489854D01*
X41248798Y-34489854D01*
X41189878Y-34478135D01*
X41136405Y-34455986D01*
X41112956Y-34448874D01*
X41088570Y-34446472D01*
X41064184Y-34448874D01*
X41040735Y-34455988D01*
X41019124Y-34467539D01*
X41000182Y-34483084D01*
X40984637Y-34502026D01*
X40973086Y-34523637D01*
X40965974Y-34547086D01*
X40963572Y-34571472D01*
X40965974Y-34595857D01*
X40974240Y-34637412D01*
X40974240Y-34697494D01*
X40965974Y-34739051D01*
X40963572Y-34763438D01*
X40965974Y-34787824D01*
X40973087Y-34811273D01*
X40984638Y-34832883D01*
X41000184Y-34851825D01*
X41019126Y-34867370D01*
X41040737Y-34878921D01*
X41064185Y-34886034D01*
X41088572Y-34888436D01*
X41112958Y-34886034D01*
X41136406Y-34878921D01*
X41189876Y-34856773D01*
X41248798Y-34845053D01*
X41308882Y-34845053D01*
X41367804Y-34856773D01*
X41423310Y-34879764D01*
X41423312Y-34879765D01*
X41432694Y-34886034D01*
X41473265Y-34913143D01*
X41515750Y-34955628D01*
X41549129Y-35005583D01*
X41572120Y-35061089D01*
X41583840Y-35120011D01*
X41583840Y-35180095D01*
X41572120Y-35239017D01*
X41549129Y-35294523D01*
X41519162Y-35339372D01*
X41515749Y-35344479D01*
X41473266Y-35386962D01*
X41423312Y-35420341D01*
X41423311Y-35420342D01*
X41423310Y-35420342D01*
X41367804Y-35443333D01*
X41308882Y-35455053D01*
X41248798Y-35455053D01*
X41189878Y-35443334D01*
X41136405Y-35421185D01*
X41112956Y-35414073D01*
X41088570Y-35411671D01*
X41064184Y-35414073D01*
X41040735Y-35421187D01*
X41019124Y-35432738D01*
X41000182Y-35448283D01*
X40984637Y-35467225D01*
X40973086Y-35488836D01*
X40965974Y-35512285D01*
X40963572Y-35536671D01*
X40965974Y-35561056D01*
X40974240Y-35602611D01*
X40974240Y-35662693D01*
X40965974Y-35704250D01*
X40963572Y-35728637D01*
X40965974Y-35753023D01*
X40973087Y-35776472D01*
X40984638Y-35798082D01*
X41000184Y-35817024D01*
X41019126Y-35832569D01*
X41040737Y-35844120D01*
X41064185Y-35851233D01*
X41088572Y-35853635D01*
X41112958Y-35851233D01*
X41136406Y-35844120D01*
X41189876Y-35821972D01*
X41248798Y-35810252D01*
X41308882Y-35810252D01*
X41367804Y-35821972D01*
X41423310Y-35844963D01*
X41423312Y-35844964D01*
X41432694Y-35851233D01*
X41473265Y-35878342D01*
X41515750Y-35920827D01*
X41549129Y-35970782D01*
X41572120Y-36026288D01*
X41583840Y-36085210D01*
X41583840Y-36145294D01*
X41572120Y-36204216D01*
X41549129Y-36259722D01*
X41519162Y-36304571D01*
X41515749Y-36309678D01*
X41473266Y-36352161D01*
X41423312Y-36385540D01*
X41423311Y-36385541D01*
X41423310Y-36385541D01*
X41367804Y-36408532D01*
X41308882Y-36420252D01*
X41248798Y-36420252D01*
X41189878Y-36408533D01*
X41136405Y-36386384D01*
X41112956Y-36379272D01*
X41088570Y-36376870D01*
X41064184Y-36379272D01*
X41040735Y-36386386D01*
X41019124Y-36397937D01*
X41000182Y-36413482D01*
X40984637Y-36432424D01*
X40973086Y-36454035D01*
X40965974Y-36477484D01*
X40963572Y-36501870D01*
X40965974Y-36526255D01*
X40974240Y-36567810D01*
X40974240Y-36627892D01*
X40965974Y-36669449D01*
X40963572Y-36693836D01*
X40965974Y-36718222D01*
X40973087Y-36741671D01*
X40984638Y-36763281D01*
X41000184Y-36782223D01*
X41019126Y-36797768D01*
X41040737Y-36809319D01*
X41064185Y-36816432D01*
X41088572Y-36818834D01*
X41112958Y-36816432D01*
X41136406Y-36809319D01*
X41189876Y-36787171D01*
X41248798Y-36775451D01*
X41308882Y-36775451D01*
X41367804Y-36787171D01*
X41423310Y-36810162D01*
X41423312Y-36810163D01*
X41432694Y-36816432D01*
X41473265Y-36843541D01*
X41515750Y-36886026D01*
X41549129Y-36935981D01*
X41572120Y-36991487D01*
X41583840Y-37050409D01*
X41583840Y-37110493D01*
X41572120Y-37169415D01*
X41549129Y-37224921D01*
X41519162Y-37269770D01*
X41515749Y-37274877D01*
X41473266Y-37317360D01*
X41423312Y-37350739D01*
X41423311Y-37350740D01*
X41423310Y-37350740D01*
X41367804Y-37373731D01*
X41308882Y-37385451D01*
X41248798Y-37385451D01*
X41189878Y-37373732D01*
X41136405Y-37351583D01*
X41112956Y-37344471D01*
X41088570Y-37342069D01*
X41064184Y-37344471D01*
X41040735Y-37351585D01*
X41019124Y-37363136D01*
X41000182Y-37378681D01*
X40984637Y-37397623D01*
X40973086Y-37419234D01*
X40965974Y-37442683D01*
X40963572Y-37467069D01*
X40965974Y-37491454D01*
X40974240Y-37533009D01*
X40974240Y-37593092D01*
X40962520Y-37652014D01*
X40939529Y-37707520D01*
X40939528Y-37707522D01*
X40906149Y-37757476D01*
X40863666Y-37799959D01*
X40813712Y-37833338D01*
X40813711Y-37833339D01*
X40813710Y-37833339D01*
X40758204Y-37856330D01*
X40699282Y-37868050D01*
X40639198Y-37868050D01*
X40580276Y-37856330D01*
X40524770Y-37833339D01*
X40524769Y-37833339D01*
X40524768Y-37833338D01*
X40474814Y-37799959D01*
X40432331Y-37757476D01*
X40398952Y-37707522D01*
X40398951Y-37707520D01*
X40375960Y-37652014D01*
X40364240Y-37593092D01*
X40364240Y-37533008D01*
X40375960Y-37474086D01*
X40398951Y-37418580D01*
X40432330Y-37368625D01*
X40474815Y-37326140D01*
X40515388Y-37299030D01*
X40524768Y-37292762D01*
X40524770Y-37292761D01*
X40580276Y-37269770D01*
X40639198Y-37258050D01*
X40699282Y-37258050D01*
X40758202Y-37269769D01*
X40811675Y-37291918D01*
X40835124Y-37299030D01*
X40859510Y-37301432D01*
X40883896Y-37299030D01*
X40907345Y-37291916D01*
X40928956Y-37280365D01*
X40947898Y-37264820D01*
X40963443Y-37245878D01*
X40974994Y-37224267D01*
X40982106Y-37200818D01*
X40984508Y-37176432D01*
X40982106Y-37152047D01*
X40973840Y-37110492D01*
X40973840Y-37050410D01*
X40982106Y-37008853D01*
X40984508Y-36984466D01*
X40982106Y-36960080D01*
X40974993Y-36936631D01*
X40963442Y-36915021D01*
X40947896Y-36896079D01*
X40928954Y-36880534D01*
X40907343Y-36868983D01*
X40883895Y-36861870D01*
X40859508Y-36859468D01*
X40835122Y-36861870D01*
X40811674Y-36868983D01*
X40758204Y-36891131D01*
X40699282Y-36902851D01*
X40639198Y-36902851D01*
X40580276Y-36891131D01*
X40524770Y-36868140D01*
X40524769Y-36868140D01*
X40524768Y-36868139D01*
X40474814Y-36834760D01*
X40432331Y-36792277D01*
X40398952Y-36742323D01*
X40388969Y-36718222D01*
X40375960Y-36686815D01*
X40364240Y-36627893D01*
X40364240Y-36567809D01*
X40375960Y-36508887D01*
X40398951Y-36453381D01*
X40432330Y-36403426D01*
X40474815Y-36360941D01*
X40515388Y-36333831D01*
X40524768Y-36327563D01*
X40524770Y-36327562D01*
X40580276Y-36304571D01*
X40639198Y-36292851D01*
X40699282Y-36292851D01*
X40758202Y-36304570D01*
X40811675Y-36326719D01*
X40835124Y-36333831D01*
X40859510Y-36336233D01*
X40883896Y-36333831D01*
X40907345Y-36326717D01*
X40928956Y-36315166D01*
X40947898Y-36299621D01*
X40963443Y-36280679D01*
X40974994Y-36259068D01*
X40982106Y-36235619D01*
X40984508Y-36211233D01*
X40982106Y-36186848D01*
X40973840Y-36145293D01*
X40973840Y-36085211D01*
X40982106Y-36043654D01*
X40984508Y-36019267D01*
X40982106Y-35994881D01*
X40974993Y-35971432D01*
X40963442Y-35949822D01*
X40947896Y-35930880D01*
X40928954Y-35915335D01*
X40907343Y-35903784D01*
X40883895Y-35896671D01*
X40859508Y-35894269D01*
X40835122Y-35896671D01*
X40811674Y-35903784D01*
X40758204Y-35925932D01*
X40699282Y-35937652D01*
X40639198Y-35937652D01*
X40580276Y-35925932D01*
X40524770Y-35902941D01*
X40524769Y-35902941D01*
X40524768Y-35902940D01*
X40474814Y-35869561D01*
X40432331Y-35827078D01*
X40398952Y-35777124D01*
X40388969Y-35753023D01*
X40375960Y-35721616D01*
X40364240Y-35662694D01*
X40364240Y-35602610D01*
X40375960Y-35543688D01*
X40398951Y-35488182D01*
X40432330Y-35438227D01*
X40474815Y-35395742D01*
X40515388Y-35368632D01*
X40524768Y-35362364D01*
X40524770Y-35362363D01*
X40580276Y-35339372D01*
X40639198Y-35327652D01*
X40699282Y-35327652D01*
X40758202Y-35339371D01*
X40811675Y-35361520D01*
X40835124Y-35368632D01*
X40859510Y-35371034D01*
X40883896Y-35368632D01*
X40907345Y-35361518D01*
X40928956Y-35349967D01*
X40947898Y-35334422D01*
X40963443Y-35315480D01*
X40974994Y-35293869D01*
X40982106Y-35270420D01*
X40984508Y-35246034D01*
X40982106Y-35221649D01*
X40973840Y-35180094D01*
X40973840Y-35120012D01*
X40982106Y-35078455D01*
X40984508Y-35054068D01*
X40982106Y-35029682D01*
X40974993Y-35006233D01*
X40963442Y-34984623D01*
X40947896Y-34965681D01*
X40928954Y-34950136D01*
X40907343Y-34938585D01*
X40883895Y-34931472D01*
X40859508Y-34929070D01*
X40835122Y-34931472D01*
X40811674Y-34938585D01*
X40758204Y-34960733D01*
X40699282Y-34972453D01*
X40639198Y-34972453D01*
X40580276Y-34960733D01*
X40524770Y-34937742D01*
X40524769Y-34937742D01*
X40524768Y-34937741D01*
X40474814Y-34904362D01*
X40432331Y-34861879D01*
X40398952Y-34811925D01*
X40388969Y-34787824D01*
X40375960Y-34756417D01*
X40364240Y-34697495D01*
X40364240Y-34637411D01*
X40375960Y-34578489D01*
X40398951Y-34522983D01*
X40432330Y-34473028D01*
X40474815Y-34430543D01*
X40515388Y-34403433D01*
X40524768Y-34397165D01*
X40524770Y-34397164D01*
X40580276Y-34374173D01*
X40639198Y-34362453D01*
X40699282Y-34362453D01*
X40758202Y-34374172D01*
X40811675Y-34396321D01*
X40835124Y-34403433D01*
X40859510Y-34405835D01*
X40883896Y-34403433D01*
X40907345Y-34396319D01*
X40928956Y-34384768D01*
X40947898Y-34369223D01*
X40963443Y-34350281D01*
X40974994Y-34328670D01*
X40982106Y-34305221D01*
X40984508Y-34280835D01*
X40982106Y-34256450D01*
X40973840Y-34214895D01*
X40973840Y-34154813D01*
X40982106Y-34113256D01*
X40984508Y-34088869D01*
X40982106Y-34064483D01*
X40974993Y-34041034D01*
X40963442Y-34019424D01*
X40947896Y-34000482D01*
X40928954Y-33984937D01*
X40907343Y-33973386D01*
X40883895Y-33966273D01*
X40859508Y-33963871D01*
X40835122Y-33966273D01*
X40811674Y-33973386D01*
X40758204Y-33995534D01*
X40699282Y-34007254D01*
X40639198Y-34007254D01*
X40580276Y-33995534D01*
X40524770Y-33972543D01*
X40524769Y-33972543D01*
X40524768Y-33972542D01*
X40474814Y-33939163D01*
X40432331Y-33896680D01*
X40398952Y-33846726D01*
X40388969Y-33822625D01*
X40375960Y-33791218D01*
X40364240Y-33732296D01*
X40364240Y-33672212D01*
X40375960Y-33613290D01*
X40398951Y-33557784D01*
X40432330Y-33507829D01*
X40474815Y-33465344D01*
X40515388Y-33438234D01*
X40524768Y-33431966D01*
X40524770Y-33431965D01*
X40580276Y-33408974D01*
X40639198Y-33397254D01*
X40699282Y-33397254D01*
X40758202Y-33408973D01*
X40811675Y-33431122D01*
X40835124Y-33438234D01*
X40859510Y-33440636D01*
X40883896Y-33438234D01*
X40907345Y-33431120D01*
X40928956Y-33419569D01*
X40947898Y-33404024D01*
X40963443Y-33385082D01*
X40974994Y-33363471D01*
X40982106Y-33340022D01*
X40984508Y-33315636D01*
X40982106Y-33291251D01*
X40973840Y-33249696D01*
X40973840Y-33189614D01*
X40982106Y-33148057D01*
X40984508Y-33123670D01*
X40982106Y-33099284D01*
X40974993Y-33075835D01*
X40963442Y-33054225D01*
X40947896Y-33035283D01*
X40928954Y-33019738D01*
X40907343Y-33008187D01*
X40883895Y-33001074D01*
X40859508Y-32998672D01*
X40835122Y-33001074D01*
X40811674Y-33008187D01*
X40758204Y-33030335D01*
X40699282Y-33042055D01*
X40639198Y-33042055D01*
X40580276Y-33030335D01*
X40524770Y-33007344D01*
X40524769Y-33007344D01*
X40524768Y-33007343D01*
X40474814Y-32973964D01*
X40432331Y-32931481D01*
X40398952Y-32881527D01*
X40388969Y-32857426D01*
X40375960Y-32826019D01*
X40364240Y-32767097D01*
X40364240Y-32707013D01*
X40375960Y-32648091D01*
X40398951Y-32592585D01*
X40432330Y-32542630D01*
X40474815Y-32500145D01*
X40515388Y-32473035D01*
X40524768Y-32466767D01*
X40524770Y-32466766D01*
X40580276Y-32443775D01*
X40639198Y-32432055D01*
X40699282Y-32432055D01*
X40758202Y-32443774D01*
X40811675Y-32465923D01*
X40835124Y-32473035D01*
X40859510Y-32475437D01*
X40883896Y-32473035D01*
X40907345Y-32465921D01*
X40928956Y-32454370D01*
X40947898Y-32438825D01*
X40963443Y-32419883D01*
X40974994Y-32398272D01*
X40982106Y-32374823D01*
X40984508Y-32350437D01*
X40982106Y-32326052D01*
X40973840Y-32284497D01*
X40973840Y-32224415D01*
X40982106Y-32182858D01*
X40984508Y-32158471D01*
X40982106Y-32134085D01*
X40974993Y-32110636D01*
X40963442Y-32089026D01*
X40947896Y-32070084D01*
X40928954Y-32054539D01*
X40907343Y-32042988D01*
X40883895Y-32035875D01*
X40859508Y-32033473D01*
X40835122Y-32035875D01*
X40811674Y-32042988D01*
X40758204Y-32065136D01*
X40699282Y-32076856D01*
X40639198Y-32076856D01*
X40580276Y-32065136D01*
X40524770Y-32042145D01*
X40524769Y-32042145D01*
X40524768Y-32042144D01*
X40474814Y-32008765D01*
X40432331Y-31966282D01*
X40398952Y-31916328D01*
X40388969Y-31892227D01*
X40375960Y-31860820D01*
X40364240Y-31801898D01*
X40364240Y-31741814D01*
X40375960Y-31682892D01*
X40398951Y-31627386D01*
X40432330Y-31577431D01*
X40474815Y-31534946D01*
X40515388Y-31507836D01*
X40524768Y-31501568D01*
X40524770Y-31501567D01*
X40580276Y-31478576D01*
X40639198Y-31466856D01*
X40699282Y-31466856D01*
X40758202Y-31478575D01*
X40811675Y-31500724D01*
X40835124Y-31507836D01*
X40859510Y-31510238D01*
X40883896Y-31507836D01*
X40907345Y-31500722D01*
X40928956Y-31489171D01*
X40947898Y-31473626D01*
X40963443Y-31454684D01*
X40974994Y-31433073D01*
X40982106Y-31409624D01*
X40984508Y-31385238D01*
X40982106Y-31360853D01*
X40973840Y-31319298D01*
X40973840Y-31259216D01*
X40982106Y-31217659D01*
X40984508Y-31193272D01*
X40982106Y-31168886D01*
X40974993Y-31145437D01*
X40963442Y-31123827D01*
X40947896Y-31104885D01*
X40928954Y-31089340D01*
X40907343Y-31077789D01*
X40883895Y-31070676D01*
X40859508Y-31068274D01*
X40835122Y-31070676D01*
X40811674Y-31077789D01*
X40758204Y-31099937D01*
X40699282Y-31111657D01*
X40639198Y-31111657D01*
X40580276Y-31099937D01*
X40524770Y-31076946D01*
X40524769Y-31076946D01*
X40524768Y-31076945D01*
X40474814Y-31043566D01*
X40432331Y-31001083D01*
X40398952Y-30951129D01*
X40388969Y-30927028D01*
X40375960Y-30895621D01*
X40364240Y-30836699D01*
X40364240Y-30776615D01*
X40375960Y-30717693D01*
X40398951Y-30662187D01*
X40432330Y-30612232D01*
X40474815Y-30569747D01*
X40515388Y-30542637D01*
X40524768Y-30536369D01*
X40524770Y-30536368D01*
X40580276Y-30513377D01*
X40639198Y-30501657D01*
X40699282Y-30501657D01*
X40758202Y-30513376D01*
X40811675Y-30535525D01*
X40835124Y-30542637D01*
X40859510Y-30545039D01*
X40883896Y-30542637D01*
X40907345Y-30535523D01*
X40928956Y-30523972D01*
X40947898Y-30508427D01*
X40963443Y-30489485D01*
X40974994Y-30467874D01*
X40982106Y-30444425D01*
X40984508Y-30420039D01*
X40982106Y-30395654D01*
X40973840Y-30354099D01*
X40973840Y-30294017D01*
X40982106Y-30252460D01*
X40984508Y-30228073D01*
X40982106Y-30203687D01*
X40974993Y-30180238D01*
X40963442Y-30158628D01*
X40947896Y-30139686D01*
X40928954Y-30124141D01*
X40907343Y-30112590D01*
X40883895Y-30105477D01*
X40859508Y-30103075D01*
X40835122Y-30105477D01*
X40811674Y-30112590D01*
X40758204Y-30134738D01*
X40699282Y-30146458D01*
X40639198Y-30146458D01*
X40580276Y-30134738D01*
X40524770Y-30111747D01*
X40524769Y-30111747D01*
X40524768Y-30111746D01*
X40474814Y-30078367D01*
X40432331Y-30035884D01*
X40398952Y-29985930D01*
X40388969Y-29961829D01*
X40375960Y-29930422D01*
X40364240Y-29871500D01*
X40364240Y-29811416D01*
X40375960Y-29752494D01*
X40398951Y-29696988D01*
X40432330Y-29647033D01*
X40474815Y-29604548D01*
X40515388Y-29577438D01*
X40524768Y-29571170D01*
X40524770Y-29571169D01*
X40580276Y-29548178D01*
X40639198Y-29536458D01*
X40699282Y-29536458D01*
X40758202Y-29548177D01*
X40811675Y-29570326D01*
X40835124Y-29577438D01*
X40859510Y-29579840D01*
X40883896Y-29577438D01*
X40907345Y-29570324D01*
X40928956Y-29558773D01*
X40947898Y-29543228D01*
X40963443Y-29524286D01*
X40974994Y-29502675D01*
X40982106Y-29479226D01*
X40984508Y-29454840D01*
X40982106Y-29430455D01*
X40973840Y-29388900D01*
X40973840Y-29328818D01*
X40982106Y-29287261D01*
X40984508Y-29262874D01*
X40982106Y-29238488D01*
X40974993Y-29215039D01*
X40963442Y-29193429D01*
X40947896Y-29174487D01*
X40928954Y-29158942D01*
X40907343Y-29147391D01*
X40883895Y-29140278D01*
X40859508Y-29137876D01*
X40835122Y-29140278D01*
X40811674Y-29147391D01*
X40758204Y-29169539D01*
X40699282Y-29181259D01*
X40639198Y-29181259D01*
X40580276Y-29169539D01*
X40524770Y-29146548D01*
X40524769Y-29146548D01*
X40524768Y-29146547D01*
X40474814Y-29113168D01*
X40432331Y-29070685D01*
X40398952Y-29020731D01*
X40388969Y-28996630D01*
X40375960Y-28965223D01*
X40364240Y-28906301D01*
X40364240Y-28846217D01*
X40375960Y-28787295D01*
X40398951Y-28731789D01*
X40432330Y-28681834D01*
X40474815Y-28639349D01*
X40511793Y-28614641D01*
X40524768Y-28605971D01*
X40524770Y-28605970D01*
X40580276Y-28582979D01*
X40639198Y-28571259D01*
X40699282Y-28571259D01*
X40758202Y-28582978D01*
X40811675Y-28605127D01*
X40835124Y-28612239D01*
X40859510Y-28614641D01*
X40883896Y-28612239D01*
X40907345Y-28605125D01*
X40928956Y-28593574D01*
X40947898Y-28578029D01*
X40963443Y-28559087D01*
X40974994Y-28537476D01*
X40982106Y-28514027D01*
X40984508Y-28489641D01*
X40982106Y-28465256D01*
X40973840Y-28423701D01*
X40973840Y-28363618D01*
X40985560Y-28304696D01*
X41008551Y-28249190D01*
X41041930Y-28199235D01*
X41084415Y-28156750D01*
X41109221Y-28140175D01*
X41134368Y-28123372D01*
X41134370Y-28123371D01*
X41189876Y-28100380D01*
X41248798Y-28088660D01*
X41308882Y-28088660D01*
X41367804Y-28100380D01*
X41367804Y-28100380D01*
G37*
G36*
X35367804Y-28100380D02*
G01*
X35423310Y-28123371D01*
X35423312Y-28123372D01*
X35448459Y-28140175D01*
X35473265Y-28156750D01*
X35515750Y-28199235D01*
X35549129Y-28249190D01*
X35572120Y-28304696D01*
X35583840Y-28363618D01*
X35583840Y-28423702D01*
X35572120Y-28482624D01*
X35555005Y-28523944D01*
X35549128Y-28538132D01*
X35545951Y-28542886D01*
X35515844Y-28587945D01*
X35515749Y-28588086D01*
X35473266Y-28630569D01*
X35423312Y-28663948D01*
X35423311Y-28663949D01*
X35423310Y-28663949D01*
X35367804Y-28686940D01*
X35308882Y-28698660D01*
X35248798Y-28698660D01*
X35189878Y-28686941D01*
X35136405Y-28664792D01*
X35112956Y-28657680D01*
X35088570Y-28655278D01*
X35064184Y-28657680D01*
X35040735Y-28664794D01*
X35019124Y-28676345D01*
X35000182Y-28691890D01*
X34984637Y-28710832D01*
X34973086Y-28732443D01*
X34965974Y-28755892D01*
X34963572Y-28780278D01*
X34965974Y-28804663D01*
X34974240Y-28846218D01*
X34974240Y-28906300D01*
X34965974Y-28947857D01*
X34963572Y-28972244D01*
X34965974Y-28996630D01*
X34973087Y-29020079D01*
X34984638Y-29041689D01*
X35000184Y-29060631D01*
X35019126Y-29076176D01*
X35040737Y-29087727D01*
X35064185Y-29094840D01*
X35088572Y-29097242D01*
X35112958Y-29094840D01*
X35136406Y-29087727D01*
X35189876Y-29065579D01*
X35248798Y-29053859D01*
X35308882Y-29053859D01*
X35367804Y-29065579D01*
X35423310Y-29088570D01*
X35423312Y-29088571D01*
X35432694Y-29094840D01*
X35473265Y-29121949D01*
X35515750Y-29164434D01*
X35549129Y-29214389D01*
X35572120Y-29269895D01*
X35583840Y-29328817D01*
X35583840Y-29388901D01*
X35572120Y-29447823D01*
X35549129Y-29503329D01*
X35519162Y-29548178D01*
X35515749Y-29553285D01*
X35473266Y-29595768D01*
X35423312Y-29629147D01*
X35423311Y-29629148D01*
X35423310Y-29629148D01*
X35367804Y-29652139D01*
X35308882Y-29663859D01*
X35248798Y-29663859D01*
X35189878Y-29652140D01*
X35136405Y-29629991D01*
X35112956Y-29622879D01*
X35088570Y-29620477D01*
X35064184Y-29622879D01*
X35040735Y-29629993D01*
X35019124Y-29641544D01*
X35000182Y-29657089D01*
X34984637Y-29676031D01*
X34973086Y-29697642D01*
X34965974Y-29721091D01*
X34963572Y-29745477D01*
X34965974Y-29769862D01*
X34974240Y-29811417D01*
X34974240Y-29871499D01*
X34965974Y-29913056D01*
X34963572Y-29937443D01*
X34965974Y-29961829D01*
X34973087Y-29985278D01*
X34984638Y-30006888D01*
X35000184Y-30025830D01*
X35019126Y-30041375D01*
X35040737Y-30052926D01*
X35064185Y-30060039D01*
X35088572Y-30062441D01*
X35112958Y-30060039D01*
X35136406Y-30052926D01*
X35189876Y-30030778D01*
X35248798Y-30019058D01*
X35308882Y-30019058D01*
X35367804Y-30030778D01*
X35423310Y-30053769D01*
X35423312Y-30053770D01*
X35432694Y-30060039D01*
X35473265Y-30087148D01*
X35515750Y-30129633D01*
X35549129Y-30179588D01*
X35572120Y-30235094D01*
X35583840Y-30294016D01*
X35583840Y-30354100D01*
X35572120Y-30413022D01*
X35549129Y-30468528D01*
X35519162Y-30513377D01*
X35515749Y-30518484D01*
X35473266Y-30560967D01*
X35423312Y-30594346D01*
X35423311Y-30594347D01*
X35423310Y-30594347D01*
X35367804Y-30617338D01*
X35308882Y-30629058D01*
X35248798Y-30629058D01*
X35189878Y-30617339D01*
X35136405Y-30595190D01*
X35112956Y-30588078D01*
X35088570Y-30585676D01*
X35064184Y-30588078D01*
X35040735Y-30595192D01*
X35019124Y-30606743D01*
X35000182Y-30622288D01*
X34984637Y-30641230D01*
X34973086Y-30662841D01*
X34965974Y-30686290D01*
X34963572Y-30710676D01*
X34965974Y-30735061D01*
X34974240Y-30776616D01*
X34974240Y-30836698D01*
X34965974Y-30878255D01*
X34963572Y-30902642D01*
X34965974Y-30927028D01*
X34973087Y-30950477D01*
X34984638Y-30972087D01*
X35000184Y-30991029D01*
X35019126Y-31006574D01*
X35040737Y-31018125D01*
X35064185Y-31025238D01*
X35088572Y-31027640D01*
X35112958Y-31025238D01*
X35136406Y-31018125D01*
X35189876Y-30995977D01*
X35248798Y-30984257D01*
X35308882Y-30984257D01*
X35367804Y-30995977D01*
X35423310Y-31018968D01*
X35423312Y-31018969D01*
X35432694Y-31025238D01*
X35473265Y-31052347D01*
X35515750Y-31094832D01*
X35549129Y-31144787D01*
X35572120Y-31200293D01*
X35583840Y-31259215D01*
X35583840Y-31319299D01*
X35572120Y-31378221D01*
X35549129Y-31433727D01*
X35519162Y-31478576D01*
X35515749Y-31483683D01*
X35473266Y-31526166D01*
X35423312Y-31559545D01*
X35423311Y-31559546D01*
X35423310Y-31559546D01*
X35367804Y-31582537D01*
X35308882Y-31594257D01*
X35248798Y-31594257D01*
X35189878Y-31582538D01*
X35136405Y-31560389D01*
X35112956Y-31553277D01*
X35088570Y-31550875D01*
X35064184Y-31553277D01*
X35040735Y-31560391D01*
X35019124Y-31571942D01*
X35000182Y-31587487D01*
X34984637Y-31606429D01*
X34973086Y-31628040D01*
X34965974Y-31651489D01*
X34963572Y-31675875D01*
X34965974Y-31700260D01*
X34974240Y-31741815D01*
X34974240Y-31801897D01*
X34965974Y-31843454D01*
X34963572Y-31867841D01*
X34965974Y-31892227D01*
X34973087Y-31915676D01*
X34984638Y-31937286D01*
X35000184Y-31956228D01*
X35019126Y-31971773D01*
X35040737Y-31983324D01*
X35064185Y-31990437D01*
X35088572Y-31992839D01*
X35112958Y-31990437D01*
X35136406Y-31983324D01*
X35189876Y-31961176D01*
X35248798Y-31949456D01*
X35308882Y-31949456D01*
X35367804Y-31961176D01*
X35423310Y-31984167D01*
X35423312Y-31984168D01*
X35432694Y-31990437D01*
X35473265Y-32017546D01*
X35515750Y-32060031D01*
X35549129Y-32109986D01*
X35572120Y-32165492D01*
X35583840Y-32224414D01*
X35583840Y-32284498D01*
X35572120Y-32343420D01*
X35549129Y-32398926D01*
X35519162Y-32443775D01*
X35515749Y-32448882D01*
X35473266Y-32491365D01*
X35423312Y-32524744D01*
X35423311Y-32524745D01*
X35423310Y-32524745D01*
X35367804Y-32547736D01*
X35308882Y-32559456D01*
X35248798Y-32559456D01*
X35189878Y-32547737D01*
X35136405Y-32525588D01*
X35112956Y-32518476D01*
X35088570Y-32516074D01*
X35064184Y-32518476D01*
X35040735Y-32525590D01*
X35019124Y-32537141D01*
X35000182Y-32552686D01*
X34984637Y-32571628D01*
X34973086Y-32593239D01*
X34965974Y-32616688D01*
X34963572Y-32641074D01*
X34965974Y-32665459D01*
X34974240Y-32707014D01*
X34974240Y-32767096D01*
X34965974Y-32808653D01*
X34963572Y-32833040D01*
X34965974Y-32857426D01*
X34973087Y-32880875D01*
X34984638Y-32902485D01*
X35000184Y-32921427D01*
X35019126Y-32936972D01*
X35040737Y-32948523D01*
X35064185Y-32955636D01*
X35088572Y-32958038D01*
X35112958Y-32955636D01*
X35136406Y-32948523D01*
X35189876Y-32926375D01*
X35248798Y-32914655D01*
X35308882Y-32914655D01*
X35367804Y-32926375D01*
X35423310Y-32949366D01*
X35423312Y-32949367D01*
X35432694Y-32955636D01*
X35473265Y-32982745D01*
X35515750Y-33025230D01*
X35549129Y-33075185D01*
X35572120Y-33130691D01*
X35583840Y-33189613D01*
X35583840Y-33249697D01*
X35572120Y-33308619D01*
X35549129Y-33364125D01*
X35519162Y-33408974D01*
X35515749Y-33414081D01*
X35473266Y-33456564D01*
X35423312Y-33489943D01*
X35423311Y-33489944D01*
X35423310Y-33489944D01*
X35367804Y-33512935D01*
X35308882Y-33524655D01*
X35248798Y-33524655D01*
X35189878Y-33512936D01*
X35136405Y-33490787D01*
X35112956Y-33483675D01*
X35088570Y-33481273D01*
X35064184Y-33483675D01*
X35040735Y-33490789D01*
X35019124Y-33502340D01*
X35000182Y-33517885D01*
X34984637Y-33536827D01*
X34973086Y-33558438D01*
X34965974Y-33581887D01*
X34963572Y-33606273D01*
X34965974Y-33630658D01*
X34974240Y-33672213D01*
X34974240Y-33732295D01*
X34965974Y-33773852D01*
X34963572Y-33798239D01*
X34965974Y-33822625D01*
X34973087Y-33846074D01*
X34984638Y-33867684D01*
X35000184Y-33886626D01*
X35019126Y-33902171D01*
X35040737Y-33913722D01*
X35064185Y-33920835D01*
X35088572Y-33923237D01*
X35112958Y-33920835D01*
X35136406Y-33913722D01*
X35189876Y-33891574D01*
X35248798Y-33879854D01*
X35308882Y-33879854D01*
X35367804Y-33891574D01*
X35423310Y-33914565D01*
X35423312Y-33914566D01*
X35432694Y-33920835D01*
X35473265Y-33947944D01*
X35515750Y-33990429D01*
X35549129Y-34040384D01*
X35572120Y-34095890D01*
X35583840Y-34154812D01*
X35583840Y-34214896D01*
X35572120Y-34273818D01*
X35549129Y-34329324D01*
X35519162Y-34374173D01*
X35515749Y-34379280D01*
X35473266Y-34421763D01*
X35423312Y-34455142D01*
X35423311Y-34455143D01*
X35423310Y-34455143D01*
X35367804Y-34478134D01*
X35308882Y-34489854D01*
X35248798Y-34489854D01*
X35189878Y-34478135D01*
X35136405Y-34455986D01*
X35112956Y-34448874D01*
X35088570Y-34446472D01*
X35064184Y-34448874D01*
X35040735Y-34455988D01*
X35019124Y-34467539D01*
X35000182Y-34483084D01*
X34984637Y-34502026D01*
X34973086Y-34523637D01*
X34965974Y-34547086D01*
X34963572Y-34571472D01*
X34965974Y-34595857D01*
X34974240Y-34637412D01*
X34974240Y-34697494D01*
X34965974Y-34739051D01*
X34963572Y-34763438D01*
X34965974Y-34787824D01*
X34973087Y-34811273D01*
X34984638Y-34832883D01*
X35000184Y-34851825D01*
X35019126Y-34867370D01*
X35040737Y-34878921D01*
X35064185Y-34886034D01*
X35088572Y-34888436D01*
X35112958Y-34886034D01*
X35136406Y-34878921D01*
X35189876Y-34856773D01*
X35248798Y-34845053D01*
X35308882Y-34845053D01*
X35367804Y-34856773D01*
X35423310Y-34879764D01*
X35423312Y-34879765D01*
X35432694Y-34886034D01*
X35473265Y-34913143D01*
X35515750Y-34955628D01*
X35549129Y-35005583D01*
X35572120Y-35061089D01*
X35583840Y-35120011D01*
X35583840Y-35180095D01*
X35572120Y-35239017D01*
X35549129Y-35294523D01*
X35519162Y-35339372D01*
X35515749Y-35344479D01*
X35473266Y-35386962D01*
X35423312Y-35420341D01*
X35423311Y-35420342D01*
X35423310Y-35420342D01*
X35367804Y-35443333D01*
X35308882Y-35455053D01*
X35248798Y-35455053D01*
X35189878Y-35443334D01*
X35136405Y-35421185D01*
X35112956Y-35414073D01*
X35088570Y-35411671D01*
X35064184Y-35414073D01*
X35040735Y-35421187D01*
X35019124Y-35432738D01*
X35000182Y-35448283D01*
X34984637Y-35467225D01*
X34973086Y-35488836D01*
X34965974Y-35512285D01*
X34963572Y-35536671D01*
X34965974Y-35561056D01*
X34974240Y-35602611D01*
X34974240Y-35662693D01*
X34965974Y-35704250D01*
X34963572Y-35728637D01*
X34965974Y-35753023D01*
X34973087Y-35776472D01*
X34984638Y-35798082D01*
X35000184Y-35817024D01*
X35019126Y-35832569D01*
X35040737Y-35844120D01*
X35064185Y-35851233D01*
X35088572Y-35853635D01*
X35112958Y-35851233D01*
X35136406Y-35844120D01*
X35189876Y-35821972D01*
X35248798Y-35810252D01*
X35308882Y-35810252D01*
X35367804Y-35821972D01*
X35423310Y-35844963D01*
X35423312Y-35844964D01*
X35432694Y-35851233D01*
X35473265Y-35878342D01*
X35515750Y-35920827D01*
X35549129Y-35970782D01*
X35572120Y-36026288D01*
X35583840Y-36085210D01*
X35583840Y-36145294D01*
X35572120Y-36204216D01*
X35549129Y-36259722D01*
X35519162Y-36304571D01*
X35515749Y-36309678D01*
X35473266Y-36352161D01*
X35423312Y-36385540D01*
X35423311Y-36385541D01*
X35423310Y-36385541D01*
X35367804Y-36408532D01*
X35308882Y-36420252D01*
X35248798Y-36420252D01*
X35189878Y-36408533D01*
X35136405Y-36386384D01*
X35112956Y-36379272D01*
X35088570Y-36376870D01*
X35064184Y-36379272D01*
X35040735Y-36386386D01*
X35019124Y-36397937D01*
X35000182Y-36413482D01*
X34984637Y-36432424D01*
X34973086Y-36454035D01*
X34965974Y-36477484D01*
X34963572Y-36501870D01*
X34965974Y-36526255D01*
X34974240Y-36567810D01*
X34974240Y-36627892D01*
X34965974Y-36669449D01*
X34963572Y-36693836D01*
X34965974Y-36718222D01*
X34973087Y-36741671D01*
X34984638Y-36763281D01*
X35000184Y-36782223D01*
X35019126Y-36797768D01*
X35040737Y-36809319D01*
X35064185Y-36816432D01*
X35088572Y-36818834D01*
X35112958Y-36816432D01*
X35136406Y-36809319D01*
X35189876Y-36787171D01*
X35248798Y-36775451D01*
X35308882Y-36775451D01*
X35367804Y-36787171D01*
X35423310Y-36810162D01*
X35423312Y-36810163D01*
X35432694Y-36816432D01*
X35473265Y-36843541D01*
X35515750Y-36886026D01*
X35549129Y-36935981D01*
X35572120Y-36991487D01*
X35583840Y-37050409D01*
X35583840Y-37110493D01*
X35572120Y-37169415D01*
X35549129Y-37224921D01*
X35519162Y-37269770D01*
X35515749Y-37274877D01*
X35473266Y-37317360D01*
X35423312Y-37350739D01*
X35423311Y-37350740D01*
X35423310Y-37350740D01*
X35367804Y-37373731D01*
X35308882Y-37385451D01*
X35248798Y-37385451D01*
X35189878Y-37373732D01*
X35136405Y-37351583D01*
X35112956Y-37344471D01*
X35088570Y-37342069D01*
X35064184Y-37344471D01*
X35040735Y-37351585D01*
X35019124Y-37363136D01*
X35000182Y-37378681D01*
X34984637Y-37397623D01*
X34973086Y-37419234D01*
X34965974Y-37442683D01*
X34963572Y-37467069D01*
X34965974Y-37491454D01*
X34974240Y-37533009D01*
X34974240Y-37593092D01*
X34962520Y-37652014D01*
X34939529Y-37707520D01*
X34939528Y-37707522D01*
X34906149Y-37757476D01*
X34863666Y-37799959D01*
X34813712Y-37833338D01*
X34813711Y-37833339D01*
X34813710Y-37833339D01*
X34758204Y-37856330D01*
X34699282Y-37868050D01*
X34639198Y-37868050D01*
X34580276Y-37856330D01*
X34524770Y-37833339D01*
X34524769Y-37833339D01*
X34524768Y-37833338D01*
X34474814Y-37799959D01*
X34432331Y-37757476D01*
X34398952Y-37707522D01*
X34398951Y-37707520D01*
X34375960Y-37652014D01*
X34364240Y-37593092D01*
X34364240Y-37533008D01*
X34375960Y-37474086D01*
X34398951Y-37418580D01*
X34432330Y-37368625D01*
X34474815Y-37326140D01*
X34515388Y-37299030D01*
X34524768Y-37292762D01*
X34524770Y-37292761D01*
X34580276Y-37269770D01*
X34639198Y-37258050D01*
X34699282Y-37258050D01*
X34758202Y-37269769D01*
X34811675Y-37291918D01*
X34835124Y-37299030D01*
X34859510Y-37301432D01*
X34883896Y-37299030D01*
X34907345Y-37291916D01*
X34928956Y-37280365D01*
X34947898Y-37264820D01*
X34963443Y-37245878D01*
X34974994Y-37224267D01*
X34982106Y-37200818D01*
X34984508Y-37176432D01*
X34982106Y-37152047D01*
X34973840Y-37110492D01*
X34973840Y-37050410D01*
X34982106Y-37008853D01*
X34984508Y-36984466D01*
X34982106Y-36960080D01*
X34974993Y-36936631D01*
X34963442Y-36915021D01*
X34947896Y-36896079D01*
X34928954Y-36880534D01*
X34907343Y-36868983D01*
X34883895Y-36861870D01*
X34859508Y-36859468D01*
X34835122Y-36861870D01*
X34811674Y-36868983D01*
X34758204Y-36891131D01*
X34699282Y-36902851D01*
X34639198Y-36902851D01*
X34580276Y-36891131D01*
X34524770Y-36868140D01*
X34524769Y-36868140D01*
X34524768Y-36868139D01*
X34474814Y-36834760D01*
X34432331Y-36792277D01*
X34398952Y-36742323D01*
X34388969Y-36718222D01*
X34375960Y-36686815D01*
X34364240Y-36627893D01*
X34364240Y-36567809D01*
X34375960Y-36508887D01*
X34398951Y-36453381D01*
X34432330Y-36403426D01*
X34474815Y-36360941D01*
X34515388Y-36333831D01*
X34524768Y-36327563D01*
X34524770Y-36327562D01*
X34580276Y-36304571D01*
X34639198Y-36292851D01*
X34699282Y-36292851D01*
X34758202Y-36304570D01*
X34811675Y-36326719D01*
X34835124Y-36333831D01*
X34859510Y-36336233D01*
X34883896Y-36333831D01*
X34907345Y-36326717D01*
X34928956Y-36315166D01*
X34947898Y-36299621D01*
X34963443Y-36280679D01*
X34974994Y-36259068D01*
X34982106Y-36235619D01*
X34984508Y-36211233D01*
X34982106Y-36186848D01*
X34973840Y-36145293D01*
X34973840Y-36085211D01*
X34982106Y-36043654D01*
X34984508Y-36019267D01*
X34982106Y-35994881D01*
X34974993Y-35971432D01*
X34963442Y-35949822D01*
X34947896Y-35930880D01*
X34928954Y-35915335D01*
X34907343Y-35903784D01*
X34883895Y-35896671D01*
X34859508Y-35894269D01*
X34835122Y-35896671D01*
X34811674Y-35903784D01*
X34758204Y-35925932D01*
X34699282Y-35937652D01*
X34639198Y-35937652D01*
X34580276Y-35925932D01*
X34524770Y-35902941D01*
X34524769Y-35902941D01*
X34524768Y-35902940D01*
X34474814Y-35869561D01*
X34432331Y-35827078D01*
X34398952Y-35777124D01*
X34388969Y-35753023D01*
X34375960Y-35721616D01*
X34364240Y-35662694D01*
X34364240Y-35602610D01*
X34375960Y-35543688D01*
X34398951Y-35488182D01*
X34432330Y-35438227D01*
X34474815Y-35395742D01*
X34515388Y-35368632D01*
X34524768Y-35362364D01*
X34524770Y-35362363D01*
X34580276Y-35339372D01*
X34639198Y-35327652D01*
X34699282Y-35327652D01*
X34758202Y-35339371D01*
X34811675Y-35361520D01*
X34835124Y-35368632D01*
X34859510Y-35371034D01*
X34883896Y-35368632D01*
X34907345Y-35361518D01*
X34928956Y-35349967D01*
X34947898Y-35334422D01*
X34963443Y-35315480D01*
X34974994Y-35293869D01*
X34982106Y-35270420D01*
X34984508Y-35246034D01*
X34982106Y-35221649D01*
X34973840Y-35180094D01*
X34973840Y-35120012D01*
X34982106Y-35078455D01*
X34984508Y-35054068D01*
X34982106Y-35029682D01*
X34974993Y-35006233D01*
X34963442Y-34984623D01*
X34947896Y-34965681D01*
X34928954Y-34950136D01*
X34907343Y-34938585D01*
X34883895Y-34931472D01*
X34859508Y-34929070D01*
X34835122Y-34931472D01*
X34811674Y-34938585D01*
X34758204Y-34960733D01*
X34699282Y-34972453D01*
X34639198Y-34972453D01*
X34580276Y-34960733D01*
X34524770Y-34937742D01*
X34524769Y-34937742D01*
X34524768Y-34937741D01*
X34474814Y-34904362D01*
X34432331Y-34861879D01*
X34398952Y-34811925D01*
X34388969Y-34787824D01*
X34375960Y-34756417D01*
X34364240Y-34697495D01*
X34364240Y-34637411D01*
X34375960Y-34578489D01*
X34398951Y-34522983D01*
X34432330Y-34473028D01*
X34474815Y-34430543D01*
X34515388Y-34403433D01*
X34524768Y-34397165D01*
X34524770Y-34397164D01*
X34580276Y-34374173D01*
X34639198Y-34362453D01*
X34699282Y-34362453D01*
X34758202Y-34374172D01*
X34811675Y-34396321D01*
X34835124Y-34403433D01*
X34859510Y-34405835D01*
X34883896Y-34403433D01*
X34907345Y-34396319D01*
X34928956Y-34384768D01*
X34947898Y-34369223D01*
X34963443Y-34350281D01*
X34974994Y-34328670D01*
X34982106Y-34305221D01*
X34984508Y-34280835D01*
X34982106Y-34256450D01*
X34973840Y-34214895D01*
X34973840Y-34154813D01*
X34982106Y-34113256D01*
X34984508Y-34088869D01*
X34982106Y-34064483D01*
X34974993Y-34041034D01*
X34963442Y-34019424D01*
X34947896Y-34000482D01*
X34928954Y-33984937D01*
X34907343Y-33973386D01*
X34883895Y-33966273D01*
X34859508Y-33963871D01*
X34835122Y-33966273D01*
X34811674Y-33973386D01*
X34758204Y-33995534D01*
X34699282Y-34007254D01*
X34639198Y-34007254D01*
X34580276Y-33995534D01*
X34524770Y-33972543D01*
X34524769Y-33972543D01*
X34524768Y-33972542D01*
X34474814Y-33939163D01*
X34432331Y-33896680D01*
X34398952Y-33846726D01*
X34388969Y-33822625D01*
X34375960Y-33791218D01*
X34364240Y-33732296D01*
X34364240Y-33672212D01*
X34375960Y-33613290D01*
X34398951Y-33557784D01*
X34432330Y-33507829D01*
X34474815Y-33465344D01*
X34515388Y-33438234D01*
X34524768Y-33431966D01*
X34524770Y-33431965D01*
X34580276Y-33408974D01*
X34639198Y-33397254D01*
X34699282Y-33397254D01*
X34758202Y-33408973D01*
X34811675Y-33431122D01*
X34835124Y-33438234D01*
X34859510Y-33440636D01*
X34883896Y-33438234D01*
X34907345Y-33431120D01*
X34928956Y-33419569D01*
X34947898Y-33404024D01*
X34963443Y-33385082D01*
X34974994Y-33363471D01*
X34982106Y-33340022D01*
X34984508Y-33315636D01*
X34982106Y-33291251D01*
X34973840Y-33249696D01*
X34973840Y-33189614D01*
X34982106Y-33148057D01*
X34984508Y-33123670D01*
X34982106Y-33099284D01*
X34974993Y-33075835D01*
X34963442Y-33054225D01*
X34947896Y-33035283D01*
X34928954Y-33019738D01*
X34907343Y-33008187D01*
X34883895Y-33001074D01*
X34859508Y-32998672D01*
X34835122Y-33001074D01*
X34811674Y-33008187D01*
X34758204Y-33030335D01*
X34699282Y-33042055D01*
X34639198Y-33042055D01*
X34580276Y-33030335D01*
X34524770Y-33007344D01*
X34524769Y-33007344D01*
X34524768Y-33007343D01*
X34474814Y-32973964D01*
X34432331Y-32931481D01*
X34398952Y-32881527D01*
X34388969Y-32857426D01*
X34375960Y-32826019D01*
X34364240Y-32767097D01*
X34364240Y-32707013D01*
X34375960Y-32648091D01*
X34398951Y-32592585D01*
X34432330Y-32542630D01*
X34474815Y-32500145D01*
X34515388Y-32473035D01*
X34524768Y-32466767D01*
X34524770Y-32466766D01*
X34580276Y-32443775D01*
X34639198Y-32432055D01*
X34699282Y-32432055D01*
X34758202Y-32443774D01*
X34811675Y-32465923D01*
X34835124Y-32473035D01*
X34859510Y-32475437D01*
X34883896Y-32473035D01*
X34907345Y-32465921D01*
X34928956Y-32454370D01*
X34947898Y-32438825D01*
X34963443Y-32419883D01*
X34974994Y-32398272D01*
X34982106Y-32374823D01*
X34984508Y-32350437D01*
X34982106Y-32326052D01*
X34973840Y-32284497D01*
X34973840Y-32224415D01*
X34982106Y-32182858D01*
X34984508Y-32158471D01*
X34982106Y-32134085D01*
X34974993Y-32110636D01*
X34963442Y-32089026D01*
X34947896Y-32070084D01*
X34928954Y-32054539D01*
X34907343Y-32042988D01*
X34883895Y-32035875D01*
X34859508Y-32033473D01*
X34835122Y-32035875D01*
X34811674Y-32042988D01*
X34758204Y-32065136D01*
X34699282Y-32076856D01*
X34639198Y-32076856D01*
X34580276Y-32065136D01*
X34524770Y-32042145D01*
X34524769Y-32042145D01*
X34524768Y-32042144D01*
X34474814Y-32008765D01*
X34432331Y-31966282D01*
X34398952Y-31916328D01*
X34388969Y-31892227D01*
X34375960Y-31860820D01*
X34364240Y-31801898D01*
X34364240Y-31741814D01*
X34375960Y-31682892D01*
X34398951Y-31627386D01*
X34432330Y-31577431D01*
X34474815Y-31534946D01*
X34515388Y-31507836D01*
X34524768Y-31501568D01*
X34524770Y-31501567D01*
X34580276Y-31478576D01*
X34639198Y-31466856D01*
X34699282Y-31466856D01*
X34758202Y-31478575D01*
X34811675Y-31500724D01*
X34835124Y-31507836D01*
X34859510Y-31510238D01*
X34883896Y-31507836D01*
X34907345Y-31500722D01*
X34928956Y-31489171D01*
X34947898Y-31473626D01*
X34963443Y-31454684D01*
X34974994Y-31433073D01*
X34982106Y-31409624D01*
X34984508Y-31385238D01*
X34982106Y-31360853D01*
X34973840Y-31319298D01*
X34973840Y-31259216D01*
X34982106Y-31217659D01*
X34984508Y-31193272D01*
X34982106Y-31168886D01*
X34974993Y-31145437D01*
X34963442Y-31123827D01*
X34947896Y-31104885D01*
X34928954Y-31089340D01*
X34907343Y-31077789D01*
X34883895Y-31070676D01*
X34859508Y-31068274D01*
X34835122Y-31070676D01*
X34811674Y-31077789D01*
X34758204Y-31099937D01*
X34699282Y-31111657D01*
X34639198Y-31111657D01*
X34580276Y-31099937D01*
X34524770Y-31076946D01*
X34524769Y-31076946D01*
X34524768Y-31076945D01*
X34474814Y-31043566D01*
X34432331Y-31001083D01*
X34398952Y-30951129D01*
X34388969Y-30927028D01*
X34375960Y-30895621D01*
X34364240Y-30836699D01*
X34364240Y-30776615D01*
X34375960Y-30717693D01*
X34398951Y-30662187D01*
X34432330Y-30612232D01*
X34474815Y-30569747D01*
X34515388Y-30542637D01*
X34524768Y-30536369D01*
X34524770Y-30536368D01*
X34580276Y-30513377D01*
X34639198Y-30501657D01*
X34699282Y-30501657D01*
X34758202Y-30513376D01*
X34811675Y-30535525D01*
X34835124Y-30542637D01*
X34859510Y-30545039D01*
X34883896Y-30542637D01*
X34907345Y-30535523D01*
X34928956Y-30523972D01*
X34947898Y-30508427D01*
X34963443Y-30489485D01*
X34974994Y-30467874D01*
X34982106Y-30444425D01*
X34984508Y-30420039D01*
X34982106Y-30395654D01*
X34973840Y-30354099D01*
X34973840Y-30294017D01*
X34982106Y-30252460D01*
X34984508Y-30228073D01*
X34982106Y-30203687D01*
X34974993Y-30180238D01*
X34963442Y-30158628D01*
X34947896Y-30139686D01*
X34928954Y-30124141D01*
X34907343Y-30112590D01*
X34883895Y-30105477D01*
X34859508Y-30103075D01*
X34835122Y-30105477D01*
X34811674Y-30112590D01*
X34758204Y-30134738D01*
X34699282Y-30146458D01*
X34639198Y-30146458D01*
X34580276Y-30134738D01*
X34524770Y-30111747D01*
X34524769Y-30111747D01*
X34524768Y-30111746D01*
X34474814Y-30078367D01*
X34432331Y-30035884D01*
X34398952Y-29985930D01*
X34388969Y-29961829D01*
X34375960Y-29930422D01*
X34364240Y-29871500D01*
X34364240Y-29811416D01*
X34375960Y-29752494D01*
X34398951Y-29696988D01*
X34432330Y-29647033D01*
X34474815Y-29604548D01*
X34515388Y-29577438D01*
X34524768Y-29571170D01*
X34524770Y-29571169D01*
X34580276Y-29548178D01*
X34639198Y-29536458D01*
X34699282Y-29536458D01*
X34758202Y-29548177D01*
X34811675Y-29570326D01*
X34835124Y-29577438D01*
X34859510Y-29579840D01*
X34883896Y-29577438D01*
X34907345Y-29570324D01*
X34928956Y-29558773D01*
X34947898Y-29543228D01*
X34963443Y-29524286D01*
X34974994Y-29502675D01*
X34982106Y-29479226D01*
X34984508Y-29454840D01*
X34982106Y-29430455D01*
X34973840Y-29388900D01*
X34973840Y-29328818D01*
X34982106Y-29287261D01*
X34984508Y-29262874D01*
X34982106Y-29238488D01*
X34974993Y-29215039D01*
X34963442Y-29193429D01*
X34947896Y-29174487D01*
X34928954Y-29158942D01*
X34907343Y-29147391D01*
X34883895Y-29140278D01*
X34859508Y-29137876D01*
X34835122Y-29140278D01*
X34811674Y-29147391D01*
X34758204Y-29169539D01*
X34699282Y-29181259D01*
X34639198Y-29181259D01*
X34580276Y-29169539D01*
X34524770Y-29146548D01*
X34524769Y-29146548D01*
X34524768Y-29146547D01*
X34474814Y-29113168D01*
X34432331Y-29070685D01*
X34398952Y-29020731D01*
X34388969Y-28996630D01*
X34375960Y-28965223D01*
X34364240Y-28906301D01*
X34364240Y-28846217D01*
X34375960Y-28787295D01*
X34398951Y-28731789D01*
X34432330Y-28681834D01*
X34474815Y-28639349D01*
X34511793Y-28614641D01*
X34524768Y-28605971D01*
X34524770Y-28605970D01*
X34580276Y-28582979D01*
X34639198Y-28571259D01*
X34699282Y-28571259D01*
X34758202Y-28582978D01*
X34811675Y-28605127D01*
X34835124Y-28612239D01*
X34859510Y-28614641D01*
X34883896Y-28612239D01*
X34907345Y-28605125D01*
X34928956Y-28593574D01*
X34947898Y-28578029D01*
X34963443Y-28559087D01*
X34974994Y-28537476D01*
X34982106Y-28514027D01*
X34984508Y-28489641D01*
X34982106Y-28465256D01*
X34973840Y-28423701D01*
X34973840Y-28363618D01*
X34985560Y-28304696D01*
X35008551Y-28249190D01*
X35041930Y-28199235D01*
X35084415Y-28156750D01*
X35109221Y-28140175D01*
X35134368Y-28123372D01*
X35134370Y-28123371D01*
X35189876Y-28100380D01*
X35248798Y-28088660D01*
X35308882Y-28088660D01*
X35367804Y-28100380D01*
X35367804Y-28100380D01*
G37*
G36*
X27369344Y-27899720D02*
G01*
X27424850Y-27922711D01*
X27424852Y-27922712D01*
X27449999Y-27939515D01*
X27474805Y-27956090D01*
X27517290Y-27998575D01*
X27550669Y-28048530D01*
X27573660Y-28104036D01*
X27585380Y-28162958D01*
X27585380Y-28223042D01*
X27573661Y-28281962D01*
X27551512Y-28335435D01*
X27544400Y-28358884D01*
X27541998Y-28383270D01*
X27544400Y-28407656D01*
X27551514Y-28431105D01*
X27563065Y-28452716D01*
X27578610Y-28471658D01*
X27597552Y-28487203D01*
X27619163Y-28498754D01*
X27642612Y-28505866D01*
X27666998Y-28508268D01*
X27691383Y-28505866D01*
X27732938Y-28497600D01*
X27793020Y-28497600D01*
X27834577Y-28505866D01*
X27858964Y-28508268D01*
X27883350Y-28505866D01*
X27906799Y-28498753D01*
X27928409Y-28487202D01*
X27947351Y-28471656D01*
X27962896Y-28452714D01*
X27974447Y-28431103D01*
X27981560Y-28407655D01*
X27983962Y-28383268D01*
X27981560Y-28358882D01*
X27974447Y-28335434D01*
X27952299Y-28281964D01*
X27940579Y-28223042D01*
X27940579Y-28162958D01*
X27952299Y-28104036D01*
X27975290Y-28048530D01*
X28008669Y-27998575D01*
X28051154Y-27956090D01*
X28075960Y-27939515D01*
X28101107Y-27922712D01*
X28101109Y-27922711D01*
X28156615Y-27899720D01*
X28215537Y-27888000D01*
X28275621Y-27888000D01*
X28334543Y-27899720D01*
X28390049Y-27922711D01*
X28390051Y-27922712D01*
X28415198Y-27939515D01*
X28440004Y-27956090D01*
X28482489Y-27998575D01*
X28515868Y-28048530D01*
X28538859Y-28104036D01*
X28550579Y-28162958D01*
X28550579Y-28223042D01*
X28538860Y-28281962D01*
X28516711Y-28335435D01*
X28509599Y-28358884D01*
X28507197Y-28383270D01*
X28509599Y-28407656D01*
X28516713Y-28431105D01*
X28528264Y-28452716D01*
X28543809Y-28471658D01*
X28562751Y-28487203D01*
X28584362Y-28498754D01*
X28607811Y-28505866D01*
X28632197Y-28508268D01*
X28656582Y-28505866D01*
X28698137Y-28497600D01*
X28758219Y-28497600D01*
X28799776Y-28505866D01*
X28824163Y-28508268D01*
X28848549Y-28505866D01*
X28871998Y-28498753D01*
X28893608Y-28487202D01*
X28912550Y-28471656D01*
X28928095Y-28452714D01*
X28939646Y-28431103D01*
X28946759Y-28407655D01*
X28949161Y-28383268D01*
X28946759Y-28358882D01*
X28939646Y-28335434D01*
X28917498Y-28281964D01*
X28905778Y-28223042D01*
X28905778Y-28162958D01*
X28917498Y-28104036D01*
X28940489Y-28048530D01*
X28973868Y-27998575D01*
X29016353Y-27956090D01*
X29041159Y-27939515D01*
X29066306Y-27922712D01*
X29066308Y-27922711D01*
X29121814Y-27899720D01*
X29180736Y-27888000D01*
X29240820Y-27888000D01*
X29299742Y-27899720D01*
X29355248Y-27922711D01*
X29355250Y-27922712D01*
X29380397Y-27939515D01*
X29405203Y-27956090D01*
X29447688Y-27998575D01*
X29481067Y-28048530D01*
X29504058Y-28104036D01*
X29515778Y-28162958D01*
X29515778Y-28223042D01*
X29504059Y-28281962D01*
X29481910Y-28335435D01*
X29474798Y-28358884D01*
X29472396Y-28383270D01*
X29474798Y-28407656D01*
X29481912Y-28431105D01*
X29493463Y-28452716D01*
X29509008Y-28471658D01*
X29527950Y-28487203D01*
X29549561Y-28498754D01*
X29573010Y-28505866D01*
X29597396Y-28508268D01*
X29621781Y-28505866D01*
X29663336Y-28497600D01*
X29723418Y-28497600D01*
X29764975Y-28505866D01*
X29789362Y-28508268D01*
X29813748Y-28505866D01*
X29837197Y-28498753D01*
X29858807Y-28487202D01*
X29877749Y-28471656D01*
X29893294Y-28452714D01*
X29904845Y-28431103D01*
X29911958Y-28407655D01*
X29914360Y-28383268D01*
X29911958Y-28358882D01*
X29904845Y-28335434D01*
X29882697Y-28281964D01*
X29870977Y-28223042D01*
X29870977Y-28162958D01*
X29882697Y-28104036D01*
X29905688Y-28048530D01*
X29939067Y-27998575D01*
X29981552Y-27956090D01*
X30006358Y-27939515D01*
X30031505Y-27922712D01*
X30031507Y-27922711D01*
X30087013Y-27899720D01*
X30145935Y-27888000D01*
X30206019Y-27888000D01*
X30264941Y-27899720D01*
X30320447Y-27922711D01*
X30320449Y-27922712D01*
X30345596Y-27939515D01*
X30370402Y-27956090D01*
X30412887Y-27998575D01*
X30446266Y-28048530D01*
X30469257Y-28104036D01*
X30480977Y-28162958D01*
X30480977Y-28223042D01*
X30469258Y-28281962D01*
X30447109Y-28335435D01*
X30439997Y-28358884D01*
X30437595Y-28383270D01*
X30439997Y-28407656D01*
X30447111Y-28431105D01*
X30458662Y-28452716D01*
X30474207Y-28471658D01*
X30493149Y-28487203D01*
X30514760Y-28498754D01*
X30538209Y-28505866D01*
X30562595Y-28508268D01*
X30586980Y-28505866D01*
X30628535Y-28497600D01*
X30688617Y-28497600D01*
X30730174Y-28505866D01*
X30754561Y-28508268D01*
X30778947Y-28505866D01*
X30802396Y-28498753D01*
X30824006Y-28487202D01*
X30842948Y-28471656D01*
X30858493Y-28452714D01*
X30870044Y-28431103D01*
X30877157Y-28407655D01*
X30879559Y-28383268D01*
X30877157Y-28358882D01*
X30870044Y-28335434D01*
X30847896Y-28281964D01*
X30836176Y-28223042D01*
X30836176Y-28162958D01*
X30847896Y-28104036D01*
X30870887Y-28048530D01*
X30904266Y-27998575D01*
X30946751Y-27956090D01*
X30971557Y-27939515D01*
X30996704Y-27922712D01*
X30996706Y-27922711D01*
X31052212Y-27899720D01*
X31111134Y-27888000D01*
X31171218Y-27888000D01*
X31230140Y-27899720D01*
X31285646Y-27922711D01*
X31285648Y-27922712D01*
X31310795Y-27939515D01*
X31335601Y-27956090D01*
X31378086Y-27998575D01*
X31411465Y-28048530D01*
X31434456Y-28104036D01*
X31446176Y-28162958D01*
X31446176Y-28223042D01*
X31434457Y-28281962D01*
X31412308Y-28335435D01*
X31405196Y-28358884D01*
X31402794Y-28383270D01*
X31405196Y-28407656D01*
X31412310Y-28431105D01*
X31423861Y-28452716D01*
X31439406Y-28471658D01*
X31458348Y-28487203D01*
X31479959Y-28498754D01*
X31503408Y-28505866D01*
X31527794Y-28508268D01*
X31552179Y-28505866D01*
X31593734Y-28497600D01*
X31653816Y-28497600D01*
X31695373Y-28505866D01*
X31719760Y-28508268D01*
X31744146Y-28505866D01*
X31767595Y-28498753D01*
X31789205Y-28487202D01*
X31808147Y-28471656D01*
X31823692Y-28452714D01*
X31835243Y-28431103D01*
X31842356Y-28407655D01*
X31844758Y-28383268D01*
X31842356Y-28358882D01*
X31835243Y-28335434D01*
X31813095Y-28281964D01*
X31801375Y-28223042D01*
X31801375Y-28162958D01*
X31813095Y-28104036D01*
X31836086Y-28048530D01*
X31869465Y-27998575D01*
X31911950Y-27956090D01*
X31936756Y-27939515D01*
X31961903Y-27922712D01*
X31961905Y-27922711D01*
X32017411Y-27899720D01*
X32076333Y-27888000D01*
X32136417Y-27888000D01*
X32195339Y-27899720D01*
X32250845Y-27922711D01*
X32250847Y-27922712D01*
X32275994Y-27939515D01*
X32300800Y-27956090D01*
X32343285Y-27998575D01*
X32376664Y-28048530D01*
X32399655Y-28104036D01*
X32411375Y-28162958D01*
X32411375Y-28223042D01*
X32399656Y-28281962D01*
X32377507Y-28335435D01*
X32370395Y-28358884D01*
X32367993Y-28383270D01*
X32370395Y-28407656D01*
X32377509Y-28431105D01*
X32389060Y-28452716D01*
X32404605Y-28471658D01*
X32423547Y-28487203D01*
X32445158Y-28498754D01*
X32468607Y-28505866D01*
X32492993Y-28508268D01*
X32517378Y-28505866D01*
X32558933Y-28497600D01*
X32619015Y-28497600D01*
X32660572Y-28505866D01*
X32684959Y-28508268D01*
X32709345Y-28505866D01*
X32732794Y-28498753D01*
X32754404Y-28487202D01*
X32773346Y-28471656D01*
X32788891Y-28452714D01*
X32800442Y-28431103D01*
X32807555Y-28407655D01*
X32809957Y-28383268D01*
X32807555Y-28358882D01*
X32800442Y-28335434D01*
X32778294Y-28281964D01*
X32766574Y-28223042D01*
X32766574Y-28162958D01*
X32778294Y-28104036D01*
X32801285Y-28048530D01*
X32834664Y-27998575D01*
X32877149Y-27956090D01*
X32901955Y-27939515D01*
X32927102Y-27922712D01*
X32927104Y-27922711D01*
X32982610Y-27899720D01*
X33041532Y-27888000D01*
X33101616Y-27888000D01*
X33160538Y-27899720D01*
X33216044Y-27922711D01*
X33216046Y-27922712D01*
X33241193Y-27939515D01*
X33265999Y-27956090D01*
X33308484Y-27998575D01*
X33341863Y-28048530D01*
X33364854Y-28104036D01*
X33376574Y-28162958D01*
X33376574Y-28223042D01*
X33364855Y-28281962D01*
X33342706Y-28335435D01*
X33335594Y-28358884D01*
X33333192Y-28383270D01*
X33335594Y-28407656D01*
X33342708Y-28431105D01*
X33354259Y-28452716D01*
X33369804Y-28471658D01*
X33388746Y-28487203D01*
X33410357Y-28498754D01*
X33433806Y-28505866D01*
X33458192Y-28508268D01*
X33482577Y-28505866D01*
X33524132Y-28497600D01*
X33584215Y-28497600D01*
X33643137Y-28509320D01*
X33698643Y-28532311D01*
X33698645Y-28532312D01*
X33706373Y-28537476D01*
X33748598Y-28565690D01*
X33791083Y-28608175D01*
X33795403Y-28614641D01*
X33824162Y-28657680D01*
X33824462Y-28658130D01*
X33847453Y-28713636D01*
X33859173Y-28772558D01*
X33859173Y-28832642D01*
X33847453Y-28891564D01*
X33824462Y-28947070D01*
X33791083Y-28997025D01*
X33748598Y-29039510D01*
X33727123Y-29053859D01*
X33698645Y-29072888D01*
X33698644Y-29072889D01*
X33698643Y-29072889D01*
X33643137Y-29095880D01*
X33584215Y-29107600D01*
X33524131Y-29107600D01*
X33465209Y-29095880D01*
X33409703Y-29072889D01*
X33409702Y-29072889D01*
X33409701Y-29072888D01*
X33381223Y-29053859D01*
X33359748Y-29039510D01*
X33317263Y-28997025D01*
X33283884Y-28947070D01*
X33260893Y-28891564D01*
X33249173Y-28832642D01*
X33249173Y-28772558D01*
X33260892Y-28713638D01*
X33283041Y-28660165D01*
X33290153Y-28636716D01*
X33292555Y-28612330D01*
X33290153Y-28587944D01*
X33283039Y-28564495D01*
X33271488Y-28542884D01*
X33255943Y-28523942D01*
X33237001Y-28508397D01*
X33215390Y-28496846D01*
X33191941Y-28489734D01*
X33167555Y-28487332D01*
X33143170Y-28489734D01*
X33101615Y-28498000D01*
X33041533Y-28498000D01*
X32999976Y-28489734D01*
X32975589Y-28487332D01*
X32951203Y-28489734D01*
X32927754Y-28496847D01*
X32906144Y-28508398D01*
X32887202Y-28523944D01*
X32871657Y-28542886D01*
X32860106Y-28564497D01*
X32852993Y-28587945D01*
X32850591Y-28612332D01*
X32852993Y-28636718D01*
X32860106Y-28660166D01*
X32882254Y-28713636D01*
X32893974Y-28772558D01*
X32893974Y-28832642D01*
X32882254Y-28891564D01*
X32859263Y-28947070D01*
X32825884Y-28997025D01*
X32783399Y-29039510D01*
X32761924Y-29053859D01*
X32733446Y-29072888D01*
X32733445Y-29072889D01*
X32733444Y-29072889D01*
X32677938Y-29095880D01*
X32619016Y-29107600D01*
X32558932Y-29107600D01*
X32500010Y-29095880D01*
X32444504Y-29072889D01*
X32444503Y-29072889D01*
X32444502Y-29072888D01*
X32416024Y-29053859D01*
X32394549Y-29039510D01*
X32352064Y-28997025D01*
X32318685Y-28947070D01*
X32295694Y-28891564D01*
X32283974Y-28832642D01*
X32283974Y-28772558D01*
X32295693Y-28713638D01*
X32317842Y-28660165D01*
X32324954Y-28636716D01*
X32327356Y-28612330D01*
X32324954Y-28587944D01*
X32317840Y-28564495D01*
X32306289Y-28542884D01*
X32290744Y-28523942D01*
X32271802Y-28508397D01*
X32250191Y-28496846D01*
X32226742Y-28489734D01*
X32202356Y-28487332D01*
X32177971Y-28489734D01*
X32136416Y-28498000D01*
X32076334Y-28498000D01*
X32034777Y-28489734D01*
X32010390Y-28487332D01*
X31986004Y-28489734D01*
X31962555Y-28496847D01*
X31940945Y-28508398D01*
X31922003Y-28523944D01*
X31906458Y-28542886D01*
X31894907Y-28564497D01*
X31887794Y-28587945D01*
X31885392Y-28612332D01*
X31887794Y-28636718D01*
X31894907Y-28660166D01*
X31917055Y-28713636D01*
X31928775Y-28772558D01*
X31928775Y-28832642D01*
X31917055Y-28891564D01*
X31894064Y-28947070D01*
X31860685Y-28997025D01*
X31818200Y-29039510D01*
X31796725Y-29053859D01*
X31768247Y-29072888D01*
X31768246Y-29072889D01*
X31768245Y-29072889D01*
X31712739Y-29095880D01*
X31653817Y-29107600D01*
X31593733Y-29107600D01*
X31534811Y-29095880D01*
X31479305Y-29072889D01*
X31479304Y-29072889D01*
X31479303Y-29072888D01*
X31450825Y-29053859D01*
X31429350Y-29039510D01*
X31386865Y-28997025D01*
X31353486Y-28947070D01*
X31330495Y-28891564D01*
X31318775Y-28832642D01*
X31318775Y-28772558D01*
X31330494Y-28713638D01*
X31352643Y-28660165D01*
X31359755Y-28636716D01*
X31362157Y-28612330D01*
X31359755Y-28587944D01*
X31352641Y-28564495D01*
X31341090Y-28542884D01*
X31325545Y-28523942D01*
X31306603Y-28508397D01*
X31284992Y-28496846D01*
X31261543Y-28489734D01*
X31237157Y-28487332D01*
X31212772Y-28489734D01*
X31171217Y-28498000D01*
X31111135Y-28498000D01*
X31069578Y-28489734D01*
X31045191Y-28487332D01*
X31020805Y-28489734D01*
X30997356Y-28496847D01*
X30975746Y-28508398D01*
X30956804Y-28523944D01*
X30941259Y-28542886D01*
X30929708Y-28564497D01*
X30922595Y-28587945D01*
X30920193Y-28612332D01*
X30922595Y-28636718D01*
X30929708Y-28660166D01*
X30951856Y-28713636D01*
X30963576Y-28772558D01*
X30963576Y-28832642D01*
X30951856Y-28891564D01*
X30928865Y-28947070D01*
X30895486Y-28997025D01*
X30853001Y-29039510D01*
X30831526Y-29053859D01*
X30803048Y-29072888D01*
X30803047Y-29072889D01*
X30803046Y-29072889D01*
X30747540Y-29095880D01*
X30688618Y-29107600D01*
X30628534Y-29107600D01*
X30569612Y-29095880D01*
X30514106Y-29072889D01*
X30514105Y-29072889D01*
X30514104Y-29072888D01*
X30485626Y-29053859D01*
X30464151Y-29039510D01*
X30421666Y-28997025D01*
X30388287Y-28947070D01*
X30365296Y-28891564D01*
X30353576Y-28832642D01*
X30353576Y-28772558D01*
X30365295Y-28713638D01*
X30387444Y-28660165D01*
X30394556Y-28636716D01*
X30396958Y-28612330D01*
X30394556Y-28587944D01*
X30387442Y-28564495D01*
X30375891Y-28542884D01*
X30360346Y-28523942D01*
X30341404Y-28508397D01*
X30319793Y-28496846D01*
X30296344Y-28489734D01*
X30271958Y-28487332D01*
X30247573Y-28489734D01*
X30206018Y-28498000D01*
X30145936Y-28498000D01*
X30104379Y-28489734D01*
X30079992Y-28487332D01*
X30055606Y-28489734D01*
X30032157Y-28496847D01*
X30010547Y-28508398D01*
X29991605Y-28523944D01*
X29976060Y-28542886D01*
X29964509Y-28564497D01*
X29957396Y-28587945D01*
X29954994Y-28612332D01*
X29957396Y-28636718D01*
X29964509Y-28660166D01*
X29986657Y-28713636D01*
X29998377Y-28772558D01*
X29998377Y-28832642D01*
X29986657Y-28891564D01*
X29963666Y-28947070D01*
X29930287Y-28997025D01*
X29887802Y-29039510D01*
X29866327Y-29053859D01*
X29837849Y-29072888D01*
X29837848Y-29072889D01*
X29837847Y-29072889D01*
X29782341Y-29095880D01*
X29723419Y-29107600D01*
X29663335Y-29107600D01*
X29604413Y-29095880D01*
X29548907Y-29072889D01*
X29548906Y-29072889D01*
X29548905Y-29072888D01*
X29520427Y-29053859D01*
X29498952Y-29039510D01*
X29456467Y-28997025D01*
X29423088Y-28947070D01*
X29400097Y-28891564D01*
X29388377Y-28832642D01*
X29388377Y-28772558D01*
X29400096Y-28713638D01*
X29422245Y-28660165D01*
X29429357Y-28636716D01*
X29431759Y-28612330D01*
X29429357Y-28587944D01*
X29422243Y-28564495D01*
X29410692Y-28542884D01*
X29395147Y-28523942D01*
X29376205Y-28508397D01*
X29354594Y-28496846D01*
X29331145Y-28489734D01*
X29306759Y-28487332D01*
X29282374Y-28489734D01*
X29240819Y-28498000D01*
X29180737Y-28498000D01*
X29139180Y-28489734D01*
X29114793Y-28487332D01*
X29090407Y-28489734D01*
X29066958Y-28496847D01*
X29045348Y-28508398D01*
X29026406Y-28523944D01*
X29010861Y-28542886D01*
X28999310Y-28564497D01*
X28992197Y-28587945D01*
X28989795Y-28612332D01*
X28992197Y-28636718D01*
X28999310Y-28660166D01*
X29021458Y-28713636D01*
X29033178Y-28772558D01*
X29033178Y-28832642D01*
X29021458Y-28891564D01*
X28998467Y-28947070D01*
X28965088Y-28997025D01*
X28922603Y-29039510D01*
X28901128Y-29053859D01*
X28872650Y-29072888D01*
X28872649Y-29072889D01*
X28872648Y-29072889D01*
X28817142Y-29095880D01*
X28758220Y-29107600D01*
X28698136Y-29107600D01*
X28639214Y-29095880D01*
X28583708Y-29072889D01*
X28583707Y-29072889D01*
X28583706Y-29072888D01*
X28555228Y-29053859D01*
X28533753Y-29039510D01*
X28491268Y-28997025D01*
X28457889Y-28947070D01*
X28434898Y-28891564D01*
X28423178Y-28832642D01*
X28423178Y-28772558D01*
X28434897Y-28713638D01*
X28457046Y-28660165D01*
X28464158Y-28636716D01*
X28466560Y-28612330D01*
X28464158Y-28587944D01*
X28457044Y-28564495D01*
X28445493Y-28542884D01*
X28429948Y-28523942D01*
X28411006Y-28508397D01*
X28389395Y-28496846D01*
X28365946Y-28489734D01*
X28341560Y-28487332D01*
X28317175Y-28489734D01*
X28275620Y-28498000D01*
X28215538Y-28498000D01*
X28173981Y-28489734D01*
X28149594Y-28487332D01*
X28125208Y-28489734D01*
X28101759Y-28496847D01*
X28080149Y-28508398D01*
X28061207Y-28523944D01*
X28045662Y-28542886D01*
X28034111Y-28564497D01*
X28026998Y-28587945D01*
X28024596Y-28612332D01*
X28026998Y-28636718D01*
X28034111Y-28660166D01*
X28056259Y-28713636D01*
X28067979Y-28772558D01*
X28067979Y-28832642D01*
X28056259Y-28891564D01*
X28033268Y-28947070D01*
X27999889Y-28997025D01*
X27957404Y-29039510D01*
X27935929Y-29053859D01*
X27907451Y-29072888D01*
X27907450Y-29072889D01*
X27907449Y-29072889D01*
X27851943Y-29095880D01*
X27793021Y-29107600D01*
X27732937Y-29107600D01*
X27674015Y-29095880D01*
X27618509Y-29072889D01*
X27618508Y-29072889D01*
X27618507Y-29072888D01*
X27590029Y-29053859D01*
X27568554Y-29039510D01*
X27526069Y-28997025D01*
X27492690Y-28947070D01*
X27469699Y-28891564D01*
X27457979Y-28832642D01*
X27457979Y-28772558D01*
X27469698Y-28713638D01*
X27491847Y-28660165D01*
X27498959Y-28636716D01*
X27501361Y-28612330D01*
X27498959Y-28587944D01*
X27491845Y-28564495D01*
X27480294Y-28542884D01*
X27464749Y-28523942D01*
X27445807Y-28508397D01*
X27424196Y-28496846D01*
X27400747Y-28489734D01*
X27376361Y-28487332D01*
X27351976Y-28489734D01*
X27310421Y-28498000D01*
X27250338Y-28498000D01*
X27191416Y-28486280D01*
X27135910Y-28463289D01*
X27135909Y-28463289D01*
X27135908Y-28463288D01*
X27110761Y-28446485D01*
X27085955Y-28429910D01*
X27043470Y-28387425D01*
X27010091Y-28337470D01*
X26987100Y-28281964D01*
X26975380Y-28223042D01*
X26975380Y-28162958D01*
X26987100Y-28104036D01*
X27010091Y-28048530D01*
X27043470Y-27998575D01*
X27085955Y-27956090D01*
X27110761Y-27939515D01*
X27135908Y-27922712D01*
X27135910Y-27922711D01*
X27191416Y-27899720D01*
X27250338Y-27888000D01*
X27310422Y-27888000D01*
X27369344Y-27899720D01*
X27369344Y-27899720D01*
G37*
G36*
X27369344Y-19899720D02*
G01*
X27424850Y-19922711D01*
X27424852Y-19922712D01*
X27449999Y-19939515D01*
X27474805Y-19956090D01*
X27517290Y-19998575D01*
X27550669Y-20048530D01*
X27573660Y-20104036D01*
X27585380Y-20162958D01*
X27585380Y-20223042D01*
X27573661Y-20281962D01*
X27551512Y-20335435D01*
X27544400Y-20358884D01*
X27541998Y-20383270D01*
X27544400Y-20407656D01*
X27551514Y-20431105D01*
X27563065Y-20452716D01*
X27578610Y-20471658D01*
X27597552Y-20487203D01*
X27619163Y-20498754D01*
X27642612Y-20505866D01*
X27666998Y-20508268D01*
X27691383Y-20505866D01*
X27732938Y-20497600D01*
X27793020Y-20497600D01*
X27834577Y-20505866D01*
X27858964Y-20508268D01*
X27883350Y-20505866D01*
X27906799Y-20498753D01*
X27928409Y-20487202D01*
X27947351Y-20471656D01*
X27962896Y-20452714D01*
X27974447Y-20431103D01*
X27981560Y-20407655D01*
X27983962Y-20383268D01*
X27981560Y-20358882D01*
X27974447Y-20335434D01*
X27952299Y-20281964D01*
X27940579Y-20223042D01*
X27940579Y-20162958D01*
X27952299Y-20104036D01*
X27975290Y-20048530D01*
X28008669Y-19998575D01*
X28051154Y-19956090D01*
X28075960Y-19939515D01*
X28101107Y-19922712D01*
X28101109Y-19922711D01*
X28156615Y-19899720D01*
X28215537Y-19888000D01*
X28275621Y-19888000D01*
X28334543Y-19899720D01*
X28390049Y-19922711D01*
X28390051Y-19922712D01*
X28415198Y-19939515D01*
X28440004Y-19956090D01*
X28482489Y-19998575D01*
X28515868Y-20048530D01*
X28538859Y-20104036D01*
X28550579Y-20162958D01*
X28550579Y-20223042D01*
X28538860Y-20281962D01*
X28516711Y-20335435D01*
X28509599Y-20358884D01*
X28507197Y-20383270D01*
X28509599Y-20407656D01*
X28516713Y-20431105D01*
X28528264Y-20452716D01*
X28543809Y-20471658D01*
X28562751Y-20487203D01*
X28584362Y-20498754D01*
X28607811Y-20505866D01*
X28632197Y-20508268D01*
X28656582Y-20505866D01*
X28698137Y-20497600D01*
X28758219Y-20497600D01*
X28799776Y-20505866D01*
X28824163Y-20508268D01*
X28848549Y-20505866D01*
X28871998Y-20498753D01*
X28893608Y-20487202D01*
X28912550Y-20471656D01*
X28928095Y-20452714D01*
X28939646Y-20431103D01*
X28946759Y-20407655D01*
X28949161Y-20383268D01*
X28946759Y-20358882D01*
X28939646Y-20335434D01*
X28917498Y-20281964D01*
X28905778Y-20223042D01*
X28905778Y-20162958D01*
X28917498Y-20104036D01*
X28940489Y-20048530D01*
X28973868Y-19998575D01*
X29016353Y-19956090D01*
X29041159Y-19939515D01*
X29066306Y-19922712D01*
X29066308Y-19922711D01*
X29121814Y-19899720D01*
X29180736Y-19888000D01*
X29240820Y-19888000D01*
X29299742Y-19899720D01*
X29355248Y-19922711D01*
X29355250Y-19922712D01*
X29380397Y-19939515D01*
X29405203Y-19956090D01*
X29447688Y-19998575D01*
X29481067Y-20048530D01*
X29504058Y-20104036D01*
X29515778Y-20162958D01*
X29515778Y-20223042D01*
X29504059Y-20281962D01*
X29481910Y-20335435D01*
X29474798Y-20358884D01*
X29472396Y-20383270D01*
X29474798Y-20407656D01*
X29481912Y-20431105D01*
X29493463Y-20452716D01*
X29509008Y-20471658D01*
X29527950Y-20487203D01*
X29549561Y-20498754D01*
X29573010Y-20505866D01*
X29597396Y-20508268D01*
X29621781Y-20505866D01*
X29663336Y-20497600D01*
X29723418Y-20497600D01*
X29764975Y-20505866D01*
X29789362Y-20508268D01*
X29813748Y-20505866D01*
X29837197Y-20498753D01*
X29858807Y-20487202D01*
X29877749Y-20471656D01*
X29893294Y-20452714D01*
X29904845Y-20431103D01*
X29911958Y-20407655D01*
X29914360Y-20383268D01*
X29911958Y-20358882D01*
X29904845Y-20335434D01*
X29882697Y-20281964D01*
X29870977Y-20223042D01*
X29870977Y-20162958D01*
X29882697Y-20104036D01*
X29905688Y-20048530D01*
X29939067Y-19998575D01*
X29981552Y-19956090D01*
X30006358Y-19939515D01*
X30031505Y-19922712D01*
X30031507Y-19922711D01*
X30087013Y-19899720D01*
X30145935Y-19888000D01*
X30206019Y-19888000D01*
X30264941Y-19899720D01*
X30320447Y-19922711D01*
X30320449Y-19922712D01*
X30345596Y-19939515D01*
X30370402Y-19956090D01*
X30412887Y-19998575D01*
X30446266Y-20048530D01*
X30469257Y-20104036D01*
X30480977Y-20162958D01*
X30480977Y-20223042D01*
X30469258Y-20281962D01*
X30447109Y-20335435D01*
X30439997Y-20358884D01*
X30437595Y-20383270D01*
X30439997Y-20407656D01*
X30447111Y-20431105D01*
X30458662Y-20452716D01*
X30474207Y-20471658D01*
X30493149Y-20487203D01*
X30514760Y-20498754D01*
X30538209Y-20505866D01*
X30562595Y-20508268D01*
X30586980Y-20505866D01*
X30628535Y-20497600D01*
X30688617Y-20497600D01*
X30730174Y-20505866D01*
X30754561Y-20508268D01*
X30778947Y-20505866D01*
X30802396Y-20498753D01*
X30824006Y-20487202D01*
X30842948Y-20471656D01*
X30858493Y-20452714D01*
X30870044Y-20431103D01*
X30877157Y-20407655D01*
X30879559Y-20383268D01*
X30877157Y-20358882D01*
X30870044Y-20335434D01*
X30847896Y-20281964D01*
X30836176Y-20223042D01*
X30836176Y-20162958D01*
X30847896Y-20104036D01*
X30870887Y-20048530D01*
X30904266Y-19998575D01*
X30946751Y-19956090D01*
X30971557Y-19939515D01*
X30996704Y-19922712D01*
X30996706Y-19922711D01*
X31052212Y-19899720D01*
X31111134Y-19888000D01*
X31171218Y-19888000D01*
X31230140Y-19899720D01*
X31285646Y-19922711D01*
X31285648Y-19922712D01*
X31310795Y-19939515D01*
X31335601Y-19956090D01*
X31378086Y-19998575D01*
X31411465Y-20048530D01*
X31434456Y-20104036D01*
X31446176Y-20162958D01*
X31446176Y-20223042D01*
X31434457Y-20281962D01*
X31412308Y-20335435D01*
X31405196Y-20358884D01*
X31402794Y-20383270D01*
X31405196Y-20407656D01*
X31412310Y-20431105D01*
X31423861Y-20452716D01*
X31439406Y-20471658D01*
X31458348Y-20487203D01*
X31479959Y-20498754D01*
X31503408Y-20505866D01*
X31527794Y-20508268D01*
X31552179Y-20505866D01*
X31593734Y-20497600D01*
X31653816Y-20497600D01*
X31695373Y-20505866D01*
X31719760Y-20508268D01*
X31744146Y-20505866D01*
X31767595Y-20498753D01*
X31789205Y-20487202D01*
X31808147Y-20471656D01*
X31823692Y-20452714D01*
X31835243Y-20431103D01*
X31842356Y-20407655D01*
X31844758Y-20383268D01*
X31842356Y-20358882D01*
X31835243Y-20335434D01*
X31813095Y-20281964D01*
X31801375Y-20223042D01*
X31801375Y-20162958D01*
X31813095Y-20104036D01*
X31836086Y-20048530D01*
X31869465Y-19998575D01*
X31911950Y-19956090D01*
X31936756Y-19939515D01*
X31961903Y-19922712D01*
X31961905Y-19922711D01*
X32017411Y-19899720D01*
X32076333Y-19888000D01*
X32136417Y-19888000D01*
X32195339Y-19899720D01*
X32250845Y-19922711D01*
X32250847Y-19922712D01*
X32275994Y-19939515D01*
X32300800Y-19956090D01*
X32343285Y-19998575D01*
X32376664Y-20048530D01*
X32399655Y-20104036D01*
X32411375Y-20162958D01*
X32411375Y-20223042D01*
X32399656Y-20281962D01*
X32377507Y-20335435D01*
X32370395Y-20358884D01*
X32367993Y-20383270D01*
X32370395Y-20407656D01*
X32377509Y-20431105D01*
X32389060Y-20452716D01*
X32404605Y-20471658D01*
X32423547Y-20487203D01*
X32445158Y-20498754D01*
X32468607Y-20505866D01*
X32492993Y-20508268D01*
X32517378Y-20505866D01*
X32558933Y-20497600D01*
X32619015Y-20497600D01*
X32660572Y-20505866D01*
X32684959Y-20508268D01*
X32709345Y-20505866D01*
X32732794Y-20498753D01*
X32754404Y-20487202D01*
X32773346Y-20471656D01*
X32788891Y-20452714D01*
X32800442Y-20431103D01*
X32807555Y-20407655D01*
X32809957Y-20383268D01*
X32807555Y-20358882D01*
X32800442Y-20335434D01*
X32778294Y-20281964D01*
X32766574Y-20223042D01*
X32766574Y-20162958D01*
X32778294Y-20104036D01*
X32801285Y-20048530D01*
X32834664Y-19998575D01*
X32877149Y-19956090D01*
X32901955Y-19939515D01*
X32927102Y-19922712D01*
X32927104Y-19922711D01*
X32982610Y-19899720D01*
X33041532Y-19888000D01*
X33101616Y-19888000D01*
X33160538Y-19899720D01*
X33216044Y-19922711D01*
X33216046Y-19922712D01*
X33241193Y-19939515D01*
X33265999Y-19956090D01*
X33308484Y-19998575D01*
X33341863Y-20048530D01*
X33364854Y-20104036D01*
X33376574Y-20162958D01*
X33376574Y-20223042D01*
X33364855Y-20281962D01*
X33342706Y-20335435D01*
X33335594Y-20358884D01*
X33333192Y-20383270D01*
X33335594Y-20407656D01*
X33342708Y-20431105D01*
X33354259Y-20452716D01*
X33369804Y-20471658D01*
X33388746Y-20487203D01*
X33410357Y-20498754D01*
X33433806Y-20505866D01*
X33458192Y-20508268D01*
X33482577Y-20505866D01*
X33524132Y-20497600D01*
X33584215Y-20497600D01*
X33643137Y-20509320D01*
X33698643Y-20532311D01*
X33698645Y-20532312D01*
X33714467Y-20542884D01*
X33748598Y-20565690D01*
X33791083Y-20608175D01*
X33824462Y-20658130D01*
X33847453Y-20713636D01*
X33859173Y-20772558D01*
X33859173Y-20832642D01*
X33847453Y-20891564D01*
X33824462Y-20947070D01*
X33824461Y-20947072D01*
X33791082Y-20997026D01*
X33748599Y-21039509D01*
X33698645Y-21072888D01*
X33698644Y-21072889D01*
X33698643Y-21072889D01*
X33643137Y-21095880D01*
X33584215Y-21107600D01*
X33524131Y-21107600D01*
X33465209Y-21095880D01*
X33409703Y-21072889D01*
X33409702Y-21072889D01*
X33409701Y-21072888D01*
X33359747Y-21039509D01*
X33317264Y-20997026D01*
X33283885Y-20947072D01*
X33283884Y-20947070D01*
X33260893Y-20891564D01*
X33249173Y-20832642D01*
X33249173Y-20772558D01*
X33260892Y-20713638D01*
X33283041Y-20660165D01*
X33290153Y-20636716D01*
X33292555Y-20612330D01*
X33290153Y-20587944D01*
X33283039Y-20564495D01*
X33271488Y-20542884D01*
X33255943Y-20523942D01*
X33237001Y-20508397D01*
X33215390Y-20496846D01*
X33191941Y-20489734D01*
X33167555Y-20487332D01*
X33143170Y-20489734D01*
X33101615Y-20498000D01*
X33041533Y-20498000D01*
X32999976Y-20489734D01*
X32975589Y-20487332D01*
X32951203Y-20489734D01*
X32927754Y-20496847D01*
X32906144Y-20508398D01*
X32887202Y-20523944D01*
X32871657Y-20542886D01*
X32860106Y-20564497D01*
X32852993Y-20587945D01*
X32850591Y-20612332D01*
X32852993Y-20636718D01*
X32860106Y-20660166D01*
X32882254Y-20713636D01*
X32893974Y-20772558D01*
X32893974Y-20832642D01*
X32882254Y-20891564D01*
X32859263Y-20947070D01*
X32859262Y-20947072D01*
X32825883Y-20997026D01*
X32783400Y-21039509D01*
X32733446Y-21072888D01*
X32733445Y-21072889D01*
X32733444Y-21072889D01*
X32677938Y-21095880D01*
X32619016Y-21107600D01*
X32558932Y-21107600D01*
X32500010Y-21095880D01*
X32444504Y-21072889D01*
X32444503Y-21072889D01*
X32444502Y-21072888D01*
X32394548Y-21039509D01*
X32352065Y-20997026D01*
X32318686Y-20947072D01*
X32318685Y-20947070D01*
X32295694Y-20891564D01*
X32283974Y-20832642D01*
X32283974Y-20772558D01*
X32295693Y-20713638D01*
X32317842Y-20660165D01*
X32324954Y-20636716D01*
X32327356Y-20612330D01*
X32324954Y-20587944D01*
X32317840Y-20564495D01*
X32306289Y-20542884D01*
X32290744Y-20523942D01*
X32271802Y-20508397D01*
X32250191Y-20496846D01*
X32226742Y-20489734D01*
X32202356Y-20487332D01*
X32177971Y-20489734D01*
X32136416Y-20498000D01*
X32076334Y-20498000D01*
X32034777Y-20489734D01*
X32010390Y-20487332D01*
X31986004Y-20489734D01*
X31962555Y-20496847D01*
X31940945Y-20508398D01*
X31922003Y-20523944D01*
X31906458Y-20542886D01*
X31894907Y-20564497D01*
X31887794Y-20587945D01*
X31885392Y-20612332D01*
X31887794Y-20636718D01*
X31894907Y-20660166D01*
X31917055Y-20713636D01*
X31928775Y-20772558D01*
X31928775Y-20832642D01*
X31917055Y-20891564D01*
X31894064Y-20947070D01*
X31894063Y-20947072D01*
X31860684Y-20997026D01*
X31818201Y-21039509D01*
X31768247Y-21072888D01*
X31768246Y-21072889D01*
X31768245Y-21072889D01*
X31712739Y-21095880D01*
X31653817Y-21107600D01*
X31593733Y-21107600D01*
X31534811Y-21095880D01*
X31479305Y-21072889D01*
X31479304Y-21072889D01*
X31479303Y-21072888D01*
X31429349Y-21039509D01*
X31386866Y-20997026D01*
X31353487Y-20947072D01*
X31353486Y-20947070D01*
X31330495Y-20891564D01*
X31318775Y-20832642D01*
X31318775Y-20772558D01*
X31330494Y-20713638D01*
X31352643Y-20660165D01*
X31359755Y-20636716D01*
X31362157Y-20612330D01*
X31359755Y-20587944D01*
X31352641Y-20564495D01*
X31341090Y-20542884D01*
X31325545Y-20523942D01*
X31306603Y-20508397D01*
X31284992Y-20496846D01*
X31261543Y-20489734D01*
X31237157Y-20487332D01*
X31212772Y-20489734D01*
X31171217Y-20498000D01*
X31111135Y-20498000D01*
X31069578Y-20489734D01*
X31045191Y-20487332D01*
X31020805Y-20489734D01*
X30997356Y-20496847D01*
X30975746Y-20508398D01*
X30956804Y-20523944D01*
X30941259Y-20542886D01*
X30929708Y-20564497D01*
X30922595Y-20587945D01*
X30920193Y-20612332D01*
X30922595Y-20636718D01*
X30929708Y-20660166D01*
X30951856Y-20713636D01*
X30963576Y-20772558D01*
X30963576Y-20832642D01*
X30951856Y-20891564D01*
X30928865Y-20947070D01*
X30928864Y-20947072D01*
X30895485Y-20997026D01*
X30853002Y-21039509D01*
X30803048Y-21072888D01*
X30803047Y-21072889D01*
X30803046Y-21072889D01*
X30747540Y-21095880D01*
X30688618Y-21107600D01*
X30628534Y-21107600D01*
X30569612Y-21095880D01*
X30514106Y-21072889D01*
X30514105Y-21072889D01*
X30514104Y-21072888D01*
X30464150Y-21039509D01*
X30421667Y-20997026D01*
X30388288Y-20947072D01*
X30388287Y-20947070D01*
X30365296Y-20891564D01*
X30353576Y-20832642D01*
X30353576Y-20772558D01*
X30365295Y-20713638D01*
X30387444Y-20660165D01*
X30394556Y-20636716D01*
X30396958Y-20612330D01*
X30394556Y-20587944D01*
X30387442Y-20564495D01*
X30375891Y-20542884D01*
X30360346Y-20523942D01*
X30341404Y-20508397D01*
X30319793Y-20496846D01*
X30296344Y-20489734D01*
X30271958Y-20487332D01*
X30247573Y-20489734D01*
X30206018Y-20498000D01*
X30145936Y-20498000D01*
X30104379Y-20489734D01*
X30079992Y-20487332D01*
X30055606Y-20489734D01*
X30032157Y-20496847D01*
X30010547Y-20508398D01*
X29991605Y-20523944D01*
X29976060Y-20542886D01*
X29964509Y-20564497D01*
X29957396Y-20587945D01*
X29954994Y-20612332D01*
X29957396Y-20636718D01*
X29964509Y-20660166D01*
X29986657Y-20713636D01*
X29998377Y-20772558D01*
X29998377Y-20832642D01*
X29986657Y-20891564D01*
X29963666Y-20947070D01*
X29963665Y-20947072D01*
X29930286Y-20997026D01*
X29887803Y-21039509D01*
X29837849Y-21072888D01*
X29837848Y-21072889D01*
X29837847Y-21072889D01*
X29782341Y-21095880D01*
X29723419Y-21107600D01*
X29663335Y-21107600D01*
X29604413Y-21095880D01*
X29548907Y-21072889D01*
X29548906Y-21072889D01*
X29548905Y-21072888D01*
X29498951Y-21039509D01*
X29456468Y-20997026D01*
X29423089Y-20947072D01*
X29423088Y-20947070D01*
X29400097Y-20891564D01*
X29388377Y-20832642D01*
X29388377Y-20772558D01*
X29400096Y-20713638D01*
X29422245Y-20660165D01*
X29429357Y-20636716D01*
X29431759Y-20612330D01*
X29429357Y-20587944D01*
X29422243Y-20564495D01*
X29410692Y-20542884D01*
X29395147Y-20523942D01*
X29376205Y-20508397D01*
X29354594Y-20496846D01*
X29331145Y-20489734D01*
X29306759Y-20487332D01*
X29282374Y-20489734D01*
X29240819Y-20498000D01*
X29180737Y-20498000D01*
X29139180Y-20489734D01*
X29114793Y-20487332D01*
X29090407Y-20489734D01*
X29066958Y-20496847D01*
X29045348Y-20508398D01*
X29026406Y-20523944D01*
X29010861Y-20542886D01*
X28999310Y-20564497D01*
X28992197Y-20587945D01*
X28989795Y-20612332D01*
X28992197Y-20636718D01*
X28999310Y-20660166D01*
X29021458Y-20713636D01*
X29033178Y-20772558D01*
X29033178Y-20832642D01*
X29021458Y-20891564D01*
X28998467Y-20947070D01*
X28998466Y-20947072D01*
X28965087Y-20997026D01*
X28922604Y-21039509D01*
X28872650Y-21072888D01*
X28872649Y-21072889D01*
X28872648Y-21072889D01*
X28817142Y-21095880D01*
X28758220Y-21107600D01*
X28698136Y-21107600D01*
X28639214Y-21095880D01*
X28583708Y-21072889D01*
X28583707Y-21072889D01*
X28583706Y-21072888D01*
X28533752Y-21039509D01*
X28491269Y-20997026D01*
X28457890Y-20947072D01*
X28457889Y-20947070D01*
X28434898Y-20891564D01*
X28423178Y-20832642D01*
X28423178Y-20772558D01*
X28434897Y-20713638D01*
X28457046Y-20660165D01*
X28464158Y-20636716D01*
X28466560Y-20612330D01*
X28464158Y-20587944D01*
X28457044Y-20564495D01*
X28445493Y-20542884D01*
X28429948Y-20523942D01*
X28411006Y-20508397D01*
X28389395Y-20496846D01*
X28365946Y-20489734D01*
X28341560Y-20487332D01*
X28317175Y-20489734D01*
X28275620Y-20498000D01*
X28215538Y-20498000D01*
X28173981Y-20489734D01*
X28149594Y-20487332D01*
X28125208Y-20489734D01*
X28101759Y-20496847D01*
X28080149Y-20508398D01*
X28061207Y-20523944D01*
X28045662Y-20542886D01*
X28034111Y-20564497D01*
X28026998Y-20587945D01*
X28024596Y-20612332D01*
X28026998Y-20636718D01*
X28034111Y-20660166D01*
X28056259Y-20713636D01*
X28067979Y-20772558D01*
X28067979Y-20832642D01*
X28056259Y-20891564D01*
X28033268Y-20947070D01*
X28033267Y-20947072D01*
X27999888Y-20997026D01*
X27957405Y-21039509D01*
X27907451Y-21072888D01*
X27907450Y-21072889D01*
X27907449Y-21072889D01*
X27851943Y-21095880D01*
X27793021Y-21107600D01*
X27732937Y-21107600D01*
X27674015Y-21095880D01*
X27618509Y-21072889D01*
X27618508Y-21072889D01*
X27618507Y-21072888D01*
X27568553Y-21039509D01*
X27526070Y-20997026D01*
X27492691Y-20947072D01*
X27492690Y-20947070D01*
X27469699Y-20891564D01*
X27457979Y-20832642D01*
X27457979Y-20772558D01*
X27469698Y-20713638D01*
X27491847Y-20660165D01*
X27498959Y-20636716D01*
X27501361Y-20612330D01*
X27498959Y-20587944D01*
X27491845Y-20564495D01*
X27480294Y-20542884D01*
X27464749Y-20523942D01*
X27445807Y-20508397D01*
X27424196Y-20496846D01*
X27400747Y-20489734D01*
X27376361Y-20487332D01*
X27351976Y-20489734D01*
X27310421Y-20498000D01*
X27250338Y-20498000D01*
X27191416Y-20486280D01*
X27135910Y-20463289D01*
X27135909Y-20463289D01*
X27135908Y-20463288D01*
X27110761Y-20446485D01*
X27085955Y-20429910D01*
X27043470Y-20387425D01*
X27010091Y-20337470D01*
X26987100Y-20281964D01*
X26975380Y-20223042D01*
X26975380Y-20162958D01*
X26987100Y-20104036D01*
X27010091Y-20048530D01*
X27043470Y-19998575D01*
X27085955Y-19956090D01*
X27110761Y-19939515D01*
X27135908Y-19922712D01*
X27135910Y-19922711D01*
X27191416Y-19899720D01*
X27250338Y-19888000D01*
X27310422Y-19888000D01*
X27369344Y-19899720D01*
X27369344Y-19899720D01*
G37*
G36*
X27275764Y-15124922D02*
G01*
X27331270Y-15147913D01*
X27331272Y-15147914D01*
X27356419Y-15164717D01*
X27381225Y-15181292D01*
X27423710Y-15223777D01*
X27457089Y-15273732D01*
X27480080Y-15329238D01*
X27491800Y-15388160D01*
X27491800Y-15448243D01*
X27483534Y-15489800D01*
X27481132Y-15514187D01*
X27483534Y-15538573D01*
X27490647Y-15562022D01*
X27502198Y-15583632D01*
X27517744Y-15602574D01*
X27536686Y-15618119D01*
X27558297Y-15629670D01*
X27581745Y-15636783D01*
X27606132Y-15639185D01*
X27630518Y-15636783D01*
X27653966Y-15629670D01*
X27707436Y-15607522D01*
X27766358Y-15595802D01*
X27826442Y-15595802D01*
X27885364Y-15607522D01*
X27940870Y-15630513D01*
X27940872Y-15630514D01*
X27950254Y-15636783D01*
X27990825Y-15663892D01*
X28033310Y-15706377D01*
X28066689Y-15756332D01*
X28089680Y-15811838D01*
X28101400Y-15870760D01*
X28101400Y-15930844D01*
X28089680Y-15989766D01*
X28066689Y-16045272D01*
X28036722Y-16090121D01*
X28033309Y-16095228D01*
X27990826Y-16137711D01*
X27940872Y-16171090D01*
X27940871Y-16171091D01*
X27940870Y-16171091D01*
X27885364Y-16194082D01*
X27826442Y-16205802D01*
X27766358Y-16205802D01*
X27707438Y-16194083D01*
X27653965Y-16171934D01*
X27630516Y-16164822D01*
X27606130Y-16162420D01*
X27581744Y-16164822D01*
X27558295Y-16171936D01*
X27536684Y-16183487D01*
X27517742Y-16199032D01*
X27502197Y-16217974D01*
X27490646Y-16239585D01*
X27483534Y-16263034D01*
X27481132Y-16287420D01*
X27483534Y-16311805D01*
X27491800Y-16353360D01*
X27491800Y-16413442D01*
X27483534Y-16454999D01*
X27481132Y-16479386D01*
X27483534Y-16503772D01*
X27490647Y-16527221D01*
X27502198Y-16548831D01*
X27517744Y-16567773D01*
X27536686Y-16583318D01*
X27558297Y-16594869D01*
X27581745Y-16601982D01*
X27606132Y-16604384D01*
X27630518Y-16601982D01*
X27653966Y-16594869D01*
X27707436Y-16572721D01*
X27766358Y-16561001D01*
X27826442Y-16561001D01*
X27885364Y-16572721D01*
X27940870Y-16595712D01*
X27940872Y-16595713D01*
X27950254Y-16601982D01*
X27990825Y-16629091D01*
X28033310Y-16671576D01*
X28066689Y-16721531D01*
X28089680Y-16777037D01*
X28101400Y-16835959D01*
X28101400Y-16896043D01*
X28089680Y-16954965D01*
X28066689Y-17010471D01*
X28036722Y-17055320D01*
X28033309Y-17060427D01*
X27990826Y-17102910D01*
X27940872Y-17136289D01*
X27940871Y-17136290D01*
X27940870Y-17136290D01*
X27885364Y-17159281D01*
X27826442Y-17171001D01*
X27766358Y-17171001D01*
X27707438Y-17159282D01*
X27653965Y-17137133D01*
X27630516Y-17130021D01*
X27606130Y-17127619D01*
X27581744Y-17130021D01*
X27558295Y-17137135D01*
X27536684Y-17148686D01*
X27517742Y-17164231D01*
X27502197Y-17183173D01*
X27490646Y-17204784D01*
X27483534Y-17228233D01*
X27481132Y-17252619D01*
X27483534Y-17277004D01*
X27491800Y-17318559D01*
X27491800Y-17378642D01*
X27480080Y-17437564D01*
X27457089Y-17493070D01*
X27457088Y-17493072D01*
X27423709Y-17543026D01*
X27381226Y-17585509D01*
X27331272Y-17618888D01*
X27331271Y-17618889D01*
X27331270Y-17618889D01*
X27275764Y-17641880D01*
X27216842Y-17653600D01*
X27156758Y-17653600D01*
X27097836Y-17641880D01*
X27042330Y-17618889D01*
X27042329Y-17618889D01*
X27042328Y-17618888D01*
X26992374Y-17585509D01*
X26949891Y-17543026D01*
X26916512Y-17493072D01*
X26916511Y-17493070D01*
X26893520Y-17437564D01*
X26881800Y-17378642D01*
X26881800Y-17318558D01*
X26893520Y-17259636D01*
X26916511Y-17204130D01*
X26949890Y-17154175D01*
X26992375Y-17111690D01*
X27032948Y-17084580D01*
X27042328Y-17078312D01*
X27042330Y-17078311D01*
X27097836Y-17055320D01*
X27156758Y-17043600D01*
X27216842Y-17043600D01*
X27275762Y-17055319D01*
X27329235Y-17077468D01*
X27352684Y-17084580D01*
X27377070Y-17086982D01*
X27401456Y-17084580D01*
X27424905Y-17077466D01*
X27446516Y-17065915D01*
X27465458Y-17050370D01*
X27481003Y-17031428D01*
X27492554Y-17009817D01*
X27499666Y-16986368D01*
X27502068Y-16961982D01*
X27499666Y-16937597D01*
X27491400Y-16896042D01*
X27491400Y-16835960D01*
X27499666Y-16794403D01*
X27502068Y-16770016D01*
X27499666Y-16745630D01*
X27492553Y-16722181D01*
X27481002Y-16700571D01*
X27465456Y-16681629D01*
X27446514Y-16666084D01*
X27424903Y-16654533D01*
X27401455Y-16647420D01*
X27377068Y-16645018D01*
X27352682Y-16647420D01*
X27329234Y-16654533D01*
X27275764Y-16676681D01*
X27216842Y-16688401D01*
X27156758Y-16688401D01*
X27097836Y-16676681D01*
X27042330Y-16653690D01*
X27042329Y-16653690D01*
X27042328Y-16653689D01*
X26992374Y-16620310D01*
X26949891Y-16577827D01*
X26916512Y-16527873D01*
X26906529Y-16503772D01*
X26893520Y-16472365D01*
X26881800Y-16413443D01*
X26881800Y-16353359D01*
X26893520Y-16294437D01*
X26916511Y-16238931D01*
X26949890Y-16188976D01*
X26992375Y-16146491D01*
X27032948Y-16119381D01*
X27042328Y-16113113D01*
X27042330Y-16113112D01*
X27097836Y-16090121D01*
X27156758Y-16078401D01*
X27216842Y-16078401D01*
X27275762Y-16090120D01*
X27329235Y-16112269D01*
X27352684Y-16119381D01*
X27377070Y-16121783D01*
X27401456Y-16119381D01*
X27424905Y-16112267D01*
X27446516Y-16100716D01*
X27465458Y-16085171D01*
X27481003Y-16066229D01*
X27492554Y-16044618D01*
X27499666Y-16021169D01*
X27502068Y-15996783D01*
X27499666Y-15972398D01*
X27491400Y-15930843D01*
X27491400Y-15870761D01*
X27499666Y-15829204D01*
X27502068Y-15804817D01*
X27499666Y-15780431D01*
X27492553Y-15756982D01*
X27481002Y-15735372D01*
X27465456Y-15716430D01*
X27446514Y-15700885D01*
X27424903Y-15689334D01*
X27401455Y-15682221D01*
X27377068Y-15679819D01*
X27352682Y-15682221D01*
X27329234Y-15689334D01*
X27275764Y-15711482D01*
X27216842Y-15723202D01*
X27156758Y-15723202D01*
X27097836Y-15711482D01*
X27042330Y-15688491D01*
X27042329Y-15688491D01*
X27042328Y-15688490D01*
X26992374Y-15655111D01*
X26949891Y-15612628D01*
X26916512Y-15562674D01*
X26906529Y-15538573D01*
X26893520Y-15507166D01*
X26881800Y-15448244D01*
X26881800Y-15388160D01*
X26893520Y-15329238D01*
X26916511Y-15273732D01*
X26949890Y-15223777D01*
X26992375Y-15181292D01*
X27017181Y-15164717D01*
X27042328Y-15147914D01*
X27042330Y-15147913D01*
X27097836Y-15124922D01*
X27156758Y-15113202D01*
X27216842Y-15113202D01*
X27275764Y-15124922D01*
X27275764Y-15124922D01*
G37*
G36*
X17275764Y-15124922D02*
G01*
X17331270Y-15147913D01*
X17331272Y-15147914D01*
X17356419Y-15164717D01*
X17381225Y-15181292D01*
X17423710Y-15223777D01*
X17457089Y-15273732D01*
X17480080Y-15329238D01*
X17491800Y-15388160D01*
X17491800Y-15448243D01*
X17483534Y-15489800D01*
X17481132Y-15514187D01*
X17483534Y-15538573D01*
X17490647Y-15562022D01*
X17502198Y-15583632D01*
X17517744Y-15602574D01*
X17536686Y-15618119D01*
X17558297Y-15629670D01*
X17581745Y-15636783D01*
X17606132Y-15639185D01*
X17630518Y-15636783D01*
X17653966Y-15629670D01*
X17707436Y-15607522D01*
X17766358Y-15595802D01*
X17826442Y-15595802D01*
X17885364Y-15607522D01*
X17940870Y-15630513D01*
X17940872Y-15630514D01*
X17950254Y-15636783D01*
X17990825Y-15663892D01*
X18033310Y-15706377D01*
X18066689Y-15756332D01*
X18089680Y-15811838D01*
X18101400Y-15870760D01*
X18101400Y-15930844D01*
X18089680Y-15989766D01*
X18066689Y-16045272D01*
X18036722Y-16090121D01*
X18033309Y-16095228D01*
X17990826Y-16137711D01*
X17940872Y-16171090D01*
X17940871Y-16171091D01*
X17940870Y-16171091D01*
X17885364Y-16194082D01*
X17826442Y-16205802D01*
X17766358Y-16205802D01*
X17707438Y-16194083D01*
X17653965Y-16171934D01*
X17630516Y-16164822D01*
X17606130Y-16162420D01*
X17581744Y-16164822D01*
X17558295Y-16171936D01*
X17536684Y-16183487D01*
X17517742Y-16199032D01*
X17502197Y-16217974D01*
X17490646Y-16239585D01*
X17483534Y-16263034D01*
X17481132Y-16287420D01*
X17483534Y-16311805D01*
X17491800Y-16353360D01*
X17491800Y-16413442D01*
X17483534Y-16454999D01*
X17481132Y-16479386D01*
X17483534Y-16503772D01*
X17490647Y-16527221D01*
X17502198Y-16548831D01*
X17517744Y-16567773D01*
X17536686Y-16583318D01*
X17558297Y-16594869D01*
X17581745Y-16601982D01*
X17606132Y-16604384D01*
X17630518Y-16601982D01*
X17653966Y-16594869D01*
X17707436Y-16572721D01*
X17766358Y-16561001D01*
X17826442Y-16561001D01*
X17885364Y-16572721D01*
X17940870Y-16595712D01*
X17940872Y-16595713D01*
X17950254Y-16601982D01*
X17990825Y-16629091D01*
X18033310Y-16671576D01*
X18066689Y-16721531D01*
X18089680Y-16777037D01*
X18101400Y-16835959D01*
X18101400Y-16896043D01*
X18089680Y-16954965D01*
X18066689Y-17010471D01*
X18036722Y-17055320D01*
X18033309Y-17060427D01*
X17990826Y-17102910D01*
X17940872Y-17136289D01*
X17940871Y-17136290D01*
X17940870Y-17136290D01*
X17885364Y-17159281D01*
X17826442Y-17171001D01*
X17766358Y-17171001D01*
X17707438Y-17159282D01*
X17653965Y-17137133D01*
X17630516Y-17130021D01*
X17606130Y-17127619D01*
X17581744Y-17130021D01*
X17558295Y-17137135D01*
X17536684Y-17148686D01*
X17517742Y-17164231D01*
X17502197Y-17183173D01*
X17490646Y-17204784D01*
X17483534Y-17228233D01*
X17481132Y-17252619D01*
X17483534Y-17277004D01*
X17491800Y-17318559D01*
X17491800Y-17378642D01*
X17480080Y-17437564D01*
X17457089Y-17493070D01*
X17457088Y-17493072D01*
X17423709Y-17543026D01*
X17381226Y-17585509D01*
X17331272Y-17618888D01*
X17331271Y-17618889D01*
X17331270Y-17618889D01*
X17275764Y-17641880D01*
X17216842Y-17653600D01*
X17156758Y-17653600D01*
X17097836Y-17641880D01*
X17042330Y-17618889D01*
X17042329Y-17618889D01*
X17042328Y-17618888D01*
X16992374Y-17585509D01*
X16949891Y-17543026D01*
X16916512Y-17493072D01*
X16916511Y-17493070D01*
X16893520Y-17437564D01*
X16881800Y-17378642D01*
X16881800Y-17318558D01*
X16893520Y-17259636D01*
X16916511Y-17204130D01*
X16949890Y-17154175D01*
X16992375Y-17111690D01*
X17032948Y-17084580D01*
X17042328Y-17078312D01*
X17042330Y-17078311D01*
X17097836Y-17055320D01*
X17156758Y-17043600D01*
X17216842Y-17043600D01*
X17275762Y-17055319D01*
X17329235Y-17077468D01*
X17352684Y-17084580D01*
X17377070Y-17086982D01*
X17401456Y-17084580D01*
X17424905Y-17077466D01*
X17446516Y-17065915D01*
X17465458Y-17050370D01*
X17481003Y-17031428D01*
X17492554Y-17009817D01*
X17499666Y-16986368D01*
X17502068Y-16961982D01*
X17499666Y-16937597D01*
X17491400Y-16896042D01*
X17491400Y-16835960D01*
X17499666Y-16794403D01*
X17502068Y-16770016D01*
X17499666Y-16745630D01*
X17492553Y-16722181D01*
X17481002Y-16700571D01*
X17465456Y-16681629D01*
X17446514Y-16666084D01*
X17424903Y-16654533D01*
X17401455Y-16647420D01*
X17377068Y-16645018D01*
X17352682Y-16647420D01*
X17329234Y-16654533D01*
X17275764Y-16676681D01*
X17216842Y-16688401D01*
X17156758Y-16688401D01*
X17097836Y-16676681D01*
X17042330Y-16653690D01*
X17042329Y-16653690D01*
X17042328Y-16653689D01*
X16992374Y-16620310D01*
X16949891Y-16577827D01*
X16916512Y-16527873D01*
X16906529Y-16503772D01*
X16893520Y-16472365D01*
X16881800Y-16413443D01*
X16881800Y-16353359D01*
X16893520Y-16294437D01*
X16916511Y-16238931D01*
X16949890Y-16188976D01*
X16992375Y-16146491D01*
X17032948Y-16119381D01*
X17042328Y-16113113D01*
X17042330Y-16113112D01*
X17097836Y-16090121D01*
X17156758Y-16078401D01*
X17216842Y-16078401D01*
X17275762Y-16090120D01*
X17329235Y-16112269D01*
X17352684Y-16119381D01*
X17377070Y-16121783D01*
X17401456Y-16119381D01*
X17424905Y-16112267D01*
X17446516Y-16100716D01*
X17465458Y-16085171D01*
X17481003Y-16066229D01*
X17492554Y-16044618D01*
X17499666Y-16021169D01*
X17502068Y-15996783D01*
X17499666Y-15972398D01*
X17491400Y-15930843D01*
X17491400Y-15870761D01*
X17499666Y-15829204D01*
X17502068Y-15804817D01*
X17499666Y-15780431D01*
X17492553Y-15756982D01*
X17481002Y-15735372D01*
X17465456Y-15716430D01*
X17446514Y-15700885D01*
X17424903Y-15689334D01*
X17401455Y-15682221D01*
X17377068Y-15679819D01*
X17352682Y-15682221D01*
X17329234Y-15689334D01*
X17275764Y-15711482D01*
X17216842Y-15723202D01*
X17156758Y-15723202D01*
X17097836Y-15711482D01*
X17042330Y-15688491D01*
X17042329Y-15688491D01*
X17042328Y-15688490D01*
X16992374Y-15655111D01*
X16949891Y-15612628D01*
X16916512Y-15562674D01*
X16906529Y-15538573D01*
X16893520Y-15507166D01*
X16881800Y-15448244D01*
X16881800Y-15388160D01*
X16893520Y-15329238D01*
X16916511Y-15273732D01*
X16949890Y-15223777D01*
X16992375Y-15181292D01*
X17017181Y-15164717D01*
X17042328Y-15147914D01*
X17042330Y-15147913D01*
X17097836Y-15124922D01*
X17156758Y-15113202D01*
X17216842Y-15113202D01*
X17275764Y-15124922D01*
X17275764Y-15124922D01*
G37*
M02*
