G04 #@! TF.GenerationSoftware,KiCad,Pcbnew,(5.1.0)-1*
G04 #@! TF.CreationDate,2019-05-02T19:51:02-07:00*
G04 #@! TF.ProjectId,Miniscope-v4-PYTHON480,4d696e69-7363-46f7-9065-2d76342d5059,rev?*
G04 #@! TF.SameCoordinates,PX20a5d00PY1ff2b60*
G04 #@! TF.FileFunction,Copper,L1,Top*
G04 #@! TF.FilePolarity,Positive*
%FSLAX46Y46*%
G04 Gerber Fmt 4.6, Leading zero omitted, Abs format (unit mm)*
G04 Created by KiCad (PCBNEW (5.1.0)-1) date 2019-05-02 19:51:02*
%MOMM*%
%LPD*%
G04 APERTURE LIST*
%ADD10C,0.508000*%
%ADD11R,0.310000X0.340000*%
%ADD12R,0.340000X0.310000*%
%ADD13C,0.100000*%
%ADD14C,0.590000*%
%ADD15R,0.280000X0.520000*%
%ADD16R,0.280000X0.170000*%
%ADD17R,0.810000X0.870000*%
%ADD18R,0.890000X0.920000*%
%ADD19R,0.880000X0.830000*%
%ADD20R,0.990000X0.340000*%
%ADD21C,0.355600*%
%ADD22C,0.152400*%
%ADD23C,0.127000*%
%ADD24C,0.076200*%
%ADD25C,0.304800*%
G04 APERTURE END LIST*
D10*
X9390400Y2226207D03*
X10000000Y2708806D03*
X9390400Y3191406D03*
X10000000Y3674005D03*
X9390400Y4156605D03*
X10000000Y4639204D03*
X9390400Y5121804D03*
X10000000Y5604403D03*
X9390400Y6087003D03*
X10000000Y6569602D03*
X9390400Y7052202D03*
X10000000Y7534801D03*
X9390400Y8017401D03*
X10000000Y8500000D03*
D11*
X8504600Y8509000D03*
X7954600Y8509000D03*
X1604600Y3733800D03*
X2154600Y3733800D03*
X461600Y3733800D03*
X1011600Y3733800D03*
D12*
X3530600Y7980000D03*
X3530600Y8530000D03*
D13*
G36*
X4960158Y8726690D02*
G01*
X4974476Y8724566D01*
X4988517Y8721049D01*
X5002146Y8716172D01*
X5015231Y8709983D01*
X5027647Y8702542D01*
X5039273Y8693919D01*
X5049998Y8684198D01*
X5059719Y8673473D01*
X5068342Y8661847D01*
X5075783Y8649431D01*
X5081972Y8636346D01*
X5086849Y8622717D01*
X5090366Y8608676D01*
X5092490Y8594358D01*
X5093200Y8579900D01*
X5093200Y8234900D01*
X5092490Y8220442D01*
X5090366Y8206124D01*
X5086849Y8192083D01*
X5081972Y8178454D01*
X5075783Y8165369D01*
X5068342Y8152953D01*
X5059719Y8141327D01*
X5049998Y8130602D01*
X5039273Y8120881D01*
X5027647Y8112258D01*
X5015231Y8104817D01*
X5002146Y8098628D01*
X4988517Y8093751D01*
X4974476Y8090234D01*
X4960158Y8088110D01*
X4945700Y8087400D01*
X4650700Y8087400D01*
X4636242Y8088110D01*
X4621924Y8090234D01*
X4607883Y8093751D01*
X4594254Y8098628D01*
X4581169Y8104817D01*
X4568753Y8112258D01*
X4557127Y8120881D01*
X4546402Y8130602D01*
X4536681Y8141327D01*
X4528058Y8152953D01*
X4520617Y8165369D01*
X4514428Y8178454D01*
X4509551Y8192083D01*
X4506034Y8206124D01*
X4503910Y8220442D01*
X4503200Y8234900D01*
X4503200Y8579900D01*
X4503910Y8594358D01*
X4506034Y8608676D01*
X4509551Y8622717D01*
X4514428Y8636346D01*
X4520617Y8649431D01*
X4528058Y8661847D01*
X4536681Y8673473D01*
X4546402Y8684198D01*
X4557127Y8693919D01*
X4568753Y8702542D01*
X4581169Y8709983D01*
X4594254Y8716172D01*
X4607883Y8721049D01*
X4621924Y8724566D01*
X4636242Y8726690D01*
X4650700Y8727400D01*
X4945700Y8727400D01*
X4960158Y8726690D01*
X4960158Y8726690D01*
G37*
D14*
X4798200Y8407400D03*
D13*
G36*
X5930158Y8726690D02*
G01*
X5944476Y8724566D01*
X5958517Y8721049D01*
X5972146Y8716172D01*
X5985231Y8709983D01*
X5997647Y8702542D01*
X6009273Y8693919D01*
X6019998Y8684198D01*
X6029719Y8673473D01*
X6038342Y8661847D01*
X6045783Y8649431D01*
X6051972Y8636346D01*
X6056849Y8622717D01*
X6060366Y8608676D01*
X6062490Y8594358D01*
X6063200Y8579900D01*
X6063200Y8234900D01*
X6062490Y8220442D01*
X6060366Y8206124D01*
X6056849Y8192083D01*
X6051972Y8178454D01*
X6045783Y8165369D01*
X6038342Y8152953D01*
X6029719Y8141327D01*
X6019998Y8130602D01*
X6009273Y8120881D01*
X5997647Y8112258D01*
X5985231Y8104817D01*
X5972146Y8098628D01*
X5958517Y8093751D01*
X5944476Y8090234D01*
X5930158Y8088110D01*
X5915700Y8087400D01*
X5620700Y8087400D01*
X5606242Y8088110D01*
X5591924Y8090234D01*
X5577883Y8093751D01*
X5564254Y8098628D01*
X5551169Y8104817D01*
X5538753Y8112258D01*
X5527127Y8120881D01*
X5516402Y8130602D01*
X5506681Y8141327D01*
X5498058Y8152953D01*
X5490617Y8165369D01*
X5484428Y8178454D01*
X5479551Y8192083D01*
X5476034Y8206124D01*
X5473910Y8220442D01*
X5473200Y8234900D01*
X5473200Y8579900D01*
X5473910Y8594358D01*
X5476034Y8608676D01*
X5479551Y8622717D01*
X5484428Y8636346D01*
X5490617Y8649431D01*
X5498058Y8661847D01*
X5506681Y8673473D01*
X5516402Y8684198D01*
X5527127Y8693919D01*
X5538753Y8702542D01*
X5551169Y8709983D01*
X5564254Y8716172D01*
X5577883Y8721049D01*
X5591924Y8724566D01*
X5606242Y8726690D01*
X5620700Y8727400D01*
X5915700Y8727400D01*
X5930158Y8726690D01*
X5930158Y8726690D01*
G37*
D14*
X5768200Y8407400D03*
D15*
X6634600Y8407400D03*
D16*
X7284600Y8582400D03*
X7284600Y8232400D03*
D12*
X5275400Y5410600D03*
X5275400Y5960600D03*
D11*
X3772400Y2383600D03*
X3222400Y2383600D03*
D12*
X7188200Y6036800D03*
X7188200Y5486800D03*
D11*
X3289800Y2993200D03*
X2739800Y2993200D03*
X7769000Y4902200D03*
X8319000Y4902200D03*
X7793400Y3022600D03*
X7243400Y3022600D03*
D12*
X5275400Y2938000D03*
X5275400Y2388000D03*
D11*
X2087200Y2395600D03*
X2637200Y2395600D03*
X6574200Y5892800D03*
X6024200Y5892800D03*
X7785600Y2409000D03*
X7235600Y2409000D03*
D12*
X3759200Y5388400D03*
X3759200Y4838400D03*
X3530600Y7387000D03*
X3530600Y6837000D03*
X7790000Y6036800D03*
X7790000Y5486800D03*
D17*
X7016200Y7188200D03*
X8376200Y7188200D03*
D10*
X9800000Y500000D03*
X9317401Y1109600D03*
X8834801Y500000D03*
X8352202Y1109600D03*
X7869602Y500000D03*
X7387003Y1109600D03*
X6904403Y500000D03*
X6421804Y1109600D03*
X5939204Y500000D03*
X5456605Y1109600D03*
X4974005Y500000D03*
X4491406Y1109600D03*
X4008806Y500000D03*
X3526207Y1109600D03*
X3043607Y500000D03*
X2561008Y1109600D03*
X2078408Y500000D03*
X1595809Y1109600D03*
X1113209Y500000D03*
X630610Y1109600D03*
D18*
X6955000Y4013200D03*
X8285000Y4013200D03*
X4516600Y7162800D03*
X5846600Y7162800D03*
D19*
X706000Y4664800D03*
X2596000Y4664800D03*
X2596000Y6104800D03*
X706000Y6104800D03*
D20*
X2586400Y7224000D03*
X2586400Y7874000D03*
X2586400Y8524000D03*
X766400Y8524000D03*
X766400Y7224000D03*
D21*
X9448800Y2184400D03*
X9804400Y482600D03*
X609600Y1117600D03*
X533400Y7848600D03*
X2590800Y7874000D03*
X1742800Y4404000D03*
X8331200Y7188200D03*
X3582899Y3766400D03*
X3759200Y4838400D03*
X4749800Y6324600D03*
X5994400Y6400800D03*
X8305800Y5435600D03*
X3251197Y1904997D03*
X1854200Y1905000D03*
X1473200Y6223000D03*
X1473200Y5562600D03*
X8940800Y2844800D03*
X8610600Y2489200D03*
X5156198Y1854200D03*
X4572000Y7112000D03*
X1676400Y7950194D03*
X1066800Y7213600D03*
X10007600Y8483600D03*
X1600200Y1092189D03*
X787400Y2032000D03*
X2336774Y1905000D03*
X6858000Y4064000D03*
X5457890Y3810000D03*
X812800Y2717800D03*
X9982200Y2692400D03*
X9321800Y1117600D03*
X2590800Y7213600D03*
X2768587Y1905000D03*
X6553200Y6400800D03*
X7975600Y1879600D03*
X10007600Y7543800D03*
X1117600Y508000D03*
X3530600Y7975600D03*
X2260600Y2997200D03*
X7518400Y6477006D03*
X4495800Y5054600D03*
X965200Y6045200D03*
X8280401Y4267200D03*
X2159000Y3733800D03*
X6731000Y4978400D03*
X5846600Y7162800D03*
X9398000Y3200400D03*
X3749601Y1879600D03*
X3530600Y1092190D03*
X5461000Y1092190D03*
X6908800Y508000D03*
X8356600Y1092200D03*
X9982200Y4622800D03*
X4648200Y4089400D03*
X3048000Y508000D03*
X4978400Y508000D03*
X6426200Y1092190D03*
X8839200Y482600D03*
X9372600Y6096000D03*
X1854200Y3200400D03*
X10007600Y5588000D03*
X3784600Y4292600D03*
X9372600Y5130800D03*
X4191000Y4013200D03*
X4013200Y508000D03*
X5003800Y3784600D03*
X4495800Y1092190D03*
X5854878Y4123484D03*
X7391400Y1092190D03*
X6197600Y3835394D03*
X10007600Y6553200D03*
X3835400Y6324600D03*
X9372600Y7035800D03*
X4292600Y6299200D03*
X10007600Y3683000D03*
X2565400Y1117600D03*
X9372600Y4165600D03*
X2082800Y508000D03*
D22*
X1604600Y4056200D02*
X1604600Y3733800D01*
X1604600Y4265800D02*
X1604600Y4056200D01*
X2003600Y4664800D02*
X1742800Y4404000D01*
X2596000Y4664800D02*
X2003600Y4664800D01*
X1742800Y4404000D02*
X1604600Y4265800D01*
D23*
X8331200Y7188200D02*
X8376200Y7188200D01*
D22*
X3289800Y3473301D02*
X3582899Y3766400D01*
X3289800Y2993200D02*
X3289800Y3473301D01*
X8254600Y5486800D02*
X8305800Y5435600D01*
X7256600Y5486800D02*
X8254600Y5486800D01*
X8319000Y5422400D02*
X8305800Y5435600D01*
X8319000Y4923600D02*
X8319000Y5422400D01*
D24*
X3772400Y2383600D02*
X3772400Y2368600D01*
X3308797Y1904997D02*
X3251197Y1904997D01*
X3772400Y2368600D02*
X3308797Y1904997D01*
X2087200Y2395600D02*
X2087200Y2138000D01*
X2087200Y2138000D02*
X1854200Y1905000D01*
D22*
X3408000Y7387000D02*
X3530600Y7387000D01*
X2586400Y7874000D02*
X2921000Y7874000D01*
X2921000Y7874000D02*
X3408000Y7387000D01*
X7756204Y2946400D02*
X7857804Y2844800D01*
X8689353Y2844800D02*
X8940800Y2844800D01*
X7857804Y2844800D02*
X8689353Y2844800D01*
X7785600Y2409000D02*
X8530400Y2409000D01*
X8530400Y2409000D02*
X8610600Y2489200D01*
X6024200Y6371000D02*
X5994400Y6400800D01*
X6024200Y6058800D02*
X6024200Y6371000D01*
D23*
X8178800Y7188200D02*
X8331200Y7188200D01*
X7160000Y8582400D02*
X6941656Y8364056D01*
X7284600Y8582400D02*
X7160000Y8582400D01*
X6941656Y8364056D02*
X6941656Y8098882D01*
X6941656Y8098882D02*
X7166538Y7874000D01*
X7166538Y7874000D02*
X7493000Y7874000D01*
X7493000Y7874000D02*
X8178800Y7188200D01*
D22*
X5155800Y5410600D02*
X5275400Y5410600D01*
X4749800Y6324600D02*
X4749800Y5816600D01*
X4749800Y5816600D02*
X5155800Y5410600D01*
X5275400Y1973402D02*
X5156198Y1854200D01*
X5275400Y2388000D02*
X5275400Y1973402D01*
X1091400Y8524000D02*
X1676400Y7939000D01*
X2586400Y8524000D02*
X2261400Y8524000D01*
X766400Y8524000D02*
X1091400Y8524000D01*
X1676400Y7939000D02*
X1676400Y7950194D01*
X2261400Y8524000D02*
X1676400Y7939000D01*
D24*
X6756400Y4140200D02*
X6858000Y4064000D01*
X2336774Y2080174D02*
X2336774Y1905000D01*
X2637200Y2380600D02*
X2336774Y2080174D01*
X2637200Y2395600D02*
X2637200Y2380600D01*
X7210200Y4039800D02*
X7234400Y4064000D01*
D22*
X7210200Y2942400D02*
X7210200Y4039800D01*
D25*
X6299200Y4597400D02*
X5727318Y4597400D01*
X5448476Y3819414D02*
X5457890Y3810000D01*
X6756400Y4140200D02*
X6299200Y4597400D01*
X5727318Y4597400D02*
X5448476Y4318558D01*
X5448476Y4318558D02*
X5448476Y3819414D01*
D22*
X5461000Y3806890D02*
X5457890Y3810000D01*
X5461000Y3073400D02*
X5461000Y3806890D01*
X5275400Y2938000D02*
X5325600Y2938000D01*
X5325600Y2938000D02*
X5461000Y3073400D01*
X2973400Y6837000D02*
X2586400Y7224000D01*
X3530600Y6837000D02*
X2973400Y6837000D01*
D24*
X2768587Y1914787D02*
X2768587Y1905000D01*
X3222400Y2368600D02*
X2768587Y1914787D01*
X3222400Y2383600D02*
X3222400Y2368600D01*
D22*
X6553200Y5913800D02*
X6574200Y5892800D01*
X6553200Y6400800D02*
X6553200Y5913800D01*
X7235600Y2409000D02*
X7235600Y2394000D01*
X7235600Y2394000D02*
X7750000Y1879600D01*
X7750000Y1879600D02*
X7975600Y1879600D01*
X2735800Y2997200D02*
X2739800Y2993200D01*
X2260600Y2997200D02*
X2735800Y2997200D01*
X7790000Y6205406D02*
X7518400Y6477006D01*
X7790000Y6036800D02*
X7790000Y6205406D01*
X7256600Y6215206D02*
X7518400Y6477006D01*
X7256600Y6036800D02*
X7256600Y6215206D01*
X4089400Y5054600D02*
X4495800Y5054600D01*
X3759200Y5388400D02*
X4089400Y5058200D01*
X4089400Y5058200D02*
X4089400Y5054600D01*
X2082801Y2819401D02*
X2260600Y2997200D01*
X1360999Y2819401D02*
X2082801Y2819401D01*
X461600Y3718800D02*
X1360999Y2819401D01*
X461600Y3733800D02*
X461600Y3718800D01*
X7769000Y4923600D02*
X7769000Y4908600D01*
X7769000Y4908600D02*
X8280401Y4397199D01*
X8280401Y4397199D02*
X8280401Y4267200D01*
X1011600Y4359200D02*
X706000Y4664800D01*
X1011600Y3733800D02*
X1011600Y4359200D01*
X6686325Y5023075D02*
X6731000Y4978400D01*
X5035325Y5023075D02*
X6686325Y5023075D01*
X4241800Y5816600D02*
X5035325Y5023075D01*
X2596000Y6104800D02*
X2884200Y5816600D01*
X2884200Y5816600D02*
X4241800Y5816600D01*
X6990800Y7162800D02*
X7016200Y7188200D01*
X5846600Y7162800D02*
X5846600Y7162800D01*
X5846600Y7162800D02*
X6990800Y7162800D01*
X5275400Y6545400D02*
X5275400Y5960600D01*
X5846600Y7162800D02*
X5846600Y7116600D01*
X5846600Y7116600D02*
X5275400Y6545400D01*
X5768200Y8407400D02*
X6634600Y8407400D01*
X7678000Y8232400D02*
X7954600Y8509000D01*
X7284600Y8232400D02*
X7678000Y8232400D01*
D24*
X4008806Y1316406D02*
X4008806Y500000D01*
X4299461Y1607061D02*
X4008806Y1316406D01*
X4299461Y2828814D02*
X4299461Y1607061D01*
X5003800Y3784600D02*
X5003800Y3533153D01*
X5003800Y3533153D02*
X4299461Y2828814D01*
X5854878Y571322D02*
X5854878Y3872037D01*
X5854878Y3872037D02*
X5854878Y4123484D01*
X5943600Y482600D02*
X5854878Y571322D01*
X7869602Y1172087D02*
X6197600Y2844089D01*
X7869602Y500000D02*
X7869602Y1172087D01*
X6197600Y3583947D02*
X6197600Y3835394D01*
X6197600Y2844089D02*
X6197600Y3583947D01*
D22*
X4675600Y8530000D02*
X4798200Y8407400D01*
X3530600Y8530000D02*
X4675600Y8530000D01*
X8898801Y8509000D02*
X9390400Y8017401D01*
X8504600Y8509000D02*
X8898801Y8509000D01*
M02*
