G04 #@! TF.GenerationSoftware,KiCad,Pcbnew,(5.1.0)-1*
G04 #@! TF.CreationDate,2019-05-02T19:51:03-07:00*
G04 #@! TF.ProjectId,Miniscope-v4-PYTHON480,4d696e69-7363-46f7-9065-2d76342d5059,rev?*
G04 #@! TF.SameCoordinates,PX20a5d00PY1ff2b60*
G04 #@! TF.FileFunction,Soldermask,Top*
G04 #@! TF.FilePolarity,Negative*
%FSLAX46Y46*%
G04 Gerber Fmt 4.6, Leading zero omitted, Abs format (unit mm)*
G04 Created by KiCad (PCBNEW (5.1.0)-1) date 2019-05-02 19:51:03*
%MOMM*%
%LPD*%
G04 APERTURE LIST*
%ADD10C,0.100000*%
G04 APERTURE END LIST*
D10*
G36*
X9881499Y768663D02*
G01*
X9932346Y747602D01*
X9978109Y717024D01*
X10017024Y678109D01*
X10047602Y632346D01*
X10068663Y581499D01*
X10079400Y527519D01*
X10079400Y472481D01*
X10068663Y418501D01*
X10047602Y367654D01*
X10017024Y321891D01*
X9978109Y282976D01*
X9932346Y252398D01*
X9881499Y231337D01*
X9827519Y220600D01*
X9772481Y220600D01*
X9718501Y231337D01*
X9667654Y252398D01*
X9621891Y282976D01*
X9582976Y321891D01*
X9552398Y367654D01*
X9531337Y418501D01*
X9520600Y472481D01*
X9520600Y527519D01*
X9531337Y581499D01*
X9552398Y632346D01*
X9582976Y678109D01*
X9621891Y717024D01*
X9667654Y747602D01*
X9718501Y768663D01*
X9772481Y779400D01*
X9827519Y779400D01*
X9881499Y768663D01*
X9881499Y768663D01*
G37*
G36*
X8916300Y768663D02*
G01*
X8967147Y747602D01*
X9012910Y717024D01*
X9051825Y678109D01*
X9082403Y632346D01*
X9103464Y581499D01*
X9114201Y527519D01*
X9114201Y472481D01*
X9103464Y418501D01*
X9082403Y367654D01*
X9051825Y321891D01*
X9012910Y282976D01*
X8967147Y252398D01*
X8916300Y231337D01*
X8862320Y220600D01*
X8807282Y220600D01*
X8753302Y231337D01*
X8702455Y252398D01*
X8656692Y282976D01*
X8617777Y321891D01*
X8587199Y367654D01*
X8566138Y418501D01*
X8555401Y472481D01*
X8555401Y527519D01*
X8566138Y581499D01*
X8587199Y632346D01*
X8617777Y678109D01*
X8656692Y717024D01*
X8702455Y747602D01*
X8753302Y768663D01*
X8807282Y779400D01*
X8862320Y779400D01*
X8916300Y768663D01*
X8916300Y768663D01*
G37*
G36*
X1194708Y768663D02*
G01*
X1245555Y747602D01*
X1291318Y717024D01*
X1330233Y678109D01*
X1360811Y632346D01*
X1381872Y581499D01*
X1392609Y527519D01*
X1392609Y472481D01*
X1381872Y418501D01*
X1360811Y367654D01*
X1330233Y321891D01*
X1291318Y282976D01*
X1245555Y252398D01*
X1194708Y231337D01*
X1140728Y220600D01*
X1085690Y220600D01*
X1031710Y231337D01*
X980863Y252398D01*
X935100Y282976D01*
X896185Y321891D01*
X865607Y367654D01*
X844546Y418501D01*
X833809Y472481D01*
X833809Y527519D01*
X844546Y581499D01*
X865607Y632346D01*
X896185Y678109D01*
X935100Y717024D01*
X980863Y747602D01*
X1031710Y768663D01*
X1085690Y779400D01*
X1140728Y779400D01*
X1194708Y768663D01*
X1194708Y768663D01*
G37*
G36*
X2159907Y768663D02*
G01*
X2210754Y747602D01*
X2256517Y717024D01*
X2295432Y678109D01*
X2326010Y632346D01*
X2347071Y581499D01*
X2357808Y527519D01*
X2357808Y472481D01*
X2347071Y418501D01*
X2326010Y367654D01*
X2295432Y321891D01*
X2256517Y282976D01*
X2210754Y252398D01*
X2159907Y231337D01*
X2105927Y220600D01*
X2050889Y220600D01*
X1996909Y231337D01*
X1946062Y252398D01*
X1900299Y282976D01*
X1861384Y321891D01*
X1830806Y367654D01*
X1809745Y418501D01*
X1799008Y472481D01*
X1799008Y527519D01*
X1809745Y581499D01*
X1830806Y632346D01*
X1861384Y678109D01*
X1900299Y717024D01*
X1946062Y747602D01*
X1996909Y768663D01*
X2050889Y779400D01*
X2105927Y779400D01*
X2159907Y768663D01*
X2159907Y768663D01*
G37*
G36*
X3125106Y768663D02*
G01*
X3175953Y747602D01*
X3221716Y717024D01*
X3260631Y678109D01*
X3291209Y632346D01*
X3312270Y581499D01*
X3323007Y527519D01*
X3323007Y472481D01*
X3312270Y418501D01*
X3291209Y367654D01*
X3260631Y321891D01*
X3221716Y282976D01*
X3175953Y252398D01*
X3125106Y231337D01*
X3071126Y220600D01*
X3016088Y220600D01*
X2962108Y231337D01*
X2911261Y252398D01*
X2865498Y282976D01*
X2826583Y321891D01*
X2796005Y367654D01*
X2774944Y418501D01*
X2764207Y472481D01*
X2764207Y527519D01*
X2774944Y581499D01*
X2796005Y632346D01*
X2826583Y678109D01*
X2865498Y717024D01*
X2911261Y747602D01*
X2962108Y768663D01*
X3016088Y779400D01*
X3071126Y779400D01*
X3125106Y768663D01*
X3125106Y768663D01*
G37*
G36*
X4090305Y768663D02*
G01*
X4141152Y747602D01*
X4186915Y717024D01*
X4225830Y678109D01*
X4256408Y632346D01*
X4277469Y581499D01*
X4288206Y527519D01*
X4288206Y472481D01*
X4277469Y418501D01*
X4256408Y367654D01*
X4225830Y321891D01*
X4186915Y282976D01*
X4141152Y252398D01*
X4090305Y231337D01*
X4036325Y220600D01*
X3981287Y220600D01*
X3927307Y231337D01*
X3876460Y252398D01*
X3830697Y282976D01*
X3791782Y321891D01*
X3761204Y367654D01*
X3740143Y418501D01*
X3729406Y472481D01*
X3729406Y527519D01*
X3740143Y581499D01*
X3761204Y632346D01*
X3791782Y678109D01*
X3830697Y717024D01*
X3876460Y747602D01*
X3927307Y768663D01*
X3981287Y779400D01*
X4036325Y779400D01*
X4090305Y768663D01*
X4090305Y768663D01*
G37*
G36*
X6020703Y768663D02*
G01*
X6071550Y747602D01*
X6117313Y717024D01*
X6156228Y678109D01*
X6186806Y632346D01*
X6207867Y581499D01*
X6218604Y527519D01*
X6218604Y472481D01*
X6207867Y418501D01*
X6186806Y367654D01*
X6156228Y321891D01*
X6117313Y282976D01*
X6071550Y252398D01*
X6020703Y231337D01*
X5966723Y220600D01*
X5911685Y220600D01*
X5857705Y231337D01*
X5806858Y252398D01*
X5761095Y282976D01*
X5722180Y321891D01*
X5691602Y367654D01*
X5670541Y418501D01*
X5659804Y472481D01*
X5659804Y527519D01*
X5670541Y581499D01*
X5691602Y632346D01*
X5722180Y678109D01*
X5761095Y717024D01*
X5806858Y747602D01*
X5857705Y768663D01*
X5911685Y779400D01*
X5966723Y779400D01*
X6020703Y768663D01*
X6020703Y768663D01*
G37*
G36*
X5055504Y768663D02*
G01*
X5106351Y747602D01*
X5152114Y717024D01*
X5191029Y678109D01*
X5221607Y632346D01*
X5242668Y581499D01*
X5253405Y527519D01*
X5253405Y472481D01*
X5242668Y418501D01*
X5221607Y367654D01*
X5191029Y321891D01*
X5152114Y282976D01*
X5106351Y252398D01*
X5055504Y231337D01*
X5001524Y220600D01*
X4946486Y220600D01*
X4892506Y231337D01*
X4841659Y252398D01*
X4795896Y282976D01*
X4756981Y321891D01*
X4726403Y367654D01*
X4705342Y418501D01*
X4694605Y472481D01*
X4694605Y527519D01*
X4705342Y581499D01*
X4726403Y632346D01*
X4756981Y678109D01*
X4795896Y717024D01*
X4841659Y747602D01*
X4892506Y768663D01*
X4946486Y779400D01*
X5001524Y779400D01*
X5055504Y768663D01*
X5055504Y768663D01*
G37*
G36*
X7951101Y768663D02*
G01*
X8001948Y747602D01*
X8047711Y717024D01*
X8086626Y678109D01*
X8117204Y632346D01*
X8138265Y581499D01*
X8149002Y527519D01*
X8149002Y472481D01*
X8138265Y418501D01*
X8117204Y367654D01*
X8086626Y321891D01*
X8047711Y282976D01*
X8001948Y252398D01*
X7951101Y231337D01*
X7897121Y220600D01*
X7842083Y220600D01*
X7788103Y231337D01*
X7737256Y252398D01*
X7691493Y282976D01*
X7652578Y321891D01*
X7622000Y367654D01*
X7600939Y418501D01*
X7590202Y472481D01*
X7590202Y527519D01*
X7600939Y581499D01*
X7622000Y632346D01*
X7652578Y678109D01*
X7691493Y717024D01*
X7737256Y747602D01*
X7788103Y768663D01*
X7842083Y779400D01*
X7897121Y779400D01*
X7951101Y768663D01*
X7951101Y768663D01*
G37*
G36*
X6985902Y768663D02*
G01*
X7036749Y747602D01*
X7082512Y717024D01*
X7121427Y678109D01*
X7152005Y632346D01*
X7173066Y581499D01*
X7183803Y527519D01*
X7183803Y472481D01*
X7173066Y418501D01*
X7152005Y367654D01*
X7121427Y321891D01*
X7082512Y282976D01*
X7036749Y252398D01*
X6985902Y231337D01*
X6931922Y220600D01*
X6876884Y220600D01*
X6822904Y231337D01*
X6772057Y252398D01*
X6726294Y282976D01*
X6687379Y321891D01*
X6656801Y367654D01*
X6635740Y418501D01*
X6625003Y472481D01*
X6625003Y527519D01*
X6635740Y581499D01*
X6656801Y632346D01*
X6687379Y678109D01*
X6726294Y717024D01*
X6772057Y747602D01*
X6822904Y768663D01*
X6876884Y779400D01*
X6931922Y779400D01*
X6985902Y768663D01*
X6985902Y768663D01*
G37*
G36*
X6503303Y1378263D02*
G01*
X6554150Y1357202D01*
X6599913Y1326624D01*
X6638828Y1287709D01*
X6669406Y1241946D01*
X6690467Y1191099D01*
X6701204Y1137119D01*
X6701204Y1082081D01*
X6690467Y1028101D01*
X6669406Y977254D01*
X6638828Y931491D01*
X6599913Y892576D01*
X6554150Y861998D01*
X6503303Y840937D01*
X6449323Y830200D01*
X6394285Y830200D01*
X6340305Y840937D01*
X6289458Y861998D01*
X6243695Y892576D01*
X6204780Y931491D01*
X6174202Y977254D01*
X6153141Y1028101D01*
X6142404Y1082081D01*
X6142404Y1137119D01*
X6153141Y1191099D01*
X6174202Y1241946D01*
X6204780Y1287709D01*
X6243695Y1326624D01*
X6289458Y1357202D01*
X6340305Y1378263D01*
X6394285Y1389000D01*
X6449323Y1389000D01*
X6503303Y1378263D01*
X6503303Y1378263D01*
G37*
G36*
X712109Y1378263D02*
G01*
X762956Y1357202D01*
X808719Y1326624D01*
X847634Y1287709D01*
X878212Y1241946D01*
X899273Y1191099D01*
X910010Y1137119D01*
X910010Y1082081D01*
X899273Y1028101D01*
X878212Y977254D01*
X847634Y931491D01*
X808719Y892576D01*
X762956Y861998D01*
X712109Y840937D01*
X658129Y830200D01*
X603091Y830200D01*
X549111Y840937D01*
X498264Y861998D01*
X452501Y892576D01*
X413586Y931491D01*
X383008Y977254D01*
X361947Y1028101D01*
X351210Y1082081D01*
X351210Y1137119D01*
X361947Y1191099D01*
X383008Y1241946D01*
X413586Y1287709D01*
X452501Y1326624D01*
X498264Y1357202D01*
X549111Y1378263D01*
X603091Y1389000D01*
X658129Y1389000D01*
X712109Y1378263D01*
X712109Y1378263D01*
G37*
G36*
X1677308Y1378263D02*
G01*
X1728155Y1357202D01*
X1773918Y1326624D01*
X1812833Y1287709D01*
X1843411Y1241946D01*
X1864472Y1191099D01*
X1875209Y1137119D01*
X1875209Y1082081D01*
X1864472Y1028101D01*
X1843411Y977254D01*
X1812833Y931491D01*
X1773918Y892576D01*
X1728155Y861998D01*
X1677308Y840937D01*
X1623328Y830200D01*
X1568290Y830200D01*
X1514310Y840937D01*
X1463463Y861998D01*
X1417700Y892576D01*
X1378785Y931491D01*
X1348207Y977254D01*
X1327146Y1028101D01*
X1316409Y1082081D01*
X1316409Y1137119D01*
X1327146Y1191099D01*
X1348207Y1241946D01*
X1378785Y1287709D01*
X1417700Y1326624D01*
X1463463Y1357202D01*
X1514310Y1378263D01*
X1568290Y1389000D01*
X1623328Y1389000D01*
X1677308Y1378263D01*
X1677308Y1378263D01*
G37*
G36*
X2642507Y1378263D02*
G01*
X2693354Y1357202D01*
X2739117Y1326624D01*
X2778032Y1287709D01*
X2808610Y1241946D01*
X2829671Y1191099D01*
X2840408Y1137119D01*
X2840408Y1082081D01*
X2829671Y1028101D01*
X2808610Y977254D01*
X2778032Y931491D01*
X2739117Y892576D01*
X2693354Y861998D01*
X2642507Y840937D01*
X2588527Y830200D01*
X2533489Y830200D01*
X2479509Y840937D01*
X2428662Y861998D01*
X2382899Y892576D01*
X2343984Y931491D01*
X2313406Y977254D01*
X2292345Y1028101D01*
X2281608Y1082081D01*
X2281608Y1137119D01*
X2292345Y1191099D01*
X2313406Y1241946D01*
X2343984Y1287709D01*
X2382899Y1326624D01*
X2428662Y1357202D01*
X2479509Y1378263D01*
X2533489Y1389000D01*
X2588527Y1389000D01*
X2642507Y1378263D01*
X2642507Y1378263D01*
G37*
G36*
X3607706Y1378263D02*
G01*
X3658553Y1357202D01*
X3704316Y1326624D01*
X3743231Y1287709D01*
X3773809Y1241946D01*
X3794870Y1191099D01*
X3805607Y1137119D01*
X3805607Y1082081D01*
X3794870Y1028101D01*
X3773809Y977254D01*
X3743231Y931491D01*
X3704316Y892576D01*
X3658553Y861998D01*
X3607706Y840937D01*
X3553726Y830200D01*
X3498688Y830200D01*
X3444708Y840937D01*
X3393861Y861998D01*
X3348098Y892576D01*
X3309183Y931491D01*
X3278605Y977254D01*
X3257544Y1028101D01*
X3246807Y1082081D01*
X3246807Y1137119D01*
X3257544Y1191099D01*
X3278605Y1241946D01*
X3309183Y1287709D01*
X3348098Y1326624D01*
X3393861Y1357202D01*
X3444708Y1378263D01*
X3498688Y1389000D01*
X3553726Y1389000D01*
X3607706Y1378263D01*
X3607706Y1378263D01*
G37*
G36*
X4572905Y1378263D02*
G01*
X4623752Y1357202D01*
X4669515Y1326624D01*
X4708430Y1287709D01*
X4739008Y1241946D01*
X4760069Y1191099D01*
X4770806Y1137119D01*
X4770806Y1082081D01*
X4760069Y1028101D01*
X4739008Y977254D01*
X4708430Y931491D01*
X4669515Y892576D01*
X4623752Y861998D01*
X4572905Y840937D01*
X4518925Y830200D01*
X4463887Y830200D01*
X4409907Y840937D01*
X4359060Y861998D01*
X4313297Y892576D01*
X4274382Y931491D01*
X4243804Y977254D01*
X4222743Y1028101D01*
X4212006Y1082081D01*
X4212006Y1137119D01*
X4222743Y1191099D01*
X4243804Y1241946D01*
X4274382Y1287709D01*
X4313297Y1326624D01*
X4359060Y1357202D01*
X4409907Y1378263D01*
X4463887Y1389000D01*
X4518925Y1389000D01*
X4572905Y1378263D01*
X4572905Y1378263D01*
G37*
G36*
X5538104Y1378263D02*
G01*
X5588951Y1357202D01*
X5634714Y1326624D01*
X5673629Y1287709D01*
X5704207Y1241946D01*
X5725268Y1191099D01*
X5736005Y1137119D01*
X5736005Y1082081D01*
X5725268Y1028101D01*
X5704207Y977254D01*
X5673629Y931491D01*
X5634714Y892576D01*
X5588951Y861998D01*
X5538104Y840937D01*
X5484124Y830200D01*
X5429086Y830200D01*
X5375106Y840937D01*
X5324259Y861998D01*
X5278496Y892576D01*
X5239581Y931491D01*
X5209003Y977254D01*
X5187942Y1028101D01*
X5177205Y1082081D01*
X5177205Y1137119D01*
X5187942Y1191099D01*
X5209003Y1241946D01*
X5239581Y1287709D01*
X5278496Y1326624D01*
X5324259Y1357202D01*
X5375106Y1378263D01*
X5429086Y1389000D01*
X5484124Y1389000D01*
X5538104Y1378263D01*
X5538104Y1378263D01*
G37*
G36*
X7468502Y1378263D02*
G01*
X7519349Y1357202D01*
X7565112Y1326624D01*
X7604027Y1287709D01*
X7634605Y1241946D01*
X7655666Y1191099D01*
X7666403Y1137119D01*
X7666403Y1082081D01*
X7655666Y1028101D01*
X7634605Y977254D01*
X7604027Y931491D01*
X7565112Y892576D01*
X7519349Y861998D01*
X7468502Y840937D01*
X7414522Y830200D01*
X7359484Y830200D01*
X7305504Y840937D01*
X7254657Y861998D01*
X7208894Y892576D01*
X7169979Y931491D01*
X7139401Y977254D01*
X7118340Y1028101D01*
X7107603Y1082081D01*
X7107603Y1137119D01*
X7118340Y1191099D01*
X7139401Y1241946D01*
X7169979Y1287709D01*
X7208894Y1326624D01*
X7254657Y1357202D01*
X7305504Y1378263D01*
X7359484Y1389000D01*
X7414522Y1389000D01*
X7468502Y1378263D01*
X7468502Y1378263D01*
G37*
G36*
X8433701Y1378263D02*
G01*
X8484548Y1357202D01*
X8530311Y1326624D01*
X8569226Y1287709D01*
X8599804Y1241946D01*
X8620865Y1191099D01*
X8631602Y1137119D01*
X8631602Y1082081D01*
X8620865Y1028101D01*
X8599804Y977254D01*
X8569226Y931491D01*
X8530311Y892576D01*
X8484548Y861998D01*
X8433701Y840937D01*
X8379721Y830200D01*
X8324683Y830200D01*
X8270703Y840937D01*
X8219856Y861998D01*
X8174093Y892576D01*
X8135178Y931491D01*
X8104600Y977254D01*
X8083539Y1028101D01*
X8072802Y1082081D01*
X8072802Y1137119D01*
X8083539Y1191099D01*
X8104600Y1241946D01*
X8135178Y1287709D01*
X8174093Y1326624D01*
X8219856Y1357202D01*
X8270703Y1378263D01*
X8324683Y1389000D01*
X8379721Y1389000D01*
X8433701Y1378263D01*
X8433701Y1378263D01*
G37*
G36*
X9398900Y1378263D02*
G01*
X9449747Y1357202D01*
X9495510Y1326624D01*
X9534425Y1287709D01*
X9565003Y1241946D01*
X9586064Y1191099D01*
X9596801Y1137119D01*
X9596801Y1082081D01*
X9586064Y1028101D01*
X9565003Y977254D01*
X9534425Y931491D01*
X9495510Y892576D01*
X9449747Y861998D01*
X9398900Y840937D01*
X9344920Y830200D01*
X9289882Y830200D01*
X9235902Y840937D01*
X9185055Y861998D01*
X9139292Y892576D01*
X9100377Y931491D01*
X9069799Y977254D01*
X9048738Y1028101D01*
X9038001Y1082081D01*
X9038001Y1137119D01*
X9048738Y1191099D01*
X9069799Y1241946D01*
X9100377Y1287709D01*
X9139292Y1326624D01*
X9185055Y1357202D01*
X9235902Y1378263D01*
X9289882Y1389000D01*
X9344920Y1389000D01*
X9398900Y1378263D01*
X9398900Y1378263D01*
G37*
G36*
X9471899Y2494870D02*
G01*
X9522746Y2473809D01*
X9568509Y2443231D01*
X9607424Y2404316D01*
X9638002Y2358553D01*
X9659063Y2307706D01*
X9669800Y2253726D01*
X9669800Y2198688D01*
X9659063Y2144708D01*
X9638002Y2093861D01*
X9607424Y2048098D01*
X9568509Y2009183D01*
X9522746Y1978605D01*
X9471899Y1957544D01*
X9417919Y1946807D01*
X9362881Y1946807D01*
X9308901Y1957544D01*
X9258054Y1978605D01*
X9212291Y2009183D01*
X9173376Y2048098D01*
X9142798Y2093861D01*
X9121737Y2144708D01*
X9111000Y2198688D01*
X9111000Y2253726D01*
X9121737Y2307706D01*
X9142798Y2358553D01*
X9173376Y2404316D01*
X9212291Y2443231D01*
X9258054Y2473809D01*
X9308901Y2494870D01*
X9362881Y2505607D01*
X9417919Y2505607D01*
X9471899Y2494870D01*
X9471899Y2494870D01*
G37*
G36*
X3402800Y2188200D02*
G01*
X3042000Y2188200D01*
X3042000Y2579000D01*
X3402800Y2579000D01*
X3402800Y2188200D01*
X3402800Y2188200D01*
G37*
G36*
X3952800Y2188200D02*
G01*
X3592000Y2188200D01*
X3592000Y2579000D01*
X3952800Y2579000D01*
X3952800Y2188200D01*
X3952800Y2188200D01*
G37*
G36*
X2267600Y2200200D02*
G01*
X1906800Y2200200D01*
X1906800Y2591000D01*
X2267600Y2591000D01*
X2267600Y2200200D01*
X2267600Y2200200D01*
G37*
G36*
X2817600Y2200200D02*
G01*
X2456800Y2200200D01*
X2456800Y2591000D01*
X2817600Y2591000D01*
X2817600Y2200200D01*
X2817600Y2200200D01*
G37*
G36*
X5470800Y2207600D02*
G01*
X5080000Y2207600D01*
X5080000Y2568400D01*
X5470800Y2568400D01*
X5470800Y2207600D01*
X5470800Y2207600D01*
G37*
G36*
X7966000Y2213600D02*
G01*
X7605200Y2213600D01*
X7605200Y2604400D01*
X7966000Y2604400D01*
X7966000Y2213600D01*
X7966000Y2213600D01*
G37*
G36*
X7416000Y2213600D02*
G01*
X7055200Y2213600D01*
X7055200Y2604400D01*
X7416000Y2604400D01*
X7416000Y2213600D01*
X7416000Y2213600D01*
G37*
G36*
X10081499Y2977469D02*
G01*
X10132346Y2956408D01*
X10178109Y2925830D01*
X10217024Y2886915D01*
X10247602Y2841152D01*
X10268663Y2790305D01*
X10279400Y2736325D01*
X10279400Y2681287D01*
X10268663Y2627307D01*
X10247602Y2576460D01*
X10217024Y2530697D01*
X10178109Y2491782D01*
X10132346Y2461204D01*
X10081499Y2440143D01*
X10027519Y2429406D01*
X9972481Y2429406D01*
X9918501Y2440143D01*
X9867654Y2461204D01*
X9821891Y2491782D01*
X9782976Y2530697D01*
X9752398Y2576460D01*
X9731337Y2627307D01*
X9720600Y2681287D01*
X9720600Y2736325D01*
X9731337Y2790305D01*
X9752398Y2841152D01*
X9782976Y2886915D01*
X9821891Y2925830D01*
X9867654Y2956408D01*
X9918501Y2977469D01*
X9972481Y2988206D01*
X10027519Y2988206D01*
X10081499Y2977469D01*
X10081499Y2977469D01*
G37*
G36*
X5470800Y2757600D02*
G01*
X5080000Y2757600D01*
X5080000Y3118400D01*
X5470800Y3118400D01*
X5470800Y2757600D01*
X5470800Y2757600D01*
G37*
G36*
X2920200Y2797800D02*
G01*
X2559400Y2797800D01*
X2559400Y3188600D01*
X2920200Y3188600D01*
X2920200Y2797800D01*
X2920200Y2797800D01*
G37*
G36*
X3470200Y2797800D02*
G01*
X3109400Y2797800D01*
X3109400Y3188600D01*
X3470200Y3188600D01*
X3470200Y2797800D01*
X3470200Y2797800D01*
G37*
G36*
X7973800Y2827200D02*
G01*
X7613000Y2827200D01*
X7613000Y3218000D01*
X7973800Y3218000D01*
X7973800Y2827200D01*
X7973800Y2827200D01*
G37*
G36*
X7423800Y2827200D02*
G01*
X7063000Y2827200D01*
X7063000Y3218000D01*
X7423800Y3218000D01*
X7423800Y2827200D01*
X7423800Y2827200D01*
G37*
G36*
X9471899Y3460069D02*
G01*
X9522746Y3439008D01*
X9568509Y3408430D01*
X9607424Y3369515D01*
X9638002Y3323752D01*
X9659063Y3272905D01*
X9669800Y3218925D01*
X9669800Y3163887D01*
X9659063Y3109907D01*
X9638002Y3059060D01*
X9607424Y3013297D01*
X9568509Y2974382D01*
X9522746Y2943804D01*
X9471899Y2922743D01*
X9417919Y2912006D01*
X9362881Y2912006D01*
X9308901Y2922743D01*
X9258054Y2943804D01*
X9212291Y2974382D01*
X9173376Y3013297D01*
X9142798Y3059060D01*
X9121737Y3109907D01*
X9111000Y3163887D01*
X9111000Y3218925D01*
X9121737Y3272905D01*
X9142798Y3323752D01*
X9173376Y3369515D01*
X9212291Y3408430D01*
X9258054Y3439008D01*
X9308901Y3460069D01*
X9362881Y3470806D01*
X9417919Y3470806D01*
X9471899Y3460069D01*
X9471899Y3460069D01*
G37*
G36*
X10081499Y3942668D02*
G01*
X10132346Y3921607D01*
X10178109Y3891029D01*
X10217024Y3852114D01*
X10247602Y3806351D01*
X10268663Y3755504D01*
X10279400Y3701524D01*
X10279400Y3646486D01*
X10268663Y3592506D01*
X10247602Y3541659D01*
X10217024Y3495896D01*
X10178109Y3456981D01*
X10132346Y3426403D01*
X10081499Y3405342D01*
X10027519Y3394605D01*
X9972481Y3394605D01*
X9918501Y3405342D01*
X9867654Y3426403D01*
X9821891Y3456981D01*
X9782976Y3495896D01*
X9752398Y3541659D01*
X9731337Y3592506D01*
X9720600Y3646486D01*
X9720600Y3701524D01*
X9731337Y3755504D01*
X9752398Y3806351D01*
X9782976Y3852114D01*
X9821891Y3891029D01*
X9867654Y3921607D01*
X9918501Y3942668D01*
X9972481Y3953405D01*
X10027519Y3953405D01*
X10081499Y3942668D01*
X10081499Y3942668D01*
G37*
G36*
X7425400Y3527800D02*
G01*
X6484600Y3527800D01*
X6484600Y4498600D01*
X7425400Y4498600D01*
X7425400Y3527800D01*
X7425400Y3527800D01*
G37*
G36*
X8755400Y3527800D02*
G01*
X7814600Y3527800D01*
X7814600Y4498600D01*
X8755400Y4498600D01*
X8755400Y3527800D01*
X8755400Y3527800D01*
G37*
G36*
X642000Y3538400D02*
G01*
X281200Y3538400D01*
X281200Y3929200D01*
X642000Y3929200D01*
X642000Y3538400D01*
X642000Y3538400D01*
G37*
G36*
X1785000Y3538400D02*
G01*
X1424200Y3538400D01*
X1424200Y3929200D01*
X1785000Y3929200D01*
X1785000Y3538400D01*
X1785000Y3538400D01*
G37*
G36*
X1192000Y3538400D02*
G01*
X831200Y3538400D01*
X831200Y3929200D01*
X1192000Y3929200D01*
X1192000Y3538400D01*
X1192000Y3538400D01*
G37*
G36*
X2335000Y3538400D02*
G01*
X1974200Y3538400D01*
X1974200Y3929200D01*
X2335000Y3929200D01*
X2335000Y3538400D01*
X2335000Y3538400D01*
G37*
G36*
X9471899Y4425268D02*
G01*
X9522746Y4404207D01*
X9568509Y4373629D01*
X9607424Y4334714D01*
X9638002Y4288951D01*
X9659063Y4238104D01*
X9669800Y4184124D01*
X9669800Y4129086D01*
X9659063Y4075106D01*
X9638002Y4024259D01*
X9607424Y3978496D01*
X9568509Y3939581D01*
X9522746Y3909003D01*
X9471899Y3887942D01*
X9417919Y3877205D01*
X9362881Y3877205D01*
X9308901Y3887942D01*
X9258054Y3909003D01*
X9212291Y3939581D01*
X9173376Y3978496D01*
X9142798Y4024259D01*
X9121737Y4075106D01*
X9111000Y4129086D01*
X9111000Y4184124D01*
X9121737Y4238104D01*
X9142798Y4288951D01*
X9173376Y4334714D01*
X9212291Y4373629D01*
X9258054Y4404207D01*
X9308901Y4425268D01*
X9362881Y4436005D01*
X9417919Y4436005D01*
X9471899Y4425268D01*
X9471899Y4425268D01*
G37*
G36*
X3061400Y4224400D02*
G01*
X2130600Y4224400D01*
X2130600Y5105200D01*
X3061400Y5105200D01*
X3061400Y4224400D01*
X3061400Y4224400D01*
G37*
G36*
X1171400Y4224400D02*
G01*
X240600Y4224400D01*
X240600Y5105200D01*
X1171400Y5105200D01*
X1171400Y4224400D01*
X1171400Y4224400D01*
G37*
G36*
X10081499Y4907867D02*
G01*
X10132346Y4886806D01*
X10178109Y4856228D01*
X10217024Y4817313D01*
X10247602Y4771550D01*
X10268663Y4720703D01*
X10279400Y4666723D01*
X10279400Y4611685D01*
X10268663Y4557705D01*
X10247602Y4506858D01*
X10217024Y4461095D01*
X10178109Y4422180D01*
X10132346Y4391602D01*
X10081499Y4370541D01*
X10027519Y4359804D01*
X9972481Y4359804D01*
X9918501Y4370541D01*
X9867654Y4391602D01*
X9821891Y4422180D01*
X9782976Y4461095D01*
X9752398Y4506858D01*
X9731337Y4557705D01*
X9720600Y4611685D01*
X9720600Y4666723D01*
X9731337Y4720703D01*
X9752398Y4771550D01*
X9782976Y4817313D01*
X9821891Y4856228D01*
X9867654Y4886806D01*
X9918501Y4907867D01*
X9972481Y4918604D01*
X10027519Y4918604D01*
X10081499Y4907867D01*
X10081499Y4907867D01*
G37*
G36*
X3954600Y4658000D02*
G01*
X3563800Y4658000D01*
X3563800Y5018800D01*
X3954600Y5018800D01*
X3954600Y4658000D01*
X3954600Y4658000D01*
G37*
G36*
X8499400Y4706800D02*
G01*
X8138600Y4706800D01*
X8138600Y5097600D01*
X8499400Y5097600D01*
X8499400Y4706800D01*
X8499400Y4706800D01*
G37*
G36*
X7949400Y4706800D02*
G01*
X7588600Y4706800D01*
X7588600Y5097600D01*
X7949400Y5097600D01*
X7949400Y4706800D01*
X7949400Y4706800D01*
G37*
G36*
X9471899Y5390467D02*
G01*
X9522746Y5369406D01*
X9568509Y5338828D01*
X9607424Y5299913D01*
X9638002Y5254150D01*
X9659063Y5203303D01*
X9669800Y5149323D01*
X9669800Y5094285D01*
X9659063Y5040305D01*
X9638002Y4989458D01*
X9607424Y4943695D01*
X9568509Y4904780D01*
X9522746Y4874202D01*
X9471899Y4853141D01*
X9417919Y4842404D01*
X9362881Y4842404D01*
X9308901Y4853141D01*
X9258054Y4874202D01*
X9212291Y4904780D01*
X9173376Y4943695D01*
X9142798Y4989458D01*
X9121737Y5040305D01*
X9111000Y5094285D01*
X9111000Y5149323D01*
X9121737Y5203303D01*
X9142798Y5254150D01*
X9173376Y5299913D01*
X9212291Y5338828D01*
X9258054Y5369406D01*
X9308901Y5390467D01*
X9362881Y5401204D01*
X9417919Y5401204D01*
X9471899Y5390467D01*
X9471899Y5390467D01*
G37*
G36*
X3954600Y5208000D02*
G01*
X3563800Y5208000D01*
X3563800Y5568800D01*
X3954600Y5568800D01*
X3954600Y5208000D01*
X3954600Y5208000D01*
G37*
G36*
X5470800Y5230200D02*
G01*
X5080000Y5230200D01*
X5080000Y5591000D01*
X5470800Y5591000D01*
X5470800Y5230200D01*
X5470800Y5230200D01*
G37*
G36*
X7985400Y5306400D02*
G01*
X7594600Y5306400D01*
X7594600Y5667200D01*
X7985400Y5667200D01*
X7985400Y5306400D01*
X7985400Y5306400D01*
G37*
G36*
X7383600Y5306400D02*
G01*
X6992800Y5306400D01*
X6992800Y5667200D01*
X7383600Y5667200D01*
X7383600Y5306400D01*
X7383600Y5306400D01*
G37*
G36*
X10081499Y5873066D02*
G01*
X10132346Y5852005D01*
X10178109Y5821427D01*
X10217024Y5782512D01*
X10247602Y5736749D01*
X10268663Y5685902D01*
X10279400Y5631922D01*
X10279400Y5576884D01*
X10268663Y5522904D01*
X10247602Y5472057D01*
X10217024Y5426294D01*
X10178109Y5387379D01*
X10132346Y5356801D01*
X10081499Y5335740D01*
X10027519Y5325003D01*
X9972481Y5325003D01*
X9918501Y5335740D01*
X9867654Y5356801D01*
X9821891Y5387379D01*
X9782976Y5426294D01*
X9752398Y5472057D01*
X9731337Y5522904D01*
X9720600Y5576884D01*
X9720600Y5631922D01*
X9731337Y5685902D01*
X9752398Y5736749D01*
X9782976Y5782512D01*
X9821891Y5821427D01*
X9867654Y5852005D01*
X9918501Y5873066D01*
X9972481Y5883803D01*
X10027519Y5883803D01*
X10081499Y5873066D01*
X10081499Y5873066D01*
G37*
G36*
X3061400Y5664400D02*
G01*
X2130600Y5664400D01*
X2130600Y6545200D01*
X3061400Y6545200D01*
X3061400Y5664400D01*
X3061400Y5664400D01*
G37*
G36*
X1171400Y5664400D02*
G01*
X240600Y5664400D01*
X240600Y6545200D01*
X1171400Y6545200D01*
X1171400Y5664400D01*
X1171400Y5664400D01*
G37*
G36*
X6204600Y5697400D02*
G01*
X5843800Y5697400D01*
X5843800Y6088200D01*
X6204600Y6088200D01*
X6204600Y5697400D01*
X6204600Y5697400D01*
G37*
G36*
X6754600Y5697400D02*
G01*
X6393800Y5697400D01*
X6393800Y6088200D01*
X6754600Y6088200D01*
X6754600Y5697400D01*
X6754600Y5697400D01*
G37*
G36*
X5470800Y5780200D02*
G01*
X5080000Y5780200D01*
X5080000Y6141000D01*
X5470800Y6141000D01*
X5470800Y5780200D01*
X5470800Y5780200D01*
G37*
G36*
X9471899Y6355666D02*
G01*
X9522746Y6334605D01*
X9568509Y6304027D01*
X9607424Y6265112D01*
X9638002Y6219349D01*
X9659063Y6168502D01*
X9669800Y6114522D01*
X9669800Y6059484D01*
X9659063Y6005504D01*
X9638002Y5954657D01*
X9607424Y5908894D01*
X9568509Y5869979D01*
X9522746Y5839401D01*
X9471899Y5818340D01*
X9417919Y5807603D01*
X9362881Y5807603D01*
X9308901Y5818340D01*
X9258054Y5839401D01*
X9212291Y5869979D01*
X9173376Y5908894D01*
X9142798Y5954657D01*
X9121737Y6005504D01*
X9111000Y6059484D01*
X9111000Y6114522D01*
X9121737Y6168502D01*
X9142798Y6219349D01*
X9173376Y6265112D01*
X9212291Y6304027D01*
X9258054Y6334605D01*
X9308901Y6355666D01*
X9362881Y6366403D01*
X9417919Y6366403D01*
X9471899Y6355666D01*
X9471899Y6355666D01*
G37*
G36*
X7383600Y5856400D02*
G01*
X6992800Y5856400D01*
X6992800Y6217200D01*
X7383600Y6217200D01*
X7383600Y5856400D01*
X7383600Y5856400D01*
G37*
G36*
X7985400Y5856400D02*
G01*
X7594600Y5856400D01*
X7594600Y6217200D01*
X7985400Y6217200D01*
X7985400Y5856400D01*
X7985400Y5856400D01*
G37*
G36*
X10081499Y6838265D02*
G01*
X10132346Y6817204D01*
X10178109Y6786626D01*
X10217024Y6747711D01*
X10247602Y6701948D01*
X10268663Y6651101D01*
X10279400Y6597121D01*
X10279400Y6542083D01*
X10268663Y6488103D01*
X10247602Y6437256D01*
X10217024Y6391493D01*
X10178109Y6352578D01*
X10132346Y6322000D01*
X10081499Y6300939D01*
X10027519Y6290202D01*
X9972481Y6290202D01*
X9918501Y6300939D01*
X9867654Y6322000D01*
X9821891Y6352578D01*
X9782976Y6391493D01*
X9752398Y6437256D01*
X9731337Y6488103D01*
X9720600Y6542083D01*
X9720600Y6597121D01*
X9731337Y6651101D01*
X9752398Y6701948D01*
X9782976Y6747711D01*
X9821891Y6786626D01*
X9867654Y6817204D01*
X9918501Y6838265D01*
X9972481Y6849002D01*
X10027519Y6849002D01*
X10081499Y6838265D01*
X10081499Y6838265D01*
G37*
G36*
X3726000Y6656600D02*
G01*
X3335200Y6656600D01*
X3335200Y7017400D01*
X3726000Y7017400D01*
X3726000Y6656600D01*
X3726000Y6656600D01*
G37*
G36*
X4987000Y6677400D02*
G01*
X4046200Y6677400D01*
X4046200Y7648200D01*
X4987000Y7648200D01*
X4987000Y6677400D01*
X4987000Y6677400D01*
G37*
G36*
X6317000Y6677400D02*
G01*
X5376200Y6677400D01*
X5376200Y7648200D01*
X6317000Y7648200D01*
X6317000Y6677400D01*
X6317000Y6677400D01*
G37*
G36*
X8806600Y6727800D02*
G01*
X7945800Y6727800D01*
X7945800Y7648600D01*
X8806600Y7648600D01*
X8806600Y6727800D01*
X8806600Y6727800D01*
G37*
G36*
X7446600Y6727800D02*
G01*
X6585800Y6727800D01*
X6585800Y7648600D01*
X7446600Y7648600D01*
X7446600Y6727800D01*
X7446600Y6727800D01*
G37*
G36*
X9471899Y7320865D02*
G01*
X9522746Y7299804D01*
X9568509Y7269226D01*
X9607424Y7230311D01*
X9638002Y7184548D01*
X9659063Y7133701D01*
X9669800Y7079721D01*
X9669800Y7024683D01*
X9659063Y6970703D01*
X9638002Y6919856D01*
X9607424Y6874093D01*
X9568509Y6835178D01*
X9522746Y6804600D01*
X9471899Y6783539D01*
X9417919Y6772802D01*
X9362881Y6772802D01*
X9308901Y6783539D01*
X9258054Y6804600D01*
X9212291Y6835178D01*
X9173376Y6874093D01*
X9142798Y6919856D01*
X9121737Y6970703D01*
X9111000Y7024683D01*
X9111000Y7079721D01*
X9121737Y7133701D01*
X9142798Y7184548D01*
X9173376Y7230311D01*
X9212291Y7269226D01*
X9258054Y7299804D01*
X9308901Y7320865D01*
X9362881Y7331602D01*
X9417919Y7331602D01*
X9471899Y7320865D01*
X9471899Y7320865D01*
G37*
G36*
X1286800Y7028600D02*
G01*
X246000Y7028600D01*
X246000Y7419400D01*
X1286800Y7419400D01*
X1286800Y7028600D01*
X1286800Y7028600D01*
G37*
G36*
X3106800Y7028600D02*
G01*
X2066000Y7028600D01*
X2066000Y7419400D01*
X3106800Y7419400D01*
X3106800Y7028600D01*
X3106800Y7028600D01*
G37*
G36*
X3726000Y7206600D02*
G01*
X3335200Y7206600D01*
X3335200Y7567400D01*
X3726000Y7567400D01*
X3726000Y7206600D01*
X3726000Y7206600D01*
G37*
G36*
X10081499Y7803464D02*
G01*
X10132346Y7782403D01*
X10178109Y7751825D01*
X10217024Y7712910D01*
X10247602Y7667147D01*
X10268663Y7616300D01*
X10279400Y7562320D01*
X10279400Y7507282D01*
X10268663Y7453302D01*
X10247602Y7402455D01*
X10217024Y7356692D01*
X10178109Y7317777D01*
X10132346Y7287199D01*
X10081499Y7266138D01*
X10027519Y7255401D01*
X9972481Y7255401D01*
X9918501Y7266138D01*
X9867654Y7287199D01*
X9821891Y7317777D01*
X9782976Y7356692D01*
X9752398Y7402455D01*
X9731337Y7453302D01*
X9720600Y7507282D01*
X9720600Y7562320D01*
X9731337Y7616300D01*
X9752398Y7667147D01*
X9782976Y7712910D01*
X9821891Y7751825D01*
X9867654Y7782403D01*
X9918501Y7803464D01*
X9972481Y7814201D01*
X10027519Y7814201D01*
X10081499Y7803464D01*
X10081499Y7803464D01*
G37*
G36*
X3106800Y7678600D02*
G01*
X2066000Y7678600D01*
X2066000Y8069400D01*
X3106800Y8069400D01*
X3106800Y7678600D01*
X3106800Y7678600D01*
G37*
G36*
X9471899Y8286064D02*
G01*
X9522746Y8265003D01*
X9568509Y8234425D01*
X9607424Y8195510D01*
X9638002Y8149747D01*
X9659063Y8098900D01*
X9669800Y8044920D01*
X9669800Y7989882D01*
X9659063Y7935902D01*
X9638002Y7885055D01*
X9607424Y7839292D01*
X9568509Y7800377D01*
X9522746Y7769799D01*
X9471899Y7748738D01*
X9417919Y7738001D01*
X9362881Y7738001D01*
X9308901Y7748738D01*
X9258054Y7769799D01*
X9212291Y7800377D01*
X9173376Y7839292D01*
X9142798Y7885055D01*
X9121737Y7935902D01*
X9111000Y7989882D01*
X9111000Y8044920D01*
X9121737Y8098900D01*
X9142798Y8149747D01*
X9173376Y8195510D01*
X9212291Y8234425D01*
X9258054Y8265003D01*
X9308901Y8286064D01*
X9362881Y8296801D01*
X9417919Y8296801D01*
X9471899Y8286064D01*
X9471899Y8286064D01*
G37*
G36*
X3726000Y7799600D02*
G01*
X3335200Y7799600D01*
X3335200Y8160400D01*
X3726000Y8160400D01*
X3726000Y7799600D01*
X3726000Y7799600D01*
G37*
G36*
X5010050Y8749969D02*
G01*
X5035288Y8742313D01*
X5058555Y8729877D01*
X5078944Y8713144D01*
X5095677Y8692755D01*
X5108113Y8669488D01*
X5115769Y8644250D01*
X5118600Y8615509D01*
X5118600Y8199291D01*
X5115769Y8170550D01*
X5108113Y8145312D01*
X5095677Y8122045D01*
X5078944Y8101656D01*
X5058555Y8084923D01*
X5035288Y8072487D01*
X5010050Y8064831D01*
X4981309Y8062000D01*
X4615091Y8062000D01*
X4586350Y8064831D01*
X4561112Y8072487D01*
X4537845Y8084923D01*
X4517456Y8101656D01*
X4500723Y8122045D01*
X4488287Y8145312D01*
X4480631Y8170550D01*
X4477800Y8199291D01*
X4477800Y8615509D01*
X4480631Y8644250D01*
X4488287Y8669488D01*
X4500723Y8692755D01*
X4517456Y8713144D01*
X4537845Y8729877D01*
X4561112Y8742313D01*
X4586350Y8749969D01*
X4615091Y8752800D01*
X4981309Y8752800D01*
X5010050Y8749969D01*
X5010050Y8749969D01*
G37*
G36*
X5980050Y8749969D02*
G01*
X6005288Y8742313D01*
X6028555Y8729877D01*
X6048944Y8713144D01*
X6065677Y8692755D01*
X6078113Y8669488D01*
X6085769Y8644250D01*
X6088600Y8615509D01*
X6088600Y8199291D01*
X6085769Y8170550D01*
X6078113Y8145312D01*
X6065677Y8122045D01*
X6048944Y8101656D01*
X6028555Y8084923D01*
X6005288Y8072487D01*
X5980050Y8064831D01*
X5951309Y8062000D01*
X5585091Y8062000D01*
X5556350Y8064831D01*
X5531112Y8072487D01*
X5507845Y8084923D01*
X5487456Y8101656D01*
X5470723Y8122045D01*
X5458287Y8145312D01*
X5450631Y8170550D01*
X5447800Y8199291D01*
X5447800Y8615509D01*
X5450631Y8644250D01*
X5458287Y8669488D01*
X5470723Y8692755D01*
X5487456Y8713144D01*
X5507845Y8729877D01*
X5531112Y8742313D01*
X5556350Y8749969D01*
X5585091Y8752800D01*
X5951309Y8752800D01*
X5980050Y8749969D01*
X5980050Y8749969D01*
G37*
G36*
X7450000Y8122000D02*
G01*
X7119200Y8122000D01*
X7119200Y8342800D01*
X7450000Y8342800D01*
X7450000Y8122000D01*
X7450000Y8122000D01*
G37*
G36*
X6800000Y8122000D02*
G01*
X6469200Y8122000D01*
X6469200Y8692800D01*
X6800000Y8692800D01*
X6800000Y8122000D01*
X6800000Y8122000D01*
G37*
G36*
X10081499Y8768663D02*
G01*
X10132346Y8747602D01*
X10178109Y8717024D01*
X10217024Y8678109D01*
X10247602Y8632346D01*
X10268663Y8581499D01*
X10279400Y8527519D01*
X10279400Y8472481D01*
X10268663Y8418501D01*
X10247602Y8367654D01*
X10217024Y8321891D01*
X10178109Y8282976D01*
X10132346Y8252398D01*
X10081499Y8231337D01*
X10027519Y8220600D01*
X9972481Y8220600D01*
X9918501Y8231337D01*
X9867654Y8252398D01*
X9821891Y8282976D01*
X9782976Y8321891D01*
X9752398Y8367654D01*
X9731337Y8418501D01*
X9720600Y8472481D01*
X9720600Y8527519D01*
X9731337Y8581499D01*
X9752398Y8632346D01*
X9782976Y8678109D01*
X9821891Y8717024D01*
X9867654Y8747602D01*
X9918501Y8768663D01*
X9972481Y8779400D01*
X10027519Y8779400D01*
X10081499Y8768663D01*
X10081499Y8768663D01*
G37*
G36*
X8685000Y8313600D02*
G01*
X8324200Y8313600D01*
X8324200Y8704400D01*
X8685000Y8704400D01*
X8685000Y8313600D01*
X8685000Y8313600D01*
G37*
G36*
X8135000Y8313600D02*
G01*
X7774200Y8313600D01*
X7774200Y8704400D01*
X8135000Y8704400D01*
X8135000Y8313600D01*
X8135000Y8313600D01*
G37*
G36*
X3106800Y8328600D02*
G01*
X2066000Y8328600D01*
X2066000Y8719400D01*
X3106800Y8719400D01*
X3106800Y8328600D01*
X3106800Y8328600D01*
G37*
G36*
X1286800Y8328600D02*
G01*
X246000Y8328600D01*
X246000Y8719400D01*
X1286800Y8719400D01*
X1286800Y8328600D01*
X1286800Y8328600D01*
G37*
G36*
X3726000Y8349600D02*
G01*
X3335200Y8349600D01*
X3335200Y8710400D01*
X3726000Y8710400D01*
X3726000Y8349600D01*
X3726000Y8349600D01*
G37*
G36*
X7450000Y8472000D02*
G01*
X7119200Y8472000D01*
X7119200Y8692800D01*
X7450000Y8692800D01*
X7450000Y8472000D01*
X7450000Y8472000D01*
G37*
M02*
