G04 #@! TF.GenerationSoftware,KiCad,Pcbnew,(5.1.0)-1*
G04 #@! TF.CreationDate,2019-05-02T19:51:02-07:00*
G04 #@! TF.ProjectId,Miniscope-v4-PYTHON480,4d696e69-7363-46f7-9065-2d76342d5059,rev?*
G04 #@! TF.SameCoordinates,PX20a5d00PY1ff2b60*
G04 #@! TF.FileFunction,Copper,L3,Inr*
G04 #@! TF.FilePolarity,Positive*
%FSLAX46Y46*%
G04 Gerber Fmt 4.6, Leading zero omitted, Abs format (unit mm)*
G04 Created by KiCad (PCBNEW (5.1.0)-1) date 2019-05-02 19:51:02*
%MOMM*%
%LPD*%
G04 APERTURE LIST*
%ADD10C,0.355600*%
%ADD11C,0.152400*%
G04 APERTURE END LIST*
D10*
X9448800Y2184400D03*
X9804400Y482600D03*
X609600Y1117600D03*
X533400Y7848600D03*
X2590800Y7874000D03*
X1742800Y4404000D03*
X8331200Y7188200D03*
X3582899Y3766400D03*
X3759200Y4838400D03*
X4749800Y6324600D03*
X5994400Y6400800D03*
X8305800Y5435600D03*
X3251197Y1904997D03*
X1854200Y1905000D03*
X1473200Y6223000D03*
X1473200Y5562600D03*
X8940800Y2844800D03*
X8610600Y2489200D03*
X5156198Y1854200D03*
X4572000Y7112000D03*
X1676400Y7950194D03*
X1066800Y7213600D03*
X10007600Y8483600D03*
X1600200Y1092189D03*
X787400Y2032000D03*
X2336774Y1905000D03*
X6858000Y4064000D03*
X5457890Y3810000D03*
X812800Y2717800D03*
X9982200Y2692400D03*
X9321800Y1117600D03*
X2590800Y7213600D03*
X2768587Y1905000D03*
X6553200Y6400800D03*
X7975600Y1879600D03*
X10007600Y7543800D03*
X1117600Y508000D03*
X3530600Y7975600D03*
X2260600Y2997200D03*
X7518400Y6477006D03*
X4495800Y5054600D03*
X965200Y6045200D03*
X8280401Y4267200D03*
X2159000Y3733800D03*
X6731000Y4978400D03*
X5846600Y7162800D03*
X9398000Y3200400D03*
X3749601Y1879600D03*
X3530600Y1092190D03*
X5461000Y1092190D03*
X6908800Y508000D03*
X8356600Y1092200D03*
X9982200Y4622800D03*
X4648200Y4089400D03*
X3048000Y508000D03*
X4978400Y508000D03*
X6426200Y1092190D03*
X8839200Y482600D03*
X9372600Y6096000D03*
X1854200Y3200400D03*
X10007600Y5588000D03*
X3784600Y4292600D03*
X9372600Y5130800D03*
X4191000Y4013200D03*
X4013200Y508000D03*
X5003800Y3784600D03*
X4495800Y1092190D03*
X5854878Y4123484D03*
X7391400Y1092190D03*
X6197600Y3835394D03*
X10007600Y6553200D03*
X3835400Y6324600D03*
X9372600Y7035800D03*
X4292600Y6299200D03*
X10007600Y3683000D03*
X2565400Y1117600D03*
X9372600Y4165600D03*
X2082800Y508000D03*
D11*
X3927400Y2057399D02*
X3749601Y1879600D01*
X4181401Y2311400D02*
X3927400Y2057399D01*
X7848600Y2311400D02*
X4181401Y2311400D01*
X8763000Y3225800D02*
X7848600Y2311400D01*
X9398000Y3200400D02*
X9372600Y3225800D01*
X9372600Y3225800D02*
X8763000Y3225800D01*
X4648200Y4064000D02*
X4648200Y4089400D01*
X9245600Y4622800D02*
X7950200Y3327400D01*
X9982200Y4622800D02*
X9245600Y4622800D01*
X7950200Y3327400D02*
X4851400Y3327400D01*
X4851400Y3327400D02*
X4572000Y3606800D01*
X4572000Y3606800D02*
X4572000Y3987800D01*
X4572000Y3987800D02*
X4648200Y4064000D01*
X2387600Y3352800D02*
X2006600Y3352800D01*
X9347200Y6121400D02*
X6959600Y6121400D01*
X9372600Y6096000D02*
X9347200Y6121400D01*
X2006600Y3352800D02*
X1854200Y3200400D01*
X6959600Y6121400D02*
X6223000Y5384800D01*
X6223000Y5384800D02*
X3816902Y5384800D01*
X2616200Y3581400D02*
X2387600Y3352800D01*
X3816902Y5384800D02*
X2616200Y4184098D01*
X2616200Y4184098D02*
X2616200Y3581400D01*
X9756153Y5588000D02*
X10007600Y5588000D01*
X4216400Y4724400D02*
X5988302Y4724400D01*
X3784600Y4292600D02*
X4216400Y4724400D01*
X5988302Y4724400D02*
X7105902Y5842000D01*
X7105902Y5842000D02*
X8509000Y5842000D01*
X8509000Y5842000D02*
X8763000Y5588000D01*
X8763000Y5588000D02*
X9756153Y5588000D01*
X4191000Y4216400D02*
X4191000Y4013200D01*
X4445000Y4470400D02*
X4191000Y4216400D01*
X7874000Y4470400D02*
X4445000Y4470400D01*
X9372600Y5130800D02*
X8534400Y5130800D01*
X8534400Y5130800D02*
X7874000Y4470400D01*
X10007600Y6985000D02*
X10007600Y6804647D01*
X3835400Y6400800D02*
X4140200Y6705600D01*
X3835400Y6324600D02*
X3835400Y6400800D01*
X4140200Y6705600D02*
X4749800Y6705600D01*
X10007600Y6804647D02*
X10007600Y6553200D01*
X5562601Y7518401D02*
X9474199Y7518401D01*
X4749800Y6705600D02*
X5562601Y7518401D01*
X9474199Y7518401D02*
X10007600Y6985000D01*
X9194801Y6858001D02*
X9372600Y7035800D01*
X4292600Y6299200D02*
X4292600Y6197600D01*
X4572000Y5918200D02*
X4953000Y5918200D01*
X4292600Y6197600D02*
X4572000Y5918200D01*
X4953000Y5918200D02*
X5867399Y6832599D01*
X5867399Y6832599D02*
X9169399Y6832599D01*
X9169399Y6832599D02*
X9194801Y6858001D01*
X2743199Y1295399D02*
X2565400Y1117600D01*
X2921000Y1473200D02*
X2743199Y1295399D01*
X8178800Y1473200D02*
X2921000Y1473200D01*
X10007600Y3683000D02*
X10007600Y3302000D01*
X10007600Y3302000D02*
X8178800Y1473200D01*
X2082800Y759447D02*
X2082800Y508000D01*
X2082800Y1098298D02*
X2082800Y759447D01*
X9271000Y4165600D02*
X7747000Y2641600D01*
X9372600Y4165600D02*
X9271000Y4165600D01*
X7747000Y2641600D02*
X2102102Y2641600D01*
X2102102Y2641600D02*
X1523999Y2063497D01*
X1523999Y2063497D02*
X1523999Y1657099D01*
X1523999Y1657099D02*
X2082800Y1098298D01*
M02*
