G04 #@! TF.GenerationSoftware,KiCad,Pcbnew,(5.1.0)-1*
G04 #@! TF.CreationDate,2019-05-02T19:56:36-07:00*
G04 #@! TF.ProjectId,Miniscope-v4-MCU,4d696e69-7363-46f7-9065-2d76342d4d43,rev?*
G04 #@! TF.SameCoordinates,PX2f34f60PY3750280*
G04 #@! TF.FileFunction,Copper,L5,Inr*
G04 #@! TF.FilePolarity,Positive*
%FSLAX46Y46*%
G04 Gerber Fmt 4.6, Leading zero omitted, Abs format (unit mm)*
G04 Created by KiCad (PCBNEW (5.1.0)-1) date 2019-05-02 19:56:36*
%MOMM*%
%LPD*%
G04 APERTURE LIST*
%ADD10C,0.450000*%
%ADD11C,0.355600*%
%ADD12C,0.254000*%
G04 APERTURE END LIST*
D10*
X1168400Y5410200D03*
X6908800Y533400D03*
X1198400Y2424800D03*
X4664490Y4380600D03*
X5588002Y5740400D03*
D11*
X3154200Y7073000D03*
X4652800Y2831200D03*
D10*
X6426198Y1803400D03*
D11*
X3681259Y2805800D03*
D10*
X609600Y1117600D03*
X1066800Y508000D03*
X2108200Y2590800D03*
X558800Y5892800D03*
X1193800Y1778000D03*
X711200Y7315200D03*
X1422400Y7340600D03*
X3815269Y1781108D03*
X6629400Y7416800D03*
X3505200Y1117600D03*
D11*
X6908800Y6680200D03*
D10*
X4013200Y533400D03*
D11*
X6557800Y6184000D03*
D10*
X2087400Y7352400D03*
X1168400Y4444983D03*
D11*
X6400800Y5184358D03*
D10*
X558800Y4927600D03*
D11*
X6959600Y5689600D03*
D10*
X6731000Y2616200D03*
X558800Y3962400D03*
D11*
X2242171Y4666629D03*
X6650290Y4685400D03*
D10*
X1168400Y3479800D03*
D12*
G36*
X6023400Y7476486D02*
G01*
X6023400Y7357114D01*
X6046688Y7240036D01*
X6092370Y7129751D01*
X6158689Y7030498D01*
X6243098Y6946089D01*
X6342351Y6879770D01*
X6380140Y6864117D01*
X6371474Y6843196D01*
X6350000Y6735237D01*
X6350000Y6702767D01*
X6293109Y6679202D01*
X6201586Y6618048D01*
X6123752Y6540214D01*
X6062598Y6448691D01*
X6020474Y6346996D01*
X5999000Y6239037D01*
X5999000Y6186415D01*
X5974304Y6211111D01*
X5875051Y6277430D01*
X5764766Y6323112D01*
X5647688Y6346400D01*
X5528316Y6346400D01*
X5411238Y6323112D01*
X5300953Y6277430D01*
X5201700Y6211111D01*
X5117291Y6126702D01*
X5050972Y6027449D01*
X5005290Y5917164D01*
X4982002Y5800086D01*
X4982002Y5680714D01*
X5005290Y5563636D01*
X5050972Y5453351D01*
X5117291Y5354098D01*
X5201700Y5269689D01*
X5300953Y5203370D01*
X5411238Y5157688D01*
X5528316Y5134400D01*
X5647688Y5134400D01*
X5764766Y5157688D01*
X5842000Y5189680D01*
X5842000Y5129321D01*
X5863474Y5021362D01*
X5905598Y4919667D01*
X5966752Y4828144D01*
X6044586Y4750310D01*
X6091490Y4718970D01*
X6091490Y4630363D01*
X6112964Y4522404D01*
X6155088Y4420709D01*
X6216242Y4329186D01*
X6294076Y4251352D01*
X6385599Y4190198D01*
X6487294Y4148074D01*
X6595253Y4126600D01*
X6705327Y4126600D01*
X6813286Y4148074D01*
X6914981Y4190198D01*
X6985000Y4236983D01*
X6985000Y3166919D01*
X6907764Y3198912D01*
X6790686Y3222200D01*
X6671314Y3222200D01*
X6554236Y3198912D01*
X6443951Y3153230D01*
X6344698Y3086911D01*
X6260289Y3002502D01*
X6193970Y2903249D01*
X6148288Y2792964D01*
X6125000Y2675886D01*
X6125000Y2556514D01*
X6148288Y2439436D01*
X6181954Y2358160D01*
X6139149Y2340430D01*
X6039896Y2274111D01*
X5955487Y2189702D01*
X5889168Y2090449D01*
X5843486Y1980164D01*
X5820198Y1863086D01*
X5820198Y1743714D01*
X5843486Y1626636D01*
X5889168Y1516351D01*
X5955487Y1417098D01*
X6039896Y1332689D01*
X6139149Y1266370D01*
X6249434Y1220688D01*
X6366512Y1197400D01*
X6485884Y1197400D01*
X6602962Y1220688D01*
X6713247Y1266370D01*
X6812500Y1332689D01*
X6896909Y1417098D01*
X6963228Y1516351D01*
X6985000Y1568913D01*
X6985000Y1136115D01*
X6968486Y1139400D01*
X6849114Y1139400D01*
X6732036Y1116112D01*
X6621751Y1070430D01*
X6522498Y1004111D01*
X6438089Y919702D01*
X6371770Y820449D01*
X6326088Y710164D01*
X6302800Y593086D01*
X6302800Y473714D01*
X6306323Y456000D01*
X4615677Y456000D01*
X4619200Y473714D01*
X4619200Y593086D01*
X4595912Y710164D01*
X4550230Y820449D01*
X4483911Y919702D01*
X4399502Y1004111D01*
X4300249Y1070430D01*
X4189964Y1116112D01*
X4111200Y1131779D01*
X4111200Y1177286D01*
X4098250Y1242393D01*
X4102318Y1244078D01*
X4201571Y1310397D01*
X4285980Y1394806D01*
X4352299Y1494059D01*
X4397981Y1604344D01*
X4421269Y1721422D01*
X4421269Y1840794D01*
X4397981Y1957872D01*
X4352299Y2068157D01*
X4285980Y2167410D01*
X4201571Y2251819D01*
X4102318Y2318138D01*
X4012756Y2355236D01*
X4037473Y2371752D01*
X4115307Y2449586D01*
X4175515Y2539694D01*
X4218752Y2474986D01*
X4296586Y2397152D01*
X4388109Y2335998D01*
X4489804Y2293874D01*
X4597763Y2272400D01*
X4707837Y2272400D01*
X4815796Y2293874D01*
X4917491Y2335998D01*
X5009014Y2397152D01*
X5086848Y2474986D01*
X5148002Y2566509D01*
X5190126Y2668204D01*
X5211600Y2776163D01*
X5211600Y2886237D01*
X5190126Y2994196D01*
X5148002Y3095891D01*
X5086848Y3187414D01*
X5009014Y3265248D01*
X4917491Y3326402D01*
X4815796Y3368526D01*
X4707837Y3390000D01*
X4597763Y3390000D01*
X4489804Y3368526D01*
X4388109Y3326402D01*
X4296586Y3265248D01*
X4218752Y3187414D01*
X4158544Y3097306D01*
X4115307Y3162014D01*
X4037473Y3239848D01*
X3945950Y3301002D01*
X3844255Y3343126D01*
X3736296Y3364600D01*
X3626222Y3364600D01*
X3518263Y3343126D01*
X3416568Y3301002D01*
X3325045Y3239848D01*
X3247211Y3162014D01*
X3186057Y3070491D01*
X3143933Y2968796D01*
X3122459Y2860837D01*
X3122459Y2750763D01*
X3143933Y2642804D01*
X3186057Y2541109D01*
X3247211Y2449586D01*
X3325045Y2371752D01*
X3416568Y2310598D01*
X3478526Y2284934D01*
X3428967Y2251819D01*
X3344558Y2167410D01*
X3278239Y2068157D01*
X3232557Y1957872D01*
X3209269Y1840794D01*
X3209269Y1721422D01*
X3222219Y1656315D01*
X3218151Y1654630D01*
X3118898Y1588311D01*
X3034489Y1503902D01*
X2968170Y1404649D01*
X2922488Y1294364D01*
X2899200Y1177286D01*
X2899200Y1057914D01*
X2922488Y940836D01*
X2968170Y830551D01*
X3034489Y731298D01*
X3118898Y646889D01*
X3218151Y580570D01*
X3328436Y534888D01*
X3407200Y519221D01*
X3407200Y473714D01*
X3410723Y456000D01*
X1672800Y456000D01*
X1672800Y567686D01*
X1649512Y684764D01*
X1603830Y795049D01*
X1537511Y894302D01*
X1453102Y978711D01*
X1353849Y1045030D01*
X1243564Y1090712D01*
X1215600Y1096274D01*
X1215600Y1177286D01*
X1192312Y1294364D01*
X1146630Y1404649D01*
X1080311Y1503902D01*
X995902Y1588311D01*
X896649Y1654630D01*
X786364Y1700312D01*
X669286Y1723600D01*
X549914Y1723600D01*
X456000Y1704920D01*
X456000Y3364976D01*
X499114Y3356400D01*
X575073Y3356400D01*
X585688Y3303036D01*
X631370Y3192751D01*
X697689Y3093498D01*
X782098Y3009089D01*
X881351Y2942770D01*
X882261Y2942393D01*
X812098Y2895511D01*
X727689Y2811102D01*
X661370Y2711849D01*
X615688Y2601564D01*
X592400Y2484486D01*
X592400Y2365114D01*
X615688Y2248036D01*
X661370Y2137751D01*
X727689Y2038498D01*
X812098Y1954089D01*
X911351Y1887770D01*
X1021636Y1842088D01*
X1138714Y1818800D01*
X1258086Y1818800D01*
X1375164Y1842088D01*
X1485449Y1887770D01*
X1584702Y1954089D01*
X1669111Y2038498D01*
X1723094Y2119290D01*
X1821151Y2053770D01*
X1931436Y2008088D01*
X2048514Y1984800D01*
X2167886Y1984800D01*
X2284964Y2008088D01*
X2395249Y2053770D01*
X2494502Y2120089D01*
X2578911Y2204498D01*
X2645230Y2303751D01*
X2690912Y2414036D01*
X2714200Y2531114D01*
X2714200Y2650486D01*
X2690912Y2767564D01*
X2645230Y2877849D01*
X2578911Y2977102D01*
X2494502Y3061511D01*
X2395249Y3127830D01*
X2284964Y3173512D01*
X2167886Y3196800D01*
X2048514Y3196800D01*
X1931436Y3173512D01*
X1821151Y3127830D01*
X1721898Y3061511D01*
X1637489Y2977102D01*
X1583506Y2896310D01*
X1485449Y2961830D01*
X1484539Y2962207D01*
X1554702Y3009089D01*
X1639111Y3093498D01*
X1705430Y3192751D01*
X1751112Y3303036D01*
X1774400Y3420114D01*
X1774400Y3539486D01*
X1751112Y3656564D01*
X1705430Y3766849D01*
X1639111Y3866102D01*
X1554702Y3950511D01*
X1536922Y3962391D01*
X1554702Y3974272D01*
X1639111Y4058681D01*
X1705430Y4157934D01*
X1751112Y4268219D01*
X1770658Y4366485D01*
X1808123Y4310415D01*
X1885957Y4232581D01*
X1977480Y4171427D01*
X2079175Y4129303D01*
X2187134Y4107829D01*
X2297208Y4107829D01*
X2405167Y4129303D01*
X2506862Y4171427D01*
X2598385Y4232581D01*
X2676219Y4310415D01*
X2737373Y4401938D01*
X2753257Y4440286D01*
X4058490Y4440286D01*
X4058490Y4320914D01*
X4081778Y4203836D01*
X4127460Y4093551D01*
X4193779Y3994298D01*
X4278188Y3909889D01*
X4377441Y3843570D01*
X4487726Y3797888D01*
X4604804Y3774600D01*
X4724176Y3774600D01*
X4841254Y3797888D01*
X4951539Y3843570D01*
X5050792Y3909889D01*
X5135201Y3994298D01*
X5201520Y4093551D01*
X5247202Y4203836D01*
X5270490Y4320914D01*
X5270490Y4440286D01*
X5247202Y4557364D01*
X5201520Y4667649D01*
X5135201Y4766902D01*
X5050792Y4851311D01*
X4951539Y4917630D01*
X4841254Y4963312D01*
X4724176Y4986600D01*
X4604804Y4986600D01*
X4487726Y4963312D01*
X4377441Y4917630D01*
X4278188Y4851311D01*
X4193779Y4766902D01*
X4127460Y4667649D01*
X4081778Y4557364D01*
X4058490Y4440286D01*
X2753257Y4440286D01*
X2779497Y4503633D01*
X2800971Y4611592D01*
X2800971Y4721666D01*
X2779497Y4829625D01*
X2737373Y4931320D01*
X2676219Y5022843D01*
X2598385Y5100677D01*
X2506862Y5161831D01*
X2405167Y5203955D01*
X2297208Y5225429D01*
X2187134Y5225429D01*
X2079175Y5203955D01*
X1977480Y5161831D01*
X1885957Y5100677D01*
X1808123Y5022843D01*
X1746969Y4931320D01*
X1704845Y4829625D01*
X1690020Y4755094D01*
X1639111Y4831285D01*
X1554702Y4915694D01*
X1536896Y4927591D01*
X1554702Y4939489D01*
X1639111Y5023898D01*
X1705430Y5123151D01*
X1751112Y5233436D01*
X1774400Y5350514D01*
X1774400Y5469886D01*
X1751112Y5586964D01*
X1705430Y5697249D01*
X1639111Y5796502D01*
X1554702Y5880911D01*
X1455449Y5947230D01*
X1345164Y5992912D01*
X1228086Y6016200D01*
X1108714Y6016200D01*
X991636Y5992912D01*
X881351Y5947230D01*
X782098Y5880911D01*
X697689Y5796502D01*
X631370Y5697249D01*
X585688Y5586964D01*
X575073Y5533600D01*
X499114Y5533600D01*
X456000Y5525024D01*
X456000Y6764978D01*
X534436Y6732488D01*
X651514Y6709200D01*
X770886Y6709200D01*
X887964Y6732488D01*
X998249Y6778170D01*
X1085807Y6836674D01*
X1135351Y6803570D01*
X1245636Y6757888D01*
X1362714Y6734600D01*
X1482086Y6734600D01*
X1599164Y6757888D01*
X1709449Y6803570D01*
X1763730Y6839840D01*
X1800351Y6815370D01*
X1910636Y6769688D01*
X2027714Y6746400D01*
X2147086Y6746400D01*
X2264164Y6769688D01*
X2374449Y6815370D01*
X2473702Y6881689D01*
X2558111Y6966098D01*
X2595400Y7021905D01*
X2595400Y7017963D01*
X2616874Y6910004D01*
X2658998Y6808309D01*
X2720152Y6716786D01*
X2797986Y6638952D01*
X2889509Y6577798D01*
X2991204Y6535674D01*
X3099163Y6514200D01*
X3209237Y6514200D01*
X3317196Y6535674D01*
X3418891Y6577798D01*
X3510414Y6638952D01*
X3588248Y6716786D01*
X3649402Y6808309D01*
X3691526Y6910004D01*
X3713000Y7017963D01*
X3713000Y7128037D01*
X3691526Y7235996D01*
X3649402Y7337691D01*
X3588248Y7429214D01*
X3524462Y7493000D01*
X6026685Y7493000D01*
X6023400Y7476486D01*
X6023400Y7476486D01*
G37*
X6023400Y7476486D02*
X6023400Y7357114D01*
X6046688Y7240036D01*
X6092370Y7129751D01*
X6158689Y7030498D01*
X6243098Y6946089D01*
X6342351Y6879770D01*
X6380140Y6864117D01*
X6371474Y6843196D01*
X6350000Y6735237D01*
X6350000Y6702767D01*
X6293109Y6679202D01*
X6201586Y6618048D01*
X6123752Y6540214D01*
X6062598Y6448691D01*
X6020474Y6346996D01*
X5999000Y6239037D01*
X5999000Y6186415D01*
X5974304Y6211111D01*
X5875051Y6277430D01*
X5764766Y6323112D01*
X5647688Y6346400D01*
X5528316Y6346400D01*
X5411238Y6323112D01*
X5300953Y6277430D01*
X5201700Y6211111D01*
X5117291Y6126702D01*
X5050972Y6027449D01*
X5005290Y5917164D01*
X4982002Y5800086D01*
X4982002Y5680714D01*
X5005290Y5563636D01*
X5050972Y5453351D01*
X5117291Y5354098D01*
X5201700Y5269689D01*
X5300953Y5203370D01*
X5411238Y5157688D01*
X5528316Y5134400D01*
X5647688Y5134400D01*
X5764766Y5157688D01*
X5842000Y5189680D01*
X5842000Y5129321D01*
X5863474Y5021362D01*
X5905598Y4919667D01*
X5966752Y4828144D01*
X6044586Y4750310D01*
X6091490Y4718970D01*
X6091490Y4630363D01*
X6112964Y4522404D01*
X6155088Y4420709D01*
X6216242Y4329186D01*
X6294076Y4251352D01*
X6385599Y4190198D01*
X6487294Y4148074D01*
X6595253Y4126600D01*
X6705327Y4126600D01*
X6813286Y4148074D01*
X6914981Y4190198D01*
X6985000Y4236983D01*
X6985000Y3166919D01*
X6907764Y3198912D01*
X6790686Y3222200D01*
X6671314Y3222200D01*
X6554236Y3198912D01*
X6443951Y3153230D01*
X6344698Y3086911D01*
X6260289Y3002502D01*
X6193970Y2903249D01*
X6148288Y2792964D01*
X6125000Y2675886D01*
X6125000Y2556514D01*
X6148288Y2439436D01*
X6181954Y2358160D01*
X6139149Y2340430D01*
X6039896Y2274111D01*
X5955487Y2189702D01*
X5889168Y2090449D01*
X5843486Y1980164D01*
X5820198Y1863086D01*
X5820198Y1743714D01*
X5843486Y1626636D01*
X5889168Y1516351D01*
X5955487Y1417098D01*
X6039896Y1332689D01*
X6139149Y1266370D01*
X6249434Y1220688D01*
X6366512Y1197400D01*
X6485884Y1197400D01*
X6602962Y1220688D01*
X6713247Y1266370D01*
X6812500Y1332689D01*
X6896909Y1417098D01*
X6963228Y1516351D01*
X6985000Y1568913D01*
X6985000Y1136115D01*
X6968486Y1139400D01*
X6849114Y1139400D01*
X6732036Y1116112D01*
X6621751Y1070430D01*
X6522498Y1004111D01*
X6438089Y919702D01*
X6371770Y820449D01*
X6326088Y710164D01*
X6302800Y593086D01*
X6302800Y473714D01*
X6306323Y456000D01*
X4615677Y456000D01*
X4619200Y473714D01*
X4619200Y593086D01*
X4595912Y710164D01*
X4550230Y820449D01*
X4483911Y919702D01*
X4399502Y1004111D01*
X4300249Y1070430D01*
X4189964Y1116112D01*
X4111200Y1131779D01*
X4111200Y1177286D01*
X4098250Y1242393D01*
X4102318Y1244078D01*
X4201571Y1310397D01*
X4285980Y1394806D01*
X4352299Y1494059D01*
X4397981Y1604344D01*
X4421269Y1721422D01*
X4421269Y1840794D01*
X4397981Y1957872D01*
X4352299Y2068157D01*
X4285980Y2167410D01*
X4201571Y2251819D01*
X4102318Y2318138D01*
X4012756Y2355236D01*
X4037473Y2371752D01*
X4115307Y2449586D01*
X4175515Y2539694D01*
X4218752Y2474986D01*
X4296586Y2397152D01*
X4388109Y2335998D01*
X4489804Y2293874D01*
X4597763Y2272400D01*
X4707837Y2272400D01*
X4815796Y2293874D01*
X4917491Y2335998D01*
X5009014Y2397152D01*
X5086848Y2474986D01*
X5148002Y2566509D01*
X5190126Y2668204D01*
X5211600Y2776163D01*
X5211600Y2886237D01*
X5190126Y2994196D01*
X5148002Y3095891D01*
X5086848Y3187414D01*
X5009014Y3265248D01*
X4917491Y3326402D01*
X4815796Y3368526D01*
X4707837Y3390000D01*
X4597763Y3390000D01*
X4489804Y3368526D01*
X4388109Y3326402D01*
X4296586Y3265248D01*
X4218752Y3187414D01*
X4158544Y3097306D01*
X4115307Y3162014D01*
X4037473Y3239848D01*
X3945950Y3301002D01*
X3844255Y3343126D01*
X3736296Y3364600D01*
X3626222Y3364600D01*
X3518263Y3343126D01*
X3416568Y3301002D01*
X3325045Y3239848D01*
X3247211Y3162014D01*
X3186057Y3070491D01*
X3143933Y2968796D01*
X3122459Y2860837D01*
X3122459Y2750763D01*
X3143933Y2642804D01*
X3186057Y2541109D01*
X3247211Y2449586D01*
X3325045Y2371752D01*
X3416568Y2310598D01*
X3478526Y2284934D01*
X3428967Y2251819D01*
X3344558Y2167410D01*
X3278239Y2068157D01*
X3232557Y1957872D01*
X3209269Y1840794D01*
X3209269Y1721422D01*
X3222219Y1656315D01*
X3218151Y1654630D01*
X3118898Y1588311D01*
X3034489Y1503902D01*
X2968170Y1404649D01*
X2922488Y1294364D01*
X2899200Y1177286D01*
X2899200Y1057914D01*
X2922488Y940836D01*
X2968170Y830551D01*
X3034489Y731298D01*
X3118898Y646889D01*
X3218151Y580570D01*
X3328436Y534888D01*
X3407200Y519221D01*
X3407200Y473714D01*
X3410723Y456000D01*
X1672800Y456000D01*
X1672800Y567686D01*
X1649512Y684764D01*
X1603830Y795049D01*
X1537511Y894302D01*
X1453102Y978711D01*
X1353849Y1045030D01*
X1243564Y1090712D01*
X1215600Y1096274D01*
X1215600Y1177286D01*
X1192312Y1294364D01*
X1146630Y1404649D01*
X1080311Y1503902D01*
X995902Y1588311D01*
X896649Y1654630D01*
X786364Y1700312D01*
X669286Y1723600D01*
X549914Y1723600D01*
X456000Y1704920D01*
X456000Y3364976D01*
X499114Y3356400D01*
X575073Y3356400D01*
X585688Y3303036D01*
X631370Y3192751D01*
X697689Y3093498D01*
X782098Y3009089D01*
X881351Y2942770D01*
X882261Y2942393D01*
X812098Y2895511D01*
X727689Y2811102D01*
X661370Y2711849D01*
X615688Y2601564D01*
X592400Y2484486D01*
X592400Y2365114D01*
X615688Y2248036D01*
X661370Y2137751D01*
X727689Y2038498D01*
X812098Y1954089D01*
X911351Y1887770D01*
X1021636Y1842088D01*
X1138714Y1818800D01*
X1258086Y1818800D01*
X1375164Y1842088D01*
X1485449Y1887770D01*
X1584702Y1954089D01*
X1669111Y2038498D01*
X1723094Y2119290D01*
X1821151Y2053770D01*
X1931436Y2008088D01*
X2048514Y1984800D01*
X2167886Y1984800D01*
X2284964Y2008088D01*
X2395249Y2053770D01*
X2494502Y2120089D01*
X2578911Y2204498D01*
X2645230Y2303751D01*
X2690912Y2414036D01*
X2714200Y2531114D01*
X2714200Y2650486D01*
X2690912Y2767564D01*
X2645230Y2877849D01*
X2578911Y2977102D01*
X2494502Y3061511D01*
X2395249Y3127830D01*
X2284964Y3173512D01*
X2167886Y3196800D01*
X2048514Y3196800D01*
X1931436Y3173512D01*
X1821151Y3127830D01*
X1721898Y3061511D01*
X1637489Y2977102D01*
X1583506Y2896310D01*
X1485449Y2961830D01*
X1484539Y2962207D01*
X1554702Y3009089D01*
X1639111Y3093498D01*
X1705430Y3192751D01*
X1751112Y3303036D01*
X1774400Y3420114D01*
X1774400Y3539486D01*
X1751112Y3656564D01*
X1705430Y3766849D01*
X1639111Y3866102D01*
X1554702Y3950511D01*
X1536922Y3962391D01*
X1554702Y3974272D01*
X1639111Y4058681D01*
X1705430Y4157934D01*
X1751112Y4268219D01*
X1770658Y4366485D01*
X1808123Y4310415D01*
X1885957Y4232581D01*
X1977480Y4171427D01*
X2079175Y4129303D01*
X2187134Y4107829D01*
X2297208Y4107829D01*
X2405167Y4129303D01*
X2506862Y4171427D01*
X2598385Y4232581D01*
X2676219Y4310415D01*
X2737373Y4401938D01*
X2753257Y4440286D01*
X4058490Y4440286D01*
X4058490Y4320914D01*
X4081778Y4203836D01*
X4127460Y4093551D01*
X4193779Y3994298D01*
X4278188Y3909889D01*
X4377441Y3843570D01*
X4487726Y3797888D01*
X4604804Y3774600D01*
X4724176Y3774600D01*
X4841254Y3797888D01*
X4951539Y3843570D01*
X5050792Y3909889D01*
X5135201Y3994298D01*
X5201520Y4093551D01*
X5247202Y4203836D01*
X5270490Y4320914D01*
X5270490Y4440286D01*
X5247202Y4557364D01*
X5201520Y4667649D01*
X5135201Y4766902D01*
X5050792Y4851311D01*
X4951539Y4917630D01*
X4841254Y4963312D01*
X4724176Y4986600D01*
X4604804Y4986600D01*
X4487726Y4963312D01*
X4377441Y4917630D01*
X4278188Y4851311D01*
X4193779Y4766902D01*
X4127460Y4667649D01*
X4081778Y4557364D01*
X4058490Y4440286D01*
X2753257Y4440286D01*
X2779497Y4503633D01*
X2800971Y4611592D01*
X2800971Y4721666D01*
X2779497Y4829625D01*
X2737373Y4931320D01*
X2676219Y5022843D01*
X2598385Y5100677D01*
X2506862Y5161831D01*
X2405167Y5203955D01*
X2297208Y5225429D01*
X2187134Y5225429D01*
X2079175Y5203955D01*
X1977480Y5161831D01*
X1885957Y5100677D01*
X1808123Y5022843D01*
X1746969Y4931320D01*
X1704845Y4829625D01*
X1690020Y4755094D01*
X1639111Y4831285D01*
X1554702Y4915694D01*
X1536896Y4927591D01*
X1554702Y4939489D01*
X1639111Y5023898D01*
X1705430Y5123151D01*
X1751112Y5233436D01*
X1774400Y5350514D01*
X1774400Y5469886D01*
X1751112Y5586964D01*
X1705430Y5697249D01*
X1639111Y5796502D01*
X1554702Y5880911D01*
X1455449Y5947230D01*
X1345164Y5992912D01*
X1228086Y6016200D01*
X1108714Y6016200D01*
X991636Y5992912D01*
X881351Y5947230D01*
X782098Y5880911D01*
X697689Y5796502D01*
X631370Y5697249D01*
X585688Y5586964D01*
X575073Y5533600D01*
X499114Y5533600D01*
X456000Y5525024D01*
X456000Y6764978D01*
X534436Y6732488D01*
X651514Y6709200D01*
X770886Y6709200D01*
X887964Y6732488D01*
X998249Y6778170D01*
X1085807Y6836674D01*
X1135351Y6803570D01*
X1245636Y6757888D01*
X1362714Y6734600D01*
X1482086Y6734600D01*
X1599164Y6757888D01*
X1709449Y6803570D01*
X1763730Y6839840D01*
X1800351Y6815370D01*
X1910636Y6769688D01*
X2027714Y6746400D01*
X2147086Y6746400D01*
X2264164Y6769688D01*
X2374449Y6815370D01*
X2473702Y6881689D01*
X2558111Y6966098D01*
X2595400Y7021905D01*
X2595400Y7017963D01*
X2616874Y6910004D01*
X2658998Y6808309D01*
X2720152Y6716786D01*
X2797986Y6638952D01*
X2889509Y6577798D01*
X2991204Y6535674D01*
X3099163Y6514200D01*
X3209237Y6514200D01*
X3317196Y6535674D01*
X3418891Y6577798D01*
X3510414Y6638952D01*
X3588248Y6716786D01*
X3649402Y6808309D01*
X3691526Y6910004D01*
X3713000Y7017963D01*
X3713000Y7128037D01*
X3691526Y7235996D01*
X3649402Y7337691D01*
X3588248Y7429214D01*
X3524462Y7493000D01*
X6026685Y7493000D01*
X6023400Y7476486D01*
M02*
