G04 #@! TF.GenerationSoftware,KiCad,Pcbnew,(5.1.0)-1*
G04 #@! TF.CreationDate,2019-04-30T21:15:28-07:00*
G04 #@! TF.ProjectId,Miniscope-v4-MCU,4d696e69-7363-46f7-9065-2d76342d4d43,rev?*
G04 #@! TF.SameCoordinates,Original*
G04 #@! TF.FileFunction,Copper,L5,Inr*
G04 #@! TF.FilePolarity,Positive*
%FSLAX46Y46*%
G04 Gerber Fmt 4.6, Leading zero omitted, Abs format (unit mm)*
G04 Created by KiCad (PCBNEW (5.1.0)-1) date 2019-04-30 21:15:28*
%MOMM*%
%LPD*%
G04 APERTURE LIST*
%ADD10C,0.450000*%
%ADD11C,0.355600*%
%ADD12C,0.254000*%
G04 APERTURE END LIST*
D10*
X50668400Y-52589800D03*
X56408800Y-57466600D03*
X50698400Y-55575200D03*
X54164490Y-53619400D03*
X55088002Y-52259600D03*
D11*
X52654200Y-50927000D03*
X54152800Y-55168800D03*
D10*
X55926198Y-56196600D03*
D11*
X53181259Y-55194200D03*
D10*
X50109600Y-56882400D03*
X50566800Y-57492000D03*
X51608200Y-55409200D03*
X50058800Y-52107200D03*
X50693800Y-56222000D03*
X50211200Y-50684800D03*
X50922400Y-50659400D03*
X53315269Y-56218892D03*
X56129400Y-50583200D03*
X53005200Y-56882400D03*
D11*
X56408800Y-51319800D03*
D10*
X53513200Y-57466600D03*
D11*
X56057800Y-51816000D03*
D10*
X51587400Y-50647600D03*
X50668400Y-53555017D03*
D11*
X55841299Y-52815642D03*
D10*
X50058800Y-53072400D03*
D11*
X56459600Y-52310400D03*
D10*
X56231000Y-55383800D03*
X50058800Y-54037600D03*
D11*
X51742171Y-53333371D03*
X56150290Y-53314600D03*
D10*
X50668400Y-54520200D03*
D12*
G36*
X55523400Y-50523514D02*
G01*
X55523400Y-50642886D01*
X55546688Y-50759964D01*
X55592370Y-50870249D01*
X55658689Y-50969502D01*
X55743098Y-51053911D01*
X55842351Y-51120230D01*
X55880140Y-51135883D01*
X55871474Y-51156804D01*
X55850000Y-51264763D01*
X55850000Y-51297233D01*
X55793109Y-51320798D01*
X55701586Y-51381952D01*
X55623752Y-51459786D01*
X55562598Y-51551309D01*
X55520474Y-51653004D01*
X55499000Y-51760963D01*
X55499000Y-51813585D01*
X55474304Y-51788889D01*
X55375051Y-51722570D01*
X55264766Y-51676888D01*
X55147688Y-51653600D01*
X55028316Y-51653600D01*
X54911238Y-51676888D01*
X54800953Y-51722570D01*
X54701700Y-51788889D01*
X54617291Y-51873298D01*
X54550972Y-51972551D01*
X54505290Y-52082836D01*
X54482002Y-52199914D01*
X54482002Y-52319286D01*
X54505290Y-52436364D01*
X54550972Y-52546649D01*
X54617291Y-52645902D01*
X54701700Y-52730311D01*
X54800953Y-52796630D01*
X54911238Y-52842312D01*
X55028316Y-52865600D01*
X55147688Y-52865600D01*
X55264766Y-52842312D01*
X55282499Y-52834967D01*
X55282499Y-52870679D01*
X55303973Y-52978638D01*
X55346097Y-53080333D01*
X55407251Y-53171856D01*
X55485085Y-53249690D01*
X55576608Y-53310844D01*
X55591490Y-53317008D01*
X55591490Y-53369637D01*
X55612964Y-53477596D01*
X55655088Y-53579291D01*
X55716242Y-53670814D01*
X55794076Y-53748648D01*
X55885599Y-53809802D01*
X55987294Y-53851926D01*
X56095253Y-53873400D01*
X56205327Y-53873400D01*
X56313286Y-53851926D01*
X56414981Y-53809802D01*
X56485000Y-53763017D01*
X56485000Y-54833081D01*
X56407764Y-54801088D01*
X56290686Y-54777800D01*
X56171314Y-54777800D01*
X56054236Y-54801088D01*
X55943951Y-54846770D01*
X55844698Y-54913089D01*
X55760289Y-54997498D01*
X55693970Y-55096751D01*
X55648288Y-55207036D01*
X55625000Y-55324114D01*
X55625000Y-55443486D01*
X55648288Y-55560564D01*
X55681954Y-55641840D01*
X55639149Y-55659570D01*
X55539896Y-55725889D01*
X55455487Y-55810298D01*
X55389168Y-55909551D01*
X55343486Y-56019836D01*
X55320198Y-56136914D01*
X55320198Y-56256286D01*
X55343486Y-56373364D01*
X55389168Y-56483649D01*
X55455487Y-56582902D01*
X55539896Y-56667311D01*
X55639149Y-56733630D01*
X55749434Y-56779312D01*
X55866512Y-56802600D01*
X55985884Y-56802600D01*
X56102962Y-56779312D01*
X56213247Y-56733630D01*
X56312500Y-56667311D01*
X56396909Y-56582902D01*
X56463228Y-56483649D01*
X56485000Y-56431087D01*
X56485000Y-56863885D01*
X56468486Y-56860600D01*
X56349114Y-56860600D01*
X56232036Y-56883888D01*
X56121751Y-56929570D01*
X56022498Y-56995889D01*
X55938089Y-57080298D01*
X55871770Y-57179551D01*
X55826088Y-57289836D01*
X55802800Y-57406914D01*
X55802800Y-57526286D01*
X55806323Y-57544000D01*
X54115677Y-57544000D01*
X54119200Y-57526286D01*
X54119200Y-57406914D01*
X54095912Y-57289836D01*
X54050230Y-57179551D01*
X53983911Y-57080298D01*
X53899502Y-56995889D01*
X53800249Y-56929570D01*
X53689964Y-56883888D01*
X53611200Y-56868221D01*
X53611200Y-56822714D01*
X53598250Y-56757607D01*
X53602318Y-56755922D01*
X53701571Y-56689603D01*
X53785980Y-56605194D01*
X53852299Y-56505941D01*
X53897981Y-56395656D01*
X53921269Y-56278578D01*
X53921269Y-56159206D01*
X53897981Y-56042128D01*
X53852299Y-55931843D01*
X53785980Y-55832590D01*
X53701571Y-55748181D01*
X53602318Y-55681862D01*
X53512756Y-55644764D01*
X53537473Y-55628248D01*
X53615307Y-55550414D01*
X53675515Y-55460306D01*
X53718752Y-55525014D01*
X53796586Y-55602848D01*
X53888109Y-55664002D01*
X53989804Y-55706126D01*
X54097763Y-55727600D01*
X54207837Y-55727600D01*
X54315796Y-55706126D01*
X54417491Y-55664002D01*
X54509014Y-55602848D01*
X54586848Y-55525014D01*
X54648002Y-55433491D01*
X54690126Y-55331796D01*
X54711600Y-55223837D01*
X54711600Y-55113763D01*
X54690126Y-55005804D01*
X54648002Y-54904109D01*
X54586848Y-54812586D01*
X54509014Y-54734752D01*
X54417491Y-54673598D01*
X54315796Y-54631474D01*
X54207837Y-54610000D01*
X54097763Y-54610000D01*
X53989804Y-54631474D01*
X53888109Y-54673598D01*
X53796586Y-54734752D01*
X53718752Y-54812586D01*
X53658544Y-54902694D01*
X53615307Y-54837986D01*
X53537473Y-54760152D01*
X53445950Y-54698998D01*
X53344255Y-54656874D01*
X53236296Y-54635400D01*
X53126222Y-54635400D01*
X53018263Y-54656874D01*
X52916568Y-54698998D01*
X52825045Y-54760152D01*
X52747211Y-54837986D01*
X52686057Y-54929509D01*
X52643933Y-55031204D01*
X52622459Y-55139163D01*
X52622459Y-55249237D01*
X52643933Y-55357196D01*
X52686057Y-55458891D01*
X52747211Y-55550414D01*
X52825045Y-55628248D01*
X52916568Y-55689402D01*
X52978526Y-55715066D01*
X52928967Y-55748181D01*
X52844558Y-55832590D01*
X52778239Y-55931843D01*
X52732557Y-56042128D01*
X52709269Y-56159206D01*
X52709269Y-56278578D01*
X52722219Y-56343685D01*
X52718151Y-56345370D01*
X52618898Y-56411689D01*
X52534489Y-56496098D01*
X52468170Y-56595351D01*
X52422488Y-56705636D01*
X52399200Y-56822714D01*
X52399200Y-56942086D01*
X52422488Y-57059164D01*
X52468170Y-57169449D01*
X52534489Y-57268702D01*
X52618898Y-57353111D01*
X52718151Y-57419430D01*
X52828436Y-57465112D01*
X52907200Y-57480779D01*
X52907200Y-57526286D01*
X52910723Y-57544000D01*
X51172800Y-57544000D01*
X51172800Y-57432314D01*
X51149512Y-57315236D01*
X51103830Y-57204951D01*
X51037511Y-57105698D01*
X50953102Y-57021289D01*
X50853849Y-56954970D01*
X50743564Y-56909288D01*
X50715600Y-56903726D01*
X50715600Y-56822714D01*
X50692312Y-56705636D01*
X50646630Y-56595351D01*
X50580311Y-56496098D01*
X50495902Y-56411689D01*
X50396649Y-56345370D01*
X50286364Y-56299688D01*
X50169286Y-56276400D01*
X50049914Y-56276400D01*
X49956000Y-56295080D01*
X49956000Y-54635024D01*
X49999114Y-54643600D01*
X50075073Y-54643600D01*
X50085688Y-54696964D01*
X50131370Y-54807249D01*
X50197689Y-54906502D01*
X50282098Y-54990911D01*
X50381351Y-55057230D01*
X50382261Y-55057607D01*
X50312098Y-55104489D01*
X50227689Y-55188898D01*
X50161370Y-55288151D01*
X50115688Y-55398436D01*
X50092400Y-55515514D01*
X50092400Y-55634886D01*
X50115688Y-55751964D01*
X50161370Y-55862249D01*
X50227689Y-55961502D01*
X50312098Y-56045911D01*
X50411351Y-56112230D01*
X50521636Y-56157912D01*
X50638714Y-56181200D01*
X50758086Y-56181200D01*
X50875164Y-56157912D01*
X50985449Y-56112230D01*
X51084702Y-56045911D01*
X51169111Y-55961502D01*
X51223094Y-55880710D01*
X51321151Y-55946230D01*
X51431436Y-55991912D01*
X51548514Y-56015200D01*
X51667886Y-56015200D01*
X51784964Y-55991912D01*
X51895249Y-55946230D01*
X51994502Y-55879911D01*
X52078911Y-55795502D01*
X52145230Y-55696249D01*
X52190912Y-55585964D01*
X52214200Y-55468886D01*
X52214200Y-55349514D01*
X52190912Y-55232436D01*
X52145230Y-55122151D01*
X52078911Y-55022898D01*
X51994502Y-54938489D01*
X51895249Y-54872170D01*
X51784964Y-54826488D01*
X51667886Y-54803200D01*
X51548514Y-54803200D01*
X51431436Y-54826488D01*
X51321151Y-54872170D01*
X51221898Y-54938489D01*
X51137489Y-55022898D01*
X51083506Y-55103690D01*
X50985449Y-55038170D01*
X50984539Y-55037793D01*
X51054702Y-54990911D01*
X51139111Y-54906502D01*
X51205430Y-54807249D01*
X51251112Y-54696964D01*
X51274400Y-54579886D01*
X51274400Y-54460514D01*
X51251112Y-54343436D01*
X51205430Y-54233151D01*
X51139111Y-54133898D01*
X51054702Y-54049489D01*
X51036922Y-54037609D01*
X51054702Y-54025728D01*
X51139111Y-53941319D01*
X51205430Y-53842066D01*
X51251112Y-53731781D01*
X51270658Y-53633515D01*
X51308123Y-53689585D01*
X51385957Y-53767419D01*
X51477480Y-53828573D01*
X51579175Y-53870697D01*
X51687134Y-53892171D01*
X51797208Y-53892171D01*
X51905167Y-53870697D01*
X52006862Y-53828573D01*
X52098385Y-53767419D01*
X52176219Y-53689585D01*
X52237373Y-53598062D01*
X52253257Y-53559714D01*
X53558490Y-53559714D01*
X53558490Y-53679086D01*
X53581778Y-53796164D01*
X53627460Y-53906449D01*
X53693779Y-54005702D01*
X53778188Y-54090111D01*
X53877441Y-54156430D01*
X53987726Y-54202112D01*
X54104804Y-54225400D01*
X54224176Y-54225400D01*
X54341254Y-54202112D01*
X54451539Y-54156430D01*
X54550792Y-54090111D01*
X54635201Y-54005702D01*
X54701520Y-53906449D01*
X54747202Y-53796164D01*
X54770490Y-53679086D01*
X54770490Y-53559714D01*
X54747202Y-53442636D01*
X54701520Y-53332351D01*
X54635201Y-53233098D01*
X54550792Y-53148689D01*
X54451539Y-53082370D01*
X54341254Y-53036688D01*
X54224176Y-53013400D01*
X54104804Y-53013400D01*
X53987726Y-53036688D01*
X53877441Y-53082370D01*
X53778188Y-53148689D01*
X53693779Y-53233098D01*
X53627460Y-53332351D01*
X53581778Y-53442636D01*
X53558490Y-53559714D01*
X52253257Y-53559714D01*
X52279497Y-53496367D01*
X52300971Y-53388408D01*
X52300971Y-53278334D01*
X52279497Y-53170375D01*
X52237373Y-53068680D01*
X52176219Y-52977157D01*
X52098385Y-52899323D01*
X52006862Y-52838169D01*
X51905167Y-52796045D01*
X51797208Y-52774571D01*
X51687134Y-52774571D01*
X51579175Y-52796045D01*
X51477480Y-52838169D01*
X51385957Y-52899323D01*
X51308123Y-52977157D01*
X51246969Y-53068680D01*
X51204845Y-53170375D01*
X51190020Y-53244906D01*
X51139111Y-53168715D01*
X51054702Y-53084306D01*
X51036896Y-53072409D01*
X51054702Y-53060511D01*
X51139111Y-52976102D01*
X51205430Y-52876849D01*
X51251112Y-52766564D01*
X51274400Y-52649486D01*
X51274400Y-52530114D01*
X51251112Y-52413036D01*
X51205430Y-52302751D01*
X51139111Y-52203498D01*
X51054702Y-52119089D01*
X50955449Y-52052770D01*
X50845164Y-52007088D01*
X50728086Y-51983800D01*
X50608714Y-51983800D01*
X50491636Y-52007088D01*
X50381351Y-52052770D01*
X50282098Y-52119089D01*
X50197689Y-52203498D01*
X50131370Y-52302751D01*
X50085688Y-52413036D01*
X50075073Y-52466400D01*
X49999114Y-52466400D01*
X49956000Y-52474976D01*
X49956000Y-51235022D01*
X50034436Y-51267512D01*
X50151514Y-51290800D01*
X50270886Y-51290800D01*
X50387964Y-51267512D01*
X50498249Y-51221830D01*
X50585807Y-51163326D01*
X50635351Y-51196430D01*
X50745636Y-51242112D01*
X50862714Y-51265400D01*
X50982086Y-51265400D01*
X51099164Y-51242112D01*
X51209449Y-51196430D01*
X51263730Y-51160160D01*
X51300351Y-51184630D01*
X51410636Y-51230312D01*
X51527714Y-51253600D01*
X51647086Y-51253600D01*
X51764164Y-51230312D01*
X51874449Y-51184630D01*
X51973702Y-51118311D01*
X52058111Y-51033902D01*
X52095400Y-50978095D01*
X52095400Y-50982037D01*
X52116874Y-51089996D01*
X52158998Y-51191691D01*
X52220152Y-51283214D01*
X52297986Y-51361048D01*
X52389509Y-51422202D01*
X52491204Y-51464326D01*
X52599163Y-51485800D01*
X52709237Y-51485800D01*
X52817196Y-51464326D01*
X52918891Y-51422202D01*
X53010414Y-51361048D01*
X53088248Y-51283214D01*
X53149402Y-51191691D01*
X53191526Y-51089996D01*
X53213000Y-50982037D01*
X53213000Y-50871963D01*
X53191526Y-50764004D01*
X53149402Y-50662309D01*
X53088248Y-50570786D01*
X53024462Y-50507000D01*
X55526685Y-50507000D01*
X55523400Y-50523514D01*
X55523400Y-50523514D01*
G37*
X55523400Y-50523514D02*
X55523400Y-50642886D01*
X55546688Y-50759964D01*
X55592370Y-50870249D01*
X55658689Y-50969502D01*
X55743098Y-51053911D01*
X55842351Y-51120230D01*
X55880140Y-51135883D01*
X55871474Y-51156804D01*
X55850000Y-51264763D01*
X55850000Y-51297233D01*
X55793109Y-51320798D01*
X55701586Y-51381952D01*
X55623752Y-51459786D01*
X55562598Y-51551309D01*
X55520474Y-51653004D01*
X55499000Y-51760963D01*
X55499000Y-51813585D01*
X55474304Y-51788889D01*
X55375051Y-51722570D01*
X55264766Y-51676888D01*
X55147688Y-51653600D01*
X55028316Y-51653600D01*
X54911238Y-51676888D01*
X54800953Y-51722570D01*
X54701700Y-51788889D01*
X54617291Y-51873298D01*
X54550972Y-51972551D01*
X54505290Y-52082836D01*
X54482002Y-52199914D01*
X54482002Y-52319286D01*
X54505290Y-52436364D01*
X54550972Y-52546649D01*
X54617291Y-52645902D01*
X54701700Y-52730311D01*
X54800953Y-52796630D01*
X54911238Y-52842312D01*
X55028316Y-52865600D01*
X55147688Y-52865600D01*
X55264766Y-52842312D01*
X55282499Y-52834967D01*
X55282499Y-52870679D01*
X55303973Y-52978638D01*
X55346097Y-53080333D01*
X55407251Y-53171856D01*
X55485085Y-53249690D01*
X55576608Y-53310844D01*
X55591490Y-53317008D01*
X55591490Y-53369637D01*
X55612964Y-53477596D01*
X55655088Y-53579291D01*
X55716242Y-53670814D01*
X55794076Y-53748648D01*
X55885599Y-53809802D01*
X55987294Y-53851926D01*
X56095253Y-53873400D01*
X56205327Y-53873400D01*
X56313286Y-53851926D01*
X56414981Y-53809802D01*
X56485000Y-53763017D01*
X56485000Y-54833081D01*
X56407764Y-54801088D01*
X56290686Y-54777800D01*
X56171314Y-54777800D01*
X56054236Y-54801088D01*
X55943951Y-54846770D01*
X55844698Y-54913089D01*
X55760289Y-54997498D01*
X55693970Y-55096751D01*
X55648288Y-55207036D01*
X55625000Y-55324114D01*
X55625000Y-55443486D01*
X55648288Y-55560564D01*
X55681954Y-55641840D01*
X55639149Y-55659570D01*
X55539896Y-55725889D01*
X55455487Y-55810298D01*
X55389168Y-55909551D01*
X55343486Y-56019836D01*
X55320198Y-56136914D01*
X55320198Y-56256286D01*
X55343486Y-56373364D01*
X55389168Y-56483649D01*
X55455487Y-56582902D01*
X55539896Y-56667311D01*
X55639149Y-56733630D01*
X55749434Y-56779312D01*
X55866512Y-56802600D01*
X55985884Y-56802600D01*
X56102962Y-56779312D01*
X56213247Y-56733630D01*
X56312500Y-56667311D01*
X56396909Y-56582902D01*
X56463228Y-56483649D01*
X56485000Y-56431087D01*
X56485000Y-56863885D01*
X56468486Y-56860600D01*
X56349114Y-56860600D01*
X56232036Y-56883888D01*
X56121751Y-56929570D01*
X56022498Y-56995889D01*
X55938089Y-57080298D01*
X55871770Y-57179551D01*
X55826088Y-57289836D01*
X55802800Y-57406914D01*
X55802800Y-57526286D01*
X55806323Y-57544000D01*
X54115677Y-57544000D01*
X54119200Y-57526286D01*
X54119200Y-57406914D01*
X54095912Y-57289836D01*
X54050230Y-57179551D01*
X53983911Y-57080298D01*
X53899502Y-56995889D01*
X53800249Y-56929570D01*
X53689964Y-56883888D01*
X53611200Y-56868221D01*
X53611200Y-56822714D01*
X53598250Y-56757607D01*
X53602318Y-56755922D01*
X53701571Y-56689603D01*
X53785980Y-56605194D01*
X53852299Y-56505941D01*
X53897981Y-56395656D01*
X53921269Y-56278578D01*
X53921269Y-56159206D01*
X53897981Y-56042128D01*
X53852299Y-55931843D01*
X53785980Y-55832590D01*
X53701571Y-55748181D01*
X53602318Y-55681862D01*
X53512756Y-55644764D01*
X53537473Y-55628248D01*
X53615307Y-55550414D01*
X53675515Y-55460306D01*
X53718752Y-55525014D01*
X53796586Y-55602848D01*
X53888109Y-55664002D01*
X53989804Y-55706126D01*
X54097763Y-55727600D01*
X54207837Y-55727600D01*
X54315796Y-55706126D01*
X54417491Y-55664002D01*
X54509014Y-55602848D01*
X54586848Y-55525014D01*
X54648002Y-55433491D01*
X54690126Y-55331796D01*
X54711600Y-55223837D01*
X54711600Y-55113763D01*
X54690126Y-55005804D01*
X54648002Y-54904109D01*
X54586848Y-54812586D01*
X54509014Y-54734752D01*
X54417491Y-54673598D01*
X54315796Y-54631474D01*
X54207837Y-54610000D01*
X54097763Y-54610000D01*
X53989804Y-54631474D01*
X53888109Y-54673598D01*
X53796586Y-54734752D01*
X53718752Y-54812586D01*
X53658544Y-54902694D01*
X53615307Y-54837986D01*
X53537473Y-54760152D01*
X53445950Y-54698998D01*
X53344255Y-54656874D01*
X53236296Y-54635400D01*
X53126222Y-54635400D01*
X53018263Y-54656874D01*
X52916568Y-54698998D01*
X52825045Y-54760152D01*
X52747211Y-54837986D01*
X52686057Y-54929509D01*
X52643933Y-55031204D01*
X52622459Y-55139163D01*
X52622459Y-55249237D01*
X52643933Y-55357196D01*
X52686057Y-55458891D01*
X52747211Y-55550414D01*
X52825045Y-55628248D01*
X52916568Y-55689402D01*
X52978526Y-55715066D01*
X52928967Y-55748181D01*
X52844558Y-55832590D01*
X52778239Y-55931843D01*
X52732557Y-56042128D01*
X52709269Y-56159206D01*
X52709269Y-56278578D01*
X52722219Y-56343685D01*
X52718151Y-56345370D01*
X52618898Y-56411689D01*
X52534489Y-56496098D01*
X52468170Y-56595351D01*
X52422488Y-56705636D01*
X52399200Y-56822714D01*
X52399200Y-56942086D01*
X52422488Y-57059164D01*
X52468170Y-57169449D01*
X52534489Y-57268702D01*
X52618898Y-57353111D01*
X52718151Y-57419430D01*
X52828436Y-57465112D01*
X52907200Y-57480779D01*
X52907200Y-57526286D01*
X52910723Y-57544000D01*
X51172800Y-57544000D01*
X51172800Y-57432314D01*
X51149512Y-57315236D01*
X51103830Y-57204951D01*
X51037511Y-57105698D01*
X50953102Y-57021289D01*
X50853849Y-56954970D01*
X50743564Y-56909288D01*
X50715600Y-56903726D01*
X50715600Y-56822714D01*
X50692312Y-56705636D01*
X50646630Y-56595351D01*
X50580311Y-56496098D01*
X50495902Y-56411689D01*
X50396649Y-56345370D01*
X50286364Y-56299688D01*
X50169286Y-56276400D01*
X50049914Y-56276400D01*
X49956000Y-56295080D01*
X49956000Y-54635024D01*
X49999114Y-54643600D01*
X50075073Y-54643600D01*
X50085688Y-54696964D01*
X50131370Y-54807249D01*
X50197689Y-54906502D01*
X50282098Y-54990911D01*
X50381351Y-55057230D01*
X50382261Y-55057607D01*
X50312098Y-55104489D01*
X50227689Y-55188898D01*
X50161370Y-55288151D01*
X50115688Y-55398436D01*
X50092400Y-55515514D01*
X50092400Y-55634886D01*
X50115688Y-55751964D01*
X50161370Y-55862249D01*
X50227689Y-55961502D01*
X50312098Y-56045911D01*
X50411351Y-56112230D01*
X50521636Y-56157912D01*
X50638714Y-56181200D01*
X50758086Y-56181200D01*
X50875164Y-56157912D01*
X50985449Y-56112230D01*
X51084702Y-56045911D01*
X51169111Y-55961502D01*
X51223094Y-55880710D01*
X51321151Y-55946230D01*
X51431436Y-55991912D01*
X51548514Y-56015200D01*
X51667886Y-56015200D01*
X51784964Y-55991912D01*
X51895249Y-55946230D01*
X51994502Y-55879911D01*
X52078911Y-55795502D01*
X52145230Y-55696249D01*
X52190912Y-55585964D01*
X52214200Y-55468886D01*
X52214200Y-55349514D01*
X52190912Y-55232436D01*
X52145230Y-55122151D01*
X52078911Y-55022898D01*
X51994502Y-54938489D01*
X51895249Y-54872170D01*
X51784964Y-54826488D01*
X51667886Y-54803200D01*
X51548514Y-54803200D01*
X51431436Y-54826488D01*
X51321151Y-54872170D01*
X51221898Y-54938489D01*
X51137489Y-55022898D01*
X51083506Y-55103690D01*
X50985449Y-55038170D01*
X50984539Y-55037793D01*
X51054702Y-54990911D01*
X51139111Y-54906502D01*
X51205430Y-54807249D01*
X51251112Y-54696964D01*
X51274400Y-54579886D01*
X51274400Y-54460514D01*
X51251112Y-54343436D01*
X51205430Y-54233151D01*
X51139111Y-54133898D01*
X51054702Y-54049489D01*
X51036922Y-54037609D01*
X51054702Y-54025728D01*
X51139111Y-53941319D01*
X51205430Y-53842066D01*
X51251112Y-53731781D01*
X51270658Y-53633515D01*
X51308123Y-53689585D01*
X51385957Y-53767419D01*
X51477480Y-53828573D01*
X51579175Y-53870697D01*
X51687134Y-53892171D01*
X51797208Y-53892171D01*
X51905167Y-53870697D01*
X52006862Y-53828573D01*
X52098385Y-53767419D01*
X52176219Y-53689585D01*
X52237373Y-53598062D01*
X52253257Y-53559714D01*
X53558490Y-53559714D01*
X53558490Y-53679086D01*
X53581778Y-53796164D01*
X53627460Y-53906449D01*
X53693779Y-54005702D01*
X53778188Y-54090111D01*
X53877441Y-54156430D01*
X53987726Y-54202112D01*
X54104804Y-54225400D01*
X54224176Y-54225400D01*
X54341254Y-54202112D01*
X54451539Y-54156430D01*
X54550792Y-54090111D01*
X54635201Y-54005702D01*
X54701520Y-53906449D01*
X54747202Y-53796164D01*
X54770490Y-53679086D01*
X54770490Y-53559714D01*
X54747202Y-53442636D01*
X54701520Y-53332351D01*
X54635201Y-53233098D01*
X54550792Y-53148689D01*
X54451539Y-53082370D01*
X54341254Y-53036688D01*
X54224176Y-53013400D01*
X54104804Y-53013400D01*
X53987726Y-53036688D01*
X53877441Y-53082370D01*
X53778188Y-53148689D01*
X53693779Y-53233098D01*
X53627460Y-53332351D01*
X53581778Y-53442636D01*
X53558490Y-53559714D01*
X52253257Y-53559714D01*
X52279497Y-53496367D01*
X52300971Y-53388408D01*
X52300971Y-53278334D01*
X52279497Y-53170375D01*
X52237373Y-53068680D01*
X52176219Y-52977157D01*
X52098385Y-52899323D01*
X52006862Y-52838169D01*
X51905167Y-52796045D01*
X51797208Y-52774571D01*
X51687134Y-52774571D01*
X51579175Y-52796045D01*
X51477480Y-52838169D01*
X51385957Y-52899323D01*
X51308123Y-52977157D01*
X51246969Y-53068680D01*
X51204845Y-53170375D01*
X51190020Y-53244906D01*
X51139111Y-53168715D01*
X51054702Y-53084306D01*
X51036896Y-53072409D01*
X51054702Y-53060511D01*
X51139111Y-52976102D01*
X51205430Y-52876849D01*
X51251112Y-52766564D01*
X51274400Y-52649486D01*
X51274400Y-52530114D01*
X51251112Y-52413036D01*
X51205430Y-52302751D01*
X51139111Y-52203498D01*
X51054702Y-52119089D01*
X50955449Y-52052770D01*
X50845164Y-52007088D01*
X50728086Y-51983800D01*
X50608714Y-51983800D01*
X50491636Y-52007088D01*
X50381351Y-52052770D01*
X50282098Y-52119089D01*
X50197689Y-52203498D01*
X50131370Y-52302751D01*
X50085688Y-52413036D01*
X50075073Y-52466400D01*
X49999114Y-52466400D01*
X49956000Y-52474976D01*
X49956000Y-51235022D01*
X50034436Y-51267512D01*
X50151514Y-51290800D01*
X50270886Y-51290800D01*
X50387964Y-51267512D01*
X50498249Y-51221830D01*
X50585807Y-51163326D01*
X50635351Y-51196430D01*
X50745636Y-51242112D01*
X50862714Y-51265400D01*
X50982086Y-51265400D01*
X51099164Y-51242112D01*
X51209449Y-51196430D01*
X51263730Y-51160160D01*
X51300351Y-51184630D01*
X51410636Y-51230312D01*
X51527714Y-51253600D01*
X51647086Y-51253600D01*
X51764164Y-51230312D01*
X51874449Y-51184630D01*
X51973702Y-51118311D01*
X52058111Y-51033902D01*
X52095400Y-50978095D01*
X52095400Y-50982037D01*
X52116874Y-51089996D01*
X52158998Y-51191691D01*
X52220152Y-51283214D01*
X52297986Y-51361048D01*
X52389509Y-51422202D01*
X52491204Y-51464326D01*
X52599163Y-51485800D01*
X52709237Y-51485800D01*
X52817196Y-51464326D01*
X52918891Y-51422202D01*
X53010414Y-51361048D01*
X53088248Y-51283214D01*
X53149402Y-51191691D01*
X53191526Y-51089996D01*
X53213000Y-50982037D01*
X53213000Y-50871963D01*
X53191526Y-50764004D01*
X53149402Y-50662309D01*
X53088248Y-50570786D01*
X53024462Y-50507000D01*
X55526685Y-50507000D01*
X55523400Y-50523514D01*
M02*
