G04 #@! TF.GenerationSoftware,KiCad,Pcbnew,(5.1.0)-1*
G04 #@! TF.CreationDate,2019-04-30T21:15:28-07:00*
G04 #@! TF.ProjectId,Miniscope-v4-MCU,4d696e69-7363-46f7-9065-2d76342d4d43,rev?*
G04 #@! TF.SameCoordinates,Original*
G04 #@! TF.FileFunction,Copper,L4,Inr*
G04 #@! TF.FilePolarity,Positive*
%FSLAX46Y46*%
G04 Gerber Fmt 4.6, Leading zero omitted, Abs format (unit mm)*
G04 Created by KiCad (PCBNEW (5.1.0)-1) date 2019-04-30 21:15:28*
%MOMM*%
%LPD*%
G04 APERTURE LIST*
%ADD10C,0.450000*%
%ADD11C,0.355600*%
%ADD12C,0.203200*%
%ADD13C,0.152400*%
G04 APERTURE END LIST*
D10*
X50668400Y-52589800D03*
X56408800Y-57466600D03*
X50698400Y-55575200D03*
X54164490Y-53619400D03*
X55088002Y-52259600D03*
D11*
X52654200Y-50927000D03*
X54152800Y-55168800D03*
D10*
X55926198Y-56196600D03*
D11*
X53181259Y-55194200D03*
D10*
X50109600Y-56882400D03*
X50566800Y-57492000D03*
X51608200Y-55409200D03*
X50058800Y-52107200D03*
X50693800Y-56222000D03*
X50211200Y-50684800D03*
X50922400Y-50659400D03*
X53315269Y-56218892D03*
X56129400Y-50583200D03*
X53005200Y-56882400D03*
D11*
X56408800Y-51319800D03*
D10*
X53513200Y-57466600D03*
D11*
X56057800Y-51816000D03*
D10*
X51587400Y-50647600D03*
X50668400Y-53555017D03*
D11*
X55841299Y-52815642D03*
D10*
X50058800Y-53072400D03*
D11*
X56459600Y-52310400D03*
D10*
X56231000Y-55383800D03*
X50058800Y-54037600D03*
D11*
X51742171Y-53333371D03*
X56150290Y-53314600D03*
D10*
X50668400Y-54520200D03*
D12*
X52956260Y-54969201D02*
X53181259Y-55194200D01*
X52603400Y-54616341D02*
X52956260Y-54969201D01*
X52603400Y-50927000D02*
X52603400Y-54616341D01*
D13*
X53365400Y-56057800D02*
X53640200Y-55783000D01*
X53640200Y-55783000D02*
X53640200Y-52424002D01*
X53640200Y-52424002D02*
X55481002Y-50583200D01*
X55811202Y-50583200D02*
X56129400Y-50583200D01*
X55481002Y-50583200D02*
X55811202Y-50583200D01*
D12*
X54605400Y-52081800D02*
X55367400Y-51319800D01*
X56157353Y-51319800D02*
X56408800Y-51319800D01*
X54605400Y-55600398D02*
X54605400Y-52081800D01*
X53323398Y-56882400D02*
X54605400Y-55600398D01*
X53005200Y-56882400D02*
X53323398Y-56882400D01*
X55367400Y-51319800D02*
X56157353Y-51319800D01*
X56057800Y-51950200D02*
X56057800Y-51816000D01*
X53513200Y-57466600D02*
X55397400Y-55582400D01*
X55397400Y-55582400D02*
X55397400Y-52610600D01*
X55397400Y-52610600D02*
X56057800Y-51950200D01*
M02*
