G04 #@! TF.GenerationSoftware,KiCad,Pcbnew,(5.1.0)-1*
G04 #@! TF.CreationDate,2019-05-02T19:56:36-07:00*
G04 #@! TF.ProjectId,Miniscope-v4-MCU,4d696e69-7363-46f7-9065-2d76342d4d43,rev?*
G04 #@! TF.SameCoordinates,PX2f34f60PY3750280*
G04 #@! TF.FileFunction,Copper,L1,Top*
G04 #@! TF.FilePolarity,Positive*
%FSLAX46Y46*%
G04 Gerber Fmt 4.6, Leading zero omitted, Abs format (unit mm)*
G04 Created by KiCad (PCBNEW (5.1.0)-1) date 2019-05-02 19:56:36*
%MOMM*%
%LPD*%
G04 APERTURE LIST*
%ADD10C,0.508000*%
%ADD11C,0.700000*%
%ADD12C,0.450000*%
%ADD13C,0.355600*%
%ADD14C,0.203200*%
%ADD15C,0.304800*%
%ADD16C,0.152400*%
%ADD17C,0.114300*%
G04 APERTURE END LIST*
D10*
X1168400Y3479800D03*
X6900793Y533400D03*
X6418194Y1143000D03*
X5935594Y533400D03*
X5452995Y1143000D03*
X4970395Y533400D03*
X4487796Y1143000D03*
X4005196Y533400D03*
X3522597Y1143000D03*
X3039997Y533400D03*
X2557398Y1143000D03*
X2074798Y533400D03*
X1592199Y1143000D03*
X1109599Y533400D03*
X627000Y1143000D03*
X558800Y3962400D03*
X1168400Y4444999D03*
X558800Y4927599D03*
X1168400Y5410198D03*
X558800Y5892798D03*
D11*
X5683200Y5634600D03*
X5683200Y6904600D03*
X4413200Y5634600D03*
X4413200Y6904600D03*
X3143200Y5634600D03*
X3143200Y6904600D03*
D12*
X1168400Y5410200D03*
X6908800Y533400D03*
X1198400Y2424800D03*
X4664490Y4380600D03*
X5588002Y5740400D03*
D13*
X3154200Y7073000D03*
X4652800Y2831200D03*
D12*
X6426198Y1803400D03*
D13*
X3681259Y2805800D03*
D12*
X609600Y1117600D03*
X1066800Y508000D03*
X2108200Y2590800D03*
X558800Y5892800D03*
X1193800Y1778000D03*
X711200Y7315200D03*
X1422400Y7340600D03*
X3815269Y1781108D03*
X6629400Y7416800D03*
X3505200Y1117600D03*
D13*
X6908800Y6680200D03*
D12*
X4013200Y533400D03*
D13*
X6557800Y6184000D03*
D12*
X2087400Y7352400D03*
X1168400Y4444983D03*
D13*
X6400800Y5184358D03*
D12*
X558800Y4927600D03*
D13*
X6959600Y5689600D03*
D12*
X6731000Y2616200D03*
X558800Y3962400D03*
D13*
X2242171Y4666629D03*
X6650290Y4685400D03*
D12*
X1168400Y3479800D03*
D14*
X6418194Y1795396D02*
X6426198Y1803400D01*
X6418194Y1143000D02*
X6418194Y1795396D01*
D15*
X1592199Y1379601D02*
X1193800Y1778000D01*
D14*
X1592199Y1143000D02*
X1592199Y1379601D01*
D16*
X2976400Y5467800D02*
X3143200Y5634600D01*
X2921000Y5412400D02*
X3143200Y5634600D01*
X2921000Y2260600D02*
X2921000Y5412400D01*
X2074798Y533400D02*
X2074798Y1414398D01*
X2074798Y1414398D02*
X2921000Y2260600D01*
X2391800Y5634600D02*
X936199Y7090201D01*
X3143200Y5634600D02*
X2391800Y5634600D01*
X936199Y7090201D02*
X711200Y7315200D01*
X3789200Y6280600D02*
X4413200Y6904600D01*
X1647399Y7115601D02*
X1422400Y7340600D01*
X3789200Y6280600D02*
X2482400Y6280600D01*
X2482400Y6280600D02*
X1647399Y7115601D01*
X2557398Y1338198D02*
X2557398Y1143000D01*
X3265749Y2046549D02*
X2557398Y1338198D01*
X3265749Y4796949D02*
X3265749Y2046549D01*
X3789200Y5320400D02*
X3265749Y4796949D01*
X3789200Y6280600D02*
X3789200Y5320400D01*
X3039997Y1388435D02*
X3432670Y1781108D01*
X3497071Y1781108D02*
X3815269Y1781108D01*
X3432670Y1781108D02*
X3497071Y1781108D01*
X3039997Y533400D02*
X3039997Y1388435D01*
X2312399Y7577399D02*
X2087400Y7352400D01*
X4631001Y7577399D02*
X2312399Y7577399D01*
X5059200Y7149200D02*
X4631001Y7577399D01*
X4413200Y5634600D02*
X5059200Y6280600D01*
X5059200Y6280600D02*
X5059200Y7149200D01*
X4096760Y4823186D02*
X4096760Y2606359D01*
X4413200Y5634600D02*
X4413200Y5139626D01*
X4487796Y2215323D02*
X4487796Y1502210D01*
X4096760Y2606359D02*
X4487796Y2215323D01*
X4413200Y5139626D02*
X4096760Y4823186D01*
X4487796Y1502210D02*
X4487796Y1143000D01*
X4970395Y892610D02*
X4970395Y533400D01*
X4970395Y2227195D02*
X4970395Y892610D01*
X5458800Y2715600D02*
X4970395Y2227195D01*
X6380000Y5193400D02*
X5458800Y4272200D01*
X5458800Y4272200D02*
X5458800Y2715600D01*
X5452995Y2126877D02*
X5452995Y1143000D01*
X7091200Y3765082D02*
X5452995Y2126877D01*
X7091200Y5549000D02*
X7091200Y3765082D01*
X6938800Y5701400D02*
X7091200Y5549000D01*
D17*
X6578600Y2616200D02*
X6731000Y2616200D01*
D16*
X5935594Y533400D02*
X5935594Y1973194D01*
X5935594Y1973194D02*
X6578600Y2616200D01*
D17*
X6753372Y4788482D02*
X6650290Y4685400D01*
X6753372Y5387828D02*
X6753372Y4788482D01*
X5689600Y6451600D02*
X6753372Y5387828D01*
X5683200Y6904600D02*
X5689600Y6898200D01*
X5689600Y6898200D02*
X5689600Y6451600D01*
M02*
