G04 #@! TF.GenerationSoftware,KiCad,Pcbnew,(5.0.1)-3*
G04 #@! TF.CreationDate,2019-01-04T16:23:22-08:00*
G04 #@! TF.ProjectId,Miniscope-v4-MCU,4D696E6973636F70652D76342D4D4355,rev?*
G04 #@! TF.SameCoordinates,Original*
G04 #@! TF.FileFunction,Copper,L3,Inr,Signal*
G04 #@! TF.FilePolarity,Positive*
%FSLAX46Y46*%
G04 Gerber Fmt 4.6, Leading zero omitted, Abs format (unit mm)*
G04 Created by KiCad (PCBNEW (5.0.1)-3) date 1/4/2019 4:23:22 PM*
%MOMM*%
%LPD*%
G01*
G04 APERTURE LIST*
G04 #@! TA.AperFunction,ViaPad*
%ADD10C,0.450000*%
G04 #@! TD*
G04 #@! TA.AperFunction,Conductor*
%ADD11C,0.203200*%
G04 #@! TD*
G04 #@! TA.AperFunction,Conductor*
%ADD12C,0.114300*%
G04 #@! TD*
G04 APERTURE END LIST*
D10*
G04 #@! TO.N,GND*
X50698400Y-55575200D03*
G04 #@! TO.N,/SCL*
X50673000Y-54889400D03*
G04 #@! TO.N,/SDA*
X50673000Y-53086000D03*
G04 #@! TO.N,+3V3*
X50673000Y-52120800D03*
G04 #@! TO.N,/ENT1*
X50673000Y-54051200D03*
G04 #@! TO.N,/SCLK*
X51587400Y-50647600D03*
G04 #@! TO.N,/MOSI*
X51790600Y-51816000D03*
G04 #@! TO.N,/MISO*
X51384200Y-51308000D03*
G04 #@! TO.N,/LED*
X52120800Y-55575200D03*
G04 #@! TO.N,+1V8*
X53162200Y-55194200D03*
G04 #@! TO.N,/MONITOR0*
X53263800Y-56083200D03*
G04 #@! TO.N,/TRIGGER0*
X53771800Y-56464200D03*
G04 #@! TO.N,/RESET_N*
X54279800Y-56108600D03*
G04 #@! TO.N,/SDA*
X56489600Y-52298600D03*
G04 #@! TO.N,GND*
X56489600Y-55880000D03*
X54178200Y-53619400D03*
X55143400Y-52273200D03*
G04 #@! TO.N,/SS_N*
X55651400Y-55575200D03*
G04 #@! TO.N,+1V8*
X56159400Y-56413400D03*
G04 #@! TO.N,/RESET_N*
X56057800Y-51816000D03*
G04 #@! TO.N,/TRIGGER0*
X56413400Y-51333400D03*
G04 #@! TO.N,/MONITOR0*
X55651400Y-50571400D03*
G04 #@! TO.N,+1V8*
X52654200Y-50927000D03*
X54152800Y-55168800D03*
G04 #@! TO.N,+3V3*
X52130740Y-56437127D03*
G04 #@! TO.N,/SCL*
X55813568Y-52781409D03*
G04 #@! TO.N,/RESET_N_ISP*
X56159232Y-53314600D03*
G04 #@! TD*
D11*
G04 #@! TO.N,+1V8*
X53263800Y-51587400D02*
X52603400Y-50927000D01*
X53162200Y-55194200D02*
X53263800Y-55092600D01*
X53263800Y-55092600D02*
X53263800Y-51587400D01*
G04 #@! TO.N,+3V3*
X50897999Y-52345799D02*
X50673000Y-52120800D01*
X52561701Y-54009501D02*
X50897999Y-52345799D01*
X52561701Y-56006166D02*
X52561701Y-54009501D01*
X52130740Y-56437127D02*
X52561701Y-56006166D01*
D12*
G04 #@! TO.N,/MONITOR0*
X55426401Y-50796399D02*
X55651400Y-50571400D01*
X53644800Y-52578000D02*
X55426401Y-50796399D01*
X53365400Y-56057800D02*
X53644800Y-55778400D01*
X53644800Y-55778400D02*
X53644800Y-52578000D01*
G04 #@! TO.N,/TRIGGER0*
X56095202Y-51333400D02*
X56413400Y-51333400D01*
X55473600Y-51333400D02*
X56095202Y-51333400D01*
X53797200Y-55981600D02*
X54137349Y-55641451D01*
X53797200Y-56413400D02*
X53797200Y-55981600D01*
X54137349Y-55641451D02*
X54343097Y-55641451D01*
X54343097Y-55641451D02*
X54660800Y-55323748D01*
X54660800Y-55323748D02*
X54660800Y-52146200D01*
X54660800Y-52146200D02*
X55473600Y-51333400D01*
G04 #@! TO.N,/RESET_N*
X56057800Y-51968400D02*
X56057800Y-51816000D01*
X55397400Y-52628800D02*
X56057800Y-51968400D01*
X55397400Y-53447799D02*
X55397400Y-52628800D01*
X55483549Y-53533948D02*
X55397400Y-53447799D01*
X54279800Y-56057800D02*
X55483549Y-54854051D01*
X55483549Y-54854051D02*
X55483549Y-53533948D01*
G04 #@! TD*
M02*
