M48
;DRILL file {KiCad (5.0.1)-3} date 1/4/2019 4:23:28 PM
;FORMAT={-:-/ absolute / inch / decimal}
FMAT,2
INCH,TZ
T1C0.0079
%
G90
G05
M72
T1
X1.995Y-2.052
X1.995Y-2.09
X1.995Y-2.128
X1.995Y-2.161
X1.996Y-2.188
X2.023Y-2.02
X2.031Y-1.994
X2.039Y-2.04
X2.052Y-2.188
X2.0524Y-2.2219
X2.073Y-2.005
X2.093Y-2.173
X2.097Y-2.208
X2.117Y-2.223
X2.132Y-2.172
X2.133Y-2.111
X2.137Y-2.209
X2.171Y-2.058
X2.191Y-1.991
X2.191Y-2.188
X2.1974Y-2.078
X2.207Y-2.04
X2.211Y-2.099
X2.211Y-2.221
X2.221Y-2.021
X2.224Y-2.059
X2.224Y-2.2
T0
M30
