G04 #@! TF.GenerationSoftware,KiCad,Pcbnew,(5.1.0)-1*
G04 #@! TF.CreationDate,2019-05-02T19:56:36-07:00*
G04 #@! TF.ProjectId,Miniscope-v4-MCU,4d696e69-7363-46f7-9065-2d76342d4d43,rev?*
G04 #@! TF.SameCoordinates,PX2f34f60PY3750280*
G04 #@! TF.FileFunction,Soldermask,Bot*
G04 #@! TF.FilePolarity,Negative*
%FSLAX46Y46*%
G04 Gerber Fmt 4.6, Leading zero omitted, Abs format (unit mm)*
G04 Created by KiCad (PCBNEW (5.1.0)-1) date 2019-05-02 19:56:36*
%MOMM*%
%LPD*%
G04 APERTURE LIST*
%ADD10C,0.100000*%
G04 APERTURE END LIST*
D10*
G36*
X2995600Y497800D02*
G01*
X2364800Y497800D01*
X2364800Y1178600D01*
X2995600Y1178600D01*
X2995600Y497800D01*
X2995600Y497800D01*
G37*
G36*
X2105600Y497800D02*
G01*
X1474800Y497800D01*
X1474800Y1178600D01*
X2105600Y1178600D01*
X2105600Y497800D01*
X2105600Y497800D01*
G37*
G36*
X5640800Y509600D02*
G01*
X5010000Y509600D01*
X5010000Y1190400D01*
X5640800Y1190400D01*
X5640800Y509600D01*
X5640800Y509600D01*
G37*
G36*
X6530800Y509600D02*
G01*
X5900000Y509600D01*
X5900000Y1190400D01*
X6530800Y1190400D01*
X6530800Y509600D01*
X6530800Y509600D01*
G37*
G36*
X6311800Y2239000D02*
G01*
X6001000Y2239000D01*
X6001000Y2969800D01*
X6311800Y2969800D01*
X6311800Y2239000D01*
X6311800Y2239000D01*
G37*
G36*
X2811800Y2239000D02*
G01*
X2501000Y2239000D01*
X2501000Y2969800D01*
X2811800Y2969800D01*
X2811800Y2239000D01*
X2811800Y2239000D01*
G37*
G36*
X3311800Y2239000D02*
G01*
X3001000Y2239000D01*
X3001000Y2969800D01*
X3311800Y2969800D01*
X3311800Y2239000D01*
X3311800Y2239000D01*
G37*
G36*
X3811800Y2239000D02*
G01*
X3501000Y2239000D01*
X3501000Y2969800D01*
X3811800Y2969800D01*
X3811800Y2239000D01*
X3811800Y2239000D01*
G37*
G36*
X4311800Y2239000D02*
G01*
X4001000Y2239000D01*
X4001000Y2969800D01*
X4311800Y2969800D01*
X4311800Y2239000D01*
X4311800Y2239000D01*
G37*
G36*
X4811800Y2239000D02*
G01*
X4501000Y2239000D01*
X4501000Y2969800D01*
X4811800Y2969800D01*
X4811800Y2239000D01*
X4811800Y2239000D01*
G37*
G36*
X5311800Y2239000D02*
G01*
X5001000Y2239000D01*
X5001000Y2969800D01*
X5311800Y2969800D01*
X5311800Y2239000D01*
X5311800Y2239000D01*
G37*
G36*
X5811800Y2239000D02*
G01*
X5501000Y2239000D01*
X5501000Y2969800D01*
X5811800Y2969800D01*
X5811800Y2239000D01*
X5811800Y2239000D01*
G37*
G36*
X7106800Y3034000D02*
G01*
X6376000Y3034000D01*
X6376000Y3344800D01*
X7106800Y3344800D01*
X7106800Y3034000D01*
X7106800Y3034000D01*
G37*
G36*
X2436800Y3034000D02*
G01*
X1706000Y3034000D01*
X1706000Y3344800D01*
X2436800Y3344800D01*
X2436800Y3034000D01*
X2436800Y3034000D01*
G37*
G36*
X5981800Y3364000D02*
G01*
X2831000Y3364000D01*
X2831000Y6514800D01*
X5981800Y6514800D01*
X5981800Y3364000D01*
X5981800Y3364000D01*
G37*
G36*
X7106800Y3534000D02*
G01*
X6376000Y3534000D01*
X6376000Y3844800D01*
X7106800Y3844800D01*
X7106800Y3534000D01*
X7106800Y3534000D01*
G37*
G36*
X2436800Y3534000D02*
G01*
X1706000Y3534000D01*
X1706000Y3844800D01*
X2436800Y3844800D01*
X2436800Y3534000D01*
X2436800Y3534000D01*
G37*
G36*
X2436800Y4034000D02*
G01*
X1706000Y4034000D01*
X1706000Y4344800D01*
X2436800Y4344800D01*
X2436800Y4034000D01*
X2436800Y4034000D01*
G37*
G36*
X7106800Y4034000D02*
G01*
X6376000Y4034000D01*
X6376000Y4344800D01*
X7106800Y4344800D01*
X7106800Y4034000D01*
X7106800Y4034000D01*
G37*
G36*
X2436800Y4534000D02*
G01*
X1706000Y4534000D01*
X1706000Y4844800D01*
X2436800Y4844800D01*
X2436800Y4534000D01*
X2436800Y4534000D01*
G37*
G36*
X7106800Y4534000D02*
G01*
X6376000Y4534000D01*
X6376000Y4844800D01*
X7106800Y4844800D01*
X7106800Y4534000D01*
X7106800Y4534000D01*
G37*
G36*
X2436800Y5034000D02*
G01*
X1706000Y5034000D01*
X1706000Y5344800D01*
X2436800Y5344800D01*
X2436800Y5034000D01*
X2436800Y5034000D01*
G37*
G36*
X7106800Y5034000D02*
G01*
X6376000Y5034000D01*
X6376000Y5344800D01*
X7106800Y5344800D01*
X7106800Y5034000D01*
X7106800Y5034000D01*
G37*
G36*
X2436800Y5534000D02*
G01*
X1706000Y5534000D01*
X1706000Y5844800D01*
X2436800Y5844800D01*
X2436800Y5534000D01*
X2436800Y5534000D01*
G37*
G36*
X7106800Y5534000D02*
G01*
X6376000Y5534000D01*
X6376000Y5844800D01*
X7106800Y5844800D01*
X7106800Y5534000D01*
X7106800Y5534000D01*
G37*
G36*
X7106800Y6034000D02*
G01*
X6376000Y6034000D01*
X6376000Y6344800D01*
X7106800Y6344800D01*
X7106800Y6034000D01*
X7106800Y6034000D01*
G37*
G36*
X2436800Y6034000D02*
G01*
X1706000Y6034000D01*
X1706000Y6344800D01*
X2436800Y6344800D01*
X2436800Y6034000D01*
X2436800Y6034000D01*
G37*
G36*
X2436800Y6534000D02*
G01*
X1706000Y6534000D01*
X1706000Y6844800D01*
X2436800Y6844800D01*
X2436800Y6534000D01*
X2436800Y6534000D01*
G37*
G36*
X7106800Y6534000D02*
G01*
X6376000Y6534000D01*
X6376000Y6844800D01*
X7106800Y6844800D01*
X7106800Y6534000D01*
X7106800Y6534000D01*
G37*
G36*
X4311800Y6909000D02*
G01*
X4001000Y6909000D01*
X4001000Y7639800D01*
X4311800Y7639800D01*
X4311800Y6909000D01*
X4311800Y6909000D01*
G37*
G36*
X4811800Y6909000D02*
G01*
X4501000Y6909000D01*
X4501000Y7639800D01*
X4811800Y7639800D01*
X4811800Y6909000D01*
X4811800Y6909000D01*
G37*
G36*
X3811800Y6909000D02*
G01*
X3501000Y6909000D01*
X3501000Y7639800D01*
X3811800Y7639800D01*
X3811800Y6909000D01*
X3811800Y6909000D01*
G37*
G36*
X3311800Y6909000D02*
G01*
X3001000Y6909000D01*
X3001000Y7639800D01*
X3311800Y7639800D01*
X3311800Y6909000D01*
X3311800Y6909000D01*
G37*
G36*
X5311800Y6909000D02*
G01*
X5001000Y6909000D01*
X5001000Y7639800D01*
X5311800Y7639800D01*
X5311800Y6909000D01*
X5311800Y6909000D01*
G37*
G36*
X6311800Y6909000D02*
G01*
X6001000Y6909000D01*
X6001000Y7639800D01*
X6311800Y7639800D01*
X6311800Y6909000D01*
X6311800Y6909000D01*
G37*
G36*
X5811800Y6909000D02*
G01*
X5501000Y6909000D01*
X5501000Y7639800D01*
X5811800Y7639800D01*
X5811800Y6909000D01*
X5811800Y6909000D01*
G37*
G36*
X2811800Y6909000D02*
G01*
X2501000Y6909000D01*
X2501000Y7639800D01*
X2811800Y7639800D01*
X2811800Y6909000D01*
X2811800Y6909000D01*
G37*
M02*
