G04 #@! TF.GenerationSoftware,KiCad,Pcbnew,(5.0.1)-3*
G04 #@! TF.CreationDate,2019-01-04T16:23:22-08:00*
G04 #@! TF.ProjectId,Miniscope-v4-MCU,4D696E6973636F70652D76342D4D4355,rev?*
G04 #@! TF.SameCoordinates,Original*
G04 #@! TF.FileFunction,Copper,L1,Top,Signal*
G04 #@! TF.FilePolarity,Positive*
%FSLAX46Y46*%
G04 Gerber Fmt 4.6, Leading zero omitted, Abs format (unit mm)*
G04 Created by KiCad (PCBNEW (5.0.1)-3) date 1/4/2019 4:23:22 PM*
%MOMM*%
%LPD*%
G01*
G04 APERTURE LIST*
G04 #@! TA.AperFunction,SMDPad,CuDef*
%ADD10R,0.200000X1.000000*%
G04 #@! TD*
G04 #@! TA.AperFunction,BGAPad,CuDef*
%ADD11C,0.508000*%
G04 #@! TD*
G04 #@! TA.AperFunction,BGAPad,CuDef*
%ADD12C,0.700000*%
G04 #@! TD*
G04 #@! TA.AperFunction,ViaPad*
%ADD13C,0.450000*%
G04 #@! TD*
G04 #@! TA.AperFunction,Conductor*
%ADD14C,0.203200*%
G04 #@! TD*
G04 #@! TA.AperFunction,Conductor*
%ADD15C,0.114300*%
G04 #@! TD*
G04 APERTURE END LIST*
D10*
G04 #@! TO.P,J1,1*
G04 #@! TO.N,+5V*
X51358800Y-57150000D03*
G04 #@! TO.P,J1,2*
G04 #@! TO.N,/LED*
X51758800Y-57150000D03*
G04 #@! TO.P,J1,3*
G04 #@! TO.N,+3V3*
X52158800Y-57150000D03*
G04 #@! TO.P,J1,4*
G04 #@! TO.N,/MOSI*
X52558800Y-57150000D03*
G04 #@! TO.P,J1,5*
G04 #@! TO.N,/MISO*
X52958800Y-57150000D03*
G04 #@! TO.P,J1,6*
G04 #@! TO.N,/MONITOR0*
X53358800Y-57150000D03*
G04 #@! TO.P,J1,7*
G04 #@! TO.N,/TRIGGER0*
X53758800Y-57150000D03*
G04 #@! TO.P,J1,8*
G04 #@! TO.N,/RESET_N*
X54158800Y-57150000D03*
G04 #@! TO.P,J1,9*
G04 #@! TO.N,/SCLK*
X54558800Y-57150000D03*
G04 #@! TO.P,J1,10*
G04 #@! TO.N,/SCL*
X54958800Y-57150000D03*
G04 #@! TO.P,J1,11*
G04 #@! TO.N,/SDA*
X55358800Y-57150000D03*
G04 #@! TO.P,J1,12*
G04 #@! TO.N,/SS_N*
X55758800Y-57150000D03*
G04 #@! TO.P,J1,13*
G04 #@! TO.N,+1V8*
X56158800Y-57150000D03*
G04 #@! TO.P,J1,14*
G04 #@! TO.N,GND*
X56558800Y-57150000D03*
G04 #@! TD*
D11*
G04 #@! TO.P,J8,1*
G04 #@! TO.N,/ENT1*
X50673000Y-54051200D03*
G04 #@! TO.P,J8,2*
G04 #@! TO.N,/SCL*
X51282600Y-53568601D03*
G04 #@! TO.P,J8,3*
G04 #@! TO.N,/SDA*
X50673000Y-53086001D03*
G04 #@! TO.P,J8,4*
G04 #@! TO.N,GND*
X51282600Y-52603402D03*
G04 #@! TO.P,J8,5*
G04 #@! TO.N,+3V3*
X50673000Y-52120802D03*
G04 #@! TD*
D12*
G04 #@! TO.P,J7,1*
G04 #@! TO.N,GND*
X55183200Y-52365400D03*
G04 #@! TD*
G04 #@! TO.P,J6,1*
G04 #@! TO.N,/RESET_N_ISP*
X55183200Y-51095400D03*
G04 #@! TD*
G04 #@! TO.P,J5,1*
G04 #@! TO.N,/SCLK*
X53913200Y-52365400D03*
G04 #@! TD*
G04 #@! TO.P,J4,1*
G04 #@! TO.N,/MISO*
X53913200Y-51095400D03*
G04 #@! TD*
G04 #@! TO.P,J3,1*
G04 #@! TO.N,/MOSI*
X52643200Y-52365400D03*
G04 #@! TD*
G04 #@! TO.P,J2,1*
G04 #@! TO.N,+1V8*
X52643200Y-51095400D03*
G04 #@! TD*
D13*
G04 #@! TO.N,GND*
X50698400Y-55575200D03*
G04 #@! TO.N,/SCL*
X50673000Y-54889400D03*
G04 #@! TO.N,/SDA*
X50673000Y-53086000D03*
G04 #@! TO.N,+3V3*
X50673000Y-52120800D03*
G04 #@! TO.N,/ENT1*
X50673000Y-54051200D03*
G04 #@! TO.N,/SCLK*
X51587400Y-50647600D03*
G04 #@! TO.N,/MOSI*
X51790600Y-51816000D03*
G04 #@! TO.N,/MISO*
X51384200Y-51308000D03*
G04 #@! TO.N,/LED*
X52120800Y-55575200D03*
G04 #@! TO.N,+1V8*
X53162200Y-55194200D03*
G04 #@! TO.N,/MONITOR0*
X53263800Y-56083200D03*
G04 #@! TO.N,/TRIGGER0*
X53771800Y-56464200D03*
G04 #@! TO.N,/RESET_N*
X54279800Y-56108600D03*
G04 #@! TO.N,/SDA*
X56489600Y-52298600D03*
G04 #@! TO.N,GND*
X56489600Y-55880000D03*
X54178200Y-53619400D03*
X55143400Y-52273200D03*
G04 #@! TO.N,/SS_N*
X55651400Y-55575200D03*
G04 #@! TO.N,+1V8*
X56159400Y-56413400D03*
G04 #@! TO.N,/RESET_N*
X56057800Y-51816000D03*
G04 #@! TO.N,/TRIGGER0*
X56413400Y-51333400D03*
G04 #@! TO.N,/MONITOR0*
X55651400Y-50571400D03*
G04 #@! TO.N,+1V8*
X52654200Y-50927000D03*
X54152800Y-55168800D03*
G04 #@! TO.N,+3V3*
X52130740Y-56437127D03*
G04 #@! TO.N,/SCL*
X55813568Y-52781409D03*
G04 #@! TO.N,/RESET_N_ISP*
X56159232Y-53314600D03*
G04 #@! TD*
D14*
G04 #@! TO.N,GND*
X50923399Y-55350201D02*
X50698400Y-55575200D01*
X51866800Y-54406800D02*
X50923399Y-55350201D01*
X51282600Y-52603402D02*
X51866800Y-53187602D01*
X51866800Y-53187602D02*
X51866800Y-54406800D01*
X56600301Y-57108499D02*
X56558800Y-57150000D01*
X56489600Y-55880000D02*
X56600301Y-55990701D01*
X56600301Y-55990701D02*
X56600301Y-57108499D01*
G04 #@! TO.N,+1V8*
X56158800Y-56414000D02*
X56159400Y-56413400D01*
X56158800Y-57150000D02*
X56158800Y-56414000D01*
D15*
G04 #@! TO.N,/LED*
X51734288Y-57125488D02*
X51734288Y-55961712D01*
X51734288Y-55961712D02*
X51895801Y-55800199D01*
X51758800Y-57150000D02*
X51734288Y-57125488D01*
X51895801Y-55800199D02*
X52120800Y-55575200D01*
G04 #@! TO.N,+3V3*
X52158800Y-56465187D02*
X52130740Y-56437127D01*
X52158800Y-57150000D02*
X52158800Y-56465187D01*
G04 #@! TO.N,/MOSI*
X52476400Y-52532200D02*
X52643200Y-52365400D01*
X52340000Y-52365400D02*
X51790600Y-51816000D01*
X52643200Y-52365400D02*
X52340000Y-52365400D01*
X52527200Y-56337200D02*
X52527200Y-52151200D01*
X52558800Y-57150000D02*
X52558800Y-56368800D01*
X52558800Y-56368800D02*
X52527200Y-56337200D01*
G04 #@! TO.N,/MISO*
X53289200Y-51719400D02*
X53913200Y-51095400D01*
X51702398Y-51308000D02*
X51384200Y-51308000D01*
X51869348Y-51308000D02*
X51702398Y-51308000D01*
X52280748Y-51719400D02*
X51869348Y-51308000D01*
X53289200Y-51719400D02*
X52280748Y-51719400D01*
X53289200Y-52679600D02*
X53289200Y-51719400D01*
X52765749Y-53203051D02*
X53289200Y-52679600D01*
X52958800Y-57150000D02*
X52958800Y-56413200D01*
X52958800Y-56413200D02*
X52765749Y-56220149D01*
X52765749Y-56220149D02*
X52765749Y-53203051D01*
G04 #@! TO.N,/MONITOR0*
X53358800Y-56064400D02*
X53365400Y-56057800D01*
X53358800Y-57150000D02*
X53358800Y-56064400D01*
G04 #@! TO.N,/TRIGGER0*
X53797200Y-57111600D02*
X53758800Y-57150000D01*
X53797200Y-56413400D02*
X53797200Y-57111600D01*
G04 #@! TO.N,/RESET_N*
X54254400Y-56083200D02*
X54279800Y-56057800D01*
X54254400Y-56554749D02*
X54254400Y-56083200D01*
X54158800Y-57150000D02*
X54158800Y-56650349D01*
X54158800Y-56650349D02*
X54254400Y-56554749D01*
G04 #@! TO.N,/SCLK*
X51812399Y-50422601D02*
X51587400Y-50647600D01*
X54131001Y-50422601D02*
X51812399Y-50422601D01*
X54559200Y-50850800D02*
X54131001Y-50422601D01*
X53913200Y-52365400D02*
X54559200Y-51719400D01*
X54559200Y-51719400D02*
X54559200Y-50850800D01*
X54263199Y-52715399D02*
X53913200Y-52365400D01*
X54676251Y-53128451D02*
X54263199Y-52715399D01*
X54676251Y-56321749D02*
X54676251Y-53128451D01*
X54558800Y-57150000D02*
X54558800Y-56439200D01*
X54558800Y-56439200D02*
X54676251Y-56321749D01*
G04 #@! TO.N,/SCL*
X51282600Y-54279800D02*
X50673000Y-54889400D01*
X51282600Y-53568601D02*
X51282600Y-54279800D01*
X55827133Y-52806600D02*
X55880000Y-52806600D01*
X54958800Y-57150000D02*
X54958800Y-53674933D01*
X54958800Y-53674933D02*
X55827133Y-52806600D01*
G04 #@! TO.N,/SDA*
X56591200Y-52451000D02*
X56438800Y-52298600D01*
X56591200Y-53975000D02*
X56591200Y-52451000D01*
X55254949Y-55311251D02*
X56591200Y-53975000D01*
X55254949Y-56431849D02*
X55254949Y-55311251D01*
X55358800Y-57150000D02*
X55358800Y-56535700D01*
X55358800Y-56535700D02*
X55254949Y-56431849D01*
G04 #@! TO.N,/SS_N*
X55758800Y-55682600D02*
X55651400Y-55575200D01*
X55758800Y-57150000D02*
X55758800Y-55682600D01*
G04 #@! TO.N,/RESET_N_ISP*
X56210200Y-53263632D02*
X56159232Y-53314600D01*
X56210200Y-52617374D02*
X56210200Y-53263632D01*
X55183200Y-51095400D02*
X55183200Y-51590374D01*
X55183200Y-51590374D02*
X56210200Y-52617374D01*
G04 #@! TD*
M02*
