M48
; DRILL file {KiCad (5.1.0)-1} date 5/2/2019 7:56:39 PM
; FORMAT={-:-/ absolute / inch / decimal}
; #@! TF.CreationDate,2019-05-02T19:56:39-07:00
; #@! TF.GenerationSoftware,Kicad,Pcbnew,(5.1.0)-1
; #@! TF.FileFunction,Plated,1,6,PTH
FMAT,2
INCH
T1C0.0040
T2C0.0079
%
G90
G05
T1
X0.0883Y0.1837
X0.1242Y0.2785
X0.1449Y0.1105
X0.1832Y0.1115
X0.252Y0.2041
X0.2582Y0.2435
X0.2618Y0.1845
X0.272Y0.263
X0.274Y0.224
T2
X0.022Y0.232
X0.022Y0.194
X0.022Y0.156
X0.024Y0.044
X0.028Y0.288
X0.042Y0.02
X0.046Y0.213
X0.046Y0.175
X0.046Y0.137
X0.047Y0.07
X0.0472Y0.0955
X0.056Y0.289
X0.0822Y0.2895
X0.083Y0.102
X0.138Y0.044
X0.1502Y0.0701
X0.158Y0.021
X0.1836Y0.1725
X0.22Y0.226
X0.253Y0.071
X0.261Y0.292
X0.265Y0.103
X0.272Y0.021
T0
M30
