G04 #@! TF.GenerationSoftware,KiCad,Pcbnew,(5.0.1)-3*
G04 #@! TF.CreationDate,2019-01-04T16:23:22-08:00*
G04 #@! TF.ProjectId,Miniscope-v4-MCU,4D696E6973636F70652D76342D4D4355,rev?*
G04 #@! TF.SameCoordinates,Original*
G04 #@! TF.FileFunction,Copper,L4,Bot,Signal*
G04 #@! TF.FilePolarity,Positive*
%FSLAX46Y46*%
G04 Gerber Fmt 4.6, Leading zero omitted, Abs format (unit mm)*
G04 Created by KiCad (PCBNEW (5.0.1)-3) date 1/4/2019 4:23:22 PM*
%MOMM*%
%LPD*%
G01*
G04 APERTURE LIST*
G04 #@! TA.AperFunction,SMDPad,CuDef*
%ADD10R,0.580000X0.630000*%
G04 #@! TD*
G04 #@! TA.AperFunction,SMDPad,CuDef*
%ADD11R,0.260000X0.680000*%
G04 #@! TD*
G04 #@! TA.AperFunction,SMDPad,CuDef*
%ADD12R,0.680000X0.260000*%
G04 #@! TD*
G04 #@! TA.AperFunction,SMDPad,CuDef*
%ADD13R,3.100000X3.100000*%
G04 #@! TD*
G04 #@! TA.AperFunction,ViaPad*
%ADD14C,0.450000*%
G04 #@! TD*
G04 #@! TA.AperFunction,Conductor*
%ADD15C,0.114300*%
G04 #@! TD*
G04 #@! TA.AperFunction,Conductor*
%ADD16C,0.203200*%
G04 #@! TD*
G04 APERTURE END LIST*
D10*
G04 #@! TO.P,C1,1*
G04 #@! TO.N,+1V8*
X52515000Y-57175400D03*
G04 #@! TO.P,C1,2*
G04 #@! TO.N,GND*
X51625000Y-57175400D03*
G04 #@! TD*
G04 #@! TO.P,C2,1*
G04 #@! TO.N,+1V8*
X54825400Y-57150000D03*
G04 #@! TO.P,C2,2*
G04 #@! TO.N,GND*
X55715400Y-57150000D03*
G04 #@! TD*
D11*
G04 #@! TO.P,U1,1*
G04 #@! TO.N,/SS_N*
X55656400Y-55395600D03*
G04 #@! TO.P,U1,2*
G04 #@! TO.N,Net-(U1-Pad2)*
X55156400Y-55395600D03*
G04 #@! TO.P,U1,3*
G04 #@! TO.N,GND*
X54656400Y-55395600D03*
G04 #@! TO.P,U1,4*
G04 #@! TO.N,+1V8*
X54156400Y-55395600D03*
G04 #@! TO.P,U1,5*
G04 #@! TO.N,GND*
X53656400Y-55395600D03*
G04 #@! TO.P,U1,6*
G04 #@! TO.N,+1V8*
X53156400Y-55395600D03*
G04 #@! TO.P,U1,7*
G04 #@! TO.N,Net-(U1-Pad7)*
X52656400Y-55395600D03*
G04 #@! TO.P,U1,8*
G04 #@! TO.N,/LED*
X52156400Y-55395600D03*
D12*
G04 #@! TO.P,U1,9*
G04 #@! TO.N,Net-(U1-Pad9)*
X51571400Y-54810600D03*
G04 #@! TO.P,U1,10*
G04 #@! TO.N,Net-(U1-Pad10)*
X51571400Y-54310600D03*
G04 #@! TO.P,U1,11*
G04 #@! TO.N,Net-(U1-Pad11)*
X51571400Y-53810600D03*
G04 #@! TO.P,U1,12*
G04 #@! TO.N,/ENT1*
X51571400Y-53310600D03*
G04 #@! TO.P,U1,13*
G04 #@! TO.N,/ENT2*
X51571400Y-52810600D03*
G04 #@! TO.P,U1,14*
G04 #@! TO.N,Net-(U1-Pad14)*
X51571400Y-52310600D03*
G04 #@! TO.P,U1,15*
G04 #@! TO.N,/MOSI*
X51571400Y-51810600D03*
G04 #@! TO.P,U1,16*
G04 #@! TO.N,/MISO*
X51571400Y-51310600D03*
D11*
G04 #@! TO.P,U1,17*
G04 #@! TO.N,/SCLK*
X52156400Y-50725600D03*
G04 #@! TO.P,U1,18*
G04 #@! TO.N,+1V8*
X52656400Y-50725600D03*
G04 #@! TO.P,U1,19*
G04 #@! TO.N,Net-(U1-Pad19)*
X53156400Y-50725600D03*
G04 #@! TO.P,U1,20*
G04 #@! TO.N,Net-(U1-Pad20)*
X53656400Y-50725600D03*
G04 #@! TO.P,U1,21*
G04 #@! TO.N,GND*
X54156400Y-50725600D03*
G04 #@! TO.P,U1,22*
G04 #@! TO.N,Net-(U1-Pad22)*
X54656400Y-50725600D03*
G04 #@! TO.P,U1,23*
G04 #@! TO.N,Net-(U1-Pad23)*
X55156400Y-50725600D03*
G04 #@! TO.P,U1,24*
G04 #@! TO.N,/MONITOR0*
X55656400Y-50725600D03*
D12*
G04 #@! TO.P,U1,25*
G04 #@! TO.N,/TRIGGER0*
X56241400Y-51310600D03*
G04 #@! TO.P,U1,26*
G04 #@! TO.N,/RESET_N*
X56241400Y-51810600D03*
G04 #@! TO.P,U1,27*
G04 #@! TO.N,/SDA*
X56241400Y-52310600D03*
G04 #@! TO.P,U1,28*
G04 #@! TO.N,/SCL*
X56241400Y-52810600D03*
G04 #@! TO.P,U1,29*
G04 #@! TO.N,/RESET_N_ISP*
X56241400Y-53310600D03*
G04 #@! TO.P,U1,30*
G04 #@! TO.N,Net-(U1-Pad30)*
X56241400Y-53810600D03*
G04 #@! TO.P,U1,31*
G04 #@! TO.N,Net-(U1-Pad31)*
X56241400Y-54310600D03*
G04 #@! TO.P,U1,32*
G04 #@! TO.N,Net-(U1-Pad32)*
X56241400Y-54810600D03*
D13*
G04 #@! TO.P,U1,33*
G04 #@! TO.N,GND*
X53906400Y-53060600D03*
G04 #@! TD*
D14*
G04 #@! TO.N,GND*
X50698400Y-55575200D03*
G04 #@! TO.N,/SCL*
X50673000Y-54889400D03*
G04 #@! TO.N,/SDA*
X50673000Y-53086000D03*
G04 #@! TO.N,+3V3*
X50673000Y-52120800D03*
G04 #@! TO.N,/ENT1*
X50673000Y-54051200D03*
G04 #@! TO.N,/SCLK*
X51587400Y-50647600D03*
G04 #@! TO.N,/MOSI*
X51790600Y-51816000D03*
G04 #@! TO.N,/MISO*
X51384200Y-51308000D03*
G04 #@! TO.N,/LED*
X52120800Y-55575200D03*
G04 #@! TO.N,+1V8*
X53162200Y-55194200D03*
G04 #@! TO.N,/MONITOR0*
X53263800Y-56083200D03*
G04 #@! TO.N,/TRIGGER0*
X53771800Y-56464200D03*
G04 #@! TO.N,/RESET_N*
X54279800Y-56108600D03*
G04 #@! TO.N,/SDA*
X56489600Y-52298600D03*
G04 #@! TO.N,GND*
X56489600Y-55880000D03*
X54178200Y-53619400D03*
X55143400Y-52273200D03*
G04 #@! TO.N,/SS_N*
X55651400Y-55575200D03*
G04 #@! TO.N,+1V8*
X56159400Y-56413400D03*
G04 #@! TO.N,/RESET_N*
X56057800Y-51816000D03*
G04 #@! TO.N,/TRIGGER0*
X56413400Y-51333400D03*
G04 #@! TO.N,/MONITOR0*
X55651400Y-50571400D03*
G04 #@! TO.N,+1V8*
X52654200Y-50927000D03*
X54152800Y-55168800D03*
G04 #@! TO.N,+3V3*
X52130740Y-56437127D03*
G04 #@! TO.N,/SCL*
X55813568Y-52781409D03*
G04 #@! TO.N,/RESET_N_ISP*
X56159232Y-53314600D03*
G04 #@! TD*
D15*
G04 #@! TO.N,GND*
X53656400Y-53310600D02*
X53906400Y-53060600D01*
X53656400Y-55395600D02*
X53656400Y-53310600D01*
X54656400Y-53810600D02*
X54178200Y-53619400D01*
X54656400Y-55395600D02*
X54656400Y-53810600D01*
X54156400Y-52810600D02*
X53906400Y-53060600D01*
X54156400Y-50725600D02*
X54156400Y-52810600D01*
X54178200Y-53619400D02*
X53906400Y-53060600D01*
D16*
X51625000Y-56501800D02*
X50698400Y-55575200D01*
X51625000Y-57175400D02*
X51625000Y-56501800D01*
X56208600Y-57150000D02*
X55715400Y-57150000D01*
X56600301Y-56758299D02*
X56208600Y-57150000D01*
X56489600Y-55880000D02*
X56600301Y-55990701D01*
X56600301Y-55990701D02*
X56600301Y-56758299D01*
G04 #@! TO.N,+1V8*
X54800000Y-57175400D02*
X54825400Y-57150000D01*
X52515000Y-57175400D02*
X54800000Y-57175400D01*
X54825400Y-56631800D02*
X54825400Y-57150000D01*
X55043800Y-56413400D02*
X54825400Y-56631800D01*
X56159400Y-56413400D02*
X55043800Y-56413400D01*
G04 #@! TO.N,/SCLK*
X52078400Y-50647600D02*
X52156400Y-50725600D01*
X51587400Y-50647600D02*
X52078400Y-50647600D01*
D15*
G04 #@! TO.N,/SCL*
X56131766Y-52781409D02*
X55813568Y-52781409D01*
X56212209Y-52781409D02*
X56131766Y-52781409D01*
X56241400Y-52810600D02*
X56212209Y-52781409D01*
G04 #@! TO.N,/ENT1*
X50673000Y-53873400D02*
X50673000Y-54051200D01*
X51571400Y-53310600D02*
X51235800Y-53310600D01*
X51235800Y-53310600D02*
X50673000Y-53873400D01*
G04 #@! TD*
M02*
