M48
; DRILL file {KiCad (5.1.0)-1} date 4/30/2019 9:15:30 PM
; FORMAT={-:-/ absolute / inch / decimal}
; #@! TF.CreationDate,2019-04-30T21:15:30-07:00
; #@! TF.GenerationSoftware,Kicad,Pcbnew,(5.1.0)-1
; #@! TF.FileFunction,Plated,1,6,PTH
FMAT,2
INCH
T1C0.0040
T2C0.0079
%
G90
G05
T1
X2.0371Y-2.0997
X2.073Y-2.005
X2.0938Y-2.173
X2.132Y-2.172
X2.1985Y-2.0794
X2.207Y-2.04
X2.2106Y-2.099
X2.2208Y-2.0205
X2.2228Y-2.0595
T2
X1.9708Y-2.0515
X1.9708Y-2.0895
X1.9708Y-2.1275
X1.9728Y-2.2395
X1.9768Y-1.9955
X1.9908Y-2.2635
X1.9948Y-2.0705
X1.9948Y-2.1085
X1.9948Y-2.1465
X1.9958Y-2.2135
X1.996Y-2.188
X2.0048Y-1.9945
X2.031Y-1.994
X2.0318Y-2.1815
X2.0868Y-2.2395
X2.099Y-2.2133
X2.1068Y-2.2625
X2.1325Y-2.111
X2.1688Y-2.0575
X2.2018Y-2.2125
X2.2098Y-1.9915
X2.2138Y-2.1805
X2.2208Y-2.2625
T0
M30
