G04 #@! TF.GenerationSoftware,KiCad,Pcbnew,(5.0.1)-3*
G04 #@! TF.CreationDate,2019-01-04T16:23:23-08:00*
G04 #@! TF.ProjectId,Miniscope-v4-MCU,4D696E6973636F70652D76342D4D4355,rev?*
G04 #@! TF.SameCoordinates,Original*
G04 #@! TF.FileFunction,Legend,Bot*
G04 #@! TF.FilePolarity,Positive*
%FSLAX46Y46*%
G04 Gerber Fmt 4.6, Leading zero omitted, Abs format (unit mm)*
G04 Created by KiCad (PCBNEW (5.0.1)-3) date 1/4/2019 4:23:23 PM*
%MOMM*%
%LPD*%
G01*
G04 APERTURE LIST*
%ADD10C,0.100000*%
%ADD11C,0.050000*%
%ADD12C,0.200000*%
G04 APERTURE END LIST*
D10*
G04 #@! TO.C,U1*
X55936400Y-55640600D02*
X56486400Y-55640600D01*
X56486400Y-55640600D02*
X56486400Y-55090600D01*
X51876400Y-55640600D02*
X51326400Y-55640600D01*
X51326400Y-55640600D02*
X51326400Y-55090600D01*
X51876400Y-50480600D02*
X51326400Y-50480600D01*
X51326400Y-50480600D02*
X51326400Y-51030600D01*
X55936400Y-50480600D02*
X56486400Y-50480600D01*
X56486400Y-50480600D02*
X56486400Y-51030600D01*
G04 #@! TO.C,C1*
D11*
X55328333Y-58827171D02*
X55352142Y-58850980D01*
X55423571Y-58874790D01*
X55471190Y-58874790D01*
X55542619Y-58850980D01*
X55590238Y-58803361D01*
X55614047Y-58755742D01*
X55637857Y-58660504D01*
X55637857Y-58589076D01*
X55614047Y-58493838D01*
X55590238Y-58446219D01*
X55542619Y-58398600D01*
X55471190Y-58374790D01*
X55423571Y-58374790D01*
X55352142Y-58398600D01*
X55328333Y-58422409D01*
X54852142Y-58874790D02*
X55137857Y-58874790D01*
X54995000Y-58874790D02*
X54995000Y-58374790D01*
X55042619Y-58446219D01*
X55090238Y-58493838D01*
X55137857Y-58517647D01*
G04 #@! TO.C,C2*
X52483533Y-59081171D02*
X52507342Y-59104980D01*
X52578771Y-59128790D01*
X52626390Y-59128790D01*
X52697819Y-59104980D01*
X52745438Y-59057361D01*
X52769247Y-59009742D01*
X52793057Y-58914504D01*
X52793057Y-58843076D01*
X52769247Y-58747838D01*
X52745438Y-58700219D01*
X52697819Y-58652600D01*
X52626390Y-58628790D01*
X52578771Y-58628790D01*
X52507342Y-58652600D01*
X52483533Y-58676409D01*
X52293057Y-58676409D02*
X52269247Y-58652600D01*
X52221628Y-58628790D01*
X52102580Y-58628790D01*
X52054961Y-58652600D01*
X52031152Y-58676409D01*
X52007342Y-58724028D01*
X52007342Y-58771647D01*
X52031152Y-58843076D01*
X52316866Y-59128790D01*
X52007342Y-59128790D01*
G04 #@! TO.C,U1*
D12*
X53873209Y-47596561D02*
X53873209Y-49215609D01*
X53777971Y-49406085D01*
X53682733Y-49501323D01*
X53492257Y-49596561D01*
X53111304Y-49596561D01*
X52920828Y-49501323D01*
X52825590Y-49406085D01*
X52730352Y-49215609D01*
X52730352Y-47596561D01*
X50730352Y-49596561D02*
X51873209Y-49596561D01*
X51301780Y-49596561D02*
X51301780Y-47596561D01*
X51492257Y-47882276D01*
X51682733Y-48072752D01*
X51873209Y-48167990D01*
G04 #@! TD*
M02*
