G04 #@! TF.GenerationSoftware,KiCad,Pcbnew,(5.1.0)-1*
G04 #@! TF.CreationDate,2019-05-02T19:56:36-07:00*
G04 #@! TF.ProjectId,Miniscope-v4-MCU,4d696e69-7363-46f7-9065-2d76342d4d43,rev?*
G04 #@! TF.SameCoordinates,PX2f34f60PY3750280*
G04 #@! TF.FileFunction,Soldermask,Top*
G04 #@! TF.FilePolarity,Negative*
%FSLAX46Y46*%
G04 Gerber Fmt 4.6, Leading zero omitted, Abs format (unit mm)*
G04 Created by KiCad (PCBNEW (5.1.0)-1) date 2019-05-02 19:56:36*
%MOMM*%
%LPD*%
G04 APERTURE LIST*
%ADD10C,0.100000*%
G04 APERTURE END LIST*
D10*
G36*
X2156297Y802063D02*
G01*
X2207144Y781002D01*
X2252907Y750424D01*
X2291822Y711509D01*
X2322400Y665746D01*
X2343461Y614899D01*
X2354198Y560919D01*
X2354198Y505881D01*
X2343461Y451901D01*
X2322400Y401054D01*
X2291822Y355291D01*
X2252907Y316376D01*
X2207144Y285798D01*
X2156297Y264737D01*
X2102317Y254000D01*
X2047279Y254000D01*
X1993299Y264737D01*
X1942452Y285798D01*
X1896689Y316376D01*
X1857774Y355291D01*
X1827196Y401054D01*
X1806135Y451901D01*
X1795398Y505881D01*
X1795398Y560919D01*
X1806135Y614899D01*
X1827196Y665746D01*
X1857774Y711509D01*
X1896689Y750424D01*
X1942452Y781002D01*
X1993299Y802063D01*
X2047279Y812800D01*
X2102317Y812800D01*
X2156297Y802063D01*
X2156297Y802063D01*
G37*
G36*
X3121496Y802063D02*
G01*
X3172343Y781002D01*
X3218106Y750424D01*
X3257021Y711509D01*
X3287599Y665746D01*
X3308660Y614899D01*
X3319397Y560919D01*
X3319397Y505881D01*
X3308660Y451901D01*
X3287599Y401054D01*
X3257021Y355291D01*
X3218106Y316376D01*
X3172343Y285798D01*
X3121496Y264737D01*
X3067516Y254000D01*
X3012478Y254000D01*
X2958498Y264737D01*
X2907651Y285798D01*
X2861888Y316376D01*
X2822973Y355291D01*
X2792395Y401054D01*
X2771334Y451901D01*
X2760597Y505881D01*
X2760597Y560919D01*
X2771334Y614899D01*
X2792395Y665746D01*
X2822973Y711509D01*
X2861888Y750424D01*
X2907651Y781002D01*
X2958498Y802063D01*
X3012478Y812800D01*
X3067516Y812800D01*
X3121496Y802063D01*
X3121496Y802063D01*
G37*
G36*
X1191098Y802063D02*
G01*
X1241945Y781002D01*
X1287708Y750424D01*
X1326623Y711509D01*
X1357201Y665746D01*
X1378262Y614899D01*
X1388999Y560919D01*
X1388999Y505881D01*
X1378262Y451901D01*
X1357201Y401054D01*
X1326623Y355291D01*
X1287708Y316376D01*
X1241945Y285798D01*
X1191098Y264737D01*
X1137118Y254000D01*
X1082080Y254000D01*
X1028100Y264737D01*
X977253Y285798D01*
X931490Y316376D01*
X892575Y355291D01*
X861997Y401054D01*
X840936Y451901D01*
X830199Y505881D01*
X830199Y560919D01*
X840936Y614899D01*
X861997Y665746D01*
X892575Y711509D01*
X931490Y750424D01*
X977253Y781002D01*
X1028100Y802063D01*
X1082080Y812800D01*
X1137118Y812800D01*
X1191098Y802063D01*
X1191098Y802063D01*
G37*
G36*
X4086695Y802063D02*
G01*
X4137542Y781002D01*
X4183305Y750424D01*
X4222220Y711509D01*
X4252798Y665746D01*
X4273859Y614899D01*
X4284596Y560919D01*
X4284596Y505881D01*
X4273859Y451901D01*
X4252798Y401054D01*
X4222220Y355291D01*
X4183305Y316376D01*
X4137542Y285798D01*
X4086695Y264737D01*
X4032715Y254000D01*
X3977677Y254000D01*
X3923697Y264737D01*
X3872850Y285798D01*
X3827087Y316376D01*
X3788172Y355291D01*
X3757594Y401054D01*
X3736533Y451901D01*
X3725796Y505881D01*
X3725796Y560919D01*
X3736533Y614899D01*
X3757594Y665746D01*
X3788172Y711509D01*
X3827087Y750424D01*
X3872850Y781002D01*
X3923697Y802063D01*
X3977677Y812800D01*
X4032715Y812800D01*
X4086695Y802063D01*
X4086695Y802063D01*
G37*
G36*
X5051894Y802063D02*
G01*
X5102741Y781002D01*
X5148504Y750424D01*
X5187419Y711509D01*
X5217997Y665746D01*
X5239058Y614899D01*
X5249795Y560919D01*
X5249795Y505881D01*
X5239058Y451901D01*
X5217997Y401054D01*
X5187419Y355291D01*
X5148504Y316376D01*
X5102741Y285798D01*
X5051894Y264737D01*
X4997914Y254000D01*
X4942876Y254000D01*
X4888896Y264737D01*
X4838049Y285798D01*
X4792286Y316376D01*
X4753371Y355291D01*
X4722793Y401054D01*
X4701732Y451901D01*
X4690995Y505881D01*
X4690995Y560919D01*
X4701732Y614899D01*
X4722793Y665746D01*
X4753371Y711509D01*
X4792286Y750424D01*
X4838049Y781002D01*
X4888896Y802063D01*
X4942876Y812800D01*
X4997914Y812800D01*
X5051894Y802063D01*
X5051894Y802063D01*
G37*
G36*
X6982292Y802063D02*
G01*
X7033139Y781002D01*
X7078902Y750424D01*
X7117817Y711509D01*
X7148395Y665746D01*
X7169456Y614899D01*
X7180193Y560919D01*
X7180193Y505881D01*
X7169456Y451901D01*
X7148395Y401054D01*
X7117817Y355291D01*
X7078902Y316376D01*
X7033139Y285798D01*
X6982292Y264737D01*
X6928312Y254000D01*
X6873274Y254000D01*
X6819294Y264737D01*
X6768447Y285798D01*
X6722684Y316376D01*
X6683769Y355291D01*
X6653191Y401054D01*
X6632130Y451901D01*
X6621393Y505881D01*
X6621393Y560919D01*
X6632130Y614899D01*
X6653191Y665746D01*
X6683769Y711509D01*
X6722684Y750424D01*
X6768447Y781002D01*
X6819294Y802063D01*
X6873274Y812800D01*
X6928312Y812800D01*
X6982292Y802063D01*
X6982292Y802063D01*
G37*
G36*
X6017093Y802063D02*
G01*
X6067940Y781002D01*
X6113703Y750424D01*
X6152618Y711509D01*
X6183196Y665746D01*
X6204257Y614899D01*
X6214994Y560919D01*
X6214994Y505881D01*
X6204257Y451901D01*
X6183196Y401054D01*
X6152618Y355291D01*
X6113703Y316376D01*
X6067940Y285798D01*
X6017093Y264737D01*
X5963113Y254000D01*
X5908075Y254000D01*
X5854095Y264737D01*
X5803248Y285798D01*
X5757485Y316376D01*
X5718570Y355291D01*
X5687992Y401054D01*
X5666931Y451901D01*
X5656194Y505881D01*
X5656194Y560919D01*
X5666931Y614899D01*
X5687992Y665746D01*
X5718570Y711509D01*
X5757485Y750424D01*
X5803248Y781002D01*
X5854095Y802063D01*
X5908075Y812800D01*
X5963113Y812800D01*
X6017093Y802063D01*
X6017093Y802063D01*
G37*
G36*
X708499Y1411663D02*
G01*
X759346Y1390602D01*
X805109Y1360024D01*
X844024Y1321109D01*
X874602Y1275346D01*
X895663Y1224499D01*
X906400Y1170519D01*
X906400Y1115481D01*
X895663Y1061501D01*
X874602Y1010654D01*
X844024Y964891D01*
X805109Y925976D01*
X759346Y895398D01*
X708499Y874337D01*
X654519Y863600D01*
X599481Y863600D01*
X545501Y874337D01*
X494654Y895398D01*
X448891Y925976D01*
X409976Y964891D01*
X379398Y1010654D01*
X358337Y1061501D01*
X347600Y1115481D01*
X347600Y1170519D01*
X358337Y1224499D01*
X379398Y1275346D01*
X409976Y1321109D01*
X448891Y1360024D01*
X494654Y1390602D01*
X545501Y1411663D01*
X599481Y1422400D01*
X654519Y1422400D01*
X708499Y1411663D01*
X708499Y1411663D01*
G37*
G36*
X1673698Y1411663D02*
G01*
X1724545Y1390602D01*
X1770308Y1360024D01*
X1809223Y1321109D01*
X1839801Y1275346D01*
X1860862Y1224499D01*
X1871599Y1170519D01*
X1871599Y1115481D01*
X1860862Y1061501D01*
X1839801Y1010654D01*
X1809223Y964891D01*
X1770308Y925976D01*
X1724545Y895398D01*
X1673698Y874337D01*
X1619718Y863600D01*
X1564680Y863600D01*
X1510700Y874337D01*
X1459853Y895398D01*
X1414090Y925976D01*
X1375175Y964891D01*
X1344597Y1010654D01*
X1323536Y1061501D01*
X1312799Y1115481D01*
X1312799Y1170519D01*
X1323536Y1224499D01*
X1344597Y1275346D01*
X1375175Y1321109D01*
X1414090Y1360024D01*
X1459853Y1390602D01*
X1510700Y1411663D01*
X1564680Y1422400D01*
X1619718Y1422400D01*
X1673698Y1411663D01*
X1673698Y1411663D01*
G37*
G36*
X2638897Y1411663D02*
G01*
X2689744Y1390602D01*
X2735507Y1360024D01*
X2774422Y1321109D01*
X2805000Y1275346D01*
X2826061Y1224499D01*
X2836798Y1170519D01*
X2836798Y1115481D01*
X2826061Y1061501D01*
X2805000Y1010654D01*
X2774422Y964891D01*
X2735507Y925976D01*
X2689744Y895398D01*
X2638897Y874337D01*
X2584917Y863600D01*
X2529879Y863600D01*
X2475899Y874337D01*
X2425052Y895398D01*
X2379289Y925976D01*
X2340374Y964891D01*
X2309796Y1010654D01*
X2288735Y1061501D01*
X2277998Y1115481D01*
X2277998Y1170519D01*
X2288735Y1224499D01*
X2309796Y1275346D01*
X2340374Y1321109D01*
X2379289Y1360024D01*
X2425052Y1390602D01*
X2475899Y1411663D01*
X2529879Y1422400D01*
X2584917Y1422400D01*
X2638897Y1411663D01*
X2638897Y1411663D01*
G37*
G36*
X3604096Y1411663D02*
G01*
X3654943Y1390602D01*
X3700706Y1360024D01*
X3739621Y1321109D01*
X3770199Y1275346D01*
X3791260Y1224499D01*
X3801997Y1170519D01*
X3801997Y1115481D01*
X3791260Y1061501D01*
X3770199Y1010654D01*
X3739621Y964891D01*
X3700706Y925976D01*
X3654943Y895398D01*
X3604096Y874337D01*
X3550116Y863600D01*
X3495078Y863600D01*
X3441098Y874337D01*
X3390251Y895398D01*
X3344488Y925976D01*
X3305573Y964891D01*
X3274995Y1010654D01*
X3253934Y1061501D01*
X3243197Y1115481D01*
X3243197Y1170519D01*
X3253934Y1224499D01*
X3274995Y1275346D01*
X3305573Y1321109D01*
X3344488Y1360024D01*
X3390251Y1390602D01*
X3441098Y1411663D01*
X3495078Y1422400D01*
X3550116Y1422400D01*
X3604096Y1411663D01*
X3604096Y1411663D01*
G37*
G36*
X4569295Y1411663D02*
G01*
X4620142Y1390602D01*
X4665905Y1360024D01*
X4704820Y1321109D01*
X4735398Y1275346D01*
X4756459Y1224499D01*
X4767196Y1170519D01*
X4767196Y1115481D01*
X4756459Y1061501D01*
X4735398Y1010654D01*
X4704820Y964891D01*
X4665905Y925976D01*
X4620142Y895398D01*
X4569295Y874337D01*
X4515315Y863600D01*
X4460277Y863600D01*
X4406297Y874337D01*
X4355450Y895398D01*
X4309687Y925976D01*
X4270772Y964891D01*
X4240194Y1010654D01*
X4219133Y1061501D01*
X4208396Y1115481D01*
X4208396Y1170519D01*
X4219133Y1224499D01*
X4240194Y1275346D01*
X4270772Y1321109D01*
X4309687Y1360024D01*
X4355450Y1390602D01*
X4406297Y1411663D01*
X4460277Y1422400D01*
X4515315Y1422400D01*
X4569295Y1411663D01*
X4569295Y1411663D01*
G37*
G36*
X5534494Y1411663D02*
G01*
X5585341Y1390602D01*
X5631104Y1360024D01*
X5670019Y1321109D01*
X5700597Y1275346D01*
X5721658Y1224499D01*
X5732395Y1170519D01*
X5732395Y1115481D01*
X5721658Y1061501D01*
X5700597Y1010654D01*
X5670019Y964891D01*
X5631104Y925976D01*
X5585341Y895398D01*
X5534494Y874337D01*
X5480514Y863600D01*
X5425476Y863600D01*
X5371496Y874337D01*
X5320649Y895398D01*
X5274886Y925976D01*
X5235971Y964891D01*
X5205393Y1010654D01*
X5184332Y1061501D01*
X5173595Y1115481D01*
X5173595Y1170519D01*
X5184332Y1224499D01*
X5205393Y1275346D01*
X5235971Y1321109D01*
X5274886Y1360024D01*
X5320649Y1390602D01*
X5371496Y1411663D01*
X5425476Y1422400D01*
X5480514Y1422400D01*
X5534494Y1411663D01*
X5534494Y1411663D01*
G37*
G36*
X6499693Y1411663D02*
G01*
X6550540Y1390602D01*
X6596303Y1360024D01*
X6635218Y1321109D01*
X6665796Y1275346D01*
X6686857Y1224499D01*
X6697594Y1170519D01*
X6697594Y1115481D01*
X6686857Y1061501D01*
X6665796Y1010654D01*
X6635218Y964891D01*
X6596303Y925976D01*
X6550540Y895398D01*
X6499693Y874337D01*
X6445713Y863600D01*
X6390675Y863600D01*
X6336695Y874337D01*
X6285848Y895398D01*
X6240085Y925976D01*
X6201170Y964891D01*
X6170592Y1010654D01*
X6149531Y1061501D01*
X6138794Y1115481D01*
X6138794Y1170519D01*
X6149531Y1224499D01*
X6170592Y1275346D01*
X6201170Y1321109D01*
X6240085Y1360024D01*
X6285848Y1390602D01*
X6336695Y1411663D01*
X6390675Y1422400D01*
X6445713Y1422400D01*
X6499693Y1411663D01*
X6499693Y1411663D01*
G37*
G36*
X1249899Y3748463D02*
G01*
X1300746Y3727402D01*
X1346509Y3696824D01*
X1385424Y3657909D01*
X1416002Y3612146D01*
X1437063Y3561299D01*
X1447800Y3507319D01*
X1447800Y3452281D01*
X1437063Y3398301D01*
X1416002Y3347454D01*
X1385424Y3301691D01*
X1346509Y3262776D01*
X1300746Y3232198D01*
X1249899Y3211137D01*
X1195919Y3200400D01*
X1140881Y3200400D01*
X1086901Y3211137D01*
X1036054Y3232198D01*
X990291Y3262776D01*
X951376Y3301691D01*
X920798Y3347454D01*
X899737Y3398301D01*
X889000Y3452281D01*
X889000Y3507319D01*
X899737Y3561299D01*
X920798Y3612146D01*
X951376Y3657909D01*
X990291Y3696824D01*
X1036054Y3727402D01*
X1086901Y3748463D01*
X1140881Y3759200D01*
X1195919Y3759200D01*
X1249899Y3748463D01*
X1249899Y3748463D01*
G37*
G36*
X640299Y4231063D02*
G01*
X691146Y4210002D01*
X736909Y4179424D01*
X775824Y4140509D01*
X806402Y4094746D01*
X827463Y4043899D01*
X838200Y3989919D01*
X838200Y3934881D01*
X827463Y3880901D01*
X806402Y3830054D01*
X775824Y3784291D01*
X736909Y3745376D01*
X691146Y3714798D01*
X640299Y3693737D01*
X586319Y3683000D01*
X531281Y3683000D01*
X477301Y3693737D01*
X426454Y3714798D01*
X380691Y3745376D01*
X341776Y3784291D01*
X311198Y3830054D01*
X290137Y3880901D01*
X279400Y3934881D01*
X279400Y3989919D01*
X290137Y4043899D01*
X311198Y4094746D01*
X341776Y4140509D01*
X380691Y4179424D01*
X426454Y4210002D01*
X477301Y4231063D01*
X531281Y4241800D01*
X586319Y4241800D01*
X640299Y4231063D01*
X640299Y4231063D01*
G37*
G36*
X1249899Y4713662D02*
G01*
X1300746Y4692601D01*
X1346509Y4662023D01*
X1385424Y4623108D01*
X1416002Y4577345D01*
X1437063Y4526498D01*
X1447800Y4472518D01*
X1447800Y4417480D01*
X1437063Y4363500D01*
X1416002Y4312653D01*
X1385424Y4266890D01*
X1346509Y4227975D01*
X1300746Y4197397D01*
X1249899Y4176336D01*
X1195919Y4165599D01*
X1140881Y4165599D01*
X1086901Y4176336D01*
X1036054Y4197397D01*
X990291Y4227975D01*
X951376Y4266890D01*
X920798Y4312653D01*
X899737Y4363500D01*
X889000Y4417480D01*
X889000Y4472518D01*
X899737Y4526498D01*
X920798Y4577345D01*
X951376Y4623108D01*
X990291Y4662023D01*
X1036054Y4692601D01*
X1086901Y4713662D01*
X1140881Y4724399D01*
X1195919Y4724399D01*
X1249899Y4713662D01*
X1249899Y4713662D01*
G37*
G36*
X640299Y5196262D02*
G01*
X691146Y5175201D01*
X736909Y5144623D01*
X775824Y5105708D01*
X806402Y5059945D01*
X827463Y5009098D01*
X838200Y4955118D01*
X838200Y4900080D01*
X827463Y4846100D01*
X806402Y4795253D01*
X775824Y4749490D01*
X736909Y4710575D01*
X691146Y4679997D01*
X640299Y4658936D01*
X586319Y4648199D01*
X531281Y4648199D01*
X477301Y4658936D01*
X426454Y4679997D01*
X380691Y4710575D01*
X341776Y4749490D01*
X311198Y4795253D01*
X290137Y4846100D01*
X279400Y4900080D01*
X279400Y4955118D01*
X290137Y5009098D01*
X311198Y5059945D01*
X341776Y5105708D01*
X380691Y5144623D01*
X426454Y5175201D01*
X477301Y5196262D01*
X531281Y5206999D01*
X586319Y5206999D01*
X640299Y5196262D01*
X640299Y5196262D01*
G37*
G36*
X1249899Y5678861D02*
G01*
X1300746Y5657800D01*
X1346509Y5627222D01*
X1385424Y5588307D01*
X1416002Y5542544D01*
X1437063Y5491697D01*
X1447800Y5437717D01*
X1447800Y5382679D01*
X1437063Y5328699D01*
X1416002Y5277852D01*
X1385424Y5232089D01*
X1346509Y5193174D01*
X1300746Y5162596D01*
X1249899Y5141535D01*
X1195919Y5130798D01*
X1140881Y5130798D01*
X1086901Y5141535D01*
X1036054Y5162596D01*
X990291Y5193174D01*
X951376Y5232089D01*
X920798Y5277852D01*
X899737Y5328699D01*
X889000Y5382679D01*
X889000Y5437717D01*
X899737Y5491697D01*
X920798Y5542544D01*
X951376Y5588307D01*
X990291Y5627222D01*
X1036054Y5657800D01*
X1086901Y5678861D01*
X1140881Y5689598D01*
X1195919Y5689598D01*
X1249899Y5678861D01*
X1249899Y5678861D01*
G37*
G36*
X4474349Y6005191D02*
G01*
X4522702Y5995573D01*
X4591019Y5967275D01*
X4652505Y5926191D01*
X4704791Y5873905D01*
X4745875Y5812419D01*
X4774173Y5744102D01*
X4783791Y5695749D01*
X4787765Y5675774D01*
X4788600Y5671573D01*
X4788600Y5597627D01*
X4774173Y5525098D01*
X4745875Y5456781D01*
X4704791Y5395295D01*
X4652505Y5343009D01*
X4591019Y5301925D01*
X4522702Y5273627D01*
X4474349Y5264009D01*
X4450174Y5259200D01*
X4376226Y5259200D01*
X4352051Y5264009D01*
X4303698Y5273627D01*
X4235381Y5301925D01*
X4173895Y5343009D01*
X4121609Y5395295D01*
X4080525Y5456781D01*
X4052227Y5525098D01*
X4037800Y5597627D01*
X4037800Y5671573D01*
X4038636Y5675774D01*
X4042609Y5695749D01*
X4052227Y5744102D01*
X4080525Y5812419D01*
X4121609Y5873905D01*
X4173895Y5926191D01*
X4235381Y5967275D01*
X4303698Y5995573D01*
X4352051Y6005191D01*
X4376226Y6010000D01*
X4450174Y6010000D01*
X4474349Y6005191D01*
X4474349Y6005191D01*
G37*
G36*
X5744349Y6005191D02*
G01*
X5792702Y5995573D01*
X5861019Y5967275D01*
X5922505Y5926191D01*
X5974791Y5873905D01*
X6015875Y5812419D01*
X6044173Y5744102D01*
X6053791Y5695749D01*
X6057765Y5675774D01*
X6058600Y5671573D01*
X6058600Y5597627D01*
X6044173Y5525098D01*
X6015875Y5456781D01*
X5974791Y5395295D01*
X5922505Y5343009D01*
X5861019Y5301925D01*
X5792702Y5273627D01*
X5744349Y5264009D01*
X5720174Y5259200D01*
X5646226Y5259200D01*
X5622051Y5264009D01*
X5573698Y5273627D01*
X5505381Y5301925D01*
X5443895Y5343009D01*
X5391609Y5395295D01*
X5350525Y5456781D01*
X5322227Y5525098D01*
X5307800Y5597627D01*
X5307800Y5671573D01*
X5308636Y5675774D01*
X5312609Y5695749D01*
X5322227Y5744102D01*
X5350525Y5812419D01*
X5391609Y5873905D01*
X5443895Y5926191D01*
X5505381Y5967275D01*
X5573698Y5995573D01*
X5622051Y6005191D01*
X5646226Y6010000D01*
X5720174Y6010000D01*
X5744349Y6005191D01*
X5744349Y6005191D01*
G37*
G36*
X3204349Y6005191D02*
G01*
X3252702Y5995573D01*
X3321019Y5967275D01*
X3382505Y5926191D01*
X3434791Y5873905D01*
X3475875Y5812419D01*
X3504173Y5744102D01*
X3513791Y5695749D01*
X3517765Y5675774D01*
X3518600Y5671573D01*
X3518600Y5597627D01*
X3504173Y5525098D01*
X3475875Y5456781D01*
X3434791Y5395295D01*
X3382505Y5343009D01*
X3321019Y5301925D01*
X3252702Y5273627D01*
X3204349Y5264009D01*
X3180174Y5259200D01*
X3106226Y5259200D01*
X3082051Y5264009D01*
X3033698Y5273627D01*
X2965381Y5301925D01*
X2903895Y5343009D01*
X2851609Y5395295D01*
X2810525Y5456781D01*
X2782227Y5525098D01*
X2767800Y5597627D01*
X2767800Y5671573D01*
X2768636Y5675774D01*
X2772609Y5695749D01*
X2782227Y5744102D01*
X2810525Y5812419D01*
X2851609Y5873905D01*
X2903895Y5926191D01*
X2965381Y5967275D01*
X3033698Y5995573D01*
X3082051Y6005191D01*
X3106226Y6010000D01*
X3180174Y6010000D01*
X3204349Y6005191D01*
X3204349Y6005191D01*
G37*
G36*
X640299Y6161461D02*
G01*
X691146Y6140400D01*
X736909Y6109822D01*
X775824Y6070907D01*
X806402Y6025144D01*
X827463Y5974297D01*
X838200Y5920317D01*
X838200Y5865279D01*
X827463Y5811299D01*
X806402Y5760452D01*
X775824Y5714689D01*
X736909Y5675774D01*
X691146Y5645196D01*
X640299Y5624135D01*
X586319Y5613398D01*
X531281Y5613398D01*
X477301Y5624135D01*
X426454Y5645196D01*
X380691Y5675774D01*
X341776Y5714689D01*
X311198Y5760452D01*
X290137Y5811299D01*
X279400Y5865279D01*
X279400Y5920317D01*
X290137Y5974297D01*
X311198Y6025144D01*
X341776Y6070907D01*
X380691Y6109822D01*
X426454Y6140400D01*
X477301Y6161461D01*
X531281Y6172198D01*
X586319Y6172198D01*
X640299Y6161461D01*
X640299Y6161461D01*
G37*
G36*
X3204349Y7275191D02*
G01*
X3252702Y7265573D01*
X3321019Y7237275D01*
X3382505Y7196191D01*
X3434791Y7143905D01*
X3475875Y7082419D01*
X3504173Y7014102D01*
X3518600Y6941573D01*
X3518600Y6867627D01*
X3504173Y6795098D01*
X3475875Y6726781D01*
X3434791Y6665295D01*
X3382505Y6613009D01*
X3321019Y6571925D01*
X3252702Y6543627D01*
X3204349Y6534009D01*
X3180174Y6529200D01*
X3106226Y6529200D01*
X3082051Y6534009D01*
X3033698Y6543627D01*
X2965381Y6571925D01*
X2903895Y6613009D01*
X2851609Y6665295D01*
X2810525Y6726781D01*
X2782227Y6795098D01*
X2767800Y6867627D01*
X2767800Y6941573D01*
X2782227Y7014102D01*
X2810525Y7082419D01*
X2851609Y7143905D01*
X2903895Y7196191D01*
X2965381Y7237275D01*
X3033698Y7265573D01*
X3082051Y7275191D01*
X3106226Y7280000D01*
X3180174Y7280000D01*
X3204349Y7275191D01*
X3204349Y7275191D01*
G37*
G36*
X4474349Y7275191D02*
G01*
X4522702Y7265573D01*
X4591019Y7237275D01*
X4652505Y7196191D01*
X4704791Y7143905D01*
X4745875Y7082419D01*
X4774173Y7014102D01*
X4788600Y6941573D01*
X4788600Y6867627D01*
X4774173Y6795098D01*
X4745875Y6726781D01*
X4704791Y6665295D01*
X4652505Y6613009D01*
X4591019Y6571925D01*
X4522702Y6543627D01*
X4474349Y6534009D01*
X4450174Y6529200D01*
X4376226Y6529200D01*
X4352051Y6534009D01*
X4303698Y6543627D01*
X4235381Y6571925D01*
X4173895Y6613009D01*
X4121609Y6665295D01*
X4080525Y6726781D01*
X4052227Y6795098D01*
X4037800Y6867627D01*
X4037800Y6941573D01*
X4052227Y7014102D01*
X4080525Y7082419D01*
X4121609Y7143905D01*
X4173895Y7196191D01*
X4235381Y7237275D01*
X4303698Y7265573D01*
X4352051Y7275191D01*
X4376226Y7280000D01*
X4450174Y7280000D01*
X4474349Y7275191D01*
X4474349Y7275191D01*
G37*
G36*
X5744349Y7275191D02*
G01*
X5792702Y7265573D01*
X5861019Y7237275D01*
X5922505Y7196191D01*
X5974791Y7143905D01*
X6015875Y7082419D01*
X6044173Y7014102D01*
X6058600Y6941573D01*
X6058600Y6867627D01*
X6044173Y6795098D01*
X6015875Y6726781D01*
X5974791Y6665295D01*
X5922505Y6613009D01*
X5861019Y6571925D01*
X5792702Y6543627D01*
X5744349Y6534009D01*
X5720174Y6529200D01*
X5646226Y6529200D01*
X5622051Y6534009D01*
X5573698Y6543627D01*
X5505381Y6571925D01*
X5443895Y6613009D01*
X5391609Y6665295D01*
X5350525Y6726781D01*
X5322227Y6795098D01*
X5307800Y6867627D01*
X5307800Y6941573D01*
X5322227Y7014102D01*
X5350525Y7082419D01*
X5391609Y7143905D01*
X5443895Y7196191D01*
X5505381Y7237275D01*
X5573698Y7265573D01*
X5622051Y7275191D01*
X5646226Y7280000D01*
X5720174Y7280000D01*
X5744349Y7275191D01*
X5744349Y7275191D01*
G37*
M02*
