G04 #@! TF.GenerationSoftware,KiCad,Pcbnew,(5.1.0)-1*
G04 #@! TF.CreationDate,2019-04-30T21:15:28-07:00*
G04 #@! TF.ProjectId,Miniscope-v4-MCU,4d696e69-7363-46f7-9065-2d76342d4d43,rev?*
G04 #@! TF.SameCoordinates,Original*
G04 #@! TF.FileFunction,Soldermask,Top*
G04 #@! TF.FilePolarity,Negative*
%FSLAX46Y46*%
G04 Gerber Fmt 4.6, Leading zero omitted, Abs format (unit mm)*
G04 Created by KiCad (PCBNEW (5.1.0)-1) date 2019-04-30 21:15:28*
%MOMM*%
%LPD*%
G04 APERTURE LIST*
%ADD10C,0.100000*%
G04 APERTURE END LIST*
D10*
G36*
X50215964Y-56563720D02*
G01*
X50271470Y-56586711D01*
X50271472Y-56586712D01*
X50296619Y-56603515D01*
X50321425Y-56620090D01*
X50363910Y-56662575D01*
X50397289Y-56712530D01*
X50420280Y-56768036D01*
X50432000Y-56826958D01*
X50432000Y-56887042D01*
X50420281Y-56945962D01*
X50398132Y-56999435D01*
X50391020Y-57022884D01*
X50388618Y-57047270D01*
X50391020Y-57071656D01*
X50398134Y-57095105D01*
X50409685Y-57116716D01*
X50425230Y-57135658D01*
X50444172Y-57151203D01*
X50465783Y-57162754D01*
X50489232Y-57169866D01*
X50513618Y-57172268D01*
X50538003Y-57169866D01*
X50579558Y-57161600D01*
X50639640Y-57161600D01*
X50681197Y-57169866D01*
X50705584Y-57172268D01*
X50729970Y-57169866D01*
X50753419Y-57162753D01*
X50775029Y-57151202D01*
X50793971Y-57135656D01*
X50809516Y-57116714D01*
X50821067Y-57095103D01*
X50828180Y-57071655D01*
X50830582Y-57047268D01*
X50828180Y-57022882D01*
X50821067Y-56999434D01*
X50798919Y-56945964D01*
X50787199Y-56887042D01*
X50787199Y-56826958D01*
X50798919Y-56768036D01*
X50821910Y-56712530D01*
X50855289Y-56662575D01*
X50897774Y-56620090D01*
X50922580Y-56603515D01*
X50947727Y-56586712D01*
X50947729Y-56586711D01*
X51003235Y-56563720D01*
X51062157Y-56552000D01*
X51122241Y-56552000D01*
X51181163Y-56563720D01*
X51236669Y-56586711D01*
X51236671Y-56586712D01*
X51261818Y-56603515D01*
X51286624Y-56620090D01*
X51329109Y-56662575D01*
X51362488Y-56712530D01*
X51385479Y-56768036D01*
X51397199Y-56826958D01*
X51397199Y-56887042D01*
X51385480Y-56945962D01*
X51363331Y-56999435D01*
X51356219Y-57022884D01*
X51353817Y-57047270D01*
X51356219Y-57071656D01*
X51363333Y-57095105D01*
X51374884Y-57116716D01*
X51390429Y-57135658D01*
X51409371Y-57151203D01*
X51430982Y-57162754D01*
X51454431Y-57169866D01*
X51478817Y-57172268D01*
X51503202Y-57169866D01*
X51544757Y-57161600D01*
X51604839Y-57161600D01*
X51646396Y-57169866D01*
X51670783Y-57172268D01*
X51695169Y-57169866D01*
X51718618Y-57162753D01*
X51740228Y-57151202D01*
X51759170Y-57135656D01*
X51774715Y-57116714D01*
X51786266Y-57095103D01*
X51793379Y-57071655D01*
X51795781Y-57047268D01*
X51793379Y-57022882D01*
X51786266Y-56999434D01*
X51764118Y-56945964D01*
X51752398Y-56887042D01*
X51752398Y-56826958D01*
X51764118Y-56768036D01*
X51787109Y-56712530D01*
X51820488Y-56662575D01*
X51862973Y-56620090D01*
X51887779Y-56603515D01*
X51912926Y-56586712D01*
X51912928Y-56586711D01*
X51968434Y-56563720D01*
X52027356Y-56552000D01*
X52087440Y-56552000D01*
X52146362Y-56563720D01*
X52201868Y-56586711D01*
X52201870Y-56586712D01*
X52227017Y-56603515D01*
X52251823Y-56620090D01*
X52294308Y-56662575D01*
X52327687Y-56712530D01*
X52350678Y-56768036D01*
X52362398Y-56826958D01*
X52362398Y-56887042D01*
X52350679Y-56945962D01*
X52328530Y-56999435D01*
X52321418Y-57022884D01*
X52319016Y-57047270D01*
X52321418Y-57071656D01*
X52328532Y-57095105D01*
X52340083Y-57116716D01*
X52355628Y-57135658D01*
X52374570Y-57151203D01*
X52396181Y-57162754D01*
X52419630Y-57169866D01*
X52444016Y-57172268D01*
X52468401Y-57169866D01*
X52509956Y-57161600D01*
X52570038Y-57161600D01*
X52611595Y-57169866D01*
X52635982Y-57172268D01*
X52660368Y-57169866D01*
X52683817Y-57162753D01*
X52705427Y-57151202D01*
X52724369Y-57135656D01*
X52739914Y-57116714D01*
X52751465Y-57095103D01*
X52758578Y-57071655D01*
X52760980Y-57047268D01*
X52758578Y-57022882D01*
X52751465Y-56999434D01*
X52729317Y-56945964D01*
X52717597Y-56887042D01*
X52717597Y-56826958D01*
X52729317Y-56768036D01*
X52752308Y-56712530D01*
X52785687Y-56662575D01*
X52828172Y-56620090D01*
X52852978Y-56603515D01*
X52878125Y-56586712D01*
X52878127Y-56586711D01*
X52933633Y-56563720D01*
X52992555Y-56552000D01*
X53052639Y-56552000D01*
X53111561Y-56563720D01*
X53167067Y-56586711D01*
X53167069Y-56586712D01*
X53192216Y-56603515D01*
X53217022Y-56620090D01*
X53259507Y-56662575D01*
X53292886Y-56712530D01*
X53315877Y-56768036D01*
X53327597Y-56826958D01*
X53327597Y-56887042D01*
X53315878Y-56945962D01*
X53293729Y-56999435D01*
X53286617Y-57022884D01*
X53284215Y-57047270D01*
X53286617Y-57071656D01*
X53293731Y-57095105D01*
X53305282Y-57116716D01*
X53320827Y-57135658D01*
X53339769Y-57151203D01*
X53361380Y-57162754D01*
X53384829Y-57169866D01*
X53409215Y-57172268D01*
X53433600Y-57169866D01*
X53475155Y-57161600D01*
X53535237Y-57161600D01*
X53576794Y-57169866D01*
X53601181Y-57172268D01*
X53625567Y-57169866D01*
X53649016Y-57162753D01*
X53670626Y-57151202D01*
X53689568Y-57135656D01*
X53705113Y-57116714D01*
X53716664Y-57095103D01*
X53723777Y-57071655D01*
X53726179Y-57047268D01*
X53723777Y-57022882D01*
X53716664Y-56999434D01*
X53694516Y-56945964D01*
X53682796Y-56887042D01*
X53682796Y-56826958D01*
X53694516Y-56768036D01*
X53717507Y-56712530D01*
X53750886Y-56662575D01*
X53793371Y-56620090D01*
X53818177Y-56603515D01*
X53843324Y-56586712D01*
X53843326Y-56586711D01*
X53898832Y-56563720D01*
X53957754Y-56552000D01*
X54017838Y-56552000D01*
X54076760Y-56563720D01*
X54132266Y-56586711D01*
X54132268Y-56586712D01*
X54157415Y-56603515D01*
X54182221Y-56620090D01*
X54224706Y-56662575D01*
X54258085Y-56712530D01*
X54281076Y-56768036D01*
X54292796Y-56826958D01*
X54292796Y-56887042D01*
X54281077Y-56945962D01*
X54258928Y-56999435D01*
X54251816Y-57022884D01*
X54249414Y-57047270D01*
X54251816Y-57071656D01*
X54258930Y-57095105D01*
X54270481Y-57116716D01*
X54286026Y-57135658D01*
X54304968Y-57151203D01*
X54326579Y-57162754D01*
X54350028Y-57169866D01*
X54374414Y-57172268D01*
X54398799Y-57169866D01*
X54440354Y-57161600D01*
X54500436Y-57161600D01*
X54541993Y-57169866D01*
X54566380Y-57172268D01*
X54590766Y-57169866D01*
X54614215Y-57162753D01*
X54635825Y-57151202D01*
X54654767Y-57135656D01*
X54670312Y-57116714D01*
X54681863Y-57095103D01*
X54688976Y-57071655D01*
X54691378Y-57047268D01*
X54688976Y-57022882D01*
X54681863Y-56999434D01*
X54659715Y-56945964D01*
X54647995Y-56887042D01*
X54647995Y-56826958D01*
X54659715Y-56768036D01*
X54682706Y-56712530D01*
X54716085Y-56662575D01*
X54758570Y-56620090D01*
X54783376Y-56603515D01*
X54808523Y-56586712D01*
X54808525Y-56586711D01*
X54864031Y-56563720D01*
X54922953Y-56552000D01*
X54983037Y-56552000D01*
X55041959Y-56563720D01*
X55097465Y-56586711D01*
X55097467Y-56586712D01*
X55122614Y-56603515D01*
X55147420Y-56620090D01*
X55189905Y-56662575D01*
X55223284Y-56712530D01*
X55246275Y-56768036D01*
X55257995Y-56826958D01*
X55257995Y-56887042D01*
X55246276Y-56945962D01*
X55224127Y-56999435D01*
X55217015Y-57022884D01*
X55214613Y-57047270D01*
X55217015Y-57071656D01*
X55224129Y-57095105D01*
X55235680Y-57116716D01*
X55251225Y-57135658D01*
X55270167Y-57151203D01*
X55291778Y-57162754D01*
X55315227Y-57169866D01*
X55339613Y-57172268D01*
X55363998Y-57169866D01*
X55405553Y-57161600D01*
X55465635Y-57161600D01*
X55507192Y-57169866D01*
X55531579Y-57172268D01*
X55555965Y-57169866D01*
X55579414Y-57162753D01*
X55601024Y-57151202D01*
X55619966Y-57135656D01*
X55635511Y-57116714D01*
X55647062Y-57095103D01*
X55654175Y-57071655D01*
X55656577Y-57047268D01*
X55654175Y-57022882D01*
X55647062Y-56999434D01*
X55624914Y-56945964D01*
X55613194Y-56887042D01*
X55613194Y-56826958D01*
X55624914Y-56768036D01*
X55647905Y-56712530D01*
X55681284Y-56662575D01*
X55723769Y-56620090D01*
X55748575Y-56603515D01*
X55773722Y-56586712D01*
X55773724Y-56586711D01*
X55829230Y-56563720D01*
X55888152Y-56552000D01*
X55948236Y-56552000D01*
X56007158Y-56563720D01*
X56062664Y-56586711D01*
X56062666Y-56586712D01*
X56087813Y-56603515D01*
X56112619Y-56620090D01*
X56155104Y-56662575D01*
X56188483Y-56712530D01*
X56211474Y-56768036D01*
X56223194Y-56826958D01*
X56223194Y-56887042D01*
X56211475Y-56945962D01*
X56189326Y-56999435D01*
X56182214Y-57022884D01*
X56179812Y-57047270D01*
X56182214Y-57071656D01*
X56189328Y-57095105D01*
X56200879Y-57116716D01*
X56216424Y-57135658D01*
X56235366Y-57151203D01*
X56256977Y-57162754D01*
X56280426Y-57169866D01*
X56304812Y-57172268D01*
X56329197Y-57169866D01*
X56370752Y-57161600D01*
X56430835Y-57161600D01*
X56489757Y-57173320D01*
X56545263Y-57196311D01*
X56545265Y-57196312D01*
X56561087Y-57206884D01*
X56595218Y-57229690D01*
X56637703Y-57272175D01*
X56671082Y-57322130D01*
X56694073Y-57377636D01*
X56705793Y-57436558D01*
X56705793Y-57496642D01*
X56694073Y-57555564D01*
X56671082Y-57611070D01*
X56671081Y-57611072D01*
X56637702Y-57661026D01*
X56595219Y-57703509D01*
X56545265Y-57736888D01*
X56545264Y-57736889D01*
X56545263Y-57736889D01*
X56489757Y-57759880D01*
X56430835Y-57771600D01*
X56370751Y-57771600D01*
X56311829Y-57759880D01*
X56256323Y-57736889D01*
X56256322Y-57736889D01*
X56256321Y-57736888D01*
X56206367Y-57703509D01*
X56163884Y-57661026D01*
X56130505Y-57611072D01*
X56130504Y-57611070D01*
X56107513Y-57555564D01*
X56095793Y-57496642D01*
X56095793Y-57436558D01*
X56107512Y-57377638D01*
X56129661Y-57324165D01*
X56136773Y-57300716D01*
X56139175Y-57276330D01*
X56136773Y-57251944D01*
X56129659Y-57228495D01*
X56118108Y-57206884D01*
X56102563Y-57187942D01*
X56083621Y-57172397D01*
X56062010Y-57160846D01*
X56038561Y-57153734D01*
X56014175Y-57151332D01*
X55989790Y-57153734D01*
X55948235Y-57162000D01*
X55888153Y-57162000D01*
X55846596Y-57153734D01*
X55822209Y-57151332D01*
X55797823Y-57153734D01*
X55774374Y-57160847D01*
X55752764Y-57172398D01*
X55733822Y-57187944D01*
X55718277Y-57206886D01*
X55706726Y-57228497D01*
X55699613Y-57251945D01*
X55697211Y-57276332D01*
X55699613Y-57300718D01*
X55706726Y-57324166D01*
X55728874Y-57377636D01*
X55740594Y-57436558D01*
X55740594Y-57496642D01*
X55728874Y-57555564D01*
X55705883Y-57611070D01*
X55705882Y-57611072D01*
X55672503Y-57661026D01*
X55630020Y-57703509D01*
X55580066Y-57736888D01*
X55580065Y-57736889D01*
X55580064Y-57736889D01*
X55524558Y-57759880D01*
X55465636Y-57771600D01*
X55405552Y-57771600D01*
X55346630Y-57759880D01*
X55291124Y-57736889D01*
X55291123Y-57736889D01*
X55291122Y-57736888D01*
X55241168Y-57703509D01*
X55198685Y-57661026D01*
X55165306Y-57611072D01*
X55165305Y-57611070D01*
X55142314Y-57555564D01*
X55130594Y-57496642D01*
X55130594Y-57436558D01*
X55142313Y-57377638D01*
X55164462Y-57324165D01*
X55171574Y-57300716D01*
X55173976Y-57276330D01*
X55171574Y-57251944D01*
X55164460Y-57228495D01*
X55152909Y-57206884D01*
X55137364Y-57187942D01*
X55118422Y-57172397D01*
X55096811Y-57160846D01*
X55073362Y-57153734D01*
X55048976Y-57151332D01*
X55024591Y-57153734D01*
X54983036Y-57162000D01*
X54922954Y-57162000D01*
X54881397Y-57153734D01*
X54857010Y-57151332D01*
X54832624Y-57153734D01*
X54809175Y-57160847D01*
X54787565Y-57172398D01*
X54768623Y-57187944D01*
X54753078Y-57206886D01*
X54741527Y-57228497D01*
X54734414Y-57251945D01*
X54732012Y-57276332D01*
X54734414Y-57300718D01*
X54741527Y-57324166D01*
X54763675Y-57377636D01*
X54775395Y-57436558D01*
X54775395Y-57496642D01*
X54763675Y-57555564D01*
X54740684Y-57611070D01*
X54740683Y-57611072D01*
X54707304Y-57661026D01*
X54664821Y-57703509D01*
X54614867Y-57736888D01*
X54614866Y-57736889D01*
X54614865Y-57736889D01*
X54559359Y-57759880D01*
X54500437Y-57771600D01*
X54440353Y-57771600D01*
X54381431Y-57759880D01*
X54325925Y-57736889D01*
X54325924Y-57736889D01*
X54325923Y-57736888D01*
X54275969Y-57703509D01*
X54233486Y-57661026D01*
X54200107Y-57611072D01*
X54200106Y-57611070D01*
X54177115Y-57555564D01*
X54165395Y-57496642D01*
X54165395Y-57436558D01*
X54177114Y-57377638D01*
X54199263Y-57324165D01*
X54206375Y-57300716D01*
X54208777Y-57276330D01*
X54206375Y-57251944D01*
X54199261Y-57228495D01*
X54187710Y-57206884D01*
X54172165Y-57187942D01*
X54153223Y-57172397D01*
X54131612Y-57160846D01*
X54108163Y-57153734D01*
X54083777Y-57151332D01*
X54059392Y-57153734D01*
X54017837Y-57162000D01*
X53957755Y-57162000D01*
X53916198Y-57153734D01*
X53891811Y-57151332D01*
X53867425Y-57153734D01*
X53843976Y-57160847D01*
X53822366Y-57172398D01*
X53803424Y-57187944D01*
X53787879Y-57206886D01*
X53776328Y-57228497D01*
X53769215Y-57251945D01*
X53766813Y-57276332D01*
X53769215Y-57300718D01*
X53776328Y-57324166D01*
X53798476Y-57377636D01*
X53810196Y-57436558D01*
X53810196Y-57496642D01*
X53798476Y-57555564D01*
X53775485Y-57611070D01*
X53775484Y-57611072D01*
X53742105Y-57661026D01*
X53699622Y-57703509D01*
X53649668Y-57736888D01*
X53649667Y-57736889D01*
X53649666Y-57736889D01*
X53594160Y-57759880D01*
X53535238Y-57771600D01*
X53475154Y-57771600D01*
X53416232Y-57759880D01*
X53360726Y-57736889D01*
X53360725Y-57736889D01*
X53360724Y-57736888D01*
X53310770Y-57703509D01*
X53268287Y-57661026D01*
X53234908Y-57611072D01*
X53234907Y-57611070D01*
X53211916Y-57555564D01*
X53200196Y-57496642D01*
X53200196Y-57436558D01*
X53211915Y-57377638D01*
X53234064Y-57324165D01*
X53241176Y-57300716D01*
X53243578Y-57276330D01*
X53241176Y-57251944D01*
X53234062Y-57228495D01*
X53222511Y-57206884D01*
X53206966Y-57187942D01*
X53188024Y-57172397D01*
X53166413Y-57160846D01*
X53142964Y-57153734D01*
X53118578Y-57151332D01*
X53094193Y-57153734D01*
X53052638Y-57162000D01*
X52992556Y-57162000D01*
X52950999Y-57153734D01*
X52926612Y-57151332D01*
X52902226Y-57153734D01*
X52878777Y-57160847D01*
X52857167Y-57172398D01*
X52838225Y-57187944D01*
X52822680Y-57206886D01*
X52811129Y-57228497D01*
X52804016Y-57251945D01*
X52801614Y-57276332D01*
X52804016Y-57300718D01*
X52811129Y-57324166D01*
X52833277Y-57377636D01*
X52844997Y-57436558D01*
X52844997Y-57496642D01*
X52833277Y-57555564D01*
X52810286Y-57611070D01*
X52810285Y-57611072D01*
X52776906Y-57661026D01*
X52734423Y-57703509D01*
X52684469Y-57736888D01*
X52684468Y-57736889D01*
X52684467Y-57736889D01*
X52628961Y-57759880D01*
X52570039Y-57771600D01*
X52509955Y-57771600D01*
X52451033Y-57759880D01*
X52395527Y-57736889D01*
X52395526Y-57736889D01*
X52395525Y-57736888D01*
X52345571Y-57703509D01*
X52303088Y-57661026D01*
X52269709Y-57611072D01*
X52269708Y-57611070D01*
X52246717Y-57555564D01*
X52234997Y-57496642D01*
X52234997Y-57436558D01*
X52246716Y-57377638D01*
X52268865Y-57324165D01*
X52275977Y-57300716D01*
X52278379Y-57276330D01*
X52275977Y-57251944D01*
X52268863Y-57228495D01*
X52257312Y-57206884D01*
X52241767Y-57187942D01*
X52222825Y-57172397D01*
X52201214Y-57160846D01*
X52177765Y-57153734D01*
X52153379Y-57151332D01*
X52128994Y-57153734D01*
X52087439Y-57162000D01*
X52027357Y-57162000D01*
X51985800Y-57153734D01*
X51961413Y-57151332D01*
X51937027Y-57153734D01*
X51913578Y-57160847D01*
X51891968Y-57172398D01*
X51873026Y-57187944D01*
X51857481Y-57206886D01*
X51845930Y-57228497D01*
X51838817Y-57251945D01*
X51836415Y-57276332D01*
X51838817Y-57300718D01*
X51845930Y-57324166D01*
X51868078Y-57377636D01*
X51879798Y-57436558D01*
X51879798Y-57496642D01*
X51868078Y-57555564D01*
X51845087Y-57611070D01*
X51845086Y-57611072D01*
X51811707Y-57661026D01*
X51769224Y-57703509D01*
X51719270Y-57736888D01*
X51719269Y-57736889D01*
X51719268Y-57736889D01*
X51663762Y-57759880D01*
X51604840Y-57771600D01*
X51544756Y-57771600D01*
X51485834Y-57759880D01*
X51430328Y-57736889D01*
X51430327Y-57736889D01*
X51430326Y-57736888D01*
X51380372Y-57703509D01*
X51337889Y-57661026D01*
X51304510Y-57611072D01*
X51304509Y-57611070D01*
X51281518Y-57555564D01*
X51269798Y-57496642D01*
X51269798Y-57436558D01*
X51281517Y-57377638D01*
X51303666Y-57324165D01*
X51310778Y-57300716D01*
X51313180Y-57276330D01*
X51310778Y-57251944D01*
X51303664Y-57228495D01*
X51292113Y-57206884D01*
X51276568Y-57187942D01*
X51257626Y-57172397D01*
X51236015Y-57160846D01*
X51212566Y-57153734D01*
X51188180Y-57151332D01*
X51163795Y-57153734D01*
X51122240Y-57162000D01*
X51062158Y-57162000D01*
X51020601Y-57153734D01*
X50996214Y-57151332D01*
X50971828Y-57153734D01*
X50948379Y-57160847D01*
X50926769Y-57172398D01*
X50907827Y-57187944D01*
X50892282Y-57206886D01*
X50880731Y-57228497D01*
X50873618Y-57251945D01*
X50871216Y-57276332D01*
X50873618Y-57300718D01*
X50880731Y-57324166D01*
X50902879Y-57377636D01*
X50914599Y-57436558D01*
X50914599Y-57496642D01*
X50902879Y-57555564D01*
X50879888Y-57611070D01*
X50879887Y-57611072D01*
X50846508Y-57661026D01*
X50804025Y-57703509D01*
X50754071Y-57736888D01*
X50754070Y-57736889D01*
X50754069Y-57736889D01*
X50698563Y-57759880D01*
X50639641Y-57771600D01*
X50579557Y-57771600D01*
X50520635Y-57759880D01*
X50465129Y-57736889D01*
X50465128Y-57736889D01*
X50465127Y-57736888D01*
X50415173Y-57703509D01*
X50372690Y-57661026D01*
X50339311Y-57611072D01*
X50339310Y-57611070D01*
X50316319Y-57555564D01*
X50304599Y-57496642D01*
X50304599Y-57436558D01*
X50316318Y-57377638D01*
X50338467Y-57324165D01*
X50345579Y-57300716D01*
X50347981Y-57276330D01*
X50345579Y-57251944D01*
X50338465Y-57228495D01*
X50326914Y-57206884D01*
X50311369Y-57187942D01*
X50292427Y-57172397D01*
X50270816Y-57160846D01*
X50247367Y-57153734D01*
X50222981Y-57151332D01*
X50198596Y-57153734D01*
X50157041Y-57162000D01*
X50096958Y-57162000D01*
X50038036Y-57150280D01*
X49982530Y-57127289D01*
X49982529Y-57127289D01*
X49982528Y-57127288D01*
X49957381Y-57110485D01*
X49932575Y-57093910D01*
X49890090Y-57051425D01*
X49856711Y-57001470D01*
X49833720Y-56945964D01*
X49822000Y-56887042D01*
X49822000Y-56826958D01*
X49833720Y-56768036D01*
X49856711Y-56712530D01*
X49890090Y-56662575D01*
X49932575Y-56620090D01*
X49957381Y-56603515D01*
X49982528Y-56586712D01*
X49982530Y-56586711D01*
X50038036Y-56563720D01*
X50096958Y-56552000D01*
X50157042Y-56552000D01*
X50215964Y-56563720D01*
X50215964Y-56563720D01*
G37*
G36*
X50147764Y-51813922D02*
G01*
X50203270Y-51836913D01*
X50203272Y-51836914D01*
X50228419Y-51853717D01*
X50253225Y-51870292D01*
X50295710Y-51912777D01*
X50329089Y-51962732D01*
X50352080Y-52018238D01*
X50363800Y-52077160D01*
X50363800Y-52137243D01*
X50355534Y-52178800D01*
X50353132Y-52203187D01*
X50355534Y-52227573D01*
X50362647Y-52251022D01*
X50374198Y-52272632D01*
X50389744Y-52291574D01*
X50408686Y-52307119D01*
X50430297Y-52318670D01*
X50453745Y-52325783D01*
X50478132Y-52328185D01*
X50502518Y-52325783D01*
X50525966Y-52318670D01*
X50579436Y-52296522D01*
X50638358Y-52284802D01*
X50698442Y-52284802D01*
X50757364Y-52296522D01*
X50812870Y-52319513D01*
X50812872Y-52319514D01*
X50825849Y-52328185D01*
X50862825Y-52352892D01*
X50905310Y-52395377D01*
X50938689Y-52445332D01*
X50961680Y-52500838D01*
X50973400Y-52559760D01*
X50973400Y-52619844D01*
X50961680Y-52678766D01*
X50938689Y-52734272D01*
X50908722Y-52779121D01*
X50905309Y-52784228D01*
X50862826Y-52826711D01*
X50812872Y-52860090D01*
X50812871Y-52860091D01*
X50812870Y-52860091D01*
X50757364Y-52883082D01*
X50698442Y-52894802D01*
X50638358Y-52894802D01*
X50579438Y-52883083D01*
X50525965Y-52860934D01*
X50502516Y-52853822D01*
X50478130Y-52851420D01*
X50453744Y-52853822D01*
X50430295Y-52860936D01*
X50408684Y-52872487D01*
X50389742Y-52888032D01*
X50374197Y-52906974D01*
X50362646Y-52928585D01*
X50355534Y-52952034D01*
X50353132Y-52976420D01*
X50355534Y-53000805D01*
X50363800Y-53042360D01*
X50363800Y-53102442D01*
X50355534Y-53143999D01*
X50353132Y-53168386D01*
X50355534Y-53192772D01*
X50362647Y-53216221D01*
X50374198Y-53237831D01*
X50389744Y-53256773D01*
X50408686Y-53272318D01*
X50430297Y-53283869D01*
X50453745Y-53290982D01*
X50478132Y-53293384D01*
X50502518Y-53290982D01*
X50525966Y-53283869D01*
X50579436Y-53261721D01*
X50638358Y-53250001D01*
X50698442Y-53250001D01*
X50757364Y-53261721D01*
X50812870Y-53284712D01*
X50812872Y-53284713D01*
X50822254Y-53290982D01*
X50862825Y-53318091D01*
X50905310Y-53360576D01*
X50938689Y-53410531D01*
X50961680Y-53466037D01*
X50973400Y-53524959D01*
X50973400Y-53585043D01*
X50961680Y-53643965D01*
X50938689Y-53699471D01*
X50908722Y-53744320D01*
X50905309Y-53749427D01*
X50862826Y-53791910D01*
X50812872Y-53825289D01*
X50812871Y-53825290D01*
X50812870Y-53825290D01*
X50757364Y-53848281D01*
X50698442Y-53860001D01*
X50638358Y-53860001D01*
X50579438Y-53848282D01*
X50525965Y-53826133D01*
X50502516Y-53819021D01*
X50478130Y-53816619D01*
X50453744Y-53819021D01*
X50430295Y-53826135D01*
X50408684Y-53837686D01*
X50389742Y-53853231D01*
X50374197Y-53872173D01*
X50362646Y-53893784D01*
X50355534Y-53917233D01*
X50353132Y-53941619D01*
X50355534Y-53966004D01*
X50363800Y-54007559D01*
X50363800Y-54067641D01*
X50355534Y-54109198D01*
X50353132Y-54133585D01*
X50355534Y-54157971D01*
X50362647Y-54181420D01*
X50374198Y-54203030D01*
X50389744Y-54221972D01*
X50408686Y-54237517D01*
X50430297Y-54249068D01*
X50453745Y-54256181D01*
X50478132Y-54258583D01*
X50502518Y-54256181D01*
X50525966Y-54249068D01*
X50579436Y-54226920D01*
X50638358Y-54215200D01*
X50698442Y-54215200D01*
X50757364Y-54226920D01*
X50812870Y-54249911D01*
X50812872Y-54249912D01*
X50822254Y-54256181D01*
X50862825Y-54283290D01*
X50905310Y-54325775D01*
X50938689Y-54375730D01*
X50961680Y-54431236D01*
X50973400Y-54490158D01*
X50973400Y-54550242D01*
X50961680Y-54609164D01*
X50938689Y-54664670D01*
X50938688Y-54664672D01*
X50905309Y-54714626D01*
X50862826Y-54757109D01*
X50812872Y-54790488D01*
X50812871Y-54790489D01*
X50812870Y-54790489D01*
X50757364Y-54813480D01*
X50698442Y-54825200D01*
X50638358Y-54825200D01*
X50579436Y-54813480D01*
X50523930Y-54790489D01*
X50523929Y-54790489D01*
X50523928Y-54790488D01*
X50473974Y-54757109D01*
X50431491Y-54714626D01*
X50398112Y-54664672D01*
X50398111Y-54664670D01*
X50375120Y-54609164D01*
X50363400Y-54550242D01*
X50363400Y-54490159D01*
X50371666Y-54448602D01*
X50374068Y-54424215D01*
X50371666Y-54399829D01*
X50364553Y-54376380D01*
X50353002Y-54354770D01*
X50337456Y-54335828D01*
X50318514Y-54320283D01*
X50296903Y-54308732D01*
X50273455Y-54301619D01*
X50249068Y-54299217D01*
X50224682Y-54301619D01*
X50201234Y-54308732D01*
X50147764Y-54330880D01*
X50088842Y-54342600D01*
X50028758Y-54342600D01*
X49969836Y-54330880D01*
X49914330Y-54307889D01*
X49914329Y-54307889D01*
X49914328Y-54307888D01*
X49864374Y-54274509D01*
X49821891Y-54232026D01*
X49788512Y-54182072D01*
X49778529Y-54157971D01*
X49765520Y-54126564D01*
X49753800Y-54067642D01*
X49753800Y-54007558D01*
X49765520Y-53948636D01*
X49788511Y-53893130D01*
X49821890Y-53843175D01*
X49864375Y-53800690D01*
X49904948Y-53773580D01*
X49914328Y-53767312D01*
X49914330Y-53767311D01*
X49969836Y-53744320D01*
X50028758Y-53732600D01*
X50088842Y-53732600D01*
X50147762Y-53744319D01*
X50201235Y-53766468D01*
X50224684Y-53773580D01*
X50249070Y-53775982D01*
X50273456Y-53773580D01*
X50296905Y-53766466D01*
X50318516Y-53754915D01*
X50337458Y-53739370D01*
X50353003Y-53720428D01*
X50364554Y-53698817D01*
X50371666Y-53675368D01*
X50374068Y-53650982D01*
X50371666Y-53626597D01*
X50363400Y-53585042D01*
X50363400Y-53524960D01*
X50371666Y-53483403D01*
X50374068Y-53459016D01*
X50371666Y-53434630D01*
X50364553Y-53411181D01*
X50353002Y-53389571D01*
X50337456Y-53370629D01*
X50318514Y-53355084D01*
X50296903Y-53343533D01*
X50273455Y-53336420D01*
X50249068Y-53334018D01*
X50224682Y-53336420D01*
X50201234Y-53343533D01*
X50147764Y-53365681D01*
X50088842Y-53377401D01*
X50028758Y-53377401D01*
X49969836Y-53365681D01*
X49914330Y-53342690D01*
X49914329Y-53342690D01*
X49914328Y-53342689D01*
X49864374Y-53309310D01*
X49821891Y-53266827D01*
X49788512Y-53216873D01*
X49778529Y-53192772D01*
X49765520Y-53161365D01*
X49753800Y-53102443D01*
X49753800Y-53042359D01*
X49765520Y-52983437D01*
X49788511Y-52927931D01*
X49821890Y-52877976D01*
X49864375Y-52835491D01*
X49904948Y-52808381D01*
X49914328Y-52802113D01*
X49914330Y-52802112D01*
X49969836Y-52779121D01*
X50028758Y-52767401D01*
X50088842Y-52767401D01*
X50147762Y-52779120D01*
X50201235Y-52801269D01*
X50224684Y-52808381D01*
X50249070Y-52810783D01*
X50273456Y-52808381D01*
X50296905Y-52801267D01*
X50318516Y-52789716D01*
X50337458Y-52774171D01*
X50353003Y-52755229D01*
X50364554Y-52733618D01*
X50371666Y-52710169D01*
X50374068Y-52685783D01*
X50371666Y-52661398D01*
X50363400Y-52619843D01*
X50363400Y-52559761D01*
X50371666Y-52518204D01*
X50374068Y-52493817D01*
X50371666Y-52469431D01*
X50364553Y-52445982D01*
X50353002Y-52424372D01*
X50337456Y-52405430D01*
X50318514Y-52389885D01*
X50296903Y-52378334D01*
X50273455Y-52371221D01*
X50249068Y-52368819D01*
X50224682Y-52371221D01*
X50201234Y-52378334D01*
X50147764Y-52400482D01*
X50088842Y-52412202D01*
X50028758Y-52412202D01*
X49969836Y-52400482D01*
X49914330Y-52377491D01*
X49914329Y-52377491D01*
X49914328Y-52377490D01*
X49864374Y-52344111D01*
X49821891Y-52301628D01*
X49788512Y-52251674D01*
X49787170Y-52248434D01*
X49765520Y-52196166D01*
X49753800Y-52137244D01*
X49753800Y-52077160D01*
X49765520Y-52018238D01*
X49788511Y-51962732D01*
X49821890Y-51912777D01*
X49864375Y-51870292D01*
X49889181Y-51853717D01*
X49914328Y-51836914D01*
X49914330Y-51836913D01*
X49969836Y-51813922D01*
X50028758Y-51802202D01*
X50088842Y-51802202D01*
X50147764Y-51813922D01*
X50147764Y-51813922D01*
G37*
G36*
X52721431Y-51972105D02*
G01*
X52760167Y-51979810D01*
X52790395Y-51992331D01*
X52833144Y-52010038D01*
X52898822Y-52053923D01*
X52954677Y-52109778D01*
X52998562Y-52175456D01*
X53010048Y-52203187D01*
X53028790Y-52248433D01*
X53033603Y-52272632D01*
X53044200Y-52325904D01*
X53044200Y-52404896D01*
X53028790Y-52482366D01*
X52998562Y-52555344D01*
X52954677Y-52621022D01*
X52898822Y-52676877D01*
X52833144Y-52720762D01*
X52790395Y-52738469D01*
X52760167Y-52750990D01*
X52721431Y-52758695D01*
X52682696Y-52766400D01*
X52603704Y-52766400D01*
X52564969Y-52758695D01*
X52526233Y-52750990D01*
X52496005Y-52738469D01*
X52453256Y-52720762D01*
X52387578Y-52676877D01*
X52331723Y-52621022D01*
X52287838Y-52555344D01*
X52257610Y-52482366D01*
X52242200Y-52404896D01*
X52242200Y-52325904D01*
X52252797Y-52272632D01*
X52257610Y-52248433D01*
X52276352Y-52203187D01*
X52287838Y-52175456D01*
X52331723Y-52109778D01*
X52387578Y-52053923D01*
X52453256Y-52010038D01*
X52496005Y-51992331D01*
X52526233Y-51979810D01*
X52564969Y-51972105D01*
X52603704Y-51964400D01*
X52682696Y-51964400D01*
X52721431Y-51972105D01*
X52721431Y-51972105D01*
G37*
G36*
X53991431Y-51972105D02*
G01*
X54030167Y-51979810D01*
X54060395Y-51992331D01*
X54103144Y-52010038D01*
X54168822Y-52053923D01*
X54224677Y-52109778D01*
X54268562Y-52175456D01*
X54280048Y-52203187D01*
X54298790Y-52248433D01*
X54303603Y-52272632D01*
X54314200Y-52325904D01*
X54314200Y-52404896D01*
X54298790Y-52482366D01*
X54268562Y-52555344D01*
X54224677Y-52621022D01*
X54168822Y-52676877D01*
X54103144Y-52720762D01*
X54060395Y-52738469D01*
X54030167Y-52750990D01*
X53991431Y-52758695D01*
X53952696Y-52766400D01*
X53873704Y-52766400D01*
X53834969Y-52758695D01*
X53796233Y-52750990D01*
X53766005Y-52738469D01*
X53723256Y-52720762D01*
X53657578Y-52676877D01*
X53601723Y-52621022D01*
X53557838Y-52555344D01*
X53527610Y-52482366D01*
X53512200Y-52404896D01*
X53512200Y-52325904D01*
X53522797Y-52272632D01*
X53527610Y-52248433D01*
X53546352Y-52203187D01*
X53557838Y-52175456D01*
X53601723Y-52109778D01*
X53657578Y-52053923D01*
X53723256Y-52010038D01*
X53766005Y-51992331D01*
X53796233Y-51979810D01*
X53834969Y-51972105D01*
X53873704Y-51964400D01*
X53952696Y-51964400D01*
X53991431Y-51972105D01*
X53991431Y-51972105D01*
G37*
G36*
X55261431Y-51972105D02*
G01*
X55300167Y-51979810D01*
X55330395Y-51992331D01*
X55373144Y-52010038D01*
X55438822Y-52053923D01*
X55494677Y-52109778D01*
X55538562Y-52175456D01*
X55550048Y-52203187D01*
X55568790Y-52248433D01*
X55573603Y-52272632D01*
X55584200Y-52325904D01*
X55584200Y-52404896D01*
X55568790Y-52482366D01*
X55538562Y-52555344D01*
X55494677Y-52621022D01*
X55438822Y-52676877D01*
X55373144Y-52720762D01*
X55330395Y-52738469D01*
X55300167Y-52750990D01*
X55261431Y-52758695D01*
X55222696Y-52766400D01*
X55143704Y-52766400D01*
X55104969Y-52758695D01*
X55066233Y-52750990D01*
X55036005Y-52738469D01*
X54993256Y-52720762D01*
X54927578Y-52676877D01*
X54871723Y-52621022D01*
X54827838Y-52555344D01*
X54797610Y-52482366D01*
X54782200Y-52404896D01*
X54782200Y-52325904D01*
X54792797Y-52272632D01*
X54797610Y-52248433D01*
X54816352Y-52203187D01*
X54827838Y-52175456D01*
X54871723Y-52109778D01*
X54927578Y-52053923D01*
X54993256Y-52010038D01*
X55036005Y-51992331D01*
X55066233Y-51979810D01*
X55104969Y-51972105D01*
X55143704Y-51964400D01*
X55222696Y-51964400D01*
X55261431Y-51972105D01*
X55261431Y-51972105D01*
G37*
G36*
X52721431Y-50702105D02*
G01*
X52760167Y-50709810D01*
X52790395Y-50722331D01*
X52833144Y-50740038D01*
X52898822Y-50783923D01*
X52954677Y-50839778D01*
X52998562Y-50905456D01*
X53028790Y-50978434D01*
X53044200Y-51055904D01*
X53044200Y-51134896D01*
X53028790Y-51212366D01*
X52998562Y-51285344D01*
X52954677Y-51351022D01*
X52898822Y-51406877D01*
X52833144Y-51450762D01*
X52790395Y-51468469D01*
X52760167Y-51480990D01*
X52721431Y-51488695D01*
X52682696Y-51496400D01*
X52603704Y-51496400D01*
X52564969Y-51488695D01*
X52526233Y-51480990D01*
X52496005Y-51468469D01*
X52453256Y-51450762D01*
X52387578Y-51406877D01*
X52331723Y-51351022D01*
X52287838Y-51285344D01*
X52257610Y-51212366D01*
X52242200Y-51134896D01*
X52242200Y-51055904D01*
X52257610Y-50978434D01*
X52287838Y-50905456D01*
X52331723Y-50839778D01*
X52387578Y-50783923D01*
X52453256Y-50740038D01*
X52496005Y-50722331D01*
X52526233Y-50709810D01*
X52564969Y-50702105D01*
X52603704Y-50694400D01*
X52682696Y-50694400D01*
X52721431Y-50702105D01*
X52721431Y-50702105D01*
G37*
G36*
X53991431Y-50702105D02*
G01*
X54030167Y-50709810D01*
X54060395Y-50722331D01*
X54103144Y-50740038D01*
X54168822Y-50783923D01*
X54224677Y-50839778D01*
X54268562Y-50905456D01*
X54298790Y-50978434D01*
X54314200Y-51055904D01*
X54314200Y-51134896D01*
X54298790Y-51212366D01*
X54268562Y-51285344D01*
X54224677Y-51351022D01*
X54168822Y-51406877D01*
X54103144Y-51450762D01*
X54060395Y-51468469D01*
X54030167Y-51480990D01*
X53991431Y-51488695D01*
X53952696Y-51496400D01*
X53873704Y-51496400D01*
X53834969Y-51488695D01*
X53796233Y-51480990D01*
X53766005Y-51468469D01*
X53723256Y-51450762D01*
X53657578Y-51406877D01*
X53601723Y-51351022D01*
X53557838Y-51285344D01*
X53527610Y-51212366D01*
X53512200Y-51134896D01*
X53512200Y-51055904D01*
X53527610Y-50978434D01*
X53557838Y-50905456D01*
X53601723Y-50839778D01*
X53657578Y-50783923D01*
X53723256Y-50740038D01*
X53766005Y-50722331D01*
X53796233Y-50709810D01*
X53834969Y-50702105D01*
X53873704Y-50694400D01*
X53952696Y-50694400D01*
X53991431Y-50702105D01*
X53991431Y-50702105D01*
G37*
G36*
X55261431Y-50702105D02*
G01*
X55300167Y-50709810D01*
X55330395Y-50722331D01*
X55373144Y-50740038D01*
X55438822Y-50783923D01*
X55494677Y-50839778D01*
X55538562Y-50905456D01*
X55568790Y-50978434D01*
X55584200Y-51055904D01*
X55584200Y-51134896D01*
X55568790Y-51212366D01*
X55538562Y-51285344D01*
X55494677Y-51351022D01*
X55438822Y-51406877D01*
X55373144Y-51450762D01*
X55330395Y-51468469D01*
X55300167Y-51480990D01*
X55261431Y-51488695D01*
X55222696Y-51496400D01*
X55143704Y-51496400D01*
X55104969Y-51488695D01*
X55066233Y-51480990D01*
X55036005Y-51468469D01*
X54993256Y-51450762D01*
X54927578Y-51406877D01*
X54871723Y-51351022D01*
X54827838Y-51285344D01*
X54797610Y-51212366D01*
X54782200Y-51134896D01*
X54782200Y-51055904D01*
X54797610Y-50978434D01*
X54827838Y-50905456D01*
X54871723Y-50839778D01*
X54927578Y-50783923D01*
X54993256Y-50740038D01*
X55036005Y-50722331D01*
X55066233Y-50709810D01*
X55104969Y-50702105D01*
X55143704Y-50694400D01*
X55222696Y-50694400D01*
X55261431Y-50702105D01*
X55261431Y-50702105D01*
G37*
M02*
