G04 #@! TF.GenerationSoftware,KiCad,Pcbnew,(5.1.0)-1*
G04 #@! TF.CreationDate,2019-05-02T14:04:18-07:00*
G04 #@! TF.ProjectId,Miniscope-v4-Ser-Pow,4d696e69-7363-46f7-9065-2d76342d5365,rev?*
G04 #@! TF.SameCoordinates,Original*
G04 #@! TF.FileFunction,Copper,L2,Inr*
G04 #@! TF.FilePolarity,Positive*
%FSLAX46Y46*%
G04 Gerber Fmt 4.6, Leading zero omitted, Abs format (unit mm)*
G04 Created by KiCad (PCBNEW (5.1.0)-1) date 2019-05-02 14:04:18*
%MOMM*%
%LPD*%
G04 APERTURE LIST*
%ADD10C,0.355600*%
%ADD11C,0.025400*%
G04 APERTURE END LIST*
D10*
X121610120Y-45473620D03*
X118369080Y-48064420D03*
X119781320Y-48204120D03*
X114962940Y-51818540D03*
X121437400Y-51795680D03*
X114960400Y-50850795D03*
X121954244Y-44524976D03*
X121922540Y-51188620D03*
X116918000Y-47451200D03*
X121588000Y-48451200D03*
X115570000Y-51333395D03*
X116918000Y-45951200D03*
X114955320Y-43119040D03*
X121588000Y-47451200D03*
X121588000Y-47951200D03*
X121594880Y-49448720D03*
X121587260Y-48948340D03*
X121588000Y-46951200D03*
X115570000Y-45542201D03*
X114960400Y-48920397D03*
X115570000Y-50368196D03*
X115570000Y-44577002D03*
X119503000Y-45366200D03*
X114958144Y-44096712D03*
X119003000Y-45366200D03*
X114960400Y-45059601D03*
X118503000Y-45366200D03*
X114962940Y-46019720D03*
X118003000Y-45366200D03*
X115559840Y-46522640D03*
X117497860Y-45399960D03*
X116895880Y-46454060D03*
X115577620Y-47482760D03*
D11*
G36*
X122654060Y-52294480D02*
G01*
X114331963Y-52294480D01*
X114331164Y-51307127D01*
X115303300Y-51307127D01*
X115303300Y-51359663D01*
X115313550Y-51411188D01*
X115333654Y-51459725D01*
X115362841Y-51503406D01*
X115399989Y-51540554D01*
X115443670Y-51569741D01*
X115492207Y-51589845D01*
X115543732Y-51600095D01*
X115596268Y-51600095D01*
X115647793Y-51589845D01*
X115696330Y-51569741D01*
X115740011Y-51540554D01*
X115777159Y-51503406D01*
X115806346Y-51459725D01*
X115826450Y-51411188D01*
X115836700Y-51359663D01*
X115836700Y-51307127D01*
X115826450Y-51255602D01*
X115806346Y-51207065D01*
X115777159Y-51163384D01*
X115776127Y-51162352D01*
X121655840Y-51162352D01*
X121655840Y-51214888D01*
X121666090Y-51266413D01*
X121686194Y-51314950D01*
X121715381Y-51358631D01*
X121752529Y-51395779D01*
X121796210Y-51424966D01*
X121844747Y-51445070D01*
X121896272Y-51455320D01*
X121948808Y-51455320D01*
X122000333Y-51445070D01*
X122048870Y-51424966D01*
X122092551Y-51395779D01*
X122129699Y-51358631D01*
X122158886Y-51314950D01*
X122178990Y-51266413D01*
X122189240Y-51214888D01*
X122189240Y-51162352D01*
X122178990Y-51110827D01*
X122158886Y-51062290D01*
X122129699Y-51018609D01*
X122092551Y-50981461D01*
X122048870Y-50952274D01*
X122000333Y-50932170D01*
X121948808Y-50921920D01*
X121896272Y-50921920D01*
X121844747Y-50932170D01*
X121796210Y-50952274D01*
X121752529Y-50981461D01*
X121715381Y-51018609D01*
X121686194Y-51062290D01*
X121666090Y-51110827D01*
X121655840Y-51162352D01*
X115776127Y-51162352D01*
X115740011Y-51126236D01*
X115696330Y-51097049D01*
X115647793Y-51076945D01*
X115596268Y-51066695D01*
X115543732Y-51066695D01*
X115492207Y-51076945D01*
X115443670Y-51097049D01*
X115399989Y-51126236D01*
X115362841Y-51163384D01*
X115333654Y-51207065D01*
X115313550Y-51255602D01*
X115303300Y-51307127D01*
X114331164Y-51307127D01*
X114330772Y-50824527D01*
X114693700Y-50824527D01*
X114693700Y-50877063D01*
X114703950Y-50928588D01*
X114724054Y-50977125D01*
X114753241Y-51020806D01*
X114790389Y-51057954D01*
X114834070Y-51087141D01*
X114882607Y-51107245D01*
X114934132Y-51117495D01*
X114986668Y-51117495D01*
X115038193Y-51107245D01*
X115086730Y-51087141D01*
X115130411Y-51057954D01*
X115167559Y-51020806D01*
X115196746Y-50977125D01*
X115216850Y-50928588D01*
X115227100Y-50877063D01*
X115227100Y-50824527D01*
X115216850Y-50773002D01*
X115196746Y-50724465D01*
X115167559Y-50680784D01*
X115130411Y-50643636D01*
X115086730Y-50614449D01*
X115038193Y-50594345D01*
X114986668Y-50584095D01*
X114934132Y-50584095D01*
X114882607Y-50594345D01*
X114834070Y-50614449D01*
X114790389Y-50643636D01*
X114753241Y-50680784D01*
X114724054Y-50724465D01*
X114703950Y-50773002D01*
X114693700Y-50824527D01*
X114330772Y-50824527D01*
X114330382Y-50341928D01*
X115303300Y-50341928D01*
X115303300Y-50394464D01*
X115313550Y-50445989D01*
X115333654Y-50494526D01*
X115362841Y-50538207D01*
X115399989Y-50575355D01*
X115443670Y-50604542D01*
X115492207Y-50624646D01*
X115543732Y-50634896D01*
X115596268Y-50634896D01*
X115647793Y-50624646D01*
X115696330Y-50604542D01*
X115740011Y-50575355D01*
X115777159Y-50538207D01*
X115806346Y-50494526D01*
X115826450Y-50445989D01*
X115836700Y-50394464D01*
X115836700Y-50341928D01*
X115826450Y-50290403D01*
X115806346Y-50241866D01*
X115777159Y-50198185D01*
X115740011Y-50161037D01*
X115696330Y-50131850D01*
X115647793Y-50111746D01*
X115596268Y-50101496D01*
X115543732Y-50101496D01*
X115492207Y-50111746D01*
X115443670Y-50131850D01*
X115399989Y-50161037D01*
X115362841Y-50198185D01*
X115333654Y-50241866D01*
X115313550Y-50290403D01*
X115303300Y-50341928D01*
X114330382Y-50341928D01*
X114329208Y-48894129D01*
X114693700Y-48894129D01*
X114693700Y-48946665D01*
X114703950Y-48998190D01*
X114724054Y-49046727D01*
X114753241Y-49090408D01*
X114790389Y-49127556D01*
X114834070Y-49156743D01*
X114882607Y-49176847D01*
X114934132Y-49187097D01*
X114986668Y-49187097D01*
X115038193Y-49176847D01*
X115086730Y-49156743D01*
X115130411Y-49127556D01*
X115167559Y-49090408D01*
X115196746Y-49046727D01*
X115216850Y-48998190D01*
X115227100Y-48946665D01*
X115227100Y-48922072D01*
X121320560Y-48922072D01*
X121320560Y-48974608D01*
X121330810Y-49026133D01*
X121350914Y-49074670D01*
X121380101Y-49118351D01*
X121417249Y-49155499D01*
X121460930Y-49184686D01*
X121498164Y-49200108D01*
X121468550Y-49212374D01*
X121424869Y-49241561D01*
X121387721Y-49278709D01*
X121358534Y-49322390D01*
X121338430Y-49370927D01*
X121328180Y-49422452D01*
X121328180Y-49474988D01*
X121338430Y-49526513D01*
X121358534Y-49575050D01*
X121387721Y-49618731D01*
X121424869Y-49655879D01*
X121468550Y-49685066D01*
X121517087Y-49705170D01*
X121568612Y-49715420D01*
X121621148Y-49715420D01*
X121672673Y-49705170D01*
X121721210Y-49685066D01*
X121764891Y-49655879D01*
X121802039Y-49618731D01*
X121831226Y-49575050D01*
X121851330Y-49526513D01*
X121861580Y-49474988D01*
X121861580Y-49422452D01*
X121851330Y-49370927D01*
X121831226Y-49322390D01*
X121802039Y-49278709D01*
X121764891Y-49241561D01*
X121721210Y-49212374D01*
X121683976Y-49196952D01*
X121713590Y-49184686D01*
X121757271Y-49155499D01*
X121794419Y-49118351D01*
X121823606Y-49074670D01*
X121843710Y-49026133D01*
X121853960Y-48974608D01*
X121853960Y-48922072D01*
X121843710Y-48870547D01*
X121823606Y-48822010D01*
X121794419Y-48778329D01*
X121757271Y-48741181D01*
X121713590Y-48711994D01*
X121684448Y-48699923D01*
X121714330Y-48687546D01*
X121758011Y-48658359D01*
X121795159Y-48621211D01*
X121824346Y-48577530D01*
X121844450Y-48528993D01*
X121854700Y-48477468D01*
X121854700Y-48424932D01*
X121844450Y-48373407D01*
X121824346Y-48324870D01*
X121795159Y-48281189D01*
X121758011Y-48244041D01*
X121714330Y-48214854D01*
X121681365Y-48201200D01*
X121714330Y-48187546D01*
X121758011Y-48158359D01*
X121795159Y-48121211D01*
X121824346Y-48077530D01*
X121844450Y-48028993D01*
X121854700Y-47977468D01*
X121854700Y-47924932D01*
X121844450Y-47873407D01*
X121824346Y-47824870D01*
X121795159Y-47781189D01*
X121758011Y-47744041D01*
X121714330Y-47714854D01*
X121681365Y-47701200D01*
X121714330Y-47687546D01*
X121758011Y-47658359D01*
X121795159Y-47621211D01*
X121824346Y-47577530D01*
X121844450Y-47528993D01*
X121854700Y-47477468D01*
X121854700Y-47424932D01*
X121844450Y-47373407D01*
X121824346Y-47324870D01*
X121795159Y-47281189D01*
X121758011Y-47244041D01*
X121714330Y-47214854D01*
X121681365Y-47201200D01*
X121714330Y-47187546D01*
X121758011Y-47158359D01*
X121795159Y-47121211D01*
X121824346Y-47077530D01*
X121844450Y-47028993D01*
X121854700Y-46977468D01*
X121854700Y-46924932D01*
X121844450Y-46873407D01*
X121824346Y-46824870D01*
X121795159Y-46781189D01*
X121758011Y-46744041D01*
X121714330Y-46714854D01*
X121665793Y-46694750D01*
X121614268Y-46684500D01*
X121561732Y-46684500D01*
X121510207Y-46694750D01*
X121461670Y-46714854D01*
X121417989Y-46744041D01*
X121380841Y-46781189D01*
X121351654Y-46824870D01*
X121331550Y-46873407D01*
X121321300Y-46924932D01*
X121321300Y-46977468D01*
X121331550Y-47028993D01*
X121351654Y-47077530D01*
X121380841Y-47121211D01*
X121417989Y-47158359D01*
X121461670Y-47187546D01*
X121494635Y-47201200D01*
X121461670Y-47214854D01*
X121417989Y-47244041D01*
X121380841Y-47281189D01*
X121351654Y-47324870D01*
X121331550Y-47373407D01*
X121321300Y-47424932D01*
X121321300Y-47477468D01*
X121331550Y-47528993D01*
X121351654Y-47577530D01*
X121380841Y-47621211D01*
X121417989Y-47658359D01*
X121461670Y-47687546D01*
X121494635Y-47701200D01*
X121461670Y-47714854D01*
X121417989Y-47744041D01*
X121380841Y-47781189D01*
X121351654Y-47824870D01*
X121331550Y-47873407D01*
X121321300Y-47924932D01*
X121321300Y-47977468D01*
X121331550Y-48028993D01*
X121351654Y-48077530D01*
X121380841Y-48121211D01*
X121417989Y-48158359D01*
X121461670Y-48187546D01*
X121494635Y-48201200D01*
X121461670Y-48214854D01*
X121417989Y-48244041D01*
X121380841Y-48281189D01*
X121351654Y-48324870D01*
X121331550Y-48373407D01*
X121321300Y-48424932D01*
X121321300Y-48477468D01*
X121331550Y-48528993D01*
X121351654Y-48577530D01*
X121380841Y-48621211D01*
X121417989Y-48658359D01*
X121461670Y-48687546D01*
X121490812Y-48699617D01*
X121460930Y-48711994D01*
X121417249Y-48741181D01*
X121380101Y-48778329D01*
X121350914Y-48822010D01*
X121330810Y-48870547D01*
X121320560Y-48922072D01*
X115227100Y-48922072D01*
X115227100Y-48894129D01*
X115216850Y-48842604D01*
X115196746Y-48794067D01*
X115167559Y-48750386D01*
X115130411Y-48713238D01*
X115086730Y-48684051D01*
X115038193Y-48663947D01*
X114986668Y-48653697D01*
X114934132Y-48653697D01*
X114882607Y-48663947D01*
X114834070Y-48684051D01*
X114790389Y-48713238D01*
X114753241Y-48750386D01*
X114724054Y-48794067D01*
X114703950Y-48842604D01*
X114693700Y-48894129D01*
X114329208Y-48894129D01*
X114328044Y-47456492D01*
X115310920Y-47456492D01*
X115310920Y-47509028D01*
X115321170Y-47560553D01*
X115341274Y-47609090D01*
X115370461Y-47652771D01*
X115407609Y-47689919D01*
X115451290Y-47719106D01*
X115499827Y-47739210D01*
X115551352Y-47749460D01*
X115603888Y-47749460D01*
X115655413Y-47739210D01*
X115703950Y-47719106D01*
X115747631Y-47689919D01*
X115784779Y-47652771D01*
X115813966Y-47609090D01*
X115834070Y-47560553D01*
X115844320Y-47509028D01*
X115844320Y-47456492D01*
X115838042Y-47424932D01*
X116651300Y-47424932D01*
X116651300Y-47477468D01*
X116661550Y-47528993D01*
X116681654Y-47577530D01*
X116710841Y-47621211D01*
X116747989Y-47658359D01*
X116791670Y-47687546D01*
X116840207Y-47707650D01*
X116891732Y-47717900D01*
X116944268Y-47717900D01*
X116995793Y-47707650D01*
X117044330Y-47687546D01*
X117088011Y-47658359D01*
X117125159Y-47621211D01*
X117154346Y-47577530D01*
X117174450Y-47528993D01*
X117184700Y-47477468D01*
X117184700Y-47424932D01*
X117174450Y-47373407D01*
X117154346Y-47324870D01*
X117125159Y-47281189D01*
X117088011Y-47244041D01*
X117044330Y-47214854D01*
X116995793Y-47194750D01*
X116944268Y-47184500D01*
X116891732Y-47184500D01*
X116840207Y-47194750D01*
X116791670Y-47214854D01*
X116747989Y-47244041D01*
X116710841Y-47281189D01*
X116681654Y-47324870D01*
X116661550Y-47373407D01*
X116651300Y-47424932D01*
X115838042Y-47424932D01*
X115834070Y-47404967D01*
X115813966Y-47356430D01*
X115784779Y-47312749D01*
X115747631Y-47275601D01*
X115703950Y-47246414D01*
X115655413Y-47226310D01*
X115603888Y-47216060D01*
X115551352Y-47216060D01*
X115499827Y-47226310D01*
X115451290Y-47246414D01*
X115407609Y-47275601D01*
X115370461Y-47312749D01*
X115341274Y-47356430D01*
X115321170Y-47404967D01*
X115310920Y-47456492D01*
X114328044Y-47456492D01*
X114327266Y-46496372D01*
X115293140Y-46496372D01*
X115293140Y-46548908D01*
X115303390Y-46600433D01*
X115323494Y-46648970D01*
X115352681Y-46692651D01*
X115389829Y-46729799D01*
X115433510Y-46758986D01*
X115482047Y-46779090D01*
X115533572Y-46789340D01*
X115586108Y-46789340D01*
X115637633Y-46779090D01*
X115686170Y-46758986D01*
X115729851Y-46729799D01*
X115766999Y-46692651D01*
X115796186Y-46648970D01*
X115816290Y-46600433D01*
X115826540Y-46548908D01*
X115826540Y-46496372D01*
X115816290Y-46444847D01*
X115809226Y-46427792D01*
X116629180Y-46427792D01*
X116629180Y-46480328D01*
X116639430Y-46531853D01*
X116659534Y-46580390D01*
X116688721Y-46624071D01*
X116725869Y-46661219D01*
X116769550Y-46690406D01*
X116818087Y-46710510D01*
X116869612Y-46720760D01*
X116922148Y-46720760D01*
X116973673Y-46710510D01*
X117022210Y-46690406D01*
X117065891Y-46661219D01*
X117103039Y-46624071D01*
X117132226Y-46580390D01*
X117152330Y-46531853D01*
X117162580Y-46480328D01*
X117162580Y-46427792D01*
X117152330Y-46376267D01*
X117132226Y-46327730D01*
X117103039Y-46284049D01*
X117065891Y-46246901D01*
X117022210Y-46217714D01*
X116996853Y-46207211D01*
X117044330Y-46187546D01*
X117088011Y-46158359D01*
X117125159Y-46121211D01*
X117154346Y-46077530D01*
X117174450Y-46028993D01*
X117184700Y-45977468D01*
X117184700Y-45924932D01*
X117174450Y-45873407D01*
X117154346Y-45824870D01*
X117125159Y-45781189D01*
X117088011Y-45744041D01*
X117044330Y-45714854D01*
X116995793Y-45694750D01*
X116944268Y-45684500D01*
X116891732Y-45684500D01*
X116840207Y-45694750D01*
X116791670Y-45714854D01*
X116747989Y-45744041D01*
X116710841Y-45781189D01*
X116681654Y-45824870D01*
X116661550Y-45873407D01*
X116651300Y-45924932D01*
X116651300Y-45977468D01*
X116661550Y-46028993D01*
X116681654Y-46077530D01*
X116710841Y-46121211D01*
X116747989Y-46158359D01*
X116791670Y-46187546D01*
X116817027Y-46198049D01*
X116769550Y-46217714D01*
X116725869Y-46246901D01*
X116688721Y-46284049D01*
X116659534Y-46327730D01*
X116639430Y-46376267D01*
X116629180Y-46427792D01*
X115809226Y-46427792D01*
X115796186Y-46396310D01*
X115766999Y-46352629D01*
X115729851Y-46315481D01*
X115686170Y-46286294D01*
X115637633Y-46266190D01*
X115586108Y-46255940D01*
X115533572Y-46255940D01*
X115482047Y-46266190D01*
X115433510Y-46286294D01*
X115389829Y-46315481D01*
X115352681Y-46352629D01*
X115323494Y-46396310D01*
X115303390Y-46444847D01*
X115293140Y-46496372D01*
X114327266Y-46496372D01*
X114326858Y-45993452D01*
X114696240Y-45993452D01*
X114696240Y-46045988D01*
X114706490Y-46097513D01*
X114726594Y-46146050D01*
X114755781Y-46189731D01*
X114792929Y-46226879D01*
X114836610Y-46256066D01*
X114885147Y-46276170D01*
X114936672Y-46286420D01*
X114989208Y-46286420D01*
X115040733Y-46276170D01*
X115089270Y-46256066D01*
X115132951Y-46226879D01*
X115170099Y-46189731D01*
X115199286Y-46146050D01*
X115219390Y-46097513D01*
X115229640Y-46045988D01*
X115229640Y-45993452D01*
X115219390Y-45941927D01*
X115199286Y-45893390D01*
X115170099Y-45849709D01*
X115132951Y-45812561D01*
X115089270Y-45783374D01*
X115040733Y-45763270D01*
X114989208Y-45753020D01*
X114936672Y-45753020D01*
X114885147Y-45763270D01*
X114836610Y-45783374D01*
X114792929Y-45812561D01*
X114755781Y-45849709D01*
X114726594Y-45893390D01*
X114706490Y-45941927D01*
X114696240Y-45993452D01*
X114326858Y-45993452D01*
X114326472Y-45515933D01*
X115303300Y-45515933D01*
X115303300Y-45568469D01*
X115313550Y-45619994D01*
X115333654Y-45668531D01*
X115362841Y-45712212D01*
X115399989Y-45749360D01*
X115443670Y-45778547D01*
X115492207Y-45798651D01*
X115543732Y-45808901D01*
X115596268Y-45808901D01*
X115647793Y-45798651D01*
X115696330Y-45778547D01*
X115740011Y-45749360D01*
X115777159Y-45712212D01*
X115806346Y-45668531D01*
X115826450Y-45619994D01*
X115836700Y-45568469D01*
X115836700Y-45515933D01*
X115826450Y-45464408D01*
X115806346Y-45415871D01*
X115778163Y-45373692D01*
X117231160Y-45373692D01*
X117231160Y-45426228D01*
X117241410Y-45477753D01*
X117261514Y-45526290D01*
X117290701Y-45569971D01*
X117327849Y-45607119D01*
X117371530Y-45636306D01*
X117420067Y-45656410D01*
X117471592Y-45666660D01*
X117524128Y-45666660D01*
X117575653Y-45656410D01*
X117624190Y-45636306D01*
X117667871Y-45607119D01*
X117705019Y-45569971D01*
X117734206Y-45526290D01*
X117754310Y-45477753D01*
X117756329Y-45467603D01*
X117766654Y-45492530D01*
X117795841Y-45536211D01*
X117832989Y-45573359D01*
X117876670Y-45602546D01*
X117925207Y-45622650D01*
X117976732Y-45632900D01*
X118029268Y-45632900D01*
X118080793Y-45622650D01*
X118129330Y-45602546D01*
X118173011Y-45573359D01*
X118210159Y-45536211D01*
X118239346Y-45492530D01*
X118253000Y-45459565D01*
X118266654Y-45492530D01*
X118295841Y-45536211D01*
X118332989Y-45573359D01*
X118376670Y-45602546D01*
X118425207Y-45622650D01*
X118476732Y-45632900D01*
X118529268Y-45632900D01*
X118580793Y-45622650D01*
X118629330Y-45602546D01*
X118673011Y-45573359D01*
X118710159Y-45536211D01*
X118739346Y-45492530D01*
X118753000Y-45459565D01*
X118766654Y-45492530D01*
X118795841Y-45536211D01*
X118832989Y-45573359D01*
X118876670Y-45602546D01*
X118925207Y-45622650D01*
X118976732Y-45632900D01*
X119029268Y-45632900D01*
X119080793Y-45622650D01*
X119129330Y-45602546D01*
X119173011Y-45573359D01*
X119210159Y-45536211D01*
X119239346Y-45492530D01*
X119253000Y-45459565D01*
X119266654Y-45492530D01*
X119295841Y-45536211D01*
X119332989Y-45573359D01*
X119376670Y-45602546D01*
X119425207Y-45622650D01*
X119476732Y-45632900D01*
X119529268Y-45632900D01*
X119580793Y-45622650D01*
X119629330Y-45602546D01*
X119673011Y-45573359D01*
X119710159Y-45536211D01*
X119739346Y-45492530D01*
X119759450Y-45443993D01*
X119769700Y-45392468D01*
X119769700Y-45339932D01*
X119759450Y-45288407D01*
X119739346Y-45239870D01*
X119710159Y-45196189D01*
X119673011Y-45159041D01*
X119629330Y-45129854D01*
X119580793Y-45109750D01*
X119529268Y-45099500D01*
X119476732Y-45099500D01*
X119425207Y-45109750D01*
X119376670Y-45129854D01*
X119332989Y-45159041D01*
X119295841Y-45196189D01*
X119266654Y-45239870D01*
X119253000Y-45272835D01*
X119239346Y-45239870D01*
X119210159Y-45196189D01*
X119173011Y-45159041D01*
X119129330Y-45129854D01*
X119080793Y-45109750D01*
X119029268Y-45099500D01*
X118976732Y-45099500D01*
X118925207Y-45109750D01*
X118876670Y-45129854D01*
X118832989Y-45159041D01*
X118795841Y-45196189D01*
X118766654Y-45239870D01*
X118753000Y-45272835D01*
X118739346Y-45239870D01*
X118710159Y-45196189D01*
X118673011Y-45159041D01*
X118629330Y-45129854D01*
X118580793Y-45109750D01*
X118529268Y-45099500D01*
X118476732Y-45099500D01*
X118425207Y-45109750D01*
X118376670Y-45129854D01*
X118332989Y-45159041D01*
X118295841Y-45196189D01*
X118266654Y-45239870D01*
X118253000Y-45272835D01*
X118239346Y-45239870D01*
X118210159Y-45196189D01*
X118173011Y-45159041D01*
X118129330Y-45129854D01*
X118080793Y-45109750D01*
X118029268Y-45099500D01*
X117976732Y-45099500D01*
X117925207Y-45109750D01*
X117876670Y-45129854D01*
X117832989Y-45159041D01*
X117795841Y-45196189D01*
X117766654Y-45239870D01*
X117746550Y-45288407D01*
X117744531Y-45298557D01*
X117734206Y-45273630D01*
X117705019Y-45229949D01*
X117667871Y-45192801D01*
X117624190Y-45163614D01*
X117575653Y-45143510D01*
X117524128Y-45133260D01*
X117471592Y-45133260D01*
X117420067Y-45143510D01*
X117371530Y-45163614D01*
X117327849Y-45192801D01*
X117290701Y-45229949D01*
X117261514Y-45273630D01*
X117241410Y-45322167D01*
X117231160Y-45373692D01*
X115778163Y-45373692D01*
X115777159Y-45372190D01*
X115740011Y-45335042D01*
X115696330Y-45305855D01*
X115647793Y-45285751D01*
X115596268Y-45275501D01*
X115543732Y-45275501D01*
X115492207Y-45285751D01*
X115443670Y-45305855D01*
X115399989Y-45335042D01*
X115362841Y-45372190D01*
X115333654Y-45415871D01*
X115313550Y-45464408D01*
X115303300Y-45515933D01*
X114326472Y-45515933D01*
X114326080Y-45033333D01*
X114693700Y-45033333D01*
X114693700Y-45085869D01*
X114703950Y-45137394D01*
X114724054Y-45185931D01*
X114753241Y-45229612D01*
X114790389Y-45266760D01*
X114834070Y-45295947D01*
X114882607Y-45316051D01*
X114934132Y-45326301D01*
X114986668Y-45326301D01*
X115038193Y-45316051D01*
X115086730Y-45295947D01*
X115130411Y-45266760D01*
X115167559Y-45229612D01*
X115196746Y-45185931D01*
X115216850Y-45137394D01*
X115227100Y-45085869D01*
X115227100Y-45033333D01*
X115216850Y-44981808D01*
X115196746Y-44933271D01*
X115167559Y-44889590D01*
X115130411Y-44852442D01*
X115086730Y-44823255D01*
X115038193Y-44803151D01*
X114986668Y-44792901D01*
X114934132Y-44792901D01*
X114882607Y-44803151D01*
X114834070Y-44823255D01*
X114790389Y-44852442D01*
X114753241Y-44889590D01*
X114724054Y-44933271D01*
X114703950Y-44981808D01*
X114693700Y-45033333D01*
X114326080Y-45033333D01*
X114325689Y-44550734D01*
X115303300Y-44550734D01*
X115303300Y-44603270D01*
X115313550Y-44654795D01*
X115333654Y-44703332D01*
X115362841Y-44747013D01*
X115399989Y-44784161D01*
X115443670Y-44813348D01*
X115492207Y-44833452D01*
X115543732Y-44843702D01*
X115596268Y-44843702D01*
X115647793Y-44833452D01*
X115696330Y-44813348D01*
X115740011Y-44784161D01*
X115777159Y-44747013D01*
X115806346Y-44703332D01*
X115826450Y-44654795D01*
X115836700Y-44603270D01*
X115836700Y-44550734D01*
X115826450Y-44499209D01*
X115826243Y-44498708D01*
X121687544Y-44498708D01*
X121687544Y-44551244D01*
X121697794Y-44602769D01*
X121717898Y-44651306D01*
X121747085Y-44694987D01*
X121784233Y-44732135D01*
X121827914Y-44761322D01*
X121876451Y-44781426D01*
X121927976Y-44791676D01*
X121980512Y-44791676D01*
X122032037Y-44781426D01*
X122080574Y-44761322D01*
X122124255Y-44732135D01*
X122161403Y-44694987D01*
X122190590Y-44651306D01*
X122210694Y-44602769D01*
X122220944Y-44551244D01*
X122220944Y-44498708D01*
X122210694Y-44447183D01*
X122190590Y-44398646D01*
X122161403Y-44354965D01*
X122124255Y-44317817D01*
X122080574Y-44288630D01*
X122032037Y-44268526D01*
X121980512Y-44258276D01*
X121927976Y-44258276D01*
X121876451Y-44268526D01*
X121827914Y-44288630D01*
X121784233Y-44317817D01*
X121747085Y-44354965D01*
X121717898Y-44398646D01*
X121697794Y-44447183D01*
X121687544Y-44498708D01*
X115826243Y-44498708D01*
X115806346Y-44450672D01*
X115777159Y-44406991D01*
X115740011Y-44369843D01*
X115696330Y-44340656D01*
X115647793Y-44320552D01*
X115596268Y-44310302D01*
X115543732Y-44310302D01*
X115492207Y-44320552D01*
X115443670Y-44340656D01*
X115399989Y-44369843D01*
X115362841Y-44406991D01*
X115333654Y-44450672D01*
X115313550Y-44499209D01*
X115303300Y-44550734D01*
X114325689Y-44550734D01*
X114325299Y-44070444D01*
X114691444Y-44070444D01*
X114691444Y-44122980D01*
X114701694Y-44174505D01*
X114721798Y-44223042D01*
X114750985Y-44266723D01*
X114788133Y-44303871D01*
X114831814Y-44333058D01*
X114880351Y-44353162D01*
X114931876Y-44363412D01*
X114984412Y-44363412D01*
X115035937Y-44353162D01*
X115084474Y-44333058D01*
X115128155Y-44303871D01*
X115165303Y-44266723D01*
X115194490Y-44223042D01*
X115214594Y-44174505D01*
X115224844Y-44122980D01*
X115224844Y-44070444D01*
X115214594Y-44018919D01*
X115194490Y-43970382D01*
X115165303Y-43926701D01*
X115128155Y-43889553D01*
X115084474Y-43860366D01*
X115035937Y-43840262D01*
X114984412Y-43830012D01*
X114931876Y-43830012D01*
X114880351Y-43840262D01*
X114831814Y-43860366D01*
X114788133Y-43889553D01*
X114750985Y-43926701D01*
X114721798Y-43970382D01*
X114701694Y-44018919D01*
X114691444Y-44070444D01*
X114325299Y-44070444D01*
X114324506Y-43092772D01*
X114688620Y-43092772D01*
X114688620Y-43145308D01*
X114698870Y-43196833D01*
X114718974Y-43245370D01*
X114748161Y-43289051D01*
X114785309Y-43326199D01*
X114828990Y-43355386D01*
X114877527Y-43375490D01*
X114929052Y-43385740D01*
X114981588Y-43385740D01*
X115033113Y-43375490D01*
X115081650Y-43355386D01*
X115125331Y-43326199D01*
X115162479Y-43289051D01*
X115191666Y-43245370D01*
X115211770Y-43196833D01*
X115222020Y-43145308D01*
X115222020Y-43092772D01*
X115211770Y-43041247D01*
X115191666Y-42992710D01*
X115162479Y-42949029D01*
X115125331Y-42911881D01*
X115081650Y-42882694D01*
X115033113Y-42862590D01*
X114981588Y-42852340D01*
X114929052Y-42852340D01*
X114877527Y-42862590D01*
X114828990Y-42882694D01*
X114785309Y-42911881D01*
X114748161Y-42949029D01*
X114718974Y-42992710D01*
X114698870Y-43041247D01*
X114688620Y-43092772D01*
X114324506Y-43092772D01*
X114323051Y-41297860D01*
X122654060Y-41297860D01*
X122654060Y-52294480D01*
X122654060Y-52294480D01*
G37*
X122654060Y-52294480D02*
X114331963Y-52294480D01*
X114331164Y-51307127D01*
X115303300Y-51307127D01*
X115303300Y-51359663D01*
X115313550Y-51411188D01*
X115333654Y-51459725D01*
X115362841Y-51503406D01*
X115399989Y-51540554D01*
X115443670Y-51569741D01*
X115492207Y-51589845D01*
X115543732Y-51600095D01*
X115596268Y-51600095D01*
X115647793Y-51589845D01*
X115696330Y-51569741D01*
X115740011Y-51540554D01*
X115777159Y-51503406D01*
X115806346Y-51459725D01*
X115826450Y-51411188D01*
X115836700Y-51359663D01*
X115836700Y-51307127D01*
X115826450Y-51255602D01*
X115806346Y-51207065D01*
X115777159Y-51163384D01*
X115776127Y-51162352D01*
X121655840Y-51162352D01*
X121655840Y-51214888D01*
X121666090Y-51266413D01*
X121686194Y-51314950D01*
X121715381Y-51358631D01*
X121752529Y-51395779D01*
X121796210Y-51424966D01*
X121844747Y-51445070D01*
X121896272Y-51455320D01*
X121948808Y-51455320D01*
X122000333Y-51445070D01*
X122048870Y-51424966D01*
X122092551Y-51395779D01*
X122129699Y-51358631D01*
X122158886Y-51314950D01*
X122178990Y-51266413D01*
X122189240Y-51214888D01*
X122189240Y-51162352D01*
X122178990Y-51110827D01*
X122158886Y-51062290D01*
X122129699Y-51018609D01*
X122092551Y-50981461D01*
X122048870Y-50952274D01*
X122000333Y-50932170D01*
X121948808Y-50921920D01*
X121896272Y-50921920D01*
X121844747Y-50932170D01*
X121796210Y-50952274D01*
X121752529Y-50981461D01*
X121715381Y-51018609D01*
X121686194Y-51062290D01*
X121666090Y-51110827D01*
X121655840Y-51162352D01*
X115776127Y-51162352D01*
X115740011Y-51126236D01*
X115696330Y-51097049D01*
X115647793Y-51076945D01*
X115596268Y-51066695D01*
X115543732Y-51066695D01*
X115492207Y-51076945D01*
X115443670Y-51097049D01*
X115399989Y-51126236D01*
X115362841Y-51163384D01*
X115333654Y-51207065D01*
X115313550Y-51255602D01*
X115303300Y-51307127D01*
X114331164Y-51307127D01*
X114330772Y-50824527D01*
X114693700Y-50824527D01*
X114693700Y-50877063D01*
X114703950Y-50928588D01*
X114724054Y-50977125D01*
X114753241Y-51020806D01*
X114790389Y-51057954D01*
X114834070Y-51087141D01*
X114882607Y-51107245D01*
X114934132Y-51117495D01*
X114986668Y-51117495D01*
X115038193Y-51107245D01*
X115086730Y-51087141D01*
X115130411Y-51057954D01*
X115167559Y-51020806D01*
X115196746Y-50977125D01*
X115216850Y-50928588D01*
X115227100Y-50877063D01*
X115227100Y-50824527D01*
X115216850Y-50773002D01*
X115196746Y-50724465D01*
X115167559Y-50680784D01*
X115130411Y-50643636D01*
X115086730Y-50614449D01*
X115038193Y-50594345D01*
X114986668Y-50584095D01*
X114934132Y-50584095D01*
X114882607Y-50594345D01*
X114834070Y-50614449D01*
X114790389Y-50643636D01*
X114753241Y-50680784D01*
X114724054Y-50724465D01*
X114703950Y-50773002D01*
X114693700Y-50824527D01*
X114330772Y-50824527D01*
X114330382Y-50341928D01*
X115303300Y-50341928D01*
X115303300Y-50394464D01*
X115313550Y-50445989D01*
X115333654Y-50494526D01*
X115362841Y-50538207D01*
X115399989Y-50575355D01*
X115443670Y-50604542D01*
X115492207Y-50624646D01*
X115543732Y-50634896D01*
X115596268Y-50634896D01*
X115647793Y-50624646D01*
X115696330Y-50604542D01*
X115740011Y-50575355D01*
X115777159Y-50538207D01*
X115806346Y-50494526D01*
X115826450Y-50445989D01*
X115836700Y-50394464D01*
X115836700Y-50341928D01*
X115826450Y-50290403D01*
X115806346Y-50241866D01*
X115777159Y-50198185D01*
X115740011Y-50161037D01*
X115696330Y-50131850D01*
X115647793Y-50111746D01*
X115596268Y-50101496D01*
X115543732Y-50101496D01*
X115492207Y-50111746D01*
X115443670Y-50131850D01*
X115399989Y-50161037D01*
X115362841Y-50198185D01*
X115333654Y-50241866D01*
X115313550Y-50290403D01*
X115303300Y-50341928D01*
X114330382Y-50341928D01*
X114329208Y-48894129D01*
X114693700Y-48894129D01*
X114693700Y-48946665D01*
X114703950Y-48998190D01*
X114724054Y-49046727D01*
X114753241Y-49090408D01*
X114790389Y-49127556D01*
X114834070Y-49156743D01*
X114882607Y-49176847D01*
X114934132Y-49187097D01*
X114986668Y-49187097D01*
X115038193Y-49176847D01*
X115086730Y-49156743D01*
X115130411Y-49127556D01*
X115167559Y-49090408D01*
X115196746Y-49046727D01*
X115216850Y-48998190D01*
X115227100Y-48946665D01*
X115227100Y-48922072D01*
X121320560Y-48922072D01*
X121320560Y-48974608D01*
X121330810Y-49026133D01*
X121350914Y-49074670D01*
X121380101Y-49118351D01*
X121417249Y-49155499D01*
X121460930Y-49184686D01*
X121498164Y-49200108D01*
X121468550Y-49212374D01*
X121424869Y-49241561D01*
X121387721Y-49278709D01*
X121358534Y-49322390D01*
X121338430Y-49370927D01*
X121328180Y-49422452D01*
X121328180Y-49474988D01*
X121338430Y-49526513D01*
X121358534Y-49575050D01*
X121387721Y-49618731D01*
X121424869Y-49655879D01*
X121468550Y-49685066D01*
X121517087Y-49705170D01*
X121568612Y-49715420D01*
X121621148Y-49715420D01*
X121672673Y-49705170D01*
X121721210Y-49685066D01*
X121764891Y-49655879D01*
X121802039Y-49618731D01*
X121831226Y-49575050D01*
X121851330Y-49526513D01*
X121861580Y-49474988D01*
X121861580Y-49422452D01*
X121851330Y-49370927D01*
X121831226Y-49322390D01*
X121802039Y-49278709D01*
X121764891Y-49241561D01*
X121721210Y-49212374D01*
X121683976Y-49196952D01*
X121713590Y-49184686D01*
X121757271Y-49155499D01*
X121794419Y-49118351D01*
X121823606Y-49074670D01*
X121843710Y-49026133D01*
X121853960Y-48974608D01*
X121853960Y-48922072D01*
X121843710Y-48870547D01*
X121823606Y-48822010D01*
X121794419Y-48778329D01*
X121757271Y-48741181D01*
X121713590Y-48711994D01*
X121684448Y-48699923D01*
X121714330Y-48687546D01*
X121758011Y-48658359D01*
X121795159Y-48621211D01*
X121824346Y-48577530D01*
X121844450Y-48528993D01*
X121854700Y-48477468D01*
X121854700Y-48424932D01*
X121844450Y-48373407D01*
X121824346Y-48324870D01*
X121795159Y-48281189D01*
X121758011Y-48244041D01*
X121714330Y-48214854D01*
X121681365Y-48201200D01*
X121714330Y-48187546D01*
X121758011Y-48158359D01*
X121795159Y-48121211D01*
X121824346Y-48077530D01*
X121844450Y-48028993D01*
X121854700Y-47977468D01*
X121854700Y-47924932D01*
X121844450Y-47873407D01*
X121824346Y-47824870D01*
X121795159Y-47781189D01*
X121758011Y-47744041D01*
X121714330Y-47714854D01*
X121681365Y-47701200D01*
X121714330Y-47687546D01*
X121758011Y-47658359D01*
X121795159Y-47621211D01*
X121824346Y-47577530D01*
X121844450Y-47528993D01*
X121854700Y-47477468D01*
X121854700Y-47424932D01*
X121844450Y-47373407D01*
X121824346Y-47324870D01*
X121795159Y-47281189D01*
X121758011Y-47244041D01*
X121714330Y-47214854D01*
X121681365Y-47201200D01*
X121714330Y-47187546D01*
X121758011Y-47158359D01*
X121795159Y-47121211D01*
X121824346Y-47077530D01*
X121844450Y-47028993D01*
X121854700Y-46977468D01*
X121854700Y-46924932D01*
X121844450Y-46873407D01*
X121824346Y-46824870D01*
X121795159Y-46781189D01*
X121758011Y-46744041D01*
X121714330Y-46714854D01*
X121665793Y-46694750D01*
X121614268Y-46684500D01*
X121561732Y-46684500D01*
X121510207Y-46694750D01*
X121461670Y-46714854D01*
X121417989Y-46744041D01*
X121380841Y-46781189D01*
X121351654Y-46824870D01*
X121331550Y-46873407D01*
X121321300Y-46924932D01*
X121321300Y-46977468D01*
X121331550Y-47028993D01*
X121351654Y-47077530D01*
X121380841Y-47121211D01*
X121417989Y-47158359D01*
X121461670Y-47187546D01*
X121494635Y-47201200D01*
X121461670Y-47214854D01*
X121417989Y-47244041D01*
X121380841Y-47281189D01*
X121351654Y-47324870D01*
X121331550Y-47373407D01*
X121321300Y-47424932D01*
X121321300Y-47477468D01*
X121331550Y-47528993D01*
X121351654Y-47577530D01*
X121380841Y-47621211D01*
X121417989Y-47658359D01*
X121461670Y-47687546D01*
X121494635Y-47701200D01*
X121461670Y-47714854D01*
X121417989Y-47744041D01*
X121380841Y-47781189D01*
X121351654Y-47824870D01*
X121331550Y-47873407D01*
X121321300Y-47924932D01*
X121321300Y-47977468D01*
X121331550Y-48028993D01*
X121351654Y-48077530D01*
X121380841Y-48121211D01*
X121417989Y-48158359D01*
X121461670Y-48187546D01*
X121494635Y-48201200D01*
X121461670Y-48214854D01*
X121417989Y-48244041D01*
X121380841Y-48281189D01*
X121351654Y-48324870D01*
X121331550Y-48373407D01*
X121321300Y-48424932D01*
X121321300Y-48477468D01*
X121331550Y-48528993D01*
X121351654Y-48577530D01*
X121380841Y-48621211D01*
X121417989Y-48658359D01*
X121461670Y-48687546D01*
X121490812Y-48699617D01*
X121460930Y-48711994D01*
X121417249Y-48741181D01*
X121380101Y-48778329D01*
X121350914Y-48822010D01*
X121330810Y-48870547D01*
X121320560Y-48922072D01*
X115227100Y-48922072D01*
X115227100Y-48894129D01*
X115216850Y-48842604D01*
X115196746Y-48794067D01*
X115167559Y-48750386D01*
X115130411Y-48713238D01*
X115086730Y-48684051D01*
X115038193Y-48663947D01*
X114986668Y-48653697D01*
X114934132Y-48653697D01*
X114882607Y-48663947D01*
X114834070Y-48684051D01*
X114790389Y-48713238D01*
X114753241Y-48750386D01*
X114724054Y-48794067D01*
X114703950Y-48842604D01*
X114693700Y-48894129D01*
X114329208Y-48894129D01*
X114328044Y-47456492D01*
X115310920Y-47456492D01*
X115310920Y-47509028D01*
X115321170Y-47560553D01*
X115341274Y-47609090D01*
X115370461Y-47652771D01*
X115407609Y-47689919D01*
X115451290Y-47719106D01*
X115499827Y-47739210D01*
X115551352Y-47749460D01*
X115603888Y-47749460D01*
X115655413Y-47739210D01*
X115703950Y-47719106D01*
X115747631Y-47689919D01*
X115784779Y-47652771D01*
X115813966Y-47609090D01*
X115834070Y-47560553D01*
X115844320Y-47509028D01*
X115844320Y-47456492D01*
X115838042Y-47424932D01*
X116651300Y-47424932D01*
X116651300Y-47477468D01*
X116661550Y-47528993D01*
X116681654Y-47577530D01*
X116710841Y-47621211D01*
X116747989Y-47658359D01*
X116791670Y-47687546D01*
X116840207Y-47707650D01*
X116891732Y-47717900D01*
X116944268Y-47717900D01*
X116995793Y-47707650D01*
X117044330Y-47687546D01*
X117088011Y-47658359D01*
X117125159Y-47621211D01*
X117154346Y-47577530D01*
X117174450Y-47528993D01*
X117184700Y-47477468D01*
X117184700Y-47424932D01*
X117174450Y-47373407D01*
X117154346Y-47324870D01*
X117125159Y-47281189D01*
X117088011Y-47244041D01*
X117044330Y-47214854D01*
X116995793Y-47194750D01*
X116944268Y-47184500D01*
X116891732Y-47184500D01*
X116840207Y-47194750D01*
X116791670Y-47214854D01*
X116747989Y-47244041D01*
X116710841Y-47281189D01*
X116681654Y-47324870D01*
X116661550Y-47373407D01*
X116651300Y-47424932D01*
X115838042Y-47424932D01*
X115834070Y-47404967D01*
X115813966Y-47356430D01*
X115784779Y-47312749D01*
X115747631Y-47275601D01*
X115703950Y-47246414D01*
X115655413Y-47226310D01*
X115603888Y-47216060D01*
X115551352Y-47216060D01*
X115499827Y-47226310D01*
X115451290Y-47246414D01*
X115407609Y-47275601D01*
X115370461Y-47312749D01*
X115341274Y-47356430D01*
X115321170Y-47404967D01*
X115310920Y-47456492D01*
X114328044Y-47456492D01*
X114327266Y-46496372D01*
X115293140Y-46496372D01*
X115293140Y-46548908D01*
X115303390Y-46600433D01*
X115323494Y-46648970D01*
X115352681Y-46692651D01*
X115389829Y-46729799D01*
X115433510Y-46758986D01*
X115482047Y-46779090D01*
X115533572Y-46789340D01*
X115586108Y-46789340D01*
X115637633Y-46779090D01*
X115686170Y-46758986D01*
X115729851Y-46729799D01*
X115766999Y-46692651D01*
X115796186Y-46648970D01*
X115816290Y-46600433D01*
X115826540Y-46548908D01*
X115826540Y-46496372D01*
X115816290Y-46444847D01*
X115809226Y-46427792D01*
X116629180Y-46427792D01*
X116629180Y-46480328D01*
X116639430Y-46531853D01*
X116659534Y-46580390D01*
X116688721Y-46624071D01*
X116725869Y-46661219D01*
X116769550Y-46690406D01*
X116818087Y-46710510D01*
X116869612Y-46720760D01*
X116922148Y-46720760D01*
X116973673Y-46710510D01*
X117022210Y-46690406D01*
X117065891Y-46661219D01*
X117103039Y-46624071D01*
X117132226Y-46580390D01*
X117152330Y-46531853D01*
X117162580Y-46480328D01*
X117162580Y-46427792D01*
X117152330Y-46376267D01*
X117132226Y-46327730D01*
X117103039Y-46284049D01*
X117065891Y-46246901D01*
X117022210Y-46217714D01*
X116996853Y-46207211D01*
X117044330Y-46187546D01*
X117088011Y-46158359D01*
X117125159Y-46121211D01*
X117154346Y-46077530D01*
X117174450Y-46028993D01*
X117184700Y-45977468D01*
X117184700Y-45924932D01*
X117174450Y-45873407D01*
X117154346Y-45824870D01*
X117125159Y-45781189D01*
X117088011Y-45744041D01*
X117044330Y-45714854D01*
X116995793Y-45694750D01*
X116944268Y-45684500D01*
X116891732Y-45684500D01*
X116840207Y-45694750D01*
X116791670Y-45714854D01*
X116747989Y-45744041D01*
X116710841Y-45781189D01*
X116681654Y-45824870D01*
X116661550Y-45873407D01*
X116651300Y-45924932D01*
X116651300Y-45977468D01*
X116661550Y-46028993D01*
X116681654Y-46077530D01*
X116710841Y-46121211D01*
X116747989Y-46158359D01*
X116791670Y-46187546D01*
X116817027Y-46198049D01*
X116769550Y-46217714D01*
X116725869Y-46246901D01*
X116688721Y-46284049D01*
X116659534Y-46327730D01*
X116639430Y-46376267D01*
X116629180Y-46427792D01*
X115809226Y-46427792D01*
X115796186Y-46396310D01*
X115766999Y-46352629D01*
X115729851Y-46315481D01*
X115686170Y-46286294D01*
X115637633Y-46266190D01*
X115586108Y-46255940D01*
X115533572Y-46255940D01*
X115482047Y-46266190D01*
X115433510Y-46286294D01*
X115389829Y-46315481D01*
X115352681Y-46352629D01*
X115323494Y-46396310D01*
X115303390Y-46444847D01*
X115293140Y-46496372D01*
X114327266Y-46496372D01*
X114326858Y-45993452D01*
X114696240Y-45993452D01*
X114696240Y-46045988D01*
X114706490Y-46097513D01*
X114726594Y-46146050D01*
X114755781Y-46189731D01*
X114792929Y-46226879D01*
X114836610Y-46256066D01*
X114885147Y-46276170D01*
X114936672Y-46286420D01*
X114989208Y-46286420D01*
X115040733Y-46276170D01*
X115089270Y-46256066D01*
X115132951Y-46226879D01*
X115170099Y-46189731D01*
X115199286Y-46146050D01*
X115219390Y-46097513D01*
X115229640Y-46045988D01*
X115229640Y-45993452D01*
X115219390Y-45941927D01*
X115199286Y-45893390D01*
X115170099Y-45849709D01*
X115132951Y-45812561D01*
X115089270Y-45783374D01*
X115040733Y-45763270D01*
X114989208Y-45753020D01*
X114936672Y-45753020D01*
X114885147Y-45763270D01*
X114836610Y-45783374D01*
X114792929Y-45812561D01*
X114755781Y-45849709D01*
X114726594Y-45893390D01*
X114706490Y-45941927D01*
X114696240Y-45993452D01*
X114326858Y-45993452D01*
X114326472Y-45515933D01*
X115303300Y-45515933D01*
X115303300Y-45568469D01*
X115313550Y-45619994D01*
X115333654Y-45668531D01*
X115362841Y-45712212D01*
X115399989Y-45749360D01*
X115443670Y-45778547D01*
X115492207Y-45798651D01*
X115543732Y-45808901D01*
X115596268Y-45808901D01*
X115647793Y-45798651D01*
X115696330Y-45778547D01*
X115740011Y-45749360D01*
X115777159Y-45712212D01*
X115806346Y-45668531D01*
X115826450Y-45619994D01*
X115836700Y-45568469D01*
X115836700Y-45515933D01*
X115826450Y-45464408D01*
X115806346Y-45415871D01*
X115778163Y-45373692D01*
X117231160Y-45373692D01*
X117231160Y-45426228D01*
X117241410Y-45477753D01*
X117261514Y-45526290D01*
X117290701Y-45569971D01*
X117327849Y-45607119D01*
X117371530Y-45636306D01*
X117420067Y-45656410D01*
X117471592Y-45666660D01*
X117524128Y-45666660D01*
X117575653Y-45656410D01*
X117624190Y-45636306D01*
X117667871Y-45607119D01*
X117705019Y-45569971D01*
X117734206Y-45526290D01*
X117754310Y-45477753D01*
X117756329Y-45467603D01*
X117766654Y-45492530D01*
X117795841Y-45536211D01*
X117832989Y-45573359D01*
X117876670Y-45602546D01*
X117925207Y-45622650D01*
X117976732Y-45632900D01*
X118029268Y-45632900D01*
X118080793Y-45622650D01*
X118129330Y-45602546D01*
X118173011Y-45573359D01*
X118210159Y-45536211D01*
X118239346Y-45492530D01*
X118253000Y-45459565D01*
X118266654Y-45492530D01*
X118295841Y-45536211D01*
X118332989Y-45573359D01*
X118376670Y-45602546D01*
X118425207Y-45622650D01*
X118476732Y-45632900D01*
X118529268Y-45632900D01*
X118580793Y-45622650D01*
X118629330Y-45602546D01*
X118673011Y-45573359D01*
X118710159Y-45536211D01*
X118739346Y-45492530D01*
X118753000Y-45459565D01*
X118766654Y-45492530D01*
X118795841Y-45536211D01*
X118832989Y-45573359D01*
X118876670Y-45602546D01*
X118925207Y-45622650D01*
X118976732Y-45632900D01*
X119029268Y-45632900D01*
X119080793Y-45622650D01*
X119129330Y-45602546D01*
X119173011Y-45573359D01*
X119210159Y-45536211D01*
X119239346Y-45492530D01*
X119253000Y-45459565D01*
X119266654Y-45492530D01*
X119295841Y-45536211D01*
X119332989Y-45573359D01*
X119376670Y-45602546D01*
X119425207Y-45622650D01*
X119476732Y-45632900D01*
X119529268Y-45632900D01*
X119580793Y-45622650D01*
X119629330Y-45602546D01*
X119673011Y-45573359D01*
X119710159Y-45536211D01*
X119739346Y-45492530D01*
X119759450Y-45443993D01*
X119769700Y-45392468D01*
X119769700Y-45339932D01*
X119759450Y-45288407D01*
X119739346Y-45239870D01*
X119710159Y-45196189D01*
X119673011Y-45159041D01*
X119629330Y-45129854D01*
X119580793Y-45109750D01*
X119529268Y-45099500D01*
X119476732Y-45099500D01*
X119425207Y-45109750D01*
X119376670Y-45129854D01*
X119332989Y-45159041D01*
X119295841Y-45196189D01*
X119266654Y-45239870D01*
X119253000Y-45272835D01*
X119239346Y-45239870D01*
X119210159Y-45196189D01*
X119173011Y-45159041D01*
X119129330Y-45129854D01*
X119080793Y-45109750D01*
X119029268Y-45099500D01*
X118976732Y-45099500D01*
X118925207Y-45109750D01*
X118876670Y-45129854D01*
X118832989Y-45159041D01*
X118795841Y-45196189D01*
X118766654Y-45239870D01*
X118753000Y-45272835D01*
X118739346Y-45239870D01*
X118710159Y-45196189D01*
X118673011Y-45159041D01*
X118629330Y-45129854D01*
X118580793Y-45109750D01*
X118529268Y-45099500D01*
X118476732Y-45099500D01*
X118425207Y-45109750D01*
X118376670Y-45129854D01*
X118332989Y-45159041D01*
X118295841Y-45196189D01*
X118266654Y-45239870D01*
X118253000Y-45272835D01*
X118239346Y-45239870D01*
X118210159Y-45196189D01*
X118173011Y-45159041D01*
X118129330Y-45129854D01*
X118080793Y-45109750D01*
X118029268Y-45099500D01*
X117976732Y-45099500D01*
X117925207Y-45109750D01*
X117876670Y-45129854D01*
X117832989Y-45159041D01*
X117795841Y-45196189D01*
X117766654Y-45239870D01*
X117746550Y-45288407D01*
X117744531Y-45298557D01*
X117734206Y-45273630D01*
X117705019Y-45229949D01*
X117667871Y-45192801D01*
X117624190Y-45163614D01*
X117575653Y-45143510D01*
X117524128Y-45133260D01*
X117471592Y-45133260D01*
X117420067Y-45143510D01*
X117371530Y-45163614D01*
X117327849Y-45192801D01*
X117290701Y-45229949D01*
X117261514Y-45273630D01*
X117241410Y-45322167D01*
X117231160Y-45373692D01*
X115778163Y-45373692D01*
X115777159Y-45372190D01*
X115740011Y-45335042D01*
X115696330Y-45305855D01*
X115647793Y-45285751D01*
X115596268Y-45275501D01*
X115543732Y-45275501D01*
X115492207Y-45285751D01*
X115443670Y-45305855D01*
X115399989Y-45335042D01*
X115362841Y-45372190D01*
X115333654Y-45415871D01*
X115313550Y-45464408D01*
X115303300Y-45515933D01*
X114326472Y-45515933D01*
X114326080Y-45033333D01*
X114693700Y-45033333D01*
X114693700Y-45085869D01*
X114703950Y-45137394D01*
X114724054Y-45185931D01*
X114753241Y-45229612D01*
X114790389Y-45266760D01*
X114834070Y-45295947D01*
X114882607Y-45316051D01*
X114934132Y-45326301D01*
X114986668Y-45326301D01*
X115038193Y-45316051D01*
X115086730Y-45295947D01*
X115130411Y-45266760D01*
X115167559Y-45229612D01*
X115196746Y-45185931D01*
X115216850Y-45137394D01*
X115227100Y-45085869D01*
X115227100Y-45033333D01*
X115216850Y-44981808D01*
X115196746Y-44933271D01*
X115167559Y-44889590D01*
X115130411Y-44852442D01*
X115086730Y-44823255D01*
X115038193Y-44803151D01*
X114986668Y-44792901D01*
X114934132Y-44792901D01*
X114882607Y-44803151D01*
X114834070Y-44823255D01*
X114790389Y-44852442D01*
X114753241Y-44889590D01*
X114724054Y-44933271D01*
X114703950Y-44981808D01*
X114693700Y-45033333D01*
X114326080Y-45033333D01*
X114325689Y-44550734D01*
X115303300Y-44550734D01*
X115303300Y-44603270D01*
X115313550Y-44654795D01*
X115333654Y-44703332D01*
X115362841Y-44747013D01*
X115399989Y-44784161D01*
X115443670Y-44813348D01*
X115492207Y-44833452D01*
X115543732Y-44843702D01*
X115596268Y-44843702D01*
X115647793Y-44833452D01*
X115696330Y-44813348D01*
X115740011Y-44784161D01*
X115777159Y-44747013D01*
X115806346Y-44703332D01*
X115826450Y-44654795D01*
X115836700Y-44603270D01*
X115836700Y-44550734D01*
X115826450Y-44499209D01*
X115826243Y-44498708D01*
X121687544Y-44498708D01*
X121687544Y-44551244D01*
X121697794Y-44602769D01*
X121717898Y-44651306D01*
X121747085Y-44694987D01*
X121784233Y-44732135D01*
X121827914Y-44761322D01*
X121876451Y-44781426D01*
X121927976Y-44791676D01*
X121980512Y-44791676D01*
X122032037Y-44781426D01*
X122080574Y-44761322D01*
X122124255Y-44732135D01*
X122161403Y-44694987D01*
X122190590Y-44651306D01*
X122210694Y-44602769D01*
X122220944Y-44551244D01*
X122220944Y-44498708D01*
X122210694Y-44447183D01*
X122190590Y-44398646D01*
X122161403Y-44354965D01*
X122124255Y-44317817D01*
X122080574Y-44288630D01*
X122032037Y-44268526D01*
X121980512Y-44258276D01*
X121927976Y-44258276D01*
X121876451Y-44268526D01*
X121827914Y-44288630D01*
X121784233Y-44317817D01*
X121747085Y-44354965D01*
X121717898Y-44398646D01*
X121697794Y-44447183D01*
X121687544Y-44498708D01*
X115826243Y-44498708D01*
X115806346Y-44450672D01*
X115777159Y-44406991D01*
X115740011Y-44369843D01*
X115696330Y-44340656D01*
X115647793Y-44320552D01*
X115596268Y-44310302D01*
X115543732Y-44310302D01*
X115492207Y-44320552D01*
X115443670Y-44340656D01*
X115399989Y-44369843D01*
X115362841Y-44406991D01*
X115333654Y-44450672D01*
X115313550Y-44499209D01*
X115303300Y-44550734D01*
X114325689Y-44550734D01*
X114325299Y-44070444D01*
X114691444Y-44070444D01*
X114691444Y-44122980D01*
X114701694Y-44174505D01*
X114721798Y-44223042D01*
X114750985Y-44266723D01*
X114788133Y-44303871D01*
X114831814Y-44333058D01*
X114880351Y-44353162D01*
X114931876Y-44363412D01*
X114984412Y-44363412D01*
X115035937Y-44353162D01*
X115084474Y-44333058D01*
X115128155Y-44303871D01*
X115165303Y-44266723D01*
X115194490Y-44223042D01*
X115214594Y-44174505D01*
X115224844Y-44122980D01*
X115224844Y-44070444D01*
X115214594Y-44018919D01*
X115194490Y-43970382D01*
X115165303Y-43926701D01*
X115128155Y-43889553D01*
X115084474Y-43860366D01*
X115035937Y-43840262D01*
X114984412Y-43830012D01*
X114931876Y-43830012D01*
X114880351Y-43840262D01*
X114831814Y-43860366D01*
X114788133Y-43889553D01*
X114750985Y-43926701D01*
X114721798Y-43970382D01*
X114701694Y-44018919D01*
X114691444Y-44070444D01*
X114325299Y-44070444D01*
X114324506Y-43092772D01*
X114688620Y-43092772D01*
X114688620Y-43145308D01*
X114698870Y-43196833D01*
X114718974Y-43245370D01*
X114748161Y-43289051D01*
X114785309Y-43326199D01*
X114828990Y-43355386D01*
X114877527Y-43375490D01*
X114929052Y-43385740D01*
X114981588Y-43385740D01*
X115033113Y-43375490D01*
X115081650Y-43355386D01*
X115125331Y-43326199D01*
X115162479Y-43289051D01*
X115191666Y-43245370D01*
X115211770Y-43196833D01*
X115222020Y-43145308D01*
X115222020Y-43092772D01*
X115211770Y-43041247D01*
X115191666Y-42992710D01*
X115162479Y-42949029D01*
X115125331Y-42911881D01*
X115081650Y-42882694D01*
X115033113Y-42862590D01*
X114981588Y-42852340D01*
X114929052Y-42852340D01*
X114877527Y-42862590D01*
X114828990Y-42882694D01*
X114785309Y-42911881D01*
X114748161Y-42949029D01*
X114718974Y-42992710D01*
X114698870Y-43041247D01*
X114688620Y-43092772D01*
X114324506Y-43092772D01*
X114323051Y-41297860D01*
X122654060Y-41297860D01*
X122654060Y-52294480D01*
M02*
