G04 #@! TF.GenerationSoftware,KiCad,Pcbnew,(5.1.0)-1*
G04 #@! TF.CreationDate,2019-05-02T14:04:18-07:00*
G04 #@! TF.ProjectId,Miniscope-v4-Ser-Pow,4d696e69-7363-46f7-9065-2d76342d5365,rev?*
G04 #@! TF.SameCoordinates,Original*
G04 #@! TF.FileFunction,Soldermask,Bot*
G04 #@! TF.FilePolarity,Negative*
%FSLAX46Y46*%
G04 Gerber Fmt 4.6, Leading zero omitted, Abs format (unit mm)*
G04 Created by KiCad (PCBNEW (5.1.0)-1) date 2019-05-02 14:04:18*
%MOMM*%
%LPD*%
G04 APERTURE LIST*
%ADD10C,0.100000*%
G04 APERTURE END LIST*
D10*
G36*
X119142813Y-50651878D02*
G01*
X119167199Y-50654280D01*
X119725460Y-50654280D01*
X119725460Y-51616280D01*
X119189434Y-51616280D01*
X119182847Y-51614282D01*
X119158461Y-51611880D01*
X118600200Y-51611880D01*
X118600200Y-50649880D01*
X119136226Y-50649880D01*
X119142813Y-50651878D01*
X119142813Y-50651878D01*
G37*
G36*
X121904780Y-51568020D02*
G01*
X121338899Y-51568020D01*
X121320016Y-51569880D01*
X120673419Y-51569880D01*
X120649033Y-51572282D01*
X120627348Y-51578860D01*
X120106420Y-51578860D01*
X120106420Y-50616860D01*
X120646901Y-50616860D01*
X120671287Y-50614458D01*
X120692972Y-50607880D01*
X121337781Y-50607880D01*
X121356664Y-50606020D01*
X121904780Y-50606020D01*
X121904780Y-51568020D01*
X121904780Y-51568020D01*
G37*
G36*
X121950720Y-46556041D02*
G01*
X121953122Y-46580427D01*
X121960235Y-46603876D01*
X121971786Y-46625487D01*
X121987331Y-46644429D01*
X122006273Y-46659974D01*
X122027884Y-46671525D01*
X122051333Y-46678638D01*
X122075719Y-46681040D01*
X122595660Y-46681040D01*
X122595660Y-47643040D01*
X122153660Y-47643040D01*
X122153660Y-46819459D01*
X122151258Y-46795073D01*
X122144145Y-46771624D01*
X122132594Y-46750013D01*
X122117049Y-46731071D01*
X122098107Y-46715526D01*
X122076496Y-46703975D01*
X122053047Y-46696862D01*
X122028661Y-46694460D01*
X121218720Y-46694460D01*
X121218720Y-46380019D01*
X121216318Y-46355633D01*
X121209205Y-46332184D01*
X121197654Y-46310573D01*
X121182109Y-46291631D01*
X121163167Y-46276086D01*
X121141556Y-46264535D01*
X121118107Y-46257422D01*
X121093721Y-46255020D01*
X120547444Y-46255020D01*
X120523058Y-46257422D01*
X120499609Y-46264535D01*
X120477998Y-46276086D01*
X120459056Y-46291631D01*
X120443511Y-46310573D01*
X120431960Y-46332184D01*
X120424847Y-46355633D01*
X120422445Y-46380019D01*
X120427827Y-46416302D01*
X120429263Y-46421038D01*
X120431980Y-46448620D01*
X120431980Y-46957340D01*
X120429264Y-46984918D01*
X120423009Y-47005537D01*
X120412856Y-47024533D01*
X120408761Y-47029522D01*
X120395147Y-47049897D01*
X120385769Y-47072535D01*
X120380989Y-47096569D01*
X120380989Y-47121073D01*
X120385769Y-47145106D01*
X120395147Y-47167745D01*
X120408760Y-47188119D01*
X120426087Y-47205446D01*
X120446462Y-47219060D01*
X120469100Y-47228438D01*
X120493134Y-47233218D01*
X120505386Y-47233820D01*
X121011620Y-47233820D01*
X121011620Y-47746464D01*
X121008135Y-47752984D01*
X121001022Y-47776433D01*
X120998620Y-47800819D01*
X120998620Y-48605801D01*
X121001022Y-48630187D01*
X121003300Y-48637697D01*
X121003300Y-50302800D01*
X120271300Y-50302800D01*
X120271300Y-49986139D01*
X120268898Y-49961753D01*
X120261785Y-49938304D01*
X120250234Y-49916693D01*
X120234689Y-49897751D01*
X120215747Y-49882206D01*
X120194136Y-49870655D01*
X120170687Y-49863542D01*
X120146301Y-49861140D01*
X119692979Y-49861140D01*
X119668593Y-49863542D01*
X119662006Y-49865540D01*
X119157179Y-49865540D01*
X119132793Y-49867942D01*
X119109344Y-49875055D01*
X119087733Y-49886606D01*
X119068791Y-49902151D01*
X119053246Y-49921093D01*
X119041695Y-49942704D01*
X119034582Y-49966153D01*
X119032180Y-49990539D01*
X119032180Y-50096900D01*
X119029464Y-50124478D01*
X119023209Y-50145097D01*
X119013056Y-50164093D01*
X118999388Y-50180748D01*
X118982733Y-50194416D01*
X118963737Y-50204569D01*
X118943118Y-50210824D01*
X118915540Y-50213540D01*
X118406820Y-50213540D01*
X118379242Y-50210824D01*
X118358623Y-50204569D01*
X118339627Y-50194416D01*
X118322972Y-50180748D01*
X118309304Y-50164093D01*
X118299151Y-50145097D01*
X118292896Y-50124478D01*
X118290180Y-50096900D01*
X118290180Y-49638180D01*
X118292896Y-49610602D01*
X118299151Y-49589983D01*
X118309304Y-49570987D01*
X118322972Y-49554332D01*
X118339627Y-49540664D01*
X118358623Y-49530511D01*
X118379242Y-49524256D01*
X118406820Y-49521540D01*
X118915540Y-49521540D01*
X118943121Y-49524256D01*
X118964695Y-49530801D01*
X118988728Y-49535582D01*
X119013232Y-49535582D01*
X119037265Y-49530802D01*
X119059904Y-49521425D01*
X119080279Y-49507811D01*
X119097606Y-49490484D01*
X119111220Y-49470110D01*
X119120597Y-49447471D01*
X119125378Y-49423438D01*
X119125980Y-49411185D01*
X119125980Y-49353895D01*
X119123578Y-49329509D01*
X119116465Y-49306060D01*
X119104914Y-49284449D01*
X119089369Y-49265507D01*
X119070427Y-49249962D01*
X119048816Y-49238411D01*
X119025367Y-49231298D01*
X119000981Y-49228896D01*
X118976595Y-49231298D01*
X118964695Y-49234279D01*
X118943121Y-49240824D01*
X118915540Y-49243540D01*
X118406820Y-49243540D01*
X118379242Y-49240824D01*
X118358623Y-49234569D01*
X118339627Y-49224416D01*
X118322972Y-49210748D01*
X118309304Y-49194093D01*
X118299151Y-49175097D01*
X118292896Y-49154478D01*
X118290180Y-49126900D01*
X118290180Y-48668180D01*
X118292896Y-48640602D01*
X118299151Y-48619983D01*
X118309304Y-48600987D01*
X118322972Y-48584332D01*
X118339627Y-48570664D01*
X118358623Y-48560511D01*
X118379242Y-48554256D01*
X118406820Y-48551540D01*
X118915540Y-48551540D01*
X118943118Y-48554256D01*
X118963737Y-48560511D01*
X118982733Y-48570664D01*
X118999388Y-48584332D01*
X119013056Y-48600987D01*
X119023209Y-48619983D01*
X119029464Y-48640602D01*
X119032180Y-48668180D01*
X119032180Y-48778541D01*
X119034582Y-48802927D01*
X119041695Y-48826376D01*
X119053246Y-48847987D01*
X119068791Y-48866929D01*
X119087733Y-48882474D01*
X119109344Y-48894025D01*
X119132793Y-48901138D01*
X119157179Y-48903540D01*
X119559781Y-48903540D01*
X119584167Y-48901138D01*
X119590754Y-48899140D01*
X120146301Y-48899140D01*
X120170687Y-48896738D01*
X120194136Y-48889625D01*
X120215747Y-48878074D01*
X120234689Y-48862529D01*
X120250234Y-48843587D01*
X120261785Y-48821976D01*
X120268898Y-48798527D01*
X120271300Y-48774141D01*
X120271300Y-48700199D01*
X120268898Y-48675813D01*
X120261785Y-48652364D01*
X120250234Y-48630753D01*
X120234689Y-48611811D01*
X120215747Y-48596266D01*
X120194136Y-48584715D01*
X120170687Y-48577602D01*
X120146301Y-48575200D01*
X119426620Y-48575200D01*
X119426620Y-47810979D01*
X119424218Y-47786593D01*
X119417105Y-47763144D01*
X119405554Y-47741533D01*
X119390009Y-47722591D01*
X119371067Y-47707046D01*
X119349456Y-47695495D01*
X119326007Y-47688382D01*
X119301621Y-47685980D01*
X118865980Y-47685980D01*
X118865980Y-47152181D01*
X118863578Y-47127795D01*
X118856465Y-47104346D01*
X118844914Y-47082735D01*
X118829369Y-47063793D01*
X118820279Y-47055555D01*
X118802773Y-47041188D01*
X118789104Y-47024533D01*
X118778951Y-47005537D01*
X118772696Y-46984918D01*
X118769980Y-46957340D01*
X118769980Y-46448620D01*
X118772696Y-46421042D01*
X118778951Y-46400423D01*
X118789104Y-46381427D01*
X118802772Y-46364772D01*
X118819427Y-46351104D01*
X118838423Y-46340951D01*
X118859042Y-46334696D01*
X118886620Y-46331980D01*
X119345340Y-46331980D01*
X119372918Y-46334696D01*
X119393537Y-46340951D01*
X119412533Y-46351104D01*
X119429188Y-46364772D01*
X119442856Y-46381427D01*
X119453009Y-46400423D01*
X119459264Y-46421042D01*
X119461980Y-46448620D01*
X119461980Y-46957340D01*
X119459264Y-46984918D01*
X119453009Y-47005537D01*
X119442856Y-47024532D01*
X119430422Y-47039683D01*
X119416809Y-47060057D01*
X119407431Y-47082696D01*
X119402651Y-47106729D01*
X119402651Y-47131233D01*
X119407431Y-47155266D01*
X119416809Y-47177905D01*
X119430423Y-47198280D01*
X119447750Y-47215607D01*
X119468124Y-47229220D01*
X119490763Y-47238598D01*
X119527048Y-47243980D01*
X119674912Y-47243980D01*
X119699298Y-47241578D01*
X119722747Y-47234465D01*
X119744358Y-47222914D01*
X119763300Y-47207369D01*
X119778845Y-47188427D01*
X119790396Y-47166816D01*
X119797509Y-47143367D01*
X119799911Y-47118981D01*
X119797509Y-47094595D01*
X119790396Y-47071146D01*
X119771538Y-47039683D01*
X119759104Y-47024532D01*
X119748951Y-47005537D01*
X119742696Y-46984918D01*
X119739980Y-46957340D01*
X119739980Y-46448620D01*
X119742696Y-46421042D01*
X119748951Y-46400423D01*
X119759104Y-46381427D01*
X119772772Y-46364772D01*
X119789427Y-46351104D01*
X119808423Y-46340951D01*
X119829042Y-46334696D01*
X119856620Y-46331980D01*
X119943321Y-46331980D01*
X119967707Y-46329578D01*
X119991156Y-46322465D01*
X120012767Y-46310914D01*
X120031709Y-46295369D01*
X120047254Y-46276427D01*
X120058805Y-46254816D01*
X120065918Y-46231367D01*
X120068320Y-46206981D01*
X120068320Y-45287940D01*
X120602105Y-45287940D01*
X120610933Y-45290618D01*
X120635319Y-45293020D01*
X121093721Y-45293020D01*
X121118107Y-45290618D01*
X121141556Y-45283505D01*
X121163167Y-45271954D01*
X121182109Y-45256409D01*
X121197654Y-45237467D01*
X121209205Y-45215856D01*
X121216318Y-45192407D01*
X121218720Y-45168021D01*
X121218720Y-45122460D01*
X121950720Y-45122460D01*
X121950720Y-46556041D01*
X121950720Y-46556041D01*
G37*
G36*
X122488980Y-49340440D02*
G01*
X122046980Y-49340440D01*
X122046980Y-48378440D01*
X122488980Y-48378440D01*
X122488980Y-49340440D01*
X122488980Y-49340440D01*
G37*
G36*
X118571360Y-47720961D02*
G01*
X118573762Y-47745347D01*
X118578300Y-47760307D01*
X118578300Y-48287960D01*
X117536519Y-48287960D01*
X117512133Y-48290362D01*
X117488684Y-48297475D01*
X117467073Y-48309026D01*
X117448131Y-48324571D01*
X117432586Y-48343513D01*
X117421035Y-48365124D01*
X117413922Y-48388573D01*
X117411520Y-48412959D01*
X117411520Y-48677500D01*
X116869362Y-48677500D01*
X116868907Y-48677362D01*
X116844521Y-48674960D01*
X116362460Y-48674960D01*
X116362460Y-47712960D01*
X116904618Y-47712960D01*
X116905073Y-47713098D01*
X116929459Y-47715500D01*
X117484361Y-47715500D01*
X117508747Y-47713098D01*
X117532196Y-47705985D01*
X117553807Y-47694434D01*
X117572749Y-47678889D01*
X117588294Y-47659947D01*
X117599845Y-47638336D01*
X117606958Y-47614887D01*
X117609360Y-47590501D01*
X117609360Y-47279540D01*
X118571360Y-47279540D01*
X118571360Y-47720961D01*
X118571360Y-47720961D01*
G37*
G36*
X118414820Y-46775040D02*
G01*
X117353060Y-46775040D01*
X117353060Y-45813040D01*
X118414820Y-45813040D01*
X118414820Y-46775040D01*
X118414820Y-46775040D01*
G37*
G36*
X121260460Y-42295779D02*
G01*
X121262862Y-42320165D01*
X121269975Y-42343614D01*
X121281526Y-42365225D01*
X121297071Y-42384167D01*
X121316013Y-42399712D01*
X121337624Y-42411263D01*
X121361073Y-42418376D01*
X121385459Y-42420778D01*
X121409845Y-42418376D01*
X121433294Y-42411263D01*
X121454905Y-42399712D01*
X121473847Y-42384167D01*
X121495697Y-42354705D01*
X121499545Y-42347507D01*
X121513212Y-42330852D01*
X121529867Y-42317184D01*
X121548863Y-42307031D01*
X121569482Y-42300776D01*
X121597060Y-42298060D01*
X122105780Y-42298060D01*
X122133358Y-42300776D01*
X122153977Y-42307031D01*
X122172973Y-42317184D01*
X122189628Y-42330852D01*
X122203296Y-42347507D01*
X122213449Y-42366503D01*
X122219704Y-42387122D01*
X122222420Y-42414700D01*
X122222420Y-42873420D01*
X122219704Y-42900998D01*
X122213449Y-42921617D01*
X122203296Y-42940613D01*
X122189628Y-42957268D01*
X122172973Y-42970936D01*
X122153977Y-42981089D01*
X122133358Y-42987344D01*
X122105780Y-42990060D01*
X121597060Y-42990060D01*
X121569482Y-42987344D01*
X121548863Y-42981089D01*
X121529867Y-42970936D01*
X121513212Y-42957268D01*
X121499545Y-42940613D01*
X121495697Y-42933415D01*
X121482083Y-42913041D01*
X121464756Y-42895714D01*
X121444381Y-42882101D01*
X121421742Y-42872724D01*
X121397709Y-42867944D01*
X121373205Y-42867944D01*
X121349172Y-42872725D01*
X121326533Y-42882103D01*
X121306159Y-42895717D01*
X121288832Y-42913044D01*
X121275219Y-42933419D01*
X121265842Y-42956058D01*
X121260460Y-42992341D01*
X121260460Y-43265779D01*
X121262862Y-43290165D01*
X121269975Y-43313614D01*
X121281526Y-43335225D01*
X121297071Y-43354167D01*
X121316013Y-43369712D01*
X121337624Y-43381263D01*
X121361073Y-43388376D01*
X121385459Y-43390778D01*
X121409845Y-43388376D01*
X121433294Y-43381263D01*
X121454905Y-43369712D01*
X121473847Y-43354167D01*
X121495697Y-43324705D01*
X121499545Y-43317507D01*
X121513212Y-43300852D01*
X121529867Y-43287184D01*
X121548863Y-43277031D01*
X121569482Y-43270776D01*
X121597060Y-43268060D01*
X122105780Y-43268060D01*
X122133358Y-43270776D01*
X122153977Y-43277031D01*
X122172973Y-43287184D01*
X122189628Y-43300852D01*
X122203296Y-43317507D01*
X122213449Y-43336503D01*
X122219704Y-43357122D01*
X122222420Y-43384700D01*
X122222420Y-43843420D01*
X122219704Y-43870998D01*
X122213449Y-43891617D01*
X122203296Y-43910613D01*
X122189628Y-43927268D01*
X122172973Y-43940936D01*
X122153977Y-43951089D01*
X122133358Y-43957344D01*
X122105780Y-43960060D01*
X121597060Y-43960060D01*
X121569482Y-43957344D01*
X121548863Y-43951089D01*
X121529867Y-43940936D01*
X121513212Y-43927268D01*
X121499545Y-43910613D01*
X121495697Y-43903415D01*
X121482083Y-43883041D01*
X121464756Y-43865714D01*
X121444381Y-43852101D01*
X121421742Y-43842724D01*
X121397709Y-43837944D01*
X121373205Y-43837944D01*
X121349172Y-43842725D01*
X121326533Y-43852103D01*
X121306159Y-43865717D01*
X121288832Y-43883044D01*
X121275219Y-43903419D01*
X121265842Y-43926058D01*
X121260460Y-43962341D01*
X121260460Y-44393680D01*
X120288460Y-44393680D01*
X120288460Y-41671680D01*
X121260460Y-41671680D01*
X121260460Y-42295779D01*
X121260460Y-42295779D01*
G37*
G36*
X118210460Y-44393680D02*
G01*
X117238460Y-44393680D01*
X117238460Y-41671680D01*
X118210460Y-41671680D01*
X118210460Y-44393680D01*
X118210460Y-44393680D01*
G37*
G36*
X116902000Y-42215539D02*
G01*
X116892091Y-42223671D01*
X116876546Y-42242613D01*
X116864995Y-42264224D01*
X116857882Y-42287673D01*
X116855480Y-42312059D01*
X116855480Y-43950760D01*
X116123480Y-43950760D01*
X116123480Y-42312059D01*
X116121078Y-42287673D01*
X116113965Y-42264224D01*
X116102414Y-42242613D01*
X116086869Y-42223671D01*
X116067927Y-42208126D01*
X116046316Y-42196575D01*
X116022867Y-42189462D01*
X115998481Y-42187060D01*
X115941619Y-42187060D01*
X115917233Y-42189462D01*
X115893784Y-42196575D01*
X115872173Y-42208126D01*
X115853231Y-42223671D01*
X115837686Y-42242613D01*
X115826135Y-42264224D01*
X115819022Y-42287673D01*
X115816620Y-42312059D01*
X115816620Y-43966000D01*
X115084620Y-43966000D01*
X115084620Y-42312059D01*
X115082218Y-42287673D01*
X115075105Y-42264224D01*
X115063554Y-42242613D01*
X115048009Y-42223671D01*
X115029067Y-42208126D01*
X115007456Y-42196575D01*
X115000000Y-42194313D01*
X115000000Y-40815060D01*
X116902000Y-40815060D01*
X116902000Y-42215539D01*
X116902000Y-42215539D01*
G37*
G36*
X119736540Y-41402020D02*
G01*
X118774540Y-41402020D01*
X118774540Y-40960020D01*
X119736540Y-40960020D01*
X119736540Y-41402020D01*
X119736540Y-41402020D01*
G37*
M02*
