G04 #@! TF.GenerationSoftware,KiCad,Pcbnew,(5.1.0)-1*
G04 #@! TF.CreationDate,2019-05-02T14:04:18-07:00*
G04 #@! TF.ProjectId,Miniscope-v4-Ser-Pow,4d696e69-7363-46f7-9065-2d76342d5365,rev?*
G04 #@! TF.SameCoordinates,Original*
G04 #@! TF.FileFunction,Legend,Bot*
G04 #@! TF.FilePolarity,Positive*
%FSLAX46Y46*%
G04 Gerber Fmt 4.6, Leading zero omitted, Abs format (unit mm)*
G04 Created by KiCad (PCBNEW (5.1.0)-1) date 2019-05-02 14:04:18*
%MOMM*%
%LPD*%
G04 APERTURE LIST*
%ADD10C,0.100000*%
%ADD11C,0.050000*%
%ADD12C,0.200000*%
%ADD13C,0.150000*%
%ADD14C,0.110000*%
G04 APERTURE END LIST*
D10*
X120189460Y-41682680D02*
X118309460Y-41682680D01*
X120189460Y-44382680D02*
X118309460Y-44382680D01*
X116731000Y-40716060D02*
X115171000Y-40716060D01*
X116731000Y-42286060D02*
X115171000Y-42286060D01*
D11*
X120553610Y-51014526D02*
X120315515Y-50847860D01*
X120553610Y-50728812D02*
X120053610Y-50728812D01*
X120053610Y-50919288D01*
X120077420Y-50966907D01*
X120101229Y-50990717D01*
X120148848Y-51014526D01*
X120220277Y-51014526D01*
X120267896Y-50990717D01*
X120291705Y-50966907D01*
X120315515Y-50919288D01*
X120315515Y-50728812D01*
X120053610Y-51181193D02*
X120053610Y-51490717D01*
X120244086Y-51324050D01*
X120244086Y-51395479D01*
X120267896Y-51443098D01*
X120291705Y-51466907D01*
X120339324Y-51490717D01*
X120458372Y-51490717D01*
X120505991Y-51466907D01*
X120529800Y-51443098D01*
X120553610Y-51395479D01*
X120553610Y-51252621D01*
X120529800Y-51205002D01*
X120505991Y-51181193D01*
X119047390Y-51047546D02*
X118809295Y-50880880D01*
X119047390Y-50761832D02*
X118547390Y-50761832D01*
X118547390Y-50952308D01*
X118571200Y-50999927D01*
X118595009Y-51023737D01*
X118642628Y-51047546D01*
X118714057Y-51047546D01*
X118761676Y-51023737D01*
X118785485Y-50999927D01*
X118809295Y-50952308D01*
X118809295Y-50761832D01*
X118547390Y-51499927D02*
X118547390Y-51261832D01*
X118785485Y-51238022D01*
X118761676Y-51261832D01*
X118737866Y-51309451D01*
X118737866Y-51428499D01*
X118761676Y-51476118D01*
X118785485Y-51499927D01*
X118833104Y-51523737D01*
X118952152Y-51523737D01*
X118999771Y-51499927D01*
X119023580Y-51476118D01*
X119047390Y-51428499D01*
X119047390Y-51309451D01*
X119023580Y-51261832D01*
X118999771Y-51238022D01*
X119730650Y-51051946D02*
X119492555Y-50885280D01*
X119730650Y-50766232D02*
X119230650Y-50766232D01*
X119230650Y-50956708D01*
X119254460Y-51004327D01*
X119278269Y-51028137D01*
X119325888Y-51051946D01*
X119397317Y-51051946D01*
X119444936Y-51028137D01*
X119468745Y-51004327D01*
X119492555Y-50956708D01*
X119492555Y-50766232D01*
X119230650Y-51480518D02*
X119230650Y-51385280D01*
X119254460Y-51337660D01*
X119278269Y-51313851D01*
X119349698Y-51266232D01*
X119444936Y-51242422D01*
X119635412Y-51242422D01*
X119683031Y-51266232D01*
X119706840Y-51290041D01*
X119730650Y-51337660D01*
X119730650Y-51432899D01*
X119706840Y-51480518D01*
X119683031Y-51504327D01*
X119635412Y-51528137D01*
X119516364Y-51528137D01*
X119468745Y-51504327D01*
X119444936Y-51480518D01*
X119421126Y-51432899D01*
X119421126Y-51337660D01*
X119444936Y-51290041D01*
X119468745Y-51266232D01*
X119516364Y-51242422D01*
X116668051Y-43081426D02*
X116691860Y-43057617D01*
X116715670Y-42986188D01*
X116715670Y-42938569D01*
X116691860Y-42867140D01*
X116644241Y-42819521D01*
X116596622Y-42795712D01*
X116501384Y-42771902D01*
X116429956Y-42771902D01*
X116334718Y-42795712D01*
X116287099Y-42819521D01*
X116239480Y-42867140D01*
X116215670Y-42938569D01*
X116215670Y-42986188D01*
X116239480Y-43057617D01*
X116263289Y-43081426D01*
X116382337Y-43509998D02*
X116715670Y-43509998D01*
X116191860Y-43390950D02*
X116549003Y-43271902D01*
X116549003Y-43581426D01*
X115629191Y-43096666D02*
X115653000Y-43072857D01*
X115676810Y-43001428D01*
X115676810Y-42953809D01*
X115653000Y-42882380D01*
X115605381Y-42834761D01*
X115557762Y-42810952D01*
X115462524Y-42787142D01*
X115391096Y-42787142D01*
X115295858Y-42810952D01*
X115248239Y-42834761D01*
X115200620Y-42882380D01*
X115176810Y-42953809D01*
X115176810Y-43001428D01*
X115200620Y-43072857D01*
X115224429Y-43096666D01*
X115176810Y-43549047D02*
X115176810Y-43310952D01*
X115414905Y-43287142D01*
X115391096Y-43310952D01*
X115367286Y-43358571D01*
X115367286Y-43477619D01*
X115391096Y-43525238D01*
X115414905Y-43549047D01*
X115462524Y-43572857D01*
X115581572Y-43572857D01*
X115629191Y-43549047D01*
X115653000Y-43525238D01*
X115676810Y-43477619D01*
X115676810Y-43358571D01*
X115653000Y-43310952D01*
X115629191Y-43287142D01*
X122553231Y-47078706D02*
X122577040Y-47054897D01*
X122600850Y-46983468D01*
X122600850Y-46935849D01*
X122577040Y-46864420D01*
X122529421Y-46816801D01*
X122481802Y-46792992D01*
X122386564Y-46769182D01*
X122315136Y-46769182D01*
X122219898Y-46792992D01*
X122172279Y-46816801D01*
X122124660Y-46864420D01*
X122100850Y-46935849D01*
X122100850Y-46983468D01*
X122124660Y-47054897D01*
X122148469Y-47078706D01*
X122600850Y-47316801D02*
X122600850Y-47412040D01*
X122577040Y-47459659D01*
X122553231Y-47483468D01*
X122481802Y-47531087D01*
X122386564Y-47554897D01*
X122196088Y-47554897D01*
X122148469Y-47531087D01*
X122124660Y-47507278D01*
X122100850Y-47459659D01*
X122100850Y-47364420D01*
X122124660Y-47316801D01*
X122148469Y-47292992D01*
X122196088Y-47269182D01*
X122315136Y-47269182D01*
X122362755Y-47292992D01*
X122386564Y-47316801D01*
X122410374Y-47364420D01*
X122410374Y-47459659D01*
X122386564Y-47507278D01*
X122362755Y-47531087D01*
X122315136Y-47554897D01*
X120852048Y-47633391D02*
X120875858Y-47657200D01*
X120947286Y-47681010D01*
X120994905Y-47681010D01*
X121066334Y-47657200D01*
X121113953Y-47609581D01*
X121137762Y-47561962D01*
X121161572Y-47466724D01*
X121161572Y-47395296D01*
X121137762Y-47300058D01*
X121113953Y-47252439D01*
X121066334Y-47204820D01*
X120994905Y-47181010D01*
X120947286Y-47181010D01*
X120875858Y-47204820D01*
X120852048Y-47228629D01*
X120375858Y-47681010D02*
X120661572Y-47681010D01*
X120518715Y-47681010D02*
X120518715Y-47181010D01*
X120566334Y-47252439D01*
X120613953Y-47300058D01*
X120661572Y-47323867D01*
X120066334Y-47181010D02*
X120018715Y-47181010D01*
X119971096Y-47204820D01*
X119947286Y-47228629D01*
X119923477Y-47276248D01*
X119899667Y-47371486D01*
X119899667Y-47490534D01*
X119923477Y-47585772D01*
X119947286Y-47633391D01*
X119971096Y-47657200D01*
X120018715Y-47681010D01*
X120066334Y-47681010D01*
X120113953Y-47657200D01*
X120137762Y-47633391D01*
X120161572Y-47585772D01*
X120185381Y-47490534D01*
X120185381Y-47371486D01*
X120161572Y-47276248D01*
X120137762Y-47228629D01*
X120113953Y-47204820D01*
X120066334Y-47181010D01*
X121862351Y-50765591D02*
X121886160Y-50741781D01*
X121909970Y-50670353D01*
X121909970Y-50622734D01*
X121886160Y-50551305D01*
X121838541Y-50503686D01*
X121790922Y-50479877D01*
X121695684Y-50456067D01*
X121624256Y-50456067D01*
X121529018Y-50479877D01*
X121481399Y-50503686D01*
X121433780Y-50551305D01*
X121409970Y-50622734D01*
X121409970Y-50670353D01*
X121433780Y-50741781D01*
X121457589Y-50765591D01*
X121909970Y-51241781D02*
X121909970Y-50956067D01*
X121909970Y-51098924D02*
X121409970Y-51098924D01*
X121481399Y-51051305D01*
X121529018Y-51003686D01*
X121552827Y-50956067D01*
X121909970Y-51717972D02*
X121909970Y-51432258D01*
X121909970Y-51575115D02*
X121409970Y-51575115D01*
X121481399Y-51527496D01*
X121529018Y-51479877D01*
X121552827Y-51432258D01*
X120534048Y-48387771D02*
X120557858Y-48411580D01*
X120629286Y-48435390D01*
X120676905Y-48435390D01*
X120748334Y-48411580D01*
X120795953Y-48363961D01*
X120819762Y-48316342D01*
X120843572Y-48221104D01*
X120843572Y-48149676D01*
X120819762Y-48054438D01*
X120795953Y-48006819D01*
X120748334Y-47959200D01*
X120676905Y-47935390D01*
X120629286Y-47935390D01*
X120557858Y-47959200D01*
X120534048Y-47983009D01*
X120057858Y-48435390D02*
X120343572Y-48435390D01*
X120200715Y-48435390D02*
X120200715Y-47935390D01*
X120248334Y-48006819D01*
X120295953Y-48054438D01*
X120343572Y-48078247D01*
X119772143Y-48149676D02*
X119819762Y-48125866D01*
X119843572Y-48102057D01*
X119867381Y-48054438D01*
X119867381Y-48030628D01*
X119843572Y-47983009D01*
X119819762Y-47959200D01*
X119772143Y-47935390D01*
X119676905Y-47935390D01*
X119629286Y-47959200D01*
X119605477Y-47983009D01*
X119581667Y-48030628D01*
X119581667Y-48054438D01*
X119605477Y-48102057D01*
X119629286Y-48125866D01*
X119676905Y-48149676D01*
X119772143Y-48149676D01*
X119819762Y-48173485D01*
X119843572Y-48197295D01*
X119867381Y-48244914D01*
X119867381Y-48340152D01*
X119843572Y-48387771D01*
X119819762Y-48411580D01*
X119772143Y-48435390D01*
X119676905Y-48435390D01*
X119629286Y-48411580D01*
X119605477Y-48387771D01*
X119581667Y-48340152D01*
X119581667Y-48244914D01*
X119605477Y-48197295D01*
X119629286Y-48173485D01*
X119676905Y-48149676D01*
X118418728Y-48245531D02*
X118442538Y-48269340D01*
X118513966Y-48293150D01*
X118561585Y-48293150D01*
X118633014Y-48269340D01*
X118680633Y-48221721D01*
X118704442Y-48174102D01*
X118728252Y-48078864D01*
X118728252Y-48007436D01*
X118704442Y-47912198D01*
X118680633Y-47864579D01*
X118633014Y-47816960D01*
X118561585Y-47793150D01*
X118513966Y-47793150D01*
X118442538Y-47816960D01*
X118418728Y-47840769D01*
X117942538Y-48293150D02*
X118228252Y-48293150D01*
X118085395Y-48293150D02*
X118085395Y-47793150D01*
X118133014Y-47864579D01*
X118180633Y-47912198D01*
X118228252Y-47936007D01*
X117704442Y-48293150D02*
X117609204Y-48293150D01*
X117561585Y-48269340D01*
X117537776Y-48245531D01*
X117490157Y-48174102D01*
X117466347Y-48078864D01*
X117466347Y-47888388D01*
X117490157Y-47840769D01*
X117513966Y-47816960D01*
X117561585Y-47793150D01*
X117656823Y-47793150D01*
X117704442Y-47816960D01*
X117728252Y-47840769D01*
X117752061Y-47888388D01*
X117752061Y-48007436D01*
X117728252Y-48055055D01*
X117704442Y-48078864D01*
X117656823Y-48102674D01*
X117561585Y-48102674D01*
X117513966Y-48078864D01*
X117490157Y-48055055D01*
X117466347Y-48007436D01*
X118411788Y-47679111D02*
X118435598Y-47702920D01*
X118507026Y-47726730D01*
X118554645Y-47726730D01*
X118626074Y-47702920D01*
X118673693Y-47655301D01*
X118697502Y-47607682D01*
X118721312Y-47512444D01*
X118721312Y-47441016D01*
X118697502Y-47345778D01*
X118673693Y-47298159D01*
X118626074Y-47250540D01*
X118554645Y-47226730D01*
X118507026Y-47226730D01*
X118435598Y-47250540D01*
X118411788Y-47274349D01*
X118221312Y-47274349D02*
X118197502Y-47250540D01*
X118149883Y-47226730D01*
X118030836Y-47226730D01*
X117983217Y-47250540D01*
X117959407Y-47274349D01*
X117935598Y-47321968D01*
X117935598Y-47369587D01*
X117959407Y-47441016D01*
X118245121Y-47726730D01*
X117935598Y-47726730D01*
X117626074Y-47226730D02*
X117578455Y-47226730D01*
X117530836Y-47250540D01*
X117507026Y-47274349D01*
X117483217Y-47321968D01*
X117459407Y-47417206D01*
X117459407Y-47536254D01*
X117483217Y-47631492D01*
X117507026Y-47679111D01*
X117530836Y-47702920D01*
X117578455Y-47726730D01*
X117626074Y-47726730D01*
X117673693Y-47702920D01*
X117697502Y-47679111D01*
X117721312Y-47631492D01*
X117745121Y-47536254D01*
X117745121Y-47417206D01*
X117721312Y-47321968D01*
X117697502Y-47274349D01*
X117673693Y-47250540D01*
X117626074Y-47226730D01*
X118372391Y-45972611D02*
X118396200Y-45948801D01*
X118420010Y-45877373D01*
X118420010Y-45829754D01*
X118396200Y-45758325D01*
X118348581Y-45710706D01*
X118300962Y-45686897D01*
X118205724Y-45663087D01*
X118134296Y-45663087D01*
X118039058Y-45686897D01*
X117991439Y-45710706D01*
X117943820Y-45758325D01*
X117920010Y-45829754D01*
X117920010Y-45877373D01*
X117943820Y-45948801D01*
X117967629Y-45972611D01*
X117967629Y-46163087D02*
X117943820Y-46186897D01*
X117920010Y-46234516D01*
X117920010Y-46353563D01*
X117943820Y-46401182D01*
X117967629Y-46424992D01*
X118015248Y-46448801D01*
X118062867Y-46448801D01*
X118134296Y-46424992D01*
X118420010Y-46139278D01*
X118420010Y-46448801D01*
X118420010Y-46924992D02*
X118420010Y-46639278D01*
X118420010Y-46782135D02*
X117920010Y-46782135D01*
X117991439Y-46734516D01*
X118039058Y-46686897D01*
X118062867Y-46639278D01*
X117752631Y-45972611D02*
X117776440Y-45948801D01*
X117800250Y-45877373D01*
X117800250Y-45829754D01*
X117776440Y-45758325D01*
X117728821Y-45710706D01*
X117681202Y-45686897D01*
X117585964Y-45663087D01*
X117514536Y-45663087D01*
X117419298Y-45686897D01*
X117371679Y-45710706D01*
X117324060Y-45758325D01*
X117300250Y-45829754D01*
X117300250Y-45877373D01*
X117324060Y-45948801D01*
X117347869Y-45972611D01*
X117347869Y-46163087D02*
X117324060Y-46186897D01*
X117300250Y-46234516D01*
X117300250Y-46353563D01*
X117324060Y-46401182D01*
X117347869Y-46424992D01*
X117395488Y-46448801D01*
X117443107Y-46448801D01*
X117514536Y-46424992D01*
X117800250Y-46139278D01*
X117800250Y-46448801D01*
X117347869Y-46639278D02*
X117324060Y-46663087D01*
X117300250Y-46710706D01*
X117300250Y-46829754D01*
X117324060Y-46877373D01*
X117347869Y-46901182D01*
X117395488Y-46924992D01*
X117443107Y-46924992D01*
X117514536Y-46901182D01*
X117800250Y-46615468D01*
X117800250Y-46924992D01*
X120815871Y-49195371D02*
X120839680Y-49171561D01*
X120863490Y-49100133D01*
X120863490Y-49052514D01*
X120839680Y-48981085D01*
X120792061Y-48933466D01*
X120744442Y-48909657D01*
X120649204Y-48885847D01*
X120577776Y-48885847D01*
X120482538Y-48909657D01*
X120434919Y-48933466D01*
X120387300Y-48981085D01*
X120363490Y-49052514D01*
X120363490Y-49100133D01*
X120387300Y-49171561D01*
X120411109Y-49195371D01*
X120411109Y-49385847D02*
X120387300Y-49409657D01*
X120363490Y-49457276D01*
X120363490Y-49576323D01*
X120387300Y-49623942D01*
X120411109Y-49647752D01*
X120458728Y-49671561D01*
X120506347Y-49671561D01*
X120577776Y-49647752D01*
X120863490Y-49362038D01*
X120863490Y-49671561D01*
X120363490Y-49838228D02*
X120363490Y-50147752D01*
X120553966Y-49981085D01*
X120553966Y-50052514D01*
X120577776Y-50100133D01*
X120601585Y-50123942D01*
X120649204Y-50147752D01*
X120768252Y-50147752D01*
X120815871Y-50123942D01*
X120839680Y-50100133D01*
X120863490Y-50052514D01*
X120863490Y-49909657D01*
X120839680Y-49862038D01*
X120815871Y-49838228D01*
X119525551Y-49063111D02*
X119549360Y-49039301D01*
X119573170Y-48967873D01*
X119573170Y-48920254D01*
X119549360Y-48848825D01*
X119501741Y-48801206D01*
X119454122Y-48777397D01*
X119358884Y-48753587D01*
X119287456Y-48753587D01*
X119192218Y-48777397D01*
X119144599Y-48801206D01*
X119096980Y-48848825D01*
X119073170Y-48920254D01*
X119073170Y-48967873D01*
X119096980Y-49039301D01*
X119120789Y-49063111D01*
X119120789Y-49253587D02*
X119096980Y-49277397D01*
X119073170Y-49325016D01*
X119073170Y-49444063D01*
X119096980Y-49491682D01*
X119120789Y-49515492D01*
X119168408Y-49539301D01*
X119216027Y-49539301D01*
X119287456Y-49515492D01*
X119573170Y-49229778D01*
X119573170Y-49539301D01*
X119239837Y-49967873D02*
X119573170Y-49967873D01*
X119049360Y-49848825D02*
X119406503Y-49729778D01*
X119406503Y-50039301D01*
X120084351Y-49058711D02*
X120108160Y-49034901D01*
X120131970Y-48963473D01*
X120131970Y-48915854D01*
X120108160Y-48844425D01*
X120060541Y-48796806D01*
X120012922Y-48772997D01*
X119917684Y-48749187D01*
X119846256Y-48749187D01*
X119751018Y-48772997D01*
X119703399Y-48796806D01*
X119655780Y-48844425D01*
X119631970Y-48915854D01*
X119631970Y-48963473D01*
X119655780Y-49034901D01*
X119679589Y-49058711D01*
X119679589Y-49249187D02*
X119655780Y-49272997D01*
X119631970Y-49320616D01*
X119631970Y-49439663D01*
X119655780Y-49487282D01*
X119679589Y-49511092D01*
X119727208Y-49534901D01*
X119774827Y-49534901D01*
X119846256Y-49511092D01*
X120131970Y-49225378D01*
X120131970Y-49534901D01*
X119631970Y-49987282D02*
X119631970Y-49749187D01*
X119870065Y-49725378D01*
X119846256Y-49749187D01*
X119822446Y-49796806D01*
X119822446Y-49915854D01*
X119846256Y-49963473D01*
X119870065Y-49987282D01*
X119917684Y-50011092D01*
X120036732Y-50011092D01*
X120084351Y-49987282D01*
X120108160Y-49963473D01*
X120131970Y-49915854D01*
X120131970Y-49796806D01*
X120108160Y-49749187D01*
X120084351Y-49725378D01*
X121763291Y-45587031D02*
X121787100Y-45563221D01*
X121810910Y-45491793D01*
X121810910Y-45444174D01*
X121787100Y-45372745D01*
X121739481Y-45325126D01*
X121691862Y-45301317D01*
X121596624Y-45277507D01*
X121525196Y-45277507D01*
X121429958Y-45301317D01*
X121382339Y-45325126D01*
X121334720Y-45372745D01*
X121310910Y-45444174D01*
X121310910Y-45491793D01*
X121334720Y-45563221D01*
X121358529Y-45587031D01*
X121358529Y-45777507D02*
X121334720Y-45801317D01*
X121310910Y-45848936D01*
X121310910Y-45967983D01*
X121334720Y-46015602D01*
X121358529Y-46039412D01*
X121406148Y-46063221D01*
X121453767Y-46063221D01*
X121525196Y-46039412D01*
X121810910Y-45753698D01*
X121810910Y-46063221D01*
X121310910Y-46491793D02*
X121310910Y-46396555D01*
X121334720Y-46348936D01*
X121358529Y-46325126D01*
X121429958Y-46277507D01*
X121525196Y-46253698D01*
X121715672Y-46253698D01*
X121763291Y-46277507D01*
X121787100Y-46301317D01*
X121810910Y-46348936D01*
X121810910Y-46444174D01*
X121787100Y-46491793D01*
X121763291Y-46515602D01*
X121715672Y-46539412D01*
X121596624Y-46539412D01*
X121549005Y-46515602D01*
X121525196Y-46491793D01*
X121501386Y-46444174D01*
X121501386Y-46348936D01*
X121525196Y-46301317D01*
X121549005Y-46277507D01*
X121596624Y-46253698D01*
X120467891Y-45447511D02*
X120491700Y-45423701D01*
X120515510Y-45352273D01*
X120515510Y-45304654D01*
X120491700Y-45233225D01*
X120444081Y-45185606D01*
X120396462Y-45161797D01*
X120301224Y-45137987D01*
X120229796Y-45137987D01*
X120134558Y-45161797D01*
X120086939Y-45185606D01*
X120039320Y-45233225D01*
X120015510Y-45304654D01*
X120015510Y-45352273D01*
X120039320Y-45423701D01*
X120063129Y-45447511D01*
X120063129Y-45637987D02*
X120039320Y-45661797D01*
X120015510Y-45709416D01*
X120015510Y-45828463D01*
X120039320Y-45876082D01*
X120063129Y-45899892D01*
X120110748Y-45923701D01*
X120158367Y-45923701D01*
X120229796Y-45899892D01*
X120515510Y-45614178D01*
X120515510Y-45923701D01*
X120015510Y-46090368D02*
X120015510Y-46423701D01*
X120515510Y-46209416D01*
X121057171Y-45452591D02*
X121080980Y-45428781D01*
X121104790Y-45357353D01*
X121104790Y-45309734D01*
X121080980Y-45238305D01*
X121033361Y-45190686D01*
X120985742Y-45166877D01*
X120890504Y-45143067D01*
X120819076Y-45143067D01*
X120723838Y-45166877D01*
X120676219Y-45190686D01*
X120628600Y-45238305D01*
X120604790Y-45309734D01*
X120604790Y-45357353D01*
X120628600Y-45428781D01*
X120652409Y-45452591D01*
X120652409Y-45643067D02*
X120628600Y-45666877D01*
X120604790Y-45714496D01*
X120604790Y-45833543D01*
X120628600Y-45881162D01*
X120652409Y-45904972D01*
X120700028Y-45928781D01*
X120747647Y-45928781D01*
X120819076Y-45904972D01*
X121104790Y-45619258D01*
X121104790Y-45928781D01*
X120819076Y-46214496D02*
X120795266Y-46166877D01*
X120771457Y-46143067D01*
X120723838Y-46119258D01*
X120700028Y-46119258D01*
X120652409Y-46143067D01*
X120628600Y-46166877D01*
X120604790Y-46214496D01*
X120604790Y-46309734D01*
X120628600Y-46357353D01*
X120652409Y-46381162D01*
X120700028Y-46404972D01*
X120723838Y-46404972D01*
X120771457Y-46381162D01*
X120795266Y-46357353D01*
X120819076Y-46309734D01*
X120819076Y-46214496D01*
X120842885Y-46166877D01*
X120866695Y-46143067D01*
X120914314Y-46119258D01*
X121009552Y-46119258D01*
X121057171Y-46143067D01*
X121080980Y-46166877D01*
X121104790Y-46214496D01*
X121104790Y-46309734D01*
X121080980Y-46357353D01*
X121057171Y-46381162D01*
X121009552Y-46404972D01*
X120914314Y-46404972D01*
X120866695Y-46381162D01*
X120842885Y-46357353D01*
X120819076Y-46309734D01*
X117369091Y-47875071D02*
X117392900Y-47851261D01*
X117416710Y-47779833D01*
X117416710Y-47732214D01*
X117392900Y-47660785D01*
X117345281Y-47613166D01*
X117297662Y-47589357D01*
X117202424Y-47565547D01*
X117130996Y-47565547D01*
X117035758Y-47589357D01*
X116988139Y-47613166D01*
X116940520Y-47660785D01*
X116916710Y-47732214D01*
X116916710Y-47779833D01*
X116940520Y-47851261D01*
X116964329Y-47875071D01*
X116964329Y-48065547D02*
X116940520Y-48089357D01*
X116916710Y-48136976D01*
X116916710Y-48256023D01*
X116940520Y-48303642D01*
X116964329Y-48327452D01*
X117011948Y-48351261D01*
X117059567Y-48351261D01*
X117130996Y-48327452D01*
X117416710Y-48041738D01*
X117416710Y-48351261D01*
X117416710Y-48589357D02*
X117416710Y-48684595D01*
X117392900Y-48732214D01*
X117369091Y-48756023D01*
X117297662Y-48803642D01*
X117202424Y-48827452D01*
X117011948Y-48827452D01*
X116964329Y-48803642D01*
X116940520Y-48779833D01*
X116916710Y-48732214D01*
X116916710Y-48636976D01*
X116940520Y-48589357D01*
X116964329Y-48565547D01*
X117011948Y-48541738D01*
X117130996Y-48541738D01*
X117178615Y-48565547D01*
X117202424Y-48589357D01*
X117226234Y-48636976D01*
X117226234Y-48732214D01*
X117202424Y-48779833D01*
X117178615Y-48803642D01*
X117130996Y-48827452D01*
X116762031Y-47872531D02*
X116785840Y-47848721D01*
X116809650Y-47777293D01*
X116809650Y-47729674D01*
X116785840Y-47658245D01*
X116738221Y-47610626D01*
X116690602Y-47586817D01*
X116595364Y-47563007D01*
X116523936Y-47563007D01*
X116428698Y-47586817D01*
X116381079Y-47610626D01*
X116333460Y-47658245D01*
X116309650Y-47729674D01*
X116309650Y-47777293D01*
X116333460Y-47848721D01*
X116357269Y-47872531D01*
X116309650Y-48039198D02*
X116309650Y-48348721D01*
X116500126Y-48182055D01*
X116500126Y-48253483D01*
X116523936Y-48301102D01*
X116547745Y-48324912D01*
X116595364Y-48348721D01*
X116714412Y-48348721D01*
X116762031Y-48324912D01*
X116785840Y-48301102D01*
X116809650Y-48253483D01*
X116809650Y-48110626D01*
X116785840Y-48063007D01*
X116762031Y-48039198D01*
X116309650Y-48658245D02*
X116309650Y-48705864D01*
X116333460Y-48753483D01*
X116357269Y-48777293D01*
X116404888Y-48801102D01*
X116500126Y-48824912D01*
X116619174Y-48824912D01*
X116714412Y-48801102D01*
X116762031Y-48777293D01*
X116785840Y-48753483D01*
X116809650Y-48705864D01*
X116809650Y-48658245D01*
X116785840Y-48610626D01*
X116762031Y-48586817D01*
X116714412Y-48563007D01*
X116619174Y-48539198D01*
X116500126Y-48539198D01*
X116404888Y-48563007D01*
X116357269Y-48586817D01*
X116333460Y-48610626D01*
X116309650Y-48658245D01*
D12*
X119582793Y-43937441D02*
X120535174Y-43937441D01*
X120535174Y-41937441D01*
X117868507Y-43937441D02*
X119011364Y-43937441D01*
X118439936Y-43937441D02*
X118439936Y-41937441D01*
X118630412Y-42223156D01*
X118820888Y-42413632D01*
X119011364Y-42508870D01*
D13*
X123473800Y-42962393D02*
X123473800Y-42486202D01*
X122473800Y-42486202D01*
X122569039Y-43248107D02*
X122521420Y-43295726D01*
X122473800Y-43390964D01*
X122473800Y-43629060D01*
X122521420Y-43724298D01*
X122569039Y-43771917D01*
X122664277Y-43819536D01*
X122759515Y-43819536D01*
X122902372Y-43771917D01*
X123473800Y-43200488D01*
X123473800Y-43819536D01*
X117943560Y-49215873D02*
X117943560Y-48739682D01*
X116943560Y-48739682D01*
X117276894Y-49977778D02*
X117943560Y-49977778D01*
X116895941Y-49739682D02*
X117610227Y-49501587D01*
X117610227Y-50120635D01*
X119767646Y-45985360D02*
X120243837Y-45985360D01*
X120243837Y-44985360D01*
X118958122Y-44985360D02*
X119434313Y-44985360D01*
X119481932Y-45461551D01*
X119434313Y-45413932D01*
X119339075Y-45366313D01*
X119100980Y-45366313D01*
X119005741Y-45413932D01*
X118958122Y-45461551D01*
X118910503Y-45556789D01*
X118910503Y-45794884D01*
X118958122Y-45890122D01*
X119005741Y-45937741D01*
X119100980Y-45985360D01*
X119339075Y-45985360D01*
X119434313Y-45937741D01*
X119481932Y-45890122D01*
D11*
X119338873Y-41407210D02*
X119505540Y-41169115D01*
X119624587Y-41407210D02*
X119624587Y-40907210D01*
X119434111Y-40907210D01*
X119386492Y-40931020D01*
X119362682Y-40954829D01*
X119338873Y-41002448D01*
X119338873Y-41073877D01*
X119362682Y-41121496D01*
X119386492Y-41145305D01*
X119434111Y-41169115D01*
X119624587Y-41169115D01*
X118862682Y-41407210D02*
X119148397Y-41407210D01*
X119005540Y-41407210D02*
X119005540Y-40907210D01*
X119053159Y-40978639D01*
X119100778Y-41026258D01*
X119148397Y-41050067D01*
X119430313Y-47691170D02*
X119596980Y-47453075D01*
X119716027Y-47691170D02*
X119716027Y-47191170D01*
X119525551Y-47191170D01*
X119477932Y-47214980D01*
X119454122Y-47238789D01*
X119430313Y-47286408D01*
X119430313Y-47357837D01*
X119454122Y-47405456D01*
X119477932Y-47429265D01*
X119525551Y-47453075D01*
X119716027Y-47453075D01*
X119239837Y-47238789D02*
X119216027Y-47214980D01*
X119168408Y-47191170D01*
X119049360Y-47191170D01*
X119001741Y-47214980D01*
X118977932Y-47238789D01*
X118954122Y-47286408D01*
X118954122Y-47334027D01*
X118977932Y-47405456D01*
X119263646Y-47691170D01*
X118954122Y-47691170D01*
X122494170Y-48776106D02*
X122256075Y-48609440D01*
X122494170Y-48490392D02*
X121994170Y-48490392D01*
X121994170Y-48680868D01*
X122017980Y-48728487D01*
X122041789Y-48752297D01*
X122089408Y-48776106D01*
X122160837Y-48776106D01*
X122208456Y-48752297D01*
X122232265Y-48728487D01*
X122256075Y-48680868D01*
X122256075Y-48490392D01*
X122160837Y-49204678D02*
X122494170Y-49204678D01*
X121970360Y-49085630D02*
X122327503Y-48966582D01*
X122327503Y-49276106D01*
X121219090Y-51005546D02*
X120980995Y-50838880D01*
X121219090Y-50719832D02*
X120719090Y-50719832D01*
X120719090Y-50910308D01*
X120742900Y-50957927D01*
X120766709Y-50981737D01*
X120814328Y-51005546D01*
X120885757Y-51005546D01*
X120933376Y-50981737D01*
X120957185Y-50957927D01*
X120980995Y-50910308D01*
X120980995Y-50719832D01*
X120719090Y-51172213D02*
X120719090Y-51505546D01*
X121219090Y-51291260D01*
D14*
X115365047Y-40685821D02*
X116231238Y-40685821D01*
X116333142Y-40736774D01*
X116384095Y-40787726D01*
X116435047Y-40889631D01*
X116435047Y-41093440D01*
X116384095Y-41195345D01*
X116333142Y-41246298D01*
X116231238Y-41297250D01*
X115365047Y-41297250D01*
X115365047Y-41704869D02*
X115365047Y-42367250D01*
X115772666Y-42010583D01*
X115772666Y-42163440D01*
X115823619Y-42265345D01*
X115874571Y-42316298D01*
X115976476Y-42367250D01*
X116231238Y-42367250D01*
X116333142Y-42316298D01*
X116384095Y-42265345D01*
X116435047Y-42163440D01*
X116435047Y-41857726D01*
X116384095Y-41755821D01*
X116333142Y-41704869D01*
M02*
