G04 #@! TF.GenerationSoftware,KiCad,Pcbnew,(5.1.0)-1*
G04 #@! TF.CreationDate,2019-05-02T14:04:18-07:00*
G04 #@! TF.ProjectId,Miniscope-v4-Ser-Pow,4d696e69-7363-46f7-9065-2d76342d5365,rev?*
G04 #@! TF.SameCoordinates,Original*
G04 #@! TF.FileFunction,Paste,Top*
G04 #@! TF.FilePolarity,Positive*
%FSLAX46Y46*%
G04 Gerber Fmt 4.6, Leading zero omitted, Abs format (unit mm)*
G04 Created by KiCad (PCBNEW (5.1.0)-1) date 2019-05-02 14:04:18*
%MOMM*%
%LPD*%
G04 APERTURE LIST*
%ADD10R,2.500000X2.500000*%
%ADD11R,1.050000X1.000000*%
%ADD12R,2.200000X1.050000*%
%ADD13C,0.508000*%
%ADD14R,0.310000X0.340000*%
%ADD15R,0.340000X0.310000*%
%ADD16R,0.260000X0.680000*%
%ADD17R,0.680000X0.260000*%
%ADD18R,1.350000X1.350000*%
G04 APERTURE END LIST*
D10*
X117789960Y-42572940D03*
D11*
X122150000Y-42402760D03*
D12*
X120650000Y-43877760D03*
X120650000Y-40927760D03*
D13*
X121920000Y-51186080D03*
X121437400Y-51795680D03*
X120954801Y-51186080D03*
X120472201Y-51795680D03*
X119989602Y-51186080D03*
X118800880Y-51150520D03*
X118318280Y-51760120D03*
X117835681Y-51150520D03*
X117353081Y-51760120D03*
X116870482Y-51150520D03*
D14*
X115452480Y-40424100D03*
X116002480Y-40424100D03*
X117345460Y-40485060D03*
X116795460Y-40485060D03*
D15*
X118033800Y-40980360D03*
X118033800Y-40430360D03*
D13*
X115570000Y-42646604D03*
X114960400Y-43129203D03*
X115570000Y-43611803D03*
X114960400Y-44094402D03*
X115570000Y-44577002D03*
X114960400Y-45059601D03*
X115570000Y-45542201D03*
X114960400Y-46024800D03*
X115570000Y-46507400D03*
X114960400Y-46989999D03*
X115570000Y-47472599D03*
X114960400Y-47955198D03*
X115570000Y-48437798D03*
X114960400Y-48920397D03*
X115570000Y-49402997D03*
X114960400Y-49885596D03*
X115570000Y-50368196D03*
X114960400Y-50850795D03*
X115570000Y-51333395D03*
X114960400Y-51815994D03*
D16*
X117503000Y-50036200D03*
X118003000Y-50036200D03*
X118503000Y-50036200D03*
X119003000Y-50036200D03*
X119503000Y-50036200D03*
X120003000Y-50036200D03*
X120503000Y-50036200D03*
X121003000Y-50036200D03*
D17*
X121588000Y-49451200D03*
X121588000Y-48951200D03*
X121588000Y-48451200D03*
X121588000Y-47951200D03*
X121588000Y-47451200D03*
X121588000Y-46951200D03*
X121588000Y-46451200D03*
X121588000Y-45951200D03*
D16*
X121003000Y-45366200D03*
X120503000Y-45366200D03*
X120003000Y-45366200D03*
X119503000Y-45366200D03*
X119003000Y-45366200D03*
X118503000Y-45366200D03*
X118003000Y-45366200D03*
X117503000Y-45366200D03*
D17*
X116918000Y-45951200D03*
X116918000Y-46451200D03*
X116918000Y-46951200D03*
X116918000Y-47451200D03*
X116918000Y-47951200D03*
X116918000Y-48451200D03*
X116918000Y-48951200D03*
X116918000Y-49451200D03*
D18*
X120028000Y-48476200D03*
X120028000Y-46926200D03*
X118478000Y-48476200D03*
X118478000Y-46926200D03*
M02*
