G04 #@! TF.GenerationSoftware,KiCad,Pcbnew,(5.1.0)-1*
G04 #@! TF.CreationDate,2019-05-02T14:04:18-07:00*
G04 #@! TF.ProjectId,Miniscope-v4-Ser-Pow,4d696e69-7363-46f7-9065-2d76342d5365,rev?*
G04 #@! TF.SameCoordinates,Original*
G04 #@! TF.FileFunction,Copper,L3,Inr*
G04 #@! TF.FilePolarity,Positive*
%FSLAX46Y46*%
G04 Gerber Fmt 4.6, Leading zero omitted, Abs format (unit mm)*
G04 Created by KiCad (PCBNEW (5.1.0)-1) date 2019-05-02 14:04:18*
%MOMM*%
%LPD*%
G04 APERTURE LIST*
%ADD10C,0.355600*%
%ADD11C,0.127000*%
%ADD12C,0.076200*%
G04 APERTURE END LIST*
D10*
X121610120Y-45473620D03*
X118369080Y-48064420D03*
X119781320Y-48204120D03*
X114962940Y-51818540D03*
X121437400Y-51795680D03*
X114960400Y-50850795D03*
X121954244Y-44524976D03*
X121922540Y-51188620D03*
X116918000Y-47451200D03*
X121588000Y-48451200D03*
X115570000Y-51333395D03*
X116918000Y-45951200D03*
X114955320Y-43119040D03*
X121588000Y-47451200D03*
X121588000Y-47951200D03*
X121594880Y-49448720D03*
X121587260Y-48948340D03*
X121588000Y-46951200D03*
X115570000Y-45542201D03*
X114960400Y-48920397D03*
X115570000Y-50368196D03*
X115570000Y-44577002D03*
X119503000Y-45366200D03*
X114958144Y-44096712D03*
X119003000Y-45366200D03*
X114960400Y-45059601D03*
X118503000Y-45366200D03*
X114962940Y-46019720D03*
X118003000Y-45366200D03*
X115559840Y-46522640D03*
X117497860Y-45399960D03*
X116895880Y-46454060D03*
X115577620Y-47482760D03*
D11*
X120644920Y-48572433D02*
X120644920Y-44968160D01*
X120644920Y-44968160D02*
X119509540Y-43832780D01*
X119509540Y-43832780D02*
X118485920Y-43832780D01*
D12*
X115319610Y-48920397D02*
X114960400Y-48920397D01*
X115324693Y-48925480D02*
X115319610Y-48920397D01*
D11*
X117406420Y-48925480D02*
X115324693Y-48925480D01*
D12*
X118010940Y-50200560D02*
X118010940Y-49530000D01*
X118010940Y-49530000D02*
X117406420Y-48925480D01*
D11*
X115570000Y-50368196D02*
X115930676Y-50368196D01*
D12*
X119503000Y-44793980D02*
X119503000Y-45366200D01*
X118955820Y-44246800D02*
X119503000Y-44793980D01*
X115570000Y-44577002D02*
X115900202Y-44246800D01*
X115900202Y-44246800D02*
X118955820Y-44246800D01*
X115319610Y-45059601D02*
X115322149Y-45062140D01*
X118503000Y-44825220D02*
X118503000Y-45366200D01*
X114960400Y-45059601D02*
X115319610Y-45059601D01*
X115849400Y-45062140D02*
X116380260Y-44531280D01*
X115322149Y-45062140D02*
X115849400Y-45062140D01*
X116380260Y-44531280D02*
X118209060Y-44531280D01*
X118209060Y-44531280D02*
X118503000Y-44825220D01*
X115869720Y-46019720D02*
X114962940Y-46019720D01*
X117058440Y-44831000D02*
X115869720Y-46019720D01*
X117787420Y-44831000D02*
X117058440Y-44831000D01*
X118003000Y-45366200D02*
X118003000Y-45046580D01*
X118003000Y-45046580D02*
X117787420Y-44831000D01*
X117030500Y-45399960D02*
X117497860Y-45399960D01*
X115559840Y-46522640D02*
X115907820Y-46522640D01*
X115907820Y-46522640D02*
X117030500Y-45399960D01*
X115755419Y-47304961D02*
X115755419Y-47119541D01*
X115577620Y-47482760D02*
X115755419Y-47304961D01*
X116230399Y-47119541D02*
X116895880Y-46454060D01*
X115755419Y-47119541D02*
X116230399Y-47119541D01*
M02*
