G04 #@! TF.GenerationSoftware,KiCad,Pcbnew,(5.1.5)-3*
G04 #@! TF.CreationDate,2020-06-16T15:30:24-07:00*
G04 #@! TF.ProjectId,Miniscope-v4-Rigid-Flex,4d696e69-7363-46f7-9065-2d76342d5269,rev?*
G04 #@! TF.SameCoordinates,Original*
G04 #@! TF.FileFunction,Copper,L6,Bot*
G04 #@! TF.FilePolarity,Positive*
%FSLAX46Y46*%
G04 Gerber Fmt 4.6, Leading zero omitted, Abs format (unit mm)*
G04 Created by KiCad (PCBNEW (5.1.5)-3) date 2020-06-16 15:30:24*
%MOMM*%
%LPD*%
G04 APERTURE LIST*
%ADD10C,0.100000*%
%ADD11R,0.870000X2.620000*%
%ADD12R,0.270000X0.740000*%
%ADD13R,0.270000X0.820000*%
%ADD14R,0.220000X0.400000*%
%ADD15R,0.320000X0.400000*%
%ADD16R,0.400000X0.220000*%
%ADD17C,0.250000*%
%ADD18R,0.680000X0.260000*%
%ADD19R,0.260000X0.680000*%
%ADD20R,3.100000X3.100000*%
%ADD21R,0.540000X1.060000*%
%ADD22R,0.450000X1.500000*%
%ADD23C,0.350000*%
%ADD24C,0.300000*%
%ADD25C,0.152400*%
%ADD26C,0.304800*%
%ADD27C,0.203200*%
%ADD28C,0.254000*%
%ADD29C,0.101600*%
G04 APERTURE END LIST*
G04 #@! TA.AperFunction,SMDPad,CuDef*
D10*
G36*
X101807896Y-128239573D02*
G01*
X101815419Y-128240689D01*
X101822797Y-128242537D01*
X101829958Y-128245099D01*
X101836833Y-128248351D01*
X101843357Y-128252261D01*
X101849465Y-128256792D01*
X101855101Y-128261899D01*
X101860208Y-128267535D01*
X101864739Y-128273643D01*
X101868649Y-128280167D01*
X101871901Y-128287042D01*
X101874463Y-128294203D01*
X101876311Y-128301581D01*
X101877427Y-128309104D01*
X101877800Y-128316700D01*
X101877800Y-128501700D01*
X101877427Y-128509296D01*
X101876311Y-128516819D01*
X101874463Y-128524197D01*
X101871901Y-128531358D01*
X101868649Y-128538233D01*
X101864739Y-128544757D01*
X101860208Y-128550865D01*
X101855101Y-128556501D01*
X101849465Y-128561608D01*
X101843357Y-128566139D01*
X101836833Y-128570049D01*
X101829958Y-128573301D01*
X101822797Y-128575863D01*
X101815419Y-128577711D01*
X101807896Y-128578827D01*
X101800300Y-128579200D01*
X101645300Y-128579200D01*
X101637704Y-128578827D01*
X101630181Y-128577711D01*
X101622803Y-128575863D01*
X101615642Y-128573301D01*
X101608767Y-128570049D01*
X101602243Y-128566139D01*
X101596135Y-128561608D01*
X101590499Y-128556501D01*
X101585392Y-128550865D01*
X101580861Y-128544757D01*
X101576951Y-128538233D01*
X101573699Y-128531358D01*
X101571137Y-128524197D01*
X101569289Y-128516819D01*
X101568173Y-128509296D01*
X101567800Y-128501700D01*
X101567800Y-128316700D01*
X101568173Y-128309104D01*
X101569289Y-128301581D01*
X101571137Y-128294203D01*
X101573699Y-128287042D01*
X101576951Y-128280167D01*
X101580861Y-128273643D01*
X101585392Y-128267535D01*
X101590499Y-128261899D01*
X101596135Y-128256792D01*
X101602243Y-128252261D01*
X101608767Y-128248351D01*
X101615642Y-128245099D01*
X101622803Y-128242537D01*
X101630181Y-128240689D01*
X101637704Y-128239573D01*
X101645300Y-128239200D01*
X101800300Y-128239200D01*
X101807896Y-128239573D01*
G37*
G04 #@! TD.AperFunction*
G04 #@! TA.AperFunction,SMDPad,CuDef*
G36*
X101257896Y-128239573D02*
G01*
X101265419Y-128240689D01*
X101272797Y-128242537D01*
X101279958Y-128245099D01*
X101286833Y-128248351D01*
X101293357Y-128252261D01*
X101299465Y-128256792D01*
X101305101Y-128261899D01*
X101310208Y-128267535D01*
X101314739Y-128273643D01*
X101318649Y-128280167D01*
X101321901Y-128287042D01*
X101324463Y-128294203D01*
X101326311Y-128301581D01*
X101327427Y-128309104D01*
X101327800Y-128316700D01*
X101327800Y-128501700D01*
X101327427Y-128509296D01*
X101326311Y-128516819D01*
X101324463Y-128524197D01*
X101321901Y-128531358D01*
X101318649Y-128538233D01*
X101314739Y-128544757D01*
X101310208Y-128550865D01*
X101305101Y-128556501D01*
X101299465Y-128561608D01*
X101293357Y-128566139D01*
X101286833Y-128570049D01*
X101279958Y-128573301D01*
X101272797Y-128575863D01*
X101265419Y-128577711D01*
X101257896Y-128578827D01*
X101250300Y-128579200D01*
X101095300Y-128579200D01*
X101087704Y-128578827D01*
X101080181Y-128577711D01*
X101072803Y-128575863D01*
X101065642Y-128573301D01*
X101058767Y-128570049D01*
X101052243Y-128566139D01*
X101046135Y-128561608D01*
X101040499Y-128556501D01*
X101035392Y-128550865D01*
X101030861Y-128544757D01*
X101026951Y-128538233D01*
X101023699Y-128531358D01*
X101021137Y-128524197D01*
X101019289Y-128516819D01*
X101018173Y-128509296D01*
X101017800Y-128501700D01*
X101017800Y-128316700D01*
X101018173Y-128309104D01*
X101019289Y-128301581D01*
X101021137Y-128294203D01*
X101023699Y-128287042D01*
X101026951Y-128280167D01*
X101030861Y-128273643D01*
X101035392Y-128267535D01*
X101040499Y-128261899D01*
X101046135Y-128256792D01*
X101052243Y-128252261D01*
X101058767Y-128248351D01*
X101065642Y-128245099D01*
X101072803Y-128242537D01*
X101080181Y-128240689D01*
X101087704Y-128239573D01*
X101095300Y-128239200D01*
X101250300Y-128239200D01*
X101257896Y-128239573D01*
G37*
G04 #@! TD.AperFunction*
G04 #@! TA.AperFunction,SMDPad,CuDef*
G36*
X102468296Y-128747573D02*
G01*
X102475819Y-128748689D01*
X102483197Y-128750537D01*
X102490358Y-128753099D01*
X102497233Y-128756351D01*
X102503757Y-128760261D01*
X102509865Y-128764792D01*
X102515501Y-128769899D01*
X102520608Y-128775535D01*
X102525139Y-128781643D01*
X102529049Y-128788167D01*
X102532301Y-128795042D01*
X102534863Y-128802203D01*
X102536711Y-128809581D01*
X102537827Y-128817104D01*
X102538200Y-128824700D01*
X102538200Y-129009700D01*
X102537827Y-129017296D01*
X102536711Y-129024819D01*
X102534863Y-129032197D01*
X102532301Y-129039358D01*
X102529049Y-129046233D01*
X102525139Y-129052757D01*
X102520608Y-129058865D01*
X102515501Y-129064501D01*
X102509865Y-129069608D01*
X102503757Y-129074139D01*
X102497233Y-129078049D01*
X102490358Y-129081301D01*
X102483197Y-129083863D01*
X102475819Y-129085711D01*
X102468296Y-129086827D01*
X102460700Y-129087200D01*
X102305700Y-129087200D01*
X102298104Y-129086827D01*
X102290581Y-129085711D01*
X102283203Y-129083863D01*
X102276042Y-129081301D01*
X102269167Y-129078049D01*
X102262643Y-129074139D01*
X102256535Y-129069608D01*
X102250899Y-129064501D01*
X102245792Y-129058865D01*
X102241261Y-129052757D01*
X102237351Y-129046233D01*
X102234099Y-129039358D01*
X102231537Y-129032197D01*
X102229689Y-129024819D01*
X102228573Y-129017296D01*
X102228200Y-129009700D01*
X102228200Y-128824700D01*
X102228573Y-128817104D01*
X102229689Y-128809581D01*
X102231537Y-128802203D01*
X102234099Y-128795042D01*
X102237351Y-128788167D01*
X102241261Y-128781643D01*
X102245792Y-128775535D01*
X102250899Y-128769899D01*
X102256535Y-128764792D01*
X102262643Y-128760261D01*
X102269167Y-128756351D01*
X102276042Y-128753099D01*
X102283203Y-128750537D01*
X102290581Y-128748689D01*
X102298104Y-128747573D01*
X102305700Y-128747200D01*
X102460700Y-128747200D01*
X102468296Y-128747573D01*
G37*
G04 #@! TD.AperFunction*
G04 #@! TA.AperFunction,SMDPad,CuDef*
G36*
X101918296Y-128747573D02*
G01*
X101925819Y-128748689D01*
X101933197Y-128750537D01*
X101940358Y-128753099D01*
X101947233Y-128756351D01*
X101953757Y-128760261D01*
X101959865Y-128764792D01*
X101965501Y-128769899D01*
X101970608Y-128775535D01*
X101975139Y-128781643D01*
X101979049Y-128788167D01*
X101982301Y-128795042D01*
X101984863Y-128802203D01*
X101986711Y-128809581D01*
X101987827Y-128817104D01*
X101988200Y-128824700D01*
X101988200Y-129009700D01*
X101987827Y-129017296D01*
X101986711Y-129024819D01*
X101984863Y-129032197D01*
X101982301Y-129039358D01*
X101979049Y-129046233D01*
X101975139Y-129052757D01*
X101970608Y-129058865D01*
X101965501Y-129064501D01*
X101959865Y-129069608D01*
X101953757Y-129074139D01*
X101947233Y-129078049D01*
X101940358Y-129081301D01*
X101933197Y-129083863D01*
X101925819Y-129085711D01*
X101918296Y-129086827D01*
X101910700Y-129087200D01*
X101755700Y-129087200D01*
X101748104Y-129086827D01*
X101740581Y-129085711D01*
X101733203Y-129083863D01*
X101726042Y-129081301D01*
X101719167Y-129078049D01*
X101712643Y-129074139D01*
X101706535Y-129069608D01*
X101700899Y-129064501D01*
X101695792Y-129058865D01*
X101691261Y-129052757D01*
X101687351Y-129046233D01*
X101684099Y-129039358D01*
X101681537Y-129032197D01*
X101679689Y-129024819D01*
X101678573Y-129017296D01*
X101678200Y-129009700D01*
X101678200Y-128824700D01*
X101678573Y-128817104D01*
X101679689Y-128809581D01*
X101681537Y-128802203D01*
X101684099Y-128795042D01*
X101687351Y-128788167D01*
X101691261Y-128781643D01*
X101695792Y-128775535D01*
X101700899Y-128769899D01*
X101706535Y-128764792D01*
X101712643Y-128760261D01*
X101719167Y-128756351D01*
X101726042Y-128753099D01*
X101733203Y-128750537D01*
X101740581Y-128748689D01*
X101748104Y-128747573D01*
X101755700Y-128747200D01*
X101910700Y-128747200D01*
X101918296Y-128747573D01*
G37*
G04 #@! TD.AperFunction*
G04 #@! TA.AperFunction,SMDPad,CuDef*
G36*
X101257896Y-127680773D02*
G01*
X101265419Y-127681889D01*
X101272797Y-127683737D01*
X101279958Y-127686299D01*
X101286833Y-127689551D01*
X101293357Y-127693461D01*
X101299465Y-127697992D01*
X101305101Y-127703099D01*
X101310208Y-127708735D01*
X101314739Y-127714843D01*
X101318649Y-127721367D01*
X101321901Y-127728242D01*
X101324463Y-127735403D01*
X101326311Y-127742781D01*
X101327427Y-127750304D01*
X101327800Y-127757900D01*
X101327800Y-127942900D01*
X101327427Y-127950496D01*
X101326311Y-127958019D01*
X101324463Y-127965397D01*
X101321901Y-127972558D01*
X101318649Y-127979433D01*
X101314739Y-127985957D01*
X101310208Y-127992065D01*
X101305101Y-127997701D01*
X101299465Y-128002808D01*
X101293357Y-128007339D01*
X101286833Y-128011249D01*
X101279958Y-128014501D01*
X101272797Y-128017063D01*
X101265419Y-128018911D01*
X101257896Y-128020027D01*
X101250300Y-128020400D01*
X101095300Y-128020400D01*
X101087704Y-128020027D01*
X101080181Y-128018911D01*
X101072803Y-128017063D01*
X101065642Y-128014501D01*
X101058767Y-128011249D01*
X101052243Y-128007339D01*
X101046135Y-128002808D01*
X101040499Y-127997701D01*
X101035392Y-127992065D01*
X101030861Y-127985957D01*
X101026951Y-127979433D01*
X101023699Y-127972558D01*
X101021137Y-127965397D01*
X101019289Y-127958019D01*
X101018173Y-127950496D01*
X101017800Y-127942900D01*
X101017800Y-127757900D01*
X101018173Y-127750304D01*
X101019289Y-127742781D01*
X101021137Y-127735403D01*
X101023699Y-127728242D01*
X101026951Y-127721367D01*
X101030861Y-127714843D01*
X101035392Y-127708735D01*
X101040499Y-127703099D01*
X101046135Y-127697992D01*
X101052243Y-127693461D01*
X101058767Y-127689551D01*
X101065642Y-127686299D01*
X101072803Y-127683737D01*
X101080181Y-127681889D01*
X101087704Y-127680773D01*
X101095300Y-127680400D01*
X101250300Y-127680400D01*
X101257896Y-127680773D01*
G37*
G04 #@! TD.AperFunction*
G04 #@! TA.AperFunction,SMDPad,CuDef*
G36*
X101807896Y-127680773D02*
G01*
X101815419Y-127681889D01*
X101822797Y-127683737D01*
X101829958Y-127686299D01*
X101836833Y-127689551D01*
X101843357Y-127693461D01*
X101849465Y-127697992D01*
X101855101Y-127703099D01*
X101860208Y-127708735D01*
X101864739Y-127714843D01*
X101868649Y-127721367D01*
X101871901Y-127728242D01*
X101874463Y-127735403D01*
X101876311Y-127742781D01*
X101877427Y-127750304D01*
X101877800Y-127757900D01*
X101877800Y-127942900D01*
X101877427Y-127950496D01*
X101876311Y-127958019D01*
X101874463Y-127965397D01*
X101871901Y-127972558D01*
X101868649Y-127979433D01*
X101864739Y-127985957D01*
X101860208Y-127992065D01*
X101855101Y-127997701D01*
X101849465Y-128002808D01*
X101843357Y-128007339D01*
X101836833Y-128011249D01*
X101829958Y-128014501D01*
X101822797Y-128017063D01*
X101815419Y-128018911D01*
X101807896Y-128020027D01*
X101800300Y-128020400D01*
X101645300Y-128020400D01*
X101637704Y-128020027D01*
X101630181Y-128018911D01*
X101622803Y-128017063D01*
X101615642Y-128014501D01*
X101608767Y-128011249D01*
X101602243Y-128007339D01*
X101596135Y-128002808D01*
X101590499Y-127997701D01*
X101585392Y-127992065D01*
X101580861Y-127985957D01*
X101576951Y-127979433D01*
X101573699Y-127972558D01*
X101571137Y-127965397D01*
X101569289Y-127958019D01*
X101568173Y-127950496D01*
X101567800Y-127942900D01*
X101567800Y-127757900D01*
X101568173Y-127750304D01*
X101569289Y-127742781D01*
X101571137Y-127735403D01*
X101573699Y-127728242D01*
X101576951Y-127721367D01*
X101580861Y-127714843D01*
X101585392Y-127708735D01*
X101590499Y-127703099D01*
X101596135Y-127697992D01*
X101602243Y-127693461D01*
X101608767Y-127689551D01*
X101615642Y-127686299D01*
X101622803Y-127683737D01*
X101630181Y-127681889D01*
X101637704Y-127680773D01*
X101645300Y-127680400D01*
X101800300Y-127680400D01*
X101807896Y-127680773D01*
G37*
G04 #@! TD.AperFunction*
G04 #@! TA.AperFunction,SMDPad,CuDef*
G36*
X111201896Y-126139373D02*
G01*
X111209419Y-126140489D01*
X111216797Y-126142337D01*
X111223958Y-126144899D01*
X111230833Y-126148151D01*
X111237357Y-126152061D01*
X111243465Y-126156592D01*
X111249101Y-126161699D01*
X111254208Y-126167335D01*
X111258739Y-126173443D01*
X111262649Y-126179967D01*
X111265901Y-126186842D01*
X111268463Y-126194003D01*
X111270311Y-126201381D01*
X111271427Y-126208904D01*
X111271800Y-126216500D01*
X111271800Y-126401500D01*
X111271427Y-126409096D01*
X111270311Y-126416619D01*
X111268463Y-126423997D01*
X111265901Y-126431158D01*
X111262649Y-126438033D01*
X111258739Y-126444557D01*
X111254208Y-126450665D01*
X111249101Y-126456301D01*
X111243465Y-126461408D01*
X111237357Y-126465939D01*
X111230833Y-126469849D01*
X111223958Y-126473101D01*
X111216797Y-126475663D01*
X111209419Y-126477511D01*
X111201896Y-126478627D01*
X111194300Y-126479000D01*
X111039300Y-126479000D01*
X111031704Y-126478627D01*
X111024181Y-126477511D01*
X111016803Y-126475663D01*
X111009642Y-126473101D01*
X111002767Y-126469849D01*
X110996243Y-126465939D01*
X110990135Y-126461408D01*
X110984499Y-126456301D01*
X110979392Y-126450665D01*
X110974861Y-126444557D01*
X110970951Y-126438033D01*
X110967699Y-126431158D01*
X110965137Y-126423997D01*
X110963289Y-126416619D01*
X110962173Y-126409096D01*
X110961800Y-126401500D01*
X110961800Y-126216500D01*
X110962173Y-126208904D01*
X110963289Y-126201381D01*
X110965137Y-126194003D01*
X110967699Y-126186842D01*
X110970951Y-126179967D01*
X110974861Y-126173443D01*
X110979392Y-126167335D01*
X110984499Y-126161699D01*
X110990135Y-126156592D01*
X110996243Y-126152061D01*
X111002767Y-126148151D01*
X111009642Y-126144899D01*
X111016803Y-126142337D01*
X111024181Y-126140489D01*
X111031704Y-126139373D01*
X111039300Y-126139000D01*
X111194300Y-126139000D01*
X111201896Y-126139373D01*
G37*
G04 #@! TD.AperFunction*
G04 #@! TA.AperFunction,SMDPad,CuDef*
G36*
X110651896Y-126139373D02*
G01*
X110659419Y-126140489D01*
X110666797Y-126142337D01*
X110673958Y-126144899D01*
X110680833Y-126148151D01*
X110687357Y-126152061D01*
X110693465Y-126156592D01*
X110699101Y-126161699D01*
X110704208Y-126167335D01*
X110708739Y-126173443D01*
X110712649Y-126179967D01*
X110715901Y-126186842D01*
X110718463Y-126194003D01*
X110720311Y-126201381D01*
X110721427Y-126208904D01*
X110721800Y-126216500D01*
X110721800Y-126401500D01*
X110721427Y-126409096D01*
X110720311Y-126416619D01*
X110718463Y-126423997D01*
X110715901Y-126431158D01*
X110712649Y-126438033D01*
X110708739Y-126444557D01*
X110704208Y-126450665D01*
X110699101Y-126456301D01*
X110693465Y-126461408D01*
X110687357Y-126465939D01*
X110680833Y-126469849D01*
X110673958Y-126473101D01*
X110666797Y-126475663D01*
X110659419Y-126477511D01*
X110651896Y-126478627D01*
X110644300Y-126479000D01*
X110489300Y-126479000D01*
X110481704Y-126478627D01*
X110474181Y-126477511D01*
X110466803Y-126475663D01*
X110459642Y-126473101D01*
X110452767Y-126469849D01*
X110446243Y-126465939D01*
X110440135Y-126461408D01*
X110434499Y-126456301D01*
X110429392Y-126450665D01*
X110424861Y-126444557D01*
X110420951Y-126438033D01*
X110417699Y-126431158D01*
X110415137Y-126423997D01*
X110413289Y-126416619D01*
X110412173Y-126409096D01*
X110411800Y-126401500D01*
X110411800Y-126216500D01*
X110412173Y-126208904D01*
X110413289Y-126201381D01*
X110415137Y-126194003D01*
X110417699Y-126186842D01*
X110420951Y-126179967D01*
X110424861Y-126173443D01*
X110429392Y-126167335D01*
X110434499Y-126161699D01*
X110440135Y-126156592D01*
X110446243Y-126152061D01*
X110452767Y-126148151D01*
X110459642Y-126144899D01*
X110466803Y-126142337D01*
X110474181Y-126140489D01*
X110481704Y-126139373D01*
X110489300Y-126139000D01*
X110644300Y-126139000D01*
X110651896Y-126139373D01*
G37*
G04 #@! TD.AperFunction*
G04 #@! TA.AperFunction,SMDPad,CuDef*
G36*
X107353896Y-124404173D02*
G01*
X107361419Y-124405289D01*
X107368797Y-124407137D01*
X107375958Y-124409699D01*
X107382833Y-124412951D01*
X107389357Y-124416861D01*
X107395465Y-124421392D01*
X107401101Y-124426499D01*
X107406208Y-124432135D01*
X107410739Y-124438243D01*
X107414649Y-124444767D01*
X107417901Y-124451642D01*
X107420463Y-124458803D01*
X107422311Y-124466181D01*
X107423427Y-124473704D01*
X107423800Y-124481300D01*
X107423800Y-124666300D01*
X107423427Y-124673896D01*
X107422311Y-124681419D01*
X107420463Y-124688797D01*
X107417901Y-124695958D01*
X107414649Y-124702833D01*
X107410739Y-124709357D01*
X107406208Y-124715465D01*
X107401101Y-124721101D01*
X107395465Y-124726208D01*
X107389357Y-124730739D01*
X107382833Y-124734649D01*
X107375958Y-124737901D01*
X107368797Y-124740463D01*
X107361419Y-124742311D01*
X107353896Y-124743427D01*
X107346300Y-124743800D01*
X107191300Y-124743800D01*
X107183704Y-124743427D01*
X107176181Y-124742311D01*
X107168803Y-124740463D01*
X107161642Y-124737901D01*
X107154767Y-124734649D01*
X107148243Y-124730739D01*
X107142135Y-124726208D01*
X107136499Y-124721101D01*
X107131392Y-124715465D01*
X107126861Y-124709357D01*
X107122951Y-124702833D01*
X107119699Y-124695958D01*
X107117137Y-124688797D01*
X107115289Y-124681419D01*
X107114173Y-124673896D01*
X107113800Y-124666300D01*
X107113800Y-124481300D01*
X107114173Y-124473704D01*
X107115289Y-124466181D01*
X107117137Y-124458803D01*
X107119699Y-124451642D01*
X107122951Y-124444767D01*
X107126861Y-124438243D01*
X107131392Y-124432135D01*
X107136499Y-124426499D01*
X107142135Y-124421392D01*
X107148243Y-124416861D01*
X107154767Y-124412951D01*
X107161642Y-124409699D01*
X107168803Y-124407137D01*
X107176181Y-124405289D01*
X107183704Y-124404173D01*
X107191300Y-124403800D01*
X107346300Y-124403800D01*
X107353896Y-124404173D01*
G37*
G04 #@! TD.AperFunction*
G04 #@! TA.AperFunction,SMDPad,CuDef*
G36*
X107903896Y-124404173D02*
G01*
X107911419Y-124405289D01*
X107918797Y-124407137D01*
X107925958Y-124409699D01*
X107932833Y-124412951D01*
X107939357Y-124416861D01*
X107945465Y-124421392D01*
X107951101Y-124426499D01*
X107956208Y-124432135D01*
X107960739Y-124438243D01*
X107964649Y-124444767D01*
X107967901Y-124451642D01*
X107970463Y-124458803D01*
X107972311Y-124466181D01*
X107973427Y-124473704D01*
X107973800Y-124481300D01*
X107973800Y-124666300D01*
X107973427Y-124673896D01*
X107972311Y-124681419D01*
X107970463Y-124688797D01*
X107967901Y-124695958D01*
X107964649Y-124702833D01*
X107960739Y-124709357D01*
X107956208Y-124715465D01*
X107951101Y-124721101D01*
X107945465Y-124726208D01*
X107939357Y-124730739D01*
X107932833Y-124734649D01*
X107925958Y-124737901D01*
X107918797Y-124740463D01*
X107911419Y-124742311D01*
X107903896Y-124743427D01*
X107896300Y-124743800D01*
X107741300Y-124743800D01*
X107733704Y-124743427D01*
X107726181Y-124742311D01*
X107718803Y-124740463D01*
X107711642Y-124737901D01*
X107704767Y-124734649D01*
X107698243Y-124730739D01*
X107692135Y-124726208D01*
X107686499Y-124721101D01*
X107681392Y-124715465D01*
X107676861Y-124709357D01*
X107672951Y-124702833D01*
X107669699Y-124695958D01*
X107667137Y-124688797D01*
X107665289Y-124681419D01*
X107664173Y-124673896D01*
X107663800Y-124666300D01*
X107663800Y-124481300D01*
X107664173Y-124473704D01*
X107665289Y-124466181D01*
X107667137Y-124458803D01*
X107669699Y-124451642D01*
X107672951Y-124444767D01*
X107676861Y-124438243D01*
X107681392Y-124432135D01*
X107686499Y-124426499D01*
X107692135Y-124421392D01*
X107698243Y-124416861D01*
X107704767Y-124412951D01*
X107711642Y-124409699D01*
X107718803Y-124407137D01*
X107726181Y-124405289D01*
X107733704Y-124404173D01*
X107741300Y-124403800D01*
X107896300Y-124403800D01*
X107903896Y-124404173D01*
G37*
G04 #@! TD.AperFunction*
D11*
X108330200Y-128061600D03*
X111380200Y-128061600D03*
G04 #@! TA.AperFunction,SMDPad,CuDef*
D10*
G36*
X106895358Y-127048510D02*
G01*
X106909676Y-127050634D01*
X106923717Y-127054151D01*
X106937346Y-127059028D01*
X106950431Y-127065217D01*
X106962847Y-127072658D01*
X106974473Y-127081281D01*
X106985198Y-127091002D01*
X106994919Y-127101727D01*
X107003542Y-127113353D01*
X107010983Y-127125769D01*
X107017172Y-127138854D01*
X107022049Y-127152483D01*
X107025566Y-127166524D01*
X107027690Y-127180842D01*
X107028400Y-127195300D01*
X107028400Y-127540300D01*
X107027690Y-127554758D01*
X107025566Y-127569076D01*
X107022049Y-127583117D01*
X107017172Y-127596746D01*
X107010983Y-127609831D01*
X107003542Y-127622247D01*
X106994919Y-127633873D01*
X106985198Y-127644598D01*
X106974473Y-127654319D01*
X106962847Y-127662942D01*
X106950431Y-127670383D01*
X106937346Y-127676572D01*
X106923717Y-127681449D01*
X106909676Y-127684966D01*
X106895358Y-127687090D01*
X106880900Y-127687800D01*
X106585900Y-127687800D01*
X106571442Y-127687090D01*
X106557124Y-127684966D01*
X106543083Y-127681449D01*
X106529454Y-127676572D01*
X106516369Y-127670383D01*
X106503953Y-127662942D01*
X106492327Y-127654319D01*
X106481602Y-127644598D01*
X106471881Y-127633873D01*
X106463258Y-127622247D01*
X106455817Y-127609831D01*
X106449628Y-127596746D01*
X106444751Y-127583117D01*
X106441234Y-127569076D01*
X106439110Y-127554758D01*
X106438400Y-127540300D01*
X106438400Y-127195300D01*
X106439110Y-127180842D01*
X106441234Y-127166524D01*
X106444751Y-127152483D01*
X106449628Y-127138854D01*
X106455817Y-127125769D01*
X106463258Y-127113353D01*
X106471881Y-127101727D01*
X106481602Y-127091002D01*
X106492327Y-127081281D01*
X106503953Y-127072658D01*
X106516369Y-127065217D01*
X106529454Y-127059028D01*
X106543083Y-127054151D01*
X106557124Y-127050634D01*
X106571442Y-127048510D01*
X106585900Y-127047800D01*
X106880900Y-127047800D01*
X106895358Y-127048510D01*
G37*
G04 #@! TD.AperFunction*
G04 #@! TA.AperFunction,SMDPad,CuDef*
G36*
X105925358Y-127048510D02*
G01*
X105939676Y-127050634D01*
X105953717Y-127054151D01*
X105967346Y-127059028D01*
X105980431Y-127065217D01*
X105992847Y-127072658D01*
X106004473Y-127081281D01*
X106015198Y-127091002D01*
X106024919Y-127101727D01*
X106033542Y-127113353D01*
X106040983Y-127125769D01*
X106047172Y-127138854D01*
X106052049Y-127152483D01*
X106055566Y-127166524D01*
X106057690Y-127180842D01*
X106058400Y-127195300D01*
X106058400Y-127540300D01*
X106057690Y-127554758D01*
X106055566Y-127569076D01*
X106052049Y-127583117D01*
X106047172Y-127596746D01*
X106040983Y-127609831D01*
X106033542Y-127622247D01*
X106024919Y-127633873D01*
X106015198Y-127644598D01*
X106004473Y-127654319D01*
X105992847Y-127662942D01*
X105980431Y-127670383D01*
X105967346Y-127676572D01*
X105953717Y-127681449D01*
X105939676Y-127684966D01*
X105925358Y-127687090D01*
X105910900Y-127687800D01*
X105615900Y-127687800D01*
X105601442Y-127687090D01*
X105587124Y-127684966D01*
X105573083Y-127681449D01*
X105559454Y-127676572D01*
X105546369Y-127670383D01*
X105533953Y-127662942D01*
X105522327Y-127654319D01*
X105511602Y-127644598D01*
X105501881Y-127633873D01*
X105493258Y-127622247D01*
X105485817Y-127609831D01*
X105479628Y-127596746D01*
X105474751Y-127583117D01*
X105471234Y-127569076D01*
X105469110Y-127554758D01*
X105468400Y-127540300D01*
X105468400Y-127195300D01*
X105469110Y-127180842D01*
X105471234Y-127166524D01*
X105474751Y-127152483D01*
X105479628Y-127138854D01*
X105485817Y-127125769D01*
X105493258Y-127113353D01*
X105501881Y-127101727D01*
X105511602Y-127091002D01*
X105522327Y-127081281D01*
X105533953Y-127072658D01*
X105546369Y-127065217D01*
X105559454Y-127059028D01*
X105573083Y-127054151D01*
X105587124Y-127050634D01*
X105601442Y-127048510D01*
X105615900Y-127047800D01*
X105910900Y-127047800D01*
X105925358Y-127048510D01*
G37*
G04 #@! TD.AperFunction*
G04 #@! TA.AperFunction,SMDPad,CuDef*
G36*
X102496358Y-127048510D02*
G01*
X102510676Y-127050634D01*
X102524717Y-127054151D01*
X102538346Y-127059028D01*
X102551431Y-127065217D01*
X102563847Y-127072658D01*
X102575473Y-127081281D01*
X102586198Y-127091002D01*
X102595919Y-127101727D01*
X102604542Y-127113353D01*
X102611983Y-127125769D01*
X102618172Y-127138854D01*
X102623049Y-127152483D01*
X102626566Y-127166524D01*
X102628690Y-127180842D01*
X102629400Y-127195300D01*
X102629400Y-127540300D01*
X102628690Y-127554758D01*
X102626566Y-127569076D01*
X102623049Y-127583117D01*
X102618172Y-127596746D01*
X102611983Y-127609831D01*
X102604542Y-127622247D01*
X102595919Y-127633873D01*
X102586198Y-127644598D01*
X102575473Y-127654319D01*
X102563847Y-127662942D01*
X102551431Y-127670383D01*
X102538346Y-127676572D01*
X102524717Y-127681449D01*
X102510676Y-127684966D01*
X102496358Y-127687090D01*
X102481900Y-127687800D01*
X102186900Y-127687800D01*
X102172442Y-127687090D01*
X102158124Y-127684966D01*
X102144083Y-127681449D01*
X102130454Y-127676572D01*
X102117369Y-127670383D01*
X102104953Y-127662942D01*
X102093327Y-127654319D01*
X102082602Y-127644598D01*
X102072881Y-127633873D01*
X102064258Y-127622247D01*
X102056817Y-127609831D01*
X102050628Y-127596746D01*
X102045751Y-127583117D01*
X102042234Y-127569076D01*
X102040110Y-127554758D01*
X102039400Y-127540300D01*
X102039400Y-127195300D01*
X102040110Y-127180842D01*
X102042234Y-127166524D01*
X102045751Y-127152483D01*
X102050628Y-127138854D01*
X102056817Y-127125769D01*
X102064258Y-127113353D01*
X102072881Y-127101727D01*
X102082602Y-127091002D01*
X102093327Y-127081281D01*
X102104953Y-127072658D01*
X102117369Y-127065217D01*
X102130454Y-127059028D01*
X102144083Y-127054151D01*
X102158124Y-127050634D01*
X102172442Y-127048510D01*
X102186900Y-127047800D01*
X102481900Y-127047800D01*
X102496358Y-127048510D01*
G37*
G04 #@! TD.AperFunction*
G04 #@! TA.AperFunction,SMDPad,CuDef*
G36*
X103466358Y-127048510D02*
G01*
X103480676Y-127050634D01*
X103494717Y-127054151D01*
X103508346Y-127059028D01*
X103521431Y-127065217D01*
X103533847Y-127072658D01*
X103545473Y-127081281D01*
X103556198Y-127091002D01*
X103565919Y-127101727D01*
X103574542Y-127113353D01*
X103581983Y-127125769D01*
X103588172Y-127138854D01*
X103593049Y-127152483D01*
X103596566Y-127166524D01*
X103598690Y-127180842D01*
X103599400Y-127195300D01*
X103599400Y-127540300D01*
X103598690Y-127554758D01*
X103596566Y-127569076D01*
X103593049Y-127583117D01*
X103588172Y-127596746D01*
X103581983Y-127609831D01*
X103574542Y-127622247D01*
X103565919Y-127633873D01*
X103556198Y-127644598D01*
X103545473Y-127654319D01*
X103533847Y-127662942D01*
X103521431Y-127670383D01*
X103508346Y-127676572D01*
X103494717Y-127681449D01*
X103480676Y-127684966D01*
X103466358Y-127687090D01*
X103451900Y-127687800D01*
X103156900Y-127687800D01*
X103142442Y-127687090D01*
X103128124Y-127684966D01*
X103114083Y-127681449D01*
X103100454Y-127676572D01*
X103087369Y-127670383D01*
X103074953Y-127662942D01*
X103063327Y-127654319D01*
X103052602Y-127644598D01*
X103042881Y-127633873D01*
X103034258Y-127622247D01*
X103026817Y-127609831D01*
X103020628Y-127596746D01*
X103015751Y-127583117D01*
X103012234Y-127569076D01*
X103010110Y-127554758D01*
X103009400Y-127540300D01*
X103009400Y-127195300D01*
X103010110Y-127180842D01*
X103012234Y-127166524D01*
X103015751Y-127152483D01*
X103020628Y-127138854D01*
X103026817Y-127125769D01*
X103034258Y-127113353D01*
X103042881Y-127101727D01*
X103052602Y-127091002D01*
X103063327Y-127081281D01*
X103074953Y-127072658D01*
X103087369Y-127065217D01*
X103100454Y-127059028D01*
X103114083Y-127054151D01*
X103128124Y-127050634D01*
X103142442Y-127048510D01*
X103156900Y-127047800D01*
X103451900Y-127047800D01*
X103466358Y-127048510D01*
G37*
G04 #@! TD.AperFunction*
D12*
X111523600Y-124475600D03*
X111023600Y-124475600D03*
X110523600Y-124475600D03*
X110523600Y-125535600D03*
X111023600Y-125535600D03*
D13*
X111523600Y-125495600D03*
G04 #@! TA.AperFunction,SMDPad,CuDef*
D10*
G36*
X106134696Y-124886773D02*
G01*
X106142219Y-124887889D01*
X106149597Y-124889737D01*
X106156758Y-124892299D01*
X106163633Y-124895551D01*
X106170157Y-124899461D01*
X106176265Y-124903992D01*
X106181901Y-124909099D01*
X106187008Y-124914735D01*
X106191539Y-124920843D01*
X106195449Y-124927367D01*
X106198701Y-124934242D01*
X106201263Y-124941403D01*
X106203111Y-124948781D01*
X106204227Y-124956304D01*
X106204600Y-124963900D01*
X106204600Y-125148900D01*
X106204227Y-125156496D01*
X106203111Y-125164019D01*
X106201263Y-125171397D01*
X106198701Y-125178558D01*
X106195449Y-125185433D01*
X106191539Y-125191957D01*
X106187008Y-125198065D01*
X106181901Y-125203701D01*
X106176265Y-125208808D01*
X106170157Y-125213339D01*
X106163633Y-125217249D01*
X106156758Y-125220501D01*
X106149597Y-125223063D01*
X106142219Y-125224911D01*
X106134696Y-125226027D01*
X106127100Y-125226400D01*
X105972100Y-125226400D01*
X105964504Y-125226027D01*
X105956981Y-125224911D01*
X105949603Y-125223063D01*
X105942442Y-125220501D01*
X105935567Y-125217249D01*
X105929043Y-125213339D01*
X105922935Y-125208808D01*
X105917299Y-125203701D01*
X105912192Y-125198065D01*
X105907661Y-125191957D01*
X105903751Y-125185433D01*
X105900499Y-125178558D01*
X105897937Y-125171397D01*
X105896089Y-125164019D01*
X105894973Y-125156496D01*
X105894600Y-125148900D01*
X105894600Y-124963900D01*
X105894973Y-124956304D01*
X105896089Y-124948781D01*
X105897937Y-124941403D01*
X105900499Y-124934242D01*
X105903751Y-124927367D01*
X105907661Y-124920843D01*
X105912192Y-124914735D01*
X105917299Y-124909099D01*
X105922935Y-124903992D01*
X105929043Y-124899461D01*
X105935567Y-124895551D01*
X105942442Y-124892299D01*
X105949603Y-124889737D01*
X105956981Y-124887889D01*
X105964504Y-124886773D01*
X105972100Y-124886400D01*
X106127100Y-124886400D01*
X106134696Y-124886773D01*
G37*
G04 #@! TD.AperFunction*
G04 #@! TA.AperFunction,SMDPad,CuDef*
G36*
X106684696Y-124886773D02*
G01*
X106692219Y-124887889D01*
X106699597Y-124889737D01*
X106706758Y-124892299D01*
X106713633Y-124895551D01*
X106720157Y-124899461D01*
X106726265Y-124903992D01*
X106731901Y-124909099D01*
X106737008Y-124914735D01*
X106741539Y-124920843D01*
X106745449Y-124927367D01*
X106748701Y-124934242D01*
X106751263Y-124941403D01*
X106753111Y-124948781D01*
X106754227Y-124956304D01*
X106754600Y-124963900D01*
X106754600Y-125148900D01*
X106754227Y-125156496D01*
X106753111Y-125164019D01*
X106751263Y-125171397D01*
X106748701Y-125178558D01*
X106745449Y-125185433D01*
X106741539Y-125191957D01*
X106737008Y-125198065D01*
X106731901Y-125203701D01*
X106726265Y-125208808D01*
X106720157Y-125213339D01*
X106713633Y-125217249D01*
X106706758Y-125220501D01*
X106699597Y-125223063D01*
X106692219Y-125224911D01*
X106684696Y-125226027D01*
X106677100Y-125226400D01*
X106522100Y-125226400D01*
X106514504Y-125226027D01*
X106506981Y-125224911D01*
X106499603Y-125223063D01*
X106492442Y-125220501D01*
X106485567Y-125217249D01*
X106479043Y-125213339D01*
X106472935Y-125208808D01*
X106467299Y-125203701D01*
X106462192Y-125198065D01*
X106457661Y-125191957D01*
X106453751Y-125185433D01*
X106450499Y-125178558D01*
X106447937Y-125171397D01*
X106446089Y-125164019D01*
X106444973Y-125156496D01*
X106444600Y-125148900D01*
X106444600Y-124963900D01*
X106444973Y-124956304D01*
X106446089Y-124948781D01*
X106447937Y-124941403D01*
X106450499Y-124934242D01*
X106453751Y-124927367D01*
X106457661Y-124920843D01*
X106462192Y-124914735D01*
X106467299Y-124909099D01*
X106472935Y-124903992D01*
X106479043Y-124899461D01*
X106485567Y-124895551D01*
X106492442Y-124892299D01*
X106499603Y-124889737D01*
X106506981Y-124887889D01*
X106514504Y-124886773D01*
X106522100Y-124886400D01*
X106677100Y-124886400D01*
X106684696Y-124886773D01*
G37*
G04 #@! TD.AperFunction*
G04 #@! TA.AperFunction,SMDPad,CuDef*
G36*
X106151296Y-129280973D02*
G01*
X106158819Y-129282089D01*
X106166197Y-129283937D01*
X106173358Y-129286499D01*
X106180233Y-129289751D01*
X106186757Y-129293661D01*
X106192865Y-129298192D01*
X106198501Y-129303299D01*
X106203608Y-129308935D01*
X106208139Y-129315043D01*
X106212049Y-129321567D01*
X106215301Y-129328442D01*
X106217863Y-129335603D01*
X106219711Y-129342981D01*
X106220827Y-129350504D01*
X106221200Y-129358100D01*
X106221200Y-129543100D01*
X106220827Y-129550696D01*
X106219711Y-129558219D01*
X106217863Y-129565597D01*
X106215301Y-129572758D01*
X106212049Y-129579633D01*
X106208139Y-129586157D01*
X106203608Y-129592265D01*
X106198501Y-129597901D01*
X106192865Y-129603008D01*
X106186757Y-129607539D01*
X106180233Y-129611449D01*
X106173358Y-129614701D01*
X106166197Y-129617263D01*
X106158819Y-129619111D01*
X106151296Y-129620227D01*
X106143700Y-129620600D01*
X105988700Y-129620600D01*
X105981104Y-129620227D01*
X105973581Y-129619111D01*
X105966203Y-129617263D01*
X105959042Y-129614701D01*
X105952167Y-129611449D01*
X105945643Y-129607539D01*
X105939535Y-129603008D01*
X105933899Y-129597901D01*
X105928792Y-129592265D01*
X105924261Y-129586157D01*
X105920351Y-129579633D01*
X105917099Y-129572758D01*
X105914537Y-129565597D01*
X105912689Y-129558219D01*
X105911573Y-129550696D01*
X105911200Y-129543100D01*
X105911200Y-129358100D01*
X105911573Y-129350504D01*
X105912689Y-129342981D01*
X105914537Y-129335603D01*
X105917099Y-129328442D01*
X105920351Y-129321567D01*
X105924261Y-129315043D01*
X105928792Y-129308935D01*
X105933899Y-129303299D01*
X105939535Y-129298192D01*
X105945643Y-129293661D01*
X105952167Y-129289751D01*
X105959042Y-129286499D01*
X105966203Y-129283937D01*
X105973581Y-129282089D01*
X105981104Y-129280973D01*
X105988700Y-129280600D01*
X106143700Y-129280600D01*
X106151296Y-129280973D01*
G37*
G04 #@! TD.AperFunction*
G04 #@! TA.AperFunction,SMDPad,CuDef*
G36*
X105601296Y-129280973D02*
G01*
X105608819Y-129282089D01*
X105616197Y-129283937D01*
X105623358Y-129286499D01*
X105630233Y-129289751D01*
X105636757Y-129293661D01*
X105642865Y-129298192D01*
X105648501Y-129303299D01*
X105653608Y-129308935D01*
X105658139Y-129315043D01*
X105662049Y-129321567D01*
X105665301Y-129328442D01*
X105667863Y-129335603D01*
X105669711Y-129342981D01*
X105670827Y-129350504D01*
X105671200Y-129358100D01*
X105671200Y-129543100D01*
X105670827Y-129550696D01*
X105669711Y-129558219D01*
X105667863Y-129565597D01*
X105665301Y-129572758D01*
X105662049Y-129579633D01*
X105658139Y-129586157D01*
X105653608Y-129592265D01*
X105648501Y-129597901D01*
X105642865Y-129603008D01*
X105636757Y-129607539D01*
X105630233Y-129611449D01*
X105623358Y-129614701D01*
X105616197Y-129617263D01*
X105608819Y-129619111D01*
X105601296Y-129620227D01*
X105593700Y-129620600D01*
X105438700Y-129620600D01*
X105431104Y-129620227D01*
X105423581Y-129619111D01*
X105416203Y-129617263D01*
X105409042Y-129614701D01*
X105402167Y-129611449D01*
X105395643Y-129607539D01*
X105389535Y-129603008D01*
X105383899Y-129597901D01*
X105378792Y-129592265D01*
X105374261Y-129586157D01*
X105370351Y-129579633D01*
X105367099Y-129572758D01*
X105364537Y-129565597D01*
X105362689Y-129558219D01*
X105361573Y-129550696D01*
X105361200Y-129543100D01*
X105361200Y-129358100D01*
X105361573Y-129350504D01*
X105362689Y-129342981D01*
X105364537Y-129335603D01*
X105367099Y-129328442D01*
X105370351Y-129321567D01*
X105374261Y-129315043D01*
X105378792Y-129308935D01*
X105383899Y-129303299D01*
X105389535Y-129298192D01*
X105395643Y-129293661D01*
X105402167Y-129289751D01*
X105409042Y-129286499D01*
X105416203Y-129283937D01*
X105423581Y-129282089D01*
X105431104Y-129280973D01*
X105438700Y-129280600D01*
X105593700Y-129280600D01*
X105601296Y-129280973D01*
G37*
G04 #@! TD.AperFunction*
G04 #@! TA.AperFunction,SMDPad,CuDef*
G36*
X105617896Y-124302573D02*
G01*
X105625419Y-124303689D01*
X105632797Y-124305537D01*
X105639958Y-124308099D01*
X105646833Y-124311351D01*
X105653357Y-124315261D01*
X105659465Y-124319792D01*
X105665101Y-124324899D01*
X105670208Y-124330535D01*
X105674739Y-124336643D01*
X105678649Y-124343167D01*
X105681901Y-124350042D01*
X105684463Y-124357203D01*
X105686311Y-124364581D01*
X105687427Y-124372104D01*
X105687800Y-124379700D01*
X105687800Y-124564700D01*
X105687427Y-124572296D01*
X105686311Y-124579819D01*
X105684463Y-124587197D01*
X105681901Y-124594358D01*
X105678649Y-124601233D01*
X105674739Y-124607757D01*
X105670208Y-124613865D01*
X105665101Y-124619501D01*
X105659465Y-124624608D01*
X105653357Y-124629139D01*
X105646833Y-124633049D01*
X105639958Y-124636301D01*
X105632797Y-124638863D01*
X105625419Y-124640711D01*
X105617896Y-124641827D01*
X105610300Y-124642200D01*
X105455300Y-124642200D01*
X105447704Y-124641827D01*
X105440181Y-124640711D01*
X105432803Y-124638863D01*
X105425642Y-124636301D01*
X105418767Y-124633049D01*
X105412243Y-124629139D01*
X105406135Y-124624608D01*
X105400499Y-124619501D01*
X105395392Y-124613865D01*
X105390861Y-124607757D01*
X105386951Y-124601233D01*
X105383699Y-124594358D01*
X105381137Y-124587197D01*
X105379289Y-124579819D01*
X105378173Y-124572296D01*
X105377800Y-124564700D01*
X105377800Y-124379700D01*
X105378173Y-124372104D01*
X105379289Y-124364581D01*
X105381137Y-124357203D01*
X105383699Y-124350042D01*
X105386951Y-124343167D01*
X105390861Y-124336643D01*
X105395392Y-124330535D01*
X105400499Y-124324899D01*
X105406135Y-124319792D01*
X105412243Y-124315261D01*
X105418767Y-124311351D01*
X105425642Y-124308099D01*
X105432803Y-124305537D01*
X105440181Y-124303689D01*
X105447704Y-124302573D01*
X105455300Y-124302200D01*
X105610300Y-124302200D01*
X105617896Y-124302573D01*
G37*
G04 #@! TD.AperFunction*
G04 #@! TA.AperFunction,SMDPad,CuDef*
G36*
X105067896Y-124302573D02*
G01*
X105075419Y-124303689D01*
X105082797Y-124305537D01*
X105089958Y-124308099D01*
X105096833Y-124311351D01*
X105103357Y-124315261D01*
X105109465Y-124319792D01*
X105115101Y-124324899D01*
X105120208Y-124330535D01*
X105124739Y-124336643D01*
X105128649Y-124343167D01*
X105131901Y-124350042D01*
X105134463Y-124357203D01*
X105136311Y-124364581D01*
X105137427Y-124372104D01*
X105137800Y-124379700D01*
X105137800Y-124564700D01*
X105137427Y-124572296D01*
X105136311Y-124579819D01*
X105134463Y-124587197D01*
X105131901Y-124594358D01*
X105128649Y-124601233D01*
X105124739Y-124607757D01*
X105120208Y-124613865D01*
X105115101Y-124619501D01*
X105109465Y-124624608D01*
X105103357Y-124629139D01*
X105096833Y-124633049D01*
X105089958Y-124636301D01*
X105082797Y-124638863D01*
X105075419Y-124640711D01*
X105067896Y-124641827D01*
X105060300Y-124642200D01*
X104905300Y-124642200D01*
X104897704Y-124641827D01*
X104890181Y-124640711D01*
X104882803Y-124638863D01*
X104875642Y-124636301D01*
X104868767Y-124633049D01*
X104862243Y-124629139D01*
X104856135Y-124624608D01*
X104850499Y-124619501D01*
X104845392Y-124613865D01*
X104840861Y-124607757D01*
X104836951Y-124601233D01*
X104833699Y-124594358D01*
X104831137Y-124587197D01*
X104829289Y-124579819D01*
X104828173Y-124572296D01*
X104827800Y-124564700D01*
X104827800Y-124379700D01*
X104828173Y-124372104D01*
X104829289Y-124364581D01*
X104831137Y-124357203D01*
X104833699Y-124350042D01*
X104836951Y-124343167D01*
X104840861Y-124336643D01*
X104845392Y-124330535D01*
X104850499Y-124324899D01*
X104856135Y-124319792D01*
X104862243Y-124315261D01*
X104868767Y-124311351D01*
X104875642Y-124308099D01*
X104882803Y-124305537D01*
X104890181Y-124303689D01*
X104897704Y-124302573D01*
X104905300Y-124302200D01*
X105060300Y-124302200D01*
X105067896Y-124302573D01*
G37*
G04 #@! TD.AperFunction*
G04 #@! TA.AperFunction,SMDPad,CuDef*
G36*
X111162558Y-129571110D02*
G01*
X111176876Y-129573234D01*
X111190917Y-129576751D01*
X111204546Y-129581628D01*
X111217631Y-129587817D01*
X111230047Y-129595258D01*
X111241673Y-129603881D01*
X111252398Y-129613602D01*
X111262119Y-129624327D01*
X111270742Y-129635953D01*
X111278183Y-129648369D01*
X111284372Y-129661454D01*
X111289249Y-129675083D01*
X111292766Y-129689124D01*
X111294890Y-129703442D01*
X111295600Y-129717900D01*
X111295600Y-130062900D01*
X111294890Y-130077358D01*
X111292766Y-130091676D01*
X111289249Y-130105717D01*
X111284372Y-130119346D01*
X111278183Y-130132431D01*
X111270742Y-130144847D01*
X111262119Y-130156473D01*
X111252398Y-130167198D01*
X111241673Y-130176919D01*
X111230047Y-130185542D01*
X111217631Y-130192983D01*
X111204546Y-130199172D01*
X111190917Y-130204049D01*
X111176876Y-130207566D01*
X111162558Y-130209690D01*
X111148100Y-130210400D01*
X110853100Y-130210400D01*
X110838642Y-130209690D01*
X110824324Y-130207566D01*
X110810283Y-130204049D01*
X110796654Y-130199172D01*
X110783569Y-130192983D01*
X110771153Y-130185542D01*
X110759527Y-130176919D01*
X110748802Y-130167198D01*
X110739081Y-130156473D01*
X110730458Y-130144847D01*
X110723017Y-130132431D01*
X110716828Y-130119346D01*
X110711951Y-130105717D01*
X110708434Y-130091676D01*
X110706310Y-130077358D01*
X110705600Y-130062900D01*
X110705600Y-129717900D01*
X110706310Y-129703442D01*
X110708434Y-129689124D01*
X110711951Y-129675083D01*
X110716828Y-129661454D01*
X110723017Y-129648369D01*
X110730458Y-129635953D01*
X110739081Y-129624327D01*
X110748802Y-129613602D01*
X110759527Y-129603881D01*
X110771153Y-129595258D01*
X110783569Y-129587817D01*
X110796654Y-129581628D01*
X110810283Y-129576751D01*
X110824324Y-129573234D01*
X110838642Y-129571110D01*
X110853100Y-129570400D01*
X111148100Y-129570400D01*
X111162558Y-129571110D01*
G37*
G04 #@! TD.AperFunction*
G04 #@! TA.AperFunction,SMDPad,CuDef*
G36*
X110192558Y-129571110D02*
G01*
X110206876Y-129573234D01*
X110220917Y-129576751D01*
X110234546Y-129581628D01*
X110247631Y-129587817D01*
X110260047Y-129595258D01*
X110271673Y-129603881D01*
X110282398Y-129613602D01*
X110292119Y-129624327D01*
X110300742Y-129635953D01*
X110308183Y-129648369D01*
X110314372Y-129661454D01*
X110319249Y-129675083D01*
X110322766Y-129689124D01*
X110324890Y-129703442D01*
X110325600Y-129717900D01*
X110325600Y-130062900D01*
X110324890Y-130077358D01*
X110322766Y-130091676D01*
X110319249Y-130105717D01*
X110314372Y-130119346D01*
X110308183Y-130132431D01*
X110300742Y-130144847D01*
X110292119Y-130156473D01*
X110282398Y-130167198D01*
X110271673Y-130176919D01*
X110260047Y-130185542D01*
X110247631Y-130192983D01*
X110234546Y-130199172D01*
X110220917Y-130204049D01*
X110206876Y-130207566D01*
X110192558Y-130209690D01*
X110178100Y-130210400D01*
X109883100Y-130210400D01*
X109868642Y-130209690D01*
X109854324Y-130207566D01*
X109840283Y-130204049D01*
X109826654Y-130199172D01*
X109813569Y-130192983D01*
X109801153Y-130185542D01*
X109789527Y-130176919D01*
X109778802Y-130167198D01*
X109769081Y-130156473D01*
X109760458Y-130144847D01*
X109753017Y-130132431D01*
X109746828Y-130119346D01*
X109741951Y-130105717D01*
X109738434Y-130091676D01*
X109736310Y-130077358D01*
X109735600Y-130062900D01*
X109735600Y-129717900D01*
X109736310Y-129703442D01*
X109738434Y-129689124D01*
X109741951Y-129675083D01*
X109746828Y-129661454D01*
X109753017Y-129648369D01*
X109760458Y-129635953D01*
X109769081Y-129624327D01*
X109778802Y-129613602D01*
X109789527Y-129603881D01*
X109801153Y-129595258D01*
X109813569Y-129587817D01*
X109826654Y-129581628D01*
X109840283Y-129576751D01*
X109854324Y-129573234D01*
X109868642Y-129571110D01*
X109883100Y-129570400D01*
X110178100Y-129570400D01*
X110192558Y-129571110D01*
G37*
G04 #@! TD.AperFunction*
G04 #@! TA.AperFunction,SMDPad,CuDef*
G36*
X105617896Y-124886773D02*
G01*
X105625419Y-124887889D01*
X105632797Y-124889737D01*
X105639958Y-124892299D01*
X105646833Y-124895551D01*
X105653357Y-124899461D01*
X105659465Y-124903992D01*
X105665101Y-124909099D01*
X105670208Y-124914735D01*
X105674739Y-124920843D01*
X105678649Y-124927367D01*
X105681901Y-124934242D01*
X105684463Y-124941403D01*
X105686311Y-124948781D01*
X105687427Y-124956304D01*
X105687800Y-124963900D01*
X105687800Y-125148900D01*
X105687427Y-125156496D01*
X105686311Y-125164019D01*
X105684463Y-125171397D01*
X105681901Y-125178558D01*
X105678649Y-125185433D01*
X105674739Y-125191957D01*
X105670208Y-125198065D01*
X105665101Y-125203701D01*
X105659465Y-125208808D01*
X105653357Y-125213339D01*
X105646833Y-125217249D01*
X105639958Y-125220501D01*
X105632797Y-125223063D01*
X105625419Y-125224911D01*
X105617896Y-125226027D01*
X105610300Y-125226400D01*
X105455300Y-125226400D01*
X105447704Y-125226027D01*
X105440181Y-125224911D01*
X105432803Y-125223063D01*
X105425642Y-125220501D01*
X105418767Y-125217249D01*
X105412243Y-125213339D01*
X105406135Y-125208808D01*
X105400499Y-125203701D01*
X105395392Y-125198065D01*
X105390861Y-125191957D01*
X105386951Y-125185433D01*
X105383699Y-125178558D01*
X105381137Y-125171397D01*
X105379289Y-125164019D01*
X105378173Y-125156496D01*
X105377800Y-125148900D01*
X105377800Y-124963900D01*
X105378173Y-124956304D01*
X105379289Y-124948781D01*
X105381137Y-124941403D01*
X105383699Y-124934242D01*
X105386951Y-124927367D01*
X105390861Y-124920843D01*
X105395392Y-124914735D01*
X105400499Y-124909099D01*
X105406135Y-124903992D01*
X105412243Y-124899461D01*
X105418767Y-124895551D01*
X105425642Y-124892299D01*
X105432803Y-124889737D01*
X105440181Y-124887889D01*
X105447704Y-124886773D01*
X105455300Y-124886400D01*
X105610300Y-124886400D01*
X105617896Y-124886773D01*
G37*
G04 #@! TD.AperFunction*
G04 #@! TA.AperFunction,SMDPad,CuDef*
G36*
X105067896Y-124886773D02*
G01*
X105075419Y-124887889D01*
X105082797Y-124889737D01*
X105089958Y-124892299D01*
X105096833Y-124895551D01*
X105103357Y-124899461D01*
X105109465Y-124903992D01*
X105115101Y-124909099D01*
X105120208Y-124914735D01*
X105124739Y-124920843D01*
X105128649Y-124927367D01*
X105131901Y-124934242D01*
X105134463Y-124941403D01*
X105136311Y-124948781D01*
X105137427Y-124956304D01*
X105137800Y-124963900D01*
X105137800Y-125148900D01*
X105137427Y-125156496D01*
X105136311Y-125164019D01*
X105134463Y-125171397D01*
X105131901Y-125178558D01*
X105128649Y-125185433D01*
X105124739Y-125191957D01*
X105120208Y-125198065D01*
X105115101Y-125203701D01*
X105109465Y-125208808D01*
X105103357Y-125213339D01*
X105096833Y-125217249D01*
X105089958Y-125220501D01*
X105082797Y-125223063D01*
X105075419Y-125224911D01*
X105067896Y-125226027D01*
X105060300Y-125226400D01*
X104905300Y-125226400D01*
X104897704Y-125226027D01*
X104890181Y-125224911D01*
X104882803Y-125223063D01*
X104875642Y-125220501D01*
X104868767Y-125217249D01*
X104862243Y-125213339D01*
X104856135Y-125208808D01*
X104850499Y-125203701D01*
X104845392Y-125198065D01*
X104840861Y-125191957D01*
X104836951Y-125185433D01*
X104833699Y-125178558D01*
X104831137Y-125171397D01*
X104829289Y-125164019D01*
X104828173Y-125156496D01*
X104827800Y-125148900D01*
X104827800Y-124963900D01*
X104828173Y-124956304D01*
X104829289Y-124948781D01*
X104831137Y-124941403D01*
X104833699Y-124934242D01*
X104836951Y-124927367D01*
X104840861Y-124920843D01*
X104845392Y-124914735D01*
X104850499Y-124909099D01*
X104856135Y-124903992D01*
X104862243Y-124899461D01*
X104868767Y-124895551D01*
X104875642Y-124892299D01*
X104882803Y-124889737D01*
X104890181Y-124887889D01*
X104897704Y-124886773D01*
X104905300Y-124886400D01*
X105060300Y-124886400D01*
X105067896Y-124886773D01*
G37*
G04 #@! TD.AperFunction*
G04 #@! TA.AperFunction,SMDPad,CuDef*
G36*
X106134696Y-124302573D02*
G01*
X106142219Y-124303689D01*
X106149597Y-124305537D01*
X106156758Y-124308099D01*
X106163633Y-124311351D01*
X106170157Y-124315261D01*
X106176265Y-124319792D01*
X106181901Y-124324899D01*
X106187008Y-124330535D01*
X106191539Y-124336643D01*
X106195449Y-124343167D01*
X106198701Y-124350042D01*
X106201263Y-124357203D01*
X106203111Y-124364581D01*
X106204227Y-124372104D01*
X106204600Y-124379700D01*
X106204600Y-124564700D01*
X106204227Y-124572296D01*
X106203111Y-124579819D01*
X106201263Y-124587197D01*
X106198701Y-124594358D01*
X106195449Y-124601233D01*
X106191539Y-124607757D01*
X106187008Y-124613865D01*
X106181901Y-124619501D01*
X106176265Y-124624608D01*
X106170157Y-124629139D01*
X106163633Y-124633049D01*
X106156758Y-124636301D01*
X106149597Y-124638863D01*
X106142219Y-124640711D01*
X106134696Y-124641827D01*
X106127100Y-124642200D01*
X105972100Y-124642200D01*
X105964504Y-124641827D01*
X105956981Y-124640711D01*
X105949603Y-124638863D01*
X105942442Y-124636301D01*
X105935567Y-124633049D01*
X105929043Y-124629139D01*
X105922935Y-124624608D01*
X105917299Y-124619501D01*
X105912192Y-124613865D01*
X105907661Y-124607757D01*
X105903751Y-124601233D01*
X105900499Y-124594358D01*
X105897937Y-124587197D01*
X105896089Y-124579819D01*
X105894973Y-124572296D01*
X105894600Y-124564700D01*
X105894600Y-124379700D01*
X105894973Y-124372104D01*
X105896089Y-124364581D01*
X105897937Y-124357203D01*
X105900499Y-124350042D01*
X105903751Y-124343167D01*
X105907661Y-124336643D01*
X105912192Y-124330535D01*
X105917299Y-124324899D01*
X105922935Y-124319792D01*
X105929043Y-124315261D01*
X105935567Y-124311351D01*
X105942442Y-124308099D01*
X105949603Y-124305537D01*
X105956981Y-124303689D01*
X105964504Y-124302573D01*
X105972100Y-124302200D01*
X106127100Y-124302200D01*
X106134696Y-124302573D01*
G37*
G04 #@! TD.AperFunction*
G04 #@! TA.AperFunction,SMDPad,CuDef*
G36*
X106684696Y-124302573D02*
G01*
X106692219Y-124303689D01*
X106699597Y-124305537D01*
X106706758Y-124308099D01*
X106713633Y-124311351D01*
X106720157Y-124315261D01*
X106726265Y-124319792D01*
X106731901Y-124324899D01*
X106737008Y-124330535D01*
X106741539Y-124336643D01*
X106745449Y-124343167D01*
X106748701Y-124350042D01*
X106751263Y-124357203D01*
X106753111Y-124364581D01*
X106754227Y-124372104D01*
X106754600Y-124379700D01*
X106754600Y-124564700D01*
X106754227Y-124572296D01*
X106753111Y-124579819D01*
X106751263Y-124587197D01*
X106748701Y-124594358D01*
X106745449Y-124601233D01*
X106741539Y-124607757D01*
X106737008Y-124613865D01*
X106731901Y-124619501D01*
X106726265Y-124624608D01*
X106720157Y-124629139D01*
X106713633Y-124633049D01*
X106706758Y-124636301D01*
X106699597Y-124638863D01*
X106692219Y-124640711D01*
X106684696Y-124641827D01*
X106677100Y-124642200D01*
X106522100Y-124642200D01*
X106514504Y-124641827D01*
X106506981Y-124640711D01*
X106499603Y-124638863D01*
X106492442Y-124636301D01*
X106485567Y-124633049D01*
X106479043Y-124629139D01*
X106472935Y-124624608D01*
X106467299Y-124619501D01*
X106462192Y-124613865D01*
X106457661Y-124607757D01*
X106453751Y-124601233D01*
X106450499Y-124594358D01*
X106447937Y-124587197D01*
X106446089Y-124579819D01*
X106444973Y-124572296D01*
X106444600Y-124564700D01*
X106444600Y-124379700D01*
X106444973Y-124372104D01*
X106446089Y-124364581D01*
X106447937Y-124357203D01*
X106450499Y-124350042D01*
X106453751Y-124343167D01*
X106457661Y-124336643D01*
X106462192Y-124330535D01*
X106467299Y-124324899D01*
X106472935Y-124319792D01*
X106479043Y-124315261D01*
X106485567Y-124311351D01*
X106492442Y-124308099D01*
X106499603Y-124305537D01*
X106506981Y-124303689D01*
X106514504Y-124302573D01*
X106522100Y-124302200D01*
X106677100Y-124302200D01*
X106684696Y-124302573D01*
G37*
G04 #@! TD.AperFunction*
G04 #@! TA.AperFunction,SMDPad,CuDef*
G36*
X101594696Y-124736373D02*
G01*
X101602219Y-124737489D01*
X101609597Y-124739337D01*
X101616758Y-124741899D01*
X101623633Y-124745151D01*
X101630157Y-124749061D01*
X101636265Y-124753592D01*
X101641901Y-124758699D01*
X101647008Y-124764335D01*
X101651539Y-124770443D01*
X101655449Y-124776967D01*
X101658701Y-124783842D01*
X101661263Y-124791003D01*
X101663111Y-124798381D01*
X101664227Y-124805904D01*
X101664600Y-124813500D01*
X101664600Y-124968500D01*
X101664227Y-124976096D01*
X101663111Y-124983619D01*
X101661263Y-124990997D01*
X101658701Y-124998158D01*
X101655449Y-125005033D01*
X101651539Y-125011557D01*
X101647008Y-125017665D01*
X101641901Y-125023301D01*
X101636265Y-125028408D01*
X101630157Y-125032939D01*
X101623633Y-125036849D01*
X101616758Y-125040101D01*
X101609597Y-125042663D01*
X101602219Y-125044511D01*
X101594696Y-125045627D01*
X101587100Y-125046000D01*
X101402100Y-125046000D01*
X101394504Y-125045627D01*
X101386981Y-125044511D01*
X101379603Y-125042663D01*
X101372442Y-125040101D01*
X101365567Y-125036849D01*
X101359043Y-125032939D01*
X101352935Y-125028408D01*
X101347299Y-125023301D01*
X101342192Y-125017665D01*
X101337661Y-125011557D01*
X101333751Y-125005033D01*
X101330499Y-124998158D01*
X101327937Y-124990997D01*
X101326089Y-124983619D01*
X101324973Y-124976096D01*
X101324600Y-124968500D01*
X101324600Y-124813500D01*
X101324973Y-124805904D01*
X101326089Y-124798381D01*
X101327937Y-124791003D01*
X101330499Y-124783842D01*
X101333751Y-124776967D01*
X101337661Y-124770443D01*
X101342192Y-124764335D01*
X101347299Y-124758699D01*
X101352935Y-124753592D01*
X101359043Y-124749061D01*
X101365567Y-124745151D01*
X101372442Y-124741899D01*
X101379603Y-124739337D01*
X101386981Y-124737489D01*
X101394504Y-124736373D01*
X101402100Y-124736000D01*
X101587100Y-124736000D01*
X101594696Y-124736373D01*
G37*
G04 #@! TD.AperFunction*
G04 #@! TA.AperFunction,SMDPad,CuDef*
G36*
X101594696Y-125286373D02*
G01*
X101602219Y-125287489D01*
X101609597Y-125289337D01*
X101616758Y-125291899D01*
X101623633Y-125295151D01*
X101630157Y-125299061D01*
X101636265Y-125303592D01*
X101641901Y-125308699D01*
X101647008Y-125314335D01*
X101651539Y-125320443D01*
X101655449Y-125326967D01*
X101658701Y-125333842D01*
X101661263Y-125341003D01*
X101663111Y-125348381D01*
X101664227Y-125355904D01*
X101664600Y-125363500D01*
X101664600Y-125518500D01*
X101664227Y-125526096D01*
X101663111Y-125533619D01*
X101661263Y-125540997D01*
X101658701Y-125548158D01*
X101655449Y-125555033D01*
X101651539Y-125561557D01*
X101647008Y-125567665D01*
X101641901Y-125573301D01*
X101636265Y-125578408D01*
X101630157Y-125582939D01*
X101623633Y-125586849D01*
X101616758Y-125590101D01*
X101609597Y-125592663D01*
X101602219Y-125594511D01*
X101594696Y-125595627D01*
X101587100Y-125596000D01*
X101402100Y-125596000D01*
X101394504Y-125595627D01*
X101386981Y-125594511D01*
X101379603Y-125592663D01*
X101372442Y-125590101D01*
X101365567Y-125586849D01*
X101359043Y-125582939D01*
X101352935Y-125578408D01*
X101347299Y-125573301D01*
X101342192Y-125567665D01*
X101337661Y-125561557D01*
X101333751Y-125555033D01*
X101330499Y-125548158D01*
X101327937Y-125540997D01*
X101326089Y-125533619D01*
X101324973Y-125526096D01*
X101324600Y-125518500D01*
X101324600Y-125363500D01*
X101324973Y-125355904D01*
X101326089Y-125348381D01*
X101327937Y-125341003D01*
X101330499Y-125333842D01*
X101333751Y-125326967D01*
X101337661Y-125320443D01*
X101342192Y-125314335D01*
X101347299Y-125308699D01*
X101352935Y-125303592D01*
X101359043Y-125299061D01*
X101365567Y-125295151D01*
X101372442Y-125291899D01*
X101379603Y-125289337D01*
X101386981Y-125287489D01*
X101394504Y-125286373D01*
X101402100Y-125286000D01*
X101587100Y-125286000D01*
X101594696Y-125286373D01*
G37*
G04 #@! TD.AperFunction*
D14*
X102975800Y-124531000D03*
X103475800Y-124531000D03*
X103975800Y-124531000D03*
D15*
X104025800Y-125731000D03*
D14*
X102975800Y-125731000D03*
X103475800Y-125731000D03*
D16*
X102875800Y-125131000D03*
X104075800Y-125131000D03*
G04 #@! TA.AperFunction,SMDPad,CuDef*
D10*
G36*
X101010496Y-124736373D02*
G01*
X101018019Y-124737489D01*
X101025397Y-124739337D01*
X101032558Y-124741899D01*
X101039433Y-124745151D01*
X101045957Y-124749061D01*
X101052065Y-124753592D01*
X101057701Y-124758699D01*
X101062808Y-124764335D01*
X101067339Y-124770443D01*
X101071249Y-124776967D01*
X101074501Y-124783842D01*
X101077063Y-124791003D01*
X101078911Y-124798381D01*
X101080027Y-124805904D01*
X101080400Y-124813500D01*
X101080400Y-124968500D01*
X101080027Y-124976096D01*
X101078911Y-124983619D01*
X101077063Y-124990997D01*
X101074501Y-124998158D01*
X101071249Y-125005033D01*
X101067339Y-125011557D01*
X101062808Y-125017665D01*
X101057701Y-125023301D01*
X101052065Y-125028408D01*
X101045957Y-125032939D01*
X101039433Y-125036849D01*
X101032558Y-125040101D01*
X101025397Y-125042663D01*
X101018019Y-125044511D01*
X101010496Y-125045627D01*
X101002900Y-125046000D01*
X100817900Y-125046000D01*
X100810304Y-125045627D01*
X100802781Y-125044511D01*
X100795403Y-125042663D01*
X100788242Y-125040101D01*
X100781367Y-125036849D01*
X100774843Y-125032939D01*
X100768735Y-125028408D01*
X100763099Y-125023301D01*
X100757992Y-125017665D01*
X100753461Y-125011557D01*
X100749551Y-125005033D01*
X100746299Y-124998158D01*
X100743737Y-124990997D01*
X100741889Y-124983619D01*
X100740773Y-124976096D01*
X100740400Y-124968500D01*
X100740400Y-124813500D01*
X100740773Y-124805904D01*
X100741889Y-124798381D01*
X100743737Y-124791003D01*
X100746299Y-124783842D01*
X100749551Y-124776967D01*
X100753461Y-124770443D01*
X100757992Y-124764335D01*
X100763099Y-124758699D01*
X100768735Y-124753592D01*
X100774843Y-124749061D01*
X100781367Y-124745151D01*
X100788242Y-124741899D01*
X100795403Y-124739337D01*
X100802781Y-124737489D01*
X100810304Y-124736373D01*
X100817900Y-124736000D01*
X101002900Y-124736000D01*
X101010496Y-124736373D01*
G37*
G04 #@! TD.AperFunction*
G04 #@! TA.AperFunction,SMDPad,CuDef*
G36*
X101010496Y-125286373D02*
G01*
X101018019Y-125287489D01*
X101025397Y-125289337D01*
X101032558Y-125291899D01*
X101039433Y-125295151D01*
X101045957Y-125299061D01*
X101052065Y-125303592D01*
X101057701Y-125308699D01*
X101062808Y-125314335D01*
X101067339Y-125320443D01*
X101071249Y-125326967D01*
X101074501Y-125333842D01*
X101077063Y-125341003D01*
X101078911Y-125348381D01*
X101080027Y-125355904D01*
X101080400Y-125363500D01*
X101080400Y-125518500D01*
X101080027Y-125526096D01*
X101078911Y-125533619D01*
X101077063Y-125540997D01*
X101074501Y-125548158D01*
X101071249Y-125555033D01*
X101067339Y-125561557D01*
X101062808Y-125567665D01*
X101057701Y-125573301D01*
X101052065Y-125578408D01*
X101045957Y-125582939D01*
X101039433Y-125586849D01*
X101032558Y-125590101D01*
X101025397Y-125592663D01*
X101018019Y-125594511D01*
X101010496Y-125595627D01*
X101002900Y-125596000D01*
X100817900Y-125596000D01*
X100810304Y-125595627D01*
X100802781Y-125594511D01*
X100795403Y-125592663D01*
X100788242Y-125590101D01*
X100781367Y-125586849D01*
X100774843Y-125582939D01*
X100768735Y-125578408D01*
X100763099Y-125573301D01*
X100757992Y-125567665D01*
X100753461Y-125561557D01*
X100749551Y-125555033D01*
X100746299Y-125548158D01*
X100743737Y-125540997D01*
X100741889Y-125533619D01*
X100740773Y-125526096D01*
X100740400Y-125518500D01*
X100740400Y-125363500D01*
X100740773Y-125355904D01*
X100741889Y-125348381D01*
X100743737Y-125341003D01*
X100746299Y-125333842D01*
X100749551Y-125326967D01*
X100753461Y-125320443D01*
X100757992Y-125314335D01*
X100763099Y-125308699D01*
X100768735Y-125303592D01*
X100774843Y-125299061D01*
X100781367Y-125295151D01*
X100788242Y-125291899D01*
X100795403Y-125289337D01*
X100802781Y-125287489D01*
X100810304Y-125286373D01*
X100817900Y-125286000D01*
X101002900Y-125286000D01*
X101010496Y-125286373D01*
G37*
G04 #@! TD.AperFunction*
G04 #@! TA.AperFunction,SMDPad,CuDef*
G36*
X114472496Y-113110373D02*
G01*
X114480019Y-113111489D01*
X114487397Y-113113337D01*
X114494558Y-113115899D01*
X114501433Y-113119151D01*
X114507957Y-113123061D01*
X114514065Y-113127592D01*
X114519701Y-113132699D01*
X114524808Y-113138335D01*
X114529339Y-113144443D01*
X114533249Y-113150967D01*
X114536501Y-113157842D01*
X114539063Y-113165003D01*
X114540911Y-113172381D01*
X114542027Y-113179904D01*
X114542400Y-113187500D01*
X114542400Y-113342500D01*
X114542027Y-113350096D01*
X114540911Y-113357619D01*
X114539063Y-113364997D01*
X114536501Y-113372158D01*
X114533249Y-113379033D01*
X114529339Y-113385557D01*
X114524808Y-113391665D01*
X114519701Y-113397301D01*
X114514065Y-113402408D01*
X114507957Y-113406939D01*
X114501433Y-113410849D01*
X114494558Y-113414101D01*
X114487397Y-113416663D01*
X114480019Y-113418511D01*
X114472496Y-113419627D01*
X114464900Y-113420000D01*
X114279900Y-113420000D01*
X114272304Y-113419627D01*
X114264781Y-113418511D01*
X114257403Y-113416663D01*
X114250242Y-113414101D01*
X114243367Y-113410849D01*
X114236843Y-113406939D01*
X114230735Y-113402408D01*
X114225099Y-113397301D01*
X114219992Y-113391665D01*
X114215461Y-113385557D01*
X114211551Y-113379033D01*
X114208299Y-113372158D01*
X114205737Y-113364997D01*
X114203889Y-113357619D01*
X114202773Y-113350096D01*
X114202400Y-113342500D01*
X114202400Y-113187500D01*
X114202773Y-113179904D01*
X114203889Y-113172381D01*
X114205737Y-113165003D01*
X114208299Y-113157842D01*
X114211551Y-113150967D01*
X114215461Y-113144443D01*
X114219992Y-113138335D01*
X114225099Y-113132699D01*
X114230735Y-113127592D01*
X114236843Y-113123061D01*
X114243367Y-113119151D01*
X114250242Y-113115899D01*
X114257403Y-113113337D01*
X114264781Y-113111489D01*
X114272304Y-113110373D01*
X114279900Y-113110000D01*
X114464900Y-113110000D01*
X114472496Y-113110373D01*
G37*
G04 #@! TD.AperFunction*
G04 #@! TA.AperFunction,SMDPad,CuDef*
G36*
X114472496Y-112560373D02*
G01*
X114480019Y-112561489D01*
X114487397Y-112563337D01*
X114494558Y-112565899D01*
X114501433Y-112569151D01*
X114507957Y-112573061D01*
X114514065Y-112577592D01*
X114519701Y-112582699D01*
X114524808Y-112588335D01*
X114529339Y-112594443D01*
X114533249Y-112600967D01*
X114536501Y-112607842D01*
X114539063Y-112615003D01*
X114540911Y-112622381D01*
X114542027Y-112629904D01*
X114542400Y-112637500D01*
X114542400Y-112792500D01*
X114542027Y-112800096D01*
X114540911Y-112807619D01*
X114539063Y-112814997D01*
X114536501Y-112822158D01*
X114533249Y-112829033D01*
X114529339Y-112835557D01*
X114524808Y-112841665D01*
X114519701Y-112847301D01*
X114514065Y-112852408D01*
X114507957Y-112856939D01*
X114501433Y-112860849D01*
X114494558Y-112864101D01*
X114487397Y-112866663D01*
X114480019Y-112868511D01*
X114472496Y-112869627D01*
X114464900Y-112870000D01*
X114279900Y-112870000D01*
X114272304Y-112869627D01*
X114264781Y-112868511D01*
X114257403Y-112866663D01*
X114250242Y-112864101D01*
X114243367Y-112860849D01*
X114236843Y-112856939D01*
X114230735Y-112852408D01*
X114225099Y-112847301D01*
X114219992Y-112841665D01*
X114215461Y-112835557D01*
X114211551Y-112829033D01*
X114208299Y-112822158D01*
X114205737Y-112814997D01*
X114203889Y-112807619D01*
X114202773Y-112800096D01*
X114202400Y-112792500D01*
X114202400Y-112637500D01*
X114202773Y-112629904D01*
X114203889Y-112622381D01*
X114205737Y-112615003D01*
X114208299Y-112607842D01*
X114211551Y-112600967D01*
X114215461Y-112594443D01*
X114219992Y-112588335D01*
X114225099Y-112582699D01*
X114230735Y-112577592D01*
X114236843Y-112573061D01*
X114243367Y-112569151D01*
X114250242Y-112565899D01*
X114257403Y-112563337D01*
X114264781Y-112561489D01*
X114272304Y-112560373D01*
X114279900Y-112560000D01*
X114464900Y-112560000D01*
X114472496Y-112560373D01*
G37*
G04 #@! TD.AperFunction*
G04 #@! TA.AperFunction,SMDPad,CuDef*
G36*
X114541612Y-114570898D02*
G01*
X114555688Y-114572986D01*
X114569491Y-114576444D01*
X114582889Y-114581237D01*
X114595753Y-114587321D01*
X114607958Y-114594637D01*
X114619387Y-114603113D01*
X114629930Y-114612670D01*
X114639487Y-114623213D01*
X114647963Y-114634642D01*
X114655279Y-114646847D01*
X114661363Y-114659711D01*
X114666156Y-114673109D01*
X114669614Y-114686912D01*
X114671702Y-114700988D01*
X114672400Y-114715200D01*
X114672400Y-115005200D01*
X114671702Y-115019412D01*
X114669614Y-115033488D01*
X114666156Y-115047291D01*
X114661363Y-115060689D01*
X114655279Y-115073553D01*
X114647963Y-115085758D01*
X114639487Y-115097187D01*
X114629930Y-115107730D01*
X114619387Y-115117287D01*
X114607958Y-115125763D01*
X114595753Y-115133079D01*
X114582889Y-115139163D01*
X114569491Y-115143956D01*
X114555688Y-115147414D01*
X114541612Y-115149502D01*
X114527400Y-115150200D01*
X114187400Y-115150200D01*
X114173188Y-115149502D01*
X114159112Y-115147414D01*
X114145309Y-115143956D01*
X114131911Y-115139163D01*
X114119047Y-115133079D01*
X114106842Y-115125763D01*
X114095413Y-115117287D01*
X114084870Y-115107730D01*
X114075313Y-115097187D01*
X114066837Y-115085758D01*
X114059521Y-115073553D01*
X114053437Y-115060689D01*
X114048644Y-115047291D01*
X114045186Y-115033488D01*
X114043098Y-115019412D01*
X114042400Y-115005200D01*
X114042400Y-114715200D01*
X114043098Y-114700988D01*
X114045186Y-114686912D01*
X114048644Y-114673109D01*
X114053437Y-114659711D01*
X114059521Y-114646847D01*
X114066837Y-114634642D01*
X114075313Y-114623213D01*
X114084870Y-114612670D01*
X114095413Y-114603113D01*
X114106842Y-114594637D01*
X114119047Y-114587321D01*
X114131911Y-114581237D01*
X114145309Y-114576444D01*
X114159112Y-114572986D01*
X114173188Y-114570898D01*
X114187400Y-114570200D01*
X114527400Y-114570200D01*
X114541612Y-114570898D01*
G37*
G04 #@! TD.AperFunction*
G04 #@! TA.AperFunction,SMDPad,CuDef*
G36*
X114541612Y-113680898D02*
G01*
X114555688Y-113682986D01*
X114569491Y-113686444D01*
X114582889Y-113691237D01*
X114595753Y-113697321D01*
X114607958Y-113704637D01*
X114619387Y-113713113D01*
X114629930Y-113722670D01*
X114639487Y-113733213D01*
X114647963Y-113744642D01*
X114655279Y-113756847D01*
X114661363Y-113769711D01*
X114666156Y-113783109D01*
X114669614Y-113796912D01*
X114671702Y-113810988D01*
X114672400Y-113825200D01*
X114672400Y-114115200D01*
X114671702Y-114129412D01*
X114669614Y-114143488D01*
X114666156Y-114157291D01*
X114661363Y-114170689D01*
X114655279Y-114183553D01*
X114647963Y-114195758D01*
X114639487Y-114207187D01*
X114629930Y-114217730D01*
X114619387Y-114227287D01*
X114607958Y-114235763D01*
X114595753Y-114243079D01*
X114582889Y-114249163D01*
X114569491Y-114253956D01*
X114555688Y-114257414D01*
X114541612Y-114259502D01*
X114527400Y-114260200D01*
X114187400Y-114260200D01*
X114173188Y-114259502D01*
X114159112Y-114257414D01*
X114145309Y-114253956D01*
X114131911Y-114249163D01*
X114119047Y-114243079D01*
X114106842Y-114235763D01*
X114095413Y-114227287D01*
X114084870Y-114217730D01*
X114075313Y-114207187D01*
X114066837Y-114195758D01*
X114059521Y-114183553D01*
X114053437Y-114170689D01*
X114048644Y-114157291D01*
X114045186Y-114143488D01*
X114043098Y-114129412D01*
X114042400Y-114115200D01*
X114042400Y-113825200D01*
X114043098Y-113810988D01*
X114045186Y-113796912D01*
X114048644Y-113783109D01*
X114053437Y-113769711D01*
X114059521Y-113756847D01*
X114066837Y-113744642D01*
X114075313Y-113733213D01*
X114084870Y-113722670D01*
X114095413Y-113713113D01*
X114106842Y-113704637D01*
X114119047Y-113697321D01*
X114131911Y-113691237D01*
X114145309Y-113686444D01*
X114159112Y-113682986D01*
X114173188Y-113680898D01*
X114187400Y-113680200D01*
X114527400Y-113680200D01*
X114541612Y-113680898D01*
G37*
G04 #@! TD.AperFunction*
D17*
X101234400Y-115180800D03*
X101734400Y-115180800D03*
X102234400Y-115180800D03*
X102734400Y-115180800D03*
X103234400Y-115180800D03*
X103734400Y-115180800D03*
X104234400Y-115180800D03*
X104734400Y-115180800D03*
X105234400Y-115180800D03*
X105734400Y-115180800D03*
X106234400Y-115180800D03*
X101234400Y-114680800D03*
X101734400Y-114680800D03*
X102234400Y-114680800D03*
X102734400Y-114680800D03*
X103234400Y-114680800D03*
X103734400Y-114680800D03*
X104234400Y-114680800D03*
X104734400Y-114680800D03*
X105234400Y-114680800D03*
X105734400Y-114680800D03*
X106234400Y-114680800D03*
X101234400Y-114180800D03*
X101734400Y-114180800D03*
X102234400Y-114180800D03*
X102734400Y-114180800D03*
X103234400Y-114180800D03*
X103734400Y-114180800D03*
X104234400Y-114180800D03*
X104734400Y-114180800D03*
X105234400Y-114180800D03*
X105734400Y-114180800D03*
X106234400Y-114180800D03*
X101234400Y-113680800D03*
X101734400Y-113680800D03*
X105734400Y-113680800D03*
X106234400Y-113680800D03*
X101234400Y-113180800D03*
X101734400Y-113180800D03*
X105734400Y-113180800D03*
X106234400Y-113180800D03*
X101234400Y-112680800D03*
X101734400Y-112680800D03*
X105734400Y-112680800D03*
X106234400Y-112680800D03*
X101234400Y-112180800D03*
X101734400Y-112180800D03*
X102234400Y-112180800D03*
X102734400Y-112180800D03*
X103234400Y-112180800D03*
X103734400Y-112180800D03*
X104234400Y-112180800D03*
X104734400Y-112180800D03*
X105234400Y-112180800D03*
X105734400Y-112180800D03*
X106234400Y-112180800D03*
X101234400Y-111680800D03*
X101734400Y-111680800D03*
X102234400Y-111680800D03*
X102734400Y-111680800D03*
X103234400Y-111680800D03*
X103734400Y-111680800D03*
X104234400Y-111680800D03*
X104734400Y-111680800D03*
X105234400Y-111680800D03*
X105734400Y-111680800D03*
X106234400Y-111680800D03*
D18*
X115349800Y-115377800D03*
X115349800Y-114877800D03*
X115349800Y-114377800D03*
X115349800Y-113877800D03*
X115349800Y-113377800D03*
X115349800Y-112877800D03*
X115349800Y-112377800D03*
X115349800Y-111877800D03*
D19*
X115934800Y-111292800D03*
X116434800Y-111292800D03*
X116934800Y-111292800D03*
X117434800Y-111292800D03*
X117934800Y-111292800D03*
X118434800Y-111292800D03*
X118934800Y-111292800D03*
X119434800Y-111292800D03*
D18*
X120019800Y-111877800D03*
X120019800Y-112377800D03*
X120019800Y-112877800D03*
X120019800Y-113377800D03*
X120019800Y-113877800D03*
X120019800Y-114377800D03*
X120019800Y-114877800D03*
X120019800Y-115377800D03*
D19*
X119434800Y-115962800D03*
X118934800Y-115962800D03*
X118434800Y-115962800D03*
X117934800Y-115962800D03*
X117434800Y-115962800D03*
X116934800Y-115962800D03*
X116434800Y-115962800D03*
X115934800Y-115962800D03*
D20*
X117684800Y-113627800D03*
G04 #@! TA.AperFunction,SMDPad,CuDef*
D10*
G36*
X102584412Y-127891698D02*
G01*
X102598488Y-127893786D01*
X102612291Y-127897244D01*
X102625689Y-127902037D01*
X102638553Y-127908121D01*
X102650758Y-127915437D01*
X102662187Y-127923913D01*
X102672730Y-127933470D01*
X102682287Y-127944013D01*
X102690763Y-127955442D01*
X102698079Y-127967647D01*
X102704163Y-127980511D01*
X102708956Y-127993909D01*
X102712414Y-128007712D01*
X102714502Y-128021788D01*
X102715200Y-128036000D01*
X102715200Y-128376000D01*
X102714502Y-128390212D01*
X102712414Y-128404288D01*
X102708956Y-128418091D01*
X102704163Y-128431489D01*
X102698079Y-128444353D01*
X102690763Y-128456558D01*
X102682287Y-128467987D01*
X102672730Y-128478530D01*
X102662187Y-128488087D01*
X102650758Y-128496563D01*
X102638553Y-128503879D01*
X102625689Y-128509963D01*
X102612291Y-128514756D01*
X102598488Y-128518214D01*
X102584412Y-128520302D01*
X102570200Y-128521000D01*
X102280200Y-128521000D01*
X102265988Y-128520302D01*
X102251912Y-128518214D01*
X102238109Y-128514756D01*
X102224711Y-128509963D01*
X102211847Y-128503879D01*
X102199642Y-128496563D01*
X102188213Y-128488087D01*
X102177670Y-128478530D01*
X102168113Y-128467987D01*
X102159637Y-128456558D01*
X102152321Y-128444353D01*
X102146237Y-128431489D01*
X102141444Y-128418091D01*
X102137986Y-128404288D01*
X102135898Y-128390212D01*
X102135200Y-128376000D01*
X102135200Y-128036000D01*
X102135898Y-128021788D01*
X102137986Y-128007712D01*
X102141444Y-127993909D01*
X102146237Y-127980511D01*
X102152321Y-127967647D01*
X102159637Y-127955442D01*
X102168113Y-127944013D01*
X102177670Y-127933470D01*
X102188213Y-127923913D01*
X102199642Y-127915437D01*
X102211847Y-127908121D01*
X102224711Y-127902037D01*
X102238109Y-127897244D01*
X102251912Y-127893786D01*
X102265988Y-127891698D01*
X102280200Y-127891000D01*
X102570200Y-127891000D01*
X102584412Y-127891698D01*
G37*
G04 #@! TD.AperFunction*
G04 #@! TA.AperFunction,SMDPad,CuDef*
G36*
X103474412Y-127891698D02*
G01*
X103488488Y-127893786D01*
X103502291Y-127897244D01*
X103515689Y-127902037D01*
X103528553Y-127908121D01*
X103540758Y-127915437D01*
X103552187Y-127923913D01*
X103562730Y-127933470D01*
X103572287Y-127944013D01*
X103580763Y-127955442D01*
X103588079Y-127967647D01*
X103594163Y-127980511D01*
X103598956Y-127993909D01*
X103602414Y-128007712D01*
X103604502Y-128021788D01*
X103605200Y-128036000D01*
X103605200Y-128376000D01*
X103604502Y-128390212D01*
X103602414Y-128404288D01*
X103598956Y-128418091D01*
X103594163Y-128431489D01*
X103588079Y-128444353D01*
X103580763Y-128456558D01*
X103572287Y-128467987D01*
X103562730Y-128478530D01*
X103552187Y-128488087D01*
X103540758Y-128496563D01*
X103528553Y-128503879D01*
X103515689Y-128509963D01*
X103502291Y-128514756D01*
X103488488Y-128518214D01*
X103474412Y-128520302D01*
X103460200Y-128521000D01*
X103170200Y-128521000D01*
X103155988Y-128520302D01*
X103141912Y-128518214D01*
X103128109Y-128514756D01*
X103114711Y-128509963D01*
X103101847Y-128503879D01*
X103089642Y-128496563D01*
X103078213Y-128488087D01*
X103067670Y-128478530D01*
X103058113Y-128467987D01*
X103049637Y-128456558D01*
X103042321Y-128444353D01*
X103036237Y-128431489D01*
X103031444Y-128418091D01*
X103027986Y-128404288D01*
X103025898Y-128390212D01*
X103025200Y-128376000D01*
X103025200Y-128036000D01*
X103025898Y-128021788D01*
X103027986Y-128007712D01*
X103031444Y-127993909D01*
X103036237Y-127980511D01*
X103042321Y-127967647D01*
X103049637Y-127955442D01*
X103058113Y-127944013D01*
X103067670Y-127933470D01*
X103078213Y-127923913D01*
X103089642Y-127915437D01*
X103101847Y-127908121D01*
X103114711Y-127902037D01*
X103128109Y-127897244D01*
X103141912Y-127893786D01*
X103155988Y-127891698D01*
X103170200Y-127891000D01*
X103460200Y-127891000D01*
X103474412Y-127891698D01*
G37*
G04 #@! TD.AperFunction*
G04 #@! TA.AperFunction,SMDPad,CuDef*
G36*
X104652696Y-128722173D02*
G01*
X104660219Y-128723289D01*
X104667597Y-128725137D01*
X104674758Y-128727699D01*
X104681633Y-128730951D01*
X104688157Y-128734861D01*
X104694265Y-128739392D01*
X104699901Y-128744499D01*
X104705008Y-128750135D01*
X104709539Y-128756243D01*
X104713449Y-128762767D01*
X104716701Y-128769642D01*
X104719263Y-128776803D01*
X104721111Y-128784181D01*
X104722227Y-128791704D01*
X104722600Y-128799300D01*
X104722600Y-128984300D01*
X104722227Y-128991896D01*
X104721111Y-128999419D01*
X104719263Y-129006797D01*
X104716701Y-129013958D01*
X104713449Y-129020833D01*
X104709539Y-129027357D01*
X104705008Y-129033465D01*
X104699901Y-129039101D01*
X104694265Y-129044208D01*
X104688157Y-129048739D01*
X104681633Y-129052649D01*
X104674758Y-129055901D01*
X104667597Y-129058463D01*
X104660219Y-129060311D01*
X104652696Y-129061427D01*
X104645100Y-129061800D01*
X104490100Y-129061800D01*
X104482504Y-129061427D01*
X104474981Y-129060311D01*
X104467603Y-129058463D01*
X104460442Y-129055901D01*
X104453567Y-129052649D01*
X104447043Y-129048739D01*
X104440935Y-129044208D01*
X104435299Y-129039101D01*
X104430192Y-129033465D01*
X104425661Y-129027357D01*
X104421751Y-129020833D01*
X104418499Y-129013958D01*
X104415937Y-129006797D01*
X104414089Y-128999419D01*
X104412973Y-128991896D01*
X104412600Y-128984300D01*
X104412600Y-128799300D01*
X104412973Y-128791704D01*
X104414089Y-128784181D01*
X104415937Y-128776803D01*
X104418499Y-128769642D01*
X104421751Y-128762767D01*
X104425661Y-128756243D01*
X104430192Y-128750135D01*
X104435299Y-128744499D01*
X104440935Y-128739392D01*
X104447043Y-128734861D01*
X104453567Y-128730951D01*
X104460442Y-128727699D01*
X104467603Y-128725137D01*
X104474981Y-128723289D01*
X104482504Y-128722173D01*
X104490100Y-128721800D01*
X104645100Y-128721800D01*
X104652696Y-128722173D01*
G37*
G04 #@! TD.AperFunction*
G04 #@! TA.AperFunction,SMDPad,CuDef*
G36*
X104102696Y-128722173D02*
G01*
X104110219Y-128723289D01*
X104117597Y-128725137D01*
X104124758Y-128727699D01*
X104131633Y-128730951D01*
X104138157Y-128734861D01*
X104144265Y-128739392D01*
X104149901Y-128744499D01*
X104155008Y-128750135D01*
X104159539Y-128756243D01*
X104163449Y-128762767D01*
X104166701Y-128769642D01*
X104169263Y-128776803D01*
X104171111Y-128784181D01*
X104172227Y-128791704D01*
X104172600Y-128799300D01*
X104172600Y-128984300D01*
X104172227Y-128991896D01*
X104171111Y-128999419D01*
X104169263Y-129006797D01*
X104166701Y-129013958D01*
X104163449Y-129020833D01*
X104159539Y-129027357D01*
X104155008Y-129033465D01*
X104149901Y-129039101D01*
X104144265Y-129044208D01*
X104138157Y-129048739D01*
X104131633Y-129052649D01*
X104124758Y-129055901D01*
X104117597Y-129058463D01*
X104110219Y-129060311D01*
X104102696Y-129061427D01*
X104095100Y-129061800D01*
X103940100Y-129061800D01*
X103932504Y-129061427D01*
X103924981Y-129060311D01*
X103917603Y-129058463D01*
X103910442Y-129055901D01*
X103903567Y-129052649D01*
X103897043Y-129048739D01*
X103890935Y-129044208D01*
X103885299Y-129039101D01*
X103880192Y-129033465D01*
X103875661Y-129027357D01*
X103871751Y-129020833D01*
X103868499Y-129013958D01*
X103865937Y-129006797D01*
X103864089Y-128999419D01*
X103862973Y-128991896D01*
X103862600Y-128984300D01*
X103862600Y-128799300D01*
X103862973Y-128791704D01*
X103864089Y-128784181D01*
X103865937Y-128776803D01*
X103868499Y-128769642D01*
X103871751Y-128762767D01*
X103875661Y-128756243D01*
X103880192Y-128750135D01*
X103885299Y-128744499D01*
X103890935Y-128739392D01*
X103897043Y-128734861D01*
X103903567Y-128730951D01*
X103910442Y-128727699D01*
X103917603Y-128725137D01*
X103924981Y-128723289D01*
X103932504Y-128722173D01*
X103940100Y-128721800D01*
X104095100Y-128721800D01*
X104102696Y-128722173D01*
G37*
G04 #@! TD.AperFunction*
G04 #@! TA.AperFunction,SMDPad,CuDef*
G36*
X104652696Y-129280973D02*
G01*
X104660219Y-129282089D01*
X104667597Y-129283937D01*
X104674758Y-129286499D01*
X104681633Y-129289751D01*
X104688157Y-129293661D01*
X104694265Y-129298192D01*
X104699901Y-129303299D01*
X104705008Y-129308935D01*
X104709539Y-129315043D01*
X104713449Y-129321567D01*
X104716701Y-129328442D01*
X104719263Y-129335603D01*
X104721111Y-129342981D01*
X104722227Y-129350504D01*
X104722600Y-129358100D01*
X104722600Y-129543100D01*
X104722227Y-129550696D01*
X104721111Y-129558219D01*
X104719263Y-129565597D01*
X104716701Y-129572758D01*
X104713449Y-129579633D01*
X104709539Y-129586157D01*
X104705008Y-129592265D01*
X104699901Y-129597901D01*
X104694265Y-129603008D01*
X104688157Y-129607539D01*
X104681633Y-129611449D01*
X104674758Y-129614701D01*
X104667597Y-129617263D01*
X104660219Y-129619111D01*
X104652696Y-129620227D01*
X104645100Y-129620600D01*
X104490100Y-129620600D01*
X104482504Y-129620227D01*
X104474981Y-129619111D01*
X104467603Y-129617263D01*
X104460442Y-129614701D01*
X104453567Y-129611449D01*
X104447043Y-129607539D01*
X104440935Y-129603008D01*
X104435299Y-129597901D01*
X104430192Y-129592265D01*
X104425661Y-129586157D01*
X104421751Y-129579633D01*
X104418499Y-129572758D01*
X104415937Y-129565597D01*
X104414089Y-129558219D01*
X104412973Y-129550696D01*
X104412600Y-129543100D01*
X104412600Y-129358100D01*
X104412973Y-129350504D01*
X104414089Y-129342981D01*
X104415937Y-129335603D01*
X104418499Y-129328442D01*
X104421751Y-129321567D01*
X104425661Y-129315043D01*
X104430192Y-129308935D01*
X104435299Y-129303299D01*
X104440935Y-129298192D01*
X104447043Y-129293661D01*
X104453567Y-129289751D01*
X104460442Y-129286499D01*
X104467603Y-129283937D01*
X104474981Y-129282089D01*
X104482504Y-129280973D01*
X104490100Y-129280600D01*
X104645100Y-129280600D01*
X104652696Y-129280973D01*
G37*
G04 #@! TD.AperFunction*
G04 #@! TA.AperFunction,SMDPad,CuDef*
G36*
X104102696Y-129280973D02*
G01*
X104110219Y-129282089D01*
X104117597Y-129283937D01*
X104124758Y-129286499D01*
X104131633Y-129289751D01*
X104138157Y-129293661D01*
X104144265Y-129298192D01*
X104149901Y-129303299D01*
X104155008Y-129308935D01*
X104159539Y-129315043D01*
X104163449Y-129321567D01*
X104166701Y-129328442D01*
X104169263Y-129335603D01*
X104171111Y-129342981D01*
X104172227Y-129350504D01*
X104172600Y-129358100D01*
X104172600Y-129543100D01*
X104172227Y-129550696D01*
X104171111Y-129558219D01*
X104169263Y-129565597D01*
X104166701Y-129572758D01*
X104163449Y-129579633D01*
X104159539Y-129586157D01*
X104155008Y-129592265D01*
X104149901Y-129597901D01*
X104144265Y-129603008D01*
X104138157Y-129607539D01*
X104131633Y-129611449D01*
X104124758Y-129614701D01*
X104117597Y-129617263D01*
X104110219Y-129619111D01*
X104102696Y-129620227D01*
X104095100Y-129620600D01*
X103940100Y-129620600D01*
X103932504Y-129620227D01*
X103924981Y-129619111D01*
X103917603Y-129617263D01*
X103910442Y-129614701D01*
X103903567Y-129611449D01*
X103897043Y-129607539D01*
X103890935Y-129603008D01*
X103885299Y-129597901D01*
X103880192Y-129592265D01*
X103875661Y-129586157D01*
X103871751Y-129579633D01*
X103868499Y-129572758D01*
X103865937Y-129565597D01*
X103864089Y-129558219D01*
X103862973Y-129550696D01*
X103862600Y-129543100D01*
X103862600Y-129358100D01*
X103862973Y-129350504D01*
X103864089Y-129342981D01*
X103865937Y-129335603D01*
X103868499Y-129328442D01*
X103871751Y-129321567D01*
X103875661Y-129315043D01*
X103880192Y-129308935D01*
X103885299Y-129303299D01*
X103890935Y-129298192D01*
X103897043Y-129293661D01*
X103903567Y-129289751D01*
X103910442Y-129286499D01*
X103917603Y-129283937D01*
X103924981Y-129282089D01*
X103932504Y-129280973D01*
X103940100Y-129280600D01*
X104095100Y-129280600D01*
X104102696Y-129280973D01*
G37*
G04 #@! TD.AperFunction*
G04 #@! TA.AperFunction,SMDPad,CuDef*
G36*
X103010496Y-128747573D02*
G01*
X103018019Y-128748689D01*
X103025397Y-128750537D01*
X103032558Y-128753099D01*
X103039433Y-128756351D01*
X103045957Y-128760261D01*
X103052065Y-128764792D01*
X103057701Y-128769899D01*
X103062808Y-128775535D01*
X103067339Y-128781643D01*
X103071249Y-128788167D01*
X103074501Y-128795042D01*
X103077063Y-128802203D01*
X103078911Y-128809581D01*
X103080027Y-128817104D01*
X103080400Y-128824700D01*
X103080400Y-129009700D01*
X103080027Y-129017296D01*
X103078911Y-129024819D01*
X103077063Y-129032197D01*
X103074501Y-129039358D01*
X103071249Y-129046233D01*
X103067339Y-129052757D01*
X103062808Y-129058865D01*
X103057701Y-129064501D01*
X103052065Y-129069608D01*
X103045957Y-129074139D01*
X103039433Y-129078049D01*
X103032558Y-129081301D01*
X103025397Y-129083863D01*
X103018019Y-129085711D01*
X103010496Y-129086827D01*
X103002900Y-129087200D01*
X102847900Y-129087200D01*
X102840304Y-129086827D01*
X102832781Y-129085711D01*
X102825403Y-129083863D01*
X102818242Y-129081301D01*
X102811367Y-129078049D01*
X102804843Y-129074139D01*
X102798735Y-129069608D01*
X102793099Y-129064501D01*
X102787992Y-129058865D01*
X102783461Y-129052757D01*
X102779551Y-129046233D01*
X102776299Y-129039358D01*
X102773737Y-129032197D01*
X102771889Y-129024819D01*
X102770773Y-129017296D01*
X102770400Y-129009700D01*
X102770400Y-128824700D01*
X102770773Y-128817104D01*
X102771889Y-128809581D01*
X102773737Y-128802203D01*
X102776299Y-128795042D01*
X102779551Y-128788167D01*
X102783461Y-128781643D01*
X102787992Y-128775535D01*
X102793099Y-128769899D01*
X102798735Y-128764792D01*
X102804843Y-128760261D01*
X102811367Y-128756351D01*
X102818242Y-128753099D01*
X102825403Y-128750537D01*
X102832781Y-128748689D01*
X102840304Y-128747573D01*
X102847900Y-128747200D01*
X103002900Y-128747200D01*
X103010496Y-128747573D01*
G37*
G04 #@! TD.AperFunction*
G04 #@! TA.AperFunction,SMDPad,CuDef*
G36*
X103560496Y-128747573D02*
G01*
X103568019Y-128748689D01*
X103575397Y-128750537D01*
X103582558Y-128753099D01*
X103589433Y-128756351D01*
X103595957Y-128760261D01*
X103602065Y-128764792D01*
X103607701Y-128769899D01*
X103612808Y-128775535D01*
X103617339Y-128781643D01*
X103621249Y-128788167D01*
X103624501Y-128795042D01*
X103627063Y-128802203D01*
X103628911Y-128809581D01*
X103630027Y-128817104D01*
X103630400Y-128824700D01*
X103630400Y-129009700D01*
X103630027Y-129017296D01*
X103628911Y-129024819D01*
X103627063Y-129032197D01*
X103624501Y-129039358D01*
X103621249Y-129046233D01*
X103617339Y-129052757D01*
X103612808Y-129058865D01*
X103607701Y-129064501D01*
X103602065Y-129069608D01*
X103595957Y-129074139D01*
X103589433Y-129078049D01*
X103582558Y-129081301D01*
X103575397Y-129083863D01*
X103568019Y-129085711D01*
X103560496Y-129086827D01*
X103552900Y-129087200D01*
X103397900Y-129087200D01*
X103390304Y-129086827D01*
X103382781Y-129085711D01*
X103375403Y-129083863D01*
X103368242Y-129081301D01*
X103361367Y-129078049D01*
X103354843Y-129074139D01*
X103348735Y-129069608D01*
X103343099Y-129064501D01*
X103337992Y-129058865D01*
X103333461Y-129052757D01*
X103329551Y-129046233D01*
X103326299Y-129039358D01*
X103323737Y-129032197D01*
X103321889Y-129024819D01*
X103320773Y-129017296D01*
X103320400Y-129009700D01*
X103320400Y-128824700D01*
X103320773Y-128817104D01*
X103321889Y-128809581D01*
X103323737Y-128802203D01*
X103326299Y-128795042D01*
X103329551Y-128788167D01*
X103333461Y-128781643D01*
X103337992Y-128775535D01*
X103343099Y-128769899D01*
X103348735Y-128764792D01*
X103354843Y-128760261D01*
X103361367Y-128756351D01*
X103368242Y-128753099D01*
X103375403Y-128750537D01*
X103382781Y-128748689D01*
X103390304Y-128747573D01*
X103397900Y-128747200D01*
X103552900Y-128747200D01*
X103560496Y-128747573D01*
G37*
G04 #@! TD.AperFunction*
G04 #@! TA.AperFunction,SMDPad,CuDef*
G36*
X103010496Y-129280973D02*
G01*
X103018019Y-129282089D01*
X103025397Y-129283937D01*
X103032558Y-129286499D01*
X103039433Y-129289751D01*
X103045957Y-129293661D01*
X103052065Y-129298192D01*
X103057701Y-129303299D01*
X103062808Y-129308935D01*
X103067339Y-129315043D01*
X103071249Y-129321567D01*
X103074501Y-129328442D01*
X103077063Y-129335603D01*
X103078911Y-129342981D01*
X103080027Y-129350504D01*
X103080400Y-129358100D01*
X103080400Y-129543100D01*
X103080027Y-129550696D01*
X103078911Y-129558219D01*
X103077063Y-129565597D01*
X103074501Y-129572758D01*
X103071249Y-129579633D01*
X103067339Y-129586157D01*
X103062808Y-129592265D01*
X103057701Y-129597901D01*
X103052065Y-129603008D01*
X103045957Y-129607539D01*
X103039433Y-129611449D01*
X103032558Y-129614701D01*
X103025397Y-129617263D01*
X103018019Y-129619111D01*
X103010496Y-129620227D01*
X103002900Y-129620600D01*
X102847900Y-129620600D01*
X102840304Y-129620227D01*
X102832781Y-129619111D01*
X102825403Y-129617263D01*
X102818242Y-129614701D01*
X102811367Y-129611449D01*
X102804843Y-129607539D01*
X102798735Y-129603008D01*
X102793099Y-129597901D01*
X102787992Y-129592265D01*
X102783461Y-129586157D01*
X102779551Y-129579633D01*
X102776299Y-129572758D01*
X102773737Y-129565597D01*
X102771889Y-129558219D01*
X102770773Y-129550696D01*
X102770400Y-129543100D01*
X102770400Y-129358100D01*
X102770773Y-129350504D01*
X102771889Y-129342981D01*
X102773737Y-129335603D01*
X102776299Y-129328442D01*
X102779551Y-129321567D01*
X102783461Y-129315043D01*
X102787992Y-129308935D01*
X102793099Y-129303299D01*
X102798735Y-129298192D01*
X102804843Y-129293661D01*
X102811367Y-129289751D01*
X102818242Y-129286499D01*
X102825403Y-129283937D01*
X102832781Y-129282089D01*
X102840304Y-129280973D01*
X102847900Y-129280600D01*
X103002900Y-129280600D01*
X103010496Y-129280973D01*
G37*
G04 #@! TD.AperFunction*
G04 #@! TA.AperFunction,SMDPad,CuDef*
G36*
X103560496Y-129280973D02*
G01*
X103568019Y-129282089D01*
X103575397Y-129283937D01*
X103582558Y-129286499D01*
X103589433Y-129289751D01*
X103595957Y-129293661D01*
X103602065Y-129298192D01*
X103607701Y-129303299D01*
X103612808Y-129308935D01*
X103617339Y-129315043D01*
X103621249Y-129321567D01*
X103624501Y-129328442D01*
X103627063Y-129335603D01*
X103628911Y-129342981D01*
X103630027Y-129350504D01*
X103630400Y-129358100D01*
X103630400Y-129543100D01*
X103630027Y-129550696D01*
X103628911Y-129558219D01*
X103627063Y-129565597D01*
X103624501Y-129572758D01*
X103621249Y-129579633D01*
X103617339Y-129586157D01*
X103612808Y-129592265D01*
X103607701Y-129597901D01*
X103602065Y-129603008D01*
X103595957Y-129607539D01*
X103589433Y-129611449D01*
X103582558Y-129614701D01*
X103575397Y-129617263D01*
X103568019Y-129619111D01*
X103560496Y-129620227D01*
X103552900Y-129620600D01*
X103397900Y-129620600D01*
X103390304Y-129620227D01*
X103382781Y-129619111D01*
X103375403Y-129617263D01*
X103368242Y-129614701D01*
X103361367Y-129611449D01*
X103354843Y-129607539D01*
X103348735Y-129603008D01*
X103343099Y-129597901D01*
X103337992Y-129592265D01*
X103333461Y-129586157D01*
X103329551Y-129579633D01*
X103326299Y-129572758D01*
X103323737Y-129565597D01*
X103321889Y-129558219D01*
X103320773Y-129550696D01*
X103320400Y-129543100D01*
X103320400Y-129358100D01*
X103320773Y-129350504D01*
X103321889Y-129342981D01*
X103323737Y-129335603D01*
X103326299Y-129328442D01*
X103329551Y-129321567D01*
X103333461Y-129315043D01*
X103337992Y-129308935D01*
X103343099Y-129303299D01*
X103348735Y-129298192D01*
X103354843Y-129293661D01*
X103361367Y-129289751D01*
X103368242Y-129286499D01*
X103375403Y-129283937D01*
X103382781Y-129282089D01*
X103390304Y-129280973D01*
X103397900Y-129280600D01*
X103552900Y-129280600D01*
X103560496Y-129280973D01*
G37*
G04 #@! TD.AperFunction*
G04 #@! TA.AperFunction,SMDPad,CuDef*
G36*
X108324812Y-125859698D02*
G01*
X108338888Y-125861786D01*
X108352691Y-125865244D01*
X108366089Y-125870037D01*
X108378953Y-125876121D01*
X108391158Y-125883437D01*
X108402587Y-125891913D01*
X108413130Y-125901470D01*
X108422687Y-125912013D01*
X108431163Y-125923442D01*
X108438479Y-125935647D01*
X108444563Y-125948511D01*
X108449356Y-125961909D01*
X108452814Y-125975712D01*
X108454902Y-125989788D01*
X108455600Y-126004000D01*
X108455600Y-126344000D01*
X108454902Y-126358212D01*
X108452814Y-126372288D01*
X108449356Y-126386091D01*
X108444563Y-126399489D01*
X108438479Y-126412353D01*
X108431163Y-126424558D01*
X108422687Y-126435987D01*
X108413130Y-126446530D01*
X108402587Y-126456087D01*
X108391158Y-126464563D01*
X108378953Y-126471879D01*
X108366089Y-126477963D01*
X108352691Y-126482756D01*
X108338888Y-126486214D01*
X108324812Y-126488302D01*
X108310600Y-126489000D01*
X108020600Y-126489000D01*
X108006388Y-126488302D01*
X107992312Y-126486214D01*
X107978509Y-126482756D01*
X107965111Y-126477963D01*
X107952247Y-126471879D01*
X107940042Y-126464563D01*
X107928613Y-126456087D01*
X107918070Y-126446530D01*
X107908513Y-126435987D01*
X107900037Y-126424558D01*
X107892721Y-126412353D01*
X107886637Y-126399489D01*
X107881844Y-126386091D01*
X107878386Y-126372288D01*
X107876298Y-126358212D01*
X107875600Y-126344000D01*
X107875600Y-126004000D01*
X107876298Y-125989788D01*
X107878386Y-125975712D01*
X107881844Y-125961909D01*
X107886637Y-125948511D01*
X107892721Y-125935647D01*
X107900037Y-125923442D01*
X107908513Y-125912013D01*
X107918070Y-125901470D01*
X107928613Y-125891913D01*
X107940042Y-125883437D01*
X107952247Y-125876121D01*
X107965111Y-125870037D01*
X107978509Y-125865244D01*
X107992312Y-125861786D01*
X108006388Y-125859698D01*
X108020600Y-125859000D01*
X108310600Y-125859000D01*
X108324812Y-125859698D01*
G37*
G04 #@! TD.AperFunction*
G04 #@! TA.AperFunction,SMDPad,CuDef*
G36*
X109214812Y-125859698D02*
G01*
X109228888Y-125861786D01*
X109242691Y-125865244D01*
X109256089Y-125870037D01*
X109268953Y-125876121D01*
X109281158Y-125883437D01*
X109292587Y-125891913D01*
X109303130Y-125901470D01*
X109312687Y-125912013D01*
X109321163Y-125923442D01*
X109328479Y-125935647D01*
X109334563Y-125948511D01*
X109339356Y-125961909D01*
X109342814Y-125975712D01*
X109344902Y-125989788D01*
X109345600Y-126004000D01*
X109345600Y-126344000D01*
X109344902Y-126358212D01*
X109342814Y-126372288D01*
X109339356Y-126386091D01*
X109334563Y-126399489D01*
X109328479Y-126412353D01*
X109321163Y-126424558D01*
X109312687Y-126435987D01*
X109303130Y-126446530D01*
X109292587Y-126456087D01*
X109281158Y-126464563D01*
X109268953Y-126471879D01*
X109256089Y-126477963D01*
X109242691Y-126482756D01*
X109228888Y-126486214D01*
X109214812Y-126488302D01*
X109200600Y-126489000D01*
X108910600Y-126489000D01*
X108896388Y-126488302D01*
X108882312Y-126486214D01*
X108868509Y-126482756D01*
X108855111Y-126477963D01*
X108842247Y-126471879D01*
X108830042Y-126464563D01*
X108818613Y-126456087D01*
X108808070Y-126446530D01*
X108798513Y-126435987D01*
X108790037Y-126424558D01*
X108782721Y-126412353D01*
X108776637Y-126399489D01*
X108771844Y-126386091D01*
X108768386Y-126372288D01*
X108766298Y-126358212D01*
X108765600Y-126344000D01*
X108765600Y-126004000D01*
X108766298Y-125989788D01*
X108768386Y-125975712D01*
X108771844Y-125961909D01*
X108776637Y-125948511D01*
X108782721Y-125935647D01*
X108790037Y-125923442D01*
X108798513Y-125912013D01*
X108808070Y-125901470D01*
X108818613Y-125891913D01*
X108830042Y-125883437D01*
X108842247Y-125876121D01*
X108855111Y-125870037D01*
X108868509Y-125865244D01*
X108882312Y-125861786D01*
X108896388Y-125859698D01*
X108910600Y-125859000D01*
X109200600Y-125859000D01*
X109214812Y-125859698D01*
G37*
G04 #@! TD.AperFunction*
G04 #@! TA.AperFunction,SMDPad,CuDef*
G36*
X108324812Y-124996098D02*
G01*
X108338888Y-124998186D01*
X108352691Y-125001644D01*
X108366089Y-125006437D01*
X108378953Y-125012521D01*
X108391158Y-125019837D01*
X108402587Y-125028313D01*
X108413130Y-125037870D01*
X108422687Y-125048413D01*
X108431163Y-125059842D01*
X108438479Y-125072047D01*
X108444563Y-125084911D01*
X108449356Y-125098309D01*
X108452814Y-125112112D01*
X108454902Y-125126188D01*
X108455600Y-125140400D01*
X108455600Y-125480400D01*
X108454902Y-125494612D01*
X108452814Y-125508688D01*
X108449356Y-125522491D01*
X108444563Y-125535889D01*
X108438479Y-125548753D01*
X108431163Y-125560958D01*
X108422687Y-125572387D01*
X108413130Y-125582930D01*
X108402587Y-125592487D01*
X108391158Y-125600963D01*
X108378953Y-125608279D01*
X108366089Y-125614363D01*
X108352691Y-125619156D01*
X108338888Y-125622614D01*
X108324812Y-125624702D01*
X108310600Y-125625400D01*
X108020600Y-125625400D01*
X108006388Y-125624702D01*
X107992312Y-125622614D01*
X107978509Y-125619156D01*
X107965111Y-125614363D01*
X107952247Y-125608279D01*
X107940042Y-125600963D01*
X107928613Y-125592487D01*
X107918070Y-125582930D01*
X107908513Y-125572387D01*
X107900037Y-125560958D01*
X107892721Y-125548753D01*
X107886637Y-125535889D01*
X107881844Y-125522491D01*
X107878386Y-125508688D01*
X107876298Y-125494612D01*
X107875600Y-125480400D01*
X107875600Y-125140400D01*
X107876298Y-125126188D01*
X107878386Y-125112112D01*
X107881844Y-125098309D01*
X107886637Y-125084911D01*
X107892721Y-125072047D01*
X107900037Y-125059842D01*
X107908513Y-125048413D01*
X107918070Y-125037870D01*
X107928613Y-125028313D01*
X107940042Y-125019837D01*
X107952247Y-125012521D01*
X107965111Y-125006437D01*
X107978509Y-125001644D01*
X107992312Y-124998186D01*
X108006388Y-124996098D01*
X108020600Y-124995400D01*
X108310600Y-124995400D01*
X108324812Y-124996098D01*
G37*
G04 #@! TD.AperFunction*
G04 #@! TA.AperFunction,SMDPad,CuDef*
G36*
X109214812Y-124996098D02*
G01*
X109228888Y-124998186D01*
X109242691Y-125001644D01*
X109256089Y-125006437D01*
X109268953Y-125012521D01*
X109281158Y-125019837D01*
X109292587Y-125028313D01*
X109303130Y-125037870D01*
X109312687Y-125048413D01*
X109321163Y-125059842D01*
X109328479Y-125072047D01*
X109334563Y-125084911D01*
X109339356Y-125098309D01*
X109342814Y-125112112D01*
X109344902Y-125126188D01*
X109345600Y-125140400D01*
X109345600Y-125480400D01*
X109344902Y-125494612D01*
X109342814Y-125508688D01*
X109339356Y-125522491D01*
X109334563Y-125535889D01*
X109328479Y-125548753D01*
X109321163Y-125560958D01*
X109312687Y-125572387D01*
X109303130Y-125582930D01*
X109292587Y-125592487D01*
X109281158Y-125600963D01*
X109268953Y-125608279D01*
X109256089Y-125614363D01*
X109242691Y-125619156D01*
X109228888Y-125622614D01*
X109214812Y-125624702D01*
X109200600Y-125625400D01*
X108910600Y-125625400D01*
X108896388Y-125624702D01*
X108882312Y-125622614D01*
X108868509Y-125619156D01*
X108855111Y-125614363D01*
X108842247Y-125608279D01*
X108830042Y-125600963D01*
X108818613Y-125592487D01*
X108808070Y-125582930D01*
X108798513Y-125572387D01*
X108790037Y-125560958D01*
X108782721Y-125548753D01*
X108776637Y-125535889D01*
X108771844Y-125522491D01*
X108768386Y-125508688D01*
X108766298Y-125494612D01*
X108765600Y-125480400D01*
X108765600Y-125140400D01*
X108766298Y-125126188D01*
X108768386Y-125112112D01*
X108771844Y-125098309D01*
X108776637Y-125084911D01*
X108782721Y-125072047D01*
X108790037Y-125059842D01*
X108798513Y-125048413D01*
X108808070Y-125037870D01*
X108818613Y-125028313D01*
X108830042Y-125019837D01*
X108842247Y-125012521D01*
X108855111Y-125006437D01*
X108868509Y-125001644D01*
X108882312Y-124998186D01*
X108896388Y-124996098D01*
X108910600Y-124995400D01*
X109200600Y-124995400D01*
X109214812Y-124996098D01*
G37*
G04 #@! TD.AperFunction*
G04 #@! TA.AperFunction,SMDPad,CuDef*
G36*
X106827212Y-127891698D02*
G01*
X106841288Y-127893786D01*
X106855091Y-127897244D01*
X106868489Y-127902037D01*
X106881353Y-127908121D01*
X106893558Y-127915437D01*
X106904987Y-127923913D01*
X106915530Y-127933470D01*
X106925087Y-127944013D01*
X106933563Y-127955442D01*
X106940879Y-127967647D01*
X106946963Y-127980511D01*
X106951756Y-127993909D01*
X106955214Y-128007712D01*
X106957302Y-128021788D01*
X106958000Y-128036000D01*
X106958000Y-128376000D01*
X106957302Y-128390212D01*
X106955214Y-128404288D01*
X106951756Y-128418091D01*
X106946963Y-128431489D01*
X106940879Y-128444353D01*
X106933563Y-128456558D01*
X106925087Y-128467987D01*
X106915530Y-128478530D01*
X106904987Y-128488087D01*
X106893558Y-128496563D01*
X106881353Y-128503879D01*
X106868489Y-128509963D01*
X106855091Y-128514756D01*
X106841288Y-128518214D01*
X106827212Y-128520302D01*
X106813000Y-128521000D01*
X106523000Y-128521000D01*
X106508788Y-128520302D01*
X106494712Y-128518214D01*
X106480909Y-128514756D01*
X106467511Y-128509963D01*
X106454647Y-128503879D01*
X106442442Y-128496563D01*
X106431013Y-128488087D01*
X106420470Y-128478530D01*
X106410913Y-128467987D01*
X106402437Y-128456558D01*
X106395121Y-128444353D01*
X106389037Y-128431489D01*
X106384244Y-128418091D01*
X106380786Y-128404288D01*
X106378698Y-128390212D01*
X106378000Y-128376000D01*
X106378000Y-128036000D01*
X106378698Y-128021788D01*
X106380786Y-128007712D01*
X106384244Y-127993909D01*
X106389037Y-127980511D01*
X106395121Y-127967647D01*
X106402437Y-127955442D01*
X106410913Y-127944013D01*
X106420470Y-127933470D01*
X106431013Y-127923913D01*
X106442442Y-127915437D01*
X106454647Y-127908121D01*
X106467511Y-127902037D01*
X106480909Y-127897244D01*
X106494712Y-127893786D01*
X106508788Y-127891698D01*
X106523000Y-127891000D01*
X106813000Y-127891000D01*
X106827212Y-127891698D01*
G37*
G04 #@! TD.AperFunction*
G04 #@! TA.AperFunction,SMDPad,CuDef*
G36*
X105937212Y-127891698D02*
G01*
X105951288Y-127893786D01*
X105965091Y-127897244D01*
X105978489Y-127902037D01*
X105991353Y-127908121D01*
X106003558Y-127915437D01*
X106014987Y-127923913D01*
X106025530Y-127933470D01*
X106035087Y-127944013D01*
X106043563Y-127955442D01*
X106050879Y-127967647D01*
X106056963Y-127980511D01*
X106061756Y-127993909D01*
X106065214Y-128007712D01*
X106067302Y-128021788D01*
X106068000Y-128036000D01*
X106068000Y-128376000D01*
X106067302Y-128390212D01*
X106065214Y-128404288D01*
X106061756Y-128418091D01*
X106056963Y-128431489D01*
X106050879Y-128444353D01*
X106043563Y-128456558D01*
X106035087Y-128467987D01*
X106025530Y-128478530D01*
X106014987Y-128488087D01*
X106003558Y-128496563D01*
X105991353Y-128503879D01*
X105978489Y-128509963D01*
X105965091Y-128514756D01*
X105951288Y-128518214D01*
X105937212Y-128520302D01*
X105923000Y-128521000D01*
X105633000Y-128521000D01*
X105618788Y-128520302D01*
X105604712Y-128518214D01*
X105590909Y-128514756D01*
X105577511Y-128509963D01*
X105564647Y-128503879D01*
X105552442Y-128496563D01*
X105541013Y-128488087D01*
X105530470Y-128478530D01*
X105520913Y-128467987D01*
X105512437Y-128456558D01*
X105505121Y-128444353D01*
X105499037Y-128431489D01*
X105494244Y-128418091D01*
X105490786Y-128404288D01*
X105488698Y-128390212D01*
X105488000Y-128376000D01*
X105488000Y-128036000D01*
X105488698Y-128021788D01*
X105490786Y-128007712D01*
X105494244Y-127993909D01*
X105499037Y-127980511D01*
X105505121Y-127967647D01*
X105512437Y-127955442D01*
X105520913Y-127944013D01*
X105530470Y-127933470D01*
X105541013Y-127923913D01*
X105552442Y-127915437D01*
X105564647Y-127908121D01*
X105577511Y-127902037D01*
X105590909Y-127897244D01*
X105604712Y-127893786D01*
X105618788Y-127891698D01*
X105633000Y-127891000D01*
X105923000Y-127891000D01*
X105937212Y-127891698D01*
G37*
G04 #@! TD.AperFunction*
G04 #@! TA.AperFunction,SMDPad,CuDef*
G36*
X108446096Y-124404173D02*
G01*
X108453619Y-124405289D01*
X108460997Y-124407137D01*
X108468158Y-124409699D01*
X108475033Y-124412951D01*
X108481557Y-124416861D01*
X108487665Y-124421392D01*
X108493301Y-124426499D01*
X108498408Y-124432135D01*
X108502939Y-124438243D01*
X108506849Y-124444767D01*
X108510101Y-124451642D01*
X108512663Y-124458803D01*
X108514511Y-124466181D01*
X108515627Y-124473704D01*
X108516000Y-124481300D01*
X108516000Y-124666300D01*
X108515627Y-124673896D01*
X108514511Y-124681419D01*
X108512663Y-124688797D01*
X108510101Y-124695958D01*
X108506849Y-124702833D01*
X108502939Y-124709357D01*
X108498408Y-124715465D01*
X108493301Y-124721101D01*
X108487665Y-124726208D01*
X108481557Y-124730739D01*
X108475033Y-124734649D01*
X108468158Y-124737901D01*
X108460997Y-124740463D01*
X108453619Y-124742311D01*
X108446096Y-124743427D01*
X108438500Y-124743800D01*
X108283500Y-124743800D01*
X108275904Y-124743427D01*
X108268381Y-124742311D01*
X108261003Y-124740463D01*
X108253842Y-124737901D01*
X108246967Y-124734649D01*
X108240443Y-124730739D01*
X108234335Y-124726208D01*
X108228699Y-124721101D01*
X108223592Y-124715465D01*
X108219061Y-124709357D01*
X108215151Y-124702833D01*
X108211899Y-124695958D01*
X108209337Y-124688797D01*
X108207489Y-124681419D01*
X108206373Y-124673896D01*
X108206000Y-124666300D01*
X108206000Y-124481300D01*
X108206373Y-124473704D01*
X108207489Y-124466181D01*
X108209337Y-124458803D01*
X108211899Y-124451642D01*
X108215151Y-124444767D01*
X108219061Y-124438243D01*
X108223592Y-124432135D01*
X108228699Y-124426499D01*
X108234335Y-124421392D01*
X108240443Y-124416861D01*
X108246967Y-124412951D01*
X108253842Y-124409699D01*
X108261003Y-124407137D01*
X108268381Y-124405289D01*
X108275904Y-124404173D01*
X108283500Y-124403800D01*
X108438500Y-124403800D01*
X108446096Y-124404173D01*
G37*
G04 #@! TD.AperFunction*
G04 #@! TA.AperFunction,SMDPad,CuDef*
G36*
X108996096Y-124404173D02*
G01*
X109003619Y-124405289D01*
X109010997Y-124407137D01*
X109018158Y-124409699D01*
X109025033Y-124412951D01*
X109031557Y-124416861D01*
X109037665Y-124421392D01*
X109043301Y-124426499D01*
X109048408Y-124432135D01*
X109052939Y-124438243D01*
X109056849Y-124444767D01*
X109060101Y-124451642D01*
X109062663Y-124458803D01*
X109064511Y-124466181D01*
X109065627Y-124473704D01*
X109066000Y-124481300D01*
X109066000Y-124666300D01*
X109065627Y-124673896D01*
X109064511Y-124681419D01*
X109062663Y-124688797D01*
X109060101Y-124695958D01*
X109056849Y-124702833D01*
X109052939Y-124709357D01*
X109048408Y-124715465D01*
X109043301Y-124721101D01*
X109037665Y-124726208D01*
X109031557Y-124730739D01*
X109025033Y-124734649D01*
X109018158Y-124737901D01*
X109010997Y-124740463D01*
X109003619Y-124742311D01*
X108996096Y-124743427D01*
X108988500Y-124743800D01*
X108833500Y-124743800D01*
X108825904Y-124743427D01*
X108818381Y-124742311D01*
X108811003Y-124740463D01*
X108803842Y-124737901D01*
X108796967Y-124734649D01*
X108790443Y-124730739D01*
X108784335Y-124726208D01*
X108778699Y-124721101D01*
X108773592Y-124715465D01*
X108769061Y-124709357D01*
X108765151Y-124702833D01*
X108761899Y-124695958D01*
X108759337Y-124688797D01*
X108757489Y-124681419D01*
X108756373Y-124673896D01*
X108756000Y-124666300D01*
X108756000Y-124481300D01*
X108756373Y-124473704D01*
X108757489Y-124466181D01*
X108759337Y-124458803D01*
X108761899Y-124451642D01*
X108765151Y-124444767D01*
X108769061Y-124438243D01*
X108773592Y-124432135D01*
X108778699Y-124426499D01*
X108784335Y-124421392D01*
X108790443Y-124416861D01*
X108796967Y-124412951D01*
X108803842Y-124409699D01*
X108811003Y-124407137D01*
X108818381Y-124405289D01*
X108825904Y-124404173D01*
X108833500Y-124403800D01*
X108988500Y-124403800D01*
X108996096Y-124404173D01*
G37*
G04 #@! TD.AperFunction*
G04 #@! TA.AperFunction,SMDPad,CuDef*
G36*
X105150812Y-127866298D02*
G01*
X105164888Y-127868386D01*
X105178691Y-127871844D01*
X105192089Y-127876637D01*
X105204953Y-127882721D01*
X105217158Y-127890037D01*
X105228587Y-127898513D01*
X105239130Y-127908070D01*
X105248687Y-127918613D01*
X105257163Y-127930042D01*
X105264479Y-127942247D01*
X105270563Y-127955111D01*
X105275356Y-127968509D01*
X105278814Y-127982312D01*
X105280902Y-127996388D01*
X105281600Y-128010600D01*
X105281600Y-128350600D01*
X105280902Y-128364812D01*
X105278814Y-128378888D01*
X105275356Y-128392691D01*
X105270563Y-128406089D01*
X105264479Y-128418953D01*
X105257163Y-128431158D01*
X105248687Y-128442587D01*
X105239130Y-128453130D01*
X105228587Y-128462687D01*
X105217158Y-128471163D01*
X105204953Y-128478479D01*
X105192089Y-128484563D01*
X105178691Y-128489356D01*
X105164888Y-128492814D01*
X105150812Y-128494902D01*
X105136600Y-128495600D01*
X104846600Y-128495600D01*
X104832388Y-128494902D01*
X104818312Y-128492814D01*
X104804509Y-128489356D01*
X104791111Y-128484563D01*
X104778247Y-128478479D01*
X104766042Y-128471163D01*
X104754613Y-128462687D01*
X104744070Y-128453130D01*
X104734513Y-128442587D01*
X104726037Y-128431158D01*
X104718721Y-128418953D01*
X104712637Y-128406089D01*
X104707844Y-128392691D01*
X104704386Y-128378888D01*
X104702298Y-128364812D01*
X104701600Y-128350600D01*
X104701600Y-128010600D01*
X104702298Y-127996388D01*
X104704386Y-127982312D01*
X104707844Y-127968509D01*
X104712637Y-127955111D01*
X104718721Y-127942247D01*
X104726037Y-127930042D01*
X104734513Y-127918613D01*
X104744070Y-127908070D01*
X104754613Y-127898513D01*
X104766042Y-127890037D01*
X104778247Y-127882721D01*
X104791111Y-127876637D01*
X104804509Y-127871844D01*
X104818312Y-127868386D01*
X104832388Y-127866298D01*
X104846600Y-127865600D01*
X105136600Y-127865600D01*
X105150812Y-127866298D01*
G37*
G04 #@! TD.AperFunction*
G04 #@! TA.AperFunction,SMDPad,CuDef*
G36*
X104260812Y-127866298D02*
G01*
X104274888Y-127868386D01*
X104288691Y-127871844D01*
X104302089Y-127876637D01*
X104314953Y-127882721D01*
X104327158Y-127890037D01*
X104338587Y-127898513D01*
X104349130Y-127908070D01*
X104358687Y-127918613D01*
X104367163Y-127930042D01*
X104374479Y-127942247D01*
X104380563Y-127955111D01*
X104385356Y-127968509D01*
X104388814Y-127982312D01*
X104390902Y-127996388D01*
X104391600Y-128010600D01*
X104391600Y-128350600D01*
X104390902Y-128364812D01*
X104388814Y-128378888D01*
X104385356Y-128392691D01*
X104380563Y-128406089D01*
X104374479Y-128418953D01*
X104367163Y-128431158D01*
X104358687Y-128442587D01*
X104349130Y-128453130D01*
X104338587Y-128462687D01*
X104327158Y-128471163D01*
X104314953Y-128478479D01*
X104302089Y-128484563D01*
X104288691Y-128489356D01*
X104274888Y-128492814D01*
X104260812Y-128494902D01*
X104246600Y-128495600D01*
X103956600Y-128495600D01*
X103942388Y-128494902D01*
X103928312Y-128492814D01*
X103914509Y-128489356D01*
X103901111Y-128484563D01*
X103888247Y-128478479D01*
X103876042Y-128471163D01*
X103864613Y-128462687D01*
X103854070Y-128453130D01*
X103844513Y-128442587D01*
X103836037Y-128431158D01*
X103828721Y-128418953D01*
X103822637Y-128406089D01*
X103817844Y-128392691D01*
X103814386Y-128378888D01*
X103812298Y-128364812D01*
X103811600Y-128350600D01*
X103811600Y-128010600D01*
X103812298Y-127996388D01*
X103814386Y-127982312D01*
X103817844Y-127968509D01*
X103822637Y-127955111D01*
X103828721Y-127942247D01*
X103836037Y-127930042D01*
X103844513Y-127918613D01*
X103854070Y-127908070D01*
X103864613Y-127898513D01*
X103876042Y-127890037D01*
X103888247Y-127882721D01*
X103901111Y-127876637D01*
X103914509Y-127871844D01*
X103928312Y-127868386D01*
X103942388Y-127866298D01*
X103956600Y-127865600D01*
X104246600Y-127865600D01*
X104260812Y-127866298D01*
G37*
G04 #@! TD.AperFunction*
G04 #@! TA.AperFunction,SMDPad,CuDef*
G36*
X106151296Y-128747573D02*
G01*
X106158819Y-128748689D01*
X106166197Y-128750537D01*
X106173358Y-128753099D01*
X106180233Y-128756351D01*
X106186757Y-128760261D01*
X106192865Y-128764792D01*
X106198501Y-128769899D01*
X106203608Y-128775535D01*
X106208139Y-128781643D01*
X106212049Y-128788167D01*
X106215301Y-128795042D01*
X106217863Y-128802203D01*
X106219711Y-128809581D01*
X106220827Y-128817104D01*
X106221200Y-128824700D01*
X106221200Y-129009700D01*
X106220827Y-129017296D01*
X106219711Y-129024819D01*
X106217863Y-129032197D01*
X106215301Y-129039358D01*
X106212049Y-129046233D01*
X106208139Y-129052757D01*
X106203608Y-129058865D01*
X106198501Y-129064501D01*
X106192865Y-129069608D01*
X106186757Y-129074139D01*
X106180233Y-129078049D01*
X106173358Y-129081301D01*
X106166197Y-129083863D01*
X106158819Y-129085711D01*
X106151296Y-129086827D01*
X106143700Y-129087200D01*
X105988700Y-129087200D01*
X105981104Y-129086827D01*
X105973581Y-129085711D01*
X105966203Y-129083863D01*
X105959042Y-129081301D01*
X105952167Y-129078049D01*
X105945643Y-129074139D01*
X105939535Y-129069608D01*
X105933899Y-129064501D01*
X105928792Y-129058865D01*
X105924261Y-129052757D01*
X105920351Y-129046233D01*
X105917099Y-129039358D01*
X105914537Y-129032197D01*
X105912689Y-129024819D01*
X105911573Y-129017296D01*
X105911200Y-129009700D01*
X105911200Y-128824700D01*
X105911573Y-128817104D01*
X105912689Y-128809581D01*
X105914537Y-128802203D01*
X105917099Y-128795042D01*
X105920351Y-128788167D01*
X105924261Y-128781643D01*
X105928792Y-128775535D01*
X105933899Y-128769899D01*
X105939535Y-128764792D01*
X105945643Y-128760261D01*
X105952167Y-128756351D01*
X105959042Y-128753099D01*
X105966203Y-128750537D01*
X105973581Y-128748689D01*
X105981104Y-128747573D01*
X105988700Y-128747200D01*
X106143700Y-128747200D01*
X106151296Y-128747573D01*
G37*
G04 #@! TD.AperFunction*
G04 #@! TA.AperFunction,SMDPad,CuDef*
G36*
X105601296Y-128747573D02*
G01*
X105608819Y-128748689D01*
X105616197Y-128750537D01*
X105623358Y-128753099D01*
X105630233Y-128756351D01*
X105636757Y-128760261D01*
X105642865Y-128764792D01*
X105648501Y-128769899D01*
X105653608Y-128775535D01*
X105658139Y-128781643D01*
X105662049Y-128788167D01*
X105665301Y-128795042D01*
X105667863Y-128802203D01*
X105669711Y-128809581D01*
X105670827Y-128817104D01*
X105671200Y-128824700D01*
X105671200Y-129009700D01*
X105670827Y-129017296D01*
X105669711Y-129024819D01*
X105667863Y-129032197D01*
X105665301Y-129039358D01*
X105662049Y-129046233D01*
X105658139Y-129052757D01*
X105653608Y-129058865D01*
X105648501Y-129064501D01*
X105642865Y-129069608D01*
X105636757Y-129074139D01*
X105630233Y-129078049D01*
X105623358Y-129081301D01*
X105616197Y-129083863D01*
X105608819Y-129085711D01*
X105601296Y-129086827D01*
X105593700Y-129087200D01*
X105438700Y-129087200D01*
X105431104Y-129086827D01*
X105423581Y-129085711D01*
X105416203Y-129083863D01*
X105409042Y-129081301D01*
X105402167Y-129078049D01*
X105395643Y-129074139D01*
X105389535Y-129069608D01*
X105383899Y-129064501D01*
X105378792Y-129058865D01*
X105374261Y-129052757D01*
X105370351Y-129046233D01*
X105367099Y-129039358D01*
X105364537Y-129032197D01*
X105362689Y-129024819D01*
X105361573Y-129017296D01*
X105361200Y-129009700D01*
X105361200Y-128824700D01*
X105361573Y-128817104D01*
X105362689Y-128809581D01*
X105364537Y-128802203D01*
X105367099Y-128795042D01*
X105370351Y-128788167D01*
X105374261Y-128781643D01*
X105378792Y-128775535D01*
X105383899Y-128769899D01*
X105389535Y-128764792D01*
X105395643Y-128760261D01*
X105402167Y-128756351D01*
X105409042Y-128753099D01*
X105416203Y-128750537D01*
X105423581Y-128748689D01*
X105431104Y-128747573D01*
X105438700Y-128747200D01*
X105593700Y-128747200D01*
X105601296Y-128747573D01*
G37*
G04 #@! TD.AperFunction*
G04 #@! TA.AperFunction,SMDPad,CuDef*
G36*
X109512896Y-124404173D02*
G01*
X109520419Y-124405289D01*
X109527797Y-124407137D01*
X109534958Y-124409699D01*
X109541833Y-124412951D01*
X109548357Y-124416861D01*
X109554465Y-124421392D01*
X109560101Y-124426499D01*
X109565208Y-124432135D01*
X109569739Y-124438243D01*
X109573649Y-124444767D01*
X109576901Y-124451642D01*
X109579463Y-124458803D01*
X109581311Y-124466181D01*
X109582427Y-124473704D01*
X109582800Y-124481300D01*
X109582800Y-124666300D01*
X109582427Y-124673896D01*
X109581311Y-124681419D01*
X109579463Y-124688797D01*
X109576901Y-124695958D01*
X109573649Y-124702833D01*
X109569739Y-124709357D01*
X109565208Y-124715465D01*
X109560101Y-124721101D01*
X109554465Y-124726208D01*
X109548357Y-124730739D01*
X109541833Y-124734649D01*
X109534958Y-124737901D01*
X109527797Y-124740463D01*
X109520419Y-124742311D01*
X109512896Y-124743427D01*
X109505300Y-124743800D01*
X109350300Y-124743800D01*
X109342704Y-124743427D01*
X109335181Y-124742311D01*
X109327803Y-124740463D01*
X109320642Y-124737901D01*
X109313767Y-124734649D01*
X109307243Y-124730739D01*
X109301135Y-124726208D01*
X109295499Y-124721101D01*
X109290392Y-124715465D01*
X109285861Y-124709357D01*
X109281951Y-124702833D01*
X109278699Y-124695958D01*
X109276137Y-124688797D01*
X109274289Y-124681419D01*
X109273173Y-124673896D01*
X109272800Y-124666300D01*
X109272800Y-124481300D01*
X109273173Y-124473704D01*
X109274289Y-124466181D01*
X109276137Y-124458803D01*
X109278699Y-124451642D01*
X109281951Y-124444767D01*
X109285861Y-124438243D01*
X109290392Y-124432135D01*
X109295499Y-124426499D01*
X109301135Y-124421392D01*
X109307243Y-124416861D01*
X109313767Y-124412951D01*
X109320642Y-124409699D01*
X109327803Y-124407137D01*
X109335181Y-124405289D01*
X109342704Y-124404173D01*
X109350300Y-124403800D01*
X109505300Y-124403800D01*
X109512896Y-124404173D01*
G37*
G04 #@! TD.AperFunction*
G04 #@! TA.AperFunction,SMDPad,CuDef*
G36*
X110062896Y-124404173D02*
G01*
X110070419Y-124405289D01*
X110077797Y-124407137D01*
X110084958Y-124409699D01*
X110091833Y-124412951D01*
X110098357Y-124416861D01*
X110104465Y-124421392D01*
X110110101Y-124426499D01*
X110115208Y-124432135D01*
X110119739Y-124438243D01*
X110123649Y-124444767D01*
X110126901Y-124451642D01*
X110129463Y-124458803D01*
X110131311Y-124466181D01*
X110132427Y-124473704D01*
X110132800Y-124481300D01*
X110132800Y-124666300D01*
X110132427Y-124673896D01*
X110131311Y-124681419D01*
X110129463Y-124688797D01*
X110126901Y-124695958D01*
X110123649Y-124702833D01*
X110119739Y-124709357D01*
X110115208Y-124715465D01*
X110110101Y-124721101D01*
X110104465Y-124726208D01*
X110098357Y-124730739D01*
X110091833Y-124734649D01*
X110084958Y-124737901D01*
X110077797Y-124740463D01*
X110070419Y-124742311D01*
X110062896Y-124743427D01*
X110055300Y-124743800D01*
X109900300Y-124743800D01*
X109892704Y-124743427D01*
X109885181Y-124742311D01*
X109877803Y-124740463D01*
X109870642Y-124737901D01*
X109863767Y-124734649D01*
X109857243Y-124730739D01*
X109851135Y-124726208D01*
X109845499Y-124721101D01*
X109840392Y-124715465D01*
X109835861Y-124709357D01*
X109831951Y-124702833D01*
X109828699Y-124695958D01*
X109826137Y-124688797D01*
X109824289Y-124681419D01*
X109823173Y-124673896D01*
X109822800Y-124666300D01*
X109822800Y-124481300D01*
X109823173Y-124473704D01*
X109824289Y-124466181D01*
X109826137Y-124458803D01*
X109828699Y-124451642D01*
X109831951Y-124444767D01*
X109835861Y-124438243D01*
X109840392Y-124432135D01*
X109845499Y-124426499D01*
X109851135Y-124421392D01*
X109857243Y-124416861D01*
X109863767Y-124412951D01*
X109870642Y-124409699D01*
X109877803Y-124407137D01*
X109885181Y-124405289D01*
X109892704Y-124404173D01*
X109900300Y-124403800D01*
X110055300Y-124403800D01*
X110062896Y-124404173D01*
G37*
G04 #@! TD.AperFunction*
G04 #@! TA.AperFunction,SMDPad,CuDef*
G36*
X101918296Y-129306373D02*
G01*
X101925819Y-129307489D01*
X101933197Y-129309337D01*
X101940358Y-129311899D01*
X101947233Y-129315151D01*
X101953757Y-129319061D01*
X101959865Y-129323592D01*
X101965501Y-129328699D01*
X101970608Y-129334335D01*
X101975139Y-129340443D01*
X101979049Y-129346967D01*
X101982301Y-129353842D01*
X101984863Y-129361003D01*
X101986711Y-129368381D01*
X101987827Y-129375904D01*
X101988200Y-129383500D01*
X101988200Y-129568500D01*
X101987827Y-129576096D01*
X101986711Y-129583619D01*
X101984863Y-129590997D01*
X101982301Y-129598158D01*
X101979049Y-129605033D01*
X101975139Y-129611557D01*
X101970608Y-129617665D01*
X101965501Y-129623301D01*
X101959865Y-129628408D01*
X101953757Y-129632939D01*
X101947233Y-129636849D01*
X101940358Y-129640101D01*
X101933197Y-129642663D01*
X101925819Y-129644511D01*
X101918296Y-129645627D01*
X101910700Y-129646000D01*
X101755700Y-129646000D01*
X101748104Y-129645627D01*
X101740581Y-129644511D01*
X101733203Y-129642663D01*
X101726042Y-129640101D01*
X101719167Y-129636849D01*
X101712643Y-129632939D01*
X101706535Y-129628408D01*
X101700899Y-129623301D01*
X101695792Y-129617665D01*
X101691261Y-129611557D01*
X101687351Y-129605033D01*
X101684099Y-129598158D01*
X101681537Y-129590997D01*
X101679689Y-129583619D01*
X101678573Y-129576096D01*
X101678200Y-129568500D01*
X101678200Y-129383500D01*
X101678573Y-129375904D01*
X101679689Y-129368381D01*
X101681537Y-129361003D01*
X101684099Y-129353842D01*
X101687351Y-129346967D01*
X101691261Y-129340443D01*
X101695792Y-129334335D01*
X101700899Y-129328699D01*
X101706535Y-129323592D01*
X101712643Y-129319061D01*
X101719167Y-129315151D01*
X101726042Y-129311899D01*
X101733203Y-129309337D01*
X101740581Y-129307489D01*
X101748104Y-129306373D01*
X101755700Y-129306000D01*
X101910700Y-129306000D01*
X101918296Y-129306373D01*
G37*
G04 #@! TD.AperFunction*
G04 #@! TA.AperFunction,SMDPad,CuDef*
G36*
X102468296Y-129306373D02*
G01*
X102475819Y-129307489D01*
X102483197Y-129309337D01*
X102490358Y-129311899D01*
X102497233Y-129315151D01*
X102503757Y-129319061D01*
X102509865Y-129323592D01*
X102515501Y-129328699D01*
X102520608Y-129334335D01*
X102525139Y-129340443D01*
X102529049Y-129346967D01*
X102532301Y-129353842D01*
X102534863Y-129361003D01*
X102536711Y-129368381D01*
X102537827Y-129375904D01*
X102538200Y-129383500D01*
X102538200Y-129568500D01*
X102537827Y-129576096D01*
X102536711Y-129583619D01*
X102534863Y-129590997D01*
X102532301Y-129598158D01*
X102529049Y-129605033D01*
X102525139Y-129611557D01*
X102520608Y-129617665D01*
X102515501Y-129623301D01*
X102509865Y-129628408D01*
X102503757Y-129632939D01*
X102497233Y-129636849D01*
X102490358Y-129640101D01*
X102483197Y-129642663D01*
X102475819Y-129644511D01*
X102468296Y-129645627D01*
X102460700Y-129646000D01*
X102305700Y-129646000D01*
X102298104Y-129645627D01*
X102290581Y-129644511D01*
X102283203Y-129642663D01*
X102276042Y-129640101D01*
X102269167Y-129636849D01*
X102262643Y-129632939D01*
X102256535Y-129628408D01*
X102250899Y-129623301D01*
X102245792Y-129617665D01*
X102241261Y-129611557D01*
X102237351Y-129605033D01*
X102234099Y-129598158D01*
X102231537Y-129590997D01*
X102229689Y-129583619D01*
X102228573Y-129576096D01*
X102228200Y-129568500D01*
X102228200Y-129383500D01*
X102228573Y-129375904D01*
X102229689Y-129368381D01*
X102231537Y-129361003D01*
X102234099Y-129353842D01*
X102237351Y-129346967D01*
X102241261Y-129340443D01*
X102245792Y-129334335D01*
X102250899Y-129328699D01*
X102256535Y-129323592D01*
X102262643Y-129319061D01*
X102269167Y-129315151D01*
X102276042Y-129311899D01*
X102283203Y-129309337D01*
X102290581Y-129307489D01*
X102298104Y-129306373D01*
X102305700Y-129306000D01*
X102460700Y-129306000D01*
X102468296Y-129306373D01*
G37*
G04 #@! TD.AperFunction*
G04 #@! TA.AperFunction,SMDPad,CuDef*
G36*
X105523489Y-95541720D02*
G01*
X105546058Y-95545067D01*
X105568191Y-95550611D01*
X105589674Y-95558298D01*
X105610300Y-95568053D01*
X105629870Y-95579783D01*
X105648196Y-95593375D01*
X105665102Y-95608698D01*
X105680425Y-95625604D01*
X105694017Y-95643930D01*
X105705747Y-95663500D01*
X105715502Y-95684126D01*
X105723189Y-95705609D01*
X105728733Y-95727742D01*
X105732080Y-95750311D01*
X105733200Y-95773100D01*
X105733200Y-96628100D01*
X105732080Y-96650889D01*
X105728733Y-96673458D01*
X105723189Y-96695591D01*
X105715502Y-96717074D01*
X105705747Y-96737700D01*
X105694017Y-96757270D01*
X105680425Y-96775596D01*
X105665102Y-96792502D01*
X105648196Y-96807825D01*
X105629870Y-96821417D01*
X105610300Y-96833147D01*
X105589674Y-96842902D01*
X105568191Y-96850589D01*
X105546058Y-96856133D01*
X105523489Y-96859480D01*
X105500700Y-96860600D01*
X105035700Y-96860600D01*
X105012911Y-96859480D01*
X104990342Y-96856133D01*
X104968209Y-96850589D01*
X104946726Y-96842902D01*
X104926100Y-96833147D01*
X104906530Y-96821417D01*
X104888204Y-96807825D01*
X104871298Y-96792502D01*
X104855975Y-96775596D01*
X104842383Y-96757270D01*
X104830653Y-96737700D01*
X104820898Y-96717074D01*
X104813211Y-96695591D01*
X104807667Y-96673458D01*
X104804320Y-96650889D01*
X104803200Y-96628100D01*
X104803200Y-95773100D01*
X104804320Y-95750311D01*
X104807667Y-95727742D01*
X104813211Y-95705609D01*
X104820898Y-95684126D01*
X104830653Y-95663500D01*
X104842383Y-95643930D01*
X104855975Y-95625604D01*
X104871298Y-95608698D01*
X104888204Y-95593375D01*
X104906530Y-95579783D01*
X104926100Y-95568053D01*
X104946726Y-95558298D01*
X104968209Y-95550611D01*
X104990342Y-95545067D01*
X105012911Y-95541720D01*
X105035700Y-95540600D01*
X105500700Y-95540600D01*
X105523489Y-95541720D01*
G37*
G04 #@! TD.AperFunction*
G04 #@! TA.AperFunction,SMDPad,CuDef*
G36*
X103883489Y-95541720D02*
G01*
X103906058Y-95545067D01*
X103928191Y-95550611D01*
X103949674Y-95558298D01*
X103970300Y-95568053D01*
X103989870Y-95579783D01*
X104008196Y-95593375D01*
X104025102Y-95608698D01*
X104040425Y-95625604D01*
X104054017Y-95643930D01*
X104065747Y-95663500D01*
X104075502Y-95684126D01*
X104083189Y-95705609D01*
X104088733Y-95727742D01*
X104092080Y-95750311D01*
X104093200Y-95773100D01*
X104093200Y-96628100D01*
X104092080Y-96650889D01*
X104088733Y-96673458D01*
X104083189Y-96695591D01*
X104075502Y-96717074D01*
X104065747Y-96737700D01*
X104054017Y-96757270D01*
X104040425Y-96775596D01*
X104025102Y-96792502D01*
X104008196Y-96807825D01*
X103989870Y-96821417D01*
X103970300Y-96833147D01*
X103949674Y-96842902D01*
X103928191Y-96850589D01*
X103906058Y-96856133D01*
X103883489Y-96859480D01*
X103860700Y-96860600D01*
X103395700Y-96860600D01*
X103372911Y-96859480D01*
X103350342Y-96856133D01*
X103328209Y-96850589D01*
X103306726Y-96842902D01*
X103286100Y-96833147D01*
X103266530Y-96821417D01*
X103248204Y-96807825D01*
X103231298Y-96792502D01*
X103215975Y-96775596D01*
X103202383Y-96757270D01*
X103190653Y-96737700D01*
X103180898Y-96717074D01*
X103173211Y-96695591D01*
X103167667Y-96673458D01*
X103164320Y-96650889D01*
X103163200Y-96628100D01*
X103163200Y-95773100D01*
X103164320Y-95750311D01*
X103167667Y-95727742D01*
X103173211Y-95705609D01*
X103180898Y-95684126D01*
X103190653Y-95663500D01*
X103202383Y-95643930D01*
X103215975Y-95625604D01*
X103231298Y-95608698D01*
X103248204Y-95593375D01*
X103266530Y-95579783D01*
X103286100Y-95568053D01*
X103306726Y-95558298D01*
X103328209Y-95550611D01*
X103350342Y-95545067D01*
X103372911Y-95541720D01*
X103395700Y-95540600D01*
X103860700Y-95540600D01*
X103883489Y-95541720D01*
G37*
G04 #@! TD.AperFunction*
G04 #@! TA.AperFunction,SMDPad,CuDef*
G36*
X103359909Y-94395471D02*
G01*
X103381508Y-94398675D01*
X103402688Y-94403981D01*
X103423247Y-94411337D01*
X103442986Y-94420673D01*
X103461714Y-94431898D01*
X103479253Y-94444905D01*
X103495431Y-94459569D01*
X103510095Y-94475747D01*
X103523102Y-94493286D01*
X103534327Y-94512014D01*
X103543663Y-94531753D01*
X103551019Y-94552312D01*
X103556325Y-94573492D01*
X103559529Y-94595091D01*
X103560600Y-94616900D01*
X103560600Y-95091900D01*
X103559529Y-95113709D01*
X103556325Y-95135308D01*
X103551019Y-95156488D01*
X103543663Y-95177047D01*
X103534327Y-95196786D01*
X103523102Y-95215514D01*
X103510095Y-95233053D01*
X103495431Y-95249231D01*
X103479253Y-95263895D01*
X103461714Y-95276902D01*
X103442986Y-95288127D01*
X103423247Y-95297463D01*
X103402688Y-95304819D01*
X103381508Y-95310125D01*
X103359909Y-95313329D01*
X103338100Y-95314400D01*
X102893100Y-95314400D01*
X102871291Y-95313329D01*
X102849692Y-95310125D01*
X102828512Y-95304819D01*
X102807953Y-95297463D01*
X102788214Y-95288127D01*
X102769486Y-95276902D01*
X102751947Y-95263895D01*
X102735769Y-95249231D01*
X102721105Y-95233053D01*
X102708098Y-95215514D01*
X102696873Y-95196786D01*
X102687537Y-95177047D01*
X102680181Y-95156488D01*
X102674875Y-95135308D01*
X102671671Y-95113709D01*
X102670600Y-95091900D01*
X102670600Y-94616900D01*
X102671671Y-94595091D01*
X102674875Y-94573492D01*
X102680181Y-94552312D01*
X102687537Y-94531753D01*
X102696873Y-94512014D01*
X102708098Y-94493286D01*
X102721105Y-94475747D01*
X102735769Y-94459569D01*
X102751947Y-94444905D01*
X102769486Y-94431898D01*
X102788214Y-94420673D01*
X102807953Y-94411337D01*
X102828512Y-94403981D01*
X102849692Y-94398675D01*
X102871291Y-94395471D01*
X102893100Y-94394400D01*
X103338100Y-94394400D01*
X103359909Y-94395471D01*
G37*
G04 #@! TD.AperFunction*
G04 #@! TA.AperFunction,SMDPad,CuDef*
G36*
X104689909Y-94395471D02*
G01*
X104711508Y-94398675D01*
X104732688Y-94403981D01*
X104753247Y-94411337D01*
X104772986Y-94420673D01*
X104791714Y-94431898D01*
X104809253Y-94444905D01*
X104825431Y-94459569D01*
X104840095Y-94475747D01*
X104853102Y-94493286D01*
X104864327Y-94512014D01*
X104873663Y-94531753D01*
X104881019Y-94552312D01*
X104886325Y-94573492D01*
X104889529Y-94595091D01*
X104890600Y-94616900D01*
X104890600Y-95091900D01*
X104889529Y-95113709D01*
X104886325Y-95135308D01*
X104881019Y-95156488D01*
X104873663Y-95177047D01*
X104864327Y-95196786D01*
X104853102Y-95215514D01*
X104840095Y-95233053D01*
X104825431Y-95249231D01*
X104809253Y-95263895D01*
X104791714Y-95276902D01*
X104772986Y-95288127D01*
X104753247Y-95297463D01*
X104732688Y-95304819D01*
X104711508Y-95310125D01*
X104689909Y-95313329D01*
X104668100Y-95314400D01*
X104223100Y-95314400D01*
X104201291Y-95313329D01*
X104179692Y-95310125D01*
X104158512Y-95304819D01*
X104137953Y-95297463D01*
X104118214Y-95288127D01*
X104099486Y-95276902D01*
X104081947Y-95263895D01*
X104065769Y-95249231D01*
X104051105Y-95233053D01*
X104038098Y-95215514D01*
X104026873Y-95196786D01*
X104017537Y-95177047D01*
X104010181Y-95156488D01*
X104004875Y-95135308D01*
X104001671Y-95113709D01*
X104000600Y-95091900D01*
X104000600Y-94616900D01*
X104001671Y-94595091D01*
X104004875Y-94573492D01*
X104010181Y-94552312D01*
X104017537Y-94531753D01*
X104026873Y-94512014D01*
X104038098Y-94493286D01*
X104051105Y-94475747D01*
X104065769Y-94459569D01*
X104081947Y-94444905D01*
X104099486Y-94431898D01*
X104118214Y-94420673D01*
X104137953Y-94411337D01*
X104158512Y-94403981D01*
X104179692Y-94398675D01*
X104201291Y-94395471D01*
X104223100Y-94394400D01*
X104668100Y-94394400D01*
X104689909Y-94395471D01*
G37*
G04 #@! TD.AperFunction*
G04 #@! TA.AperFunction,SMDPad,CuDef*
G36*
X104657548Y-93277375D02*
G01*
X104677206Y-93280291D01*
X104696483Y-93285120D01*
X104715193Y-93291814D01*
X104733158Y-93300311D01*
X104750203Y-93310527D01*
X104766165Y-93322365D01*
X104780889Y-93335711D01*
X104794235Y-93350435D01*
X104806073Y-93366397D01*
X104816289Y-93383442D01*
X104824786Y-93401407D01*
X104831480Y-93420117D01*
X104836309Y-93439394D01*
X104839225Y-93459052D01*
X104840200Y-93478900D01*
X104840200Y-93943900D01*
X104839225Y-93963748D01*
X104836309Y-93983406D01*
X104831480Y-94002683D01*
X104824786Y-94021393D01*
X104816289Y-94039358D01*
X104806073Y-94056403D01*
X104794235Y-94072365D01*
X104780889Y-94087089D01*
X104766165Y-94100435D01*
X104750203Y-94112273D01*
X104733158Y-94122489D01*
X104715193Y-94130986D01*
X104696483Y-94137680D01*
X104677206Y-94142509D01*
X104657548Y-94145425D01*
X104637700Y-94146400D01*
X104232700Y-94146400D01*
X104212852Y-94145425D01*
X104193194Y-94142509D01*
X104173917Y-94137680D01*
X104155207Y-94130986D01*
X104137242Y-94122489D01*
X104120197Y-94112273D01*
X104104235Y-94100435D01*
X104089511Y-94087089D01*
X104076165Y-94072365D01*
X104064327Y-94056403D01*
X104054111Y-94039358D01*
X104045614Y-94021393D01*
X104038920Y-94002683D01*
X104034091Y-93983406D01*
X104031175Y-93963748D01*
X104030200Y-93943900D01*
X104030200Y-93478900D01*
X104031175Y-93459052D01*
X104034091Y-93439394D01*
X104038920Y-93420117D01*
X104045614Y-93401407D01*
X104054111Y-93383442D01*
X104064327Y-93366397D01*
X104076165Y-93350435D01*
X104089511Y-93335711D01*
X104104235Y-93322365D01*
X104120197Y-93310527D01*
X104137242Y-93300311D01*
X104155207Y-93291814D01*
X104173917Y-93285120D01*
X104193194Y-93280291D01*
X104212852Y-93277375D01*
X104232700Y-93276400D01*
X104637700Y-93276400D01*
X104657548Y-93277375D01*
G37*
G04 #@! TD.AperFunction*
G04 #@! TA.AperFunction,SMDPad,CuDef*
G36*
X103297548Y-93277375D02*
G01*
X103317206Y-93280291D01*
X103336483Y-93285120D01*
X103355193Y-93291814D01*
X103373158Y-93300311D01*
X103390203Y-93310527D01*
X103406165Y-93322365D01*
X103420889Y-93335711D01*
X103434235Y-93350435D01*
X103446073Y-93366397D01*
X103456289Y-93383442D01*
X103464786Y-93401407D01*
X103471480Y-93420117D01*
X103476309Y-93439394D01*
X103479225Y-93459052D01*
X103480200Y-93478900D01*
X103480200Y-93943900D01*
X103479225Y-93963748D01*
X103476309Y-93983406D01*
X103471480Y-94002683D01*
X103464786Y-94021393D01*
X103456289Y-94039358D01*
X103446073Y-94056403D01*
X103434235Y-94072365D01*
X103420889Y-94087089D01*
X103406165Y-94100435D01*
X103390203Y-94112273D01*
X103373158Y-94122489D01*
X103355193Y-94130986D01*
X103336483Y-94137680D01*
X103317206Y-94142509D01*
X103297548Y-94145425D01*
X103277700Y-94146400D01*
X102872700Y-94146400D01*
X102852852Y-94145425D01*
X102833194Y-94142509D01*
X102813917Y-94137680D01*
X102795207Y-94130986D01*
X102777242Y-94122489D01*
X102760197Y-94112273D01*
X102744235Y-94100435D01*
X102729511Y-94087089D01*
X102716165Y-94072365D01*
X102704327Y-94056403D01*
X102694111Y-94039358D01*
X102685614Y-94021393D01*
X102678920Y-94002683D01*
X102674091Y-93983406D01*
X102671175Y-93963748D01*
X102670200Y-93943900D01*
X102670200Y-93478900D01*
X102671175Y-93459052D01*
X102674091Y-93439394D01*
X102678920Y-93420117D01*
X102685614Y-93401407D01*
X102694111Y-93383442D01*
X102704327Y-93366397D01*
X102716165Y-93350435D01*
X102729511Y-93335711D01*
X102744235Y-93322365D01*
X102760197Y-93310527D01*
X102777242Y-93300311D01*
X102795207Y-93291814D01*
X102813917Y-93285120D01*
X102833194Y-93280291D01*
X102852852Y-93277375D01*
X102872700Y-93276400D01*
X103277700Y-93276400D01*
X103297548Y-93277375D01*
G37*
G04 #@! TD.AperFunction*
D21*
X101901000Y-96290800D03*
X101901000Y-94230800D03*
D22*
X104000000Y-99750000D03*
X103300000Y-99750000D03*
D23*
X102967800Y-98080200D03*
X102459800Y-100213800D03*
X101824800Y-97191200D03*
X101901000Y-99588200D03*
X104441000Y-98072204D03*
X105380800Y-101225400D03*
X108153200Y-125282200D03*
X109423200Y-124571000D03*
X110042800Y-127500000D03*
X109792800Y-128500000D03*
X101833200Y-129476000D03*
X103805272Y-126232072D03*
X104991600Y-128180600D03*
X115450200Y-115976100D03*
X106854008Y-110111800D03*
X110515400Y-124494800D03*
X117238200Y-110373800D03*
X107268800Y-124573800D03*
X107010200Y-129295400D03*
X101734400Y-114680800D03*
X102234400Y-115180800D03*
X103727105Y-115714263D03*
X101172800Y-127850400D03*
X108153200Y-126171200D03*
X102425200Y-128206000D03*
X106234400Y-115180800D03*
X103729800Y-110162600D03*
X105990400Y-126740800D03*
X103803210Y-116715800D03*
X106041200Y-125597800D03*
X117862700Y-113338600D03*
X116963200Y-116749200D03*
X104736800Y-126948400D03*
X102409000Y-124691400D03*
X99774000Y-111621200D03*
X101729600Y-115758600D03*
X104734400Y-111680800D03*
X101734400Y-114180800D03*
X106234400Y-112180800D03*
X100000000Y-125215199D03*
X118588800Y-112378800D03*
D24*
X104234400Y-111680800D03*
D23*
X115109000Y-110653200D03*
X101323400Y-110300400D03*
X105584175Y-96353175D03*
X105330000Y-94355802D03*
X116154800Y-110378800D03*
X110000000Y-123859988D03*
X115349800Y-112877800D03*
X115349800Y-113877800D03*
X101346000Y-128914400D03*
X100123002Y-115199800D03*
X104017600Y-129450600D03*
X104978200Y-125064400D03*
X107253800Y-112992800D03*
X106512389Y-123949248D03*
X108149400Y-129707400D03*
X120188996Y-112380400D03*
X105734400Y-115180800D03*
X101734400Y-115180800D03*
X101323400Y-110960800D03*
X105234400Y-111680800D03*
X114956600Y-116469800D03*
X103234400Y-112180800D03*
X118919000Y-110551600D03*
X120189000Y-116106199D03*
X119604804Y-110492800D03*
X102734400Y-112180800D03*
X115349800Y-115361998D03*
X107412800Y-115572800D03*
X102734400Y-114180800D03*
X118769390Y-116698400D03*
X120039390Y-116673000D03*
X102234400Y-114180800D03*
X119833400Y-115377600D03*
X100656400Y-113642400D03*
X105380800Y-100675400D03*
X105533200Y-99091800D03*
X103454800Y-96327600D03*
X107818800Y-124573800D03*
X106234400Y-112680800D03*
X100910400Y-125441000D03*
X102237800Y-110066210D03*
X102234400Y-112180800D03*
X116688200Y-110378800D03*
X101234400Y-114680800D03*
X105734400Y-111680800D03*
X107235000Y-116487200D03*
X120112800Y-110035600D03*
X99716600Y-112245400D03*
D24*
X107387400Y-110111800D03*
D23*
X115349800Y-111867190D03*
X100377000Y-123548400D03*
X99799400Y-110960800D03*
X99183200Y-116741200D03*
X109343200Y-123853200D03*
D24*
X99386400Y-125699400D03*
D23*
X118360200Y-110475400D03*
X105533200Y-97644000D03*
X105126810Y-99545400D03*
X101977200Y-94533606D03*
X103653600Y-97240200D03*
X102180400Y-95752780D03*
X101723200Y-95092398D03*
X105787200Y-94101800D03*
X101175400Y-115736000D03*
X103734400Y-114680800D03*
X105734400Y-114680800D03*
X103734400Y-111680800D03*
X102358198Y-125199400D03*
X102586800Y-116444400D03*
X103234400Y-114680800D03*
X103145598Y-115826800D03*
X102307400Y-125707400D03*
X103272600Y-110518200D03*
X99310200Y-109654600D03*
X101234400Y-113180800D03*
X105234400Y-112180800D03*
X109542800Y-129500000D03*
X110029000Y-129941200D03*
X103475400Y-129450600D03*
X102383200Y-129476000D03*
X105516200Y-129450600D03*
X101722800Y-128409200D03*
X119533132Y-116770068D03*
X120239800Y-111339000D03*
X102734400Y-114680800D03*
X103153600Y-97240200D03*
X117801400Y-110399200D03*
X102536000Y-123726200D03*
X103234400Y-114180800D03*
X101977200Y-123728999D03*
X103734400Y-114180800D03*
X100046800Y-115953800D03*
X106015800Y-123972200D03*
X104234400Y-114680800D03*
X105507800Y-124023000D03*
X104263192Y-115631600D03*
X107598768Y-125301168D03*
X104234400Y-114180800D03*
X106727000Y-116309400D03*
X107285800Y-125699400D03*
X104734400Y-114680800D03*
X103704402Y-116190400D03*
X101678614Y-126152184D03*
X104734400Y-114180800D03*
X107071800Y-126198400D03*
X105234400Y-114198410D03*
X107412800Y-127198000D03*
X104127250Y-116365400D03*
X107184200Y-126698000D03*
X107477028Y-127667172D03*
X105234400Y-114680800D03*
X101671800Y-127212600D03*
X118284000Y-116698400D03*
X117776000Y-116673004D03*
X101469198Y-126639200D03*
X103526600Y-100899600D03*
X100910400Y-124891000D03*
X105350967Y-95176325D03*
X103933000Y-101153600D03*
X101494600Y-124891000D03*
X105750000Y-94750000D03*
D25*
X103300000Y-99750000D02*
X102923600Y-99750000D01*
X102923600Y-99750000D02*
X102459800Y-100213800D01*
X103734400Y-112180800D02*
X103234400Y-111680800D01*
X101734400Y-112232654D02*
X102053400Y-112551654D01*
X102234400Y-114680800D02*
X102234400Y-115180800D01*
X103734400Y-115706968D02*
X103727105Y-115714263D01*
X103734400Y-112180800D02*
X104734400Y-112180800D01*
X101734400Y-113680800D02*
X101734400Y-113180800D01*
X101734400Y-114180800D02*
X101734400Y-114180800D01*
X101734400Y-114180800D02*
X101734400Y-113680800D01*
X104734400Y-112180800D02*
X104734400Y-111680800D01*
X103734400Y-115180800D02*
X103734400Y-115706968D01*
X102053400Y-112861800D02*
X101859399Y-113055801D01*
X102053400Y-112551654D02*
X102053400Y-112861800D01*
X101859399Y-113055801D02*
X101734400Y-113180800D01*
X101734400Y-112180800D02*
X101734400Y-112232654D01*
X105532800Y-125056400D02*
X105532800Y-125249800D01*
D26*
X100962870Y-126178069D02*
X100962870Y-127640470D01*
D25*
X120019800Y-113877800D02*
X118122500Y-113877800D01*
X114485200Y-113377800D02*
X114372400Y-113265000D01*
X115349800Y-113377800D02*
X117434800Y-113377800D01*
X117684800Y-113767000D02*
X117684800Y-113627800D01*
X118122500Y-113877800D02*
X117862700Y-113618000D01*
X102583999Y-124866399D02*
X102409000Y-124691400D01*
X106049600Y-125589400D02*
X106041200Y-125597800D01*
X117074000Y-114377800D02*
X117684800Y-113767000D01*
X115349800Y-114377800D02*
X117074000Y-114377800D01*
X114450000Y-114860200D02*
X114932400Y-114377800D01*
X114932400Y-114377800D02*
X115349800Y-114377800D01*
D27*
X108361000Y-124573800D02*
X108361000Y-125115000D01*
D25*
X106049600Y-125056400D02*
X106049600Y-125589400D01*
X114357400Y-114860200D02*
X114450000Y-114860200D01*
X105880800Y-125597800D02*
X106041200Y-125597800D01*
X117862700Y-113618000D02*
X117862700Y-113338600D01*
X105532800Y-125249800D02*
X105880800Y-125597800D01*
X102848600Y-125131000D02*
X102583999Y-124866399D01*
X102875800Y-125131000D02*
X102848600Y-125131000D01*
X117434800Y-113377800D02*
X117684800Y-113627800D01*
X115349800Y-113377800D02*
X114485200Y-113377800D01*
D26*
X100000000Y-125215199D02*
X100962870Y-126178069D01*
D27*
X108361000Y-125115000D02*
X108165600Y-125310400D01*
D26*
X100962870Y-127640470D02*
X101172800Y-127850400D01*
D25*
X105532800Y-125056400D02*
X105532800Y-124472200D01*
X106066200Y-128917200D02*
X106066200Y-129450600D01*
X102925400Y-128706200D02*
X102425200Y-128206000D01*
X106066200Y-129450600D02*
X106855000Y-129450600D01*
X104991600Y-128180600D02*
X104991600Y-128467800D01*
X102925400Y-128917200D02*
X102925400Y-128706200D01*
X106855000Y-129450600D02*
X107010200Y-129295400D01*
X106049600Y-125056400D02*
X106049600Y-124472200D01*
X106668000Y-128315400D02*
X106066200Y-128917200D01*
X104991600Y-128467800D02*
X104567600Y-128891800D01*
X104567600Y-129450600D02*
X104567600Y-128891800D01*
X106668000Y-128206000D02*
X106668000Y-128315400D01*
X102925400Y-128917200D02*
X102925400Y-129450600D01*
X104685598Y-93711400D02*
X105330000Y-94355802D01*
X104435200Y-93711400D02*
X104685598Y-93711400D01*
D27*
X102391600Y-127367800D02*
X102967800Y-126791600D01*
D25*
X104982800Y-125056400D02*
X104982800Y-124472200D01*
X106599600Y-124036459D02*
X106512389Y-123949248D01*
D27*
X102334400Y-127367800D02*
X102391600Y-127367800D01*
D25*
X106599600Y-124472200D02*
X106599600Y-124036459D01*
X115349800Y-113877800D02*
X114449800Y-113877800D01*
X114418800Y-112761400D02*
X114372400Y-112715000D01*
X102975800Y-124621000D02*
X102975800Y-124531000D01*
D27*
X104487610Y-126232810D02*
X104025800Y-125771000D01*
D25*
X104025800Y-125671000D02*
X102975800Y-124621000D01*
X114819000Y-112877800D02*
X114702600Y-112761400D01*
X114449800Y-113877800D02*
X114357400Y-113970200D01*
D26*
X109977800Y-123882188D02*
X110000000Y-123859988D01*
D25*
X115349800Y-112877800D02*
X114819000Y-112877800D01*
D27*
X104101600Y-127290400D02*
X104101600Y-127765600D01*
X106733400Y-126925000D02*
X106041210Y-126232810D01*
X106733400Y-127458400D02*
X107463600Y-128188600D01*
X104025800Y-125771000D02*
X104025800Y-125731000D01*
X107865238Y-129707400D02*
X108149400Y-129707400D01*
D25*
X104025800Y-125731000D02*
X104025800Y-125671000D01*
D27*
X107463600Y-129305762D02*
X107865238Y-129707400D01*
X106041210Y-126232810D02*
X104487610Y-126232810D01*
D26*
X110008389Y-123851599D02*
X110000000Y-123859988D01*
D27*
X106733400Y-127367800D02*
X106733400Y-127458400D01*
D26*
X110861801Y-123851599D02*
X110008389Y-123851599D01*
X111023600Y-124475600D02*
X111023600Y-124013398D01*
X111023600Y-124013398D02*
X110861801Y-123851599D01*
D27*
X104101600Y-127765600D02*
X104101600Y-128180600D01*
D25*
X114702600Y-112761400D02*
X114418800Y-112761400D01*
D27*
X103602800Y-126791600D02*
X104101600Y-127290400D01*
X102967800Y-126791600D02*
X103602800Y-126791600D01*
X107463600Y-128188600D02*
X107463600Y-129305762D01*
X106733400Y-127367800D02*
X106733400Y-126925000D01*
D26*
X105234400Y-111504024D02*
X105234400Y-111680800D01*
X105779478Y-111000800D02*
X106676200Y-111000800D01*
X101338000Y-110975400D02*
X104705776Y-110975400D01*
X104705776Y-110975400D02*
X105234400Y-111504024D01*
X100148400Y-115174402D02*
X100148400Y-112135800D01*
X100123002Y-115199800D02*
X100148400Y-115174402D01*
X105234400Y-111545878D02*
X105779478Y-111000800D01*
X101323400Y-110960800D02*
X101338000Y-110975400D01*
X107235000Y-112974000D02*
X107253800Y-112992800D01*
X106676200Y-111000800D02*
X107235000Y-111559600D01*
X100148400Y-112135800D02*
X101323400Y-110960800D01*
X105234400Y-111680800D02*
X105234400Y-111545878D01*
X107235000Y-111559600D02*
X107235000Y-112974000D01*
D25*
X101348800Y-128917200D02*
X101346000Y-128914400D01*
X106599600Y-125056400D02*
X106599600Y-124472200D01*
X104101600Y-128807800D02*
X104017600Y-128891800D01*
X101833200Y-128917200D02*
X101348800Y-128917200D01*
D26*
X109977800Y-124573800D02*
X109977800Y-123882188D01*
D25*
X101172800Y-128741200D02*
X101346000Y-128914400D01*
X101172800Y-128409200D02*
X101172800Y-128741200D01*
X104101600Y-128180600D02*
X104101600Y-128807800D01*
X104017600Y-129450600D02*
X104017600Y-128891800D01*
X118934800Y-110567400D02*
X118919000Y-110551600D01*
X118934800Y-111292800D02*
X118934800Y-110567400D01*
X120130200Y-117155600D02*
X120392200Y-116893600D01*
X120363999Y-116281198D02*
X120189000Y-116106199D01*
X117397798Y-115925602D02*
X117397798Y-116896398D01*
X120392200Y-116893600D02*
X120392200Y-116309399D01*
X117434800Y-115962800D02*
X117434800Y-115888600D01*
X120392200Y-116309399D02*
X120363999Y-116281198D01*
X117434800Y-115888600D02*
X117397798Y-115925602D01*
X117657000Y-117155600D02*
X120130200Y-117155600D01*
X117397798Y-116896398D02*
X117657000Y-117155600D01*
X119434800Y-111292800D02*
X119434800Y-110662804D01*
X119434800Y-110662804D02*
X119604804Y-110492800D01*
X102734400Y-115264800D02*
X102139001Y-115860199D01*
X104618800Y-117147600D02*
X106193600Y-115572800D01*
X102663000Y-117147600D02*
X104618800Y-117147600D01*
X102139001Y-115860199D02*
X102139001Y-116623601D01*
X106193600Y-115572800D02*
X107412800Y-115572800D01*
X102734400Y-115180800D02*
X102734400Y-115264800D01*
X102139001Y-116623601D02*
X102663000Y-117147600D01*
X115349800Y-115377800D02*
X115349800Y-115361998D01*
X118934800Y-116532990D02*
X118769390Y-116698400D01*
X118934800Y-115962800D02*
X118934800Y-116532990D01*
X119434800Y-115962800D02*
X119434800Y-116172800D01*
X119935000Y-116673000D02*
X120039390Y-116673000D01*
X119434800Y-116172800D02*
X119935000Y-116673000D01*
X100696000Y-113642400D02*
X100656400Y-113642400D01*
X101234400Y-114180800D02*
X100696000Y-113642400D01*
X103628200Y-95671800D02*
X103628200Y-96200600D01*
X104445600Y-94854400D02*
X103628200Y-95671800D01*
X104075800Y-125131000D02*
X104165800Y-125131000D01*
X104988200Y-125953400D02*
X106439200Y-125953400D01*
D26*
X111136200Y-123413400D02*
X108208200Y-123413400D01*
X111523600Y-124475600D02*
X111523600Y-123800800D01*
X108208200Y-123413400D02*
X107818800Y-123802800D01*
D25*
X100910400Y-125441000D02*
X101494600Y-125441000D01*
X106439200Y-125953400D02*
X107608870Y-124783730D01*
X104165800Y-125131000D02*
X104988200Y-125953400D01*
D26*
X111523600Y-123800800D02*
X111136200Y-123413400D01*
X107818800Y-124573800D02*
X107818800Y-124573800D01*
D25*
X107608870Y-124783730D02*
X107818800Y-124573800D01*
D26*
X107818800Y-123802800D02*
X107818800Y-124573800D01*
D25*
X105734400Y-111680800D02*
X106234400Y-111680800D01*
D28*
X99220572Y-111539628D02*
X99799400Y-110960800D01*
X108911000Y-124573800D02*
X108911000Y-124285400D01*
X108911000Y-124285400D02*
X109343200Y-123853200D01*
X99220572Y-116703828D02*
X99220572Y-111539628D01*
D27*
X99386400Y-124539000D02*
X100377000Y-123548400D01*
X99386400Y-125699400D02*
X99386400Y-124539000D01*
D25*
X117934800Y-111292800D02*
X117934800Y-110900800D01*
X117934800Y-110900800D02*
X118360200Y-110475400D01*
X105126810Y-99297913D02*
X105126810Y-99545400D01*
X105533200Y-97644000D02*
X105126810Y-98050390D01*
X105126810Y-98050390D02*
X105126810Y-99297913D01*
X102231194Y-94533606D02*
X102224687Y-94533606D01*
X103075200Y-93711400D02*
X103053400Y-93711400D01*
X103053400Y-93711400D02*
X102231194Y-94533606D01*
D29*
X101901000Y-94457406D02*
X101977200Y-94533606D01*
X101901000Y-94230800D02*
X101901000Y-94457406D01*
D25*
X102231194Y-94533606D02*
X101977200Y-94533606D01*
X103653600Y-97916546D02*
X104000000Y-98262946D01*
X103653600Y-97240200D02*
X103653600Y-97916546D01*
X104000000Y-98262946D02*
X104000000Y-98847600D01*
X104000000Y-98847600D02*
X104000000Y-99750000D01*
X102217220Y-95752780D02*
X102180400Y-95752780D01*
X101901000Y-96290800D02*
X101901000Y-96032180D01*
X101901000Y-96032180D02*
X102005401Y-95927779D01*
X103115600Y-94854400D02*
X102217220Y-95752780D01*
X102005401Y-95927779D02*
X102180400Y-95752780D01*
X101234400Y-115677000D02*
X101175400Y-115736000D01*
X101234400Y-115180800D02*
X101234400Y-115677000D01*
X103234400Y-115737998D02*
X103145598Y-115826800D01*
X103234400Y-115180800D02*
X103234400Y-115737998D01*
X100994600Y-109654600D02*
X99310200Y-109654600D01*
X103272600Y-110518200D02*
X102391600Y-109637200D01*
X101012000Y-109637200D02*
X100994600Y-109654600D01*
X102391600Y-109637200D02*
X101012000Y-109637200D01*
D26*
X111380200Y-128129800D02*
X111380200Y-129553600D01*
X111380200Y-129553600D02*
X111000600Y-129933200D01*
X111120800Y-127870400D02*
X111380200Y-128129800D01*
X111120800Y-126377200D02*
X111120800Y-127870400D01*
X109542800Y-129500000D02*
X109587800Y-129500000D01*
X109587800Y-129500000D02*
X110029000Y-129941200D01*
D25*
X103315200Y-127378600D02*
X103304400Y-127367800D01*
X103475400Y-128366200D02*
X103315200Y-128206000D01*
X103475400Y-128917200D02*
X103475400Y-129450600D01*
X103475400Y-128917200D02*
X103475400Y-128366200D01*
X103315200Y-128206000D02*
X103315200Y-127378600D01*
X102383200Y-128917200D02*
X102383200Y-129476000D01*
X105516200Y-128917200D02*
X105516200Y-129450600D01*
X105763400Y-128191400D02*
X105778000Y-128206000D01*
X105763400Y-127367800D02*
X105763400Y-128191400D01*
X105516200Y-128467800D02*
X105778000Y-128206000D01*
X105516200Y-128917200D02*
X105516200Y-128467800D01*
X101722800Y-127850400D02*
X101722800Y-128409200D01*
X120019800Y-111559000D02*
X120064801Y-111513999D01*
X120064801Y-111513999D02*
X120239800Y-111339000D01*
X120019800Y-111877800D02*
X120019800Y-111559000D01*
X117434800Y-110765800D02*
X117801400Y-110399200D01*
X117434800Y-111292800D02*
X117434800Y-110765800D01*
D27*
X104234400Y-115602808D02*
X104263192Y-115631600D01*
X104234400Y-115180800D02*
X104234400Y-115602808D01*
D25*
X103780600Y-116190400D02*
X103704402Y-116190400D01*
X104734400Y-115736600D02*
X104466400Y-116004600D01*
X104466400Y-116004600D02*
X103966400Y-116004600D01*
X103966400Y-116004600D02*
X103780600Y-116190400D01*
X104734400Y-115180800D02*
X104734400Y-115736600D01*
X105234400Y-115617600D02*
X104486600Y-116365400D01*
X105234400Y-115180800D02*
X105234400Y-115617600D01*
X104486600Y-116365400D02*
X104127250Y-116365400D01*
X101846799Y-127037601D02*
X101671800Y-127212600D01*
X102219800Y-126664600D02*
X101846799Y-127037601D01*
X103475800Y-125821000D02*
X102632200Y-126664600D01*
X103475800Y-125731000D02*
X103475800Y-125821000D01*
X118434800Y-116547600D02*
X118284000Y-116698400D01*
X118434800Y-115962800D02*
X118434800Y-116547600D01*
X102632200Y-126664600D02*
X102219800Y-126664600D01*
X101782000Y-126639200D02*
X101469198Y-126639200D01*
X102975800Y-125731000D02*
X102975800Y-125843800D01*
X117776000Y-116614000D02*
X117776000Y-116673004D01*
X102975800Y-125843800D02*
X102477200Y-126342400D01*
X117934800Y-115962800D02*
X117934800Y-116455200D01*
X102078800Y-126342400D02*
X101782000Y-126639200D01*
X117934800Y-116455200D02*
X117776000Y-116614000D01*
X102477200Y-126342400D02*
X102078800Y-126342400D01*
X100910400Y-124891000D02*
X100910400Y-124234200D01*
X100910400Y-124234200D02*
X101850200Y-123294400D01*
X103975800Y-124353200D02*
X103975800Y-124531000D01*
X102917000Y-123294400D02*
X103975800Y-124353200D01*
X101850200Y-123294400D02*
X102917000Y-123294400D01*
X103182042Y-124107200D02*
X103232842Y-124158000D01*
X101494600Y-124891000D02*
X101494600Y-124425000D01*
X103475800Y-124378600D02*
X103475800Y-124531000D01*
X101494600Y-124425000D02*
X101812400Y-124107200D01*
X101812400Y-124107200D02*
X103182042Y-124107200D01*
X103232842Y-124158000D02*
X103255200Y-124158000D01*
X103255200Y-124158000D02*
X103475800Y-124378600D01*
G36*
X102765510Y-97122474D02*
G01*
X102750000Y-97200449D01*
X102750000Y-97279951D01*
X102765510Y-97357926D01*
X102795934Y-97431376D01*
X102840103Y-97497480D01*
X102896320Y-97553697D01*
X102962424Y-97597866D01*
X103035874Y-97628290D01*
X103113849Y-97643800D01*
X103193351Y-97643800D01*
X103271326Y-97628290D01*
X103271400Y-97628259D01*
X103271400Y-98500000D01*
X103279518Y-98560379D01*
X103295534Y-98602233D01*
X103423800Y-98858765D01*
X103423800Y-100508541D01*
X103408874Y-100511510D01*
X103335424Y-100541934D01*
X103269320Y-100586103D01*
X103213103Y-100642320D01*
X103168934Y-100708424D01*
X103138510Y-100781874D01*
X103123000Y-100859849D01*
X103123000Y-100939351D01*
X103138510Y-101017326D01*
X103168934Y-101090776D01*
X103213103Y-101156880D01*
X103269320Y-101213097D01*
X103335424Y-101257266D01*
X103408874Y-101287690D01*
X103423800Y-101290659D01*
X103423800Y-102173800D01*
X101576200Y-102173800D01*
X101576200Y-97076200D01*
X102784677Y-97076200D01*
X102765510Y-97122474D01*
G37*
X102765510Y-97122474D02*
X102750000Y-97200449D01*
X102750000Y-97279951D01*
X102765510Y-97357926D01*
X102795934Y-97431376D01*
X102840103Y-97497480D01*
X102896320Y-97553697D01*
X102962424Y-97597866D01*
X103035874Y-97628290D01*
X103113849Y-97643800D01*
X103193351Y-97643800D01*
X103271326Y-97628290D01*
X103271400Y-97628259D01*
X103271400Y-98500000D01*
X103279518Y-98560379D01*
X103295534Y-98602233D01*
X103423800Y-98858765D01*
X103423800Y-100508541D01*
X103408874Y-100511510D01*
X103335424Y-100541934D01*
X103269320Y-100586103D01*
X103213103Y-100642320D01*
X103168934Y-100708424D01*
X103138510Y-100781874D01*
X103123000Y-100859849D01*
X103123000Y-100939351D01*
X103138510Y-101017326D01*
X103168934Y-101090776D01*
X103213103Y-101156880D01*
X103269320Y-101213097D01*
X103335424Y-101257266D01*
X103408874Y-101287690D01*
X103423800Y-101290659D01*
X103423800Y-102173800D01*
X101576200Y-102173800D01*
X101576200Y-97076200D01*
X102784677Y-97076200D01*
X102765510Y-97122474D01*
D28*
G36*
X104935570Y-97131489D02*
G01*
X105035700Y-97141351D01*
X105500700Y-97141351D01*
X105600830Y-97131489D01*
X105615628Y-97127000D01*
X105873000Y-97127000D01*
X105873000Y-97341181D01*
X105822863Y-97291044D01*
X105748439Y-97241316D01*
X105665744Y-97207062D01*
X105577955Y-97189600D01*
X105488445Y-97189600D01*
X105400656Y-97207062D01*
X105317961Y-97241316D01*
X105243537Y-97291044D01*
X105180244Y-97354337D01*
X105130516Y-97428761D01*
X105096262Y-97511456D01*
X105079728Y-97594578D01*
X104887711Y-97786596D01*
X104874147Y-97797728D01*
X104835538Y-97844773D01*
X104793956Y-97782541D01*
X104730663Y-97719248D01*
X104656239Y-97669520D01*
X104573544Y-97635266D01*
X104485755Y-97617804D01*
X104396245Y-97617804D01*
X104308456Y-97635266D01*
X104225761Y-97669520D01*
X104151337Y-97719248D01*
X104088044Y-97782541D01*
X104038316Y-97856965D01*
X104004062Y-97939660D01*
X103986600Y-98027449D01*
X103986600Y-98116959D01*
X104004062Y-98204748D01*
X104038316Y-98287443D01*
X104088044Y-98361867D01*
X104151337Y-98425160D01*
X104225761Y-98474888D01*
X104308456Y-98509142D01*
X104396245Y-98526604D01*
X104485755Y-98526604D01*
X104573544Y-98509142D01*
X104656239Y-98474888D01*
X104730663Y-98425160D01*
X104771210Y-98384613D01*
X104771211Y-99259693D01*
X104724126Y-99330161D01*
X104689872Y-99412856D01*
X104672410Y-99500645D01*
X104672410Y-99590155D01*
X104689872Y-99677944D01*
X104724126Y-99760639D01*
X104773854Y-99835063D01*
X104837147Y-99898356D01*
X104911571Y-99948084D01*
X104994266Y-99982338D01*
X105082055Y-99999800D01*
X105171565Y-99999800D01*
X105259354Y-99982338D01*
X105342049Y-99948084D01*
X105416473Y-99898356D01*
X105479766Y-99835063D01*
X105529494Y-99760639D01*
X105563748Y-99677944D01*
X105581210Y-99590155D01*
X105581210Y-99545553D01*
X105665744Y-99528738D01*
X105748439Y-99494484D01*
X105822863Y-99444756D01*
X105873000Y-99394619D01*
X105873000Y-102123000D01*
X103877000Y-102123000D01*
X103877000Y-101605763D01*
X103888245Y-101608000D01*
X103977755Y-101608000D01*
X104065544Y-101590538D01*
X104148239Y-101556284D01*
X104222663Y-101506556D01*
X104285956Y-101443263D01*
X104335684Y-101368839D01*
X104369938Y-101286144D01*
X104387400Y-101198355D01*
X104387400Y-101108845D01*
X104369938Y-101021056D01*
X104335684Y-100938361D01*
X104285956Y-100863937D01*
X104222663Y-100800644D01*
X104148239Y-100750916D01*
X104065544Y-100716662D01*
X103977755Y-100699200D01*
X103935431Y-100699200D01*
X103929284Y-100684361D01*
X103893393Y-100630645D01*
X104926400Y-100630645D01*
X104926400Y-100720155D01*
X104943862Y-100807944D01*
X104978116Y-100890639D01*
X105018047Y-100950400D01*
X104978116Y-101010161D01*
X104943862Y-101092856D01*
X104926400Y-101180645D01*
X104926400Y-101270155D01*
X104943862Y-101357944D01*
X104978116Y-101440639D01*
X105027844Y-101515063D01*
X105091137Y-101578356D01*
X105165561Y-101628084D01*
X105248256Y-101662338D01*
X105336045Y-101679800D01*
X105425555Y-101679800D01*
X105513344Y-101662338D01*
X105596039Y-101628084D01*
X105670463Y-101578356D01*
X105733756Y-101515063D01*
X105783484Y-101440639D01*
X105817738Y-101357944D01*
X105835200Y-101270155D01*
X105835200Y-101180645D01*
X105817738Y-101092856D01*
X105783484Y-101010161D01*
X105743553Y-100950400D01*
X105783484Y-100890639D01*
X105817738Y-100807944D01*
X105835200Y-100720155D01*
X105835200Y-100630645D01*
X105817738Y-100542856D01*
X105783484Y-100460161D01*
X105733756Y-100385737D01*
X105670463Y-100322444D01*
X105596039Y-100272716D01*
X105513344Y-100238462D01*
X105425555Y-100221000D01*
X105336045Y-100221000D01*
X105248256Y-100238462D01*
X105165561Y-100272716D01*
X105091137Y-100322444D01*
X105027844Y-100385737D01*
X104978116Y-100460161D01*
X104943862Y-100542856D01*
X104926400Y-100630645D01*
X103893393Y-100630645D01*
X103879556Y-100609937D01*
X103877000Y-100607381D01*
X103877000Y-99000000D01*
X103874560Y-98975224D01*
X103863592Y-98943204D01*
X103627000Y-98470020D01*
X103627000Y-97141351D01*
X103860700Y-97141351D01*
X103960830Y-97131489D01*
X103975628Y-97127000D01*
X104920772Y-97127000D01*
X104935570Y-97131489D01*
G37*
X104935570Y-97131489D02*
X105035700Y-97141351D01*
X105500700Y-97141351D01*
X105600830Y-97131489D01*
X105615628Y-97127000D01*
X105873000Y-97127000D01*
X105873000Y-97341181D01*
X105822863Y-97291044D01*
X105748439Y-97241316D01*
X105665744Y-97207062D01*
X105577955Y-97189600D01*
X105488445Y-97189600D01*
X105400656Y-97207062D01*
X105317961Y-97241316D01*
X105243537Y-97291044D01*
X105180244Y-97354337D01*
X105130516Y-97428761D01*
X105096262Y-97511456D01*
X105079728Y-97594578D01*
X104887711Y-97786596D01*
X104874147Y-97797728D01*
X104835538Y-97844773D01*
X104793956Y-97782541D01*
X104730663Y-97719248D01*
X104656239Y-97669520D01*
X104573544Y-97635266D01*
X104485755Y-97617804D01*
X104396245Y-97617804D01*
X104308456Y-97635266D01*
X104225761Y-97669520D01*
X104151337Y-97719248D01*
X104088044Y-97782541D01*
X104038316Y-97856965D01*
X104004062Y-97939660D01*
X103986600Y-98027449D01*
X103986600Y-98116959D01*
X104004062Y-98204748D01*
X104038316Y-98287443D01*
X104088044Y-98361867D01*
X104151337Y-98425160D01*
X104225761Y-98474888D01*
X104308456Y-98509142D01*
X104396245Y-98526604D01*
X104485755Y-98526604D01*
X104573544Y-98509142D01*
X104656239Y-98474888D01*
X104730663Y-98425160D01*
X104771210Y-98384613D01*
X104771211Y-99259693D01*
X104724126Y-99330161D01*
X104689872Y-99412856D01*
X104672410Y-99500645D01*
X104672410Y-99590155D01*
X104689872Y-99677944D01*
X104724126Y-99760639D01*
X104773854Y-99835063D01*
X104837147Y-99898356D01*
X104911571Y-99948084D01*
X104994266Y-99982338D01*
X105082055Y-99999800D01*
X105171565Y-99999800D01*
X105259354Y-99982338D01*
X105342049Y-99948084D01*
X105416473Y-99898356D01*
X105479766Y-99835063D01*
X105529494Y-99760639D01*
X105563748Y-99677944D01*
X105581210Y-99590155D01*
X105581210Y-99545553D01*
X105665744Y-99528738D01*
X105748439Y-99494484D01*
X105822863Y-99444756D01*
X105873000Y-99394619D01*
X105873000Y-102123000D01*
X103877000Y-102123000D01*
X103877000Y-101605763D01*
X103888245Y-101608000D01*
X103977755Y-101608000D01*
X104065544Y-101590538D01*
X104148239Y-101556284D01*
X104222663Y-101506556D01*
X104285956Y-101443263D01*
X104335684Y-101368839D01*
X104369938Y-101286144D01*
X104387400Y-101198355D01*
X104387400Y-101108845D01*
X104369938Y-101021056D01*
X104335684Y-100938361D01*
X104285956Y-100863937D01*
X104222663Y-100800644D01*
X104148239Y-100750916D01*
X104065544Y-100716662D01*
X103977755Y-100699200D01*
X103935431Y-100699200D01*
X103929284Y-100684361D01*
X103893393Y-100630645D01*
X104926400Y-100630645D01*
X104926400Y-100720155D01*
X104943862Y-100807944D01*
X104978116Y-100890639D01*
X105018047Y-100950400D01*
X104978116Y-101010161D01*
X104943862Y-101092856D01*
X104926400Y-101180645D01*
X104926400Y-101270155D01*
X104943862Y-101357944D01*
X104978116Y-101440639D01*
X105027844Y-101515063D01*
X105091137Y-101578356D01*
X105165561Y-101628084D01*
X105248256Y-101662338D01*
X105336045Y-101679800D01*
X105425555Y-101679800D01*
X105513344Y-101662338D01*
X105596039Y-101628084D01*
X105670463Y-101578356D01*
X105733756Y-101515063D01*
X105783484Y-101440639D01*
X105817738Y-101357944D01*
X105835200Y-101270155D01*
X105835200Y-101180645D01*
X105817738Y-101092856D01*
X105783484Y-101010161D01*
X105743553Y-100950400D01*
X105783484Y-100890639D01*
X105817738Y-100807944D01*
X105835200Y-100720155D01*
X105835200Y-100630645D01*
X105817738Y-100542856D01*
X105783484Y-100460161D01*
X105733756Y-100385737D01*
X105670463Y-100322444D01*
X105596039Y-100272716D01*
X105513344Y-100238462D01*
X105425555Y-100221000D01*
X105336045Y-100221000D01*
X105248256Y-100238462D01*
X105165561Y-100272716D01*
X105091137Y-100322444D01*
X105027844Y-100385737D01*
X104978116Y-100460161D01*
X104943862Y-100542856D01*
X104926400Y-100630645D01*
X103893393Y-100630645D01*
X103879556Y-100609937D01*
X103877000Y-100607381D01*
X103877000Y-99000000D01*
X103874560Y-98975224D01*
X103863592Y-98943204D01*
X103627000Y-98470020D01*
X103627000Y-97141351D01*
X103860700Y-97141351D01*
X103960830Y-97131489D01*
X103975628Y-97127000D01*
X104920772Y-97127000D01*
X104935570Y-97131489D01*
D25*
G36*
X108991400Y-124698000D02*
G01*
X108992864Y-124712866D01*
X108997200Y-124727160D01*
X109004242Y-124740334D01*
X109013718Y-124751882D01*
X109090340Y-124828504D01*
X109094868Y-124836975D01*
X109133073Y-124883527D01*
X109179625Y-124921732D01*
X109188096Y-124926260D01*
X109394718Y-125132882D01*
X109406266Y-125142358D01*
X109419440Y-125149400D01*
X109433734Y-125153736D01*
X109448600Y-125155200D01*
X111582200Y-125155200D01*
X111582200Y-125841000D01*
X111023400Y-125841000D01*
X111008534Y-125842464D01*
X110994240Y-125846800D01*
X110981066Y-125853842D01*
X110969518Y-125863318D01*
X110875377Y-125957459D01*
X110868625Y-125961068D01*
X110822073Y-125999273D01*
X110783868Y-126045825D01*
X110780259Y-126052577D01*
X110690118Y-126142718D01*
X110680642Y-126154266D01*
X110673600Y-126167440D01*
X110669264Y-126181734D01*
X110667800Y-126196600D01*
X110667800Y-126476000D01*
X110490000Y-126476000D01*
X110475134Y-126477464D01*
X110460840Y-126481800D01*
X110447666Y-126488842D01*
X110436118Y-126498318D01*
X108734318Y-128200118D01*
X108724842Y-128211666D01*
X108717800Y-128224840D01*
X108713464Y-128239134D01*
X108712000Y-128254000D01*
X108712000Y-129371600D01*
X108373301Y-129371600D01*
X108340576Y-129349734D01*
X108267126Y-129319310D01*
X108189151Y-129303800D01*
X108109649Y-129303800D01*
X108031674Y-129319310D01*
X107969764Y-129344954D01*
X107950000Y-129325190D01*
X107950000Y-126907800D01*
X108331000Y-126907800D01*
X108345866Y-126906336D01*
X108360160Y-126902000D01*
X108373334Y-126894958D01*
X108384882Y-126885482D01*
X108791282Y-126479082D01*
X108800758Y-126467534D01*
X108807800Y-126454360D01*
X108812136Y-126440066D01*
X108813600Y-126425200D01*
X108813600Y-124469400D01*
X108991400Y-124469400D01*
X108991400Y-124698000D01*
G37*
X108991400Y-124698000D02*
X108992864Y-124712866D01*
X108997200Y-124727160D01*
X109004242Y-124740334D01*
X109013718Y-124751882D01*
X109090340Y-124828504D01*
X109094868Y-124836975D01*
X109133073Y-124883527D01*
X109179625Y-124921732D01*
X109188096Y-124926260D01*
X109394718Y-125132882D01*
X109406266Y-125142358D01*
X109419440Y-125149400D01*
X109433734Y-125153736D01*
X109448600Y-125155200D01*
X111582200Y-125155200D01*
X111582200Y-125841000D01*
X111023400Y-125841000D01*
X111008534Y-125842464D01*
X110994240Y-125846800D01*
X110981066Y-125853842D01*
X110969518Y-125863318D01*
X110875377Y-125957459D01*
X110868625Y-125961068D01*
X110822073Y-125999273D01*
X110783868Y-126045825D01*
X110780259Y-126052577D01*
X110690118Y-126142718D01*
X110680642Y-126154266D01*
X110673600Y-126167440D01*
X110669264Y-126181734D01*
X110667800Y-126196600D01*
X110667800Y-126476000D01*
X110490000Y-126476000D01*
X110475134Y-126477464D01*
X110460840Y-126481800D01*
X110447666Y-126488842D01*
X110436118Y-126498318D01*
X108734318Y-128200118D01*
X108724842Y-128211666D01*
X108717800Y-128224840D01*
X108713464Y-128239134D01*
X108712000Y-128254000D01*
X108712000Y-129371600D01*
X108373301Y-129371600D01*
X108340576Y-129349734D01*
X108267126Y-129319310D01*
X108189151Y-129303800D01*
X108109649Y-129303800D01*
X108031674Y-129319310D01*
X107969764Y-129344954D01*
X107950000Y-129325190D01*
X107950000Y-126907800D01*
X108331000Y-126907800D01*
X108345866Y-126906336D01*
X108360160Y-126902000D01*
X108373334Y-126894958D01*
X108384882Y-126885482D01*
X108791282Y-126479082D01*
X108800758Y-126467534D01*
X108807800Y-126454360D01*
X108812136Y-126440066D01*
X108813600Y-126425200D01*
X108813600Y-124469400D01*
X108991400Y-124469400D01*
X108991400Y-124698000D01*
M02*
