  0
SECTION
  2
HEADER
  9
$ACADVER
  1
AC1014
  9
$HANDSEED
  5
FFFF
  9
$MEASUREMENT
 70
     1
  0
ENDSEC
  0
SECTION
  2
TABLES
  0
TABLE
  2
VPORT
  5
8
330
0
100
AcDbSymbolTable
 70
     4
  0
VPORT
  5
2E
330
8
100
AcDbSymbolTableRecord
100
AcDbViewportTableRecord
  2
*ACTIVE
 70
     0
 10
0.0
 20
0.0
 11
1.0
 21
1.0
 12
210.0
 22
148.5
 13
0.0
 23
0.0
 14
10.0
 24
10.0
 15
10.0
 25
10.0
 16
0.0
 26
0.0
 36
1.0
 17
0.0
 27
0.0
 37
0.0
 40
341.0
 41
1.24
 42
50.0
 43
0.0
 44
0.0
 50
0.0
 51
0.0
 71
     0
 72
   100
 73
     1
 74
     3
 75
     0
 76
     0
 77
     0
 78
     0
  0
ENDTAB
  0
TABLE
  2
LTYPE
  5
5
330
0
100
AcDbSymbolTable
 70
     1
  0
LTYPE
  5
14
330
5
100
AcDbSymbolTableRecord
100
AcDbLinetypeTableRecord
  2
BYBLOCK
 70
     0
  3

 72
    65
 73
     0
 40
0.0
  0
LTYPE
  5
15
330
5
100
AcDbSymbolTableRecord
100
AcDbLinetypeTableRecord
  2
BYLAYER
 70
     0
  3

 72
    65
 73
     0
 40
0.0
  0
LTYPE
  5
16
330
5
100
AcDbSymbolTableRecord
100
AcDbLinetypeTableRecord
  2
CONTINUOUS
 70
     0
  3
Solid line
 72
    65
 73
     0
 40
0.0
  0
ENDTAB
  0
TABLE
  2
LAYER
  5
2
100
AcDbSymbolTable
 70
2
  0
LAYER
  5
50
100
AcDbSymbolTableRecord
100
AcDbLayerTableRecord
  2
0
 70
0
  6
CONTINUOUS
  0
LAYER
  5
51
100
AcDbSymbolTableRecord
100
AcDbLayerTableRecord
  2
Layer_1
 70
0
  6
CONTINUOUS
  0
ENDTAB
  0
TABLE
  2
STYLE
  5
3
330
0
100
AcDbSymbolTable
 70
     1
  0
STYLE
  5
11
330
3
100
AcDbSymbolTableRecord
100
AcDbTextStyleTableRecord
  2
STANDARD
 70
     0
 40
0.0
 41
1.0
 50
0.0
 71
     0
 42
2.5
  3
txt
  4

  0
ENDTAB
  0
TABLE
  2
VIEW
  5
6
330
0
100
AcDbSymbolTable
 70
     0
  0
ENDTAB
  0
TABLE
  2
UCS
  5
7
330
0
100
AcDbSymbolTable
 70
     0
  0
ENDTAB
  0
TABLE
  2
APPID
  5
9
330
0
100
AcDbSymbolTable
 70
     2
  0
APPID
  5
12
330
9
100
AcDbSymbolTableRecord
100
AcDbRegAppTableRecord
  2
ACAD
 70
     0
  0
ENDTAB
  0
TABLE
  2
DIMSTYLE
  5
A
330
0
100
AcDbSymbolTable
 70
     1
  0
DIMSTYLE
105
27
330
A
100
AcDbSymbolTableRecord
100
AcDbDimStyleTableRecord
  2
ISO-25
 70
     0
  3

  4

  5

  6

  7

 40
1.0
 41
2.5
 42
0.625
 43
3.75
 44
1.25
 45
0.0
 46
0.0
 47
0.0
 48
0.0
140
2.5
141
2.5
142
0.0
143
0.03937007874016
144
1.0
145
0.0
146
1.0
147
0.625
 71
     0
 72
     0
 73
     0
 74
     0
 75
     0
 76
     0
 77
     1
 78
     8
170
     0
171
     3
172
     1
173
     0
174
     0
175
     0
176
     0
177
     0
178
     0
270
     2
271
     2
272
     2
273
     2
274
     3
340
11
275
     0
280
     0
281
     0
282
     0
283
     0
284
     8
285
     0
286
     0
287
     3
288
     0
  0
ENDTAB
  0
TABLE
  2
BLOCK_RECORD
  5
1
330
0
100
AcDbSymbolTable
 70
     1
  0
BLOCK_RECORD
  5
1F
330
1
100
AcDbSymbolTableRecord
100
AcDbBlockTableRecord
  2
*MODEL_SPACE
  0
BLOCK_RECORD
  5
1B
330
1
100
AcDbSymbolTableRecord
100
AcDbBlockTableRecord
  2
*PAPER_SPACE
  0
ENDTAB
  0
ENDSEC
  0
SECTION
  2
BLOCKS
  0
BLOCK
  5
20
330
1F
100
AcDbEntity
  8
0
100
AcDbBlockBegin
  2
*MODEL_SPACE
 70
     0
 10
0.0
 20
0.0
 30
0.0
  3
*MODEL_SPACE
  1

  0
ENDBLK
  5
21
330
1F
100
AcDbEntity
  8
0
100
AcDbBlockEnd
  0
BLOCK
  5
1C
330
1B
100
AcDbEntity
 67
     1
  8
0
100
AcDbBlockBegin
  2
*PAPER_SPACE
  1

  0
ENDBLK
  5
1D
330
1B
100
AcDbEntity
 67
     1
  8
0
100
AcDbBlockEnd
  0
ENDSEC
  0
SECTION
  2
ENTITIES
  0
LINE
  5
100
100
AcDbEntity
  8
Layer_1
 62
7
100
AcDbLine
 10
11.536053
 20
2.434111
 30
0.0
 11
11.536053
 21
0.021166
 31
0.0
  0
SPLINE
  5
101
100
AcDbEntity
  8
Layer_1
 62
7
100
AcDbSpline
 70
0
 71
3
 72
10
 73
6
 74
4
 40
0.000000
 40
0.000000
 40
0.000000
 40
0.000000
 40
0.260507
 40
0.512845
 40
0.772682
 40
0.772682
 40
0.772682
 40
0.772682
 10
12.055572
 20
2.942606
 30
0.0
 10
11.968253
 20
2.928922
 30
0.0
 10
11.796352
 20
2.901982
 30
0.0
 10
11.598621
 20
2.703850
 30
0.0
 10
11.571739
 20
2.532210
 30
0.0
 10
11.558101
 20
2.445134
 30
0.0
 11
12.055572
 21
2.942606
 31
0.0
 11
11.804106
 21
2.874572
 31
0.0
 11
11.625829
 21
2.695989
 31
0.0
 11
11.558101
 21
2.445134
 31
0.0
  0
LINE
  5
102
100
AcDbEntity
  8
Layer_1
 62
7
100
AcDbLine
 10
1.524606
 20
5.439616
 30
0.0
 11
11.536053
 21
5.439616
 31
0.0
  0
SPLINE
  5
103
100
AcDbEntity
  8
Layer_1
 62
7
100
AcDbSpline
 70
0
 71
3
 72
10
 73
6
 74
4
 40
0.000000
 40
0.000000
 40
0.000000
 40
0.000000
 40
0.260431
 40
0.512555
 40
0.772983
 40
0.772983
 40
0.772983
 40
0.772983
 10
11.558101
 20
5.450644
 30
0.0
 10
11.571675
 20
5.363334
 30
0.0
 10
11.598391
 20
5.191499
 30
0.0
 10
11.796429
 20
4.993456
 30
0.0
 10
11.968263
 20
4.966739
 30
0.0
 10
12.055572
 20
4.953164
 30
0.0
 11
11.558101
 21
5.450644
 31
0.0
 11
11.625829
 21
5.199174
 31
0.0
 11
11.804106
 21
5.020894
 31
0.0
 11
12.055572
 21
4.953164
 31
0.0
  0
SPLINE
  5
104
100
AcDbEntity
  8
Layer_1
 62
7
100
AcDbSpline
 70
0
 71
3
 72
13
 73
9
 74
7
 40
0.000000
 40
0.000000
 40
0.000000
 40
0.000000
 40
0.525456
 40
1.034971
 40
1.560427
 40
2.086228
 40
2.596211
 40
3.121760
 40
3.121760
 40
3.121760
 40
3.121760
 10
12.055572
 20
2.942606
 30
0.0
 10
12.232747
 20
2.970171
 30
0.0
 10
12.581723
 20
3.024465
 30
0.0
 10
12.966005
 20
3.424188
 30
0.0
 10
13.107987
 20
3.947333
 30
0.0
 10
12.965921
 20
4.470515
 30
0.0
 10
12.581931
 20
4.870948
 30
0.0
 10
12.232775
 20
4.925486
 30
0.0
 10
12.055572
 20
4.953164
 30
0.0
 11
12.055572
 21
2.942606
 31
0.0
 11
12.562844
 21
3.079645
 31
0.0
 11
12.923125
 21
3.439925
 31
0.0
 11
13.060164
 21
3.947197
 31
0.0
 11
12.923125
 21
4.454826
 31
0.0
 11
12.562844
 21
4.815769
 31
0.0
 11
12.055572
 21
4.953164
 31
0.0
  0
SPLINE
  5
105
100
AcDbEntity
  8
Layer_1
 62
7
100
AcDbSpline
 70
0
 71
3
 72
10
 73
6
 74
4
 40
0.000000
 40
0.000000
 40
0.000000
 40
0.000000
 40
0.259836
 40
0.512178
 40
0.772688
 40
0.772688
 40
0.772688
 40
0.772688
 10
1.027134
 20
4.953164
 30
0.0
 10
1.114210
 20
4.966803
 30
0.0
 10
1.285850
 20
4.993686
 30
0.0
 10
1.483981
 20
5.191421
 30
0.0
 10
1.510921
 20
5.363324
 30
0.0
 10
1.524606
 20
5.450644
 30
0.0
 11
1.027134
 21
4.953164
 31
0.0
 11
1.277988
 21
5.020894
 31
0.0
 11
1.456572
 21
5.199174
 31
0.0
 11
1.524606
 21
5.450644
 31
0.0
  0
SPLINE
  5
106
100
AcDbEntity
  8
Layer_1
 62
7
100
AcDbSpline
 70
0
 71
3
 72
13
 73
9
 74
7
 40
0.000000
 40
0.000000
 40
0.000000
 40
0.000000
 40
0.525894
 40
1.036345
 40
1.562238
 40
2.087788
 40
2.597770
 40
3.123571
 40
3.123571
 40
3.123571
 40
3.123571
 10
1.027134
 20
4.953164
 30
0.0
 10
0.849834
 20
4.925466
 30
0.0
 10
0.500441
 20
4.870884
 30
0.0
 10
0.115830
 20
4.470720
 30
0.0
 10
-0.026851
 20
3.947333
 30
0.0
 10
0.115745
 20
3.423983
 30
0.0
 10
0.500649
 20
3.024530
 30
0.0
 10
0.849861
 20
2.970191
 30
0.0
 10
1.027134
 20
2.942606
 30
0.0
 11
1.027134
 21
4.953164
 31
0.0
 11
0.519506
 21
4.815769
 31
0.0
 11
0.158562
 21
4.454826
 31
0.0
 11
0.021167
 21
3.947197
 31
0.0
 11
0.158562
 21
3.439925
 31
0.0
 11
0.519506
 21
3.079645
 31
0.0
 11
1.027134
 21
2.942606
 31
0.0
  0
LINE
  5
107
100
AcDbEntity
  8
Layer_1
 62
7
100
AcDbLine
 10
1.524606
 20
0.021166
 30
0.0
 11
1.524606
 21
2.434111
 31
0.0
  0
LINE
  5
108
100
AcDbEntity
  8
Layer_1
 62
7
100
AcDbLine
 10
11.536053
 20
0.021166
 30
0.0
 11
1.524606
 21
0.021166
 31
0.0
  0
LINE
  5
109
100
AcDbEntity
  8
Layer_1
 62
7
100
AcDbLine
 10
3.091434
 20
0.634394
 30
0.0
 11
9.970601
 21
0.634394
 31
0.0
  0
SPLINE
  5
10a
100
AcDbEntity
  8
Layer_1
 62
7
100
AcDbSpline
 70
0
 71
3
 72
10
 73
6
 74
4
 40
0.000000
 40
0.000000
 40
0.000000
 40
0.000000
 40
0.259917
 40
0.512472
 40
0.772388
 40
0.772388
 40
0.772388
 40
0.772388
 10
1.524606
 20
2.445134
 30
0.0
 10
1.510858
 20
2.532221
 30
0.0
 10
1.483751
 20
2.703928
 30
0.0
 10
1.285927
 20
2.901752
 30
0.0
 10
1.114221
 20
2.928858
 30
0.0
 10
1.027134
 20
2.942606
 30
0.0
 11
1.524606
 21
2.445134
 31
0.0
 11
1.456572
 21
2.695989
 31
0.0
 11
1.277988
 21
2.874572
 31
0.0
 11
1.027134
 21
2.942606
 31
0.0
  0
LINE
  5
10b
100
AcDbEntity
  8
Layer_1
 62
7
100
AcDbLine
 10
2.434110
 20
4.169066
 30
0.0
 11
2.434110
 21
1.291718
 31
0.0
  0
SPLINE
  5
10c
100
AcDbEntity
  8
Layer_1
 62
7
100
AcDbSpline
 70
0
 71
3
 72
13
 73
9
 74
7
 40
0.000000
 40
0.000000
 40
0.000000
 40
0.000000
 40
0.202721
 40
0.401385
 40
0.603364
 40
0.806024
 40
1.004439
 40
1.207000
 40
1.207000
 40
1.207000
 40
1.207000
 10
2.438242
 20
1.299985
 30
0.0
 10
2.417263
 20
1.234778
 30
0.0
 10
2.375724
 20
1.105668
 30
0.0
 10
2.415283
 20
0.900412
 30
0.0
 10
2.527387
 20
0.727303
 30
0.0
 10
2.700463
 20
0.615565
 30
0.0
 10
2.905730
 20
0.575113
 30
0.0
 10
3.034600
 20
0.617243
 30
0.0
 10
3.099701
 20
0.638526
 30
0.0
 11
2.438242
 21
1.299985
 31
0.0
 11
2.392612
 21
1.102467
 31
0.0
 11
2.426912
 21
0.906785
 31
0.0
 11
2.537462
 21
0.737746
 31
0.0
 11
2.707114
 21
0.626890
 31
0.0
 11
2.902489
 21
0.592286
 31
0.0
 11
3.099701
 21
0.638526
 31
0.0
  0
LINE
  5
10d
100
AcDbEntity
  8
Layer_1
 62
7
100
AcDbLine
 10
9.970601
 20
4.847056
 30
0.0
 11
3.091434
 21
4.847056
 31
0.0
  0
SPLINE
  5
10e
100
AcDbEntity
  8
Layer_1
 62
7
100
AcDbSpline
 70
0
 71
3
 72
13
 73
9
 74
7
 40
0.000000
 40
0.000000
 40
0.000000
 40
0.000000
 40
0.202561
 40
0.400977
 40
0.603636
 40
0.805572
 40
1.003885
 40
1.205660
 40
1.205660
 40
1.205660
 40
1.205660
 10
3.099700
 20
4.842921
 30
0.0
 10
3.034599
 20
4.864203
 30
0.0
 10
2.905729
 20
4.906332
 30
0.0
 10
2.700462
 20
4.865882
 30
0.0
 10
2.527395
 20
4.754147
 30
0.0
 10
2.415368
 20
4.581183
 30
0.0
 10
2.375690
 20
4.376380
 30
0.0
 10
2.417270
 20
4.247724
 30
0.0
 10
2.438240
 20
4.182839
 30
0.0
 11
3.099700
 21
4.842921
 31
0.0
 11
2.902487
 21
4.889160
 31
0.0
 11
2.707112
 21
4.854556
 31
0.0
 11
2.537460
 21
4.743701
 31
0.0
 11
2.426911
 21
4.574713
 31
0.0
 11
2.392613
 21
4.379388
 31
0.0
 11
2.438240
 21
4.182839
 31
0.0
  0
LINE
  5
10f
100
AcDbEntity
  8
Layer_1
 62
7
100
AcDbLine
 10
10.626547
 20
1.291718
 30
0.0
 11
10.626547
 21
4.169066
 31
0.0
  0
SPLINE
  5
110
100
AcDbEntity
  8
Layer_1
 62
7
100
AcDbSpline
 70
0
 71
3
 72
13
 73
9
 74
7
 40
0.000000
 40
0.000000
 40
0.000000
 40
0.000000
 40
0.201915
 40
0.400281
 40
0.602384
 40
0.804488
 40
1.002854
 40
1.204768
 40
1.204768
 40
1.204768
 40
1.204768
 10
10.643080
 20
4.182841
 30
0.0
 10
10.664338
 20
4.247713
 30
0.0
 10
10.706480
 20
4.376317
 30
0.0
 10
10.666192
 20
4.581286
 30
0.0
 10
10.553975
 20
4.753818
 30
0.0
 10
10.381444
 20
4.866035
 30
0.0
 10
10.176474
 20
4.906325
 30
0.0
 10
10.047871
 20
4.864182
 30
0.0
 10
9.982999
 20
4.842923
 30
0.0
 11
10.643080
 21
4.182841
 31
0.0
 11
10.689319
 21
4.379390
 31
0.0
 11
10.654715
 21
4.574715
 31
0.0
 11
10.543860
 21
4.743703
 31
0.0
 11
10.374872
 21
4.854559
 31
0.0
 11
10.179547
 21
4.889163
 31
0.0
 11
9.982999
 21
4.842923
 31
0.0
  0
SPLINE
  5
111
100
AcDbEntity
  8
Layer_1
 62
7
100
AcDbSpline
 70
0
 71
3
 72
13
 73
9
 74
7
 40
0.000000
 40
0.000000
 40
0.000000
 40
0.000000
 40
0.201914
 40
0.400280
 40
0.602383
 40
0.805042
 40
1.003458
 40
1.206019
 40
1.206019
 40
1.206019
 40
1.206019
 10
9.983001
 20
0.638527
 30
0.0
 10
10.047875
 20
0.617268
 30
0.0
 10
10.176482
 20
0.575123
 30
0.0
 10
10.381423
 20
0.615431
 30
0.0
 10
10.554223
 20
0.727678
 30
0.0
 10
10.666058
 20
0.900738
 30
0.0
 10
10.706491
 20
1.106018
 30
0.0
 10
10.664364
 20
1.234886
 30
0.0
 10
10.643082
 20
1.299986
 30
0.0
 11
9.983001
 21
0.638527
 31
0.0
 11
10.179549
 21
0.592289
 31
0.0
 11
10.374874
 21
0.626892
 31
0.0
 11
10.543862
 21
0.737747
 31
0.0
 11
10.654717
 21
0.907399
 31
0.0
 11
10.689322
 21
1.102774
 31
0.0
 11
10.643082
 21
1.299986
 31
0.0
  0
SPLINE
  5
112
100
AcDbEntity
  8
Layer_1
 62
7
100
AcDbSpline
 70
0
 71
3
 72
19
 73
15
 74
13
 40
0.000000
 40
0.000000
 40
0.000000
 40
0.000000
 40
0.259921
 40
0.512478
 40
0.772394
 40
1.032310
 40
1.284868
 40
1.544788
 40
1.805299
 40
2.057640
 40
2.317476
 40
2.577313
 40
2.829654
 40
3.090165
 40
3.090165
 40
3.090165
 40
3.090165
 10
0.529662
 20
3.947197
 30
0.0
 10
0.543400
 20
3.859580
 30
0.0
 10
0.570486
 20
3.686829
 30
0.0
 10
0.768457
 20
3.496724
 30
0.0
 10
1.026677
 20
3.425877
 30
0.0
 10
1.287611
 20
3.496722
 30
0.0
 10
1.477594
 20
3.686836
 30
0.0
 10
1.548412
 20
3.947369
 30
0.0
 10
1.477817
 20
4.207991
 30
0.0
 10
1.287534
 20
4.398056
 30
0.0
 10
1.026677
 20
4.468328
 30
0.0
 10
0.768535
 20
4.398058
 30
0.0
 10
0.570257
 20
4.207984
 30
0.0
 10
0.543336
 20
4.035044
 30
0.0
 10
0.529662
 20
3.947197
 30
0.0
 11
0.529662
 21
3.947197
 31
0.0
 11
0.597696
 21
3.696339
 31
0.0
 11
0.776280
 21
3.517752
 31
0.0
 11
1.027134
 21
3.449717
 31
0.0
 11
1.277988
 21
3.517752
 31
0.0
 11
1.456572
 21
3.696339
 31
0.0
 11
1.524606
 21
3.947197
 31
0.0
 11
1.456572
 21
4.198667
 31
0.0
 11
1.277988
 21
4.376948
 31
0.0
 11
1.027134
 21
4.444677
 31
0.0
 11
0.776280
 21
4.376948
 31
0.0
 11
0.597696
 21
4.198667
 31
0.0
 11
0.529662
 21
3.947197
 31
0.0
  0
SPLINE
  5
113
100
AcDbEntity
  8
Layer_1
 62
7
100
AcDbSpline
 70
0
 71
3
 72
19
 73
15
 74
13
 40
0.000000
 40
0.000000
 40
0.000000
 40
0.000000
 40
0.259840
 40
0.512181
 40
0.772688
 40
1.032605
 40
1.285162
 40
1.545083
 40
1.805593
 40
2.057934
 40
2.317771
 40
2.578199
 40
2.830323
 40
3.090754
 40
3.090754
 40
3.090754
 40
3.090754
 10
11.558101
 20
3.947197
 30
0.0
 10
11.571729
 20
3.859593
 30
0.0
 10
11.598593
 20
3.686914
 30
0.0
 10
11.796461
 20
3.496472
 30
0.0
 10
12.054947
 20
3.425929
 30
0.0
 10
12.316042
 20
3.496694
 30
0.0
 10
12.506035
 20
3.686843
 30
0.0
 10
12.576848
 20
3.947369
 30
0.0
 10
12.506258
 20
4.207983
 30
0.0
 10
12.315965
 20
4.398084
 30
0.0
 10
12.054946
 20
4.468276
 30
0.0
 10
11.796539
 20
4.398309
 30
0.0
 10
11.598363
 20
4.207899
 30
0.0
 10
11.571666
 20
4.035032
 30
0.0
 10
11.558101
 20
3.947197
 30
0.0
 11
11.558101
 21
3.947197
 31
0.0
 11
11.625829
 21
3.696339
 31
0.0
 11
11.804106
 21
3.517752
 31
0.0
 11
12.055572
 21
3.449717
 31
0.0
 11
12.306427
 21
3.517752
 31
0.0
 11
12.485010
 21
3.696339
 31
0.0
 11
12.553044
 21
3.947197
 31
0.0
 11
12.485010
 21
4.198667
 31
0.0
 11
12.306427
 21
4.376948
 31
0.0
 11
12.055572
 21
4.444677
 31
0.0
 11
11.804106
 21
4.376948
 31
0.0
 11
11.625829
 21
4.198667
 31
0.0
 11
11.558101
 21
3.947197
 31
0.0
  0
LINE
  5
114
100
AcDbEntity
  8
Layer_1
 62
7
100
AcDbLine
 10
8.530552
 20
6.350503
 30
0.0
 11
9.039048
 21
6.350503
 31
0.0
  0
LINE
  5
115
100
AcDbEntity
  8
Layer_1
 62
7
100
AcDbLine
 10
8.530552
 20
5.439616
 30
0.0
 11
8.530552
 21
6.350503
 31
0.0
  0
LINE
  5
116
100
AcDbEntity
  8
Layer_1
 62
7
100
AcDbLine
 10
9.039048
 20
6.350503
 30
0.0
 11
9.039048
 21
5.439616
 31
0.0
  0
LINE
  5
117
100
AcDbEntity
  8
Layer_1
 62
7
100
AcDbLine
 10
11.133667
 20
3.937545
 30
0.0
 11
12.933384
 21
3.937545
 31
0.0
  0
LINE
  5
118
100
AcDbEntity
  8
Layer_1
 62
7
100
AcDbLine
 10
12.044549
 20
3.026659
 30
0.0
 11
12.044549
 21
4.826376
 31
0.0
  0
LINE
  5
119
100
AcDbEntity
  8
Layer_1
 62
7
100
AcDbLine
 10
5.651831
 20
2.730389
 30
0.0
 11
7.429500
 21
2.730389
 31
0.0
  0
LINE
  5
11a
100
AcDbEntity
  8
Layer_1
 62
7
100
AcDbLine
 10
6.540665
 20
1.841554
 30
0.0
 11
6.540665
 21
3.619220
 31
0.0
  0
LINE
  5
11b
100
AcDbEntity
  8
Layer_1
 62
7
100
AcDbLine
 10
0.149323
 20
3.937545
 30
0.0
 11
1.926993
 21
3.937545
 31
0.0
  0
LINE
  5
11c
100
AcDbEntity
  8
Layer_1
 62
7
100
AcDbLine
 10
1.038158
 20
3.026659
 30
0.0
 11
1.038158
 21
4.826376
 31
0.0
  0
SPLINE
  5
11d
100
AcDbEntity
  8
Layer_1
 62
7
100
AcDbSpline
 70
0
 71
3
 72
19
 73
15
 74
13
 40
0.000000
 40
0.000000
 40
0.000000
 40
0.000000
 40
0.790163
 40
1.552717
 40
2.333741
 40
3.114765
 40
3.877319
 40
4.667482
 40
5.458588
 40
6.221399
 40
7.002437
 40
7.783475
 40
8.546286
 40
9.337392
 40
9.337392
 40
9.337392
 40
9.337392
 10
8.023433
 20
2.741417
 30
0.0
 10
7.982606
 20
3.007783
 30
0.0
 10
7.902379
 20
3.531206
 30
0.0
 10
7.309855
 20
4.110915
 30
0.0
 10
6.532355
 20
4.327144
 30
0.0
 10
5.746894
 20
4.110915
 30
0.0
 10
5.177970
 20
3.531203
 30
0.0
 10
4.967700
 20
2.741110
 30
0.0
 10
5.177833
 20
1.950869
 30
0.0
 10
5.746762
 20
1.370568
 30
0.0
 10
6.532356
 20
1.154294
 30
0.0
 10
7.309984
 20
1.370567
 30
0.0
 10
7.902543
 20
1.950871
 30
0.0
 10
7.982650
 20
2.474722
 30
0.0
 10
8.023433
 20
2.741417
 30
0.0
 11
8.023433
 21
2.741417
 31
0.0
 11
7.819637
 21
3.504847
 31
0.0
 11
7.284192
 21
4.047791
 31
0.0
 11
6.531018
 21
4.254495
 31
0.0
 11
5.777844
 21
4.047791
 31
0.0
 11
5.242399
 21
3.504847
 31
0.0
 11
5.038603
 21
2.741417
 31
0.0
 11
5.242399
 21
1.977012
 31
0.0
 11
5.777844
 21
1.433707
 31
0.0
 11
6.531018
 21
1.226950
 31
0.0
 11
7.284192
 21
1.433707
 31
0.0
 11
7.819637
 21
1.977012
 31
0.0
 11
8.023433
 21
2.741417
 31
0.0
  0
ENDSEC
  0
SECTION
  2
OBJECTS
  0
DICTIONARY
  5
C
330
0
100
AcDbDictionary
  3
ACAD_GROUP
350
D
  3
ACAD_MLINESTYLE
350
17
  0
DICTIONARY
  5
D
330
C
100
AcDbDictionary
  0
DICTIONARY
  5
1A
330
C
100
AcDbDictionary
  0
DICTIONARY
  5
17
330
C
100
AcDbDictionary
  3
STANDARD
350
18
  0
DICTIONARY
  5
19
330
C
100
AcDbDictionary
  0
ENDSEC
  0
EOF
