  0
SECTION
  2
HEADER
  9
$ACADVER
  1
AC1014
  9
$HANDSEED
  5
FFFF
  9
$MEASUREMENT
 70
     1
  0
ENDSEC
  0
SECTION
  2
TABLES
  0
TABLE
  2
VPORT
  5
8
330
0
100
AcDbSymbolTable
 70
     4
  0
VPORT
  5
2E
330
8
100
AcDbSymbolTableRecord
100
AcDbViewportTableRecord
  2
*ACTIVE
 70
     0
 10
0.0
 20
0.0
 11
1.0
 21
1.0
 12
210.0
 22
148.5
 13
0.0
 23
0.0
 14
10.0
 24
10.0
 15
10.0
 25
10.0
 16
0.0
 26
0.0
 36
1.0
 17
0.0
 27
0.0
 37
0.0
 40
341.0
 41
1.24
 42
50.0
 43
0.0
 44
0.0
 50
0.0
 51
0.0
 71
     0
 72
   100
 73
     1
 74
     3
 75
     0
 76
     0
 77
     0
 78
     0
  0
ENDTAB
  0
TABLE
  2
LTYPE
  5
5
330
0
100
AcDbSymbolTable
 70
     1
  0
LTYPE
  5
14
330
5
100
AcDbSymbolTableRecord
100
AcDbLinetypeTableRecord
  2
BYBLOCK
 70
     0
  3

 72
    65
 73
     0
 40
0.0
  0
LTYPE
  5
15
330
5
100
AcDbSymbolTableRecord
100
AcDbLinetypeTableRecord
  2
BYLAYER
 70
     0
  3

 72
    65
 73
     0
 40
0.0
  0
LTYPE
  5
16
330
5
100
AcDbSymbolTableRecord
100
AcDbLinetypeTableRecord
  2
CONTINUOUS
 70
     0
  3
Solid line
 72
    65
 73
     0
 40
0.0
  0
ENDTAB
  0
TABLE
  2
LAYER
  5
2
100
AcDbSymbolTable
 70
2
  0
LAYER
  5
50
100
AcDbSymbolTableRecord
100
AcDbLayerTableRecord
  2
0
 70
0
  6
CONTINUOUS
  0
LAYER
  5
51
100
AcDbSymbolTableRecord
100
AcDbLayerTableRecord
  2
Layer_1
 70
0
  6
CONTINUOUS
  0
ENDTAB
  0
TABLE
  2
STYLE
  5
3
330
0
100
AcDbSymbolTable
 70
     1
  0
STYLE
  5
11
330
3
100
AcDbSymbolTableRecord
100
AcDbTextStyleTableRecord
  2
STANDARD
 70
     0
 40
0.0
 41
1.0
 50
0.0
 71
     0
 42
2.5
  3
txt
  4

  0
ENDTAB
  0
TABLE
  2
VIEW
  5
6
330
0
100
AcDbSymbolTable
 70
     0
  0
ENDTAB
  0
TABLE
  2
UCS
  5
7
330
0
100
AcDbSymbolTable
 70
     0
  0
ENDTAB
  0
TABLE
  2
APPID
  5
9
330
0
100
AcDbSymbolTable
 70
     2
  0
APPID
  5
12
330
9
100
AcDbSymbolTableRecord
100
AcDbRegAppTableRecord
  2
ACAD
 70
     0
  0
ENDTAB
  0
TABLE
  2
DIMSTYLE
  5
A
330
0
100
AcDbSymbolTable
 70
     1
  0
DIMSTYLE
105
27
330
A
100
AcDbSymbolTableRecord
100
AcDbDimStyleTableRecord
  2
ISO-25
 70
     0
  3

  4

  5

  6

  7

 40
1.0
 41
2.5
 42
0.625
 43
3.75
 44
1.25
 45
0.0
 46
0.0
 47
0.0
 48
0.0
140
2.5
141
2.5
142
0.0
143
0.03937007874016
144
1.0
145
0.0
146
1.0
147
0.625
 71
     0
 72
     0
 73
     0
 74
     0
 75
     0
 76
     0
 77
     1
 78
     8
170
     0
171
     3
172
     1
173
     0
174
     0
175
     0
176
     0
177
     0
178
     0
270
     2
271
     2
272
     2
273
     2
274
     3
340
11
275
     0
280
     0
281
     0
282
     0
283
     0
284
     8
285
     0
286
     0
287
     3
288
     0
  0
ENDTAB
  0
TABLE
  2
BLOCK_RECORD
  5
1
330
0
100
AcDbSymbolTable
 70
     1
  0
BLOCK_RECORD
  5
1F
330
1
100
AcDbSymbolTableRecord
100
AcDbBlockTableRecord
  2
*MODEL_SPACE
  0
BLOCK_RECORD
  5
1B
330
1
100
AcDbSymbolTableRecord
100
AcDbBlockTableRecord
  2
*PAPER_SPACE
  0
ENDTAB
  0
ENDSEC
  0
SECTION
  2
BLOCKS
  0
BLOCK
  5
20
330
1F
100
AcDbEntity
  8
0
100
AcDbBlockBegin
  2
*MODEL_SPACE
 70
     0
 10
0.0
 20
0.0
 30
0.0
  3
*MODEL_SPACE
  1

  0
ENDBLK
  5
21
330
1F
100
AcDbEntity
  8
0
100
AcDbBlockEnd
  0
BLOCK
  5
1C
330
1B
100
AcDbEntity
 67
     1
  8
0
100
AcDbBlockBegin
  2
*PAPER_SPACE
  1

  0
ENDBLK
  5
1D
330
1B
100
AcDbEntity
 67
     1
  8
0
100
AcDbBlockEnd
  0
ENDSEC
  0
SECTION
  2
ENTITIES
  0
SPLINE
  5
100
100
AcDbEntity
  8
Layer_1
 62
7
100
AcDbSpline
 70
0
 71
3
 72
19
 73
15
 74
13
 40
0.000000
 40
0.000000
 40
0.000000
 40
0.000000
 40
0.780260
 40
1.537492
 40
2.317751
 40
3.097666
 40
3.854430
 40
4.634596
 40
5.414763
 40
6.171527
 40
6.951442
 40
7.731701
 40
8.488933
 40
9.269193
 40
9.269193
 40
9.269193
 40
9.269193
 10
6.518618
 20
2.719367
 30
0.0
 10
6.477578
 20
2.982428
 30
0.0
 10
6.396709
 20
3.500789
 30
0.0
 10
5.802575
 20
4.071428
 30
0.0
 10
5.027705
 20
4.282991
 30
0.0
 10
4.244756
 20
4.071512
 30
0.0
 10
3.675199
 20
3.500580
 30
0.0
 10
3.464080
 20
2.719367
 30
0.0
 10
3.675199
 20
1.938153
 30
0.0
 10
4.244756
 20
1.367221
 30
0.0
 10
5.027705
 20
1.155742
 30
0.0
 10
5.802575
 20
1.367306
 30
0.0
 10
6.396709
 20
1.937945
 30
0.0
 10
6.477578
 20
2.456305
 30
0.0
 10
6.518618
 20
2.719367
 30
0.0
 11
6.518618
 21
2.719367
 31
0.0
 11
6.314821
 21
3.472541
 31
0.0
 11
5.779377
 21
4.007985
 31
0.0
 11
5.026203
 21
4.211782
 31
0.0
 11
4.273385
 21
4.007985
 31
0.0
 11
3.738604
 21
3.472541
 31
0.0
 11
3.535164
 21
2.719367
 31
0.0
 11
3.738604
 21
1.966192
 31
0.0
 11
4.273385
 21
1.430748
 31
0.0
 11
5.026203
 21
1.226951
 31
0.0
 11
5.779377
 21
1.430748
 31
0.0
 11
6.314821
 21
1.966192
 31
0.0
 11
6.518618
 21
2.719367
 31
0.0
  0
LINE
  5
101
100
AcDbEntity
  8
Layer_1
 62
7
100
AcDbLine
 10
8.465787
 20
0.613724
 30
0.0
 11
1.586620
 21
0.613724
 31
0.0
  0
SPLINE
  5
102
100
AcDbEntity
  8
Layer_1
 62
7
100
AcDbSpline
 70
0
 71
3
 72
13
 73
9
 74
7
 40
0.000000
 40
0.000000
 40
0.000000
 40
0.000000
 40
0.201915
 40
0.400281
 40
0.602385
 40
0.804489
 40
1.002854
 40
1.204770
 40
1.204770
 40
1.204770
 40
1.204770
 10
8.479566
 20
0.638529
 30
0.0
 10
8.544438
 20
0.617270
 30
0.0
 10
8.673042
 20
0.575125
 30
0.0
 10
8.878011
 20
0.615416
 30
0.0
 10
9.050543
 20
0.727633
 30
0.0
 10
9.162759
 20
0.900164
 30
0.0
 10
9.203050
 20
1.105134
 30
0.0
 10
9.160906
 20
1.233737
 30
0.0
 10
9.139646
 20
1.298609
 30
0.0
 11
8.479566
 21
0.638529
 31
0.0
 11
8.676115
 21
0.592288
 31
0.0
 11
8.871439
 21
0.626892
 31
0.0
 11
9.040428
 21
0.737747
 31
0.0
 11
9.151283
 21
0.906736
 31
0.0
 11
9.185887
 21
1.102060
 31
0.0
 11
9.139646
 21
1.298609
 31
0.0
  0
LINE
  5
103
100
AcDbEntity
  8
Layer_1
 62
7
100
AcDbLine
 10
0.930673
 20
1.290341
 30
0.0
 11
0.930673
 21
4.148392
 31
0.0
  0
SPLINE
  5
104
100
AcDbEntity
  8
Layer_1
 62
7
100
AcDbSpline
 70
0
 71
3
 72
13
 73
9
 74
7
 40
0.000000
 40
0.000000
 40
0.000000
 40
0.000000
 40
0.201915
 40
0.400281
 40
0.602385
 40
0.804489
 40
1.002855
 40
1.204770
 40
1.204770
 40
1.204770
 40
1.204770
 10
0.934807
 20
1.298609
 30
0.0
 10
0.913548
 20
1.233737
 30
0.0
 10
0.871403
 20
1.105134
 30
0.0
 10
0.911693
 20
0.900164
 30
0.0
 10
1.023911
 20
0.727633
 30
0.0
 10
1.196442
 20
0.615416
 30
0.0
 10
1.401412
 20
0.575125
 30
0.0
 10
1.530015
 20
0.617270
 30
0.0
 10
1.594888
 20
0.638529
 30
0.0
 11
0.934807
 21
1.298609
 31
0.0
 11
0.888566
 21
1.102060
 31
0.0
 11
0.923170
 21
0.906736
 31
0.0
 11
1.034026
 21
0.737747
 31
0.0
 11
1.203014
 21
0.626892
 31
0.0
 11
1.398338
 21
0.592288
 31
0.0
 11
1.594888
 21
0.638529
 31
0.0
  0
LINE
  5
105
100
AcDbEntity
  8
Layer_1
 62
7
100
AcDbLine
 10
1.586620
 20
4.804338
 30
0.0
 11
8.465787
 21
4.804338
 31
0.0
  0
SPLINE
  5
106
100
AcDbEntity
  8
Layer_1
 62
7
100
AcDbSpline
 70
0
 71
3
 72
13
 73
9
 74
7
 40
0.000000
 40
0.000000
 40
0.000000
 40
0.000000
 40
0.201916
 40
0.400281
 40
0.602384
 40
0.804233
 40
1.002298
 40
1.204808
 40
1.204808
 40
1.204808
 40
1.204808
 10
1.594888
 20
4.820876
 30
0.0
 10
1.530016
 20
4.842134
 30
0.0
 10
1.401415
 20
4.884276
 30
0.0
 10
1.196430
 20
4.843995
 30
0.0
 10
1.024030
 20
4.731793
 30
0.0
 10
0.911662
 20
4.559581
 30
0.0
 10
0.871440
 20
4.354588
 30
0.0
 10
0.913529
 20
4.225869
 30
0.0
 10
0.934807
 20
4.160795
 30
0.0
 11
1.594888
 21
4.820876
 31
0.0
 11
1.398338
 21
4.867116
 31
0.0
 11
1.203014
 21
4.832512
 31
0.0
 11
1.034026
 21
4.721657
 31
0.0
 11
0.923170
 21
4.552974
 31
0.0
 11
0.888566
 21
4.357956
 31
0.0
 11
0.934807
 21
4.160795
 31
0.0
  0
LINE
  5
107
100
AcDbEntity
  8
Layer_1
 62
7
100
AcDbLine
 10
9.123109
 20
4.148392
 30
0.0
 11
9.123109
 21
1.290341
 31
0.0
  0
LINE
  5
108
100
AcDbEntity
  8
Layer_1
 62
7
100
AcDbLine
 10
0.021167
 20
0.021167
 30
0.0
 11
10.032615
 21
0.021167
 31
0.0
  0
LINE
  5
109
100
AcDbEntity
  8
Layer_1
 62
7
100
AcDbLine
 10
10.032615
 20
0.021167
 30
0.0
 11
10.032615
 21
5.417575
 31
0.0
  0
LINE
  5
10a
100
AcDbEntity
  8
Layer_1
 62
7
100
AcDbLine
 10
10.032615
 20
5.417575
 30
0.0
 11
0.021167
 21
5.417575
 31
0.0
  0
LINE
  5
10b
100
AcDbEntity
  8
Layer_1
 62
7
100
AcDbLine
 10
0.021167
 20
5.417575
 30
0.0
 11
0.021167
 21
0.021167
 31
0.0
  0
LINE
  5
10c
100
AcDbEntity
  8
Layer_1
 62
7
100
AcDbLine
 10
7.027114
 20
6.306405
 30
0.0
 11
7.535609
 21
6.306405
 31
0.0
  0
LINE
  5
10d
100
AcDbEntity
  8
Layer_1
 62
7
100
AcDbLine
 10
7.027114
 20
5.417575
 30
0.0
 11
7.027114
 21
6.306405
 31
0.0
  0
LINE
  5
10e
100
AcDbEntity
  8
Layer_1
 62
7
100
AcDbLine
 10
7.535609
 20
6.306405
 30
0.0
 11
7.535609
 21
5.417575
 31
0.0
  0
LINE
  5
10f
100
AcDbEntity
  8
Layer_1
 62
7
100
AcDbLine
 10
4.127721
 20
2.730390
 30
0.0
 11
5.905390
 21
2.730390
 31
0.0
  0
LINE
  5
110
100
AcDbEntity
  8
Layer_1
 62
7
100
AcDbLine
 10
5.016555
 20
1.841557
 30
0.0
 11
5.016555
 21
3.619225
 31
0.0
  0
SPLINE
  5
111
100
AcDbEntity
  8
Layer_1
 62
7
100
AcDbSpline
 70
0
 71
3
 72
13
 73
9
 74
7
 40
0.000000
 40
0.000000
 40
0.000000
 40
0.000000
 40
0.202511
 40
0.400575
 40
0.602424
 40
0.804527
 40
1.002893
 40
1.204808
 40
1.204808
 40
1.204808
 40
1.204808
 10
9.139646
 20
4.160795
 30
0.0
 10
9.160924
 20
4.225869
 30
0.0
 10
9.203013
 20
4.354588
 30
0.0
 10
9.162790
 20
4.559580
 30
0.0
 10
9.050424
 20
4.731794
 30
0.0
 10
8.878023
 20
4.843995
 30
0.0
 10
8.673039
 20
4.884276
 30
0.0
 10
8.544437
 20
4.842134
 30
0.0
 10
8.479566
 20
4.820876
 30
0.0
 11
9.139646
 21
4.160795
 31
0.0
 11
9.185887
 21
4.357956
 31
0.0
 11
9.151283
 21
4.552974
 31
0.0
 11
9.040428
 21
4.721657
 31
0.0
 11
8.871439
 21
4.832512
 31
0.0
 11
8.676115
 21
4.867116
 31
0.0
 11
8.479566
 21
4.820876
 31
0.0
  0
ENDSEC
  0
SECTION
  2
OBJECTS
  0
DICTIONARY
  5
C
330
0
100
AcDbDictionary
  3
ACAD_GROUP
350
D
  3
ACAD_MLINESTYLE
350
17
  0
DICTIONARY
  5
D
330
C
100
AcDbDictionary
  0
DICTIONARY
  5
1A
330
C
100
AcDbDictionary
  0
DICTIONARY
  5
17
330
C
100
AcDbDictionary
  3
STANDARD
350
18
  0
DICTIONARY
  5
19
330
C
100
AcDbDictionary
  0
ENDSEC
  0
EOF
