G04 #@! TF.GenerationSoftware,KiCad,Pcbnew,(5.1.0)-1*
G04 #@! TF.CreationDate,2019-08-26T16:33:32-07:00*
G04 #@! TF.ProjectId,BNO055_08092019,424e4f30-3535-45f3-9038-303932303139,rev?*
G04 #@! TF.SameCoordinates,Original*
G04 #@! TF.FileFunction,Soldermask,Bot*
G04 #@! TF.FilePolarity,Negative*
%FSLAX46Y46*%
G04 Gerber Fmt 4.6, Leading zero omitted, Abs format (unit mm)*
G04 Created by KiCad (PCBNEW (5.1.0)-1) date 2019-08-26 16:33:32*
%MOMM*%
%LPD*%
G04 APERTURE LIST*
%ADD10C,0.100000*%
G04 APERTURE END LIST*
D10*
G36*
X189778301Y-77327201D02*
G01*
X189417501Y-77327201D01*
X189417501Y-76936401D01*
X189778301Y-76936401D01*
X189778301Y-77327201D01*
X189778301Y-77327201D01*
G37*
G36*
X190328301Y-77327201D02*
G01*
X189967501Y-77327201D01*
X189967501Y-76936401D01*
X190328301Y-76936401D01*
X190328301Y-77327201D01*
X190328301Y-77327201D01*
G37*
G36*
X191420501Y-77327201D02*
G01*
X191059701Y-77327201D01*
X191059701Y-76936401D01*
X191420501Y-76936401D01*
X191420501Y-77327201D01*
X191420501Y-77327201D01*
G37*
G36*
X190870501Y-77327201D02*
G01*
X190509701Y-77327201D01*
X190509701Y-76936401D01*
X190870501Y-76936401D01*
X190870501Y-77327201D01*
X190870501Y-77327201D01*
G37*
G36*
X192697599Y-76253538D02*
G01*
X192725961Y-76265286D01*
X192748451Y-76274601D01*
X192794205Y-76305174D01*
X192833128Y-76344097D01*
X192863701Y-76389851D01*
X192873016Y-76412341D01*
X192884764Y-76440703D01*
X192895501Y-76494682D01*
X192895501Y-76549720D01*
X192884764Y-76603699D01*
X192873016Y-76632061D01*
X192863701Y-76654551D01*
X192833128Y-76700305D01*
X192794205Y-76739228D01*
X192748451Y-76769801D01*
X192725961Y-76779116D01*
X192697599Y-76790864D01*
X192643620Y-76801601D01*
X192588582Y-76801601D01*
X192534603Y-76790864D01*
X192506241Y-76779116D01*
X192483751Y-76769801D01*
X192437997Y-76739228D01*
X192399074Y-76700305D01*
X192368501Y-76654551D01*
X192359186Y-76632061D01*
X192347438Y-76603699D01*
X192336701Y-76549720D01*
X192336701Y-76494682D01*
X192347438Y-76440703D01*
X192359186Y-76412341D01*
X192368501Y-76389851D01*
X192399074Y-76344097D01*
X192437997Y-76305174D01*
X192483751Y-76274601D01*
X192506241Y-76265286D01*
X192534603Y-76253538D01*
X192588582Y-76242801D01*
X192643620Y-76242801D01*
X192697599Y-76253538D01*
X192697599Y-76253538D01*
G37*
G36*
X192087999Y-75770939D02*
G01*
X192116361Y-75782687D01*
X192138851Y-75792002D01*
X192184605Y-75822575D01*
X192223528Y-75861498D01*
X192254101Y-75907252D01*
X192263416Y-75929742D01*
X192275164Y-75958104D01*
X192285901Y-76012083D01*
X192285901Y-76067121D01*
X192275164Y-76121100D01*
X192263416Y-76149462D01*
X192254101Y-76171952D01*
X192223528Y-76217706D01*
X192184605Y-76256629D01*
X192138851Y-76287202D01*
X192116361Y-76296517D01*
X192087999Y-76308265D01*
X192034020Y-76319002D01*
X191978982Y-76319002D01*
X191925003Y-76308265D01*
X191896641Y-76296517D01*
X191874151Y-76287202D01*
X191828397Y-76256629D01*
X191789474Y-76217706D01*
X191758901Y-76171952D01*
X191749586Y-76149462D01*
X191737838Y-76121100D01*
X191727101Y-76067121D01*
X191727101Y-76012083D01*
X191737838Y-75958104D01*
X191749586Y-75929742D01*
X191758901Y-75907252D01*
X191789474Y-75861498D01*
X191828397Y-75822575D01*
X191874151Y-75792002D01*
X191896641Y-75782687D01*
X191925003Y-75770939D01*
X191978982Y-75760202D01*
X192034020Y-75760202D01*
X192087999Y-75770939D01*
X192087999Y-75770939D01*
G37*
G36*
X189357101Y-76063201D02*
G01*
X188966301Y-76063201D01*
X188966301Y-75702401D01*
X189357101Y-75702401D01*
X189357101Y-76063201D01*
X189357101Y-76063201D01*
G37*
G36*
X192697599Y-75288339D02*
G01*
X192725961Y-75300087D01*
X192748451Y-75309402D01*
X192794205Y-75339975D01*
X192833128Y-75378898D01*
X192863701Y-75424652D01*
X192873016Y-75447142D01*
X192884764Y-75475504D01*
X192895501Y-75529483D01*
X192895501Y-75584521D01*
X192884764Y-75638500D01*
X192873016Y-75666862D01*
X192863701Y-75689352D01*
X192833128Y-75735106D01*
X192794205Y-75774029D01*
X192748451Y-75804602D01*
X192725961Y-75813917D01*
X192697599Y-75825665D01*
X192643620Y-75836402D01*
X192588582Y-75836402D01*
X192534603Y-75825665D01*
X192506241Y-75813917D01*
X192483751Y-75804602D01*
X192437997Y-75774029D01*
X192399074Y-75735106D01*
X192368501Y-75689352D01*
X192359186Y-75666862D01*
X192347438Y-75638500D01*
X192336701Y-75584521D01*
X192336701Y-75529483D01*
X192347438Y-75475504D01*
X192359186Y-75447142D01*
X192368501Y-75424652D01*
X192399074Y-75378898D01*
X192437997Y-75339975D01*
X192483751Y-75309402D01*
X192506241Y-75300087D01*
X192534603Y-75288339D01*
X192588582Y-75277602D01*
X192643620Y-75277602D01*
X192697599Y-75288339D01*
X192697599Y-75288339D01*
G37*
G36*
X188772901Y-75529801D02*
G01*
X188382101Y-75529801D01*
X188382101Y-75169001D01*
X188772901Y-75169001D01*
X188772901Y-75529801D01*
X188772901Y-75529801D01*
G37*
G36*
X189357101Y-75513201D02*
G01*
X188966301Y-75513201D01*
X188966301Y-75152401D01*
X189357101Y-75152401D01*
X189357101Y-75513201D01*
X189357101Y-75513201D01*
G37*
G36*
X192087999Y-74805740D02*
G01*
X192116361Y-74817488D01*
X192138851Y-74826803D01*
X192184605Y-74857376D01*
X192223528Y-74896299D01*
X192254101Y-74942053D01*
X192263416Y-74964543D01*
X192275164Y-74992905D01*
X192285901Y-75046884D01*
X192285901Y-75101922D01*
X192275164Y-75155901D01*
X192263416Y-75184263D01*
X192254101Y-75206753D01*
X192223528Y-75252507D01*
X192184605Y-75291430D01*
X192138851Y-75322003D01*
X192116361Y-75331318D01*
X192087999Y-75343066D01*
X192034020Y-75353803D01*
X191978982Y-75353803D01*
X191925003Y-75343066D01*
X191896641Y-75331318D01*
X191874151Y-75322003D01*
X191828397Y-75291430D01*
X191789474Y-75252507D01*
X191758901Y-75206753D01*
X191749586Y-75184263D01*
X191737838Y-75155901D01*
X191727101Y-75101922D01*
X191727101Y-75046884D01*
X191737838Y-74992905D01*
X191749586Y-74964543D01*
X191758901Y-74942053D01*
X191789474Y-74896299D01*
X191828397Y-74857376D01*
X191874151Y-74826803D01*
X191896641Y-74817488D01*
X191925003Y-74805740D01*
X191978982Y-74795003D01*
X192034020Y-74795003D01*
X192087999Y-74805740D01*
X192087999Y-74805740D01*
G37*
G36*
X188772901Y-74979801D02*
G01*
X188382101Y-74979801D01*
X188382101Y-74619001D01*
X188772901Y-74619001D01*
X188772901Y-74979801D01*
X188772901Y-74979801D01*
G37*
G36*
X192697599Y-74323140D02*
G01*
X192725961Y-74334888D01*
X192748451Y-74344203D01*
X192794205Y-74374776D01*
X192833128Y-74413699D01*
X192863701Y-74459453D01*
X192873016Y-74481943D01*
X192884764Y-74510305D01*
X192895501Y-74564284D01*
X192895501Y-74619322D01*
X192884764Y-74673301D01*
X192879669Y-74685601D01*
X192863701Y-74724153D01*
X192833128Y-74769907D01*
X192794205Y-74808830D01*
X192748451Y-74839403D01*
X192725961Y-74848718D01*
X192697599Y-74860466D01*
X192643620Y-74871203D01*
X192588582Y-74871203D01*
X192534603Y-74860466D01*
X192506241Y-74848718D01*
X192483751Y-74839403D01*
X192437997Y-74808830D01*
X192399074Y-74769907D01*
X192368501Y-74724153D01*
X192352533Y-74685601D01*
X192347438Y-74673301D01*
X192336701Y-74619322D01*
X192336701Y-74564284D01*
X192347438Y-74510305D01*
X192359186Y-74481943D01*
X192368501Y-74459453D01*
X192399074Y-74413699D01*
X192437997Y-74374776D01*
X192483751Y-74344203D01*
X192506241Y-74334888D01*
X192534603Y-74323140D01*
X192588582Y-74312403D01*
X192643620Y-74312403D01*
X192697599Y-74323140D01*
X192697599Y-74323140D01*
G37*
G36*
X189829101Y-74685601D02*
G01*
X189468301Y-74685601D01*
X189468301Y-74294801D01*
X189829101Y-74294801D01*
X189829101Y-74685601D01*
X189829101Y-74685601D01*
G37*
G36*
X190379101Y-74685601D02*
G01*
X190018301Y-74685601D01*
X190018301Y-74294801D01*
X190379101Y-74294801D01*
X190379101Y-74685601D01*
X190379101Y-74685601D01*
G37*
G36*
X189829101Y-74126801D02*
G01*
X189468301Y-74126801D01*
X189468301Y-73736001D01*
X189829101Y-73736001D01*
X189829101Y-74126801D01*
X189829101Y-74126801D01*
G37*
G36*
X190379101Y-74126801D02*
G01*
X190018301Y-74126801D01*
X190018301Y-73736001D01*
X190379101Y-73736001D01*
X190379101Y-74126801D01*
X190379101Y-74126801D01*
G37*
M02*
