G04 #@! TF.GenerationSoftware,KiCad,Pcbnew,(5.1.0)-1*
G04 #@! TF.CreationDate,2019-08-26T16:33:32-07:00*
G04 #@! TF.ProjectId,BNO055_08092019,424e4f30-3535-45f3-9038-303932303139,rev?*
G04 #@! TF.SameCoordinates,Original*
G04 #@! TF.FileFunction,Copper,L1,Top*
G04 #@! TF.FilePolarity,Positive*
%FSLAX46Y46*%
G04 Gerber Fmt 4.6, Leading zero omitted, Abs format (unit mm)*
G04 Created by KiCad (PCBNEW (5.1.0)-1) date 2019-08-26 16:33:32*
%MOMM*%
%LPD*%
G04 APERTURE LIST*
%ADD10R,0.300000X0.525000*%
%ADD11R,0.425000X0.300000*%
%ADD12C,0.450000*%
%ADD13C,0.152400*%
G04 APERTURE END LIST*
D10*
X188673501Y-74014901D03*
D11*
X188611001Y-74827401D03*
X188611001Y-75327401D03*
X188611001Y-75827401D03*
X188611001Y-76327401D03*
D10*
X188673501Y-77139901D03*
X189173501Y-77139901D03*
X189673501Y-77139901D03*
X190173501Y-77139901D03*
X190673501Y-77139901D03*
X191173501Y-77139901D03*
X191673501Y-77139901D03*
X192173501Y-77139901D03*
X192673501Y-77139901D03*
X193173501Y-77139901D03*
D11*
X193236001Y-76327401D03*
X193236001Y-75827401D03*
X193236001Y-75327401D03*
X193236001Y-74827401D03*
D10*
X193173501Y-74014901D03*
X192673501Y-74014901D03*
X192173501Y-74014901D03*
X191673501Y-74014901D03*
X191173501Y-74014901D03*
X190673501Y-74014901D03*
X190173501Y-74014901D03*
X189673501Y-74014901D03*
X189173501Y-74014901D03*
D12*
X191447701Y-74668001D03*
X189745901Y-75049001D03*
X190660301Y-76014209D03*
X192616101Y-75557001D03*
X189237901Y-76471401D03*
X189187101Y-74795001D03*
X190711101Y-74693401D03*
X191269901Y-75506201D03*
X192616101Y-76522201D03*
X190152301Y-76446001D03*
X189745901Y-75861801D03*
X191216408Y-76448998D03*
D13*
X189173501Y-74224583D02*
X189173501Y-74014901D01*
X189745901Y-74796983D02*
X189173501Y-74224583D01*
X189745901Y-75049001D02*
X189745901Y-74796983D01*
X189467501Y-75327401D02*
X189745901Y-75049001D01*
X188611001Y-75327401D02*
X189467501Y-75327401D01*
X193173501Y-76389901D02*
X193236001Y-76327401D01*
X193173501Y-77139901D02*
X193173501Y-76389901D01*
X192845701Y-75327401D02*
X193236001Y-75327401D01*
X192616101Y-75557001D02*
X192845701Y-75327401D01*
X193236001Y-75327401D02*
X193236001Y-75827401D01*
X188611001Y-77077401D02*
X188673501Y-77139901D01*
X188611001Y-76327401D02*
X188611001Y-77077401D01*
X188611001Y-76327401D02*
X189093901Y-76327401D01*
X189093901Y-76327401D02*
X189237901Y-76471401D01*
X190711101Y-74052501D02*
X190673501Y-74014901D01*
X190711101Y-74693401D02*
X190711101Y-74052501D01*
X189154701Y-74827401D02*
X189187101Y-74795001D01*
X188611001Y-74827401D02*
X189154701Y-74827401D01*
X193003256Y-76327401D02*
X193236001Y-76327401D01*
X192616101Y-75557001D02*
X192616101Y-75940246D01*
X192616101Y-75940246D02*
X193003256Y-76327401D01*
X192260501Y-74515601D02*
X191269901Y-75506201D01*
X192888119Y-74515601D02*
X192260501Y-74515601D01*
X192891420Y-74512300D02*
X192888119Y-74515601D01*
X192949602Y-74512300D02*
X192891420Y-74512300D01*
X193173501Y-74014901D02*
X193173501Y-74288401D01*
X193173501Y-74288401D02*
X192949602Y-74512300D01*
X192226000Y-76132100D02*
X192616101Y-76522201D01*
X192226000Y-75261302D02*
X192226000Y-76132100D01*
X193236001Y-74827401D02*
X192659901Y-74827401D01*
X192659901Y-74827401D02*
X192226000Y-75261302D01*
X190152301Y-77118701D02*
X190173501Y-77139901D01*
X190152301Y-76446001D02*
X190152301Y-77118701D01*
X188611001Y-75827401D02*
X189711501Y-75827401D01*
X189711501Y-75827401D02*
X189745901Y-75861801D01*
X191173501Y-77139901D02*
X191173501Y-76491905D01*
X191173501Y-76491905D02*
X191216408Y-76448998D01*
M02*
