G04 #@! TF.GenerationSoftware,KiCad,Pcbnew,(5.1.0)-1*
G04 #@! TF.CreationDate,2019-08-26T16:33:32-07:00*
G04 #@! TF.ProjectId,BNO055_08092019,424e4f30-3535-45f3-9038-303932303139,rev?*
G04 #@! TF.SameCoordinates,Original*
G04 #@! TF.FileFunction,Soldermask,Top*
G04 #@! TF.FilePolarity,Negative*
%FSLAX46Y46*%
G04 Gerber Fmt 4.6, Leading zero omitted, Abs format (unit mm)*
G04 Created by KiCad (PCBNEW (5.1.0)-1) date 2019-08-26 16:33:32*
%MOMM*%
%LPD*%
G04 APERTURE LIST*
%ADD10C,0.100000*%
G04 APERTURE END LIST*
D10*
G36*
X188848901Y-77427801D02*
G01*
X188498101Y-77427801D01*
X188498101Y-76852001D01*
X188848901Y-76852001D01*
X188848901Y-77427801D01*
X188848901Y-77427801D01*
G37*
G36*
X189348901Y-77427801D02*
G01*
X188998101Y-77427801D01*
X188998101Y-76852001D01*
X189348901Y-76852001D01*
X189348901Y-77427801D01*
X189348901Y-77427801D01*
G37*
G36*
X189848901Y-77427801D02*
G01*
X189498101Y-77427801D01*
X189498101Y-76852001D01*
X189848901Y-76852001D01*
X189848901Y-77427801D01*
X189848901Y-77427801D01*
G37*
G36*
X190348901Y-77427801D02*
G01*
X189998101Y-77427801D01*
X189998101Y-76852001D01*
X190348901Y-76852001D01*
X190348901Y-77427801D01*
X190348901Y-77427801D01*
G37*
G36*
X190848901Y-77427801D02*
G01*
X190498101Y-77427801D01*
X190498101Y-76852001D01*
X190848901Y-76852001D01*
X190848901Y-77427801D01*
X190848901Y-77427801D01*
G37*
G36*
X193348901Y-77427801D02*
G01*
X192998101Y-77427801D01*
X192998101Y-76852001D01*
X193348901Y-76852001D01*
X193348901Y-77427801D01*
X193348901Y-77427801D01*
G37*
G36*
X191348901Y-77427801D02*
G01*
X190998101Y-77427801D01*
X190998101Y-76852001D01*
X191348901Y-76852001D01*
X191348901Y-77427801D01*
X191348901Y-77427801D01*
G37*
G36*
X191848901Y-77427801D02*
G01*
X191498101Y-77427801D01*
X191498101Y-76852001D01*
X191848901Y-76852001D01*
X191848901Y-77427801D01*
X191848901Y-77427801D01*
G37*
G36*
X192348901Y-77427801D02*
G01*
X191998101Y-77427801D01*
X191998101Y-76852001D01*
X192348901Y-76852001D01*
X192348901Y-77427801D01*
X192348901Y-77427801D01*
G37*
G36*
X192848901Y-77427801D02*
G01*
X192498101Y-77427801D01*
X192498101Y-76852001D01*
X192848901Y-76852001D01*
X192848901Y-77427801D01*
X192848901Y-77427801D01*
G37*
G36*
X193473901Y-76502801D02*
G01*
X192998101Y-76502801D01*
X192998101Y-76152001D01*
X193473901Y-76152001D01*
X193473901Y-76502801D01*
X193473901Y-76502801D01*
G37*
G36*
X188848901Y-76502801D02*
G01*
X188373101Y-76502801D01*
X188373101Y-76152001D01*
X188848901Y-76152001D01*
X188848901Y-76502801D01*
X188848901Y-76502801D01*
G37*
G36*
X193473901Y-76002801D02*
G01*
X192998101Y-76002801D01*
X192998101Y-75652001D01*
X193473901Y-75652001D01*
X193473901Y-76002801D01*
X193473901Y-76002801D01*
G37*
G36*
X188848901Y-76002801D02*
G01*
X188373101Y-76002801D01*
X188373101Y-75652001D01*
X188848901Y-75652001D01*
X188848901Y-76002801D01*
X188848901Y-76002801D01*
G37*
G36*
X193473901Y-75502801D02*
G01*
X192998101Y-75502801D01*
X192998101Y-75152001D01*
X193473901Y-75152001D01*
X193473901Y-75502801D01*
X193473901Y-75502801D01*
G37*
G36*
X188848901Y-75502801D02*
G01*
X188373101Y-75502801D01*
X188373101Y-75152001D01*
X188848901Y-75152001D01*
X188848901Y-75502801D01*
X188848901Y-75502801D01*
G37*
G36*
X193473901Y-75002801D02*
G01*
X192998101Y-75002801D01*
X192998101Y-74652001D01*
X193473901Y-74652001D01*
X193473901Y-75002801D01*
X193473901Y-75002801D01*
G37*
G36*
X188848901Y-75002801D02*
G01*
X188373101Y-75002801D01*
X188373101Y-74652001D01*
X188848901Y-74652001D01*
X188848901Y-75002801D01*
X188848901Y-75002801D01*
G37*
G36*
X189348901Y-74302801D02*
G01*
X188998101Y-74302801D01*
X188998101Y-73727001D01*
X189348901Y-73727001D01*
X189348901Y-74302801D01*
X189348901Y-74302801D01*
G37*
G36*
X193348901Y-74302801D02*
G01*
X192998101Y-74302801D01*
X192998101Y-73727001D01*
X193348901Y-73727001D01*
X193348901Y-74302801D01*
X193348901Y-74302801D01*
G37*
G36*
X189848901Y-74302801D02*
G01*
X189498101Y-74302801D01*
X189498101Y-73727001D01*
X189848901Y-73727001D01*
X189848901Y-74302801D01*
X189848901Y-74302801D01*
G37*
G36*
X190348901Y-74302801D02*
G01*
X189998101Y-74302801D01*
X189998101Y-73727001D01*
X190348901Y-73727001D01*
X190348901Y-74302801D01*
X190348901Y-74302801D01*
G37*
G36*
X190848901Y-74302801D02*
G01*
X190498101Y-74302801D01*
X190498101Y-73727001D01*
X190848901Y-73727001D01*
X190848901Y-74302801D01*
X190848901Y-74302801D01*
G37*
G36*
X191348901Y-74302801D02*
G01*
X190998101Y-74302801D01*
X190998101Y-73727001D01*
X191348901Y-73727001D01*
X191348901Y-74302801D01*
X191348901Y-74302801D01*
G37*
G36*
X191848901Y-74302801D02*
G01*
X191498101Y-74302801D01*
X191498101Y-73727001D01*
X191848901Y-73727001D01*
X191848901Y-74302801D01*
X191848901Y-74302801D01*
G37*
G36*
X192348901Y-74302801D02*
G01*
X191998101Y-74302801D01*
X191998101Y-73727001D01*
X192348901Y-73727001D01*
X192348901Y-74302801D01*
X192348901Y-74302801D01*
G37*
G36*
X192848901Y-74302801D02*
G01*
X192498101Y-74302801D01*
X192498101Y-73727001D01*
X192848901Y-73727001D01*
X192848901Y-74302801D01*
X192848901Y-74302801D01*
G37*
G36*
X188848901Y-74302801D02*
G01*
X188498101Y-74302801D01*
X188498101Y-73727001D01*
X188848901Y-73727001D01*
X188848901Y-74302801D01*
X188848901Y-74302801D01*
G37*
M02*
