M48
; DRILL file {KiCad (5.1.0)-1} date 5/3/2019 9:31:29 PM
; FORMAT={-:-/ absolute / inch / decimal}
; #@! TF.CreationDate,2019-05-03T21:31:29-07:00
; #@! TF.GenerationSoftware,Kicad,Pcbnew,(5.1.0)-1
; #@! TF.FileFunction,Plated,1,6,PTH
FMAT,2
INCH
T1C0.0040
T2C0.0079
%
G90
G05
T1
X0.1785Y-0.7737
X0.1815Y-1.0387
X0.1817Y-1.4548
X0.1823Y-1.2758
X0.1832Y-1.4927
X0.1837Y-1.5308
X0.1846Y-1.4079
X0.1885Y-1.0027
X0.1895Y-0.9757
X0.1955Y-0.8447
X0.1995Y-0.7987
X0.2014Y-1.2997
X0.2015Y-1.0627
X0.2047Y-1.5128
X0.2057Y-1.4758
X0.2071Y-1.5498
X0.2155Y-0.8377
X0.2155Y-0.8637
X0.2204Y-1.2757
X0.2205Y-1.0397
X0.2235Y-0.7697
X0.2261Y-0.9093
X0.2305Y-0.9567
X0.2305Y-1.0077
X0.232Y-1.5361
X0.2395Y-1.0627
X0.2397Y-1.2994
X0.2425Y-0.9357
X0.2465Y-0.9647
X0.2495Y-1.0077
X0.2525Y-1.3758
X0.2525Y-1.3955
X0.2525Y-1.4151
X0.2525Y-1.4348
X0.2525Y-1.4545
X0.2525Y-1.4742
X0.2564Y-1.5578
X0.2584Y-1.2757
X0.2585Y-1.0387
X0.2595Y-0.7727
X0.2595Y-0.7987
X0.2665Y-1.0077
X0.2756Y-1.5369
X0.2774Y-1.2997
X0.2775Y-1.0627
X0.2855Y-1.0077
X0.2953Y-1.5366
X0.2964Y-1.2757
X0.2965Y-0.7687
X0.2965Y-1.0397
X0.2985Y-0.9344
X0.3051Y-1.0087
X0.3055Y-0.8922
X0.3065Y-0.9137
X0.3085Y-0.8337
X0.3149Y-1.5366
X0.3155Y-1.0627
X0.3225Y-0.9247
X0.3246Y-1.4655
X0.3265Y-0.8347
X0.3301Y-1.4099
X0.3345Y-0.8837
X0.3345Y-1.0397
X0.3346Y-1.5366
X0.3375Y-0.8027
X0.3405Y-0.9217
X0.3445Y-0.8337
X0.353Y-1.3
X0.3534Y-1.4377
X0.3535Y-1.0627
X0.3537Y-1.4097
X0.3543Y-1.3529
X0.3543Y-1.5366
X0.3545Y-0.9337
X0.3605Y-1.0097
X0.3724Y-0.9327
X0.3725Y-1.0397
X0.3739Y-1.5366
X0.3877Y-0.8007
X0.388Y-0.9203
X0.3884Y-1.4027
X0.3908Y-1.2993
X0.3935Y-0.8307
X0.3935Y-1.3529
X0.4015Y-0.9317
X0.4105Y-1.0397
X0.4106Y-1.2758
X0.4133Y-1.3529
X0.4155Y-0.8307
X0.4225Y-0.8867
X0.4275Y-0.9227
X0.4294Y-1.2997
X0.4295Y-1.0627
X0.4321Y-1.5375
X0.435Y-1.3756
X0.4363Y-1.3955
X0.4363Y-1.4151
X0.4363Y-1.4348
X0.4484Y-1.2757
X0.4485Y-1.0397
X0.4535Y-0.8277
X0.4715Y-1.0087
X0.4835Y-0.9147
X0.4845Y-0.8687
X0.4855Y-0.7997
X0.4863Y-1.2756
X0.4865Y-1.0397
X0.4954Y-1.4847
X0.4965Y-0.9847
X0.5055Y-1.0637
X0.5095Y-0.9707
X0.5227Y-1.3168
X0.5245Y-1.0387
X0.5248Y-1.2755
X0.5265Y-0.8057
X0.5265Y-0.8427
X0.5265Y-0.8807
X0.5265Y-0.9187
X0.5275Y-0.9567
X0.5295Y-0.9967
X0.5307Y-1.3788
X0.5435Y-1.0637
X0.5505Y-0.9007
X0.5505Y-0.9767
X0.5507Y-1.3178
X0.5515Y-0.7487
X0.5515Y-0.7857
X0.5515Y-0.8247
X0.5515Y-0.8627
X0.5515Y-0.9377
X0.5562Y-1.5667
X0.5711Y-1.2838
X0.5904Y-1.3167
X0.6104Y-1.4827
X0.6177Y-1.3488
X0.6217Y-1.4098
X0.9322Y-0.8694
X0.9332Y-0.9076
X1.0054Y-0.8127
X1.0062Y-0.9863
X1.0258Y-0.9764
X1.0457Y-0.9984
X1.0652Y-0.9826
X1.0847Y-0.9964
X1.1002Y-0.8486
T2
X0.8417Y-0.7664
X0.8427Y-0.8824
X0.8427Y-0.9964
X0.8492Y-0.2209
X0.8492Y-0.2999
X0.8657Y-0.7484
X0.8657Y-0.8624
X0.8771Y-0.2879
X0.8917Y-0.7714
X0.8918Y-0.8746
X0.8927Y-0.9774
X0.9092Y-0.1959
X0.9102Y-0.2449
X0.9172Y-0.7716
X0.9237Y-0.8074
X0.9242Y-0.2989
X0.9247Y-0.9894
X0.9587Y-0.7704
X0.9682Y-0.2029
X0.9742Y-0.3219
X0.9777Y-0.7464
X0.9782Y-0.3519
X0.9852Y-0.1893
X0.9902Y-0.2109
X0.9942Y-0.9081
X0.9967Y-0.7704
X0.9972Y-0.3759
X1.0157Y-0.7464
X1.0162Y-0.3519
X1.0202Y-0.2529
X1.0347Y-0.7704
X1.0352Y-0.3759
X1.0372Y-0.2679
X1.0477Y-0.9444
X1.0537Y-0.7464
X1.0542Y-0.3519
X1.0695Y-0.3299
X1.0792Y-0.1809
X1.0792Y-0.2039
X1.0932Y-0.2359
X1.1042Y-0.1789
X1.1097Y-0.7524
X1.1107Y-0.7804
X1.1112Y-0.8066
X1.1137Y-0.9854
X1.1202Y-0.3379
X1.1272Y-0.1789
X1.1532Y-0.1789
X1.1772Y-0.1789
X1.2242Y-0.1789
X1.2242Y-0.3159
X1.2242Y-0.3379
T0
M30
