G04 #@! TF.GenerationSoftware,KiCad,Pcbnew,(5.1.0)-1*
G04 #@! TF.CreationDate,2019-06-16T22:48:04-07:00*
G04 #@! TF.ProjectId,MS_v4_ETL_LED_Driver,4d535f76-345f-4455-944c-5f4c45445f44,rev?*
G04 #@! TF.SameCoordinates,Original*
G04 #@! TF.FileFunction,Copper,L1,Top*
G04 #@! TF.FilePolarity,Positive*
%FSLAX46Y46*%
G04 Gerber Fmt 4.6, Leading zero omitted, Abs format (unit mm)*
G04 Created by KiCad (PCBNEW (5.1.0)-1) date 2019-06-16 22:48:04*
%MOMM*%
%LPD*%
G04 APERTURE LIST*
%ADD10R,0.340000X0.310000*%
%ADD11C,0.508000*%
%ADD12C,0.350000*%
%ADD13R,2.390000X0.640000*%
%ADD14R,0.270000X0.640000*%
%ADD15R,0.220000X0.610000*%
%ADD16R,0.610000X0.220000*%
%ADD17R,0.310000X0.340000*%
%ADD18R,1.000000X1.000000*%
%ADD19R,0.630000X0.580000*%
%ADD20R,0.750000X1.270000*%
%ADD21C,0.450000*%
%ADD22C,0.088900*%
%ADD23C,0.152000*%
%ADD24C,0.203200*%
%ADD25C,0.254000*%
%ADD26C,0.090000*%
G04 APERTURE END LIST*
D10*
X21424200Y-17784200D03*
X21424200Y-18334200D03*
D11*
X12796520Y-16537940D03*
D12*
X16748000Y-21658200D03*
X16248000Y-21658200D03*
X15748000Y-21658200D03*
X15248000Y-21658200D03*
X14748000Y-21658200D03*
X16748000Y-21158200D03*
X16248000Y-21158200D03*
X15748000Y-21158200D03*
X15248000Y-21158200D03*
X14748000Y-21158200D03*
X16748000Y-20658200D03*
X16248000Y-20658200D03*
X15748000Y-20658200D03*
X15248000Y-20658200D03*
X14748000Y-20658200D03*
D13*
X20114260Y-15265400D03*
D14*
X19114260Y-14425400D03*
X19614260Y-14425400D03*
X20114260Y-14425400D03*
X20614260Y-14425400D03*
X21114260Y-14425400D03*
X21114260Y-16105400D03*
X20614260Y-16105400D03*
X20114260Y-16105400D03*
X19614260Y-16105400D03*
X19114260Y-16105400D03*
D13*
X16510000Y-15316200D03*
D14*
X15510000Y-14476200D03*
X16010000Y-14476200D03*
X16510000Y-14476200D03*
X17010000Y-14476200D03*
X17510000Y-14476200D03*
X17510000Y-16156200D03*
X17010000Y-16156200D03*
X16510000Y-16156200D03*
X16010000Y-16156200D03*
X15510000Y-16156200D03*
D15*
X15922600Y-19183800D03*
X15522600Y-19183800D03*
D16*
X14877600Y-19138800D03*
X14877600Y-18738800D03*
X14877600Y-18338800D03*
X14877600Y-17938800D03*
X14877600Y-17538800D03*
D15*
X15522600Y-17493800D03*
X15922600Y-17493800D03*
D16*
X16567600Y-17538800D03*
X16567600Y-17938800D03*
X16567600Y-18338800D03*
X16567600Y-18738800D03*
X16567600Y-19138800D03*
D17*
X18655000Y-13660000D03*
X19205000Y-13660000D03*
X20110000Y-13680000D03*
X20660000Y-13680000D03*
X17670000Y-13720000D03*
X17120000Y-13720000D03*
X13715000Y-13710000D03*
X14265000Y-13710000D03*
X15445000Y-13650000D03*
X15995000Y-13650000D03*
D18*
X17653000Y-23012400D03*
D10*
X17890000Y-18555000D03*
X17890000Y-19105000D03*
X13716000Y-22093600D03*
X13716000Y-21543600D03*
D17*
X13695000Y-22707600D03*
X14245000Y-22707600D03*
D11*
X13413486Y-18977894D03*
X12803886Y-18495294D03*
X13413486Y-18012695D03*
X12803886Y-17530095D03*
X13413486Y-17047496D03*
D17*
X17825000Y-19710000D03*
X17275000Y-19710000D03*
D19*
X13919200Y-15125200D03*
X13919200Y-16015200D03*
D20*
X15284200Y-22885400D03*
X16284200Y-22885400D03*
D19*
X19480000Y-17935000D03*
X19480000Y-17045000D03*
D10*
X18400000Y-17375000D03*
X18400000Y-17925000D03*
X20020000Y-19800000D03*
X20020000Y-20350000D03*
X19330000Y-20370000D03*
X19330000Y-19820000D03*
X20000000Y-18660000D03*
X20000000Y-19210000D03*
X19340000Y-19205000D03*
X19340000Y-18655000D03*
D21*
X18230000Y-20200000D03*
X17770000Y-21520000D03*
X13840000Y-14370000D03*
X17514300Y-15310000D03*
X20114260Y-15265400D03*
X18880000Y-22690000D03*
X14298788Y-17331212D03*
X12803886Y-18495294D03*
X19310000Y-20950000D03*
X18800000Y-19200000D03*
X20300000Y-17940000D03*
X21220000Y-13700000D03*
X13770000Y-23310000D03*
X13413486Y-18977894D03*
X16590000Y-19769999D03*
X18645510Y-14400000D03*
X20770000Y-19210000D03*
X14959741Y-14421891D03*
X17774245Y-17140158D03*
X14903607Y-13682595D03*
X14553360Y-14860764D03*
X12803886Y-17530095D03*
X14460000Y-23330000D03*
X13413486Y-18012695D03*
X14040000Y-19730000D03*
X15542222Y-18217108D03*
X20241307Y-17005550D03*
X12796520Y-16537939D03*
X20800000Y-17000000D03*
X13413486Y-17047496D03*
X18400000Y-16700000D03*
X20781008Y-18342017D03*
X17280000Y-18580000D03*
X16579998Y-13720000D03*
X16910343Y-17117162D03*
D22*
X16706200Y-20200000D02*
X17911802Y-20200000D01*
X16248000Y-20658200D02*
X16706200Y-20200000D01*
X17911802Y-20200000D02*
X18230000Y-20200000D01*
D23*
X17408200Y-21158200D02*
X17545001Y-21295001D01*
X16748000Y-21158200D02*
X17408200Y-21158200D01*
X17545001Y-21295001D02*
X17770000Y-21520000D01*
D24*
X14877600Y-18738800D02*
X14877600Y-19138800D01*
X15477600Y-19138800D02*
X15522600Y-19183800D01*
X14877600Y-19138800D02*
X15477600Y-19138800D01*
X14833000Y-18694200D02*
X14877600Y-18738800D01*
X13864200Y-18694200D02*
X14833000Y-18694200D01*
X12803886Y-18495294D02*
X13665294Y-18495294D01*
X13665294Y-18495294D02*
X13864200Y-18694200D01*
D23*
X15244400Y-20654600D02*
X15248000Y-20658200D01*
X15477600Y-17538800D02*
X15522600Y-17493800D01*
X14877600Y-17538800D02*
X15477600Y-17538800D01*
X16510000Y-14476200D02*
X17010000Y-14476200D01*
D25*
X20614260Y-14425400D02*
X20114260Y-14425400D01*
D24*
X16510000Y-14476200D02*
X16510000Y-15316200D01*
D25*
X20114260Y-14425400D02*
X20114260Y-15265400D01*
D23*
X13715000Y-13710000D02*
X13715000Y-14245000D01*
X13715000Y-14245000D02*
X13840000Y-14370000D01*
D22*
X16510000Y-15316200D02*
X17508100Y-15316200D01*
X17508100Y-15316200D02*
X17514300Y-15310000D01*
X13919200Y-14449200D02*
X13840000Y-14370000D01*
D23*
X13919200Y-15125200D02*
X13919200Y-14449200D01*
D22*
X20110000Y-14421140D02*
X20114260Y-14425400D01*
D25*
X20110000Y-13680000D02*
X20110000Y-14421140D01*
D22*
X14475012Y-17331212D02*
X14298788Y-17331212D01*
D24*
X14682600Y-17538800D02*
X14475012Y-17331212D01*
D22*
X14877600Y-17538800D02*
X14682600Y-17538800D01*
D25*
X17975400Y-22690000D02*
X17653000Y-23012400D01*
X18880000Y-22690000D02*
X17975400Y-22690000D01*
D23*
X16748000Y-20658200D02*
X16866200Y-20540000D01*
X18272166Y-20950000D02*
X18991802Y-20950000D01*
X17862166Y-20540000D02*
X18272166Y-20950000D01*
X18991802Y-20950000D02*
X19310000Y-20950000D01*
X19330000Y-20930000D02*
X19310000Y-20950000D01*
X19330000Y-20370000D02*
X19330000Y-20930000D01*
X16866200Y-20540000D02*
X17862166Y-20540000D01*
D22*
X15240000Y-20650200D02*
X15248000Y-20658200D01*
X15522600Y-19183800D02*
X15240000Y-19466400D01*
X15240000Y-19466400D02*
X15240000Y-20650200D01*
X19445000Y-17900000D02*
X19480000Y-17935000D01*
X19081100Y-19205000D02*
X19076100Y-19200000D01*
X19340000Y-19205000D02*
X19081100Y-19205000D01*
X19076100Y-19200000D02*
X18800000Y-19200000D01*
X18141100Y-17375000D02*
X18400000Y-17375000D01*
X17977300Y-17538800D02*
X18141100Y-17375000D01*
X16567600Y-17538800D02*
X17977300Y-17538800D01*
X18595000Y-17375000D02*
X18400000Y-17375000D01*
X19480000Y-17935000D02*
X19155000Y-17935000D01*
X19155000Y-17935000D02*
X18595000Y-17375000D01*
X18155000Y-18555000D02*
X18800000Y-19200000D01*
X17890000Y-18555000D02*
X18155000Y-18555000D01*
X17825000Y-19710000D02*
X18330000Y-19710000D01*
X18990000Y-20370000D02*
X19330000Y-20370000D01*
X18330000Y-19710000D02*
X18990000Y-20370000D01*
D25*
X19480000Y-17935000D02*
X20215000Y-17935000D01*
D22*
X20215000Y-17935000D02*
X20220000Y-17940000D01*
X20220000Y-17940000D02*
X20300000Y-17940000D01*
D23*
X15522600Y-19183800D02*
X15522600Y-18789900D01*
X16153768Y-18580000D02*
X16343768Y-18770000D01*
X15522600Y-18789900D02*
X15732500Y-18580000D01*
X15732500Y-18580000D02*
X16153768Y-18580000D01*
X15248000Y-21158200D02*
X15748000Y-20658200D01*
X13695000Y-22707600D02*
X13695000Y-22845000D01*
X13716000Y-22686600D02*
X13695000Y-22707600D01*
X13716000Y-22093600D02*
X13716000Y-22686600D01*
X15286100Y-14476200D02*
X15510000Y-14476200D01*
D22*
X19150000Y-14389660D02*
X19114260Y-14425400D01*
X20680000Y-13700000D02*
X20660000Y-13680000D01*
D24*
X21220000Y-13700000D02*
X20680000Y-13700000D01*
D22*
X13695000Y-22707600D02*
X13695000Y-23235000D01*
X13695000Y-23235000D02*
X13770000Y-23310000D01*
D24*
X19114260Y-14425400D02*
X18655400Y-14425400D01*
D26*
X18655400Y-14425400D02*
X18645510Y-14415510D01*
X18645510Y-14415510D02*
X18645510Y-14400000D01*
D22*
X16590000Y-19769999D02*
X16079999Y-19769999D01*
X15922600Y-19612600D02*
X15922600Y-19183800D01*
X16079999Y-19769999D02*
X15922600Y-19612600D01*
X15922999Y-19184199D02*
X15922600Y-19183800D01*
X15922999Y-20483201D02*
X15922999Y-19184199D01*
X15748000Y-20658200D02*
X15922999Y-20483201D01*
X20000000Y-19210000D02*
X20258900Y-19210000D01*
X20258900Y-19210000D02*
X20770000Y-19210000D01*
X20770000Y-19615000D02*
X20770000Y-19210000D01*
X20020000Y-20350000D02*
X20035000Y-20350000D01*
X20035000Y-20350000D02*
X20770000Y-19615000D01*
X17215001Y-19769999D02*
X17275000Y-19710000D01*
X16590000Y-19769999D02*
X17215001Y-19769999D01*
D23*
X15510000Y-14476200D02*
X15014050Y-14476200D01*
X15014050Y-14476200D02*
X14959741Y-14421891D01*
X14265000Y-13710000D02*
X14265000Y-13725000D01*
X14959741Y-14419741D02*
X14959741Y-14421891D01*
X14265000Y-13725000D02*
X14959741Y-14419741D01*
X15997600Y-14463800D02*
X16010000Y-14476200D01*
D24*
X15997600Y-13716000D02*
X15997600Y-14463800D01*
D22*
X17456047Y-17140158D02*
X17774245Y-17140158D01*
X17015889Y-16700000D02*
X17456047Y-17140158D01*
X16868800Y-16700000D02*
X17015889Y-16700000D01*
X16510000Y-16156200D02*
X16510000Y-16341200D01*
X16510000Y-16341200D02*
X16868800Y-16700000D01*
D24*
X13919200Y-16015200D02*
X14323100Y-16015200D01*
X15067900Y-16760000D02*
X15820000Y-16760000D01*
X16010000Y-16570000D02*
X16010000Y-16156200D01*
X15820000Y-16760000D02*
X16010000Y-16570000D01*
X14323100Y-16015200D02*
X15067900Y-16760000D01*
D25*
X15447600Y-13716000D02*
X14906000Y-13716000D01*
D24*
X14553360Y-15537760D02*
X14553360Y-15178962D01*
X14553360Y-15178962D02*
X14553360Y-14860764D01*
D26*
X14906000Y-13716000D02*
X14903607Y-13713607D01*
D24*
X15171800Y-16156200D02*
X14553360Y-15537760D01*
X15510000Y-16156200D02*
X15171800Y-16156200D01*
D26*
X14903607Y-13713607D02*
X14903607Y-13682595D01*
D23*
X12803886Y-17530095D02*
X13755703Y-17530095D01*
X13755703Y-17530095D02*
X14564408Y-18338800D01*
X14245000Y-22385600D02*
X14244200Y-22384800D01*
X14245000Y-22707600D02*
X14245000Y-22385600D01*
X14244200Y-21662000D02*
X14748000Y-21158200D01*
X14244200Y-22384800D02*
X14244200Y-21662000D01*
D22*
X14564408Y-18338800D02*
X14877600Y-18338800D01*
X14245000Y-23115000D02*
X14460000Y-23330000D01*
X14245000Y-22707600D02*
X14245000Y-23115000D01*
D24*
X13487381Y-17938800D02*
X13413486Y-18012695D01*
D23*
X14877600Y-17938800D02*
X15131102Y-17938800D01*
X14722000Y-20684200D02*
X14748000Y-20658200D01*
X13716000Y-21543600D02*
X13731000Y-21543600D01*
X13731000Y-21543600D02*
X13734200Y-21540400D01*
X13716000Y-21543600D02*
X13716000Y-20842400D01*
X13716000Y-20842400D02*
X13914200Y-20644200D01*
X13928200Y-20658200D02*
X14748000Y-20658200D01*
X13914200Y-20644200D02*
X13928200Y-20658200D01*
X14748000Y-20658200D02*
X14040000Y-19950200D01*
X14040000Y-19950200D02*
X14040000Y-19730000D01*
X14877600Y-17938800D02*
X15263914Y-17938800D01*
X15263914Y-17938800D02*
X15317223Y-17992109D01*
X15317223Y-17992109D02*
X15542222Y-18217108D01*
X15248000Y-21748000D02*
X15248000Y-21658200D01*
X15537367Y-22037367D02*
X15248000Y-21748000D01*
X15947367Y-22037367D02*
X15537367Y-22037367D01*
X16284200Y-22885400D02*
X16284200Y-22374200D01*
X16284200Y-22374200D02*
X15947367Y-22037367D01*
X15284200Y-22594200D02*
X15284200Y-22885400D01*
D25*
X14748000Y-21658200D02*
X14748000Y-22058000D01*
X14748000Y-22058000D02*
X15284200Y-22594200D01*
D23*
X16762600Y-19138800D02*
X16567600Y-19138800D01*
D22*
X16567600Y-19138800D02*
X16628800Y-19138800D01*
X20000000Y-19820000D02*
X20020000Y-19800000D01*
X19330000Y-19820000D02*
X20000000Y-19820000D01*
X19071100Y-19820000D02*
X19330000Y-19820000D01*
X18863900Y-19820000D02*
X19071100Y-19820000D01*
X17890000Y-19105000D02*
X18148900Y-19105000D01*
X18148900Y-19105000D02*
X18863900Y-19820000D01*
X17845000Y-19150000D02*
X17890000Y-19105000D01*
D26*
X17856200Y-19138800D02*
X17890000Y-19105000D01*
X16567600Y-19138800D02*
X17856200Y-19138800D01*
D23*
X18411100Y-13660000D02*
X18655000Y-13660000D01*
X18230000Y-13841100D02*
X18411100Y-13660000D01*
X18230000Y-15630000D02*
X18230000Y-13841100D01*
X18700000Y-16100000D02*
X18230000Y-15630000D01*
X19114260Y-16105400D02*
X19108860Y-16100000D01*
X19108860Y-16100000D02*
X18700000Y-16100000D01*
D22*
X19614260Y-14240400D02*
X19614260Y-14425400D01*
D24*
X19614260Y-14074260D02*
X19614260Y-14240400D01*
X19614260Y-13825360D02*
X19614260Y-14074260D01*
X19448900Y-13660000D02*
X19614260Y-13825360D01*
X19205000Y-13660000D02*
X19448900Y-13660000D01*
D22*
X19620000Y-16111140D02*
X19614260Y-16105400D01*
X19620000Y-16570000D02*
X19620000Y-16111140D01*
X19480000Y-17045000D02*
X19480000Y-16710000D01*
X19480000Y-16710000D02*
X19620000Y-16570000D01*
X19995000Y-18655000D02*
X20000000Y-18660000D01*
X19340000Y-18655000D02*
X19995000Y-18655000D01*
X19081100Y-18655000D02*
X19340000Y-18655000D01*
X18886100Y-18655000D02*
X19081100Y-18655000D01*
X18400000Y-18168900D02*
X18886100Y-18655000D01*
X18400000Y-17925000D02*
X18400000Y-18168900D01*
X16567600Y-17938800D02*
X18002339Y-17938800D01*
X18002339Y-17938800D02*
X18016139Y-17925000D01*
X18016139Y-17925000D02*
X18400000Y-17925000D01*
D23*
X20241307Y-16687352D02*
X20241307Y-17005550D01*
X20114260Y-16577400D02*
X20114260Y-16105400D01*
X20224212Y-16687352D02*
X20114260Y-16577400D01*
X20241307Y-16687352D02*
X20224212Y-16687352D01*
D22*
X20750000Y-16950000D02*
X20800000Y-17000000D01*
X20750000Y-16670000D02*
X20750000Y-16950000D01*
X20614260Y-16105400D02*
X20614260Y-16534260D01*
X20614260Y-16534260D02*
X20750000Y-16670000D01*
X17368800Y-16700000D02*
X18081802Y-16700000D01*
X18081802Y-16700000D02*
X18400000Y-16700000D01*
X17010000Y-16341200D02*
X17368800Y-16700000D01*
X17010000Y-16156200D02*
X17010000Y-16341200D01*
X21424200Y-18334200D02*
X21354200Y-18334200D01*
X20788825Y-18334200D02*
X20781008Y-18342017D01*
X21424200Y-18334200D02*
X20788825Y-18334200D01*
D23*
X17055001Y-18355001D02*
X17280000Y-18580000D01*
X17038800Y-18338800D02*
X17055001Y-18355001D01*
X16567600Y-18338800D02*
X17038800Y-18338800D01*
X17797000Y-14476200D02*
X17904200Y-14583400D01*
X17510000Y-14476200D02*
X17797000Y-14476200D01*
X17797000Y-16156200D02*
X17510000Y-16156200D01*
X17904200Y-16049000D02*
X17797000Y-16156200D01*
X17904200Y-14583400D02*
X17904200Y-16049000D01*
D22*
X17510000Y-14260000D02*
X17506150Y-14256150D01*
X17510000Y-14476200D02*
X17510000Y-14260000D01*
D23*
X17500600Y-14466800D02*
X17510000Y-14476200D01*
X17500600Y-14097000D02*
X17500600Y-14466800D01*
X17670000Y-13720000D02*
X17670000Y-13927600D01*
X17670000Y-13927600D02*
X17500600Y-14097000D01*
X21401260Y-16105400D02*
X21114260Y-16105400D01*
X21474161Y-16032499D02*
X21401260Y-16105400D01*
X21474161Y-14498301D02*
X21474161Y-16032499D01*
X21401260Y-14425400D02*
X21474161Y-14498301D01*
X21114260Y-14425400D02*
X21401260Y-14425400D01*
D22*
X21424260Y-17784140D02*
X21424200Y-17784200D01*
X21114260Y-16105400D02*
X21338160Y-16105400D01*
D23*
X21424200Y-17477200D02*
X21424200Y-17784200D01*
X21424200Y-16724200D02*
X21424200Y-17477200D01*
X21114260Y-16105400D02*
X21114260Y-16414260D01*
X21114260Y-16414260D02*
X21424200Y-16724200D01*
X15922600Y-17493800D02*
X15922600Y-17358800D01*
X16104238Y-17117162D02*
X16592145Y-17117162D01*
X16592145Y-17117162D02*
X16910343Y-17117162D01*
X15922600Y-17298800D02*
X16104238Y-17117162D01*
X15922600Y-17493800D02*
X15922600Y-17298800D01*
X17120000Y-13720000D02*
X16579998Y-13720000D01*
M02*
