M48
; DRILL file {KiCad (5.1.0)-1} date 11/7/2019 9:25:20 AM
; FORMAT={-:-/ absolute / inch / decimal}
; #@! TF.CreationDate,2019-11-07T09:25:20-08:00
; #@! TF.GenerationSoftware,Kicad,Pcbnew,(5.1.0)-1
FMAT,2
INCH
T1C0.0079
T2C0.0394
%
G90
G05
T1
X0.5038Y-0.6511
X0.5041Y-0.6902
X0.5041Y-0.7282
X0.5281Y-0.6712
X0.5281Y-0.7092
X0.5281Y-0.7472
X0.5626Y-0.7819
X0.5709Y-0.8803
X0.5827Y-0.6059
X0.5917Y-0.6965
X0.5953Y-0.5469
X0.6087Y-0.8102
X0.6138Y-0.9087
X0.6165Y-0.5469
X0.6256Y-0.7413
X0.6488Y-0.9091
X0.6547Y-0.6677
X0.6882Y-0.7626
X0.6898Y-0.7913
X0.7122Y-0.8094
X0.7177Y-0.6839
X0.7661Y-0.717
X0.7681Y-0.5469
X0.7748Y-0.6945
X0.7787Y-0.7693
X0.8004Y-0.5465
X0.8201Y-0.7555
X0.8236Y-0.5465
X0.8382Y-0.7142
X0.8453Y-0.5465
X0.8587Y-0.6059
X0.8638Y-0.7146
X0.8673Y-0.5465
X0.8854Y-0.6673
X0.889Y-0.8976
T2
X0.5035Y-0.5827
X0.937Y-0.5835
T0
M30
