G04 #@! TF.GenerationSoftware,KiCad,Pcbnew,(5.1.0)-1*
G04 #@! TF.CreationDate,2019-06-16T22:48:04-07:00*
G04 #@! TF.ProjectId,MS_v4_ETL_LED_Driver,4d535f76-345f-4455-944c-5f4c45445f44,rev?*
G04 #@! TF.SameCoordinates,Original*
G04 #@! TF.FileFunction,Copper,L5,Inr*
G04 #@! TF.FilePolarity,Positive*
%FSLAX46Y46*%
G04 Gerber Fmt 4.6, Leading zero omitted, Abs format (unit mm)*
G04 Created by KiCad (PCBNEW (5.1.0)-1) date 2019-06-16 22:48:04*
%MOMM*%
%LPD*%
G04 APERTURE LIST*
%ADD10C,0.450000*%
%ADD11C,0.254000*%
G04 APERTURE END LIST*
D10*
X18230000Y-20200000D03*
X17770000Y-21520000D03*
X13840000Y-14370000D03*
X17514300Y-15310000D03*
X20114260Y-15265400D03*
X18880000Y-22690000D03*
X14298788Y-17331212D03*
X12803886Y-18495294D03*
X19310000Y-20950000D03*
X18800000Y-19200000D03*
X20300000Y-17940000D03*
X21220000Y-13700000D03*
X13770000Y-23310000D03*
X13413486Y-18977894D03*
X16590000Y-19769999D03*
X18645510Y-14400000D03*
X20770000Y-19210000D03*
X14959741Y-14421891D03*
X17774245Y-17140158D03*
X14903607Y-13682595D03*
X14553360Y-14860764D03*
X12803886Y-17530095D03*
X14460000Y-23330000D03*
X13413486Y-18012695D03*
X14040000Y-19730000D03*
X15542222Y-18217108D03*
X20241307Y-17005550D03*
X12796520Y-16537939D03*
X20800000Y-17000000D03*
X13413486Y-17047496D03*
X18400000Y-16700000D03*
X20781008Y-18342017D03*
X17280000Y-18580000D03*
X16579998Y-13720000D03*
X16910343Y-17117162D03*
D11*
G36*
X13573000Y-19213000D02*
G01*
X13287737Y-19213000D01*
X13170604Y-19095867D01*
X13172338Y-18977932D01*
X13190188Y-18966005D01*
X13274597Y-18881596D01*
X13337804Y-18787000D01*
X13573000Y-18787000D01*
X13573000Y-19213000D01*
X13573000Y-19213000D01*
G37*
X13573000Y-19213000D02*
X13287737Y-19213000D01*
X13170604Y-19095867D01*
X13172338Y-18977932D01*
X13190188Y-18966005D01*
X13274597Y-18881596D01*
X13337804Y-18787000D01*
X13573000Y-18787000D01*
X13573000Y-19213000D01*
G36*
X14297607Y-13742281D02*
G01*
X14320895Y-13859359D01*
X14366577Y-13969644D01*
X14432896Y-14068897D01*
X14517305Y-14153306D01*
X14616558Y-14219625D01*
X14726843Y-14265307D01*
X14843921Y-14288595D01*
X14963293Y-14288595D01*
X15080371Y-14265307D01*
X15190656Y-14219625D01*
X15289909Y-14153306D01*
X15374318Y-14068897D01*
X15440637Y-13969644D01*
X15486319Y-13859359D01*
X15509607Y-13742281D01*
X15509607Y-13690600D01*
X15973998Y-13690600D01*
X15973998Y-13779686D01*
X15997286Y-13896764D01*
X16042968Y-14007049D01*
X16109287Y-14106302D01*
X16193696Y-14190711D01*
X16292949Y-14257030D01*
X16403234Y-14302712D01*
X16520312Y-14326000D01*
X16639684Y-14326000D01*
X16756762Y-14302712D01*
X16867047Y-14257030D01*
X16966300Y-14190711D01*
X17050709Y-14106302D01*
X17117028Y-14007049D01*
X17162710Y-13896764D01*
X17185998Y-13779686D01*
X17185998Y-13690600D01*
X21593000Y-13690600D01*
X21593000Y-20573000D01*
X20220000Y-20573000D01*
X20195224Y-20575440D01*
X20171399Y-20582667D01*
X20149443Y-20594403D01*
X20146709Y-20596647D01*
X20093725Y-20612719D01*
X20023124Y-20650456D01*
X19961242Y-20701242D01*
X19910456Y-20763124D01*
X19896058Y-20790060D01*
X19892712Y-20773236D01*
X19847030Y-20662951D01*
X19780711Y-20563698D01*
X19696302Y-20479289D01*
X19597049Y-20412970D01*
X19486764Y-20367288D01*
X19369686Y-20344000D01*
X19250314Y-20344000D01*
X19133236Y-20367288D01*
X19022951Y-20412970D01*
X18923698Y-20479289D01*
X18839289Y-20563698D01*
X18772970Y-20662951D01*
X18727288Y-20773236D01*
X18704000Y-20890314D01*
X18704000Y-21009686D01*
X18727288Y-21126764D01*
X18772970Y-21237049D01*
X18839289Y-21336302D01*
X18923698Y-21420711D01*
X19022951Y-21487030D01*
X19133236Y-21532712D01*
X19250314Y-21556000D01*
X19369686Y-21556000D01*
X19486764Y-21532712D01*
X19597049Y-21487030D01*
X19696302Y-21420711D01*
X19780711Y-21336302D01*
X19843601Y-21242181D01*
X19843600Y-23362926D01*
X18261105Y-23374357D01*
X18228559Y-23377800D01*
X15066000Y-23377800D01*
X15066000Y-23270314D01*
X15042712Y-23153236D01*
X14997030Y-23042951D01*
X14930711Y-22943698D01*
X14846302Y-22859289D01*
X14747049Y-22792970D01*
X14636764Y-22747288D01*
X14519686Y-22724000D01*
X14400314Y-22724000D01*
X14283236Y-22747288D01*
X14172951Y-22792970D01*
X14073698Y-22859289D01*
X13989289Y-22943698D01*
X13922970Y-23042951D01*
X13877288Y-23153236D01*
X13854000Y-23270314D01*
X13854000Y-23377800D01*
X13690600Y-23377800D01*
X13690600Y-22630314D01*
X18274000Y-22630314D01*
X18274000Y-22749686D01*
X18297288Y-22866764D01*
X18342970Y-22977049D01*
X18409289Y-23076302D01*
X18493698Y-23160711D01*
X18592951Y-23227030D01*
X18703236Y-23272712D01*
X18820314Y-23296000D01*
X18939686Y-23296000D01*
X19056764Y-23272712D01*
X19167049Y-23227030D01*
X19266302Y-23160711D01*
X19350711Y-23076302D01*
X19417030Y-22977049D01*
X19462712Y-22866764D01*
X19486000Y-22749686D01*
X19486000Y-22630314D01*
X19462712Y-22513236D01*
X19417030Y-22402951D01*
X19350711Y-22303698D01*
X19266302Y-22219289D01*
X19167049Y-22152970D01*
X19056764Y-22107288D01*
X18939686Y-22084000D01*
X18820314Y-22084000D01*
X18703236Y-22107288D01*
X18592951Y-22152970D01*
X18493698Y-22219289D01*
X18409289Y-22303698D01*
X18342970Y-22402951D01*
X18297288Y-22513236D01*
X18274000Y-22630314D01*
X13690600Y-22630314D01*
X13690600Y-21460314D01*
X17164000Y-21460314D01*
X17164000Y-21579686D01*
X17187288Y-21696764D01*
X17232970Y-21807049D01*
X17299289Y-21906302D01*
X17383698Y-21990711D01*
X17482951Y-22057030D01*
X17593236Y-22102712D01*
X17710314Y-22126000D01*
X17829686Y-22126000D01*
X17946764Y-22102712D01*
X18057049Y-22057030D01*
X18156302Y-21990711D01*
X18240711Y-21906302D01*
X18307030Y-21807049D01*
X18352712Y-21696764D01*
X18376000Y-21579686D01*
X18376000Y-21460314D01*
X18352712Y-21343236D01*
X18307030Y-21232951D01*
X18240711Y-21133698D01*
X18156302Y-21049289D01*
X18057049Y-20982970D01*
X17946764Y-20937288D01*
X17829686Y-20914000D01*
X17710314Y-20914000D01*
X17593236Y-20937288D01*
X17482951Y-20982970D01*
X17383698Y-21049289D01*
X17299289Y-21133698D01*
X17232970Y-21232951D01*
X17187288Y-21343236D01*
X17164000Y-21460314D01*
X13690600Y-21460314D01*
X13690600Y-20225368D01*
X13752951Y-20267030D01*
X13863236Y-20312712D01*
X13980314Y-20336000D01*
X14099686Y-20336000D01*
X14216764Y-20312712D01*
X14327049Y-20267030D01*
X14426302Y-20200711D01*
X14486699Y-20140314D01*
X17624000Y-20140314D01*
X17624000Y-20259686D01*
X17647288Y-20376764D01*
X17692970Y-20487049D01*
X17759289Y-20586302D01*
X17843698Y-20670711D01*
X17942951Y-20737030D01*
X18053236Y-20782712D01*
X18170314Y-20806000D01*
X18289686Y-20806000D01*
X18406764Y-20782712D01*
X18517049Y-20737030D01*
X18616302Y-20670711D01*
X18700711Y-20586302D01*
X18767030Y-20487049D01*
X18812712Y-20376764D01*
X18836000Y-20259686D01*
X18836000Y-20140314D01*
X18812712Y-20023236D01*
X18767030Y-19912951D01*
X18700711Y-19813698D01*
X18681268Y-19794255D01*
X18740314Y-19806000D01*
X18859686Y-19806000D01*
X18976764Y-19782712D01*
X19087049Y-19737030D01*
X19186302Y-19670711D01*
X19270711Y-19586302D01*
X19337030Y-19487049D01*
X19382712Y-19376764D01*
X19406000Y-19259686D01*
X19406000Y-19140314D01*
X19382712Y-19023236D01*
X19337030Y-18912951D01*
X19270711Y-18813698D01*
X19186302Y-18729289D01*
X19087049Y-18662970D01*
X18976764Y-18617288D01*
X18859686Y-18594000D01*
X18740314Y-18594000D01*
X18623236Y-18617288D01*
X18512951Y-18662970D01*
X18413698Y-18729289D01*
X18329289Y-18813698D01*
X18262970Y-18912951D01*
X18217288Y-19023236D01*
X18194000Y-19140314D01*
X18194000Y-19259686D01*
X18217288Y-19376764D01*
X18262970Y-19487049D01*
X18329289Y-19586302D01*
X18348732Y-19605745D01*
X18289686Y-19594000D01*
X18170314Y-19594000D01*
X18053236Y-19617288D01*
X17942951Y-19662970D01*
X17843698Y-19729289D01*
X17759289Y-19813698D01*
X17692970Y-19912951D01*
X17647288Y-20023236D01*
X17624000Y-20140314D01*
X14486699Y-20140314D01*
X14510711Y-20116302D01*
X14577030Y-20017049D01*
X14622712Y-19906764D01*
X14646000Y-19789686D01*
X14646000Y-19670314D01*
X14622712Y-19553236D01*
X14577030Y-19442951D01*
X14510711Y-19343698D01*
X14426302Y-19259289D01*
X14327049Y-19192970D01*
X14216764Y-19147288D01*
X14099686Y-19124000D01*
X13980314Y-19124000D01*
X13863236Y-19147288D01*
X13752951Y-19192970D01*
X13653698Y-19259289D01*
X13569289Y-19343698D01*
X13508865Y-19434128D01*
X13457000Y-19382263D01*
X13457000Y-18618695D01*
X13473172Y-18618695D01*
X13590250Y-18595407D01*
X13700535Y-18549725D01*
X13799788Y-18483406D01*
X13884197Y-18398997D01*
X13950516Y-18299744D01*
X13996198Y-18189459D01*
X14002570Y-18157422D01*
X14936222Y-18157422D01*
X14936222Y-18276794D01*
X14959510Y-18393872D01*
X15005192Y-18504157D01*
X15071511Y-18603410D01*
X15155920Y-18687819D01*
X15255173Y-18754138D01*
X15365458Y-18799820D01*
X15482536Y-18823108D01*
X15601908Y-18823108D01*
X15718986Y-18799820D01*
X15829271Y-18754138D01*
X15928524Y-18687819D01*
X16012933Y-18603410D01*
X16068456Y-18520314D01*
X16674000Y-18520314D01*
X16674000Y-18639686D01*
X16697288Y-18756764D01*
X16742970Y-18867049D01*
X16809289Y-18966302D01*
X16893698Y-19050711D01*
X16992951Y-19117030D01*
X17103236Y-19162712D01*
X17220314Y-19186000D01*
X17339686Y-19186000D01*
X17456764Y-19162712D01*
X17567049Y-19117030D01*
X17666302Y-19050711D01*
X17750711Y-18966302D01*
X17817030Y-18867049D01*
X17862712Y-18756764D01*
X17886000Y-18639686D01*
X17886000Y-18520314D01*
X17862712Y-18403236D01*
X17817030Y-18292951D01*
X17750711Y-18193698D01*
X17666302Y-18109289D01*
X17567049Y-18042970D01*
X17456764Y-17997288D01*
X17339686Y-17974000D01*
X17220314Y-17974000D01*
X17103236Y-17997288D01*
X16992951Y-18042970D01*
X16893698Y-18109289D01*
X16809289Y-18193698D01*
X16742970Y-18292951D01*
X16697288Y-18403236D01*
X16674000Y-18520314D01*
X16068456Y-18520314D01*
X16079252Y-18504157D01*
X16124934Y-18393872D01*
X16148222Y-18276794D01*
X16148222Y-18157422D01*
X16124934Y-18040344D01*
X16079252Y-17930059D01*
X16012933Y-17830806D01*
X15928524Y-17746397D01*
X15829271Y-17680078D01*
X15718986Y-17634396D01*
X15601908Y-17611108D01*
X15482536Y-17611108D01*
X15365458Y-17634396D01*
X15255173Y-17680078D01*
X15155920Y-17746397D01*
X15071511Y-17830806D01*
X15005192Y-17930059D01*
X14959510Y-18040344D01*
X14936222Y-18157422D01*
X14002570Y-18157422D01*
X14019486Y-18072381D01*
X14019486Y-17953009D01*
X14001228Y-17861219D01*
X14011739Y-17868242D01*
X14122024Y-17913924D01*
X14239102Y-17937212D01*
X14358474Y-17937212D01*
X14475552Y-17913924D01*
X14585837Y-17868242D01*
X14685090Y-17801923D01*
X14769499Y-17717514D01*
X14835818Y-17618261D01*
X14881500Y-17507976D01*
X14904788Y-17390898D01*
X14904788Y-17271526D01*
X14881500Y-17154448D01*
X14841333Y-17057476D01*
X16304343Y-17057476D01*
X16304343Y-17176848D01*
X16327631Y-17293926D01*
X16373313Y-17404211D01*
X16439632Y-17503464D01*
X16524041Y-17587873D01*
X16623294Y-17654192D01*
X16733579Y-17699874D01*
X16850657Y-17723162D01*
X16970029Y-17723162D01*
X17087107Y-17699874D01*
X17197392Y-17654192D01*
X17296645Y-17587873D01*
X17330796Y-17553722D01*
X17387943Y-17610869D01*
X17487196Y-17677188D01*
X17597481Y-17722870D01*
X17714559Y-17746158D01*
X17833931Y-17746158D01*
X17951009Y-17722870D01*
X18061294Y-17677188D01*
X18160547Y-17610869D01*
X18244956Y-17526460D01*
X18311275Y-17427207D01*
X18356957Y-17316922D01*
X18359129Y-17306000D01*
X18459686Y-17306000D01*
X18576764Y-17282712D01*
X18687049Y-17237030D01*
X18786302Y-17170711D01*
X18870711Y-17086302D01*
X18937030Y-16987049D01*
X18954089Y-16945864D01*
X19635307Y-16945864D01*
X19635307Y-17065236D01*
X19658595Y-17182314D01*
X19704277Y-17292599D01*
X19770596Y-17391852D01*
X19855005Y-17476261D01*
X19886009Y-17496978D01*
X19829289Y-17553698D01*
X19762970Y-17652951D01*
X19717288Y-17763236D01*
X19694000Y-17880314D01*
X19694000Y-17999686D01*
X19717288Y-18116764D01*
X19762970Y-18227049D01*
X19829289Y-18326302D01*
X19913698Y-18410711D01*
X20012951Y-18477030D01*
X20123236Y-18522712D01*
X20206810Y-18539336D01*
X20243978Y-18629066D01*
X20310297Y-18728319D01*
X20394706Y-18812728D01*
X20493959Y-18879047D01*
X20604244Y-18924729D01*
X20721322Y-18948017D01*
X20840694Y-18948017D01*
X20957772Y-18924729D01*
X21068057Y-18879047D01*
X21167310Y-18812728D01*
X21251719Y-18728319D01*
X21318038Y-18629066D01*
X21363720Y-18518781D01*
X21387008Y-18401703D01*
X21387008Y-18282331D01*
X21363720Y-18165253D01*
X21318038Y-18054968D01*
X21251719Y-17955715D01*
X21167310Y-17871306D01*
X21068057Y-17804987D01*
X20957772Y-17759305D01*
X20874198Y-17742681D01*
X20837030Y-17652951D01*
X20805658Y-17606000D01*
X20859686Y-17606000D01*
X20976764Y-17582712D01*
X21087049Y-17537030D01*
X21186302Y-17470711D01*
X21270711Y-17386302D01*
X21337030Y-17287049D01*
X21382712Y-17176764D01*
X21406000Y-17059686D01*
X21406000Y-16940314D01*
X21382712Y-16823236D01*
X21337030Y-16712951D01*
X21270711Y-16613698D01*
X21186302Y-16529289D01*
X21087049Y-16462970D01*
X20976764Y-16417288D01*
X20859686Y-16394000D01*
X20740314Y-16394000D01*
X20623236Y-16417288D01*
X20513954Y-16462554D01*
X20418071Y-16422838D01*
X20300993Y-16399550D01*
X20181621Y-16399550D01*
X20064543Y-16422838D01*
X19954258Y-16468520D01*
X19855005Y-16534839D01*
X19770596Y-16619248D01*
X19704277Y-16718501D01*
X19658595Y-16828786D01*
X19635307Y-16945864D01*
X18954089Y-16945864D01*
X18982712Y-16876764D01*
X19006000Y-16759686D01*
X19006000Y-16640314D01*
X18982712Y-16523236D01*
X18937030Y-16412951D01*
X18870711Y-16313698D01*
X18786302Y-16229289D01*
X18687049Y-16162970D01*
X18576764Y-16117288D01*
X18459686Y-16094000D01*
X18340314Y-16094000D01*
X18223236Y-16117288D01*
X18112951Y-16162970D01*
X18013698Y-16229289D01*
X17929289Y-16313698D01*
X17862970Y-16412951D01*
X17817288Y-16523236D01*
X17815116Y-16534158D01*
X17714559Y-16534158D01*
X17597481Y-16557446D01*
X17487196Y-16603128D01*
X17387943Y-16669447D01*
X17353792Y-16703598D01*
X17296645Y-16646451D01*
X17197392Y-16580132D01*
X17087107Y-16534450D01*
X16970029Y-16511162D01*
X16850657Y-16511162D01*
X16733579Y-16534450D01*
X16623294Y-16580132D01*
X16524041Y-16646451D01*
X16439632Y-16730860D01*
X16373313Y-16830113D01*
X16327631Y-16940398D01*
X16304343Y-17057476D01*
X14841333Y-17057476D01*
X14835818Y-17044163D01*
X14769499Y-16944910D01*
X14685090Y-16860501D01*
X14585837Y-16794182D01*
X14475552Y-16748500D01*
X14358474Y-16725212D01*
X14239102Y-16725212D01*
X14122024Y-16748500D01*
X14011739Y-16794182D01*
X13974732Y-16818909D01*
X13950516Y-16760447D01*
X13884197Y-16661194D01*
X13799788Y-16576785D01*
X13700535Y-16510466D01*
X13590250Y-16464784D01*
X13473172Y-16441496D01*
X13456759Y-16441496D01*
X13451971Y-15682615D01*
X13557512Y-15576994D01*
X13572958Y-15564318D01*
X13585732Y-15548753D01*
X13585785Y-15548700D01*
X13597641Y-15534242D01*
X13623744Y-15502436D01*
X13623783Y-15502363D01*
X13623829Y-15502307D01*
X13641903Y-15468462D01*
X13661481Y-15431835D01*
X13661504Y-15431760D01*
X13661540Y-15431692D01*
X13673077Y-15393606D01*
X13684719Y-15355228D01*
X13684727Y-15355151D01*
X13684749Y-15355077D01*
X13688517Y-15316663D01*
X13690600Y-15295520D01*
X13690600Y-15295435D01*
X13692565Y-15275405D01*
X13690600Y-15255529D01*
X13690600Y-14958155D01*
X13780314Y-14976000D01*
X13899686Y-14976000D01*
X13956174Y-14964764D01*
X13970648Y-15037528D01*
X14016330Y-15147813D01*
X14082649Y-15247066D01*
X14167058Y-15331475D01*
X14266311Y-15397794D01*
X14376596Y-15443476D01*
X14493674Y-15466764D01*
X14613046Y-15466764D01*
X14730124Y-15443476D01*
X14840409Y-15397794D01*
X14939662Y-15331475D01*
X15020823Y-15250314D01*
X16908300Y-15250314D01*
X16908300Y-15369686D01*
X16931588Y-15486764D01*
X16977270Y-15597049D01*
X17043589Y-15696302D01*
X17127998Y-15780711D01*
X17227251Y-15847030D01*
X17337536Y-15892712D01*
X17454614Y-15916000D01*
X17573986Y-15916000D01*
X17691064Y-15892712D01*
X17801349Y-15847030D01*
X17900602Y-15780711D01*
X17985011Y-15696302D01*
X18051330Y-15597049D01*
X18097012Y-15486764D01*
X18120300Y-15369686D01*
X18120300Y-15250314D01*
X18111429Y-15205714D01*
X19508260Y-15205714D01*
X19508260Y-15325086D01*
X19531548Y-15442164D01*
X19577230Y-15552449D01*
X19643549Y-15651702D01*
X19727958Y-15736111D01*
X19827211Y-15802430D01*
X19937496Y-15848112D01*
X20054574Y-15871400D01*
X20173946Y-15871400D01*
X20291024Y-15848112D01*
X20401309Y-15802430D01*
X20500562Y-15736111D01*
X20584971Y-15651702D01*
X20651290Y-15552449D01*
X20696972Y-15442164D01*
X20720260Y-15325086D01*
X20720260Y-15205714D01*
X20696972Y-15088636D01*
X20651290Y-14978351D01*
X20584971Y-14879098D01*
X20500562Y-14794689D01*
X20401309Y-14728370D01*
X20291024Y-14682688D01*
X20173946Y-14659400D01*
X20054574Y-14659400D01*
X19937496Y-14682688D01*
X19827211Y-14728370D01*
X19727958Y-14794689D01*
X19643549Y-14879098D01*
X19577230Y-14978351D01*
X19531548Y-15088636D01*
X19508260Y-15205714D01*
X18111429Y-15205714D01*
X18097012Y-15133236D01*
X18051330Y-15022951D01*
X17985011Y-14923698D01*
X17900602Y-14839289D01*
X17801349Y-14772970D01*
X17691064Y-14727288D01*
X17573986Y-14704000D01*
X17454614Y-14704000D01*
X17337536Y-14727288D01*
X17227251Y-14772970D01*
X17127998Y-14839289D01*
X17043589Y-14923698D01*
X16977270Y-15022951D01*
X16931588Y-15133236D01*
X16908300Y-15250314D01*
X15020823Y-15250314D01*
X15024071Y-15247066D01*
X15090390Y-15147813D01*
X15136072Y-15037528D01*
X15159360Y-14920450D01*
X15159360Y-14801078D01*
X15136072Y-14684000D01*
X15090390Y-14573715D01*
X15024071Y-14474462D01*
X14939662Y-14390053D01*
X14840409Y-14323734D01*
X14730124Y-14278052D01*
X14613046Y-14254764D01*
X14493674Y-14254764D01*
X14437186Y-14266000D01*
X14422712Y-14193236D01*
X14377030Y-14082951D01*
X14310711Y-13983698D01*
X14226302Y-13899289D01*
X14127049Y-13832970D01*
X14016764Y-13787288D01*
X13899686Y-13764000D01*
X13780314Y-13764000D01*
X13690600Y-13781845D01*
X13690600Y-13690600D01*
X14297607Y-13690600D01*
X14297607Y-13742281D01*
X14297607Y-13742281D01*
G37*
X14297607Y-13742281D02*
X14320895Y-13859359D01*
X14366577Y-13969644D01*
X14432896Y-14068897D01*
X14517305Y-14153306D01*
X14616558Y-14219625D01*
X14726843Y-14265307D01*
X14843921Y-14288595D01*
X14963293Y-14288595D01*
X15080371Y-14265307D01*
X15190656Y-14219625D01*
X15289909Y-14153306D01*
X15374318Y-14068897D01*
X15440637Y-13969644D01*
X15486319Y-13859359D01*
X15509607Y-13742281D01*
X15509607Y-13690600D01*
X15973998Y-13690600D01*
X15973998Y-13779686D01*
X15997286Y-13896764D01*
X16042968Y-14007049D01*
X16109287Y-14106302D01*
X16193696Y-14190711D01*
X16292949Y-14257030D01*
X16403234Y-14302712D01*
X16520312Y-14326000D01*
X16639684Y-14326000D01*
X16756762Y-14302712D01*
X16867047Y-14257030D01*
X16966300Y-14190711D01*
X17050709Y-14106302D01*
X17117028Y-14007049D01*
X17162710Y-13896764D01*
X17185998Y-13779686D01*
X17185998Y-13690600D01*
X21593000Y-13690600D01*
X21593000Y-20573000D01*
X20220000Y-20573000D01*
X20195224Y-20575440D01*
X20171399Y-20582667D01*
X20149443Y-20594403D01*
X20146709Y-20596647D01*
X20093725Y-20612719D01*
X20023124Y-20650456D01*
X19961242Y-20701242D01*
X19910456Y-20763124D01*
X19896058Y-20790060D01*
X19892712Y-20773236D01*
X19847030Y-20662951D01*
X19780711Y-20563698D01*
X19696302Y-20479289D01*
X19597049Y-20412970D01*
X19486764Y-20367288D01*
X19369686Y-20344000D01*
X19250314Y-20344000D01*
X19133236Y-20367288D01*
X19022951Y-20412970D01*
X18923698Y-20479289D01*
X18839289Y-20563698D01*
X18772970Y-20662951D01*
X18727288Y-20773236D01*
X18704000Y-20890314D01*
X18704000Y-21009686D01*
X18727288Y-21126764D01*
X18772970Y-21237049D01*
X18839289Y-21336302D01*
X18923698Y-21420711D01*
X19022951Y-21487030D01*
X19133236Y-21532712D01*
X19250314Y-21556000D01*
X19369686Y-21556000D01*
X19486764Y-21532712D01*
X19597049Y-21487030D01*
X19696302Y-21420711D01*
X19780711Y-21336302D01*
X19843601Y-21242181D01*
X19843600Y-23362926D01*
X18261105Y-23374357D01*
X18228559Y-23377800D01*
X15066000Y-23377800D01*
X15066000Y-23270314D01*
X15042712Y-23153236D01*
X14997030Y-23042951D01*
X14930711Y-22943698D01*
X14846302Y-22859289D01*
X14747049Y-22792970D01*
X14636764Y-22747288D01*
X14519686Y-22724000D01*
X14400314Y-22724000D01*
X14283236Y-22747288D01*
X14172951Y-22792970D01*
X14073698Y-22859289D01*
X13989289Y-22943698D01*
X13922970Y-23042951D01*
X13877288Y-23153236D01*
X13854000Y-23270314D01*
X13854000Y-23377800D01*
X13690600Y-23377800D01*
X13690600Y-22630314D01*
X18274000Y-22630314D01*
X18274000Y-22749686D01*
X18297288Y-22866764D01*
X18342970Y-22977049D01*
X18409289Y-23076302D01*
X18493698Y-23160711D01*
X18592951Y-23227030D01*
X18703236Y-23272712D01*
X18820314Y-23296000D01*
X18939686Y-23296000D01*
X19056764Y-23272712D01*
X19167049Y-23227030D01*
X19266302Y-23160711D01*
X19350711Y-23076302D01*
X19417030Y-22977049D01*
X19462712Y-22866764D01*
X19486000Y-22749686D01*
X19486000Y-22630314D01*
X19462712Y-22513236D01*
X19417030Y-22402951D01*
X19350711Y-22303698D01*
X19266302Y-22219289D01*
X19167049Y-22152970D01*
X19056764Y-22107288D01*
X18939686Y-22084000D01*
X18820314Y-22084000D01*
X18703236Y-22107288D01*
X18592951Y-22152970D01*
X18493698Y-22219289D01*
X18409289Y-22303698D01*
X18342970Y-22402951D01*
X18297288Y-22513236D01*
X18274000Y-22630314D01*
X13690600Y-22630314D01*
X13690600Y-21460314D01*
X17164000Y-21460314D01*
X17164000Y-21579686D01*
X17187288Y-21696764D01*
X17232970Y-21807049D01*
X17299289Y-21906302D01*
X17383698Y-21990711D01*
X17482951Y-22057030D01*
X17593236Y-22102712D01*
X17710314Y-22126000D01*
X17829686Y-22126000D01*
X17946764Y-22102712D01*
X18057049Y-22057030D01*
X18156302Y-21990711D01*
X18240711Y-21906302D01*
X18307030Y-21807049D01*
X18352712Y-21696764D01*
X18376000Y-21579686D01*
X18376000Y-21460314D01*
X18352712Y-21343236D01*
X18307030Y-21232951D01*
X18240711Y-21133698D01*
X18156302Y-21049289D01*
X18057049Y-20982970D01*
X17946764Y-20937288D01*
X17829686Y-20914000D01*
X17710314Y-20914000D01*
X17593236Y-20937288D01*
X17482951Y-20982970D01*
X17383698Y-21049289D01*
X17299289Y-21133698D01*
X17232970Y-21232951D01*
X17187288Y-21343236D01*
X17164000Y-21460314D01*
X13690600Y-21460314D01*
X13690600Y-20225368D01*
X13752951Y-20267030D01*
X13863236Y-20312712D01*
X13980314Y-20336000D01*
X14099686Y-20336000D01*
X14216764Y-20312712D01*
X14327049Y-20267030D01*
X14426302Y-20200711D01*
X14486699Y-20140314D01*
X17624000Y-20140314D01*
X17624000Y-20259686D01*
X17647288Y-20376764D01*
X17692970Y-20487049D01*
X17759289Y-20586302D01*
X17843698Y-20670711D01*
X17942951Y-20737030D01*
X18053236Y-20782712D01*
X18170314Y-20806000D01*
X18289686Y-20806000D01*
X18406764Y-20782712D01*
X18517049Y-20737030D01*
X18616302Y-20670711D01*
X18700711Y-20586302D01*
X18767030Y-20487049D01*
X18812712Y-20376764D01*
X18836000Y-20259686D01*
X18836000Y-20140314D01*
X18812712Y-20023236D01*
X18767030Y-19912951D01*
X18700711Y-19813698D01*
X18681268Y-19794255D01*
X18740314Y-19806000D01*
X18859686Y-19806000D01*
X18976764Y-19782712D01*
X19087049Y-19737030D01*
X19186302Y-19670711D01*
X19270711Y-19586302D01*
X19337030Y-19487049D01*
X19382712Y-19376764D01*
X19406000Y-19259686D01*
X19406000Y-19140314D01*
X19382712Y-19023236D01*
X19337030Y-18912951D01*
X19270711Y-18813698D01*
X19186302Y-18729289D01*
X19087049Y-18662970D01*
X18976764Y-18617288D01*
X18859686Y-18594000D01*
X18740314Y-18594000D01*
X18623236Y-18617288D01*
X18512951Y-18662970D01*
X18413698Y-18729289D01*
X18329289Y-18813698D01*
X18262970Y-18912951D01*
X18217288Y-19023236D01*
X18194000Y-19140314D01*
X18194000Y-19259686D01*
X18217288Y-19376764D01*
X18262970Y-19487049D01*
X18329289Y-19586302D01*
X18348732Y-19605745D01*
X18289686Y-19594000D01*
X18170314Y-19594000D01*
X18053236Y-19617288D01*
X17942951Y-19662970D01*
X17843698Y-19729289D01*
X17759289Y-19813698D01*
X17692970Y-19912951D01*
X17647288Y-20023236D01*
X17624000Y-20140314D01*
X14486699Y-20140314D01*
X14510711Y-20116302D01*
X14577030Y-20017049D01*
X14622712Y-19906764D01*
X14646000Y-19789686D01*
X14646000Y-19670314D01*
X14622712Y-19553236D01*
X14577030Y-19442951D01*
X14510711Y-19343698D01*
X14426302Y-19259289D01*
X14327049Y-19192970D01*
X14216764Y-19147288D01*
X14099686Y-19124000D01*
X13980314Y-19124000D01*
X13863236Y-19147288D01*
X13752951Y-19192970D01*
X13653698Y-19259289D01*
X13569289Y-19343698D01*
X13508865Y-19434128D01*
X13457000Y-19382263D01*
X13457000Y-18618695D01*
X13473172Y-18618695D01*
X13590250Y-18595407D01*
X13700535Y-18549725D01*
X13799788Y-18483406D01*
X13884197Y-18398997D01*
X13950516Y-18299744D01*
X13996198Y-18189459D01*
X14002570Y-18157422D01*
X14936222Y-18157422D01*
X14936222Y-18276794D01*
X14959510Y-18393872D01*
X15005192Y-18504157D01*
X15071511Y-18603410D01*
X15155920Y-18687819D01*
X15255173Y-18754138D01*
X15365458Y-18799820D01*
X15482536Y-18823108D01*
X15601908Y-18823108D01*
X15718986Y-18799820D01*
X15829271Y-18754138D01*
X15928524Y-18687819D01*
X16012933Y-18603410D01*
X16068456Y-18520314D01*
X16674000Y-18520314D01*
X16674000Y-18639686D01*
X16697288Y-18756764D01*
X16742970Y-18867049D01*
X16809289Y-18966302D01*
X16893698Y-19050711D01*
X16992951Y-19117030D01*
X17103236Y-19162712D01*
X17220314Y-19186000D01*
X17339686Y-19186000D01*
X17456764Y-19162712D01*
X17567049Y-19117030D01*
X17666302Y-19050711D01*
X17750711Y-18966302D01*
X17817030Y-18867049D01*
X17862712Y-18756764D01*
X17886000Y-18639686D01*
X17886000Y-18520314D01*
X17862712Y-18403236D01*
X17817030Y-18292951D01*
X17750711Y-18193698D01*
X17666302Y-18109289D01*
X17567049Y-18042970D01*
X17456764Y-17997288D01*
X17339686Y-17974000D01*
X17220314Y-17974000D01*
X17103236Y-17997288D01*
X16992951Y-18042970D01*
X16893698Y-18109289D01*
X16809289Y-18193698D01*
X16742970Y-18292951D01*
X16697288Y-18403236D01*
X16674000Y-18520314D01*
X16068456Y-18520314D01*
X16079252Y-18504157D01*
X16124934Y-18393872D01*
X16148222Y-18276794D01*
X16148222Y-18157422D01*
X16124934Y-18040344D01*
X16079252Y-17930059D01*
X16012933Y-17830806D01*
X15928524Y-17746397D01*
X15829271Y-17680078D01*
X15718986Y-17634396D01*
X15601908Y-17611108D01*
X15482536Y-17611108D01*
X15365458Y-17634396D01*
X15255173Y-17680078D01*
X15155920Y-17746397D01*
X15071511Y-17830806D01*
X15005192Y-17930059D01*
X14959510Y-18040344D01*
X14936222Y-18157422D01*
X14002570Y-18157422D01*
X14019486Y-18072381D01*
X14019486Y-17953009D01*
X14001228Y-17861219D01*
X14011739Y-17868242D01*
X14122024Y-17913924D01*
X14239102Y-17937212D01*
X14358474Y-17937212D01*
X14475552Y-17913924D01*
X14585837Y-17868242D01*
X14685090Y-17801923D01*
X14769499Y-17717514D01*
X14835818Y-17618261D01*
X14881500Y-17507976D01*
X14904788Y-17390898D01*
X14904788Y-17271526D01*
X14881500Y-17154448D01*
X14841333Y-17057476D01*
X16304343Y-17057476D01*
X16304343Y-17176848D01*
X16327631Y-17293926D01*
X16373313Y-17404211D01*
X16439632Y-17503464D01*
X16524041Y-17587873D01*
X16623294Y-17654192D01*
X16733579Y-17699874D01*
X16850657Y-17723162D01*
X16970029Y-17723162D01*
X17087107Y-17699874D01*
X17197392Y-17654192D01*
X17296645Y-17587873D01*
X17330796Y-17553722D01*
X17387943Y-17610869D01*
X17487196Y-17677188D01*
X17597481Y-17722870D01*
X17714559Y-17746158D01*
X17833931Y-17746158D01*
X17951009Y-17722870D01*
X18061294Y-17677188D01*
X18160547Y-17610869D01*
X18244956Y-17526460D01*
X18311275Y-17427207D01*
X18356957Y-17316922D01*
X18359129Y-17306000D01*
X18459686Y-17306000D01*
X18576764Y-17282712D01*
X18687049Y-17237030D01*
X18786302Y-17170711D01*
X18870711Y-17086302D01*
X18937030Y-16987049D01*
X18954089Y-16945864D01*
X19635307Y-16945864D01*
X19635307Y-17065236D01*
X19658595Y-17182314D01*
X19704277Y-17292599D01*
X19770596Y-17391852D01*
X19855005Y-17476261D01*
X19886009Y-17496978D01*
X19829289Y-17553698D01*
X19762970Y-17652951D01*
X19717288Y-17763236D01*
X19694000Y-17880314D01*
X19694000Y-17999686D01*
X19717288Y-18116764D01*
X19762970Y-18227049D01*
X19829289Y-18326302D01*
X19913698Y-18410711D01*
X20012951Y-18477030D01*
X20123236Y-18522712D01*
X20206810Y-18539336D01*
X20243978Y-18629066D01*
X20310297Y-18728319D01*
X20394706Y-18812728D01*
X20493959Y-18879047D01*
X20604244Y-18924729D01*
X20721322Y-18948017D01*
X20840694Y-18948017D01*
X20957772Y-18924729D01*
X21068057Y-18879047D01*
X21167310Y-18812728D01*
X21251719Y-18728319D01*
X21318038Y-18629066D01*
X21363720Y-18518781D01*
X21387008Y-18401703D01*
X21387008Y-18282331D01*
X21363720Y-18165253D01*
X21318038Y-18054968D01*
X21251719Y-17955715D01*
X21167310Y-17871306D01*
X21068057Y-17804987D01*
X20957772Y-17759305D01*
X20874198Y-17742681D01*
X20837030Y-17652951D01*
X20805658Y-17606000D01*
X20859686Y-17606000D01*
X20976764Y-17582712D01*
X21087049Y-17537030D01*
X21186302Y-17470711D01*
X21270711Y-17386302D01*
X21337030Y-17287049D01*
X21382712Y-17176764D01*
X21406000Y-17059686D01*
X21406000Y-16940314D01*
X21382712Y-16823236D01*
X21337030Y-16712951D01*
X21270711Y-16613698D01*
X21186302Y-16529289D01*
X21087049Y-16462970D01*
X20976764Y-16417288D01*
X20859686Y-16394000D01*
X20740314Y-16394000D01*
X20623236Y-16417288D01*
X20513954Y-16462554D01*
X20418071Y-16422838D01*
X20300993Y-16399550D01*
X20181621Y-16399550D01*
X20064543Y-16422838D01*
X19954258Y-16468520D01*
X19855005Y-16534839D01*
X19770596Y-16619248D01*
X19704277Y-16718501D01*
X19658595Y-16828786D01*
X19635307Y-16945864D01*
X18954089Y-16945864D01*
X18982712Y-16876764D01*
X19006000Y-16759686D01*
X19006000Y-16640314D01*
X18982712Y-16523236D01*
X18937030Y-16412951D01*
X18870711Y-16313698D01*
X18786302Y-16229289D01*
X18687049Y-16162970D01*
X18576764Y-16117288D01*
X18459686Y-16094000D01*
X18340314Y-16094000D01*
X18223236Y-16117288D01*
X18112951Y-16162970D01*
X18013698Y-16229289D01*
X17929289Y-16313698D01*
X17862970Y-16412951D01*
X17817288Y-16523236D01*
X17815116Y-16534158D01*
X17714559Y-16534158D01*
X17597481Y-16557446D01*
X17487196Y-16603128D01*
X17387943Y-16669447D01*
X17353792Y-16703598D01*
X17296645Y-16646451D01*
X17197392Y-16580132D01*
X17087107Y-16534450D01*
X16970029Y-16511162D01*
X16850657Y-16511162D01*
X16733579Y-16534450D01*
X16623294Y-16580132D01*
X16524041Y-16646451D01*
X16439632Y-16730860D01*
X16373313Y-16830113D01*
X16327631Y-16940398D01*
X16304343Y-17057476D01*
X14841333Y-17057476D01*
X14835818Y-17044163D01*
X14769499Y-16944910D01*
X14685090Y-16860501D01*
X14585837Y-16794182D01*
X14475552Y-16748500D01*
X14358474Y-16725212D01*
X14239102Y-16725212D01*
X14122024Y-16748500D01*
X14011739Y-16794182D01*
X13974732Y-16818909D01*
X13950516Y-16760447D01*
X13884197Y-16661194D01*
X13799788Y-16576785D01*
X13700535Y-16510466D01*
X13590250Y-16464784D01*
X13473172Y-16441496D01*
X13456759Y-16441496D01*
X13451971Y-15682615D01*
X13557512Y-15576994D01*
X13572958Y-15564318D01*
X13585732Y-15548753D01*
X13585785Y-15548700D01*
X13597641Y-15534242D01*
X13623744Y-15502436D01*
X13623783Y-15502363D01*
X13623829Y-15502307D01*
X13641903Y-15468462D01*
X13661481Y-15431835D01*
X13661504Y-15431760D01*
X13661540Y-15431692D01*
X13673077Y-15393606D01*
X13684719Y-15355228D01*
X13684727Y-15355151D01*
X13684749Y-15355077D01*
X13688517Y-15316663D01*
X13690600Y-15295520D01*
X13690600Y-15295435D01*
X13692565Y-15275405D01*
X13690600Y-15255529D01*
X13690600Y-14958155D01*
X13780314Y-14976000D01*
X13899686Y-14976000D01*
X13956174Y-14964764D01*
X13970648Y-15037528D01*
X14016330Y-15147813D01*
X14082649Y-15247066D01*
X14167058Y-15331475D01*
X14266311Y-15397794D01*
X14376596Y-15443476D01*
X14493674Y-15466764D01*
X14613046Y-15466764D01*
X14730124Y-15443476D01*
X14840409Y-15397794D01*
X14939662Y-15331475D01*
X15020823Y-15250314D01*
X16908300Y-15250314D01*
X16908300Y-15369686D01*
X16931588Y-15486764D01*
X16977270Y-15597049D01*
X17043589Y-15696302D01*
X17127998Y-15780711D01*
X17227251Y-15847030D01*
X17337536Y-15892712D01*
X17454614Y-15916000D01*
X17573986Y-15916000D01*
X17691064Y-15892712D01*
X17801349Y-15847030D01*
X17900602Y-15780711D01*
X17985011Y-15696302D01*
X18051330Y-15597049D01*
X18097012Y-15486764D01*
X18120300Y-15369686D01*
X18120300Y-15250314D01*
X18111429Y-15205714D01*
X19508260Y-15205714D01*
X19508260Y-15325086D01*
X19531548Y-15442164D01*
X19577230Y-15552449D01*
X19643549Y-15651702D01*
X19727958Y-15736111D01*
X19827211Y-15802430D01*
X19937496Y-15848112D01*
X20054574Y-15871400D01*
X20173946Y-15871400D01*
X20291024Y-15848112D01*
X20401309Y-15802430D01*
X20500562Y-15736111D01*
X20584971Y-15651702D01*
X20651290Y-15552449D01*
X20696972Y-15442164D01*
X20720260Y-15325086D01*
X20720260Y-15205714D01*
X20696972Y-15088636D01*
X20651290Y-14978351D01*
X20584971Y-14879098D01*
X20500562Y-14794689D01*
X20401309Y-14728370D01*
X20291024Y-14682688D01*
X20173946Y-14659400D01*
X20054574Y-14659400D01*
X19937496Y-14682688D01*
X19827211Y-14728370D01*
X19727958Y-14794689D01*
X19643549Y-14879098D01*
X19577230Y-14978351D01*
X19531548Y-15088636D01*
X19508260Y-15205714D01*
X18111429Y-15205714D01*
X18097012Y-15133236D01*
X18051330Y-15022951D01*
X17985011Y-14923698D01*
X17900602Y-14839289D01*
X17801349Y-14772970D01*
X17691064Y-14727288D01*
X17573986Y-14704000D01*
X17454614Y-14704000D01*
X17337536Y-14727288D01*
X17227251Y-14772970D01*
X17127998Y-14839289D01*
X17043589Y-14923698D01*
X16977270Y-15022951D01*
X16931588Y-15133236D01*
X16908300Y-15250314D01*
X15020823Y-15250314D01*
X15024071Y-15247066D01*
X15090390Y-15147813D01*
X15136072Y-15037528D01*
X15159360Y-14920450D01*
X15159360Y-14801078D01*
X15136072Y-14684000D01*
X15090390Y-14573715D01*
X15024071Y-14474462D01*
X14939662Y-14390053D01*
X14840409Y-14323734D01*
X14730124Y-14278052D01*
X14613046Y-14254764D01*
X14493674Y-14254764D01*
X14437186Y-14266000D01*
X14422712Y-14193236D01*
X14377030Y-14082951D01*
X14310711Y-13983698D01*
X14226302Y-13899289D01*
X14127049Y-13832970D01*
X14016764Y-13787288D01*
X13899686Y-13764000D01*
X13780314Y-13764000D01*
X13690600Y-13781845D01*
X13690600Y-13690600D01*
X14297607Y-13690600D01*
X14297607Y-13742281D01*
M02*
