G04 #@! TF.GenerationSoftware,KiCad,Pcbnew,(5.1.0)-1*
G04 #@! TF.CreationDate,2019-11-07T09:25:18-08:00*
G04 #@! TF.ProjectId,MS_v4_ETL_LED_Driver_v2,4d535f76-345f-4455-944c-5f4c45445f44,rev?*
G04 #@! TF.SameCoordinates,Original*
G04 #@! TF.FileFunction,Copper,L3,Inr*
G04 #@! TF.FilePolarity,Positive*
%FSLAX46Y46*%
G04 Gerber Fmt 4.6, Leading zero omitted, Abs format (unit mm)*
G04 Created by KiCad (PCBNEW (5.1.0)-1) date 2019-11-07 09:25:18*
%MOMM*%
%LPD*%
G04 APERTURE LIST*
%ADD10C,2.000000*%
%ADD11C,0.450000*%
%ADD12C,0.203200*%
%ADD13C,0.254000*%
G04 APERTURE END LIST*
D10*
X12790000Y-14800000D03*
X23800000Y-14820000D03*
D11*
X20830000Y-19190000D03*
X22580000Y-22800000D03*
X14800000Y-15390000D03*
X21810000Y-15390000D03*
X21940000Y-18150000D03*
X15590000Y-23080000D03*
X12803886Y-18495294D03*
X18230000Y-17370000D03*
X14290000Y-19860000D03*
X17480000Y-19370000D03*
X19680000Y-17640000D03*
X15030000Y-17690000D03*
X16630000Y-16960000D03*
X16480000Y-23090000D03*
X22490000Y-16950000D03*
X13413486Y-18977894D03*
X19780000Y-19540000D03*
X15460000Y-20580000D03*
X14500000Y-22360000D03*
X19459581Y-18211257D03*
X15658903Y-13890000D03*
X18090000Y-20560000D03*
X12803886Y-17530095D03*
X15890000Y-18830000D03*
X13413486Y-18012695D03*
X17520000Y-20100000D03*
X22030000Y-13880000D03*
X21290000Y-18140000D03*
X19510000Y-13890000D03*
X21470000Y-13880000D03*
X20920000Y-13880000D03*
X20330000Y-13880000D03*
X12796520Y-16537940D03*
X13413486Y-17047496D03*
X15120000Y-13890000D03*
D12*
X15571802Y-18830000D02*
X15890000Y-18830000D01*
X14836476Y-18830000D02*
X15571802Y-18830000D01*
X13536571Y-17530095D02*
X14836476Y-18830000D01*
X12803886Y-17530095D02*
X13536571Y-17530095D01*
X15890000Y-18830000D02*
X15890000Y-19710000D01*
X15890000Y-19710000D02*
X16750000Y-20570000D01*
X16760000Y-20560000D02*
X18090000Y-20560000D01*
X16750000Y-20570000D02*
X16760000Y-20560000D01*
D13*
X20330000Y-14340000D02*
X20330000Y-13880000D01*
X18190000Y-16480000D02*
X20330000Y-14340000D01*
X12796520Y-16537940D02*
X12854460Y-16480000D01*
X12854460Y-16480000D02*
X18190000Y-16480000D01*
M02*
