G04 #@! TF.GenerationSoftware,KiCad,Pcbnew,(5.1.0)-1*
G04 #@! TF.CreationDate,2019-11-07T09:25:18-08:00*
G04 #@! TF.ProjectId,MS_v4_ETL_LED_Driver_v2,4d535f76-345f-4455-944c-5f4c45445f44,rev?*
G04 #@! TF.SameCoordinates,Original*
G04 #@! TF.FileFunction,Soldermask,Top*
G04 #@! TF.FilePolarity,Negative*
%FSLAX46Y46*%
G04 Gerber Fmt 4.6, Leading zero omitted, Abs format (unit mm)*
G04 Created by KiCad (PCBNEW (5.1.0)-1) date 2019-11-07 09:25:18*
%MOMM*%
%LPD*%
G04 APERTURE LIST*
%ADD10C,0.100000*%
G04 APERTURE END LIST*
D10*
G36*
X19334600Y-23532800D02*
G01*
X18533800Y-23532800D01*
X18533800Y-21958000D01*
X19334600Y-21958000D01*
X19334600Y-23532800D01*
X19334600Y-23532800D01*
G37*
G36*
X18334600Y-23532800D02*
G01*
X17533800Y-23532800D01*
X17533800Y-21958000D01*
X18334600Y-21958000D01*
X18334600Y-23532800D01*
X18334600Y-23532800D01*
G37*
G36*
X16660400Y-22625400D02*
G01*
X16299600Y-22625400D01*
X16299600Y-22234600D01*
X16660400Y-22234600D01*
X16660400Y-22625400D01*
X16660400Y-22625400D01*
G37*
G36*
X16110400Y-22625400D02*
G01*
X15749600Y-22625400D01*
X15749600Y-22234600D01*
X16110400Y-22234600D01*
X16110400Y-22625400D01*
X16110400Y-22625400D01*
G37*
G36*
X14695400Y-21940400D02*
G01*
X14304600Y-21940400D01*
X14304600Y-21579600D01*
X14695400Y-21579600D01*
X14695400Y-21940400D01*
X14695400Y-21940400D01*
G37*
G36*
X16045400Y-21940400D02*
G01*
X15654600Y-21940400D01*
X15654600Y-21579600D01*
X16045400Y-21579600D01*
X16045400Y-21940400D01*
X16045400Y-21940400D01*
G37*
G36*
X17325400Y-21935400D02*
G01*
X16934600Y-21935400D01*
X16934600Y-21574600D01*
X17325400Y-21574600D01*
X17325400Y-21935400D01*
X17325400Y-21935400D01*
G37*
G36*
X16705400Y-21935400D02*
G01*
X16314600Y-21935400D01*
X16314600Y-21574600D01*
X16705400Y-21574600D01*
X16705400Y-21935400D01*
X16705400Y-21935400D01*
G37*
G36*
X15365400Y-21930400D02*
G01*
X14974600Y-21930400D01*
X14974600Y-21569600D01*
X15365400Y-21569600D01*
X15365400Y-21930400D01*
X15365400Y-21930400D01*
G37*
G36*
X14695400Y-21390400D02*
G01*
X14304600Y-21390400D01*
X14304600Y-21029600D01*
X14695400Y-21029600D01*
X14695400Y-21390400D01*
X14695400Y-21390400D01*
G37*
G36*
X16045400Y-21390400D02*
G01*
X15654600Y-21390400D01*
X15654600Y-21029600D01*
X16045400Y-21029600D01*
X16045400Y-21390400D01*
X16045400Y-21390400D01*
G37*
G36*
X17325400Y-21385400D02*
G01*
X16934600Y-21385400D01*
X16934600Y-21024600D01*
X17325400Y-21024600D01*
X17325400Y-21385400D01*
X17325400Y-21385400D01*
G37*
G36*
X16705400Y-21385400D02*
G01*
X16314600Y-21385400D01*
X16314600Y-21024600D01*
X16705400Y-21024600D01*
X16705400Y-21385400D01*
X16705400Y-21385400D01*
G37*
G36*
X15365400Y-21380400D02*
G01*
X14974600Y-21380400D01*
X14974600Y-21019600D01*
X15365400Y-21019600D01*
X15365400Y-21380400D01*
X15365400Y-21380400D01*
G37*
G36*
X20838455Y-20927301D02*
G01*
X20874925Y-20942408D01*
X20907748Y-20964339D01*
X20935661Y-20992252D01*
X20957592Y-21025075D01*
X20972699Y-21061545D01*
X20980400Y-21100262D01*
X20980400Y-21139738D01*
X20972699Y-21178455D01*
X20957592Y-21214925D01*
X20935661Y-21247748D01*
X20907748Y-21275661D01*
X20874925Y-21297592D01*
X20838455Y-21312699D01*
X20799738Y-21320400D01*
X20760262Y-21320400D01*
X20721545Y-21312699D01*
X20685075Y-21297592D01*
X20652252Y-21275661D01*
X20624339Y-21247748D01*
X20602408Y-21214925D01*
X20587301Y-21178455D01*
X20579600Y-21139738D01*
X20579600Y-21100262D01*
X20587301Y-21061545D01*
X20602408Y-21025075D01*
X20624339Y-20992252D01*
X20652252Y-20964339D01*
X20685075Y-20942408D01*
X20721545Y-20927301D01*
X20760262Y-20919600D01*
X20799738Y-20919600D01*
X20838455Y-20927301D01*
X20838455Y-20927301D01*
G37*
G36*
X18838455Y-20927301D02*
G01*
X18874925Y-20942408D01*
X18907748Y-20964339D01*
X18935661Y-20992252D01*
X18957592Y-21025075D01*
X18972699Y-21061545D01*
X18980400Y-21100262D01*
X18980400Y-21139738D01*
X18972699Y-21178455D01*
X18957592Y-21214925D01*
X18935661Y-21247748D01*
X18907748Y-21275661D01*
X18874925Y-21297592D01*
X18838455Y-21312699D01*
X18799738Y-21320400D01*
X18760262Y-21320400D01*
X18721545Y-21312699D01*
X18685075Y-21297592D01*
X18652252Y-21275661D01*
X18624339Y-21247748D01*
X18602408Y-21214925D01*
X18587301Y-21178455D01*
X18579600Y-21139738D01*
X18579600Y-21100262D01*
X18587301Y-21061545D01*
X18602408Y-21025075D01*
X18624339Y-20992252D01*
X18652252Y-20964339D01*
X18685075Y-20942408D01*
X18721545Y-20927301D01*
X18760262Y-20919600D01*
X18799738Y-20919600D01*
X18838455Y-20927301D01*
X18838455Y-20927301D01*
G37*
G36*
X19338455Y-20927301D02*
G01*
X19374925Y-20942408D01*
X19407748Y-20964339D01*
X19435661Y-20992252D01*
X19457592Y-21025075D01*
X19472699Y-21061545D01*
X19480400Y-21100262D01*
X19480400Y-21139738D01*
X19472699Y-21178455D01*
X19457592Y-21214925D01*
X19435661Y-21247748D01*
X19407748Y-21275661D01*
X19374925Y-21297592D01*
X19338455Y-21312699D01*
X19299738Y-21320400D01*
X19260262Y-21320400D01*
X19221545Y-21312699D01*
X19185075Y-21297592D01*
X19152252Y-21275661D01*
X19124339Y-21247748D01*
X19102408Y-21214925D01*
X19087301Y-21178455D01*
X19079600Y-21139738D01*
X19079600Y-21100262D01*
X19087301Y-21061545D01*
X19102408Y-21025075D01*
X19124339Y-20992252D01*
X19152252Y-20964339D01*
X19185075Y-20942408D01*
X19221545Y-20927301D01*
X19260262Y-20919600D01*
X19299738Y-20919600D01*
X19338455Y-20927301D01*
X19338455Y-20927301D01*
G37*
G36*
X19838455Y-20927301D02*
G01*
X19874925Y-20942408D01*
X19907748Y-20964339D01*
X19935661Y-20992252D01*
X19957592Y-21025075D01*
X19972699Y-21061545D01*
X19980400Y-21100262D01*
X19980400Y-21139738D01*
X19972699Y-21178455D01*
X19957592Y-21214925D01*
X19935661Y-21247748D01*
X19907748Y-21275661D01*
X19874925Y-21297592D01*
X19838455Y-21312699D01*
X19799738Y-21320400D01*
X19760262Y-21320400D01*
X19721545Y-21312699D01*
X19685075Y-21297592D01*
X19652252Y-21275661D01*
X19624339Y-21247748D01*
X19602408Y-21214925D01*
X19587301Y-21178455D01*
X19579600Y-21139738D01*
X19579600Y-21100262D01*
X19587301Y-21061545D01*
X19602408Y-21025075D01*
X19624339Y-20992252D01*
X19652252Y-20964339D01*
X19685075Y-20942408D01*
X19721545Y-20927301D01*
X19760262Y-20919600D01*
X19799738Y-20919600D01*
X19838455Y-20927301D01*
X19838455Y-20927301D01*
G37*
G36*
X20338455Y-20927301D02*
G01*
X20374925Y-20942408D01*
X20407748Y-20964339D01*
X20435661Y-20992252D01*
X20457592Y-21025075D01*
X20472699Y-21061545D01*
X20480400Y-21100262D01*
X20480400Y-21139738D01*
X20472699Y-21178455D01*
X20457592Y-21214925D01*
X20435661Y-21247748D01*
X20407748Y-21275661D01*
X20374925Y-21297592D01*
X20338455Y-21312699D01*
X20299738Y-21320400D01*
X20260262Y-21320400D01*
X20221545Y-21312699D01*
X20185075Y-21297592D01*
X20152252Y-21275661D01*
X20124339Y-21247748D01*
X20102408Y-21214925D01*
X20087301Y-21178455D01*
X20079600Y-21139738D01*
X20079600Y-21100262D01*
X20087301Y-21061545D01*
X20102408Y-21025075D01*
X20124339Y-20992252D01*
X20152252Y-20964339D01*
X20185075Y-20942408D01*
X20221545Y-20927301D01*
X20260262Y-20919600D01*
X20299738Y-20919600D01*
X20338455Y-20927301D01*
X20338455Y-20927301D01*
G37*
G36*
X19338455Y-20427301D02*
G01*
X19374925Y-20442408D01*
X19407748Y-20464339D01*
X19435661Y-20492252D01*
X19457592Y-20525075D01*
X19472699Y-20561545D01*
X19480400Y-20600262D01*
X19480400Y-20639738D01*
X19472699Y-20678455D01*
X19457592Y-20714925D01*
X19435661Y-20747748D01*
X19407748Y-20775661D01*
X19374925Y-20797592D01*
X19338455Y-20812699D01*
X19299738Y-20820400D01*
X19260262Y-20820400D01*
X19221545Y-20812699D01*
X19185075Y-20797592D01*
X19152252Y-20775661D01*
X19124339Y-20747748D01*
X19102408Y-20714925D01*
X19087301Y-20678455D01*
X19079600Y-20639738D01*
X19079600Y-20600262D01*
X19087301Y-20561545D01*
X19102408Y-20525075D01*
X19124339Y-20492252D01*
X19152252Y-20464339D01*
X19185075Y-20442408D01*
X19221545Y-20427301D01*
X19260262Y-20419600D01*
X19299738Y-20419600D01*
X19338455Y-20427301D01*
X19338455Y-20427301D01*
G37*
G36*
X19838455Y-20427301D02*
G01*
X19874925Y-20442408D01*
X19907748Y-20464339D01*
X19935661Y-20492252D01*
X19957592Y-20525075D01*
X19972699Y-20561545D01*
X19980400Y-20600262D01*
X19980400Y-20639738D01*
X19972699Y-20678455D01*
X19957592Y-20714925D01*
X19935661Y-20747748D01*
X19907748Y-20775661D01*
X19874925Y-20797592D01*
X19838455Y-20812699D01*
X19799738Y-20820400D01*
X19760262Y-20820400D01*
X19721545Y-20812699D01*
X19685075Y-20797592D01*
X19652252Y-20775661D01*
X19624339Y-20747748D01*
X19602408Y-20714925D01*
X19587301Y-20678455D01*
X19579600Y-20639738D01*
X19579600Y-20600262D01*
X19587301Y-20561545D01*
X19602408Y-20525075D01*
X19624339Y-20492252D01*
X19652252Y-20464339D01*
X19685075Y-20442408D01*
X19721545Y-20427301D01*
X19760262Y-20419600D01*
X19799738Y-20419600D01*
X19838455Y-20427301D01*
X19838455Y-20427301D01*
G37*
G36*
X20338455Y-20427301D02*
G01*
X20374925Y-20442408D01*
X20407748Y-20464339D01*
X20435661Y-20492252D01*
X20457592Y-20525075D01*
X20472699Y-20561545D01*
X20480400Y-20600262D01*
X20480400Y-20639738D01*
X20472699Y-20678455D01*
X20457592Y-20714925D01*
X20435661Y-20747748D01*
X20407748Y-20775661D01*
X20374925Y-20797592D01*
X20338455Y-20812699D01*
X20299738Y-20820400D01*
X20260262Y-20820400D01*
X20221545Y-20812699D01*
X20185075Y-20797592D01*
X20152252Y-20775661D01*
X20124339Y-20747748D01*
X20102408Y-20714925D01*
X20087301Y-20678455D01*
X20079600Y-20639738D01*
X20079600Y-20600262D01*
X20087301Y-20561545D01*
X20102408Y-20525075D01*
X20124339Y-20492252D01*
X20152252Y-20464339D01*
X20185075Y-20442408D01*
X20221545Y-20427301D01*
X20260262Y-20419600D01*
X20299738Y-20419600D01*
X20338455Y-20427301D01*
X20338455Y-20427301D01*
G37*
G36*
X20838455Y-20427301D02*
G01*
X20874925Y-20442408D01*
X20907748Y-20464339D01*
X20935661Y-20492252D01*
X20957592Y-20525075D01*
X20972699Y-20561545D01*
X20980400Y-20600262D01*
X20980400Y-20639738D01*
X20972699Y-20678455D01*
X20957592Y-20714925D01*
X20935661Y-20747748D01*
X20907748Y-20775661D01*
X20874925Y-20797592D01*
X20838455Y-20812699D01*
X20799738Y-20820400D01*
X20760262Y-20820400D01*
X20721545Y-20812699D01*
X20685075Y-20797592D01*
X20652252Y-20775661D01*
X20624339Y-20747748D01*
X20602408Y-20714925D01*
X20587301Y-20678455D01*
X20579600Y-20639738D01*
X20579600Y-20600262D01*
X20587301Y-20561545D01*
X20602408Y-20525075D01*
X20624339Y-20492252D01*
X20652252Y-20464339D01*
X20685075Y-20442408D01*
X20721545Y-20427301D01*
X20760262Y-20419600D01*
X20799738Y-20419600D01*
X20838455Y-20427301D01*
X20838455Y-20427301D01*
G37*
G36*
X18838455Y-20427301D02*
G01*
X18874925Y-20442408D01*
X18907748Y-20464339D01*
X18935661Y-20492252D01*
X18957592Y-20525075D01*
X18972699Y-20561545D01*
X18980400Y-20600262D01*
X18980400Y-20639738D01*
X18972699Y-20678455D01*
X18957592Y-20714925D01*
X18935661Y-20747748D01*
X18907748Y-20775661D01*
X18874925Y-20797592D01*
X18838455Y-20812699D01*
X18799738Y-20820400D01*
X18760262Y-20820400D01*
X18721545Y-20812699D01*
X18685075Y-20797592D01*
X18652252Y-20775661D01*
X18624339Y-20747748D01*
X18602408Y-20714925D01*
X18587301Y-20678455D01*
X18579600Y-20639738D01*
X18579600Y-20600262D01*
X18587301Y-20561545D01*
X18602408Y-20525075D01*
X18624339Y-20492252D01*
X18652252Y-20464339D01*
X18685075Y-20442408D01*
X18721545Y-20427301D01*
X18760262Y-20419600D01*
X18799738Y-20419600D01*
X18838455Y-20427301D01*
X18838455Y-20427301D01*
G37*
G36*
X19338455Y-19927301D02*
G01*
X19374925Y-19942408D01*
X19407748Y-19964339D01*
X19435661Y-19992252D01*
X19457592Y-20025075D01*
X19472699Y-20061545D01*
X19480400Y-20100262D01*
X19480400Y-20139738D01*
X19472699Y-20178455D01*
X19457592Y-20214925D01*
X19435661Y-20247748D01*
X19407748Y-20275661D01*
X19374925Y-20297592D01*
X19338455Y-20312699D01*
X19299738Y-20320400D01*
X19260262Y-20320400D01*
X19221545Y-20312699D01*
X19185075Y-20297592D01*
X19152252Y-20275661D01*
X19124339Y-20247748D01*
X19102408Y-20214925D01*
X19087301Y-20178455D01*
X19079600Y-20139738D01*
X19079600Y-20100262D01*
X19087301Y-20061545D01*
X19102408Y-20025075D01*
X19124339Y-19992252D01*
X19152252Y-19964339D01*
X19185075Y-19942408D01*
X19221545Y-19927301D01*
X19260262Y-19919600D01*
X19299738Y-19919600D01*
X19338455Y-19927301D01*
X19338455Y-19927301D01*
G37*
G36*
X18838455Y-19927301D02*
G01*
X18874925Y-19942408D01*
X18907748Y-19964339D01*
X18935661Y-19992252D01*
X18957592Y-20025075D01*
X18972699Y-20061545D01*
X18980400Y-20100262D01*
X18980400Y-20139738D01*
X18972699Y-20178455D01*
X18957592Y-20214925D01*
X18935661Y-20247748D01*
X18907748Y-20275661D01*
X18874925Y-20297592D01*
X18838455Y-20312699D01*
X18799738Y-20320400D01*
X18760262Y-20320400D01*
X18721545Y-20312699D01*
X18685075Y-20297592D01*
X18652252Y-20275661D01*
X18624339Y-20247748D01*
X18602408Y-20214925D01*
X18587301Y-20178455D01*
X18579600Y-20139738D01*
X18579600Y-20100262D01*
X18587301Y-20061545D01*
X18602408Y-20025075D01*
X18624339Y-19992252D01*
X18652252Y-19964339D01*
X18685075Y-19942408D01*
X18721545Y-19927301D01*
X18760262Y-19919600D01*
X18799738Y-19919600D01*
X18838455Y-19927301D01*
X18838455Y-19927301D01*
G37*
G36*
X20838455Y-19927301D02*
G01*
X20874925Y-19942408D01*
X20907748Y-19964339D01*
X20935661Y-19992252D01*
X20957592Y-20025075D01*
X20972699Y-20061545D01*
X20980400Y-20100262D01*
X20980400Y-20139738D01*
X20972699Y-20178455D01*
X20957592Y-20214925D01*
X20935661Y-20247748D01*
X20907748Y-20275661D01*
X20874925Y-20297592D01*
X20838455Y-20312699D01*
X20799738Y-20320400D01*
X20760262Y-20320400D01*
X20721545Y-20312699D01*
X20685075Y-20297592D01*
X20652252Y-20275661D01*
X20624339Y-20247748D01*
X20602408Y-20214925D01*
X20587301Y-20178455D01*
X20579600Y-20139738D01*
X20579600Y-20100262D01*
X20587301Y-20061545D01*
X20602408Y-20025075D01*
X20624339Y-19992252D01*
X20652252Y-19964339D01*
X20685075Y-19942408D01*
X20721545Y-19927301D01*
X20760262Y-19919600D01*
X20799738Y-19919600D01*
X20838455Y-19927301D01*
X20838455Y-19927301D01*
G37*
G36*
X19838455Y-19927301D02*
G01*
X19874925Y-19942408D01*
X19907748Y-19964339D01*
X19935661Y-19992252D01*
X19957592Y-20025075D01*
X19972699Y-20061545D01*
X19980400Y-20100262D01*
X19980400Y-20139738D01*
X19972699Y-20178455D01*
X19957592Y-20214925D01*
X19935661Y-20247748D01*
X19907748Y-20275661D01*
X19874925Y-20297592D01*
X19838455Y-20312699D01*
X19799738Y-20320400D01*
X19760262Y-20320400D01*
X19721545Y-20312699D01*
X19685075Y-20297592D01*
X19652252Y-20275661D01*
X19624339Y-20247748D01*
X19602408Y-20214925D01*
X19587301Y-20178455D01*
X19579600Y-20139738D01*
X19579600Y-20100262D01*
X19587301Y-20061545D01*
X19602408Y-20025075D01*
X19624339Y-19992252D01*
X19652252Y-19964339D01*
X19685075Y-19942408D01*
X19721545Y-19927301D01*
X19760262Y-19919600D01*
X19799738Y-19919600D01*
X19838455Y-19927301D01*
X19838455Y-19927301D01*
G37*
G36*
X20338455Y-19927301D02*
G01*
X20374925Y-19942408D01*
X20407748Y-19964339D01*
X20435661Y-19992252D01*
X20457592Y-20025075D01*
X20472699Y-20061545D01*
X20480400Y-20100262D01*
X20480400Y-20139738D01*
X20472699Y-20178455D01*
X20457592Y-20214925D01*
X20435661Y-20247748D01*
X20407748Y-20275661D01*
X20374925Y-20297592D01*
X20338455Y-20312699D01*
X20299738Y-20320400D01*
X20260262Y-20320400D01*
X20221545Y-20312699D01*
X20185075Y-20297592D01*
X20152252Y-20275661D01*
X20124339Y-20247748D01*
X20102408Y-20214925D01*
X20087301Y-20178455D01*
X20079600Y-20139738D01*
X20079600Y-20100262D01*
X20087301Y-20061545D01*
X20102408Y-20025075D01*
X20124339Y-19992252D01*
X20152252Y-19964339D01*
X20185075Y-19942408D01*
X20221545Y-19927301D01*
X20260262Y-19919600D01*
X20299738Y-19919600D01*
X20338455Y-19927301D01*
X20338455Y-19927301D01*
G37*
G36*
X15810400Y-20155400D02*
G01*
X15539600Y-20155400D01*
X15539600Y-19494600D01*
X15810400Y-19494600D01*
X15810400Y-20155400D01*
X15810400Y-20155400D01*
G37*
G36*
X16210400Y-20155400D02*
G01*
X15939600Y-20155400D01*
X15939600Y-19494600D01*
X16210400Y-19494600D01*
X16210400Y-20155400D01*
X16210400Y-20155400D01*
G37*
G36*
X15360400Y-19915400D02*
G01*
X14699600Y-19915400D01*
X14699600Y-19644600D01*
X15360400Y-19644600D01*
X15360400Y-19915400D01*
X15360400Y-19915400D01*
G37*
G36*
X17050400Y-19915400D02*
G01*
X16389600Y-19915400D01*
X16389600Y-19644600D01*
X17050400Y-19644600D01*
X17050400Y-19915400D01*
X17050400Y-19915400D01*
G37*
G36*
X17050400Y-19515400D02*
G01*
X16389600Y-19515400D01*
X16389600Y-19244600D01*
X17050400Y-19244600D01*
X17050400Y-19515400D01*
X17050400Y-19515400D01*
G37*
G36*
X15360400Y-19515400D02*
G01*
X14699600Y-19515400D01*
X14699600Y-19244600D01*
X15360400Y-19244600D01*
X15360400Y-19515400D01*
X15360400Y-19515400D01*
G37*
G36*
X13494984Y-18709231D02*
G01*
X13545832Y-18730293D01*
X13591593Y-18760870D01*
X13630510Y-18799787D01*
X13661087Y-18845548D01*
X13682149Y-18896396D01*
X13692886Y-18950375D01*
X13692886Y-19005413D01*
X13682149Y-19059392D01*
X13661087Y-19110240D01*
X13630510Y-19156001D01*
X13591593Y-19194918D01*
X13545832Y-19225495D01*
X13494984Y-19246557D01*
X13441005Y-19257294D01*
X13385967Y-19257294D01*
X13331988Y-19246557D01*
X13281140Y-19225495D01*
X13235379Y-19194918D01*
X13196462Y-19156001D01*
X13165885Y-19110240D01*
X13144823Y-19059392D01*
X13134086Y-19005413D01*
X13134086Y-18950375D01*
X13144823Y-18896396D01*
X13165885Y-18845548D01*
X13196462Y-18799787D01*
X13235379Y-18760870D01*
X13281140Y-18730293D01*
X13331988Y-18709231D01*
X13385967Y-18698494D01*
X13441005Y-18698494D01*
X13494984Y-18709231D01*
X13494984Y-18709231D01*
G37*
G36*
X17050400Y-19115400D02*
G01*
X16389600Y-19115400D01*
X16389600Y-18844600D01*
X17050400Y-18844600D01*
X17050400Y-19115400D01*
X17050400Y-19115400D01*
G37*
G36*
X15360400Y-19115400D02*
G01*
X14699600Y-19115400D01*
X14699600Y-18844600D01*
X15360400Y-18844600D01*
X15360400Y-19115400D01*
X15360400Y-19115400D01*
G37*
G36*
X12885384Y-18226631D02*
G01*
X12936232Y-18247693D01*
X12981993Y-18278270D01*
X13020910Y-18317187D01*
X13051487Y-18362948D01*
X13072549Y-18413796D01*
X13083286Y-18467775D01*
X13083286Y-18522813D01*
X13072549Y-18576792D01*
X13051487Y-18627640D01*
X13020910Y-18673401D01*
X12981993Y-18712318D01*
X12936232Y-18742895D01*
X12885384Y-18763957D01*
X12831405Y-18774694D01*
X12776367Y-18774694D01*
X12722388Y-18763957D01*
X12671540Y-18742895D01*
X12625779Y-18712318D01*
X12586862Y-18673401D01*
X12556285Y-18627640D01*
X12535223Y-18576792D01*
X12524486Y-18522813D01*
X12524486Y-18467775D01*
X12535223Y-18413796D01*
X12556285Y-18362948D01*
X12586862Y-18317187D01*
X12625779Y-18278270D01*
X12671540Y-18247693D01*
X12722388Y-18226631D01*
X12776367Y-18215894D01*
X12831405Y-18215894D01*
X12885384Y-18226631D01*
X12885384Y-18226631D01*
G37*
G36*
X17050400Y-18715400D02*
G01*
X16389600Y-18715400D01*
X16389600Y-18444600D01*
X17050400Y-18444600D01*
X17050400Y-18715400D01*
X17050400Y-18715400D01*
G37*
G36*
X15360400Y-18715400D02*
G01*
X14699600Y-18715400D01*
X14699600Y-18444600D01*
X15360400Y-18444600D01*
X15360400Y-18715400D01*
X15360400Y-18715400D01*
G37*
G36*
X17815400Y-18700400D02*
G01*
X17424600Y-18700400D01*
X17424600Y-18339600D01*
X17815400Y-18339600D01*
X17815400Y-18700400D01*
X17815400Y-18700400D01*
G37*
G36*
X19065400Y-18690400D02*
G01*
X18674600Y-18690400D01*
X18674600Y-18329600D01*
X19065400Y-18329600D01*
X19065400Y-18690400D01*
X19065400Y-18690400D01*
G37*
G36*
X18445400Y-18690400D02*
G01*
X18054600Y-18690400D01*
X18054600Y-18329600D01*
X18445400Y-18329600D01*
X18445400Y-18690400D01*
X18445400Y-18690400D01*
G37*
G36*
X15810400Y-18465400D02*
G01*
X15539600Y-18465400D01*
X15539600Y-17804600D01*
X15810400Y-17804600D01*
X15810400Y-18465400D01*
X15810400Y-18465400D01*
G37*
G36*
X16210400Y-18465400D02*
G01*
X15939600Y-18465400D01*
X15939600Y-17804600D01*
X16210400Y-17804600D01*
X16210400Y-18465400D01*
X16210400Y-18465400D01*
G37*
G36*
X17050400Y-18315400D02*
G01*
X16389600Y-18315400D01*
X16389600Y-18044600D01*
X17050400Y-18044600D01*
X17050400Y-18315400D01*
X17050400Y-18315400D01*
G37*
G36*
X15360400Y-18315400D02*
G01*
X14699600Y-18315400D01*
X14699600Y-18044600D01*
X15360400Y-18044600D01*
X15360400Y-18315400D01*
X15360400Y-18315400D01*
G37*
G36*
X13494984Y-17744032D02*
G01*
X13545832Y-17765094D01*
X13591593Y-17795671D01*
X13630510Y-17834588D01*
X13661087Y-17880349D01*
X13682149Y-17931197D01*
X13692886Y-17985176D01*
X13692886Y-18040214D01*
X13682149Y-18094193D01*
X13661087Y-18145041D01*
X13630510Y-18190802D01*
X13591593Y-18229719D01*
X13545832Y-18260296D01*
X13494984Y-18281358D01*
X13441005Y-18292095D01*
X13385967Y-18292095D01*
X13331988Y-18281358D01*
X13281140Y-18260296D01*
X13235379Y-18229719D01*
X13196462Y-18190802D01*
X13165885Y-18145041D01*
X13144823Y-18094193D01*
X13134086Y-18040214D01*
X13134086Y-17985176D01*
X13144823Y-17931197D01*
X13165885Y-17880349D01*
X13196462Y-17834588D01*
X13235379Y-17795671D01*
X13281140Y-17765094D01*
X13331988Y-17744032D01*
X13385967Y-17733295D01*
X13441005Y-17733295D01*
X13494984Y-17744032D01*
X13494984Y-17744032D01*
G37*
G36*
X17815400Y-18150400D02*
G01*
X17424600Y-18150400D01*
X17424600Y-17789600D01*
X17815400Y-17789600D01*
X17815400Y-18150400D01*
X17815400Y-18150400D01*
G37*
G36*
X18445400Y-18140400D02*
G01*
X18054600Y-18140400D01*
X18054600Y-17779600D01*
X18445400Y-17779600D01*
X18445400Y-18140400D01*
X18445400Y-18140400D01*
G37*
G36*
X19065400Y-18140400D02*
G01*
X18674600Y-18140400D01*
X18674600Y-17779600D01*
X19065400Y-17779600D01*
X19065400Y-18140400D01*
X19065400Y-18140400D01*
G37*
G36*
X12885384Y-17261432D02*
G01*
X12936232Y-17282494D01*
X12981993Y-17313071D01*
X13020910Y-17351988D01*
X13051487Y-17397749D01*
X13072549Y-17448597D01*
X13083286Y-17502576D01*
X13083286Y-17557614D01*
X13072549Y-17611593D01*
X13051487Y-17662441D01*
X13020910Y-17708202D01*
X12981993Y-17747119D01*
X12936232Y-17777696D01*
X12885384Y-17798758D01*
X12831405Y-17809495D01*
X12776367Y-17809495D01*
X12722388Y-17798758D01*
X12671540Y-17777696D01*
X12625779Y-17747119D01*
X12586862Y-17708202D01*
X12556285Y-17662441D01*
X12535223Y-17611593D01*
X12524486Y-17557614D01*
X12524486Y-17502576D01*
X12535223Y-17448597D01*
X12556285Y-17397749D01*
X12586862Y-17351988D01*
X12625779Y-17313071D01*
X12671540Y-17282494D01*
X12722388Y-17261432D01*
X12776367Y-17250695D01*
X12831405Y-17250695D01*
X12885384Y-17261432D01*
X12885384Y-17261432D01*
G37*
G36*
X21475400Y-17720400D02*
G01*
X21084600Y-17720400D01*
X21084600Y-17359600D01*
X21475400Y-17359600D01*
X21475400Y-17720400D01*
X21475400Y-17720400D01*
G37*
G36*
X22125400Y-17700400D02*
G01*
X21734600Y-17700400D01*
X21734600Y-17339600D01*
X22125400Y-17339600D01*
X22125400Y-17700400D01*
X22125400Y-17700400D01*
G37*
G36*
X13494984Y-16778833D02*
G01*
X13545832Y-16799895D01*
X13591593Y-16830472D01*
X13630510Y-16869389D01*
X13661087Y-16915150D01*
X13682149Y-16965998D01*
X13692886Y-17019977D01*
X13692886Y-17075015D01*
X13682149Y-17128994D01*
X13661087Y-17179842D01*
X13630510Y-17225603D01*
X13591593Y-17264520D01*
X13545832Y-17295097D01*
X13494984Y-17316159D01*
X13441005Y-17326896D01*
X13385967Y-17326896D01*
X13331988Y-17316159D01*
X13281140Y-17295097D01*
X13235379Y-17264520D01*
X13196462Y-17225603D01*
X13165885Y-17179842D01*
X13144823Y-17128994D01*
X13134086Y-17075015D01*
X13134086Y-17019977D01*
X13144823Y-16965998D01*
X13165885Y-16915150D01*
X13196462Y-16869389D01*
X13235379Y-16830472D01*
X13281140Y-16799895D01*
X13331988Y-16778833D01*
X13385967Y-16768096D01*
X13441005Y-16768096D01*
X13494984Y-16778833D01*
X13494984Y-16778833D01*
G37*
G36*
X15390400Y-17245400D02*
G01*
X15029600Y-17245400D01*
X15029600Y-16854600D01*
X15390400Y-16854600D01*
X15390400Y-17245400D01*
X15390400Y-17245400D01*
G37*
G36*
X14840400Y-17245400D02*
G01*
X14479600Y-17245400D01*
X14479600Y-16854600D01*
X14840400Y-16854600D01*
X14840400Y-17245400D01*
X14840400Y-17245400D01*
G37*
G36*
X20710400Y-17245400D02*
G01*
X20349600Y-17245400D01*
X20349600Y-16854600D01*
X20710400Y-16854600D01*
X20710400Y-17245400D01*
X20710400Y-17245400D01*
G37*
G36*
X20160400Y-17245400D02*
G01*
X19799600Y-17245400D01*
X19799600Y-16854600D01*
X20160400Y-16854600D01*
X20160400Y-17245400D01*
X20160400Y-17245400D01*
G37*
G36*
X21475400Y-17170400D02*
G01*
X21084600Y-17170400D01*
X21084600Y-16809600D01*
X21475400Y-16809600D01*
X21475400Y-17170400D01*
X21475400Y-17170400D01*
G37*
G36*
X22125400Y-17150400D02*
G01*
X21734600Y-17150400D01*
X21734600Y-16789600D01*
X22125400Y-16789600D01*
X22125400Y-17150400D01*
X22125400Y-17150400D01*
G37*
G36*
X12878018Y-16269277D02*
G01*
X12928866Y-16290339D01*
X12974627Y-16320916D01*
X13013544Y-16359833D01*
X13044121Y-16405594D01*
X13065183Y-16456442D01*
X13075920Y-16510421D01*
X13075920Y-16565459D01*
X13065183Y-16619438D01*
X13044121Y-16670286D01*
X13013544Y-16716047D01*
X12974627Y-16754964D01*
X12928866Y-16785541D01*
X12878018Y-16806603D01*
X12824039Y-16817340D01*
X12769001Y-16817340D01*
X12715022Y-16806603D01*
X12664174Y-16785541D01*
X12618413Y-16754964D01*
X12579496Y-16716047D01*
X12548919Y-16670286D01*
X12527857Y-16619438D01*
X12517120Y-16565459D01*
X12517120Y-16510421D01*
X12527857Y-16456442D01*
X12548919Y-16405594D01*
X12579496Y-16359833D01*
X12618413Y-16320916D01*
X12664174Y-16290339D01*
X12715022Y-16269277D01*
X12769001Y-16258540D01*
X12824039Y-16258540D01*
X12878018Y-16269277D01*
X12878018Y-16269277D01*
G37*
G36*
X17855400Y-16770400D02*
G01*
X17464600Y-16770400D01*
X17464600Y-16409600D01*
X17855400Y-16409600D01*
X17855400Y-16770400D01*
X17855400Y-16770400D01*
G37*
G36*
X18505400Y-16770400D02*
G01*
X18114600Y-16770400D01*
X18114600Y-16409600D01*
X18505400Y-16409600D01*
X18505400Y-16770400D01*
X18505400Y-16770400D01*
G37*
G36*
X20570400Y-16575400D02*
G01*
X20249600Y-16575400D01*
X20249600Y-15884600D01*
X20570400Y-15884600D01*
X20570400Y-16575400D01*
X20570400Y-16575400D01*
G37*
G36*
X16780400Y-16575400D02*
G01*
X16459600Y-16575400D01*
X16459600Y-15884600D01*
X16780400Y-15884600D01*
X16780400Y-16575400D01*
X16780400Y-16575400D01*
G37*
G36*
X22070400Y-16575400D02*
G01*
X21749600Y-16575400D01*
X21749600Y-15884600D01*
X22070400Y-15884600D01*
X22070400Y-16575400D01*
X22070400Y-16575400D01*
G37*
G36*
X21570400Y-16575400D02*
G01*
X21249600Y-16575400D01*
X21249600Y-15884600D01*
X21570400Y-15884600D01*
X21570400Y-16575400D01*
X21570400Y-16575400D01*
G37*
G36*
X20070400Y-16575400D02*
G01*
X19749600Y-16575400D01*
X19749600Y-15884600D01*
X20070400Y-15884600D01*
X20070400Y-16575400D01*
X20070400Y-16575400D01*
G37*
G36*
X15780400Y-16575400D02*
G01*
X15459600Y-16575400D01*
X15459600Y-15884600D01*
X15780400Y-15884600D01*
X15780400Y-16575400D01*
X15780400Y-16575400D01*
G37*
G36*
X15280400Y-16575400D02*
G01*
X14959600Y-16575400D01*
X14959600Y-15884600D01*
X15280400Y-15884600D01*
X15280400Y-16575400D01*
X15280400Y-16575400D01*
G37*
G36*
X14780400Y-16575400D02*
G01*
X14459600Y-16575400D01*
X14459600Y-15884600D01*
X14780400Y-15884600D01*
X14780400Y-16575400D01*
X14780400Y-16575400D01*
G37*
G36*
X21070400Y-16575400D02*
G01*
X20749600Y-16575400D01*
X20749600Y-15884600D01*
X21070400Y-15884600D01*
X21070400Y-16575400D01*
X21070400Y-16575400D01*
G37*
G36*
X16280400Y-16575400D02*
G01*
X15959600Y-16575400D01*
X15959600Y-15884600D01*
X16280400Y-15884600D01*
X16280400Y-16575400D01*
X16280400Y-16575400D01*
G37*
G36*
X17855400Y-16220400D02*
G01*
X17464600Y-16220400D01*
X17464600Y-15859600D01*
X17855400Y-15859600D01*
X17855400Y-16220400D01*
X17855400Y-16220400D01*
G37*
G36*
X18505400Y-16220400D02*
G01*
X18114600Y-16220400D01*
X18114600Y-15859600D01*
X18505400Y-15859600D01*
X18505400Y-16220400D01*
X18505400Y-16220400D01*
G37*
G36*
X24099098Y-13834005D02*
G01*
X24285710Y-13911302D01*
X24453655Y-14023520D01*
X24596480Y-14166345D01*
X24708698Y-14334290D01*
X24785995Y-14520902D01*
X24825400Y-14719007D01*
X24825400Y-14920993D01*
X24785995Y-15119098D01*
X24708698Y-15305710D01*
X24596480Y-15473655D01*
X24453655Y-15616480D01*
X24285710Y-15728698D01*
X24099098Y-15805995D01*
X23900993Y-15845400D01*
X23699007Y-15845400D01*
X23500902Y-15805995D01*
X23314290Y-15728698D01*
X23146345Y-15616480D01*
X23003520Y-15473655D01*
X22891302Y-15305710D01*
X22814005Y-15119098D01*
X22774600Y-14920993D01*
X22774600Y-14719007D01*
X22814005Y-14520902D01*
X22891302Y-14334290D01*
X23003520Y-14166345D01*
X23146345Y-14023520D01*
X23314290Y-13911302D01*
X23500902Y-13834005D01*
X23699007Y-13794600D01*
X23900993Y-13794600D01*
X24099098Y-13834005D01*
X24099098Y-13834005D01*
G37*
G36*
X13089098Y-13814005D02*
G01*
X13275710Y-13891302D01*
X13443655Y-14003520D01*
X13586480Y-14146345D01*
X13698698Y-14314290D01*
X13775995Y-14500902D01*
X13815400Y-14699007D01*
X13815400Y-14900993D01*
X13775995Y-15099098D01*
X13698698Y-15285710D01*
X13586480Y-15453655D01*
X13443655Y-15596480D01*
X13275710Y-15708698D01*
X13089098Y-15785995D01*
X12890993Y-15825400D01*
X12689007Y-15825400D01*
X12490902Y-15785995D01*
X12304290Y-15708698D01*
X12136345Y-15596480D01*
X11993520Y-15453655D01*
X11881302Y-15285710D01*
X11804005Y-15099098D01*
X11764600Y-14900993D01*
X11764600Y-14699007D01*
X11804005Y-14500902D01*
X11881302Y-14314290D01*
X11993520Y-14146345D01*
X12136345Y-14003520D01*
X12304290Y-13891302D01*
X12490902Y-13814005D01*
X12689007Y-13774600D01*
X12890993Y-13774600D01*
X13089098Y-13814005D01*
X13089098Y-13814005D01*
G37*
G36*
X22130400Y-15735400D02*
G01*
X19689600Y-15735400D01*
X19689600Y-15044600D01*
X22130400Y-15044600D01*
X22130400Y-15735400D01*
X22130400Y-15735400D01*
G37*
G36*
X16840400Y-15735400D02*
G01*
X14399600Y-15735400D01*
X14399600Y-15044600D01*
X16840400Y-15044600D01*
X16840400Y-15735400D01*
X16840400Y-15735400D01*
G37*
G36*
X19100400Y-15310400D02*
G01*
X18419600Y-15310400D01*
X18419600Y-14679600D01*
X19100400Y-14679600D01*
X19100400Y-15310400D01*
X19100400Y-15310400D01*
G37*
G36*
X18140400Y-15310400D02*
G01*
X17459600Y-15310400D01*
X17459600Y-14679600D01*
X18140400Y-14679600D01*
X18140400Y-15310400D01*
X18140400Y-15310400D01*
G37*
G36*
X16280400Y-14895400D02*
G01*
X15959600Y-14895400D01*
X15959600Y-14204600D01*
X16280400Y-14204600D01*
X16280400Y-14895400D01*
X16280400Y-14895400D01*
G37*
G36*
X20070400Y-14895400D02*
G01*
X19749600Y-14895400D01*
X19749600Y-14204600D01*
X20070400Y-14204600D01*
X20070400Y-14895400D01*
X20070400Y-14895400D01*
G37*
G36*
X15280400Y-14895400D02*
G01*
X14959600Y-14895400D01*
X14959600Y-14204600D01*
X15280400Y-14204600D01*
X15280400Y-14895400D01*
X15280400Y-14895400D01*
G37*
G36*
X14780400Y-14895400D02*
G01*
X14459600Y-14895400D01*
X14459600Y-14204600D01*
X14780400Y-14204600D01*
X14780400Y-14895400D01*
X14780400Y-14895400D01*
G37*
G36*
X15780400Y-14895400D02*
G01*
X15459600Y-14895400D01*
X15459600Y-14204600D01*
X15780400Y-14204600D01*
X15780400Y-14895400D01*
X15780400Y-14895400D01*
G37*
G36*
X16780400Y-14895400D02*
G01*
X16459600Y-14895400D01*
X16459600Y-14204600D01*
X16780400Y-14204600D01*
X16780400Y-14895400D01*
X16780400Y-14895400D01*
G37*
G36*
X22070400Y-14895400D02*
G01*
X21749600Y-14895400D01*
X21749600Y-14204600D01*
X22070400Y-14204600D01*
X22070400Y-14895400D01*
X22070400Y-14895400D01*
G37*
G36*
X20570400Y-14895400D02*
G01*
X20249600Y-14895400D01*
X20249600Y-14204600D01*
X20570400Y-14204600D01*
X20570400Y-14895400D01*
X20570400Y-14895400D01*
G37*
G36*
X21070400Y-14895400D02*
G01*
X20749600Y-14895400D01*
X20749600Y-14204600D01*
X21070400Y-14204600D01*
X21070400Y-14895400D01*
X21070400Y-14895400D01*
G37*
G36*
X21570400Y-14895400D02*
G01*
X21249600Y-14895400D01*
X21249600Y-14204600D01*
X21570400Y-14204600D01*
X21570400Y-14895400D01*
X21570400Y-14895400D01*
G37*
G36*
X19100400Y-14420400D02*
G01*
X18419600Y-14420400D01*
X18419600Y-13789600D01*
X19100400Y-13789600D01*
X19100400Y-14420400D01*
X19100400Y-14420400D01*
G37*
G36*
X18140400Y-14420400D02*
G01*
X17459600Y-14420400D01*
X17459600Y-13789600D01*
X18140400Y-13789600D01*
X18140400Y-14420400D01*
X18140400Y-14420400D01*
G37*
M02*
