G04 #@! TF.GenerationSoftware,KiCad,Pcbnew,(5.1.0)-1*
G04 #@! TF.CreationDate,2019-06-16T22:48:04-07:00*
G04 #@! TF.ProjectId,MS_v4_ETL_LED_Driver,4d535f76-345f-4455-944c-5f4c45445f44,rev?*
G04 #@! TF.SameCoordinates,Original*
G04 #@! TF.FileFunction,Copper,L6,Bot*
G04 #@! TF.FilePolarity,Positive*
%FSLAX46Y46*%
G04 Gerber Fmt 4.6, Leading zero omitted, Abs format (unit mm)*
G04 Created by KiCad (PCBNEW (5.1.0)-1) date 2019-06-16 22:48:04*
%MOMM*%
%LPD*%
G04 APERTURE LIST*
%ADD10R,0.450000X1.500000*%
%ADD11R,0.540000X1.060000*%
%ADD12R,0.810000X0.870000*%
%ADD13R,0.580000X0.630000*%
%ADD14R,0.890000X0.920000*%
%ADD15C,0.450000*%
%ADD16C,0.152000*%
%ADD17C,0.088900*%
%ADD18C,0.101600*%
%ADD19C,0.090000*%
%ADD20C,0.254000*%
%ADD21C,0.203200*%
%ADD22C,0.100000*%
G04 APERTURE END LIST*
D10*
X16249200Y-16009200D03*
X16949200Y-16009200D03*
D11*
X17320000Y-20560000D03*
X17320000Y-22620000D03*
D12*
X15920000Y-22098000D03*
X14560000Y-22098000D03*
D13*
X14885000Y-19720000D03*
X15775000Y-19720000D03*
D14*
X15905000Y-20853400D03*
X14575000Y-20853400D03*
D10*
X14600000Y-16009200D03*
X15300000Y-16009200D03*
D15*
X18230000Y-20200000D03*
X17770000Y-21520000D03*
X13840000Y-14370000D03*
X17514300Y-15310000D03*
X20114260Y-15265400D03*
X18880000Y-22690000D03*
X14298788Y-17331212D03*
X12803886Y-18495294D03*
X19310000Y-20950000D03*
X18800000Y-19200000D03*
X20300000Y-17940000D03*
X21220000Y-13700000D03*
X13770000Y-23310000D03*
X13413486Y-18977894D03*
X16590000Y-19769999D03*
X18645510Y-14400000D03*
X20770000Y-19210000D03*
X14959741Y-14421891D03*
X17774245Y-17140158D03*
X14903607Y-13682595D03*
X14553360Y-14860764D03*
X12803886Y-17530095D03*
X14460000Y-23330000D03*
X13413486Y-18012695D03*
X14040000Y-19730000D03*
X15542222Y-18217108D03*
X20241307Y-17005550D03*
X12796520Y-16537939D03*
X20800000Y-17000000D03*
X13413486Y-17047496D03*
X18400000Y-16700000D03*
X20781008Y-18342017D03*
X17280000Y-18580000D03*
X16579998Y-13720000D03*
X16910343Y-17117162D03*
D16*
X16927800Y-20853400D02*
X17221200Y-20560000D01*
X15905000Y-20853400D02*
X16927800Y-20853400D01*
D17*
X15905000Y-20853400D02*
X17576600Y-20853400D01*
D16*
X17680000Y-20200000D02*
X17320000Y-20560000D01*
X18230000Y-20200000D02*
X17680000Y-20200000D01*
X17770000Y-21520000D02*
X17770000Y-21930000D01*
X17320000Y-22360000D02*
X17320000Y-22620000D01*
X17750000Y-21930000D02*
X17320000Y-22360000D01*
X17770000Y-21930000D02*
X17750000Y-21930000D01*
X16447800Y-22620000D02*
X17320000Y-22620000D01*
X15920000Y-22098000D02*
X15925800Y-22098000D01*
X15925800Y-22098000D02*
X16447800Y-22620000D01*
D17*
X16668101Y-23370000D02*
X16760000Y-23370000D01*
D16*
X15530000Y-23370000D02*
X16760000Y-23370000D01*
D18*
X14559999Y-22098000D02*
X14559999Y-22399999D01*
D16*
X14559999Y-22399999D02*
X15530000Y-23370000D01*
X12803886Y-18495294D02*
X14234094Y-18495294D01*
X14234094Y-18495294D02*
X14494706Y-18495294D01*
D19*
X14494706Y-18495294D02*
X14495294Y-18495294D01*
X16949200Y-15875100D02*
X16949200Y-16009200D01*
D20*
X17514300Y-15310000D02*
X16949200Y-15875100D01*
X15300000Y-16009200D02*
X15300000Y-15169200D01*
X15300000Y-15169200D02*
X15800000Y-14669200D01*
X16873500Y-14669200D02*
X17514300Y-15310000D01*
X15800000Y-14669200D02*
X16873500Y-14669200D01*
D16*
X18230000Y-23370000D02*
X16760000Y-23370000D01*
X18880000Y-22690000D02*
X18880000Y-22720000D01*
X18880000Y-22720000D02*
X18230000Y-23370000D01*
X14634094Y-18495294D02*
X14494706Y-18495294D01*
X14885000Y-19720000D02*
X14885000Y-18746200D01*
X14885000Y-18746200D02*
X14634094Y-18495294D01*
D17*
X14575000Y-20868400D02*
X14575000Y-20853400D01*
D21*
X13770000Y-21673400D02*
X14575000Y-20868400D01*
X13770000Y-23310000D02*
X13770000Y-21673400D01*
D19*
X14170000Y-20450000D02*
X14980000Y-20450000D01*
D16*
X13570000Y-19134408D02*
X13413486Y-18977894D01*
X13570000Y-20320000D02*
X13570000Y-19134408D01*
X14575000Y-20853400D02*
X14103400Y-20853400D01*
X14103400Y-20853400D02*
X13570000Y-20320000D01*
D17*
X16590000Y-19750000D02*
X16590000Y-19769999D01*
D19*
X16540001Y-19720000D02*
X16590000Y-19769999D01*
X15775000Y-19720000D02*
X16540001Y-19720000D01*
D17*
X16114200Y-15484200D02*
X16114200Y-16009200D01*
D19*
X17780000Y-17145913D02*
X17774245Y-17140158D01*
X16249200Y-16009200D02*
X16249200Y-16560800D01*
X16249200Y-16560800D02*
X16080000Y-16730000D01*
D20*
X17549246Y-17365157D02*
X17774245Y-17140158D01*
X17356337Y-17558066D02*
X17549246Y-17365157D01*
X16508066Y-17558066D02*
X17356337Y-17558066D01*
X16260000Y-16570000D02*
X16260000Y-17310000D01*
X16260000Y-17310000D02*
X16508066Y-17558066D01*
D17*
X14553360Y-14846640D02*
X14553360Y-14860764D01*
X14675001Y-14724999D02*
X14553360Y-14846640D01*
D21*
X20155550Y-17005550D02*
X20241307Y-17005550D01*
D19*
X14600000Y-16009200D02*
X14600000Y-16534200D01*
D20*
X19466857Y-17780000D02*
X20241307Y-17005550D01*
X14600000Y-16780000D02*
X15420000Y-17600000D01*
X14600000Y-16534200D02*
X14600000Y-16780000D01*
X15420000Y-17600000D02*
X15802900Y-17600000D01*
X15802900Y-17600000D02*
X16212900Y-18010000D01*
X16212900Y-18010000D02*
X19236857Y-18010000D01*
X19236857Y-18010000D02*
X19466857Y-17780000D01*
D16*
X20543025Y-18580000D02*
X20556009Y-18567016D01*
X20556009Y-18567016D02*
X20781008Y-18342017D01*
X17280000Y-18580000D02*
X20543025Y-18580000D01*
D22*
G36*
X15940000Y-14967064D02*
G01*
X15907302Y-14976983D01*
X15854490Y-15005211D01*
X15808200Y-15043200D01*
X15770211Y-15089490D01*
X15741983Y-15142302D01*
X15724600Y-15199606D01*
X15718730Y-15259200D01*
X15718730Y-16759200D01*
X15724600Y-16818794D01*
X15741983Y-16876098D01*
X15770211Y-16928910D01*
X15808200Y-16975200D01*
X15829001Y-16992270D01*
X15829001Y-17169486D01*
X15824068Y-17169000D01*
X15824061Y-17169000D01*
X15808315Y-17167449D01*
X15437543Y-17008018D01*
X15130470Y-16700945D01*
X15130470Y-15259200D01*
X15124600Y-15199606D01*
X15107217Y-15142302D01*
X15078989Y-15089490D01*
X15047233Y-15050795D01*
X15062031Y-15015068D01*
X15077390Y-14937853D01*
X15114045Y-14930562D01*
X15210317Y-14890685D01*
X15296959Y-14832792D01*
X15370642Y-14759109D01*
X15428535Y-14672467D01*
X15462694Y-14590000D01*
X15940000Y-14590000D01*
X15940000Y-14967064D01*
X15940000Y-14967064D01*
G37*
X15940000Y-14967064D02*
X15907302Y-14976983D01*
X15854490Y-15005211D01*
X15808200Y-15043200D01*
X15770211Y-15089490D01*
X15741983Y-15142302D01*
X15724600Y-15199606D01*
X15718730Y-15259200D01*
X15718730Y-16759200D01*
X15724600Y-16818794D01*
X15741983Y-16876098D01*
X15770211Y-16928910D01*
X15808200Y-16975200D01*
X15829001Y-16992270D01*
X15829001Y-17169486D01*
X15824068Y-17169000D01*
X15824061Y-17169000D01*
X15808315Y-17167449D01*
X15437543Y-17008018D01*
X15130470Y-16700945D01*
X15130470Y-15259200D01*
X15124600Y-15199606D01*
X15107217Y-15142302D01*
X15078989Y-15089490D01*
X15047233Y-15050795D01*
X15062031Y-15015068D01*
X15077390Y-14937853D01*
X15114045Y-14930562D01*
X15210317Y-14890685D01*
X15296959Y-14832792D01*
X15370642Y-14759109D01*
X15428535Y-14672467D01*
X15462694Y-14590000D01*
X15940000Y-14590000D01*
X15940000Y-14967064D01*
G36*
X17902181Y-14805394D02*
G01*
X17900250Y-14815004D01*
X17900231Y-14824806D01*
X17902125Y-14834423D01*
X17905859Y-14843485D01*
X17911289Y-14851646D01*
X17918206Y-14858590D01*
X17926346Y-14864051D01*
X17935394Y-14867819D01*
X17945004Y-14869750D01*
X17951237Y-14869985D01*
X18380803Y-14859352D01*
X18394934Y-14868794D01*
X18491206Y-14908671D01*
X18593408Y-14929000D01*
X18697612Y-14929000D01*
X18799814Y-14908671D01*
X18896086Y-14868794D01*
X18930583Y-14845744D01*
X18961237Y-14844985D01*
X18970965Y-14843783D01*
X18981886Y-14839955D01*
X19733009Y-14474277D01*
X21013832Y-14393285D01*
X21005794Y-15539649D01*
X21006687Y-15549410D01*
X21009705Y-15559389D01*
X21010000Y-15560090D01*
X21010000Y-16514399D01*
X20954304Y-16491329D01*
X20852102Y-16471000D01*
X20747898Y-16471000D01*
X20645696Y-16491329D01*
X20549424Y-16531206D01*
X20516500Y-16553205D01*
X20491883Y-16536756D01*
X20395611Y-16496879D01*
X20293409Y-16476550D01*
X20189205Y-16476550D01*
X20087003Y-16496879D01*
X19990731Y-16536756D01*
X19904089Y-16594649D01*
X19898738Y-16600000D01*
X19441831Y-16600000D01*
X19432076Y-16600961D01*
X19422697Y-16603806D01*
X19414052Y-16608427D01*
X19406476Y-16614645D01*
X19400258Y-16622221D01*
X19395637Y-16630866D01*
X19392792Y-16640245D01*
X19391836Y-16650704D01*
X19399291Y-17180000D01*
X18879065Y-17180000D01*
X18874478Y-16936855D01*
X18908671Y-16854304D01*
X18929000Y-16752102D01*
X18929000Y-16647898D01*
X18908671Y-16545696D01*
X18868794Y-16449424D01*
X18848439Y-16418961D01*
X18847182Y-16289515D01*
X18846126Y-16279770D01*
X18843190Y-16270418D01*
X18838486Y-16261819D01*
X18832194Y-16254303D01*
X18824558Y-16248159D01*
X18815869Y-16243622D01*
X18806462Y-16240868D01*
X18797184Y-16240000D01*
X18663737Y-16240000D01*
X18650576Y-16231206D01*
X18554304Y-16191329D01*
X18452102Y-16171000D01*
X18347898Y-16171000D01*
X18245696Y-16191329D01*
X18149424Y-16231206D01*
X18136263Y-16240000D01*
X17950000Y-16240000D01*
X17940245Y-16240961D01*
X17930866Y-16243806D01*
X17922221Y-16248427D01*
X17914645Y-16254645D01*
X17908427Y-16262221D01*
X17903806Y-16270866D01*
X17900961Y-16280245D01*
X17900000Y-16290000D01*
X17900000Y-16524762D01*
X17891329Y-16545696D01*
X17876330Y-16621100D01*
X17826347Y-16611158D01*
X17722143Y-16611158D01*
X17619941Y-16631487D01*
X17526962Y-16670000D01*
X17193293Y-16670000D01*
X17160919Y-16648368D01*
X17064647Y-16608491D01*
X16962445Y-16588162D01*
X16858241Y-16588162D01*
X16779670Y-16603791D01*
X16779670Y-15259200D01*
X16773800Y-15199606D01*
X16756417Y-15142302D01*
X16728189Y-15089490D01*
X16690200Y-15043200D01*
X16669638Y-15026325D01*
X16669039Y-15020245D01*
X16666194Y-15010866D01*
X16661573Y-15002221D01*
X16655355Y-14994645D01*
X16647779Y-14988427D01*
X16639134Y-14983806D01*
X16629755Y-14980961D01*
X16620000Y-14980000D01*
X16596743Y-14980000D01*
X16591098Y-14976983D01*
X16533794Y-14959600D01*
X16474200Y-14953730D01*
X16024200Y-14953730D01*
X15964606Y-14959600D01*
X15907302Y-14976983D01*
X15901657Y-14980000D01*
X15489517Y-14980000D01*
X15484797Y-14493821D01*
X15488741Y-14473993D01*
X15488741Y-14369789D01*
X15483329Y-14342580D01*
X15480551Y-14056453D01*
X16274541Y-14152123D01*
X16329422Y-14188794D01*
X16425694Y-14228671D01*
X16527896Y-14249000D01*
X16632100Y-14249000D01*
X16734302Y-14228671D01*
X16828977Y-14189456D01*
X16968066Y-14187495D01*
X16977806Y-14186397D01*
X16985134Y-14184235D01*
X18237362Y-13708019D01*
X17902181Y-14805394D01*
X17902181Y-14805394D01*
G37*
X17902181Y-14805394D02*
X17900250Y-14815004D01*
X17900231Y-14824806D01*
X17902125Y-14834423D01*
X17905859Y-14843485D01*
X17911289Y-14851646D01*
X17918206Y-14858590D01*
X17926346Y-14864051D01*
X17935394Y-14867819D01*
X17945004Y-14869750D01*
X17951237Y-14869985D01*
X18380803Y-14859352D01*
X18394934Y-14868794D01*
X18491206Y-14908671D01*
X18593408Y-14929000D01*
X18697612Y-14929000D01*
X18799814Y-14908671D01*
X18896086Y-14868794D01*
X18930583Y-14845744D01*
X18961237Y-14844985D01*
X18970965Y-14843783D01*
X18981886Y-14839955D01*
X19733009Y-14474277D01*
X21013832Y-14393285D01*
X21005794Y-15539649D01*
X21006687Y-15549410D01*
X21009705Y-15559389D01*
X21010000Y-15560090D01*
X21010000Y-16514399D01*
X20954304Y-16491329D01*
X20852102Y-16471000D01*
X20747898Y-16471000D01*
X20645696Y-16491329D01*
X20549424Y-16531206D01*
X20516500Y-16553205D01*
X20491883Y-16536756D01*
X20395611Y-16496879D01*
X20293409Y-16476550D01*
X20189205Y-16476550D01*
X20087003Y-16496879D01*
X19990731Y-16536756D01*
X19904089Y-16594649D01*
X19898738Y-16600000D01*
X19441831Y-16600000D01*
X19432076Y-16600961D01*
X19422697Y-16603806D01*
X19414052Y-16608427D01*
X19406476Y-16614645D01*
X19400258Y-16622221D01*
X19395637Y-16630866D01*
X19392792Y-16640245D01*
X19391836Y-16650704D01*
X19399291Y-17180000D01*
X18879065Y-17180000D01*
X18874478Y-16936855D01*
X18908671Y-16854304D01*
X18929000Y-16752102D01*
X18929000Y-16647898D01*
X18908671Y-16545696D01*
X18868794Y-16449424D01*
X18848439Y-16418961D01*
X18847182Y-16289515D01*
X18846126Y-16279770D01*
X18843190Y-16270418D01*
X18838486Y-16261819D01*
X18832194Y-16254303D01*
X18824558Y-16248159D01*
X18815869Y-16243622D01*
X18806462Y-16240868D01*
X18797184Y-16240000D01*
X18663737Y-16240000D01*
X18650576Y-16231206D01*
X18554304Y-16191329D01*
X18452102Y-16171000D01*
X18347898Y-16171000D01*
X18245696Y-16191329D01*
X18149424Y-16231206D01*
X18136263Y-16240000D01*
X17950000Y-16240000D01*
X17940245Y-16240961D01*
X17930866Y-16243806D01*
X17922221Y-16248427D01*
X17914645Y-16254645D01*
X17908427Y-16262221D01*
X17903806Y-16270866D01*
X17900961Y-16280245D01*
X17900000Y-16290000D01*
X17900000Y-16524762D01*
X17891329Y-16545696D01*
X17876330Y-16621100D01*
X17826347Y-16611158D01*
X17722143Y-16611158D01*
X17619941Y-16631487D01*
X17526962Y-16670000D01*
X17193293Y-16670000D01*
X17160919Y-16648368D01*
X17064647Y-16608491D01*
X16962445Y-16588162D01*
X16858241Y-16588162D01*
X16779670Y-16603791D01*
X16779670Y-15259200D01*
X16773800Y-15199606D01*
X16756417Y-15142302D01*
X16728189Y-15089490D01*
X16690200Y-15043200D01*
X16669638Y-15026325D01*
X16669039Y-15020245D01*
X16666194Y-15010866D01*
X16661573Y-15002221D01*
X16655355Y-14994645D01*
X16647779Y-14988427D01*
X16639134Y-14983806D01*
X16629755Y-14980961D01*
X16620000Y-14980000D01*
X16596743Y-14980000D01*
X16591098Y-14976983D01*
X16533794Y-14959600D01*
X16474200Y-14953730D01*
X16024200Y-14953730D01*
X15964606Y-14959600D01*
X15907302Y-14976983D01*
X15901657Y-14980000D01*
X15489517Y-14980000D01*
X15484797Y-14493821D01*
X15488741Y-14473993D01*
X15488741Y-14369789D01*
X15483329Y-14342580D01*
X15480551Y-14056453D01*
X16274541Y-14152123D01*
X16329422Y-14188794D01*
X16425694Y-14228671D01*
X16527896Y-14249000D01*
X16632100Y-14249000D01*
X16734302Y-14228671D01*
X16828977Y-14189456D01*
X16968066Y-14187495D01*
X16977806Y-14186397D01*
X16985134Y-14184235D01*
X18237362Y-13708019D01*
X17902181Y-14805394D01*
M02*
