G04 #@! TF.GenerationSoftware,KiCad,Pcbnew,(5.1.0)-1*
G04 #@! TF.CreationDate,2019-08-26T16:33:32-07:00*
G04 #@! TF.ProjectId,BNO055_08092019,424e4f30-3535-45f3-9038-303932303139,rev?*
G04 #@! TF.SameCoordinates,Original*
G04 #@! TF.FileFunction,Copper,L3,Inr*
G04 #@! TF.FilePolarity,Positive*
%FSLAX46Y46*%
G04 Gerber Fmt 4.6, Leading zero omitted, Abs format (unit mm)*
G04 Created by KiCad (PCBNEW (5.1.0)-1) date 2019-08-26 16:33:32*
%MOMM*%
%LPD*%
G04 APERTURE LIST*
%ADD10C,0.450000*%
%ADD11C,0.101600*%
G04 APERTURE END LIST*
D10*
X191447701Y-74668001D03*
X189745901Y-75049001D03*
X190660301Y-76014209D03*
X192616101Y-75557001D03*
X189237901Y-76471401D03*
X189187101Y-74795001D03*
X190711101Y-74693401D03*
X191269901Y-75506201D03*
X192616101Y-76522201D03*
X190152301Y-76446001D03*
X189745901Y-75861801D03*
X191216408Y-76448998D03*
D11*
G36*
X193378101Y-77335001D02*
G01*
X188450501Y-77335001D01*
X188450501Y-76429227D01*
X188809701Y-76429227D01*
X188809701Y-76513575D01*
X188826156Y-76596302D01*
X188858435Y-76674230D01*
X188905296Y-76744363D01*
X188964939Y-76804006D01*
X189035072Y-76850867D01*
X189113000Y-76883146D01*
X189195727Y-76899601D01*
X189280075Y-76899601D01*
X189362802Y-76883146D01*
X189440730Y-76850867D01*
X189510863Y-76804006D01*
X189570506Y-76744363D01*
X189617367Y-76674230D01*
X189649646Y-76596302D01*
X189666101Y-76513575D01*
X189666101Y-76429227D01*
X189649646Y-76346500D01*
X189619102Y-76272760D01*
X189621000Y-76273546D01*
X189703727Y-76290001D01*
X189753438Y-76290001D01*
X189740556Y-76321100D01*
X189724101Y-76403827D01*
X189724101Y-76488175D01*
X189740556Y-76570902D01*
X189772835Y-76648830D01*
X189819696Y-76718963D01*
X189879339Y-76778606D01*
X189949472Y-76825467D01*
X190027400Y-76857746D01*
X190110127Y-76874201D01*
X190194475Y-76874201D01*
X190277202Y-76857746D01*
X190355130Y-76825467D01*
X190425263Y-76778606D01*
X190484906Y-76718963D01*
X190531767Y-76648830D01*
X190564046Y-76570902D01*
X190580501Y-76488175D01*
X190580501Y-76406824D01*
X190788208Y-76406824D01*
X190788208Y-76491172D01*
X190804663Y-76573899D01*
X190836942Y-76651827D01*
X190883803Y-76721960D01*
X190943446Y-76781603D01*
X191013579Y-76828464D01*
X191091507Y-76860743D01*
X191174234Y-76877198D01*
X191258582Y-76877198D01*
X191341309Y-76860743D01*
X191419237Y-76828464D01*
X191489370Y-76781603D01*
X191549013Y-76721960D01*
X191595874Y-76651827D01*
X191628153Y-76573899D01*
X191644608Y-76491172D01*
X191644608Y-76480027D01*
X192187901Y-76480027D01*
X192187901Y-76564375D01*
X192204356Y-76647102D01*
X192236635Y-76725030D01*
X192283496Y-76795163D01*
X192343139Y-76854806D01*
X192413272Y-76901667D01*
X192491200Y-76933946D01*
X192573927Y-76950401D01*
X192658275Y-76950401D01*
X192741002Y-76933946D01*
X192818930Y-76901667D01*
X192889063Y-76854806D01*
X192948706Y-76795163D01*
X192995567Y-76725030D01*
X193027846Y-76647102D01*
X193044301Y-76564375D01*
X193044301Y-76480027D01*
X193027846Y-76397300D01*
X192995567Y-76319372D01*
X192948706Y-76249239D01*
X192889063Y-76189596D01*
X192818930Y-76142735D01*
X192741002Y-76110456D01*
X192658275Y-76094001D01*
X192573927Y-76094001D01*
X192491200Y-76110456D01*
X192413272Y-76142735D01*
X192343139Y-76189596D01*
X192283496Y-76249239D01*
X192236635Y-76319372D01*
X192204356Y-76397300D01*
X192187901Y-76480027D01*
X191644608Y-76480027D01*
X191644608Y-76406824D01*
X191628153Y-76324097D01*
X191595874Y-76246169D01*
X191549013Y-76176036D01*
X191489370Y-76116393D01*
X191419237Y-76069532D01*
X191341309Y-76037253D01*
X191258582Y-76020798D01*
X191174234Y-76020798D01*
X191091507Y-76037253D01*
X191013579Y-76069532D01*
X190943446Y-76116393D01*
X190883803Y-76176036D01*
X190836942Y-76246169D01*
X190804663Y-76324097D01*
X190788208Y-76406824D01*
X190580501Y-76406824D01*
X190580501Y-76403827D01*
X190564046Y-76321100D01*
X190531767Y-76243172D01*
X190484906Y-76173039D01*
X190425263Y-76113396D01*
X190355130Y-76066535D01*
X190277202Y-76034256D01*
X190194475Y-76017801D01*
X190144764Y-76017801D01*
X190157646Y-75986702D01*
X190174101Y-75903975D01*
X190174101Y-75819627D01*
X190157646Y-75736900D01*
X190125367Y-75658972D01*
X190078506Y-75588839D01*
X190018863Y-75529196D01*
X189948730Y-75482335D01*
X189904531Y-75464027D01*
X190841701Y-75464027D01*
X190841701Y-75548375D01*
X190858156Y-75631102D01*
X190890435Y-75709030D01*
X190937296Y-75779163D01*
X190996939Y-75838806D01*
X191067072Y-75885667D01*
X191145000Y-75917946D01*
X191227727Y-75934401D01*
X191312075Y-75934401D01*
X191394802Y-75917946D01*
X191472730Y-75885667D01*
X191542863Y-75838806D01*
X191602506Y-75779163D01*
X191649367Y-75709030D01*
X191681646Y-75631102D01*
X191698101Y-75548375D01*
X191698101Y-75514827D01*
X192187901Y-75514827D01*
X192187901Y-75599175D01*
X192204356Y-75681902D01*
X192236635Y-75759830D01*
X192283496Y-75829963D01*
X192343139Y-75889606D01*
X192413272Y-75936467D01*
X192491200Y-75968746D01*
X192573927Y-75985201D01*
X192658275Y-75985201D01*
X192741002Y-75968746D01*
X192818930Y-75936467D01*
X192889063Y-75889606D01*
X192948706Y-75829963D01*
X192995567Y-75759830D01*
X193027846Y-75681902D01*
X193044301Y-75599175D01*
X193044301Y-75514827D01*
X193027846Y-75432100D01*
X192995567Y-75354172D01*
X192948706Y-75284039D01*
X192889063Y-75224396D01*
X192818930Y-75177535D01*
X192741002Y-75145256D01*
X192658275Y-75128801D01*
X192573927Y-75128801D01*
X192491200Y-75145256D01*
X192413272Y-75177535D01*
X192343139Y-75224396D01*
X192283496Y-75284039D01*
X192236635Y-75354172D01*
X192204356Y-75432100D01*
X192187901Y-75514827D01*
X191698101Y-75514827D01*
X191698101Y-75464027D01*
X191681646Y-75381300D01*
X191649367Y-75303372D01*
X191602506Y-75233239D01*
X191542863Y-75173596D01*
X191472730Y-75126735D01*
X191394802Y-75094456D01*
X191312075Y-75078001D01*
X191227727Y-75078001D01*
X191145000Y-75094456D01*
X191067072Y-75126735D01*
X190996939Y-75173596D01*
X190937296Y-75233239D01*
X190890435Y-75303372D01*
X190858156Y-75381300D01*
X190841701Y-75464027D01*
X189904531Y-75464027D01*
X189870802Y-75450056D01*
X189788075Y-75433601D01*
X189703727Y-75433601D01*
X189621000Y-75450056D01*
X189543072Y-75482335D01*
X189472939Y-75529196D01*
X189413296Y-75588839D01*
X189366435Y-75658972D01*
X189334156Y-75736900D01*
X189317701Y-75819627D01*
X189317701Y-75903975D01*
X189334156Y-75986702D01*
X189364700Y-76060442D01*
X189362802Y-76059656D01*
X189280075Y-76043201D01*
X189195727Y-76043201D01*
X189113000Y-76059656D01*
X189035072Y-76091935D01*
X188964939Y-76138796D01*
X188905296Y-76198439D01*
X188858435Y-76268572D01*
X188826156Y-76346500D01*
X188809701Y-76429227D01*
X188450501Y-76429227D01*
X188450501Y-74752827D01*
X188758901Y-74752827D01*
X188758901Y-74837175D01*
X188775356Y-74919902D01*
X188807635Y-74997830D01*
X188854496Y-75067963D01*
X188914139Y-75127606D01*
X188984272Y-75174467D01*
X189062200Y-75206746D01*
X189144927Y-75223201D01*
X189229275Y-75223201D01*
X189312002Y-75206746D01*
X189389930Y-75174467D01*
X189460063Y-75127606D01*
X189519706Y-75067963D01*
X189566567Y-74997830D01*
X189598846Y-74919902D01*
X189615301Y-74837175D01*
X189615301Y-74752827D01*
X189598846Y-74670100D01*
X189591029Y-74651227D01*
X190282901Y-74651227D01*
X190282901Y-74735575D01*
X190299356Y-74818302D01*
X190331635Y-74896230D01*
X190378496Y-74966363D01*
X190438139Y-75026006D01*
X190508272Y-75072867D01*
X190586200Y-75105146D01*
X190668927Y-75121601D01*
X190753275Y-75121601D01*
X190836002Y-75105146D01*
X190913930Y-75072867D01*
X190984063Y-75026006D01*
X191043706Y-74966363D01*
X191090567Y-74896230D01*
X191122846Y-74818302D01*
X191139301Y-74735575D01*
X191139301Y-74651227D01*
X191122846Y-74568500D01*
X191090567Y-74490572D01*
X191043706Y-74420439D01*
X190984063Y-74360796D01*
X190913930Y-74313935D01*
X190836002Y-74281656D01*
X190753275Y-74265201D01*
X190668927Y-74265201D01*
X190586200Y-74281656D01*
X190508272Y-74313935D01*
X190438139Y-74360796D01*
X190378496Y-74420439D01*
X190331635Y-74490572D01*
X190299356Y-74568500D01*
X190282901Y-74651227D01*
X189591029Y-74651227D01*
X189566567Y-74592172D01*
X189519706Y-74522039D01*
X189460063Y-74462396D01*
X189389930Y-74415535D01*
X189312002Y-74383256D01*
X189229275Y-74366801D01*
X189144927Y-74366801D01*
X189062200Y-74383256D01*
X188984272Y-74415535D01*
X188914139Y-74462396D01*
X188854496Y-74522039D01*
X188807635Y-74592172D01*
X188775356Y-74670100D01*
X188758901Y-74752827D01*
X188450501Y-74752827D01*
X188450501Y-73829801D01*
X193378101Y-73829801D01*
X193378101Y-77335001D01*
X193378101Y-77335001D01*
G37*
X193378101Y-77335001D02*
X188450501Y-77335001D01*
X188450501Y-76429227D01*
X188809701Y-76429227D01*
X188809701Y-76513575D01*
X188826156Y-76596302D01*
X188858435Y-76674230D01*
X188905296Y-76744363D01*
X188964939Y-76804006D01*
X189035072Y-76850867D01*
X189113000Y-76883146D01*
X189195727Y-76899601D01*
X189280075Y-76899601D01*
X189362802Y-76883146D01*
X189440730Y-76850867D01*
X189510863Y-76804006D01*
X189570506Y-76744363D01*
X189617367Y-76674230D01*
X189649646Y-76596302D01*
X189666101Y-76513575D01*
X189666101Y-76429227D01*
X189649646Y-76346500D01*
X189619102Y-76272760D01*
X189621000Y-76273546D01*
X189703727Y-76290001D01*
X189753438Y-76290001D01*
X189740556Y-76321100D01*
X189724101Y-76403827D01*
X189724101Y-76488175D01*
X189740556Y-76570902D01*
X189772835Y-76648830D01*
X189819696Y-76718963D01*
X189879339Y-76778606D01*
X189949472Y-76825467D01*
X190027400Y-76857746D01*
X190110127Y-76874201D01*
X190194475Y-76874201D01*
X190277202Y-76857746D01*
X190355130Y-76825467D01*
X190425263Y-76778606D01*
X190484906Y-76718963D01*
X190531767Y-76648830D01*
X190564046Y-76570902D01*
X190580501Y-76488175D01*
X190580501Y-76406824D01*
X190788208Y-76406824D01*
X190788208Y-76491172D01*
X190804663Y-76573899D01*
X190836942Y-76651827D01*
X190883803Y-76721960D01*
X190943446Y-76781603D01*
X191013579Y-76828464D01*
X191091507Y-76860743D01*
X191174234Y-76877198D01*
X191258582Y-76877198D01*
X191341309Y-76860743D01*
X191419237Y-76828464D01*
X191489370Y-76781603D01*
X191549013Y-76721960D01*
X191595874Y-76651827D01*
X191628153Y-76573899D01*
X191644608Y-76491172D01*
X191644608Y-76480027D01*
X192187901Y-76480027D01*
X192187901Y-76564375D01*
X192204356Y-76647102D01*
X192236635Y-76725030D01*
X192283496Y-76795163D01*
X192343139Y-76854806D01*
X192413272Y-76901667D01*
X192491200Y-76933946D01*
X192573927Y-76950401D01*
X192658275Y-76950401D01*
X192741002Y-76933946D01*
X192818930Y-76901667D01*
X192889063Y-76854806D01*
X192948706Y-76795163D01*
X192995567Y-76725030D01*
X193027846Y-76647102D01*
X193044301Y-76564375D01*
X193044301Y-76480027D01*
X193027846Y-76397300D01*
X192995567Y-76319372D01*
X192948706Y-76249239D01*
X192889063Y-76189596D01*
X192818930Y-76142735D01*
X192741002Y-76110456D01*
X192658275Y-76094001D01*
X192573927Y-76094001D01*
X192491200Y-76110456D01*
X192413272Y-76142735D01*
X192343139Y-76189596D01*
X192283496Y-76249239D01*
X192236635Y-76319372D01*
X192204356Y-76397300D01*
X192187901Y-76480027D01*
X191644608Y-76480027D01*
X191644608Y-76406824D01*
X191628153Y-76324097D01*
X191595874Y-76246169D01*
X191549013Y-76176036D01*
X191489370Y-76116393D01*
X191419237Y-76069532D01*
X191341309Y-76037253D01*
X191258582Y-76020798D01*
X191174234Y-76020798D01*
X191091507Y-76037253D01*
X191013579Y-76069532D01*
X190943446Y-76116393D01*
X190883803Y-76176036D01*
X190836942Y-76246169D01*
X190804663Y-76324097D01*
X190788208Y-76406824D01*
X190580501Y-76406824D01*
X190580501Y-76403827D01*
X190564046Y-76321100D01*
X190531767Y-76243172D01*
X190484906Y-76173039D01*
X190425263Y-76113396D01*
X190355130Y-76066535D01*
X190277202Y-76034256D01*
X190194475Y-76017801D01*
X190144764Y-76017801D01*
X190157646Y-75986702D01*
X190174101Y-75903975D01*
X190174101Y-75819627D01*
X190157646Y-75736900D01*
X190125367Y-75658972D01*
X190078506Y-75588839D01*
X190018863Y-75529196D01*
X189948730Y-75482335D01*
X189904531Y-75464027D01*
X190841701Y-75464027D01*
X190841701Y-75548375D01*
X190858156Y-75631102D01*
X190890435Y-75709030D01*
X190937296Y-75779163D01*
X190996939Y-75838806D01*
X191067072Y-75885667D01*
X191145000Y-75917946D01*
X191227727Y-75934401D01*
X191312075Y-75934401D01*
X191394802Y-75917946D01*
X191472730Y-75885667D01*
X191542863Y-75838806D01*
X191602506Y-75779163D01*
X191649367Y-75709030D01*
X191681646Y-75631102D01*
X191698101Y-75548375D01*
X191698101Y-75514827D01*
X192187901Y-75514827D01*
X192187901Y-75599175D01*
X192204356Y-75681902D01*
X192236635Y-75759830D01*
X192283496Y-75829963D01*
X192343139Y-75889606D01*
X192413272Y-75936467D01*
X192491200Y-75968746D01*
X192573927Y-75985201D01*
X192658275Y-75985201D01*
X192741002Y-75968746D01*
X192818930Y-75936467D01*
X192889063Y-75889606D01*
X192948706Y-75829963D01*
X192995567Y-75759830D01*
X193027846Y-75681902D01*
X193044301Y-75599175D01*
X193044301Y-75514827D01*
X193027846Y-75432100D01*
X192995567Y-75354172D01*
X192948706Y-75284039D01*
X192889063Y-75224396D01*
X192818930Y-75177535D01*
X192741002Y-75145256D01*
X192658275Y-75128801D01*
X192573927Y-75128801D01*
X192491200Y-75145256D01*
X192413272Y-75177535D01*
X192343139Y-75224396D01*
X192283496Y-75284039D01*
X192236635Y-75354172D01*
X192204356Y-75432100D01*
X192187901Y-75514827D01*
X191698101Y-75514827D01*
X191698101Y-75464027D01*
X191681646Y-75381300D01*
X191649367Y-75303372D01*
X191602506Y-75233239D01*
X191542863Y-75173596D01*
X191472730Y-75126735D01*
X191394802Y-75094456D01*
X191312075Y-75078001D01*
X191227727Y-75078001D01*
X191145000Y-75094456D01*
X191067072Y-75126735D01*
X190996939Y-75173596D01*
X190937296Y-75233239D01*
X190890435Y-75303372D01*
X190858156Y-75381300D01*
X190841701Y-75464027D01*
X189904531Y-75464027D01*
X189870802Y-75450056D01*
X189788075Y-75433601D01*
X189703727Y-75433601D01*
X189621000Y-75450056D01*
X189543072Y-75482335D01*
X189472939Y-75529196D01*
X189413296Y-75588839D01*
X189366435Y-75658972D01*
X189334156Y-75736900D01*
X189317701Y-75819627D01*
X189317701Y-75903975D01*
X189334156Y-75986702D01*
X189364700Y-76060442D01*
X189362802Y-76059656D01*
X189280075Y-76043201D01*
X189195727Y-76043201D01*
X189113000Y-76059656D01*
X189035072Y-76091935D01*
X188964939Y-76138796D01*
X188905296Y-76198439D01*
X188858435Y-76268572D01*
X188826156Y-76346500D01*
X188809701Y-76429227D01*
X188450501Y-76429227D01*
X188450501Y-74752827D01*
X188758901Y-74752827D01*
X188758901Y-74837175D01*
X188775356Y-74919902D01*
X188807635Y-74997830D01*
X188854496Y-75067963D01*
X188914139Y-75127606D01*
X188984272Y-75174467D01*
X189062200Y-75206746D01*
X189144927Y-75223201D01*
X189229275Y-75223201D01*
X189312002Y-75206746D01*
X189389930Y-75174467D01*
X189460063Y-75127606D01*
X189519706Y-75067963D01*
X189566567Y-74997830D01*
X189598846Y-74919902D01*
X189615301Y-74837175D01*
X189615301Y-74752827D01*
X189598846Y-74670100D01*
X189591029Y-74651227D01*
X190282901Y-74651227D01*
X190282901Y-74735575D01*
X190299356Y-74818302D01*
X190331635Y-74896230D01*
X190378496Y-74966363D01*
X190438139Y-75026006D01*
X190508272Y-75072867D01*
X190586200Y-75105146D01*
X190668927Y-75121601D01*
X190753275Y-75121601D01*
X190836002Y-75105146D01*
X190913930Y-75072867D01*
X190984063Y-75026006D01*
X191043706Y-74966363D01*
X191090567Y-74896230D01*
X191122846Y-74818302D01*
X191139301Y-74735575D01*
X191139301Y-74651227D01*
X191122846Y-74568500D01*
X191090567Y-74490572D01*
X191043706Y-74420439D01*
X190984063Y-74360796D01*
X190913930Y-74313935D01*
X190836002Y-74281656D01*
X190753275Y-74265201D01*
X190668927Y-74265201D01*
X190586200Y-74281656D01*
X190508272Y-74313935D01*
X190438139Y-74360796D01*
X190378496Y-74420439D01*
X190331635Y-74490572D01*
X190299356Y-74568500D01*
X190282901Y-74651227D01*
X189591029Y-74651227D01*
X189566567Y-74592172D01*
X189519706Y-74522039D01*
X189460063Y-74462396D01*
X189389930Y-74415535D01*
X189312002Y-74383256D01*
X189229275Y-74366801D01*
X189144927Y-74366801D01*
X189062200Y-74383256D01*
X188984272Y-74415535D01*
X188914139Y-74462396D01*
X188854496Y-74522039D01*
X188807635Y-74592172D01*
X188775356Y-74670100D01*
X188758901Y-74752827D01*
X188450501Y-74752827D01*
X188450501Y-73829801D01*
X193378101Y-73829801D01*
X193378101Y-77335001D01*
M02*
