G04 #@! TF.GenerationSoftware,KiCad,Pcbnew,(5.1.0)-1*
G04 #@! TF.CreationDate,2019-08-26T16:33:32-07:00*
G04 #@! TF.ProjectId,BNO055_08092019,424e4f30-3535-45f3-9038-303932303139,rev?*
G04 #@! TF.SameCoordinates,Original*
G04 #@! TF.FileFunction,Copper,L2,Inr*
G04 #@! TF.FilePolarity,Positive*
%FSLAX46Y46*%
G04 Gerber Fmt 4.6, Leading zero omitted, Abs format (unit mm)*
G04 Created by KiCad (PCBNEW (5.1.0)-1) date 2019-08-26 16:33:32*
%MOMM*%
%LPD*%
G04 APERTURE LIST*
%ADD10C,0.450000*%
%ADD11C,0.101600*%
G04 APERTURE END LIST*
D10*
X191447701Y-74668001D03*
X189745901Y-75049001D03*
X190660301Y-76014209D03*
X192616101Y-75557001D03*
X189237901Y-76471401D03*
X189187101Y-74795001D03*
X190711101Y-74693401D03*
X191269901Y-75506201D03*
X192616101Y-76522201D03*
X190152301Y-76446001D03*
X189745901Y-75861801D03*
X191216408Y-76448998D03*
D11*
G36*
X193378101Y-77335001D02*
G01*
X188450501Y-77335001D01*
X188450501Y-75006827D01*
X189317701Y-75006827D01*
X189317701Y-75091175D01*
X189334156Y-75173902D01*
X189366435Y-75251830D01*
X189413296Y-75321963D01*
X189472939Y-75381606D01*
X189543072Y-75428467D01*
X189608096Y-75455401D01*
X189543072Y-75482335D01*
X189472939Y-75529196D01*
X189413296Y-75588839D01*
X189366435Y-75658972D01*
X189334156Y-75736900D01*
X189317701Y-75819627D01*
X189317701Y-75903975D01*
X189334156Y-75986702D01*
X189366435Y-76064630D01*
X189413296Y-76134763D01*
X189472939Y-76194406D01*
X189543072Y-76241267D01*
X189621000Y-76273546D01*
X189703727Y-76290001D01*
X189753438Y-76290001D01*
X189740556Y-76321100D01*
X189724101Y-76403827D01*
X189724101Y-76488175D01*
X189740556Y-76570902D01*
X189772835Y-76648830D01*
X189819696Y-76718963D01*
X189879339Y-76778606D01*
X189949472Y-76825467D01*
X190027400Y-76857746D01*
X190110127Y-76874201D01*
X190194475Y-76874201D01*
X190277202Y-76857746D01*
X190355130Y-76825467D01*
X190425263Y-76778606D01*
X190484906Y-76718963D01*
X190531767Y-76648830D01*
X190564046Y-76570902D01*
X190580501Y-76488175D01*
X190580501Y-76434925D01*
X190618127Y-76442409D01*
X190702475Y-76442409D01*
X190785202Y-76425954D01*
X190788208Y-76424709D01*
X190788208Y-76491172D01*
X190804663Y-76573899D01*
X190836942Y-76651827D01*
X190883803Y-76721960D01*
X190943446Y-76781603D01*
X191013579Y-76828464D01*
X191091507Y-76860743D01*
X191174234Y-76877198D01*
X191258582Y-76877198D01*
X191341309Y-76860743D01*
X191419237Y-76828464D01*
X191489370Y-76781603D01*
X191549013Y-76721960D01*
X191595874Y-76651827D01*
X191628153Y-76573899D01*
X191644608Y-76491172D01*
X191644608Y-76480027D01*
X192187901Y-76480027D01*
X192187901Y-76564375D01*
X192204356Y-76647102D01*
X192236635Y-76725030D01*
X192283496Y-76795163D01*
X192343139Y-76854806D01*
X192413272Y-76901667D01*
X192491200Y-76933946D01*
X192573927Y-76950401D01*
X192658275Y-76950401D01*
X192741002Y-76933946D01*
X192818930Y-76901667D01*
X192889063Y-76854806D01*
X192948706Y-76795163D01*
X192995567Y-76725030D01*
X193027846Y-76647102D01*
X193044301Y-76564375D01*
X193044301Y-76480027D01*
X193027846Y-76397300D01*
X192995567Y-76319372D01*
X192948706Y-76249239D01*
X192889063Y-76189596D01*
X192818930Y-76142735D01*
X192741002Y-76110456D01*
X192658275Y-76094001D01*
X192573927Y-76094001D01*
X192491200Y-76110456D01*
X192413272Y-76142735D01*
X192343139Y-76189596D01*
X192283496Y-76249239D01*
X192236635Y-76319372D01*
X192204356Y-76397300D01*
X192187901Y-76480027D01*
X191644608Y-76480027D01*
X191644608Y-76406824D01*
X191628153Y-76324097D01*
X191595874Y-76246169D01*
X191549013Y-76176036D01*
X191489370Y-76116393D01*
X191419237Y-76069532D01*
X191341309Y-76037253D01*
X191258582Y-76020798D01*
X191174234Y-76020798D01*
X191091507Y-76037253D01*
X191088501Y-76038498D01*
X191088501Y-75972035D01*
X191072046Y-75889308D01*
X191071256Y-75887400D01*
X191145000Y-75917946D01*
X191227727Y-75934401D01*
X191312075Y-75934401D01*
X191394802Y-75917946D01*
X191472730Y-75885667D01*
X191542863Y-75838806D01*
X191602506Y-75779163D01*
X191649367Y-75709030D01*
X191681646Y-75631102D01*
X191698101Y-75548375D01*
X191698101Y-75464027D01*
X191681646Y-75381300D01*
X191649367Y-75303372D01*
X191602506Y-75233239D01*
X191542863Y-75173596D01*
X191472730Y-75126735D01*
X191394802Y-75094456D01*
X191312075Y-75078001D01*
X191227727Y-75078001D01*
X191145000Y-75094456D01*
X191067072Y-75126735D01*
X190996939Y-75173596D01*
X190937296Y-75233239D01*
X190890435Y-75303372D01*
X190858156Y-75381300D01*
X190841701Y-75464027D01*
X190841701Y-75548375D01*
X190858156Y-75631102D01*
X190858946Y-75633010D01*
X190785202Y-75602464D01*
X190702475Y-75586009D01*
X190618127Y-75586009D01*
X190535400Y-75602464D01*
X190457472Y-75634743D01*
X190387339Y-75681604D01*
X190327696Y-75741247D01*
X190280835Y-75811380D01*
X190248556Y-75889308D01*
X190232101Y-75972035D01*
X190232101Y-76025285D01*
X190194475Y-76017801D01*
X190144764Y-76017801D01*
X190157646Y-75986702D01*
X190174101Y-75903975D01*
X190174101Y-75819627D01*
X190157646Y-75736900D01*
X190125367Y-75658972D01*
X190078506Y-75588839D01*
X190018863Y-75529196D01*
X189948730Y-75482335D01*
X189883706Y-75455401D01*
X189948730Y-75428467D01*
X190018863Y-75381606D01*
X190078506Y-75321963D01*
X190125367Y-75251830D01*
X190157646Y-75173902D01*
X190174101Y-75091175D01*
X190174101Y-75006827D01*
X190157646Y-74924100D01*
X190125367Y-74846172D01*
X190078506Y-74776039D01*
X190018863Y-74716396D01*
X189948730Y-74669535D01*
X189870802Y-74637256D01*
X189813344Y-74625827D01*
X191019501Y-74625827D01*
X191019501Y-74710175D01*
X191035956Y-74792902D01*
X191068235Y-74870830D01*
X191115096Y-74940963D01*
X191174739Y-75000606D01*
X191244872Y-75047467D01*
X191322800Y-75079746D01*
X191405527Y-75096201D01*
X191489875Y-75096201D01*
X191572602Y-75079746D01*
X191650530Y-75047467D01*
X191720663Y-75000606D01*
X191780306Y-74940963D01*
X191827167Y-74870830D01*
X191859446Y-74792902D01*
X191875901Y-74710175D01*
X191875901Y-74625827D01*
X191859446Y-74543100D01*
X191827167Y-74465172D01*
X191780306Y-74395039D01*
X191720663Y-74335396D01*
X191650530Y-74288535D01*
X191572602Y-74256256D01*
X191489875Y-74239801D01*
X191405527Y-74239801D01*
X191322800Y-74256256D01*
X191244872Y-74288535D01*
X191174739Y-74335396D01*
X191115096Y-74395039D01*
X191068235Y-74465172D01*
X191035956Y-74543100D01*
X191019501Y-74625827D01*
X189813344Y-74625827D01*
X189788075Y-74620801D01*
X189703727Y-74620801D01*
X189621000Y-74637256D01*
X189543072Y-74669535D01*
X189472939Y-74716396D01*
X189413296Y-74776039D01*
X189366435Y-74846172D01*
X189334156Y-74924100D01*
X189317701Y-75006827D01*
X188450501Y-75006827D01*
X188450501Y-73829801D01*
X193378101Y-73829801D01*
X193378101Y-77335001D01*
X193378101Y-77335001D01*
G37*
X193378101Y-77335001D02*
X188450501Y-77335001D01*
X188450501Y-75006827D01*
X189317701Y-75006827D01*
X189317701Y-75091175D01*
X189334156Y-75173902D01*
X189366435Y-75251830D01*
X189413296Y-75321963D01*
X189472939Y-75381606D01*
X189543072Y-75428467D01*
X189608096Y-75455401D01*
X189543072Y-75482335D01*
X189472939Y-75529196D01*
X189413296Y-75588839D01*
X189366435Y-75658972D01*
X189334156Y-75736900D01*
X189317701Y-75819627D01*
X189317701Y-75903975D01*
X189334156Y-75986702D01*
X189366435Y-76064630D01*
X189413296Y-76134763D01*
X189472939Y-76194406D01*
X189543072Y-76241267D01*
X189621000Y-76273546D01*
X189703727Y-76290001D01*
X189753438Y-76290001D01*
X189740556Y-76321100D01*
X189724101Y-76403827D01*
X189724101Y-76488175D01*
X189740556Y-76570902D01*
X189772835Y-76648830D01*
X189819696Y-76718963D01*
X189879339Y-76778606D01*
X189949472Y-76825467D01*
X190027400Y-76857746D01*
X190110127Y-76874201D01*
X190194475Y-76874201D01*
X190277202Y-76857746D01*
X190355130Y-76825467D01*
X190425263Y-76778606D01*
X190484906Y-76718963D01*
X190531767Y-76648830D01*
X190564046Y-76570902D01*
X190580501Y-76488175D01*
X190580501Y-76434925D01*
X190618127Y-76442409D01*
X190702475Y-76442409D01*
X190785202Y-76425954D01*
X190788208Y-76424709D01*
X190788208Y-76491172D01*
X190804663Y-76573899D01*
X190836942Y-76651827D01*
X190883803Y-76721960D01*
X190943446Y-76781603D01*
X191013579Y-76828464D01*
X191091507Y-76860743D01*
X191174234Y-76877198D01*
X191258582Y-76877198D01*
X191341309Y-76860743D01*
X191419237Y-76828464D01*
X191489370Y-76781603D01*
X191549013Y-76721960D01*
X191595874Y-76651827D01*
X191628153Y-76573899D01*
X191644608Y-76491172D01*
X191644608Y-76480027D01*
X192187901Y-76480027D01*
X192187901Y-76564375D01*
X192204356Y-76647102D01*
X192236635Y-76725030D01*
X192283496Y-76795163D01*
X192343139Y-76854806D01*
X192413272Y-76901667D01*
X192491200Y-76933946D01*
X192573927Y-76950401D01*
X192658275Y-76950401D01*
X192741002Y-76933946D01*
X192818930Y-76901667D01*
X192889063Y-76854806D01*
X192948706Y-76795163D01*
X192995567Y-76725030D01*
X193027846Y-76647102D01*
X193044301Y-76564375D01*
X193044301Y-76480027D01*
X193027846Y-76397300D01*
X192995567Y-76319372D01*
X192948706Y-76249239D01*
X192889063Y-76189596D01*
X192818930Y-76142735D01*
X192741002Y-76110456D01*
X192658275Y-76094001D01*
X192573927Y-76094001D01*
X192491200Y-76110456D01*
X192413272Y-76142735D01*
X192343139Y-76189596D01*
X192283496Y-76249239D01*
X192236635Y-76319372D01*
X192204356Y-76397300D01*
X192187901Y-76480027D01*
X191644608Y-76480027D01*
X191644608Y-76406824D01*
X191628153Y-76324097D01*
X191595874Y-76246169D01*
X191549013Y-76176036D01*
X191489370Y-76116393D01*
X191419237Y-76069532D01*
X191341309Y-76037253D01*
X191258582Y-76020798D01*
X191174234Y-76020798D01*
X191091507Y-76037253D01*
X191088501Y-76038498D01*
X191088501Y-75972035D01*
X191072046Y-75889308D01*
X191071256Y-75887400D01*
X191145000Y-75917946D01*
X191227727Y-75934401D01*
X191312075Y-75934401D01*
X191394802Y-75917946D01*
X191472730Y-75885667D01*
X191542863Y-75838806D01*
X191602506Y-75779163D01*
X191649367Y-75709030D01*
X191681646Y-75631102D01*
X191698101Y-75548375D01*
X191698101Y-75464027D01*
X191681646Y-75381300D01*
X191649367Y-75303372D01*
X191602506Y-75233239D01*
X191542863Y-75173596D01*
X191472730Y-75126735D01*
X191394802Y-75094456D01*
X191312075Y-75078001D01*
X191227727Y-75078001D01*
X191145000Y-75094456D01*
X191067072Y-75126735D01*
X190996939Y-75173596D01*
X190937296Y-75233239D01*
X190890435Y-75303372D01*
X190858156Y-75381300D01*
X190841701Y-75464027D01*
X190841701Y-75548375D01*
X190858156Y-75631102D01*
X190858946Y-75633010D01*
X190785202Y-75602464D01*
X190702475Y-75586009D01*
X190618127Y-75586009D01*
X190535400Y-75602464D01*
X190457472Y-75634743D01*
X190387339Y-75681604D01*
X190327696Y-75741247D01*
X190280835Y-75811380D01*
X190248556Y-75889308D01*
X190232101Y-75972035D01*
X190232101Y-76025285D01*
X190194475Y-76017801D01*
X190144764Y-76017801D01*
X190157646Y-75986702D01*
X190174101Y-75903975D01*
X190174101Y-75819627D01*
X190157646Y-75736900D01*
X190125367Y-75658972D01*
X190078506Y-75588839D01*
X190018863Y-75529196D01*
X189948730Y-75482335D01*
X189883706Y-75455401D01*
X189948730Y-75428467D01*
X190018863Y-75381606D01*
X190078506Y-75321963D01*
X190125367Y-75251830D01*
X190157646Y-75173902D01*
X190174101Y-75091175D01*
X190174101Y-75006827D01*
X190157646Y-74924100D01*
X190125367Y-74846172D01*
X190078506Y-74776039D01*
X190018863Y-74716396D01*
X189948730Y-74669535D01*
X189870802Y-74637256D01*
X189813344Y-74625827D01*
X191019501Y-74625827D01*
X191019501Y-74710175D01*
X191035956Y-74792902D01*
X191068235Y-74870830D01*
X191115096Y-74940963D01*
X191174739Y-75000606D01*
X191244872Y-75047467D01*
X191322800Y-75079746D01*
X191405527Y-75096201D01*
X191489875Y-75096201D01*
X191572602Y-75079746D01*
X191650530Y-75047467D01*
X191720663Y-75000606D01*
X191780306Y-74940963D01*
X191827167Y-74870830D01*
X191859446Y-74792902D01*
X191875901Y-74710175D01*
X191875901Y-74625827D01*
X191859446Y-74543100D01*
X191827167Y-74465172D01*
X191780306Y-74395039D01*
X191720663Y-74335396D01*
X191650530Y-74288535D01*
X191572602Y-74256256D01*
X191489875Y-74239801D01*
X191405527Y-74239801D01*
X191322800Y-74256256D01*
X191244872Y-74288535D01*
X191174739Y-74335396D01*
X191115096Y-74395039D01*
X191068235Y-74465172D01*
X191035956Y-74543100D01*
X191019501Y-74625827D01*
X189813344Y-74625827D01*
X189788075Y-74620801D01*
X189703727Y-74620801D01*
X189621000Y-74637256D01*
X189543072Y-74669535D01*
X189472939Y-74716396D01*
X189413296Y-74776039D01*
X189366435Y-74846172D01*
X189334156Y-74924100D01*
X189317701Y-75006827D01*
X188450501Y-75006827D01*
X188450501Y-73829801D01*
X193378101Y-73829801D01*
X193378101Y-77335001D01*
M02*
