G04 #@! TF.GenerationSoftware,KiCad,Pcbnew,(5.1.0)-1*
G04 #@! TF.CreationDate,2019-05-03T21:31:27-07:00*
G04 #@! TF.ProjectId,Miniscope-v4-PCB-fab-assembly_2,4d696e69-7363-46f7-9065-2d76342d5043,rev?*
G04 #@! TF.SameCoordinates,PX4b8e5e4PY51f011c*
G04 #@! TF.FileFunction,Copper,L6,Bot*
G04 #@! TF.FilePolarity,Positive*
%FSLAX46Y46*%
G04 Gerber Fmt 4.6, Leading zero omitted, Abs format (unit mm)*
G04 Created by KiCad (PCBNEW (5.1.0)-1) date 2019-05-03 21:31:27*
%MOMM*%
%LPD*%
G04 APERTURE LIST*
%ADD10C,0.250000*%
%ADD11R,0.340000X0.310000*%
%ADD12R,0.630000X0.580000*%
%ADD13R,0.870000X0.810000*%
%ADD14R,1.060000X0.540000*%
%ADD15R,1.500000X0.450000*%
%ADD16R,0.920000X0.890000*%
%ADD17R,0.680000X0.260000*%
%ADD18R,0.260000X0.680000*%
%ADD19R,3.100000X3.100000*%
%ADD20R,0.580000X0.630000*%
%ADD21R,0.310000X0.340000*%
%ADD22R,2.620000X0.870000*%
%ADD23C,0.100000*%
%ADD24C,0.590000*%
%ADD25R,0.270000X0.820000*%
%ADD26R,0.270000X0.740000*%
%ADD27C,0.355600*%
%ADD28C,0.450000*%
%ADD29C,0.076200*%
%ADD30C,0.152400*%
%ADD31C,0.152000*%
%ADD32C,0.114300*%
%ADD33C,0.203200*%
%ADD34C,0.177800*%
%ADD35C,0.228600*%
%ADD36C,0.304800*%
%ADD37C,0.127000*%
G04 APERTURE END LIST*
D10*
X6750000Y-25088400D03*
X7250000Y-25088400D03*
X7750000Y-25088400D03*
X8250000Y-25088400D03*
X8750000Y-25088400D03*
X9250000Y-25088400D03*
X9750000Y-25088400D03*
X10250000Y-25088400D03*
X10750000Y-25088400D03*
X11250000Y-25088400D03*
X11750000Y-25088400D03*
X6750000Y-24588400D03*
X7250000Y-24588400D03*
X7750000Y-24588400D03*
X8250000Y-24588400D03*
X8750000Y-24588400D03*
X9250000Y-24588400D03*
X9750000Y-24588400D03*
X10250000Y-24588400D03*
X10750000Y-24588400D03*
X11250000Y-24588400D03*
X11750000Y-24588400D03*
X6750000Y-24088400D03*
X7250000Y-24088400D03*
X7750000Y-24088400D03*
X8250000Y-24088400D03*
X8750000Y-24088400D03*
X9250000Y-24088400D03*
X9750000Y-24088400D03*
X10250000Y-24088400D03*
X10750000Y-24088400D03*
X11250000Y-24088400D03*
X11750000Y-24088400D03*
X6750000Y-23588400D03*
X7250000Y-23588400D03*
X11250000Y-23588400D03*
X11750000Y-23588400D03*
X6750000Y-23088400D03*
X7250000Y-23088400D03*
X11250000Y-23088400D03*
X11750000Y-23088400D03*
X6750000Y-22588400D03*
X7250000Y-22588400D03*
X11250000Y-22588400D03*
X11750000Y-22588400D03*
X6750000Y-22088400D03*
X7250000Y-22088400D03*
X7750000Y-22088400D03*
X8250000Y-22088400D03*
X8750000Y-22088400D03*
X9250000Y-22088400D03*
X9750000Y-22088400D03*
X10250000Y-22088400D03*
X10750000Y-22088400D03*
X11250000Y-22088400D03*
X11750000Y-22088400D03*
X6750000Y-21588400D03*
X7250000Y-21588400D03*
X7750000Y-21588400D03*
X8250000Y-21588400D03*
X8750000Y-21588400D03*
X9250000Y-21588400D03*
X9750000Y-21588400D03*
X10250000Y-21588400D03*
X10750000Y-21588400D03*
X11250000Y-21588400D03*
X11750000Y-21588400D03*
D11*
X4508000Y-21374200D03*
X4508000Y-20824200D03*
X4533400Y-19655800D03*
X4533400Y-20205800D03*
D12*
X4660400Y-25480200D03*
X4660400Y-26370200D03*
X4660400Y-22915800D03*
X4660400Y-22025800D03*
X4660400Y-24643000D03*
X4660400Y-23753000D03*
D13*
X29900220Y-7789941D03*
X29900220Y-6429939D03*
D14*
X30422220Y-5128740D03*
X28362220Y-5128740D03*
D15*
X23811420Y-6915740D03*
X23811420Y-6215740D03*
D16*
X28655620Y-7774940D03*
X28655620Y-6444940D03*
D12*
X21709580Y-21080860D03*
X21709580Y-20190860D03*
X21721380Y-23726060D03*
X21721380Y-24616060D03*
D17*
X23475780Y-24557060D03*
X23475780Y-24057060D03*
X23475780Y-23557060D03*
X23475780Y-23057060D03*
X23475780Y-22557060D03*
X23475780Y-22057060D03*
X23475780Y-21557060D03*
X23475780Y-21057060D03*
D18*
X24060780Y-20472060D03*
X24560780Y-20472060D03*
X25060780Y-20472060D03*
X25560780Y-20472060D03*
X26060780Y-20472060D03*
X26560780Y-20472060D03*
X27060780Y-20472060D03*
X27560780Y-20472060D03*
D17*
X28145780Y-21057060D03*
X28145780Y-21557060D03*
X28145780Y-22057060D03*
X28145780Y-22557060D03*
X28145780Y-23057060D03*
X28145780Y-23557060D03*
X28145780Y-24057060D03*
X28145780Y-24557060D03*
D18*
X27560780Y-25142060D03*
X27060780Y-25142060D03*
X26560780Y-25142060D03*
X26060780Y-25142060D03*
X25560780Y-25142060D03*
X25060780Y-25142060D03*
X24560780Y-25142060D03*
X24060780Y-25142060D03*
D19*
X25810780Y-22807060D03*
D12*
X13022820Y-33534340D03*
X13022820Y-34424340D03*
D20*
X10985740Y-39026320D03*
X10095740Y-39026320D03*
D11*
X5885420Y-39562940D03*
X5885420Y-39012940D03*
D21*
X5043320Y-36262800D03*
X5593320Y-36262800D03*
X5588920Y-36946060D03*
X5038920Y-36946060D03*
X13955000Y-32633140D03*
X14505000Y-32633140D03*
D12*
X12057620Y-34424340D03*
X12057620Y-33534340D03*
D11*
X15689820Y-33113200D03*
X15689820Y-33663200D03*
X15689820Y-34787740D03*
X15689820Y-34237740D03*
X8994380Y-37697220D03*
X8994380Y-38247220D03*
X6512800Y-39562940D03*
X6512800Y-39012940D03*
D12*
X8240000Y-38099220D03*
X8240000Y-37209220D03*
D11*
X8382240Y-35813900D03*
X8382240Y-35263900D03*
X8984220Y-35256960D03*
X8984220Y-35806960D03*
D21*
X9880160Y-35635420D03*
X10430160Y-35635420D03*
X10430160Y-35015660D03*
X9880160Y-35015660D03*
D20*
X7346420Y-38297340D03*
X6456420Y-38297340D03*
D21*
X6905820Y-36900340D03*
X7455820Y-36900340D03*
X7455820Y-37509940D03*
X6905820Y-37509940D03*
X11113420Y-37713140D03*
X10563420Y-37713140D03*
X10563420Y-38322740D03*
X11113420Y-38322740D03*
D11*
X7917420Y-34136140D03*
X7917420Y-34686140D03*
X8519400Y-34683600D03*
X8519400Y-34133600D03*
D22*
X14877020Y-38807340D03*
X14877020Y-35757340D03*
D23*
G36*
X14289958Y-39552850D02*
G01*
X14304276Y-39554974D01*
X14318317Y-39558491D01*
X14331946Y-39563368D01*
X14345031Y-39569557D01*
X14357447Y-39576998D01*
X14369073Y-39585621D01*
X14379798Y-39595342D01*
X14389519Y-39606067D01*
X14398142Y-39617693D01*
X14405583Y-39630109D01*
X14411772Y-39643194D01*
X14416649Y-39656823D01*
X14420166Y-39670864D01*
X14422290Y-39685182D01*
X14423000Y-39699640D01*
X14423000Y-40044640D01*
X14422290Y-40059098D01*
X14420166Y-40073416D01*
X14416649Y-40087457D01*
X14411772Y-40101086D01*
X14405583Y-40114171D01*
X14398142Y-40126587D01*
X14389519Y-40138213D01*
X14379798Y-40148938D01*
X14369073Y-40158659D01*
X14357447Y-40167282D01*
X14345031Y-40174723D01*
X14331946Y-40180912D01*
X14318317Y-40185789D01*
X14304276Y-40189306D01*
X14289958Y-40191430D01*
X14275500Y-40192140D01*
X13980500Y-40192140D01*
X13966042Y-40191430D01*
X13951724Y-40189306D01*
X13937683Y-40185789D01*
X13924054Y-40180912D01*
X13910969Y-40174723D01*
X13898553Y-40167282D01*
X13886927Y-40158659D01*
X13876202Y-40148938D01*
X13866481Y-40138213D01*
X13857858Y-40126587D01*
X13850417Y-40114171D01*
X13844228Y-40101086D01*
X13839351Y-40087457D01*
X13835834Y-40073416D01*
X13833710Y-40059098D01*
X13833000Y-40044640D01*
X13833000Y-39699640D01*
X13833710Y-39685182D01*
X13835834Y-39670864D01*
X13839351Y-39656823D01*
X13844228Y-39643194D01*
X13850417Y-39630109D01*
X13857858Y-39617693D01*
X13866481Y-39606067D01*
X13876202Y-39595342D01*
X13886927Y-39585621D01*
X13898553Y-39576998D01*
X13910969Y-39569557D01*
X13924054Y-39563368D01*
X13937683Y-39558491D01*
X13951724Y-39554974D01*
X13966042Y-39552850D01*
X13980500Y-39552140D01*
X14275500Y-39552140D01*
X14289958Y-39552850D01*
X14289958Y-39552850D01*
G37*
D24*
X14128000Y-39872140D03*
D23*
G36*
X15259958Y-39552850D02*
G01*
X15274276Y-39554974D01*
X15288317Y-39558491D01*
X15301946Y-39563368D01*
X15315031Y-39569557D01*
X15327447Y-39576998D01*
X15339073Y-39585621D01*
X15349798Y-39595342D01*
X15359519Y-39606067D01*
X15368142Y-39617693D01*
X15375583Y-39630109D01*
X15381772Y-39643194D01*
X15386649Y-39656823D01*
X15390166Y-39670864D01*
X15392290Y-39685182D01*
X15393000Y-39699640D01*
X15393000Y-40044640D01*
X15392290Y-40059098D01*
X15390166Y-40073416D01*
X15386649Y-40087457D01*
X15381772Y-40101086D01*
X15375583Y-40114171D01*
X15368142Y-40126587D01*
X15359519Y-40138213D01*
X15349798Y-40148938D01*
X15339073Y-40158659D01*
X15327447Y-40167282D01*
X15315031Y-40174723D01*
X15301946Y-40180912D01*
X15288317Y-40185789D01*
X15274276Y-40189306D01*
X15259958Y-40191430D01*
X15245500Y-40192140D01*
X14950500Y-40192140D01*
X14936042Y-40191430D01*
X14921724Y-40189306D01*
X14907683Y-40185789D01*
X14894054Y-40180912D01*
X14880969Y-40174723D01*
X14868553Y-40167282D01*
X14856927Y-40158659D01*
X14846202Y-40148938D01*
X14836481Y-40138213D01*
X14827858Y-40126587D01*
X14820417Y-40114171D01*
X14814228Y-40101086D01*
X14809351Y-40087457D01*
X14805834Y-40073416D01*
X14803710Y-40059098D01*
X14803000Y-40044640D01*
X14803000Y-39699640D01*
X14803710Y-39685182D01*
X14805834Y-39670864D01*
X14809351Y-39656823D01*
X14814228Y-39643194D01*
X14820417Y-39630109D01*
X14827858Y-39617693D01*
X14836481Y-39606067D01*
X14846202Y-39595342D01*
X14856927Y-39585621D01*
X14868553Y-39576998D01*
X14880969Y-39569557D01*
X14894054Y-39563368D01*
X14907683Y-39558491D01*
X14921724Y-39554974D01*
X14936042Y-39552850D01*
X14950500Y-39552140D01*
X15245500Y-39552140D01*
X15259958Y-39552850D01*
X15259958Y-39552850D01*
G37*
D24*
X15098000Y-39872140D03*
D23*
G36*
X7342378Y-34851050D02*
G01*
X7356696Y-34853174D01*
X7370737Y-34856691D01*
X7384366Y-34861568D01*
X7397451Y-34867757D01*
X7409867Y-34875198D01*
X7421493Y-34883821D01*
X7432218Y-34893542D01*
X7441939Y-34904267D01*
X7450562Y-34915893D01*
X7458003Y-34928309D01*
X7464192Y-34941394D01*
X7469069Y-34955023D01*
X7472586Y-34969064D01*
X7474710Y-34983382D01*
X7475420Y-34997840D01*
X7475420Y-35292840D01*
X7474710Y-35307298D01*
X7472586Y-35321616D01*
X7469069Y-35335657D01*
X7464192Y-35349286D01*
X7458003Y-35362371D01*
X7450562Y-35374787D01*
X7441939Y-35386413D01*
X7432218Y-35397138D01*
X7421493Y-35406859D01*
X7409867Y-35415482D01*
X7397451Y-35422923D01*
X7384366Y-35429112D01*
X7370737Y-35433989D01*
X7356696Y-35437506D01*
X7342378Y-35439630D01*
X7327920Y-35440340D01*
X6982920Y-35440340D01*
X6968462Y-35439630D01*
X6954144Y-35437506D01*
X6940103Y-35433989D01*
X6926474Y-35429112D01*
X6913389Y-35422923D01*
X6900973Y-35415482D01*
X6889347Y-35406859D01*
X6878622Y-35397138D01*
X6868901Y-35386413D01*
X6860278Y-35374787D01*
X6852837Y-35362371D01*
X6846648Y-35349286D01*
X6841771Y-35335657D01*
X6838254Y-35321616D01*
X6836130Y-35307298D01*
X6835420Y-35292840D01*
X6835420Y-34997840D01*
X6836130Y-34983382D01*
X6838254Y-34969064D01*
X6841771Y-34955023D01*
X6846648Y-34941394D01*
X6852837Y-34928309D01*
X6860278Y-34915893D01*
X6868901Y-34904267D01*
X6878622Y-34893542D01*
X6889347Y-34883821D01*
X6900973Y-34875198D01*
X6913389Y-34867757D01*
X6926474Y-34861568D01*
X6940103Y-34856691D01*
X6954144Y-34853174D01*
X6968462Y-34851050D01*
X6982920Y-34850340D01*
X7327920Y-34850340D01*
X7342378Y-34851050D01*
X7342378Y-34851050D01*
G37*
D24*
X7155420Y-35145340D03*
D23*
G36*
X7342378Y-35821050D02*
G01*
X7356696Y-35823174D01*
X7370737Y-35826691D01*
X7384366Y-35831568D01*
X7397451Y-35837757D01*
X7409867Y-35845198D01*
X7421493Y-35853821D01*
X7432218Y-35863542D01*
X7441939Y-35874267D01*
X7450562Y-35885893D01*
X7458003Y-35898309D01*
X7464192Y-35911394D01*
X7469069Y-35925023D01*
X7472586Y-35939064D01*
X7474710Y-35953382D01*
X7475420Y-35967840D01*
X7475420Y-36262840D01*
X7474710Y-36277298D01*
X7472586Y-36291616D01*
X7469069Y-36305657D01*
X7464192Y-36319286D01*
X7458003Y-36332371D01*
X7450562Y-36344787D01*
X7441939Y-36356413D01*
X7432218Y-36367138D01*
X7421493Y-36376859D01*
X7409867Y-36385482D01*
X7397451Y-36392923D01*
X7384366Y-36399112D01*
X7370737Y-36403989D01*
X7356696Y-36407506D01*
X7342378Y-36409630D01*
X7327920Y-36410340D01*
X6982920Y-36410340D01*
X6968462Y-36409630D01*
X6954144Y-36407506D01*
X6940103Y-36403989D01*
X6926474Y-36399112D01*
X6913389Y-36392923D01*
X6900973Y-36385482D01*
X6889347Y-36376859D01*
X6878622Y-36367138D01*
X6868901Y-36356413D01*
X6860278Y-36344787D01*
X6852837Y-36332371D01*
X6846648Y-36319286D01*
X6841771Y-36305657D01*
X6838254Y-36291616D01*
X6836130Y-36277298D01*
X6835420Y-36262840D01*
X6835420Y-35967840D01*
X6836130Y-35953382D01*
X6838254Y-35939064D01*
X6841771Y-35925023D01*
X6846648Y-35911394D01*
X6852837Y-35898309D01*
X6860278Y-35885893D01*
X6868901Y-35874267D01*
X6878622Y-35863542D01*
X6889347Y-35853821D01*
X6900973Y-35845198D01*
X6913389Y-35837757D01*
X6926474Y-35831568D01*
X6940103Y-35826691D01*
X6954144Y-35823174D01*
X6968462Y-35821050D01*
X6982920Y-35820340D01*
X7327920Y-35820340D01*
X7342378Y-35821050D01*
X7342378Y-35821050D01*
G37*
D24*
X7155420Y-36115340D03*
D23*
G36*
X9958578Y-37233290D02*
G01*
X9972896Y-37235414D01*
X9986937Y-37238931D01*
X10000566Y-37243808D01*
X10013651Y-37249997D01*
X10026067Y-37257438D01*
X10037693Y-37266061D01*
X10048418Y-37275782D01*
X10058139Y-37286507D01*
X10066762Y-37298133D01*
X10074203Y-37310549D01*
X10080392Y-37323634D01*
X10085269Y-37337263D01*
X10088786Y-37351304D01*
X10090910Y-37365622D01*
X10091620Y-37380080D01*
X10091620Y-37675080D01*
X10090910Y-37689538D01*
X10088786Y-37703856D01*
X10085269Y-37717897D01*
X10080392Y-37731526D01*
X10074203Y-37744611D01*
X10066762Y-37757027D01*
X10058139Y-37768653D01*
X10048418Y-37779378D01*
X10037693Y-37789099D01*
X10026067Y-37797722D01*
X10013651Y-37805163D01*
X10000566Y-37811352D01*
X9986937Y-37816229D01*
X9972896Y-37819746D01*
X9958578Y-37821870D01*
X9944120Y-37822580D01*
X9599120Y-37822580D01*
X9584662Y-37821870D01*
X9570344Y-37819746D01*
X9556303Y-37816229D01*
X9542674Y-37811352D01*
X9529589Y-37805163D01*
X9517173Y-37797722D01*
X9505547Y-37789099D01*
X9494822Y-37779378D01*
X9485101Y-37768653D01*
X9476478Y-37757027D01*
X9469037Y-37744611D01*
X9462848Y-37731526D01*
X9457971Y-37717897D01*
X9454454Y-37703856D01*
X9452330Y-37689538D01*
X9451620Y-37675080D01*
X9451620Y-37380080D01*
X9452330Y-37365622D01*
X9454454Y-37351304D01*
X9457971Y-37337263D01*
X9462848Y-37323634D01*
X9469037Y-37310549D01*
X9476478Y-37298133D01*
X9485101Y-37286507D01*
X9494822Y-37275782D01*
X9505547Y-37266061D01*
X9517173Y-37257438D01*
X9529589Y-37249997D01*
X9542674Y-37243808D01*
X9556303Y-37238931D01*
X9570344Y-37235414D01*
X9584662Y-37233290D01*
X9599120Y-37232580D01*
X9944120Y-37232580D01*
X9958578Y-37233290D01*
X9958578Y-37233290D01*
G37*
D24*
X9771620Y-37527580D03*
D23*
G36*
X9958578Y-36263290D02*
G01*
X9972896Y-36265414D01*
X9986937Y-36268931D01*
X10000566Y-36273808D01*
X10013651Y-36279997D01*
X10026067Y-36287438D01*
X10037693Y-36296061D01*
X10048418Y-36305782D01*
X10058139Y-36316507D01*
X10066762Y-36328133D01*
X10074203Y-36340549D01*
X10080392Y-36353634D01*
X10085269Y-36367263D01*
X10088786Y-36381304D01*
X10090910Y-36395622D01*
X10091620Y-36410080D01*
X10091620Y-36705080D01*
X10090910Y-36719538D01*
X10088786Y-36733856D01*
X10085269Y-36747897D01*
X10080392Y-36761526D01*
X10074203Y-36774611D01*
X10066762Y-36787027D01*
X10058139Y-36798653D01*
X10048418Y-36809378D01*
X10037693Y-36819099D01*
X10026067Y-36827722D01*
X10013651Y-36835163D01*
X10000566Y-36841352D01*
X9986937Y-36846229D01*
X9972896Y-36849746D01*
X9958578Y-36851870D01*
X9944120Y-36852580D01*
X9599120Y-36852580D01*
X9584662Y-36851870D01*
X9570344Y-36849746D01*
X9556303Y-36846229D01*
X9542674Y-36841352D01*
X9529589Y-36835163D01*
X9517173Y-36827722D01*
X9505547Y-36819099D01*
X9494822Y-36809378D01*
X9485101Y-36798653D01*
X9476478Y-36787027D01*
X9469037Y-36774611D01*
X9462848Y-36761526D01*
X9457971Y-36747897D01*
X9454454Y-36733856D01*
X9452330Y-36719538D01*
X9451620Y-36705080D01*
X9451620Y-36410080D01*
X9452330Y-36395622D01*
X9454454Y-36381304D01*
X9457971Y-36367263D01*
X9462848Y-36353634D01*
X9469037Y-36340549D01*
X9476478Y-36328133D01*
X9485101Y-36316507D01*
X9494822Y-36305782D01*
X9505547Y-36296061D01*
X9517173Y-36287438D01*
X9529589Y-36279997D01*
X9542674Y-36273808D01*
X9556303Y-36268931D01*
X9570344Y-36265414D01*
X9584662Y-36263290D01*
X9599120Y-36262580D01*
X9944120Y-36262580D01*
X9958578Y-36263290D01*
X9958578Y-36263290D01*
G37*
D24*
X9771620Y-36557580D03*
D11*
X13116800Y-37414600D03*
X13116800Y-37964600D03*
X8984220Y-37063580D03*
X8984220Y-36513580D03*
D21*
X7314760Y-39709580D03*
X7864760Y-39709580D03*
X5754020Y-38424340D03*
X5204020Y-38424340D03*
D25*
X14996400Y-34463400D03*
D26*
X14496400Y-34503400D03*
X13996400Y-34503400D03*
X13996400Y-33443400D03*
X14496400Y-33443400D03*
X14996400Y-33443400D03*
D27*
X13448800Y-25315600D03*
X13804400Y-27017400D03*
X4609600Y-26382400D03*
X4533400Y-19651400D03*
X6590800Y-19626000D03*
X5742800Y-23096000D03*
X12331200Y-20311800D03*
X7582899Y-23733600D03*
X7759200Y-22661600D03*
X8749800Y-21175400D03*
X9994400Y-21099200D03*
X12305800Y-22064400D03*
X7251197Y-25595003D03*
X5854200Y-25595000D03*
X5473200Y-21277000D03*
X5473200Y-21937400D03*
X12940800Y-24655200D03*
X12610600Y-25010800D03*
X9156198Y-25645800D03*
D28*
X31094020Y-4544540D03*
X26293420Y-9548340D03*
X26344220Y-6805140D03*
X23093020Y-4976340D03*
X25023420Y-4807440D03*
X28046020Y-4544540D03*
X29290620Y-4544540D03*
X27165920Y-8379939D03*
X23118420Y-6220940D03*
X26281580Y-19569060D03*
X21404780Y-25309460D03*
X23296180Y-19599060D03*
X25251980Y-23065150D03*
X26611780Y-23988662D03*
D27*
X13988020Y-33471340D03*
X15689820Y-34258740D03*
X8984220Y-35805600D03*
X8976600Y-36516800D03*
X15504400Y-37659800D03*
X12583400Y-37710600D03*
X9865600Y-35627800D03*
X10975580Y-39051720D03*
X8384780Y-35810680D03*
X8245080Y-37222920D03*
X4630660Y-32404540D03*
X6413000Y-37444600D03*
X6512800Y-39567340D03*
X13480020Y-35020740D03*
X5199620Y-38424340D03*
X4615420Y-36951140D03*
X13276820Y-33445936D03*
X8572000Y-20388000D03*
X5676400Y-19549806D03*
X5066800Y-20286400D03*
X14007600Y-19016400D03*
X5600200Y-26407811D03*
D28*
X21988980Y-19010260D03*
D27*
X4666220Y-38881540D03*
X15791420Y-35808140D03*
X5598405Y-32402000D03*
X4787400Y-25468000D03*
X6336774Y-25595000D03*
X10858000Y-23436000D03*
X9457890Y-23690000D03*
X4812800Y-24782200D03*
X13982200Y-24807600D03*
X13321800Y-26382400D03*
X6590800Y-20286400D03*
X6768587Y-25595000D03*
X10553200Y-21099200D03*
X11975600Y-25620400D03*
X27944380Y-21554860D03*
X23702580Y-23053460D03*
D28*
X22674780Y-24826858D03*
D27*
X23677180Y-22081919D03*
X14007600Y-19956200D03*
X5117600Y-26992000D03*
X7530600Y-19524400D03*
X6260600Y-24502800D03*
X11518400Y-21022994D03*
X8495800Y-22445400D03*
X4965200Y-21454800D03*
X12280401Y-23232800D03*
D28*
X26776020Y-8938740D03*
X27411020Y-4595340D03*
X27766620Y-5992340D03*
X22278420Y-7313140D03*
X31094020Y-8583140D03*
X26764180Y-18959460D03*
X22649380Y-19594460D03*
D27*
X5115805Y-33011600D03*
X4689080Y-35759880D03*
X14996400Y-33443400D03*
X6159000Y-23766200D03*
X10731000Y-22521600D03*
X9846600Y-20337200D03*
X13398000Y-24299600D03*
X7749601Y-25620400D03*
D28*
X23487580Y-25131660D03*
D27*
X7530600Y-26407810D03*
X9461000Y-26407810D03*
X10908800Y-26992000D03*
X12356600Y-26407800D03*
X13982200Y-22877200D03*
X8648200Y-23410600D03*
X7048000Y-26992000D03*
X8978400Y-26992000D03*
X10426200Y-26407810D03*
X12839200Y-27017400D03*
X13372600Y-21404000D03*
X5854200Y-24299600D03*
D28*
X22652488Y-22215929D03*
X28288180Y-25030060D03*
D27*
X14007600Y-21912000D03*
X7784600Y-23207400D03*
D28*
X21988980Y-21905860D03*
D27*
X27551580Y-25309460D03*
X13372600Y-22369200D03*
X8191000Y-23486800D03*
D28*
X21404780Y-22413860D03*
D27*
X27055380Y-24958460D03*
X8013200Y-26992000D03*
X9003800Y-23715400D03*
X8495800Y-26407810D03*
X9854878Y-23376516D03*
X11391400Y-26407810D03*
X10197600Y-23664606D03*
X14007600Y-20946800D03*
X7835400Y-21175400D03*
D28*
X28211980Y-19823060D03*
D27*
X13372600Y-20464200D03*
X8292600Y-21200800D03*
D28*
X28186580Y-19111860D03*
X21379380Y-19467460D03*
X23462180Y-20508860D03*
D27*
X14007600Y-23817000D03*
X6565400Y-26382400D03*
X13372600Y-23334400D03*
X6082800Y-26992000D03*
D28*
X28223780Y-20488060D03*
X25328220Y-9548340D03*
X25912420Y-6424140D03*
X31094020Y-8024340D03*
X25316363Y-19569060D03*
D27*
X26055738Y-24801460D03*
D28*
X25810820Y-8938740D03*
X25150420Y-5357340D03*
X28452420Y-8583140D03*
X25798980Y-18959460D03*
D27*
X26560980Y-25360260D03*
D28*
X24833780Y-18959460D03*
D27*
X25538009Y-20642831D03*
X25556780Y-25050950D03*
D28*
X24351180Y-19569060D03*
X28630220Y-4544540D03*
X29900220Y-4544540D03*
X21569020Y-5611340D03*
X27411020Y-5179534D03*
X24845620Y-8938740D03*
X24591620Y-5154140D03*
X24744020Y-8176740D03*
X23474020Y-7592540D03*
X21569020Y-7617940D03*
D27*
X5260580Y-39364140D03*
X7998000Y-39029600D03*
X13330160Y-32396920D03*
X14505000Y-32607740D03*
X8998000Y-34362889D03*
X10498000Y-34362889D03*
X8998000Y-39029600D03*
X14128000Y-39793400D03*
X8498000Y-39029600D03*
X7000480Y-39036480D03*
X7500860Y-39028860D03*
X9498000Y-39029600D03*
X10906999Y-33011600D03*
X6413000Y-35944600D03*
X7528803Y-32402000D03*
X6413000Y-35444600D03*
X7046203Y-33011600D03*
X6413000Y-34944600D03*
X6413000Y-36944600D03*
X6563604Y-32402000D03*
X4653520Y-37913801D03*
X6413000Y-36444600D03*
X6088527Y-33004077D03*
X5225020Y-37484540D03*
X5893396Y-39016516D03*
X12352488Y-32399744D03*
X11083000Y-36444600D03*
X11389599Y-32402000D03*
X11083000Y-35944600D03*
X10429480Y-32404540D03*
X11083000Y-35444600D03*
X9926560Y-33001440D03*
X11049240Y-34939460D03*
X8966440Y-33019220D03*
X9995140Y-34362889D03*
D29*
X7750000Y-24588400D02*
X7750000Y-25088400D01*
D30*
X7250000Y-24588400D02*
X7250000Y-24088400D01*
X7250000Y-24088400D02*
X7250000Y-24066499D01*
X7250000Y-24066499D02*
X7582899Y-23733600D01*
X7250000Y-23088400D02*
X7250000Y-23588400D01*
X7395200Y-23733600D02*
X7250000Y-23588400D01*
X7582899Y-23733600D02*
X7395200Y-23733600D01*
X9250000Y-22088400D02*
X8750000Y-21588400D01*
X11926776Y-22088400D02*
X11950776Y-22064400D01*
X11750000Y-22088400D02*
X11926776Y-22088400D01*
X11950776Y-22064400D02*
X12305800Y-22064400D01*
D29*
X7250000Y-22088400D02*
X7759200Y-22597600D01*
X7759200Y-22597600D02*
X7759200Y-22661600D01*
D30*
X8750000Y-21588400D02*
X8750000Y-21175600D01*
X8750000Y-21175600D02*
X8749800Y-21175400D01*
X9750000Y-22088400D02*
X9750000Y-21597600D01*
X10250000Y-22088400D02*
X10250000Y-21667000D01*
X10096000Y-21099200D02*
X10096000Y-21099200D01*
X9750000Y-21343600D02*
X9994400Y-21099200D01*
X9750000Y-21588400D02*
X9750000Y-21343600D01*
X10250000Y-21354800D02*
X9994400Y-21099200D01*
X10250000Y-21588400D02*
X10250000Y-21354800D01*
X12305800Y-22064400D02*
X12305800Y-22064400D01*
X12280400Y-25087000D02*
X12280400Y-25087000D01*
D29*
X7750000Y-25088400D02*
X7251197Y-25587203D01*
X7251197Y-25587203D02*
X7251197Y-25595003D01*
D30*
X4508000Y-20824200D02*
X5020400Y-20824200D01*
X5020400Y-20824200D02*
X5473200Y-21277000D01*
X4660400Y-23753000D02*
X4660400Y-22915800D01*
X4660400Y-22915800D02*
X5473200Y-22103000D01*
X5473200Y-22103000D02*
X5473200Y-21937400D01*
X11750000Y-25088400D02*
X12533000Y-25088400D01*
X12533000Y-25088400D02*
X12610600Y-25010800D01*
X9250000Y-25088400D02*
X9250000Y-25551998D01*
X9250000Y-25551998D02*
X9156198Y-25645800D01*
D31*
X23735220Y-6128340D02*
X23735220Y-6151940D01*
X29290620Y-4862738D02*
X29290620Y-4544540D01*
X29290620Y-5263339D02*
X29290620Y-4862738D01*
X29900220Y-5872939D02*
X29290620Y-5263339D01*
X29900220Y-6429939D02*
X29900220Y-5872939D01*
X27165919Y-8379940D02*
X27165920Y-8379939D01*
D32*
X25560780Y-22557060D02*
X25810780Y-22807060D01*
X23475780Y-22557060D02*
X25560780Y-22557060D01*
X26060780Y-23057060D02*
X25810780Y-22807060D01*
X28145780Y-23057060D02*
X26060780Y-23057060D01*
D33*
X21404780Y-24932660D02*
X21721380Y-24616060D01*
X21404780Y-25309460D02*
X21404780Y-24932660D01*
X22704380Y-20190860D02*
X21709580Y-20190860D01*
X23296180Y-19599060D02*
X22704380Y-20190860D01*
D32*
X25026981Y-23290149D02*
X25251980Y-23065150D01*
X25476979Y-22840151D02*
X25251980Y-23065150D01*
X25510070Y-22807060D02*
X25476979Y-22840151D01*
X23475780Y-23557060D02*
X24760070Y-23557060D01*
X25810780Y-22807060D02*
X25510070Y-22807060D01*
X24760070Y-23557060D02*
X25026981Y-23290149D01*
D34*
X8948660Y-36478020D02*
X8984220Y-36513580D01*
X8389180Y-35806960D02*
X8382240Y-35813900D01*
D35*
X11092420Y-37730920D02*
X11092420Y-38315120D01*
D29*
X10950180Y-38990760D02*
X10985740Y-39026320D01*
D35*
X11117820Y-38322740D02*
X11117820Y-38993300D01*
D34*
X8984220Y-36513580D02*
X9016560Y-36513580D01*
X9880160Y-35635420D02*
X9880160Y-35643720D01*
X9880160Y-35015660D02*
X9880160Y-35635420D01*
X6413000Y-37444600D02*
X6914600Y-37444600D01*
X6413000Y-38004500D02*
X6487400Y-38078900D01*
X6413000Y-37444600D02*
X6413000Y-38004500D01*
X8367240Y-35813900D02*
X8382240Y-35813900D01*
X8379020Y-35810680D02*
X8382240Y-35813900D01*
X5200800Y-38447200D02*
X5200800Y-38432200D01*
X7990400Y-34133600D02*
X7986000Y-34138000D01*
X8519400Y-34133600D02*
X7990400Y-34133600D01*
D30*
X15613620Y-33670820D02*
X15606000Y-33663200D01*
X15613620Y-34233340D02*
X15613620Y-33670820D01*
X13996400Y-32697400D02*
X13955000Y-32656000D01*
X13996400Y-33443400D02*
X13996400Y-32697400D01*
D34*
X8534400Y-34133600D02*
X8519400Y-34133600D01*
X8816400Y-33851600D02*
X8534400Y-34133600D01*
X9186680Y-33851600D02*
X8816400Y-33851600D01*
X9459200Y-34124120D02*
X9186680Y-33851600D01*
X9865600Y-35627800D02*
X9459200Y-35221400D01*
X9459200Y-35221400D02*
X9459200Y-34124120D01*
X6931220Y-36925740D02*
X6956620Y-36900340D01*
X6931220Y-37484540D02*
X6931220Y-36925740D01*
X13188416Y-33534340D02*
X13276820Y-33445936D01*
X12057620Y-33534340D02*
X13188416Y-33534340D01*
D30*
X8572000Y-20388000D02*
X7905502Y-20388000D01*
X5955805Y-19270401D02*
X5854199Y-19372007D01*
X6787903Y-19270401D02*
X5955805Y-19270401D01*
X5854199Y-19372007D02*
X5676400Y-19549806D01*
X7905502Y-20388000D02*
X6787903Y-19270401D01*
X4614000Y-20286400D02*
X4533400Y-20205800D01*
X5066800Y-20286400D02*
X4614000Y-20286400D01*
D36*
X13906000Y-18914800D02*
X14007600Y-19016400D01*
X5397000Y-18914800D02*
X13906000Y-18914800D01*
X5066800Y-20286400D02*
X5066800Y-19245000D01*
X5066800Y-19245000D02*
X5397000Y-18914800D01*
X5422401Y-26230012D02*
X5600200Y-26407811D01*
X5336399Y-22836201D02*
X5336399Y-26144010D01*
X5336399Y-26144010D02*
X5422401Y-26230012D01*
X5066800Y-20286400D02*
X5879600Y-21099200D01*
X5879600Y-21099200D02*
X5879600Y-22293000D01*
X5879600Y-22293000D02*
X5336399Y-22836201D01*
D29*
X6336774Y-25501626D02*
X6336774Y-25595000D01*
X6750000Y-25088400D02*
X6336774Y-25501626D01*
X11010699Y-23588699D02*
X10858000Y-23436000D01*
X11250000Y-24588400D02*
X11010699Y-24349099D01*
X11010699Y-24349099D02*
X11010699Y-23588699D01*
X9250000Y-24588400D02*
X9510699Y-24327701D01*
X9510699Y-24327701D02*
X9510699Y-23994256D01*
X9457890Y-23941447D02*
X9457890Y-23690000D01*
X9510699Y-23994256D02*
X9457890Y-23941447D01*
X6768587Y-25569813D02*
X6768587Y-25595000D01*
X7250000Y-25088400D02*
X6768587Y-25569813D01*
D30*
X10730999Y-21276999D02*
X10553200Y-21099200D01*
X10750000Y-21588400D02*
X10750000Y-21296000D01*
X10750000Y-21296000D02*
X10730999Y-21276999D01*
X11782000Y-25620400D02*
X11975600Y-25620400D01*
X11250000Y-25088400D02*
X11782000Y-25620400D01*
D33*
X21746380Y-23726060D02*
X22674780Y-24654460D01*
X22674780Y-24654460D02*
X22674780Y-24826858D01*
X21721380Y-23726060D02*
X21746380Y-23726060D01*
X22205380Y-21080860D02*
X23206439Y-22081919D01*
X23206439Y-22081919D02*
X23358982Y-22081919D01*
X23358982Y-22081919D02*
X23677180Y-22081919D01*
X21709580Y-21080860D02*
X22205380Y-21080860D01*
D30*
X6750000Y-24588400D02*
X6346200Y-24588400D01*
X6346200Y-24588400D02*
X6260600Y-24502800D01*
X11518400Y-21023000D02*
X11518400Y-21022994D01*
X11250000Y-21588400D02*
X11250000Y-21291400D01*
X11250000Y-21291400D02*
X11518400Y-21023000D01*
X11750000Y-21254594D02*
X11518400Y-21022994D01*
X11750000Y-21588400D02*
X11750000Y-21254594D01*
X7750000Y-22088400D02*
X8107000Y-22445400D01*
X8244353Y-22445400D02*
X8495800Y-22445400D01*
X8107000Y-22445400D02*
X8244353Y-22445400D01*
X4884600Y-21374200D02*
X4965200Y-21454800D01*
X4508000Y-21374200D02*
X4884600Y-21374200D01*
X4965200Y-21721000D02*
X4660400Y-22025800D01*
X4965200Y-21454800D02*
X4965200Y-21721000D01*
X11750000Y-22588400D02*
X12280401Y-23118801D01*
X12280401Y-23118801D02*
X12280401Y-23232800D01*
D31*
X27766620Y-6310538D02*
X27766620Y-5992340D01*
X27766620Y-6900940D02*
X27766620Y-6310538D01*
X28640620Y-7774940D02*
X27766620Y-6900940D01*
X28655620Y-7774940D02*
X28640620Y-7774940D01*
D36*
X15326600Y-33113200D02*
X14996400Y-33443400D01*
X15606000Y-33113200D02*
X15326600Y-33113200D01*
X4689080Y-35908560D02*
X5043320Y-36262800D01*
X4689080Y-35759880D02*
X4689080Y-35908560D01*
X5043320Y-36941660D02*
X5038920Y-36946060D01*
X5043320Y-36262800D02*
X5043320Y-36941660D01*
D29*
X6159000Y-23679400D02*
X6159000Y-23766200D01*
X6750000Y-23088400D02*
X6159000Y-23679400D01*
D30*
X10731000Y-22107400D02*
X10750000Y-22088400D01*
X10731000Y-22521600D02*
X10731000Y-22107400D01*
X9250000Y-20933800D02*
X9846600Y-20337200D01*
X9250000Y-21588400D02*
X9250000Y-20933800D01*
D29*
X8250000Y-25088400D02*
X8250000Y-25120001D01*
X8250000Y-25120001D02*
X7749601Y-25620400D01*
D33*
X23475780Y-25119860D02*
X23487580Y-25131660D01*
X23475780Y-24557060D02*
X23475780Y-25119860D01*
D29*
X7657590Y-26407810D02*
X7530600Y-26407810D01*
X8750000Y-25088400D02*
X8750000Y-25315400D01*
X8750000Y-25315400D02*
X7657590Y-26407810D01*
X9638799Y-26230011D02*
X9461000Y-26407810D01*
X9750000Y-26118810D02*
X9638799Y-26230011D01*
X9750000Y-25088400D02*
X9750000Y-26118810D01*
X10908800Y-26179200D02*
X10908800Y-26992000D01*
X10250000Y-25088400D02*
X10250000Y-25520400D01*
X10250000Y-25520400D02*
X10908800Y-26179200D01*
X11924800Y-26407800D02*
X12356600Y-26407800D01*
X10750000Y-25088400D02*
X10750000Y-25233000D01*
X10750000Y-25233000D02*
X11924800Y-26407800D01*
X8510699Y-24327701D02*
X8510699Y-23649701D01*
X8250000Y-24588400D02*
X8510699Y-24327701D01*
X8510699Y-23649701D02*
X8510699Y-23548101D01*
X8510699Y-23548101D02*
X8648200Y-23410600D01*
X7048000Y-26740553D02*
X7048000Y-26992000D01*
X8489301Y-24849099D02*
X8489301Y-25322099D01*
X8750000Y-24588400D02*
X8489301Y-24849099D01*
X7886200Y-25925200D02*
X7352800Y-25925200D01*
X8489301Y-25322099D02*
X7886200Y-25925200D01*
X7048000Y-26230000D02*
X7048000Y-26740553D01*
X7352800Y-25925200D02*
X7048000Y-26230000D01*
X8978400Y-26332110D02*
X8978400Y-26740553D01*
X9510699Y-24827701D02*
X9510699Y-25799811D01*
X9750000Y-24588400D02*
X9510699Y-24827701D01*
X8978400Y-26740553D02*
X8978400Y-26992000D01*
X9510699Y-25799811D02*
X8978400Y-26332110D01*
X10010699Y-25992309D02*
X10248401Y-26230011D01*
X10250000Y-24588400D02*
X10010699Y-24827701D01*
X10010699Y-24827701D02*
X10010699Y-25992309D01*
X10248401Y-26230011D02*
X10426200Y-26407810D01*
X12839200Y-26765953D02*
X12839200Y-27017400D01*
X11010699Y-24849099D02*
X11010699Y-25203265D01*
X10750000Y-24588400D02*
X11010699Y-24849099D01*
X11010699Y-25203265D02*
X11808834Y-26001400D01*
X11808834Y-26001400D02*
X12509000Y-26001400D01*
X12509000Y-26001400D02*
X12839200Y-26331600D01*
X12839200Y-26331600D02*
X12839200Y-26765953D01*
X6573224Y-24088400D02*
X6565224Y-24096400D01*
X6750000Y-24088400D02*
X6573224Y-24088400D01*
X6057400Y-24096400D02*
X5854200Y-24299600D01*
X6311400Y-24096400D02*
X6057400Y-24096400D01*
X6311400Y-24096400D02*
X6260600Y-24096400D01*
X6565224Y-24096400D02*
X6311400Y-24096400D01*
D30*
X28288180Y-24699460D02*
X28145780Y-24557060D01*
X28288180Y-25030060D02*
X28288180Y-24699460D01*
D29*
X7875000Y-23297800D02*
X7784600Y-23207400D01*
X7750000Y-24088400D02*
X7875000Y-23963400D01*
X7875000Y-23963400D02*
X7875000Y-23297800D01*
X8250000Y-23911624D02*
X8241800Y-23903424D01*
X8250000Y-24088400D02*
X8250000Y-23911624D01*
X8241800Y-23903424D02*
X8241800Y-23486800D01*
X8241800Y-23486800D02*
X8191000Y-23486800D01*
X8750000Y-24088400D02*
X8750000Y-23969200D01*
X8750000Y-23969200D02*
X9003800Y-23715400D01*
X8495800Y-25823600D02*
X8495800Y-26407810D01*
X9010699Y-25308701D02*
X8495800Y-25823600D01*
X9250000Y-24088400D02*
X9010699Y-24327701D01*
X9010699Y-24327701D02*
X9010699Y-25308701D01*
X9750000Y-23481394D02*
X9854878Y-23376516D01*
X9750000Y-24088400D02*
X9750000Y-23481394D01*
X10250000Y-24088400D02*
X10510699Y-24349099D01*
X11391400Y-26255400D02*
X11391400Y-26407810D01*
X10510699Y-25374699D02*
X11391400Y-26255400D01*
X10510699Y-24349099D02*
X10510699Y-25374699D01*
X10750000Y-24088400D02*
X10326206Y-23664606D01*
X10326206Y-23664606D02*
X10197600Y-23664606D01*
X7989301Y-21827701D02*
X7989301Y-21329301D01*
X8250000Y-22088400D02*
X7989301Y-21827701D01*
X7989301Y-21329301D02*
X7835400Y-21175400D01*
D30*
X27999780Y-19823060D02*
X28211980Y-19823060D01*
X27560780Y-20262060D02*
X27999780Y-19823060D01*
X27560780Y-20472060D02*
X27560780Y-20262060D01*
D29*
X8489301Y-21827701D02*
X8489301Y-21372101D01*
X8750000Y-22088400D02*
X8489301Y-21827701D01*
X8489301Y-21372101D02*
X8343400Y-21226200D01*
X8343400Y-21226200D02*
X8318000Y-21226200D01*
X8318000Y-21226200D02*
X8292600Y-21200800D01*
D30*
X27060780Y-20017760D02*
X27966680Y-19111860D01*
X27060780Y-20472060D02*
X27060780Y-20017760D01*
X27966680Y-19111860D02*
X28186580Y-19111860D01*
D33*
X23475780Y-20522460D02*
X23462180Y-20508860D01*
X23475780Y-21057060D02*
X23475780Y-20522460D01*
D30*
X28223780Y-20979060D02*
X28145780Y-21057060D01*
X28223780Y-20488060D02*
X28223780Y-20979060D01*
D31*
X25912420Y-6742338D02*
X25912420Y-6424140D01*
X25912420Y-8125940D02*
X25912420Y-6742338D01*
X25328220Y-9548340D02*
X25328220Y-8710140D01*
X25328220Y-8710140D02*
X25912420Y-8125940D01*
D30*
X26055738Y-25137018D02*
X26055738Y-25060157D01*
X26055738Y-25060157D02*
X26055738Y-24741959D01*
X26060780Y-25142060D02*
X26055738Y-25137018D01*
D31*
X25658420Y-5306540D02*
X25150420Y-5306540D01*
X26734121Y-6382241D02*
X25658420Y-5306540D01*
X28223820Y-8583140D02*
X28452420Y-8583140D01*
X27630719Y-7990039D02*
X28223820Y-8583140D01*
X26662121Y-7990039D02*
X27630719Y-7990039D01*
X25810820Y-8938740D02*
X25810820Y-8841340D01*
X26734121Y-7918039D02*
X26586420Y-8065740D01*
X26734121Y-6382241D02*
X26734121Y-7918039D01*
X25810820Y-8841340D02*
X26586420Y-8065740D01*
X26586420Y-8065740D02*
X26662121Y-7990039D01*
D32*
X24060780Y-19783260D02*
X24060780Y-20472060D01*
X24300380Y-19543660D02*
X24060780Y-19783260D01*
D31*
X28630220Y-5038540D02*
X28413020Y-5255740D01*
X28630220Y-4620740D02*
X28630220Y-5038540D01*
X28655620Y-5498340D02*
X28413020Y-5255740D01*
X28655620Y-6571940D02*
X28655620Y-5498340D01*
X29916220Y-4698940D02*
X30473020Y-5255740D01*
X29916220Y-4646140D02*
X29916220Y-4698940D01*
X30733020Y-5128740D02*
X30473020Y-5128740D01*
X30738420Y-5134140D02*
X30733020Y-5128740D01*
X30738420Y-6981741D02*
X30738420Y-5134140D01*
X29900220Y-7789941D02*
X29930220Y-7789941D01*
X29930220Y-7789941D02*
X30738420Y-6981741D01*
X26649026Y-4417540D02*
X27186021Y-4954535D01*
X27186021Y-4954535D02*
X27411020Y-5179534D01*
X22762820Y-4417540D02*
X26649026Y-4417540D01*
X21569020Y-5611340D02*
X22762820Y-4417540D01*
X24845620Y-8852042D02*
X24845620Y-8938740D01*
X25133921Y-8563741D02*
X24845620Y-8852042D01*
X25133921Y-6153641D02*
X25133921Y-8563741D01*
X24591620Y-5128740D02*
X24591620Y-5611340D01*
X24591620Y-5611340D02*
X25133921Y-6153641D01*
X24336420Y-6915740D02*
X23811420Y-6915740D01*
X24744020Y-7323340D02*
X24336420Y-6915740D01*
X24744020Y-8176740D02*
X24744020Y-7323340D01*
X21794019Y-7842939D02*
X23223621Y-7842939D01*
X23223621Y-7842939D02*
X23249021Y-7817539D01*
X23474020Y-7592540D02*
X23249021Y-7817539D01*
X21569020Y-7617940D02*
X21794019Y-7842939D01*
D29*
X7980240Y-34629580D02*
X7977700Y-34632120D01*
D30*
X10430160Y-35015660D02*
X10430160Y-35635420D01*
X10430160Y-35635420D02*
X10430160Y-36345940D01*
X10218520Y-36557580D02*
X9746220Y-36557580D01*
X10430160Y-36345940D02*
X10218520Y-36557580D01*
D29*
X8389180Y-35256960D02*
X8382240Y-35263900D01*
D30*
X8948660Y-35256960D02*
X8389180Y-35256960D01*
D29*
X10430160Y-35000660D02*
X10430160Y-35015660D01*
D34*
X8240000Y-38465420D02*
X7986000Y-38719420D01*
X8240000Y-38099220D02*
X8240000Y-38465420D01*
X7986000Y-38719420D02*
X7986000Y-39017600D01*
D29*
X7986000Y-39017600D02*
X7998000Y-39029600D01*
X10498000Y-34947820D02*
X10430160Y-35015660D01*
D37*
X7998000Y-39239600D02*
X7998000Y-39029600D01*
X13311747Y-32368347D02*
X13311747Y-32349468D01*
X7864760Y-39372840D02*
X7864760Y-39709580D01*
X7998000Y-39239600D02*
X7864760Y-39372840D01*
X14505000Y-33434800D02*
X14496400Y-33443400D01*
D33*
X14505000Y-32656000D02*
X14505000Y-33434800D01*
D37*
X5937400Y-39488600D02*
X5979400Y-39530600D01*
X7990400Y-34683600D02*
X7986000Y-34688000D01*
X8519400Y-34683600D02*
X7990400Y-34683600D01*
X7808200Y-34688000D02*
X7300200Y-35196000D01*
X7986000Y-34688000D02*
X7808200Y-34688000D01*
X8519400Y-35126740D02*
X8382240Y-35263900D01*
X8519400Y-34683600D02*
X8519400Y-35126740D01*
D30*
X10498000Y-34947820D02*
X10498000Y-34362889D01*
D29*
X8994711Y-34359600D02*
X8998000Y-34362889D01*
X8864780Y-34359600D02*
X8994711Y-34359600D01*
D34*
X5390120Y-39488600D02*
X5937400Y-39488600D01*
X5260580Y-39364140D02*
X5265660Y-39364140D01*
X5265660Y-39364140D02*
X5390120Y-39488600D01*
D37*
X8998000Y-34422760D02*
X8998000Y-34362889D01*
X8519400Y-34683600D02*
X8737160Y-34683600D01*
X8737160Y-34683600D02*
X8998000Y-34422760D01*
D29*
X8984220Y-37687060D02*
X8994380Y-37697220D01*
D34*
X8984220Y-37063580D02*
X8984220Y-37687060D01*
X8979380Y-38247220D02*
X8524480Y-38702120D01*
D29*
X8994380Y-38247220D02*
X8979380Y-38247220D01*
D34*
X8524480Y-38702120D02*
X8524480Y-39003120D01*
D29*
X8524480Y-39003120D02*
X8498000Y-39029600D01*
D30*
X7314760Y-39694580D02*
X7000480Y-39380300D01*
D37*
X7314760Y-39709580D02*
X7314760Y-39694580D01*
D30*
X7000480Y-39380300D02*
X7000480Y-39036480D01*
D29*
X7000480Y-39036480D02*
X6929360Y-39107600D01*
D37*
X6559880Y-39036480D02*
X6512800Y-38989400D01*
X7000480Y-39036480D02*
X6559880Y-39036480D01*
D29*
X7344060Y-38045560D02*
X7377400Y-38078900D01*
D33*
X7500860Y-38673260D02*
X7500860Y-39028860D01*
X7376400Y-38548800D02*
X7500860Y-38673260D01*
D37*
X7528800Y-37927500D02*
X7377400Y-38078900D01*
X7528800Y-37380400D02*
X7528800Y-37927500D01*
X7528800Y-37380400D02*
X7528800Y-36796200D01*
X7528800Y-36394600D02*
X7300200Y-36166000D01*
X7528800Y-36796200D02*
X7528800Y-36394600D01*
D33*
X7377400Y-38547800D02*
X7377400Y-38078900D01*
X7376400Y-38548800D02*
X7377400Y-38547800D01*
D30*
X10584420Y-37713140D02*
X10584420Y-38297340D01*
D29*
X10092460Y-39029600D02*
X10095740Y-39026320D01*
D33*
X9498000Y-39029600D02*
X10092460Y-39029600D01*
D34*
X10377860Y-37527580D02*
X10563420Y-37713140D01*
X9771620Y-37527580D02*
X10377860Y-37527580D01*
X10095740Y-38790420D02*
X10563420Y-38322740D01*
X10095740Y-39026320D02*
X10095740Y-38790420D01*
D37*
X10906999Y-33011600D02*
X10373599Y-33545000D01*
X10373599Y-33545000D02*
X6462000Y-33545000D01*
X6462000Y-33545000D02*
X5877800Y-34129200D01*
X6203000Y-35944600D02*
X6413000Y-35944600D01*
X5877800Y-35619400D02*
X6203000Y-35944600D01*
X5877800Y-34129200D02*
X5877800Y-35619400D01*
X5590380Y-36944600D02*
X5588920Y-36946060D01*
X6413000Y-36944600D02*
X5590380Y-36944600D01*
X4668760Y-37929041D02*
X4653520Y-37913801D01*
X5364719Y-37929041D02*
X4668760Y-37929041D01*
X5588920Y-36946060D02*
X5588920Y-37704840D01*
X5588920Y-37704840D02*
X5364719Y-37929041D01*
X5775120Y-36444600D02*
X5593320Y-36262800D01*
X6413000Y-36444600D02*
X5775120Y-36444600D01*
X15123400Y-39133000D02*
X14844000Y-38853600D01*
X15098000Y-39107600D02*
X14844000Y-38853600D01*
D36*
X15098000Y-39793400D02*
X15098000Y-39107600D01*
D34*
X13985480Y-38853600D02*
X14844000Y-38853600D01*
X13116800Y-37964600D02*
X13116800Y-37984920D01*
X13116800Y-37984920D02*
X13985480Y-38853600D01*
D37*
X5783820Y-38480220D02*
X5750800Y-38447200D01*
X5979400Y-38980600D02*
X5783820Y-38785020D01*
X5783820Y-38785020D02*
X5783820Y-38480220D01*
D30*
G36*
X21832006Y-6103352D02*
G01*
X21922939Y-6042592D01*
X22000272Y-5965259D01*
X22061032Y-5874326D01*
X22102884Y-5773286D01*
X22124220Y-5666022D01*
X22124220Y-5630592D01*
X22931074Y-4823740D01*
X24144653Y-4823740D01*
X24099608Y-4891154D01*
X24057756Y-4992194D01*
X24036420Y-5099458D01*
X24036420Y-5208822D01*
X24057756Y-5316086D01*
X24099608Y-5417126D01*
X24160368Y-5508059D01*
X24185420Y-5533111D01*
X24185420Y-5591401D01*
X24183456Y-5611341D01*
X24185420Y-5631281D01*
X24185420Y-5631290D01*
X24191298Y-5690969D01*
X24214525Y-5767538D01*
X24252243Y-5838104D01*
X24252244Y-5838106D01*
X24252244Y-5838105D01*
X24290287Y-5884461D01*
X24290290Y-5884464D01*
X24303004Y-5899956D01*
X24318497Y-5912671D01*
X24464620Y-6058793D01*
X24464620Y-6347217D01*
X21880281Y-6322837D01*
X21746820Y-6189376D01*
X21746820Y-6138637D01*
X21832006Y-6103352D01*
X21832006Y-6103352D01*
G37*
X21832006Y-6103352D02*
X21922939Y-6042592D01*
X22000272Y-5965259D01*
X22061032Y-5874326D01*
X22102884Y-5773286D01*
X22124220Y-5666022D01*
X22124220Y-5630592D01*
X22931074Y-4823740D01*
X24144653Y-4823740D01*
X24099608Y-4891154D01*
X24057756Y-4992194D01*
X24036420Y-5099458D01*
X24036420Y-5208822D01*
X24057756Y-5316086D01*
X24099608Y-5417126D01*
X24160368Y-5508059D01*
X24185420Y-5533111D01*
X24185420Y-5591401D01*
X24183456Y-5611341D01*
X24185420Y-5631281D01*
X24185420Y-5631290D01*
X24191298Y-5690969D01*
X24214525Y-5767538D01*
X24252243Y-5838104D01*
X24252244Y-5838106D01*
X24252244Y-5838105D01*
X24290287Y-5884461D01*
X24290290Y-5884464D01*
X24303004Y-5899956D01*
X24318497Y-5912671D01*
X24464620Y-6058793D01*
X24464620Y-6347217D01*
X21880281Y-6322837D01*
X21746820Y-6189376D01*
X21746820Y-6138637D01*
X21832006Y-6103352D01*
G36*
X23635966Y-8126404D02*
G01*
X23737006Y-8084552D01*
X23827939Y-8023792D01*
X23905272Y-7946459D01*
X23966032Y-7855526D01*
X24007884Y-7754486D01*
X24029220Y-7647222D01*
X24029220Y-7537858D01*
X24007884Y-7430594D01*
X23966032Y-7329554D01*
X23905272Y-7238621D01*
X23827939Y-7161288D01*
X23737006Y-7100528D01*
X23635966Y-7058676D01*
X23601020Y-7051725D01*
X23601020Y-6805140D01*
X24483856Y-6805140D01*
X24718620Y-7039904D01*
X24718620Y-8397925D01*
X24683674Y-8404876D01*
X24582634Y-8446728D01*
X24491701Y-8507488D01*
X24414368Y-8584821D01*
X24353608Y-8675754D01*
X24339365Y-8710140D01*
X24103875Y-8710140D01*
X24086420Y-8708421D01*
X24068965Y-8710140D01*
X23734184Y-8710140D01*
X23601020Y-8576976D01*
X23601020Y-8133355D01*
X23635966Y-8126404D01*
X23635966Y-8126404D01*
G37*
X23635966Y-8126404D02*
X23737006Y-8084552D01*
X23827939Y-8023792D01*
X23905272Y-7946459D01*
X23966032Y-7855526D01*
X24007884Y-7754486D01*
X24029220Y-7647222D01*
X24029220Y-7537858D01*
X24007884Y-7430594D01*
X23966032Y-7329554D01*
X23905272Y-7238621D01*
X23827939Y-7161288D01*
X23737006Y-7100528D01*
X23635966Y-7058676D01*
X23601020Y-7051725D01*
X23601020Y-6805140D01*
X24483856Y-6805140D01*
X24718620Y-7039904D01*
X24718620Y-8397925D01*
X24683674Y-8404876D01*
X24582634Y-8446728D01*
X24491701Y-8507488D01*
X24414368Y-8584821D01*
X24353608Y-8675754D01*
X24339365Y-8710140D01*
X24103875Y-8710140D01*
X24086420Y-8708421D01*
X24068965Y-8710140D01*
X23734184Y-8710140D01*
X23601020Y-8576976D01*
X23601020Y-8133355D01*
X23635966Y-8126404D01*
D34*
G36*
X14713509Y-37471527D02*
G01*
X12948257Y-37456567D01*
X12928666Y-37427248D01*
X12866752Y-37365334D01*
X12793950Y-37316689D01*
X12713056Y-37283182D01*
X12627179Y-37266100D01*
X12539621Y-37266100D01*
X12453744Y-37283182D01*
X12372850Y-37316689D01*
X12300048Y-37365334D01*
X12238134Y-37427248D01*
X12222652Y-37450418D01*
X11841720Y-37447190D01*
X11841720Y-34221310D01*
X13523799Y-34233957D01*
X13523799Y-34576240D01*
X13436241Y-34576240D01*
X13350364Y-34593322D01*
X13269470Y-34626829D01*
X13196668Y-34675474D01*
X13134754Y-34737388D01*
X13086109Y-34810190D01*
X13052602Y-34891084D01*
X13035520Y-34976961D01*
X13035520Y-35064519D01*
X13052602Y-35150396D01*
X13086109Y-35231290D01*
X13134754Y-35304092D01*
X13196668Y-35366006D01*
X13269470Y-35414651D01*
X13350364Y-35448158D01*
X13436241Y-35465240D01*
X13523799Y-35465240D01*
X13609676Y-35448158D01*
X13690570Y-35414651D01*
X13763372Y-35366006D01*
X13825286Y-35304092D01*
X13873931Y-35231290D01*
X13907438Y-35150396D01*
X13924520Y-35064519D01*
X13924520Y-34976961D01*
X13907438Y-34891084D01*
X13873931Y-34810190D01*
X13825286Y-34737388D01*
X13763372Y-34675474D01*
X13690570Y-34626829D01*
X13609676Y-34593322D01*
X13523799Y-34576240D01*
X13523799Y-34233957D01*
X15042120Y-34245374D01*
X15042120Y-34258740D01*
X15043828Y-34276084D01*
X15048887Y-34292761D01*
X15057102Y-34308130D01*
X15068158Y-34321602D01*
X15449158Y-34702602D01*
X15462630Y-34713658D01*
X15477999Y-34721873D01*
X15494676Y-34726932D01*
X15512020Y-34728640D01*
X16185120Y-34728640D01*
X16185120Y-35999916D01*
X14713509Y-37471527D01*
X14713509Y-37471527D01*
G37*
X14713509Y-37471527D02*
X12948257Y-37456567D01*
X12928666Y-37427248D01*
X12866752Y-37365334D01*
X12793950Y-37316689D01*
X12713056Y-37283182D01*
X12627179Y-37266100D01*
X12539621Y-37266100D01*
X12453744Y-37283182D01*
X12372850Y-37316689D01*
X12300048Y-37365334D01*
X12238134Y-37427248D01*
X12222652Y-37450418D01*
X11841720Y-37447190D01*
X11841720Y-34221310D01*
X13523799Y-34233957D01*
X13523799Y-34576240D01*
X13436241Y-34576240D01*
X13350364Y-34593322D01*
X13269470Y-34626829D01*
X13196668Y-34675474D01*
X13134754Y-34737388D01*
X13086109Y-34810190D01*
X13052602Y-34891084D01*
X13035520Y-34976961D01*
X13035520Y-35064519D01*
X13052602Y-35150396D01*
X13086109Y-35231290D01*
X13134754Y-35304092D01*
X13196668Y-35366006D01*
X13269470Y-35414651D01*
X13350364Y-35448158D01*
X13436241Y-35465240D01*
X13523799Y-35465240D01*
X13609676Y-35448158D01*
X13690570Y-35414651D01*
X13763372Y-35366006D01*
X13825286Y-35304092D01*
X13873931Y-35231290D01*
X13907438Y-35150396D01*
X13924520Y-35064519D01*
X13924520Y-34976961D01*
X13907438Y-34891084D01*
X13873931Y-34810190D01*
X13825286Y-34737388D01*
X13763372Y-34675474D01*
X13690570Y-34626829D01*
X13609676Y-34593322D01*
X13523799Y-34576240D01*
X13523799Y-34233957D01*
X15042120Y-34245374D01*
X15042120Y-34258740D01*
X15043828Y-34276084D01*
X15048887Y-34292761D01*
X15057102Y-34308130D01*
X15068158Y-34321602D01*
X15449158Y-34702602D01*
X15462630Y-34713658D01*
X15477999Y-34721873D01*
X15494676Y-34726932D01*
X15512020Y-34728640D01*
X16185120Y-34728640D01*
X16185120Y-35999916D01*
X14713509Y-37471527D01*
M02*
