G04 #@! TF.GenerationSoftware,KiCad,Pcbnew,(5.1.0)-1*
G04 #@! TF.CreationDate,2019-05-03T21:31:27-07:00*
G04 #@! TF.ProjectId,Miniscope-v4-PCB-fab-assembly_2,4d696e69-7363-46f7-9065-2d76342d5043,rev?*
G04 #@! TF.SameCoordinates,PX4b8e5e4PY51f011c*
G04 #@! TF.FileFunction,Legend,Bot*
G04 #@! TF.FilePolarity,Positive*
%FSLAX46Y46*%
G04 Gerber Fmt 4.6, Leading zero omitted, Abs format (unit mm)*
G04 Created by KiCad (PCBNEW (5.1.0)-1) date 2019-05-03 21:31:27*
%MOMM*%
%LPD*%
G04 APERTURE LIST*
%ADD10C,0.254000*%
%ADD11C,0.300000*%
%ADD12C,0.100000*%
%ADD13C,0.120000*%
%ADD14C,0.150000*%
G04 APERTURE END LIST*
D10*
X13006200Y-19838000D02*
X5506200Y-19838000D01*
X13006200Y-26338000D02*
X13006200Y-19838000D01*
X5506200Y-26338000D02*
X13006200Y-26338000D01*
X5506200Y-19838000D02*
X5506200Y-26338000D01*
X6006200Y-20838000D02*
X6006200Y-25838000D01*
X12506200Y-20838000D02*
X6006200Y-20838000D01*
X12506200Y-25838000D02*
X12506200Y-20838000D01*
X6006200Y-25838000D02*
X12506200Y-25838000D01*
D11*
X27175191Y-5570997D02*
X25675191Y-5570997D01*
X25675191Y-6142425D01*
X25746620Y-6285282D01*
X25818048Y-6356711D01*
X25960905Y-6428140D01*
X26175191Y-6428140D01*
X26318048Y-6356711D01*
X26389477Y-6285282D01*
X26460905Y-6142425D01*
X26460905Y-5570997D01*
X25675191Y-6928140D02*
X25675191Y-7856711D01*
X26246620Y-7356711D01*
X26246620Y-7570997D01*
X26318048Y-7713854D01*
X26389477Y-7785282D01*
X26532334Y-7856711D01*
X26889477Y-7856711D01*
X27032334Y-7785282D01*
X27103762Y-7713854D01*
X27175191Y-7570997D01*
X27175191Y-7142425D01*
X27103762Y-6999568D01*
X27032334Y-6928140D01*
X23581162Y-4354111D02*
X23581162Y-5496968D01*
X23657362Y-7579911D02*
X23657362Y-8722768D01*
X24228791Y-8151340D02*
X23085934Y-8151340D01*
D12*
G36*
X23792380Y-25385660D02*
G01*
X23284380Y-25385660D01*
X23284380Y-24877660D01*
X23792380Y-24877660D01*
X23792380Y-25385660D01*
G37*
X23792380Y-25385660D02*
X23284380Y-25385660D01*
X23284380Y-24877660D01*
X23792380Y-24877660D01*
X23792380Y-25385660D01*
D13*
X15283420Y-35020740D02*
X14800820Y-35020740D01*
X15281400Y-34753400D02*
X15283420Y-35020740D01*
X6180000Y-24573400D02*
X6180000Y-25808400D01*
X6180000Y-25808400D02*
X7415000Y-25808400D01*
X6180000Y-22103400D02*
X6180000Y-20868400D01*
X6180000Y-20868400D02*
X7415000Y-20868400D01*
X12320000Y-22103400D02*
X12320000Y-20868400D01*
X12320000Y-20868400D02*
X11085000Y-20868400D01*
X12320000Y-24573400D02*
X12320000Y-25808400D01*
X12320000Y-25808400D02*
X11085000Y-25808400D01*
D14*
X8750000Y-23163400D02*
X9750000Y-23163400D01*
X9250000Y-22738400D02*
X9250000Y-23538400D01*
G36*
X6200000Y-25788400D02*
G01*
X6750000Y-25788400D01*
X6750000Y-25338400D01*
X6200000Y-25338400D01*
X6200000Y-25788400D01*
G37*
X6200000Y-25788400D02*
X6750000Y-25788400D01*
X6750000Y-25338400D01*
X6200000Y-25338400D01*
X6200000Y-25788400D01*
D12*
X30380220Y-7234940D02*
X30380220Y-6984940D01*
X29420220Y-7234940D02*
X29420220Y-6984940D01*
X30292220Y-4708740D02*
X30292220Y-4448740D01*
X28492220Y-5548740D02*
X28492220Y-5808740D01*
X28492220Y-5808740D02*
X30292220Y-5808740D01*
X30292220Y-5808740D02*
X30292220Y-5548740D01*
X30292220Y-4448740D02*
X28492220Y-4448740D01*
X28492220Y-4448740D02*
X28492220Y-4708740D01*
X31102220Y-5288740D02*
X31102220Y-4968740D01*
D14*
X24056420Y-6565740D02*
G75*
G03X24056420Y-6565740I-20000J0D01*
G01*
D12*
X23230780Y-24837060D02*
X23230780Y-25387060D01*
X23230780Y-25387060D02*
X23780780Y-25387060D01*
X23230780Y-20777060D02*
X23230780Y-20227060D01*
X23230780Y-20227060D02*
X23780780Y-20227060D01*
X28390780Y-20777060D02*
X28390780Y-20227060D01*
X28390780Y-20227060D02*
X27840780Y-20227060D01*
X28390780Y-24837060D02*
X28390780Y-25387060D01*
X28390780Y-25387060D02*
X27840780Y-25387060D01*
X16227020Y-38222340D02*
X16227020Y-36342340D01*
X13527020Y-38222340D02*
X13527020Y-36342340D01*
X15281400Y-34753400D02*
X15281400Y-33193400D01*
X13711400Y-34753400D02*
X13711400Y-33193400D01*
M02*
