G04 #@! TF.GenerationSoftware,KiCad,Pcbnew,(5.1.0)-1*
G04 #@! TF.CreationDate,2019-05-03T21:31:27-07:00*
G04 #@! TF.ProjectId,Miniscope-v4-PCB-fab-assembly_2,4d696e69-7363-46f7-9065-2d76342d5043,rev?*
G04 #@! TF.SameCoordinates,PX4b8e5e4PY51f011c*
G04 #@! TF.FileFunction,Profile,NP*
%FSLAX46Y46*%
G04 Gerber Fmt 4.6, Leading zero omitted, Abs format (unit mm)*
G04 Created by KiCad (PCBNEW (5.1.0)-1) date 2019-05-03 21:31:27*
%MOMM*%
%LPD*%
G04 APERTURE LIST*
%ADD10C,0.150000*%
%ADD11C,0.152400*%
G04 APERTURE END LIST*
D10*
X19086420Y-3065740D02*
X19086420Y-4065740D01*
X32586420Y-2065740D02*
X20086420Y-2065740D01*
X33586420Y-3065740D02*
X33586420Y-4065740D01*
X33586420Y-11065740D02*
X33586420Y-9065740D01*
X20086420Y-12065740D02*
X32586420Y-12065740D01*
X19086420Y-9065740D02*
X19086420Y-11065740D01*
X20086420Y-12065740D02*
G75*
G02X19086420Y-11065740I0J1000000D01*
G01*
X33586420Y-11065740D02*
G75*
G02X32586420Y-12065740I-1000000J0D01*
G01*
X32586420Y-2065740D02*
G75*
G02X33586420Y-3065740I0J-1000000D01*
G01*
X19086420Y-3065740D02*
G75*
G02X20086420Y-2065740I1000000J0D01*
G01*
X31586420Y-9065740D02*
G75*
G02X33586420Y-9065740I1000000J0D01*
G01*
X33586420Y-4065740D02*
G75*
G02X31586420Y-4065740I-1000000J0D01*
G01*
X19086420Y-9065740D02*
G75*
G02X21086420Y-9065740I1000000J0D01*
G01*
X21086420Y-4065740D02*
G75*
G02X19086420Y-4065740I-1000000J0D01*
G01*
X19871380Y-16400660D02*
X22371380Y-16400660D01*
X18871380Y-26900660D02*
X18871380Y-17400660D01*
X22371380Y-25900660D02*
X20871380Y-25900660D01*
X22371380Y-27900660D02*
X19871380Y-27900660D01*
X29871380Y-27900660D02*
X27371380Y-27900660D01*
X30871380Y-17400660D02*
X30871380Y-26900660D01*
X27371380Y-16400660D02*
X29871380Y-16400660D01*
X27371380Y-18400660D02*
X28871380Y-18400660D01*
X18871380Y-17400660D02*
G75*
G02X19871380Y-16400660I1000000J0D01*
G01*
X19871380Y-27900660D02*
G75*
G02X18871380Y-26900660I0J1000000D01*
G01*
X30871380Y-26900660D02*
G75*
G02X29871380Y-27900660I-1000000J0D01*
G01*
X29871380Y-16400660D02*
G75*
G02X30871380Y-17400660I0J-1000000D01*
G01*
X27371380Y-18400660D02*
G75*
G02X27371380Y-16400660I0J1000000D01*
G01*
X22371380Y-16400660D02*
G75*
G02X22371380Y-18400660I0J-1000000D01*
G01*
X27371380Y-27900660D02*
G75*
G02X27371380Y-25900660I0J1000000D01*
G01*
X22371380Y-25900660D02*
G75*
G02X22371380Y-27900660I0J-1000000D01*
G01*
X18607420Y-30896540D02*
X18607420Y-33896540D01*
X3107420Y-29896540D02*
X17607420Y-29896540D01*
X2107420Y-33896540D02*
X2107420Y-30896540D01*
X2107420Y-41896540D02*
X2107420Y-38896540D01*
X17607420Y-42896540D02*
X3107420Y-42896540D01*
X18607420Y-38896540D02*
X18607420Y-41896540D01*
X17607420Y-29896540D02*
G75*
G02X18607420Y-30896540I0J-1000000D01*
G01*
X2107420Y-30896540D02*
G75*
G02X3107420Y-29896540I1000000J0D01*
G01*
X3107420Y-42896540D02*
G75*
G02X2107420Y-41896540I0J1000000D01*
G01*
X18607420Y-41896540D02*
G75*
G02X17607420Y-42896540I-1000000J0D01*
G01*
X16607420Y-38896540D02*
X16607420Y-40896540D01*
X4107420Y-31896540D02*
X4107420Y-33896540D01*
X16607420Y-38896540D02*
G75*
G02X18607420Y-38896540I1000000J0D01*
G01*
X18607420Y-33896540D02*
G75*
G02X16607420Y-33896540I-1000000J0D01*
G01*
X2107420Y-38896540D02*
G75*
G02X4107420Y-38896540I1000000J0D01*
G01*
X4107420Y-33896540D02*
G75*
G02X2107420Y-33896540I-1000000J0D01*
G01*
X4000000Y-20500000D02*
X4000000Y-18500000D01*
X14500000Y-18500000D02*
X14500000Y-20500000D01*
X16500000Y-25500000D02*
X16500000Y-28500000D01*
X14500000Y-25500000D02*
G75*
G02X16500000Y-25500000I1000000J0D01*
G01*
X16500000Y-20500000D02*
G75*
G02X14500000Y-20500000I-1000000J0D01*
G01*
X2000000Y-25500000D02*
G75*
G02X4000000Y-25500000I1000000J0D01*
G01*
X4000000Y-20500000D02*
G75*
G02X2000000Y-20500000I-1000000J0D01*
G01*
X3000000Y-29500000D02*
G75*
G02X2000000Y-28500000I0J1000000D01*
G01*
X16500000Y-28500000D02*
G75*
G02X15500000Y-29500000I-1000000J0D01*
G01*
X15500000Y-16500000D02*
G75*
G02X16500000Y-17500000I0J-1000000D01*
G01*
X16500000Y-20500000D02*
X16500000Y-17500000D01*
X3000000Y-29500000D02*
X15500000Y-29500000D01*
X2000000Y-25500000D02*
X2000000Y-28500000D01*
X2000000Y-17500000D02*
G75*
G02X3000000Y-16500000I1000000J0D01*
G01*
D11*
X4107420Y-38896540D02*
X4107420Y-40896540D01*
X16607420Y-33896540D02*
X16607420Y-31896540D01*
D10*
X4000000Y-27500000D02*
X14500000Y-27500000D01*
D11*
X16607420Y-31896540D02*
X4107420Y-31896540D01*
D10*
X0Y0D02*
X0Y-14500000D01*
X35500000Y0D02*
X0Y0D01*
X35500000Y-45000000D02*
X35500000Y0D01*
X33500000Y-45000000D02*
X35500000Y-45000000D01*
X0Y-45000000D02*
X33500000Y-45000000D01*
X0Y-14500000D02*
X0Y-45000000D01*
X2000000Y-17500000D02*
X2000000Y-20500000D01*
X15500000Y-16500000D02*
X3000000Y-16500000D01*
X14500000Y-18500000D02*
X4000000Y-18500000D01*
X14500000Y-27500000D02*
X14500000Y-25500000D01*
X4000000Y-25500000D02*
X4000000Y-27500000D01*
X29586420Y-9065740D02*
X31586420Y-9065740D01*
X27586420Y-9065740D02*
X29586420Y-9065740D01*
X26586420Y-10065740D02*
X27586420Y-9065740D01*
X24086420Y-9065740D02*
X25086420Y-10065740D01*
X24086420Y-4065740D02*
X21086420Y-4065740D01*
X31586420Y-4065740D02*
X24086420Y-4065740D01*
X25086420Y-10065740D02*
X26586420Y-10065740D01*
X21086420Y-9065740D02*
X24086420Y-9065740D01*
X20871380Y-18400660D02*
X22371380Y-18400660D01*
X20871380Y-25900660D02*
X20871380Y-18400660D01*
X28871380Y-25900660D02*
X27371380Y-25900660D01*
X28871380Y-18400660D02*
X28871380Y-25900660D01*
D11*
X4107420Y-40896540D02*
X16607420Y-40896540D01*
M02*
