G04 #@! TF.GenerationSoftware,KiCad,Pcbnew,(5.1.0)-1*
G04 #@! TF.CreationDate,2019-05-03T21:31:27-07:00*
G04 #@! TF.ProjectId,Miniscope-v4-PCB-fab-assembly_2,4d696e69-7363-46f7-9065-2d76342d5043,rev?*
G04 #@! TF.SameCoordinates,PX4b8e5e4PY51f011c*
G04 #@! TF.FileFunction,Copper,L4,Inr*
G04 #@! TF.FilePolarity,Positive*
%FSLAX46Y46*%
G04 Gerber Fmt 4.6, Leading zero omitted, Abs format (unit mm)*
G04 Created by KiCad (PCBNEW (5.1.0)-1) date 2019-05-03 21:31:27*
%MOMM*%
%LPD*%
G04 APERTURE LIST*
%ADD10C,0.355600*%
%ADD11C,0.450000*%
%ADD12C,0.304800*%
%ADD13C,0.203200*%
%ADD14C,0.152400*%
%ADD15C,0.127000*%
G04 APERTURE END LIST*
D10*
X13448800Y-25315600D03*
X13804400Y-27017400D03*
X4609600Y-26382400D03*
X4533400Y-19651400D03*
X6590800Y-19626000D03*
X5742800Y-23096000D03*
X12331200Y-20311800D03*
X7582899Y-23733600D03*
X7759200Y-22661600D03*
X8749800Y-21175400D03*
X9994400Y-21099200D03*
X12305800Y-22064400D03*
X7251197Y-25595003D03*
X5854200Y-25595000D03*
X5473200Y-21277000D03*
X5473200Y-21937400D03*
X12940800Y-24655200D03*
X12610600Y-25010800D03*
X9156198Y-25645800D03*
D11*
X31094020Y-4544540D03*
X26293420Y-9548340D03*
X26344220Y-6805140D03*
X23093020Y-4976340D03*
X25023420Y-4807440D03*
X28046020Y-4544540D03*
X29290620Y-4544540D03*
X27165920Y-8379939D03*
X23118420Y-6220940D03*
X26281580Y-19569060D03*
X21404780Y-25309460D03*
X23296180Y-19599060D03*
X25251980Y-23065150D03*
X26611780Y-23988662D03*
D10*
X13988020Y-33471340D03*
X15689820Y-34258740D03*
X8984220Y-35805600D03*
X8976600Y-36516800D03*
X15504400Y-37659800D03*
X12583400Y-37710600D03*
X9865600Y-35627800D03*
X10975580Y-39051720D03*
X8384780Y-35810680D03*
X8245080Y-37222920D03*
X4630660Y-32404540D03*
X6413000Y-37444600D03*
X6512800Y-39567340D03*
X13480020Y-35020740D03*
X5199620Y-38424340D03*
X4615420Y-36951140D03*
X13276820Y-33445936D03*
X8572000Y-20388000D03*
X5676400Y-19549806D03*
X5066800Y-20286400D03*
X14007600Y-19016400D03*
X5600200Y-26407811D03*
D11*
X21988980Y-19010260D03*
D10*
X4666220Y-38881540D03*
X15791420Y-35808140D03*
X5598405Y-32402000D03*
X4787400Y-25468000D03*
X6336774Y-25595000D03*
X10858000Y-23436000D03*
X9457890Y-23690000D03*
X4812800Y-24782200D03*
X13982200Y-24807600D03*
X13321800Y-26382400D03*
X6590800Y-20286400D03*
X6768587Y-25595000D03*
X10553200Y-21099200D03*
X11975600Y-25620400D03*
X27944380Y-21554860D03*
X23702580Y-23053460D03*
D11*
X22674780Y-24826858D03*
D10*
X23677180Y-22081919D03*
X14007600Y-19956200D03*
X5117600Y-26992000D03*
X7530600Y-19524400D03*
X6260600Y-24502800D03*
X11518400Y-21022994D03*
X8495800Y-22445400D03*
X4965200Y-21454800D03*
X12280401Y-23232800D03*
D11*
X26776020Y-8938740D03*
X27411020Y-4595340D03*
X27766620Y-5992340D03*
X22278420Y-7313140D03*
X31094020Y-8583140D03*
X26764180Y-18959460D03*
X22649380Y-19594460D03*
D10*
X5115805Y-33011600D03*
X4689080Y-35759880D03*
X14996400Y-33443400D03*
X6159000Y-23766200D03*
X10731000Y-22521600D03*
X9846600Y-20337200D03*
X13398000Y-24299600D03*
X7749601Y-25620400D03*
D11*
X23487580Y-25131660D03*
D10*
X7530600Y-26407810D03*
X9461000Y-26407810D03*
X10908800Y-26992000D03*
X12356600Y-26407800D03*
X13982200Y-22877200D03*
X8648200Y-23410600D03*
X7048000Y-26992000D03*
X8978400Y-26992000D03*
X10426200Y-26407810D03*
X12839200Y-27017400D03*
X13372600Y-21404000D03*
X5854200Y-24299600D03*
D11*
X22652488Y-22215929D03*
X28288180Y-25030060D03*
D10*
X14007600Y-21912000D03*
X7784600Y-23207400D03*
D11*
X21988980Y-21905860D03*
D10*
X27551580Y-25309460D03*
X13372600Y-22369200D03*
X8191000Y-23486800D03*
D11*
X21404780Y-22413860D03*
D10*
X27055380Y-24958460D03*
X8013200Y-26992000D03*
X9003800Y-23715400D03*
X8495800Y-26407810D03*
X9854878Y-23376516D03*
X11391400Y-26407810D03*
X10197600Y-23664606D03*
X14007600Y-20946800D03*
X7835400Y-21175400D03*
D11*
X28211980Y-19823060D03*
D10*
X13372600Y-20464200D03*
X8292600Y-21200800D03*
D11*
X28186580Y-19111860D03*
X21379380Y-19467460D03*
X23462180Y-20508860D03*
D10*
X14007600Y-23817000D03*
X6565400Y-26382400D03*
X13372600Y-23334400D03*
X6082800Y-26992000D03*
D11*
X28223780Y-20488060D03*
X25328220Y-9548340D03*
X25912420Y-6424140D03*
X31094020Y-8024340D03*
X25316363Y-19569060D03*
D10*
X26055738Y-24801460D03*
D11*
X25810820Y-8938740D03*
X25150420Y-5357340D03*
X28452420Y-8583140D03*
X25798980Y-18959460D03*
D10*
X26560980Y-25360260D03*
D11*
X24833780Y-18959460D03*
D10*
X25538009Y-20642831D03*
X25556780Y-25050950D03*
D11*
X24351180Y-19569060D03*
X28630220Y-4544540D03*
X29900220Y-4544540D03*
X21569020Y-5611340D03*
X27411020Y-5179534D03*
X24845620Y-8938740D03*
X24591620Y-5154140D03*
X24744020Y-8176740D03*
X23474020Y-7592540D03*
X21569020Y-7617940D03*
D10*
X5260580Y-39364140D03*
X7998000Y-39029600D03*
X13330160Y-32396920D03*
X14505000Y-32607740D03*
X8998000Y-34362889D03*
X10498000Y-34362889D03*
X8998000Y-39029600D03*
X14128000Y-39793400D03*
X8498000Y-39029600D03*
X7000480Y-39036480D03*
X7500860Y-39028860D03*
X9498000Y-39029600D03*
X10906999Y-33011600D03*
X6413000Y-35944600D03*
X7528803Y-32402000D03*
X6413000Y-35444600D03*
X7046203Y-33011600D03*
X6413000Y-34944600D03*
X6413000Y-36944600D03*
X6563604Y-32402000D03*
X4653520Y-37913801D03*
X6413000Y-36444600D03*
X6088527Y-33004077D03*
X5225020Y-37484540D03*
X5893396Y-39016516D03*
X12352488Y-32399744D03*
X11083000Y-36444600D03*
X11389599Y-32402000D03*
X11083000Y-35944600D03*
X10429480Y-32404540D03*
X11083000Y-35444600D03*
X9926560Y-33001440D03*
X11049240Y-34939460D03*
X8966440Y-33019220D03*
X9995140Y-34362889D03*
D12*
X13079207Y-33926001D02*
X13107147Y-33953941D01*
X15613621Y-35630341D02*
X15791420Y-35808140D01*
X6314681Y-33926001D02*
X13079207Y-33926001D01*
X13937221Y-33953941D02*
X15613621Y-35630341D01*
X5598405Y-33209725D02*
X6314681Y-33926001D01*
X13107147Y-33953941D02*
X13937221Y-33953941D01*
X5598405Y-32402000D02*
X5598405Y-33209725D01*
X13302220Y-38297340D02*
X15791420Y-35808140D01*
X5936220Y-38297340D02*
X13302220Y-38297340D01*
X5326620Y-38906940D02*
X5936220Y-38297340D01*
X4666220Y-38881540D02*
X4691620Y-38906940D01*
X4691620Y-38906940D02*
X5326620Y-38906940D01*
X5625601Y-26001401D02*
X5092200Y-25468000D01*
X6049273Y-26001401D02*
X5625601Y-26001401D01*
X6336774Y-25595000D02*
X6336774Y-25713900D01*
X6336774Y-25713900D02*
X6049273Y-26001401D01*
X6336774Y-25343553D02*
X6491728Y-25188599D01*
X6491728Y-25188599D02*
X8210738Y-25188599D01*
X8210738Y-25188599D02*
X9457890Y-23941447D01*
X6336774Y-25595000D02*
X6336774Y-25343553D01*
X9457890Y-23941447D02*
X9457890Y-23690000D01*
X5092200Y-25468000D02*
X4937247Y-25468000D01*
D13*
X23902179Y-21856920D02*
X23677180Y-22081919D01*
X24255039Y-21504060D02*
X23902179Y-21856920D01*
X27944380Y-21504060D02*
X24255039Y-21504060D01*
D14*
X22813580Y-22266060D02*
X23088380Y-22540860D01*
X23088380Y-22540860D02*
X26447378Y-22540860D01*
X26447378Y-22540860D02*
X28288180Y-24381662D01*
X28288180Y-24711862D02*
X28288180Y-25030060D01*
X28288180Y-24381662D02*
X28288180Y-24711862D01*
D13*
X26789580Y-23506060D02*
X27551580Y-24268060D01*
X27551580Y-25058013D02*
X27551580Y-25309460D01*
X23270982Y-23506060D02*
X26789580Y-23506060D01*
X21988980Y-22224058D02*
X23270982Y-23506060D01*
X21988980Y-21905860D02*
X21988980Y-22224058D01*
X27551580Y-24268060D02*
X27551580Y-25058013D01*
X26921180Y-24958460D02*
X27055380Y-24958460D01*
X21404780Y-22413860D02*
X23288980Y-24298060D01*
X23288980Y-24298060D02*
X26260780Y-24298060D01*
X26260780Y-24298060D02*
X26921180Y-24958460D01*
D15*
X11096780Y-36458380D02*
X11083000Y-36444600D01*
G36*
X4740417Y-20111945D02*
G01*
X4712654Y-20178971D01*
X4698500Y-20250126D01*
X4698500Y-20322674D01*
X4712654Y-20393829D01*
X4740417Y-20460855D01*
X4780723Y-20521178D01*
X4832022Y-20572477D01*
X4892345Y-20612783D01*
X4959371Y-20640546D01*
X5030526Y-20654700D01*
X5103074Y-20654700D01*
X5174229Y-20640546D01*
X5241255Y-20612783D01*
X5301578Y-20572477D01*
X5352877Y-20521178D01*
X5393183Y-20460855D01*
X5420946Y-20393829D01*
X5435100Y-20322674D01*
X5435100Y-20250126D01*
X5420946Y-20178971D01*
X5393183Y-20111945D01*
X5360814Y-20063500D01*
X8394727Y-20063500D01*
X8337222Y-20101923D01*
X8285923Y-20153222D01*
X8245617Y-20213545D01*
X8217854Y-20280571D01*
X8203700Y-20351726D01*
X8203700Y-20424274D01*
X8217854Y-20495429D01*
X8245617Y-20562455D01*
X8285923Y-20622778D01*
X8337222Y-20674077D01*
X8397545Y-20714383D01*
X8464571Y-20742146D01*
X8535726Y-20756300D01*
X8608274Y-20756300D01*
X8679429Y-20742146D01*
X8746455Y-20714383D01*
X8806778Y-20674077D01*
X8858077Y-20622778D01*
X8898383Y-20562455D01*
X8926146Y-20495429D01*
X8940300Y-20424274D01*
X8940300Y-20351726D01*
X8926146Y-20280571D01*
X8898383Y-20213545D01*
X8858077Y-20153222D01*
X8806778Y-20101923D01*
X8749273Y-20063500D01*
X9599445Y-20063500D01*
X9560523Y-20102422D01*
X9520217Y-20162745D01*
X9492454Y-20229771D01*
X9478300Y-20300926D01*
X9478300Y-20373474D01*
X9492454Y-20444629D01*
X9520217Y-20511655D01*
X9560523Y-20571978D01*
X9611822Y-20623277D01*
X9672145Y-20663583D01*
X9739171Y-20691346D01*
X9810326Y-20705500D01*
X9882874Y-20705500D01*
X9954029Y-20691346D01*
X10021055Y-20663583D01*
X10081378Y-20623277D01*
X10132677Y-20571978D01*
X10172983Y-20511655D01*
X10200746Y-20444629D01*
X10214900Y-20373474D01*
X10214900Y-20304702D01*
X11937637Y-22027439D01*
X11937500Y-22028126D01*
X11937500Y-22100674D01*
X11951654Y-22171829D01*
X11979417Y-22238855D01*
X12019723Y-22299178D01*
X12071022Y-22350477D01*
X12131345Y-22390783D01*
X12198371Y-22418546D01*
X12269526Y-22432700D01*
X12342074Y-22432700D01*
X12342761Y-22432563D01*
X13055800Y-23145602D01*
X13046217Y-23159945D01*
X13018454Y-23226971D01*
X13004300Y-23298126D01*
X13004300Y-23370674D01*
X13018454Y-23441829D01*
X13046217Y-23508855D01*
X13086523Y-23569178D01*
X13137822Y-23620477D01*
X13198145Y-23660783D01*
X13265171Y-23688546D01*
X13336326Y-23702700D01*
X13408874Y-23702700D01*
X13480029Y-23688546D01*
X13547055Y-23660783D01*
X13561398Y-23651200D01*
X13647865Y-23737667D01*
X13639300Y-23780726D01*
X13639300Y-23853274D01*
X13653454Y-23924429D01*
X13681217Y-23991455D01*
X13721523Y-24051778D01*
X13772822Y-24103077D01*
X13833145Y-24143383D01*
X13900171Y-24171146D01*
X13971326Y-24185300D01*
X14043874Y-24185300D01*
X14086933Y-24176735D01*
X14234500Y-24324302D01*
X14234500Y-26936500D01*
X14163823Y-26936500D01*
X14158546Y-26909971D01*
X14130783Y-26842945D01*
X14090477Y-26782622D01*
X14039178Y-26731323D01*
X13978855Y-26691017D01*
X13911829Y-26663254D01*
X13840674Y-26649100D01*
X13768126Y-26649100D01*
X13696971Y-26663254D01*
X13629945Y-26691017D01*
X13569622Y-26731323D01*
X13518323Y-26782622D01*
X13478017Y-26842945D01*
X13450254Y-26909971D01*
X13444977Y-26936500D01*
X13198623Y-26936500D01*
X13193346Y-26909971D01*
X13165583Y-26842945D01*
X13125277Y-26782622D01*
X13073978Y-26731323D01*
X13013655Y-26691017D01*
X12946629Y-26663254D01*
X12875474Y-26649100D01*
X12802926Y-26649100D01*
X12731771Y-26663254D01*
X12664745Y-26691017D01*
X12604422Y-26731323D01*
X12553123Y-26782622D01*
X12512817Y-26842945D01*
X12485054Y-26909971D01*
X12479777Y-26936500D01*
X11273276Y-26936500D01*
X11262946Y-26884571D01*
X11235183Y-26817545D01*
X11194877Y-26757222D01*
X11143578Y-26705923D01*
X11083255Y-26665617D01*
X11016229Y-26637854D01*
X10945074Y-26623700D01*
X10872526Y-26623700D01*
X10801371Y-26637854D01*
X10734345Y-26665617D01*
X10674022Y-26705923D01*
X10622723Y-26757222D01*
X10582417Y-26817545D01*
X10554654Y-26884571D01*
X10544324Y-26936500D01*
X9342876Y-26936500D01*
X9332546Y-26884571D01*
X9304783Y-26817545D01*
X9264477Y-26757222D01*
X9213178Y-26705923D01*
X9152855Y-26665617D01*
X9085829Y-26637854D01*
X9014674Y-26623700D01*
X8942126Y-26623700D01*
X8870971Y-26637854D01*
X8803945Y-26665617D01*
X8743622Y-26705923D01*
X8692323Y-26757222D01*
X8652017Y-26817545D01*
X8624254Y-26884571D01*
X8613924Y-26936500D01*
X8377676Y-26936500D01*
X8367346Y-26884571D01*
X8339583Y-26817545D01*
X8299277Y-26757222D01*
X8247978Y-26705923D01*
X8187655Y-26665617D01*
X8120629Y-26637854D01*
X8049474Y-26623700D01*
X7976926Y-26623700D01*
X7905771Y-26637854D01*
X7838745Y-26665617D01*
X7778422Y-26705923D01*
X7727123Y-26757222D01*
X7686817Y-26817545D01*
X7659054Y-26884571D01*
X7648724Y-26936500D01*
X7412476Y-26936500D01*
X7402146Y-26884571D01*
X7374383Y-26817545D01*
X7334077Y-26757222D01*
X7282778Y-26705923D01*
X7222455Y-26665617D01*
X7155429Y-26637854D01*
X7084274Y-26623700D01*
X7011726Y-26623700D01*
X6940571Y-26637854D01*
X6873545Y-26665617D01*
X6813222Y-26705923D01*
X6761923Y-26757222D01*
X6721617Y-26817545D01*
X6693854Y-26884571D01*
X6683524Y-26936500D01*
X6447276Y-26936500D01*
X6436946Y-26884571D01*
X6409183Y-26817545D01*
X6368877Y-26757222D01*
X6317578Y-26705923D01*
X6257255Y-26665617D01*
X6190229Y-26637854D01*
X6119074Y-26623700D01*
X6046526Y-26623700D01*
X5975371Y-26637854D01*
X5908345Y-26665617D01*
X5848022Y-26705923D01*
X5796723Y-26757222D01*
X5756417Y-26817545D01*
X5728654Y-26884571D01*
X5718324Y-26936500D01*
X5526302Y-26936500D01*
X5469888Y-26880086D01*
X5443983Y-26817545D01*
X5403677Y-26757222D01*
X5352378Y-26705923D01*
X5292055Y-26665617D01*
X5229514Y-26639712D01*
X4977900Y-26388098D01*
X4977900Y-26346126D01*
X4963746Y-26274971D01*
X4935983Y-26207945D01*
X4895677Y-26147622D01*
X4844378Y-26096323D01*
X4784055Y-26056017D01*
X4717029Y-26028254D01*
X4645874Y-26014100D01*
X4603902Y-26014100D01*
X4313500Y-25723698D01*
X4313500Y-25431726D01*
X4419100Y-25431726D01*
X4419100Y-25504274D01*
X4433254Y-25575429D01*
X4461017Y-25642455D01*
X4501323Y-25702778D01*
X4552622Y-25754077D01*
X4612945Y-25794383D01*
X4679971Y-25822146D01*
X4751126Y-25836300D01*
X4823674Y-25836300D01*
X4894829Y-25822146D01*
X4921979Y-25810900D01*
X4950167Y-25810900D01*
X5313392Y-26174126D01*
X5273817Y-26233356D01*
X5246054Y-26300382D01*
X5231900Y-26371537D01*
X5231900Y-26444085D01*
X5246054Y-26515240D01*
X5273817Y-26582266D01*
X5314123Y-26642589D01*
X5365422Y-26693888D01*
X5425745Y-26734194D01*
X5492771Y-26761957D01*
X5563926Y-26776111D01*
X5636474Y-26776111D01*
X5707629Y-26761957D01*
X5774655Y-26734194D01*
X5834978Y-26693888D01*
X5886277Y-26642589D01*
X5926583Y-26582266D01*
X5954346Y-26515240D01*
X5968500Y-26444085D01*
X5968500Y-26371537D01*
X5963082Y-26344301D01*
X6032438Y-26344301D01*
X6049273Y-26345959D01*
X6066108Y-26344301D01*
X6066116Y-26344301D01*
X6116493Y-26339339D01*
X6181130Y-26319732D01*
X6204875Y-26307040D01*
X6197100Y-26346126D01*
X6197100Y-26418674D01*
X6211254Y-26489829D01*
X6239017Y-26556855D01*
X6279323Y-26617178D01*
X6330622Y-26668477D01*
X6390945Y-26708783D01*
X6457971Y-26736546D01*
X6529126Y-26750700D01*
X6601674Y-26750700D01*
X6672829Y-26736546D01*
X6739855Y-26708783D01*
X6800178Y-26668477D01*
X6851477Y-26617178D01*
X6891783Y-26556855D01*
X6919546Y-26489829D01*
X6933700Y-26418674D01*
X6933700Y-26371536D01*
X7162300Y-26371536D01*
X7162300Y-26444084D01*
X7176454Y-26515239D01*
X7204217Y-26582265D01*
X7244523Y-26642588D01*
X7295822Y-26693887D01*
X7356145Y-26734193D01*
X7423171Y-26761956D01*
X7494326Y-26776110D01*
X7566874Y-26776110D01*
X7638029Y-26761956D01*
X7705055Y-26734193D01*
X7765378Y-26693887D01*
X7816677Y-26642588D01*
X7856983Y-26582265D01*
X7884746Y-26515239D01*
X7898900Y-26444084D01*
X7898900Y-26371536D01*
X8127500Y-26371536D01*
X8127500Y-26444084D01*
X8141654Y-26515239D01*
X8169417Y-26582265D01*
X8209723Y-26642588D01*
X8261022Y-26693887D01*
X8321345Y-26734193D01*
X8388371Y-26761956D01*
X8459526Y-26776110D01*
X8532074Y-26776110D01*
X8603229Y-26761956D01*
X8670255Y-26734193D01*
X8730578Y-26693887D01*
X8781877Y-26642588D01*
X8822183Y-26582265D01*
X8849946Y-26515239D01*
X8864100Y-26444084D01*
X8864100Y-26371536D01*
X9092700Y-26371536D01*
X9092700Y-26444084D01*
X9106854Y-26515239D01*
X9134617Y-26582265D01*
X9174923Y-26642588D01*
X9226222Y-26693887D01*
X9286545Y-26734193D01*
X9353571Y-26761956D01*
X9424726Y-26776110D01*
X9497274Y-26776110D01*
X9568429Y-26761956D01*
X9635455Y-26734193D01*
X9695778Y-26693887D01*
X9747077Y-26642588D01*
X9787383Y-26582265D01*
X9815146Y-26515239D01*
X9829300Y-26444084D01*
X9829300Y-26371536D01*
X10057900Y-26371536D01*
X10057900Y-26444084D01*
X10072054Y-26515239D01*
X10099817Y-26582265D01*
X10140123Y-26642588D01*
X10191422Y-26693887D01*
X10251745Y-26734193D01*
X10318771Y-26761956D01*
X10389926Y-26776110D01*
X10462474Y-26776110D01*
X10533629Y-26761956D01*
X10600655Y-26734193D01*
X10660978Y-26693887D01*
X10712277Y-26642588D01*
X10752583Y-26582265D01*
X10780346Y-26515239D01*
X10794500Y-26444084D01*
X10794500Y-26371536D01*
X11023100Y-26371536D01*
X11023100Y-26444084D01*
X11037254Y-26515239D01*
X11065017Y-26582265D01*
X11105323Y-26642588D01*
X11156622Y-26693887D01*
X11216945Y-26734193D01*
X11283971Y-26761956D01*
X11355126Y-26776110D01*
X11427674Y-26776110D01*
X11498829Y-26761956D01*
X11565855Y-26734193D01*
X11626178Y-26693887D01*
X11677477Y-26642588D01*
X11717783Y-26582265D01*
X11745546Y-26515239D01*
X11759700Y-26444084D01*
X11759700Y-26371536D01*
X11759699Y-26371526D01*
X11988300Y-26371526D01*
X11988300Y-26444074D01*
X12002454Y-26515229D01*
X12030217Y-26582255D01*
X12070523Y-26642578D01*
X12121822Y-26693877D01*
X12182145Y-26734183D01*
X12249171Y-26761946D01*
X12320326Y-26776100D01*
X12392874Y-26776100D01*
X12464029Y-26761946D01*
X12531055Y-26734183D01*
X12591378Y-26693877D01*
X12642677Y-26642578D01*
X12682983Y-26582255D01*
X12710746Y-26515229D01*
X12724900Y-26444074D01*
X12724900Y-26371526D01*
X12710746Y-26300371D01*
X12682983Y-26233345D01*
X12642677Y-26173022D01*
X12591378Y-26121723D01*
X12531055Y-26081417D01*
X12464029Y-26053654D01*
X12392874Y-26039500D01*
X12320326Y-26039500D01*
X12249171Y-26053654D01*
X12182145Y-26081417D01*
X12121822Y-26121723D01*
X12070523Y-26173022D01*
X12030217Y-26233345D01*
X12002454Y-26300371D01*
X11988300Y-26371526D01*
X11759699Y-26371526D01*
X11745546Y-26300381D01*
X11717783Y-26233355D01*
X11677477Y-26173032D01*
X11626178Y-26121733D01*
X11565855Y-26081427D01*
X11498829Y-26053664D01*
X11427674Y-26039510D01*
X11355126Y-26039510D01*
X11283971Y-26053664D01*
X11216945Y-26081427D01*
X11156622Y-26121733D01*
X11105323Y-26173032D01*
X11065017Y-26233355D01*
X11037254Y-26300381D01*
X11023100Y-26371536D01*
X10794500Y-26371536D01*
X10780346Y-26300381D01*
X10752583Y-26233355D01*
X10712277Y-26173032D01*
X10660978Y-26121733D01*
X10600655Y-26081427D01*
X10533629Y-26053664D01*
X10462474Y-26039510D01*
X10389926Y-26039510D01*
X10318771Y-26053664D01*
X10251745Y-26081427D01*
X10191422Y-26121733D01*
X10140123Y-26173032D01*
X10099817Y-26233355D01*
X10072054Y-26300381D01*
X10057900Y-26371536D01*
X9829300Y-26371536D01*
X9815146Y-26300381D01*
X9787383Y-26233355D01*
X9747077Y-26173032D01*
X9695778Y-26121733D01*
X9635455Y-26081427D01*
X9568429Y-26053664D01*
X9497274Y-26039510D01*
X9424726Y-26039510D01*
X9353571Y-26053664D01*
X9286545Y-26081427D01*
X9226222Y-26121733D01*
X9174923Y-26173032D01*
X9134617Y-26233355D01*
X9106854Y-26300381D01*
X9092700Y-26371536D01*
X8864100Y-26371536D01*
X8849946Y-26300381D01*
X8822183Y-26233355D01*
X8781877Y-26173032D01*
X8730578Y-26121733D01*
X8670255Y-26081427D01*
X8603229Y-26053664D01*
X8532074Y-26039510D01*
X8459526Y-26039510D01*
X8388371Y-26053664D01*
X8321345Y-26081427D01*
X8261022Y-26121733D01*
X8209723Y-26173032D01*
X8169417Y-26233355D01*
X8141654Y-26300381D01*
X8127500Y-26371536D01*
X7898900Y-26371536D01*
X7884746Y-26300381D01*
X7856983Y-26233355D01*
X7816677Y-26173032D01*
X7765378Y-26121733D01*
X7705055Y-26081427D01*
X7638029Y-26053664D01*
X7566874Y-26039510D01*
X7494326Y-26039510D01*
X7423171Y-26053664D01*
X7356145Y-26081427D01*
X7295822Y-26121733D01*
X7244523Y-26173032D01*
X7204217Y-26233355D01*
X7176454Y-26300381D01*
X7162300Y-26371536D01*
X6933700Y-26371536D01*
X6933700Y-26346126D01*
X6919546Y-26274971D01*
X6891783Y-26207945D01*
X6851477Y-26147622D01*
X6800178Y-26096323D01*
X6739855Y-26056017D01*
X6672829Y-26028254D01*
X6601674Y-26014100D01*
X6529126Y-26014100D01*
X6519615Y-26015992D01*
X6567326Y-25968281D01*
X6580414Y-25957540D01*
X6623264Y-25905327D01*
X6636226Y-25881077D01*
X6655105Y-25845757D01*
X6674712Y-25781120D01*
X6679824Y-25729216D01*
X6690920Y-25702429D01*
X6705074Y-25631274D01*
X6705074Y-25558726D01*
X6699658Y-25531499D01*
X6888314Y-25531499D01*
X6882897Y-25558729D01*
X6882897Y-25631277D01*
X6897051Y-25702432D01*
X6924814Y-25769458D01*
X6965120Y-25829781D01*
X7016419Y-25881080D01*
X7076742Y-25921386D01*
X7143768Y-25949149D01*
X7214923Y-25963303D01*
X7287471Y-25963303D01*
X7358626Y-25949149D01*
X7425652Y-25921386D01*
X7485975Y-25881080D01*
X7487701Y-25879355D01*
X7514823Y-25906477D01*
X7575146Y-25946783D01*
X7642172Y-25974546D01*
X7713327Y-25988700D01*
X7785875Y-25988700D01*
X7857030Y-25974546D01*
X7924056Y-25946783D01*
X7984379Y-25906477D01*
X8035678Y-25855178D01*
X8075984Y-25794855D01*
X8103747Y-25727829D01*
X8117901Y-25656674D01*
X8117901Y-25609526D01*
X8787898Y-25609526D01*
X8787898Y-25682074D01*
X8802052Y-25753229D01*
X8829815Y-25820255D01*
X8870121Y-25880578D01*
X8921420Y-25931877D01*
X8981743Y-25972183D01*
X9048769Y-25999946D01*
X9119924Y-26014100D01*
X9192472Y-26014100D01*
X9263627Y-25999946D01*
X9330653Y-25972183D01*
X9390976Y-25931877D01*
X9442275Y-25880578D01*
X9482581Y-25820255D01*
X9510344Y-25753229D01*
X9524498Y-25682074D01*
X9524498Y-25609526D01*
X9510344Y-25538371D01*
X9482581Y-25471345D01*
X9442275Y-25411022D01*
X9390976Y-25359723D01*
X9330653Y-25319417D01*
X9263627Y-25291654D01*
X9192472Y-25277500D01*
X9119924Y-25277500D01*
X9048769Y-25291654D01*
X8981743Y-25319417D01*
X8921420Y-25359723D01*
X8870121Y-25411022D01*
X8829815Y-25471345D01*
X8802052Y-25538371D01*
X8787898Y-25609526D01*
X8117901Y-25609526D01*
X8117901Y-25584126D01*
X8107433Y-25531499D01*
X8193903Y-25531499D01*
X8210738Y-25533157D01*
X8227573Y-25531499D01*
X8227581Y-25531499D01*
X8277958Y-25526537D01*
X8342595Y-25506930D01*
X8402165Y-25475089D01*
X8454378Y-25432239D01*
X8465119Y-25419151D01*
X8909744Y-24974526D01*
X12242300Y-24974526D01*
X12242300Y-25047074D01*
X12256454Y-25118229D01*
X12284217Y-25185255D01*
X12324523Y-25245578D01*
X12375822Y-25296877D01*
X12436145Y-25337183D01*
X12503171Y-25364946D01*
X12574326Y-25379100D01*
X12646874Y-25379100D01*
X12718029Y-25364946D01*
X12785055Y-25337183D01*
X12845378Y-25296877D01*
X12862929Y-25279326D01*
X13080500Y-25279326D01*
X13080500Y-25351874D01*
X13094654Y-25423029D01*
X13122417Y-25490055D01*
X13162723Y-25550378D01*
X13214022Y-25601677D01*
X13274345Y-25641983D01*
X13341371Y-25669746D01*
X13412526Y-25683900D01*
X13485074Y-25683900D01*
X13556229Y-25669746D01*
X13623255Y-25641983D01*
X13683578Y-25601677D01*
X13734877Y-25550378D01*
X13775183Y-25490055D01*
X13802946Y-25423029D01*
X13817100Y-25351874D01*
X13817100Y-25279326D01*
X13802946Y-25208171D01*
X13775183Y-25141145D01*
X13734877Y-25080822D01*
X13683578Y-25029523D01*
X13623255Y-24989217D01*
X13556229Y-24961454D01*
X13485074Y-24947300D01*
X13412526Y-24947300D01*
X13341371Y-24961454D01*
X13274345Y-24989217D01*
X13214022Y-25029523D01*
X13162723Y-25080822D01*
X13122417Y-25141145D01*
X13094654Y-25208171D01*
X13080500Y-25279326D01*
X12862929Y-25279326D01*
X12896677Y-25245578D01*
X12936983Y-25185255D01*
X12964746Y-25118229D01*
X12978900Y-25047074D01*
X12978900Y-25023137D01*
X13048229Y-25009346D01*
X13115255Y-24981583D01*
X13175578Y-24941277D01*
X13226877Y-24889978D01*
X13267183Y-24829655D01*
X13294946Y-24762629D01*
X13309100Y-24691474D01*
X13309100Y-24657432D01*
X13361726Y-24667900D01*
X13434274Y-24667900D01*
X13505429Y-24653746D01*
X13572455Y-24625983D01*
X13632778Y-24585677D01*
X13684077Y-24534378D01*
X13724383Y-24474055D01*
X13752146Y-24407029D01*
X13766300Y-24335874D01*
X13766300Y-24263326D01*
X13752146Y-24192171D01*
X13724383Y-24125145D01*
X13684077Y-24064822D01*
X13632778Y-24013523D01*
X13572455Y-23973217D01*
X13505429Y-23945454D01*
X13434274Y-23931300D01*
X13361726Y-23931300D01*
X13290571Y-23945454D01*
X13223545Y-23973217D01*
X13163222Y-24013523D01*
X13111923Y-24064822D01*
X13071617Y-24125145D01*
X13043854Y-24192171D01*
X13029700Y-24263326D01*
X13029700Y-24297368D01*
X12977074Y-24286900D01*
X12904526Y-24286900D01*
X12833371Y-24301054D01*
X12766345Y-24328817D01*
X12706022Y-24369123D01*
X12654723Y-24420422D01*
X12614417Y-24480745D01*
X12586654Y-24547771D01*
X12572500Y-24618926D01*
X12572500Y-24642863D01*
X12503171Y-24656654D01*
X12436145Y-24684417D01*
X12375822Y-24724723D01*
X12324523Y-24776022D01*
X12284217Y-24836345D01*
X12256454Y-24903371D01*
X12242300Y-24974526D01*
X8909744Y-24974526D01*
X9688452Y-24195819D01*
X9701529Y-24185087D01*
X9712262Y-24172009D01*
X9712266Y-24172005D01*
X9735755Y-24143383D01*
X9744380Y-24132874D01*
X9776221Y-24073304D01*
X9795828Y-24008667D01*
X9800790Y-23958290D01*
X9800790Y-23958283D01*
X9802448Y-23941448D01*
X9800790Y-23924613D01*
X9800790Y-23824579D01*
X9812036Y-23797429D01*
X9822502Y-23744816D01*
X9838040Y-23744816D01*
X9843454Y-23772035D01*
X9871217Y-23839061D01*
X9911523Y-23899384D01*
X9962822Y-23950683D01*
X10023145Y-23990989D01*
X10090171Y-24018752D01*
X10161326Y-24032906D01*
X10233874Y-24032906D01*
X10305029Y-24018752D01*
X10372055Y-23990989D01*
X10432378Y-23950683D01*
X10483677Y-23899384D01*
X10523983Y-23839061D01*
X10551746Y-23772035D01*
X10565900Y-23700880D01*
X10565900Y-23661764D01*
X10571923Y-23670778D01*
X10623222Y-23722077D01*
X10683545Y-23762383D01*
X10750571Y-23790146D01*
X10821726Y-23804300D01*
X10894274Y-23804300D01*
X10965429Y-23790146D01*
X11032455Y-23762383D01*
X11092778Y-23722077D01*
X11144077Y-23670778D01*
X11184383Y-23610455D01*
X11212146Y-23543429D01*
X11226300Y-23472274D01*
X11226300Y-23399726D01*
X11212146Y-23328571D01*
X11184383Y-23261545D01*
X11144077Y-23201222D01*
X11139381Y-23196526D01*
X11912101Y-23196526D01*
X11912101Y-23269074D01*
X11926255Y-23340229D01*
X11954018Y-23407255D01*
X11994324Y-23467578D01*
X12045623Y-23518877D01*
X12105946Y-23559183D01*
X12172972Y-23586946D01*
X12244127Y-23601100D01*
X12316675Y-23601100D01*
X12387830Y-23586946D01*
X12454856Y-23559183D01*
X12515179Y-23518877D01*
X12566478Y-23467578D01*
X12606784Y-23407255D01*
X12634547Y-23340229D01*
X12648701Y-23269074D01*
X12648701Y-23196526D01*
X12634547Y-23125371D01*
X12606784Y-23058345D01*
X12566478Y-22998022D01*
X12515179Y-22946723D01*
X12454856Y-22906417D01*
X12387830Y-22878654D01*
X12316675Y-22864500D01*
X12244127Y-22864500D01*
X12172972Y-22878654D01*
X12105946Y-22906417D01*
X12045623Y-22946723D01*
X11994324Y-22998022D01*
X11954018Y-23058345D01*
X11926255Y-23125371D01*
X11912101Y-23196526D01*
X11139381Y-23196526D01*
X11092778Y-23149923D01*
X11032455Y-23109617D01*
X10965429Y-23081854D01*
X10894274Y-23067700D01*
X10821726Y-23067700D01*
X10750571Y-23081854D01*
X10683545Y-23109617D01*
X10623222Y-23149923D01*
X10571923Y-23201222D01*
X10531617Y-23261545D01*
X10503854Y-23328571D01*
X10489700Y-23399726D01*
X10489700Y-23438842D01*
X10483677Y-23429828D01*
X10432378Y-23378529D01*
X10372055Y-23338223D01*
X10305029Y-23310460D01*
X10233874Y-23296306D01*
X10214438Y-23296306D01*
X10209024Y-23269087D01*
X10181261Y-23202061D01*
X10140955Y-23141738D01*
X10089656Y-23090439D01*
X10029333Y-23050133D01*
X9962307Y-23022370D01*
X9891152Y-23008216D01*
X9818604Y-23008216D01*
X9747449Y-23022370D01*
X9680423Y-23050133D01*
X9620100Y-23090439D01*
X9568801Y-23141738D01*
X9528495Y-23202061D01*
X9500732Y-23269087D01*
X9490266Y-23321700D01*
X9421616Y-23321700D01*
X9350461Y-23335854D01*
X9283435Y-23363617D01*
X9223112Y-23403923D01*
X9214080Y-23412955D01*
X9178255Y-23389017D01*
X9111229Y-23361254D01*
X9040074Y-23347100D01*
X9011084Y-23347100D01*
X9002346Y-23303171D01*
X8974583Y-23236145D01*
X8934277Y-23175822D01*
X8882978Y-23124523D01*
X8822655Y-23084217D01*
X8755629Y-23056454D01*
X8684474Y-23042300D01*
X8611926Y-23042300D01*
X8540771Y-23056454D01*
X8473745Y-23084217D01*
X8413422Y-23124523D01*
X8372692Y-23165253D01*
X8365455Y-23160417D01*
X8298429Y-23132654D01*
X8227274Y-23118500D01*
X8154726Y-23118500D01*
X8142900Y-23120852D01*
X8138746Y-23099971D01*
X8110983Y-23032945D01*
X8070677Y-22972622D01*
X8019855Y-22921800D01*
X8045277Y-22896378D01*
X8085583Y-22836055D01*
X8113346Y-22769029D01*
X8127500Y-22697874D01*
X8127500Y-22625326D01*
X8113346Y-22554171D01*
X8085583Y-22487145D01*
X8045277Y-22426822D01*
X8027581Y-22409126D01*
X8127500Y-22409126D01*
X8127500Y-22481674D01*
X8141654Y-22552829D01*
X8169417Y-22619855D01*
X8209723Y-22680178D01*
X8261022Y-22731477D01*
X8321345Y-22771783D01*
X8388371Y-22799546D01*
X8459526Y-22813700D01*
X8532074Y-22813700D01*
X8603229Y-22799546D01*
X8670255Y-22771783D01*
X8730578Y-22731477D01*
X8781877Y-22680178D01*
X8822183Y-22619855D01*
X8849946Y-22552829D01*
X8863373Y-22485326D01*
X10362700Y-22485326D01*
X10362700Y-22557874D01*
X10376854Y-22629029D01*
X10404617Y-22696055D01*
X10444923Y-22756378D01*
X10496222Y-22807677D01*
X10556545Y-22847983D01*
X10623571Y-22875746D01*
X10694726Y-22889900D01*
X10767274Y-22889900D01*
X10838429Y-22875746D01*
X10905455Y-22847983D01*
X10965778Y-22807677D01*
X11017077Y-22756378D01*
X11057383Y-22696055D01*
X11085146Y-22629029D01*
X11099300Y-22557874D01*
X11099300Y-22485326D01*
X11085146Y-22414171D01*
X11057383Y-22347145D01*
X11017077Y-22286822D01*
X10965778Y-22235523D01*
X10905455Y-22195217D01*
X10838429Y-22167454D01*
X10767274Y-22153300D01*
X10694726Y-22153300D01*
X10623571Y-22167454D01*
X10556545Y-22195217D01*
X10496222Y-22235523D01*
X10444923Y-22286822D01*
X10404617Y-22347145D01*
X10376854Y-22414171D01*
X10362700Y-22485326D01*
X8863373Y-22485326D01*
X8864100Y-22481674D01*
X8864100Y-22409126D01*
X8849946Y-22337971D01*
X8822183Y-22270945D01*
X8781877Y-22210622D01*
X8730578Y-22159323D01*
X8670255Y-22119017D01*
X8603229Y-22091254D01*
X8532074Y-22077100D01*
X8459526Y-22077100D01*
X8388371Y-22091254D01*
X8321345Y-22119017D01*
X8261022Y-22159323D01*
X8209723Y-22210622D01*
X8169417Y-22270945D01*
X8141654Y-22337971D01*
X8127500Y-22409126D01*
X8027581Y-22409126D01*
X7993978Y-22375523D01*
X7933655Y-22335217D01*
X7866629Y-22307454D01*
X7795474Y-22293300D01*
X7722926Y-22293300D01*
X7651771Y-22307454D01*
X7584745Y-22335217D01*
X7524422Y-22375523D01*
X7473123Y-22426822D01*
X7432817Y-22487145D01*
X7405054Y-22554171D01*
X7390900Y-22625326D01*
X7390900Y-22697874D01*
X7405054Y-22769029D01*
X7432817Y-22836055D01*
X7473123Y-22896378D01*
X7523945Y-22947200D01*
X7498523Y-22972622D01*
X7458217Y-23032945D01*
X7430454Y-23099971D01*
X7416300Y-23171126D01*
X7416300Y-23243674D01*
X7430454Y-23314829D01*
X7458217Y-23381855D01*
X7460700Y-23385572D01*
X7408444Y-23407217D01*
X7348121Y-23447523D01*
X7296822Y-23498822D01*
X7256516Y-23559145D01*
X7228753Y-23626171D01*
X7214599Y-23697326D01*
X7214599Y-23769874D01*
X7228753Y-23841029D01*
X7256516Y-23908055D01*
X7296822Y-23968378D01*
X7348121Y-24019677D01*
X7408444Y-24059983D01*
X7475470Y-24087746D01*
X7546625Y-24101900D01*
X7619173Y-24101900D01*
X7690328Y-24087746D01*
X7757354Y-24059983D01*
X7817677Y-24019677D01*
X7868976Y-23968378D01*
X7909282Y-23908055D01*
X7937045Y-23841029D01*
X7951199Y-23769874D01*
X7951199Y-23767854D01*
X7956222Y-23772877D01*
X8016545Y-23813183D01*
X8083571Y-23840946D01*
X8154726Y-23855100D01*
X8227274Y-23855100D01*
X8298429Y-23840946D01*
X8365455Y-23813183D01*
X8425778Y-23772877D01*
X8466508Y-23732147D01*
X8473745Y-23736983D01*
X8540771Y-23764746D01*
X8611926Y-23778900D01*
X8640916Y-23778900D01*
X8649654Y-23822829D01*
X8677417Y-23889855D01*
X8717723Y-23950178D01*
X8769022Y-24001477D01*
X8829345Y-24041783D01*
X8859945Y-24054458D01*
X8068705Y-24845699D01*
X6508562Y-24845699D01*
X6491727Y-24844041D01*
X6474892Y-24845699D01*
X6474885Y-24845699D01*
X6424508Y-24850661D01*
X6359871Y-24870268D01*
X6300301Y-24902109D01*
X6248088Y-24944959D01*
X6237347Y-24958047D01*
X6106218Y-25089176D01*
X6093135Y-25099913D01*
X6050284Y-25152126D01*
X6018443Y-25211696D01*
X6004244Y-25258506D01*
X5961629Y-25240854D01*
X5890474Y-25226700D01*
X5817926Y-25226700D01*
X5746771Y-25240854D01*
X5679745Y-25268617D01*
X5619422Y-25308923D01*
X5568123Y-25360222D01*
X5528563Y-25419429D01*
X5346581Y-25237448D01*
X5335840Y-25224360D01*
X5283627Y-25181510D01*
X5224057Y-25149669D01*
X5159420Y-25130062D01*
X5109043Y-25125100D01*
X5109035Y-25125100D01*
X5092200Y-25123442D01*
X5075365Y-25125100D01*
X4921979Y-25125100D01*
X4894829Y-25113854D01*
X4823674Y-25099700D01*
X4751126Y-25099700D01*
X4679971Y-25113854D01*
X4612945Y-25141617D01*
X4552622Y-25181923D01*
X4501323Y-25233222D01*
X4461017Y-25293545D01*
X4433254Y-25360571D01*
X4419100Y-25431726D01*
X4313500Y-25431726D01*
X4313500Y-24263326D01*
X5485900Y-24263326D01*
X5485900Y-24335874D01*
X5500054Y-24407029D01*
X5527817Y-24474055D01*
X5568123Y-24534378D01*
X5619422Y-24585677D01*
X5679745Y-24625983D01*
X5746771Y-24653746D01*
X5817926Y-24667900D01*
X5890474Y-24667900D01*
X5927307Y-24660573D01*
X5934217Y-24677255D01*
X5974523Y-24737578D01*
X6025822Y-24788877D01*
X6086145Y-24829183D01*
X6153171Y-24856946D01*
X6224326Y-24871100D01*
X6296874Y-24871100D01*
X6368029Y-24856946D01*
X6435055Y-24829183D01*
X6495378Y-24788877D01*
X6546677Y-24737578D01*
X6586983Y-24677255D01*
X6614746Y-24610229D01*
X6628900Y-24539074D01*
X6628900Y-24466526D01*
X6614746Y-24395371D01*
X6586983Y-24328345D01*
X6546677Y-24268022D01*
X6495378Y-24216723D01*
X6435055Y-24176417D01*
X6368029Y-24148654D01*
X6296874Y-24134500D01*
X6224326Y-24134500D01*
X6187493Y-24141827D01*
X6184458Y-24134500D01*
X6195274Y-24134500D01*
X6266429Y-24120346D01*
X6333455Y-24092583D01*
X6393778Y-24052277D01*
X6445077Y-24000978D01*
X6485383Y-23940655D01*
X6513146Y-23873629D01*
X6527300Y-23802474D01*
X6527300Y-23729926D01*
X6513146Y-23658771D01*
X6485383Y-23591745D01*
X6445077Y-23531422D01*
X6393778Y-23480123D01*
X6333455Y-23439817D01*
X6266429Y-23412054D01*
X6195274Y-23397900D01*
X6122726Y-23397900D01*
X6051571Y-23412054D01*
X5984545Y-23439817D01*
X5924222Y-23480123D01*
X5872923Y-23531422D01*
X5832617Y-23591745D01*
X5804854Y-23658771D01*
X5790700Y-23729926D01*
X5790700Y-23802474D01*
X5804854Y-23873629D01*
X5828742Y-23931300D01*
X5817926Y-23931300D01*
X5746771Y-23945454D01*
X5679745Y-23973217D01*
X5619422Y-24013523D01*
X5568123Y-24064822D01*
X5527817Y-24125145D01*
X5500054Y-24192171D01*
X5485900Y-24263326D01*
X4313500Y-24263326D01*
X4313500Y-23059726D01*
X5374500Y-23059726D01*
X5374500Y-23132274D01*
X5388654Y-23203429D01*
X5416417Y-23270455D01*
X5456723Y-23330778D01*
X5508022Y-23382077D01*
X5568345Y-23422383D01*
X5635371Y-23450146D01*
X5706526Y-23464300D01*
X5779074Y-23464300D01*
X5850229Y-23450146D01*
X5917255Y-23422383D01*
X5977578Y-23382077D01*
X6028877Y-23330778D01*
X6069183Y-23270455D01*
X6096946Y-23203429D01*
X6111100Y-23132274D01*
X6111100Y-23059726D01*
X6096946Y-22988571D01*
X6069183Y-22921545D01*
X6028877Y-22861222D01*
X5977578Y-22809923D01*
X5917255Y-22769617D01*
X5850229Y-22741854D01*
X5779074Y-22727700D01*
X5706526Y-22727700D01*
X5635371Y-22741854D01*
X5568345Y-22769617D01*
X5508022Y-22809923D01*
X5456723Y-22861222D01*
X5416417Y-22921545D01*
X5388654Y-22988571D01*
X5374500Y-23059726D01*
X4313500Y-23059726D01*
X4313500Y-21418526D01*
X4596900Y-21418526D01*
X4596900Y-21491074D01*
X4611054Y-21562229D01*
X4638817Y-21629255D01*
X4679123Y-21689578D01*
X4730422Y-21740877D01*
X4790745Y-21781183D01*
X4857771Y-21808946D01*
X4928926Y-21823100D01*
X5001474Y-21823100D01*
X5072629Y-21808946D01*
X5139181Y-21781379D01*
X5119054Y-21829971D01*
X5104900Y-21901126D01*
X5104900Y-21973674D01*
X5119054Y-22044829D01*
X5146817Y-22111855D01*
X5187123Y-22172178D01*
X5238422Y-22223477D01*
X5298745Y-22263783D01*
X5365771Y-22291546D01*
X5436926Y-22305700D01*
X5509474Y-22305700D01*
X5580629Y-22291546D01*
X5647655Y-22263783D01*
X5707978Y-22223477D01*
X5759277Y-22172178D01*
X5799583Y-22111855D01*
X5827346Y-22044829D01*
X5841500Y-21973674D01*
X5841500Y-21901126D01*
X5827346Y-21829971D01*
X5799583Y-21762945D01*
X5759277Y-21702622D01*
X5707978Y-21651323D01*
X5647655Y-21611017D01*
X5638440Y-21607200D01*
X5647655Y-21603383D01*
X5707978Y-21563077D01*
X5759277Y-21511778D01*
X5799583Y-21451455D01*
X5827346Y-21384429D01*
X5841500Y-21313274D01*
X5841500Y-21240726D01*
X5827346Y-21169571D01*
X5814736Y-21139126D01*
X7467100Y-21139126D01*
X7467100Y-21211674D01*
X7481254Y-21282829D01*
X7509017Y-21349855D01*
X7549323Y-21410178D01*
X7600622Y-21461477D01*
X7660945Y-21501783D01*
X7727971Y-21529546D01*
X7799126Y-21543700D01*
X7871674Y-21543700D01*
X7942829Y-21529546D01*
X8009855Y-21501783D01*
X8047545Y-21476600D01*
X8057822Y-21486877D01*
X8118145Y-21527183D01*
X8185171Y-21554946D01*
X8256326Y-21569100D01*
X8328874Y-21569100D01*
X8400029Y-21554946D01*
X8467055Y-21527183D01*
X8527378Y-21486877D01*
X8537655Y-21476600D01*
X8575345Y-21501783D01*
X8642371Y-21529546D01*
X8713526Y-21543700D01*
X8786074Y-21543700D01*
X8857229Y-21529546D01*
X8924255Y-21501783D01*
X8984578Y-21461477D01*
X9035877Y-21410178D01*
X9076183Y-21349855D01*
X9103946Y-21282829D01*
X9118100Y-21211674D01*
X9118100Y-21139126D01*
X9103946Y-21067971D01*
X9101857Y-21062926D01*
X9626100Y-21062926D01*
X9626100Y-21135474D01*
X9640254Y-21206629D01*
X9668017Y-21273655D01*
X9708323Y-21333978D01*
X9759622Y-21385277D01*
X9819945Y-21425583D01*
X9886971Y-21453346D01*
X9958126Y-21467500D01*
X10030674Y-21467500D01*
X10101829Y-21453346D01*
X10168855Y-21425583D01*
X10229178Y-21385277D01*
X10280477Y-21333978D01*
X10320783Y-21273655D01*
X10348546Y-21206629D01*
X10362700Y-21135474D01*
X10362700Y-21062926D01*
X10348546Y-20991771D01*
X10320783Y-20924745D01*
X10280477Y-20864422D01*
X10229178Y-20813123D01*
X10168855Y-20772817D01*
X10101829Y-20745054D01*
X10030674Y-20730900D01*
X9958126Y-20730900D01*
X9886971Y-20745054D01*
X9819945Y-20772817D01*
X9759622Y-20813123D01*
X9708323Y-20864422D01*
X9668017Y-20924745D01*
X9640254Y-20991771D01*
X9626100Y-21062926D01*
X9101857Y-21062926D01*
X9076183Y-21000945D01*
X9035877Y-20940622D01*
X8984578Y-20889323D01*
X8924255Y-20849017D01*
X8857229Y-20821254D01*
X8786074Y-20807100D01*
X8713526Y-20807100D01*
X8642371Y-20821254D01*
X8575345Y-20849017D01*
X8515022Y-20889323D01*
X8504745Y-20899600D01*
X8467055Y-20874417D01*
X8400029Y-20846654D01*
X8328874Y-20832500D01*
X8256326Y-20832500D01*
X8185171Y-20846654D01*
X8118145Y-20874417D01*
X8080455Y-20899600D01*
X8070178Y-20889323D01*
X8009855Y-20849017D01*
X7942829Y-20821254D01*
X7871674Y-20807100D01*
X7799126Y-20807100D01*
X7727971Y-20821254D01*
X7660945Y-20849017D01*
X7600622Y-20889323D01*
X7549323Y-20940622D01*
X7509017Y-21000945D01*
X7481254Y-21067971D01*
X7467100Y-21139126D01*
X5814736Y-21139126D01*
X5799583Y-21102545D01*
X5759277Y-21042222D01*
X5707978Y-20990923D01*
X5647655Y-20950617D01*
X5580629Y-20922854D01*
X5509474Y-20908700D01*
X5436926Y-20908700D01*
X5365771Y-20922854D01*
X5298745Y-20950617D01*
X5238422Y-20990923D01*
X5187123Y-21042222D01*
X5146817Y-21102545D01*
X5136621Y-21127160D01*
X5072629Y-21100654D01*
X5001474Y-21086500D01*
X4928926Y-21086500D01*
X4857771Y-21100654D01*
X4790745Y-21128417D01*
X4730422Y-21168723D01*
X4679123Y-21220022D01*
X4638817Y-21280345D01*
X4611054Y-21347371D01*
X4596900Y-21418526D01*
X4313500Y-21418526D01*
X4313500Y-20063500D01*
X4772786Y-20063500D01*
X4740417Y-20111945D01*
X4740417Y-20111945D01*
G37*
X4740417Y-20111945D02*
X4712654Y-20178971D01*
X4698500Y-20250126D01*
X4698500Y-20322674D01*
X4712654Y-20393829D01*
X4740417Y-20460855D01*
X4780723Y-20521178D01*
X4832022Y-20572477D01*
X4892345Y-20612783D01*
X4959371Y-20640546D01*
X5030526Y-20654700D01*
X5103074Y-20654700D01*
X5174229Y-20640546D01*
X5241255Y-20612783D01*
X5301578Y-20572477D01*
X5352877Y-20521178D01*
X5393183Y-20460855D01*
X5420946Y-20393829D01*
X5435100Y-20322674D01*
X5435100Y-20250126D01*
X5420946Y-20178971D01*
X5393183Y-20111945D01*
X5360814Y-20063500D01*
X8394727Y-20063500D01*
X8337222Y-20101923D01*
X8285923Y-20153222D01*
X8245617Y-20213545D01*
X8217854Y-20280571D01*
X8203700Y-20351726D01*
X8203700Y-20424274D01*
X8217854Y-20495429D01*
X8245617Y-20562455D01*
X8285923Y-20622778D01*
X8337222Y-20674077D01*
X8397545Y-20714383D01*
X8464571Y-20742146D01*
X8535726Y-20756300D01*
X8608274Y-20756300D01*
X8679429Y-20742146D01*
X8746455Y-20714383D01*
X8806778Y-20674077D01*
X8858077Y-20622778D01*
X8898383Y-20562455D01*
X8926146Y-20495429D01*
X8940300Y-20424274D01*
X8940300Y-20351726D01*
X8926146Y-20280571D01*
X8898383Y-20213545D01*
X8858077Y-20153222D01*
X8806778Y-20101923D01*
X8749273Y-20063500D01*
X9599445Y-20063500D01*
X9560523Y-20102422D01*
X9520217Y-20162745D01*
X9492454Y-20229771D01*
X9478300Y-20300926D01*
X9478300Y-20373474D01*
X9492454Y-20444629D01*
X9520217Y-20511655D01*
X9560523Y-20571978D01*
X9611822Y-20623277D01*
X9672145Y-20663583D01*
X9739171Y-20691346D01*
X9810326Y-20705500D01*
X9882874Y-20705500D01*
X9954029Y-20691346D01*
X10021055Y-20663583D01*
X10081378Y-20623277D01*
X10132677Y-20571978D01*
X10172983Y-20511655D01*
X10200746Y-20444629D01*
X10214900Y-20373474D01*
X10214900Y-20304702D01*
X11937637Y-22027439D01*
X11937500Y-22028126D01*
X11937500Y-22100674D01*
X11951654Y-22171829D01*
X11979417Y-22238855D01*
X12019723Y-22299178D01*
X12071022Y-22350477D01*
X12131345Y-22390783D01*
X12198371Y-22418546D01*
X12269526Y-22432700D01*
X12342074Y-22432700D01*
X12342761Y-22432563D01*
X13055800Y-23145602D01*
X13046217Y-23159945D01*
X13018454Y-23226971D01*
X13004300Y-23298126D01*
X13004300Y-23370674D01*
X13018454Y-23441829D01*
X13046217Y-23508855D01*
X13086523Y-23569178D01*
X13137822Y-23620477D01*
X13198145Y-23660783D01*
X13265171Y-23688546D01*
X13336326Y-23702700D01*
X13408874Y-23702700D01*
X13480029Y-23688546D01*
X13547055Y-23660783D01*
X13561398Y-23651200D01*
X13647865Y-23737667D01*
X13639300Y-23780726D01*
X13639300Y-23853274D01*
X13653454Y-23924429D01*
X13681217Y-23991455D01*
X13721523Y-24051778D01*
X13772822Y-24103077D01*
X13833145Y-24143383D01*
X13900171Y-24171146D01*
X13971326Y-24185300D01*
X14043874Y-24185300D01*
X14086933Y-24176735D01*
X14234500Y-24324302D01*
X14234500Y-26936500D01*
X14163823Y-26936500D01*
X14158546Y-26909971D01*
X14130783Y-26842945D01*
X14090477Y-26782622D01*
X14039178Y-26731323D01*
X13978855Y-26691017D01*
X13911829Y-26663254D01*
X13840674Y-26649100D01*
X13768126Y-26649100D01*
X13696971Y-26663254D01*
X13629945Y-26691017D01*
X13569622Y-26731323D01*
X13518323Y-26782622D01*
X13478017Y-26842945D01*
X13450254Y-26909971D01*
X13444977Y-26936500D01*
X13198623Y-26936500D01*
X13193346Y-26909971D01*
X13165583Y-26842945D01*
X13125277Y-26782622D01*
X13073978Y-26731323D01*
X13013655Y-26691017D01*
X12946629Y-26663254D01*
X12875474Y-26649100D01*
X12802926Y-26649100D01*
X12731771Y-26663254D01*
X12664745Y-26691017D01*
X12604422Y-26731323D01*
X12553123Y-26782622D01*
X12512817Y-26842945D01*
X12485054Y-26909971D01*
X12479777Y-26936500D01*
X11273276Y-26936500D01*
X11262946Y-26884571D01*
X11235183Y-26817545D01*
X11194877Y-26757222D01*
X11143578Y-26705923D01*
X11083255Y-26665617D01*
X11016229Y-26637854D01*
X10945074Y-26623700D01*
X10872526Y-26623700D01*
X10801371Y-26637854D01*
X10734345Y-26665617D01*
X10674022Y-26705923D01*
X10622723Y-26757222D01*
X10582417Y-26817545D01*
X10554654Y-26884571D01*
X10544324Y-26936500D01*
X9342876Y-26936500D01*
X9332546Y-26884571D01*
X9304783Y-26817545D01*
X9264477Y-26757222D01*
X9213178Y-26705923D01*
X9152855Y-26665617D01*
X9085829Y-26637854D01*
X9014674Y-26623700D01*
X8942126Y-26623700D01*
X8870971Y-26637854D01*
X8803945Y-26665617D01*
X8743622Y-26705923D01*
X8692323Y-26757222D01*
X8652017Y-26817545D01*
X8624254Y-26884571D01*
X8613924Y-26936500D01*
X8377676Y-26936500D01*
X8367346Y-26884571D01*
X8339583Y-26817545D01*
X8299277Y-26757222D01*
X8247978Y-26705923D01*
X8187655Y-26665617D01*
X8120629Y-26637854D01*
X8049474Y-26623700D01*
X7976926Y-26623700D01*
X7905771Y-26637854D01*
X7838745Y-26665617D01*
X7778422Y-26705923D01*
X7727123Y-26757222D01*
X7686817Y-26817545D01*
X7659054Y-26884571D01*
X7648724Y-26936500D01*
X7412476Y-26936500D01*
X7402146Y-26884571D01*
X7374383Y-26817545D01*
X7334077Y-26757222D01*
X7282778Y-26705923D01*
X7222455Y-26665617D01*
X7155429Y-26637854D01*
X7084274Y-26623700D01*
X7011726Y-26623700D01*
X6940571Y-26637854D01*
X6873545Y-26665617D01*
X6813222Y-26705923D01*
X6761923Y-26757222D01*
X6721617Y-26817545D01*
X6693854Y-26884571D01*
X6683524Y-26936500D01*
X6447276Y-26936500D01*
X6436946Y-26884571D01*
X6409183Y-26817545D01*
X6368877Y-26757222D01*
X6317578Y-26705923D01*
X6257255Y-26665617D01*
X6190229Y-26637854D01*
X6119074Y-26623700D01*
X6046526Y-26623700D01*
X5975371Y-26637854D01*
X5908345Y-26665617D01*
X5848022Y-26705923D01*
X5796723Y-26757222D01*
X5756417Y-26817545D01*
X5728654Y-26884571D01*
X5718324Y-26936500D01*
X5526302Y-26936500D01*
X5469888Y-26880086D01*
X5443983Y-26817545D01*
X5403677Y-26757222D01*
X5352378Y-26705923D01*
X5292055Y-26665617D01*
X5229514Y-26639712D01*
X4977900Y-26388098D01*
X4977900Y-26346126D01*
X4963746Y-26274971D01*
X4935983Y-26207945D01*
X4895677Y-26147622D01*
X4844378Y-26096323D01*
X4784055Y-26056017D01*
X4717029Y-26028254D01*
X4645874Y-26014100D01*
X4603902Y-26014100D01*
X4313500Y-25723698D01*
X4313500Y-25431726D01*
X4419100Y-25431726D01*
X4419100Y-25504274D01*
X4433254Y-25575429D01*
X4461017Y-25642455D01*
X4501323Y-25702778D01*
X4552622Y-25754077D01*
X4612945Y-25794383D01*
X4679971Y-25822146D01*
X4751126Y-25836300D01*
X4823674Y-25836300D01*
X4894829Y-25822146D01*
X4921979Y-25810900D01*
X4950167Y-25810900D01*
X5313392Y-26174126D01*
X5273817Y-26233356D01*
X5246054Y-26300382D01*
X5231900Y-26371537D01*
X5231900Y-26444085D01*
X5246054Y-26515240D01*
X5273817Y-26582266D01*
X5314123Y-26642589D01*
X5365422Y-26693888D01*
X5425745Y-26734194D01*
X5492771Y-26761957D01*
X5563926Y-26776111D01*
X5636474Y-26776111D01*
X5707629Y-26761957D01*
X5774655Y-26734194D01*
X5834978Y-26693888D01*
X5886277Y-26642589D01*
X5926583Y-26582266D01*
X5954346Y-26515240D01*
X5968500Y-26444085D01*
X5968500Y-26371537D01*
X5963082Y-26344301D01*
X6032438Y-26344301D01*
X6049273Y-26345959D01*
X6066108Y-26344301D01*
X6066116Y-26344301D01*
X6116493Y-26339339D01*
X6181130Y-26319732D01*
X6204875Y-26307040D01*
X6197100Y-26346126D01*
X6197100Y-26418674D01*
X6211254Y-26489829D01*
X6239017Y-26556855D01*
X6279323Y-26617178D01*
X6330622Y-26668477D01*
X6390945Y-26708783D01*
X6457971Y-26736546D01*
X6529126Y-26750700D01*
X6601674Y-26750700D01*
X6672829Y-26736546D01*
X6739855Y-26708783D01*
X6800178Y-26668477D01*
X6851477Y-26617178D01*
X6891783Y-26556855D01*
X6919546Y-26489829D01*
X6933700Y-26418674D01*
X6933700Y-26371536D01*
X7162300Y-26371536D01*
X7162300Y-26444084D01*
X7176454Y-26515239D01*
X7204217Y-26582265D01*
X7244523Y-26642588D01*
X7295822Y-26693887D01*
X7356145Y-26734193D01*
X7423171Y-26761956D01*
X7494326Y-26776110D01*
X7566874Y-26776110D01*
X7638029Y-26761956D01*
X7705055Y-26734193D01*
X7765378Y-26693887D01*
X7816677Y-26642588D01*
X7856983Y-26582265D01*
X7884746Y-26515239D01*
X7898900Y-26444084D01*
X7898900Y-26371536D01*
X8127500Y-26371536D01*
X8127500Y-26444084D01*
X8141654Y-26515239D01*
X8169417Y-26582265D01*
X8209723Y-26642588D01*
X8261022Y-26693887D01*
X8321345Y-26734193D01*
X8388371Y-26761956D01*
X8459526Y-26776110D01*
X8532074Y-26776110D01*
X8603229Y-26761956D01*
X8670255Y-26734193D01*
X8730578Y-26693887D01*
X8781877Y-26642588D01*
X8822183Y-26582265D01*
X8849946Y-26515239D01*
X8864100Y-26444084D01*
X8864100Y-26371536D01*
X9092700Y-26371536D01*
X9092700Y-26444084D01*
X9106854Y-26515239D01*
X9134617Y-26582265D01*
X9174923Y-26642588D01*
X9226222Y-26693887D01*
X9286545Y-26734193D01*
X9353571Y-26761956D01*
X9424726Y-26776110D01*
X9497274Y-26776110D01*
X9568429Y-26761956D01*
X9635455Y-26734193D01*
X9695778Y-26693887D01*
X9747077Y-26642588D01*
X9787383Y-26582265D01*
X9815146Y-26515239D01*
X9829300Y-26444084D01*
X9829300Y-26371536D01*
X10057900Y-26371536D01*
X10057900Y-26444084D01*
X10072054Y-26515239D01*
X10099817Y-26582265D01*
X10140123Y-26642588D01*
X10191422Y-26693887D01*
X10251745Y-26734193D01*
X10318771Y-26761956D01*
X10389926Y-26776110D01*
X10462474Y-26776110D01*
X10533629Y-26761956D01*
X10600655Y-26734193D01*
X10660978Y-26693887D01*
X10712277Y-26642588D01*
X10752583Y-26582265D01*
X10780346Y-26515239D01*
X10794500Y-26444084D01*
X10794500Y-26371536D01*
X11023100Y-26371536D01*
X11023100Y-26444084D01*
X11037254Y-26515239D01*
X11065017Y-26582265D01*
X11105323Y-26642588D01*
X11156622Y-26693887D01*
X11216945Y-26734193D01*
X11283971Y-26761956D01*
X11355126Y-26776110D01*
X11427674Y-26776110D01*
X11498829Y-26761956D01*
X11565855Y-26734193D01*
X11626178Y-26693887D01*
X11677477Y-26642588D01*
X11717783Y-26582265D01*
X11745546Y-26515239D01*
X11759700Y-26444084D01*
X11759700Y-26371536D01*
X11759699Y-26371526D01*
X11988300Y-26371526D01*
X11988300Y-26444074D01*
X12002454Y-26515229D01*
X12030217Y-26582255D01*
X12070523Y-26642578D01*
X12121822Y-26693877D01*
X12182145Y-26734183D01*
X12249171Y-26761946D01*
X12320326Y-26776100D01*
X12392874Y-26776100D01*
X12464029Y-26761946D01*
X12531055Y-26734183D01*
X12591378Y-26693877D01*
X12642677Y-26642578D01*
X12682983Y-26582255D01*
X12710746Y-26515229D01*
X12724900Y-26444074D01*
X12724900Y-26371526D01*
X12710746Y-26300371D01*
X12682983Y-26233345D01*
X12642677Y-26173022D01*
X12591378Y-26121723D01*
X12531055Y-26081417D01*
X12464029Y-26053654D01*
X12392874Y-26039500D01*
X12320326Y-26039500D01*
X12249171Y-26053654D01*
X12182145Y-26081417D01*
X12121822Y-26121723D01*
X12070523Y-26173022D01*
X12030217Y-26233345D01*
X12002454Y-26300371D01*
X11988300Y-26371526D01*
X11759699Y-26371526D01*
X11745546Y-26300381D01*
X11717783Y-26233355D01*
X11677477Y-26173032D01*
X11626178Y-26121733D01*
X11565855Y-26081427D01*
X11498829Y-26053664D01*
X11427674Y-26039510D01*
X11355126Y-26039510D01*
X11283971Y-26053664D01*
X11216945Y-26081427D01*
X11156622Y-26121733D01*
X11105323Y-26173032D01*
X11065017Y-26233355D01*
X11037254Y-26300381D01*
X11023100Y-26371536D01*
X10794500Y-26371536D01*
X10780346Y-26300381D01*
X10752583Y-26233355D01*
X10712277Y-26173032D01*
X10660978Y-26121733D01*
X10600655Y-26081427D01*
X10533629Y-26053664D01*
X10462474Y-26039510D01*
X10389926Y-26039510D01*
X10318771Y-26053664D01*
X10251745Y-26081427D01*
X10191422Y-26121733D01*
X10140123Y-26173032D01*
X10099817Y-26233355D01*
X10072054Y-26300381D01*
X10057900Y-26371536D01*
X9829300Y-26371536D01*
X9815146Y-26300381D01*
X9787383Y-26233355D01*
X9747077Y-26173032D01*
X9695778Y-26121733D01*
X9635455Y-26081427D01*
X9568429Y-26053664D01*
X9497274Y-26039510D01*
X9424726Y-26039510D01*
X9353571Y-26053664D01*
X9286545Y-26081427D01*
X9226222Y-26121733D01*
X9174923Y-26173032D01*
X9134617Y-26233355D01*
X9106854Y-26300381D01*
X9092700Y-26371536D01*
X8864100Y-26371536D01*
X8849946Y-26300381D01*
X8822183Y-26233355D01*
X8781877Y-26173032D01*
X8730578Y-26121733D01*
X8670255Y-26081427D01*
X8603229Y-26053664D01*
X8532074Y-26039510D01*
X8459526Y-26039510D01*
X8388371Y-26053664D01*
X8321345Y-26081427D01*
X8261022Y-26121733D01*
X8209723Y-26173032D01*
X8169417Y-26233355D01*
X8141654Y-26300381D01*
X8127500Y-26371536D01*
X7898900Y-26371536D01*
X7884746Y-26300381D01*
X7856983Y-26233355D01*
X7816677Y-26173032D01*
X7765378Y-26121733D01*
X7705055Y-26081427D01*
X7638029Y-26053664D01*
X7566874Y-26039510D01*
X7494326Y-26039510D01*
X7423171Y-26053664D01*
X7356145Y-26081427D01*
X7295822Y-26121733D01*
X7244523Y-26173032D01*
X7204217Y-26233355D01*
X7176454Y-26300381D01*
X7162300Y-26371536D01*
X6933700Y-26371536D01*
X6933700Y-26346126D01*
X6919546Y-26274971D01*
X6891783Y-26207945D01*
X6851477Y-26147622D01*
X6800178Y-26096323D01*
X6739855Y-26056017D01*
X6672829Y-26028254D01*
X6601674Y-26014100D01*
X6529126Y-26014100D01*
X6519615Y-26015992D01*
X6567326Y-25968281D01*
X6580414Y-25957540D01*
X6623264Y-25905327D01*
X6636226Y-25881077D01*
X6655105Y-25845757D01*
X6674712Y-25781120D01*
X6679824Y-25729216D01*
X6690920Y-25702429D01*
X6705074Y-25631274D01*
X6705074Y-25558726D01*
X6699658Y-25531499D01*
X6888314Y-25531499D01*
X6882897Y-25558729D01*
X6882897Y-25631277D01*
X6897051Y-25702432D01*
X6924814Y-25769458D01*
X6965120Y-25829781D01*
X7016419Y-25881080D01*
X7076742Y-25921386D01*
X7143768Y-25949149D01*
X7214923Y-25963303D01*
X7287471Y-25963303D01*
X7358626Y-25949149D01*
X7425652Y-25921386D01*
X7485975Y-25881080D01*
X7487701Y-25879355D01*
X7514823Y-25906477D01*
X7575146Y-25946783D01*
X7642172Y-25974546D01*
X7713327Y-25988700D01*
X7785875Y-25988700D01*
X7857030Y-25974546D01*
X7924056Y-25946783D01*
X7984379Y-25906477D01*
X8035678Y-25855178D01*
X8075984Y-25794855D01*
X8103747Y-25727829D01*
X8117901Y-25656674D01*
X8117901Y-25609526D01*
X8787898Y-25609526D01*
X8787898Y-25682074D01*
X8802052Y-25753229D01*
X8829815Y-25820255D01*
X8870121Y-25880578D01*
X8921420Y-25931877D01*
X8981743Y-25972183D01*
X9048769Y-25999946D01*
X9119924Y-26014100D01*
X9192472Y-26014100D01*
X9263627Y-25999946D01*
X9330653Y-25972183D01*
X9390976Y-25931877D01*
X9442275Y-25880578D01*
X9482581Y-25820255D01*
X9510344Y-25753229D01*
X9524498Y-25682074D01*
X9524498Y-25609526D01*
X9510344Y-25538371D01*
X9482581Y-25471345D01*
X9442275Y-25411022D01*
X9390976Y-25359723D01*
X9330653Y-25319417D01*
X9263627Y-25291654D01*
X9192472Y-25277500D01*
X9119924Y-25277500D01*
X9048769Y-25291654D01*
X8981743Y-25319417D01*
X8921420Y-25359723D01*
X8870121Y-25411022D01*
X8829815Y-25471345D01*
X8802052Y-25538371D01*
X8787898Y-25609526D01*
X8117901Y-25609526D01*
X8117901Y-25584126D01*
X8107433Y-25531499D01*
X8193903Y-25531499D01*
X8210738Y-25533157D01*
X8227573Y-25531499D01*
X8227581Y-25531499D01*
X8277958Y-25526537D01*
X8342595Y-25506930D01*
X8402165Y-25475089D01*
X8454378Y-25432239D01*
X8465119Y-25419151D01*
X8909744Y-24974526D01*
X12242300Y-24974526D01*
X12242300Y-25047074D01*
X12256454Y-25118229D01*
X12284217Y-25185255D01*
X12324523Y-25245578D01*
X12375822Y-25296877D01*
X12436145Y-25337183D01*
X12503171Y-25364946D01*
X12574326Y-25379100D01*
X12646874Y-25379100D01*
X12718029Y-25364946D01*
X12785055Y-25337183D01*
X12845378Y-25296877D01*
X12862929Y-25279326D01*
X13080500Y-25279326D01*
X13080500Y-25351874D01*
X13094654Y-25423029D01*
X13122417Y-25490055D01*
X13162723Y-25550378D01*
X13214022Y-25601677D01*
X13274345Y-25641983D01*
X13341371Y-25669746D01*
X13412526Y-25683900D01*
X13485074Y-25683900D01*
X13556229Y-25669746D01*
X13623255Y-25641983D01*
X13683578Y-25601677D01*
X13734877Y-25550378D01*
X13775183Y-25490055D01*
X13802946Y-25423029D01*
X13817100Y-25351874D01*
X13817100Y-25279326D01*
X13802946Y-25208171D01*
X13775183Y-25141145D01*
X13734877Y-25080822D01*
X13683578Y-25029523D01*
X13623255Y-24989217D01*
X13556229Y-24961454D01*
X13485074Y-24947300D01*
X13412526Y-24947300D01*
X13341371Y-24961454D01*
X13274345Y-24989217D01*
X13214022Y-25029523D01*
X13162723Y-25080822D01*
X13122417Y-25141145D01*
X13094654Y-25208171D01*
X13080500Y-25279326D01*
X12862929Y-25279326D01*
X12896677Y-25245578D01*
X12936983Y-25185255D01*
X12964746Y-25118229D01*
X12978900Y-25047074D01*
X12978900Y-25023137D01*
X13048229Y-25009346D01*
X13115255Y-24981583D01*
X13175578Y-24941277D01*
X13226877Y-24889978D01*
X13267183Y-24829655D01*
X13294946Y-24762629D01*
X13309100Y-24691474D01*
X13309100Y-24657432D01*
X13361726Y-24667900D01*
X13434274Y-24667900D01*
X13505429Y-24653746D01*
X13572455Y-24625983D01*
X13632778Y-24585677D01*
X13684077Y-24534378D01*
X13724383Y-24474055D01*
X13752146Y-24407029D01*
X13766300Y-24335874D01*
X13766300Y-24263326D01*
X13752146Y-24192171D01*
X13724383Y-24125145D01*
X13684077Y-24064822D01*
X13632778Y-24013523D01*
X13572455Y-23973217D01*
X13505429Y-23945454D01*
X13434274Y-23931300D01*
X13361726Y-23931300D01*
X13290571Y-23945454D01*
X13223545Y-23973217D01*
X13163222Y-24013523D01*
X13111923Y-24064822D01*
X13071617Y-24125145D01*
X13043854Y-24192171D01*
X13029700Y-24263326D01*
X13029700Y-24297368D01*
X12977074Y-24286900D01*
X12904526Y-24286900D01*
X12833371Y-24301054D01*
X12766345Y-24328817D01*
X12706022Y-24369123D01*
X12654723Y-24420422D01*
X12614417Y-24480745D01*
X12586654Y-24547771D01*
X12572500Y-24618926D01*
X12572500Y-24642863D01*
X12503171Y-24656654D01*
X12436145Y-24684417D01*
X12375822Y-24724723D01*
X12324523Y-24776022D01*
X12284217Y-24836345D01*
X12256454Y-24903371D01*
X12242300Y-24974526D01*
X8909744Y-24974526D01*
X9688452Y-24195819D01*
X9701529Y-24185087D01*
X9712262Y-24172009D01*
X9712266Y-24172005D01*
X9735755Y-24143383D01*
X9744380Y-24132874D01*
X9776221Y-24073304D01*
X9795828Y-24008667D01*
X9800790Y-23958290D01*
X9800790Y-23958283D01*
X9802448Y-23941448D01*
X9800790Y-23924613D01*
X9800790Y-23824579D01*
X9812036Y-23797429D01*
X9822502Y-23744816D01*
X9838040Y-23744816D01*
X9843454Y-23772035D01*
X9871217Y-23839061D01*
X9911523Y-23899384D01*
X9962822Y-23950683D01*
X10023145Y-23990989D01*
X10090171Y-24018752D01*
X10161326Y-24032906D01*
X10233874Y-24032906D01*
X10305029Y-24018752D01*
X10372055Y-23990989D01*
X10432378Y-23950683D01*
X10483677Y-23899384D01*
X10523983Y-23839061D01*
X10551746Y-23772035D01*
X10565900Y-23700880D01*
X10565900Y-23661764D01*
X10571923Y-23670778D01*
X10623222Y-23722077D01*
X10683545Y-23762383D01*
X10750571Y-23790146D01*
X10821726Y-23804300D01*
X10894274Y-23804300D01*
X10965429Y-23790146D01*
X11032455Y-23762383D01*
X11092778Y-23722077D01*
X11144077Y-23670778D01*
X11184383Y-23610455D01*
X11212146Y-23543429D01*
X11226300Y-23472274D01*
X11226300Y-23399726D01*
X11212146Y-23328571D01*
X11184383Y-23261545D01*
X11144077Y-23201222D01*
X11139381Y-23196526D01*
X11912101Y-23196526D01*
X11912101Y-23269074D01*
X11926255Y-23340229D01*
X11954018Y-23407255D01*
X11994324Y-23467578D01*
X12045623Y-23518877D01*
X12105946Y-23559183D01*
X12172972Y-23586946D01*
X12244127Y-23601100D01*
X12316675Y-23601100D01*
X12387830Y-23586946D01*
X12454856Y-23559183D01*
X12515179Y-23518877D01*
X12566478Y-23467578D01*
X12606784Y-23407255D01*
X12634547Y-23340229D01*
X12648701Y-23269074D01*
X12648701Y-23196526D01*
X12634547Y-23125371D01*
X12606784Y-23058345D01*
X12566478Y-22998022D01*
X12515179Y-22946723D01*
X12454856Y-22906417D01*
X12387830Y-22878654D01*
X12316675Y-22864500D01*
X12244127Y-22864500D01*
X12172972Y-22878654D01*
X12105946Y-22906417D01*
X12045623Y-22946723D01*
X11994324Y-22998022D01*
X11954018Y-23058345D01*
X11926255Y-23125371D01*
X11912101Y-23196526D01*
X11139381Y-23196526D01*
X11092778Y-23149923D01*
X11032455Y-23109617D01*
X10965429Y-23081854D01*
X10894274Y-23067700D01*
X10821726Y-23067700D01*
X10750571Y-23081854D01*
X10683545Y-23109617D01*
X10623222Y-23149923D01*
X10571923Y-23201222D01*
X10531617Y-23261545D01*
X10503854Y-23328571D01*
X10489700Y-23399726D01*
X10489700Y-23438842D01*
X10483677Y-23429828D01*
X10432378Y-23378529D01*
X10372055Y-23338223D01*
X10305029Y-23310460D01*
X10233874Y-23296306D01*
X10214438Y-23296306D01*
X10209024Y-23269087D01*
X10181261Y-23202061D01*
X10140955Y-23141738D01*
X10089656Y-23090439D01*
X10029333Y-23050133D01*
X9962307Y-23022370D01*
X9891152Y-23008216D01*
X9818604Y-23008216D01*
X9747449Y-23022370D01*
X9680423Y-23050133D01*
X9620100Y-23090439D01*
X9568801Y-23141738D01*
X9528495Y-23202061D01*
X9500732Y-23269087D01*
X9490266Y-23321700D01*
X9421616Y-23321700D01*
X9350461Y-23335854D01*
X9283435Y-23363617D01*
X9223112Y-23403923D01*
X9214080Y-23412955D01*
X9178255Y-23389017D01*
X9111229Y-23361254D01*
X9040074Y-23347100D01*
X9011084Y-23347100D01*
X9002346Y-23303171D01*
X8974583Y-23236145D01*
X8934277Y-23175822D01*
X8882978Y-23124523D01*
X8822655Y-23084217D01*
X8755629Y-23056454D01*
X8684474Y-23042300D01*
X8611926Y-23042300D01*
X8540771Y-23056454D01*
X8473745Y-23084217D01*
X8413422Y-23124523D01*
X8372692Y-23165253D01*
X8365455Y-23160417D01*
X8298429Y-23132654D01*
X8227274Y-23118500D01*
X8154726Y-23118500D01*
X8142900Y-23120852D01*
X8138746Y-23099971D01*
X8110983Y-23032945D01*
X8070677Y-22972622D01*
X8019855Y-22921800D01*
X8045277Y-22896378D01*
X8085583Y-22836055D01*
X8113346Y-22769029D01*
X8127500Y-22697874D01*
X8127500Y-22625326D01*
X8113346Y-22554171D01*
X8085583Y-22487145D01*
X8045277Y-22426822D01*
X8027581Y-22409126D01*
X8127500Y-22409126D01*
X8127500Y-22481674D01*
X8141654Y-22552829D01*
X8169417Y-22619855D01*
X8209723Y-22680178D01*
X8261022Y-22731477D01*
X8321345Y-22771783D01*
X8388371Y-22799546D01*
X8459526Y-22813700D01*
X8532074Y-22813700D01*
X8603229Y-22799546D01*
X8670255Y-22771783D01*
X8730578Y-22731477D01*
X8781877Y-22680178D01*
X8822183Y-22619855D01*
X8849946Y-22552829D01*
X8863373Y-22485326D01*
X10362700Y-22485326D01*
X10362700Y-22557874D01*
X10376854Y-22629029D01*
X10404617Y-22696055D01*
X10444923Y-22756378D01*
X10496222Y-22807677D01*
X10556545Y-22847983D01*
X10623571Y-22875746D01*
X10694726Y-22889900D01*
X10767274Y-22889900D01*
X10838429Y-22875746D01*
X10905455Y-22847983D01*
X10965778Y-22807677D01*
X11017077Y-22756378D01*
X11057383Y-22696055D01*
X11085146Y-22629029D01*
X11099300Y-22557874D01*
X11099300Y-22485326D01*
X11085146Y-22414171D01*
X11057383Y-22347145D01*
X11017077Y-22286822D01*
X10965778Y-22235523D01*
X10905455Y-22195217D01*
X10838429Y-22167454D01*
X10767274Y-22153300D01*
X10694726Y-22153300D01*
X10623571Y-22167454D01*
X10556545Y-22195217D01*
X10496222Y-22235523D01*
X10444923Y-22286822D01*
X10404617Y-22347145D01*
X10376854Y-22414171D01*
X10362700Y-22485326D01*
X8863373Y-22485326D01*
X8864100Y-22481674D01*
X8864100Y-22409126D01*
X8849946Y-22337971D01*
X8822183Y-22270945D01*
X8781877Y-22210622D01*
X8730578Y-22159323D01*
X8670255Y-22119017D01*
X8603229Y-22091254D01*
X8532074Y-22077100D01*
X8459526Y-22077100D01*
X8388371Y-22091254D01*
X8321345Y-22119017D01*
X8261022Y-22159323D01*
X8209723Y-22210622D01*
X8169417Y-22270945D01*
X8141654Y-22337971D01*
X8127500Y-22409126D01*
X8027581Y-22409126D01*
X7993978Y-22375523D01*
X7933655Y-22335217D01*
X7866629Y-22307454D01*
X7795474Y-22293300D01*
X7722926Y-22293300D01*
X7651771Y-22307454D01*
X7584745Y-22335217D01*
X7524422Y-22375523D01*
X7473123Y-22426822D01*
X7432817Y-22487145D01*
X7405054Y-22554171D01*
X7390900Y-22625326D01*
X7390900Y-22697874D01*
X7405054Y-22769029D01*
X7432817Y-22836055D01*
X7473123Y-22896378D01*
X7523945Y-22947200D01*
X7498523Y-22972622D01*
X7458217Y-23032945D01*
X7430454Y-23099971D01*
X7416300Y-23171126D01*
X7416300Y-23243674D01*
X7430454Y-23314829D01*
X7458217Y-23381855D01*
X7460700Y-23385572D01*
X7408444Y-23407217D01*
X7348121Y-23447523D01*
X7296822Y-23498822D01*
X7256516Y-23559145D01*
X7228753Y-23626171D01*
X7214599Y-23697326D01*
X7214599Y-23769874D01*
X7228753Y-23841029D01*
X7256516Y-23908055D01*
X7296822Y-23968378D01*
X7348121Y-24019677D01*
X7408444Y-24059983D01*
X7475470Y-24087746D01*
X7546625Y-24101900D01*
X7619173Y-24101900D01*
X7690328Y-24087746D01*
X7757354Y-24059983D01*
X7817677Y-24019677D01*
X7868976Y-23968378D01*
X7909282Y-23908055D01*
X7937045Y-23841029D01*
X7951199Y-23769874D01*
X7951199Y-23767854D01*
X7956222Y-23772877D01*
X8016545Y-23813183D01*
X8083571Y-23840946D01*
X8154726Y-23855100D01*
X8227274Y-23855100D01*
X8298429Y-23840946D01*
X8365455Y-23813183D01*
X8425778Y-23772877D01*
X8466508Y-23732147D01*
X8473745Y-23736983D01*
X8540771Y-23764746D01*
X8611926Y-23778900D01*
X8640916Y-23778900D01*
X8649654Y-23822829D01*
X8677417Y-23889855D01*
X8717723Y-23950178D01*
X8769022Y-24001477D01*
X8829345Y-24041783D01*
X8859945Y-24054458D01*
X8068705Y-24845699D01*
X6508562Y-24845699D01*
X6491727Y-24844041D01*
X6474892Y-24845699D01*
X6474885Y-24845699D01*
X6424508Y-24850661D01*
X6359871Y-24870268D01*
X6300301Y-24902109D01*
X6248088Y-24944959D01*
X6237347Y-24958047D01*
X6106218Y-25089176D01*
X6093135Y-25099913D01*
X6050284Y-25152126D01*
X6018443Y-25211696D01*
X6004244Y-25258506D01*
X5961629Y-25240854D01*
X5890474Y-25226700D01*
X5817926Y-25226700D01*
X5746771Y-25240854D01*
X5679745Y-25268617D01*
X5619422Y-25308923D01*
X5568123Y-25360222D01*
X5528563Y-25419429D01*
X5346581Y-25237448D01*
X5335840Y-25224360D01*
X5283627Y-25181510D01*
X5224057Y-25149669D01*
X5159420Y-25130062D01*
X5109043Y-25125100D01*
X5109035Y-25125100D01*
X5092200Y-25123442D01*
X5075365Y-25125100D01*
X4921979Y-25125100D01*
X4894829Y-25113854D01*
X4823674Y-25099700D01*
X4751126Y-25099700D01*
X4679971Y-25113854D01*
X4612945Y-25141617D01*
X4552622Y-25181923D01*
X4501323Y-25233222D01*
X4461017Y-25293545D01*
X4433254Y-25360571D01*
X4419100Y-25431726D01*
X4313500Y-25431726D01*
X4313500Y-24263326D01*
X5485900Y-24263326D01*
X5485900Y-24335874D01*
X5500054Y-24407029D01*
X5527817Y-24474055D01*
X5568123Y-24534378D01*
X5619422Y-24585677D01*
X5679745Y-24625983D01*
X5746771Y-24653746D01*
X5817926Y-24667900D01*
X5890474Y-24667900D01*
X5927307Y-24660573D01*
X5934217Y-24677255D01*
X5974523Y-24737578D01*
X6025822Y-24788877D01*
X6086145Y-24829183D01*
X6153171Y-24856946D01*
X6224326Y-24871100D01*
X6296874Y-24871100D01*
X6368029Y-24856946D01*
X6435055Y-24829183D01*
X6495378Y-24788877D01*
X6546677Y-24737578D01*
X6586983Y-24677255D01*
X6614746Y-24610229D01*
X6628900Y-24539074D01*
X6628900Y-24466526D01*
X6614746Y-24395371D01*
X6586983Y-24328345D01*
X6546677Y-24268022D01*
X6495378Y-24216723D01*
X6435055Y-24176417D01*
X6368029Y-24148654D01*
X6296874Y-24134500D01*
X6224326Y-24134500D01*
X6187493Y-24141827D01*
X6184458Y-24134500D01*
X6195274Y-24134500D01*
X6266429Y-24120346D01*
X6333455Y-24092583D01*
X6393778Y-24052277D01*
X6445077Y-24000978D01*
X6485383Y-23940655D01*
X6513146Y-23873629D01*
X6527300Y-23802474D01*
X6527300Y-23729926D01*
X6513146Y-23658771D01*
X6485383Y-23591745D01*
X6445077Y-23531422D01*
X6393778Y-23480123D01*
X6333455Y-23439817D01*
X6266429Y-23412054D01*
X6195274Y-23397900D01*
X6122726Y-23397900D01*
X6051571Y-23412054D01*
X5984545Y-23439817D01*
X5924222Y-23480123D01*
X5872923Y-23531422D01*
X5832617Y-23591745D01*
X5804854Y-23658771D01*
X5790700Y-23729926D01*
X5790700Y-23802474D01*
X5804854Y-23873629D01*
X5828742Y-23931300D01*
X5817926Y-23931300D01*
X5746771Y-23945454D01*
X5679745Y-23973217D01*
X5619422Y-24013523D01*
X5568123Y-24064822D01*
X5527817Y-24125145D01*
X5500054Y-24192171D01*
X5485900Y-24263326D01*
X4313500Y-24263326D01*
X4313500Y-23059726D01*
X5374500Y-23059726D01*
X5374500Y-23132274D01*
X5388654Y-23203429D01*
X5416417Y-23270455D01*
X5456723Y-23330778D01*
X5508022Y-23382077D01*
X5568345Y-23422383D01*
X5635371Y-23450146D01*
X5706526Y-23464300D01*
X5779074Y-23464300D01*
X5850229Y-23450146D01*
X5917255Y-23422383D01*
X5977578Y-23382077D01*
X6028877Y-23330778D01*
X6069183Y-23270455D01*
X6096946Y-23203429D01*
X6111100Y-23132274D01*
X6111100Y-23059726D01*
X6096946Y-22988571D01*
X6069183Y-22921545D01*
X6028877Y-22861222D01*
X5977578Y-22809923D01*
X5917255Y-22769617D01*
X5850229Y-22741854D01*
X5779074Y-22727700D01*
X5706526Y-22727700D01*
X5635371Y-22741854D01*
X5568345Y-22769617D01*
X5508022Y-22809923D01*
X5456723Y-22861222D01*
X5416417Y-22921545D01*
X5388654Y-22988571D01*
X5374500Y-23059726D01*
X4313500Y-23059726D01*
X4313500Y-21418526D01*
X4596900Y-21418526D01*
X4596900Y-21491074D01*
X4611054Y-21562229D01*
X4638817Y-21629255D01*
X4679123Y-21689578D01*
X4730422Y-21740877D01*
X4790745Y-21781183D01*
X4857771Y-21808946D01*
X4928926Y-21823100D01*
X5001474Y-21823100D01*
X5072629Y-21808946D01*
X5139181Y-21781379D01*
X5119054Y-21829971D01*
X5104900Y-21901126D01*
X5104900Y-21973674D01*
X5119054Y-22044829D01*
X5146817Y-22111855D01*
X5187123Y-22172178D01*
X5238422Y-22223477D01*
X5298745Y-22263783D01*
X5365771Y-22291546D01*
X5436926Y-22305700D01*
X5509474Y-22305700D01*
X5580629Y-22291546D01*
X5647655Y-22263783D01*
X5707978Y-22223477D01*
X5759277Y-22172178D01*
X5799583Y-22111855D01*
X5827346Y-22044829D01*
X5841500Y-21973674D01*
X5841500Y-21901126D01*
X5827346Y-21829971D01*
X5799583Y-21762945D01*
X5759277Y-21702622D01*
X5707978Y-21651323D01*
X5647655Y-21611017D01*
X5638440Y-21607200D01*
X5647655Y-21603383D01*
X5707978Y-21563077D01*
X5759277Y-21511778D01*
X5799583Y-21451455D01*
X5827346Y-21384429D01*
X5841500Y-21313274D01*
X5841500Y-21240726D01*
X5827346Y-21169571D01*
X5814736Y-21139126D01*
X7467100Y-21139126D01*
X7467100Y-21211674D01*
X7481254Y-21282829D01*
X7509017Y-21349855D01*
X7549323Y-21410178D01*
X7600622Y-21461477D01*
X7660945Y-21501783D01*
X7727971Y-21529546D01*
X7799126Y-21543700D01*
X7871674Y-21543700D01*
X7942829Y-21529546D01*
X8009855Y-21501783D01*
X8047545Y-21476600D01*
X8057822Y-21486877D01*
X8118145Y-21527183D01*
X8185171Y-21554946D01*
X8256326Y-21569100D01*
X8328874Y-21569100D01*
X8400029Y-21554946D01*
X8467055Y-21527183D01*
X8527378Y-21486877D01*
X8537655Y-21476600D01*
X8575345Y-21501783D01*
X8642371Y-21529546D01*
X8713526Y-21543700D01*
X8786074Y-21543700D01*
X8857229Y-21529546D01*
X8924255Y-21501783D01*
X8984578Y-21461477D01*
X9035877Y-21410178D01*
X9076183Y-21349855D01*
X9103946Y-21282829D01*
X9118100Y-21211674D01*
X9118100Y-21139126D01*
X9103946Y-21067971D01*
X9101857Y-21062926D01*
X9626100Y-21062926D01*
X9626100Y-21135474D01*
X9640254Y-21206629D01*
X9668017Y-21273655D01*
X9708323Y-21333978D01*
X9759622Y-21385277D01*
X9819945Y-21425583D01*
X9886971Y-21453346D01*
X9958126Y-21467500D01*
X10030674Y-21467500D01*
X10101829Y-21453346D01*
X10168855Y-21425583D01*
X10229178Y-21385277D01*
X10280477Y-21333978D01*
X10320783Y-21273655D01*
X10348546Y-21206629D01*
X10362700Y-21135474D01*
X10362700Y-21062926D01*
X10348546Y-20991771D01*
X10320783Y-20924745D01*
X10280477Y-20864422D01*
X10229178Y-20813123D01*
X10168855Y-20772817D01*
X10101829Y-20745054D01*
X10030674Y-20730900D01*
X9958126Y-20730900D01*
X9886971Y-20745054D01*
X9819945Y-20772817D01*
X9759622Y-20813123D01*
X9708323Y-20864422D01*
X9668017Y-20924745D01*
X9640254Y-20991771D01*
X9626100Y-21062926D01*
X9101857Y-21062926D01*
X9076183Y-21000945D01*
X9035877Y-20940622D01*
X8984578Y-20889323D01*
X8924255Y-20849017D01*
X8857229Y-20821254D01*
X8786074Y-20807100D01*
X8713526Y-20807100D01*
X8642371Y-20821254D01*
X8575345Y-20849017D01*
X8515022Y-20889323D01*
X8504745Y-20899600D01*
X8467055Y-20874417D01*
X8400029Y-20846654D01*
X8328874Y-20832500D01*
X8256326Y-20832500D01*
X8185171Y-20846654D01*
X8118145Y-20874417D01*
X8080455Y-20899600D01*
X8070178Y-20889323D01*
X8009855Y-20849017D01*
X7942829Y-20821254D01*
X7871674Y-20807100D01*
X7799126Y-20807100D01*
X7727971Y-20821254D01*
X7660945Y-20849017D01*
X7600622Y-20889323D01*
X7549323Y-20940622D01*
X7509017Y-21000945D01*
X7481254Y-21067971D01*
X7467100Y-21139126D01*
X5814736Y-21139126D01*
X5799583Y-21102545D01*
X5759277Y-21042222D01*
X5707978Y-20990923D01*
X5647655Y-20950617D01*
X5580629Y-20922854D01*
X5509474Y-20908700D01*
X5436926Y-20908700D01*
X5365771Y-20922854D01*
X5298745Y-20950617D01*
X5238422Y-20990923D01*
X5187123Y-21042222D01*
X5146817Y-21102545D01*
X5136621Y-21127160D01*
X5072629Y-21100654D01*
X5001474Y-21086500D01*
X4928926Y-21086500D01*
X4857771Y-21100654D01*
X4790745Y-21128417D01*
X4730422Y-21168723D01*
X4679123Y-21220022D01*
X4638817Y-21280345D01*
X4611054Y-21347371D01*
X4596900Y-21418526D01*
X4313500Y-21418526D01*
X4313500Y-20063500D01*
X4772786Y-20063500D01*
X4740417Y-20111945D01*
M02*
