G04 #@! TF.GenerationSoftware,KiCad,Pcbnew,(5.1.0)-1*
G04 #@! TF.CreationDate,2019-05-03T21:31:27-07:00*
G04 #@! TF.ProjectId,Miniscope-v4-PCB-fab-assembly_2,4d696e69-7363-46f7-9065-2d76342d5043,rev?*
G04 #@! TF.SameCoordinates,PX4b8e5e4PY51f011c*
G04 #@! TF.FileFunction,Copper,L2,Inr*
G04 #@! TF.FilePolarity,Positive*
%FSLAX46Y46*%
G04 Gerber Fmt 4.6, Leading zero omitted, Abs format (unit mm)*
G04 Created by KiCad (PCBNEW (5.1.0)-1) date 2019-05-03 21:31:27*
%MOMM*%
%LPD*%
G04 APERTURE LIST*
%ADD10C,0.355600*%
%ADD11C,0.450000*%
%ADD12C,0.152000*%
%ADD13C,0.203200*%
%ADD14C,0.127000*%
%ADD15C,0.101600*%
%ADD16C,0.254000*%
%ADD17C,0.177800*%
G04 APERTURE END LIST*
D10*
X13448800Y-25315600D03*
X13804400Y-27017400D03*
X4609600Y-26382400D03*
X4533400Y-19651400D03*
X6590800Y-19626000D03*
X5742800Y-23096000D03*
X12331200Y-20311800D03*
X7582899Y-23733600D03*
X7759200Y-22661600D03*
X8749800Y-21175400D03*
X9994400Y-21099200D03*
X12305800Y-22064400D03*
X7251197Y-25595003D03*
X5854200Y-25595000D03*
X5473200Y-21277000D03*
X5473200Y-21937400D03*
X12940800Y-24655200D03*
X12610600Y-25010800D03*
X9156198Y-25645800D03*
D11*
X31094020Y-4544540D03*
X26293420Y-9548340D03*
X26344220Y-6805140D03*
X23093020Y-4976340D03*
X25023420Y-4807440D03*
X28046020Y-4544540D03*
X29290620Y-4544540D03*
X27165920Y-8379939D03*
X23118420Y-6220940D03*
X26281580Y-19569060D03*
X21404780Y-25309460D03*
X23296180Y-19599060D03*
X25251980Y-23065150D03*
X26611780Y-23988662D03*
D10*
X13988020Y-33471340D03*
X15689820Y-34258740D03*
X8984220Y-35805600D03*
X8976600Y-36516800D03*
X15504400Y-37659800D03*
X12583400Y-37710600D03*
X9865600Y-35627800D03*
X10975580Y-39051720D03*
X8384780Y-35810680D03*
X8245080Y-37222920D03*
X4630660Y-32404540D03*
X6413000Y-37444600D03*
X6512800Y-39567340D03*
X13480020Y-35020740D03*
X5199620Y-38424340D03*
X4615420Y-36951140D03*
X13276820Y-33445936D03*
X8572000Y-20388000D03*
X5676400Y-19549806D03*
X5066800Y-20286400D03*
X14007600Y-19016400D03*
X5600200Y-26407811D03*
D11*
X21988980Y-19010260D03*
D10*
X4666220Y-38881540D03*
X15791420Y-35808140D03*
X5598405Y-32402000D03*
X4787400Y-25468000D03*
X6336774Y-25595000D03*
X10858000Y-23436000D03*
X9457890Y-23690000D03*
X4812800Y-24782200D03*
X13982200Y-24807600D03*
X13321800Y-26382400D03*
X6590800Y-20286400D03*
X6768587Y-25595000D03*
X10553200Y-21099200D03*
X11975600Y-25620400D03*
X27944380Y-21554860D03*
X23702580Y-23053460D03*
D11*
X22674780Y-24826858D03*
D10*
X23677180Y-22081919D03*
X14007600Y-19956200D03*
X5117600Y-26992000D03*
X7530600Y-19524400D03*
X6260600Y-24502800D03*
X11518400Y-21022994D03*
X8495800Y-22445400D03*
X4965200Y-21454800D03*
X12280401Y-23232800D03*
D11*
X26776020Y-8938740D03*
X27411020Y-4595340D03*
X27766620Y-5992340D03*
X22278420Y-7313140D03*
X31094020Y-8583140D03*
X26764180Y-18959460D03*
X22649380Y-19594460D03*
D10*
X5115805Y-33011600D03*
X4689080Y-35759880D03*
X14996400Y-33443400D03*
X6159000Y-23766200D03*
X10731000Y-22521600D03*
X9846600Y-20337200D03*
X13398000Y-24299600D03*
X7749601Y-25620400D03*
D11*
X23487580Y-25131660D03*
D10*
X7530600Y-26407810D03*
X9461000Y-26407810D03*
X10908800Y-26992000D03*
X12356600Y-26407800D03*
X13982200Y-22877200D03*
X8648200Y-23410600D03*
X7048000Y-26992000D03*
X8978400Y-26992000D03*
X10426200Y-26407810D03*
X12839200Y-27017400D03*
X13372600Y-21404000D03*
X5854200Y-24299600D03*
D11*
X22652488Y-22215929D03*
X28288180Y-25030060D03*
D10*
X14007600Y-21912000D03*
X7784600Y-23207400D03*
D11*
X21988980Y-21905860D03*
D10*
X27551580Y-25309460D03*
X13372600Y-22369200D03*
X8191000Y-23486800D03*
D11*
X21404780Y-22413860D03*
D10*
X27055380Y-24958460D03*
X8013200Y-26992000D03*
X9003800Y-23715400D03*
X8495800Y-26407810D03*
X9854878Y-23376516D03*
X11391400Y-26407810D03*
X10197600Y-23664606D03*
X14007600Y-20946800D03*
X7835400Y-21175400D03*
D11*
X28211980Y-19823060D03*
D10*
X13372600Y-20464200D03*
X8292600Y-21200800D03*
D11*
X28186580Y-19111860D03*
X21379380Y-19467460D03*
X23462180Y-20508860D03*
D10*
X14007600Y-23817000D03*
X6565400Y-26382400D03*
X13372600Y-23334400D03*
X6082800Y-26992000D03*
D11*
X28223780Y-20488060D03*
X25328220Y-9548340D03*
X25912420Y-6424140D03*
X31094020Y-8024340D03*
X25316363Y-19569060D03*
D10*
X26055738Y-24801460D03*
D11*
X25810820Y-8938740D03*
X25150420Y-5357340D03*
X28452420Y-8583140D03*
X25798980Y-18959460D03*
D10*
X26560980Y-25360260D03*
D11*
X24833780Y-18959460D03*
D10*
X25538009Y-20642831D03*
X25556780Y-25050950D03*
D11*
X24351180Y-19569060D03*
X28630220Y-4544540D03*
X29900220Y-4544540D03*
X21569020Y-5611340D03*
X27411020Y-5179534D03*
X24845620Y-8938740D03*
X24591620Y-5154140D03*
X24744020Y-8176740D03*
X23474020Y-7592540D03*
X21569020Y-7617940D03*
D10*
X5260580Y-39364140D03*
X7998000Y-39029600D03*
X13330160Y-32396920D03*
X14505000Y-32607740D03*
X8998000Y-34362889D03*
X10498000Y-34362889D03*
X8998000Y-39029600D03*
X14128000Y-39793400D03*
X8498000Y-39029600D03*
X7000480Y-39036480D03*
X7500860Y-39028860D03*
X9498000Y-39029600D03*
X10906999Y-33011600D03*
X6413000Y-35944600D03*
X7528803Y-32402000D03*
X6413000Y-35444600D03*
X7046203Y-33011600D03*
X6413000Y-34944600D03*
X6413000Y-36944600D03*
X6563604Y-32402000D03*
X4653520Y-37913801D03*
X6413000Y-36444600D03*
X6088527Y-33004077D03*
X5225020Y-37484540D03*
X5893396Y-39016516D03*
X12352488Y-32399744D03*
X11083000Y-36444600D03*
X11389599Y-32402000D03*
X11083000Y-35944600D03*
X10429480Y-32404540D03*
X11083000Y-35444600D03*
X9926560Y-33001440D03*
X11049240Y-34939460D03*
X8966440Y-33019220D03*
X9995140Y-34362889D03*
D12*
X26293420Y-6855940D02*
X26344220Y-6805140D01*
D13*
X26293420Y-9548340D02*
X26293420Y-6855940D01*
D14*
G36*
X13721523Y-18781622D02*
G01*
X13681217Y-18841945D01*
X13653454Y-18908971D01*
X13639300Y-18980126D01*
X13639300Y-19052674D01*
X13653454Y-19123829D01*
X13681217Y-19190855D01*
X13721523Y-19251178D01*
X13772822Y-19302477D01*
X13833145Y-19342783D01*
X13900171Y-19370546D01*
X13971326Y-19384700D01*
X14043874Y-19384700D01*
X14115029Y-19370546D01*
X14182055Y-19342783D01*
X14234501Y-19307740D01*
X14234501Y-19664860D01*
X14182055Y-19629817D01*
X14115029Y-19602054D01*
X14043874Y-19587900D01*
X13971326Y-19587900D01*
X13900171Y-19602054D01*
X13833145Y-19629817D01*
X13772822Y-19670123D01*
X13721523Y-19721422D01*
X13681217Y-19781745D01*
X13653454Y-19848771D01*
X13639300Y-19919926D01*
X13639300Y-19992474D01*
X13653454Y-20063629D01*
X13681217Y-20130655D01*
X13721523Y-20190978D01*
X13772822Y-20242277D01*
X13833145Y-20282583D01*
X13900171Y-20310346D01*
X13971326Y-20324500D01*
X14043874Y-20324500D01*
X14115029Y-20310346D01*
X14182055Y-20282583D01*
X14234501Y-20247540D01*
X14234501Y-20655460D01*
X14182055Y-20620417D01*
X14115029Y-20592654D01*
X14043874Y-20578500D01*
X13971326Y-20578500D01*
X13900171Y-20592654D01*
X13833145Y-20620417D01*
X13772822Y-20660723D01*
X13721523Y-20712022D01*
X13681217Y-20772345D01*
X13653454Y-20839371D01*
X13639300Y-20910526D01*
X13639300Y-20983074D01*
X13653454Y-21054229D01*
X13681217Y-21121255D01*
X13721523Y-21181578D01*
X13772822Y-21232877D01*
X13833145Y-21273183D01*
X13900171Y-21300946D01*
X13971326Y-21315100D01*
X14043874Y-21315100D01*
X14115029Y-21300946D01*
X14182055Y-21273183D01*
X14234501Y-21238140D01*
X14234501Y-21620660D01*
X14182055Y-21585617D01*
X14115029Y-21557854D01*
X14043874Y-21543700D01*
X13971326Y-21543700D01*
X13900171Y-21557854D01*
X13833145Y-21585617D01*
X13772822Y-21625923D01*
X13721523Y-21677222D01*
X13681217Y-21737545D01*
X13653454Y-21804571D01*
X13639300Y-21875726D01*
X13639300Y-21948274D01*
X13653454Y-22019429D01*
X13681217Y-22086455D01*
X13721523Y-22146778D01*
X13772822Y-22198077D01*
X13833145Y-22238383D01*
X13900171Y-22266146D01*
X13971326Y-22280300D01*
X14043874Y-22280300D01*
X14115029Y-22266146D01*
X14182055Y-22238383D01*
X14234501Y-22203340D01*
X14234501Y-22608646D01*
X14216978Y-22591123D01*
X14156655Y-22550817D01*
X14089629Y-22523054D01*
X14018474Y-22508900D01*
X13945926Y-22508900D01*
X13874771Y-22523054D01*
X13807745Y-22550817D01*
X13747422Y-22591123D01*
X13696123Y-22642422D01*
X13655817Y-22702745D01*
X13628054Y-22769771D01*
X13613900Y-22840926D01*
X13613900Y-22913474D01*
X13628054Y-22984629D01*
X13655817Y-23051655D01*
X13696123Y-23111978D01*
X13747422Y-23163277D01*
X13807745Y-23203583D01*
X13874771Y-23231346D01*
X13945926Y-23245500D01*
X14018474Y-23245500D01*
X14089629Y-23231346D01*
X14156655Y-23203583D01*
X14216978Y-23163277D01*
X14234500Y-23145755D01*
X14234500Y-23525659D01*
X14182055Y-23490617D01*
X14115029Y-23462854D01*
X14043874Y-23448700D01*
X13971326Y-23448700D01*
X13900171Y-23462854D01*
X13833145Y-23490617D01*
X13772822Y-23530923D01*
X13721523Y-23582222D01*
X13681217Y-23642545D01*
X13653454Y-23709571D01*
X13639300Y-23780726D01*
X13639300Y-23853274D01*
X13653454Y-23924429D01*
X13681217Y-23991455D01*
X13721523Y-24051778D01*
X13772822Y-24103077D01*
X13833145Y-24143383D01*
X13900171Y-24171146D01*
X13971326Y-24185300D01*
X14043874Y-24185300D01*
X14115029Y-24171146D01*
X14182055Y-24143383D01*
X14234500Y-24108341D01*
X14234500Y-24539045D01*
X14216978Y-24521523D01*
X14156655Y-24481217D01*
X14089629Y-24453454D01*
X14018474Y-24439300D01*
X13945926Y-24439300D01*
X13874771Y-24453454D01*
X13807745Y-24481217D01*
X13747422Y-24521523D01*
X13696123Y-24572822D01*
X13655817Y-24633145D01*
X13628054Y-24700171D01*
X13613900Y-24771326D01*
X13613900Y-24843874D01*
X13628054Y-24915029D01*
X13655817Y-24982055D01*
X13696123Y-25042378D01*
X13747422Y-25093677D01*
X13807745Y-25133983D01*
X13874771Y-25161746D01*
X13945926Y-25175900D01*
X14018474Y-25175900D01*
X14089629Y-25161746D01*
X14156655Y-25133983D01*
X14216978Y-25093677D01*
X14234500Y-25076155D01*
X14234500Y-27234500D01*
X13137089Y-27234500D01*
X13165583Y-27191855D01*
X13193346Y-27124829D01*
X13207500Y-27053674D01*
X13207500Y-26981126D01*
X13193346Y-26909971D01*
X13165583Y-26842945D01*
X13125277Y-26782622D01*
X13073978Y-26731323D01*
X13013655Y-26691017D01*
X12946629Y-26663254D01*
X12875474Y-26649100D01*
X12802926Y-26649100D01*
X12731771Y-26663254D01*
X12664745Y-26691017D01*
X12604422Y-26731323D01*
X12553123Y-26782622D01*
X12512817Y-26842945D01*
X12485054Y-26909971D01*
X12470900Y-26981126D01*
X12470900Y-27053674D01*
X12485054Y-27124829D01*
X12512817Y-27191855D01*
X12541311Y-27234500D01*
X11187155Y-27234500D01*
X11194877Y-27226778D01*
X11235183Y-27166455D01*
X11262946Y-27099429D01*
X11277100Y-27028274D01*
X11277100Y-26955726D01*
X11262946Y-26884571D01*
X11235183Y-26817545D01*
X11194877Y-26757222D01*
X11143578Y-26705923D01*
X11083255Y-26665617D01*
X11016229Y-26637854D01*
X10945074Y-26623700D01*
X10872526Y-26623700D01*
X10801371Y-26637854D01*
X10734345Y-26665617D01*
X10674022Y-26705923D01*
X10622723Y-26757222D01*
X10582417Y-26817545D01*
X10554654Y-26884571D01*
X10540500Y-26955726D01*
X10540500Y-27028274D01*
X10554654Y-27099429D01*
X10582417Y-27166455D01*
X10622723Y-27226778D01*
X10630445Y-27234500D01*
X9256755Y-27234500D01*
X9264477Y-27226778D01*
X9304783Y-27166455D01*
X9332546Y-27099429D01*
X9346700Y-27028274D01*
X9346700Y-26955726D01*
X9332546Y-26884571D01*
X9304783Y-26817545D01*
X9264477Y-26757222D01*
X9213178Y-26705923D01*
X9152855Y-26665617D01*
X9085829Y-26637854D01*
X9014674Y-26623700D01*
X8942126Y-26623700D01*
X8870971Y-26637854D01*
X8803945Y-26665617D01*
X8743622Y-26705923D01*
X8692323Y-26757222D01*
X8652017Y-26817545D01*
X8624254Y-26884571D01*
X8610100Y-26955726D01*
X8610100Y-27028274D01*
X8624254Y-27099429D01*
X8652017Y-27166455D01*
X8692323Y-27226778D01*
X8700045Y-27234500D01*
X8291555Y-27234500D01*
X8299277Y-27226778D01*
X8339583Y-27166455D01*
X8367346Y-27099429D01*
X8381500Y-27028274D01*
X8381500Y-26955726D01*
X8367346Y-26884571D01*
X8339583Y-26817545D01*
X8299277Y-26757222D01*
X8247978Y-26705923D01*
X8187655Y-26665617D01*
X8120629Y-26637854D01*
X8049474Y-26623700D01*
X7976926Y-26623700D01*
X7905771Y-26637854D01*
X7838745Y-26665617D01*
X7778422Y-26705923D01*
X7727123Y-26757222D01*
X7686817Y-26817545D01*
X7659054Y-26884571D01*
X7644900Y-26955726D01*
X7644900Y-27028274D01*
X7659054Y-27099429D01*
X7686817Y-27166455D01*
X7727123Y-27226778D01*
X7734845Y-27234500D01*
X7326355Y-27234500D01*
X7334077Y-27226778D01*
X7374383Y-27166455D01*
X7402146Y-27099429D01*
X7416300Y-27028274D01*
X7416300Y-26955726D01*
X7402146Y-26884571D01*
X7374383Y-26817545D01*
X7334077Y-26757222D01*
X7282778Y-26705923D01*
X7222455Y-26665617D01*
X7155429Y-26637854D01*
X7084274Y-26623700D01*
X7011726Y-26623700D01*
X6940571Y-26637854D01*
X6873545Y-26665617D01*
X6813222Y-26705923D01*
X6761923Y-26757222D01*
X6721617Y-26817545D01*
X6693854Y-26884571D01*
X6679700Y-26955726D01*
X6679700Y-27028274D01*
X6693854Y-27099429D01*
X6721617Y-27166455D01*
X6761923Y-27226778D01*
X6769645Y-27234500D01*
X6361155Y-27234500D01*
X6368877Y-27226778D01*
X6409183Y-27166455D01*
X6436946Y-27099429D01*
X6451100Y-27028274D01*
X6451100Y-26955726D01*
X6436946Y-26884571D01*
X6409183Y-26817545D01*
X6368877Y-26757222D01*
X6317578Y-26705923D01*
X6257255Y-26665617D01*
X6190229Y-26637854D01*
X6119074Y-26623700D01*
X6046526Y-26623700D01*
X5975371Y-26637854D01*
X5908345Y-26665617D01*
X5848022Y-26705923D01*
X5796723Y-26757222D01*
X5756417Y-26817545D01*
X5728654Y-26884571D01*
X5714500Y-26955726D01*
X5714500Y-27028274D01*
X5728654Y-27099429D01*
X5756417Y-27166455D01*
X5796723Y-27226778D01*
X5804445Y-27234500D01*
X5395955Y-27234500D01*
X5403677Y-27226778D01*
X5443983Y-27166455D01*
X5471746Y-27099429D01*
X5485900Y-27028274D01*
X5485900Y-26955726D01*
X5471746Y-26884571D01*
X5443983Y-26817545D01*
X5403677Y-26757222D01*
X5352378Y-26705923D01*
X5292055Y-26665617D01*
X5225029Y-26637854D01*
X5153874Y-26623700D01*
X5081326Y-26623700D01*
X5010171Y-26637854D01*
X4943145Y-26665617D01*
X4882822Y-26705923D01*
X4831523Y-26757222D01*
X4791217Y-26817545D01*
X4763454Y-26884571D01*
X4749300Y-26955726D01*
X4749300Y-27028274D01*
X4763454Y-27099429D01*
X4791217Y-27166455D01*
X4831523Y-27226778D01*
X4839245Y-27234500D01*
X4265500Y-27234500D01*
X4265500Y-26371537D01*
X5231900Y-26371537D01*
X5231900Y-26444085D01*
X5246054Y-26515240D01*
X5273817Y-26582266D01*
X5314123Y-26642589D01*
X5365422Y-26693888D01*
X5425745Y-26734194D01*
X5492771Y-26761957D01*
X5563926Y-26776111D01*
X5636474Y-26776111D01*
X5707629Y-26761957D01*
X5774655Y-26734194D01*
X5834978Y-26693888D01*
X5886277Y-26642589D01*
X5926583Y-26582266D01*
X5954346Y-26515240D01*
X5968500Y-26444085D01*
X5968500Y-26371537D01*
X5963446Y-26346126D01*
X6197100Y-26346126D01*
X6197100Y-26418674D01*
X6211254Y-26489829D01*
X6239017Y-26556855D01*
X6279323Y-26617178D01*
X6330622Y-26668477D01*
X6390945Y-26708783D01*
X6457971Y-26736546D01*
X6529126Y-26750700D01*
X6601674Y-26750700D01*
X6672829Y-26736546D01*
X6739855Y-26708783D01*
X6800178Y-26668477D01*
X6851477Y-26617178D01*
X6891783Y-26556855D01*
X6919546Y-26489829D01*
X6933700Y-26418674D01*
X6933700Y-26371536D01*
X7162300Y-26371536D01*
X7162300Y-26444084D01*
X7176454Y-26515239D01*
X7204217Y-26582265D01*
X7244523Y-26642588D01*
X7295822Y-26693887D01*
X7356145Y-26734193D01*
X7423171Y-26761956D01*
X7494326Y-26776110D01*
X7566874Y-26776110D01*
X7638029Y-26761956D01*
X7705055Y-26734193D01*
X7765378Y-26693887D01*
X7816677Y-26642588D01*
X7856983Y-26582265D01*
X7884746Y-26515239D01*
X7898900Y-26444084D01*
X7898900Y-26371536D01*
X8127500Y-26371536D01*
X8127500Y-26444084D01*
X8141654Y-26515239D01*
X8169417Y-26582265D01*
X8209723Y-26642588D01*
X8261022Y-26693887D01*
X8321345Y-26734193D01*
X8388371Y-26761956D01*
X8459526Y-26776110D01*
X8532074Y-26776110D01*
X8603229Y-26761956D01*
X8670255Y-26734193D01*
X8730578Y-26693887D01*
X8781877Y-26642588D01*
X8822183Y-26582265D01*
X8849946Y-26515239D01*
X8864100Y-26444084D01*
X8864100Y-26371536D01*
X9092700Y-26371536D01*
X9092700Y-26444084D01*
X9106854Y-26515239D01*
X9134617Y-26582265D01*
X9174923Y-26642588D01*
X9226222Y-26693887D01*
X9286545Y-26734193D01*
X9353571Y-26761956D01*
X9424726Y-26776110D01*
X9497274Y-26776110D01*
X9568429Y-26761956D01*
X9635455Y-26734193D01*
X9695778Y-26693887D01*
X9747077Y-26642588D01*
X9787383Y-26582265D01*
X9815146Y-26515239D01*
X9829300Y-26444084D01*
X9829300Y-26371536D01*
X10057900Y-26371536D01*
X10057900Y-26444084D01*
X10072054Y-26515239D01*
X10099817Y-26582265D01*
X10140123Y-26642588D01*
X10191422Y-26693887D01*
X10251745Y-26734193D01*
X10318771Y-26761956D01*
X10389926Y-26776110D01*
X10462474Y-26776110D01*
X10533629Y-26761956D01*
X10600655Y-26734193D01*
X10660978Y-26693887D01*
X10712277Y-26642588D01*
X10752583Y-26582265D01*
X10780346Y-26515239D01*
X10794500Y-26444084D01*
X10794500Y-26371536D01*
X11023100Y-26371536D01*
X11023100Y-26444084D01*
X11037254Y-26515239D01*
X11065017Y-26582265D01*
X11105323Y-26642588D01*
X11156622Y-26693887D01*
X11216945Y-26734193D01*
X11283971Y-26761956D01*
X11355126Y-26776110D01*
X11427674Y-26776110D01*
X11498829Y-26761956D01*
X11565855Y-26734193D01*
X11626178Y-26693887D01*
X11677477Y-26642588D01*
X11717783Y-26582265D01*
X11745546Y-26515239D01*
X11759700Y-26444084D01*
X11759700Y-26371536D01*
X11759699Y-26371526D01*
X11988300Y-26371526D01*
X11988300Y-26444074D01*
X12002454Y-26515229D01*
X12030217Y-26582255D01*
X12070523Y-26642578D01*
X12121822Y-26693877D01*
X12182145Y-26734183D01*
X12249171Y-26761946D01*
X12320326Y-26776100D01*
X12392874Y-26776100D01*
X12464029Y-26761946D01*
X12531055Y-26734183D01*
X12591378Y-26693877D01*
X12642677Y-26642578D01*
X12682983Y-26582255D01*
X12710746Y-26515229D01*
X12724900Y-26444074D01*
X12724900Y-26371526D01*
X12719848Y-26346126D01*
X12953500Y-26346126D01*
X12953500Y-26418674D01*
X12967654Y-26489829D01*
X12995417Y-26556855D01*
X13035723Y-26617178D01*
X13087022Y-26668477D01*
X13147345Y-26708783D01*
X13214371Y-26736546D01*
X13285526Y-26750700D01*
X13358074Y-26750700D01*
X13429229Y-26736546D01*
X13496255Y-26708783D01*
X13556578Y-26668477D01*
X13607877Y-26617178D01*
X13648183Y-26556855D01*
X13675946Y-26489829D01*
X13690100Y-26418674D01*
X13690100Y-26346126D01*
X13675946Y-26274971D01*
X13648183Y-26207945D01*
X13607877Y-26147622D01*
X13556578Y-26096323D01*
X13496255Y-26056017D01*
X13429229Y-26028254D01*
X13358074Y-26014100D01*
X13285526Y-26014100D01*
X13214371Y-26028254D01*
X13147345Y-26056017D01*
X13087022Y-26096323D01*
X13035723Y-26147622D01*
X12995417Y-26207945D01*
X12967654Y-26274971D01*
X12953500Y-26346126D01*
X12719848Y-26346126D01*
X12710746Y-26300371D01*
X12682983Y-26233345D01*
X12642677Y-26173022D01*
X12591378Y-26121723D01*
X12531055Y-26081417D01*
X12464029Y-26053654D01*
X12392874Y-26039500D01*
X12320326Y-26039500D01*
X12249171Y-26053654D01*
X12182145Y-26081417D01*
X12121822Y-26121723D01*
X12070523Y-26173022D01*
X12030217Y-26233345D01*
X12002454Y-26300371D01*
X11988300Y-26371526D01*
X11759699Y-26371526D01*
X11745546Y-26300381D01*
X11717783Y-26233355D01*
X11677477Y-26173032D01*
X11626178Y-26121733D01*
X11565855Y-26081427D01*
X11498829Y-26053664D01*
X11427674Y-26039510D01*
X11355126Y-26039510D01*
X11283971Y-26053664D01*
X11216945Y-26081427D01*
X11156622Y-26121733D01*
X11105323Y-26173032D01*
X11065017Y-26233355D01*
X11037254Y-26300381D01*
X11023100Y-26371536D01*
X10794500Y-26371536D01*
X10780346Y-26300381D01*
X10752583Y-26233355D01*
X10712277Y-26173032D01*
X10660978Y-26121733D01*
X10600655Y-26081427D01*
X10533629Y-26053664D01*
X10462474Y-26039510D01*
X10389926Y-26039510D01*
X10318771Y-26053664D01*
X10251745Y-26081427D01*
X10191422Y-26121733D01*
X10140123Y-26173032D01*
X10099817Y-26233355D01*
X10072054Y-26300381D01*
X10057900Y-26371536D01*
X9829300Y-26371536D01*
X9815146Y-26300381D01*
X9787383Y-26233355D01*
X9747077Y-26173032D01*
X9695778Y-26121733D01*
X9635455Y-26081427D01*
X9568429Y-26053664D01*
X9497274Y-26039510D01*
X9424726Y-26039510D01*
X9353571Y-26053664D01*
X9286545Y-26081427D01*
X9226222Y-26121733D01*
X9174923Y-26173032D01*
X9134617Y-26233355D01*
X9106854Y-26300381D01*
X9092700Y-26371536D01*
X8864100Y-26371536D01*
X8849946Y-26300381D01*
X8822183Y-26233355D01*
X8781877Y-26173032D01*
X8730578Y-26121733D01*
X8670255Y-26081427D01*
X8603229Y-26053664D01*
X8532074Y-26039510D01*
X8459526Y-26039510D01*
X8388371Y-26053664D01*
X8321345Y-26081427D01*
X8261022Y-26121733D01*
X8209723Y-26173032D01*
X8169417Y-26233355D01*
X8141654Y-26300381D01*
X8127500Y-26371536D01*
X7898900Y-26371536D01*
X7884746Y-26300381D01*
X7856983Y-26233355D01*
X7816677Y-26173032D01*
X7765378Y-26121733D01*
X7705055Y-26081427D01*
X7638029Y-26053664D01*
X7566874Y-26039510D01*
X7494326Y-26039510D01*
X7423171Y-26053664D01*
X7356145Y-26081427D01*
X7295822Y-26121733D01*
X7244523Y-26173032D01*
X7204217Y-26233355D01*
X7176454Y-26300381D01*
X7162300Y-26371536D01*
X6933700Y-26371536D01*
X6933700Y-26346126D01*
X6919546Y-26274971D01*
X6891783Y-26207945D01*
X6851477Y-26147622D01*
X6800178Y-26096323D01*
X6739855Y-26056017D01*
X6672829Y-26028254D01*
X6601674Y-26014100D01*
X6529126Y-26014100D01*
X6457971Y-26028254D01*
X6390945Y-26056017D01*
X6330622Y-26096323D01*
X6279323Y-26147622D01*
X6239017Y-26207945D01*
X6211254Y-26274971D01*
X6197100Y-26346126D01*
X5963446Y-26346126D01*
X5954346Y-26300382D01*
X5926583Y-26233356D01*
X5886277Y-26173033D01*
X5834978Y-26121734D01*
X5774655Y-26081428D01*
X5707629Y-26053665D01*
X5636474Y-26039511D01*
X5563926Y-26039511D01*
X5492771Y-26053665D01*
X5425745Y-26081428D01*
X5365422Y-26121734D01*
X5314123Y-26173033D01*
X5273817Y-26233356D01*
X5246054Y-26300382D01*
X5231900Y-26371537D01*
X4265500Y-26371537D01*
X4265500Y-25431726D01*
X4419100Y-25431726D01*
X4419100Y-25504274D01*
X4433254Y-25575429D01*
X4461017Y-25642455D01*
X4501323Y-25702778D01*
X4552622Y-25754077D01*
X4612945Y-25794383D01*
X4679971Y-25822146D01*
X4751126Y-25836300D01*
X4823674Y-25836300D01*
X4894829Y-25822146D01*
X4961855Y-25794383D01*
X5022178Y-25754077D01*
X5073477Y-25702778D01*
X5113783Y-25642455D01*
X5141546Y-25575429D01*
X5144868Y-25558726D01*
X5968474Y-25558726D01*
X5968474Y-25631274D01*
X5982628Y-25702429D01*
X6010391Y-25769455D01*
X6050697Y-25829778D01*
X6101996Y-25881077D01*
X6162319Y-25921383D01*
X6229345Y-25949146D01*
X6300500Y-25963300D01*
X6373048Y-25963300D01*
X6444203Y-25949146D01*
X6511229Y-25921383D01*
X6552681Y-25893686D01*
X6594132Y-25921383D01*
X6661158Y-25949146D01*
X6732313Y-25963300D01*
X6804861Y-25963300D01*
X6876016Y-25949146D01*
X6943042Y-25921383D01*
X7003365Y-25881077D01*
X7054664Y-25829778D01*
X7094970Y-25769455D01*
X7122733Y-25702429D01*
X7136887Y-25631274D01*
X7136887Y-25584126D01*
X7381301Y-25584126D01*
X7381301Y-25656674D01*
X7395455Y-25727829D01*
X7423218Y-25794855D01*
X7463524Y-25855178D01*
X7514823Y-25906477D01*
X7575146Y-25946783D01*
X7642172Y-25974546D01*
X7713327Y-25988700D01*
X7785875Y-25988700D01*
X7857030Y-25974546D01*
X7924056Y-25946783D01*
X7984379Y-25906477D01*
X8035678Y-25855178D01*
X8075984Y-25794855D01*
X8103747Y-25727829D01*
X8117901Y-25656674D01*
X8117901Y-25584126D01*
X11607300Y-25584126D01*
X11607300Y-25656674D01*
X11621454Y-25727829D01*
X11649217Y-25794855D01*
X11689523Y-25855178D01*
X11740822Y-25906477D01*
X11801145Y-25946783D01*
X11868171Y-25974546D01*
X11939326Y-25988700D01*
X12011874Y-25988700D01*
X12083029Y-25974546D01*
X12150055Y-25946783D01*
X12210378Y-25906477D01*
X12261677Y-25855178D01*
X12301983Y-25794855D01*
X12329746Y-25727829D01*
X12343900Y-25656674D01*
X12343900Y-25584126D01*
X12329746Y-25512971D01*
X12301983Y-25445945D01*
X12261677Y-25385622D01*
X12210378Y-25334323D01*
X12150055Y-25294017D01*
X12083029Y-25266254D01*
X12011874Y-25252100D01*
X11939326Y-25252100D01*
X11868171Y-25266254D01*
X11801145Y-25294017D01*
X11740822Y-25334323D01*
X11689523Y-25385622D01*
X11649217Y-25445945D01*
X11621454Y-25512971D01*
X11607300Y-25584126D01*
X8117901Y-25584126D01*
X8103747Y-25512971D01*
X8075984Y-25445945D01*
X8035678Y-25385622D01*
X7984379Y-25334323D01*
X7924056Y-25294017D01*
X7857030Y-25266254D01*
X7785875Y-25252100D01*
X7713327Y-25252100D01*
X7642172Y-25266254D01*
X7575146Y-25294017D01*
X7514823Y-25334323D01*
X7463524Y-25385622D01*
X7423218Y-25445945D01*
X7395455Y-25512971D01*
X7381301Y-25584126D01*
X7136887Y-25584126D01*
X7136887Y-25558726D01*
X7122733Y-25487571D01*
X7094970Y-25420545D01*
X7054664Y-25360222D01*
X7003365Y-25308923D01*
X6943042Y-25268617D01*
X6876016Y-25240854D01*
X6804861Y-25226700D01*
X6732313Y-25226700D01*
X6661158Y-25240854D01*
X6594132Y-25268617D01*
X6552681Y-25296314D01*
X6511229Y-25268617D01*
X6444203Y-25240854D01*
X6373048Y-25226700D01*
X6300500Y-25226700D01*
X6229345Y-25240854D01*
X6162319Y-25268617D01*
X6101996Y-25308923D01*
X6050697Y-25360222D01*
X6010391Y-25420545D01*
X5982628Y-25487571D01*
X5968474Y-25558726D01*
X5144868Y-25558726D01*
X5155700Y-25504274D01*
X5155700Y-25431726D01*
X5141546Y-25360571D01*
X5113783Y-25293545D01*
X5073477Y-25233222D01*
X5022178Y-25181923D01*
X4961855Y-25141617D01*
X4934679Y-25130360D01*
X4987255Y-25108583D01*
X5047578Y-25068277D01*
X5098877Y-25016978D01*
X5139183Y-24956655D01*
X5166946Y-24889629D01*
X5181100Y-24818474D01*
X5181100Y-24745926D01*
X5166946Y-24674771D01*
X5139183Y-24607745D01*
X5098877Y-24547422D01*
X5047578Y-24496123D01*
X4987255Y-24455817D01*
X4920229Y-24428054D01*
X4849074Y-24413900D01*
X4776526Y-24413900D01*
X4705371Y-24428054D01*
X4638345Y-24455817D01*
X4578022Y-24496123D01*
X4526723Y-24547422D01*
X4486417Y-24607745D01*
X4458654Y-24674771D01*
X4444500Y-24745926D01*
X4444500Y-24818474D01*
X4458654Y-24889629D01*
X4486417Y-24956655D01*
X4526723Y-25016978D01*
X4578022Y-25068277D01*
X4638345Y-25108583D01*
X4665521Y-25119840D01*
X4612945Y-25141617D01*
X4552622Y-25181923D01*
X4501323Y-25233222D01*
X4461017Y-25293545D01*
X4433254Y-25360571D01*
X4419100Y-25431726D01*
X4265500Y-25431726D01*
X4265500Y-24263326D01*
X5485900Y-24263326D01*
X5485900Y-24335874D01*
X5500054Y-24407029D01*
X5527817Y-24474055D01*
X5568123Y-24534378D01*
X5619422Y-24585677D01*
X5679745Y-24625983D01*
X5746771Y-24653746D01*
X5817926Y-24667900D01*
X5890474Y-24667900D01*
X5927307Y-24660573D01*
X5934217Y-24677255D01*
X5974523Y-24737578D01*
X6025822Y-24788877D01*
X6086145Y-24829183D01*
X6153171Y-24856946D01*
X6224326Y-24871100D01*
X6296874Y-24871100D01*
X6368029Y-24856946D01*
X6435055Y-24829183D01*
X6495378Y-24788877D01*
X6546677Y-24737578D01*
X6586983Y-24677255D01*
X6614746Y-24610229D01*
X6628900Y-24539074D01*
X6628900Y-24466526D01*
X6614746Y-24395371D01*
X6586983Y-24328345D01*
X6546677Y-24268022D01*
X6541981Y-24263326D01*
X13029700Y-24263326D01*
X13029700Y-24335874D01*
X13043854Y-24407029D01*
X13071617Y-24474055D01*
X13111923Y-24534378D01*
X13163222Y-24585677D01*
X13223545Y-24625983D01*
X13290571Y-24653746D01*
X13361726Y-24667900D01*
X13434274Y-24667900D01*
X13505429Y-24653746D01*
X13572455Y-24625983D01*
X13632778Y-24585677D01*
X13684077Y-24534378D01*
X13724383Y-24474055D01*
X13752146Y-24407029D01*
X13766300Y-24335874D01*
X13766300Y-24263326D01*
X13752146Y-24192171D01*
X13724383Y-24125145D01*
X13684077Y-24064822D01*
X13632778Y-24013523D01*
X13572455Y-23973217D01*
X13505429Y-23945454D01*
X13434274Y-23931300D01*
X13361726Y-23931300D01*
X13290571Y-23945454D01*
X13223545Y-23973217D01*
X13163222Y-24013523D01*
X13111923Y-24064822D01*
X13071617Y-24125145D01*
X13043854Y-24192171D01*
X13029700Y-24263326D01*
X6541981Y-24263326D01*
X6495378Y-24216723D01*
X6435055Y-24176417D01*
X6368029Y-24148654D01*
X6296874Y-24134500D01*
X6224326Y-24134500D01*
X6187493Y-24141827D01*
X6184458Y-24134500D01*
X6195274Y-24134500D01*
X6266429Y-24120346D01*
X6333455Y-24092583D01*
X6393778Y-24052277D01*
X6445077Y-24000978D01*
X6485383Y-23940655D01*
X6513146Y-23873629D01*
X6527300Y-23802474D01*
X6527300Y-23729926D01*
X6513146Y-23658771D01*
X6485383Y-23591745D01*
X6445077Y-23531422D01*
X6393778Y-23480123D01*
X6333455Y-23439817D01*
X6266429Y-23412054D01*
X6195274Y-23397900D01*
X6122726Y-23397900D01*
X6051571Y-23412054D01*
X5984545Y-23439817D01*
X5924222Y-23480123D01*
X5872923Y-23531422D01*
X5832617Y-23591745D01*
X5804854Y-23658771D01*
X5790700Y-23729926D01*
X5790700Y-23802474D01*
X5804854Y-23873629D01*
X5828742Y-23931300D01*
X5817926Y-23931300D01*
X5746771Y-23945454D01*
X5679745Y-23973217D01*
X5619422Y-24013523D01*
X5568123Y-24064822D01*
X5527817Y-24125145D01*
X5500054Y-24192171D01*
X5485900Y-24263326D01*
X4265500Y-24263326D01*
X4265500Y-23171126D01*
X7416300Y-23171126D01*
X7416300Y-23243674D01*
X7430454Y-23314829D01*
X7458217Y-23381855D01*
X7498523Y-23442178D01*
X7549822Y-23493477D01*
X7610145Y-23533783D01*
X7677171Y-23561546D01*
X7748326Y-23575700D01*
X7820874Y-23575700D01*
X7832700Y-23573348D01*
X7836854Y-23594229D01*
X7864617Y-23661255D01*
X7904923Y-23721578D01*
X7956222Y-23772877D01*
X8016545Y-23813183D01*
X8083571Y-23840946D01*
X8154726Y-23855100D01*
X8227274Y-23855100D01*
X8298429Y-23840946D01*
X8365455Y-23813183D01*
X8425778Y-23772877D01*
X8466508Y-23732147D01*
X8473745Y-23736983D01*
X8540771Y-23764746D01*
X8611926Y-23778900D01*
X8640916Y-23778900D01*
X8649654Y-23822829D01*
X8677417Y-23889855D01*
X8717723Y-23950178D01*
X8769022Y-24001477D01*
X8829345Y-24041783D01*
X8896371Y-24069546D01*
X8967526Y-24083700D01*
X9040074Y-24083700D01*
X9111229Y-24069546D01*
X9178255Y-24041783D01*
X9238578Y-24001477D01*
X9247610Y-23992445D01*
X9283435Y-24016383D01*
X9350461Y-24044146D01*
X9421616Y-24058300D01*
X9494164Y-24058300D01*
X9565319Y-24044146D01*
X9632345Y-24016383D01*
X9692668Y-23976077D01*
X9743967Y-23924778D01*
X9784273Y-23864455D01*
X9812036Y-23797429D01*
X9822502Y-23744816D01*
X9838040Y-23744816D01*
X9843454Y-23772035D01*
X9871217Y-23839061D01*
X9911523Y-23899384D01*
X9962822Y-23950683D01*
X10023145Y-23990989D01*
X10090171Y-24018752D01*
X10161326Y-24032906D01*
X10233874Y-24032906D01*
X10305029Y-24018752D01*
X10372055Y-23990989D01*
X10432378Y-23950683D01*
X10483677Y-23899384D01*
X10523983Y-23839061D01*
X10551746Y-23772035D01*
X10565900Y-23700880D01*
X10565900Y-23661764D01*
X10571923Y-23670778D01*
X10623222Y-23722077D01*
X10683545Y-23762383D01*
X10750571Y-23790146D01*
X10821726Y-23804300D01*
X10894274Y-23804300D01*
X10965429Y-23790146D01*
X11032455Y-23762383D01*
X11092778Y-23722077D01*
X11144077Y-23670778D01*
X11184383Y-23610455D01*
X11212146Y-23543429D01*
X11226300Y-23472274D01*
X11226300Y-23399726D01*
X11212146Y-23328571D01*
X11184383Y-23261545D01*
X11144077Y-23201222D01*
X11139381Y-23196526D01*
X11912101Y-23196526D01*
X11912101Y-23269074D01*
X11926255Y-23340229D01*
X11954018Y-23407255D01*
X11994324Y-23467578D01*
X12045623Y-23518877D01*
X12105946Y-23559183D01*
X12172972Y-23586946D01*
X12244127Y-23601100D01*
X12316675Y-23601100D01*
X12387830Y-23586946D01*
X12454856Y-23559183D01*
X12515179Y-23518877D01*
X12566478Y-23467578D01*
X12606784Y-23407255D01*
X12634547Y-23340229D01*
X12642922Y-23298126D01*
X13004300Y-23298126D01*
X13004300Y-23370674D01*
X13018454Y-23441829D01*
X13046217Y-23508855D01*
X13086523Y-23569178D01*
X13137822Y-23620477D01*
X13198145Y-23660783D01*
X13265171Y-23688546D01*
X13336326Y-23702700D01*
X13408874Y-23702700D01*
X13480029Y-23688546D01*
X13547055Y-23660783D01*
X13607378Y-23620477D01*
X13658677Y-23569178D01*
X13698983Y-23508855D01*
X13726746Y-23441829D01*
X13740900Y-23370674D01*
X13740900Y-23298126D01*
X13726746Y-23226971D01*
X13698983Y-23159945D01*
X13658677Y-23099622D01*
X13607378Y-23048323D01*
X13547055Y-23008017D01*
X13480029Y-22980254D01*
X13408874Y-22966100D01*
X13336326Y-22966100D01*
X13265171Y-22980254D01*
X13198145Y-23008017D01*
X13137822Y-23048323D01*
X13086523Y-23099622D01*
X13046217Y-23159945D01*
X13018454Y-23226971D01*
X13004300Y-23298126D01*
X12642922Y-23298126D01*
X12648701Y-23269074D01*
X12648701Y-23196526D01*
X12634547Y-23125371D01*
X12606784Y-23058345D01*
X12566478Y-22998022D01*
X12515179Y-22946723D01*
X12454856Y-22906417D01*
X12387830Y-22878654D01*
X12316675Y-22864500D01*
X12244127Y-22864500D01*
X12172972Y-22878654D01*
X12105946Y-22906417D01*
X12045623Y-22946723D01*
X11994324Y-22998022D01*
X11954018Y-23058345D01*
X11926255Y-23125371D01*
X11912101Y-23196526D01*
X11139381Y-23196526D01*
X11092778Y-23149923D01*
X11032455Y-23109617D01*
X10965429Y-23081854D01*
X10894274Y-23067700D01*
X10821726Y-23067700D01*
X10750571Y-23081854D01*
X10683545Y-23109617D01*
X10623222Y-23149923D01*
X10571923Y-23201222D01*
X10531617Y-23261545D01*
X10503854Y-23328571D01*
X10489700Y-23399726D01*
X10489700Y-23438842D01*
X10483677Y-23429828D01*
X10432378Y-23378529D01*
X10372055Y-23338223D01*
X10305029Y-23310460D01*
X10233874Y-23296306D01*
X10214438Y-23296306D01*
X10209024Y-23269087D01*
X10181261Y-23202061D01*
X10140955Y-23141738D01*
X10089656Y-23090439D01*
X10029333Y-23050133D01*
X9962307Y-23022370D01*
X9891152Y-23008216D01*
X9818604Y-23008216D01*
X9747449Y-23022370D01*
X9680423Y-23050133D01*
X9620100Y-23090439D01*
X9568801Y-23141738D01*
X9528495Y-23202061D01*
X9500732Y-23269087D01*
X9490266Y-23321700D01*
X9421616Y-23321700D01*
X9350461Y-23335854D01*
X9283435Y-23363617D01*
X9223112Y-23403923D01*
X9214080Y-23412955D01*
X9178255Y-23389017D01*
X9111229Y-23361254D01*
X9040074Y-23347100D01*
X9011084Y-23347100D01*
X9002346Y-23303171D01*
X8974583Y-23236145D01*
X8934277Y-23175822D01*
X8882978Y-23124523D01*
X8822655Y-23084217D01*
X8755629Y-23056454D01*
X8684474Y-23042300D01*
X8611926Y-23042300D01*
X8540771Y-23056454D01*
X8473745Y-23084217D01*
X8413422Y-23124523D01*
X8372692Y-23165253D01*
X8365455Y-23160417D01*
X8298429Y-23132654D01*
X8227274Y-23118500D01*
X8154726Y-23118500D01*
X8142900Y-23120852D01*
X8138746Y-23099971D01*
X8110983Y-23032945D01*
X8070677Y-22972622D01*
X8019378Y-22921323D01*
X7959055Y-22881017D01*
X7892029Y-22853254D01*
X7820874Y-22839100D01*
X7748326Y-22839100D01*
X7677171Y-22853254D01*
X7610145Y-22881017D01*
X7549822Y-22921323D01*
X7498523Y-22972622D01*
X7458217Y-23032945D01*
X7430454Y-23099971D01*
X7416300Y-23171126D01*
X4265500Y-23171126D01*
X4265500Y-22409126D01*
X8127500Y-22409126D01*
X8127500Y-22481674D01*
X8141654Y-22552829D01*
X8169417Y-22619855D01*
X8209723Y-22680178D01*
X8261022Y-22731477D01*
X8321345Y-22771783D01*
X8388371Y-22799546D01*
X8459526Y-22813700D01*
X8532074Y-22813700D01*
X8603229Y-22799546D01*
X8670255Y-22771783D01*
X8730578Y-22731477D01*
X8781877Y-22680178D01*
X8822183Y-22619855D01*
X8849946Y-22552829D01*
X8863373Y-22485326D01*
X10362700Y-22485326D01*
X10362700Y-22557874D01*
X10376854Y-22629029D01*
X10404617Y-22696055D01*
X10444923Y-22756378D01*
X10496222Y-22807677D01*
X10556545Y-22847983D01*
X10623571Y-22875746D01*
X10694726Y-22889900D01*
X10767274Y-22889900D01*
X10838429Y-22875746D01*
X10905455Y-22847983D01*
X10965778Y-22807677D01*
X11017077Y-22756378D01*
X11057383Y-22696055D01*
X11085146Y-22629029D01*
X11099300Y-22557874D01*
X11099300Y-22485326D01*
X11085146Y-22414171D01*
X11057383Y-22347145D01*
X11047883Y-22332926D01*
X13004300Y-22332926D01*
X13004300Y-22405474D01*
X13018454Y-22476629D01*
X13046217Y-22543655D01*
X13086523Y-22603978D01*
X13137822Y-22655277D01*
X13198145Y-22695583D01*
X13265171Y-22723346D01*
X13336326Y-22737500D01*
X13408874Y-22737500D01*
X13480029Y-22723346D01*
X13547055Y-22695583D01*
X13607378Y-22655277D01*
X13658677Y-22603978D01*
X13698983Y-22543655D01*
X13726746Y-22476629D01*
X13740900Y-22405474D01*
X13740900Y-22332926D01*
X13726746Y-22261771D01*
X13698983Y-22194745D01*
X13658677Y-22134422D01*
X13607378Y-22083123D01*
X13547055Y-22042817D01*
X13480029Y-22015054D01*
X13408874Y-22000900D01*
X13336326Y-22000900D01*
X13265171Y-22015054D01*
X13198145Y-22042817D01*
X13137822Y-22083123D01*
X13086523Y-22134422D01*
X13046217Y-22194745D01*
X13018454Y-22261771D01*
X13004300Y-22332926D01*
X11047883Y-22332926D01*
X11017077Y-22286822D01*
X10965778Y-22235523D01*
X10905455Y-22195217D01*
X10838429Y-22167454D01*
X10767274Y-22153300D01*
X10694726Y-22153300D01*
X10623571Y-22167454D01*
X10556545Y-22195217D01*
X10496222Y-22235523D01*
X10444923Y-22286822D01*
X10404617Y-22347145D01*
X10376854Y-22414171D01*
X10362700Y-22485326D01*
X8863373Y-22485326D01*
X8864100Y-22481674D01*
X8864100Y-22409126D01*
X8849946Y-22337971D01*
X8822183Y-22270945D01*
X8781877Y-22210622D01*
X8730578Y-22159323D01*
X8670255Y-22119017D01*
X8603229Y-22091254D01*
X8532074Y-22077100D01*
X8459526Y-22077100D01*
X8388371Y-22091254D01*
X8321345Y-22119017D01*
X8261022Y-22159323D01*
X8209723Y-22210622D01*
X8169417Y-22270945D01*
X8141654Y-22337971D01*
X8127500Y-22409126D01*
X4265500Y-22409126D01*
X4265500Y-21418526D01*
X4596900Y-21418526D01*
X4596900Y-21491074D01*
X4611054Y-21562229D01*
X4638817Y-21629255D01*
X4679123Y-21689578D01*
X4730422Y-21740877D01*
X4790745Y-21781183D01*
X4857771Y-21808946D01*
X4928926Y-21823100D01*
X5001474Y-21823100D01*
X5072629Y-21808946D01*
X5139655Y-21781183D01*
X5199978Y-21740877D01*
X5251277Y-21689578D01*
X5291583Y-21629255D01*
X5319346Y-21562229D01*
X5333500Y-21491074D01*
X5333500Y-21418526D01*
X5319346Y-21347371D01*
X5291583Y-21280345D01*
X5251277Y-21220022D01*
X5199978Y-21168723D01*
X5155683Y-21139126D01*
X7467100Y-21139126D01*
X7467100Y-21211674D01*
X7481254Y-21282829D01*
X7509017Y-21349855D01*
X7549323Y-21410178D01*
X7600622Y-21461477D01*
X7660945Y-21501783D01*
X7727971Y-21529546D01*
X7799126Y-21543700D01*
X7871674Y-21543700D01*
X7942829Y-21529546D01*
X8009855Y-21501783D01*
X8047545Y-21476600D01*
X8057822Y-21486877D01*
X8118145Y-21527183D01*
X8185171Y-21554946D01*
X8256326Y-21569100D01*
X8328874Y-21569100D01*
X8400029Y-21554946D01*
X8467055Y-21527183D01*
X8527378Y-21486877D01*
X8578677Y-21435578D01*
X8618983Y-21375255D01*
X8646746Y-21308229D01*
X8660900Y-21237074D01*
X8660900Y-21164526D01*
X8646746Y-21093371D01*
X8634136Y-21062926D01*
X10184900Y-21062926D01*
X10184900Y-21135474D01*
X10199054Y-21206629D01*
X10226817Y-21273655D01*
X10267123Y-21333978D01*
X10318422Y-21385277D01*
X10378745Y-21425583D01*
X10445771Y-21453346D01*
X10516926Y-21467500D01*
X10589474Y-21467500D01*
X10660629Y-21453346D01*
X10727655Y-21425583D01*
X10787978Y-21385277D01*
X10839277Y-21333978D01*
X10879583Y-21273655D01*
X10907346Y-21206629D01*
X10921500Y-21135474D01*
X10921500Y-21062926D01*
X10907346Y-20991771D01*
X10905254Y-20986720D01*
X11150100Y-20986720D01*
X11150100Y-21059268D01*
X11164254Y-21130423D01*
X11192017Y-21197449D01*
X11232323Y-21257772D01*
X11283622Y-21309071D01*
X11343945Y-21349377D01*
X11410971Y-21377140D01*
X11482126Y-21391294D01*
X11554674Y-21391294D01*
X11625829Y-21377140D01*
X11648556Y-21367726D01*
X13004300Y-21367726D01*
X13004300Y-21440274D01*
X13018454Y-21511429D01*
X13046217Y-21578455D01*
X13086523Y-21638778D01*
X13137822Y-21690077D01*
X13198145Y-21730383D01*
X13265171Y-21758146D01*
X13336326Y-21772300D01*
X13408874Y-21772300D01*
X13480029Y-21758146D01*
X13547055Y-21730383D01*
X13607378Y-21690077D01*
X13658677Y-21638778D01*
X13698983Y-21578455D01*
X13726746Y-21511429D01*
X13740900Y-21440274D01*
X13740900Y-21367726D01*
X13726746Y-21296571D01*
X13698983Y-21229545D01*
X13658677Y-21169222D01*
X13607378Y-21117923D01*
X13547055Y-21077617D01*
X13480029Y-21049854D01*
X13408874Y-21035700D01*
X13336326Y-21035700D01*
X13265171Y-21049854D01*
X13198145Y-21077617D01*
X13137822Y-21117923D01*
X13086523Y-21169222D01*
X13046217Y-21229545D01*
X13018454Y-21296571D01*
X13004300Y-21367726D01*
X11648556Y-21367726D01*
X11692855Y-21349377D01*
X11753178Y-21309071D01*
X11804477Y-21257772D01*
X11844783Y-21197449D01*
X11872546Y-21130423D01*
X11886700Y-21059268D01*
X11886700Y-20986720D01*
X11872546Y-20915565D01*
X11844783Y-20848539D01*
X11804477Y-20788216D01*
X11753178Y-20736917D01*
X11692855Y-20696611D01*
X11625829Y-20668848D01*
X11554674Y-20654694D01*
X11482126Y-20654694D01*
X11410971Y-20668848D01*
X11343945Y-20696611D01*
X11283622Y-20736917D01*
X11232323Y-20788216D01*
X11192017Y-20848539D01*
X11164254Y-20915565D01*
X11150100Y-20986720D01*
X10905254Y-20986720D01*
X10879583Y-20924745D01*
X10839277Y-20864422D01*
X10787978Y-20813123D01*
X10727655Y-20772817D01*
X10660629Y-20745054D01*
X10589474Y-20730900D01*
X10516926Y-20730900D01*
X10445771Y-20745054D01*
X10378745Y-20772817D01*
X10318422Y-20813123D01*
X10267123Y-20864422D01*
X10226817Y-20924745D01*
X10199054Y-20991771D01*
X10184900Y-21062926D01*
X8634136Y-21062926D01*
X8618983Y-21026345D01*
X8578677Y-20966022D01*
X8527378Y-20914723D01*
X8467055Y-20874417D01*
X8400029Y-20846654D01*
X8328874Y-20832500D01*
X8256326Y-20832500D01*
X8185171Y-20846654D01*
X8118145Y-20874417D01*
X8080455Y-20899600D01*
X8070178Y-20889323D01*
X8009855Y-20849017D01*
X7942829Y-20821254D01*
X7871674Y-20807100D01*
X7799126Y-20807100D01*
X7727971Y-20821254D01*
X7660945Y-20849017D01*
X7600622Y-20889323D01*
X7549323Y-20940622D01*
X7509017Y-21000945D01*
X7481254Y-21067971D01*
X7467100Y-21139126D01*
X5155683Y-21139126D01*
X5139655Y-21128417D01*
X5072629Y-21100654D01*
X5001474Y-21086500D01*
X4928926Y-21086500D01*
X4857771Y-21100654D01*
X4790745Y-21128417D01*
X4730422Y-21168723D01*
X4679123Y-21220022D01*
X4638817Y-21280345D01*
X4611054Y-21347371D01*
X4596900Y-21418526D01*
X4265500Y-21418526D01*
X4265500Y-20250126D01*
X4698500Y-20250126D01*
X4698500Y-20322674D01*
X4712654Y-20393829D01*
X4740417Y-20460855D01*
X4780723Y-20521178D01*
X4832022Y-20572477D01*
X4892345Y-20612783D01*
X4959371Y-20640546D01*
X5030526Y-20654700D01*
X5103074Y-20654700D01*
X5174229Y-20640546D01*
X5241255Y-20612783D01*
X5301578Y-20572477D01*
X5352877Y-20521178D01*
X5393183Y-20460855D01*
X5420946Y-20393829D01*
X5435100Y-20322674D01*
X5435100Y-20250126D01*
X6222500Y-20250126D01*
X6222500Y-20322674D01*
X6236654Y-20393829D01*
X6264417Y-20460855D01*
X6304723Y-20521178D01*
X6356022Y-20572477D01*
X6416345Y-20612783D01*
X6483371Y-20640546D01*
X6554526Y-20654700D01*
X6627074Y-20654700D01*
X6698229Y-20640546D01*
X6765255Y-20612783D01*
X6825578Y-20572477D01*
X6876877Y-20521178D01*
X6917183Y-20460855D01*
X6944946Y-20393829D01*
X6953321Y-20351726D01*
X8203700Y-20351726D01*
X8203700Y-20424274D01*
X8217854Y-20495429D01*
X8245617Y-20562455D01*
X8285923Y-20622778D01*
X8337222Y-20674077D01*
X8397545Y-20714383D01*
X8464571Y-20742146D01*
X8535726Y-20756300D01*
X8608274Y-20756300D01*
X8679429Y-20742146D01*
X8746455Y-20714383D01*
X8806778Y-20674077D01*
X8858077Y-20622778D01*
X8898383Y-20562455D01*
X8926146Y-20495429D01*
X8940300Y-20424274D01*
X8940300Y-20351726D01*
X8930195Y-20300926D01*
X9478300Y-20300926D01*
X9478300Y-20373474D01*
X9492454Y-20444629D01*
X9520217Y-20511655D01*
X9560523Y-20571978D01*
X9611822Y-20623277D01*
X9672145Y-20663583D01*
X9739171Y-20691346D01*
X9810326Y-20705500D01*
X9882874Y-20705500D01*
X9954029Y-20691346D01*
X10021055Y-20663583D01*
X10081378Y-20623277D01*
X10132677Y-20571978D01*
X10172983Y-20511655D01*
X10200746Y-20444629D01*
X10204068Y-20427926D01*
X13004300Y-20427926D01*
X13004300Y-20500474D01*
X13018454Y-20571629D01*
X13046217Y-20638655D01*
X13086523Y-20698978D01*
X13137822Y-20750277D01*
X13198145Y-20790583D01*
X13265171Y-20818346D01*
X13336326Y-20832500D01*
X13408874Y-20832500D01*
X13480029Y-20818346D01*
X13547055Y-20790583D01*
X13607378Y-20750277D01*
X13658677Y-20698978D01*
X13698983Y-20638655D01*
X13726746Y-20571629D01*
X13740900Y-20500474D01*
X13740900Y-20427926D01*
X13726746Y-20356771D01*
X13698983Y-20289745D01*
X13658677Y-20229422D01*
X13607378Y-20178123D01*
X13547055Y-20137817D01*
X13480029Y-20110054D01*
X13408874Y-20095900D01*
X13336326Y-20095900D01*
X13265171Y-20110054D01*
X13198145Y-20137817D01*
X13137822Y-20178123D01*
X13086523Y-20229422D01*
X13046217Y-20289745D01*
X13018454Y-20356771D01*
X13004300Y-20427926D01*
X10204068Y-20427926D01*
X10214900Y-20373474D01*
X10214900Y-20300926D01*
X10200746Y-20229771D01*
X10172983Y-20162745D01*
X10132677Y-20102422D01*
X10081378Y-20051123D01*
X10021055Y-20010817D01*
X9954029Y-19983054D01*
X9882874Y-19968900D01*
X9810326Y-19968900D01*
X9739171Y-19983054D01*
X9672145Y-20010817D01*
X9611822Y-20051123D01*
X9560523Y-20102422D01*
X9520217Y-20162745D01*
X9492454Y-20229771D01*
X9478300Y-20300926D01*
X8930195Y-20300926D01*
X8926146Y-20280571D01*
X8898383Y-20213545D01*
X8858077Y-20153222D01*
X8806778Y-20101923D01*
X8746455Y-20061617D01*
X8679429Y-20033854D01*
X8608274Y-20019700D01*
X8535726Y-20019700D01*
X8464571Y-20033854D01*
X8397545Y-20061617D01*
X8337222Y-20101923D01*
X8285923Y-20153222D01*
X8245617Y-20213545D01*
X8217854Y-20280571D01*
X8203700Y-20351726D01*
X6953321Y-20351726D01*
X6959100Y-20322674D01*
X6959100Y-20250126D01*
X6944946Y-20178971D01*
X6917183Y-20111945D01*
X6876877Y-20051622D01*
X6825578Y-20000323D01*
X6765255Y-19960017D01*
X6698229Y-19932254D01*
X6627074Y-19918100D01*
X6554526Y-19918100D01*
X6483371Y-19932254D01*
X6416345Y-19960017D01*
X6356022Y-20000323D01*
X6304723Y-20051622D01*
X6264417Y-20111945D01*
X6236654Y-20178971D01*
X6222500Y-20250126D01*
X5435100Y-20250126D01*
X5420946Y-20178971D01*
X5393183Y-20111945D01*
X5352877Y-20051622D01*
X5301578Y-20000323D01*
X5241255Y-19960017D01*
X5174229Y-19932254D01*
X5103074Y-19918100D01*
X5030526Y-19918100D01*
X4959371Y-19932254D01*
X4892345Y-19960017D01*
X4832022Y-20000323D01*
X4780723Y-20051622D01*
X4740417Y-20111945D01*
X4712654Y-20178971D01*
X4698500Y-20250126D01*
X4265500Y-20250126D01*
X4265500Y-19513532D01*
X5308100Y-19513532D01*
X5308100Y-19586080D01*
X5322254Y-19657235D01*
X5350017Y-19724261D01*
X5390323Y-19784584D01*
X5441622Y-19835883D01*
X5501945Y-19876189D01*
X5568971Y-19903952D01*
X5640126Y-19918106D01*
X5712674Y-19918106D01*
X5783829Y-19903952D01*
X5850855Y-19876189D01*
X5911178Y-19835883D01*
X5962477Y-19784584D01*
X6002783Y-19724261D01*
X6030546Y-19657235D01*
X6044700Y-19586080D01*
X6044700Y-19513532D01*
X6039647Y-19488126D01*
X7162300Y-19488126D01*
X7162300Y-19560674D01*
X7176454Y-19631829D01*
X7204217Y-19698855D01*
X7244523Y-19759178D01*
X7295822Y-19810477D01*
X7356145Y-19850783D01*
X7423171Y-19878546D01*
X7494326Y-19892700D01*
X7566874Y-19892700D01*
X7638029Y-19878546D01*
X7705055Y-19850783D01*
X7765378Y-19810477D01*
X7816677Y-19759178D01*
X7856983Y-19698855D01*
X7884746Y-19631829D01*
X7898900Y-19560674D01*
X7898900Y-19488126D01*
X7884746Y-19416971D01*
X7856983Y-19349945D01*
X7816677Y-19289622D01*
X7765378Y-19238323D01*
X7705055Y-19198017D01*
X7638029Y-19170254D01*
X7566874Y-19156100D01*
X7494326Y-19156100D01*
X7423171Y-19170254D01*
X7356145Y-19198017D01*
X7295822Y-19238323D01*
X7244523Y-19289622D01*
X7204217Y-19349945D01*
X7176454Y-19416971D01*
X7162300Y-19488126D01*
X6039647Y-19488126D01*
X6030546Y-19442377D01*
X6002783Y-19375351D01*
X5962477Y-19315028D01*
X5911178Y-19263729D01*
X5850855Y-19223423D01*
X5783829Y-19195660D01*
X5712674Y-19181506D01*
X5640126Y-19181506D01*
X5568971Y-19195660D01*
X5501945Y-19223423D01*
X5441622Y-19263729D01*
X5390323Y-19315028D01*
X5350017Y-19375351D01*
X5322254Y-19442377D01*
X5308100Y-19513532D01*
X4265500Y-19513532D01*
X4265500Y-18765500D01*
X13737645Y-18765500D01*
X13721523Y-18781622D01*
X13721523Y-18781622D01*
G37*
X13721523Y-18781622D02*
X13681217Y-18841945D01*
X13653454Y-18908971D01*
X13639300Y-18980126D01*
X13639300Y-19052674D01*
X13653454Y-19123829D01*
X13681217Y-19190855D01*
X13721523Y-19251178D01*
X13772822Y-19302477D01*
X13833145Y-19342783D01*
X13900171Y-19370546D01*
X13971326Y-19384700D01*
X14043874Y-19384700D01*
X14115029Y-19370546D01*
X14182055Y-19342783D01*
X14234501Y-19307740D01*
X14234501Y-19664860D01*
X14182055Y-19629817D01*
X14115029Y-19602054D01*
X14043874Y-19587900D01*
X13971326Y-19587900D01*
X13900171Y-19602054D01*
X13833145Y-19629817D01*
X13772822Y-19670123D01*
X13721523Y-19721422D01*
X13681217Y-19781745D01*
X13653454Y-19848771D01*
X13639300Y-19919926D01*
X13639300Y-19992474D01*
X13653454Y-20063629D01*
X13681217Y-20130655D01*
X13721523Y-20190978D01*
X13772822Y-20242277D01*
X13833145Y-20282583D01*
X13900171Y-20310346D01*
X13971326Y-20324500D01*
X14043874Y-20324500D01*
X14115029Y-20310346D01*
X14182055Y-20282583D01*
X14234501Y-20247540D01*
X14234501Y-20655460D01*
X14182055Y-20620417D01*
X14115029Y-20592654D01*
X14043874Y-20578500D01*
X13971326Y-20578500D01*
X13900171Y-20592654D01*
X13833145Y-20620417D01*
X13772822Y-20660723D01*
X13721523Y-20712022D01*
X13681217Y-20772345D01*
X13653454Y-20839371D01*
X13639300Y-20910526D01*
X13639300Y-20983074D01*
X13653454Y-21054229D01*
X13681217Y-21121255D01*
X13721523Y-21181578D01*
X13772822Y-21232877D01*
X13833145Y-21273183D01*
X13900171Y-21300946D01*
X13971326Y-21315100D01*
X14043874Y-21315100D01*
X14115029Y-21300946D01*
X14182055Y-21273183D01*
X14234501Y-21238140D01*
X14234501Y-21620660D01*
X14182055Y-21585617D01*
X14115029Y-21557854D01*
X14043874Y-21543700D01*
X13971326Y-21543700D01*
X13900171Y-21557854D01*
X13833145Y-21585617D01*
X13772822Y-21625923D01*
X13721523Y-21677222D01*
X13681217Y-21737545D01*
X13653454Y-21804571D01*
X13639300Y-21875726D01*
X13639300Y-21948274D01*
X13653454Y-22019429D01*
X13681217Y-22086455D01*
X13721523Y-22146778D01*
X13772822Y-22198077D01*
X13833145Y-22238383D01*
X13900171Y-22266146D01*
X13971326Y-22280300D01*
X14043874Y-22280300D01*
X14115029Y-22266146D01*
X14182055Y-22238383D01*
X14234501Y-22203340D01*
X14234501Y-22608646D01*
X14216978Y-22591123D01*
X14156655Y-22550817D01*
X14089629Y-22523054D01*
X14018474Y-22508900D01*
X13945926Y-22508900D01*
X13874771Y-22523054D01*
X13807745Y-22550817D01*
X13747422Y-22591123D01*
X13696123Y-22642422D01*
X13655817Y-22702745D01*
X13628054Y-22769771D01*
X13613900Y-22840926D01*
X13613900Y-22913474D01*
X13628054Y-22984629D01*
X13655817Y-23051655D01*
X13696123Y-23111978D01*
X13747422Y-23163277D01*
X13807745Y-23203583D01*
X13874771Y-23231346D01*
X13945926Y-23245500D01*
X14018474Y-23245500D01*
X14089629Y-23231346D01*
X14156655Y-23203583D01*
X14216978Y-23163277D01*
X14234500Y-23145755D01*
X14234500Y-23525659D01*
X14182055Y-23490617D01*
X14115029Y-23462854D01*
X14043874Y-23448700D01*
X13971326Y-23448700D01*
X13900171Y-23462854D01*
X13833145Y-23490617D01*
X13772822Y-23530923D01*
X13721523Y-23582222D01*
X13681217Y-23642545D01*
X13653454Y-23709571D01*
X13639300Y-23780726D01*
X13639300Y-23853274D01*
X13653454Y-23924429D01*
X13681217Y-23991455D01*
X13721523Y-24051778D01*
X13772822Y-24103077D01*
X13833145Y-24143383D01*
X13900171Y-24171146D01*
X13971326Y-24185300D01*
X14043874Y-24185300D01*
X14115029Y-24171146D01*
X14182055Y-24143383D01*
X14234500Y-24108341D01*
X14234500Y-24539045D01*
X14216978Y-24521523D01*
X14156655Y-24481217D01*
X14089629Y-24453454D01*
X14018474Y-24439300D01*
X13945926Y-24439300D01*
X13874771Y-24453454D01*
X13807745Y-24481217D01*
X13747422Y-24521523D01*
X13696123Y-24572822D01*
X13655817Y-24633145D01*
X13628054Y-24700171D01*
X13613900Y-24771326D01*
X13613900Y-24843874D01*
X13628054Y-24915029D01*
X13655817Y-24982055D01*
X13696123Y-25042378D01*
X13747422Y-25093677D01*
X13807745Y-25133983D01*
X13874771Y-25161746D01*
X13945926Y-25175900D01*
X14018474Y-25175900D01*
X14089629Y-25161746D01*
X14156655Y-25133983D01*
X14216978Y-25093677D01*
X14234500Y-25076155D01*
X14234500Y-27234500D01*
X13137089Y-27234500D01*
X13165583Y-27191855D01*
X13193346Y-27124829D01*
X13207500Y-27053674D01*
X13207500Y-26981126D01*
X13193346Y-26909971D01*
X13165583Y-26842945D01*
X13125277Y-26782622D01*
X13073978Y-26731323D01*
X13013655Y-26691017D01*
X12946629Y-26663254D01*
X12875474Y-26649100D01*
X12802926Y-26649100D01*
X12731771Y-26663254D01*
X12664745Y-26691017D01*
X12604422Y-26731323D01*
X12553123Y-26782622D01*
X12512817Y-26842945D01*
X12485054Y-26909971D01*
X12470900Y-26981126D01*
X12470900Y-27053674D01*
X12485054Y-27124829D01*
X12512817Y-27191855D01*
X12541311Y-27234500D01*
X11187155Y-27234500D01*
X11194877Y-27226778D01*
X11235183Y-27166455D01*
X11262946Y-27099429D01*
X11277100Y-27028274D01*
X11277100Y-26955726D01*
X11262946Y-26884571D01*
X11235183Y-26817545D01*
X11194877Y-26757222D01*
X11143578Y-26705923D01*
X11083255Y-26665617D01*
X11016229Y-26637854D01*
X10945074Y-26623700D01*
X10872526Y-26623700D01*
X10801371Y-26637854D01*
X10734345Y-26665617D01*
X10674022Y-26705923D01*
X10622723Y-26757222D01*
X10582417Y-26817545D01*
X10554654Y-26884571D01*
X10540500Y-26955726D01*
X10540500Y-27028274D01*
X10554654Y-27099429D01*
X10582417Y-27166455D01*
X10622723Y-27226778D01*
X10630445Y-27234500D01*
X9256755Y-27234500D01*
X9264477Y-27226778D01*
X9304783Y-27166455D01*
X9332546Y-27099429D01*
X9346700Y-27028274D01*
X9346700Y-26955726D01*
X9332546Y-26884571D01*
X9304783Y-26817545D01*
X9264477Y-26757222D01*
X9213178Y-26705923D01*
X9152855Y-26665617D01*
X9085829Y-26637854D01*
X9014674Y-26623700D01*
X8942126Y-26623700D01*
X8870971Y-26637854D01*
X8803945Y-26665617D01*
X8743622Y-26705923D01*
X8692323Y-26757222D01*
X8652017Y-26817545D01*
X8624254Y-26884571D01*
X8610100Y-26955726D01*
X8610100Y-27028274D01*
X8624254Y-27099429D01*
X8652017Y-27166455D01*
X8692323Y-27226778D01*
X8700045Y-27234500D01*
X8291555Y-27234500D01*
X8299277Y-27226778D01*
X8339583Y-27166455D01*
X8367346Y-27099429D01*
X8381500Y-27028274D01*
X8381500Y-26955726D01*
X8367346Y-26884571D01*
X8339583Y-26817545D01*
X8299277Y-26757222D01*
X8247978Y-26705923D01*
X8187655Y-26665617D01*
X8120629Y-26637854D01*
X8049474Y-26623700D01*
X7976926Y-26623700D01*
X7905771Y-26637854D01*
X7838745Y-26665617D01*
X7778422Y-26705923D01*
X7727123Y-26757222D01*
X7686817Y-26817545D01*
X7659054Y-26884571D01*
X7644900Y-26955726D01*
X7644900Y-27028274D01*
X7659054Y-27099429D01*
X7686817Y-27166455D01*
X7727123Y-27226778D01*
X7734845Y-27234500D01*
X7326355Y-27234500D01*
X7334077Y-27226778D01*
X7374383Y-27166455D01*
X7402146Y-27099429D01*
X7416300Y-27028274D01*
X7416300Y-26955726D01*
X7402146Y-26884571D01*
X7374383Y-26817545D01*
X7334077Y-26757222D01*
X7282778Y-26705923D01*
X7222455Y-26665617D01*
X7155429Y-26637854D01*
X7084274Y-26623700D01*
X7011726Y-26623700D01*
X6940571Y-26637854D01*
X6873545Y-26665617D01*
X6813222Y-26705923D01*
X6761923Y-26757222D01*
X6721617Y-26817545D01*
X6693854Y-26884571D01*
X6679700Y-26955726D01*
X6679700Y-27028274D01*
X6693854Y-27099429D01*
X6721617Y-27166455D01*
X6761923Y-27226778D01*
X6769645Y-27234500D01*
X6361155Y-27234500D01*
X6368877Y-27226778D01*
X6409183Y-27166455D01*
X6436946Y-27099429D01*
X6451100Y-27028274D01*
X6451100Y-26955726D01*
X6436946Y-26884571D01*
X6409183Y-26817545D01*
X6368877Y-26757222D01*
X6317578Y-26705923D01*
X6257255Y-26665617D01*
X6190229Y-26637854D01*
X6119074Y-26623700D01*
X6046526Y-26623700D01*
X5975371Y-26637854D01*
X5908345Y-26665617D01*
X5848022Y-26705923D01*
X5796723Y-26757222D01*
X5756417Y-26817545D01*
X5728654Y-26884571D01*
X5714500Y-26955726D01*
X5714500Y-27028274D01*
X5728654Y-27099429D01*
X5756417Y-27166455D01*
X5796723Y-27226778D01*
X5804445Y-27234500D01*
X5395955Y-27234500D01*
X5403677Y-27226778D01*
X5443983Y-27166455D01*
X5471746Y-27099429D01*
X5485900Y-27028274D01*
X5485900Y-26955726D01*
X5471746Y-26884571D01*
X5443983Y-26817545D01*
X5403677Y-26757222D01*
X5352378Y-26705923D01*
X5292055Y-26665617D01*
X5225029Y-26637854D01*
X5153874Y-26623700D01*
X5081326Y-26623700D01*
X5010171Y-26637854D01*
X4943145Y-26665617D01*
X4882822Y-26705923D01*
X4831523Y-26757222D01*
X4791217Y-26817545D01*
X4763454Y-26884571D01*
X4749300Y-26955726D01*
X4749300Y-27028274D01*
X4763454Y-27099429D01*
X4791217Y-27166455D01*
X4831523Y-27226778D01*
X4839245Y-27234500D01*
X4265500Y-27234500D01*
X4265500Y-26371537D01*
X5231900Y-26371537D01*
X5231900Y-26444085D01*
X5246054Y-26515240D01*
X5273817Y-26582266D01*
X5314123Y-26642589D01*
X5365422Y-26693888D01*
X5425745Y-26734194D01*
X5492771Y-26761957D01*
X5563926Y-26776111D01*
X5636474Y-26776111D01*
X5707629Y-26761957D01*
X5774655Y-26734194D01*
X5834978Y-26693888D01*
X5886277Y-26642589D01*
X5926583Y-26582266D01*
X5954346Y-26515240D01*
X5968500Y-26444085D01*
X5968500Y-26371537D01*
X5963446Y-26346126D01*
X6197100Y-26346126D01*
X6197100Y-26418674D01*
X6211254Y-26489829D01*
X6239017Y-26556855D01*
X6279323Y-26617178D01*
X6330622Y-26668477D01*
X6390945Y-26708783D01*
X6457971Y-26736546D01*
X6529126Y-26750700D01*
X6601674Y-26750700D01*
X6672829Y-26736546D01*
X6739855Y-26708783D01*
X6800178Y-26668477D01*
X6851477Y-26617178D01*
X6891783Y-26556855D01*
X6919546Y-26489829D01*
X6933700Y-26418674D01*
X6933700Y-26371536D01*
X7162300Y-26371536D01*
X7162300Y-26444084D01*
X7176454Y-26515239D01*
X7204217Y-26582265D01*
X7244523Y-26642588D01*
X7295822Y-26693887D01*
X7356145Y-26734193D01*
X7423171Y-26761956D01*
X7494326Y-26776110D01*
X7566874Y-26776110D01*
X7638029Y-26761956D01*
X7705055Y-26734193D01*
X7765378Y-26693887D01*
X7816677Y-26642588D01*
X7856983Y-26582265D01*
X7884746Y-26515239D01*
X7898900Y-26444084D01*
X7898900Y-26371536D01*
X8127500Y-26371536D01*
X8127500Y-26444084D01*
X8141654Y-26515239D01*
X8169417Y-26582265D01*
X8209723Y-26642588D01*
X8261022Y-26693887D01*
X8321345Y-26734193D01*
X8388371Y-26761956D01*
X8459526Y-26776110D01*
X8532074Y-26776110D01*
X8603229Y-26761956D01*
X8670255Y-26734193D01*
X8730578Y-26693887D01*
X8781877Y-26642588D01*
X8822183Y-26582265D01*
X8849946Y-26515239D01*
X8864100Y-26444084D01*
X8864100Y-26371536D01*
X9092700Y-26371536D01*
X9092700Y-26444084D01*
X9106854Y-26515239D01*
X9134617Y-26582265D01*
X9174923Y-26642588D01*
X9226222Y-26693887D01*
X9286545Y-26734193D01*
X9353571Y-26761956D01*
X9424726Y-26776110D01*
X9497274Y-26776110D01*
X9568429Y-26761956D01*
X9635455Y-26734193D01*
X9695778Y-26693887D01*
X9747077Y-26642588D01*
X9787383Y-26582265D01*
X9815146Y-26515239D01*
X9829300Y-26444084D01*
X9829300Y-26371536D01*
X10057900Y-26371536D01*
X10057900Y-26444084D01*
X10072054Y-26515239D01*
X10099817Y-26582265D01*
X10140123Y-26642588D01*
X10191422Y-26693887D01*
X10251745Y-26734193D01*
X10318771Y-26761956D01*
X10389926Y-26776110D01*
X10462474Y-26776110D01*
X10533629Y-26761956D01*
X10600655Y-26734193D01*
X10660978Y-26693887D01*
X10712277Y-26642588D01*
X10752583Y-26582265D01*
X10780346Y-26515239D01*
X10794500Y-26444084D01*
X10794500Y-26371536D01*
X11023100Y-26371536D01*
X11023100Y-26444084D01*
X11037254Y-26515239D01*
X11065017Y-26582265D01*
X11105323Y-26642588D01*
X11156622Y-26693887D01*
X11216945Y-26734193D01*
X11283971Y-26761956D01*
X11355126Y-26776110D01*
X11427674Y-26776110D01*
X11498829Y-26761956D01*
X11565855Y-26734193D01*
X11626178Y-26693887D01*
X11677477Y-26642588D01*
X11717783Y-26582265D01*
X11745546Y-26515239D01*
X11759700Y-26444084D01*
X11759700Y-26371536D01*
X11759699Y-26371526D01*
X11988300Y-26371526D01*
X11988300Y-26444074D01*
X12002454Y-26515229D01*
X12030217Y-26582255D01*
X12070523Y-26642578D01*
X12121822Y-26693877D01*
X12182145Y-26734183D01*
X12249171Y-26761946D01*
X12320326Y-26776100D01*
X12392874Y-26776100D01*
X12464029Y-26761946D01*
X12531055Y-26734183D01*
X12591378Y-26693877D01*
X12642677Y-26642578D01*
X12682983Y-26582255D01*
X12710746Y-26515229D01*
X12724900Y-26444074D01*
X12724900Y-26371526D01*
X12719848Y-26346126D01*
X12953500Y-26346126D01*
X12953500Y-26418674D01*
X12967654Y-26489829D01*
X12995417Y-26556855D01*
X13035723Y-26617178D01*
X13087022Y-26668477D01*
X13147345Y-26708783D01*
X13214371Y-26736546D01*
X13285526Y-26750700D01*
X13358074Y-26750700D01*
X13429229Y-26736546D01*
X13496255Y-26708783D01*
X13556578Y-26668477D01*
X13607877Y-26617178D01*
X13648183Y-26556855D01*
X13675946Y-26489829D01*
X13690100Y-26418674D01*
X13690100Y-26346126D01*
X13675946Y-26274971D01*
X13648183Y-26207945D01*
X13607877Y-26147622D01*
X13556578Y-26096323D01*
X13496255Y-26056017D01*
X13429229Y-26028254D01*
X13358074Y-26014100D01*
X13285526Y-26014100D01*
X13214371Y-26028254D01*
X13147345Y-26056017D01*
X13087022Y-26096323D01*
X13035723Y-26147622D01*
X12995417Y-26207945D01*
X12967654Y-26274971D01*
X12953500Y-26346126D01*
X12719848Y-26346126D01*
X12710746Y-26300371D01*
X12682983Y-26233345D01*
X12642677Y-26173022D01*
X12591378Y-26121723D01*
X12531055Y-26081417D01*
X12464029Y-26053654D01*
X12392874Y-26039500D01*
X12320326Y-26039500D01*
X12249171Y-26053654D01*
X12182145Y-26081417D01*
X12121822Y-26121723D01*
X12070523Y-26173022D01*
X12030217Y-26233345D01*
X12002454Y-26300371D01*
X11988300Y-26371526D01*
X11759699Y-26371526D01*
X11745546Y-26300381D01*
X11717783Y-26233355D01*
X11677477Y-26173032D01*
X11626178Y-26121733D01*
X11565855Y-26081427D01*
X11498829Y-26053664D01*
X11427674Y-26039510D01*
X11355126Y-26039510D01*
X11283971Y-26053664D01*
X11216945Y-26081427D01*
X11156622Y-26121733D01*
X11105323Y-26173032D01*
X11065017Y-26233355D01*
X11037254Y-26300381D01*
X11023100Y-26371536D01*
X10794500Y-26371536D01*
X10780346Y-26300381D01*
X10752583Y-26233355D01*
X10712277Y-26173032D01*
X10660978Y-26121733D01*
X10600655Y-26081427D01*
X10533629Y-26053664D01*
X10462474Y-26039510D01*
X10389926Y-26039510D01*
X10318771Y-26053664D01*
X10251745Y-26081427D01*
X10191422Y-26121733D01*
X10140123Y-26173032D01*
X10099817Y-26233355D01*
X10072054Y-26300381D01*
X10057900Y-26371536D01*
X9829300Y-26371536D01*
X9815146Y-26300381D01*
X9787383Y-26233355D01*
X9747077Y-26173032D01*
X9695778Y-26121733D01*
X9635455Y-26081427D01*
X9568429Y-26053664D01*
X9497274Y-26039510D01*
X9424726Y-26039510D01*
X9353571Y-26053664D01*
X9286545Y-26081427D01*
X9226222Y-26121733D01*
X9174923Y-26173032D01*
X9134617Y-26233355D01*
X9106854Y-26300381D01*
X9092700Y-26371536D01*
X8864100Y-26371536D01*
X8849946Y-26300381D01*
X8822183Y-26233355D01*
X8781877Y-26173032D01*
X8730578Y-26121733D01*
X8670255Y-26081427D01*
X8603229Y-26053664D01*
X8532074Y-26039510D01*
X8459526Y-26039510D01*
X8388371Y-26053664D01*
X8321345Y-26081427D01*
X8261022Y-26121733D01*
X8209723Y-26173032D01*
X8169417Y-26233355D01*
X8141654Y-26300381D01*
X8127500Y-26371536D01*
X7898900Y-26371536D01*
X7884746Y-26300381D01*
X7856983Y-26233355D01*
X7816677Y-26173032D01*
X7765378Y-26121733D01*
X7705055Y-26081427D01*
X7638029Y-26053664D01*
X7566874Y-26039510D01*
X7494326Y-26039510D01*
X7423171Y-26053664D01*
X7356145Y-26081427D01*
X7295822Y-26121733D01*
X7244523Y-26173032D01*
X7204217Y-26233355D01*
X7176454Y-26300381D01*
X7162300Y-26371536D01*
X6933700Y-26371536D01*
X6933700Y-26346126D01*
X6919546Y-26274971D01*
X6891783Y-26207945D01*
X6851477Y-26147622D01*
X6800178Y-26096323D01*
X6739855Y-26056017D01*
X6672829Y-26028254D01*
X6601674Y-26014100D01*
X6529126Y-26014100D01*
X6457971Y-26028254D01*
X6390945Y-26056017D01*
X6330622Y-26096323D01*
X6279323Y-26147622D01*
X6239017Y-26207945D01*
X6211254Y-26274971D01*
X6197100Y-26346126D01*
X5963446Y-26346126D01*
X5954346Y-26300382D01*
X5926583Y-26233356D01*
X5886277Y-26173033D01*
X5834978Y-26121734D01*
X5774655Y-26081428D01*
X5707629Y-26053665D01*
X5636474Y-26039511D01*
X5563926Y-26039511D01*
X5492771Y-26053665D01*
X5425745Y-26081428D01*
X5365422Y-26121734D01*
X5314123Y-26173033D01*
X5273817Y-26233356D01*
X5246054Y-26300382D01*
X5231900Y-26371537D01*
X4265500Y-26371537D01*
X4265500Y-25431726D01*
X4419100Y-25431726D01*
X4419100Y-25504274D01*
X4433254Y-25575429D01*
X4461017Y-25642455D01*
X4501323Y-25702778D01*
X4552622Y-25754077D01*
X4612945Y-25794383D01*
X4679971Y-25822146D01*
X4751126Y-25836300D01*
X4823674Y-25836300D01*
X4894829Y-25822146D01*
X4961855Y-25794383D01*
X5022178Y-25754077D01*
X5073477Y-25702778D01*
X5113783Y-25642455D01*
X5141546Y-25575429D01*
X5144868Y-25558726D01*
X5968474Y-25558726D01*
X5968474Y-25631274D01*
X5982628Y-25702429D01*
X6010391Y-25769455D01*
X6050697Y-25829778D01*
X6101996Y-25881077D01*
X6162319Y-25921383D01*
X6229345Y-25949146D01*
X6300500Y-25963300D01*
X6373048Y-25963300D01*
X6444203Y-25949146D01*
X6511229Y-25921383D01*
X6552681Y-25893686D01*
X6594132Y-25921383D01*
X6661158Y-25949146D01*
X6732313Y-25963300D01*
X6804861Y-25963300D01*
X6876016Y-25949146D01*
X6943042Y-25921383D01*
X7003365Y-25881077D01*
X7054664Y-25829778D01*
X7094970Y-25769455D01*
X7122733Y-25702429D01*
X7136887Y-25631274D01*
X7136887Y-25584126D01*
X7381301Y-25584126D01*
X7381301Y-25656674D01*
X7395455Y-25727829D01*
X7423218Y-25794855D01*
X7463524Y-25855178D01*
X7514823Y-25906477D01*
X7575146Y-25946783D01*
X7642172Y-25974546D01*
X7713327Y-25988700D01*
X7785875Y-25988700D01*
X7857030Y-25974546D01*
X7924056Y-25946783D01*
X7984379Y-25906477D01*
X8035678Y-25855178D01*
X8075984Y-25794855D01*
X8103747Y-25727829D01*
X8117901Y-25656674D01*
X8117901Y-25584126D01*
X11607300Y-25584126D01*
X11607300Y-25656674D01*
X11621454Y-25727829D01*
X11649217Y-25794855D01*
X11689523Y-25855178D01*
X11740822Y-25906477D01*
X11801145Y-25946783D01*
X11868171Y-25974546D01*
X11939326Y-25988700D01*
X12011874Y-25988700D01*
X12083029Y-25974546D01*
X12150055Y-25946783D01*
X12210378Y-25906477D01*
X12261677Y-25855178D01*
X12301983Y-25794855D01*
X12329746Y-25727829D01*
X12343900Y-25656674D01*
X12343900Y-25584126D01*
X12329746Y-25512971D01*
X12301983Y-25445945D01*
X12261677Y-25385622D01*
X12210378Y-25334323D01*
X12150055Y-25294017D01*
X12083029Y-25266254D01*
X12011874Y-25252100D01*
X11939326Y-25252100D01*
X11868171Y-25266254D01*
X11801145Y-25294017D01*
X11740822Y-25334323D01*
X11689523Y-25385622D01*
X11649217Y-25445945D01*
X11621454Y-25512971D01*
X11607300Y-25584126D01*
X8117901Y-25584126D01*
X8103747Y-25512971D01*
X8075984Y-25445945D01*
X8035678Y-25385622D01*
X7984379Y-25334323D01*
X7924056Y-25294017D01*
X7857030Y-25266254D01*
X7785875Y-25252100D01*
X7713327Y-25252100D01*
X7642172Y-25266254D01*
X7575146Y-25294017D01*
X7514823Y-25334323D01*
X7463524Y-25385622D01*
X7423218Y-25445945D01*
X7395455Y-25512971D01*
X7381301Y-25584126D01*
X7136887Y-25584126D01*
X7136887Y-25558726D01*
X7122733Y-25487571D01*
X7094970Y-25420545D01*
X7054664Y-25360222D01*
X7003365Y-25308923D01*
X6943042Y-25268617D01*
X6876016Y-25240854D01*
X6804861Y-25226700D01*
X6732313Y-25226700D01*
X6661158Y-25240854D01*
X6594132Y-25268617D01*
X6552681Y-25296314D01*
X6511229Y-25268617D01*
X6444203Y-25240854D01*
X6373048Y-25226700D01*
X6300500Y-25226700D01*
X6229345Y-25240854D01*
X6162319Y-25268617D01*
X6101996Y-25308923D01*
X6050697Y-25360222D01*
X6010391Y-25420545D01*
X5982628Y-25487571D01*
X5968474Y-25558726D01*
X5144868Y-25558726D01*
X5155700Y-25504274D01*
X5155700Y-25431726D01*
X5141546Y-25360571D01*
X5113783Y-25293545D01*
X5073477Y-25233222D01*
X5022178Y-25181923D01*
X4961855Y-25141617D01*
X4934679Y-25130360D01*
X4987255Y-25108583D01*
X5047578Y-25068277D01*
X5098877Y-25016978D01*
X5139183Y-24956655D01*
X5166946Y-24889629D01*
X5181100Y-24818474D01*
X5181100Y-24745926D01*
X5166946Y-24674771D01*
X5139183Y-24607745D01*
X5098877Y-24547422D01*
X5047578Y-24496123D01*
X4987255Y-24455817D01*
X4920229Y-24428054D01*
X4849074Y-24413900D01*
X4776526Y-24413900D01*
X4705371Y-24428054D01*
X4638345Y-24455817D01*
X4578022Y-24496123D01*
X4526723Y-24547422D01*
X4486417Y-24607745D01*
X4458654Y-24674771D01*
X4444500Y-24745926D01*
X4444500Y-24818474D01*
X4458654Y-24889629D01*
X4486417Y-24956655D01*
X4526723Y-25016978D01*
X4578022Y-25068277D01*
X4638345Y-25108583D01*
X4665521Y-25119840D01*
X4612945Y-25141617D01*
X4552622Y-25181923D01*
X4501323Y-25233222D01*
X4461017Y-25293545D01*
X4433254Y-25360571D01*
X4419100Y-25431726D01*
X4265500Y-25431726D01*
X4265500Y-24263326D01*
X5485900Y-24263326D01*
X5485900Y-24335874D01*
X5500054Y-24407029D01*
X5527817Y-24474055D01*
X5568123Y-24534378D01*
X5619422Y-24585677D01*
X5679745Y-24625983D01*
X5746771Y-24653746D01*
X5817926Y-24667900D01*
X5890474Y-24667900D01*
X5927307Y-24660573D01*
X5934217Y-24677255D01*
X5974523Y-24737578D01*
X6025822Y-24788877D01*
X6086145Y-24829183D01*
X6153171Y-24856946D01*
X6224326Y-24871100D01*
X6296874Y-24871100D01*
X6368029Y-24856946D01*
X6435055Y-24829183D01*
X6495378Y-24788877D01*
X6546677Y-24737578D01*
X6586983Y-24677255D01*
X6614746Y-24610229D01*
X6628900Y-24539074D01*
X6628900Y-24466526D01*
X6614746Y-24395371D01*
X6586983Y-24328345D01*
X6546677Y-24268022D01*
X6541981Y-24263326D01*
X13029700Y-24263326D01*
X13029700Y-24335874D01*
X13043854Y-24407029D01*
X13071617Y-24474055D01*
X13111923Y-24534378D01*
X13163222Y-24585677D01*
X13223545Y-24625983D01*
X13290571Y-24653746D01*
X13361726Y-24667900D01*
X13434274Y-24667900D01*
X13505429Y-24653746D01*
X13572455Y-24625983D01*
X13632778Y-24585677D01*
X13684077Y-24534378D01*
X13724383Y-24474055D01*
X13752146Y-24407029D01*
X13766300Y-24335874D01*
X13766300Y-24263326D01*
X13752146Y-24192171D01*
X13724383Y-24125145D01*
X13684077Y-24064822D01*
X13632778Y-24013523D01*
X13572455Y-23973217D01*
X13505429Y-23945454D01*
X13434274Y-23931300D01*
X13361726Y-23931300D01*
X13290571Y-23945454D01*
X13223545Y-23973217D01*
X13163222Y-24013523D01*
X13111923Y-24064822D01*
X13071617Y-24125145D01*
X13043854Y-24192171D01*
X13029700Y-24263326D01*
X6541981Y-24263326D01*
X6495378Y-24216723D01*
X6435055Y-24176417D01*
X6368029Y-24148654D01*
X6296874Y-24134500D01*
X6224326Y-24134500D01*
X6187493Y-24141827D01*
X6184458Y-24134500D01*
X6195274Y-24134500D01*
X6266429Y-24120346D01*
X6333455Y-24092583D01*
X6393778Y-24052277D01*
X6445077Y-24000978D01*
X6485383Y-23940655D01*
X6513146Y-23873629D01*
X6527300Y-23802474D01*
X6527300Y-23729926D01*
X6513146Y-23658771D01*
X6485383Y-23591745D01*
X6445077Y-23531422D01*
X6393778Y-23480123D01*
X6333455Y-23439817D01*
X6266429Y-23412054D01*
X6195274Y-23397900D01*
X6122726Y-23397900D01*
X6051571Y-23412054D01*
X5984545Y-23439817D01*
X5924222Y-23480123D01*
X5872923Y-23531422D01*
X5832617Y-23591745D01*
X5804854Y-23658771D01*
X5790700Y-23729926D01*
X5790700Y-23802474D01*
X5804854Y-23873629D01*
X5828742Y-23931300D01*
X5817926Y-23931300D01*
X5746771Y-23945454D01*
X5679745Y-23973217D01*
X5619422Y-24013523D01*
X5568123Y-24064822D01*
X5527817Y-24125145D01*
X5500054Y-24192171D01*
X5485900Y-24263326D01*
X4265500Y-24263326D01*
X4265500Y-23171126D01*
X7416300Y-23171126D01*
X7416300Y-23243674D01*
X7430454Y-23314829D01*
X7458217Y-23381855D01*
X7498523Y-23442178D01*
X7549822Y-23493477D01*
X7610145Y-23533783D01*
X7677171Y-23561546D01*
X7748326Y-23575700D01*
X7820874Y-23575700D01*
X7832700Y-23573348D01*
X7836854Y-23594229D01*
X7864617Y-23661255D01*
X7904923Y-23721578D01*
X7956222Y-23772877D01*
X8016545Y-23813183D01*
X8083571Y-23840946D01*
X8154726Y-23855100D01*
X8227274Y-23855100D01*
X8298429Y-23840946D01*
X8365455Y-23813183D01*
X8425778Y-23772877D01*
X8466508Y-23732147D01*
X8473745Y-23736983D01*
X8540771Y-23764746D01*
X8611926Y-23778900D01*
X8640916Y-23778900D01*
X8649654Y-23822829D01*
X8677417Y-23889855D01*
X8717723Y-23950178D01*
X8769022Y-24001477D01*
X8829345Y-24041783D01*
X8896371Y-24069546D01*
X8967526Y-24083700D01*
X9040074Y-24083700D01*
X9111229Y-24069546D01*
X9178255Y-24041783D01*
X9238578Y-24001477D01*
X9247610Y-23992445D01*
X9283435Y-24016383D01*
X9350461Y-24044146D01*
X9421616Y-24058300D01*
X9494164Y-24058300D01*
X9565319Y-24044146D01*
X9632345Y-24016383D01*
X9692668Y-23976077D01*
X9743967Y-23924778D01*
X9784273Y-23864455D01*
X9812036Y-23797429D01*
X9822502Y-23744816D01*
X9838040Y-23744816D01*
X9843454Y-23772035D01*
X9871217Y-23839061D01*
X9911523Y-23899384D01*
X9962822Y-23950683D01*
X10023145Y-23990989D01*
X10090171Y-24018752D01*
X10161326Y-24032906D01*
X10233874Y-24032906D01*
X10305029Y-24018752D01*
X10372055Y-23990989D01*
X10432378Y-23950683D01*
X10483677Y-23899384D01*
X10523983Y-23839061D01*
X10551746Y-23772035D01*
X10565900Y-23700880D01*
X10565900Y-23661764D01*
X10571923Y-23670778D01*
X10623222Y-23722077D01*
X10683545Y-23762383D01*
X10750571Y-23790146D01*
X10821726Y-23804300D01*
X10894274Y-23804300D01*
X10965429Y-23790146D01*
X11032455Y-23762383D01*
X11092778Y-23722077D01*
X11144077Y-23670778D01*
X11184383Y-23610455D01*
X11212146Y-23543429D01*
X11226300Y-23472274D01*
X11226300Y-23399726D01*
X11212146Y-23328571D01*
X11184383Y-23261545D01*
X11144077Y-23201222D01*
X11139381Y-23196526D01*
X11912101Y-23196526D01*
X11912101Y-23269074D01*
X11926255Y-23340229D01*
X11954018Y-23407255D01*
X11994324Y-23467578D01*
X12045623Y-23518877D01*
X12105946Y-23559183D01*
X12172972Y-23586946D01*
X12244127Y-23601100D01*
X12316675Y-23601100D01*
X12387830Y-23586946D01*
X12454856Y-23559183D01*
X12515179Y-23518877D01*
X12566478Y-23467578D01*
X12606784Y-23407255D01*
X12634547Y-23340229D01*
X12642922Y-23298126D01*
X13004300Y-23298126D01*
X13004300Y-23370674D01*
X13018454Y-23441829D01*
X13046217Y-23508855D01*
X13086523Y-23569178D01*
X13137822Y-23620477D01*
X13198145Y-23660783D01*
X13265171Y-23688546D01*
X13336326Y-23702700D01*
X13408874Y-23702700D01*
X13480029Y-23688546D01*
X13547055Y-23660783D01*
X13607378Y-23620477D01*
X13658677Y-23569178D01*
X13698983Y-23508855D01*
X13726746Y-23441829D01*
X13740900Y-23370674D01*
X13740900Y-23298126D01*
X13726746Y-23226971D01*
X13698983Y-23159945D01*
X13658677Y-23099622D01*
X13607378Y-23048323D01*
X13547055Y-23008017D01*
X13480029Y-22980254D01*
X13408874Y-22966100D01*
X13336326Y-22966100D01*
X13265171Y-22980254D01*
X13198145Y-23008017D01*
X13137822Y-23048323D01*
X13086523Y-23099622D01*
X13046217Y-23159945D01*
X13018454Y-23226971D01*
X13004300Y-23298126D01*
X12642922Y-23298126D01*
X12648701Y-23269074D01*
X12648701Y-23196526D01*
X12634547Y-23125371D01*
X12606784Y-23058345D01*
X12566478Y-22998022D01*
X12515179Y-22946723D01*
X12454856Y-22906417D01*
X12387830Y-22878654D01*
X12316675Y-22864500D01*
X12244127Y-22864500D01*
X12172972Y-22878654D01*
X12105946Y-22906417D01*
X12045623Y-22946723D01*
X11994324Y-22998022D01*
X11954018Y-23058345D01*
X11926255Y-23125371D01*
X11912101Y-23196526D01*
X11139381Y-23196526D01*
X11092778Y-23149923D01*
X11032455Y-23109617D01*
X10965429Y-23081854D01*
X10894274Y-23067700D01*
X10821726Y-23067700D01*
X10750571Y-23081854D01*
X10683545Y-23109617D01*
X10623222Y-23149923D01*
X10571923Y-23201222D01*
X10531617Y-23261545D01*
X10503854Y-23328571D01*
X10489700Y-23399726D01*
X10489700Y-23438842D01*
X10483677Y-23429828D01*
X10432378Y-23378529D01*
X10372055Y-23338223D01*
X10305029Y-23310460D01*
X10233874Y-23296306D01*
X10214438Y-23296306D01*
X10209024Y-23269087D01*
X10181261Y-23202061D01*
X10140955Y-23141738D01*
X10089656Y-23090439D01*
X10029333Y-23050133D01*
X9962307Y-23022370D01*
X9891152Y-23008216D01*
X9818604Y-23008216D01*
X9747449Y-23022370D01*
X9680423Y-23050133D01*
X9620100Y-23090439D01*
X9568801Y-23141738D01*
X9528495Y-23202061D01*
X9500732Y-23269087D01*
X9490266Y-23321700D01*
X9421616Y-23321700D01*
X9350461Y-23335854D01*
X9283435Y-23363617D01*
X9223112Y-23403923D01*
X9214080Y-23412955D01*
X9178255Y-23389017D01*
X9111229Y-23361254D01*
X9040074Y-23347100D01*
X9011084Y-23347100D01*
X9002346Y-23303171D01*
X8974583Y-23236145D01*
X8934277Y-23175822D01*
X8882978Y-23124523D01*
X8822655Y-23084217D01*
X8755629Y-23056454D01*
X8684474Y-23042300D01*
X8611926Y-23042300D01*
X8540771Y-23056454D01*
X8473745Y-23084217D01*
X8413422Y-23124523D01*
X8372692Y-23165253D01*
X8365455Y-23160417D01*
X8298429Y-23132654D01*
X8227274Y-23118500D01*
X8154726Y-23118500D01*
X8142900Y-23120852D01*
X8138746Y-23099971D01*
X8110983Y-23032945D01*
X8070677Y-22972622D01*
X8019378Y-22921323D01*
X7959055Y-22881017D01*
X7892029Y-22853254D01*
X7820874Y-22839100D01*
X7748326Y-22839100D01*
X7677171Y-22853254D01*
X7610145Y-22881017D01*
X7549822Y-22921323D01*
X7498523Y-22972622D01*
X7458217Y-23032945D01*
X7430454Y-23099971D01*
X7416300Y-23171126D01*
X4265500Y-23171126D01*
X4265500Y-22409126D01*
X8127500Y-22409126D01*
X8127500Y-22481674D01*
X8141654Y-22552829D01*
X8169417Y-22619855D01*
X8209723Y-22680178D01*
X8261022Y-22731477D01*
X8321345Y-22771783D01*
X8388371Y-22799546D01*
X8459526Y-22813700D01*
X8532074Y-22813700D01*
X8603229Y-22799546D01*
X8670255Y-22771783D01*
X8730578Y-22731477D01*
X8781877Y-22680178D01*
X8822183Y-22619855D01*
X8849946Y-22552829D01*
X8863373Y-22485326D01*
X10362700Y-22485326D01*
X10362700Y-22557874D01*
X10376854Y-22629029D01*
X10404617Y-22696055D01*
X10444923Y-22756378D01*
X10496222Y-22807677D01*
X10556545Y-22847983D01*
X10623571Y-22875746D01*
X10694726Y-22889900D01*
X10767274Y-22889900D01*
X10838429Y-22875746D01*
X10905455Y-22847983D01*
X10965778Y-22807677D01*
X11017077Y-22756378D01*
X11057383Y-22696055D01*
X11085146Y-22629029D01*
X11099300Y-22557874D01*
X11099300Y-22485326D01*
X11085146Y-22414171D01*
X11057383Y-22347145D01*
X11047883Y-22332926D01*
X13004300Y-22332926D01*
X13004300Y-22405474D01*
X13018454Y-22476629D01*
X13046217Y-22543655D01*
X13086523Y-22603978D01*
X13137822Y-22655277D01*
X13198145Y-22695583D01*
X13265171Y-22723346D01*
X13336326Y-22737500D01*
X13408874Y-22737500D01*
X13480029Y-22723346D01*
X13547055Y-22695583D01*
X13607378Y-22655277D01*
X13658677Y-22603978D01*
X13698983Y-22543655D01*
X13726746Y-22476629D01*
X13740900Y-22405474D01*
X13740900Y-22332926D01*
X13726746Y-22261771D01*
X13698983Y-22194745D01*
X13658677Y-22134422D01*
X13607378Y-22083123D01*
X13547055Y-22042817D01*
X13480029Y-22015054D01*
X13408874Y-22000900D01*
X13336326Y-22000900D01*
X13265171Y-22015054D01*
X13198145Y-22042817D01*
X13137822Y-22083123D01*
X13086523Y-22134422D01*
X13046217Y-22194745D01*
X13018454Y-22261771D01*
X13004300Y-22332926D01*
X11047883Y-22332926D01*
X11017077Y-22286822D01*
X10965778Y-22235523D01*
X10905455Y-22195217D01*
X10838429Y-22167454D01*
X10767274Y-22153300D01*
X10694726Y-22153300D01*
X10623571Y-22167454D01*
X10556545Y-22195217D01*
X10496222Y-22235523D01*
X10444923Y-22286822D01*
X10404617Y-22347145D01*
X10376854Y-22414171D01*
X10362700Y-22485326D01*
X8863373Y-22485326D01*
X8864100Y-22481674D01*
X8864100Y-22409126D01*
X8849946Y-22337971D01*
X8822183Y-22270945D01*
X8781877Y-22210622D01*
X8730578Y-22159323D01*
X8670255Y-22119017D01*
X8603229Y-22091254D01*
X8532074Y-22077100D01*
X8459526Y-22077100D01*
X8388371Y-22091254D01*
X8321345Y-22119017D01*
X8261022Y-22159323D01*
X8209723Y-22210622D01*
X8169417Y-22270945D01*
X8141654Y-22337971D01*
X8127500Y-22409126D01*
X4265500Y-22409126D01*
X4265500Y-21418526D01*
X4596900Y-21418526D01*
X4596900Y-21491074D01*
X4611054Y-21562229D01*
X4638817Y-21629255D01*
X4679123Y-21689578D01*
X4730422Y-21740877D01*
X4790745Y-21781183D01*
X4857771Y-21808946D01*
X4928926Y-21823100D01*
X5001474Y-21823100D01*
X5072629Y-21808946D01*
X5139655Y-21781183D01*
X5199978Y-21740877D01*
X5251277Y-21689578D01*
X5291583Y-21629255D01*
X5319346Y-21562229D01*
X5333500Y-21491074D01*
X5333500Y-21418526D01*
X5319346Y-21347371D01*
X5291583Y-21280345D01*
X5251277Y-21220022D01*
X5199978Y-21168723D01*
X5155683Y-21139126D01*
X7467100Y-21139126D01*
X7467100Y-21211674D01*
X7481254Y-21282829D01*
X7509017Y-21349855D01*
X7549323Y-21410178D01*
X7600622Y-21461477D01*
X7660945Y-21501783D01*
X7727971Y-21529546D01*
X7799126Y-21543700D01*
X7871674Y-21543700D01*
X7942829Y-21529546D01*
X8009855Y-21501783D01*
X8047545Y-21476600D01*
X8057822Y-21486877D01*
X8118145Y-21527183D01*
X8185171Y-21554946D01*
X8256326Y-21569100D01*
X8328874Y-21569100D01*
X8400029Y-21554946D01*
X8467055Y-21527183D01*
X8527378Y-21486877D01*
X8578677Y-21435578D01*
X8618983Y-21375255D01*
X8646746Y-21308229D01*
X8660900Y-21237074D01*
X8660900Y-21164526D01*
X8646746Y-21093371D01*
X8634136Y-21062926D01*
X10184900Y-21062926D01*
X10184900Y-21135474D01*
X10199054Y-21206629D01*
X10226817Y-21273655D01*
X10267123Y-21333978D01*
X10318422Y-21385277D01*
X10378745Y-21425583D01*
X10445771Y-21453346D01*
X10516926Y-21467500D01*
X10589474Y-21467500D01*
X10660629Y-21453346D01*
X10727655Y-21425583D01*
X10787978Y-21385277D01*
X10839277Y-21333978D01*
X10879583Y-21273655D01*
X10907346Y-21206629D01*
X10921500Y-21135474D01*
X10921500Y-21062926D01*
X10907346Y-20991771D01*
X10905254Y-20986720D01*
X11150100Y-20986720D01*
X11150100Y-21059268D01*
X11164254Y-21130423D01*
X11192017Y-21197449D01*
X11232323Y-21257772D01*
X11283622Y-21309071D01*
X11343945Y-21349377D01*
X11410971Y-21377140D01*
X11482126Y-21391294D01*
X11554674Y-21391294D01*
X11625829Y-21377140D01*
X11648556Y-21367726D01*
X13004300Y-21367726D01*
X13004300Y-21440274D01*
X13018454Y-21511429D01*
X13046217Y-21578455D01*
X13086523Y-21638778D01*
X13137822Y-21690077D01*
X13198145Y-21730383D01*
X13265171Y-21758146D01*
X13336326Y-21772300D01*
X13408874Y-21772300D01*
X13480029Y-21758146D01*
X13547055Y-21730383D01*
X13607378Y-21690077D01*
X13658677Y-21638778D01*
X13698983Y-21578455D01*
X13726746Y-21511429D01*
X13740900Y-21440274D01*
X13740900Y-21367726D01*
X13726746Y-21296571D01*
X13698983Y-21229545D01*
X13658677Y-21169222D01*
X13607378Y-21117923D01*
X13547055Y-21077617D01*
X13480029Y-21049854D01*
X13408874Y-21035700D01*
X13336326Y-21035700D01*
X13265171Y-21049854D01*
X13198145Y-21077617D01*
X13137822Y-21117923D01*
X13086523Y-21169222D01*
X13046217Y-21229545D01*
X13018454Y-21296571D01*
X13004300Y-21367726D01*
X11648556Y-21367726D01*
X11692855Y-21349377D01*
X11753178Y-21309071D01*
X11804477Y-21257772D01*
X11844783Y-21197449D01*
X11872546Y-21130423D01*
X11886700Y-21059268D01*
X11886700Y-20986720D01*
X11872546Y-20915565D01*
X11844783Y-20848539D01*
X11804477Y-20788216D01*
X11753178Y-20736917D01*
X11692855Y-20696611D01*
X11625829Y-20668848D01*
X11554674Y-20654694D01*
X11482126Y-20654694D01*
X11410971Y-20668848D01*
X11343945Y-20696611D01*
X11283622Y-20736917D01*
X11232323Y-20788216D01*
X11192017Y-20848539D01*
X11164254Y-20915565D01*
X11150100Y-20986720D01*
X10905254Y-20986720D01*
X10879583Y-20924745D01*
X10839277Y-20864422D01*
X10787978Y-20813123D01*
X10727655Y-20772817D01*
X10660629Y-20745054D01*
X10589474Y-20730900D01*
X10516926Y-20730900D01*
X10445771Y-20745054D01*
X10378745Y-20772817D01*
X10318422Y-20813123D01*
X10267123Y-20864422D01*
X10226817Y-20924745D01*
X10199054Y-20991771D01*
X10184900Y-21062926D01*
X8634136Y-21062926D01*
X8618983Y-21026345D01*
X8578677Y-20966022D01*
X8527378Y-20914723D01*
X8467055Y-20874417D01*
X8400029Y-20846654D01*
X8328874Y-20832500D01*
X8256326Y-20832500D01*
X8185171Y-20846654D01*
X8118145Y-20874417D01*
X8080455Y-20899600D01*
X8070178Y-20889323D01*
X8009855Y-20849017D01*
X7942829Y-20821254D01*
X7871674Y-20807100D01*
X7799126Y-20807100D01*
X7727971Y-20821254D01*
X7660945Y-20849017D01*
X7600622Y-20889323D01*
X7549323Y-20940622D01*
X7509017Y-21000945D01*
X7481254Y-21067971D01*
X7467100Y-21139126D01*
X5155683Y-21139126D01*
X5139655Y-21128417D01*
X5072629Y-21100654D01*
X5001474Y-21086500D01*
X4928926Y-21086500D01*
X4857771Y-21100654D01*
X4790745Y-21128417D01*
X4730422Y-21168723D01*
X4679123Y-21220022D01*
X4638817Y-21280345D01*
X4611054Y-21347371D01*
X4596900Y-21418526D01*
X4265500Y-21418526D01*
X4265500Y-20250126D01*
X4698500Y-20250126D01*
X4698500Y-20322674D01*
X4712654Y-20393829D01*
X4740417Y-20460855D01*
X4780723Y-20521178D01*
X4832022Y-20572477D01*
X4892345Y-20612783D01*
X4959371Y-20640546D01*
X5030526Y-20654700D01*
X5103074Y-20654700D01*
X5174229Y-20640546D01*
X5241255Y-20612783D01*
X5301578Y-20572477D01*
X5352877Y-20521178D01*
X5393183Y-20460855D01*
X5420946Y-20393829D01*
X5435100Y-20322674D01*
X5435100Y-20250126D01*
X6222500Y-20250126D01*
X6222500Y-20322674D01*
X6236654Y-20393829D01*
X6264417Y-20460855D01*
X6304723Y-20521178D01*
X6356022Y-20572477D01*
X6416345Y-20612783D01*
X6483371Y-20640546D01*
X6554526Y-20654700D01*
X6627074Y-20654700D01*
X6698229Y-20640546D01*
X6765255Y-20612783D01*
X6825578Y-20572477D01*
X6876877Y-20521178D01*
X6917183Y-20460855D01*
X6944946Y-20393829D01*
X6953321Y-20351726D01*
X8203700Y-20351726D01*
X8203700Y-20424274D01*
X8217854Y-20495429D01*
X8245617Y-20562455D01*
X8285923Y-20622778D01*
X8337222Y-20674077D01*
X8397545Y-20714383D01*
X8464571Y-20742146D01*
X8535726Y-20756300D01*
X8608274Y-20756300D01*
X8679429Y-20742146D01*
X8746455Y-20714383D01*
X8806778Y-20674077D01*
X8858077Y-20622778D01*
X8898383Y-20562455D01*
X8926146Y-20495429D01*
X8940300Y-20424274D01*
X8940300Y-20351726D01*
X8930195Y-20300926D01*
X9478300Y-20300926D01*
X9478300Y-20373474D01*
X9492454Y-20444629D01*
X9520217Y-20511655D01*
X9560523Y-20571978D01*
X9611822Y-20623277D01*
X9672145Y-20663583D01*
X9739171Y-20691346D01*
X9810326Y-20705500D01*
X9882874Y-20705500D01*
X9954029Y-20691346D01*
X10021055Y-20663583D01*
X10081378Y-20623277D01*
X10132677Y-20571978D01*
X10172983Y-20511655D01*
X10200746Y-20444629D01*
X10204068Y-20427926D01*
X13004300Y-20427926D01*
X13004300Y-20500474D01*
X13018454Y-20571629D01*
X13046217Y-20638655D01*
X13086523Y-20698978D01*
X13137822Y-20750277D01*
X13198145Y-20790583D01*
X13265171Y-20818346D01*
X13336326Y-20832500D01*
X13408874Y-20832500D01*
X13480029Y-20818346D01*
X13547055Y-20790583D01*
X13607378Y-20750277D01*
X13658677Y-20698978D01*
X13698983Y-20638655D01*
X13726746Y-20571629D01*
X13740900Y-20500474D01*
X13740900Y-20427926D01*
X13726746Y-20356771D01*
X13698983Y-20289745D01*
X13658677Y-20229422D01*
X13607378Y-20178123D01*
X13547055Y-20137817D01*
X13480029Y-20110054D01*
X13408874Y-20095900D01*
X13336326Y-20095900D01*
X13265171Y-20110054D01*
X13198145Y-20137817D01*
X13137822Y-20178123D01*
X13086523Y-20229422D01*
X13046217Y-20289745D01*
X13018454Y-20356771D01*
X13004300Y-20427926D01*
X10204068Y-20427926D01*
X10214900Y-20373474D01*
X10214900Y-20300926D01*
X10200746Y-20229771D01*
X10172983Y-20162745D01*
X10132677Y-20102422D01*
X10081378Y-20051123D01*
X10021055Y-20010817D01*
X9954029Y-19983054D01*
X9882874Y-19968900D01*
X9810326Y-19968900D01*
X9739171Y-19983054D01*
X9672145Y-20010817D01*
X9611822Y-20051123D01*
X9560523Y-20102422D01*
X9520217Y-20162745D01*
X9492454Y-20229771D01*
X9478300Y-20300926D01*
X8930195Y-20300926D01*
X8926146Y-20280571D01*
X8898383Y-20213545D01*
X8858077Y-20153222D01*
X8806778Y-20101923D01*
X8746455Y-20061617D01*
X8679429Y-20033854D01*
X8608274Y-20019700D01*
X8535726Y-20019700D01*
X8464571Y-20033854D01*
X8397545Y-20061617D01*
X8337222Y-20101923D01*
X8285923Y-20153222D01*
X8245617Y-20213545D01*
X8217854Y-20280571D01*
X8203700Y-20351726D01*
X6953321Y-20351726D01*
X6959100Y-20322674D01*
X6959100Y-20250126D01*
X6944946Y-20178971D01*
X6917183Y-20111945D01*
X6876877Y-20051622D01*
X6825578Y-20000323D01*
X6765255Y-19960017D01*
X6698229Y-19932254D01*
X6627074Y-19918100D01*
X6554526Y-19918100D01*
X6483371Y-19932254D01*
X6416345Y-19960017D01*
X6356022Y-20000323D01*
X6304723Y-20051622D01*
X6264417Y-20111945D01*
X6236654Y-20178971D01*
X6222500Y-20250126D01*
X5435100Y-20250126D01*
X5420946Y-20178971D01*
X5393183Y-20111945D01*
X5352877Y-20051622D01*
X5301578Y-20000323D01*
X5241255Y-19960017D01*
X5174229Y-19932254D01*
X5103074Y-19918100D01*
X5030526Y-19918100D01*
X4959371Y-19932254D01*
X4892345Y-19960017D01*
X4832022Y-20000323D01*
X4780723Y-20051622D01*
X4740417Y-20111945D01*
X4712654Y-20178971D01*
X4698500Y-20250126D01*
X4265500Y-20250126D01*
X4265500Y-19513532D01*
X5308100Y-19513532D01*
X5308100Y-19586080D01*
X5322254Y-19657235D01*
X5350017Y-19724261D01*
X5390323Y-19784584D01*
X5441622Y-19835883D01*
X5501945Y-19876189D01*
X5568971Y-19903952D01*
X5640126Y-19918106D01*
X5712674Y-19918106D01*
X5783829Y-19903952D01*
X5850855Y-19876189D01*
X5911178Y-19835883D01*
X5962477Y-19784584D01*
X6002783Y-19724261D01*
X6030546Y-19657235D01*
X6044700Y-19586080D01*
X6044700Y-19513532D01*
X6039647Y-19488126D01*
X7162300Y-19488126D01*
X7162300Y-19560674D01*
X7176454Y-19631829D01*
X7204217Y-19698855D01*
X7244523Y-19759178D01*
X7295822Y-19810477D01*
X7356145Y-19850783D01*
X7423171Y-19878546D01*
X7494326Y-19892700D01*
X7566874Y-19892700D01*
X7638029Y-19878546D01*
X7705055Y-19850783D01*
X7765378Y-19810477D01*
X7816677Y-19759178D01*
X7856983Y-19698855D01*
X7884746Y-19631829D01*
X7898900Y-19560674D01*
X7898900Y-19488126D01*
X7884746Y-19416971D01*
X7856983Y-19349945D01*
X7816677Y-19289622D01*
X7765378Y-19238323D01*
X7705055Y-19198017D01*
X7638029Y-19170254D01*
X7566874Y-19156100D01*
X7494326Y-19156100D01*
X7423171Y-19170254D01*
X7356145Y-19198017D01*
X7295822Y-19238323D01*
X7244523Y-19289622D01*
X7204217Y-19349945D01*
X7176454Y-19416971D01*
X7162300Y-19488126D01*
X6039647Y-19488126D01*
X6030546Y-19442377D01*
X6002783Y-19375351D01*
X5962477Y-19315028D01*
X5911178Y-19263729D01*
X5850855Y-19223423D01*
X5783829Y-19195660D01*
X5712674Y-19181506D01*
X5640126Y-19181506D01*
X5568971Y-19195660D01*
X5501945Y-19223423D01*
X5441622Y-19263729D01*
X5390323Y-19315028D01*
X5350017Y-19375351D01*
X5322254Y-19442377D01*
X5308100Y-19513532D01*
X4265500Y-19513532D01*
X4265500Y-18765500D01*
X13737645Y-18765500D01*
X13721523Y-18781622D01*
D15*
G36*
X21516839Y-8147740D02*
G01*
X21621201Y-8147740D01*
X21723557Y-8127380D01*
X21819974Y-8087442D01*
X21906748Y-8029462D01*
X21980542Y-7955668D01*
X22038522Y-7868894D01*
X22067398Y-7799183D01*
X22123883Y-7822580D01*
X22226239Y-7842940D01*
X22330601Y-7842940D01*
X22432957Y-7822580D01*
X22529374Y-7782642D01*
X22616148Y-7724662D01*
X22689942Y-7650868D01*
X22747922Y-7564094D01*
X22787860Y-7467677D01*
X22808220Y-7365321D01*
X22808220Y-7260959D01*
X22787860Y-7158603D01*
X22747922Y-7062186D01*
X22689942Y-6975412D01*
X22616148Y-6901618D01*
X22529374Y-6843638D01*
X22432957Y-6803700D01*
X22330601Y-6783340D01*
X22226239Y-6783340D01*
X22123883Y-6803700D01*
X22027466Y-6843638D01*
X21940692Y-6901618D01*
X21866898Y-6975412D01*
X21808918Y-7062186D01*
X21780042Y-7131897D01*
X21723557Y-7108500D01*
X21621201Y-7088140D01*
X21516839Y-7088140D01*
X21416620Y-7108075D01*
X21416620Y-6121205D01*
X21516839Y-6141140D01*
X21621201Y-6141140D01*
X21723557Y-6120780D01*
X21819974Y-6080842D01*
X21906748Y-6022862D01*
X21980542Y-5949068D01*
X22038522Y-5862294D01*
X22078460Y-5765877D01*
X22098820Y-5663521D01*
X22098820Y-5559159D01*
X22078460Y-5456803D01*
X22038522Y-5360386D01*
X21980542Y-5273612D01*
X21906748Y-5199818D01*
X21819974Y-5141838D01*
X21723557Y-5101900D01*
X21621201Y-5081540D01*
X21516839Y-5081540D01*
X21416620Y-5101475D01*
X21416620Y-4395939D01*
X24102634Y-4395940D01*
X24102644Y-4395939D01*
X26920163Y-4395939D01*
X26901580Y-4440803D01*
X26881220Y-4543159D01*
X26881220Y-4647521D01*
X26901580Y-4749877D01*
X26941518Y-4846294D01*
X26969009Y-4887437D01*
X26941518Y-4928580D01*
X26901580Y-5024997D01*
X26881220Y-5127353D01*
X26881220Y-5231715D01*
X26901580Y-5334071D01*
X26941518Y-5430488D01*
X26999498Y-5517262D01*
X27073292Y-5591056D01*
X27160066Y-5649036D01*
X27256483Y-5688974D01*
X27323263Y-5702257D01*
X27297118Y-5741386D01*
X27257180Y-5837803D01*
X27236820Y-5940159D01*
X27236820Y-6044521D01*
X27257180Y-6146877D01*
X27297118Y-6243294D01*
X27355098Y-6330068D01*
X27428892Y-6403862D01*
X27515666Y-6461842D01*
X27612083Y-6501780D01*
X27714439Y-6522140D01*
X27818801Y-6522140D01*
X27921157Y-6501780D01*
X28017574Y-6461842D01*
X28104348Y-6403862D01*
X28178142Y-6330068D01*
X28236122Y-6243294D01*
X28276060Y-6146877D01*
X28296420Y-6044521D01*
X28296420Y-5940159D01*
X28276060Y-5837803D01*
X28236122Y-5741386D01*
X28178142Y-5654612D01*
X28104348Y-5580818D01*
X28017574Y-5522838D01*
X27921157Y-5482900D01*
X27854377Y-5469617D01*
X27880522Y-5430488D01*
X27920460Y-5334071D01*
X27940820Y-5231715D01*
X27940820Y-5127353D01*
X27920460Y-5024997D01*
X27880522Y-4928580D01*
X27853031Y-4887437D01*
X27880522Y-4846294D01*
X27920460Y-4749877D01*
X27940820Y-4647521D01*
X27940820Y-4543159D01*
X27920460Y-4440803D01*
X27901877Y-4395940D01*
X28119599Y-4395940D01*
X28100420Y-4492359D01*
X28100420Y-4596721D01*
X28120780Y-4699077D01*
X28160718Y-4795494D01*
X28218698Y-4882268D01*
X28292492Y-4956062D01*
X28379266Y-5014042D01*
X28475683Y-5053980D01*
X28578039Y-5074340D01*
X28682401Y-5074340D01*
X28784757Y-5053980D01*
X28881174Y-5014042D01*
X28967948Y-4956062D01*
X29041742Y-4882268D01*
X29099722Y-4795494D01*
X29139660Y-4699077D01*
X29160020Y-4596721D01*
X29160020Y-4492359D01*
X29140841Y-4395940D01*
X29389599Y-4395940D01*
X29370420Y-4492359D01*
X29370420Y-4596721D01*
X29390780Y-4699077D01*
X29430718Y-4795494D01*
X29488698Y-4882268D01*
X29562492Y-4956062D01*
X29649266Y-5014042D01*
X29745683Y-5053980D01*
X29848039Y-5074340D01*
X29952401Y-5074340D01*
X30054757Y-5053980D01*
X30151174Y-5014042D01*
X30237948Y-4956062D01*
X30311742Y-4882268D01*
X30369722Y-4795494D01*
X30409660Y-4699077D01*
X30430020Y-4596721D01*
X30430020Y-4492359D01*
X30410841Y-4395940D01*
X31256220Y-4395940D01*
X31256220Y-7518074D01*
X31248557Y-7514900D01*
X31146201Y-7494540D01*
X31041839Y-7494540D01*
X30939483Y-7514900D01*
X30843066Y-7554838D01*
X30756292Y-7612818D01*
X30682498Y-7686612D01*
X30624518Y-7773386D01*
X30584580Y-7869803D01*
X30564220Y-7972159D01*
X30564220Y-8076521D01*
X30584580Y-8178877D01*
X30624518Y-8275294D01*
X30643525Y-8303740D01*
X30624518Y-8332186D01*
X30584580Y-8428603D01*
X30564220Y-8530959D01*
X30564220Y-8635321D01*
X30584155Y-8735540D01*
X28962285Y-8735540D01*
X28982220Y-8635321D01*
X28982220Y-8530959D01*
X28961860Y-8428603D01*
X28921922Y-8332186D01*
X28863942Y-8245412D01*
X28790148Y-8171618D01*
X28703374Y-8113638D01*
X28606957Y-8073700D01*
X28504601Y-8053340D01*
X28400239Y-8053340D01*
X28297883Y-8073700D01*
X28201466Y-8113638D01*
X28114692Y-8171618D01*
X28040898Y-8245412D01*
X27982918Y-8332186D01*
X27942980Y-8428603D01*
X27922620Y-8530959D01*
X27922620Y-8635321D01*
X27942555Y-8735540D01*
X27602635Y-8735540D01*
X27586420Y-8733943D01*
X27521690Y-8740318D01*
X27459447Y-8759200D01*
X27402083Y-8789861D01*
X27364399Y-8820788D01*
X27351804Y-8831124D01*
X27341466Y-8843721D01*
X27304627Y-8880560D01*
X27285460Y-8784203D01*
X27245522Y-8687786D01*
X27187542Y-8601012D01*
X27113748Y-8527218D01*
X27026974Y-8469238D01*
X26930557Y-8429300D01*
X26828201Y-8408940D01*
X26723839Y-8408940D01*
X26621483Y-8429300D01*
X26525066Y-8469238D01*
X26438292Y-8527218D01*
X26364498Y-8601012D01*
X26306518Y-8687786D01*
X26293420Y-8719407D01*
X26280322Y-8687786D01*
X26222342Y-8601012D01*
X26148548Y-8527218D01*
X26061774Y-8469238D01*
X25965357Y-8429300D01*
X25863001Y-8408940D01*
X25860239Y-8408940D01*
X25860239Y-6953940D01*
X25964601Y-6953940D01*
X26066957Y-6933580D01*
X26163374Y-6893642D01*
X26250148Y-6835662D01*
X26323942Y-6761868D01*
X26381922Y-6675094D01*
X26421860Y-6578677D01*
X26442220Y-6476321D01*
X26442220Y-6371959D01*
X26421860Y-6269603D01*
X26381922Y-6173186D01*
X26323942Y-6086412D01*
X26250148Y-6012618D01*
X26163374Y-5954638D01*
X26066957Y-5914700D01*
X25964601Y-5894340D01*
X25860239Y-5894340D01*
X25757883Y-5914700D01*
X25661466Y-5954638D01*
X25574692Y-6012618D01*
X25500898Y-6086412D01*
X25442918Y-6173186D01*
X25402980Y-6269603D01*
X25382620Y-6371959D01*
X25382620Y-6476321D01*
X25402980Y-6578677D01*
X25442918Y-6675094D01*
X25500898Y-6761868D01*
X25574692Y-6835662D01*
X25661466Y-6893642D01*
X25757883Y-6933580D01*
X25860239Y-6953940D01*
X25860239Y-8408940D01*
X25758639Y-8408940D01*
X25656283Y-8429300D01*
X25559866Y-8469238D01*
X25473092Y-8527218D01*
X25399298Y-8601012D01*
X25341318Y-8687786D01*
X25328220Y-8719407D01*
X25315122Y-8687786D01*
X25257142Y-8601012D01*
X25183348Y-8527218D01*
X25158235Y-8510438D01*
X25213522Y-8427694D01*
X25253460Y-8331277D01*
X25273820Y-8228921D01*
X25273820Y-8124559D01*
X25253460Y-8022203D01*
X25213522Y-7925786D01*
X25155542Y-7839012D01*
X25098239Y-7781709D01*
X25098239Y-5887140D01*
X25202601Y-5887140D01*
X25304957Y-5866780D01*
X25401374Y-5826842D01*
X25488148Y-5768862D01*
X25561942Y-5695068D01*
X25619922Y-5608294D01*
X25659860Y-5511877D01*
X25680220Y-5409521D01*
X25680220Y-5305159D01*
X25659860Y-5202803D01*
X25619922Y-5106386D01*
X25561942Y-5019612D01*
X25488148Y-4945818D01*
X25401374Y-4887838D01*
X25304957Y-4847900D01*
X25202601Y-4827540D01*
X25098239Y-4827540D01*
X25020862Y-4842931D01*
X25003142Y-4816412D01*
X24929348Y-4742618D01*
X24842574Y-4684638D01*
X24746157Y-4644700D01*
X24643801Y-4624340D01*
X24539439Y-4624340D01*
X24437083Y-4644700D01*
X24340666Y-4684638D01*
X24253892Y-4742618D01*
X24180098Y-4816412D01*
X24122118Y-4903186D01*
X24082180Y-4999603D01*
X24061820Y-5101959D01*
X24061820Y-5206321D01*
X24082180Y-5308677D01*
X24122118Y-5405094D01*
X24180098Y-5491868D01*
X24253892Y-5565662D01*
X24340666Y-5623642D01*
X24437083Y-5663580D01*
X24539439Y-5683940D01*
X24643801Y-5683940D01*
X24721178Y-5668549D01*
X24738898Y-5695068D01*
X24812692Y-5768862D01*
X24899466Y-5826842D01*
X24995883Y-5866780D01*
X25098239Y-5887140D01*
X25098239Y-7781709D01*
X25081748Y-7765218D01*
X24994974Y-7707238D01*
X24898557Y-7667300D01*
X24796201Y-7646940D01*
X24691839Y-7646940D01*
X24589483Y-7667300D01*
X24493066Y-7707238D01*
X24406292Y-7765218D01*
X24332498Y-7839012D01*
X24274518Y-7925786D01*
X24234580Y-8022203D01*
X24214220Y-8124559D01*
X24214220Y-8228921D01*
X24234580Y-8331277D01*
X24274518Y-8427694D01*
X24332498Y-8514468D01*
X24406292Y-8588262D01*
X24431405Y-8605042D01*
X24376118Y-8687786D01*
X24336180Y-8784203D01*
X24325713Y-8836823D01*
X24321036Y-8831124D01*
X24270757Y-8789861D01*
X24213393Y-8759200D01*
X24151150Y-8740318D01*
X24102635Y-8735540D01*
X24102634Y-8735540D01*
X24086420Y-8733943D01*
X24070205Y-8735540D01*
X23421839Y-8735540D01*
X23421839Y-8122340D01*
X23526201Y-8122340D01*
X23628557Y-8101980D01*
X23724974Y-8062042D01*
X23811748Y-8004062D01*
X23885542Y-7930268D01*
X23943522Y-7843494D01*
X23983460Y-7747077D01*
X24003820Y-7644721D01*
X24003820Y-7540359D01*
X23983460Y-7438003D01*
X23943522Y-7341586D01*
X23885542Y-7254812D01*
X23811748Y-7181018D01*
X23724974Y-7123038D01*
X23628557Y-7083100D01*
X23526201Y-7062740D01*
X23421839Y-7062740D01*
X23319483Y-7083100D01*
X23223066Y-7123038D01*
X23136292Y-7181018D01*
X23062498Y-7254812D01*
X23004518Y-7341586D01*
X22964580Y-7438003D01*
X22944220Y-7540359D01*
X22944220Y-7644721D01*
X22964580Y-7747077D01*
X23004518Y-7843494D01*
X23062498Y-7930268D01*
X23136292Y-8004062D01*
X23223066Y-8062042D01*
X23319483Y-8101980D01*
X23421839Y-8122340D01*
X23421839Y-8735540D01*
X21416620Y-8735540D01*
X21416620Y-8127805D01*
X21516839Y-8147740D01*
X21516839Y-8147740D01*
G37*
X21516839Y-8147740D02*
X21621201Y-8147740D01*
X21723557Y-8127380D01*
X21819974Y-8087442D01*
X21906748Y-8029462D01*
X21980542Y-7955668D01*
X22038522Y-7868894D01*
X22067398Y-7799183D01*
X22123883Y-7822580D01*
X22226239Y-7842940D01*
X22330601Y-7842940D01*
X22432957Y-7822580D01*
X22529374Y-7782642D01*
X22616148Y-7724662D01*
X22689942Y-7650868D01*
X22747922Y-7564094D01*
X22787860Y-7467677D01*
X22808220Y-7365321D01*
X22808220Y-7260959D01*
X22787860Y-7158603D01*
X22747922Y-7062186D01*
X22689942Y-6975412D01*
X22616148Y-6901618D01*
X22529374Y-6843638D01*
X22432957Y-6803700D01*
X22330601Y-6783340D01*
X22226239Y-6783340D01*
X22123883Y-6803700D01*
X22027466Y-6843638D01*
X21940692Y-6901618D01*
X21866898Y-6975412D01*
X21808918Y-7062186D01*
X21780042Y-7131897D01*
X21723557Y-7108500D01*
X21621201Y-7088140D01*
X21516839Y-7088140D01*
X21416620Y-7108075D01*
X21416620Y-6121205D01*
X21516839Y-6141140D01*
X21621201Y-6141140D01*
X21723557Y-6120780D01*
X21819974Y-6080842D01*
X21906748Y-6022862D01*
X21980542Y-5949068D01*
X22038522Y-5862294D01*
X22078460Y-5765877D01*
X22098820Y-5663521D01*
X22098820Y-5559159D01*
X22078460Y-5456803D01*
X22038522Y-5360386D01*
X21980542Y-5273612D01*
X21906748Y-5199818D01*
X21819974Y-5141838D01*
X21723557Y-5101900D01*
X21621201Y-5081540D01*
X21516839Y-5081540D01*
X21416620Y-5101475D01*
X21416620Y-4395939D01*
X24102634Y-4395940D01*
X24102644Y-4395939D01*
X26920163Y-4395939D01*
X26901580Y-4440803D01*
X26881220Y-4543159D01*
X26881220Y-4647521D01*
X26901580Y-4749877D01*
X26941518Y-4846294D01*
X26969009Y-4887437D01*
X26941518Y-4928580D01*
X26901580Y-5024997D01*
X26881220Y-5127353D01*
X26881220Y-5231715D01*
X26901580Y-5334071D01*
X26941518Y-5430488D01*
X26999498Y-5517262D01*
X27073292Y-5591056D01*
X27160066Y-5649036D01*
X27256483Y-5688974D01*
X27323263Y-5702257D01*
X27297118Y-5741386D01*
X27257180Y-5837803D01*
X27236820Y-5940159D01*
X27236820Y-6044521D01*
X27257180Y-6146877D01*
X27297118Y-6243294D01*
X27355098Y-6330068D01*
X27428892Y-6403862D01*
X27515666Y-6461842D01*
X27612083Y-6501780D01*
X27714439Y-6522140D01*
X27818801Y-6522140D01*
X27921157Y-6501780D01*
X28017574Y-6461842D01*
X28104348Y-6403862D01*
X28178142Y-6330068D01*
X28236122Y-6243294D01*
X28276060Y-6146877D01*
X28296420Y-6044521D01*
X28296420Y-5940159D01*
X28276060Y-5837803D01*
X28236122Y-5741386D01*
X28178142Y-5654612D01*
X28104348Y-5580818D01*
X28017574Y-5522838D01*
X27921157Y-5482900D01*
X27854377Y-5469617D01*
X27880522Y-5430488D01*
X27920460Y-5334071D01*
X27940820Y-5231715D01*
X27940820Y-5127353D01*
X27920460Y-5024997D01*
X27880522Y-4928580D01*
X27853031Y-4887437D01*
X27880522Y-4846294D01*
X27920460Y-4749877D01*
X27940820Y-4647521D01*
X27940820Y-4543159D01*
X27920460Y-4440803D01*
X27901877Y-4395940D01*
X28119599Y-4395940D01*
X28100420Y-4492359D01*
X28100420Y-4596721D01*
X28120780Y-4699077D01*
X28160718Y-4795494D01*
X28218698Y-4882268D01*
X28292492Y-4956062D01*
X28379266Y-5014042D01*
X28475683Y-5053980D01*
X28578039Y-5074340D01*
X28682401Y-5074340D01*
X28784757Y-5053980D01*
X28881174Y-5014042D01*
X28967948Y-4956062D01*
X29041742Y-4882268D01*
X29099722Y-4795494D01*
X29139660Y-4699077D01*
X29160020Y-4596721D01*
X29160020Y-4492359D01*
X29140841Y-4395940D01*
X29389599Y-4395940D01*
X29370420Y-4492359D01*
X29370420Y-4596721D01*
X29390780Y-4699077D01*
X29430718Y-4795494D01*
X29488698Y-4882268D01*
X29562492Y-4956062D01*
X29649266Y-5014042D01*
X29745683Y-5053980D01*
X29848039Y-5074340D01*
X29952401Y-5074340D01*
X30054757Y-5053980D01*
X30151174Y-5014042D01*
X30237948Y-4956062D01*
X30311742Y-4882268D01*
X30369722Y-4795494D01*
X30409660Y-4699077D01*
X30430020Y-4596721D01*
X30430020Y-4492359D01*
X30410841Y-4395940D01*
X31256220Y-4395940D01*
X31256220Y-7518074D01*
X31248557Y-7514900D01*
X31146201Y-7494540D01*
X31041839Y-7494540D01*
X30939483Y-7514900D01*
X30843066Y-7554838D01*
X30756292Y-7612818D01*
X30682498Y-7686612D01*
X30624518Y-7773386D01*
X30584580Y-7869803D01*
X30564220Y-7972159D01*
X30564220Y-8076521D01*
X30584580Y-8178877D01*
X30624518Y-8275294D01*
X30643525Y-8303740D01*
X30624518Y-8332186D01*
X30584580Y-8428603D01*
X30564220Y-8530959D01*
X30564220Y-8635321D01*
X30584155Y-8735540D01*
X28962285Y-8735540D01*
X28982220Y-8635321D01*
X28982220Y-8530959D01*
X28961860Y-8428603D01*
X28921922Y-8332186D01*
X28863942Y-8245412D01*
X28790148Y-8171618D01*
X28703374Y-8113638D01*
X28606957Y-8073700D01*
X28504601Y-8053340D01*
X28400239Y-8053340D01*
X28297883Y-8073700D01*
X28201466Y-8113638D01*
X28114692Y-8171618D01*
X28040898Y-8245412D01*
X27982918Y-8332186D01*
X27942980Y-8428603D01*
X27922620Y-8530959D01*
X27922620Y-8635321D01*
X27942555Y-8735540D01*
X27602635Y-8735540D01*
X27586420Y-8733943D01*
X27521690Y-8740318D01*
X27459447Y-8759200D01*
X27402083Y-8789861D01*
X27364399Y-8820788D01*
X27351804Y-8831124D01*
X27341466Y-8843721D01*
X27304627Y-8880560D01*
X27285460Y-8784203D01*
X27245522Y-8687786D01*
X27187542Y-8601012D01*
X27113748Y-8527218D01*
X27026974Y-8469238D01*
X26930557Y-8429300D01*
X26828201Y-8408940D01*
X26723839Y-8408940D01*
X26621483Y-8429300D01*
X26525066Y-8469238D01*
X26438292Y-8527218D01*
X26364498Y-8601012D01*
X26306518Y-8687786D01*
X26293420Y-8719407D01*
X26280322Y-8687786D01*
X26222342Y-8601012D01*
X26148548Y-8527218D01*
X26061774Y-8469238D01*
X25965357Y-8429300D01*
X25863001Y-8408940D01*
X25860239Y-8408940D01*
X25860239Y-6953940D01*
X25964601Y-6953940D01*
X26066957Y-6933580D01*
X26163374Y-6893642D01*
X26250148Y-6835662D01*
X26323942Y-6761868D01*
X26381922Y-6675094D01*
X26421860Y-6578677D01*
X26442220Y-6476321D01*
X26442220Y-6371959D01*
X26421860Y-6269603D01*
X26381922Y-6173186D01*
X26323942Y-6086412D01*
X26250148Y-6012618D01*
X26163374Y-5954638D01*
X26066957Y-5914700D01*
X25964601Y-5894340D01*
X25860239Y-5894340D01*
X25757883Y-5914700D01*
X25661466Y-5954638D01*
X25574692Y-6012618D01*
X25500898Y-6086412D01*
X25442918Y-6173186D01*
X25402980Y-6269603D01*
X25382620Y-6371959D01*
X25382620Y-6476321D01*
X25402980Y-6578677D01*
X25442918Y-6675094D01*
X25500898Y-6761868D01*
X25574692Y-6835662D01*
X25661466Y-6893642D01*
X25757883Y-6933580D01*
X25860239Y-6953940D01*
X25860239Y-8408940D01*
X25758639Y-8408940D01*
X25656283Y-8429300D01*
X25559866Y-8469238D01*
X25473092Y-8527218D01*
X25399298Y-8601012D01*
X25341318Y-8687786D01*
X25328220Y-8719407D01*
X25315122Y-8687786D01*
X25257142Y-8601012D01*
X25183348Y-8527218D01*
X25158235Y-8510438D01*
X25213522Y-8427694D01*
X25253460Y-8331277D01*
X25273820Y-8228921D01*
X25273820Y-8124559D01*
X25253460Y-8022203D01*
X25213522Y-7925786D01*
X25155542Y-7839012D01*
X25098239Y-7781709D01*
X25098239Y-5887140D01*
X25202601Y-5887140D01*
X25304957Y-5866780D01*
X25401374Y-5826842D01*
X25488148Y-5768862D01*
X25561942Y-5695068D01*
X25619922Y-5608294D01*
X25659860Y-5511877D01*
X25680220Y-5409521D01*
X25680220Y-5305159D01*
X25659860Y-5202803D01*
X25619922Y-5106386D01*
X25561942Y-5019612D01*
X25488148Y-4945818D01*
X25401374Y-4887838D01*
X25304957Y-4847900D01*
X25202601Y-4827540D01*
X25098239Y-4827540D01*
X25020862Y-4842931D01*
X25003142Y-4816412D01*
X24929348Y-4742618D01*
X24842574Y-4684638D01*
X24746157Y-4644700D01*
X24643801Y-4624340D01*
X24539439Y-4624340D01*
X24437083Y-4644700D01*
X24340666Y-4684638D01*
X24253892Y-4742618D01*
X24180098Y-4816412D01*
X24122118Y-4903186D01*
X24082180Y-4999603D01*
X24061820Y-5101959D01*
X24061820Y-5206321D01*
X24082180Y-5308677D01*
X24122118Y-5405094D01*
X24180098Y-5491868D01*
X24253892Y-5565662D01*
X24340666Y-5623642D01*
X24437083Y-5663580D01*
X24539439Y-5683940D01*
X24643801Y-5683940D01*
X24721178Y-5668549D01*
X24738898Y-5695068D01*
X24812692Y-5768862D01*
X24899466Y-5826842D01*
X24995883Y-5866780D01*
X25098239Y-5887140D01*
X25098239Y-7781709D01*
X25081748Y-7765218D01*
X24994974Y-7707238D01*
X24898557Y-7667300D01*
X24796201Y-7646940D01*
X24691839Y-7646940D01*
X24589483Y-7667300D01*
X24493066Y-7707238D01*
X24406292Y-7765218D01*
X24332498Y-7839012D01*
X24274518Y-7925786D01*
X24234580Y-8022203D01*
X24214220Y-8124559D01*
X24214220Y-8228921D01*
X24234580Y-8331277D01*
X24274518Y-8427694D01*
X24332498Y-8514468D01*
X24406292Y-8588262D01*
X24431405Y-8605042D01*
X24376118Y-8687786D01*
X24336180Y-8784203D01*
X24325713Y-8836823D01*
X24321036Y-8831124D01*
X24270757Y-8789861D01*
X24213393Y-8759200D01*
X24151150Y-8740318D01*
X24102635Y-8735540D01*
X24102634Y-8735540D01*
X24086420Y-8733943D01*
X24070205Y-8735540D01*
X23421839Y-8735540D01*
X23421839Y-8122340D01*
X23526201Y-8122340D01*
X23628557Y-8101980D01*
X23724974Y-8062042D01*
X23811748Y-8004062D01*
X23885542Y-7930268D01*
X23943522Y-7843494D01*
X23983460Y-7747077D01*
X24003820Y-7644721D01*
X24003820Y-7540359D01*
X23983460Y-7438003D01*
X23943522Y-7341586D01*
X23885542Y-7254812D01*
X23811748Y-7181018D01*
X23724974Y-7123038D01*
X23628557Y-7083100D01*
X23526201Y-7062740D01*
X23421839Y-7062740D01*
X23319483Y-7083100D01*
X23223066Y-7123038D01*
X23136292Y-7181018D01*
X23062498Y-7254812D01*
X23004518Y-7341586D01*
X22964580Y-7438003D01*
X22944220Y-7540359D01*
X22944220Y-7644721D01*
X22964580Y-7747077D01*
X23004518Y-7843494D01*
X23062498Y-7930268D01*
X23136292Y-8004062D01*
X23223066Y-8062042D01*
X23319483Y-8101980D01*
X23421839Y-8122340D01*
X23421839Y-8735540D01*
X21416620Y-8735540D01*
X21416620Y-8127805D01*
X21516839Y-8147740D01*
G36*
X25837660Y-9702877D02*
G01*
X25858020Y-9600521D01*
X25858020Y-9496159D01*
X25852526Y-9468540D01*
X25863001Y-9468540D01*
X25965357Y-9448180D01*
X26061774Y-9408242D01*
X26148548Y-9350262D01*
X26222342Y-9276468D01*
X26280322Y-9189694D01*
X26293420Y-9158073D01*
X26306518Y-9189694D01*
X26364498Y-9276468D01*
X26438292Y-9350262D01*
X26525066Y-9408242D01*
X26621483Y-9448180D01*
X26717841Y-9467347D01*
X26449648Y-9735540D01*
X25824130Y-9735540D01*
X25837660Y-9702877D01*
X25837660Y-9702877D01*
G37*
X25837660Y-9702877D02*
X25858020Y-9600521D01*
X25858020Y-9496159D01*
X25852526Y-9468540D01*
X25863001Y-9468540D01*
X25965357Y-9448180D01*
X26061774Y-9408242D01*
X26148548Y-9350262D01*
X26222342Y-9276468D01*
X26280322Y-9189694D01*
X26293420Y-9158073D01*
X26306518Y-9189694D01*
X26364498Y-9276468D01*
X26438292Y-9350262D01*
X26525066Y-9408242D01*
X26621483Y-9448180D01*
X26717841Y-9467347D01*
X26449648Y-9735540D01*
X25824130Y-9735540D01*
X25837660Y-9702877D01*
D16*
G36*
X28347866Y-24424060D02*
G01*
X28228494Y-24424060D01*
X28111416Y-24447348D01*
X28001131Y-24493030D01*
X27901878Y-24559349D01*
X27817469Y-24643758D01*
X27751150Y-24743011D01*
X27735497Y-24780800D01*
X27714576Y-24772134D01*
X27606617Y-24750660D01*
X27574147Y-24750660D01*
X27550582Y-24693769D01*
X27489428Y-24602246D01*
X27411594Y-24524412D01*
X27320071Y-24463258D01*
X27218376Y-24421134D01*
X27110417Y-24399660D01*
X27000343Y-24399660D01*
X26892384Y-24421134D01*
X26790689Y-24463258D01*
X26699166Y-24524412D01*
X26621332Y-24602246D01*
X26593997Y-24643155D01*
X26593064Y-24638464D01*
X26550940Y-24536769D01*
X26489786Y-24445246D01*
X26411952Y-24367412D01*
X26320429Y-24306258D01*
X26218734Y-24264134D01*
X26110775Y-24242660D01*
X26000701Y-24242660D01*
X25892742Y-24264134D01*
X25791047Y-24306258D01*
X25699524Y-24367412D01*
X25621690Y-24445246D01*
X25590350Y-24492150D01*
X25501743Y-24492150D01*
X25393784Y-24513624D01*
X25292089Y-24555748D01*
X25200566Y-24616902D01*
X25122732Y-24694736D01*
X25061578Y-24786259D01*
X25019454Y-24887954D01*
X24997980Y-24995913D01*
X24997980Y-25105987D01*
X25019454Y-25213946D01*
X25061578Y-25315641D01*
X25108363Y-25385660D01*
X24038299Y-25385660D01*
X24070292Y-25308424D01*
X24093580Y-25191346D01*
X24093580Y-25071974D01*
X24070292Y-24954896D01*
X24024610Y-24844611D01*
X23958291Y-24745358D01*
X23873882Y-24660949D01*
X23774629Y-24594630D01*
X23664344Y-24548948D01*
X23547266Y-24525660D01*
X23427894Y-24525660D01*
X23310816Y-24548948D01*
X23229540Y-24582614D01*
X23211810Y-24539809D01*
X23145491Y-24440556D01*
X23061082Y-24356147D01*
X22961829Y-24289828D01*
X22851544Y-24244146D01*
X22734466Y-24220858D01*
X22615094Y-24220858D01*
X22498016Y-24244146D01*
X22387731Y-24289828D01*
X22288478Y-24356147D01*
X22204069Y-24440556D01*
X22137750Y-24539809D01*
X22092068Y-24650094D01*
X22068780Y-24767172D01*
X22068780Y-24886544D01*
X22092068Y-25003622D01*
X22137750Y-25113907D01*
X22204069Y-25213160D01*
X22288478Y-25297569D01*
X22387731Y-25363888D01*
X22440293Y-25385660D01*
X21327380Y-25385660D01*
X21327380Y-23016337D01*
X21345094Y-23019860D01*
X21464466Y-23019860D01*
X21581544Y-22996572D01*
X21691829Y-22950890D01*
X21791082Y-22884571D01*
X21875491Y-22800162D01*
X21941810Y-22700909D01*
X21987492Y-22590624D01*
X22003159Y-22511860D01*
X22048666Y-22511860D01*
X22113773Y-22498910D01*
X22115458Y-22502978D01*
X22181777Y-22602231D01*
X22266186Y-22686640D01*
X22365439Y-22752959D01*
X22475724Y-22798641D01*
X22592802Y-22821929D01*
X22712174Y-22821929D01*
X22829252Y-22798641D01*
X22939537Y-22752959D01*
X23038790Y-22686640D01*
X23123199Y-22602231D01*
X23189518Y-22502978D01*
X23226616Y-22413416D01*
X23243132Y-22438133D01*
X23320966Y-22515967D01*
X23411074Y-22576175D01*
X23346366Y-22619412D01*
X23268532Y-22697246D01*
X23207378Y-22788769D01*
X23165254Y-22890464D01*
X23143780Y-22998423D01*
X23143780Y-23108497D01*
X23165254Y-23216456D01*
X23207378Y-23318151D01*
X23268532Y-23409674D01*
X23346366Y-23487508D01*
X23437889Y-23548662D01*
X23539584Y-23590786D01*
X23647543Y-23612260D01*
X23757617Y-23612260D01*
X23865576Y-23590786D01*
X23967271Y-23548662D01*
X24058794Y-23487508D01*
X24136628Y-23409674D01*
X24197782Y-23318151D01*
X24239906Y-23216456D01*
X24261380Y-23108497D01*
X24261380Y-22998423D01*
X24239906Y-22890464D01*
X24197782Y-22788769D01*
X24136628Y-22697246D01*
X24058794Y-22619412D01*
X23968686Y-22559204D01*
X24033394Y-22515967D01*
X24111228Y-22438133D01*
X24172382Y-22346610D01*
X24214506Y-22244915D01*
X24235980Y-22136956D01*
X24235980Y-22026882D01*
X24214506Y-21918923D01*
X24172382Y-21817228D01*
X24111228Y-21725705D01*
X24033394Y-21647871D01*
X23941871Y-21586717D01*
X23840176Y-21544593D01*
X23732217Y-21523119D01*
X23622143Y-21523119D01*
X23514184Y-21544593D01*
X23412489Y-21586717D01*
X23320966Y-21647871D01*
X23243132Y-21725705D01*
X23181978Y-21817228D01*
X23156314Y-21879186D01*
X23123199Y-21829627D01*
X23038790Y-21745218D01*
X22939537Y-21678899D01*
X22829252Y-21633217D01*
X22712174Y-21609929D01*
X22592802Y-21609929D01*
X22527695Y-21622879D01*
X22526010Y-21618811D01*
X22459691Y-21519558D01*
X22375282Y-21435149D01*
X22276029Y-21368830D01*
X22165744Y-21323148D01*
X22048666Y-21299860D01*
X21929294Y-21299860D01*
X21812216Y-21323148D01*
X21701931Y-21368830D01*
X21602678Y-21435149D01*
X21518269Y-21519558D01*
X21451950Y-21618811D01*
X21406268Y-21729096D01*
X21390601Y-21807860D01*
X21345094Y-21807860D01*
X21327380Y-21811383D01*
X21327380Y-20073460D01*
X21439066Y-20073460D01*
X21556144Y-20050172D01*
X21666429Y-20004490D01*
X21765682Y-19938171D01*
X21850091Y-19853762D01*
X21916410Y-19754509D01*
X21962092Y-19644224D01*
X21967654Y-19616260D01*
X22043380Y-19616260D01*
X22043380Y-19654146D01*
X22066668Y-19771224D01*
X22112350Y-19881509D01*
X22178669Y-19980762D01*
X22263078Y-20065171D01*
X22362331Y-20131490D01*
X22472616Y-20177172D01*
X22589694Y-20200460D01*
X22709066Y-20200460D01*
X22826144Y-20177172D01*
X22936429Y-20131490D01*
X23035682Y-20065171D01*
X23120091Y-19980762D01*
X23186410Y-19881509D01*
X23232092Y-19771224D01*
X23255380Y-19654146D01*
X23255380Y-19534774D01*
X23232092Y-19417696D01*
X23186410Y-19307411D01*
X23120091Y-19208158D01*
X23035682Y-19123749D01*
X22936429Y-19057430D01*
X22826144Y-19011748D01*
X22709066Y-18988460D01*
X22594980Y-18988460D01*
X22594980Y-18950574D01*
X22576300Y-18856660D01*
X23521866Y-18856660D01*
X23521866Y-19902860D01*
X23402494Y-19902860D01*
X23285416Y-19926148D01*
X23175131Y-19971830D01*
X23075878Y-20038149D01*
X22991469Y-20122558D01*
X22925150Y-20221811D01*
X22879468Y-20332096D01*
X22856180Y-20449174D01*
X22856180Y-20568546D01*
X22879468Y-20685624D01*
X22925150Y-20795909D01*
X22991469Y-20895162D01*
X23075878Y-20979571D01*
X23175131Y-21045890D01*
X23285416Y-21091572D01*
X23402494Y-21114860D01*
X23521866Y-21114860D01*
X23638944Y-21091572D01*
X23749229Y-21045890D01*
X23848482Y-20979571D01*
X23932891Y-20895162D01*
X23999210Y-20795909D01*
X24044892Y-20685624D01*
X24068180Y-20568546D01*
X24068180Y-20449174D01*
X24044892Y-20332096D01*
X23999210Y-20221811D01*
X23932891Y-20122558D01*
X23848482Y-20038149D01*
X23749229Y-19971830D01*
X23638944Y-19926148D01*
X23521866Y-19902860D01*
X23521866Y-18856660D01*
X24236356Y-18856660D01*
X24227780Y-18899774D01*
X24227780Y-18975733D01*
X24174416Y-18986348D01*
X24064131Y-19032030D01*
X23964878Y-19098349D01*
X23880469Y-19182758D01*
X23814150Y-19282011D01*
X23768468Y-19392296D01*
X23745180Y-19509374D01*
X23745180Y-19628746D01*
X23768468Y-19745824D01*
X23814150Y-19856109D01*
X23880469Y-19955362D01*
X23964878Y-20039771D01*
X24064131Y-20106090D01*
X24174416Y-20151772D01*
X24291494Y-20175060D01*
X24410866Y-20175060D01*
X24527944Y-20151772D01*
X24638229Y-20106090D01*
X24737482Y-20039771D01*
X24821891Y-19955362D01*
X24833771Y-19937582D01*
X24845652Y-19955362D01*
X24930061Y-20039771D01*
X25029314Y-20106090D01*
X25139599Y-20151772D01*
X25237865Y-20171318D01*
X25181795Y-20208783D01*
X25103961Y-20286617D01*
X25042807Y-20378140D01*
X25000683Y-20479835D01*
X24979209Y-20587794D01*
X24979209Y-20697868D01*
X25000683Y-20805827D01*
X25042807Y-20907522D01*
X25103961Y-20999045D01*
X25181795Y-21076879D01*
X25273318Y-21138033D01*
X25375013Y-21180157D01*
X25482972Y-21201631D01*
X25593046Y-21201631D01*
X25701005Y-21180157D01*
X25802700Y-21138033D01*
X25894223Y-21076879D01*
X25972057Y-20999045D01*
X26033211Y-20907522D01*
X26075335Y-20805827D01*
X26096809Y-20697868D01*
X26096809Y-20587794D01*
X26075335Y-20479835D01*
X26033211Y-20378140D01*
X25972057Y-20286617D01*
X25894223Y-20208783D01*
X25802700Y-20147629D01*
X25701005Y-20105505D01*
X25626474Y-20090680D01*
X25702665Y-20039771D01*
X25787074Y-19955362D01*
X25853393Y-19856109D01*
X25899075Y-19745824D01*
X25922363Y-19628746D01*
X25922363Y-19552790D01*
X25975744Y-19542172D01*
X26086029Y-19496490D01*
X26185282Y-19430171D01*
X26269691Y-19345762D01*
X26281580Y-19327969D01*
X26293469Y-19345762D01*
X26377878Y-19430171D01*
X26477131Y-19496490D01*
X26587416Y-19542172D01*
X26704494Y-19565460D01*
X26823866Y-19565460D01*
X26940944Y-19542172D01*
X27051229Y-19496490D01*
X27150482Y-19430171D01*
X27234891Y-19345762D01*
X27301210Y-19246509D01*
X27346892Y-19136224D01*
X27370180Y-19019146D01*
X27370180Y-18899774D01*
X27361604Y-18856660D01*
X27636358Y-18856660D01*
X27603868Y-18935096D01*
X27580580Y-19052174D01*
X27580580Y-19171546D01*
X27603868Y-19288624D01*
X27649550Y-19398909D01*
X27708054Y-19486467D01*
X27674950Y-19536011D01*
X27629268Y-19646296D01*
X27605980Y-19763374D01*
X27605980Y-19882746D01*
X27629268Y-19999824D01*
X27674950Y-20110109D01*
X27711220Y-20164390D01*
X27686750Y-20201011D01*
X27641068Y-20311296D01*
X27617780Y-20428374D01*
X27617780Y-20547746D01*
X27641068Y-20664824D01*
X27686750Y-20775109D01*
X27753069Y-20874362D01*
X27837478Y-20958771D01*
X27893285Y-20996060D01*
X27889343Y-20996060D01*
X27781384Y-21017534D01*
X27679689Y-21059658D01*
X27588166Y-21120812D01*
X27510332Y-21198646D01*
X27449178Y-21290169D01*
X27407054Y-21391864D01*
X27385580Y-21499823D01*
X27385580Y-21609897D01*
X27407054Y-21717856D01*
X27449178Y-21819551D01*
X27510332Y-21911074D01*
X27588166Y-21988908D01*
X27679689Y-22050062D01*
X27781384Y-22092186D01*
X27889343Y-22113660D01*
X27999417Y-22113660D01*
X28107376Y-22092186D01*
X28209071Y-22050062D01*
X28300594Y-21988908D01*
X28364380Y-21925122D01*
X28364380Y-24427345D01*
X28347866Y-24424060D01*
X28347866Y-24424060D01*
G37*
X28347866Y-24424060D02*
X28228494Y-24424060D01*
X28111416Y-24447348D01*
X28001131Y-24493030D01*
X27901878Y-24559349D01*
X27817469Y-24643758D01*
X27751150Y-24743011D01*
X27735497Y-24780800D01*
X27714576Y-24772134D01*
X27606617Y-24750660D01*
X27574147Y-24750660D01*
X27550582Y-24693769D01*
X27489428Y-24602246D01*
X27411594Y-24524412D01*
X27320071Y-24463258D01*
X27218376Y-24421134D01*
X27110417Y-24399660D01*
X27000343Y-24399660D01*
X26892384Y-24421134D01*
X26790689Y-24463258D01*
X26699166Y-24524412D01*
X26621332Y-24602246D01*
X26593997Y-24643155D01*
X26593064Y-24638464D01*
X26550940Y-24536769D01*
X26489786Y-24445246D01*
X26411952Y-24367412D01*
X26320429Y-24306258D01*
X26218734Y-24264134D01*
X26110775Y-24242660D01*
X26000701Y-24242660D01*
X25892742Y-24264134D01*
X25791047Y-24306258D01*
X25699524Y-24367412D01*
X25621690Y-24445246D01*
X25590350Y-24492150D01*
X25501743Y-24492150D01*
X25393784Y-24513624D01*
X25292089Y-24555748D01*
X25200566Y-24616902D01*
X25122732Y-24694736D01*
X25061578Y-24786259D01*
X25019454Y-24887954D01*
X24997980Y-24995913D01*
X24997980Y-25105987D01*
X25019454Y-25213946D01*
X25061578Y-25315641D01*
X25108363Y-25385660D01*
X24038299Y-25385660D01*
X24070292Y-25308424D01*
X24093580Y-25191346D01*
X24093580Y-25071974D01*
X24070292Y-24954896D01*
X24024610Y-24844611D01*
X23958291Y-24745358D01*
X23873882Y-24660949D01*
X23774629Y-24594630D01*
X23664344Y-24548948D01*
X23547266Y-24525660D01*
X23427894Y-24525660D01*
X23310816Y-24548948D01*
X23229540Y-24582614D01*
X23211810Y-24539809D01*
X23145491Y-24440556D01*
X23061082Y-24356147D01*
X22961829Y-24289828D01*
X22851544Y-24244146D01*
X22734466Y-24220858D01*
X22615094Y-24220858D01*
X22498016Y-24244146D01*
X22387731Y-24289828D01*
X22288478Y-24356147D01*
X22204069Y-24440556D01*
X22137750Y-24539809D01*
X22092068Y-24650094D01*
X22068780Y-24767172D01*
X22068780Y-24886544D01*
X22092068Y-25003622D01*
X22137750Y-25113907D01*
X22204069Y-25213160D01*
X22288478Y-25297569D01*
X22387731Y-25363888D01*
X22440293Y-25385660D01*
X21327380Y-25385660D01*
X21327380Y-23016337D01*
X21345094Y-23019860D01*
X21464466Y-23019860D01*
X21581544Y-22996572D01*
X21691829Y-22950890D01*
X21791082Y-22884571D01*
X21875491Y-22800162D01*
X21941810Y-22700909D01*
X21987492Y-22590624D01*
X22003159Y-22511860D01*
X22048666Y-22511860D01*
X22113773Y-22498910D01*
X22115458Y-22502978D01*
X22181777Y-22602231D01*
X22266186Y-22686640D01*
X22365439Y-22752959D01*
X22475724Y-22798641D01*
X22592802Y-22821929D01*
X22712174Y-22821929D01*
X22829252Y-22798641D01*
X22939537Y-22752959D01*
X23038790Y-22686640D01*
X23123199Y-22602231D01*
X23189518Y-22502978D01*
X23226616Y-22413416D01*
X23243132Y-22438133D01*
X23320966Y-22515967D01*
X23411074Y-22576175D01*
X23346366Y-22619412D01*
X23268532Y-22697246D01*
X23207378Y-22788769D01*
X23165254Y-22890464D01*
X23143780Y-22998423D01*
X23143780Y-23108497D01*
X23165254Y-23216456D01*
X23207378Y-23318151D01*
X23268532Y-23409674D01*
X23346366Y-23487508D01*
X23437889Y-23548662D01*
X23539584Y-23590786D01*
X23647543Y-23612260D01*
X23757617Y-23612260D01*
X23865576Y-23590786D01*
X23967271Y-23548662D01*
X24058794Y-23487508D01*
X24136628Y-23409674D01*
X24197782Y-23318151D01*
X24239906Y-23216456D01*
X24261380Y-23108497D01*
X24261380Y-22998423D01*
X24239906Y-22890464D01*
X24197782Y-22788769D01*
X24136628Y-22697246D01*
X24058794Y-22619412D01*
X23968686Y-22559204D01*
X24033394Y-22515967D01*
X24111228Y-22438133D01*
X24172382Y-22346610D01*
X24214506Y-22244915D01*
X24235980Y-22136956D01*
X24235980Y-22026882D01*
X24214506Y-21918923D01*
X24172382Y-21817228D01*
X24111228Y-21725705D01*
X24033394Y-21647871D01*
X23941871Y-21586717D01*
X23840176Y-21544593D01*
X23732217Y-21523119D01*
X23622143Y-21523119D01*
X23514184Y-21544593D01*
X23412489Y-21586717D01*
X23320966Y-21647871D01*
X23243132Y-21725705D01*
X23181978Y-21817228D01*
X23156314Y-21879186D01*
X23123199Y-21829627D01*
X23038790Y-21745218D01*
X22939537Y-21678899D01*
X22829252Y-21633217D01*
X22712174Y-21609929D01*
X22592802Y-21609929D01*
X22527695Y-21622879D01*
X22526010Y-21618811D01*
X22459691Y-21519558D01*
X22375282Y-21435149D01*
X22276029Y-21368830D01*
X22165744Y-21323148D01*
X22048666Y-21299860D01*
X21929294Y-21299860D01*
X21812216Y-21323148D01*
X21701931Y-21368830D01*
X21602678Y-21435149D01*
X21518269Y-21519558D01*
X21451950Y-21618811D01*
X21406268Y-21729096D01*
X21390601Y-21807860D01*
X21345094Y-21807860D01*
X21327380Y-21811383D01*
X21327380Y-20073460D01*
X21439066Y-20073460D01*
X21556144Y-20050172D01*
X21666429Y-20004490D01*
X21765682Y-19938171D01*
X21850091Y-19853762D01*
X21916410Y-19754509D01*
X21962092Y-19644224D01*
X21967654Y-19616260D01*
X22043380Y-19616260D01*
X22043380Y-19654146D01*
X22066668Y-19771224D01*
X22112350Y-19881509D01*
X22178669Y-19980762D01*
X22263078Y-20065171D01*
X22362331Y-20131490D01*
X22472616Y-20177172D01*
X22589694Y-20200460D01*
X22709066Y-20200460D01*
X22826144Y-20177172D01*
X22936429Y-20131490D01*
X23035682Y-20065171D01*
X23120091Y-19980762D01*
X23186410Y-19881509D01*
X23232092Y-19771224D01*
X23255380Y-19654146D01*
X23255380Y-19534774D01*
X23232092Y-19417696D01*
X23186410Y-19307411D01*
X23120091Y-19208158D01*
X23035682Y-19123749D01*
X22936429Y-19057430D01*
X22826144Y-19011748D01*
X22709066Y-18988460D01*
X22594980Y-18988460D01*
X22594980Y-18950574D01*
X22576300Y-18856660D01*
X23521866Y-18856660D01*
X23521866Y-19902860D01*
X23402494Y-19902860D01*
X23285416Y-19926148D01*
X23175131Y-19971830D01*
X23075878Y-20038149D01*
X22991469Y-20122558D01*
X22925150Y-20221811D01*
X22879468Y-20332096D01*
X22856180Y-20449174D01*
X22856180Y-20568546D01*
X22879468Y-20685624D01*
X22925150Y-20795909D01*
X22991469Y-20895162D01*
X23075878Y-20979571D01*
X23175131Y-21045890D01*
X23285416Y-21091572D01*
X23402494Y-21114860D01*
X23521866Y-21114860D01*
X23638944Y-21091572D01*
X23749229Y-21045890D01*
X23848482Y-20979571D01*
X23932891Y-20895162D01*
X23999210Y-20795909D01*
X24044892Y-20685624D01*
X24068180Y-20568546D01*
X24068180Y-20449174D01*
X24044892Y-20332096D01*
X23999210Y-20221811D01*
X23932891Y-20122558D01*
X23848482Y-20038149D01*
X23749229Y-19971830D01*
X23638944Y-19926148D01*
X23521866Y-19902860D01*
X23521866Y-18856660D01*
X24236356Y-18856660D01*
X24227780Y-18899774D01*
X24227780Y-18975733D01*
X24174416Y-18986348D01*
X24064131Y-19032030D01*
X23964878Y-19098349D01*
X23880469Y-19182758D01*
X23814150Y-19282011D01*
X23768468Y-19392296D01*
X23745180Y-19509374D01*
X23745180Y-19628746D01*
X23768468Y-19745824D01*
X23814150Y-19856109D01*
X23880469Y-19955362D01*
X23964878Y-20039771D01*
X24064131Y-20106090D01*
X24174416Y-20151772D01*
X24291494Y-20175060D01*
X24410866Y-20175060D01*
X24527944Y-20151772D01*
X24638229Y-20106090D01*
X24737482Y-20039771D01*
X24821891Y-19955362D01*
X24833771Y-19937582D01*
X24845652Y-19955362D01*
X24930061Y-20039771D01*
X25029314Y-20106090D01*
X25139599Y-20151772D01*
X25237865Y-20171318D01*
X25181795Y-20208783D01*
X25103961Y-20286617D01*
X25042807Y-20378140D01*
X25000683Y-20479835D01*
X24979209Y-20587794D01*
X24979209Y-20697868D01*
X25000683Y-20805827D01*
X25042807Y-20907522D01*
X25103961Y-20999045D01*
X25181795Y-21076879D01*
X25273318Y-21138033D01*
X25375013Y-21180157D01*
X25482972Y-21201631D01*
X25593046Y-21201631D01*
X25701005Y-21180157D01*
X25802700Y-21138033D01*
X25894223Y-21076879D01*
X25972057Y-20999045D01*
X26033211Y-20907522D01*
X26075335Y-20805827D01*
X26096809Y-20697868D01*
X26096809Y-20587794D01*
X26075335Y-20479835D01*
X26033211Y-20378140D01*
X25972057Y-20286617D01*
X25894223Y-20208783D01*
X25802700Y-20147629D01*
X25701005Y-20105505D01*
X25626474Y-20090680D01*
X25702665Y-20039771D01*
X25787074Y-19955362D01*
X25853393Y-19856109D01*
X25899075Y-19745824D01*
X25922363Y-19628746D01*
X25922363Y-19552790D01*
X25975744Y-19542172D01*
X26086029Y-19496490D01*
X26185282Y-19430171D01*
X26269691Y-19345762D01*
X26281580Y-19327969D01*
X26293469Y-19345762D01*
X26377878Y-19430171D01*
X26477131Y-19496490D01*
X26587416Y-19542172D01*
X26704494Y-19565460D01*
X26823866Y-19565460D01*
X26940944Y-19542172D01*
X27051229Y-19496490D01*
X27150482Y-19430171D01*
X27234891Y-19345762D01*
X27301210Y-19246509D01*
X27346892Y-19136224D01*
X27370180Y-19019146D01*
X27370180Y-18899774D01*
X27361604Y-18856660D01*
X27636358Y-18856660D01*
X27603868Y-18935096D01*
X27580580Y-19052174D01*
X27580580Y-19171546D01*
X27603868Y-19288624D01*
X27649550Y-19398909D01*
X27708054Y-19486467D01*
X27674950Y-19536011D01*
X27629268Y-19646296D01*
X27605980Y-19763374D01*
X27605980Y-19882746D01*
X27629268Y-19999824D01*
X27674950Y-20110109D01*
X27711220Y-20164390D01*
X27686750Y-20201011D01*
X27641068Y-20311296D01*
X27617780Y-20428374D01*
X27617780Y-20547746D01*
X27641068Y-20664824D01*
X27686750Y-20775109D01*
X27753069Y-20874362D01*
X27837478Y-20958771D01*
X27893285Y-20996060D01*
X27889343Y-20996060D01*
X27781384Y-21017534D01*
X27679689Y-21059658D01*
X27588166Y-21120812D01*
X27510332Y-21198646D01*
X27449178Y-21290169D01*
X27407054Y-21391864D01*
X27385580Y-21499823D01*
X27385580Y-21609897D01*
X27407054Y-21717856D01*
X27449178Y-21819551D01*
X27510332Y-21911074D01*
X27588166Y-21988908D01*
X27679689Y-22050062D01*
X27781384Y-22092186D01*
X27889343Y-22113660D01*
X27999417Y-22113660D01*
X28107376Y-22092186D01*
X28209071Y-22050062D01*
X28300594Y-21988908D01*
X28364380Y-21925122D01*
X28364380Y-24427345D01*
X28347866Y-24424060D01*
D17*
G36*
X4450320Y-40553640D02*
G01*
X4450320Y-39271876D01*
X4455670Y-39275451D01*
X4536564Y-39308958D01*
X4622441Y-39326040D01*
X4709999Y-39326040D01*
X4795876Y-39308958D01*
X4820366Y-39298814D01*
X4816080Y-39320361D01*
X4816080Y-39407919D01*
X4833162Y-39493796D01*
X4866669Y-39574690D01*
X4915314Y-39647492D01*
X4977228Y-39709406D01*
X5050030Y-39758051D01*
X5130924Y-39791558D01*
X5216801Y-39808640D01*
X5304359Y-39808640D01*
X5390236Y-39791558D01*
X5471130Y-39758051D01*
X5543932Y-39709406D01*
X5605846Y-39647492D01*
X5654491Y-39574690D01*
X5687998Y-39493796D01*
X5702927Y-39418745D01*
X5763740Y-39443934D01*
X5849617Y-39461016D01*
X5937175Y-39461016D01*
X6023052Y-39443934D01*
X6103946Y-39410427D01*
X6176748Y-39361782D01*
X6238662Y-39299868D01*
X6287307Y-39227066D01*
X6320814Y-39146172D01*
X6337896Y-39060295D01*
X6337896Y-38972737D01*
X6320814Y-38886860D01*
X6287307Y-38805966D01*
X6238662Y-38733164D01*
X6176748Y-38671250D01*
X6103946Y-38622605D01*
X6023052Y-38589098D01*
X5937175Y-38572016D01*
X5849617Y-38572016D01*
X5763740Y-38589098D01*
X5682846Y-38622605D01*
X5610044Y-38671250D01*
X5548130Y-38733164D01*
X5499485Y-38805966D01*
X5465978Y-38886860D01*
X5451049Y-38961911D01*
X5390236Y-38936722D01*
X5304359Y-38919640D01*
X5216801Y-38919640D01*
X5130924Y-38936722D01*
X5106434Y-38946866D01*
X5110720Y-38925319D01*
X5110720Y-38837761D01*
X5093638Y-38751884D01*
X5060131Y-38670990D01*
X5011486Y-38598188D01*
X4949572Y-38536274D01*
X4876770Y-38487629D01*
X4795876Y-38454122D01*
X4709999Y-38437040D01*
X4622441Y-38437040D01*
X4536564Y-38454122D01*
X4455670Y-38487629D01*
X4450320Y-38491204D01*
X4450320Y-38310756D01*
X4523864Y-38341219D01*
X4609741Y-38358301D01*
X4697299Y-38358301D01*
X4783176Y-38341219D01*
X4864070Y-38307712D01*
X4936872Y-38259067D01*
X4998786Y-38197153D01*
X5047431Y-38124351D01*
X5080938Y-38043457D01*
X5098020Y-37957580D01*
X5098020Y-37912486D01*
X5181241Y-37929040D01*
X5268799Y-37929040D01*
X5354676Y-37911958D01*
X5435570Y-37878451D01*
X5508372Y-37829806D01*
X5570286Y-37767892D01*
X5618931Y-37695090D01*
X5652438Y-37614196D01*
X5669520Y-37528319D01*
X5669520Y-37440761D01*
X5652438Y-37354884D01*
X5618931Y-37273990D01*
X5570286Y-37201188D01*
X5508372Y-37139274D01*
X5435570Y-37090629D01*
X5354676Y-37057122D01*
X5268799Y-37040040D01*
X5181241Y-37040040D01*
X5095364Y-37057122D01*
X5014470Y-37090629D01*
X4941668Y-37139274D01*
X4879754Y-37201188D01*
X4831109Y-37273990D01*
X4797602Y-37354884D01*
X4780520Y-37440761D01*
X4780520Y-37485855D01*
X4697299Y-37469301D01*
X4609741Y-37469301D01*
X4523864Y-37486383D01*
X4450320Y-37516846D01*
X4450320Y-36134942D01*
X4478530Y-36153791D01*
X4559424Y-36187298D01*
X4645301Y-36204380D01*
X4732859Y-36204380D01*
X4818736Y-36187298D01*
X4899630Y-36153791D01*
X4972432Y-36105146D01*
X5034346Y-36043232D01*
X5082991Y-35970430D01*
X5116498Y-35889536D01*
X5133580Y-35803659D01*
X5133580Y-35716101D01*
X5116498Y-35630224D01*
X5082991Y-35549330D01*
X5034346Y-35476528D01*
X4972432Y-35414614D01*
X4899630Y-35365969D01*
X4818736Y-35332462D01*
X4732859Y-35315380D01*
X4645301Y-35315380D01*
X4559424Y-35332462D01*
X4478530Y-35365969D01*
X4450320Y-35384818D01*
X4450320Y-32239440D01*
X5184616Y-32239440D01*
X5170987Y-32272344D01*
X5153905Y-32358221D01*
X5153905Y-32445779D01*
X5170987Y-32531656D01*
X5188010Y-32572754D01*
X5159584Y-32567100D01*
X5072026Y-32567100D01*
X4986149Y-32584182D01*
X4905255Y-32617689D01*
X4832453Y-32666334D01*
X4770539Y-32728248D01*
X4721894Y-32801050D01*
X4688387Y-32881944D01*
X4671305Y-32967821D01*
X4671305Y-33055379D01*
X4688387Y-33141256D01*
X4721894Y-33222150D01*
X4770539Y-33294952D01*
X4832453Y-33356866D01*
X4905255Y-33405511D01*
X4986149Y-33439018D01*
X5072026Y-33456100D01*
X5159584Y-33456100D01*
X5245461Y-33439018D01*
X5326355Y-33405511D01*
X5399157Y-33356866D01*
X5461071Y-33294952D01*
X5509716Y-33222150D01*
X5543223Y-33141256D01*
X5560305Y-33055379D01*
X5560305Y-32967821D01*
X5543223Y-32881944D01*
X5526200Y-32840846D01*
X5554626Y-32846500D01*
X5642184Y-32846500D01*
X5675412Y-32839891D01*
X5661109Y-32874421D01*
X5644027Y-32960298D01*
X5644027Y-33047856D01*
X5661109Y-33133733D01*
X5694616Y-33214627D01*
X5743261Y-33287429D01*
X5805175Y-33349343D01*
X5877977Y-33397988D01*
X5958871Y-33431495D01*
X6044748Y-33448577D01*
X6132306Y-33448577D01*
X6218183Y-33431495D01*
X6299077Y-33397988D01*
X6371879Y-33349343D01*
X6433793Y-33287429D01*
X6456779Y-33253029D01*
X6456779Y-34500100D01*
X6369221Y-34500100D01*
X6283344Y-34517182D01*
X6202450Y-34550689D01*
X6129648Y-34599334D01*
X6067734Y-34661248D01*
X6019089Y-34734050D01*
X5985582Y-34814944D01*
X5968500Y-34900821D01*
X5968500Y-34988379D01*
X5985582Y-35074256D01*
X6019089Y-35155150D01*
X6045449Y-35194600D01*
X6019089Y-35234050D01*
X5985582Y-35314944D01*
X5968500Y-35400821D01*
X5968500Y-35488379D01*
X5985582Y-35574256D01*
X6019089Y-35655150D01*
X6045449Y-35694600D01*
X6019089Y-35734050D01*
X5985582Y-35814944D01*
X5968500Y-35900821D01*
X5968500Y-35988379D01*
X5985582Y-36074256D01*
X6019089Y-36155150D01*
X6045449Y-36194600D01*
X6019089Y-36234050D01*
X5985582Y-36314944D01*
X5968500Y-36400821D01*
X5968500Y-36488379D01*
X5985582Y-36574256D01*
X6019089Y-36655150D01*
X6045449Y-36694600D01*
X6019089Y-36734050D01*
X5985582Y-36814944D01*
X5968500Y-36900821D01*
X5968500Y-36988379D01*
X5985582Y-37074256D01*
X6019089Y-37155150D01*
X6067734Y-37227952D01*
X6129648Y-37289866D01*
X6202450Y-37338511D01*
X6283344Y-37372018D01*
X6369221Y-37389100D01*
X6456779Y-37389100D01*
X6542656Y-37372018D01*
X6623550Y-37338511D01*
X6696352Y-37289866D01*
X6758266Y-37227952D01*
X6806911Y-37155150D01*
X6840418Y-37074256D01*
X6857500Y-36988379D01*
X6857500Y-36900821D01*
X6840418Y-36814944D01*
X6806911Y-36734050D01*
X6780551Y-36694600D01*
X6806911Y-36655150D01*
X6840418Y-36574256D01*
X6857500Y-36488379D01*
X6857500Y-36400821D01*
X6840418Y-36314944D01*
X6806911Y-36234050D01*
X6780551Y-36194600D01*
X6806911Y-36155150D01*
X6840418Y-36074256D01*
X6857500Y-35988379D01*
X6857500Y-35900821D01*
X6840418Y-35814944D01*
X6806911Y-35734050D01*
X6780551Y-35694600D01*
X6806911Y-35655150D01*
X6840418Y-35574256D01*
X6857500Y-35488379D01*
X6857500Y-35400821D01*
X6840418Y-35314944D01*
X6806911Y-35234050D01*
X6780551Y-35194600D01*
X6806911Y-35155150D01*
X6840418Y-35074256D01*
X6857500Y-34988379D01*
X6857500Y-34900821D01*
X6840418Y-34814944D01*
X6806911Y-34734050D01*
X6758266Y-34661248D01*
X6696352Y-34599334D01*
X6623550Y-34550689D01*
X6542656Y-34517182D01*
X6456779Y-34500100D01*
X6456779Y-33253029D01*
X6482438Y-33214627D01*
X6515945Y-33133733D01*
X6533027Y-33047856D01*
X6533027Y-32960298D01*
X6515945Y-32874421D01*
X6502993Y-32843152D01*
X6519825Y-32846500D01*
X6607383Y-32846500D01*
X6635808Y-32840846D01*
X6618785Y-32881944D01*
X6601703Y-32967821D01*
X6601703Y-33055379D01*
X6618785Y-33141256D01*
X6652292Y-33222150D01*
X6700937Y-33294952D01*
X6762851Y-33356866D01*
X6835653Y-33405511D01*
X6916547Y-33439018D01*
X7002424Y-33456100D01*
X7089982Y-33456100D01*
X7175859Y-33439018D01*
X7256753Y-33405511D01*
X7329555Y-33356866D01*
X7391469Y-33294952D01*
X7440114Y-33222150D01*
X7473621Y-33141256D01*
X7490703Y-33055379D01*
X7490703Y-32967821D01*
X7473621Y-32881944D01*
X7456598Y-32840846D01*
X7485024Y-32846500D01*
X7544639Y-32846500D01*
X7544639Y-38584360D01*
X7457081Y-38584360D01*
X7371204Y-38601442D01*
X7290310Y-38634949D01*
X7244968Y-38665246D01*
X7211030Y-38642569D01*
X7130136Y-38609062D01*
X7044259Y-38591980D01*
X6956701Y-38591980D01*
X6870824Y-38609062D01*
X6789930Y-38642569D01*
X6717128Y-38691214D01*
X6655214Y-38753128D01*
X6606569Y-38825930D01*
X6573062Y-38906824D01*
X6555980Y-38992701D01*
X6555980Y-39080259D01*
X6573062Y-39166136D01*
X6606569Y-39247030D01*
X6655214Y-39319832D01*
X6717128Y-39381746D01*
X6789930Y-39430391D01*
X6870824Y-39463898D01*
X6956701Y-39480980D01*
X7044259Y-39480980D01*
X7130136Y-39463898D01*
X7211030Y-39430391D01*
X7256372Y-39400094D01*
X7290310Y-39422771D01*
X7371204Y-39456278D01*
X7457081Y-39473360D01*
X7544639Y-39473360D01*
X7630516Y-39456278D01*
X7711410Y-39422771D01*
X7748876Y-39397737D01*
X7787450Y-39423511D01*
X7868344Y-39457018D01*
X7954221Y-39474100D01*
X8041779Y-39474100D01*
X8127656Y-39457018D01*
X8208550Y-39423511D01*
X8248000Y-39397151D01*
X8287450Y-39423511D01*
X8368344Y-39457018D01*
X8454221Y-39474100D01*
X8541779Y-39474100D01*
X8627656Y-39457018D01*
X8708550Y-39423511D01*
X8748000Y-39397151D01*
X8787450Y-39423511D01*
X8868344Y-39457018D01*
X8954221Y-39474100D01*
X9041779Y-39474100D01*
X9127656Y-39457018D01*
X9208550Y-39423511D01*
X9248000Y-39397151D01*
X9287450Y-39423511D01*
X9368344Y-39457018D01*
X9454221Y-39474100D01*
X9541779Y-39474100D01*
X9627656Y-39457018D01*
X9708550Y-39423511D01*
X9781352Y-39374866D01*
X9843266Y-39312952D01*
X9891911Y-39240150D01*
X9925418Y-39159256D01*
X9942500Y-39073379D01*
X9942500Y-38985821D01*
X9925418Y-38899944D01*
X9891911Y-38819050D01*
X9843266Y-38746248D01*
X9781352Y-38684334D01*
X9708550Y-38635689D01*
X9627656Y-38602182D01*
X9541779Y-38585100D01*
X9454221Y-38585100D01*
X9368344Y-38602182D01*
X9287450Y-38635689D01*
X9248000Y-38662049D01*
X9208550Y-38635689D01*
X9127656Y-38602182D01*
X9041779Y-38585100D01*
X8954221Y-38585100D01*
X8868344Y-38602182D01*
X8787450Y-38635689D01*
X8748000Y-38662049D01*
X8708550Y-38635689D01*
X8627656Y-38602182D01*
X8541779Y-38585100D01*
X8454221Y-38585100D01*
X8368344Y-38602182D01*
X8287450Y-38635689D01*
X8248000Y-38662049D01*
X8208550Y-38635689D01*
X8127656Y-38602182D01*
X8041779Y-38585100D01*
X7954221Y-38585100D01*
X7868344Y-38602182D01*
X7787450Y-38635689D01*
X7749984Y-38660723D01*
X7711410Y-38634949D01*
X7630516Y-38601442D01*
X7544639Y-38584360D01*
X7544639Y-32846500D01*
X7572582Y-32846500D01*
X7658459Y-32829418D01*
X7739353Y-32795911D01*
X7812155Y-32747266D01*
X7874069Y-32685352D01*
X7922714Y-32612550D01*
X7956221Y-32531656D01*
X7973303Y-32445779D01*
X7973303Y-32358221D01*
X7956221Y-32272344D01*
X7942592Y-32239440D01*
X9010219Y-32239440D01*
X9010219Y-32574720D01*
X8922661Y-32574720D01*
X8836784Y-32591802D01*
X8755890Y-32625309D01*
X8683088Y-32673954D01*
X8621174Y-32735868D01*
X8572529Y-32808670D01*
X8539022Y-32889564D01*
X8521940Y-32975441D01*
X8521940Y-33062999D01*
X8539022Y-33148876D01*
X8572529Y-33229770D01*
X8621174Y-33302572D01*
X8683088Y-33364486D01*
X8755890Y-33413131D01*
X8836784Y-33446638D01*
X8922661Y-33463720D01*
X9010219Y-33463720D01*
X9041779Y-33457443D01*
X9041779Y-33918389D01*
X8954221Y-33918389D01*
X8868344Y-33935471D01*
X8787450Y-33968978D01*
X8714648Y-34017623D01*
X8652734Y-34079537D01*
X8604089Y-34152339D01*
X8570582Y-34233233D01*
X8553500Y-34319110D01*
X8553500Y-34406668D01*
X8570582Y-34492545D01*
X8604089Y-34573439D01*
X8652734Y-34646241D01*
X8714648Y-34708155D01*
X8787450Y-34756800D01*
X8868344Y-34790307D01*
X8954221Y-34807389D01*
X9041779Y-34807389D01*
X9127656Y-34790307D01*
X9208550Y-34756800D01*
X9281352Y-34708155D01*
X9343266Y-34646241D01*
X9391911Y-34573439D01*
X9425418Y-34492545D01*
X9442500Y-34406668D01*
X9442500Y-34319110D01*
X9425418Y-34233233D01*
X9391911Y-34152339D01*
X9343266Y-34079537D01*
X9281352Y-34017623D01*
X9208550Y-33968978D01*
X9127656Y-33935471D01*
X9041779Y-33918389D01*
X9041779Y-33457443D01*
X9096096Y-33446638D01*
X9176990Y-33413131D01*
X9249792Y-33364486D01*
X9311706Y-33302572D01*
X9360351Y-33229770D01*
X9393858Y-33148876D01*
X9410940Y-33062999D01*
X9410940Y-32975441D01*
X9393858Y-32889564D01*
X9360351Y-32808670D01*
X9311706Y-32735868D01*
X9249792Y-32673954D01*
X9176990Y-32625309D01*
X9096096Y-32591802D01*
X9010219Y-32574720D01*
X9010219Y-32239440D01*
X10016743Y-32239440D01*
X10002062Y-32274884D01*
X9984980Y-32360761D01*
X9984980Y-32448319D01*
X10002062Y-32534196D01*
X10015177Y-32565859D01*
X9970339Y-32556940D01*
X9882781Y-32556940D01*
X9796904Y-32574022D01*
X9716010Y-32607529D01*
X9643208Y-32656174D01*
X9581294Y-32718088D01*
X9532649Y-32790890D01*
X9499142Y-32871784D01*
X9482060Y-32957661D01*
X9482060Y-33045219D01*
X9499142Y-33131096D01*
X9532649Y-33211990D01*
X9581294Y-33284792D01*
X9643208Y-33346706D01*
X9716010Y-33395351D01*
X9796904Y-33428858D01*
X9882781Y-33445940D01*
X9970339Y-33445940D01*
X10056216Y-33428858D01*
X10137110Y-33395351D01*
X10209912Y-33346706D01*
X10271826Y-33284792D01*
X10320471Y-33211990D01*
X10353978Y-33131096D01*
X10371060Y-33045219D01*
X10371060Y-32957661D01*
X10353978Y-32871784D01*
X10340863Y-32840121D01*
X10385701Y-32849040D01*
X10473259Y-32849040D01*
X10495002Y-32844715D01*
X10479581Y-32881944D01*
X10462499Y-32967821D01*
X10462499Y-33055379D01*
X10479581Y-33141256D01*
X10513088Y-33222150D01*
X10541779Y-33265088D01*
X10541779Y-33918389D01*
X10454221Y-33918389D01*
X10368344Y-33935471D01*
X10287450Y-33968978D01*
X10246570Y-33996293D01*
X10205690Y-33968978D01*
X10124796Y-33935471D01*
X10038919Y-33918389D01*
X9951361Y-33918389D01*
X9865484Y-33935471D01*
X9784590Y-33968978D01*
X9711788Y-34017623D01*
X9649874Y-34079537D01*
X9601229Y-34152339D01*
X9567722Y-34233233D01*
X9550640Y-34319110D01*
X9550640Y-34406668D01*
X9567722Y-34492545D01*
X9601229Y-34573439D01*
X9649874Y-34646241D01*
X9711788Y-34708155D01*
X9784590Y-34756800D01*
X9865484Y-34790307D01*
X9951361Y-34807389D01*
X10038919Y-34807389D01*
X10124796Y-34790307D01*
X10205690Y-34756800D01*
X10246570Y-34729485D01*
X10287450Y-34756800D01*
X10368344Y-34790307D01*
X10454221Y-34807389D01*
X10541779Y-34807389D01*
X10627656Y-34790307D01*
X10630362Y-34789186D01*
X10621822Y-34809804D01*
X10604740Y-34895681D01*
X10604740Y-34983239D01*
X10621822Y-35069116D01*
X10655329Y-35150010D01*
X10700286Y-35217293D01*
X10689089Y-35234050D01*
X10655582Y-35314944D01*
X10638500Y-35400821D01*
X10638500Y-35488379D01*
X10655582Y-35574256D01*
X10689089Y-35655150D01*
X10715449Y-35694600D01*
X10689089Y-35734050D01*
X10655582Y-35814944D01*
X10638500Y-35900821D01*
X10638500Y-35988379D01*
X10655582Y-36074256D01*
X10689089Y-36155150D01*
X10715449Y-36194600D01*
X10689089Y-36234050D01*
X10655582Y-36314944D01*
X10638500Y-36400821D01*
X10638500Y-36488379D01*
X10655582Y-36574256D01*
X10689089Y-36655150D01*
X10737734Y-36727952D01*
X10799648Y-36789866D01*
X10872450Y-36838511D01*
X10953344Y-36872018D01*
X11039221Y-36889100D01*
X11126779Y-36889100D01*
X11212656Y-36872018D01*
X11293550Y-36838511D01*
X11366352Y-36789866D01*
X11428266Y-36727952D01*
X11476911Y-36655150D01*
X11510418Y-36574256D01*
X11527500Y-36488379D01*
X11527500Y-36400821D01*
X11510418Y-36314944D01*
X11476911Y-36234050D01*
X11450551Y-36194600D01*
X11476911Y-36155150D01*
X11510418Y-36074256D01*
X11527500Y-35988379D01*
X11527500Y-35900821D01*
X11510418Y-35814944D01*
X11476911Y-35734050D01*
X11450551Y-35694600D01*
X11476911Y-35655150D01*
X11510418Y-35574256D01*
X11527500Y-35488379D01*
X11527500Y-35400821D01*
X11510418Y-35314944D01*
X11476911Y-35234050D01*
X11431954Y-35166767D01*
X11443151Y-35150010D01*
X11476658Y-35069116D01*
X11493740Y-34983239D01*
X11493740Y-34895681D01*
X11476658Y-34809804D01*
X11443151Y-34728910D01*
X11394506Y-34656108D01*
X11332592Y-34594194D01*
X11259790Y-34545549D01*
X11178896Y-34512042D01*
X11093019Y-34494960D01*
X11005461Y-34494960D01*
X10919584Y-34512042D01*
X10916878Y-34513163D01*
X10925418Y-34492545D01*
X10942500Y-34406668D01*
X10942500Y-34319110D01*
X10925418Y-34233233D01*
X10891911Y-34152339D01*
X10843266Y-34079537D01*
X10781352Y-34017623D01*
X10708550Y-33968978D01*
X10627656Y-33935471D01*
X10541779Y-33918389D01*
X10541779Y-33265088D01*
X10561733Y-33294952D01*
X10623647Y-33356866D01*
X10696449Y-33405511D01*
X10777343Y-33439018D01*
X10863220Y-33456100D01*
X10950778Y-33456100D01*
X11036655Y-33439018D01*
X11117549Y-33405511D01*
X11190351Y-33356866D01*
X11252265Y-33294952D01*
X11300910Y-33222150D01*
X11334417Y-33141256D01*
X11351499Y-33055379D01*
X11351499Y-32967821D01*
X11334417Y-32881944D01*
X11317394Y-32840846D01*
X11345820Y-32846500D01*
X11433378Y-32846500D01*
X11519255Y-32829418D01*
X11600149Y-32795911D01*
X11672951Y-32747266D01*
X11734865Y-32685352D01*
X11783510Y-32612550D01*
X11817017Y-32531656D01*
X11834099Y-32445779D01*
X11834099Y-32358221D01*
X11817017Y-32272344D01*
X11803388Y-32239440D01*
X11937765Y-32239440D01*
X11925070Y-32270088D01*
X11907988Y-32355965D01*
X11907988Y-32443523D01*
X11925070Y-32529400D01*
X11958577Y-32610294D01*
X12007222Y-32683096D01*
X12069136Y-32745010D01*
X12141938Y-32793655D01*
X12222832Y-32827162D01*
X12308709Y-32844244D01*
X12396267Y-32844244D01*
X12482144Y-32827162D01*
X12563038Y-32793655D01*
X12635840Y-32745010D01*
X12697754Y-32683096D01*
X12746399Y-32610294D01*
X12779906Y-32529400D01*
X12796988Y-32443523D01*
X12796988Y-32355965D01*
X12779906Y-32270088D01*
X12767211Y-32239440D01*
X12914267Y-32239440D01*
X12902742Y-32267264D01*
X12885660Y-32353141D01*
X12885660Y-32440699D01*
X12902742Y-32526576D01*
X12936249Y-32607470D01*
X12984894Y-32680272D01*
X13046808Y-32742186D01*
X13119610Y-32790831D01*
X13200504Y-32824338D01*
X13286381Y-32841420D01*
X13373939Y-32841420D01*
X13459816Y-32824338D01*
X13540710Y-32790831D01*
X13613512Y-32742186D01*
X13675426Y-32680272D01*
X13724071Y-32607470D01*
X13757578Y-32526576D01*
X13774660Y-32440699D01*
X13774660Y-32353141D01*
X13757578Y-32267264D01*
X13746053Y-32239440D01*
X14256121Y-32239440D01*
X14221648Y-32262474D01*
X14159734Y-32324388D01*
X14111089Y-32397190D01*
X14077582Y-32478084D01*
X14060500Y-32563961D01*
X14060500Y-32651519D01*
X14077582Y-32737396D01*
X14111089Y-32818290D01*
X14159734Y-32891092D01*
X14171779Y-32903137D01*
X14171779Y-39348900D01*
X14084221Y-39348900D01*
X13998344Y-39365982D01*
X13917450Y-39399489D01*
X13844648Y-39448134D01*
X13782734Y-39510048D01*
X13734089Y-39582850D01*
X13700582Y-39663744D01*
X13683500Y-39749621D01*
X13683500Y-39837179D01*
X13700582Y-39923056D01*
X13734089Y-40003950D01*
X13782734Y-40076752D01*
X13844648Y-40138666D01*
X13917450Y-40187311D01*
X13998344Y-40220818D01*
X14084221Y-40237900D01*
X14171779Y-40237900D01*
X14257656Y-40220818D01*
X14338550Y-40187311D01*
X14411352Y-40138666D01*
X14473266Y-40076752D01*
X14521911Y-40003950D01*
X14555418Y-39923056D01*
X14572500Y-39837179D01*
X14572500Y-39749621D01*
X14555418Y-39663744D01*
X14521911Y-39582850D01*
X14473266Y-39510048D01*
X14411352Y-39448134D01*
X14338550Y-39399489D01*
X14257656Y-39365982D01*
X14171779Y-39348900D01*
X14171779Y-32903137D01*
X14221648Y-32953006D01*
X14294450Y-33001651D01*
X14375344Y-33035158D01*
X14461221Y-33052240D01*
X14548779Y-33052240D01*
X14634656Y-33035158D01*
X14715550Y-33001651D01*
X14788352Y-32953006D01*
X14850266Y-32891092D01*
X14898911Y-32818290D01*
X14932418Y-32737396D01*
X14949500Y-32651519D01*
X14949500Y-32563961D01*
X14932418Y-32478084D01*
X14898911Y-32397190D01*
X14850266Y-32324388D01*
X14788352Y-32262474D01*
X14753879Y-32239440D01*
X15040179Y-32239440D01*
X15040179Y-32998900D01*
X14952621Y-32998900D01*
X14866744Y-33015982D01*
X14785850Y-33049489D01*
X14713048Y-33098134D01*
X14651134Y-33160048D01*
X14602489Y-33232850D01*
X14568982Y-33313744D01*
X14551900Y-33399621D01*
X14551900Y-33487179D01*
X14568982Y-33573056D01*
X14602489Y-33653950D01*
X14651134Y-33726752D01*
X14713048Y-33788666D01*
X14785850Y-33837311D01*
X14866744Y-33870818D01*
X14952621Y-33887900D01*
X15040179Y-33887900D01*
X15126056Y-33870818D01*
X15206950Y-33837311D01*
X15279752Y-33788666D01*
X15341666Y-33726752D01*
X15390311Y-33653950D01*
X15423818Y-33573056D01*
X15440900Y-33487179D01*
X15440900Y-33399621D01*
X15423818Y-33313744D01*
X15390311Y-33232850D01*
X15341666Y-33160048D01*
X15279752Y-33098134D01*
X15206950Y-33049489D01*
X15126056Y-33015982D01*
X15040179Y-32998900D01*
X15040179Y-32239440D01*
X15835199Y-32239440D01*
X15835199Y-35363640D01*
X15747641Y-35363640D01*
X15661764Y-35380722D01*
X15580870Y-35414229D01*
X15508068Y-35462874D01*
X15446154Y-35524788D01*
X15397509Y-35597590D01*
X15364002Y-35678484D01*
X15346920Y-35764361D01*
X15346920Y-35851919D01*
X15364002Y-35937796D01*
X15397509Y-36018690D01*
X15446154Y-36091492D01*
X15508068Y-36153406D01*
X15580870Y-36202051D01*
X15661764Y-36235558D01*
X15747641Y-36252640D01*
X15835199Y-36252640D01*
X15921076Y-36235558D01*
X16001970Y-36202051D01*
X16074772Y-36153406D01*
X16136686Y-36091492D01*
X16185331Y-36018690D01*
X16218838Y-35937796D01*
X16235920Y-35851919D01*
X16235920Y-35764361D01*
X16218838Y-35678484D01*
X16185331Y-35597590D01*
X16136686Y-35524788D01*
X16074772Y-35462874D01*
X16001970Y-35414229D01*
X15921076Y-35380722D01*
X15835199Y-35363640D01*
X15835199Y-32239440D01*
X16264520Y-32239440D01*
X16264520Y-40553641D01*
X4450320Y-40553640D01*
X4450320Y-40553640D01*
G37*
X4450320Y-40553640D02*
X4450320Y-39271876D01*
X4455670Y-39275451D01*
X4536564Y-39308958D01*
X4622441Y-39326040D01*
X4709999Y-39326040D01*
X4795876Y-39308958D01*
X4820366Y-39298814D01*
X4816080Y-39320361D01*
X4816080Y-39407919D01*
X4833162Y-39493796D01*
X4866669Y-39574690D01*
X4915314Y-39647492D01*
X4977228Y-39709406D01*
X5050030Y-39758051D01*
X5130924Y-39791558D01*
X5216801Y-39808640D01*
X5304359Y-39808640D01*
X5390236Y-39791558D01*
X5471130Y-39758051D01*
X5543932Y-39709406D01*
X5605846Y-39647492D01*
X5654491Y-39574690D01*
X5687998Y-39493796D01*
X5702927Y-39418745D01*
X5763740Y-39443934D01*
X5849617Y-39461016D01*
X5937175Y-39461016D01*
X6023052Y-39443934D01*
X6103946Y-39410427D01*
X6176748Y-39361782D01*
X6238662Y-39299868D01*
X6287307Y-39227066D01*
X6320814Y-39146172D01*
X6337896Y-39060295D01*
X6337896Y-38972737D01*
X6320814Y-38886860D01*
X6287307Y-38805966D01*
X6238662Y-38733164D01*
X6176748Y-38671250D01*
X6103946Y-38622605D01*
X6023052Y-38589098D01*
X5937175Y-38572016D01*
X5849617Y-38572016D01*
X5763740Y-38589098D01*
X5682846Y-38622605D01*
X5610044Y-38671250D01*
X5548130Y-38733164D01*
X5499485Y-38805966D01*
X5465978Y-38886860D01*
X5451049Y-38961911D01*
X5390236Y-38936722D01*
X5304359Y-38919640D01*
X5216801Y-38919640D01*
X5130924Y-38936722D01*
X5106434Y-38946866D01*
X5110720Y-38925319D01*
X5110720Y-38837761D01*
X5093638Y-38751884D01*
X5060131Y-38670990D01*
X5011486Y-38598188D01*
X4949572Y-38536274D01*
X4876770Y-38487629D01*
X4795876Y-38454122D01*
X4709999Y-38437040D01*
X4622441Y-38437040D01*
X4536564Y-38454122D01*
X4455670Y-38487629D01*
X4450320Y-38491204D01*
X4450320Y-38310756D01*
X4523864Y-38341219D01*
X4609741Y-38358301D01*
X4697299Y-38358301D01*
X4783176Y-38341219D01*
X4864070Y-38307712D01*
X4936872Y-38259067D01*
X4998786Y-38197153D01*
X5047431Y-38124351D01*
X5080938Y-38043457D01*
X5098020Y-37957580D01*
X5098020Y-37912486D01*
X5181241Y-37929040D01*
X5268799Y-37929040D01*
X5354676Y-37911958D01*
X5435570Y-37878451D01*
X5508372Y-37829806D01*
X5570286Y-37767892D01*
X5618931Y-37695090D01*
X5652438Y-37614196D01*
X5669520Y-37528319D01*
X5669520Y-37440761D01*
X5652438Y-37354884D01*
X5618931Y-37273990D01*
X5570286Y-37201188D01*
X5508372Y-37139274D01*
X5435570Y-37090629D01*
X5354676Y-37057122D01*
X5268799Y-37040040D01*
X5181241Y-37040040D01*
X5095364Y-37057122D01*
X5014470Y-37090629D01*
X4941668Y-37139274D01*
X4879754Y-37201188D01*
X4831109Y-37273990D01*
X4797602Y-37354884D01*
X4780520Y-37440761D01*
X4780520Y-37485855D01*
X4697299Y-37469301D01*
X4609741Y-37469301D01*
X4523864Y-37486383D01*
X4450320Y-37516846D01*
X4450320Y-36134942D01*
X4478530Y-36153791D01*
X4559424Y-36187298D01*
X4645301Y-36204380D01*
X4732859Y-36204380D01*
X4818736Y-36187298D01*
X4899630Y-36153791D01*
X4972432Y-36105146D01*
X5034346Y-36043232D01*
X5082991Y-35970430D01*
X5116498Y-35889536D01*
X5133580Y-35803659D01*
X5133580Y-35716101D01*
X5116498Y-35630224D01*
X5082991Y-35549330D01*
X5034346Y-35476528D01*
X4972432Y-35414614D01*
X4899630Y-35365969D01*
X4818736Y-35332462D01*
X4732859Y-35315380D01*
X4645301Y-35315380D01*
X4559424Y-35332462D01*
X4478530Y-35365969D01*
X4450320Y-35384818D01*
X4450320Y-32239440D01*
X5184616Y-32239440D01*
X5170987Y-32272344D01*
X5153905Y-32358221D01*
X5153905Y-32445779D01*
X5170987Y-32531656D01*
X5188010Y-32572754D01*
X5159584Y-32567100D01*
X5072026Y-32567100D01*
X4986149Y-32584182D01*
X4905255Y-32617689D01*
X4832453Y-32666334D01*
X4770539Y-32728248D01*
X4721894Y-32801050D01*
X4688387Y-32881944D01*
X4671305Y-32967821D01*
X4671305Y-33055379D01*
X4688387Y-33141256D01*
X4721894Y-33222150D01*
X4770539Y-33294952D01*
X4832453Y-33356866D01*
X4905255Y-33405511D01*
X4986149Y-33439018D01*
X5072026Y-33456100D01*
X5159584Y-33456100D01*
X5245461Y-33439018D01*
X5326355Y-33405511D01*
X5399157Y-33356866D01*
X5461071Y-33294952D01*
X5509716Y-33222150D01*
X5543223Y-33141256D01*
X5560305Y-33055379D01*
X5560305Y-32967821D01*
X5543223Y-32881944D01*
X5526200Y-32840846D01*
X5554626Y-32846500D01*
X5642184Y-32846500D01*
X5675412Y-32839891D01*
X5661109Y-32874421D01*
X5644027Y-32960298D01*
X5644027Y-33047856D01*
X5661109Y-33133733D01*
X5694616Y-33214627D01*
X5743261Y-33287429D01*
X5805175Y-33349343D01*
X5877977Y-33397988D01*
X5958871Y-33431495D01*
X6044748Y-33448577D01*
X6132306Y-33448577D01*
X6218183Y-33431495D01*
X6299077Y-33397988D01*
X6371879Y-33349343D01*
X6433793Y-33287429D01*
X6456779Y-33253029D01*
X6456779Y-34500100D01*
X6369221Y-34500100D01*
X6283344Y-34517182D01*
X6202450Y-34550689D01*
X6129648Y-34599334D01*
X6067734Y-34661248D01*
X6019089Y-34734050D01*
X5985582Y-34814944D01*
X5968500Y-34900821D01*
X5968500Y-34988379D01*
X5985582Y-35074256D01*
X6019089Y-35155150D01*
X6045449Y-35194600D01*
X6019089Y-35234050D01*
X5985582Y-35314944D01*
X5968500Y-35400821D01*
X5968500Y-35488379D01*
X5985582Y-35574256D01*
X6019089Y-35655150D01*
X6045449Y-35694600D01*
X6019089Y-35734050D01*
X5985582Y-35814944D01*
X5968500Y-35900821D01*
X5968500Y-35988379D01*
X5985582Y-36074256D01*
X6019089Y-36155150D01*
X6045449Y-36194600D01*
X6019089Y-36234050D01*
X5985582Y-36314944D01*
X5968500Y-36400821D01*
X5968500Y-36488379D01*
X5985582Y-36574256D01*
X6019089Y-36655150D01*
X6045449Y-36694600D01*
X6019089Y-36734050D01*
X5985582Y-36814944D01*
X5968500Y-36900821D01*
X5968500Y-36988379D01*
X5985582Y-37074256D01*
X6019089Y-37155150D01*
X6067734Y-37227952D01*
X6129648Y-37289866D01*
X6202450Y-37338511D01*
X6283344Y-37372018D01*
X6369221Y-37389100D01*
X6456779Y-37389100D01*
X6542656Y-37372018D01*
X6623550Y-37338511D01*
X6696352Y-37289866D01*
X6758266Y-37227952D01*
X6806911Y-37155150D01*
X6840418Y-37074256D01*
X6857500Y-36988379D01*
X6857500Y-36900821D01*
X6840418Y-36814944D01*
X6806911Y-36734050D01*
X6780551Y-36694600D01*
X6806911Y-36655150D01*
X6840418Y-36574256D01*
X6857500Y-36488379D01*
X6857500Y-36400821D01*
X6840418Y-36314944D01*
X6806911Y-36234050D01*
X6780551Y-36194600D01*
X6806911Y-36155150D01*
X6840418Y-36074256D01*
X6857500Y-35988379D01*
X6857500Y-35900821D01*
X6840418Y-35814944D01*
X6806911Y-35734050D01*
X6780551Y-35694600D01*
X6806911Y-35655150D01*
X6840418Y-35574256D01*
X6857500Y-35488379D01*
X6857500Y-35400821D01*
X6840418Y-35314944D01*
X6806911Y-35234050D01*
X6780551Y-35194600D01*
X6806911Y-35155150D01*
X6840418Y-35074256D01*
X6857500Y-34988379D01*
X6857500Y-34900821D01*
X6840418Y-34814944D01*
X6806911Y-34734050D01*
X6758266Y-34661248D01*
X6696352Y-34599334D01*
X6623550Y-34550689D01*
X6542656Y-34517182D01*
X6456779Y-34500100D01*
X6456779Y-33253029D01*
X6482438Y-33214627D01*
X6515945Y-33133733D01*
X6533027Y-33047856D01*
X6533027Y-32960298D01*
X6515945Y-32874421D01*
X6502993Y-32843152D01*
X6519825Y-32846500D01*
X6607383Y-32846500D01*
X6635808Y-32840846D01*
X6618785Y-32881944D01*
X6601703Y-32967821D01*
X6601703Y-33055379D01*
X6618785Y-33141256D01*
X6652292Y-33222150D01*
X6700937Y-33294952D01*
X6762851Y-33356866D01*
X6835653Y-33405511D01*
X6916547Y-33439018D01*
X7002424Y-33456100D01*
X7089982Y-33456100D01*
X7175859Y-33439018D01*
X7256753Y-33405511D01*
X7329555Y-33356866D01*
X7391469Y-33294952D01*
X7440114Y-33222150D01*
X7473621Y-33141256D01*
X7490703Y-33055379D01*
X7490703Y-32967821D01*
X7473621Y-32881944D01*
X7456598Y-32840846D01*
X7485024Y-32846500D01*
X7544639Y-32846500D01*
X7544639Y-38584360D01*
X7457081Y-38584360D01*
X7371204Y-38601442D01*
X7290310Y-38634949D01*
X7244968Y-38665246D01*
X7211030Y-38642569D01*
X7130136Y-38609062D01*
X7044259Y-38591980D01*
X6956701Y-38591980D01*
X6870824Y-38609062D01*
X6789930Y-38642569D01*
X6717128Y-38691214D01*
X6655214Y-38753128D01*
X6606569Y-38825930D01*
X6573062Y-38906824D01*
X6555980Y-38992701D01*
X6555980Y-39080259D01*
X6573062Y-39166136D01*
X6606569Y-39247030D01*
X6655214Y-39319832D01*
X6717128Y-39381746D01*
X6789930Y-39430391D01*
X6870824Y-39463898D01*
X6956701Y-39480980D01*
X7044259Y-39480980D01*
X7130136Y-39463898D01*
X7211030Y-39430391D01*
X7256372Y-39400094D01*
X7290310Y-39422771D01*
X7371204Y-39456278D01*
X7457081Y-39473360D01*
X7544639Y-39473360D01*
X7630516Y-39456278D01*
X7711410Y-39422771D01*
X7748876Y-39397737D01*
X7787450Y-39423511D01*
X7868344Y-39457018D01*
X7954221Y-39474100D01*
X8041779Y-39474100D01*
X8127656Y-39457018D01*
X8208550Y-39423511D01*
X8248000Y-39397151D01*
X8287450Y-39423511D01*
X8368344Y-39457018D01*
X8454221Y-39474100D01*
X8541779Y-39474100D01*
X8627656Y-39457018D01*
X8708550Y-39423511D01*
X8748000Y-39397151D01*
X8787450Y-39423511D01*
X8868344Y-39457018D01*
X8954221Y-39474100D01*
X9041779Y-39474100D01*
X9127656Y-39457018D01*
X9208550Y-39423511D01*
X9248000Y-39397151D01*
X9287450Y-39423511D01*
X9368344Y-39457018D01*
X9454221Y-39474100D01*
X9541779Y-39474100D01*
X9627656Y-39457018D01*
X9708550Y-39423511D01*
X9781352Y-39374866D01*
X9843266Y-39312952D01*
X9891911Y-39240150D01*
X9925418Y-39159256D01*
X9942500Y-39073379D01*
X9942500Y-38985821D01*
X9925418Y-38899944D01*
X9891911Y-38819050D01*
X9843266Y-38746248D01*
X9781352Y-38684334D01*
X9708550Y-38635689D01*
X9627656Y-38602182D01*
X9541779Y-38585100D01*
X9454221Y-38585100D01*
X9368344Y-38602182D01*
X9287450Y-38635689D01*
X9248000Y-38662049D01*
X9208550Y-38635689D01*
X9127656Y-38602182D01*
X9041779Y-38585100D01*
X8954221Y-38585100D01*
X8868344Y-38602182D01*
X8787450Y-38635689D01*
X8748000Y-38662049D01*
X8708550Y-38635689D01*
X8627656Y-38602182D01*
X8541779Y-38585100D01*
X8454221Y-38585100D01*
X8368344Y-38602182D01*
X8287450Y-38635689D01*
X8248000Y-38662049D01*
X8208550Y-38635689D01*
X8127656Y-38602182D01*
X8041779Y-38585100D01*
X7954221Y-38585100D01*
X7868344Y-38602182D01*
X7787450Y-38635689D01*
X7749984Y-38660723D01*
X7711410Y-38634949D01*
X7630516Y-38601442D01*
X7544639Y-38584360D01*
X7544639Y-32846500D01*
X7572582Y-32846500D01*
X7658459Y-32829418D01*
X7739353Y-32795911D01*
X7812155Y-32747266D01*
X7874069Y-32685352D01*
X7922714Y-32612550D01*
X7956221Y-32531656D01*
X7973303Y-32445779D01*
X7973303Y-32358221D01*
X7956221Y-32272344D01*
X7942592Y-32239440D01*
X9010219Y-32239440D01*
X9010219Y-32574720D01*
X8922661Y-32574720D01*
X8836784Y-32591802D01*
X8755890Y-32625309D01*
X8683088Y-32673954D01*
X8621174Y-32735868D01*
X8572529Y-32808670D01*
X8539022Y-32889564D01*
X8521940Y-32975441D01*
X8521940Y-33062999D01*
X8539022Y-33148876D01*
X8572529Y-33229770D01*
X8621174Y-33302572D01*
X8683088Y-33364486D01*
X8755890Y-33413131D01*
X8836784Y-33446638D01*
X8922661Y-33463720D01*
X9010219Y-33463720D01*
X9041779Y-33457443D01*
X9041779Y-33918389D01*
X8954221Y-33918389D01*
X8868344Y-33935471D01*
X8787450Y-33968978D01*
X8714648Y-34017623D01*
X8652734Y-34079537D01*
X8604089Y-34152339D01*
X8570582Y-34233233D01*
X8553500Y-34319110D01*
X8553500Y-34406668D01*
X8570582Y-34492545D01*
X8604089Y-34573439D01*
X8652734Y-34646241D01*
X8714648Y-34708155D01*
X8787450Y-34756800D01*
X8868344Y-34790307D01*
X8954221Y-34807389D01*
X9041779Y-34807389D01*
X9127656Y-34790307D01*
X9208550Y-34756800D01*
X9281352Y-34708155D01*
X9343266Y-34646241D01*
X9391911Y-34573439D01*
X9425418Y-34492545D01*
X9442500Y-34406668D01*
X9442500Y-34319110D01*
X9425418Y-34233233D01*
X9391911Y-34152339D01*
X9343266Y-34079537D01*
X9281352Y-34017623D01*
X9208550Y-33968978D01*
X9127656Y-33935471D01*
X9041779Y-33918389D01*
X9041779Y-33457443D01*
X9096096Y-33446638D01*
X9176990Y-33413131D01*
X9249792Y-33364486D01*
X9311706Y-33302572D01*
X9360351Y-33229770D01*
X9393858Y-33148876D01*
X9410940Y-33062999D01*
X9410940Y-32975441D01*
X9393858Y-32889564D01*
X9360351Y-32808670D01*
X9311706Y-32735868D01*
X9249792Y-32673954D01*
X9176990Y-32625309D01*
X9096096Y-32591802D01*
X9010219Y-32574720D01*
X9010219Y-32239440D01*
X10016743Y-32239440D01*
X10002062Y-32274884D01*
X9984980Y-32360761D01*
X9984980Y-32448319D01*
X10002062Y-32534196D01*
X10015177Y-32565859D01*
X9970339Y-32556940D01*
X9882781Y-32556940D01*
X9796904Y-32574022D01*
X9716010Y-32607529D01*
X9643208Y-32656174D01*
X9581294Y-32718088D01*
X9532649Y-32790890D01*
X9499142Y-32871784D01*
X9482060Y-32957661D01*
X9482060Y-33045219D01*
X9499142Y-33131096D01*
X9532649Y-33211990D01*
X9581294Y-33284792D01*
X9643208Y-33346706D01*
X9716010Y-33395351D01*
X9796904Y-33428858D01*
X9882781Y-33445940D01*
X9970339Y-33445940D01*
X10056216Y-33428858D01*
X10137110Y-33395351D01*
X10209912Y-33346706D01*
X10271826Y-33284792D01*
X10320471Y-33211990D01*
X10353978Y-33131096D01*
X10371060Y-33045219D01*
X10371060Y-32957661D01*
X10353978Y-32871784D01*
X10340863Y-32840121D01*
X10385701Y-32849040D01*
X10473259Y-32849040D01*
X10495002Y-32844715D01*
X10479581Y-32881944D01*
X10462499Y-32967821D01*
X10462499Y-33055379D01*
X10479581Y-33141256D01*
X10513088Y-33222150D01*
X10541779Y-33265088D01*
X10541779Y-33918389D01*
X10454221Y-33918389D01*
X10368344Y-33935471D01*
X10287450Y-33968978D01*
X10246570Y-33996293D01*
X10205690Y-33968978D01*
X10124796Y-33935471D01*
X10038919Y-33918389D01*
X9951361Y-33918389D01*
X9865484Y-33935471D01*
X9784590Y-33968978D01*
X9711788Y-34017623D01*
X9649874Y-34079537D01*
X9601229Y-34152339D01*
X9567722Y-34233233D01*
X9550640Y-34319110D01*
X9550640Y-34406668D01*
X9567722Y-34492545D01*
X9601229Y-34573439D01*
X9649874Y-34646241D01*
X9711788Y-34708155D01*
X9784590Y-34756800D01*
X9865484Y-34790307D01*
X9951361Y-34807389D01*
X10038919Y-34807389D01*
X10124796Y-34790307D01*
X10205690Y-34756800D01*
X10246570Y-34729485D01*
X10287450Y-34756800D01*
X10368344Y-34790307D01*
X10454221Y-34807389D01*
X10541779Y-34807389D01*
X10627656Y-34790307D01*
X10630362Y-34789186D01*
X10621822Y-34809804D01*
X10604740Y-34895681D01*
X10604740Y-34983239D01*
X10621822Y-35069116D01*
X10655329Y-35150010D01*
X10700286Y-35217293D01*
X10689089Y-35234050D01*
X10655582Y-35314944D01*
X10638500Y-35400821D01*
X10638500Y-35488379D01*
X10655582Y-35574256D01*
X10689089Y-35655150D01*
X10715449Y-35694600D01*
X10689089Y-35734050D01*
X10655582Y-35814944D01*
X10638500Y-35900821D01*
X10638500Y-35988379D01*
X10655582Y-36074256D01*
X10689089Y-36155150D01*
X10715449Y-36194600D01*
X10689089Y-36234050D01*
X10655582Y-36314944D01*
X10638500Y-36400821D01*
X10638500Y-36488379D01*
X10655582Y-36574256D01*
X10689089Y-36655150D01*
X10737734Y-36727952D01*
X10799648Y-36789866D01*
X10872450Y-36838511D01*
X10953344Y-36872018D01*
X11039221Y-36889100D01*
X11126779Y-36889100D01*
X11212656Y-36872018D01*
X11293550Y-36838511D01*
X11366352Y-36789866D01*
X11428266Y-36727952D01*
X11476911Y-36655150D01*
X11510418Y-36574256D01*
X11527500Y-36488379D01*
X11527500Y-36400821D01*
X11510418Y-36314944D01*
X11476911Y-36234050D01*
X11450551Y-36194600D01*
X11476911Y-36155150D01*
X11510418Y-36074256D01*
X11527500Y-35988379D01*
X11527500Y-35900821D01*
X11510418Y-35814944D01*
X11476911Y-35734050D01*
X11450551Y-35694600D01*
X11476911Y-35655150D01*
X11510418Y-35574256D01*
X11527500Y-35488379D01*
X11527500Y-35400821D01*
X11510418Y-35314944D01*
X11476911Y-35234050D01*
X11431954Y-35166767D01*
X11443151Y-35150010D01*
X11476658Y-35069116D01*
X11493740Y-34983239D01*
X11493740Y-34895681D01*
X11476658Y-34809804D01*
X11443151Y-34728910D01*
X11394506Y-34656108D01*
X11332592Y-34594194D01*
X11259790Y-34545549D01*
X11178896Y-34512042D01*
X11093019Y-34494960D01*
X11005461Y-34494960D01*
X10919584Y-34512042D01*
X10916878Y-34513163D01*
X10925418Y-34492545D01*
X10942500Y-34406668D01*
X10942500Y-34319110D01*
X10925418Y-34233233D01*
X10891911Y-34152339D01*
X10843266Y-34079537D01*
X10781352Y-34017623D01*
X10708550Y-33968978D01*
X10627656Y-33935471D01*
X10541779Y-33918389D01*
X10541779Y-33265088D01*
X10561733Y-33294952D01*
X10623647Y-33356866D01*
X10696449Y-33405511D01*
X10777343Y-33439018D01*
X10863220Y-33456100D01*
X10950778Y-33456100D01*
X11036655Y-33439018D01*
X11117549Y-33405511D01*
X11190351Y-33356866D01*
X11252265Y-33294952D01*
X11300910Y-33222150D01*
X11334417Y-33141256D01*
X11351499Y-33055379D01*
X11351499Y-32967821D01*
X11334417Y-32881944D01*
X11317394Y-32840846D01*
X11345820Y-32846500D01*
X11433378Y-32846500D01*
X11519255Y-32829418D01*
X11600149Y-32795911D01*
X11672951Y-32747266D01*
X11734865Y-32685352D01*
X11783510Y-32612550D01*
X11817017Y-32531656D01*
X11834099Y-32445779D01*
X11834099Y-32358221D01*
X11817017Y-32272344D01*
X11803388Y-32239440D01*
X11937765Y-32239440D01*
X11925070Y-32270088D01*
X11907988Y-32355965D01*
X11907988Y-32443523D01*
X11925070Y-32529400D01*
X11958577Y-32610294D01*
X12007222Y-32683096D01*
X12069136Y-32745010D01*
X12141938Y-32793655D01*
X12222832Y-32827162D01*
X12308709Y-32844244D01*
X12396267Y-32844244D01*
X12482144Y-32827162D01*
X12563038Y-32793655D01*
X12635840Y-32745010D01*
X12697754Y-32683096D01*
X12746399Y-32610294D01*
X12779906Y-32529400D01*
X12796988Y-32443523D01*
X12796988Y-32355965D01*
X12779906Y-32270088D01*
X12767211Y-32239440D01*
X12914267Y-32239440D01*
X12902742Y-32267264D01*
X12885660Y-32353141D01*
X12885660Y-32440699D01*
X12902742Y-32526576D01*
X12936249Y-32607470D01*
X12984894Y-32680272D01*
X13046808Y-32742186D01*
X13119610Y-32790831D01*
X13200504Y-32824338D01*
X13286381Y-32841420D01*
X13373939Y-32841420D01*
X13459816Y-32824338D01*
X13540710Y-32790831D01*
X13613512Y-32742186D01*
X13675426Y-32680272D01*
X13724071Y-32607470D01*
X13757578Y-32526576D01*
X13774660Y-32440699D01*
X13774660Y-32353141D01*
X13757578Y-32267264D01*
X13746053Y-32239440D01*
X14256121Y-32239440D01*
X14221648Y-32262474D01*
X14159734Y-32324388D01*
X14111089Y-32397190D01*
X14077582Y-32478084D01*
X14060500Y-32563961D01*
X14060500Y-32651519D01*
X14077582Y-32737396D01*
X14111089Y-32818290D01*
X14159734Y-32891092D01*
X14171779Y-32903137D01*
X14171779Y-39348900D01*
X14084221Y-39348900D01*
X13998344Y-39365982D01*
X13917450Y-39399489D01*
X13844648Y-39448134D01*
X13782734Y-39510048D01*
X13734089Y-39582850D01*
X13700582Y-39663744D01*
X13683500Y-39749621D01*
X13683500Y-39837179D01*
X13700582Y-39923056D01*
X13734089Y-40003950D01*
X13782734Y-40076752D01*
X13844648Y-40138666D01*
X13917450Y-40187311D01*
X13998344Y-40220818D01*
X14084221Y-40237900D01*
X14171779Y-40237900D01*
X14257656Y-40220818D01*
X14338550Y-40187311D01*
X14411352Y-40138666D01*
X14473266Y-40076752D01*
X14521911Y-40003950D01*
X14555418Y-39923056D01*
X14572500Y-39837179D01*
X14572500Y-39749621D01*
X14555418Y-39663744D01*
X14521911Y-39582850D01*
X14473266Y-39510048D01*
X14411352Y-39448134D01*
X14338550Y-39399489D01*
X14257656Y-39365982D01*
X14171779Y-39348900D01*
X14171779Y-32903137D01*
X14221648Y-32953006D01*
X14294450Y-33001651D01*
X14375344Y-33035158D01*
X14461221Y-33052240D01*
X14548779Y-33052240D01*
X14634656Y-33035158D01*
X14715550Y-33001651D01*
X14788352Y-32953006D01*
X14850266Y-32891092D01*
X14898911Y-32818290D01*
X14932418Y-32737396D01*
X14949500Y-32651519D01*
X14949500Y-32563961D01*
X14932418Y-32478084D01*
X14898911Y-32397190D01*
X14850266Y-32324388D01*
X14788352Y-32262474D01*
X14753879Y-32239440D01*
X15040179Y-32239440D01*
X15040179Y-32998900D01*
X14952621Y-32998900D01*
X14866744Y-33015982D01*
X14785850Y-33049489D01*
X14713048Y-33098134D01*
X14651134Y-33160048D01*
X14602489Y-33232850D01*
X14568982Y-33313744D01*
X14551900Y-33399621D01*
X14551900Y-33487179D01*
X14568982Y-33573056D01*
X14602489Y-33653950D01*
X14651134Y-33726752D01*
X14713048Y-33788666D01*
X14785850Y-33837311D01*
X14866744Y-33870818D01*
X14952621Y-33887900D01*
X15040179Y-33887900D01*
X15126056Y-33870818D01*
X15206950Y-33837311D01*
X15279752Y-33788666D01*
X15341666Y-33726752D01*
X15390311Y-33653950D01*
X15423818Y-33573056D01*
X15440900Y-33487179D01*
X15440900Y-33399621D01*
X15423818Y-33313744D01*
X15390311Y-33232850D01*
X15341666Y-33160048D01*
X15279752Y-33098134D01*
X15206950Y-33049489D01*
X15126056Y-33015982D01*
X15040179Y-32998900D01*
X15040179Y-32239440D01*
X15835199Y-32239440D01*
X15835199Y-35363640D01*
X15747641Y-35363640D01*
X15661764Y-35380722D01*
X15580870Y-35414229D01*
X15508068Y-35462874D01*
X15446154Y-35524788D01*
X15397509Y-35597590D01*
X15364002Y-35678484D01*
X15346920Y-35764361D01*
X15346920Y-35851919D01*
X15364002Y-35937796D01*
X15397509Y-36018690D01*
X15446154Y-36091492D01*
X15508068Y-36153406D01*
X15580870Y-36202051D01*
X15661764Y-36235558D01*
X15747641Y-36252640D01*
X15835199Y-36252640D01*
X15921076Y-36235558D01*
X16001970Y-36202051D01*
X16074772Y-36153406D01*
X16136686Y-36091492D01*
X16185331Y-36018690D01*
X16218838Y-35937796D01*
X16235920Y-35851919D01*
X16235920Y-35764361D01*
X16218838Y-35678484D01*
X16185331Y-35597590D01*
X16136686Y-35524788D01*
X16074772Y-35462874D01*
X16001970Y-35414229D01*
X15921076Y-35380722D01*
X15835199Y-35363640D01*
X15835199Y-32239440D01*
X16264520Y-32239440D01*
X16264520Y-40553641D01*
X4450320Y-40553640D01*
M02*
