G04 #@! TF.GenerationSoftware,KiCad,Pcbnew,(5.1.0)-1*
G04 #@! TF.CreationDate,2019-05-03T21:31:27-07:00*
G04 #@! TF.ProjectId,Miniscope-v4-PCB-fab-assembly_2,4d696e69-7363-46f7-9065-2d76342d5043,rev?*
G04 #@! TF.SameCoordinates,PX4b8e5e4PY51f011c*
G04 #@! TF.FileFunction,Paste,Bot*
G04 #@! TF.FilePolarity,Positive*
%FSLAX46Y46*%
G04 Gerber Fmt 4.6, Leading zero omitted, Abs format (unit mm)*
G04 Created by KiCad (PCBNEW (5.1.0)-1) date 2019-05-03 21:31:27*
%MOMM*%
%LPD*%
G04 APERTURE LIST*
%ADD10C,0.250000*%
%ADD11R,0.340000X0.310000*%
%ADD12R,0.630000X0.580000*%
%ADD13R,0.870000X0.810000*%
%ADD14R,1.060000X0.540000*%
%ADD15R,1.500000X0.450000*%
%ADD16R,0.920000X0.890000*%
%ADD17R,0.680000X0.260000*%
%ADD18R,0.260000X0.680000*%
%ADD19R,1.350000X1.350000*%
%ADD20R,0.580000X0.630000*%
%ADD21R,0.310000X0.340000*%
%ADD22R,2.620000X0.870000*%
%ADD23C,0.100000*%
%ADD24C,0.590000*%
%ADD25R,0.270000X0.820000*%
%ADD26R,0.270000X0.740000*%
G04 APERTURE END LIST*
D10*
X6750000Y-25088400D03*
X7250000Y-25088400D03*
X7750000Y-25088400D03*
X8250000Y-25088400D03*
X8750000Y-25088400D03*
X9250000Y-25088400D03*
X9750000Y-25088400D03*
X10250000Y-25088400D03*
X10750000Y-25088400D03*
X11250000Y-25088400D03*
X11750000Y-25088400D03*
X6750000Y-24588400D03*
X7250000Y-24588400D03*
X7750000Y-24588400D03*
X8250000Y-24588400D03*
X8750000Y-24588400D03*
X9250000Y-24588400D03*
X9750000Y-24588400D03*
X10250000Y-24588400D03*
X10750000Y-24588400D03*
X11250000Y-24588400D03*
X11750000Y-24588400D03*
X6750000Y-24088400D03*
X7250000Y-24088400D03*
X7750000Y-24088400D03*
X8250000Y-24088400D03*
X8750000Y-24088400D03*
X9250000Y-24088400D03*
X9750000Y-24088400D03*
X10250000Y-24088400D03*
X10750000Y-24088400D03*
X11250000Y-24088400D03*
X11750000Y-24088400D03*
X6750000Y-23588400D03*
X7250000Y-23588400D03*
X11250000Y-23588400D03*
X11750000Y-23588400D03*
X6750000Y-23088400D03*
X7250000Y-23088400D03*
X11250000Y-23088400D03*
X11750000Y-23088400D03*
X6750000Y-22588400D03*
X7250000Y-22588400D03*
X11250000Y-22588400D03*
X11750000Y-22588400D03*
X6750000Y-22088400D03*
X7250000Y-22088400D03*
X7750000Y-22088400D03*
X8250000Y-22088400D03*
X8750000Y-22088400D03*
X9250000Y-22088400D03*
X9750000Y-22088400D03*
X10250000Y-22088400D03*
X10750000Y-22088400D03*
X11250000Y-22088400D03*
X11750000Y-22088400D03*
X6750000Y-21588400D03*
X7250000Y-21588400D03*
X7750000Y-21588400D03*
X8250000Y-21588400D03*
X8750000Y-21588400D03*
X9250000Y-21588400D03*
X9750000Y-21588400D03*
X10250000Y-21588400D03*
X10750000Y-21588400D03*
X11250000Y-21588400D03*
X11750000Y-21588400D03*
D11*
X4508000Y-21374200D03*
X4508000Y-20824200D03*
X4533400Y-19655800D03*
X4533400Y-20205800D03*
D12*
X4660400Y-25480200D03*
X4660400Y-26370200D03*
X4660400Y-22915800D03*
X4660400Y-22025800D03*
X4660400Y-24643000D03*
X4660400Y-23753000D03*
D13*
X29900220Y-7789941D03*
X29900220Y-6429939D03*
D14*
X30422220Y-5128740D03*
X28362220Y-5128740D03*
D15*
X23811420Y-6915740D03*
X23811420Y-6215740D03*
D16*
X28655620Y-7774940D03*
X28655620Y-6444940D03*
D12*
X21709580Y-21080860D03*
X21709580Y-20190860D03*
X21721380Y-23726060D03*
X21721380Y-24616060D03*
D17*
X23475780Y-24557060D03*
X23475780Y-24057060D03*
X23475780Y-23557060D03*
X23475780Y-23057060D03*
X23475780Y-22557060D03*
X23475780Y-22057060D03*
X23475780Y-21557060D03*
X23475780Y-21057060D03*
D18*
X24060780Y-20472060D03*
X24560780Y-20472060D03*
X25060780Y-20472060D03*
X25560780Y-20472060D03*
X26060780Y-20472060D03*
X26560780Y-20472060D03*
X27060780Y-20472060D03*
X27560780Y-20472060D03*
D17*
X28145780Y-21057060D03*
X28145780Y-21557060D03*
X28145780Y-22057060D03*
X28145780Y-22557060D03*
X28145780Y-23057060D03*
X28145780Y-23557060D03*
X28145780Y-24057060D03*
X28145780Y-24557060D03*
D18*
X27560780Y-25142060D03*
X27060780Y-25142060D03*
X26560780Y-25142060D03*
X26060780Y-25142060D03*
X25560780Y-25142060D03*
X25060780Y-25142060D03*
X24560780Y-25142060D03*
X24060780Y-25142060D03*
D19*
X25035780Y-22032060D03*
X26585780Y-22032060D03*
X25035780Y-23582060D03*
X26585780Y-23582060D03*
D12*
X13022820Y-33534340D03*
X13022820Y-34424340D03*
D20*
X10985740Y-39026320D03*
X10095740Y-39026320D03*
D11*
X5885420Y-39562940D03*
X5885420Y-39012940D03*
D21*
X5043320Y-36262800D03*
X5593320Y-36262800D03*
X5588920Y-36946060D03*
X5038920Y-36946060D03*
X13955000Y-32633140D03*
X14505000Y-32633140D03*
D12*
X12057620Y-34424340D03*
X12057620Y-33534340D03*
D11*
X15689820Y-33113200D03*
X15689820Y-33663200D03*
X15689820Y-34787740D03*
X15689820Y-34237740D03*
X8994380Y-37697220D03*
X8994380Y-38247220D03*
X6512800Y-39562940D03*
X6512800Y-39012940D03*
D12*
X8240000Y-38099220D03*
X8240000Y-37209220D03*
D11*
X8382240Y-35813900D03*
X8382240Y-35263900D03*
X8984220Y-35256960D03*
X8984220Y-35806960D03*
D21*
X9880160Y-35635420D03*
X10430160Y-35635420D03*
X10430160Y-35015660D03*
X9880160Y-35015660D03*
D20*
X7346420Y-38297340D03*
X6456420Y-38297340D03*
D21*
X6905820Y-36900340D03*
X7455820Y-36900340D03*
X7455820Y-37509940D03*
X6905820Y-37509940D03*
X11113420Y-37713140D03*
X10563420Y-37713140D03*
X10563420Y-38322740D03*
X11113420Y-38322740D03*
D11*
X7917420Y-34136140D03*
X7917420Y-34686140D03*
X8519400Y-34683600D03*
X8519400Y-34133600D03*
D22*
X14877020Y-38807340D03*
X14877020Y-35757340D03*
D23*
G36*
X14289958Y-39552850D02*
G01*
X14304276Y-39554974D01*
X14318317Y-39558491D01*
X14331946Y-39563368D01*
X14345031Y-39569557D01*
X14357447Y-39576998D01*
X14369073Y-39585621D01*
X14379798Y-39595342D01*
X14389519Y-39606067D01*
X14398142Y-39617693D01*
X14405583Y-39630109D01*
X14411772Y-39643194D01*
X14416649Y-39656823D01*
X14420166Y-39670864D01*
X14422290Y-39685182D01*
X14423000Y-39699640D01*
X14423000Y-40044640D01*
X14422290Y-40059098D01*
X14420166Y-40073416D01*
X14416649Y-40087457D01*
X14411772Y-40101086D01*
X14405583Y-40114171D01*
X14398142Y-40126587D01*
X14389519Y-40138213D01*
X14379798Y-40148938D01*
X14369073Y-40158659D01*
X14357447Y-40167282D01*
X14345031Y-40174723D01*
X14331946Y-40180912D01*
X14318317Y-40185789D01*
X14304276Y-40189306D01*
X14289958Y-40191430D01*
X14275500Y-40192140D01*
X13980500Y-40192140D01*
X13966042Y-40191430D01*
X13951724Y-40189306D01*
X13937683Y-40185789D01*
X13924054Y-40180912D01*
X13910969Y-40174723D01*
X13898553Y-40167282D01*
X13886927Y-40158659D01*
X13876202Y-40148938D01*
X13866481Y-40138213D01*
X13857858Y-40126587D01*
X13850417Y-40114171D01*
X13844228Y-40101086D01*
X13839351Y-40087457D01*
X13835834Y-40073416D01*
X13833710Y-40059098D01*
X13833000Y-40044640D01*
X13833000Y-39699640D01*
X13833710Y-39685182D01*
X13835834Y-39670864D01*
X13839351Y-39656823D01*
X13844228Y-39643194D01*
X13850417Y-39630109D01*
X13857858Y-39617693D01*
X13866481Y-39606067D01*
X13876202Y-39595342D01*
X13886927Y-39585621D01*
X13898553Y-39576998D01*
X13910969Y-39569557D01*
X13924054Y-39563368D01*
X13937683Y-39558491D01*
X13951724Y-39554974D01*
X13966042Y-39552850D01*
X13980500Y-39552140D01*
X14275500Y-39552140D01*
X14289958Y-39552850D01*
X14289958Y-39552850D01*
G37*
D24*
X14128000Y-39872140D03*
D23*
G36*
X15259958Y-39552850D02*
G01*
X15274276Y-39554974D01*
X15288317Y-39558491D01*
X15301946Y-39563368D01*
X15315031Y-39569557D01*
X15327447Y-39576998D01*
X15339073Y-39585621D01*
X15349798Y-39595342D01*
X15359519Y-39606067D01*
X15368142Y-39617693D01*
X15375583Y-39630109D01*
X15381772Y-39643194D01*
X15386649Y-39656823D01*
X15390166Y-39670864D01*
X15392290Y-39685182D01*
X15393000Y-39699640D01*
X15393000Y-40044640D01*
X15392290Y-40059098D01*
X15390166Y-40073416D01*
X15386649Y-40087457D01*
X15381772Y-40101086D01*
X15375583Y-40114171D01*
X15368142Y-40126587D01*
X15359519Y-40138213D01*
X15349798Y-40148938D01*
X15339073Y-40158659D01*
X15327447Y-40167282D01*
X15315031Y-40174723D01*
X15301946Y-40180912D01*
X15288317Y-40185789D01*
X15274276Y-40189306D01*
X15259958Y-40191430D01*
X15245500Y-40192140D01*
X14950500Y-40192140D01*
X14936042Y-40191430D01*
X14921724Y-40189306D01*
X14907683Y-40185789D01*
X14894054Y-40180912D01*
X14880969Y-40174723D01*
X14868553Y-40167282D01*
X14856927Y-40158659D01*
X14846202Y-40148938D01*
X14836481Y-40138213D01*
X14827858Y-40126587D01*
X14820417Y-40114171D01*
X14814228Y-40101086D01*
X14809351Y-40087457D01*
X14805834Y-40073416D01*
X14803710Y-40059098D01*
X14803000Y-40044640D01*
X14803000Y-39699640D01*
X14803710Y-39685182D01*
X14805834Y-39670864D01*
X14809351Y-39656823D01*
X14814228Y-39643194D01*
X14820417Y-39630109D01*
X14827858Y-39617693D01*
X14836481Y-39606067D01*
X14846202Y-39595342D01*
X14856927Y-39585621D01*
X14868553Y-39576998D01*
X14880969Y-39569557D01*
X14894054Y-39563368D01*
X14907683Y-39558491D01*
X14921724Y-39554974D01*
X14936042Y-39552850D01*
X14950500Y-39552140D01*
X15245500Y-39552140D01*
X15259958Y-39552850D01*
X15259958Y-39552850D01*
G37*
D24*
X15098000Y-39872140D03*
D23*
G36*
X7342378Y-34851050D02*
G01*
X7356696Y-34853174D01*
X7370737Y-34856691D01*
X7384366Y-34861568D01*
X7397451Y-34867757D01*
X7409867Y-34875198D01*
X7421493Y-34883821D01*
X7432218Y-34893542D01*
X7441939Y-34904267D01*
X7450562Y-34915893D01*
X7458003Y-34928309D01*
X7464192Y-34941394D01*
X7469069Y-34955023D01*
X7472586Y-34969064D01*
X7474710Y-34983382D01*
X7475420Y-34997840D01*
X7475420Y-35292840D01*
X7474710Y-35307298D01*
X7472586Y-35321616D01*
X7469069Y-35335657D01*
X7464192Y-35349286D01*
X7458003Y-35362371D01*
X7450562Y-35374787D01*
X7441939Y-35386413D01*
X7432218Y-35397138D01*
X7421493Y-35406859D01*
X7409867Y-35415482D01*
X7397451Y-35422923D01*
X7384366Y-35429112D01*
X7370737Y-35433989D01*
X7356696Y-35437506D01*
X7342378Y-35439630D01*
X7327920Y-35440340D01*
X6982920Y-35440340D01*
X6968462Y-35439630D01*
X6954144Y-35437506D01*
X6940103Y-35433989D01*
X6926474Y-35429112D01*
X6913389Y-35422923D01*
X6900973Y-35415482D01*
X6889347Y-35406859D01*
X6878622Y-35397138D01*
X6868901Y-35386413D01*
X6860278Y-35374787D01*
X6852837Y-35362371D01*
X6846648Y-35349286D01*
X6841771Y-35335657D01*
X6838254Y-35321616D01*
X6836130Y-35307298D01*
X6835420Y-35292840D01*
X6835420Y-34997840D01*
X6836130Y-34983382D01*
X6838254Y-34969064D01*
X6841771Y-34955023D01*
X6846648Y-34941394D01*
X6852837Y-34928309D01*
X6860278Y-34915893D01*
X6868901Y-34904267D01*
X6878622Y-34893542D01*
X6889347Y-34883821D01*
X6900973Y-34875198D01*
X6913389Y-34867757D01*
X6926474Y-34861568D01*
X6940103Y-34856691D01*
X6954144Y-34853174D01*
X6968462Y-34851050D01*
X6982920Y-34850340D01*
X7327920Y-34850340D01*
X7342378Y-34851050D01*
X7342378Y-34851050D01*
G37*
D24*
X7155420Y-35145340D03*
D23*
G36*
X7342378Y-35821050D02*
G01*
X7356696Y-35823174D01*
X7370737Y-35826691D01*
X7384366Y-35831568D01*
X7397451Y-35837757D01*
X7409867Y-35845198D01*
X7421493Y-35853821D01*
X7432218Y-35863542D01*
X7441939Y-35874267D01*
X7450562Y-35885893D01*
X7458003Y-35898309D01*
X7464192Y-35911394D01*
X7469069Y-35925023D01*
X7472586Y-35939064D01*
X7474710Y-35953382D01*
X7475420Y-35967840D01*
X7475420Y-36262840D01*
X7474710Y-36277298D01*
X7472586Y-36291616D01*
X7469069Y-36305657D01*
X7464192Y-36319286D01*
X7458003Y-36332371D01*
X7450562Y-36344787D01*
X7441939Y-36356413D01*
X7432218Y-36367138D01*
X7421493Y-36376859D01*
X7409867Y-36385482D01*
X7397451Y-36392923D01*
X7384366Y-36399112D01*
X7370737Y-36403989D01*
X7356696Y-36407506D01*
X7342378Y-36409630D01*
X7327920Y-36410340D01*
X6982920Y-36410340D01*
X6968462Y-36409630D01*
X6954144Y-36407506D01*
X6940103Y-36403989D01*
X6926474Y-36399112D01*
X6913389Y-36392923D01*
X6900973Y-36385482D01*
X6889347Y-36376859D01*
X6878622Y-36367138D01*
X6868901Y-36356413D01*
X6860278Y-36344787D01*
X6852837Y-36332371D01*
X6846648Y-36319286D01*
X6841771Y-36305657D01*
X6838254Y-36291616D01*
X6836130Y-36277298D01*
X6835420Y-36262840D01*
X6835420Y-35967840D01*
X6836130Y-35953382D01*
X6838254Y-35939064D01*
X6841771Y-35925023D01*
X6846648Y-35911394D01*
X6852837Y-35898309D01*
X6860278Y-35885893D01*
X6868901Y-35874267D01*
X6878622Y-35863542D01*
X6889347Y-35853821D01*
X6900973Y-35845198D01*
X6913389Y-35837757D01*
X6926474Y-35831568D01*
X6940103Y-35826691D01*
X6954144Y-35823174D01*
X6968462Y-35821050D01*
X6982920Y-35820340D01*
X7327920Y-35820340D01*
X7342378Y-35821050D01*
X7342378Y-35821050D01*
G37*
D24*
X7155420Y-36115340D03*
D23*
G36*
X9958578Y-37233290D02*
G01*
X9972896Y-37235414D01*
X9986937Y-37238931D01*
X10000566Y-37243808D01*
X10013651Y-37249997D01*
X10026067Y-37257438D01*
X10037693Y-37266061D01*
X10048418Y-37275782D01*
X10058139Y-37286507D01*
X10066762Y-37298133D01*
X10074203Y-37310549D01*
X10080392Y-37323634D01*
X10085269Y-37337263D01*
X10088786Y-37351304D01*
X10090910Y-37365622D01*
X10091620Y-37380080D01*
X10091620Y-37675080D01*
X10090910Y-37689538D01*
X10088786Y-37703856D01*
X10085269Y-37717897D01*
X10080392Y-37731526D01*
X10074203Y-37744611D01*
X10066762Y-37757027D01*
X10058139Y-37768653D01*
X10048418Y-37779378D01*
X10037693Y-37789099D01*
X10026067Y-37797722D01*
X10013651Y-37805163D01*
X10000566Y-37811352D01*
X9986937Y-37816229D01*
X9972896Y-37819746D01*
X9958578Y-37821870D01*
X9944120Y-37822580D01*
X9599120Y-37822580D01*
X9584662Y-37821870D01*
X9570344Y-37819746D01*
X9556303Y-37816229D01*
X9542674Y-37811352D01*
X9529589Y-37805163D01*
X9517173Y-37797722D01*
X9505547Y-37789099D01*
X9494822Y-37779378D01*
X9485101Y-37768653D01*
X9476478Y-37757027D01*
X9469037Y-37744611D01*
X9462848Y-37731526D01*
X9457971Y-37717897D01*
X9454454Y-37703856D01*
X9452330Y-37689538D01*
X9451620Y-37675080D01*
X9451620Y-37380080D01*
X9452330Y-37365622D01*
X9454454Y-37351304D01*
X9457971Y-37337263D01*
X9462848Y-37323634D01*
X9469037Y-37310549D01*
X9476478Y-37298133D01*
X9485101Y-37286507D01*
X9494822Y-37275782D01*
X9505547Y-37266061D01*
X9517173Y-37257438D01*
X9529589Y-37249997D01*
X9542674Y-37243808D01*
X9556303Y-37238931D01*
X9570344Y-37235414D01*
X9584662Y-37233290D01*
X9599120Y-37232580D01*
X9944120Y-37232580D01*
X9958578Y-37233290D01*
X9958578Y-37233290D01*
G37*
D24*
X9771620Y-37527580D03*
D23*
G36*
X9958578Y-36263290D02*
G01*
X9972896Y-36265414D01*
X9986937Y-36268931D01*
X10000566Y-36273808D01*
X10013651Y-36279997D01*
X10026067Y-36287438D01*
X10037693Y-36296061D01*
X10048418Y-36305782D01*
X10058139Y-36316507D01*
X10066762Y-36328133D01*
X10074203Y-36340549D01*
X10080392Y-36353634D01*
X10085269Y-36367263D01*
X10088786Y-36381304D01*
X10090910Y-36395622D01*
X10091620Y-36410080D01*
X10091620Y-36705080D01*
X10090910Y-36719538D01*
X10088786Y-36733856D01*
X10085269Y-36747897D01*
X10080392Y-36761526D01*
X10074203Y-36774611D01*
X10066762Y-36787027D01*
X10058139Y-36798653D01*
X10048418Y-36809378D01*
X10037693Y-36819099D01*
X10026067Y-36827722D01*
X10013651Y-36835163D01*
X10000566Y-36841352D01*
X9986937Y-36846229D01*
X9972896Y-36849746D01*
X9958578Y-36851870D01*
X9944120Y-36852580D01*
X9599120Y-36852580D01*
X9584662Y-36851870D01*
X9570344Y-36849746D01*
X9556303Y-36846229D01*
X9542674Y-36841352D01*
X9529589Y-36835163D01*
X9517173Y-36827722D01*
X9505547Y-36819099D01*
X9494822Y-36809378D01*
X9485101Y-36798653D01*
X9476478Y-36787027D01*
X9469037Y-36774611D01*
X9462848Y-36761526D01*
X9457971Y-36747897D01*
X9454454Y-36733856D01*
X9452330Y-36719538D01*
X9451620Y-36705080D01*
X9451620Y-36410080D01*
X9452330Y-36395622D01*
X9454454Y-36381304D01*
X9457971Y-36367263D01*
X9462848Y-36353634D01*
X9469037Y-36340549D01*
X9476478Y-36328133D01*
X9485101Y-36316507D01*
X9494822Y-36305782D01*
X9505547Y-36296061D01*
X9517173Y-36287438D01*
X9529589Y-36279997D01*
X9542674Y-36273808D01*
X9556303Y-36268931D01*
X9570344Y-36265414D01*
X9584662Y-36263290D01*
X9599120Y-36262580D01*
X9944120Y-36262580D01*
X9958578Y-36263290D01*
X9958578Y-36263290D01*
G37*
D24*
X9771620Y-36557580D03*
D11*
X13116800Y-37414600D03*
X13116800Y-37964600D03*
X8984220Y-37063580D03*
X8984220Y-36513580D03*
D21*
X7314760Y-39709580D03*
X7864760Y-39709580D03*
X5754020Y-38424340D03*
X5204020Y-38424340D03*
D25*
X14996400Y-34463400D03*
D26*
X14496400Y-34503400D03*
X13996400Y-34503400D03*
X13996400Y-33443400D03*
X14496400Y-33443400D03*
X14996400Y-33443400D03*
M02*
