G04 #@! TF.GenerationSoftware,KiCad,Pcbnew,(5.1.0)-1*
G04 #@! TF.CreationDate,2019-05-03T21:31:27-07:00*
G04 #@! TF.ProjectId,Miniscope-v4-PCB-fab-assembly_2,4d696e69-7363-46f7-9065-2d76342d5043,rev?*
G04 #@! TF.SameCoordinates,PX4b8e5e4PY51f011c*
G04 #@! TF.FileFunction,Soldermask,Bot*
G04 #@! TF.FilePolarity,Negative*
%FSLAX46Y46*%
G04 Gerber Fmt 4.6, Leading zero omitted, Abs format (unit mm)*
G04 Created by KiCad (PCBNEW (5.1.0)-1) date 2019-05-03 21:31:27*
%MOMM*%
%LPD*%
G04 APERTURE LIST*
%ADD10C,0.100000*%
G04 APERTURE END LIST*
D10*
G36*
X31590788Y-38552435D02*
G01*
X31959387Y-38705113D01*
X32291119Y-38926770D01*
X32573230Y-39208881D01*
X32794887Y-39540613D01*
X32947565Y-39909212D01*
X33025400Y-40300515D01*
X33025400Y-40699485D01*
X32947565Y-41090788D01*
X32794887Y-41459387D01*
X32573230Y-41791119D01*
X32291119Y-42073230D01*
X31959387Y-42294887D01*
X31590788Y-42447565D01*
X31199485Y-42525400D01*
X30800515Y-42525400D01*
X30409212Y-42447565D01*
X30040613Y-42294887D01*
X29708881Y-42073230D01*
X29426770Y-41791119D01*
X29205113Y-41459387D01*
X29052435Y-41090788D01*
X28974600Y-40699485D01*
X28974600Y-40300515D01*
X29052435Y-39909212D01*
X29205113Y-39540613D01*
X29426770Y-39208881D01*
X29708881Y-38926770D01*
X30040613Y-38705113D01*
X30409212Y-38552435D01*
X30800515Y-38474600D01*
X31199485Y-38474600D01*
X31590788Y-38552435D01*
X31590788Y-38552435D01*
G37*
G36*
X15309850Y-39529571D02*
G01*
X15335088Y-39537227D01*
X15358355Y-39549663D01*
X15378744Y-39566396D01*
X15395477Y-39586785D01*
X15407913Y-39610052D01*
X15415569Y-39635290D01*
X15418400Y-39664031D01*
X15418400Y-40080249D01*
X15415569Y-40108990D01*
X15407913Y-40134228D01*
X15395477Y-40157495D01*
X15378744Y-40177884D01*
X15358355Y-40194617D01*
X15335088Y-40207053D01*
X15309850Y-40214709D01*
X15281109Y-40217540D01*
X14914891Y-40217540D01*
X14886150Y-40214709D01*
X14860912Y-40207053D01*
X14837645Y-40194617D01*
X14817256Y-40177884D01*
X14800523Y-40157495D01*
X14788087Y-40134228D01*
X14780431Y-40108990D01*
X14777600Y-40080249D01*
X14777600Y-39664031D01*
X14780431Y-39635290D01*
X14788087Y-39610052D01*
X14800523Y-39586785D01*
X14817256Y-39566396D01*
X14837645Y-39549663D01*
X14860912Y-39537227D01*
X14886150Y-39529571D01*
X14914891Y-39526740D01*
X15281109Y-39526740D01*
X15309850Y-39529571D01*
X15309850Y-39529571D01*
G37*
G36*
X14339850Y-39529571D02*
G01*
X14365088Y-39537227D01*
X14388355Y-39549663D01*
X14408744Y-39566396D01*
X14425477Y-39586785D01*
X14437913Y-39610052D01*
X14445569Y-39635290D01*
X14448400Y-39664031D01*
X14448400Y-40080249D01*
X14445569Y-40108990D01*
X14437913Y-40134228D01*
X14425477Y-40157495D01*
X14408744Y-40177884D01*
X14388355Y-40194617D01*
X14365088Y-40207053D01*
X14339850Y-40214709D01*
X14311109Y-40217540D01*
X13944891Y-40217540D01*
X13916150Y-40214709D01*
X13890912Y-40207053D01*
X13867645Y-40194617D01*
X13847256Y-40177884D01*
X13830523Y-40157495D01*
X13818087Y-40134228D01*
X13810431Y-40108990D01*
X13807600Y-40080249D01*
X13807600Y-39664031D01*
X13810431Y-39635290D01*
X13818087Y-39610052D01*
X13830523Y-39586785D01*
X13847256Y-39566396D01*
X13867645Y-39549663D01*
X13890912Y-39537227D01*
X13916150Y-39529571D01*
X13944891Y-39526740D01*
X14311109Y-39526740D01*
X14339850Y-39529571D01*
X14339850Y-39529571D01*
G37*
G36*
X7495160Y-39904980D02*
G01*
X7134360Y-39904980D01*
X7134360Y-39514180D01*
X7495160Y-39514180D01*
X7495160Y-39904980D01*
X7495160Y-39904980D01*
G37*
G36*
X8045160Y-39904980D02*
G01*
X7684360Y-39904980D01*
X7684360Y-39514180D01*
X8045160Y-39514180D01*
X8045160Y-39904980D01*
X8045160Y-39904980D01*
G37*
G36*
X6080820Y-39743340D02*
G01*
X5690020Y-39743340D01*
X5690020Y-39382540D01*
X6080820Y-39382540D01*
X6080820Y-39743340D01*
X6080820Y-39743340D01*
G37*
G36*
X6708200Y-39743340D02*
G01*
X6317400Y-39743340D01*
X6317400Y-39382540D01*
X6708200Y-39382540D01*
X6708200Y-39743340D01*
X6708200Y-39743340D01*
G37*
G36*
X10411140Y-39366720D02*
G01*
X9780340Y-39366720D01*
X9780340Y-38685920D01*
X10411140Y-38685920D01*
X10411140Y-39366720D01*
X10411140Y-39366720D01*
G37*
G36*
X11301140Y-39366720D02*
G01*
X10670340Y-39366720D01*
X10670340Y-38685920D01*
X11301140Y-38685920D01*
X11301140Y-39366720D01*
X11301140Y-39366720D01*
G37*
G36*
X16212420Y-39267740D02*
G01*
X13541620Y-39267740D01*
X13541620Y-38346940D01*
X16212420Y-38346940D01*
X16212420Y-39267740D01*
X16212420Y-39267740D01*
G37*
G36*
X6708200Y-39193340D02*
G01*
X6317400Y-39193340D01*
X6317400Y-38832540D01*
X6708200Y-38832540D01*
X6708200Y-39193340D01*
X6708200Y-39193340D01*
G37*
G36*
X6080820Y-39193340D02*
G01*
X5690020Y-39193340D01*
X5690020Y-38832540D01*
X6080820Y-38832540D01*
X6080820Y-39193340D01*
X6080820Y-39193340D01*
G37*
G36*
X7661820Y-38637740D02*
G01*
X7031020Y-38637740D01*
X7031020Y-37956940D01*
X7661820Y-37956940D01*
X7661820Y-38637740D01*
X7661820Y-38637740D01*
G37*
G36*
X6771820Y-38637740D02*
G01*
X6141020Y-38637740D01*
X6141020Y-37956940D01*
X6771820Y-37956940D01*
X6771820Y-38637740D01*
X6771820Y-38637740D01*
G37*
G36*
X5934420Y-38619740D02*
G01*
X5573620Y-38619740D01*
X5573620Y-38228940D01*
X5934420Y-38228940D01*
X5934420Y-38619740D01*
X5934420Y-38619740D01*
G37*
G36*
X5384420Y-38619740D02*
G01*
X5023620Y-38619740D01*
X5023620Y-38228940D01*
X5384420Y-38228940D01*
X5384420Y-38619740D01*
X5384420Y-38619740D01*
G37*
G36*
X10743820Y-38518140D02*
G01*
X10383020Y-38518140D01*
X10383020Y-38127340D01*
X10743820Y-38127340D01*
X10743820Y-38518140D01*
X10743820Y-38518140D01*
G37*
G36*
X11293820Y-38518140D02*
G01*
X10933020Y-38518140D01*
X10933020Y-38127340D01*
X11293820Y-38127340D01*
X11293820Y-38518140D01*
X11293820Y-38518140D01*
G37*
G36*
X9189780Y-38427620D02*
G01*
X8798980Y-38427620D01*
X8798980Y-38066820D01*
X9189780Y-38066820D01*
X9189780Y-38427620D01*
X9189780Y-38427620D01*
G37*
G36*
X8580400Y-38414620D02*
G01*
X7899600Y-38414620D01*
X7899600Y-37783820D01*
X8580400Y-37783820D01*
X8580400Y-38414620D01*
X8580400Y-38414620D01*
G37*
G36*
X13312200Y-38145000D02*
G01*
X12921400Y-38145000D01*
X12921400Y-37784200D01*
X13312200Y-37784200D01*
X13312200Y-38145000D01*
X13312200Y-38145000D01*
G37*
G36*
X11293820Y-37908540D02*
G01*
X10933020Y-37908540D01*
X10933020Y-37517740D01*
X11293820Y-37517740D01*
X11293820Y-37908540D01*
X11293820Y-37908540D01*
G37*
G36*
X10743820Y-37908540D02*
G01*
X10383020Y-37908540D01*
X10383020Y-37517740D01*
X10743820Y-37517740D01*
X10743820Y-37908540D01*
X10743820Y-37908540D01*
G37*
G36*
X9189780Y-37877620D02*
G01*
X8798980Y-37877620D01*
X8798980Y-37516820D01*
X9189780Y-37516820D01*
X9189780Y-37877620D01*
X9189780Y-37877620D01*
G37*
G36*
X10008470Y-37210011D02*
G01*
X10033708Y-37217667D01*
X10056975Y-37230103D01*
X10077364Y-37246836D01*
X10094097Y-37267225D01*
X10106533Y-37290492D01*
X10114189Y-37315730D01*
X10117020Y-37344471D01*
X10117020Y-37710689D01*
X10114189Y-37739430D01*
X10106533Y-37764668D01*
X10094097Y-37787935D01*
X10077364Y-37808324D01*
X10056975Y-37825057D01*
X10033708Y-37837493D01*
X10008470Y-37845149D01*
X9979729Y-37847980D01*
X9563511Y-37847980D01*
X9534770Y-37845149D01*
X9509532Y-37837493D01*
X9486265Y-37825057D01*
X9465876Y-37808324D01*
X9449143Y-37787935D01*
X9436707Y-37764668D01*
X9429051Y-37739430D01*
X9426220Y-37710689D01*
X9426220Y-37344471D01*
X9429051Y-37315730D01*
X9436707Y-37290492D01*
X9449143Y-37267225D01*
X9465876Y-37246836D01*
X9486265Y-37230103D01*
X9509532Y-37217667D01*
X9534770Y-37210011D01*
X9563511Y-37207180D01*
X9979729Y-37207180D01*
X10008470Y-37210011D01*
X10008470Y-37210011D01*
G37*
G36*
X7086220Y-37705340D02*
G01*
X6725420Y-37705340D01*
X6725420Y-37314540D01*
X7086220Y-37314540D01*
X7086220Y-37705340D01*
X7086220Y-37705340D01*
G37*
G36*
X7636220Y-37705340D02*
G01*
X7275420Y-37705340D01*
X7275420Y-37314540D01*
X7636220Y-37314540D01*
X7636220Y-37705340D01*
X7636220Y-37705340D01*
G37*
G36*
X13312200Y-37595000D02*
G01*
X12921400Y-37595000D01*
X12921400Y-37234200D01*
X13312200Y-37234200D01*
X13312200Y-37595000D01*
X13312200Y-37595000D01*
G37*
G36*
X8580400Y-37524620D02*
G01*
X7899600Y-37524620D01*
X7899600Y-36893820D01*
X8580400Y-36893820D01*
X8580400Y-37524620D01*
X8580400Y-37524620D01*
G37*
G36*
X9179620Y-37243980D02*
G01*
X8788820Y-37243980D01*
X8788820Y-36883180D01*
X9179620Y-36883180D01*
X9179620Y-37243980D01*
X9179620Y-37243980D01*
G37*
G36*
X5219320Y-37141460D02*
G01*
X4858520Y-37141460D01*
X4858520Y-36750660D01*
X5219320Y-36750660D01*
X5219320Y-37141460D01*
X5219320Y-37141460D01*
G37*
G36*
X5769320Y-37141460D02*
G01*
X5408520Y-37141460D01*
X5408520Y-36750660D01*
X5769320Y-36750660D01*
X5769320Y-37141460D01*
X5769320Y-37141460D01*
G37*
G36*
X7636220Y-37095740D02*
G01*
X7275420Y-37095740D01*
X7275420Y-36704940D01*
X7636220Y-36704940D01*
X7636220Y-37095740D01*
X7636220Y-37095740D01*
G37*
G36*
X7086220Y-37095740D02*
G01*
X6725420Y-37095740D01*
X6725420Y-36704940D01*
X7086220Y-36704940D01*
X7086220Y-37095740D01*
X7086220Y-37095740D01*
G37*
G36*
X10008470Y-36240011D02*
G01*
X10033708Y-36247667D01*
X10056975Y-36260103D01*
X10077364Y-36276836D01*
X10094097Y-36297225D01*
X10106533Y-36320492D01*
X10114189Y-36345730D01*
X10117020Y-36374471D01*
X10117020Y-36740689D01*
X10114189Y-36769430D01*
X10106533Y-36794668D01*
X10094097Y-36817935D01*
X10077364Y-36838324D01*
X10056975Y-36855057D01*
X10033708Y-36867493D01*
X10008470Y-36875149D01*
X9979729Y-36877980D01*
X9563511Y-36877980D01*
X9534770Y-36875149D01*
X9509532Y-36867493D01*
X9486265Y-36855057D01*
X9465876Y-36838324D01*
X9449143Y-36817935D01*
X9436707Y-36794668D01*
X9429051Y-36769430D01*
X9426220Y-36740689D01*
X9426220Y-36374471D01*
X9429051Y-36345730D01*
X9436707Y-36320492D01*
X9449143Y-36297225D01*
X9465876Y-36276836D01*
X9486265Y-36260103D01*
X9509532Y-36247667D01*
X9534770Y-36240011D01*
X9563511Y-36237180D01*
X9979729Y-36237180D01*
X10008470Y-36240011D01*
X10008470Y-36240011D01*
G37*
G36*
X9179620Y-36693980D02*
G01*
X8788820Y-36693980D01*
X8788820Y-36333180D01*
X9179620Y-36333180D01*
X9179620Y-36693980D01*
X9179620Y-36693980D01*
G37*
G36*
X5223720Y-36458200D02*
G01*
X4862920Y-36458200D01*
X4862920Y-36067400D01*
X5223720Y-36067400D01*
X5223720Y-36458200D01*
X5223720Y-36458200D01*
G37*
G36*
X5773720Y-36458200D02*
G01*
X5412920Y-36458200D01*
X5412920Y-36067400D01*
X5773720Y-36067400D01*
X5773720Y-36458200D01*
X5773720Y-36458200D01*
G37*
G36*
X7392270Y-35797771D02*
G01*
X7417508Y-35805427D01*
X7440775Y-35817863D01*
X7461164Y-35834596D01*
X7477897Y-35854985D01*
X7490333Y-35878252D01*
X7497989Y-35903490D01*
X7500820Y-35932231D01*
X7500820Y-36298449D01*
X7497989Y-36327190D01*
X7490333Y-36352428D01*
X7477897Y-36375695D01*
X7461164Y-36396084D01*
X7440775Y-36412817D01*
X7417508Y-36425253D01*
X7392270Y-36432909D01*
X7363529Y-36435740D01*
X6947311Y-36435740D01*
X6918570Y-36432909D01*
X6893332Y-36425253D01*
X6870065Y-36412817D01*
X6849676Y-36396084D01*
X6832943Y-36375695D01*
X6820507Y-36352428D01*
X6812851Y-36327190D01*
X6810020Y-36298449D01*
X6810020Y-35932231D01*
X6812851Y-35903490D01*
X6820507Y-35878252D01*
X6832943Y-35854985D01*
X6849676Y-35834596D01*
X6870065Y-35817863D01*
X6893332Y-35805427D01*
X6918570Y-35797771D01*
X6947311Y-35794940D01*
X7363529Y-35794940D01*
X7392270Y-35797771D01*
X7392270Y-35797771D01*
G37*
G36*
X16212420Y-36217740D02*
G01*
X13541620Y-36217740D01*
X13541620Y-35296940D01*
X16212420Y-35296940D01*
X16212420Y-36217740D01*
X16212420Y-36217740D01*
G37*
G36*
X8577640Y-35994300D02*
G01*
X8186840Y-35994300D01*
X8186840Y-35633500D01*
X8577640Y-35633500D01*
X8577640Y-35994300D01*
X8577640Y-35994300D01*
G37*
G36*
X9179620Y-35987360D02*
G01*
X8788820Y-35987360D01*
X8788820Y-35626560D01*
X9179620Y-35626560D01*
X9179620Y-35987360D01*
X9179620Y-35987360D01*
G37*
G36*
X10610560Y-35830820D02*
G01*
X10249760Y-35830820D01*
X10249760Y-35440020D01*
X10610560Y-35440020D01*
X10610560Y-35830820D01*
X10610560Y-35830820D01*
G37*
G36*
X10060560Y-35830820D02*
G01*
X9699760Y-35830820D01*
X9699760Y-35440020D01*
X10060560Y-35440020D01*
X10060560Y-35830820D01*
X10060560Y-35830820D01*
G37*
G36*
X7392270Y-34827771D02*
G01*
X7417508Y-34835427D01*
X7440775Y-34847863D01*
X7461164Y-34864596D01*
X7477897Y-34884985D01*
X7490333Y-34908252D01*
X7497989Y-34933490D01*
X7500820Y-34962231D01*
X7500820Y-35328449D01*
X7497989Y-35357190D01*
X7490333Y-35382428D01*
X7477897Y-35405695D01*
X7461164Y-35426084D01*
X7440775Y-35442817D01*
X7417508Y-35455253D01*
X7392270Y-35462909D01*
X7363529Y-35465740D01*
X6947311Y-35465740D01*
X6918570Y-35462909D01*
X6893332Y-35455253D01*
X6870065Y-35442817D01*
X6849676Y-35426084D01*
X6832943Y-35405695D01*
X6820507Y-35382428D01*
X6812851Y-35357190D01*
X6810020Y-35328449D01*
X6810020Y-34962231D01*
X6812851Y-34933490D01*
X6820507Y-34908252D01*
X6832943Y-34884985D01*
X6849676Y-34864596D01*
X6870065Y-34847863D01*
X6893332Y-34835427D01*
X6918570Y-34827771D01*
X6947311Y-34824940D01*
X7363529Y-34824940D01*
X7392270Y-34827771D01*
X7392270Y-34827771D01*
G37*
G36*
X8577640Y-35444300D02*
G01*
X8186840Y-35444300D01*
X8186840Y-35083500D01*
X8577640Y-35083500D01*
X8577640Y-35444300D01*
X8577640Y-35444300D01*
G37*
G36*
X9179620Y-35437360D02*
G01*
X8788820Y-35437360D01*
X8788820Y-35076560D01*
X9179620Y-35076560D01*
X9179620Y-35437360D01*
X9179620Y-35437360D01*
G37*
G36*
X10610560Y-35211060D02*
G01*
X10249760Y-35211060D01*
X10249760Y-34820260D01*
X10610560Y-34820260D01*
X10610560Y-35211060D01*
X10610560Y-35211060D01*
G37*
G36*
X10060560Y-35211060D02*
G01*
X9699760Y-35211060D01*
X9699760Y-34820260D01*
X10060560Y-34820260D01*
X10060560Y-35211060D01*
X10060560Y-35211060D01*
G37*
G36*
X15885220Y-34968140D02*
G01*
X15494420Y-34968140D01*
X15494420Y-34607340D01*
X15885220Y-34607340D01*
X15885220Y-34968140D01*
X15885220Y-34968140D01*
G37*
G36*
X14156800Y-34898800D02*
G01*
X13836000Y-34898800D01*
X13836000Y-34108000D01*
X14156800Y-34108000D01*
X14156800Y-34898800D01*
X14156800Y-34898800D01*
G37*
G36*
X14656800Y-34898800D02*
G01*
X14336000Y-34898800D01*
X14336000Y-34108000D01*
X14656800Y-34108000D01*
X14656800Y-34898800D01*
X14656800Y-34898800D01*
G37*
G36*
X15156800Y-34898800D02*
G01*
X14836000Y-34898800D01*
X14836000Y-34028000D01*
X15156800Y-34028000D01*
X15156800Y-34898800D01*
X15156800Y-34898800D01*
G37*
G36*
X8112820Y-34866540D02*
G01*
X7722020Y-34866540D01*
X7722020Y-34505740D01*
X8112820Y-34505740D01*
X8112820Y-34866540D01*
X8112820Y-34866540D01*
G37*
G36*
X8714800Y-34864000D02*
G01*
X8324000Y-34864000D01*
X8324000Y-34503200D01*
X8714800Y-34503200D01*
X8714800Y-34864000D01*
X8714800Y-34864000D01*
G37*
G36*
X13363220Y-34739740D02*
G01*
X12682420Y-34739740D01*
X12682420Y-34108940D01*
X13363220Y-34108940D01*
X13363220Y-34739740D01*
X13363220Y-34739740D01*
G37*
G36*
X12398020Y-34739740D02*
G01*
X11717220Y-34739740D01*
X11717220Y-34108940D01*
X12398020Y-34108940D01*
X12398020Y-34739740D01*
X12398020Y-34739740D01*
G37*
G36*
X15885220Y-34418140D02*
G01*
X15494420Y-34418140D01*
X15494420Y-34057340D01*
X15885220Y-34057340D01*
X15885220Y-34418140D01*
X15885220Y-34418140D01*
G37*
G36*
X8112820Y-34316540D02*
G01*
X7722020Y-34316540D01*
X7722020Y-33955740D01*
X8112820Y-33955740D01*
X8112820Y-34316540D01*
X8112820Y-34316540D01*
G37*
G36*
X8714800Y-34314000D02*
G01*
X8324000Y-34314000D01*
X8324000Y-33953200D01*
X8714800Y-33953200D01*
X8714800Y-34314000D01*
X8714800Y-34314000D01*
G37*
G36*
X13363220Y-33849740D02*
G01*
X12682420Y-33849740D01*
X12682420Y-33218940D01*
X13363220Y-33218940D01*
X13363220Y-33849740D01*
X13363220Y-33849740D01*
G37*
G36*
X12398020Y-33849740D02*
G01*
X11717220Y-33849740D01*
X11717220Y-33218940D01*
X12398020Y-33218940D01*
X12398020Y-33849740D01*
X12398020Y-33849740D01*
G37*
G36*
X15885220Y-33843600D02*
G01*
X15494420Y-33843600D01*
X15494420Y-33482800D01*
X15885220Y-33482800D01*
X15885220Y-33843600D01*
X15885220Y-33843600D01*
G37*
G36*
X14656800Y-33838800D02*
G01*
X14336000Y-33838800D01*
X14336000Y-33048000D01*
X14656800Y-33048000D01*
X14656800Y-33838800D01*
X14656800Y-33838800D01*
G37*
G36*
X15156800Y-33838800D02*
G01*
X14836000Y-33838800D01*
X14836000Y-33048000D01*
X15156800Y-33048000D01*
X15156800Y-33838800D01*
X15156800Y-33838800D01*
G37*
G36*
X14156800Y-33838800D02*
G01*
X13836000Y-33838800D01*
X13836000Y-33048000D01*
X14156800Y-33048000D01*
X14156800Y-33838800D01*
X14156800Y-33838800D01*
G37*
G36*
X15885220Y-33293600D02*
G01*
X15494420Y-33293600D01*
X15494420Y-32932800D01*
X15885220Y-32932800D01*
X15885220Y-33293600D01*
X15885220Y-33293600D01*
G37*
G36*
X14685400Y-32828540D02*
G01*
X14324600Y-32828540D01*
X14324600Y-32437740D01*
X14685400Y-32437740D01*
X14685400Y-32828540D01*
X14685400Y-32828540D01*
G37*
G36*
X14135400Y-32828540D02*
G01*
X13774600Y-32828540D01*
X13774600Y-32437740D01*
X14135400Y-32437740D01*
X14135400Y-32828540D01*
X14135400Y-32828540D01*
G37*
G36*
X5000800Y-26685600D02*
G01*
X4320000Y-26685600D01*
X4320000Y-26054800D01*
X5000800Y-26054800D01*
X5000800Y-26685600D01*
X5000800Y-26685600D01*
G37*
G36*
X5000800Y-25795600D02*
G01*
X4320000Y-25795600D01*
X4320000Y-25164800D01*
X5000800Y-25164800D01*
X5000800Y-25795600D01*
X5000800Y-25795600D01*
G37*
G36*
X25216180Y-25507460D02*
G01*
X24905380Y-25507460D01*
X24905380Y-24776660D01*
X25216180Y-24776660D01*
X25216180Y-25507460D01*
X25216180Y-25507460D01*
G37*
G36*
X24716180Y-25507460D02*
G01*
X24405380Y-25507460D01*
X24405380Y-24776660D01*
X24716180Y-24776660D01*
X24716180Y-25507460D01*
X24716180Y-25507460D01*
G37*
G36*
X24216180Y-25507460D02*
G01*
X23905380Y-25507460D01*
X23905380Y-24776660D01*
X24216180Y-24776660D01*
X24216180Y-25507460D01*
X24216180Y-25507460D01*
G37*
G36*
X27716180Y-25507460D02*
G01*
X27405380Y-25507460D01*
X27405380Y-24776660D01*
X27716180Y-24776660D01*
X27716180Y-25507460D01*
X27716180Y-25507460D01*
G37*
G36*
X27216180Y-25507460D02*
G01*
X26905380Y-25507460D01*
X26905380Y-24776660D01*
X27216180Y-24776660D01*
X27216180Y-25507460D01*
X27216180Y-25507460D01*
G37*
G36*
X26716180Y-25507460D02*
G01*
X26405380Y-25507460D01*
X26405380Y-24776660D01*
X26716180Y-24776660D01*
X26716180Y-25507460D01*
X26716180Y-25507460D01*
G37*
G36*
X25716180Y-25507460D02*
G01*
X25405380Y-25507460D01*
X25405380Y-24776660D01*
X25716180Y-24776660D01*
X25716180Y-25507460D01*
X25716180Y-25507460D01*
G37*
G36*
X26216180Y-25507460D02*
G01*
X25905380Y-25507460D01*
X25905380Y-24776660D01*
X26216180Y-24776660D01*
X26216180Y-25507460D01*
X26216180Y-25507460D01*
G37*
G36*
X10293870Y-24943780D02*
G01*
X10321241Y-24955117D01*
X10345875Y-24971576D01*
X10366824Y-24992525D01*
X10383283Y-25017159D01*
X10394620Y-25044530D01*
X10400400Y-25073587D01*
X10400400Y-25103213D01*
X10394620Y-25132270D01*
X10383283Y-25159641D01*
X10366824Y-25184275D01*
X10345875Y-25205224D01*
X10321241Y-25221683D01*
X10293870Y-25233020D01*
X10264813Y-25238800D01*
X10235187Y-25238800D01*
X10206130Y-25233020D01*
X10178759Y-25221683D01*
X10154125Y-25205224D01*
X10133176Y-25184275D01*
X10116717Y-25159641D01*
X10105380Y-25132270D01*
X10099600Y-25103213D01*
X10099600Y-25073587D01*
X10105380Y-25044530D01*
X10116717Y-25017159D01*
X10133176Y-24992525D01*
X10154125Y-24971576D01*
X10178759Y-24955117D01*
X10206130Y-24943780D01*
X10235187Y-24938000D01*
X10264813Y-24938000D01*
X10293870Y-24943780D01*
X10293870Y-24943780D01*
G37*
G36*
X11793870Y-24943780D02*
G01*
X11821241Y-24955117D01*
X11845875Y-24971576D01*
X11866824Y-24992525D01*
X11883283Y-25017159D01*
X11894620Y-25044530D01*
X11900400Y-25073587D01*
X11900400Y-25103213D01*
X11894620Y-25132270D01*
X11883283Y-25159641D01*
X11866824Y-25184275D01*
X11845875Y-25205224D01*
X11821241Y-25221683D01*
X11793870Y-25233020D01*
X11764813Y-25238800D01*
X11735187Y-25238800D01*
X11706130Y-25233020D01*
X11678759Y-25221683D01*
X11654125Y-25205224D01*
X11633176Y-25184275D01*
X11616717Y-25159641D01*
X11605380Y-25132270D01*
X11599600Y-25103213D01*
X11599600Y-25073587D01*
X11605380Y-25044530D01*
X11616717Y-25017159D01*
X11633176Y-24992525D01*
X11654125Y-24971576D01*
X11678759Y-24955117D01*
X11706130Y-24943780D01*
X11735187Y-24938000D01*
X11764813Y-24938000D01*
X11793870Y-24943780D01*
X11793870Y-24943780D01*
G37*
G36*
X11293870Y-24943780D02*
G01*
X11321241Y-24955117D01*
X11345875Y-24971576D01*
X11366824Y-24992525D01*
X11383283Y-25017159D01*
X11394620Y-25044530D01*
X11400400Y-25073587D01*
X11400400Y-25103213D01*
X11394620Y-25132270D01*
X11383283Y-25159641D01*
X11366824Y-25184275D01*
X11345875Y-25205224D01*
X11321241Y-25221683D01*
X11293870Y-25233020D01*
X11264813Y-25238800D01*
X11235187Y-25238800D01*
X11206130Y-25233020D01*
X11178759Y-25221683D01*
X11154125Y-25205224D01*
X11133176Y-25184275D01*
X11116717Y-25159641D01*
X11105380Y-25132270D01*
X11099600Y-25103213D01*
X11099600Y-25073587D01*
X11105380Y-25044530D01*
X11116717Y-25017159D01*
X11133176Y-24992525D01*
X11154125Y-24971576D01*
X11178759Y-24955117D01*
X11206130Y-24943780D01*
X11235187Y-24938000D01*
X11264813Y-24938000D01*
X11293870Y-24943780D01*
X11293870Y-24943780D01*
G37*
G36*
X10793870Y-24943780D02*
G01*
X10821241Y-24955117D01*
X10845875Y-24971576D01*
X10866824Y-24992525D01*
X10883283Y-25017159D01*
X10894620Y-25044530D01*
X10900400Y-25073587D01*
X10900400Y-25103213D01*
X10894620Y-25132270D01*
X10883283Y-25159641D01*
X10866824Y-25184275D01*
X10845875Y-25205224D01*
X10821241Y-25221683D01*
X10793870Y-25233020D01*
X10764813Y-25238800D01*
X10735187Y-25238800D01*
X10706130Y-25233020D01*
X10678759Y-25221683D01*
X10654125Y-25205224D01*
X10633176Y-25184275D01*
X10616717Y-25159641D01*
X10605380Y-25132270D01*
X10599600Y-25103213D01*
X10599600Y-25073587D01*
X10605380Y-25044530D01*
X10616717Y-25017159D01*
X10633176Y-24992525D01*
X10654125Y-24971576D01*
X10678759Y-24955117D01*
X10706130Y-24943780D01*
X10735187Y-24938000D01*
X10764813Y-24938000D01*
X10793870Y-24943780D01*
X10793870Y-24943780D01*
G37*
G36*
X9793870Y-24943780D02*
G01*
X9821241Y-24955117D01*
X9845875Y-24971576D01*
X9866824Y-24992525D01*
X9883283Y-25017159D01*
X9894620Y-25044530D01*
X9900400Y-25073587D01*
X9900400Y-25103213D01*
X9894620Y-25132270D01*
X9883283Y-25159641D01*
X9866824Y-25184275D01*
X9845875Y-25205224D01*
X9821241Y-25221683D01*
X9793870Y-25233020D01*
X9764813Y-25238800D01*
X9735187Y-25238800D01*
X9706130Y-25233020D01*
X9678759Y-25221683D01*
X9654125Y-25205224D01*
X9633176Y-25184275D01*
X9616717Y-25159641D01*
X9605380Y-25132270D01*
X9599600Y-25103213D01*
X9599600Y-25073587D01*
X9605380Y-25044530D01*
X9616717Y-25017159D01*
X9633176Y-24992525D01*
X9654125Y-24971576D01*
X9678759Y-24955117D01*
X9706130Y-24943780D01*
X9735187Y-24938000D01*
X9764813Y-24938000D01*
X9793870Y-24943780D01*
X9793870Y-24943780D01*
G37*
G36*
X9293870Y-24943780D02*
G01*
X9321241Y-24955117D01*
X9345875Y-24971576D01*
X9366824Y-24992525D01*
X9383283Y-25017159D01*
X9394620Y-25044530D01*
X9400400Y-25073587D01*
X9400400Y-25103213D01*
X9394620Y-25132270D01*
X9383283Y-25159641D01*
X9366824Y-25184275D01*
X9345875Y-25205224D01*
X9321241Y-25221683D01*
X9293870Y-25233020D01*
X9264813Y-25238800D01*
X9235187Y-25238800D01*
X9206130Y-25233020D01*
X9178759Y-25221683D01*
X9154125Y-25205224D01*
X9133176Y-25184275D01*
X9116717Y-25159641D01*
X9105380Y-25132270D01*
X9099600Y-25103213D01*
X9099600Y-25073587D01*
X9105380Y-25044530D01*
X9116717Y-25017159D01*
X9133176Y-24992525D01*
X9154125Y-24971576D01*
X9178759Y-24955117D01*
X9206130Y-24943780D01*
X9235187Y-24938000D01*
X9264813Y-24938000D01*
X9293870Y-24943780D01*
X9293870Y-24943780D01*
G37*
G36*
X8293870Y-24943780D02*
G01*
X8321241Y-24955117D01*
X8345875Y-24971576D01*
X8366824Y-24992525D01*
X8383283Y-25017159D01*
X8394620Y-25044530D01*
X8400400Y-25073587D01*
X8400400Y-25103213D01*
X8394620Y-25132270D01*
X8383283Y-25159641D01*
X8366824Y-25184275D01*
X8345875Y-25205224D01*
X8321241Y-25221683D01*
X8293870Y-25233020D01*
X8264813Y-25238800D01*
X8235187Y-25238800D01*
X8206130Y-25233020D01*
X8178759Y-25221683D01*
X8154125Y-25205224D01*
X8133176Y-25184275D01*
X8116717Y-25159641D01*
X8105380Y-25132270D01*
X8099600Y-25103213D01*
X8099600Y-25073587D01*
X8105380Y-25044530D01*
X8116717Y-25017159D01*
X8133176Y-24992525D01*
X8154125Y-24971576D01*
X8178759Y-24955117D01*
X8206130Y-24943780D01*
X8235187Y-24938000D01*
X8264813Y-24938000D01*
X8293870Y-24943780D01*
X8293870Y-24943780D01*
G37*
G36*
X7793870Y-24943780D02*
G01*
X7821241Y-24955117D01*
X7845875Y-24971576D01*
X7866824Y-24992525D01*
X7883283Y-25017159D01*
X7894620Y-25044530D01*
X7900400Y-25073587D01*
X7900400Y-25103213D01*
X7894620Y-25132270D01*
X7883283Y-25159641D01*
X7866824Y-25184275D01*
X7845875Y-25205224D01*
X7821241Y-25221683D01*
X7793870Y-25233020D01*
X7764813Y-25238800D01*
X7735187Y-25238800D01*
X7706130Y-25233020D01*
X7678759Y-25221683D01*
X7654125Y-25205224D01*
X7633176Y-25184275D01*
X7616717Y-25159641D01*
X7605380Y-25132270D01*
X7599600Y-25103213D01*
X7599600Y-25073587D01*
X7605380Y-25044530D01*
X7616717Y-25017159D01*
X7633176Y-24992525D01*
X7654125Y-24971576D01*
X7678759Y-24955117D01*
X7706130Y-24943780D01*
X7735187Y-24938000D01*
X7764813Y-24938000D01*
X7793870Y-24943780D01*
X7793870Y-24943780D01*
G37*
G36*
X7293870Y-24943780D02*
G01*
X7321241Y-24955117D01*
X7345875Y-24971576D01*
X7366824Y-24992525D01*
X7383283Y-25017159D01*
X7394620Y-25044530D01*
X7400400Y-25073587D01*
X7400400Y-25103213D01*
X7394620Y-25132270D01*
X7383283Y-25159641D01*
X7366824Y-25184275D01*
X7345875Y-25205224D01*
X7321241Y-25221683D01*
X7293870Y-25233020D01*
X7264813Y-25238800D01*
X7235187Y-25238800D01*
X7206130Y-25233020D01*
X7178759Y-25221683D01*
X7154125Y-25205224D01*
X7133176Y-25184275D01*
X7116717Y-25159641D01*
X7105380Y-25132270D01*
X7099600Y-25103213D01*
X7099600Y-25073587D01*
X7105380Y-25044530D01*
X7116717Y-25017159D01*
X7133176Y-24992525D01*
X7154125Y-24971576D01*
X7178759Y-24955117D01*
X7206130Y-24943780D01*
X7235187Y-24938000D01*
X7264813Y-24938000D01*
X7293870Y-24943780D01*
X7293870Y-24943780D01*
G37*
G36*
X6793870Y-24943780D02*
G01*
X6821241Y-24955117D01*
X6845875Y-24971576D01*
X6866824Y-24992525D01*
X6883283Y-25017159D01*
X6894620Y-25044530D01*
X6900400Y-25073587D01*
X6900400Y-25103213D01*
X6894620Y-25132270D01*
X6883283Y-25159641D01*
X6866824Y-25184275D01*
X6845875Y-25205224D01*
X6821241Y-25221683D01*
X6793870Y-25233020D01*
X6764813Y-25238800D01*
X6735187Y-25238800D01*
X6706130Y-25233020D01*
X6678759Y-25221683D01*
X6654125Y-25205224D01*
X6633176Y-25184275D01*
X6616717Y-25159641D01*
X6605380Y-25132270D01*
X6599600Y-25103213D01*
X6599600Y-25073587D01*
X6605380Y-25044530D01*
X6616717Y-25017159D01*
X6633176Y-24992525D01*
X6654125Y-24971576D01*
X6678759Y-24955117D01*
X6706130Y-24943780D01*
X6735187Y-24938000D01*
X6764813Y-24938000D01*
X6793870Y-24943780D01*
X6793870Y-24943780D01*
G37*
G36*
X8793870Y-24943780D02*
G01*
X8821241Y-24955117D01*
X8845875Y-24971576D01*
X8866824Y-24992525D01*
X8883283Y-25017159D01*
X8894620Y-25044530D01*
X8900400Y-25073587D01*
X8900400Y-25103213D01*
X8894620Y-25132270D01*
X8883283Y-25159641D01*
X8866824Y-25184275D01*
X8845875Y-25205224D01*
X8821241Y-25221683D01*
X8793870Y-25233020D01*
X8764813Y-25238800D01*
X8735187Y-25238800D01*
X8706130Y-25233020D01*
X8678759Y-25221683D01*
X8654125Y-25205224D01*
X8633176Y-25184275D01*
X8616717Y-25159641D01*
X8605380Y-25132270D01*
X8599600Y-25103213D01*
X8599600Y-25073587D01*
X8605380Y-25044530D01*
X8616717Y-25017159D01*
X8633176Y-24992525D01*
X8654125Y-24971576D01*
X8678759Y-24955117D01*
X8706130Y-24943780D01*
X8735187Y-24938000D01*
X8764813Y-24938000D01*
X8793870Y-24943780D01*
X8793870Y-24943780D01*
G37*
G36*
X5000800Y-24958400D02*
G01*
X4320000Y-24958400D01*
X4320000Y-24327600D01*
X5000800Y-24327600D01*
X5000800Y-24958400D01*
X5000800Y-24958400D01*
G37*
G36*
X22061780Y-24931460D02*
G01*
X21380980Y-24931460D01*
X21380980Y-24300660D01*
X22061780Y-24300660D01*
X22061780Y-24931460D01*
X22061780Y-24931460D01*
G37*
G36*
X8793870Y-24443780D02*
G01*
X8821241Y-24455117D01*
X8845875Y-24471576D01*
X8866824Y-24492525D01*
X8883283Y-24517159D01*
X8894620Y-24544530D01*
X8900400Y-24573587D01*
X8900400Y-24603213D01*
X8894620Y-24632270D01*
X8883283Y-24659641D01*
X8866824Y-24684275D01*
X8845875Y-24705224D01*
X8821241Y-24721683D01*
X8793870Y-24733020D01*
X8764813Y-24738800D01*
X8735187Y-24738800D01*
X8706130Y-24733020D01*
X8678759Y-24721683D01*
X8654125Y-24705224D01*
X8633176Y-24684275D01*
X8616717Y-24659641D01*
X8605380Y-24632270D01*
X8599600Y-24603213D01*
X8599600Y-24573587D01*
X8605380Y-24544530D01*
X8616717Y-24517159D01*
X8633176Y-24492525D01*
X8654125Y-24471576D01*
X8678759Y-24455117D01*
X8706130Y-24443780D01*
X8735187Y-24438000D01*
X8764813Y-24438000D01*
X8793870Y-24443780D01*
X8793870Y-24443780D01*
G37*
G36*
X8293870Y-24443780D02*
G01*
X8321241Y-24455117D01*
X8345875Y-24471576D01*
X8366824Y-24492525D01*
X8383283Y-24517159D01*
X8394620Y-24544530D01*
X8400400Y-24573587D01*
X8400400Y-24603213D01*
X8394620Y-24632270D01*
X8383283Y-24659641D01*
X8366824Y-24684275D01*
X8345875Y-24705224D01*
X8321241Y-24721683D01*
X8293870Y-24733020D01*
X8264813Y-24738800D01*
X8235187Y-24738800D01*
X8206130Y-24733020D01*
X8178759Y-24721683D01*
X8154125Y-24705224D01*
X8133176Y-24684275D01*
X8116717Y-24659641D01*
X8105380Y-24632270D01*
X8099600Y-24603213D01*
X8099600Y-24573587D01*
X8105380Y-24544530D01*
X8116717Y-24517159D01*
X8133176Y-24492525D01*
X8154125Y-24471576D01*
X8178759Y-24455117D01*
X8206130Y-24443780D01*
X8235187Y-24438000D01*
X8264813Y-24438000D01*
X8293870Y-24443780D01*
X8293870Y-24443780D01*
G37*
G36*
X7793870Y-24443780D02*
G01*
X7821241Y-24455117D01*
X7845875Y-24471576D01*
X7866824Y-24492525D01*
X7883283Y-24517159D01*
X7894620Y-24544530D01*
X7900400Y-24573587D01*
X7900400Y-24603213D01*
X7894620Y-24632270D01*
X7883283Y-24659641D01*
X7866824Y-24684275D01*
X7845875Y-24705224D01*
X7821241Y-24721683D01*
X7793870Y-24733020D01*
X7764813Y-24738800D01*
X7735187Y-24738800D01*
X7706130Y-24733020D01*
X7678759Y-24721683D01*
X7654125Y-24705224D01*
X7633176Y-24684275D01*
X7616717Y-24659641D01*
X7605380Y-24632270D01*
X7599600Y-24603213D01*
X7599600Y-24573587D01*
X7605380Y-24544530D01*
X7616717Y-24517159D01*
X7633176Y-24492525D01*
X7654125Y-24471576D01*
X7678759Y-24455117D01*
X7706130Y-24443780D01*
X7735187Y-24438000D01*
X7764813Y-24438000D01*
X7793870Y-24443780D01*
X7793870Y-24443780D01*
G37*
G36*
X7293870Y-24443780D02*
G01*
X7321241Y-24455117D01*
X7345875Y-24471576D01*
X7366824Y-24492525D01*
X7383283Y-24517159D01*
X7394620Y-24544530D01*
X7400400Y-24573587D01*
X7400400Y-24603213D01*
X7394620Y-24632270D01*
X7383283Y-24659641D01*
X7366824Y-24684275D01*
X7345875Y-24705224D01*
X7321241Y-24721683D01*
X7293870Y-24733020D01*
X7264813Y-24738800D01*
X7235187Y-24738800D01*
X7206130Y-24733020D01*
X7178759Y-24721683D01*
X7154125Y-24705224D01*
X7133176Y-24684275D01*
X7116717Y-24659641D01*
X7105380Y-24632270D01*
X7099600Y-24603213D01*
X7099600Y-24573587D01*
X7105380Y-24544530D01*
X7116717Y-24517159D01*
X7133176Y-24492525D01*
X7154125Y-24471576D01*
X7178759Y-24455117D01*
X7206130Y-24443780D01*
X7235187Y-24438000D01*
X7264813Y-24438000D01*
X7293870Y-24443780D01*
X7293870Y-24443780D01*
G37*
G36*
X9793870Y-24443780D02*
G01*
X9821241Y-24455117D01*
X9845875Y-24471576D01*
X9866824Y-24492525D01*
X9883283Y-24517159D01*
X9894620Y-24544530D01*
X9900400Y-24573587D01*
X9900400Y-24603213D01*
X9894620Y-24632270D01*
X9883283Y-24659641D01*
X9866824Y-24684275D01*
X9845875Y-24705224D01*
X9821241Y-24721683D01*
X9793870Y-24733020D01*
X9764813Y-24738800D01*
X9735187Y-24738800D01*
X9706130Y-24733020D01*
X9678759Y-24721683D01*
X9654125Y-24705224D01*
X9633176Y-24684275D01*
X9616717Y-24659641D01*
X9605380Y-24632270D01*
X9599600Y-24603213D01*
X9599600Y-24573587D01*
X9605380Y-24544530D01*
X9616717Y-24517159D01*
X9633176Y-24492525D01*
X9654125Y-24471576D01*
X9678759Y-24455117D01*
X9706130Y-24443780D01*
X9735187Y-24438000D01*
X9764813Y-24438000D01*
X9793870Y-24443780D01*
X9793870Y-24443780D01*
G37*
G36*
X6793870Y-24443780D02*
G01*
X6821241Y-24455117D01*
X6845875Y-24471576D01*
X6866824Y-24492525D01*
X6883283Y-24517159D01*
X6894620Y-24544530D01*
X6900400Y-24573587D01*
X6900400Y-24603213D01*
X6894620Y-24632270D01*
X6883283Y-24659641D01*
X6866824Y-24684275D01*
X6845875Y-24705224D01*
X6821241Y-24721683D01*
X6793870Y-24733020D01*
X6764813Y-24738800D01*
X6735187Y-24738800D01*
X6706130Y-24733020D01*
X6678759Y-24721683D01*
X6654125Y-24705224D01*
X6633176Y-24684275D01*
X6616717Y-24659641D01*
X6605380Y-24632270D01*
X6599600Y-24603213D01*
X6599600Y-24573587D01*
X6605380Y-24544530D01*
X6616717Y-24517159D01*
X6633176Y-24492525D01*
X6654125Y-24471576D01*
X6678759Y-24455117D01*
X6706130Y-24443780D01*
X6735187Y-24438000D01*
X6764813Y-24438000D01*
X6793870Y-24443780D01*
X6793870Y-24443780D01*
G37*
G36*
X10293870Y-24443780D02*
G01*
X10321241Y-24455117D01*
X10345875Y-24471576D01*
X10366824Y-24492525D01*
X10383283Y-24517159D01*
X10394620Y-24544530D01*
X10400400Y-24573587D01*
X10400400Y-24603213D01*
X10394620Y-24632270D01*
X10383283Y-24659641D01*
X10366824Y-24684275D01*
X10345875Y-24705224D01*
X10321241Y-24721683D01*
X10293870Y-24733020D01*
X10264813Y-24738800D01*
X10235187Y-24738800D01*
X10206130Y-24733020D01*
X10178759Y-24721683D01*
X10154125Y-24705224D01*
X10133176Y-24684275D01*
X10116717Y-24659641D01*
X10105380Y-24632270D01*
X10099600Y-24603213D01*
X10099600Y-24573587D01*
X10105380Y-24544530D01*
X10116717Y-24517159D01*
X10133176Y-24492525D01*
X10154125Y-24471576D01*
X10178759Y-24455117D01*
X10206130Y-24443780D01*
X10235187Y-24438000D01*
X10264813Y-24438000D01*
X10293870Y-24443780D01*
X10293870Y-24443780D01*
G37*
G36*
X10793870Y-24443780D02*
G01*
X10821241Y-24455117D01*
X10845875Y-24471576D01*
X10866824Y-24492525D01*
X10883283Y-24517159D01*
X10894620Y-24544530D01*
X10900400Y-24573587D01*
X10900400Y-24603213D01*
X10894620Y-24632270D01*
X10883283Y-24659641D01*
X10866824Y-24684275D01*
X10845875Y-24705224D01*
X10821241Y-24721683D01*
X10793870Y-24733020D01*
X10764813Y-24738800D01*
X10735187Y-24738800D01*
X10706130Y-24733020D01*
X10678759Y-24721683D01*
X10654125Y-24705224D01*
X10633176Y-24684275D01*
X10616717Y-24659641D01*
X10605380Y-24632270D01*
X10599600Y-24603213D01*
X10599600Y-24573587D01*
X10605380Y-24544530D01*
X10616717Y-24517159D01*
X10633176Y-24492525D01*
X10654125Y-24471576D01*
X10678759Y-24455117D01*
X10706130Y-24443780D01*
X10735187Y-24438000D01*
X10764813Y-24438000D01*
X10793870Y-24443780D01*
X10793870Y-24443780D01*
G37*
G36*
X9293870Y-24443780D02*
G01*
X9321241Y-24455117D01*
X9345875Y-24471576D01*
X9366824Y-24492525D01*
X9383283Y-24517159D01*
X9394620Y-24544530D01*
X9400400Y-24573587D01*
X9400400Y-24603213D01*
X9394620Y-24632270D01*
X9383283Y-24659641D01*
X9366824Y-24684275D01*
X9345875Y-24705224D01*
X9321241Y-24721683D01*
X9293870Y-24733020D01*
X9264813Y-24738800D01*
X9235187Y-24738800D01*
X9206130Y-24733020D01*
X9178759Y-24721683D01*
X9154125Y-24705224D01*
X9133176Y-24684275D01*
X9116717Y-24659641D01*
X9105380Y-24632270D01*
X9099600Y-24603213D01*
X9099600Y-24573587D01*
X9105380Y-24544530D01*
X9116717Y-24517159D01*
X9133176Y-24492525D01*
X9154125Y-24471576D01*
X9178759Y-24455117D01*
X9206130Y-24443780D01*
X9235187Y-24438000D01*
X9264813Y-24438000D01*
X9293870Y-24443780D01*
X9293870Y-24443780D01*
G37*
G36*
X11293870Y-24443780D02*
G01*
X11321241Y-24455117D01*
X11345875Y-24471576D01*
X11366824Y-24492525D01*
X11383283Y-24517159D01*
X11394620Y-24544530D01*
X11400400Y-24573587D01*
X11400400Y-24603213D01*
X11394620Y-24632270D01*
X11383283Y-24659641D01*
X11366824Y-24684275D01*
X11345875Y-24705224D01*
X11321241Y-24721683D01*
X11293870Y-24733020D01*
X11264813Y-24738800D01*
X11235187Y-24738800D01*
X11206130Y-24733020D01*
X11178759Y-24721683D01*
X11154125Y-24705224D01*
X11133176Y-24684275D01*
X11116717Y-24659641D01*
X11105380Y-24632270D01*
X11099600Y-24603213D01*
X11099600Y-24573587D01*
X11105380Y-24544530D01*
X11116717Y-24517159D01*
X11133176Y-24492525D01*
X11154125Y-24471576D01*
X11178759Y-24455117D01*
X11206130Y-24443780D01*
X11235187Y-24438000D01*
X11264813Y-24438000D01*
X11293870Y-24443780D01*
X11293870Y-24443780D01*
G37*
G36*
X11793870Y-24443780D02*
G01*
X11821241Y-24455117D01*
X11845875Y-24471576D01*
X11866824Y-24492525D01*
X11883283Y-24517159D01*
X11894620Y-24544530D01*
X11900400Y-24573587D01*
X11900400Y-24603213D01*
X11894620Y-24632270D01*
X11883283Y-24659641D01*
X11866824Y-24684275D01*
X11845875Y-24705224D01*
X11821241Y-24721683D01*
X11793870Y-24733020D01*
X11764813Y-24738800D01*
X11735187Y-24738800D01*
X11706130Y-24733020D01*
X11678759Y-24721683D01*
X11654125Y-24705224D01*
X11633176Y-24684275D01*
X11616717Y-24659641D01*
X11605380Y-24632270D01*
X11599600Y-24603213D01*
X11599600Y-24573587D01*
X11605380Y-24544530D01*
X11616717Y-24517159D01*
X11633176Y-24492525D01*
X11654125Y-24471576D01*
X11678759Y-24455117D01*
X11706130Y-24443780D01*
X11735187Y-24438000D01*
X11764813Y-24438000D01*
X11793870Y-24443780D01*
X11793870Y-24443780D01*
G37*
G36*
X28511180Y-24712460D02*
G01*
X27780380Y-24712460D01*
X27780380Y-24401660D01*
X28511180Y-24401660D01*
X28511180Y-24712460D01*
X28511180Y-24712460D01*
G37*
G36*
X23841180Y-24712460D02*
G01*
X23110380Y-24712460D01*
X23110380Y-24401660D01*
X23841180Y-24401660D01*
X23841180Y-24712460D01*
X23841180Y-24712460D01*
G37*
G36*
X27386180Y-24382460D02*
G01*
X24235380Y-24382460D01*
X24235380Y-21231660D01*
X27386180Y-21231660D01*
X27386180Y-24382460D01*
X27386180Y-24382460D01*
G37*
G36*
X8293870Y-23943780D02*
G01*
X8321241Y-23955117D01*
X8345875Y-23971576D01*
X8366824Y-23992525D01*
X8383283Y-24017159D01*
X8394620Y-24044530D01*
X8400400Y-24073587D01*
X8400400Y-24103213D01*
X8394620Y-24132270D01*
X8383283Y-24159641D01*
X8366824Y-24184275D01*
X8345875Y-24205224D01*
X8321241Y-24221683D01*
X8293870Y-24233020D01*
X8264813Y-24238800D01*
X8235187Y-24238800D01*
X8206130Y-24233020D01*
X8178759Y-24221683D01*
X8154125Y-24205224D01*
X8133176Y-24184275D01*
X8116717Y-24159641D01*
X8105380Y-24132270D01*
X8099600Y-24103213D01*
X8099600Y-24073587D01*
X8105380Y-24044530D01*
X8116717Y-24017159D01*
X8133176Y-23992525D01*
X8154125Y-23971576D01*
X8178759Y-23955117D01*
X8206130Y-23943780D01*
X8235187Y-23938000D01*
X8264813Y-23938000D01*
X8293870Y-23943780D01*
X8293870Y-23943780D01*
G37*
G36*
X11293870Y-23943780D02*
G01*
X11321241Y-23955117D01*
X11345875Y-23971576D01*
X11366824Y-23992525D01*
X11383283Y-24017159D01*
X11394620Y-24044530D01*
X11400400Y-24073587D01*
X11400400Y-24103213D01*
X11394620Y-24132270D01*
X11383283Y-24159641D01*
X11366824Y-24184275D01*
X11345875Y-24205224D01*
X11321241Y-24221683D01*
X11293870Y-24233020D01*
X11264813Y-24238800D01*
X11235187Y-24238800D01*
X11206130Y-24233020D01*
X11178759Y-24221683D01*
X11154125Y-24205224D01*
X11133176Y-24184275D01*
X11116717Y-24159641D01*
X11105380Y-24132270D01*
X11099600Y-24103213D01*
X11099600Y-24073587D01*
X11105380Y-24044530D01*
X11116717Y-24017159D01*
X11133176Y-23992525D01*
X11154125Y-23971576D01*
X11178759Y-23955117D01*
X11206130Y-23943780D01*
X11235187Y-23938000D01*
X11264813Y-23938000D01*
X11293870Y-23943780D01*
X11293870Y-23943780D01*
G37*
G36*
X10793870Y-23943780D02*
G01*
X10821241Y-23955117D01*
X10845875Y-23971576D01*
X10866824Y-23992525D01*
X10883283Y-24017159D01*
X10894620Y-24044530D01*
X10900400Y-24073587D01*
X10900400Y-24103213D01*
X10894620Y-24132270D01*
X10883283Y-24159641D01*
X10866824Y-24184275D01*
X10845875Y-24205224D01*
X10821241Y-24221683D01*
X10793870Y-24233020D01*
X10764813Y-24238800D01*
X10735187Y-24238800D01*
X10706130Y-24233020D01*
X10678759Y-24221683D01*
X10654125Y-24205224D01*
X10633176Y-24184275D01*
X10616717Y-24159641D01*
X10605380Y-24132270D01*
X10599600Y-24103213D01*
X10599600Y-24073587D01*
X10605380Y-24044530D01*
X10616717Y-24017159D01*
X10633176Y-23992525D01*
X10654125Y-23971576D01*
X10678759Y-23955117D01*
X10706130Y-23943780D01*
X10735187Y-23938000D01*
X10764813Y-23938000D01*
X10793870Y-23943780D01*
X10793870Y-23943780D01*
G37*
G36*
X10293870Y-23943780D02*
G01*
X10321241Y-23955117D01*
X10345875Y-23971576D01*
X10366824Y-23992525D01*
X10383283Y-24017159D01*
X10394620Y-24044530D01*
X10400400Y-24073587D01*
X10400400Y-24103213D01*
X10394620Y-24132270D01*
X10383283Y-24159641D01*
X10366824Y-24184275D01*
X10345875Y-24205224D01*
X10321241Y-24221683D01*
X10293870Y-24233020D01*
X10264813Y-24238800D01*
X10235187Y-24238800D01*
X10206130Y-24233020D01*
X10178759Y-24221683D01*
X10154125Y-24205224D01*
X10133176Y-24184275D01*
X10116717Y-24159641D01*
X10105380Y-24132270D01*
X10099600Y-24103213D01*
X10099600Y-24073587D01*
X10105380Y-24044530D01*
X10116717Y-24017159D01*
X10133176Y-23992525D01*
X10154125Y-23971576D01*
X10178759Y-23955117D01*
X10206130Y-23943780D01*
X10235187Y-23938000D01*
X10264813Y-23938000D01*
X10293870Y-23943780D01*
X10293870Y-23943780D01*
G37*
G36*
X6793870Y-23943780D02*
G01*
X6821241Y-23955117D01*
X6845875Y-23971576D01*
X6866824Y-23992525D01*
X6883283Y-24017159D01*
X6894620Y-24044530D01*
X6900400Y-24073587D01*
X6900400Y-24103213D01*
X6894620Y-24132270D01*
X6883283Y-24159641D01*
X6866824Y-24184275D01*
X6845875Y-24205224D01*
X6821241Y-24221683D01*
X6793870Y-24233020D01*
X6764813Y-24238800D01*
X6735187Y-24238800D01*
X6706130Y-24233020D01*
X6678759Y-24221683D01*
X6654125Y-24205224D01*
X6633176Y-24184275D01*
X6616717Y-24159641D01*
X6605380Y-24132270D01*
X6599600Y-24103213D01*
X6599600Y-24073587D01*
X6605380Y-24044530D01*
X6616717Y-24017159D01*
X6633176Y-23992525D01*
X6654125Y-23971576D01*
X6678759Y-23955117D01*
X6706130Y-23943780D01*
X6735187Y-23938000D01*
X6764813Y-23938000D01*
X6793870Y-23943780D01*
X6793870Y-23943780D01*
G37*
G36*
X7293870Y-23943780D02*
G01*
X7321241Y-23955117D01*
X7345875Y-23971576D01*
X7366824Y-23992525D01*
X7383283Y-24017159D01*
X7394620Y-24044530D01*
X7400400Y-24073587D01*
X7400400Y-24103213D01*
X7394620Y-24132270D01*
X7383283Y-24159641D01*
X7366824Y-24184275D01*
X7345875Y-24205224D01*
X7321241Y-24221683D01*
X7293870Y-24233020D01*
X7264813Y-24238800D01*
X7235187Y-24238800D01*
X7206130Y-24233020D01*
X7178759Y-24221683D01*
X7154125Y-24205224D01*
X7133176Y-24184275D01*
X7116717Y-24159641D01*
X7105380Y-24132270D01*
X7099600Y-24103213D01*
X7099600Y-24073587D01*
X7105380Y-24044530D01*
X7116717Y-24017159D01*
X7133176Y-23992525D01*
X7154125Y-23971576D01*
X7178759Y-23955117D01*
X7206130Y-23943780D01*
X7235187Y-23938000D01*
X7264813Y-23938000D01*
X7293870Y-23943780D01*
X7293870Y-23943780D01*
G37*
G36*
X7793870Y-23943780D02*
G01*
X7821241Y-23955117D01*
X7845875Y-23971576D01*
X7866824Y-23992525D01*
X7883283Y-24017159D01*
X7894620Y-24044530D01*
X7900400Y-24073587D01*
X7900400Y-24103213D01*
X7894620Y-24132270D01*
X7883283Y-24159641D01*
X7866824Y-24184275D01*
X7845875Y-24205224D01*
X7821241Y-24221683D01*
X7793870Y-24233020D01*
X7764813Y-24238800D01*
X7735187Y-24238800D01*
X7706130Y-24233020D01*
X7678759Y-24221683D01*
X7654125Y-24205224D01*
X7633176Y-24184275D01*
X7616717Y-24159641D01*
X7605380Y-24132270D01*
X7599600Y-24103213D01*
X7599600Y-24073587D01*
X7605380Y-24044530D01*
X7616717Y-24017159D01*
X7633176Y-23992525D01*
X7654125Y-23971576D01*
X7678759Y-23955117D01*
X7706130Y-23943780D01*
X7735187Y-23938000D01*
X7764813Y-23938000D01*
X7793870Y-23943780D01*
X7793870Y-23943780D01*
G37*
G36*
X8793870Y-23943780D02*
G01*
X8821241Y-23955117D01*
X8845875Y-23971576D01*
X8866824Y-23992525D01*
X8883283Y-24017159D01*
X8894620Y-24044530D01*
X8900400Y-24073587D01*
X8900400Y-24103213D01*
X8894620Y-24132270D01*
X8883283Y-24159641D01*
X8866824Y-24184275D01*
X8845875Y-24205224D01*
X8821241Y-24221683D01*
X8793870Y-24233020D01*
X8764813Y-24238800D01*
X8735187Y-24238800D01*
X8706130Y-24233020D01*
X8678759Y-24221683D01*
X8654125Y-24205224D01*
X8633176Y-24184275D01*
X8616717Y-24159641D01*
X8605380Y-24132270D01*
X8599600Y-24103213D01*
X8599600Y-24073587D01*
X8605380Y-24044530D01*
X8616717Y-24017159D01*
X8633176Y-23992525D01*
X8654125Y-23971576D01*
X8678759Y-23955117D01*
X8706130Y-23943780D01*
X8735187Y-23938000D01*
X8764813Y-23938000D01*
X8793870Y-23943780D01*
X8793870Y-23943780D01*
G37*
G36*
X9293870Y-23943780D02*
G01*
X9321241Y-23955117D01*
X9345875Y-23971576D01*
X9366824Y-23992525D01*
X9383283Y-24017159D01*
X9394620Y-24044530D01*
X9400400Y-24073587D01*
X9400400Y-24103213D01*
X9394620Y-24132270D01*
X9383283Y-24159641D01*
X9366824Y-24184275D01*
X9345875Y-24205224D01*
X9321241Y-24221683D01*
X9293870Y-24233020D01*
X9264813Y-24238800D01*
X9235187Y-24238800D01*
X9206130Y-24233020D01*
X9178759Y-24221683D01*
X9154125Y-24205224D01*
X9133176Y-24184275D01*
X9116717Y-24159641D01*
X9105380Y-24132270D01*
X9099600Y-24103213D01*
X9099600Y-24073587D01*
X9105380Y-24044530D01*
X9116717Y-24017159D01*
X9133176Y-23992525D01*
X9154125Y-23971576D01*
X9178759Y-23955117D01*
X9206130Y-23943780D01*
X9235187Y-23938000D01*
X9264813Y-23938000D01*
X9293870Y-23943780D01*
X9293870Y-23943780D01*
G37*
G36*
X9793870Y-23943780D02*
G01*
X9821241Y-23955117D01*
X9845875Y-23971576D01*
X9866824Y-23992525D01*
X9883283Y-24017159D01*
X9894620Y-24044530D01*
X9900400Y-24073587D01*
X9900400Y-24103213D01*
X9894620Y-24132270D01*
X9883283Y-24159641D01*
X9866824Y-24184275D01*
X9845875Y-24205224D01*
X9821241Y-24221683D01*
X9793870Y-24233020D01*
X9764813Y-24238800D01*
X9735187Y-24238800D01*
X9706130Y-24233020D01*
X9678759Y-24221683D01*
X9654125Y-24205224D01*
X9633176Y-24184275D01*
X9616717Y-24159641D01*
X9605380Y-24132270D01*
X9599600Y-24103213D01*
X9599600Y-24073587D01*
X9605380Y-24044530D01*
X9616717Y-24017159D01*
X9633176Y-23992525D01*
X9654125Y-23971576D01*
X9678759Y-23955117D01*
X9706130Y-23943780D01*
X9735187Y-23938000D01*
X9764813Y-23938000D01*
X9793870Y-23943780D01*
X9793870Y-23943780D01*
G37*
G36*
X11793870Y-23943780D02*
G01*
X11821241Y-23955117D01*
X11845875Y-23971576D01*
X11866824Y-23992525D01*
X11883283Y-24017159D01*
X11894620Y-24044530D01*
X11900400Y-24073587D01*
X11900400Y-24103213D01*
X11894620Y-24132270D01*
X11883283Y-24159641D01*
X11866824Y-24184275D01*
X11845875Y-24205224D01*
X11821241Y-24221683D01*
X11793870Y-24233020D01*
X11764813Y-24238800D01*
X11735187Y-24238800D01*
X11706130Y-24233020D01*
X11678759Y-24221683D01*
X11654125Y-24205224D01*
X11633176Y-24184275D01*
X11616717Y-24159641D01*
X11605380Y-24132270D01*
X11599600Y-24103213D01*
X11599600Y-24073587D01*
X11605380Y-24044530D01*
X11616717Y-24017159D01*
X11633176Y-23992525D01*
X11654125Y-23971576D01*
X11678759Y-23955117D01*
X11706130Y-23943780D01*
X11735187Y-23938000D01*
X11764813Y-23938000D01*
X11793870Y-23943780D01*
X11793870Y-23943780D01*
G37*
G36*
X28511180Y-24212460D02*
G01*
X27780380Y-24212460D01*
X27780380Y-23901660D01*
X28511180Y-23901660D01*
X28511180Y-24212460D01*
X28511180Y-24212460D01*
G37*
G36*
X23841180Y-24212460D02*
G01*
X23110380Y-24212460D01*
X23110380Y-23901660D01*
X23841180Y-23901660D01*
X23841180Y-24212460D01*
X23841180Y-24212460D01*
G37*
G36*
X5000800Y-24068400D02*
G01*
X4320000Y-24068400D01*
X4320000Y-23437600D01*
X5000800Y-23437600D01*
X5000800Y-24068400D01*
X5000800Y-24068400D01*
G37*
G36*
X22061780Y-24041460D02*
G01*
X21380980Y-24041460D01*
X21380980Y-23410660D01*
X22061780Y-23410660D01*
X22061780Y-24041460D01*
X22061780Y-24041460D01*
G37*
G36*
X7293870Y-23443780D02*
G01*
X7321241Y-23455117D01*
X7345875Y-23471576D01*
X7366824Y-23492525D01*
X7383283Y-23517159D01*
X7394620Y-23544530D01*
X7400400Y-23573587D01*
X7400400Y-23603213D01*
X7394620Y-23632270D01*
X7383283Y-23659641D01*
X7366824Y-23684275D01*
X7345875Y-23705224D01*
X7321241Y-23721683D01*
X7293870Y-23733020D01*
X7264813Y-23738800D01*
X7235187Y-23738800D01*
X7206130Y-23733020D01*
X7178759Y-23721683D01*
X7154125Y-23705224D01*
X7133176Y-23684275D01*
X7116717Y-23659641D01*
X7105380Y-23632270D01*
X7099600Y-23603213D01*
X7099600Y-23573587D01*
X7105380Y-23544530D01*
X7116717Y-23517159D01*
X7133176Y-23492525D01*
X7154125Y-23471576D01*
X7178759Y-23455117D01*
X7206130Y-23443780D01*
X7235187Y-23438000D01*
X7264813Y-23438000D01*
X7293870Y-23443780D01*
X7293870Y-23443780D01*
G37*
G36*
X11293870Y-23443780D02*
G01*
X11321241Y-23455117D01*
X11345875Y-23471576D01*
X11366824Y-23492525D01*
X11383283Y-23517159D01*
X11394620Y-23544530D01*
X11400400Y-23573587D01*
X11400400Y-23603213D01*
X11394620Y-23632270D01*
X11383283Y-23659641D01*
X11366824Y-23684275D01*
X11345875Y-23705224D01*
X11321241Y-23721683D01*
X11293870Y-23733020D01*
X11264813Y-23738800D01*
X11235187Y-23738800D01*
X11206130Y-23733020D01*
X11178759Y-23721683D01*
X11154125Y-23705224D01*
X11133176Y-23684275D01*
X11116717Y-23659641D01*
X11105380Y-23632270D01*
X11099600Y-23603213D01*
X11099600Y-23573587D01*
X11105380Y-23544530D01*
X11116717Y-23517159D01*
X11133176Y-23492525D01*
X11154125Y-23471576D01*
X11178759Y-23455117D01*
X11206130Y-23443780D01*
X11235187Y-23438000D01*
X11264813Y-23438000D01*
X11293870Y-23443780D01*
X11293870Y-23443780D01*
G37*
G36*
X6793870Y-23443780D02*
G01*
X6821241Y-23455117D01*
X6845875Y-23471576D01*
X6866824Y-23492525D01*
X6883283Y-23517159D01*
X6894620Y-23544530D01*
X6900400Y-23573587D01*
X6900400Y-23603213D01*
X6894620Y-23632270D01*
X6883283Y-23659641D01*
X6866824Y-23684275D01*
X6845875Y-23705224D01*
X6821241Y-23721683D01*
X6793870Y-23733020D01*
X6764813Y-23738800D01*
X6735187Y-23738800D01*
X6706130Y-23733020D01*
X6678759Y-23721683D01*
X6654125Y-23705224D01*
X6633176Y-23684275D01*
X6616717Y-23659641D01*
X6605380Y-23632270D01*
X6599600Y-23603213D01*
X6599600Y-23573587D01*
X6605380Y-23544530D01*
X6616717Y-23517159D01*
X6633176Y-23492525D01*
X6654125Y-23471576D01*
X6678759Y-23455117D01*
X6706130Y-23443780D01*
X6735187Y-23438000D01*
X6764813Y-23438000D01*
X6793870Y-23443780D01*
X6793870Y-23443780D01*
G37*
G36*
X11793870Y-23443780D02*
G01*
X11821241Y-23455117D01*
X11845875Y-23471576D01*
X11866824Y-23492525D01*
X11883283Y-23517159D01*
X11894620Y-23544530D01*
X11900400Y-23573587D01*
X11900400Y-23603213D01*
X11894620Y-23632270D01*
X11883283Y-23659641D01*
X11866824Y-23684275D01*
X11845875Y-23705224D01*
X11821241Y-23721683D01*
X11793870Y-23733020D01*
X11764813Y-23738800D01*
X11735187Y-23738800D01*
X11706130Y-23733020D01*
X11678759Y-23721683D01*
X11654125Y-23705224D01*
X11633176Y-23684275D01*
X11616717Y-23659641D01*
X11605380Y-23632270D01*
X11599600Y-23603213D01*
X11599600Y-23573587D01*
X11605380Y-23544530D01*
X11616717Y-23517159D01*
X11633176Y-23492525D01*
X11654125Y-23471576D01*
X11678759Y-23455117D01*
X11706130Y-23443780D01*
X11735187Y-23438000D01*
X11764813Y-23438000D01*
X11793870Y-23443780D01*
X11793870Y-23443780D01*
G37*
G36*
X28511180Y-23712460D02*
G01*
X27780380Y-23712460D01*
X27780380Y-23401660D01*
X28511180Y-23401660D01*
X28511180Y-23712460D01*
X28511180Y-23712460D01*
G37*
G36*
X23841180Y-23712460D02*
G01*
X23110380Y-23712460D01*
X23110380Y-23401660D01*
X23841180Y-23401660D01*
X23841180Y-23712460D01*
X23841180Y-23712460D01*
G37*
G36*
X11793870Y-22943780D02*
G01*
X11821241Y-22955117D01*
X11845875Y-22971576D01*
X11866824Y-22992525D01*
X11883283Y-23017159D01*
X11894620Y-23044530D01*
X11900400Y-23073587D01*
X11900400Y-23103213D01*
X11894620Y-23132270D01*
X11883283Y-23159641D01*
X11866824Y-23184275D01*
X11845875Y-23205224D01*
X11821241Y-23221683D01*
X11793870Y-23233020D01*
X11764813Y-23238800D01*
X11735187Y-23238800D01*
X11706130Y-23233020D01*
X11678759Y-23221683D01*
X11654125Y-23205224D01*
X11633176Y-23184275D01*
X11616717Y-23159641D01*
X11605380Y-23132270D01*
X11599600Y-23103213D01*
X11599600Y-23073587D01*
X11605380Y-23044530D01*
X11616717Y-23017159D01*
X11633176Y-22992525D01*
X11654125Y-22971576D01*
X11678759Y-22955117D01*
X11706130Y-22943780D01*
X11735187Y-22938000D01*
X11764813Y-22938000D01*
X11793870Y-22943780D01*
X11793870Y-22943780D01*
G37*
G36*
X6793870Y-22943780D02*
G01*
X6821241Y-22955117D01*
X6845875Y-22971576D01*
X6866824Y-22992525D01*
X6883283Y-23017159D01*
X6894620Y-23044530D01*
X6900400Y-23073587D01*
X6900400Y-23103213D01*
X6894620Y-23132270D01*
X6883283Y-23159641D01*
X6866824Y-23184275D01*
X6845875Y-23205224D01*
X6821241Y-23221683D01*
X6793870Y-23233020D01*
X6764813Y-23238800D01*
X6735187Y-23238800D01*
X6706130Y-23233020D01*
X6678759Y-23221683D01*
X6654125Y-23205224D01*
X6633176Y-23184275D01*
X6616717Y-23159641D01*
X6605380Y-23132270D01*
X6599600Y-23103213D01*
X6599600Y-23073587D01*
X6605380Y-23044530D01*
X6616717Y-23017159D01*
X6633176Y-22992525D01*
X6654125Y-22971576D01*
X6678759Y-22955117D01*
X6706130Y-22943780D01*
X6735187Y-22938000D01*
X6764813Y-22938000D01*
X6793870Y-22943780D01*
X6793870Y-22943780D01*
G37*
G36*
X11293870Y-22943780D02*
G01*
X11321241Y-22955117D01*
X11345875Y-22971576D01*
X11366824Y-22992525D01*
X11383283Y-23017159D01*
X11394620Y-23044530D01*
X11400400Y-23073587D01*
X11400400Y-23103213D01*
X11394620Y-23132270D01*
X11383283Y-23159641D01*
X11366824Y-23184275D01*
X11345875Y-23205224D01*
X11321241Y-23221683D01*
X11293870Y-23233020D01*
X11264813Y-23238800D01*
X11235187Y-23238800D01*
X11206130Y-23233020D01*
X11178759Y-23221683D01*
X11154125Y-23205224D01*
X11133176Y-23184275D01*
X11116717Y-23159641D01*
X11105380Y-23132270D01*
X11099600Y-23103213D01*
X11099600Y-23073587D01*
X11105380Y-23044530D01*
X11116717Y-23017159D01*
X11133176Y-22992525D01*
X11154125Y-22971576D01*
X11178759Y-22955117D01*
X11206130Y-22943780D01*
X11235187Y-22938000D01*
X11264813Y-22938000D01*
X11293870Y-22943780D01*
X11293870Y-22943780D01*
G37*
G36*
X7293870Y-22943780D02*
G01*
X7321241Y-22955117D01*
X7345875Y-22971576D01*
X7366824Y-22992525D01*
X7383283Y-23017159D01*
X7394620Y-23044530D01*
X7400400Y-23073587D01*
X7400400Y-23103213D01*
X7394620Y-23132270D01*
X7383283Y-23159641D01*
X7366824Y-23184275D01*
X7345875Y-23205224D01*
X7321241Y-23221683D01*
X7293870Y-23233020D01*
X7264813Y-23238800D01*
X7235187Y-23238800D01*
X7206130Y-23233020D01*
X7178759Y-23221683D01*
X7154125Y-23205224D01*
X7133176Y-23184275D01*
X7116717Y-23159641D01*
X7105380Y-23132270D01*
X7099600Y-23103213D01*
X7099600Y-23073587D01*
X7105380Y-23044530D01*
X7116717Y-23017159D01*
X7133176Y-22992525D01*
X7154125Y-22971576D01*
X7178759Y-22955117D01*
X7206130Y-22943780D01*
X7235187Y-22938000D01*
X7264813Y-22938000D01*
X7293870Y-22943780D01*
X7293870Y-22943780D01*
G37*
G36*
X5000800Y-23231200D02*
G01*
X4320000Y-23231200D01*
X4320000Y-22600400D01*
X5000800Y-22600400D01*
X5000800Y-23231200D01*
X5000800Y-23231200D01*
G37*
G36*
X23841180Y-23212460D02*
G01*
X23110380Y-23212460D01*
X23110380Y-22901660D01*
X23841180Y-22901660D01*
X23841180Y-23212460D01*
X23841180Y-23212460D01*
G37*
G36*
X28511180Y-23212460D02*
G01*
X27780380Y-23212460D01*
X27780380Y-22901660D01*
X28511180Y-22901660D01*
X28511180Y-23212460D01*
X28511180Y-23212460D01*
G37*
G36*
X11293870Y-22443780D02*
G01*
X11321241Y-22455117D01*
X11345875Y-22471576D01*
X11366824Y-22492525D01*
X11383283Y-22517159D01*
X11394620Y-22544530D01*
X11400400Y-22573587D01*
X11400400Y-22603213D01*
X11394620Y-22632270D01*
X11383283Y-22659641D01*
X11366824Y-22684275D01*
X11345875Y-22705224D01*
X11321241Y-22721683D01*
X11293870Y-22733020D01*
X11264813Y-22738800D01*
X11235187Y-22738800D01*
X11206130Y-22733020D01*
X11178759Y-22721683D01*
X11154125Y-22705224D01*
X11133176Y-22684275D01*
X11116717Y-22659641D01*
X11105380Y-22632270D01*
X11099600Y-22603213D01*
X11099600Y-22573587D01*
X11105380Y-22544530D01*
X11116717Y-22517159D01*
X11133176Y-22492525D01*
X11154125Y-22471576D01*
X11178759Y-22455117D01*
X11206130Y-22443780D01*
X11235187Y-22438000D01*
X11264813Y-22438000D01*
X11293870Y-22443780D01*
X11293870Y-22443780D01*
G37*
G36*
X11793870Y-22443780D02*
G01*
X11821241Y-22455117D01*
X11845875Y-22471576D01*
X11866824Y-22492525D01*
X11883283Y-22517159D01*
X11894620Y-22544530D01*
X11900400Y-22573587D01*
X11900400Y-22603213D01*
X11894620Y-22632270D01*
X11883283Y-22659641D01*
X11866824Y-22684275D01*
X11845875Y-22705224D01*
X11821241Y-22721683D01*
X11793870Y-22733020D01*
X11764813Y-22738800D01*
X11735187Y-22738800D01*
X11706130Y-22733020D01*
X11678759Y-22721683D01*
X11654125Y-22705224D01*
X11633176Y-22684275D01*
X11616717Y-22659641D01*
X11605380Y-22632270D01*
X11599600Y-22603213D01*
X11599600Y-22573587D01*
X11605380Y-22544530D01*
X11616717Y-22517159D01*
X11633176Y-22492525D01*
X11654125Y-22471576D01*
X11678759Y-22455117D01*
X11706130Y-22443780D01*
X11735187Y-22438000D01*
X11764813Y-22438000D01*
X11793870Y-22443780D01*
X11793870Y-22443780D01*
G37*
G36*
X7293870Y-22443780D02*
G01*
X7321241Y-22455117D01*
X7345875Y-22471576D01*
X7366824Y-22492525D01*
X7383283Y-22517159D01*
X7394620Y-22544530D01*
X7400400Y-22573587D01*
X7400400Y-22603213D01*
X7394620Y-22632270D01*
X7383283Y-22659641D01*
X7366824Y-22684275D01*
X7345875Y-22705224D01*
X7321241Y-22721683D01*
X7293870Y-22733020D01*
X7264813Y-22738800D01*
X7235187Y-22738800D01*
X7206130Y-22733020D01*
X7178759Y-22721683D01*
X7154125Y-22705224D01*
X7133176Y-22684275D01*
X7116717Y-22659641D01*
X7105380Y-22632270D01*
X7099600Y-22603213D01*
X7099600Y-22573587D01*
X7105380Y-22544530D01*
X7116717Y-22517159D01*
X7133176Y-22492525D01*
X7154125Y-22471576D01*
X7178759Y-22455117D01*
X7206130Y-22443780D01*
X7235187Y-22438000D01*
X7264813Y-22438000D01*
X7293870Y-22443780D01*
X7293870Y-22443780D01*
G37*
G36*
X6793870Y-22443780D02*
G01*
X6821241Y-22455117D01*
X6845875Y-22471576D01*
X6866824Y-22492525D01*
X6883283Y-22517159D01*
X6894620Y-22544530D01*
X6900400Y-22573587D01*
X6900400Y-22603213D01*
X6894620Y-22632270D01*
X6883283Y-22659641D01*
X6866824Y-22684275D01*
X6845875Y-22705224D01*
X6821241Y-22721683D01*
X6793870Y-22733020D01*
X6764813Y-22738800D01*
X6735187Y-22738800D01*
X6706130Y-22733020D01*
X6678759Y-22721683D01*
X6654125Y-22705224D01*
X6633176Y-22684275D01*
X6616717Y-22659641D01*
X6605380Y-22632270D01*
X6599600Y-22603213D01*
X6599600Y-22573587D01*
X6605380Y-22544530D01*
X6616717Y-22517159D01*
X6633176Y-22492525D01*
X6654125Y-22471576D01*
X6678759Y-22455117D01*
X6706130Y-22443780D01*
X6735187Y-22438000D01*
X6764813Y-22438000D01*
X6793870Y-22443780D01*
X6793870Y-22443780D01*
G37*
G36*
X23841180Y-22712460D02*
G01*
X23110380Y-22712460D01*
X23110380Y-22401660D01*
X23841180Y-22401660D01*
X23841180Y-22712460D01*
X23841180Y-22712460D01*
G37*
G36*
X28511180Y-22712460D02*
G01*
X27780380Y-22712460D01*
X27780380Y-22401660D01*
X28511180Y-22401660D01*
X28511180Y-22712460D01*
X28511180Y-22712460D01*
G37*
G36*
X5000800Y-22341200D02*
G01*
X4320000Y-22341200D01*
X4320000Y-21710400D01*
X5000800Y-21710400D01*
X5000800Y-22341200D01*
X5000800Y-22341200D01*
G37*
G36*
X9293870Y-21943780D02*
G01*
X9321241Y-21955117D01*
X9345875Y-21971576D01*
X9366824Y-21992525D01*
X9383283Y-22017159D01*
X9394620Y-22044530D01*
X9400400Y-22073587D01*
X9400400Y-22103213D01*
X9394620Y-22132270D01*
X9383283Y-22159641D01*
X9366824Y-22184275D01*
X9345875Y-22205224D01*
X9321241Y-22221683D01*
X9293870Y-22233020D01*
X9264813Y-22238800D01*
X9235187Y-22238800D01*
X9206130Y-22233020D01*
X9178759Y-22221683D01*
X9154125Y-22205224D01*
X9133176Y-22184275D01*
X9116717Y-22159641D01*
X9105380Y-22132270D01*
X9099600Y-22103213D01*
X9099600Y-22073587D01*
X9105380Y-22044530D01*
X9116717Y-22017159D01*
X9133176Y-21992525D01*
X9154125Y-21971576D01*
X9178759Y-21955117D01*
X9206130Y-21943780D01*
X9235187Y-21938000D01*
X9264813Y-21938000D01*
X9293870Y-21943780D01*
X9293870Y-21943780D01*
G37*
G36*
X9793870Y-21943780D02*
G01*
X9821241Y-21955117D01*
X9845875Y-21971576D01*
X9866824Y-21992525D01*
X9883283Y-22017159D01*
X9894620Y-22044530D01*
X9900400Y-22073587D01*
X9900400Y-22103213D01*
X9894620Y-22132270D01*
X9883283Y-22159641D01*
X9866824Y-22184275D01*
X9845875Y-22205224D01*
X9821241Y-22221683D01*
X9793870Y-22233020D01*
X9764813Y-22238800D01*
X9735187Y-22238800D01*
X9706130Y-22233020D01*
X9678759Y-22221683D01*
X9654125Y-22205224D01*
X9633176Y-22184275D01*
X9616717Y-22159641D01*
X9605380Y-22132270D01*
X9599600Y-22103213D01*
X9599600Y-22073587D01*
X9605380Y-22044530D01*
X9616717Y-22017159D01*
X9633176Y-21992525D01*
X9654125Y-21971576D01*
X9678759Y-21955117D01*
X9706130Y-21943780D01*
X9735187Y-21938000D01*
X9764813Y-21938000D01*
X9793870Y-21943780D01*
X9793870Y-21943780D01*
G37*
G36*
X10293870Y-21943780D02*
G01*
X10321241Y-21955117D01*
X10345875Y-21971576D01*
X10366824Y-21992525D01*
X10383283Y-22017159D01*
X10394620Y-22044530D01*
X10400400Y-22073587D01*
X10400400Y-22103213D01*
X10394620Y-22132270D01*
X10383283Y-22159641D01*
X10366824Y-22184275D01*
X10345875Y-22205224D01*
X10321241Y-22221683D01*
X10293870Y-22233020D01*
X10264813Y-22238800D01*
X10235187Y-22238800D01*
X10206130Y-22233020D01*
X10178759Y-22221683D01*
X10154125Y-22205224D01*
X10133176Y-22184275D01*
X10116717Y-22159641D01*
X10105380Y-22132270D01*
X10099600Y-22103213D01*
X10099600Y-22073587D01*
X10105380Y-22044530D01*
X10116717Y-22017159D01*
X10133176Y-21992525D01*
X10154125Y-21971576D01*
X10178759Y-21955117D01*
X10206130Y-21943780D01*
X10235187Y-21938000D01*
X10264813Y-21938000D01*
X10293870Y-21943780D01*
X10293870Y-21943780D01*
G37*
G36*
X11293870Y-21943780D02*
G01*
X11321241Y-21955117D01*
X11345875Y-21971576D01*
X11366824Y-21992525D01*
X11383283Y-22017159D01*
X11394620Y-22044530D01*
X11400400Y-22073587D01*
X11400400Y-22103213D01*
X11394620Y-22132270D01*
X11383283Y-22159641D01*
X11366824Y-22184275D01*
X11345875Y-22205224D01*
X11321241Y-22221683D01*
X11293870Y-22233020D01*
X11264813Y-22238800D01*
X11235187Y-22238800D01*
X11206130Y-22233020D01*
X11178759Y-22221683D01*
X11154125Y-22205224D01*
X11133176Y-22184275D01*
X11116717Y-22159641D01*
X11105380Y-22132270D01*
X11099600Y-22103213D01*
X11099600Y-22073587D01*
X11105380Y-22044530D01*
X11116717Y-22017159D01*
X11133176Y-21992525D01*
X11154125Y-21971576D01*
X11178759Y-21955117D01*
X11206130Y-21943780D01*
X11235187Y-21938000D01*
X11264813Y-21938000D01*
X11293870Y-21943780D01*
X11293870Y-21943780D01*
G37*
G36*
X10793870Y-21943780D02*
G01*
X10821241Y-21955117D01*
X10845875Y-21971576D01*
X10866824Y-21992525D01*
X10883283Y-22017159D01*
X10894620Y-22044530D01*
X10900400Y-22073587D01*
X10900400Y-22103213D01*
X10894620Y-22132270D01*
X10883283Y-22159641D01*
X10866824Y-22184275D01*
X10845875Y-22205224D01*
X10821241Y-22221683D01*
X10793870Y-22233020D01*
X10764813Y-22238800D01*
X10735187Y-22238800D01*
X10706130Y-22233020D01*
X10678759Y-22221683D01*
X10654125Y-22205224D01*
X10633176Y-22184275D01*
X10616717Y-22159641D01*
X10605380Y-22132270D01*
X10599600Y-22103213D01*
X10599600Y-22073587D01*
X10605380Y-22044530D01*
X10616717Y-22017159D01*
X10633176Y-21992525D01*
X10654125Y-21971576D01*
X10678759Y-21955117D01*
X10706130Y-21943780D01*
X10735187Y-21938000D01*
X10764813Y-21938000D01*
X10793870Y-21943780D01*
X10793870Y-21943780D01*
G37*
G36*
X7293870Y-21943780D02*
G01*
X7321241Y-21955117D01*
X7345875Y-21971576D01*
X7366824Y-21992525D01*
X7383283Y-22017159D01*
X7394620Y-22044530D01*
X7400400Y-22073587D01*
X7400400Y-22103213D01*
X7394620Y-22132270D01*
X7383283Y-22159641D01*
X7366824Y-22184275D01*
X7345875Y-22205224D01*
X7321241Y-22221683D01*
X7293870Y-22233020D01*
X7264813Y-22238800D01*
X7235187Y-22238800D01*
X7206130Y-22233020D01*
X7178759Y-22221683D01*
X7154125Y-22205224D01*
X7133176Y-22184275D01*
X7116717Y-22159641D01*
X7105380Y-22132270D01*
X7099600Y-22103213D01*
X7099600Y-22073587D01*
X7105380Y-22044530D01*
X7116717Y-22017159D01*
X7133176Y-21992525D01*
X7154125Y-21971576D01*
X7178759Y-21955117D01*
X7206130Y-21943780D01*
X7235187Y-21938000D01*
X7264813Y-21938000D01*
X7293870Y-21943780D01*
X7293870Y-21943780D01*
G37*
G36*
X7793870Y-21943780D02*
G01*
X7821241Y-21955117D01*
X7845875Y-21971576D01*
X7866824Y-21992525D01*
X7883283Y-22017159D01*
X7894620Y-22044530D01*
X7900400Y-22073587D01*
X7900400Y-22103213D01*
X7894620Y-22132270D01*
X7883283Y-22159641D01*
X7866824Y-22184275D01*
X7845875Y-22205224D01*
X7821241Y-22221683D01*
X7793870Y-22233020D01*
X7764813Y-22238800D01*
X7735187Y-22238800D01*
X7706130Y-22233020D01*
X7678759Y-22221683D01*
X7654125Y-22205224D01*
X7633176Y-22184275D01*
X7616717Y-22159641D01*
X7605380Y-22132270D01*
X7599600Y-22103213D01*
X7599600Y-22073587D01*
X7605380Y-22044530D01*
X7616717Y-22017159D01*
X7633176Y-21992525D01*
X7654125Y-21971576D01*
X7678759Y-21955117D01*
X7706130Y-21943780D01*
X7735187Y-21938000D01*
X7764813Y-21938000D01*
X7793870Y-21943780D01*
X7793870Y-21943780D01*
G37*
G36*
X6793870Y-21943780D02*
G01*
X6821241Y-21955117D01*
X6845875Y-21971576D01*
X6866824Y-21992525D01*
X6883283Y-22017159D01*
X6894620Y-22044530D01*
X6900400Y-22073587D01*
X6900400Y-22103213D01*
X6894620Y-22132270D01*
X6883283Y-22159641D01*
X6866824Y-22184275D01*
X6845875Y-22205224D01*
X6821241Y-22221683D01*
X6793870Y-22233020D01*
X6764813Y-22238800D01*
X6735187Y-22238800D01*
X6706130Y-22233020D01*
X6678759Y-22221683D01*
X6654125Y-22205224D01*
X6633176Y-22184275D01*
X6616717Y-22159641D01*
X6605380Y-22132270D01*
X6599600Y-22103213D01*
X6599600Y-22073587D01*
X6605380Y-22044530D01*
X6616717Y-22017159D01*
X6633176Y-21992525D01*
X6654125Y-21971576D01*
X6678759Y-21955117D01*
X6706130Y-21943780D01*
X6735187Y-21938000D01*
X6764813Y-21938000D01*
X6793870Y-21943780D01*
X6793870Y-21943780D01*
G37*
G36*
X11793870Y-21943780D02*
G01*
X11821241Y-21955117D01*
X11845875Y-21971576D01*
X11866824Y-21992525D01*
X11883283Y-22017159D01*
X11894620Y-22044530D01*
X11900400Y-22073587D01*
X11900400Y-22103213D01*
X11894620Y-22132270D01*
X11883283Y-22159641D01*
X11866824Y-22184275D01*
X11845875Y-22205224D01*
X11821241Y-22221683D01*
X11793870Y-22233020D01*
X11764813Y-22238800D01*
X11735187Y-22238800D01*
X11706130Y-22233020D01*
X11678759Y-22221683D01*
X11654125Y-22205224D01*
X11633176Y-22184275D01*
X11616717Y-22159641D01*
X11605380Y-22132270D01*
X11599600Y-22103213D01*
X11599600Y-22073587D01*
X11605380Y-22044530D01*
X11616717Y-22017159D01*
X11633176Y-21992525D01*
X11654125Y-21971576D01*
X11678759Y-21955117D01*
X11706130Y-21943780D01*
X11735187Y-21938000D01*
X11764813Y-21938000D01*
X11793870Y-21943780D01*
X11793870Y-21943780D01*
G37*
G36*
X8793870Y-21943780D02*
G01*
X8821241Y-21955117D01*
X8845875Y-21971576D01*
X8866824Y-21992525D01*
X8883283Y-22017159D01*
X8894620Y-22044530D01*
X8900400Y-22073587D01*
X8900400Y-22103213D01*
X8894620Y-22132270D01*
X8883283Y-22159641D01*
X8866824Y-22184275D01*
X8845875Y-22205224D01*
X8821241Y-22221683D01*
X8793870Y-22233020D01*
X8764813Y-22238800D01*
X8735187Y-22238800D01*
X8706130Y-22233020D01*
X8678759Y-22221683D01*
X8654125Y-22205224D01*
X8633176Y-22184275D01*
X8616717Y-22159641D01*
X8605380Y-22132270D01*
X8599600Y-22103213D01*
X8599600Y-22073587D01*
X8605380Y-22044530D01*
X8616717Y-22017159D01*
X8633176Y-21992525D01*
X8654125Y-21971576D01*
X8678759Y-21955117D01*
X8706130Y-21943780D01*
X8735187Y-21938000D01*
X8764813Y-21938000D01*
X8793870Y-21943780D01*
X8793870Y-21943780D01*
G37*
G36*
X8293870Y-21943780D02*
G01*
X8321241Y-21955117D01*
X8345875Y-21971576D01*
X8366824Y-21992525D01*
X8383283Y-22017159D01*
X8394620Y-22044530D01*
X8400400Y-22073587D01*
X8400400Y-22103213D01*
X8394620Y-22132270D01*
X8383283Y-22159641D01*
X8366824Y-22184275D01*
X8345875Y-22205224D01*
X8321241Y-22221683D01*
X8293870Y-22233020D01*
X8264813Y-22238800D01*
X8235187Y-22238800D01*
X8206130Y-22233020D01*
X8178759Y-22221683D01*
X8154125Y-22205224D01*
X8133176Y-22184275D01*
X8116717Y-22159641D01*
X8105380Y-22132270D01*
X8099600Y-22103213D01*
X8099600Y-22073587D01*
X8105380Y-22044530D01*
X8116717Y-22017159D01*
X8133176Y-21992525D01*
X8154125Y-21971576D01*
X8178759Y-21955117D01*
X8206130Y-21943780D01*
X8235187Y-21938000D01*
X8264813Y-21938000D01*
X8293870Y-21943780D01*
X8293870Y-21943780D01*
G37*
G36*
X23841180Y-22212460D02*
G01*
X23110380Y-22212460D01*
X23110380Y-21901660D01*
X23841180Y-21901660D01*
X23841180Y-22212460D01*
X23841180Y-22212460D01*
G37*
G36*
X28511180Y-22212460D02*
G01*
X27780380Y-22212460D01*
X27780380Y-21901660D01*
X28511180Y-21901660D01*
X28511180Y-22212460D01*
X28511180Y-22212460D01*
G37*
G36*
X7293870Y-21443780D02*
G01*
X7321241Y-21455117D01*
X7345875Y-21471576D01*
X7366824Y-21492525D01*
X7383283Y-21517159D01*
X7394620Y-21544530D01*
X7400400Y-21573587D01*
X7400400Y-21603213D01*
X7394620Y-21632270D01*
X7383283Y-21659641D01*
X7366824Y-21684275D01*
X7345875Y-21705224D01*
X7321241Y-21721683D01*
X7293870Y-21733020D01*
X7264813Y-21738800D01*
X7235187Y-21738800D01*
X7206130Y-21733020D01*
X7178759Y-21721683D01*
X7154125Y-21705224D01*
X7133176Y-21684275D01*
X7116717Y-21659641D01*
X7105380Y-21632270D01*
X7099600Y-21603213D01*
X7099600Y-21573587D01*
X7105380Y-21544530D01*
X7116717Y-21517159D01*
X7133176Y-21492525D01*
X7154125Y-21471576D01*
X7178759Y-21455117D01*
X7206130Y-21443780D01*
X7235187Y-21438000D01*
X7264813Y-21438000D01*
X7293870Y-21443780D01*
X7293870Y-21443780D01*
G37*
G36*
X11793870Y-21443780D02*
G01*
X11821241Y-21455117D01*
X11845875Y-21471576D01*
X11866824Y-21492525D01*
X11883283Y-21517159D01*
X11894620Y-21544530D01*
X11900400Y-21573587D01*
X11900400Y-21603213D01*
X11894620Y-21632270D01*
X11883283Y-21659641D01*
X11866824Y-21684275D01*
X11845875Y-21705224D01*
X11821241Y-21721683D01*
X11793870Y-21733020D01*
X11764813Y-21738800D01*
X11735187Y-21738800D01*
X11706130Y-21733020D01*
X11678759Y-21721683D01*
X11654125Y-21705224D01*
X11633176Y-21684275D01*
X11616717Y-21659641D01*
X11605380Y-21632270D01*
X11599600Y-21603213D01*
X11599600Y-21573587D01*
X11605380Y-21544530D01*
X11616717Y-21517159D01*
X11633176Y-21492525D01*
X11654125Y-21471576D01*
X11678759Y-21455117D01*
X11706130Y-21443780D01*
X11735187Y-21438000D01*
X11764813Y-21438000D01*
X11793870Y-21443780D01*
X11793870Y-21443780D01*
G37*
G36*
X11293870Y-21443780D02*
G01*
X11321241Y-21455117D01*
X11345875Y-21471576D01*
X11366824Y-21492525D01*
X11383283Y-21517159D01*
X11394620Y-21544530D01*
X11400400Y-21573587D01*
X11400400Y-21603213D01*
X11394620Y-21632270D01*
X11383283Y-21659641D01*
X11366824Y-21684275D01*
X11345875Y-21705224D01*
X11321241Y-21721683D01*
X11293870Y-21733020D01*
X11264813Y-21738800D01*
X11235187Y-21738800D01*
X11206130Y-21733020D01*
X11178759Y-21721683D01*
X11154125Y-21705224D01*
X11133176Y-21684275D01*
X11116717Y-21659641D01*
X11105380Y-21632270D01*
X11099600Y-21603213D01*
X11099600Y-21573587D01*
X11105380Y-21544530D01*
X11116717Y-21517159D01*
X11133176Y-21492525D01*
X11154125Y-21471576D01*
X11178759Y-21455117D01*
X11206130Y-21443780D01*
X11235187Y-21438000D01*
X11264813Y-21438000D01*
X11293870Y-21443780D01*
X11293870Y-21443780D01*
G37*
G36*
X10793870Y-21443780D02*
G01*
X10821241Y-21455117D01*
X10845875Y-21471576D01*
X10866824Y-21492525D01*
X10883283Y-21517159D01*
X10894620Y-21544530D01*
X10900400Y-21573587D01*
X10900400Y-21603213D01*
X10894620Y-21632270D01*
X10883283Y-21659641D01*
X10866824Y-21684275D01*
X10845875Y-21705224D01*
X10821241Y-21721683D01*
X10793870Y-21733020D01*
X10764813Y-21738800D01*
X10735187Y-21738800D01*
X10706130Y-21733020D01*
X10678759Y-21721683D01*
X10654125Y-21705224D01*
X10633176Y-21684275D01*
X10616717Y-21659641D01*
X10605380Y-21632270D01*
X10599600Y-21603213D01*
X10599600Y-21573587D01*
X10605380Y-21544530D01*
X10616717Y-21517159D01*
X10633176Y-21492525D01*
X10654125Y-21471576D01*
X10678759Y-21455117D01*
X10706130Y-21443780D01*
X10735187Y-21438000D01*
X10764813Y-21438000D01*
X10793870Y-21443780D01*
X10793870Y-21443780D01*
G37*
G36*
X9793870Y-21443780D02*
G01*
X9821241Y-21455117D01*
X9845875Y-21471576D01*
X9866824Y-21492525D01*
X9883283Y-21517159D01*
X9894620Y-21544530D01*
X9900400Y-21573587D01*
X9900400Y-21603213D01*
X9894620Y-21632270D01*
X9883283Y-21659641D01*
X9866824Y-21684275D01*
X9845875Y-21705224D01*
X9821241Y-21721683D01*
X9793870Y-21733020D01*
X9764813Y-21738800D01*
X9735187Y-21738800D01*
X9706130Y-21733020D01*
X9678759Y-21721683D01*
X9654125Y-21705224D01*
X9633176Y-21684275D01*
X9616717Y-21659641D01*
X9605380Y-21632270D01*
X9599600Y-21603213D01*
X9599600Y-21573587D01*
X9605380Y-21544530D01*
X9616717Y-21517159D01*
X9633176Y-21492525D01*
X9654125Y-21471576D01*
X9678759Y-21455117D01*
X9706130Y-21443780D01*
X9735187Y-21438000D01*
X9764813Y-21438000D01*
X9793870Y-21443780D01*
X9793870Y-21443780D01*
G37*
G36*
X6793870Y-21443780D02*
G01*
X6821241Y-21455117D01*
X6845875Y-21471576D01*
X6866824Y-21492525D01*
X6883283Y-21517159D01*
X6894620Y-21544530D01*
X6900400Y-21573587D01*
X6900400Y-21603213D01*
X6894620Y-21632270D01*
X6883283Y-21659641D01*
X6866824Y-21684275D01*
X6845875Y-21705224D01*
X6821241Y-21721683D01*
X6793870Y-21733020D01*
X6764813Y-21738800D01*
X6735187Y-21738800D01*
X6706130Y-21733020D01*
X6678759Y-21721683D01*
X6654125Y-21705224D01*
X6633176Y-21684275D01*
X6616717Y-21659641D01*
X6605380Y-21632270D01*
X6599600Y-21603213D01*
X6599600Y-21573587D01*
X6605380Y-21544530D01*
X6616717Y-21517159D01*
X6633176Y-21492525D01*
X6654125Y-21471576D01*
X6678759Y-21455117D01*
X6706130Y-21443780D01*
X6735187Y-21438000D01*
X6764813Y-21438000D01*
X6793870Y-21443780D01*
X6793870Y-21443780D01*
G37*
G36*
X8793870Y-21443780D02*
G01*
X8821241Y-21455117D01*
X8845875Y-21471576D01*
X8866824Y-21492525D01*
X8883283Y-21517159D01*
X8894620Y-21544530D01*
X8900400Y-21573587D01*
X8900400Y-21603213D01*
X8894620Y-21632270D01*
X8883283Y-21659641D01*
X8866824Y-21684275D01*
X8845875Y-21705224D01*
X8821241Y-21721683D01*
X8793870Y-21733020D01*
X8764813Y-21738800D01*
X8735187Y-21738800D01*
X8706130Y-21733020D01*
X8678759Y-21721683D01*
X8654125Y-21705224D01*
X8633176Y-21684275D01*
X8616717Y-21659641D01*
X8605380Y-21632270D01*
X8599600Y-21603213D01*
X8599600Y-21573587D01*
X8605380Y-21544530D01*
X8616717Y-21517159D01*
X8633176Y-21492525D01*
X8654125Y-21471576D01*
X8678759Y-21455117D01*
X8706130Y-21443780D01*
X8735187Y-21438000D01*
X8764813Y-21438000D01*
X8793870Y-21443780D01*
X8793870Y-21443780D01*
G37*
G36*
X8293870Y-21443780D02*
G01*
X8321241Y-21455117D01*
X8345875Y-21471576D01*
X8366824Y-21492525D01*
X8383283Y-21517159D01*
X8394620Y-21544530D01*
X8400400Y-21573587D01*
X8400400Y-21603213D01*
X8394620Y-21632270D01*
X8383283Y-21659641D01*
X8366824Y-21684275D01*
X8345875Y-21705224D01*
X8321241Y-21721683D01*
X8293870Y-21733020D01*
X8264813Y-21738800D01*
X8235187Y-21738800D01*
X8206130Y-21733020D01*
X8178759Y-21721683D01*
X8154125Y-21705224D01*
X8133176Y-21684275D01*
X8116717Y-21659641D01*
X8105380Y-21632270D01*
X8099600Y-21603213D01*
X8099600Y-21573587D01*
X8105380Y-21544530D01*
X8116717Y-21517159D01*
X8133176Y-21492525D01*
X8154125Y-21471576D01*
X8178759Y-21455117D01*
X8206130Y-21443780D01*
X8235187Y-21438000D01*
X8264813Y-21438000D01*
X8293870Y-21443780D01*
X8293870Y-21443780D01*
G37*
G36*
X7793870Y-21443780D02*
G01*
X7821241Y-21455117D01*
X7845875Y-21471576D01*
X7866824Y-21492525D01*
X7883283Y-21517159D01*
X7894620Y-21544530D01*
X7900400Y-21573587D01*
X7900400Y-21603213D01*
X7894620Y-21632270D01*
X7883283Y-21659641D01*
X7866824Y-21684275D01*
X7845875Y-21705224D01*
X7821241Y-21721683D01*
X7793870Y-21733020D01*
X7764813Y-21738800D01*
X7735187Y-21738800D01*
X7706130Y-21733020D01*
X7678759Y-21721683D01*
X7654125Y-21705224D01*
X7633176Y-21684275D01*
X7616717Y-21659641D01*
X7605380Y-21632270D01*
X7599600Y-21603213D01*
X7599600Y-21573587D01*
X7605380Y-21544530D01*
X7616717Y-21517159D01*
X7633176Y-21492525D01*
X7654125Y-21471576D01*
X7678759Y-21455117D01*
X7706130Y-21443780D01*
X7735187Y-21438000D01*
X7764813Y-21438000D01*
X7793870Y-21443780D01*
X7793870Y-21443780D01*
G37*
G36*
X9293870Y-21443780D02*
G01*
X9321241Y-21455117D01*
X9345875Y-21471576D01*
X9366824Y-21492525D01*
X9383283Y-21517159D01*
X9394620Y-21544530D01*
X9400400Y-21573587D01*
X9400400Y-21603213D01*
X9394620Y-21632270D01*
X9383283Y-21659641D01*
X9366824Y-21684275D01*
X9345875Y-21705224D01*
X9321241Y-21721683D01*
X9293870Y-21733020D01*
X9264813Y-21738800D01*
X9235187Y-21738800D01*
X9206130Y-21733020D01*
X9178759Y-21721683D01*
X9154125Y-21705224D01*
X9133176Y-21684275D01*
X9116717Y-21659641D01*
X9105380Y-21632270D01*
X9099600Y-21603213D01*
X9099600Y-21573587D01*
X9105380Y-21544530D01*
X9116717Y-21517159D01*
X9133176Y-21492525D01*
X9154125Y-21471576D01*
X9178759Y-21455117D01*
X9206130Y-21443780D01*
X9235187Y-21438000D01*
X9264813Y-21438000D01*
X9293870Y-21443780D01*
X9293870Y-21443780D01*
G37*
G36*
X10293870Y-21443780D02*
G01*
X10321241Y-21455117D01*
X10345875Y-21471576D01*
X10366824Y-21492525D01*
X10383283Y-21517159D01*
X10394620Y-21544530D01*
X10400400Y-21573587D01*
X10400400Y-21603213D01*
X10394620Y-21632270D01*
X10383283Y-21659641D01*
X10366824Y-21684275D01*
X10345875Y-21705224D01*
X10321241Y-21721683D01*
X10293870Y-21733020D01*
X10264813Y-21738800D01*
X10235187Y-21738800D01*
X10206130Y-21733020D01*
X10178759Y-21721683D01*
X10154125Y-21705224D01*
X10133176Y-21684275D01*
X10116717Y-21659641D01*
X10105380Y-21632270D01*
X10099600Y-21603213D01*
X10099600Y-21573587D01*
X10105380Y-21544530D01*
X10116717Y-21517159D01*
X10133176Y-21492525D01*
X10154125Y-21471576D01*
X10178759Y-21455117D01*
X10206130Y-21443780D01*
X10235187Y-21438000D01*
X10264813Y-21438000D01*
X10293870Y-21443780D01*
X10293870Y-21443780D01*
G37*
G36*
X28511180Y-21712460D02*
G01*
X27780380Y-21712460D01*
X27780380Y-21401660D01*
X28511180Y-21401660D01*
X28511180Y-21712460D01*
X28511180Y-21712460D01*
G37*
G36*
X23841180Y-21712460D02*
G01*
X23110380Y-21712460D01*
X23110380Y-21401660D01*
X23841180Y-21401660D01*
X23841180Y-21712460D01*
X23841180Y-21712460D01*
G37*
G36*
X4703400Y-21554600D02*
G01*
X4312600Y-21554600D01*
X4312600Y-21193800D01*
X4703400Y-21193800D01*
X4703400Y-21554600D01*
X4703400Y-21554600D01*
G37*
G36*
X22049980Y-21396260D02*
G01*
X21369180Y-21396260D01*
X21369180Y-20765460D01*
X22049980Y-20765460D01*
X22049980Y-21396260D01*
X22049980Y-21396260D01*
G37*
G36*
X23841180Y-21212460D02*
G01*
X23110380Y-21212460D01*
X23110380Y-20901660D01*
X23841180Y-20901660D01*
X23841180Y-21212460D01*
X23841180Y-21212460D01*
G37*
G36*
X28511180Y-21212460D02*
G01*
X27780380Y-21212460D01*
X27780380Y-20901660D01*
X28511180Y-20901660D01*
X28511180Y-21212460D01*
X28511180Y-21212460D01*
G37*
G36*
X4703400Y-21004600D02*
G01*
X4312600Y-21004600D01*
X4312600Y-20643800D01*
X4703400Y-20643800D01*
X4703400Y-21004600D01*
X4703400Y-21004600D01*
G37*
G36*
X24716180Y-20837460D02*
G01*
X24405380Y-20837460D01*
X24405380Y-20106660D01*
X24716180Y-20106660D01*
X24716180Y-20837460D01*
X24716180Y-20837460D01*
G37*
G36*
X27716180Y-20837460D02*
G01*
X27405380Y-20837460D01*
X27405380Y-20106660D01*
X27716180Y-20106660D01*
X27716180Y-20837460D01*
X27716180Y-20837460D01*
G37*
G36*
X27216180Y-20837460D02*
G01*
X26905380Y-20837460D01*
X26905380Y-20106660D01*
X27216180Y-20106660D01*
X27216180Y-20837460D01*
X27216180Y-20837460D01*
G37*
G36*
X26716180Y-20837460D02*
G01*
X26405380Y-20837460D01*
X26405380Y-20106660D01*
X26716180Y-20106660D01*
X26716180Y-20837460D01*
X26716180Y-20837460D01*
G37*
G36*
X26216180Y-20837460D02*
G01*
X25905380Y-20837460D01*
X25905380Y-20106660D01*
X26216180Y-20106660D01*
X26216180Y-20837460D01*
X26216180Y-20837460D01*
G37*
G36*
X25716180Y-20837460D02*
G01*
X25405380Y-20837460D01*
X25405380Y-20106660D01*
X25716180Y-20106660D01*
X25716180Y-20837460D01*
X25716180Y-20837460D01*
G37*
G36*
X25216180Y-20837460D02*
G01*
X24905380Y-20837460D01*
X24905380Y-20106660D01*
X25216180Y-20106660D01*
X25216180Y-20837460D01*
X25216180Y-20837460D01*
G37*
G36*
X24216180Y-20837460D02*
G01*
X23905380Y-20837460D01*
X23905380Y-20106660D01*
X24216180Y-20106660D01*
X24216180Y-20837460D01*
X24216180Y-20837460D01*
G37*
G36*
X22049980Y-20506260D02*
G01*
X21369180Y-20506260D01*
X21369180Y-19875460D01*
X22049980Y-19875460D01*
X22049980Y-20506260D01*
X22049980Y-20506260D01*
G37*
G36*
X4728800Y-20386200D02*
G01*
X4338000Y-20386200D01*
X4338000Y-20025400D01*
X4728800Y-20025400D01*
X4728800Y-20386200D01*
X4728800Y-20386200D01*
G37*
G36*
X4728800Y-19836200D02*
G01*
X4338000Y-19836200D01*
X4338000Y-19475400D01*
X4728800Y-19475400D01*
X4728800Y-19836200D01*
X4728800Y-19836200D01*
G37*
G36*
X29141020Y-8245340D02*
G01*
X28170220Y-8245340D01*
X28170220Y-7304540D01*
X29141020Y-7304540D01*
X29141020Y-8245340D01*
X29141020Y-8245340D01*
G37*
G36*
X30360620Y-8220341D02*
G01*
X29439820Y-8220341D01*
X29439820Y-7359541D01*
X30360620Y-7359541D01*
X30360620Y-8220341D01*
X30360620Y-8220341D01*
G37*
G36*
X24586820Y-7166140D02*
G01*
X23036020Y-7166140D01*
X23036020Y-6665340D01*
X24586820Y-6665340D01*
X24586820Y-7166140D01*
X24586820Y-7166140D01*
G37*
G36*
X29141020Y-6915340D02*
G01*
X28170220Y-6915340D01*
X28170220Y-5974540D01*
X29141020Y-5974540D01*
X29141020Y-6915340D01*
X29141020Y-6915340D01*
G37*
G36*
X30360620Y-6860339D02*
G01*
X29439820Y-6860339D01*
X29439820Y-5999539D01*
X30360620Y-5999539D01*
X30360620Y-6860339D01*
X30360620Y-6860339D01*
G37*
G36*
X5090788Y-2552435D02*
G01*
X5459387Y-2705113D01*
X5791119Y-2926770D01*
X6073230Y-3208881D01*
X6294887Y-3540613D01*
X6447565Y-3909212D01*
X6525400Y-4300515D01*
X6525400Y-4699485D01*
X6447565Y-5090788D01*
X6294887Y-5459387D01*
X6073230Y-5791119D01*
X5791119Y-6073230D01*
X5459387Y-6294887D01*
X5090788Y-6447565D01*
X4699485Y-6525400D01*
X4300515Y-6525400D01*
X3909212Y-6447565D01*
X3540613Y-6294887D01*
X3208881Y-6073230D01*
X2926770Y-5791119D01*
X2705113Y-5459387D01*
X2552435Y-5090788D01*
X2474600Y-4699485D01*
X2474600Y-4300515D01*
X2552435Y-3909212D01*
X2705113Y-3540613D01*
X2926770Y-3208881D01*
X3208881Y-2926770D01*
X3540613Y-2705113D01*
X3909212Y-2552435D01*
X4300515Y-2474600D01*
X4699485Y-2474600D01*
X5090788Y-2552435D01*
X5090788Y-2552435D01*
G37*
G36*
X24586820Y-6466140D02*
G01*
X23036020Y-6466140D01*
X23036020Y-5965340D01*
X24586820Y-5965340D01*
X24586820Y-6466140D01*
X24586820Y-6466140D01*
G37*
G36*
X30977620Y-5424140D02*
G01*
X29866820Y-5424140D01*
X29866820Y-4833340D01*
X30977620Y-4833340D01*
X30977620Y-5424140D01*
X30977620Y-5424140D01*
G37*
G36*
X28917620Y-5424140D02*
G01*
X27806820Y-5424140D01*
X27806820Y-4833340D01*
X28917620Y-4833340D01*
X28917620Y-5424140D01*
X28917620Y-5424140D01*
G37*
M02*
