G04 #@! TF.GenerationSoftware,KiCad,Pcbnew,(5.1.0)-1*
G04 #@! TF.CreationDate,2019-09-06T09:54:38-07:00*
G04 #@! TF.ProjectId,Miniscope-v4-FlexPC,4d696e69-7363-46f7-9065-2d76342d466c,rev?*
G04 #@! TF.SameCoordinates,Original*
G04 #@! TF.FileFunction,Copper,L1,Top*
G04 #@! TF.FilePolarity,Positive*
%FSLAX46Y46*%
G04 Gerber Fmt 4.6, Leading zero omitted, Abs format (unit mm)*
G04 Created by KiCad (PCBNEW (5.1.0)-1) date 2019-09-06 09:54:38*
%MOMM*%
%LPD*%
G04 APERTURE LIST*
%ADD10C,0.508000*%
%ADD11C,0.100000*%
%ADD12C,1.150000*%
%ADD13C,0.152400*%
%ADD14C,0.304800*%
%ADD15C,0.025400*%
G04 APERTURE END LIST*
D10*
X27796400Y-16866001D03*
X27186800Y-17348600D03*
X27796400Y-15900802D03*
X27186800Y-16383401D03*
X27186800Y-15418202D03*
D11*
G36*
X32464105Y-17386004D02*
G01*
X32488373Y-17389604D01*
X32512172Y-17395565D01*
X32535271Y-17403830D01*
X32557450Y-17414320D01*
X32578493Y-17426932D01*
X32598199Y-17441547D01*
X32616377Y-17458023D01*
X32632853Y-17476201D01*
X32647468Y-17495907D01*
X32660080Y-17516950D01*
X32670570Y-17539129D01*
X32678835Y-17562228D01*
X32684796Y-17586027D01*
X32688396Y-17610295D01*
X32689600Y-17634799D01*
X32689600Y-18534801D01*
X32688396Y-18559305D01*
X32684796Y-18583573D01*
X32678835Y-18607372D01*
X32670570Y-18630471D01*
X32660080Y-18652650D01*
X32647468Y-18673693D01*
X32632853Y-18693399D01*
X32616377Y-18711577D01*
X32598199Y-18728053D01*
X32578493Y-18742668D01*
X32557450Y-18755280D01*
X32535271Y-18765770D01*
X32512172Y-18774035D01*
X32488373Y-18779996D01*
X32464105Y-18783596D01*
X32439601Y-18784800D01*
X31789599Y-18784800D01*
X31765095Y-18783596D01*
X31740827Y-18779996D01*
X31717028Y-18774035D01*
X31693929Y-18765770D01*
X31671750Y-18755280D01*
X31650707Y-18742668D01*
X31631001Y-18728053D01*
X31612823Y-18711577D01*
X31596347Y-18693399D01*
X31581732Y-18673693D01*
X31569120Y-18652650D01*
X31558630Y-18630471D01*
X31550365Y-18607372D01*
X31544404Y-18583573D01*
X31540804Y-18559305D01*
X31539600Y-18534801D01*
X31539600Y-17634799D01*
X31540804Y-17610295D01*
X31544404Y-17586027D01*
X31550365Y-17562228D01*
X31558630Y-17539129D01*
X31569120Y-17516950D01*
X31581732Y-17495907D01*
X31596347Y-17476201D01*
X31612823Y-17458023D01*
X31631001Y-17441547D01*
X31650707Y-17426932D01*
X31671750Y-17414320D01*
X31693929Y-17403830D01*
X31717028Y-17395565D01*
X31740827Y-17389604D01*
X31765095Y-17386004D01*
X31789599Y-17384800D01*
X32439601Y-17384800D01*
X32464105Y-17386004D01*
X32464105Y-17386004D01*
G37*
D12*
X32114600Y-18084800D03*
D11*
G36*
X30414105Y-17386004D02*
G01*
X30438373Y-17389604D01*
X30462172Y-17395565D01*
X30485271Y-17403830D01*
X30507450Y-17414320D01*
X30528493Y-17426932D01*
X30548199Y-17441547D01*
X30566377Y-17458023D01*
X30582853Y-17476201D01*
X30597468Y-17495907D01*
X30610080Y-17516950D01*
X30620570Y-17539129D01*
X30628835Y-17562228D01*
X30634796Y-17586027D01*
X30638396Y-17610295D01*
X30639600Y-17634799D01*
X30639600Y-18534801D01*
X30638396Y-18559305D01*
X30634796Y-18583573D01*
X30628835Y-18607372D01*
X30620570Y-18630471D01*
X30610080Y-18652650D01*
X30597468Y-18673693D01*
X30582853Y-18693399D01*
X30566377Y-18711577D01*
X30548199Y-18728053D01*
X30528493Y-18742668D01*
X30507450Y-18755280D01*
X30485271Y-18765770D01*
X30462172Y-18774035D01*
X30438373Y-18779996D01*
X30414105Y-18783596D01*
X30389601Y-18784800D01*
X29739599Y-18784800D01*
X29715095Y-18783596D01*
X29690827Y-18779996D01*
X29667028Y-18774035D01*
X29643929Y-18765770D01*
X29621750Y-18755280D01*
X29600707Y-18742668D01*
X29581001Y-18728053D01*
X29562823Y-18711577D01*
X29546347Y-18693399D01*
X29531732Y-18673693D01*
X29519120Y-18652650D01*
X29508630Y-18630471D01*
X29500365Y-18607372D01*
X29494404Y-18583573D01*
X29490804Y-18559305D01*
X29489600Y-18534801D01*
X29489600Y-17634799D01*
X29490804Y-17610295D01*
X29494404Y-17586027D01*
X29500365Y-17562228D01*
X29508630Y-17539129D01*
X29519120Y-17516950D01*
X29531732Y-17495907D01*
X29546347Y-17476201D01*
X29562823Y-17458023D01*
X29581001Y-17441547D01*
X29600707Y-17426932D01*
X29621750Y-17414320D01*
X29643929Y-17403830D01*
X29667028Y-17395565D01*
X29690827Y-17389604D01*
X29715095Y-17386004D01*
X29739599Y-17384800D01*
X30389601Y-17384800D01*
X30414105Y-17386004D01*
X30414105Y-17386004D01*
G37*
D12*
X30064600Y-18084800D03*
D10*
X35278840Y-28393660D03*
X34669240Y-28876259D03*
X35278840Y-29358859D03*
X34669240Y-29841458D03*
X35278840Y-30324058D03*
X34669240Y-30806657D03*
X35278840Y-31289257D03*
X34669240Y-31771856D03*
X35278840Y-32254456D03*
X34669240Y-32737055D03*
X35278840Y-33219655D03*
X34669240Y-33702254D03*
X35278840Y-34184854D03*
X34669240Y-34667453D03*
X35278840Y-35150053D03*
X34669240Y-35632652D03*
X35278840Y-36115252D03*
X34669240Y-36597851D03*
X35278840Y-37080451D03*
X34669240Y-37563050D03*
X41278840Y-28393660D03*
X40669240Y-28876259D03*
X41278840Y-29358859D03*
X40669240Y-29841458D03*
X41278840Y-30324058D03*
X40669240Y-30806657D03*
X41278840Y-31289257D03*
X40669240Y-31771856D03*
X41278840Y-32254456D03*
X40669240Y-32737055D03*
X41278840Y-33219655D03*
X40669240Y-33702254D03*
X41278840Y-34184854D03*
X40669240Y-34667453D03*
X41278840Y-35150053D03*
X40669240Y-35632652D03*
X41278840Y-36115252D03*
X40669240Y-36597851D03*
X41278840Y-37080451D03*
X40669240Y-37563050D03*
X27280380Y-28193000D03*
X27762979Y-28802600D03*
X28245579Y-28193000D03*
X28728178Y-28802600D03*
X29210778Y-28193000D03*
X29693377Y-28802600D03*
X30175977Y-28193000D03*
X30658576Y-28802600D03*
X31141176Y-28193000D03*
X31623775Y-28802600D03*
X32106375Y-28193000D03*
X32588974Y-28802600D03*
X33071574Y-28193000D03*
X33554173Y-28802600D03*
X27280380Y-20193000D03*
X27762979Y-20802600D03*
X28245579Y-20193000D03*
X28728178Y-20802600D03*
X29210778Y-20193000D03*
X29693377Y-20802600D03*
X30175977Y-20193000D03*
X30658576Y-20802600D03*
X31141176Y-20193000D03*
X31623775Y-20802600D03*
X32106375Y-20193000D03*
X32588974Y-20802600D03*
X33071574Y-20193000D03*
X33554173Y-20802600D03*
X17796400Y-16866001D03*
X17186800Y-17348600D03*
X17796400Y-15900802D03*
X17186800Y-16383401D03*
X17186800Y-15418202D03*
D13*
X33554173Y-28802600D02*
X33554173Y-28443390D01*
X28728173Y-28802600D02*
X28728173Y-28443390D01*
X40863299Y-28393660D02*
X41278840Y-28393660D01*
X35278840Y-28393660D02*
X40863299Y-28393660D01*
X40669240Y-28876259D02*
X34669240Y-28876259D01*
X35278840Y-29358859D02*
X40863299Y-29358859D01*
X40863299Y-29358859D02*
X41278840Y-29358859D01*
X40669240Y-29841458D02*
X34669240Y-29841458D01*
X35278840Y-30324058D02*
X41278840Y-30324058D01*
X35084781Y-30806657D02*
X34669240Y-30806657D01*
X40669240Y-30806657D02*
X35084781Y-30806657D01*
X35278840Y-31289257D02*
X41278840Y-31289257D01*
X34669240Y-31771856D02*
X40669240Y-31771856D01*
X40475181Y-32254456D02*
X35278840Y-32254456D01*
X41278840Y-32254456D02*
X40475181Y-32254456D01*
X34669240Y-32737055D02*
X40669240Y-32737055D01*
X41278840Y-33219655D02*
X35278840Y-33219655D01*
X34669240Y-33702254D02*
X40669240Y-33702254D01*
X41278840Y-34184854D02*
X40475182Y-34184854D01*
X40475182Y-34184854D02*
X35278840Y-34184854D01*
X34669240Y-34667453D02*
X40669240Y-34667453D01*
X40919630Y-35150053D02*
X35278840Y-35150053D01*
X41278840Y-35150053D02*
X40919630Y-35150053D01*
X34669240Y-35632652D02*
X40669240Y-35632652D01*
X41278840Y-36115252D02*
X35278840Y-36115252D01*
X34669240Y-36597851D02*
X40669240Y-36597851D01*
X41278840Y-37080451D02*
X40919630Y-37080451D01*
X40919630Y-37080451D02*
X35278840Y-37080451D01*
X34669240Y-37563050D02*
X40669240Y-37563050D01*
X17186800Y-15418202D02*
X17546010Y-15418202D01*
X17546010Y-15418202D02*
X27186800Y-15418202D01*
X17186800Y-16383401D02*
X27186800Y-16383401D01*
X26992741Y-15900802D02*
X17796400Y-15900802D01*
X27821800Y-15900802D02*
X27018141Y-15900802D01*
X17186800Y-17348600D02*
X27186800Y-17348600D01*
X27796400Y-16866001D02*
X17796400Y-16866001D01*
X33554173Y-28443390D02*
X33554173Y-20802600D01*
D14*
X33629600Y-19599800D02*
X32114600Y-18084800D01*
X33554173Y-20802600D02*
X33629600Y-20727173D01*
X33629600Y-20727173D02*
X33629600Y-19599800D01*
D13*
X33071574Y-20996658D02*
X33071574Y-28193000D01*
X33071574Y-20193000D02*
X33071574Y-20996658D01*
X32588974Y-28802600D02*
X32588974Y-20802600D01*
X32106375Y-20193000D02*
X32106375Y-20996658D01*
X32106375Y-20996658D02*
X32106375Y-28193000D01*
X31623775Y-28802600D02*
X31623775Y-20802600D01*
X31141176Y-20193000D02*
X31141176Y-28193000D01*
X30658576Y-28802600D02*
X30658576Y-20802600D01*
X30175977Y-20193000D02*
X30175977Y-20996658D01*
X30175977Y-20996658D02*
X30175977Y-28193000D01*
X29693377Y-28802600D02*
X29693377Y-20802600D01*
X29210778Y-20193000D02*
X29210778Y-28193000D01*
X28728178Y-28443390D02*
X28728178Y-20802600D01*
X28245579Y-20193000D02*
X28245579Y-28193000D01*
D14*
X28245579Y-19903821D02*
X30064600Y-18084800D01*
X28245579Y-20193000D02*
X28245579Y-19903821D01*
D13*
X27762979Y-28802600D02*
X27762979Y-27998942D01*
X27762979Y-27998942D02*
X27762979Y-20802600D01*
X27280380Y-20193000D02*
X27280380Y-28193000D01*
D15*
G36*
X33618715Y-28460061D02*
G01*
X33618906Y-28461585D01*
X33621954Y-28477872D01*
X33622286Y-28479229D01*
X33627366Y-28495943D01*
X33627787Y-28497117D01*
X33634899Y-28514258D01*
X33635364Y-28515255D01*
X33644508Y-28532823D01*
X33644984Y-28533659D01*
X33656160Y-28551654D01*
X33656628Y-28552354D01*
X33669836Y-28570777D01*
X33670281Y-28571362D01*
X33685521Y-28590212D01*
X33685939Y-28590702D01*
X33703211Y-28609978D01*
X33703597Y-28610390D01*
X33716158Y-28623212D01*
X33554173Y-28904174D01*
X33392188Y-28623212D01*
X33404749Y-28610390D01*
X33405135Y-28609978D01*
X33422407Y-28590702D01*
X33422825Y-28590212D01*
X33438065Y-28571362D01*
X33438510Y-28570777D01*
X33451718Y-28552354D01*
X33452186Y-28551654D01*
X33463362Y-28533659D01*
X33463838Y-28532823D01*
X33472982Y-28515255D01*
X33473447Y-28514258D01*
X33480559Y-28497117D01*
X33480980Y-28495943D01*
X33486060Y-28479229D01*
X33486392Y-28477872D01*
X33489440Y-28461585D01*
X33489631Y-28460061D01*
X33489885Y-28456090D01*
X33618461Y-28456090D01*
X33618715Y-28460061D01*
X33618715Y-28460061D01*
G37*
X33618715Y-28460061D02*
X33618906Y-28461585D01*
X33621954Y-28477872D01*
X33622286Y-28479229D01*
X33627366Y-28495943D01*
X33627787Y-28497117D01*
X33634899Y-28514258D01*
X33635364Y-28515255D01*
X33644508Y-28532823D01*
X33644984Y-28533659D01*
X33656160Y-28551654D01*
X33656628Y-28552354D01*
X33669836Y-28570777D01*
X33670281Y-28571362D01*
X33685521Y-28590212D01*
X33685939Y-28590702D01*
X33703211Y-28609978D01*
X33703597Y-28610390D01*
X33716158Y-28623212D01*
X33554173Y-28904174D01*
X33392188Y-28623212D01*
X33404749Y-28610390D01*
X33405135Y-28609978D01*
X33422407Y-28590702D01*
X33422825Y-28590212D01*
X33438065Y-28571362D01*
X33438510Y-28570777D01*
X33451718Y-28552354D01*
X33452186Y-28551654D01*
X33463362Y-28533659D01*
X33463838Y-28532823D01*
X33472982Y-28515255D01*
X33473447Y-28514258D01*
X33480559Y-28497117D01*
X33480980Y-28495943D01*
X33486060Y-28479229D01*
X33486392Y-28477872D01*
X33489440Y-28461585D01*
X33489631Y-28460061D01*
X33489885Y-28456090D01*
X33618461Y-28456090D01*
X33618715Y-28460061D01*
G36*
X28792715Y-28460061D02*
G01*
X28792906Y-28461586D01*
X28795955Y-28477873D01*
X28796287Y-28479230D01*
X28801368Y-28495944D01*
X28801789Y-28497118D01*
X28808902Y-28514259D01*
X28809367Y-28515255D01*
X28818511Y-28532823D01*
X28818988Y-28533660D01*
X28830165Y-28551655D01*
X28830632Y-28552354D01*
X28843840Y-28570777D01*
X28844285Y-28571362D01*
X28859525Y-28590212D01*
X28859943Y-28590702D01*
X28877215Y-28609978D01*
X28877601Y-28610391D01*
X28890163Y-28623213D01*
X28728178Y-28904174D01*
X28566192Y-28623212D01*
X28578753Y-28610390D01*
X28579139Y-28609978D01*
X28596411Y-28590702D01*
X28596829Y-28590212D01*
X28612069Y-28571362D01*
X28612514Y-28570777D01*
X28625722Y-28552354D01*
X28626190Y-28551654D01*
X28637365Y-28533659D01*
X28637841Y-28532823D01*
X28646985Y-28515255D01*
X28647451Y-28514257D01*
X28654562Y-28497116D01*
X28654982Y-28495943D01*
X28660061Y-28479229D01*
X28660393Y-28477871D01*
X28663440Y-28461584D01*
X28663631Y-28460061D01*
X28663885Y-28456090D01*
X28792461Y-28456090D01*
X28792715Y-28460061D01*
X28792715Y-28460061D01*
G37*
X28792715Y-28460061D02*
X28792906Y-28461586D01*
X28795955Y-28477873D01*
X28796287Y-28479230D01*
X28801368Y-28495944D01*
X28801789Y-28497118D01*
X28808902Y-28514259D01*
X28809367Y-28515255D01*
X28818511Y-28532823D01*
X28818988Y-28533660D01*
X28830165Y-28551655D01*
X28830632Y-28552354D01*
X28843840Y-28570777D01*
X28844285Y-28571362D01*
X28859525Y-28590212D01*
X28859943Y-28590702D01*
X28877215Y-28609978D01*
X28877601Y-28610391D01*
X28890163Y-28623213D01*
X28728178Y-28904174D01*
X28566192Y-28623212D01*
X28578753Y-28610390D01*
X28579139Y-28609978D01*
X28596411Y-28590702D01*
X28596829Y-28590212D01*
X28612069Y-28571362D01*
X28612514Y-28570777D01*
X28625722Y-28552354D01*
X28626190Y-28551654D01*
X28637365Y-28533659D01*
X28637841Y-28532823D01*
X28646985Y-28515255D01*
X28647451Y-28514257D01*
X28654562Y-28497116D01*
X28654982Y-28495943D01*
X28660061Y-28479229D01*
X28660393Y-28477871D01*
X28663440Y-28461584D01*
X28663631Y-28460061D01*
X28663885Y-28456090D01*
X28792461Y-28456090D01*
X28792715Y-28460061D01*
G36*
X41380414Y-28393660D02*
G01*
X41099331Y-28555715D01*
X41085939Y-28542960D01*
X41085255Y-28542354D01*
X41064288Y-28525082D01*
X41063520Y-28524496D01*
X41041854Y-28509256D01*
X41041005Y-28508708D01*
X41018639Y-28495500D01*
X41017719Y-28495007D01*
X40994654Y-28483831D01*
X40993677Y-28483407D01*
X40969913Y-28474263D01*
X40968898Y-28473921D01*
X40944434Y-28466808D01*
X40943401Y-28466554D01*
X40918237Y-28461475D01*
X40917210Y-28461311D01*
X40891347Y-28458263D01*
X40890346Y-28458185D01*
X40875999Y-28457636D01*
X40875999Y-28329684D01*
X40890346Y-28329135D01*
X40891347Y-28329057D01*
X40917210Y-28326009D01*
X40918237Y-28325845D01*
X40943401Y-28320765D01*
X40944433Y-28320511D01*
X40968897Y-28313399D01*
X40969913Y-28313057D01*
X40993677Y-28303913D01*
X40994654Y-28303489D01*
X41017719Y-28292313D01*
X41018639Y-28291819D01*
X41041005Y-28278610D01*
X41041853Y-28278063D01*
X41063519Y-28262824D01*
X41064288Y-28262238D01*
X41085255Y-28244966D01*
X41085939Y-28244360D01*
X41099331Y-28231605D01*
X41380414Y-28393660D01*
X41380414Y-28393660D01*
G37*
X41380414Y-28393660D02*
X41099331Y-28555715D01*
X41085939Y-28542960D01*
X41085255Y-28542354D01*
X41064288Y-28525082D01*
X41063520Y-28524496D01*
X41041854Y-28509256D01*
X41041005Y-28508708D01*
X41018639Y-28495500D01*
X41017719Y-28495007D01*
X40994654Y-28483831D01*
X40993677Y-28483407D01*
X40969913Y-28474263D01*
X40968898Y-28473921D01*
X40944434Y-28466808D01*
X40943401Y-28466554D01*
X40918237Y-28461475D01*
X40917210Y-28461311D01*
X40891347Y-28458263D01*
X40890346Y-28458185D01*
X40875999Y-28457636D01*
X40875999Y-28329684D01*
X40890346Y-28329135D01*
X40891347Y-28329057D01*
X40917210Y-28326009D01*
X40918237Y-28325845D01*
X40943401Y-28320765D01*
X40944433Y-28320511D01*
X40968897Y-28313399D01*
X40969913Y-28313057D01*
X40993677Y-28303913D01*
X40994654Y-28303489D01*
X41017719Y-28292313D01*
X41018639Y-28291819D01*
X41041005Y-28278610D01*
X41041853Y-28278063D01*
X41063519Y-28262824D01*
X41064288Y-28262238D01*
X41085255Y-28244966D01*
X41085939Y-28244360D01*
X41099331Y-28231605D01*
X41380414Y-28393660D01*
G36*
X35471908Y-28244389D02*
G01*
X35472655Y-28245043D01*
X35494033Y-28262315D01*
X35494859Y-28262929D01*
X35517210Y-28278169D01*
X35518107Y-28278727D01*
X35541432Y-28291935D01*
X35542383Y-28292422D01*
X35566682Y-28303598D01*
X35567668Y-28304002D01*
X35592939Y-28313146D01*
X35593939Y-28313462D01*
X35620185Y-28320573D01*
X35621176Y-28320799D01*
X35648395Y-28325880D01*
X35649360Y-28326022D01*
X35677552Y-28329070D01*
X35678475Y-28329136D01*
X35695384Y-28329725D01*
X35695384Y-28457595D01*
X35678475Y-28458184D01*
X35677552Y-28458250D01*
X35649360Y-28461298D01*
X35648395Y-28461440D01*
X35621176Y-28466520D01*
X35620184Y-28466746D01*
X35593938Y-28473858D01*
X35592939Y-28474174D01*
X35567668Y-28483318D01*
X35566682Y-28483722D01*
X35542383Y-28494898D01*
X35541433Y-28495385D01*
X35518108Y-28508592D01*
X35517210Y-28509150D01*
X35494859Y-28524391D01*
X35494033Y-28525005D01*
X35472655Y-28542277D01*
X35471908Y-28542931D01*
X35458378Y-28555732D01*
X35177266Y-28393660D01*
X35458378Y-28231588D01*
X35471908Y-28244389D01*
X35471908Y-28244389D01*
G37*
X35471908Y-28244389D02*
X35472655Y-28245043D01*
X35494033Y-28262315D01*
X35494859Y-28262929D01*
X35517210Y-28278169D01*
X35518107Y-28278727D01*
X35541432Y-28291935D01*
X35542383Y-28292422D01*
X35566682Y-28303598D01*
X35567668Y-28304002D01*
X35592939Y-28313146D01*
X35593939Y-28313462D01*
X35620185Y-28320573D01*
X35621176Y-28320799D01*
X35648395Y-28325880D01*
X35649360Y-28326022D01*
X35677552Y-28329070D01*
X35678475Y-28329136D01*
X35695384Y-28329725D01*
X35695384Y-28457595D01*
X35678475Y-28458184D01*
X35677552Y-28458250D01*
X35649360Y-28461298D01*
X35648395Y-28461440D01*
X35621176Y-28466520D01*
X35620184Y-28466746D01*
X35593938Y-28473858D01*
X35592939Y-28474174D01*
X35567668Y-28483318D01*
X35566682Y-28483722D01*
X35542383Y-28494898D01*
X35541433Y-28495385D01*
X35518108Y-28508592D01*
X35517210Y-28509150D01*
X35494859Y-28524391D01*
X35494033Y-28525005D01*
X35472655Y-28542277D01*
X35471908Y-28542931D01*
X35458378Y-28555732D01*
X35177266Y-28393660D01*
X35458378Y-28231588D01*
X35471908Y-28244389D01*
G36*
X34862308Y-28726988D02*
G01*
X34863055Y-28727642D01*
X34884433Y-28744914D01*
X34885259Y-28745528D01*
X34907610Y-28760768D01*
X34908507Y-28761326D01*
X34931832Y-28774534D01*
X34932783Y-28775021D01*
X34957082Y-28786197D01*
X34958068Y-28786601D01*
X34983339Y-28795745D01*
X34984339Y-28796061D01*
X35010585Y-28803172D01*
X35011576Y-28803398D01*
X35038795Y-28808479D01*
X35039760Y-28808621D01*
X35067952Y-28811669D01*
X35068875Y-28811735D01*
X35085784Y-28812324D01*
X35085784Y-28940194D01*
X35068875Y-28940783D01*
X35067952Y-28940849D01*
X35039760Y-28943897D01*
X35038795Y-28944039D01*
X35011576Y-28949119D01*
X35010584Y-28949345D01*
X34984338Y-28956457D01*
X34983339Y-28956773D01*
X34958068Y-28965917D01*
X34957082Y-28966321D01*
X34932783Y-28977497D01*
X34931833Y-28977984D01*
X34908508Y-28991191D01*
X34907610Y-28991749D01*
X34885259Y-29006990D01*
X34884433Y-29007604D01*
X34863055Y-29024876D01*
X34862308Y-29025530D01*
X34848778Y-29038331D01*
X34567666Y-28876259D01*
X34848778Y-28714187D01*
X34862308Y-28726988D01*
X34862308Y-28726988D01*
G37*
X34862308Y-28726988D02*
X34863055Y-28727642D01*
X34884433Y-28744914D01*
X34885259Y-28745528D01*
X34907610Y-28760768D01*
X34908507Y-28761326D01*
X34931832Y-28774534D01*
X34932783Y-28775021D01*
X34957082Y-28786197D01*
X34958068Y-28786601D01*
X34983339Y-28795745D01*
X34984339Y-28796061D01*
X35010585Y-28803172D01*
X35011576Y-28803398D01*
X35038795Y-28808479D01*
X35039760Y-28808621D01*
X35067952Y-28811669D01*
X35068875Y-28811735D01*
X35085784Y-28812324D01*
X35085784Y-28940194D01*
X35068875Y-28940783D01*
X35067952Y-28940849D01*
X35039760Y-28943897D01*
X35038795Y-28944039D01*
X35011576Y-28949119D01*
X35010584Y-28949345D01*
X34984338Y-28956457D01*
X34983339Y-28956773D01*
X34958068Y-28965917D01*
X34957082Y-28966321D01*
X34932783Y-28977497D01*
X34931833Y-28977984D01*
X34908508Y-28991191D01*
X34907610Y-28991749D01*
X34885259Y-29006990D01*
X34884433Y-29007604D01*
X34863055Y-29024876D01*
X34862308Y-29025530D01*
X34848778Y-29038331D01*
X34567666Y-28876259D01*
X34848778Y-28714187D01*
X34862308Y-28726988D01*
G36*
X40770814Y-28876259D02*
G01*
X40489703Y-29038331D01*
X40476171Y-29025529D01*
X40475424Y-29024876D01*
X40454046Y-29007604D01*
X40453220Y-29006990D01*
X40430869Y-28991750D01*
X40429972Y-28991192D01*
X40406647Y-28977984D01*
X40405696Y-28977497D01*
X40381398Y-28966321D01*
X40380412Y-28965917D01*
X40355140Y-28956773D01*
X40354141Y-28956457D01*
X40327895Y-28949344D01*
X40326903Y-28949117D01*
X40299684Y-28944038D01*
X40298719Y-28943897D01*
X40270527Y-28940849D01*
X40269604Y-28940783D01*
X40252696Y-28940194D01*
X40252696Y-28812324D01*
X40269604Y-28811735D01*
X40270527Y-28811669D01*
X40298719Y-28808621D01*
X40299684Y-28808479D01*
X40326903Y-28803399D01*
X40327895Y-28803173D01*
X40354141Y-28796061D01*
X40355140Y-28795745D01*
X40380412Y-28786601D01*
X40381398Y-28786197D01*
X40405696Y-28775021D01*
X40406647Y-28774534D01*
X40429972Y-28761325D01*
X40430868Y-28760767D01*
X40453219Y-28745528D01*
X40454046Y-28744914D01*
X40475424Y-28727642D01*
X40476171Y-28726989D01*
X40489703Y-28714187D01*
X40770814Y-28876259D01*
X40770814Y-28876259D01*
G37*
X40770814Y-28876259D02*
X40489703Y-29038331D01*
X40476171Y-29025529D01*
X40475424Y-29024876D01*
X40454046Y-29007604D01*
X40453220Y-29006990D01*
X40430869Y-28991750D01*
X40429972Y-28991192D01*
X40406647Y-28977984D01*
X40405696Y-28977497D01*
X40381398Y-28966321D01*
X40380412Y-28965917D01*
X40355140Y-28956773D01*
X40354141Y-28956457D01*
X40327895Y-28949344D01*
X40326903Y-28949117D01*
X40299684Y-28944038D01*
X40298719Y-28943897D01*
X40270527Y-28940849D01*
X40269604Y-28940783D01*
X40252696Y-28940194D01*
X40252696Y-28812324D01*
X40269604Y-28811735D01*
X40270527Y-28811669D01*
X40298719Y-28808621D01*
X40299684Y-28808479D01*
X40326903Y-28803399D01*
X40327895Y-28803173D01*
X40354141Y-28796061D01*
X40355140Y-28795745D01*
X40380412Y-28786601D01*
X40381398Y-28786197D01*
X40405696Y-28775021D01*
X40406647Y-28774534D01*
X40429972Y-28761325D01*
X40430868Y-28760767D01*
X40453219Y-28745528D01*
X40454046Y-28744914D01*
X40475424Y-28727642D01*
X40476171Y-28726989D01*
X40489703Y-28714187D01*
X40770814Y-28876259D01*
G36*
X35471908Y-29209588D02*
G01*
X35472655Y-29210242D01*
X35494033Y-29227514D01*
X35494859Y-29228128D01*
X35517210Y-29243368D01*
X35518107Y-29243926D01*
X35541432Y-29257134D01*
X35542383Y-29257621D01*
X35566682Y-29268797D01*
X35567668Y-29269201D01*
X35592939Y-29278345D01*
X35593939Y-29278661D01*
X35620185Y-29285772D01*
X35621176Y-29285998D01*
X35648395Y-29291079D01*
X35649360Y-29291221D01*
X35677552Y-29294269D01*
X35678475Y-29294335D01*
X35695384Y-29294924D01*
X35695384Y-29422794D01*
X35678475Y-29423383D01*
X35677552Y-29423449D01*
X35649360Y-29426497D01*
X35648395Y-29426639D01*
X35621176Y-29431719D01*
X35620184Y-29431945D01*
X35593938Y-29439057D01*
X35592939Y-29439373D01*
X35567668Y-29448517D01*
X35566682Y-29448921D01*
X35542383Y-29460097D01*
X35541433Y-29460584D01*
X35518108Y-29473791D01*
X35517210Y-29474349D01*
X35494859Y-29489590D01*
X35494033Y-29490204D01*
X35472655Y-29507476D01*
X35471908Y-29508130D01*
X35458378Y-29520931D01*
X35177266Y-29358859D01*
X35458378Y-29196787D01*
X35471908Y-29209588D01*
X35471908Y-29209588D01*
G37*
X35471908Y-29209588D02*
X35472655Y-29210242D01*
X35494033Y-29227514D01*
X35494859Y-29228128D01*
X35517210Y-29243368D01*
X35518107Y-29243926D01*
X35541432Y-29257134D01*
X35542383Y-29257621D01*
X35566682Y-29268797D01*
X35567668Y-29269201D01*
X35592939Y-29278345D01*
X35593939Y-29278661D01*
X35620185Y-29285772D01*
X35621176Y-29285998D01*
X35648395Y-29291079D01*
X35649360Y-29291221D01*
X35677552Y-29294269D01*
X35678475Y-29294335D01*
X35695384Y-29294924D01*
X35695384Y-29422794D01*
X35678475Y-29423383D01*
X35677552Y-29423449D01*
X35649360Y-29426497D01*
X35648395Y-29426639D01*
X35621176Y-29431719D01*
X35620184Y-29431945D01*
X35593938Y-29439057D01*
X35592939Y-29439373D01*
X35567668Y-29448517D01*
X35566682Y-29448921D01*
X35542383Y-29460097D01*
X35541433Y-29460584D01*
X35518108Y-29473791D01*
X35517210Y-29474349D01*
X35494859Y-29489590D01*
X35494033Y-29490204D01*
X35472655Y-29507476D01*
X35471908Y-29508130D01*
X35458378Y-29520931D01*
X35177266Y-29358859D01*
X35458378Y-29196787D01*
X35471908Y-29209588D01*
G36*
X41380414Y-29358859D02*
G01*
X41099331Y-29520914D01*
X41085939Y-29508159D01*
X41085255Y-29507553D01*
X41064288Y-29490281D01*
X41063520Y-29489695D01*
X41041854Y-29474455D01*
X41041005Y-29473907D01*
X41018639Y-29460699D01*
X41017719Y-29460206D01*
X40994654Y-29449030D01*
X40993677Y-29448606D01*
X40969913Y-29439462D01*
X40968898Y-29439120D01*
X40944434Y-29432007D01*
X40943401Y-29431753D01*
X40918237Y-29426674D01*
X40917210Y-29426510D01*
X40891347Y-29423462D01*
X40890346Y-29423384D01*
X40875999Y-29422835D01*
X40875999Y-29294883D01*
X40890346Y-29294334D01*
X40891347Y-29294256D01*
X40917210Y-29291208D01*
X40918237Y-29291044D01*
X40943401Y-29285964D01*
X40944433Y-29285710D01*
X40968897Y-29278598D01*
X40969913Y-29278256D01*
X40993677Y-29269112D01*
X40994654Y-29268688D01*
X41017719Y-29257512D01*
X41018639Y-29257018D01*
X41041005Y-29243809D01*
X41041853Y-29243262D01*
X41063519Y-29228023D01*
X41064288Y-29227437D01*
X41085255Y-29210165D01*
X41085939Y-29209559D01*
X41099331Y-29196804D01*
X41380414Y-29358859D01*
X41380414Y-29358859D01*
G37*
X41380414Y-29358859D02*
X41099331Y-29520914D01*
X41085939Y-29508159D01*
X41085255Y-29507553D01*
X41064288Y-29490281D01*
X41063520Y-29489695D01*
X41041854Y-29474455D01*
X41041005Y-29473907D01*
X41018639Y-29460699D01*
X41017719Y-29460206D01*
X40994654Y-29449030D01*
X40993677Y-29448606D01*
X40969913Y-29439462D01*
X40968898Y-29439120D01*
X40944434Y-29432007D01*
X40943401Y-29431753D01*
X40918237Y-29426674D01*
X40917210Y-29426510D01*
X40891347Y-29423462D01*
X40890346Y-29423384D01*
X40875999Y-29422835D01*
X40875999Y-29294883D01*
X40890346Y-29294334D01*
X40891347Y-29294256D01*
X40917210Y-29291208D01*
X40918237Y-29291044D01*
X40943401Y-29285964D01*
X40944433Y-29285710D01*
X40968897Y-29278598D01*
X40969913Y-29278256D01*
X40993677Y-29269112D01*
X40994654Y-29268688D01*
X41017719Y-29257512D01*
X41018639Y-29257018D01*
X41041005Y-29243809D01*
X41041853Y-29243262D01*
X41063519Y-29228023D01*
X41064288Y-29227437D01*
X41085255Y-29210165D01*
X41085939Y-29209559D01*
X41099331Y-29196804D01*
X41380414Y-29358859D01*
G36*
X34862308Y-29692187D02*
G01*
X34863055Y-29692841D01*
X34884433Y-29710113D01*
X34885259Y-29710727D01*
X34907610Y-29725967D01*
X34908507Y-29726525D01*
X34931832Y-29739733D01*
X34932783Y-29740220D01*
X34957082Y-29751396D01*
X34958068Y-29751800D01*
X34983339Y-29760944D01*
X34984339Y-29761260D01*
X35010585Y-29768371D01*
X35011576Y-29768597D01*
X35038795Y-29773678D01*
X35039760Y-29773820D01*
X35067952Y-29776868D01*
X35068875Y-29776934D01*
X35085784Y-29777523D01*
X35085784Y-29905393D01*
X35068875Y-29905982D01*
X35067952Y-29906048D01*
X35039760Y-29909096D01*
X35038795Y-29909238D01*
X35011576Y-29914318D01*
X35010584Y-29914544D01*
X34984338Y-29921656D01*
X34983339Y-29921972D01*
X34958068Y-29931116D01*
X34957082Y-29931520D01*
X34932783Y-29942696D01*
X34931833Y-29943183D01*
X34908508Y-29956390D01*
X34907610Y-29956948D01*
X34885259Y-29972189D01*
X34884433Y-29972803D01*
X34863055Y-29990075D01*
X34862308Y-29990729D01*
X34848778Y-30003530D01*
X34567666Y-29841458D01*
X34848778Y-29679386D01*
X34862308Y-29692187D01*
X34862308Y-29692187D01*
G37*
X34862308Y-29692187D02*
X34863055Y-29692841D01*
X34884433Y-29710113D01*
X34885259Y-29710727D01*
X34907610Y-29725967D01*
X34908507Y-29726525D01*
X34931832Y-29739733D01*
X34932783Y-29740220D01*
X34957082Y-29751396D01*
X34958068Y-29751800D01*
X34983339Y-29760944D01*
X34984339Y-29761260D01*
X35010585Y-29768371D01*
X35011576Y-29768597D01*
X35038795Y-29773678D01*
X35039760Y-29773820D01*
X35067952Y-29776868D01*
X35068875Y-29776934D01*
X35085784Y-29777523D01*
X35085784Y-29905393D01*
X35068875Y-29905982D01*
X35067952Y-29906048D01*
X35039760Y-29909096D01*
X35038795Y-29909238D01*
X35011576Y-29914318D01*
X35010584Y-29914544D01*
X34984338Y-29921656D01*
X34983339Y-29921972D01*
X34958068Y-29931116D01*
X34957082Y-29931520D01*
X34932783Y-29942696D01*
X34931833Y-29943183D01*
X34908508Y-29956390D01*
X34907610Y-29956948D01*
X34885259Y-29972189D01*
X34884433Y-29972803D01*
X34863055Y-29990075D01*
X34862308Y-29990729D01*
X34848778Y-30003530D01*
X34567666Y-29841458D01*
X34848778Y-29679386D01*
X34862308Y-29692187D01*
G36*
X40770814Y-29841458D02*
G01*
X40489703Y-30003530D01*
X40476171Y-29990728D01*
X40475424Y-29990075D01*
X40454046Y-29972803D01*
X40453220Y-29972189D01*
X40430869Y-29956949D01*
X40429972Y-29956391D01*
X40406647Y-29943183D01*
X40405696Y-29942696D01*
X40381398Y-29931520D01*
X40380412Y-29931116D01*
X40355140Y-29921972D01*
X40354141Y-29921656D01*
X40327895Y-29914543D01*
X40326903Y-29914316D01*
X40299684Y-29909237D01*
X40298719Y-29909096D01*
X40270527Y-29906048D01*
X40269604Y-29905982D01*
X40252696Y-29905393D01*
X40252696Y-29777523D01*
X40269604Y-29776934D01*
X40270527Y-29776868D01*
X40298719Y-29773820D01*
X40299684Y-29773678D01*
X40326903Y-29768598D01*
X40327895Y-29768372D01*
X40354141Y-29761260D01*
X40355140Y-29760944D01*
X40380412Y-29751800D01*
X40381398Y-29751396D01*
X40405696Y-29740220D01*
X40406647Y-29739733D01*
X40429972Y-29726524D01*
X40430868Y-29725966D01*
X40453219Y-29710727D01*
X40454046Y-29710113D01*
X40475424Y-29692841D01*
X40476171Y-29692188D01*
X40489703Y-29679386D01*
X40770814Y-29841458D01*
X40770814Y-29841458D01*
G37*
X40770814Y-29841458D02*
X40489703Y-30003530D01*
X40476171Y-29990728D01*
X40475424Y-29990075D01*
X40454046Y-29972803D01*
X40453220Y-29972189D01*
X40430869Y-29956949D01*
X40429972Y-29956391D01*
X40406647Y-29943183D01*
X40405696Y-29942696D01*
X40381398Y-29931520D01*
X40380412Y-29931116D01*
X40355140Y-29921972D01*
X40354141Y-29921656D01*
X40327895Y-29914543D01*
X40326903Y-29914316D01*
X40299684Y-29909237D01*
X40298719Y-29909096D01*
X40270527Y-29906048D01*
X40269604Y-29905982D01*
X40252696Y-29905393D01*
X40252696Y-29777523D01*
X40269604Y-29776934D01*
X40270527Y-29776868D01*
X40298719Y-29773820D01*
X40299684Y-29773678D01*
X40326903Y-29768598D01*
X40327895Y-29768372D01*
X40354141Y-29761260D01*
X40355140Y-29760944D01*
X40380412Y-29751800D01*
X40381398Y-29751396D01*
X40405696Y-29740220D01*
X40406647Y-29739733D01*
X40429972Y-29726524D01*
X40430868Y-29725966D01*
X40453219Y-29710727D01*
X40454046Y-29710113D01*
X40475424Y-29692841D01*
X40476171Y-29692188D01*
X40489703Y-29679386D01*
X40770814Y-29841458D01*
G36*
X35471908Y-30174787D02*
G01*
X35472655Y-30175441D01*
X35494033Y-30192713D01*
X35494859Y-30193327D01*
X35517210Y-30208567D01*
X35518107Y-30209125D01*
X35541432Y-30222333D01*
X35542383Y-30222820D01*
X35566682Y-30233996D01*
X35567668Y-30234400D01*
X35592939Y-30243544D01*
X35593939Y-30243860D01*
X35620185Y-30250971D01*
X35621176Y-30251197D01*
X35648395Y-30256278D01*
X35649360Y-30256420D01*
X35677552Y-30259468D01*
X35678475Y-30259534D01*
X35695384Y-30260123D01*
X35695384Y-30387993D01*
X35678475Y-30388582D01*
X35677552Y-30388648D01*
X35649360Y-30391696D01*
X35648395Y-30391838D01*
X35621176Y-30396918D01*
X35620184Y-30397144D01*
X35593938Y-30404256D01*
X35592939Y-30404572D01*
X35567668Y-30413716D01*
X35566682Y-30414120D01*
X35542383Y-30425296D01*
X35541433Y-30425783D01*
X35518108Y-30438990D01*
X35517210Y-30439548D01*
X35494859Y-30454789D01*
X35494033Y-30455403D01*
X35472655Y-30472675D01*
X35471908Y-30473329D01*
X35458378Y-30486130D01*
X35177266Y-30324058D01*
X35458378Y-30161986D01*
X35471908Y-30174787D01*
X35471908Y-30174787D01*
G37*
X35471908Y-30174787D02*
X35472655Y-30175441D01*
X35494033Y-30192713D01*
X35494859Y-30193327D01*
X35517210Y-30208567D01*
X35518107Y-30209125D01*
X35541432Y-30222333D01*
X35542383Y-30222820D01*
X35566682Y-30233996D01*
X35567668Y-30234400D01*
X35592939Y-30243544D01*
X35593939Y-30243860D01*
X35620185Y-30250971D01*
X35621176Y-30251197D01*
X35648395Y-30256278D01*
X35649360Y-30256420D01*
X35677552Y-30259468D01*
X35678475Y-30259534D01*
X35695384Y-30260123D01*
X35695384Y-30387993D01*
X35678475Y-30388582D01*
X35677552Y-30388648D01*
X35649360Y-30391696D01*
X35648395Y-30391838D01*
X35621176Y-30396918D01*
X35620184Y-30397144D01*
X35593938Y-30404256D01*
X35592939Y-30404572D01*
X35567668Y-30413716D01*
X35566682Y-30414120D01*
X35542383Y-30425296D01*
X35541433Y-30425783D01*
X35518108Y-30438990D01*
X35517210Y-30439548D01*
X35494859Y-30454789D01*
X35494033Y-30455403D01*
X35472655Y-30472675D01*
X35471908Y-30473329D01*
X35458378Y-30486130D01*
X35177266Y-30324058D01*
X35458378Y-30161986D01*
X35471908Y-30174787D01*
G36*
X41380414Y-30324058D02*
G01*
X41099303Y-30486130D01*
X41085771Y-30473328D01*
X41085024Y-30472675D01*
X41063646Y-30455403D01*
X41062820Y-30454789D01*
X41040469Y-30439549D01*
X41039572Y-30438991D01*
X41016247Y-30425783D01*
X41015296Y-30425296D01*
X40990998Y-30414120D01*
X40990012Y-30413716D01*
X40964740Y-30404572D01*
X40963741Y-30404256D01*
X40937495Y-30397143D01*
X40936503Y-30396916D01*
X40909284Y-30391837D01*
X40908319Y-30391696D01*
X40880127Y-30388648D01*
X40879204Y-30388582D01*
X40862296Y-30387993D01*
X40862296Y-30260123D01*
X40879204Y-30259534D01*
X40880127Y-30259468D01*
X40908319Y-30256420D01*
X40909284Y-30256278D01*
X40936503Y-30251198D01*
X40937495Y-30250972D01*
X40963741Y-30243860D01*
X40964740Y-30243544D01*
X40990012Y-30234400D01*
X40990998Y-30233996D01*
X41015296Y-30222820D01*
X41016247Y-30222333D01*
X41039572Y-30209124D01*
X41040468Y-30208566D01*
X41062819Y-30193327D01*
X41063646Y-30192713D01*
X41085024Y-30175441D01*
X41085771Y-30174788D01*
X41099303Y-30161986D01*
X41380414Y-30324058D01*
X41380414Y-30324058D01*
G37*
X41380414Y-30324058D02*
X41099303Y-30486130D01*
X41085771Y-30473328D01*
X41085024Y-30472675D01*
X41063646Y-30455403D01*
X41062820Y-30454789D01*
X41040469Y-30439549D01*
X41039572Y-30438991D01*
X41016247Y-30425783D01*
X41015296Y-30425296D01*
X40990998Y-30414120D01*
X40990012Y-30413716D01*
X40964740Y-30404572D01*
X40963741Y-30404256D01*
X40937495Y-30397143D01*
X40936503Y-30396916D01*
X40909284Y-30391837D01*
X40908319Y-30391696D01*
X40880127Y-30388648D01*
X40879204Y-30388582D01*
X40862296Y-30387993D01*
X40862296Y-30260123D01*
X40879204Y-30259534D01*
X40880127Y-30259468D01*
X40908319Y-30256420D01*
X40909284Y-30256278D01*
X40936503Y-30251198D01*
X40937495Y-30250972D01*
X40963741Y-30243860D01*
X40964740Y-30243544D01*
X40990012Y-30234400D01*
X40990998Y-30233996D01*
X41015296Y-30222820D01*
X41016247Y-30222333D01*
X41039572Y-30209124D01*
X41040468Y-30208566D01*
X41062819Y-30193327D01*
X41063646Y-30192713D01*
X41085024Y-30175441D01*
X41085771Y-30174788D01*
X41099303Y-30161986D01*
X41380414Y-30324058D01*
G36*
X34862140Y-30657357D02*
G01*
X34862824Y-30657963D01*
X34883791Y-30675235D01*
X34884559Y-30675821D01*
X34906225Y-30691061D01*
X34907074Y-30691609D01*
X34929440Y-30704817D01*
X34930360Y-30705310D01*
X34953425Y-30716486D01*
X34954402Y-30716910D01*
X34978166Y-30726054D01*
X34979182Y-30726396D01*
X35003646Y-30733507D01*
X35004677Y-30733761D01*
X35029841Y-30738842D01*
X35030869Y-30739006D01*
X35056732Y-30742054D01*
X35057733Y-30742132D01*
X35072081Y-30742681D01*
X35072081Y-30870633D01*
X35057733Y-30871182D01*
X35056732Y-30871260D01*
X35030869Y-30874308D01*
X35029842Y-30874472D01*
X35004678Y-30879552D01*
X35003646Y-30879806D01*
X34979182Y-30886918D01*
X34978166Y-30887260D01*
X34954402Y-30896404D01*
X34953425Y-30896828D01*
X34930360Y-30908004D01*
X34929440Y-30908497D01*
X34907074Y-30921704D01*
X34906225Y-30922253D01*
X34884559Y-30937494D01*
X34883791Y-30938079D01*
X34862824Y-30955351D01*
X34862140Y-30955957D01*
X34848749Y-30968712D01*
X34567666Y-30806657D01*
X34848749Y-30644602D01*
X34862140Y-30657357D01*
X34862140Y-30657357D01*
G37*
X34862140Y-30657357D02*
X34862824Y-30657963D01*
X34883791Y-30675235D01*
X34884559Y-30675821D01*
X34906225Y-30691061D01*
X34907074Y-30691609D01*
X34929440Y-30704817D01*
X34930360Y-30705310D01*
X34953425Y-30716486D01*
X34954402Y-30716910D01*
X34978166Y-30726054D01*
X34979182Y-30726396D01*
X35003646Y-30733507D01*
X35004677Y-30733761D01*
X35029841Y-30738842D01*
X35030869Y-30739006D01*
X35056732Y-30742054D01*
X35057733Y-30742132D01*
X35072081Y-30742681D01*
X35072081Y-30870633D01*
X35057733Y-30871182D01*
X35056732Y-30871260D01*
X35030869Y-30874308D01*
X35029842Y-30874472D01*
X35004678Y-30879552D01*
X35003646Y-30879806D01*
X34979182Y-30886918D01*
X34978166Y-30887260D01*
X34954402Y-30896404D01*
X34953425Y-30896828D01*
X34930360Y-30908004D01*
X34929440Y-30908497D01*
X34907074Y-30921704D01*
X34906225Y-30922253D01*
X34884559Y-30937494D01*
X34883791Y-30938079D01*
X34862824Y-30955351D01*
X34862140Y-30955957D01*
X34848749Y-30968712D01*
X34567666Y-30806657D01*
X34848749Y-30644602D01*
X34862140Y-30657357D01*
G36*
X40770814Y-30806657D02*
G01*
X40489703Y-30968729D01*
X40476171Y-30955927D01*
X40475424Y-30955274D01*
X40454046Y-30938002D01*
X40453220Y-30937388D01*
X40430869Y-30922148D01*
X40429972Y-30921590D01*
X40406647Y-30908382D01*
X40405696Y-30907895D01*
X40381398Y-30896719D01*
X40380412Y-30896315D01*
X40355140Y-30887171D01*
X40354141Y-30886855D01*
X40327895Y-30879742D01*
X40326903Y-30879515D01*
X40299684Y-30874436D01*
X40298719Y-30874295D01*
X40270527Y-30871247D01*
X40269604Y-30871181D01*
X40252696Y-30870592D01*
X40252696Y-30742722D01*
X40269604Y-30742133D01*
X40270527Y-30742067D01*
X40298719Y-30739019D01*
X40299684Y-30738877D01*
X40326903Y-30733797D01*
X40327895Y-30733571D01*
X40354141Y-30726459D01*
X40355140Y-30726143D01*
X40380412Y-30716999D01*
X40381398Y-30716595D01*
X40405696Y-30705419D01*
X40406647Y-30704932D01*
X40429972Y-30691723D01*
X40430868Y-30691165D01*
X40453219Y-30675926D01*
X40454046Y-30675312D01*
X40475424Y-30658040D01*
X40476171Y-30657387D01*
X40489703Y-30644585D01*
X40770814Y-30806657D01*
X40770814Y-30806657D01*
G37*
X40770814Y-30806657D02*
X40489703Y-30968729D01*
X40476171Y-30955927D01*
X40475424Y-30955274D01*
X40454046Y-30938002D01*
X40453220Y-30937388D01*
X40430869Y-30922148D01*
X40429972Y-30921590D01*
X40406647Y-30908382D01*
X40405696Y-30907895D01*
X40381398Y-30896719D01*
X40380412Y-30896315D01*
X40355140Y-30887171D01*
X40354141Y-30886855D01*
X40327895Y-30879742D01*
X40326903Y-30879515D01*
X40299684Y-30874436D01*
X40298719Y-30874295D01*
X40270527Y-30871247D01*
X40269604Y-30871181D01*
X40252696Y-30870592D01*
X40252696Y-30742722D01*
X40269604Y-30742133D01*
X40270527Y-30742067D01*
X40298719Y-30739019D01*
X40299684Y-30738877D01*
X40326903Y-30733797D01*
X40327895Y-30733571D01*
X40354141Y-30726459D01*
X40355140Y-30726143D01*
X40380412Y-30716999D01*
X40381398Y-30716595D01*
X40405696Y-30705419D01*
X40406647Y-30704932D01*
X40429972Y-30691723D01*
X40430868Y-30691165D01*
X40453219Y-30675926D01*
X40454046Y-30675312D01*
X40475424Y-30658040D01*
X40476171Y-30657387D01*
X40489703Y-30644585D01*
X40770814Y-30806657D01*
G36*
X35471908Y-31139986D02*
G01*
X35472655Y-31140640D01*
X35494033Y-31157912D01*
X35494859Y-31158526D01*
X35517210Y-31173766D01*
X35518107Y-31174324D01*
X35541432Y-31187532D01*
X35542383Y-31188019D01*
X35566682Y-31199195D01*
X35567668Y-31199599D01*
X35592939Y-31208743D01*
X35593939Y-31209059D01*
X35620185Y-31216170D01*
X35621176Y-31216396D01*
X35648395Y-31221477D01*
X35649360Y-31221619D01*
X35677552Y-31224667D01*
X35678475Y-31224733D01*
X35695384Y-31225322D01*
X35695384Y-31353192D01*
X35678475Y-31353781D01*
X35677552Y-31353847D01*
X35649360Y-31356895D01*
X35648395Y-31357037D01*
X35621176Y-31362117D01*
X35620184Y-31362343D01*
X35593938Y-31369455D01*
X35592939Y-31369771D01*
X35567668Y-31378915D01*
X35566682Y-31379319D01*
X35542383Y-31390495D01*
X35541433Y-31390982D01*
X35518108Y-31404189D01*
X35517210Y-31404747D01*
X35494859Y-31419988D01*
X35494033Y-31420602D01*
X35472655Y-31437874D01*
X35471908Y-31438528D01*
X35458378Y-31451329D01*
X35177266Y-31289257D01*
X35458378Y-31127185D01*
X35471908Y-31139986D01*
X35471908Y-31139986D01*
G37*
X35471908Y-31139986D02*
X35472655Y-31140640D01*
X35494033Y-31157912D01*
X35494859Y-31158526D01*
X35517210Y-31173766D01*
X35518107Y-31174324D01*
X35541432Y-31187532D01*
X35542383Y-31188019D01*
X35566682Y-31199195D01*
X35567668Y-31199599D01*
X35592939Y-31208743D01*
X35593939Y-31209059D01*
X35620185Y-31216170D01*
X35621176Y-31216396D01*
X35648395Y-31221477D01*
X35649360Y-31221619D01*
X35677552Y-31224667D01*
X35678475Y-31224733D01*
X35695384Y-31225322D01*
X35695384Y-31353192D01*
X35678475Y-31353781D01*
X35677552Y-31353847D01*
X35649360Y-31356895D01*
X35648395Y-31357037D01*
X35621176Y-31362117D01*
X35620184Y-31362343D01*
X35593938Y-31369455D01*
X35592939Y-31369771D01*
X35567668Y-31378915D01*
X35566682Y-31379319D01*
X35542383Y-31390495D01*
X35541433Y-31390982D01*
X35518108Y-31404189D01*
X35517210Y-31404747D01*
X35494859Y-31419988D01*
X35494033Y-31420602D01*
X35472655Y-31437874D01*
X35471908Y-31438528D01*
X35458378Y-31451329D01*
X35177266Y-31289257D01*
X35458378Y-31127185D01*
X35471908Y-31139986D01*
G36*
X41380414Y-31289257D02*
G01*
X41099303Y-31451329D01*
X41085771Y-31438527D01*
X41085024Y-31437874D01*
X41063646Y-31420602D01*
X41062820Y-31419988D01*
X41040469Y-31404748D01*
X41039572Y-31404190D01*
X41016247Y-31390982D01*
X41015296Y-31390495D01*
X40990998Y-31379319D01*
X40990012Y-31378915D01*
X40964740Y-31369771D01*
X40963741Y-31369455D01*
X40937495Y-31362342D01*
X40936503Y-31362115D01*
X40909284Y-31357036D01*
X40908319Y-31356895D01*
X40880127Y-31353847D01*
X40879204Y-31353781D01*
X40862296Y-31353192D01*
X40862296Y-31225322D01*
X40879204Y-31224733D01*
X40880127Y-31224667D01*
X40908319Y-31221619D01*
X40909284Y-31221477D01*
X40936503Y-31216397D01*
X40937495Y-31216171D01*
X40963741Y-31209059D01*
X40964740Y-31208743D01*
X40990012Y-31199599D01*
X40990998Y-31199195D01*
X41015296Y-31188019D01*
X41016247Y-31187532D01*
X41039572Y-31174323D01*
X41040468Y-31173765D01*
X41062819Y-31158526D01*
X41063646Y-31157912D01*
X41085024Y-31140640D01*
X41085771Y-31139987D01*
X41099303Y-31127185D01*
X41380414Y-31289257D01*
X41380414Y-31289257D01*
G37*
X41380414Y-31289257D02*
X41099303Y-31451329D01*
X41085771Y-31438527D01*
X41085024Y-31437874D01*
X41063646Y-31420602D01*
X41062820Y-31419988D01*
X41040469Y-31404748D01*
X41039572Y-31404190D01*
X41016247Y-31390982D01*
X41015296Y-31390495D01*
X40990998Y-31379319D01*
X40990012Y-31378915D01*
X40964740Y-31369771D01*
X40963741Y-31369455D01*
X40937495Y-31362342D01*
X40936503Y-31362115D01*
X40909284Y-31357036D01*
X40908319Y-31356895D01*
X40880127Y-31353847D01*
X40879204Y-31353781D01*
X40862296Y-31353192D01*
X40862296Y-31225322D01*
X40879204Y-31224733D01*
X40880127Y-31224667D01*
X40908319Y-31221619D01*
X40909284Y-31221477D01*
X40936503Y-31216397D01*
X40937495Y-31216171D01*
X40963741Y-31209059D01*
X40964740Y-31208743D01*
X40990012Y-31199599D01*
X40990998Y-31199195D01*
X41015296Y-31188019D01*
X41016247Y-31187532D01*
X41039572Y-31174323D01*
X41040468Y-31173765D01*
X41062819Y-31158526D01*
X41063646Y-31157912D01*
X41085024Y-31140640D01*
X41085771Y-31139987D01*
X41099303Y-31127185D01*
X41380414Y-31289257D01*
G36*
X34862308Y-31622585D02*
G01*
X34863055Y-31623239D01*
X34884433Y-31640511D01*
X34885259Y-31641125D01*
X34907610Y-31656365D01*
X34908507Y-31656923D01*
X34931832Y-31670131D01*
X34932783Y-31670618D01*
X34957082Y-31681794D01*
X34958068Y-31682198D01*
X34983339Y-31691342D01*
X34984339Y-31691658D01*
X35010585Y-31698769D01*
X35011576Y-31698995D01*
X35038795Y-31704076D01*
X35039760Y-31704218D01*
X35067952Y-31707266D01*
X35068875Y-31707332D01*
X35085784Y-31707921D01*
X35085784Y-31835791D01*
X35068875Y-31836380D01*
X35067952Y-31836446D01*
X35039760Y-31839494D01*
X35038795Y-31839636D01*
X35011576Y-31844716D01*
X35010584Y-31844942D01*
X34984338Y-31852054D01*
X34983339Y-31852370D01*
X34958068Y-31861514D01*
X34957082Y-31861918D01*
X34932783Y-31873094D01*
X34931833Y-31873581D01*
X34908508Y-31886788D01*
X34907610Y-31887346D01*
X34885259Y-31902587D01*
X34884433Y-31903201D01*
X34863055Y-31920473D01*
X34862308Y-31921127D01*
X34848778Y-31933928D01*
X34567666Y-31771856D01*
X34848778Y-31609784D01*
X34862308Y-31622585D01*
X34862308Y-31622585D01*
G37*
X34862308Y-31622585D02*
X34863055Y-31623239D01*
X34884433Y-31640511D01*
X34885259Y-31641125D01*
X34907610Y-31656365D01*
X34908507Y-31656923D01*
X34931832Y-31670131D01*
X34932783Y-31670618D01*
X34957082Y-31681794D01*
X34958068Y-31682198D01*
X34983339Y-31691342D01*
X34984339Y-31691658D01*
X35010585Y-31698769D01*
X35011576Y-31698995D01*
X35038795Y-31704076D01*
X35039760Y-31704218D01*
X35067952Y-31707266D01*
X35068875Y-31707332D01*
X35085784Y-31707921D01*
X35085784Y-31835791D01*
X35068875Y-31836380D01*
X35067952Y-31836446D01*
X35039760Y-31839494D01*
X35038795Y-31839636D01*
X35011576Y-31844716D01*
X35010584Y-31844942D01*
X34984338Y-31852054D01*
X34983339Y-31852370D01*
X34958068Y-31861514D01*
X34957082Y-31861918D01*
X34932783Y-31873094D01*
X34931833Y-31873581D01*
X34908508Y-31886788D01*
X34907610Y-31887346D01*
X34885259Y-31902587D01*
X34884433Y-31903201D01*
X34863055Y-31920473D01*
X34862308Y-31921127D01*
X34848778Y-31933928D01*
X34567666Y-31771856D01*
X34848778Y-31609784D01*
X34862308Y-31622585D01*
G36*
X40770814Y-31771856D02*
G01*
X40489703Y-31933928D01*
X40476171Y-31921126D01*
X40475424Y-31920473D01*
X40454046Y-31903201D01*
X40453220Y-31902587D01*
X40430869Y-31887347D01*
X40429972Y-31886789D01*
X40406647Y-31873581D01*
X40405696Y-31873094D01*
X40381398Y-31861918D01*
X40380412Y-31861514D01*
X40355140Y-31852370D01*
X40354141Y-31852054D01*
X40327895Y-31844941D01*
X40326903Y-31844714D01*
X40299684Y-31839635D01*
X40298719Y-31839494D01*
X40270527Y-31836446D01*
X40269604Y-31836380D01*
X40252696Y-31835791D01*
X40252696Y-31707921D01*
X40269604Y-31707332D01*
X40270527Y-31707266D01*
X40298719Y-31704218D01*
X40299684Y-31704076D01*
X40326903Y-31698996D01*
X40327895Y-31698770D01*
X40354141Y-31691658D01*
X40355140Y-31691342D01*
X40380412Y-31682198D01*
X40381398Y-31681794D01*
X40405696Y-31670618D01*
X40406647Y-31670131D01*
X40429972Y-31656922D01*
X40430868Y-31656364D01*
X40453219Y-31641125D01*
X40454046Y-31640511D01*
X40475424Y-31623239D01*
X40476171Y-31622586D01*
X40489703Y-31609784D01*
X40770814Y-31771856D01*
X40770814Y-31771856D01*
G37*
X40770814Y-31771856D02*
X40489703Y-31933928D01*
X40476171Y-31921126D01*
X40475424Y-31920473D01*
X40454046Y-31903201D01*
X40453220Y-31902587D01*
X40430869Y-31887347D01*
X40429972Y-31886789D01*
X40406647Y-31873581D01*
X40405696Y-31873094D01*
X40381398Y-31861918D01*
X40380412Y-31861514D01*
X40355140Y-31852370D01*
X40354141Y-31852054D01*
X40327895Y-31844941D01*
X40326903Y-31844714D01*
X40299684Y-31839635D01*
X40298719Y-31839494D01*
X40270527Y-31836446D01*
X40269604Y-31836380D01*
X40252696Y-31835791D01*
X40252696Y-31707921D01*
X40269604Y-31707332D01*
X40270527Y-31707266D01*
X40298719Y-31704218D01*
X40299684Y-31704076D01*
X40326903Y-31698996D01*
X40327895Y-31698770D01*
X40354141Y-31691658D01*
X40355140Y-31691342D01*
X40380412Y-31682198D01*
X40381398Y-31681794D01*
X40405696Y-31670618D01*
X40406647Y-31670131D01*
X40429972Y-31656922D01*
X40430868Y-31656364D01*
X40453219Y-31641125D01*
X40454046Y-31640511D01*
X40475424Y-31623239D01*
X40476171Y-31622586D01*
X40489703Y-31609784D01*
X40770814Y-31771856D01*
G36*
X35471908Y-32105185D02*
G01*
X35472655Y-32105839D01*
X35494033Y-32123111D01*
X35494859Y-32123725D01*
X35517210Y-32138965D01*
X35518107Y-32139523D01*
X35541432Y-32152731D01*
X35542383Y-32153218D01*
X35566682Y-32164394D01*
X35567668Y-32164798D01*
X35592939Y-32173942D01*
X35593939Y-32174258D01*
X35620185Y-32181369D01*
X35621176Y-32181595D01*
X35648395Y-32186676D01*
X35649360Y-32186818D01*
X35677552Y-32189866D01*
X35678475Y-32189932D01*
X35695384Y-32190521D01*
X35695384Y-32318391D01*
X35678475Y-32318980D01*
X35677552Y-32319046D01*
X35649360Y-32322094D01*
X35648395Y-32322236D01*
X35621176Y-32327316D01*
X35620184Y-32327542D01*
X35593938Y-32334654D01*
X35592939Y-32334970D01*
X35567668Y-32344114D01*
X35566682Y-32344518D01*
X35542383Y-32355694D01*
X35541433Y-32356181D01*
X35518108Y-32369388D01*
X35517210Y-32369946D01*
X35494859Y-32385187D01*
X35494033Y-32385801D01*
X35472655Y-32403073D01*
X35471908Y-32403727D01*
X35458378Y-32416528D01*
X35177266Y-32254456D01*
X35458378Y-32092384D01*
X35471908Y-32105185D01*
X35471908Y-32105185D01*
G37*
X35471908Y-32105185D02*
X35472655Y-32105839D01*
X35494033Y-32123111D01*
X35494859Y-32123725D01*
X35517210Y-32138965D01*
X35518107Y-32139523D01*
X35541432Y-32152731D01*
X35542383Y-32153218D01*
X35566682Y-32164394D01*
X35567668Y-32164798D01*
X35592939Y-32173942D01*
X35593939Y-32174258D01*
X35620185Y-32181369D01*
X35621176Y-32181595D01*
X35648395Y-32186676D01*
X35649360Y-32186818D01*
X35677552Y-32189866D01*
X35678475Y-32189932D01*
X35695384Y-32190521D01*
X35695384Y-32318391D01*
X35678475Y-32318980D01*
X35677552Y-32319046D01*
X35649360Y-32322094D01*
X35648395Y-32322236D01*
X35621176Y-32327316D01*
X35620184Y-32327542D01*
X35593938Y-32334654D01*
X35592939Y-32334970D01*
X35567668Y-32344114D01*
X35566682Y-32344518D01*
X35542383Y-32355694D01*
X35541433Y-32356181D01*
X35518108Y-32369388D01*
X35517210Y-32369946D01*
X35494859Y-32385187D01*
X35494033Y-32385801D01*
X35472655Y-32403073D01*
X35471908Y-32403727D01*
X35458378Y-32416528D01*
X35177266Y-32254456D01*
X35458378Y-32092384D01*
X35471908Y-32105185D01*
G36*
X41380414Y-32254456D02*
G01*
X41099303Y-32416528D01*
X41085771Y-32403726D01*
X41085024Y-32403073D01*
X41063646Y-32385801D01*
X41062820Y-32385187D01*
X41040469Y-32369947D01*
X41039572Y-32369389D01*
X41016247Y-32356181D01*
X41015296Y-32355694D01*
X40990998Y-32344518D01*
X40990012Y-32344114D01*
X40964740Y-32334970D01*
X40963741Y-32334654D01*
X40937495Y-32327541D01*
X40936503Y-32327314D01*
X40909284Y-32322235D01*
X40908319Y-32322094D01*
X40880127Y-32319046D01*
X40879204Y-32318980D01*
X40862296Y-32318391D01*
X40862296Y-32190521D01*
X40879204Y-32189932D01*
X40880127Y-32189866D01*
X40908319Y-32186818D01*
X40909284Y-32186676D01*
X40936503Y-32181596D01*
X40937495Y-32181370D01*
X40963741Y-32174258D01*
X40964740Y-32173942D01*
X40990012Y-32164798D01*
X40990998Y-32164394D01*
X41015296Y-32153218D01*
X41016247Y-32152731D01*
X41039572Y-32139522D01*
X41040468Y-32138964D01*
X41062819Y-32123725D01*
X41063646Y-32123111D01*
X41085024Y-32105839D01*
X41085771Y-32105186D01*
X41099303Y-32092384D01*
X41380414Y-32254456D01*
X41380414Y-32254456D01*
G37*
X41380414Y-32254456D02*
X41099303Y-32416528D01*
X41085771Y-32403726D01*
X41085024Y-32403073D01*
X41063646Y-32385801D01*
X41062820Y-32385187D01*
X41040469Y-32369947D01*
X41039572Y-32369389D01*
X41016247Y-32356181D01*
X41015296Y-32355694D01*
X40990998Y-32344518D01*
X40990012Y-32344114D01*
X40964740Y-32334970D01*
X40963741Y-32334654D01*
X40937495Y-32327541D01*
X40936503Y-32327314D01*
X40909284Y-32322235D01*
X40908319Y-32322094D01*
X40880127Y-32319046D01*
X40879204Y-32318980D01*
X40862296Y-32318391D01*
X40862296Y-32190521D01*
X40879204Y-32189932D01*
X40880127Y-32189866D01*
X40908319Y-32186818D01*
X40909284Y-32186676D01*
X40936503Y-32181596D01*
X40937495Y-32181370D01*
X40963741Y-32174258D01*
X40964740Y-32173942D01*
X40990012Y-32164798D01*
X40990998Y-32164394D01*
X41015296Y-32153218D01*
X41016247Y-32152731D01*
X41039572Y-32139522D01*
X41040468Y-32138964D01*
X41062819Y-32123725D01*
X41063646Y-32123111D01*
X41085024Y-32105839D01*
X41085771Y-32105186D01*
X41099303Y-32092384D01*
X41380414Y-32254456D01*
G36*
X34862308Y-32587784D02*
G01*
X34863055Y-32588438D01*
X34884433Y-32605710D01*
X34885259Y-32606324D01*
X34907610Y-32621564D01*
X34908507Y-32622122D01*
X34931832Y-32635330D01*
X34932783Y-32635817D01*
X34957082Y-32646993D01*
X34958068Y-32647397D01*
X34983339Y-32656540D01*
X34984338Y-32656856D01*
X35010584Y-32663968D01*
X35011576Y-32664194D01*
X35038795Y-32669275D01*
X35039760Y-32669417D01*
X35067952Y-32672465D01*
X35068875Y-32672531D01*
X35085784Y-32673120D01*
X35085784Y-32800990D01*
X35068875Y-32801579D01*
X35067952Y-32801645D01*
X35039760Y-32804693D01*
X35038795Y-32804835D01*
X35011576Y-32809915D01*
X35010584Y-32810141D01*
X34984338Y-32817253D01*
X34983339Y-32817569D01*
X34958068Y-32826713D01*
X34957083Y-32827117D01*
X34932784Y-32838292D01*
X34931832Y-32838779D01*
X34908507Y-32851987D01*
X34907610Y-32852545D01*
X34885259Y-32867786D01*
X34884433Y-32868400D01*
X34863055Y-32885672D01*
X34862308Y-32886326D01*
X34848778Y-32899127D01*
X34567666Y-32737055D01*
X34848778Y-32574983D01*
X34862308Y-32587784D01*
X34862308Y-32587784D01*
G37*
X34862308Y-32587784D02*
X34863055Y-32588438D01*
X34884433Y-32605710D01*
X34885259Y-32606324D01*
X34907610Y-32621564D01*
X34908507Y-32622122D01*
X34931832Y-32635330D01*
X34932783Y-32635817D01*
X34957082Y-32646993D01*
X34958068Y-32647397D01*
X34983339Y-32656540D01*
X34984338Y-32656856D01*
X35010584Y-32663968D01*
X35011576Y-32664194D01*
X35038795Y-32669275D01*
X35039760Y-32669417D01*
X35067952Y-32672465D01*
X35068875Y-32672531D01*
X35085784Y-32673120D01*
X35085784Y-32800990D01*
X35068875Y-32801579D01*
X35067952Y-32801645D01*
X35039760Y-32804693D01*
X35038795Y-32804835D01*
X35011576Y-32809915D01*
X35010584Y-32810141D01*
X34984338Y-32817253D01*
X34983339Y-32817569D01*
X34958068Y-32826713D01*
X34957083Y-32827117D01*
X34932784Y-32838292D01*
X34931832Y-32838779D01*
X34908507Y-32851987D01*
X34907610Y-32852545D01*
X34885259Y-32867786D01*
X34884433Y-32868400D01*
X34863055Y-32885672D01*
X34862308Y-32886326D01*
X34848778Y-32899127D01*
X34567666Y-32737055D01*
X34848778Y-32574983D01*
X34862308Y-32587784D01*
G36*
X40770814Y-32737055D02*
G01*
X40489703Y-32899127D01*
X40476171Y-32886325D01*
X40475424Y-32885672D01*
X40454046Y-32868400D01*
X40453220Y-32867786D01*
X40430869Y-32852546D01*
X40429972Y-32851988D01*
X40406647Y-32838780D01*
X40405696Y-32838293D01*
X40381398Y-32827117D01*
X40380412Y-32826713D01*
X40355140Y-32817568D01*
X40354141Y-32817252D01*
X40327895Y-32810140D01*
X40326903Y-32809913D01*
X40299684Y-32804834D01*
X40298719Y-32804693D01*
X40270527Y-32801645D01*
X40269604Y-32801579D01*
X40252696Y-32800990D01*
X40252696Y-32673120D01*
X40269604Y-32672531D01*
X40270527Y-32672465D01*
X40298719Y-32669417D01*
X40299684Y-32669275D01*
X40326903Y-32664195D01*
X40327895Y-32663969D01*
X40354141Y-32656857D01*
X40355140Y-32656541D01*
X40380412Y-32647397D01*
X40381398Y-32646993D01*
X40405696Y-32635816D01*
X40406647Y-32635329D01*
X40429972Y-32622121D01*
X40430868Y-32621563D01*
X40453219Y-32606324D01*
X40454046Y-32605710D01*
X40475424Y-32588438D01*
X40476171Y-32587785D01*
X40489703Y-32574983D01*
X40770814Y-32737055D01*
X40770814Y-32737055D01*
G37*
X40770814Y-32737055D02*
X40489703Y-32899127D01*
X40476171Y-32886325D01*
X40475424Y-32885672D01*
X40454046Y-32868400D01*
X40453220Y-32867786D01*
X40430869Y-32852546D01*
X40429972Y-32851988D01*
X40406647Y-32838780D01*
X40405696Y-32838293D01*
X40381398Y-32827117D01*
X40380412Y-32826713D01*
X40355140Y-32817568D01*
X40354141Y-32817252D01*
X40327895Y-32810140D01*
X40326903Y-32809913D01*
X40299684Y-32804834D01*
X40298719Y-32804693D01*
X40270527Y-32801645D01*
X40269604Y-32801579D01*
X40252696Y-32800990D01*
X40252696Y-32673120D01*
X40269604Y-32672531D01*
X40270527Y-32672465D01*
X40298719Y-32669417D01*
X40299684Y-32669275D01*
X40326903Y-32664195D01*
X40327895Y-32663969D01*
X40354141Y-32656857D01*
X40355140Y-32656541D01*
X40380412Y-32647397D01*
X40381398Y-32646993D01*
X40405696Y-32635816D01*
X40406647Y-32635329D01*
X40429972Y-32622121D01*
X40430868Y-32621563D01*
X40453219Y-32606324D01*
X40454046Y-32605710D01*
X40475424Y-32588438D01*
X40476171Y-32587785D01*
X40489703Y-32574983D01*
X40770814Y-32737055D01*
G36*
X35471908Y-33070384D02*
G01*
X35472655Y-33071038D01*
X35494033Y-33088310D01*
X35494859Y-33088924D01*
X35517210Y-33104164D01*
X35518107Y-33104722D01*
X35541432Y-33117930D01*
X35542383Y-33118417D01*
X35566682Y-33129593D01*
X35567668Y-33129997D01*
X35592939Y-33139140D01*
X35593938Y-33139456D01*
X35620184Y-33146568D01*
X35621176Y-33146794D01*
X35648395Y-33151875D01*
X35649360Y-33152017D01*
X35677552Y-33155065D01*
X35678475Y-33155131D01*
X35695384Y-33155720D01*
X35695384Y-33283590D01*
X35678475Y-33284179D01*
X35677552Y-33284245D01*
X35649360Y-33287293D01*
X35648395Y-33287435D01*
X35621176Y-33292515D01*
X35620184Y-33292741D01*
X35593938Y-33299853D01*
X35592939Y-33300169D01*
X35567668Y-33309313D01*
X35566683Y-33309717D01*
X35542384Y-33320892D01*
X35541432Y-33321379D01*
X35518107Y-33334587D01*
X35517210Y-33335145D01*
X35494859Y-33350386D01*
X35494033Y-33351000D01*
X35472655Y-33368272D01*
X35471908Y-33368926D01*
X35458378Y-33381727D01*
X35177266Y-33219655D01*
X35458378Y-33057583D01*
X35471908Y-33070384D01*
X35471908Y-33070384D01*
G37*
X35471908Y-33070384D02*
X35472655Y-33071038D01*
X35494033Y-33088310D01*
X35494859Y-33088924D01*
X35517210Y-33104164D01*
X35518107Y-33104722D01*
X35541432Y-33117930D01*
X35542383Y-33118417D01*
X35566682Y-33129593D01*
X35567668Y-33129997D01*
X35592939Y-33139140D01*
X35593938Y-33139456D01*
X35620184Y-33146568D01*
X35621176Y-33146794D01*
X35648395Y-33151875D01*
X35649360Y-33152017D01*
X35677552Y-33155065D01*
X35678475Y-33155131D01*
X35695384Y-33155720D01*
X35695384Y-33283590D01*
X35678475Y-33284179D01*
X35677552Y-33284245D01*
X35649360Y-33287293D01*
X35648395Y-33287435D01*
X35621176Y-33292515D01*
X35620184Y-33292741D01*
X35593938Y-33299853D01*
X35592939Y-33300169D01*
X35567668Y-33309313D01*
X35566683Y-33309717D01*
X35542384Y-33320892D01*
X35541432Y-33321379D01*
X35518107Y-33334587D01*
X35517210Y-33335145D01*
X35494859Y-33350386D01*
X35494033Y-33351000D01*
X35472655Y-33368272D01*
X35471908Y-33368926D01*
X35458378Y-33381727D01*
X35177266Y-33219655D01*
X35458378Y-33057583D01*
X35471908Y-33070384D01*
G36*
X41380414Y-33219655D02*
G01*
X41099303Y-33381727D01*
X41085771Y-33368925D01*
X41085024Y-33368272D01*
X41063646Y-33351000D01*
X41062820Y-33350386D01*
X41040469Y-33335146D01*
X41039572Y-33334588D01*
X41016247Y-33321380D01*
X41015296Y-33320893D01*
X40990998Y-33309717D01*
X40990012Y-33309313D01*
X40964740Y-33300168D01*
X40963741Y-33299852D01*
X40937495Y-33292740D01*
X40936503Y-33292513D01*
X40909284Y-33287434D01*
X40908319Y-33287293D01*
X40880127Y-33284245D01*
X40879204Y-33284179D01*
X40862296Y-33283590D01*
X40862296Y-33155720D01*
X40879204Y-33155131D01*
X40880127Y-33155065D01*
X40908319Y-33152017D01*
X40909284Y-33151875D01*
X40936503Y-33146795D01*
X40937495Y-33146569D01*
X40963741Y-33139457D01*
X40964740Y-33139141D01*
X40990012Y-33129997D01*
X40990998Y-33129593D01*
X41015296Y-33118416D01*
X41016247Y-33117929D01*
X41039572Y-33104721D01*
X41040468Y-33104163D01*
X41062819Y-33088924D01*
X41063646Y-33088310D01*
X41085024Y-33071038D01*
X41085771Y-33070385D01*
X41099303Y-33057583D01*
X41380414Y-33219655D01*
X41380414Y-33219655D01*
G37*
X41380414Y-33219655D02*
X41099303Y-33381727D01*
X41085771Y-33368925D01*
X41085024Y-33368272D01*
X41063646Y-33351000D01*
X41062820Y-33350386D01*
X41040469Y-33335146D01*
X41039572Y-33334588D01*
X41016247Y-33321380D01*
X41015296Y-33320893D01*
X40990998Y-33309717D01*
X40990012Y-33309313D01*
X40964740Y-33300168D01*
X40963741Y-33299852D01*
X40937495Y-33292740D01*
X40936503Y-33292513D01*
X40909284Y-33287434D01*
X40908319Y-33287293D01*
X40880127Y-33284245D01*
X40879204Y-33284179D01*
X40862296Y-33283590D01*
X40862296Y-33155720D01*
X40879204Y-33155131D01*
X40880127Y-33155065D01*
X40908319Y-33152017D01*
X40909284Y-33151875D01*
X40936503Y-33146795D01*
X40937495Y-33146569D01*
X40963741Y-33139457D01*
X40964740Y-33139141D01*
X40990012Y-33129997D01*
X40990998Y-33129593D01*
X41015296Y-33118416D01*
X41016247Y-33117929D01*
X41039572Y-33104721D01*
X41040468Y-33104163D01*
X41062819Y-33088924D01*
X41063646Y-33088310D01*
X41085024Y-33071038D01*
X41085771Y-33070385D01*
X41099303Y-33057583D01*
X41380414Y-33219655D01*
G36*
X34862308Y-33552983D02*
G01*
X34863055Y-33553637D01*
X34884433Y-33570909D01*
X34885259Y-33571523D01*
X34907610Y-33586763D01*
X34908507Y-33587321D01*
X34931832Y-33600529D01*
X34932783Y-33601016D01*
X34957082Y-33612192D01*
X34958068Y-33612596D01*
X34983339Y-33621740D01*
X34984338Y-33622056D01*
X35010584Y-33629168D01*
X35011576Y-33629394D01*
X35038795Y-33634474D01*
X35039760Y-33634616D01*
X35067952Y-33637664D01*
X35068875Y-33637730D01*
X35085784Y-33638319D01*
X35085784Y-33766189D01*
X35068875Y-33766778D01*
X35067952Y-33766844D01*
X35039760Y-33769892D01*
X35038795Y-33770034D01*
X35011576Y-33775114D01*
X35010584Y-33775340D01*
X34984338Y-33782452D01*
X34983339Y-33782768D01*
X34958068Y-33791912D01*
X34957082Y-33792316D01*
X34932783Y-33803492D01*
X34931832Y-33803979D01*
X34908507Y-33817187D01*
X34907610Y-33817745D01*
X34885259Y-33832985D01*
X34884433Y-33833599D01*
X34863055Y-33850871D01*
X34862308Y-33851525D01*
X34848778Y-33864326D01*
X34567666Y-33702254D01*
X34848778Y-33540182D01*
X34862308Y-33552983D01*
X34862308Y-33552983D01*
G37*
X34862308Y-33552983D02*
X34863055Y-33553637D01*
X34884433Y-33570909D01*
X34885259Y-33571523D01*
X34907610Y-33586763D01*
X34908507Y-33587321D01*
X34931832Y-33600529D01*
X34932783Y-33601016D01*
X34957082Y-33612192D01*
X34958068Y-33612596D01*
X34983339Y-33621740D01*
X34984338Y-33622056D01*
X35010584Y-33629168D01*
X35011576Y-33629394D01*
X35038795Y-33634474D01*
X35039760Y-33634616D01*
X35067952Y-33637664D01*
X35068875Y-33637730D01*
X35085784Y-33638319D01*
X35085784Y-33766189D01*
X35068875Y-33766778D01*
X35067952Y-33766844D01*
X35039760Y-33769892D01*
X35038795Y-33770034D01*
X35011576Y-33775114D01*
X35010584Y-33775340D01*
X34984338Y-33782452D01*
X34983339Y-33782768D01*
X34958068Y-33791912D01*
X34957082Y-33792316D01*
X34932783Y-33803492D01*
X34931832Y-33803979D01*
X34908507Y-33817187D01*
X34907610Y-33817745D01*
X34885259Y-33832985D01*
X34884433Y-33833599D01*
X34863055Y-33850871D01*
X34862308Y-33851525D01*
X34848778Y-33864326D01*
X34567666Y-33702254D01*
X34848778Y-33540182D01*
X34862308Y-33552983D01*
G36*
X40770814Y-33702254D02*
G01*
X40489703Y-33864326D01*
X40476171Y-33851524D01*
X40475424Y-33850871D01*
X40454046Y-33833599D01*
X40453220Y-33832985D01*
X40430869Y-33817745D01*
X40429972Y-33817187D01*
X40406647Y-33803979D01*
X40405696Y-33803492D01*
X40381398Y-33792316D01*
X40380412Y-33791912D01*
X40355140Y-33782768D01*
X40354141Y-33782452D01*
X40327895Y-33775340D01*
X40326903Y-33775114D01*
X40299684Y-33770034D01*
X40298719Y-33769892D01*
X40270527Y-33766844D01*
X40269604Y-33766778D01*
X40252696Y-33766189D01*
X40252696Y-33638319D01*
X40269604Y-33637730D01*
X40270527Y-33637664D01*
X40298719Y-33634616D01*
X40299684Y-33634474D01*
X40326903Y-33629394D01*
X40327895Y-33629168D01*
X40354141Y-33622056D01*
X40355140Y-33621740D01*
X40380412Y-33612596D01*
X40381398Y-33612192D01*
X40405696Y-33601016D01*
X40406647Y-33600529D01*
X40429972Y-33587321D01*
X40430869Y-33586763D01*
X40453220Y-33571523D01*
X40454046Y-33570909D01*
X40475424Y-33553637D01*
X40476171Y-33552984D01*
X40489703Y-33540182D01*
X40770814Y-33702254D01*
X40770814Y-33702254D01*
G37*
X40770814Y-33702254D02*
X40489703Y-33864326D01*
X40476171Y-33851524D01*
X40475424Y-33850871D01*
X40454046Y-33833599D01*
X40453220Y-33832985D01*
X40430869Y-33817745D01*
X40429972Y-33817187D01*
X40406647Y-33803979D01*
X40405696Y-33803492D01*
X40381398Y-33792316D01*
X40380412Y-33791912D01*
X40355140Y-33782768D01*
X40354141Y-33782452D01*
X40327895Y-33775340D01*
X40326903Y-33775114D01*
X40299684Y-33770034D01*
X40298719Y-33769892D01*
X40270527Y-33766844D01*
X40269604Y-33766778D01*
X40252696Y-33766189D01*
X40252696Y-33638319D01*
X40269604Y-33637730D01*
X40270527Y-33637664D01*
X40298719Y-33634616D01*
X40299684Y-33634474D01*
X40326903Y-33629394D01*
X40327895Y-33629168D01*
X40354141Y-33622056D01*
X40355140Y-33621740D01*
X40380412Y-33612596D01*
X40381398Y-33612192D01*
X40405696Y-33601016D01*
X40406647Y-33600529D01*
X40429972Y-33587321D01*
X40430869Y-33586763D01*
X40453220Y-33571523D01*
X40454046Y-33570909D01*
X40475424Y-33553637D01*
X40476171Y-33552984D01*
X40489703Y-33540182D01*
X40770814Y-33702254D01*
G36*
X41380414Y-34184854D02*
G01*
X41099303Y-34346926D01*
X41085771Y-34334124D01*
X41085024Y-34333471D01*
X41063646Y-34316199D01*
X41062820Y-34315585D01*
X41040469Y-34300345D01*
X41039572Y-34299787D01*
X41016247Y-34286579D01*
X41015296Y-34286092D01*
X40990998Y-34274916D01*
X40990012Y-34274512D01*
X40964740Y-34265368D01*
X40963741Y-34265052D01*
X40937495Y-34257940D01*
X40936503Y-34257714D01*
X40909284Y-34252634D01*
X40908319Y-34252492D01*
X40880127Y-34249444D01*
X40879204Y-34249378D01*
X40862296Y-34248789D01*
X40862296Y-34120919D01*
X40879204Y-34120330D01*
X40880127Y-34120264D01*
X40908319Y-34117216D01*
X40909284Y-34117074D01*
X40936503Y-34111994D01*
X40937495Y-34111768D01*
X40963741Y-34104656D01*
X40964740Y-34104340D01*
X40990012Y-34095196D01*
X40990998Y-34094792D01*
X41015296Y-34083616D01*
X41016247Y-34083129D01*
X41039572Y-34069921D01*
X41040469Y-34069363D01*
X41062820Y-34054123D01*
X41063646Y-34053509D01*
X41085024Y-34036237D01*
X41085771Y-34035584D01*
X41099303Y-34022782D01*
X41380414Y-34184854D01*
X41380414Y-34184854D01*
G37*
X41380414Y-34184854D02*
X41099303Y-34346926D01*
X41085771Y-34334124D01*
X41085024Y-34333471D01*
X41063646Y-34316199D01*
X41062820Y-34315585D01*
X41040469Y-34300345D01*
X41039572Y-34299787D01*
X41016247Y-34286579D01*
X41015296Y-34286092D01*
X40990998Y-34274916D01*
X40990012Y-34274512D01*
X40964740Y-34265368D01*
X40963741Y-34265052D01*
X40937495Y-34257940D01*
X40936503Y-34257714D01*
X40909284Y-34252634D01*
X40908319Y-34252492D01*
X40880127Y-34249444D01*
X40879204Y-34249378D01*
X40862296Y-34248789D01*
X40862296Y-34120919D01*
X40879204Y-34120330D01*
X40880127Y-34120264D01*
X40908319Y-34117216D01*
X40909284Y-34117074D01*
X40936503Y-34111994D01*
X40937495Y-34111768D01*
X40963741Y-34104656D01*
X40964740Y-34104340D01*
X40990012Y-34095196D01*
X40990998Y-34094792D01*
X41015296Y-34083616D01*
X41016247Y-34083129D01*
X41039572Y-34069921D01*
X41040469Y-34069363D01*
X41062820Y-34054123D01*
X41063646Y-34053509D01*
X41085024Y-34036237D01*
X41085771Y-34035584D01*
X41099303Y-34022782D01*
X41380414Y-34184854D01*
G36*
X35471908Y-34035583D02*
G01*
X35472655Y-34036237D01*
X35494033Y-34053509D01*
X35494859Y-34054123D01*
X35517210Y-34069363D01*
X35518107Y-34069921D01*
X35541432Y-34083129D01*
X35542383Y-34083616D01*
X35566682Y-34094792D01*
X35567668Y-34095196D01*
X35592939Y-34104340D01*
X35593938Y-34104656D01*
X35620184Y-34111768D01*
X35621176Y-34111994D01*
X35648395Y-34117074D01*
X35649360Y-34117216D01*
X35677552Y-34120264D01*
X35678475Y-34120330D01*
X35695384Y-34120919D01*
X35695384Y-34248789D01*
X35678475Y-34249378D01*
X35677552Y-34249444D01*
X35649360Y-34252492D01*
X35648395Y-34252634D01*
X35621176Y-34257714D01*
X35620184Y-34257940D01*
X35593938Y-34265052D01*
X35592939Y-34265368D01*
X35567668Y-34274512D01*
X35566682Y-34274916D01*
X35542383Y-34286092D01*
X35541432Y-34286579D01*
X35518107Y-34299787D01*
X35517210Y-34300345D01*
X35494859Y-34315585D01*
X35494033Y-34316199D01*
X35472655Y-34333471D01*
X35471908Y-34334125D01*
X35458378Y-34346926D01*
X35177266Y-34184854D01*
X35458378Y-34022782D01*
X35471908Y-34035583D01*
X35471908Y-34035583D01*
G37*
X35471908Y-34035583D02*
X35472655Y-34036237D01*
X35494033Y-34053509D01*
X35494859Y-34054123D01*
X35517210Y-34069363D01*
X35518107Y-34069921D01*
X35541432Y-34083129D01*
X35542383Y-34083616D01*
X35566682Y-34094792D01*
X35567668Y-34095196D01*
X35592939Y-34104340D01*
X35593938Y-34104656D01*
X35620184Y-34111768D01*
X35621176Y-34111994D01*
X35648395Y-34117074D01*
X35649360Y-34117216D01*
X35677552Y-34120264D01*
X35678475Y-34120330D01*
X35695384Y-34120919D01*
X35695384Y-34248789D01*
X35678475Y-34249378D01*
X35677552Y-34249444D01*
X35649360Y-34252492D01*
X35648395Y-34252634D01*
X35621176Y-34257714D01*
X35620184Y-34257940D01*
X35593938Y-34265052D01*
X35592939Y-34265368D01*
X35567668Y-34274512D01*
X35566682Y-34274916D01*
X35542383Y-34286092D01*
X35541432Y-34286579D01*
X35518107Y-34299787D01*
X35517210Y-34300345D01*
X35494859Y-34315585D01*
X35494033Y-34316199D01*
X35472655Y-34333471D01*
X35471908Y-34334125D01*
X35458378Y-34346926D01*
X35177266Y-34184854D01*
X35458378Y-34022782D01*
X35471908Y-34035583D01*
G36*
X34862308Y-34518182D02*
G01*
X34863055Y-34518836D01*
X34884433Y-34536108D01*
X34885259Y-34536722D01*
X34907610Y-34551962D01*
X34908507Y-34552520D01*
X34931832Y-34565728D01*
X34932783Y-34566215D01*
X34957082Y-34577391D01*
X34958068Y-34577795D01*
X34983339Y-34586939D01*
X34984338Y-34587255D01*
X35010584Y-34594367D01*
X35011576Y-34594593D01*
X35038795Y-34599673D01*
X35039760Y-34599815D01*
X35067952Y-34602863D01*
X35068875Y-34602929D01*
X35085784Y-34603518D01*
X35085784Y-34731388D01*
X35068875Y-34731977D01*
X35067952Y-34732043D01*
X35039760Y-34735091D01*
X35038795Y-34735233D01*
X35011576Y-34740313D01*
X35010584Y-34740539D01*
X34984338Y-34747651D01*
X34983339Y-34747967D01*
X34958068Y-34757111D01*
X34957082Y-34757515D01*
X34932783Y-34768691D01*
X34931832Y-34769178D01*
X34908507Y-34782386D01*
X34907610Y-34782944D01*
X34885259Y-34798184D01*
X34884433Y-34798798D01*
X34863055Y-34816070D01*
X34862308Y-34816724D01*
X34848778Y-34829525D01*
X34567666Y-34667453D01*
X34848778Y-34505381D01*
X34862308Y-34518182D01*
X34862308Y-34518182D01*
G37*
X34862308Y-34518182D02*
X34863055Y-34518836D01*
X34884433Y-34536108D01*
X34885259Y-34536722D01*
X34907610Y-34551962D01*
X34908507Y-34552520D01*
X34931832Y-34565728D01*
X34932783Y-34566215D01*
X34957082Y-34577391D01*
X34958068Y-34577795D01*
X34983339Y-34586939D01*
X34984338Y-34587255D01*
X35010584Y-34594367D01*
X35011576Y-34594593D01*
X35038795Y-34599673D01*
X35039760Y-34599815D01*
X35067952Y-34602863D01*
X35068875Y-34602929D01*
X35085784Y-34603518D01*
X35085784Y-34731388D01*
X35068875Y-34731977D01*
X35067952Y-34732043D01*
X35039760Y-34735091D01*
X35038795Y-34735233D01*
X35011576Y-34740313D01*
X35010584Y-34740539D01*
X34984338Y-34747651D01*
X34983339Y-34747967D01*
X34958068Y-34757111D01*
X34957082Y-34757515D01*
X34932783Y-34768691D01*
X34931832Y-34769178D01*
X34908507Y-34782386D01*
X34907610Y-34782944D01*
X34885259Y-34798184D01*
X34884433Y-34798798D01*
X34863055Y-34816070D01*
X34862308Y-34816724D01*
X34848778Y-34829525D01*
X34567666Y-34667453D01*
X34848778Y-34505381D01*
X34862308Y-34518182D01*
G36*
X40770814Y-34667453D02*
G01*
X40489703Y-34829525D01*
X40476171Y-34816723D01*
X40475424Y-34816070D01*
X40454046Y-34798798D01*
X40453220Y-34798184D01*
X40430869Y-34782944D01*
X40429972Y-34782386D01*
X40406647Y-34769178D01*
X40405696Y-34768691D01*
X40381398Y-34757515D01*
X40380412Y-34757111D01*
X40355140Y-34747967D01*
X40354141Y-34747651D01*
X40327895Y-34740539D01*
X40326903Y-34740313D01*
X40299684Y-34735233D01*
X40298719Y-34735091D01*
X40270527Y-34732043D01*
X40269604Y-34731977D01*
X40252696Y-34731388D01*
X40252696Y-34603518D01*
X40269604Y-34602929D01*
X40270527Y-34602863D01*
X40298719Y-34599815D01*
X40299684Y-34599673D01*
X40326903Y-34594593D01*
X40327895Y-34594367D01*
X40354141Y-34587255D01*
X40355140Y-34586939D01*
X40380412Y-34577795D01*
X40381398Y-34577391D01*
X40405696Y-34566215D01*
X40406647Y-34565728D01*
X40429972Y-34552520D01*
X40430869Y-34551962D01*
X40453220Y-34536722D01*
X40454046Y-34536108D01*
X40475424Y-34518836D01*
X40476171Y-34518183D01*
X40489703Y-34505381D01*
X40770814Y-34667453D01*
X40770814Y-34667453D01*
G37*
X40770814Y-34667453D02*
X40489703Y-34829525D01*
X40476171Y-34816723D01*
X40475424Y-34816070D01*
X40454046Y-34798798D01*
X40453220Y-34798184D01*
X40430869Y-34782944D01*
X40429972Y-34782386D01*
X40406647Y-34769178D01*
X40405696Y-34768691D01*
X40381398Y-34757515D01*
X40380412Y-34757111D01*
X40355140Y-34747967D01*
X40354141Y-34747651D01*
X40327895Y-34740539D01*
X40326903Y-34740313D01*
X40299684Y-34735233D01*
X40298719Y-34735091D01*
X40270527Y-34732043D01*
X40269604Y-34731977D01*
X40252696Y-34731388D01*
X40252696Y-34603518D01*
X40269604Y-34602929D01*
X40270527Y-34602863D01*
X40298719Y-34599815D01*
X40299684Y-34599673D01*
X40326903Y-34594593D01*
X40327895Y-34594367D01*
X40354141Y-34587255D01*
X40355140Y-34586939D01*
X40380412Y-34577795D01*
X40381398Y-34577391D01*
X40405696Y-34566215D01*
X40406647Y-34565728D01*
X40429972Y-34552520D01*
X40430869Y-34551962D01*
X40453220Y-34536722D01*
X40454046Y-34536108D01*
X40475424Y-34518836D01*
X40476171Y-34518183D01*
X40489703Y-34505381D01*
X40770814Y-34667453D01*
G36*
X35471908Y-35000782D02*
G01*
X35472655Y-35001436D01*
X35494033Y-35018708D01*
X35494859Y-35019322D01*
X35517210Y-35034562D01*
X35518107Y-35035120D01*
X35541432Y-35048328D01*
X35542383Y-35048815D01*
X35566682Y-35059991D01*
X35567668Y-35060395D01*
X35592939Y-35069539D01*
X35593938Y-35069855D01*
X35620184Y-35076967D01*
X35621176Y-35077193D01*
X35648395Y-35082273D01*
X35649360Y-35082415D01*
X35677552Y-35085463D01*
X35678475Y-35085529D01*
X35695384Y-35086118D01*
X35695384Y-35213988D01*
X35678475Y-35214577D01*
X35677552Y-35214643D01*
X35649360Y-35217691D01*
X35648395Y-35217833D01*
X35621176Y-35222913D01*
X35620184Y-35223139D01*
X35593938Y-35230251D01*
X35592939Y-35230567D01*
X35567668Y-35239711D01*
X35566682Y-35240115D01*
X35542383Y-35251291D01*
X35541432Y-35251778D01*
X35518107Y-35264986D01*
X35517210Y-35265544D01*
X35494859Y-35280784D01*
X35494033Y-35281398D01*
X35472655Y-35298670D01*
X35471908Y-35299324D01*
X35458378Y-35312125D01*
X35177266Y-35150053D01*
X35458378Y-34987981D01*
X35471908Y-35000782D01*
X35471908Y-35000782D01*
G37*
X35471908Y-35000782D02*
X35472655Y-35001436D01*
X35494033Y-35018708D01*
X35494859Y-35019322D01*
X35517210Y-35034562D01*
X35518107Y-35035120D01*
X35541432Y-35048328D01*
X35542383Y-35048815D01*
X35566682Y-35059991D01*
X35567668Y-35060395D01*
X35592939Y-35069539D01*
X35593938Y-35069855D01*
X35620184Y-35076967D01*
X35621176Y-35077193D01*
X35648395Y-35082273D01*
X35649360Y-35082415D01*
X35677552Y-35085463D01*
X35678475Y-35085529D01*
X35695384Y-35086118D01*
X35695384Y-35213988D01*
X35678475Y-35214577D01*
X35677552Y-35214643D01*
X35649360Y-35217691D01*
X35648395Y-35217833D01*
X35621176Y-35222913D01*
X35620184Y-35223139D01*
X35593938Y-35230251D01*
X35592939Y-35230567D01*
X35567668Y-35239711D01*
X35566682Y-35240115D01*
X35542383Y-35251291D01*
X35541432Y-35251778D01*
X35518107Y-35264986D01*
X35517210Y-35265544D01*
X35494859Y-35280784D01*
X35494033Y-35281398D01*
X35472655Y-35298670D01*
X35471908Y-35299324D01*
X35458378Y-35312125D01*
X35177266Y-35150053D01*
X35458378Y-34987981D01*
X35471908Y-35000782D01*
G36*
X41380414Y-35150053D02*
G01*
X41099452Y-35312038D01*
X41086630Y-35299477D01*
X41086218Y-35299091D01*
X41066942Y-35281819D01*
X41066452Y-35281401D01*
X41047602Y-35266161D01*
X41047017Y-35265716D01*
X41028594Y-35252508D01*
X41027894Y-35252040D01*
X41009899Y-35240864D01*
X41009063Y-35240388D01*
X40991495Y-35231244D01*
X40990498Y-35230779D01*
X40973357Y-35223667D01*
X40972183Y-35223246D01*
X40955469Y-35218166D01*
X40954112Y-35217834D01*
X40937825Y-35214786D01*
X40936301Y-35214595D01*
X40932330Y-35214341D01*
X40932330Y-35085765D01*
X40936301Y-35085511D01*
X40937825Y-35085320D01*
X40954112Y-35082272D01*
X40955469Y-35081940D01*
X40972183Y-35076860D01*
X40973357Y-35076439D01*
X40990498Y-35069327D01*
X40991495Y-35068862D01*
X41009063Y-35059718D01*
X41009899Y-35059242D01*
X41027894Y-35048066D01*
X41028594Y-35047598D01*
X41047017Y-35034390D01*
X41047602Y-35033945D01*
X41066452Y-35018705D01*
X41066942Y-35018287D01*
X41086218Y-35001015D01*
X41086630Y-35000629D01*
X41099452Y-34988068D01*
X41380414Y-35150053D01*
X41380414Y-35150053D01*
G37*
X41380414Y-35150053D02*
X41099452Y-35312038D01*
X41086630Y-35299477D01*
X41086218Y-35299091D01*
X41066942Y-35281819D01*
X41066452Y-35281401D01*
X41047602Y-35266161D01*
X41047017Y-35265716D01*
X41028594Y-35252508D01*
X41027894Y-35252040D01*
X41009899Y-35240864D01*
X41009063Y-35240388D01*
X40991495Y-35231244D01*
X40990498Y-35230779D01*
X40973357Y-35223667D01*
X40972183Y-35223246D01*
X40955469Y-35218166D01*
X40954112Y-35217834D01*
X40937825Y-35214786D01*
X40936301Y-35214595D01*
X40932330Y-35214341D01*
X40932330Y-35085765D01*
X40936301Y-35085511D01*
X40937825Y-35085320D01*
X40954112Y-35082272D01*
X40955469Y-35081940D01*
X40972183Y-35076860D01*
X40973357Y-35076439D01*
X40990498Y-35069327D01*
X40991495Y-35068862D01*
X41009063Y-35059718D01*
X41009899Y-35059242D01*
X41027894Y-35048066D01*
X41028594Y-35047598D01*
X41047017Y-35034390D01*
X41047602Y-35033945D01*
X41066452Y-35018705D01*
X41066942Y-35018287D01*
X41086218Y-35001015D01*
X41086630Y-35000629D01*
X41099452Y-34988068D01*
X41380414Y-35150053D01*
G36*
X34862308Y-35483381D02*
G01*
X34863055Y-35484035D01*
X34884433Y-35501307D01*
X34885259Y-35501921D01*
X34907610Y-35517161D01*
X34908507Y-35517719D01*
X34931832Y-35530927D01*
X34932783Y-35531414D01*
X34957082Y-35542590D01*
X34958068Y-35542994D01*
X34983339Y-35552138D01*
X34984338Y-35552454D01*
X35010584Y-35559566D01*
X35011576Y-35559792D01*
X35038795Y-35564872D01*
X35039760Y-35565014D01*
X35067952Y-35568062D01*
X35068875Y-35568128D01*
X35085784Y-35568717D01*
X35085784Y-35696587D01*
X35068875Y-35697176D01*
X35067952Y-35697242D01*
X35039760Y-35700290D01*
X35038795Y-35700432D01*
X35011576Y-35705512D01*
X35010584Y-35705738D01*
X34984338Y-35712850D01*
X34983339Y-35713166D01*
X34958068Y-35722310D01*
X34957082Y-35722714D01*
X34932783Y-35733890D01*
X34931832Y-35734377D01*
X34908507Y-35747585D01*
X34907610Y-35748143D01*
X34885259Y-35763383D01*
X34884433Y-35763997D01*
X34863055Y-35781269D01*
X34862308Y-35781923D01*
X34848778Y-35794724D01*
X34567666Y-35632652D01*
X34848778Y-35470580D01*
X34862308Y-35483381D01*
X34862308Y-35483381D01*
G37*
X34862308Y-35483381D02*
X34863055Y-35484035D01*
X34884433Y-35501307D01*
X34885259Y-35501921D01*
X34907610Y-35517161D01*
X34908507Y-35517719D01*
X34931832Y-35530927D01*
X34932783Y-35531414D01*
X34957082Y-35542590D01*
X34958068Y-35542994D01*
X34983339Y-35552138D01*
X34984338Y-35552454D01*
X35010584Y-35559566D01*
X35011576Y-35559792D01*
X35038795Y-35564872D01*
X35039760Y-35565014D01*
X35067952Y-35568062D01*
X35068875Y-35568128D01*
X35085784Y-35568717D01*
X35085784Y-35696587D01*
X35068875Y-35697176D01*
X35067952Y-35697242D01*
X35039760Y-35700290D01*
X35038795Y-35700432D01*
X35011576Y-35705512D01*
X35010584Y-35705738D01*
X34984338Y-35712850D01*
X34983339Y-35713166D01*
X34958068Y-35722310D01*
X34957082Y-35722714D01*
X34932783Y-35733890D01*
X34931832Y-35734377D01*
X34908507Y-35747585D01*
X34907610Y-35748143D01*
X34885259Y-35763383D01*
X34884433Y-35763997D01*
X34863055Y-35781269D01*
X34862308Y-35781923D01*
X34848778Y-35794724D01*
X34567666Y-35632652D01*
X34848778Y-35470580D01*
X34862308Y-35483381D01*
G36*
X40770814Y-35632652D02*
G01*
X40489703Y-35794724D01*
X40476171Y-35781922D01*
X40475424Y-35781269D01*
X40454046Y-35763997D01*
X40453220Y-35763383D01*
X40430869Y-35748143D01*
X40429972Y-35747585D01*
X40406647Y-35734377D01*
X40405696Y-35733890D01*
X40381398Y-35722714D01*
X40380412Y-35722310D01*
X40355140Y-35713166D01*
X40354141Y-35712850D01*
X40327895Y-35705738D01*
X40326903Y-35705512D01*
X40299684Y-35700432D01*
X40298719Y-35700290D01*
X40270527Y-35697242D01*
X40269604Y-35697176D01*
X40252696Y-35696587D01*
X40252696Y-35568717D01*
X40269604Y-35568128D01*
X40270527Y-35568062D01*
X40298719Y-35565014D01*
X40299684Y-35564872D01*
X40326903Y-35559792D01*
X40327895Y-35559566D01*
X40354141Y-35552454D01*
X40355140Y-35552138D01*
X40380412Y-35542994D01*
X40381398Y-35542590D01*
X40405696Y-35531414D01*
X40406647Y-35530927D01*
X40429972Y-35517719D01*
X40430869Y-35517161D01*
X40453220Y-35501921D01*
X40454046Y-35501307D01*
X40475424Y-35484035D01*
X40476171Y-35483382D01*
X40489703Y-35470580D01*
X40770814Y-35632652D01*
X40770814Y-35632652D01*
G37*
X40770814Y-35632652D02*
X40489703Y-35794724D01*
X40476171Y-35781922D01*
X40475424Y-35781269D01*
X40454046Y-35763997D01*
X40453220Y-35763383D01*
X40430869Y-35748143D01*
X40429972Y-35747585D01*
X40406647Y-35734377D01*
X40405696Y-35733890D01*
X40381398Y-35722714D01*
X40380412Y-35722310D01*
X40355140Y-35713166D01*
X40354141Y-35712850D01*
X40327895Y-35705738D01*
X40326903Y-35705512D01*
X40299684Y-35700432D01*
X40298719Y-35700290D01*
X40270527Y-35697242D01*
X40269604Y-35697176D01*
X40252696Y-35696587D01*
X40252696Y-35568717D01*
X40269604Y-35568128D01*
X40270527Y-35568062D01*
X40298719Y-35565014D01*
X40299684Y-35564872D01*
X40326903Y-35559792D01*
X40327895Y-35559566D01*
X40354141Y-35552454D01*
X40355140Y-35552138D01*
X40380412Y-35542994D01*
X40381398Y-35542590D01*
X40405696Y-35531414D01*
X40406647Y-35530927D01*
X40429972Y-35517719D01*
X40430869Y-35517161D01*
X40453220Y-35501921D01*
X40454046Y-35501307D01*
X40475424Y-35484035D01*
X40476171Y-35483382D01*
X40489703Y-35470580D01*
X40770814Y-35632652D01*
G36*
X35471908Y-35965981D02*
G01*
X35472655Y-35966635D01*
X35494033Y-35983907D01*
X35494859Y-35984521D01*
X35517210Y-35999761D01*
X35518107Y-36000319D01*
X35541432Y-36013527D01*
X35542383Y-36014014D01*
X35566682Y-36025190D01*
X35567668Y-36025594D01*
X35592939Y-36034738D01*
X35593938Y-36035054D01*
X35620184Y-36042166D01*
X35621176Y-36042392D01*
X35648395Y-36047472D01*
X35649360Y-36047614D01*
X35677552Y-36050662D01*
X35678475Y-36050728D01*
X35695384Y-36051317D01*
X35695384Y-36179187D01*
X35678475Y-36179776D01*
X35677552Y-36179842D01*
X35649360Y-36182890D01*
X35648395Y-36183032D01*
X35621176Y-36188112D01*
X35620184Y-36188338D01*
X35593938Y-36195450D01*
X35592939Y-36195766D01*
X35567668Y-36204910D01*
X35566682Y-36205314D01*
X35542383Y-36216490D01*
X35541432Y-36216977D01*
X35518107Y-36230185D01*
X35517210Y-36230743D01*
X35494859Y-36245983D01*
X35494033Y-36246597D01*
X35472655Y-36263869D01*
X35471908Y-36264523D01*
X35458378Y-36277324D01*
X35177266Y-36115252D01*
X35458378Y-35953180D01*
X35471908Y-35965981D01*
X35471908Y-35965981D01*
G37*
X35471908Y-35965981D02*
X35472655Y-35966635D01*
X35494033Y-35983907D01*
X35494859Y-35984521D01*
X35517210Y-35999761D01*
X35518107Y-36000319D01*
X35541432Y-36013527D01*
X35542383Y-36014014D01*
X35566682Y-36025190D01*
X35567668Y-36025594D01*
X35592939Y-36034738D01*
X35593938Y-36035054D01*
X35620184Y-36042166D01*
X35621176Y-36042392D01*
X35648395Y-36047472D01*
X35649360Y-36047614D01*
X35677552Y-36050662D01*
X35678475Y-36050728D01*
X35695384Y-36051317D01*
X35695384Y-36179187D01*
X35678475Y-36179776D01*
X35677552Y-36179842D01*
X35649360Y-36182890D01*
X35648395Y-36183032D01*
X35621176Y-36188112D01*
X35620184Y-36188338D01*
X35593938Y-36195450D01*
X35592939Y-36195766D01*
X35567668Y-36204910D01*
X35566682Y-36205314D01*
X35542383Y-36216490D01*
X35541432Y-36216977D01*
X35518107Y-36230185D01*
X35517210Y-36230743D01*
X35494859Y-36245983D01*
X35494033Y-36246597D01*
X35472655Y-36263869D01*
X35471908Y-36264523D01*
X35458378Y-36277324D01*
X35177266Y-36115252D01*
X35458378Y-35953180D01*
X35471908Y-35965981D01*
G36*
X41380414Y-36115252D02*
G01*
X41099303Y-36277324D01*
X41085771Y-36264522D01*
X41085024Y-36263869D01*
X41063646Y-36246597D01*
X41062820Y-36245983D01*
X41040469Y-36230743D01*
X41039572Y-36230185D01*
X41016247Y-36216977D01*
X41015296Y-36216490D01*
X40990998Y-36205314D01*
X40990012Y-36204910D01*
X40964740Y-36195766D01*
X40963741Y-36195450D01*
X40937495Y-36188338D01*
X40936503Y-36188112D01*
X40909284Y-36183032D01*
X40908319Y-36182890D01*
X40880127Y-36179842D01*
X40879204Y-36179776D01*
X40862296Y-36179187D01*
X40862296Y-36051317D01*
X40879204Y-36050728D01*
X40880127Y-36050662D01*
X40908319Y-36047614D01*
X40909284Y-36047472D01*
X40936503Y-36042392D01*
X40937495Y-36042166D01*
X40963741Y-36035054D01*
X40964740Y-36034738D01*
X40990012Y-36025594D01*
X40990998Y-36025190D01*
X41015296Y-36014014D01*
X41016247Y-36013527D01*
X41039572Y-36000319D01*
X41040469Y-35999761D01*
X41062820Y-35984521D01*
X41063646Y-35983907D01*
X41085024Y-35966635D01*
X41085771Y-35965982D01*
X41099303Y-35953180D01*
X41380414Y-36115252D01*
X41380414Y-36115252D01*
G37*
X41380414Y-36115252D02*
X41099303Y-36277324D01*
X41085771Y-36264522D01*
X41085024Y-36263869D01*
X41063646Y-36246597D01*
X41062820Y-36245983D01*
X41040469Y-36230743D01*
X41039572Y-36230185D01*
X41016247Y-36216977D01*
X41015296Y-36216490D01*
X40990998Y-36205314D01*
X40990012Y-36204910D01*
X40964740Y-36195766D01*
X40963741Y-36195450D01*
X40937495Y-36188338D01*
X40936503Y-36188112D01*
X40909284Y-36183032D01*
X40908319Y-36182890D01*
X40880127Y-36179842D01*
X40879204Y-36179776D01*
X40862296Y-36179187D01*
X40862296Y-36051317D01*
X40879204Y-36050728D01*
X40880127Y-36050662D01*
X40908319Y-36047614D01*
X40909284Y-36047472D01*
X40936503Y-36042392D01*
X40937495Y-36042166D01*
X40963741Y-36035054D01*
X40964740Y-36034738D01*
X40990012Y-36025594D01*
X40990998Y-36025190D01*
X41015296Y-36014014D01*
X41016247Y-36013527D01*
X41039572Y-36000319D01*
X41040469Y-35999761D01*
X41062820Y-35984521D01*
X41063646Y-35983907D01*
X41085024Y-35966635D01*
X41085771Y-35965982D01*
X41099303Y-35953180D01*
X41380414Y-36115252D01*
G36*
X34862308Y-36448580D02*
G01*
X34863055Y-36449234D01*
X34884433Y-36466506D01*
X34885259Y-36467120D01*
X34907610Y-36482360D01*
X34908507Y-36482918D01*
X34931832Y-36496126D01*
X34932783Y-36496613D01*
X34957082Y-36507789D01*
X34958068Y-36508193D01*
X34983339Y-36517337D01*
X34984338Y-36517653D01*
X35010584Y-36524765D01*
X35011576Y-36524991D01*
X35038795Y-36530071D01*
X35039760Y-36530213D01*
X35067952Y-36533261D01*
X35068875Y-36533327D01*
X35085784Y-36533916D01*
X35085784Y-36661786D01*
X35068875Y-36662375D01*
X35067952Y-36662441D01*
X35039760Y-36665489D01*
X35038795Y-36665631D01*
X35011576Y-36670711D01*
X35010584Y-36670937D01*
X34984338Y-36678049D01*
X34983339Y-36678365D01*
X34958068Y-36687509D01*
X34957082Y-36687913D01*
X34932783Y-36699089D01*
X34931832Y-36699576D01*
X34908507Y-36712784D01*
X34907610Y-36713342D01*
X34885259Y-36728582D01*
X34884433Y-36729196D01*
X34863055Y-36746468D01*
X34862308Y-36747122D01*
X34848778Y-36759923D01*
X34567666Y-36597851D01*
X34848778Y-36435779D01*
X34862308Y-36448580D01*
X34862308Y-36448580D01*
G37*
X34862308Y-36448580D02*
X34863055Y-36449234D01*
X34884433Y-36466506D01*
X34885259Y-36467120D01*
X34907610Y-36482360D01*
X34908507Y-36482918D01*
X34931832Y-36496126D01*
X34932783Y-36496613D01*
X34957082Y-36507789D01*
X34958068Y-36508193D01*
X34983339Y-36517337D01*
X34984338Y-36517653D01*
X35010584Y-36524765D01*
X35011576Y-36524991D01*
X35038795Y-36530071D01*
X35039760Y-36530213D01*
X35067952Y-36533261D01*
X35068875Y-36533327D01*
X35085784Y-36533916D01*
X35085784Y-36661786D01*
X35068875Y-36662375D01*
X35067952Y-36662441D01*
X35039760Y-36665489D01*
X35038795Y-36665631D01*
X35011576Y-36670711D01*
X35010584Y-36670937D01*
X34984338Y-36678049D01*
X34983339Y-36678365D01*
X34958068Y-36687509D01*
X34957082Y-36687913D01*
X34932783Y-36699089D01*
X34931832Y-36699576D01*
X34908507Y-36712784D01*
X34907610Y-36713342D01*
X34885259Y-36728582D01*
X34884433Y-36729196D01*
X34863055Y-36746468D01*
X34862308Y-36747122D01*
X34848778Y-36759923D01*
X34567666Y-36597851D01*
X34848778Y-36435779D01*
X34862308Y-36448580D01*
G36*
X40770814Y-36597851D02*
G01*
X40489703Y-36759923D01*
X40476171Y-36747121D01*
X40475424Y-36746468D01*
X40454046Y-36729196D01*
X40453220Y-36728582D01*
X40430869Y-36713342D01*
X40429972Y-36712784D01*
X40406647Y-36699576D01*
X40405696Y-36699089D01*
X40381398Y-36687913D01*
X40380412Y-36687509D01*
X40355140Y-36678365D01*
X40354141Y-36678049D01*
X40327895Y-36670937D01*
X40326903Y-36670711D01*
X40299684Y-36665631D01*
X40298719Y-36665489D01*
X40270527Y-36662441D01*
X40269604Y-36662375D01*
X40252696Y-36661786D01*
X40252696Y-36533916D01*
X40269604Y-36533327D01*
X40270527Y-36533261D01*
X40298719Y-36530213D01*
X40299684Y-36530071D01*
X40326903Y-36524991D01*
X40327895Y-36524765D01*
X40354141Y-36517653D01*
X40355140Y-36517337D01*
X40380412Y-36508193D01*
X40381398Y-36507789D01*
X40405696Y-36496613D01*
X40406647Y-36496126D01*
X40429972Y-36482918D01*
X40430869Y-36482360D01*
X40453220Y-36467120D01*
X40454046Y-36466506D01*
X40475424Y-36449234D01*
X40476171Y-36448581D01*
X40489703Y-36435779D01*
X40770814Y-36597851D01*
X40770814Y-36597851D01*
G37*
X40770814Y-36597851D02*
X40489703Y-36759923D01*
X40476171Y-36747121D01*
X40475424Y-36746468D01*
X40454046Y-36729196D01*
X40453220Y-36728582D01*
X40430869Y-36713342D01*
X40429972Y-36712784D01*
X40406647Y-36699576D01*
X40405696Y-36699089D01*
X40381398Y-36687913D01*
X40380412Y-36687509D01*
X40355140Y-36678365D01*
X40354141Y-36678049D01*
X40327895Y-36670937D01*
X40326903Y-36670711D01*
X40299684Y-36665631D01*
X40298719Y-36665489D01*
X40270527Y-36662441D01*
X40269604Y-36662375D01*
X40252696Y-36661786D01*
X40252696Y-36533916D01*
X40269604Y-36533327D01*
X40270527Y-36533261D01*
X40298719Y-36530213D01*
X40299684Y-36530071D01*
X40326903Y-36524991D01*
X40327895Y-36524765D01*
X40354141Y-36517653D01*
X40355140Y-36517337D01*
X40380412Y-36508193D01*
X40381398Y-36507789D01*
X40405696Y-36496613D01*
X40406647Y-36496126D01*
X40429972Y-36482918D01*
X40430869Y-36482360D01*
X40453220Y-36467120D01*
X40454046Y-36466506D01*
X40475424Y-36449234D01*
X40476171Y-36448581D01*
X40489703Y-36435779D01*
X40770814Y-36597851D01*
G36*
X41380414Y-37080451D02*
G01*
X41099452Y-37242436D01*
X41086630Y-37229875D01*
X41086218Y-37229489D01*
X41066942Y-37212217D01*
X41066452Y-37211799D01*
X41047602Y-37196559D01*
X41047017Y-37196114D01*
X41028594Y-37182906D01*
X41027894Y-37182438D01*
X41009899Y-37171262D01*
X41009063Y-37170786D01*
X40991495Y-37161642D01*
X40990498Y-37161177D01*
X40973357Y-37154065D01*
X40972183Y-37153644D01*
X40955469Y-37148564D01*
X40954112Y-37148232D01*
X40937825Y-37145184D01*
X40936301Y-37144993D01*
X40932330Y-37144739D01*
X40932330Y-37016163D01*
X40936301Y-37015909D01*
X40937825Y-37015718D01*
X40954112Y-37012670D01*
X40955469Y-37012338D01*
X40972183Y-37007258D01*
X40973357Y-37006837D01*
X40990498Y-36999725D01*
X40991495Y-36999260D01*
X41009063Y-36990116D01*
X41009899Y-36989640D01*
X41027894Y-36978464D01*
X41028594Y-36977996D01*
X41047017Y-36964788D01*
X41047602Y-36964343D01*
X41066452Y-36949103D01*
X41066942Y-36948685D01*
X41086218Y-36931413D01*
X41086630Y-36931027D01*
X41099452Y-36918466D01*
X41380414Y-37080451D01*
X41380414Y-37080451D01*
G37*
X41380414Y-37080451D02*
X41099452Y-37242436D01*
X41086630Y-37229875D01*
X41086218Y-37229489D01*
X41066942Y-37212217D01*
X41066452Y-37211799D01*
X41047602Y-37196559D01*
X41047017Y-37196114D01*
X41028594Y-37182906D01*
X41027894Y-37182438D01*
X41009899Y-37171262D01*
X41009063Y-37170786D01*
X40991495Y-37161642D01*
X40990498Y-37161177D01*
X40973357Y-37154065D01*
X40972183Y-37153644D01*
X40955469Y-37148564D01*
X40954112Y-37148232D01*
X40937825Y-37145184D01*
X40936301Y-37144993D01*
X40932330Y-37144739D01*
X40932330Y-37016163D01*
X40936301Y-37015909D01*
X40937825Y-37015718D01*
X40954112Y-37012670D01*
X40955469Y-37012338D01*
X40972183Y-37007258D01*
X40973357Y-37006837D01*
X40990498Y-36999725D01*
X40991495Y-36999260D01*
X41009063Y-36990116D01*
X41009899Y-36989640D01*
X41027894Y-36978464D01*
X41028594Y-36977996D01*
X41047017Y-36964788D01*
X41047602Y-36964343D01*
X41066452Y-36949103D01*
X41066942Y-36948685D01*
X41086218Y-36931413D01*
X41086630Y-36931027D01*
X41099452Y-36918466D01*
X41380414Y-37080451D01*
G36*
X35471908Y-36931180D02*
G01*
X35472655Y-36931834D01*
X35494033Y-36949106D01*
X35494859Y-36949720D01*
X35517210Y-36964960D01*
X35518107Y-36965518D01*
X35541432Y-36978726D01*
X35542383Y-36979213D01*
X35566682Y-36990389D01*
X35567668Y-36990793D01*
X35592939Y-36999937D01*
X35593938Y-37000253D01*
X35620184Y-37007365D01*
X35621176Y-37007591D01*
X35648395Y-37012671D01*
X35649360Y-37012813D01*
X35677552Y-37015861D01*
X35678475Y-37015927D01*
X35695384Y-37016516D01*
X35695384Y-37144386D01*
X35678475Y-37144975D01*
X35677552Y-37145041D01*
X35649360Y-37148089D01*
X35648395Y-37148231D01*
X35621176Y-37153311D01*
X35620184Y-37153537D01*
X35593938Y-37160649D01*
X35592939Y-37160965D01*
X35567668Y-37170109D01*
X35566682Y-37170513D01*
X35542383Y-37181689D01*
X35541432Y-37182176D01*
X35518107Y-37195384D01*
X35517210Y-37195942D01*
X35494859Y-37211182D01*
X35494033Y-37211796D01*
X35472655Y-37229068D01*
X35471908Y-37229722D01*
X35458378Y-37242523D01*
X35177266Y-37080451D01*
X35458378Y-36918379D01*
X35471908Y-36931180D01*
X35471908Y-36931180D01*
G37*
X35471908Y-36931180D02*
X35472655Y-36931834D01*
X35494033Y-36949106D01*
X35494859Y-36949720D01*
X35517210Y-36964960D01*
X35518107Y-36965518D01*
X35541432Y-36978726D01*
X35542383Y-36979213D01*
X35566682Y-36990389D01*
X35567668Y-36990793D01*
X35592939Y-36999937D01*
X35593938Y-37000253D01*
X35620184Y-37007365D01*
X35621176Y-37007591D01*
X35648395Y-37012671D01*
X35649360Y-37012813D01*
X35677552Y-37015861D01*
X35678475Y-37015927D01*
X35695384Y-37016516D01*
X35695384Y-37144386D01*
X35678475Y-37144975D01*
X35677552Y-37145041D01*
X35649360Y-37148089D01*
X35648395Y-37148231D01*
X35621176Y-37153311D01*
X35620184Y-37153537D01*
X35593938Y-37160649D01*
X35592939Y-37160965D01*
X35567668Y-37170109D01*
X35566682Y-37170513D01*
X35542383Y-37181689D01*
X35541432Y-37182176D01*
X35518107Y-37195384D01*
X35517210Y-37195942D01*
X35494859Y-37211182D01*
X35494033Y-37211796D01*
X35472655Y-37229068D01*
X35471908Y-37229722D01*
X35458378Y-37242523D01*
X35177266Y-37080451D01*
X35458378Y-36918379D01*
X35471908Y-36931180D01*
G36*
X34862308Y-37413779D02*
G01*
X34863055Y-37414433D01*
X34884433Y-37431705D01*
X34885259Y-37432319D01*
X34907610Y-37447559D01*
X34908507Y-37448117D01*
X34931832Y-37461325D01*
X34932783Y-37461812D01*
X34957082Y-37472988D01*
X34958068Y-37473392D01*
X34983339Y-37482536D01*
X34984338Y-37482852D01*
X35010584Y-37489964D01*
X35011576Y-37490190D01*
X35038795Y-37495270D01*
X35039760Y-37495412D01*
X35067952Y-37498460D01*
X35068875Y-37498526D01*
X35085784Y-37499115D01*
X35085784Y-37626985D01*
X35068875Y-37627574D01*
X35067952Y-37627640D01*
X35039760Y-37630688D01*
X35038795Y-37630830D01*
X35011576Y-37635910D01*
X35010584Y-37636136D01*
X34984338Y-37643248D01*
X34983339Y-37643564D01*
X34958068Y-37652708D01*
X34957082Y-37653112D01*
X34932783Y-37664288D01*
X34931832Y-37664775D01*
X34908507Y-37677983D01*
X34907610Y-37678541D01*
X34885259Y-37693781D01*
X34884433Y-37694395D01*
X34863055Y-37711667D01*
X34862308Y-37712321D01*
X34848778Y-37725122D01*
X34567666Y-37563050D01*
X34848778Y-37400978D01*
X34862308Y-37413779D01*
X34862308Y-37413779D01*
G37*
X34862308Y-37413779D02*
X34863055Y-37414433D01*
X34884433Y-37431705D01*
X34885259Y-37432319D01*
X34907610Y-37447559D01*
X34908507Y-37448117D01*
X34931832Y-37461325D01*
X34932783Y-37461812D01*
X34957082Y-37472988D01*
X34958068Y-37473392D01*
X34983339Y-37482536D01*
X34984338Y-37482852D01*
X35010584Y-37489964D01*
X35011576Y-37490190D01*
X35038795Y-37495270D01*
X35039760Y-37495412D01*
X35067952Y-37498460D01*
X35068875Y-37498526D01*
X35085784Y-37499115D01*
X35085784Y-37626985D01*
X35068875Y-37627574D01*
X35067952Y-37627640D01*
X35039760Y-37630688D01*
X35038795Y-37630830D01*
X35011576Y-37635910D01*
X35010584Y-37636136D01*
X34984338Y-37643248D01*
X34983339Y-37643564D01*
X34958068Y-37652708D01*
X34957082Y-37653112D01*
X34932783Y-37664288D01*
X34931832Y-37664775D01*
X34908507Y-37677983D01*
X34907610Y-37678541D01*
X34885259Y-37693781D01*
X34884433Y-37694395D01*
X34863055Y-37711667D01*
X34862308Y-37712321D01*
X34848778Y-37725122D01*
X34567666Y-37563050D01*
X34848778Y-37400978D01*
X34862308Y-37413779D01*
G36*
X40770814Y-37563050D02*
G01*
X40489703Y-37725122D01*
X40476171Y-37712320D01*
X40475424Y-37711667D01*
X40454046Y-37694395D01*
X40453220Y-37693781D01*
X40430869Y-37678541D01*
X40429972Y-37677983D01*
X40406647Y-37664775D01*
X40405696Y-37664288D01*
X40381398Y-37653112D01*
X40380412Y-37652708D01*
X40355140Y-37643564D01*
X40354141Y-37643248D01*
X40327895Y-37636136D01*
X40326903Y-37635910D01*
X40299684Y-37630830D01*
X40298719Y-37630688D01*
X40270527Y-37627640D01*
X40269604Y-37627574D01*
X40252696Y-37626985D01*
X40252696Y-37499115D01*
X40269604Y-37498526D01*
X40270527Y-37498460D01*
X40298719Y-37495412D01*
X40299684Y-37495270D01*
X40326903Y-37490190D01*
X40327895Y-37489964D01*
X40354141Y-37482852D01*
X40355140Y-37482536D01*
X40380412Y-37473392D01*
X40381398Y-37472988D01*
X40405696Y-37461812D01*
X40406647Y-37461325D01*
X40429972Y-37448117D01*
X40430869Y-37447559D01*
X40453220Y-37432319D01*
X40454046Y-37431705D01*
X40475424Y-37414433D01*
X40476171Y-37413780D01*
X40489703Y-37400978D01*
X40770814Y-37563050D01*
X40770814Y-37563050D01*
G37*
X40770814Y-37563050D02*
X40489703Y-37725122D01*
X40476171Y-37712320D01*
X40475424Y-37711667D01*
X40454046Y-37694395D01*
X40453220Y-37693781D01*
X40430869Y-37678541D01*
X40429972Y-37677983D01*
X40406647Y-37664775D01*
X40405696Y-37664288D01*
X40381398Y-37653112D01*
X40380412Y-37652708D01*
X40355140Y-37643564D01*
X40354141Y-37643248D01*
X40327895Y-37636136D01*
X40326903Y-37635910D01*
X40299684Y-37630830D01*
X40298719Y-37630688D01*
X40270527Y-37627640D01*
X40269604Y-37627574D01*
X40252696Y-37626985D01*
X40252696Y-37499115D01*
X40269604Y-37498526D01*
X40270527Y-37498460D01*
X40298719Y-37495412D01*
X40299684Y-37495270D01*
X40326903Y-37490190D01*
X40327895Y-37489964D01*
X40354141Y-37482852D01*
X40355140Y-37482536D01*
X40380412Y-37473392D01*
X40381398Y-37472988D01*
X40405696Y-37461812D01*
X40406647Y-37461325D01*
X40429972Y-37448117D01*
X40430869Y-37447559D01*
X40453220Y-37432319D01*
X40454046Y-37431705D01*
X40475424Y-37414433D01*
X40476171Y-37413780D01*
X40489703Y-37400978D01*
X40770814Y-37563050D01*
G36*
X17379008Y-15268778D02*
G01*
X17379421Y-15269164D01*
X17398697Y-15286436D01*
X17399187Y-15286854D01*
X17418037Y-15302094D01*
X17418622Y-15302539D01*
X17437045Y-15315747D01*
X17437745Y-15316215D01*
X17455740Y-15327391D01*
X17456576Y-15327867D01*
X17474144Y-15337011D01*
X17475142Y-15337477D01*
X17492283Y-15344588D01*
X17493455Y-15345008D01*
X17510169Y-15350089D01*
X17511527Y-15350421D01*
X17527814Y-15353469D01*
X17529338Y-15353660D01*
X17533310Y-15353914D01*
X17533310Y-15482490D01*
X17529338Y-15482744D01*
X17527814Y-15482935D01*
X17511527Y-15485983D01*
X17510170Y-15486315D01*
X17493456Y-15491395D01*
X17492282Y-15491816D01*
X17475141Y-15498928D01*
X17474144Y-15499393D01*
X17456576Y-15508537D01*
X17455740Y-15509013D01*
X17437745Y-15520189D01*
X17437046Y-15520656D01*
X17418623Y-15533863D01*
X17418037Y-15534309D01*
X17399187Y-15549550D01*
X17398697Y-15549968D01*
X17379421Y-15567240D01*
X17379008Y-15567626D01*
X17366187Y-15580187D01*
X17085226Y-15418202D01*
X17366187Y-15256217D01*
X17379008Y-15268778D01*
X17379008Y-15268778D01*
G37*
X17379008Y-15268778D02*
X17379421Y-15269164D01*
X17398697Y-15286436D01*
X17399187Y-15286854D01*
X17418037Y-15302094D01*
X17418622Y-15302539D01*
X17437045Y-15315747D01*
X17437745Y-15316215D01*
X17455740Y-15327391D01*
X17456576Y-15327867D01*
X17474144Y-15337011D01*
X17475142Y-15337477D01*
X17492283Y-15344588D01*
X17493455Y-15345008D01*
X17510169Y-15350089D01*
X17511527Y-15350421D01*
X17527814Y-15353469D01*
X17529338Y-15353660D01*
X17533310Y-15353914D01*
X17533310Y-15482490D01*
X17529338Y-15482744D01*
X17527814Y-15482935D01*
X17511527Y-15485983D01*
X17510170Y-15486315D01*
X17493456Y-15491395D01*
X17492282Y-15491816D01*
X17475141Y-15498928D01*
X17474144Y-15499393D01*
X17456576Y-15508537D01*
X17455740Y-15509013D01*
X17437745Y-15520189D01*
X17437046Y-15520656D01*
X17418623Y-15533863D01*
X17418037Y-15534309D01*
X17399187Y-15549550D01*
X17398697Y-15549968D01*
X17379421Y-15567240D01*
X17379008Y-15567626D01*
X17366187Y-15580187D01*
X17085226Y-15418202D01*
X17366187Y-15256217D01*
X17379008Y-15268778D01*
G36*
X27288374Y-15418202D02*
G01*
X27007263Y-15580274D01*
X26993731Y-15567472D01*
X26992984Y-15566819D01*
X26971606Y-15549547D01*
X26970780Y-15548933D01*
X26948429Y-15533693D01*
X26947532Y-15533135D01*
X26924207Y-15519927D01*
X26923256Y-15519440D01*
X26898958Y-15508264D01*
X26897972Y-15507860D01*
X26872700Y-15498716D01*
X26871701Y-15498400D01*
X26845455Y-15491287D01*
X26844463Y-15491060D01*
X26817244Y-15485981D01*
X26816279Y-15485840D01*
X26788087Y-15482792D01*
X26787164Y-15482726D01*
X26770256Y-15482137D01*
X26770256Y-15354267D01*
X26787164Y-15353678D01*
X26788087Y-15353612D01*
X26816279Y-15350564D01*
X26817244Y-15350422D01*
X26844463Y-15345342D01*
X26845455Y-15345116D01*
X26871701Y-15338004D01*
X26872700Y-15337688D01*
X26897972Y-15328544D01*
X26898958Y-15328140D01*
X26923256Y-15316964D01*
X26924207Y-15316477D01*
X26947532Y-15303268D01*
X26948428Y-15302710D01*
X26970779Y-15287471D01*
X26971606Y-15286857D01*
X26992984Y-15269585D01*
X26993731Y-15268932D01*
X27007263Y-15256130D01*
X27288374Y-15418202D01*
X27288374Y-15418202D01*
G37*
X27288374Y-15418202D02*
X27007263Y-15580274D01*
X26993731Y-15567472D01*
X26992984Y-15566819D01*
X26971606Y-15549547D01*
X26970780Y-15548933D01*
X26948429Y-15533693D01*
X26947532Y-15533135D01*
X26924207Y-15519927D01*
X26923256Y-15519440D01*
X26898958Y-15508264D01*
X26897972Y-15507860D01*
X26872700Y-15498716D01*
X26871701Y-15498400D01*
X26845455Y-15491287D01*
X26844463Y-15491060D01*
X26817244Y-15485981D01*
X26816279Y-15485840D01*
X26788087Y-15482792D01*
X26787164Y-15482726D01*
X26770256Y-15482137D01*
X26770256Y-15354267D01*
X26787164Y-15353678D01*
X26788087Y-15353612D01*
X26816279Y-15350564D01*
X26817244Y-15350422D01*
X26844463Y-15345342D01*
X26845455Y-15345116D01*
X26871701Y-15338004D01*
X26872700Y-15337688D01*
X26897972Y-15328544D01*
X26898958Y-15328140D01*
X26923256Y-15316964D01*
X26924207Y-15316477D01*
X26947532Y-15303268D01*
X26948428Y-15302710D01*
X26970779Y-15287471D01*
X26971606Y-15286857D01*
X26992984Y-15269585D01*
X26993731Y-15268932D01*
X27007263Y-15256130D01*
X27288374Y-15418202D01*
G36*
X27288374Y-16383401D02*
G01*
X27007263Y-16545473D01*
X26993731Y-16532671D01*
X26992984Y-16532018D01*
X26971606Y-16514746D01*
X26970780Y-16514132D01*
X26948429Y-16498892D01*
X26947532Y-16498334D01*
X26924207Y-16485126D01*
X26923256Y-16484639D01*
X26898958Y-16473463D01*
X26897972Y-16473059D01*
X26872700Y-16463915D01*
X26871701Y-16463599D01*
X26845455Y-16456487D01*
X26844463Y-16456261D01*
X26817244Y-16451181D01*
X26816279Y-16451039D01*
X26788087Y-16447991D01*
X26787164Y-16447925D01*
X26770256Y-16447336D01*
X26770256Y-16319466D01*
X26787164Y-16318877D01*
X26788087Y-16318811D01*
X26816279Y-16315763D01*
X26817244Y-16315621D01*
X26844463Y-16310541D01*
X26845455Y-16310315D01*
X26871701Y-16303203D01*
X26872700Y-16302887D01*
X26897972Y-16293743D01*
X26898958Y-16293339D01*
X26923256Y-16282163D01*
X26924207Y-16281676D01*
X26947532Y-16268468D01*
X26948429Y-16267910D01*
X26970780Y-16252670D01*
X26971606Y-16252056D01*
X26992984Y-16234784D01*
X26993731Y-16234131D01*
X27007263Y-16221329D01*
X27288374Y-16383401D01*
X27288374Y-16383401D01*
G37*
X27288374Y-16383401D02*
X27007263Y-16545473D01*
X26993731Y-16532671D01*
X26992984Y-16532018D01*
X26971606Y-16514746D01*
X26970780Y-16514132D01*
X26948429Y-16498892D01*
X26947532Y-16498334D01*
X26924207Y-16485126D01*
X26923256Y-16484639D01*
X26898958Y-16473463D01*
X26897972Y-16473059D01*
X26872700Y-16463915D01*
X26871701Y-16463599D01*
X26845455Y-16456487D01*
X26844463Y-16456261D01*
X26817244Y-16451181D01*
X26816279Y-16451039D01*
X26788087Y-16447991D01*
X26787164Y-16447925D01*
X26770256Y-16447336D01*
X26770256Y-16319466D01*
X26787164Y-16318877D01*
X26788087Y-16318811D01*
X26816279Y-16315763D01*
X26817244Y-16315621D01*
X26844463Y-16310541D01*
X26845455Y-16310315D01*
X26871701Y-16303203D01*
X26872700Y-16302887D01*
X26897972Y-16293743D01*
X26898958Y-16293339D01*
X26923256Y-16282163D01*
X26924207Y-16281676D01*
X26947532Y-16268468D01*
X26948429Y-16267910D01*
X26970780Y-16252670D01*
X26971606Y-16252056D01*
X26992984Y-16234784D01*
X26993731Y-16234131D01*
X27007263Y-16221329D01*
X27288374Y-16383401D01*
G36*
X17379868Y-16234130D02*
G01*
X17380615Y-16234784D01*
X17401993Y-16252056D01*
X17402819Y-16252670D01*
X17425170Y-16267910D01*
X17426067Y-16268468D01*
X17449392Y-16281676D01*
X17450343Y-16282163D01*
X17474642Y-16293339D01*
X17475628Y-16293743D01*
X17500899Y-16302887D01*
X17501898Y-16303203D01*
X17528144Y-16310315D01*
X17529136Y-16310541D01*
X17556355Y-16315621D01*
X17557320Y-16315763D01*
X17585512Y-16318811D01*
X17586435Y-16318877D01*
X17603344Y-16319466D01*
X17603344Y-16447336D01*
X17586435Y-16447925D01*
X17585512Y-16447991D01*
X17557320Y-16451039D01*
X17556355Y-16451181D01*
X17529136Y-16456261D01*
X17528144Y-16456487D01*
X17501898Y-16463599D01*
X17500899Y-16463915D01*
X17475628Y-16473059D01*
X17474642Y-16473463D01*
X17450343Y-16484639D01*
X17449392Y-16485126D01*
X17426067Y-16498334D01*
X17425170Y-16498892D01*
X17402819Y-16514132D01*
X17401993Y-16514746D01*
X17380615Y-16532018D01*
X17379868Y-16532672D01*
X17366338Y-16545473D01*
X17085226Y-16383401D01*
X17366338Y-16221329D01*
X17379868Y-16234130D01*
X17379868Y-16234130D01*
G37*
X17379868Y-16234130D02*
X17380615Y-16234784D01*
X17401993Y-16252056D01*
X17402819Y-16252670D01*
X17425170Y-16267910D01*
X17426067Y-16268468D01*
X17449392Y-16281676D01*
X17450343Y-16282163D01*
X17474642Y-16293339D01*
X17475628Y-16293743D01*
X17500899Y-16302887D01*
X17501898Y-16303203D01*
X17528144Y-16310315D01*
X17529136Y-16310541D01*
X17556355Y-16315621D01*
X17557320Y-16315763D01*
X17585512Y-16318811D01*
X17586435Y-16318877D01*
X17603344Y-16319466D01*
X17603344Y-16447336D01*
X17586435Y-16447925D01*
X17585512Y-16447991D01*
X17557320Y-16451039D01*
X17556355Y-16451181D01*
X17529136Y-16456261D01*
X17528144Y-16456487D01*
X17501898Y-16463599D01*
X17500899Y-16463915D01*
X17475628Y-16473059D01*
X17474642Y-16473463D01*
X17450343Y-16484639D01*
X17449392Y-16485126D01*
X17426067Y-16498334D01*
X17425170Y-16498892D01*
X17402819Y-16514132D01*
X17401993Y-16514746D01*
X17380615Y-16532018D01*
X17379868Y-16532672D01*
X17366338Y-16545473D01*
X17085226Y-16383401D01*
X17366338Y-16221329D01*
X17379868Y-16234130D01*
G36*
X17989468Y-15751531D02*
G01*
X17990215Y-15752185D01*
X18011593Y-15769457D01*
X18012419Y-15770071D01*
X18034770Y-15785311D01*
X18035667Y-15785869D01*
X18058992Y-15799077D01*
X18059943Y-15799564D01*
X18084242Y-15810740D01*
X18085228Y-15811144D01*
X18110499Y-15820288D01*
X18111499Y-15820604D01*
X18137745Y-15827715D01*
X18138736Y-15827941D01*
X18165955Y-15833022D01*
X18166920Y-15833164D01*
X18195112Y-15836212D01*
X18196035Y-15836278D01*
X18212944Y-15836867D01*
X18212944Y-15964737D01*
X18196035Y-15965326D01*
X18195112Y-15965392D01*
X18166920Y-15968440D01*
X18165955Y-15968582D01*
X18138736Y-15973662D01*
X18137744Y-15973888D01*
X18111498Y-15981000D01*
X18110499Y-15981316D01*
X18085228Y-15990460D01*
X18084242Y-15990864D01*
X18059943Y-16002040D01*
X18058993Y-16002527D01*
X18035668Y-16015734D01*
X18034770Y-16016292D01*
X18012419Y-16031533D01*
X18011593Y-16032147D01*
X17990215Y-16049419D01*
X17989468Y-16050073D01*
X17975938Y-16062874D01*
X17694826Y-15900802D01*
X17975938Y-15738730D01*
X17989468Y-15751531D01*
X17989468Y-15751531D01*
G37*
X17989468Y-15751531D02*
X17990215Y-15752185D01*
X18011593Y-15769457D01*
X18012419Y-15770071D01*
X18034770Y-15785311D01*
X18035667Y-15785869D01*
X18058992Y-15799077D01*
X18059943Y-15799564D01*
X18084242Y-15810740D01*
X18085228Y-15811144D01*
X18110499Y-15820288D01*
X18111499Y-15820604D01*
X18137745Y-15827715D01*
X18138736Y-15827941D01*
X18165955Y-15833022D01*
X18166920Y-15833164D01*
X18195112Y-15836212D01*
X18196035Y-15836278D01*
X18212944Y-15836867D01*
X18212944Y-15964737D01*
X18196035Y-15965326D01*
X18195112Y-15965392D01*
X18166920Y-15968440D01*
X18165955Y-15968582D01*
X18138736Y-15973662D01*
X18137744Y-15973888D01*
X18111498Y-15981000D01*
X18110499Y-15981316D01*
X18085228Y-15990460D01*
X18084242Y-15990864D01*
X18059943Y-16002040D01*
X18058993Y-16002527D01*
X18035668Y-16015734D01*
X18034770Y-16016292D01*
X18012419Y-16031533D01*
X18011593Y-16032147D01*
X17990215Y-16049419D01*
X17989468Y-16050073D01*
X17975938Y-16062874D01*
X17694826Y-15900802D01*
X17975938Y-15738730D01*
X17989468Y-15751531D01*
G36*
X27897974Y-15900802D02*
G01*
X27616916Y-16062843D01*
X27603642Y-16050127D01*
X27603013Y-16049563D01*
X27582397Y-16032291D01*
X27581681Y-16031734D01*
X27560600Y-16016494D01*
X27559797Y-16015958D01*
X27538250Y-16002750D01*
X27537362Y-16002254D01*
X27515350Y-15991078D01*
X27514387Y-15990638D01*
X27491909Y-15981494D01*
X27490884Y-15981128D01*
X27467940Y-15974015D01*
X27466872Y-15973734D01*
X27443463Y-15968655D01*
X27442378Y-15968468D01*
X27418504Y-15965420D01*
X27417426Y-15965329D01*
X27405256Y-15964821D01*
X27405256Y-15836783D01*
X27417426Y-15836275D01*
X27418504Y-15836184D01*
X27442378Y-15833136D01*
X27443463Y-15832949D01*
X27466872Y-15827869D01*
X27467939Y-15827589D01*
X27490883Y-15820477D01*
X27491909Y-15820110D01*
X27514387Y-15810966D01*
X27515350Y-15810526D01*
X27537362Y-15799350D01*
X27538251Y-15798853D01*
X27559798Y-15785644D01*
X27560600Y-15785109D01*
X27581681Y-15769870D01*
X27582397Y-15769313D01*
X27603013Y-15752041D01*
X27603642Y-15751477D01*
X27616916Y-15738761D01*
X27897974Y-15900802D01*
X27897974Y-15900802D01*
G37*
X27897974Y-15900802D02*
X27616916Y-16062843D01*
X27603642Y-16050127D01*
X27603013Y-16049563D01*
X27582397Y-16032291D01*
X27581681Y-16031734D01*
X27560600Y-16016494D01*
X27559797Y-16015958D01*
X27538250Y-16002750D01*
X27537362Y-16002254D01*
X27515350Y-15991078D01*
X27514387Y-15990638D01*
X27491909Y-15981494D01*
X27490884Y-15981128D01*
X27467940Y-15974015D01*
X27466872Y-15973734D01*
X27443463Y-15968655D01*
X27442378Y-15968468D01*
X27418504Y-15965420D01*
X27417426Y-15965329D01*
X27405256Y-15964821D01*
X27405256Y-15836783D01*
X27417426Y-15836275D01*
X27418504Y-15836184D01*
X27442378Y-15833136D01*
X27443463Y-15832949D01*
X27466872Y-15827869D01*
X27467939Y-15827589D01*
X27490883Y-15820477D01*
X27491909Y-15820110D01*
X27514387Y-15810966D01*
X27515350Y-15810526D01*
X27537362Y-15799350D01*
X27538251Y-15798853D01*
X27559798Y-15785644D01*
X27560600Y-15785109D01*
X27581681Y-15769870D01*
X27582397Y-15769313D01*
X27603013Y-15752041D01*
X27603642Y-15751477D01*
X27616916Y-15738761D01*
X27897974Y-15900802D01*
G36*
X27288374Y-17348600D02*
G01*
X27007263Y-17510672D01*
X26993731Y-17497870D01*
X26992984Y-17497217D01*
X26971606Y-17479945D01*
X26970780Y-17479331D01*
X26948429Y-17464091D01*
X26947532Y-17463533D01*
X26924207Y-17450325D01*
X26923256Y-17449838D01*
X26898958Y-17438662D01*
X26897972Y-17438258D01*
X26872700Y-17429114D01*
X26871701Y-17428798D01*
X26845455Y-17421686D01*
X26844463Y-17421460D01*
X26817244Y-17416380D01*
X26816279Y-17416238D01*
X26788087Y-17413190D01*
X26787164Y-17413124D01*
X26770256Y-17412535D01*
X26770256Y-17284665D01*
X26787164Y-17284076D01*
X26788087Y-17284010D01*
X26816279Y-17280962D01*
X26817244Y-17280820D01*
X26844463Y-17275740D01*
X26845455Y-17275514D01*
X26871701Y-17268402D01*
X26872700Y-17268086D01*
X26897972Y-17258942D01*
X26898958Y-17258538D01*
X26923256Y-17247362D01*
X26924207Y-17246875D01*
X26947532Y-17233667D01*
X26948429Y-17233109D01*
X26970780Y-17217869D01*
X26971606Y-17217255D01*
X26992984Y-17199983D01*
X26993731Y-17199330D01*
X27007263Y-17186528D01*
X27288374Y-17348600D01*
X27288374Y-17348600D01*
G37*
X27288374Y-17348600D02*
X27007263Y-17510672D01*
X26993731Y-17497870D01*
X26992984Y-17497217D01*
X26971606Y-17479945D01*
X26970780Y-17479331D01*
X26948429Y-17464091D01*
X26947532Y-17463533D01*
X26924207Y-17450325D01*
X26923256Y-17449838D01*
X26898958Y-17438662D01*
X26897972Y-17438258D01*
X26872700Y-17429114D01*
X26871701Y-17428798D01*
X26845455Y-17421686D01*
X26844463Y-17421460D01*
X26817244Y-17416380D01*
X26816279Y-17416238D01*
X26788087Y-17413190D01*
X26787164Y-17413124D01*
X26770256Y-17412535D01*
X26770256Y-17284665D01*
X26787164Y-17284076D01*
X26788087Y-17284010D01*
X26816279Y-17280962D01*
X26817244Y-17280820D01*
X26844463Y-17275740D01*
X26845455Y-17275514D01*
X26871701Y-17268402D01*
X26872700Y-17268086D01*
X26897972Y-17258942D01*
X26898958Y-17258538D01*
X26923256Y-17247362D01*
X26924207Y-17246875D01*
X26947532Y-17233667D01*
X26948429Y-17233109D01*
X26970780Y-17217869D01*
X26971606Y-17217255D01*
X26992984Y-17199983D01*
X26993731Y-17199330D01*
X27007263Y-17186528D01*
X27288374Y-17348600D01*
G36*
X17379868Y-17199329D02*
G01*
X17380615Y-17199983D01*
X17401993Y-17217255D01*
X17402819Y-17217869D01*
X17425170Y-17233109D01*
X17426067Y-17233667D01*
X17449392Y-17246875D01*
X17450343Y-17247362D01*
X17474642Y-17258538D01*
X17475628Y-17258942D01*
X17500899Y-17268086D01*
X17501898Y-17268402D01*
X17528144Y-17275514D01*
X17529136Y-17275740D01*
X17556355Y-17280820D01*
X17557320Y-17280962D01*
X17585512Y-17284010D01*
X17586435Y-17284076D01*
X17603344Y-17284665D01*
X17603344Y-17412535D01*
X17586435Y-17413124D01*
X17585512Y-17413190D01*
X17557320Y-17416238D01*
X17556355Y-17416380D01*
X17529136Y-17421460D01*
X17528144Y-17421686D01*
X17501898Y-17428798D01*
X17500899Y-17429114D01*
X17475628Y-17438258D01*
X17474642Y-17438662D01*
X17450343Y-17449838D01*
X17449392Y-17450325D01*
X17426067Y-17463533D01*
X17425170Y-17464091D01*
X17402819Y-17479331D01*
X17401993Y-17479945D01*
X17380615Y-17497217D01*
X17379868Y-17497871D01*
X17366338Y-17510672D01*
X17085226Y-17348600D01*
X17366338Y-17186528D01*
X17379868Y-17199329D01*
X17379868Y-17199329D01*
G37*
X17379868Y-17199329D02*
X17380615Y-17199983D01*
X17401993Y-17217255D01*
X17402819Y-17217869D01*
X17425170Y-17233109D01*
X17426067Y-17233667D01*
X17449392Y-17246875D01*
X17450343Y-17247362D01*
X17474642Y-17258538D01*
X17475628Y-17258942D01*
X17500899Y-17268086D01*
X17501898Y-17268402D01*
X17528144Y-17275514D01*
X17529136Y-17275740D01*
X17556355Y-17280820D01*
X17557320Y-17280962D01*
X17585512Y-17284010D01*
X17586435Y-17284076D01*
X17603344Y-17284665D01*
X17603344Y-17412535D01*
X17586435Y-17413124D01*
X17585512Y-17413190D01*
X17557320Y-17416238D01*
X17556355Y-17416380D01*
X17529136Y-17421460D01*
X17528144Y-17421686D01*
X17501898Y-17428798D01*
X17500899Y-17429114D01*
X17475628Y-17438258D01*
X17474642Y-17438662D01*
X17450343Y-17449838D01*
X17449392Y-17450325D01*
X17426067Y-17463533D01*
X17425170Y-17464091D01*
X17402819Y-17479331D01*
X17401993Y-17479945D01*
X17380615Y-17497217D01*
X17379868Y-17497871D01*
X17366338Y-17510672D01*
X17085226Y-17348600D01*
X17366338Y-17186528D01*
X17379868Y-17199329D01*
G36*
X27897974Y-16866001D02*
G01*
X27616863Y-17028073D01*
X27603331Y-17015271D01*
X27602584Y-17014618D01*
X27581206Y-16997346D01*
X27580380Y-16996732D01*
X27558029Y-16981492D01*
X27557132Y-16980934D01*
X27533807Y-16967726D01*
X27532856Y-16967239D01*
X27508558Y-16956063D01*
X27507572Y-16955659D01*
X27482300Y-16946515D01*
X27481301Y-16946199D01*
X27455055Y-16939087D01*
X27454063Y-16938861D01*
X27426844Y-16933781D01*
X27425879Y-16933639D01*
X27397687Y-16930591D01*
X27396764Y-16930525D01*
X27379856Y-16929936D01*
X27379856Y-16802066D01*
X27396764Y-16801477D01*
X27397687Y-16801411D01*
X27425879Y-16798363D01*
X27426844Y-16798221D01*
X27454063Y-16793141D01*
X27455055Y-16792915D01*
X27481301Y-16785803D01*
X27482300Y-16785487D01*
X27507572Y-16776343D01*
X27508558Y-16775939D01*
X27532856Y-16764763D01*
X27533807Y-16764276D01*
X27557132Y-16751068D01*
X27558029Y-16750510D01*
X27580380Y-16735270D01*
X27581206Y-16734656D01*
X27602584Y-16717384D01*
X27603331Y-16716731D01*
X27616863Y-16703929D01*
X27897974Y-16866001D01*
X27897974Y-16866001D01*
G37*
X27897974Y-16866001D02*
X27616863Y-17028073D01*
X27603331Y-17015271D01*
X27602584Y-17014618D01*
X27581206Y-16997346D01*
X27580380Y-16996732D01*
X27558029Y-16981492D01*
X27557132Y-16980934D01*
X27533807Y-16967726D01*
X27532856Y-16967239D01*
X27508558Y-16956063D01*
X27507572Y-16955659D01*
X27482300Y-16946515D01*
X27481301Y-16946199D01*
X27455055Y-16939087D01*
X27454063Y-16938861D01*
X27426844Y-16933781D01*
X27425879Y-16933639D01*
X27397687Y-16930591D01*
X27396764Y-16930525D01*
X27379856Y-16929936D01*
X27379856Y-16802066D01*
X27396764Y-16801477D01*
X27397687Y-16801411D01*
X27425879Y-16798363D01*
X27426844Y-16798221D01*
X27454063Y-16793141D01*
X27455055Y-16792915D01*
X27481301Y-16785803D01*
X27482300Y-16785487D01*
X27507572Y-16776343D01*
X27508558Y-16775939D01*
X27532856Y-16764763D01*
X27533807Y-16764276D01*
X27557132Y-16751068D01*
X27558029Y-16750510D01*
X27580380Y-16735270D01*
X27581206Y-16734656D01*
X27602584Y-16717384D01*
X27603331Y-16716731D01*
X27616863Y-16703929D01*
X27897974Y-16866001D01*
G36*
X17989468Y-16716730D02*
G01*
X17990215Y-16717384D01*
X18011593Y-16734656D01*
X18012419Y-16735270D01*
X18034770Y-16750510D01*
X18035667Y-16751068D01*
X18058992Y-16764276D01*
X18059943Y-16764763D01*
X18084242Y-16775939D01*
X18085228Y-16776343D01*
X18110499Y-16785487D01*
X18111498Y-16785803D01*
X18137744Y-16792915D01*
X18138736Y-16793141D01*
X18165955Y-16798221D01*
X18166920Y-16798363D01*
X18195112Y-16801411D01*
X18196035Y-16801477D01*
X18212944Y-16802066D01*
X18212944Y-16929936D01*
X18196035Y-16930525D01*
X18195112Y-16930591D01*
X18166920Y-16933639D01*
X18165955Y-16933781D01*
X18138736Y-16938861D01*
X18137744Y-16939087D01*
X18111498Y-16946199D01*
X18110499Y-16946515D01*
X18085228Y-16955659D01*
X18084242Y-16956063D01*
X18059943Y-16967239D01*
X18058992Y-16967726D01*
X18035667Y-16980934D01*
X18034770Y-16981492D01*
X18012419Y-16996732D01*
X18011593Y-16997346D01*
X17990215Y-17014618D01*
X17989468Y-17015272D01*
X17975938Y-17028073D01*
X17694826Y-16866001D01*
X17975938Y-16703929D01*
X17989468Y-16716730D01*
X17989468Y-16716730D01*
G37*
X17989468Y-16716730D02*
X17990215Y-16717384D01*
X18011593Y-16734656D01*
X18012419Y-16735270D01*
X18034770Y-16750510D01*
X18035667Y-16751068D01*
X18058992Y-16764276D01*
X18059943Y-16764763D01*
X18084242Y-16775939D01*
X18085228Y-16776343D01*
X18110499Y-16785487D01*
X18111498Y-16785803D01*
X18137744Y-16792915D01*
X18138736Y-16793141D01*
X18165955Y-16798221D01*
X18166920Y-16798363D01*
X18195112Y-16801411D01*
X18196035Y-16801477D01*
X18212944Y-16802066D01*
X18212944Y-16929936D01*
X18196035Y-16930525D01*
X18195112Y-16930591D01*
X18166920Y-16933639D01*
X18165955Y-16933781D01*
X18138736Y-16938861D01*
X18137744Y-16939087D01*
X18111498Y-16946199D01*
X18110499Y-16946515D01*
X18085228Y-16955659D01*
X18084242Y-16956063D01*
X18059943Y-16967239D01*
X18058992Y-16967726D01*
X18035667Y-16980934D01*
X18034770Y-16981492D01*
X18012419Y-16996732D01*
X18011593Y-16997346D01*
X17990215Y-17014618D01*
X17989468Y-17015272D01*
X17975938Y-17028073D01*
X17694826Y-16866001D01*
X17975938Y-16703929D01*
X17989468Y-16716730D01*
G36*
X33716245Y-20982138D02*
G01*
X33703444Y-20995668D01*
X33702790Y-20996415D01*
X33685518Y-21017793D01*
X33684904Y-21018619D01*
X33669664Y-21040970D01*
X33669106Y-21041867D01*
X33655898Y-21065192D01*
X33655411Y-21066143D01*
X33644235Y-21090442D01*
X33643831Y-21091428D01*
X33634687Y-21116699D01*
X33634371Y-21117698D01*
X33627259Y-21143944D01*
X33627033Y-21144936D01*
X33621953Y-21172155D01*
X33621811Y-21173120D01*
X33618763Y-21201312D01*
X33618697Y-21202235D01*
X33618108Y-21219144D01*
X33490238Y-21219144D01*
X33489649Y-21202235D01*
X33489583Y-21201312D01*
X33486535Y-21173120D01*
X33486393Y-21172155D01*
X33481313Y-21144936D01*
X33481087Y-21143944D01*
X33473975Y-21117698D01*
X33473659Y-21116699D01*
X33464515Y-21091428D01*
X33464111Y-21090442D01*
X33452935Y-21066143D01*
X33452448Y-21065192D01*
X33439240Y-21041867D01*
X33438682Y-21040970D01*
X33423442Y-21018619D01*
X33422828Y-21017793D01*
X33405556Y-20996415D01*
X33404902Y-20995668D01*
X33392101Y-20982138D01*
X33554173Y-20701026D01*
X33716245Y-20982138D01*
X33716245Y-20982138D01*
G37*
X33716245Y-20982138D02*
X33703444Y-20995668D01*
X33702790Y-20996415D01*
X33685518Y-21017793D01*
X33684904Y-21018619D01*
X33669664Y-21040970D01*
X33669106Y-21041867D01*
X33655898Y-21065192D01*
X33655411Y-21066143D01*
X33644235Y-21090442D01*
X33643831Y-21091428D01*
X33634687Y-21116699D01*
X33634371Y-21117698D01*
X33627259Y-21143944D01*
X33627033Y-21144936D01*
X33621953Y-21172155D01*
X33621811Y-21173120D01*
X33618763Y-21201312D01*
X33618697Y-21202235D01*
X33618108Y-21219144D01*
X33490238Y-21219144D01*
X33489649Y-21202235D01*
X33489583Y-21201312D01*
X33486535Y-21173120D01*
X33486393Y-21172155D01*
X33481313Y-21144936D01*
X33481087Y-21143944D01*
X33473975Y-21117698D01*
X33473659Y-21116699D01*
X33464515Y-21091428D01*
X33464111Y-21090442D01*
X33452935Y-21066143D01*
X33452448Y-21065192D01*
X33439240Y-21041867D01*
X33438682Y-21040970D01*
X33423442Y-21018619D01*
X33422828Y-21017793D01*
X33405556Y-20996415D01*
X33404902Y-20995668D01*
X33392101Y-20982138D01*
X33554173Y-20701026D01*
X33716245Y-20982138D01*
G36*
X33756007Y-20430697D02*
G01*
X33755927Y-20430920D01*
X33743867Y-20465554D01*
X33743774Y-20465832D01*
X33733730Y-20496978D01*
X33733620Y-20497336D01*
X33725592Y-20524992D01*
X33725464Y-20525467D01*
X33719454Y-20549635D01*
X33719310Y-20550291D01*
X33715315Y-20570970D01*
X33715167Y-20571927D01*
X33713189Y-20589118D01*
X33713106Y-20590606D01*
X33713145Y-20604307D01*
X33713395Y-20606777D01*
X33715451Y-20616990D01*
X33716179Y-20619371D01*
X33717038Y-20621063D01*
X33717222Y-20621367D01*
X33554173Y-20904174D01*
X33391785Y-20622514D01*
X33392629Y-20621363D01*
X33399210Y-20611150D01*
X33399646Y-20610420D01*
X33407227Y-20596719D01*
X33407478Y-20596242D01*
X33416060Y-20579051D01*
X33416220Y-20578719D01*
X33425803Y-20558040D01*
X33425914Y-20557794D01*
X33436497Y-20533626D01*
X33436577Y-20533439D01*
X33448161Y-20505783D01*
X33448222Y-20505634D01*
X33460806Y-20474488D01*
X33460854Y-20474367D01*
X33474438Y-20439733D01*
X33474476Y-20439634D01*
X33485939Y-20409673D01*
X33763771Y-20409673D01*
X33756007Y-20430697D01*
X33756007Y-20430697D01*
G37*
X33756007Y-20430697D02*
X33755927Y-20430920D01*
X33743867Y-20465554D01*
X33743774Y-20465832D01*
X33733730Y-20496978D01*
X33733620Y-20497336D01*
X33725592Y-20524992D01*
X33725464Y-20525467D01*
X33719454Y-20549635D01*
X33719310Y-20550291D01*
X33715315Y-20570970D01*
X33715167Y-20571927D01*
X33713189Y-20589118D01*
X33713106Y-20590606D01*
X33713145Y-20604307D01*
X33713395Y-20606777D01*
X33715451Y-20616990D01*
X33716179Y-20619371D01*
X33717038Y-20621063D01*
X33717222Y-20621367D01*
X33554173Y-20904174D01*
X33391785Y-20622514D01*
X33392629Y-20621363D01*
X33399210Y-20611150D01*
X33399646Y-20610420D01*
X33407227Y-20596719D01*
X33407478Y-20596242D01*
X33416060Y-20579051D01*
X33416220Y-20578719D01*
X33425803Y-20558040D01*
X33425914Y-20557794D01*
X33436497Y-20533626D01*
X33436577Y-20533439D01*
X33448161Y-20505783D01*
X33448222Y-20505634D01*
X33460806Y-20474488D01*
X33460854Y-20474367D01*
X33474438Y-20439733D01*
X33474476Y-20439634D01*
X33485939Y-20409673D01*
X33763771Y-20409673D01*
X33756007Y-20430697D01*
G36*
X33136098Y-27793364D02*
G01*
X33136164Y-27794287D01*
X33139212Y-27822479D01*
X33139354Y-27823444D01*
X33144434Y-27850663D01*
X33144660Y-27851655D01*
X33151772Y-27877901D01*
X33152088Y-27878900D01*
X33161232Y-27904172D01*
X33161636Y-27905158D01*
X33172811Y-27929456D01*
X33173298Y-27930407D01*
X33186506Y-27953732D01*
X33187064Y-27954629D01*
X33202305Y-27976980D01*
X33202919Y-27977806D01*
X33220191Y-27999184D01*
X33220844Y-27999931D01*
X33233646Y-28013463D01*
X33071574Y-28294574D01*
X32909502Y-28013463D01*
X32922304Y-27999931D01*
X32922957Y-27999184D01*
X32940229Y-27977806D01*
X32940843Y-27976980D01*
X32956083Y-27954629D01*
X32956641Y-27953732D01*
X32969849Y-27930407D01*
X32970336Y-27929456D01*
X32981512Y-27905158D01*
X32981916Y-27904172D01*
X32991059Y-27878900D01*
X32991375Y-27877901D01*
X32998487Y-27851655D01*
X32998713Y-27850663D01*
X33003794Y-27823444D01*
X33003936Y-27822479D01*
X33006984Y-27794287D01*
X33007050Y-27793364D01*
X33007639Y-27776456D01*
X33135509Y-27776456D01*
X33136098Y-27793364D01*
X33136098Y-27793364D01*
G37*
X33136098Y-27793364D02*
X33136164Y-27794287D01*
X33139212Y-27822479D01*
X33139354Y-27823444D01*
X33144434Y-27850663D01*
X33144660Y-27851655D01*
X33151772Y-27877901D01*
X33152088Y-27878900D01*
X33161232Y-27904172D01*
X33161636Y-27905158D01*
X33172811Y-27929456D01*
X33173298Y-27930407D01*
X33186506Y-27953732D01*
X33187064Y-27954629D01*
X33202305Y-27976980D01*
X33202919Y-27977806D01*
X33220191Y-27999184D01*
X33220844Y-27999931D01*
X33233646Y-28013463D01*
X33071574Y-28294574D01*
X32909502Y-28013463D01*
X32922304Y-27999931D01*
X32922957Y-27999184D01*
X32940229Y-27977806D01*
X32940843Y-27976980D01*
X32956083Y-27954629D01*
X32956641Y-27953732D01*
X32969849Y-27930407D01*
X32970336Y-27929456D01*
X32981512Y-27905158D01*
X32981916Y-27904172D01*
X32991059Y-27878900D01*
X32991375Y-27877901D01*
X32998487Y-27851655D01*
X32998713Y-27850663D01*
X33003794Y-27823444D01*
X33003936Y-27822479D01*
X33006984Y-27794287D01*
X33007050Y-27793364D01*
X33007639Y-27776456D01*
X33135509Y-27776456D01*
X33136098Y-27793364D01*
G36*
X33233646Y-20372538D02*
G01*
X33220845Y-20386068D01*
X33220191Y-20386815D01*
X33202919Y-20408193D01*
X33202305Y-20409019D01*
X33187065Y-20431370D01*
X33186507Y-20432267D01*
X33173299Y-20455592D01*
X33172812Y-20456543D01*
X33161636Y-20480842D01*
X33161232Y-20481827D01*
X33152087Y-20507098D01*
X33151771Y-20508098D01*
X33144659Y-20534344D01*
X33144432Y-20535336D01*
X33139353Y-20562555D01*
X33139212Y-20563520D01*
X33136164Y-20591712D01*
X33136098Y-20592635D01*
X33135509Y-20609544D01*
X33007639Y-20609544D01*
X33007050Y-20592635D01*
X33006984Y-20591712D01*
X33003936Y-20563520D01*
X33003794Y-20562555D01*
X32998714Y-20535336D01*
X32998488Y-20534344D01*
X32991376Y-20508098D01*
X32991060Y-20507099D01*
X32981916Y-20481828D01*
X32981512Y-20480842D01*
X32970335Y-20456543D01*
X32969848Y-20455592D01*
X32956640Y-20432267D01*
X32956082Y-20431371D01*
X32940843Y-20409020D01*
X32940229Y-20408193D01*
X32922957Y-20386815D01*
X32922303Y-20386068D01*
X32909502Y-20372538D01*
X33071574Y-20091426D01*
X33233646Y-20372538D01*
X33233646Y-20372538D01*
G37*
X33233646Y-20372538D02*
X33220845Y-20386068D01*
X33220191Y-20386815D01*
X33202919Y-20408193D01*
X33202305Y-20409019D01*
X33187065Y-20431370D01*
X33186507Y-20432267D01*
X33173299Y-20455592D01*
X33172812Y-20456543D01*
X33161636Y-20480842D01*
X33161232Y-20481827D01*
X33152087Y-20507098D01*
X33151771Y-20508098D01*
X33144659Y-20534344D01*
X33144432Y-20535336D01*
X33139353Y-20562555D01*
X33139212Y-20563520D01*
X33136164Y-20591712D01*
X33136098Y-20592635D01*
X33135509Y-20609544D01*
X33007639Y-20609544D01*
X33007050Y-20592635D01*
X33006984Y-20591712D01*
X33003936Y-20563520D01*
X33003794Y-20562555D01*
X32998714Y-20535336D01*
X32998488Y-20534344D01*
X32991376Y-20508098D01*
X32991060Y-20507099D01*
X32981916Y-20481828D01*
X32981512Y-20480842D01*
X32970335Y-20456543D01*
X32969848Y-20455592D01*
X32956640Y-20432267D01*
X32956082Y-20431371D01*
X32940843Y-20409020D01*
X32940229Y-20408193D01*
X32922957Y-20386815D01*
X32922303Y-20386068D01*
X32909502Y-20372538D01*
X33071574Y-20091426D01*
X33233646Y-20372538D01*
G36*
X32653498Y-28402964D02*
G01*
X32653564Y-28403887D01*
X32656612Y-28432079D01*
X32656754Y-28433044D01*
X32661834Y-28460263D01*
X32662060Y-28461255D01*
X32669172Y-28487501D01*
X32669488Y-28488500D01*
X32678632Y-28513772D01*
X32679036Y-28514758D01*
X32690211Y-28539056D01*
X32690698Y-28540007D01*
X32703906Y-28563332D01*
X32704464Y-28564229D01*
X32719705Y-28586580D01*
X32720319Y-28587406D01*
X32737591Y-28608784D01*
X32738244Y-28609531D01*
X32751046Y-28623063D01*
X32588974Y-28904174D01*
X32426902Y-28623063D01*
X32439704Y-28609531D01*
X32440357Y-28608784D01*
X32457629Y-28587406D01*
X32458243Y-28586580D01*
X32473483Y-28564229D01*
X32474041Y-28563332D01*
X32487249Y-28540007D01*
X32487736Y-28539056D01*
X32498912Y-28514758D01*
X32499316Y-28513772D01*
X32508459Y-28488500D01*
X32508775Y-28487501D01*
X32515887Y-28461255D01*
X32516113Y-28460263D01*
X32521194Y-28433044D01*
X32521336Y-28432079D01*
X32524384Y-28403887D01*
X32524450Y-28402964D01*
X32525039Y-28386056D01*
X32652909Y-28386056D01*
X32653498Y-28402964D01*
X32653498Y-28402964D01*
G37*
X32653498Y-28402964D02*
X32653564Y-28403887D01*
X32656612Y-28432079D01*
X32656754Y-28433044D01*
X32661834Y-28460263D01*
X32662060Y-28461255D01*
X32669172Y-28487501D01*
X32669488Y-28488500D01*
X32678632Y-28513772D01*
X32679036Y-28514758D01*
X32690211Y-28539056D01*
X32690698Y-28540007D01*
X32703906Y-28563332D01*
X32704464Y-28564229D01*
X32719705Y-28586580D01*
X32720319Y-28587406D01*
X32737591Y-28608784D01*
X32738244Y-28609531D01*
X32751046Y-28623063D01*
X32588974Y-28904174D01*
X32426902Y-28623063D01*
X32439704Y-28609531D01*
X32440357Y-28608784D01*
X32457629Y-28587406D01*
X32458243Y-28586580D01*
X32473483Y-28564229D01*
X32474041Y-28563332D01*
X32487249Y-28540007D01*
X32487736Y-28539056D01*
X32498912Y-28514758D01*
X32499316Y-28513772D01*
X32508459Y-28488500D01*
X32508775Y-28487501D01*
X32515887Y-28461255D01*
X32516113Y-28460263D01*
X32521194Y-28433044D01*
X32521336Y-28432079D01*
X32524384Y-28403887D01*
X32524450Y-28402964D01*
X32525039Y-28386056D01*
X32652909Y-28386056D01*
X32653498Y-28402964D01*
G36*
X32751046Y-20982138D02*
G01*
X32738245Y-20995668D01*
X32737591Y-20996415D01*
X32720319Y-21017793D01*
X32719705Y-21018619D01*
X32704465Y-21040970D01*
X32703907Y-21041867D01*
X32690699Y-21065192D01*
X32690212Y-21066143D01*
X32679036Y-21090442D01*
X32678632Y-21091427D01*
X32669487Y-21116698D01*
X32669171Y-21117698D01*
X32662059Y-21143944D01*
X32661832Y-21144936D01*
X32656753Y-21172155D01*
X32656612Y-21173120D01*
X32653564Y-21201312D01*
X32653498Y-21202235D01*
X32652909Y-21219144D01*
X32525039Y-21219144D01*
X32524450Y-21202235D01*
X32524384Y-21201312D01*
X32521336Y-21173120D01*
X32521194Y-21172155D01*
X32516114Y-21144936D01*
X32515888Y-21143944D01*
X32508776Y-21117698D01*
X32508460Y-21116699D01*
X32499316Y-21091428D01*
X32498912Y-21090442D01*
X32487735Y-21066143D01*
X32487248Y-21065192D01*
X32474040Y-21041867D01*
X32473482Y-21040971D01*
X32458243Y-21018620D01*
X32457629Y-21017793D01*
X32440357Y-20996415D01*
X32439703Y-20995668D01*
X32426902Y-20982138D01*
X32588974Y-20701026D01*
X32751046Y-20982138D01*
X32751046Y-20982138D01*
G37*
X32751046Y-20982138D02*
X32738245Y-20995668D01*
X32737591Y-20996415D01*
X32720319Y-21017793D01*
X32719705Y-21018619D01*
X32704465Y-21040970D01*
X32703907Y-21041867D01*
X32690699Y-21065192D01*
X32690212Y-21066143D01*
X32679036Y-21090442D01*
X32678632Y-21091427D01*
X32669487Y-21116698D01*
X32669171Y-21117698D01*
X32662059Y-21143944D01*
X32661832Y-21144936D01*
X32656753Y-21172155D01*
X32656612Y-21173120D01*
X32653564Y-21201312D01*
X32653498Y-21202235D01*
X32652909Y-21219144D01*
X32525039Y-21219144D01*
X32524450Y-21202235D01*
X32524384Y-21201312D01*
X32521336Y-21173120D01*
X32521194Y-21172155D01*
X32516114Y-21144936D01*
X32515888Y-21143944D01*
X32508776Y-21117698D01*
X32508460Y-21116699D01*
X32499316Y-21091428D01*
X32498912Y-21090442D01*
X32487735Y-21066143D01*
X32487248Y-21065192D01*
X32474040Y-21041867D01*
X32473482Y-21040971D01*
X32458243Y-21018620D01*
X32457629Y-21017793D01*
X32440357Y-20996415D01*
X32439703Y-20995668D01*
X32426902Y-20982138D01*
X32588974Y-20701026D01*
X32751046Y-20982138D01*
G36*
X32268447Y-20372538D02*
G01*
X32255646Y-20386068D01*
X32254992Y-20386815D01*
X32237720Y-20408193D01*
X32237106Y-20409019D01*
X32221866Y-20431370D01*
X32221308Y-20432267D01*
X32208100Y-20455592D01*
X32207613Y-20456543D01*
X32196437Y-20480842D01*
X32196033Y-20481828D01*
X32186889Y-20507099D01*
X32186573Y-20508098D01*
X32179461Y-20534344D01*
X32179235Y-20535336D01*
X32174155Y-20562555D01*
X32174013Y-20563520D01*
X32170965Y-20591712D01*
X32170899Y-20592635D01*
X32170310Y-20609544D01*
X32042440Y-20609544D01*
X32041851Y-20592635D01*
X32041785Y-20591712D01*
X32038737Y-20563520D01*
X32038595Y-20562555D01*
X32033515Y-20535336D01*
X32033289Y-20534344D01*
X32026177Y-20508098D01*
X32025861Y-20507099D01*
X32016717Y-20481828D01*
X32016313Y-20480842D01*
X32005137Y-20456543D01*
X32004650Y-20455592D01*
X31991442Y-20432267D01*
X31990884Y-20431370D01*
X31975644Y-20409019D01*
X31975030Y-20408193D01*
X31957758Y-20386815D01*
X31957104Y-20386068D01*
X31944303Y-20372538D01*
X32106375Y-20091426D01*
X32268447Y-20372538D01*
X32268447Y-20372538D01*
G37*
X32268447Y-20372538D02*
X32255646Y-20386068D01*
X32254992Y-20386815D01*
X32237720Y-20408193D01*
X32237106Y-20409019D01*
X32221866Y-20431370D01*
X32221308Y-20432267D01*
X32208100Y-20455592D01*
X32207613Y-20456543D01*
X32196437Y-20480842D01*
X32196033Y-20481828D01*
X32186889Y-20507099D01*
X32186573Y-20508098D01*
X32179461Y-20534344D01*
X32179235Y-20535336D01*
X32174155Y-20562555D01*
X32174013Y-20563520D01*
X32170965Y-20591712D01*
X32170899Y-20592635D01*
X32170310Y-20609544D01*
X32042440Y-20609544D01*
X32041851Y-20592635D01*
X32041785Y-20591712D01*
X32038737Y-20563520D01*
X32038595Y-20562555D01*
X32033515Y-20535336D01*
X32033289Y-20534344D01*
X32026177Y-20508098D01*
X32025861Y-20507099D01*
X32016717Y-20481828D01*
X32016313Y-20480842D01*
X32005137Y-20456543D01*
X32004650Y-20455592D01*
X31991442Y-20432267D01*
X31990884Y-20431370D01*
X31975644Y-20409019D01*
X31975030Y-20408193D01*
X31957758Y-20386815D01*
X31957104Y-20386068D01*
X31944303Y-20372538D01*
X32106375Y-20091426D01*
X32268447Y-20372538D01*
G36*
X32170899Y-27793364D02*
G01*
X32170965Y-27794287D01*
X32174013Y-27822479D01*
X32174155Y-27823444D01*
X32179235Y-27850663D01*
X32179461Y-27851655D01*
X32186573Y-27877901D01*
X32186889Y-27878900D01*
X32196033Y-27904172D01*
X32196437Y-27905158D01*
X32207613Y-27929456D01*
X32208100Y-27930407D01*
X32221308Y-27953732D01*
X32221866Y-27954629D01*
X32237106Y-27976980D01*
X32237720Y-27977806D01*
X32254992Y-27999184D01*
X32255645Y-27999931D01*
X32268447Y-28013463D01*
X32106375Y-28294574D01*
X31944303Y-28013463D01*
X31957105Y-27999931D01*
X31957758Y-27999184D01*
X31975030Y-27977806D01*
X31975644Y-27976980D01*
X31990884Y-27954629D01*
X31991442Y-27953732D01*
X32004650Y-27930407D01*
X32005137Y-27929456D01*
X32016313Y-27905158D01*
X32016717Y-27904172D01*
X32025861Y-27878900D01*
X32026177Y-27877901D01*
X32033289Y-27851655D01*
X32033515Y-27850663D01*
X32038595Y-27823444D01*
X32038737Y-27822479D01*
X32041785Y-27794287D01*
X32041851Y-27793364D01*
X32042440Y-27776456D01*
X32170310Y-27776456D01*
X32170899Y-27793364D01*
X32170899Y-27793364D01*
G37*
X32170899Y-27793364D02*
X32170965Y-27794287D01*
X32174013Y-27822479D01*
X32174155Y-27823444D01*
X32179235Y-27850663D01*
X32179461Y-27851655D01*
X32186573Y-27877901D01*
X32186889Y-27878900D01*
X32196033Y-27904172D01*
X32196437Y-27905158D01*
X32207613Y-27929456D01*
X32208100Y-27930407D01*
X32221308Y-27953732D01*
X32221866Y-27954629D01*
X32237106Y-27976980D01*
X32237720Y-27977806D01*
X32254992Y-27999184D01*
X32255645Y-27999931D01*
X32268447Y-28013463D01*
X32106375Y-28294574D01*
X31944303Y-28013463D01*
X31957105Y-27999931D01*
X31957758Y-27999184D01*
X31975030Y-27977806D01*
X31975644Y-27976980D01*
X31990884Y-27954629D01*
X31991442Y-27953732D01*
X32004650Y-27930407D01*
X32005137Y-27929456D01*
X32016313Y-27905158D01*
X32016717Y-27904172D01*
X32025861Y-27878900D01*
X32026177Y-27877901D01*
X32033289Y-27851655D01*
X32033515Y-27850663D01*
X32038595Y-27823444D01*
X32038737Y-27822479D01*
X32041785Y-27794287D01*
X32041851Y-27793364D01*
X32042440Y-27776456D01*
X32170310Y-27776456D01*
X32170899Y-27793364D01*
G36*
X31688299Y-28402964D02*
G01*
X31688365Y-28403887D01*
X31691413Y-28432079D01*
X31691555Y-28433044D01*
X31696635Y-28460263D01*
X31696861Y-28461255D01*
X31703973Y-28487501D01*
X31704289Y-28488500D01*
X31713433Y-28513772D01*
X31713837Y-28514758D01*
X31725013Y-28539056D01*
X31725500Y-28540007D01*
X31738708Y-28563332D01*
X31739266Y-28564229D01*
X31754506Y-28586580D01*
X31755120Y-28587406D01*
X31772392Y-28608784D01*
X31773045Y-28609531D01*
X31785847Y-28623063D01*
X31623775Y-28904174D01*
X31461703Y-28623063D01*
X31474505Y-28609531D01*
X31475158Y-28608784D01*
X31492430Y-28587406D01*
X31493044Y-28586580D01*
X31508284Y-28564229D01*
X31508842Y-28563332D01*
X31522050Y-28540007D01*
X31522537Y-28539056D01*
X31533713Y-28514758D01*
X31534117Y-28513772D01*
X31543261Y-28488500D01*
X31543577Y-28487501D01*
X31550689Y-28461255D01*
X31550915Y-28460263D01*
X31555995Y-28433044D01*
X31556137Y-28432079D01*
X31559185Y-28403887D01*
X31559251Y-28402964D01*
X31559840Y-28386056D01*
X31687710Y-28386056D01*
X31688299Y-28402964D01*
X31688299Y-28402964D01*
G37*
X31688299Y-28402964D02*
X31688365Y-28403887D01*
X31691413Y-28432079D01*
X31691555Y-28433044D01*
X31696635Y-28460263D01*
X31696861Y-28461255D01*
X31703973Y-28487501D01*
X31704289Y-28488500D01*
X31713433Y-28513772D01*
X31713837Y-28514758D01*
X31725013Y-28539056D01*
X31725500Y-28540007D01*
X31738708Y-28563332D01*
X31739266Y-28564229D01*
X31754506Y-28586580D01*
X31755120Y-28587406D01*
X31772392Y-28608784D01*
X31773045Y-28609531D01*
X31785847Y-28623063D01*
X31623775Y-28904174D01*
X31461703Y-28623063D01*
X31474505Y-28609531D01*
X31475158Y-28608784D01*
X31492430Y-28587406D01*
X31493044Y-28586580D01*
X31508284Y-28564229D01*
X31508842Y-28563332D01*
X31522050Y-28540007D01*
X31522537Y-28539056D01*
X31533713Y-28514758D01*
X31534117Y-28513772D01*
X31543261Y-28488500D01*
X31543577Y-28487501D01*
X31550689Y-28461255D01*
X31550915Y-28460263D01*
X31555995Y-28433044D01*
X31556137Y-28432079D01*
X31559185Y-28403887D01*
X31559251Y-28402964D01*
X31559840Y-28386056D01*
X31687710Y-28386056D01*
X31688299Y-28402964D01*
G36*
X31785847Y-20982138D02*
G01*
X31773046Y-20995668D01*
X31772392Y-20996415D01*
X31755120Y-21017793D01*
X31754506Y-21018619D01*
X31739266Y-21040970D01*
X31738708Y-21041867D01*
X31725500Y-21065192D01*
X31725013Y-21066143D01*
X31713837Y-21090442D01*
X31713433Y-21091428D01*
X31704289Y-21116699D01*
X31703973Y-21117698D01*
X31696861Y-21143944D01*
X31696635Y-21144936D01*
X31691555Y-21172155D01*
X31691413Y-21173120D01*
X31688365Y-21201312D01*
X31688299Y-21202235D01*
X31687710Y-21219144D01*
X31559840Y-21219144D01*
X31559251Y-21202235D01*
X31559185Y-21201312D01*
X31556137Y-21173120D01*
X31555995Y-21172155D01*
X31550915Y-21144936D01*
X31550689Y-21143944D01*
X31543577Y-21117698D01*
X31543261Y-21116699D01*
X31534117Y-21091428D01*
X31533713Y-21090442D01*
X31522537Y-21066143D01*
X31522050Y-21065192D01*
X31508842Y-21041867D01*
X31508284Y-21040970D01*
X31493044Y-21018619D01*
X31492430Y-21017793D01*
X31475158Y-20996415D01*
X31474504Y-20995668D01*
X31461703Y-20982138D01*
X31623775Y-20701026D01*
X31785847Y-20982138D01*
X31785847Y-20982138D01*
G37*
X31785847Y-20982138D02*
X31773046Y-20995668D01*
X31772392Y-20996415D01*
X31755120Y-21017793D01*
X31754506Y-21018619D01*
X31739266Y-21040970D01*
X31738708Y-21041867D01*
X31725500Y-21065192D01*
X31725013Y-21066143D01*
X31713837Y-21090442D01*
X31713433Y-21091428D01*
X31704289Y-21116699D01*
X31703973Y-21117698D01*
X31696861Y-21143944D01*
X31696635Y-21144936D01*
X31691555Y-21172155D01*
X31691413Y-21173120D01*
X31688365Y-21201312D01*
X31688299Y-21202235D01*
X31687710Y-21219144D01*
X31559840Y-21219144D01*
X31559251Y-21202235D01*
X31559185Y-21201312D01*
X31556137Y-21173120D01*
X31555995Y-21172155D01*
X31550915Y-21144936D01*
X31550689Y-21143944D01*
X31543577Y-21117698D01*
X31543261Y-21116699D01*
X31534117Y-21091428D01*
X31533713Y-21090442D01*
X31522537Y-21066143D01*
X31522050Y-21065192D01*
X31508842Y-21041867D01*
X31508284Y-21040970D01*
X31493044Y-21018619D01*
X31492430Y-21017793D01*
X31475158Y-20996415D01*
X31474504Y-20995668D01*
X31461703Y-20982138D01*
X31623775Y-20701026D01*
X31785847Y-20982138D01*
G36*
X31205700Y-27793364D02*
G01*
X31205766Y-27794287D01*
X31208814Y-27822479D01*
X31208956Y-27823444D01*
X31214036Y-27850663D01*
X31214262Y-27851655D01*
X31221374Y-27877901D01*
X31221690Y-27878900D01*
X31230834Y-27904172D01*
X31231238Y-27905158D01*
X31242413Y-27929456D01*
X31242900Y-27930407D01*
X31256108Y-27953732D01*
X31256666Y-27954629D01*
X31271907Y-27976980D01*
X31272521Y-27977806D01*
X31289793Y-27999184D01*
X31290446Y-27999931D01*
X31303248Y-28013463D01*
X31141176Y-28294574D01*
X30979104Y-28013463D01*
X30991906Y-27999931D01*
X30992559Y-27999184D01*
X31009831Y-27977806D01*
X31010445Y-27976980D01*
X31025685Y-27954629D01*
X31026243Y-27953732D01*
X31039451Y-27930407D01*
X31039938Y-27929456D01*
X31051114Y-27905158D01*
X31051518Y-27904172D01*
X31060661Y-27878900D01*
X31060977Y-27877901D01*
X31068089Y-27851655D01*
X31068315Y-27850663D01*
X31073396Y-27823444D01*
X31073538Y-27822479D01*
X31076586Y-27794287D01*
X31076652Y-27793364D01*
X31077241Y-27776456D01*
X31205111Y-27776456D01*
X31205700Y-27793364D01*
X31205700Y-27793364D01*
G37*
X31205700Y-27793364D02*
X31205766Y-27794287D01*
X31208814Y-27822479D01*
X31208956Y-27823444D01*
X31214036Y-27850663D01*
X31214262Y-27851655D01*
X31221374Y-27877901D01*
X31221690Y-27878900D01*
X31230834Y-27904172D01*
X31231238Y-27905158D01*
X31242413Y-27929456D01*
X31242900Y-27930407D01*
X31256108Y-27953732D01*
X31256666Y-27954629D01*
X31271907Y-27976980D01*
X31272521Y-27977806D01*
X31289793Y-27999184D01*
X31290446Y-27999931D01*
X31303248Y-28013463D01*
X31141176Y-28294574D01*
X30979104Y-28013463D01*
X30991906Y-27999931D01*
X30992559Y-27999184D01*
X31009831Y-27977806D01*
X31010445Y-27976980D01*
X31025685Y-27954629D01*
X31026243Y-27953732D01*
X31039451Y-27930407D01*
X31039938Y-27929456D01*
X31051114Y-27905158D01*
X31051518Y-27904172D01*
X31060661Y-27878900D01*
X31060977Y-27877901D01*
X31068089Y-27851655D01*
X31068315Y-27850663D01*
X31073396Y-27823444D01*
X31073538Y-27822479D01*
X31076586Y-27794287D01*
X31076652Y-27793364D01*
X31077241Y-27776456D01*
X31205111Y-27776456D01*
X31205700Y-27793364D01*
G36*
X31303248Y-20372538D02*
G01*
X31290447Y-20386068D01*
X31289793Y-20386815D01*
X31272521Y-20408193D01*
X31271907Y-20409019D01*
X31256667Y-20431370D01*
X31256109Y-20432267D01*
X31242901Y-20455592D01*
X31242414Y-20456543D01*
X31231238Y-20480842D01*
X31230834Y-20481827D01*
X31221689Y-20507098D01*
X31221373Y-20508098D01*
X31214261Y-20534344D01*
X31214034Y-20535336D01*
X31208955Y-20562555D01*
X31208814Y-20563520D01*
X31205766Y-20591712D01*
X31205700Y-20592635D01*
X31205111Y-20609544D01*
X31077241Y-20609544D01*
X31076652Y-20592635D01*
X31076586Y-20591712D01*
X31073538Y-20563520D01*
X31073396Y-20562555D01*
X31068316Y-20535336D01*
X31068090Y-20534344D01*
X31060978Y-20508098D01*
X31060662Y-20507099D01*
X31051518Y-20481828D01*
X31051114Y-20480842D01*
X31039937Y-20456543D01*
X31039450Y-20455592D01*
X31026242Y-20432267D01*
X31025684Y-20431371D01*
X31010445Y-20409020D01*
X31009831Y-20408193D01*
X30992559Y-20386815D01*
X30991905Y-20386068D01*
X30979104Y-20372538D01*
X31141176Y-20091426D01*
X31303248Y-20372538D01*
X31303248Y-20372538D01*
G37*
X31303248Y-20372538D02*
X31290447Y-20386068D01*
X31289793Y-20386815D01*
X31272521Y-20408193D01*
X31271907Y-20409019D01*
X31256667Y-20431370D01*
X31256109Y-20432267D01*
X31242901Y-20455592D01*
X31242414Y-20456543D01*
X31231238Y-20480842D01*
X31230834Y-20481827D01*
X31221689Y-20507098D01*
X31221373Y-20508098D01*
X31214261Y-20534344D01*
X31214034Y-20535336D01*
X31208955Y-20562555D01*
X31208814Y-20563520D01*
X31205766Y-20591712D01*
X31205700Y-20592635D01*
X31205111Y-20609544D01*
X31077241Y-20609544D01*
X31076652Y-20592635D01*
X31076586Y-20591712D01*
X31073538Y-20563520D01*
X31073396Y-20562555D01*
X31068316Y-20535336D01*
X31068090Y-20534344D01*
X31060978Y-20508098D01*
X31060662Y-20507099D01*
X31051518Y-20481828D01*
X31051114Y-20480842D01*
X31039937Y-20456543D01*
X31039450Y-20455592D01*
X31026242Y-20432267D01*
X31025684Y-20431371D01*
X31010445Y-20409020D01*
X31009831Y-20408193D01*
X30992559Y-20386815D01*
X30991905Y-20386068D01*
X30979104Y-20372538D01*
X31141176Y-20091426D01*
X31303248Y-20372538D01*
G36*
X30723100Y-28402964D02*
G01*
X30723166Y-28403887D01*
X30726214Y-28432079D01*
X30726356Y-28433044D01*
X30731436Y-28460263D01*
X30731662Y-28461255D01*
X30738774Y-28487501D01*
X30739090Y-28488500D01*
X30748234Y-28513772D01*
X30748638Y-28514758D01*
X30759813Y-28539056D01*
X30760300Y-28540007D01*
X30773508Y-28563332D01*
X30774066Y-28564229D01*
X30789307Y-28586580D01*
X30789921Y-28587406D01*
X30807193Y-28608784D01*
X30807846Y-28609531D01*
X30820648Y-28623063D01*
X30658576Y-28904174D01*
X30496504Y-28623063D01*
X30509306Y-28609531D01*
X30509959Y-28608784D01*
X30527231Y-28587406D01*
X30527845Y-28586580D01*
X30543085Y-28564229D01*
X30543643Y-28563332D01*
X30556851Y-28540007D01*
X30557338Y-28539056D01*
X30568514Y-28514758D01*
X30568918Y-28513772D01*
X30578061Y-28488500D01*
X30578377Y-28487501D01*
X30585489Y-28461255D01*
X30585715Y-28460263D01*
X30590796Y-28433044D01*
X30590938Y-28432079D01*
X30593986Y-28403887D01*
X30594052Y-28402964D01*
X30594641Y-28386056D01*
X30722511Y-28386056D01*
X30723100Y-28402964D01*
X30723100Y-28402964D01*
G37*
X30723100Y-28402964D02*
X30723166Y-28403887D01*
X30726214Y-28432079D01*
X30726356Y-28433044D01*
X30731436Y-28460263D01*
X30731662Y-28461255D01*
X30738774Y-28487501D01*
X30739090Y-28488500D01*
X30748234Y-28513772D01*
X30748638Y-28514758D01*
X30759813Y-28539056D01*
X30760300Y-28540007D01*
X30773508Y-28563332D01*
X30774066Y-28564229D01*
X30789307Y-28586580D01*
X30789921Y-28587406D01*
X30807193Y-28608784D01*
X30807846Y-28609531D01*
X30820648Y-28623063D01*
X30658576Y-28904174D01*
X30496504Y-28623063D01*
X30509306Y-28609531D01*
X30509959Y-28608784D01*
X30527231Y-28587406D01*
X30527845Y-28586580D01*
X30543085Y-28564229D01*
X30543643Y-28563332D01*
X30556851Y-28540007D01*
X30557338Y-28539056D01*
X30568514Y-28514758D01*
X30568918Y-28513772D01*
X30578061Y-28488500D01*
X30578377Y-28487501D01*
X30585489Y-28461255D01*
X30585715Y-28460263D01*
X30590796Y-28433044D01*
X30590938Y-28432079D01*
X30593986Y-28403887D01*
X30594052Y-28402964D01*
X30594641Y-28386056D01*
X30722511Y-28386056D01*
X30723100Y-28402964D01*
G36*
X30820648Y-20982138D02*
G01*
X30807847Y-20995668D01*
X30807193Y-20996415D01*
X30789921Y-21017793D01*
X30789307Y-21018619D01*
X30774067Y-21040970D01*
X30773509Y-21041867D01*
X30760301Y-21065192D01*
X30759814Y-21066143D01*
X30748638Y-21090442D01*
X30748234Y-21091427D01*
X30739089Y-21116698D01*
X30738773Y-21117698D01*
X30731661Y-21143944D01*
X30731434Y-21144936D01*
X30726355Y-21172155D01*
X30726214Y-21173120D01*
X30723166Y-21201312D01*
X30723100Y-21202235D01*
X30722511Y-21219144D01*
X30594641Y-21219144D01*
X30594052Y-21202235D01*
X30593986Y-21201312D01*
X30590938Y-21173120D01*
X30590796Y-21172155D01*
X30585716Y-21144936D01*
X30585490Y-21143944D01*
X30578378Y-21117698D01*
X30578062Y-21116699D01*
X30568918Y-21091428D01*
X30568514Y-21090442D01*
X30557337Y-21066143D01*
X30556850Y-21065192D01*
X30543642Y-21041867D01*
X30543084Y-21040971D01*
X30527845Y-21018620D01*
X30527231Y-21017793D01*
X30509959Y-20996415D01*
X30509305Y-20995668D01*
X30496504Y-20982138D01*
X30658576Y-20701026D01*
X30820648Y-20982138D01*
X30820648Y-20982138D01*
G37*
X30820648Y-20982138D02*
X30807847Y-20995668D01*
X30807193Y-20996415D01*
X30789921Y-21017793D01*
X30789307Y-21018619D01*
X30774067Y-21040970D01*
X30773509Y-21041867D01*
X30760301Y-21065192D01*
X30759814Y-21066143D01*
X30748638Y-21090442D01*
X30748234Y-21091427D01*
X30739089Y-21116698D01*
X30738773Y-21117698D01*
X30731661Y-21143944D01*
X30731434Y-21144936D01*
X30726355Y-21172155D01*
X30726214Y-21173120D01*
X30723166Y-21201312D01*
X30723100Y-21202235D01*
X30722511Y-21219144D01*
X30594641Y-21219144D01*
X30594052Y-21202235D01*
X30593986Y-21201312D01*
X30590938Y-21173120D01*
X30590796Y-21172155D01*
X30585716Y-21144936D01*
X30585490Y-21143944D01*
X30578378Y-21117698D01*
X30578062Y-21116699D01*
X30568918Y-21091428D01*
X30568514Y-21090442D01*
X30557337Y-21066143D01*
X30556850Y-21065192D01*
X30543642Y-21041867D01*
X30543084Y-21040971D01*
X30527845Y-21018620D01*
X30527231Y-21017793D01*
X30509959Y-20996415D01*
X30509305Y-20995668D01*
X30496504Y-20982138D01*
X30658576Y-20701026D01*
X30820648Y-20982138D01*
G36*
X30338049Y-20372538D02*
G01*
X30325248Y-20386068D01*
X30324594Y-20386815D01*
X30307322Y-20408193D01*
X30306708Y-20409019D01*
X30291468Y-20431370D01*
X30290910Y-20432267D01*
X30277702Y-20455592D01*
X30277215Y-20456543D01*
X30266039Y-20480842D01*
X30265635Y-20481828D01*
X30256491Y-20507099D01*
X30256175Y-20508098D01*
X30249063Y-20534344D01*
X30248837Y-20535336D01*
X30243757Y-20562555D01*
X30243615Y-20563520D01*
X30240567Y-20591712D01*
X30240501Y-20592635D01*
X30239912Y-20609544D01*
X30112042Y-20609544D01*
X30111453Y-20592635D01*
X30111387Y-20591712D01*
X30108339Y-20563520D01*
X30108197Y-20562555D01*
X30103117Y-20535336D01*
X30102891Y-20534344D01*
X30095779Y-20508098D01*
X30095463Y-20507099D01*
X30086319Y-20481828D01*
X30085915Y-20480842D01*
X30074739Y-20456543D01*
X30074252Y-20455592D01*
X30061044Y-20432267D01*
X30060486Y-20431370D01*
X30045246Y-20409019D01*
X30044632Y-20408193D01*
X30027360Y-20386815D01*
X30026706Y-20386068D01*
X30013905Y-20372538D01*
X30175977Y-20091426D01*
X30338049Y-20372538D01*
X30338049Y-20372538D01*
G37*
X30338049Y-20372538D02*
X30325248Y-20386068D01*
X30324594Y-20386815D01*
X30307322Y-20408193D01*
X30306708Y-20409019D01*
X30291468Y-20431370D01*
X30290910Y-20432267D01*
X30277702Y-20455592D01*
X30277215Y-20456543D01*
X30266039Y-20480842D01*
X30265635Y-20481828D01*
X30256491Y-20507099D01*
X30256175Y-20508098D01*
X30249063Y-20534344D01*
X30248837Y-20535336D01*
X30243757Y-20562555D01*
X30243615Y-20563520D01*
X30240567Y-20591712D01*
X30240501Y-20592635D01*
X30239912Y-20609544D01*
X30112042Y-20609544D01*
X30111453Y-20592635D01*
X30111387Y-20591712D01*
X30108339Y-20563520D01*
X30108197Y-20562555D01*
X30103117Y-20535336D01*
X30102891Y-20534344D01*
X30095779Y-20508098D01*
X30095463Y-20507099D01*
X30086319Y-20481828D01*
X30085915Y-20480842D01*
X30074739Y-20456543D01*
X30074252Y-20455592D01*
X30061044Y-20432267D01*
X30060486Y-20431370D01*
X30045246Y-20409019D01*
X30044632Y-20408193D01*
X30027360Y-20386815D01*
X30026706Y-20386068D01*
X30013905Y-20372538D01*
X30175977Y-20091426D01*
X30338049Y-20372538D01*
G36*
X30240501Y-27793364D02*
G01*
X30240567Y-27794287D01*
X30243615Y-27822479D01*
X30243757Y-27823444D01*
X30248837Y-27850663D01*
X30249063Y-27851655D01*
X30256175Y-27877901D01*
X30256491Y-27878900D01*
X30265635Y-27904172D01*
X30266039Y-27905158D01*
X30277215Y-27929456D01*
X30277702Y-27930407D01*
X30290910Y-27953732D01*
X30291468Y-27954629D01*
X30306708Y-27976980D01*
X30307322Y-27977806D01*
X30324594Y-27999184D01*
X30325247Y-27999931D01*
X30338049Y-28013463D01*
X30175977Y-28294574D01*
X30013905Y-28013463D01*
X30026707Y-27999931D01*
X30027360Y-27999184D01*
X30044632Y-27977806D01*
X30045246Y-27976980D01*
X30060486Y-27954629D01*
X30061044Y-27953732D01*
X30074252Y-27930407D01*
X30074739Y-27929456D01*
X30085915Y-27905158D01*
X30086319Y-27904172D01*
X30095463Y-27878900D01*
X30095779Y-27877901D01*
X30102891Y-27851655D01*
X30103117Y-27850663D01*
X30108197Y-27823444D01*
X30108339Y-27822479D01*
X30111387Y-27794287D01*
X30111453Y-27793364D01*
X30112042Y-27776456D01*
X30239912Y-27776456D01*
X30240501Y-27793364D01*
X30240501Y-27793364D01*
G37*
X30240501Y-27793364D02*
X30240567Y-27794287D01*
X30243615Y-27822479D01*
X30243757Y-27823444D01*
X30248837Y-27850663D01*
X30249063Y-27851655D01*
X30256175Y-27877901D01*
X30256491Y-27878900D01*
X30265635Y-27904172D01*
X30266039Y-27905158D01*
X30277215Y-27929456D01*
X30277702Y-27930407D01*
X30290910Y-27953732D01*
X30291468Y-27954629D01*
X30306708Y-27976980D01*
X30307322Y-27977806D01*
X30324594Y-27999184D01*
X30325247Y-27999931D01*
X30338049Y-28013463D01*
X30175977Y-28294574D01*
X30013905Y-28013463D01*
X30026707Y-27999931D01*
X30027360Y-27999184D01*
X30044632Y-27977806D01*
X30045246Y-27976980D01*
X30060486Y-27954629D01*
X30061044Y-27953732D01*
X30074252Y-27930407D01*
X30074739Y-27929456D01*
X30085915Y-27905158D01*
X30086319Y-27904172D01*
X30095463Y-27878900D01*
X30095779Y-27877901D01*
X30102891Y-27851655D01*
X30103117Y-27850663D01*
X30108197Y-27823444D01*
X30108339Y-27822479D01*
X30111387Y-27794287D01*
X30111453Y-27793364D01*
X30112042Y-27776456D01*
X30239912Y-27776456D01*
X30240501Y-27793364D01*
G36*
X29757901Y-28402964D02*
G01*
X29757967Y-28403887D01*
X29761015Y-28432079D01*
X29761157Y-28433044D01*
X29766237Y-28460263D01*
X29766463Y-28461255D01*
X29773575Y-28487501D01*
X29773891Y-28488500D01*
X29783035Y-28513772D01*
X29783439Y-28514758D01*
X29794615Y-28539056D01*
X29795102Y-28540007D01*
X29808310Y-28563332D01*
X29808868Y-28564229D01*
X29824108Y-28586580D01*
X29824722Y-28587406D01*
X29841994Y-28608784D01*
X29842647Y-28609531D01*
X29855449Y-28623063D01*
X29693377Y-28904174D01*
X29531305Y-28623063D01*
X29544107Y-28609531D01*
X29544760Y-28608784D01*
X29562032Y-28587406D01*
X29562646Y-28586580D01*
X29577886Y-28564229D01*
X29578444Y-28563332D01*
X29591652Y-28540007D01*
X29592139Y-28539056D01*
X29603315Y-28514758D01*
X29603719Y-28513772D01*
X29612863Y-28488500D01*
X29613179Y-28487501D01*
X29620291Y-28461255D01*
X29620517Y-28460263D01*
X29625597Y-28433044D01*
X29625739Y-28432079D01*
X29628787Y-28403887D01*
X29628853Y-28402964D01*
X29629442Y-28386056D01*
X29757312Y-28386056D01*
X29757901Y-28402964D01*
X29757901Y-28402964D01*
G37*
X29757901Y-28402964D02*
X29757967Y-28403887D01*
X29761015Y-28432079D01*
X29761157Y-28433044D01*
X29766237Y-28460263D01*
X29766463Y-28461255D01*
X29773575Y-28487501D01*
X29773891Y-28488500D01*
X29783035Y-28513772D01*
X29783439Y-28514758D01*
X29794615Y-28539056D01*
X29795102Y-28540007D01*
X29808310Y-28563332D01*
X29808868Y-28564229D01*
X29824108Y-28586580D01*
X29824722Y-28587406D01*
X29841994Y-28608784D01*
X29842647Y-28609531D01*
X29855449Y-28623063D01*
X29693377Y-28904174D01*
X29531305Y-28623063D01*
X29544107Y-28609531D01*
X29544760Y-28608784D01*
X29562032Y-28587406D01*
X29562646Y-28586580D01*
X29577886Y-28564229D01*
X29578444Y-28563332D01*
X29591652Y-28540007D01*
X29592139Y-28539056D01*
X29603315Y-28514758D01*
X29603719Y-28513772D01*
X29612863Y-28488500D01*
X29613179Y-28487501D01*
X29620291Y-28461255D01*
X29620517Y-28460263D01*
X29625597Y-28433044D01*
X29625739Y-28432079D01*
X29628787Y-28403887D01*
X29628853Y-28402964D01*
X29629442Y-28386056D01*
X29757312Y-28386056D01*
X29757901Y-28402964D01*
G36*
X29855449Y-20982138D02*
G01*
X29842648Y-20995668D01*
X29841994Y-20996415D01*
X29824722Y-21017793D01*
X29824108Y-21018619D01*
X29808868Y-21040970D01*
X29808310Y-21041867D01*
X29795102Y-21065192D01*
X29794615Y-21066143D01*
X29783439Y-21090442D01*
X29783035Y-21091428D01*
X29773891Y-21116699D01*
X29773575Y-21117698D01*
X29766463Y-21143944D01*
X29766237Y-21144936D01*
X29761157Y-21172155D01*
X29761015Y-21173120D01*
X29757967Y-21201312D01*
X29757901Y-21202235D01*
X29757312Y-21219144D01*
X29629442Y-21219144D01*
X29628853Y-21202235D01*
X29628787Y-21201312D01*
X29625739Y-21173120D01*
X29625597Y-21172155D01*
X29620517Y-21144936D01*
X29620291Y-21143944D01*
X29613179Y-21117698D01*
X29612863Y-21116699D01*
X29603719Y-21091428D01*
X29603315Y-21090442D01*
X29592139Y-21066143D01*
X29591652Y-21065192D01*
X29578444Y-21041867D01*
X29577886Y-21040970D01*
X29562646Y-21018619D01*
X29562032Y-21017793D01*
X29544760Y-20996415D01*
X29544106Y-20995668D01*
X29531305Y-20982138D01*
X29693377Y-20701026D01*
X29855449Y-20982138D01*
X29855449Y-20982138D01*
G37*
X29855449Y-20982138D02*
X29842648Y-20995668D01*
X29841994Y-20996415D01*
X29824722Y-21017793D01*
X29824108Y-21018619D01*
X29808868Y-21040970D01*
X29808310Y-21041867D01*
X29795102Y-21065192D01*
X29794615Y-21066143D01*
X29783439Y-21090442D01*
X29783035Y-21091428D01*
X29773891Y-21116699D01*
X29773575Y-21117698D01*
X29766463Y-21143944D01*
X29766237Y-21144936D01*
X29761157Y-21172155D01*
X29761015Y-21173120D01*
X29757967Y-21201312D01*
X29757901Y-21202235D01*
X29757312Y-21219144D01*
X29629442Y-21219144D01*
X29628853Y-21202235D01*
X29628787Y-21201312D01*
X29625739Y-21173120D01*
X29625597Y-21172155D01*
X29620517Y-21144936D01*
X29620291Y-21143944D01*
X29613179Y-21117698D01*
X29612863Y-21116699D01*
X29603719Y-21091428D01*
X29603315Y-21090442D01*
X29592139Y-21066143D01*
X29591652Y-21065192D01*
X29578444Y-21041867D01*
X29577886Y-21040970D01*
X29562646Y-21018619D01*
X29562032Y-21017793D01*
X29544760Y-20996415D01*
X29544106Y-20995668D01*
X29531305Y-20982138D01*
X29693377Y-20701026D01*
X29855449Y-20982138D01*
G36*
X29275302Y-27793364D02*
G01*
X29275368Y-27794287D01*
X29278416Y-27822479D01*
X29278558Y-27823444D01*
X29283638Y-27850663D01*
X29283864Y-27851655D01*
X29290976Y-27877901D01*
X29291292Y-27878900D01*
X29300436Y-27904172D01*
X29300840Y-27905158D01*
X29312016Y-27929456D01*
X29312503Y-27930406D01*
X29325710Y-27953731D01*
X29326268Y-27954629D01*
X29341509Y-27976980D01*
X29342123Y-27977806D01*
X29359395Y-27999184D01*
X29360048Y-27999931D01*
X29372850Y-28013463D01*
X29210778Y-28294574D01*
X29048706Y-28013463D01*
X29061508Y-27999931D01*
X29062161Y-27999184D01*
X29079433Y-27977806D01*
X29080047Y-27976980D01*
X29095287Y-27954629D01*
X29095845Y-27953732D01*
X29109053Y-27930407D01*
X29109540Y-27929456D01*
X29120716Y-27905158D01*
X29121120Y-27904172D01*
X29130264Y-27878900D01*
X29130580Y-27877900D01*
X29137691Y-27851654D01*
X29137917Y-27850663D01*
X29142998Y-27823444D01*
X29143140Y-27822479D01*
X29146188Y-27794287D01*
X29146254Y-27793364D01*
X29146843Y-27776456D01*
X29274713Y-27776456D01*
X29275302Y-27793364D01*
X29275302Y-27793364D01*
G37*
X29275302Y-27793364D02*
X29275368Y-27794287D01*
X29278416Y-27822479D01*
X29278558Y-27823444D01*
X29283638Y-27850663D01*
X29283864Y-27851655D01*
X29290976Y-27877901D01*
X29291292Y-27878900D01*
X29300436Y-27904172D01*
X29300840Y-27905158D01*
X29312016Y-27929456D01*
X29312503Y-27930406D01*
X29325710Y-27953731D01*
X29326268Y-27954629D01*
X29341509Y-27976980D01*
X29342123Y-27977806D01*
X29359395Y-27999184D01*
X29360048Y-27999931D01*
X29372850Y-28013463D01*
X29210778Y-28294574D01*
X29048706Y-28013463D01*
X29061508Y-27999931D01*
X29062161Y-27999184D01*
X29079433Y-27977806D01*
X29080047Y-27976980D01*
X29095287Y-27954629D01*
X29095845Y-27953732D01*
X29109053Y-27930407D01*
X29109540Y-27929456D01*
X29120716Y-27905158D01*
X29121120Y-27904172D01*
X29130264Y-27878900D01*
X29130580Y-27877900D01*
X29137691Y-27851654D01*
X29137917Y-27850663D01*
X29142998Y-27823444D01*
X29143140Y-27822479D01*
X29146188Y-27794287D01*
X29146254Y-27793364D01*
X29146843Y-27776456D01*
X29274713Y-27776456D01*
X29275302Y-27793364D01*
G36*
X29372850Y-20372538D02*
G01*
X29360049Y-20386068D01*
X29359395Y-20386815D01*
X29342123Y-20408193D01*
X29341509Y-20409019D01*
X29326269Y-20431370D01*
X29325711Y-20432267D01*
X29312503Y-20455592D01*
X29312016Y-20456543D01*
X29300840Y-20480842D01*
X29300436Y-20481828D01*
X29291292Y-20507099D01*
X29290976Y-20508098D01*
X29283863Y-20534344D01*
X29283636Y-20535336D01*
X29278557Y-20562555D01*
X29278416Y-20563520D01*
X29275368Y-20591712D01*
X29275302Y-20592635D01*
X29274713Y-20609544D01*
X29146843Y-20609544D01*
X29146254Y-20592635D01*
X29146188Y-20591712D01*
X29143140Y-20563520D01*
X29142998Y-20562555D01*
X29137918Y-20535336D01*
X29137692Y-20534344D01*
X29130580Y-20508098D01*
X29130264Y-20507099D01*
X29121120Y-20481828D01*
X29120716Y-20480842D01*
X29109540Y-20456543D01*
X29109053Y-20455592D01*
X29095844Y-20432267D01*
X29095286Y-20431371D01*
X29080047Y-20409020D01*
X29079433Y-20408193D01*
X29062161Y-20386815D01*
X29061507Y-20386068D01*
X29048706Y-20372538D01*
X29210778Y-20091426D01*
X29372850Y-20372538D01*
X29372850Y-20372538D01*
G37*
X29372850Y-20372538D02*
X29360049Y-20386068D01*
X29359395Y-20386815D01*
X29342123Y-20408193D01*
X29341509Y-20409019D01*
X29326269Y-20431370D01*
X29325711Y-20432267D01*
X29312503Y-20455592D01*
X29312016Y-20456543D01*
X29300840Y-20480842D01*
X29300436Y-20481828D01*
X29291292Y-20507099D01*
X29290976Y-20508098D01*
X29283863Y-20534344D01*
X29283636Y-20535336D01*
X29278557Y-20562555D01*
X29278416Y-20563520D01*
X29275368Y-20591712D01*
X29275302Y-20592635D01*
X29274713Y-20609544D01*
X29146843Y-20609544D01*
X29146254Y-20592635D01*
X29146188Y-20591712D01*
X29143140Y-20563520D01*
X29142998Y-20562555D01*
X29137918Y-20535336D01*
X29137692Y-20534344D01*
X29130580Y-20508098D01*
X29130264Y-20507099D01*
X29121120Y-20481828D01*
X29120716Y-20480842D01*
X29109540Y-20456543D01*
X29109053Y-20455592D01*
X29095844Y-20432267D01*
X29095286Y-20431371D01*
X29080047Y-20409020D01*
X29079433Y-20408193D01*
X29062161Y-20386815D01*
X29061507Y-20386068D01*
X29048706Y-20372538D01*
X29210778Y-20091426D01*
X29372850Y-20372538D01*
G36*
X28890250Y-20982138D02*
G01*
X28877449Y-20995668D01*
X28876795Y-20996415D01*
X28859523Y-21017793D01*
X28858909Y-21018619D01*
X28843669Y-21040970D01*
X28843111Y-21041867D01*
X28829903Y-21065192D01*
X28829416Y-21066143D01*
X28818240Y-21090442D01*
X28817836Y-21091428D01*
X28808692Y-21116699D01*
X28808376Y-21117698D01*
X28801263Y-21143944D01*
X28801036Y-21144936D01*
X28795957Y-21172155D01*
X28795816Y-21173120D01*
X28792768Y-21201312D01*
X28792702Y-21202235D01*
X28792113Y-21219144D01*
X28664243Y-21219144D01*
X28663654Y-21202235D01*
X28663588Y-21201312D01*
X28660540Y-21173120D01*
X28660398Y-21172155D01*
X28655318Y-21144936D01*
X28655092Y-21143944D01*
X28647980Y-21117698D01*
X28647664Y-21116699D01*
X28638520Y-21091428D01*
X28638116Y-21090442D01*
X28626940Y-21066143D01*
X28626453Y-21065192D01*
X28613244Y-21041867D01*
X28612686Y-21040971D01*
X28597447Y-21018620D01*
X28596833Y-21017793D01*
X28579561Y-20996415D01*
X28578907Y-20995668D01*
X28566106Y-20982138D01*
X28728178Y-20701026D01*
X28890250Y-20982138D01*
X28890250Y-20982138D01*
G37*
X28890250Y-20982138D02*
X28877449Y-20995668D01*
X28876795Y-20996415D01*
X28859523Y-21017793D01*
X28858909Y-21018619D01*
X28843669Y-21040970D01*
X28843111Y-21041867D01*
X28829903Y-21065192D01*
X28829416Y-21066143D01*
X28818240Y-21090442D01*
X28817836Y-21091428D01*
X28808692Y-21116699D01*
X28808376Y-21117698D01*
X28801263Y-21143944D01*
X28801036Y-21144936D01*
X28795957Y-21172155D01*
X28795816Y-21173120D01*
X28792768Y-21201312D01*
X28792702Y-21202235D01*
X28792113Y-21219144D01*
X28664243Y-21219144D01*
X28663654Y-21202235D01*
X28663588Y-21201312D01*
X28660540Y-21173120D01*
X28660398Y-21172155D01*
X28655318Y-21144936D01*
X28655092Y-21143944D01*
X28647980Y-21117698D01*
X28647664Y-21116699D01*
X28638520Y-21091428D01*
X28638116Y-21090442D01*
X28626940Y-21066143D01*
X28626453Y-21065192D01*
X28613244Y-21041867D01*
X28612686Y-21040971D01*
X28597447Y-21018620D01*
X28596833Y-21017793D01*
X28579561Y-20996415D01*
X28578907Y-20995668D01*
X28566106Y-20982138D01*
X28728178Y-20701026D01*
X28890250Y-20982138D01*
G36*
X28310103Y-27793364D02*
G01*
X28310169Y-27794287D01*
X28313217Y-27822479D01*
X28313359Y-27823444D01*
X28318439Y-27850663D01*
X28318665Y-27851655D01*
X28325777Y-27877901D01*
X28326093Y-27878900D01*
X28335237Y-27904172D01*
X28335641Y-27905158D01*
X28346817Y-27929456D01*
X28347304Y-27930407D01*
X28360512Y-27953732D01*
X28361070Y-27954629D01*
X28376310Y-27976980D01*
X28376924Y-27977806D01*
X28394196Y-27999184D01*
X28394849Y-27999931D01*
X28407651Y-28013463D01*
X28245579Y-28294574D01*
X28083507Y-28013463D01*
X28096309Y-27999931D01*
X28096962Y-27999184D01*
X28114234Y-27977806D01*
X28114848Y-27976980D01*
X28130088Y-27954629D01*
X28130646Y-27953732D01*
X28143854Y-27930407D01*
X28144341Y-27929456D01*
X28155517Y-27905158D01*
X28155921Y-27904172D01*
X28165065Y-27878900D01*
X28165381Y-27877901D01*
X28172493Y-27851655D01*
X28172719Y-27850663D01*
X28177799Y-27823444D01*
X28177941Y-27822479D01*
X28180989Y-27794287D01*
X28181055Y-27793364D01*
X28181644Y-27776456D01*
X28309514Y-27776456D01*
X28310103Y-27793364D01*
X28310103Y-27793364D01*
G37*
X28310103Y-27793364D02*
X28310169Y-27794287D01*
X28313217Y-27822479D01*
X28313359Y-27823444D01*
X28318439Y-27850663D01*
X28318665Y-27851655D01*
X28325777Y-27877901D01*
X28326093Y-27878900D01*
X28335237Y-27904172D01*
X28335641Y-27905158D01*
X28346817Y-27929456D01*
X28347304Y-27930407D01*
X28360512Y-27953732D01*
X28361070Y-27954629D01*
X28376310Y-27976980D01*
X28376924Y-27977806D01*
X28394196Y-27999184D01*
X28394849Y-27999931D01*
X28407651Y-28013463D01*
X28245579Y-28294574D01*
X28083507Y-28013463D01*
X28096309Y-27999931D01*
X28096962Y-27999184D01*
X28114234Y-27977806D01*
X28114848Y-27976980D01*
X28130088Y-27954629D01*
X28130646Y-27953732D01*
X28143854Y-27930407D01*
X28144341Y-27929456D01*
X28155517Y-27905158D01*
X28155921Y-27904172D01*
X28165065Y-27878900D01*
X28165381Y-27877901D01*
X28172493Y-27851655D01*
X28172719Y-27850663D01*
X28177799Y-27823444D01*
X28177941Y-27822479D01*
X28180989Y-27794287D01*
X28181055Y-27793364D01*
X28181644Y-27776456D01*
X28309514Y-27776456D01*
X28310103Y-27793364D01*
G36*
X28407651Y-20372538D02*
G01*
X28394850Y-20386068D01*
X28394196Y-20386815D01*
X28376924Y-20408193D01*
X28376310Y-20409019D01*
X28361070Y-20431370D01*
X28360512Y-20432267D01*
X28347304Y-20455592D01*
X28346817Y-20456543D01*
X28335641Y-20480842D01*
X28335237Y-20481828D01*
X28326093Y-20507099D01*
X28325777Y-20508098D01*
X28318665Y-20534344D01*
X28318439Y-20535336D01*
X28313359Y-20562555D01*
X28313217Y-20563520D01*
X28310169Y-20591712D01*
X28310103Y-20592635D01*
X28309514Y-20609544D01*
X28181644Y-20609544D01*
X28181055Y-20592635D01*
X28180989Y-20591712D01*
X28177941Y-20563520D01*
X28177799Y-20562555D01*
X28172719Y-20535336D01*
X28172493Y-20534344D01*
X28165381Y-20508098D01*
X28165065Y-20507099D01*
X28155921Y-20481828D01*
X28155517Y-20480842D01*
X28144341Y-20456543D01*
X28143854Y-20455592D01*
X28130646Y-20432267D01*
X28130088Y-20431370D01*
X28114848Y-20409019D01*
X28114234Y-20408193D01*
X28096962Y-20386815D01*
X28096308Y-20386068D01*
X28083507Y-20372538D01*
X28245579Y-20091426D01*
X28407651Y-20372538D01*
X28407651Y-20372538D01*
G37*
X28407651Y-20372538D02*
X28394850Y-20386068D01*
X28394196Y-20386815D01*
X28376924Y-20408193D01*
X28376310Y-20409019D01*
X28361070Y-20431370D01*
X28360512Y-20432267D01*
X28347304Y-20455592D01*
X28346817Y-20456543D01*
X28335641Y-20480842D01*
X28335237Y-20481828D01*
X28326093Y-20507099D01*
X28325777Y-20508098D01*
X28318665Y-20534344D01*
X28318439Y-20535336D01*
X28313359Y-20562555D01*
X28313217Y-20563520D01*
X28310169Y-20591712D01*
X28310103Y-20592635D01*
X28309514Y-20609544D01*
X28181644Y-20609544D01*
X28181055Y-20592635D01*
X28180989Y-20591712D01*
X28177941Y-20563520D01*
X28177799Y-20562555D01*
X28172719Y-20535336D01*
X28172493Y-20534344D01*
X28165381Y-20508098D01*
X28165065Y-20507099D01*
X28155921Y-20481828D01*
X28155517Y-20480842D01*
X28144341Y-20456543D01*
X28143854Y-20455592D01*
X28130646Y-20432267D01*
X28130088Y-20431370D01*
X28114848Y-20409019D01*
X28114234Y-20408193D01*
X28096962Y-20386815D01*
X28096308Y-20386068D01*
X28083507Y-20372538D01*
X28245579Y-20091426D01*
X28407651Y-20372538D01*
G36*
X27827503Y-28402964D02*
G01*
X27827569Y-28403887D01*
X27830617Y-28432079D01*
X27830759Y-28433044D01*
X27835839Y-28460263D01*
X27836065Y-28461255D01*
X27843177Y-28487501D01*
X27843493Y-28488500D01*
X27852637Y-28513772D01*
X27853041Y-28514758D01*
X27864217Y-28539056D01*
X27864704Y-28540007D01*
X27877912Y-28563332D01*
X27878470Y-28564229D01*
X27893710Y-28586580D01*
X27894324Y-28587406D01*
X27911596Y-28608784D01*
X27912249Y-28609531D01*
X27925051Y-28623063D01*
X27762979Y-28904174D01*
X27600907Y-28623063D01*
X27613709Y-28609531D01*
X27614362Y-28608784D01*
X27631634Y-28587406D01*
X27632248Y-28586580D01*
X27647488Y-28564229D01*
X27648046Y-28563332D01*
X27661254Y-28540007D01*
X27661741Y-28539056D01*
X27672917Y-28514758D01*
X27673321Y-28513772D01*
X27682465Y-28488500D01*
X27682781Y-28487501D01*
X27689893Y-28461255D01*
X27690119Y-28460263D01*
X27695199Y-28433044D01*
X27695341Y-28432079D01*
X27698389Y-28403887D01*
X27698455Y-28402964D01*
X27699044Y-28386056D01*
X27826914Y-28386056D01*
X27827503Y-28402964D01*
X27827503Y-28402964D01*
G37*
X27827503Y-28402964D02*
X27827569Y-28403887D01*
X27830617Y-28432079D01*
X27830759Y-28433044D01*
X27835839Y-28460263D01*
X27836065Y-28461255D01*
X27843177Y-28487501D01*
X27843493Y-28488500D01*
X27852637Y-28513772D01*
X27853041Y-28514758D01*
X27864217Y-28539056D01*
X27864704Y-28540007D01*
X27877912Y-28563332D01*
X27878470Y-28564229D01*
X27893710Y-28586580D01*
X27894324Y-28587406D01*
X27911596Y-28608784D01*
X27912249Y-28609531D01*
X27925051Y-28623063D01*
X27762979Y-28904174D01*
X27600907Y-28623063D01*
X27613709Y-28609531D01*
X27614362Y-28608784D01*
X27631634Y-28587406D01*
X27632248Y-28586580D01*
X27647488Y-28564229D01*
X27648046Y-28563332D01*
X27661254Y-28540007D01*
X27661741Y-28539056D01*
X27672917Y-28514758D01*
X27673321Y-28513772D01*
X27682465Y-28488500D01*
X27682781Y-28487501D01*
X27689893Y-28461255D01*
X27690119Y-28460263D01*
X27695199Y-28433044D01*
X27695341Y-28432079D01*
X27698389Y-28403887D01*
X27698455Y-28402964D01*
X27699044Y-28386056D01*
X27826914Y-28386056D01*
X27827503Y-28402964D01*
G36*
X27925051Y-20982138D02*
G01*
X27912250Y-20995668D01*
X27911596Y-20996415D01*
X27894324Y-21017793D01*
X27893710Y-21018619D01*
X27878470Y-21040970D01*
X27877912Y-21041867D01*
X27864704Y-21065192D01*
X27864217Y-21066143D01*
X27853041Y-21090442D01*
X27852637Y-21091428D01*
X27843493Y-21116699D01*
X27843177Y-21117698D01*
X27836065Y-21143944D01*
X27835839Y-21144936D01*
X27830759Y-21172155D01*
X27830617Y-21173120D01*
X27827569Y-21201312D01*
X27827503Y-21202235D01*
X27826914Y-21219144D01*
X27699044Y-21219144D01*
X27698455Y-21202235D01*
X27698389Y-21201312D01*
X27695341Y-21173120D01*
X27695199Y-21172155D01*
X27690119Y-21144936D01*
X27689893Y-21143944D01*
X27682781Y-21117698D01*
X27682465Y-21116699D01*
X27673321Y-21091428D01*
X27672917Y-21090442D01*
X27661741Y-21066143D01*
X27661254Y-21065192D01*
X27648046Y-21041867D01*
X27647488Y-21040970D01*
X27632248Y-21018619D01*
X27631634Y-21017793D01*
X27614362Y-20996415D01*
X27613708Y-20995668D01*
X27600907Y-20982138D01*
X27762979Y-20701026D01*
X27925051Y-20982138D01*
X27925051Y-20982138D01*
G37*
X27925051Y-20982138D02*
X27912250Y-20995668D01*
X27911596Y-20996415D01*
X27894324Y-21017793D01*
X27893710Y-21018619D01*
X27878470Y-21040970D01*
X27877912Y-21041867D01*
X27864704Y-21065192D01*
X27864217Y-21066143D01*
X27853041Y-21090442D01*
X27852637Y-21091428D01*
X27843493Y-21116699D01*
X27843177Y-21117698D01*
X27836065Y-21143944D01*
X27835839Y-21144936D01*
X27830759Y-21172155D01*
X27830617Y-21173120D01*
X27827569Y-21201312D01*
X27827503Y-21202235D01*
X27826914Y-21219144D01*
X27699044Y-21219144D01*
X27698455Y-21202235D01*
X27698389Y-21201312D01*
X27695341Y-21173120D01*
X27695199Y-21172155D01*
X27690119Y-21144936D01*
X27689893Y-21143944D01*
X27682781Y-21117698D01*
X27682465Y-21116699D01*
X27673321Y-21091428D01*
X27672917Y-21090442D01*
X27661741Y-21066143D01*
X27661254Y-21065192D01*
X27648046Y-21041867D01*
X27647488Y-21040970D01*
X27632248Y-21018619D01*
X27631634Y-21017793D01*
X27614362Y-20996415D01*
X27613708Y-20995668D01*
X27600907Y-20982138D01*
X27762979Y-20701026D01*
X27925051Y-20982138D01*
G36*
X27344904Y-27793364D02*
G01*
X27344970Y-27794287D01*
X27348018Y-27822479D01*
X27348160Y-27823444D01*
X27353240Y-27850663D01*
X27353466Y-27851655D01*
X27360578Y-27877901D01*
X27360894Y-27878900D01*
X27370038Y-27904172D01*
X27370442Y-27905158D01*
X27381618Y-27929456D01*
X27382105Y-27930406D01*
X27395312Y-27953731D01*
X27395870Y-27954629D01*
X27411111Y-27976980D01*
X27411725Y-27977806D01*
X27428997Y-27999184D01*
X27429650Y-27999931D01*
X27442452Y-28013463D01*
X27280380Y-28294574D01*
X27118308Y-28013463D01*
X27131110Y-27999931D01*
X27131763Y-27999184D01*
X27149035Y-27977806D01*
X27149649Y-27976980D01*
X27164889Y-27954629D01*
X27165447Y-27953732D01*
X27178655Y-27930407D01*
X27179142Y-27929456D01*
X27190318Y-27905158D01*
X27190722Y-27904172D01*
X27199866Y-27878900D01*
X27200182Y-27877900D01*
X27207293Y-27851654D01*
X27207519Y-27850663D01*
X27212600Y-27823444D01*
X27212742Y-27822479D01*
X27215790Y-27794287D01*
X27215856Y-27793364D01*
X27216445Y-27776456D01*
X27344315Y-27776456D01*
X27344904Y-27793364D01*
X27344904Y-27793364D01*
G37*
X27344904Y-27793364D02*
X27344970Y-27794287D01*
X27348018Y-27822479D01*
X27348160Y-27823444D01*
X27353240Y-27850663D01*
X27353466Y-27851655D01*
X27360578Y-27877901D01*
X27360894Y-27878900D01*
X27370038Y-27904172D01*
X27370442Y-27905158D01*
X27381618Y-27929456D01*
X27382105Y-27930406D01*
X27395312Y-27953731D01*
X27395870Y-27954629D01*
X27411111Y-27976980D01*
X27411725Y-27977806D01*
X27428997Y-27999184D01*
X27429650Y-27999931D01*
X27442452Y-28013463D01*
X27280380Y-28294574D01*
X27118308Y-28013463D01*
X27131110Y-27999931D01*
X27131763Y-27999184D01*
X27149035Y-27977806D01*
X27149649Y-27976980D01*
X27164889Y-27954629D01*
X27165447Y-27953732D01*
X27178655Y-27930407D01*
X27179142Y-27929456D01*
X27190318Y-27905158D01*
X27190722Y-27904172D01*
X27199866Y-27878900D01*
X27200182Y-27877900D01*
X27207293Y-27851654D01*
X27207519Y-27850663D01*
X27212600Y-27823444D01*
X27212742Y-27822479D01*
X27215790Y-27794287D01*
X27215856Y-27793364D01*
X27216445Y-27776456D01*
X27344315Y-27776456D01*
X27344904Y-27793364D01*
G36*
X27442452Y-20372538D02*
G01*
X27429651Y-20386068D01*
X27428997Y-20386815D01*
X27411725Y-20408193D01*
X27411111Y-20409019D01*
X27395871Y-20431370D01*
X27395313Y-20432267D01*
X27382105Y-20455592D01*
X27381618Y-20456543D01*
X27370442Y-20480842D01*
X27370038Y-20481828D01*
X27360894Y-20507099D01*
X27360578Y-20508098D01*
X27353465Y-20534344D01*
X27353238Y-20535336D01*
X27348159Y-20562555D01*
X27348018Y-20563520D01*
X27344970Y-20591712D01*
X27344904Y-20592635D01*
X27344315Y-20609544D01*
X27216445Y-20609544D01*
X27215856Y-20592635D01*
X27215790Y-20591712D01*
X27212742Y-20563520D01*
X27212600Y-20562555D01*
X27207520Y-20535336D01*
X27207294Y-20534344D01*
X27200182Y-20508098D01*
X27199866Y-20507099D01*
X27190722Y-20481828D01*
X27190318Y-20480842D01*
X27179142Y-20456543D01*
X27178655Y-20455592D01*
X27165446Y-20432267D01*
X27164888Y-20431371D01*
X27149649Y-20409020D01*
X27149035Y-20408193D01*
X27131763Y-20386815D01*
X27131109Y-20386068D01*
X27118308Y-20372538D01*
X27280380Y-20091426D01*
X27442452Y-20372538D01*
X27442452Y-20372538D01*
G37*
X27442452Y-20372538D02*
X27429651Y-20386068D01*
X27428997Y-20386815D01*
X27411725Y-20408193D01*
X27411111Y-20409019D01*
X27395871Y-20431370D01*
X27395313Y-20432267D01*
X27382105Y-20455592D01*
X27381618Y-20456543D01*
X27370442Y-20480842D01*
X27370038Y-20481828D01*
X27360894Y-20507099D01*
X27360578Y-20508098D01*
X27353465Y-20534344D01*
X27353238Y-20535336D01*
X27348159Y-20562555D01*
X27348018Y-20563520D01*
X27344970Y-20591712D01*
X27344904Y-20592635D01*
X27344315Y-20609544D01*
X27216445Y-20609544D01*
X27215856Y-20592635D01*
X27215790Y-20591712D01*
X27212742Y-20563520D01*
X27212600Y-20562555D01*
X27207520Y-20535336D01*
X27207294Y-20534344D01*
X27200182Y-20508098D01*
X27199866Y-20507099D01*
X27190722Y-20481828D01*
X27190318Y-20480842D01*
X27179142Y-20456543D01*
X27178655Y-20455592D01*
X27165446Y-20432267D01*
X27164888Y-20431371D01*
X27149649Y-20409020D01*
X27149035Y-20408193D01*
X27131763Y-20386815D01*
X27131109Y-20386068D01*
X27118308Y-20372538D01*
X27280380Y-20091426D01*
X27442452Y-20372538D01*
M02*
