M48
; DRILL file {KiCad (5.1.0)-1} date 9/6/2019 9:54:40 AM
; FORMAT={-:-/ absolute / inch / decimal}
; #@! TF.CreationDate,2019-09-06T09:54:40-07:00
; #@! TF.GenerationSoftware,Kicad,Pcbnew,(5.1.0)-1
FMAT,2
INCH
T1C0.0059
%
G90
G05
T1
X1.074Y-1.11
X1.093Y-1.134
X1.112Y-1.11
X1.131Y-1.134
X1.15Y-1.11
X1.169Y-1.134
X1.188Y-1.11
X1.207Y-1.134
X1.226Y-1.11
X1.245Y-1.134
X1.264Y-1.11
X1.283Y-1.134
X1.302Y-1.11
X1.321Y-1.134
X1.3649Y-1.1369
X1.3649Y-1.1749
X1.3649Y-1.2129
X1.3649Y-1.2509
X1.3649Y-1.2889
X1.3649Y-1.3269
X1.3649Y-1.3649
X1.3649Y-1.4029
X1.3649Y-1.4409
X1.3649Y-1.4789
X1.3889Y-1.1179
X1.3889Y-1.1559
X1.3889Y-1.1939
X1.3889Y-1.2319
X1.3889Y-1.2699
X1.3889Y-1.3079
X1.3889Y-1.3459
X1.3889Y-1.3839
X1.3889Y-1.4219
X1.3889Y-1.4599
X0.6766Y-0.607
X0.6766Y-0.645
X0.6766Y-0.683
X0.7006Y-0.626
X0.7006Y-0.664
X1.6012Y-1.1369
X1.6012Y-1.1749
X1.6012Y-1.2129
X1.6012Y-1.2509
X1.6012Y-1.2889
X1.6012Y-1.3269
X1.6012Y-1.3649
X1.6012Y-1.4029
X1.6012Y-1.4409
X1.6012Y-1.4789
X1.6252Y-1.1179
X1.6252Y-1.1559
X1.6252Y-1.1939
X1.6252Y-1.2319
X1.6252Y-1.2699
X1.6252Y-1.3079
X1.6252Y-1.3459
X1.6252Y-1.3839
X1.6252Y-1.4219
X1.6252Y-1.4599
X1.0703Y-0.607
X1.0703Y-0.645
X1.0703Y-0.683
X1.0943Y-0.626
X1.0943Y-0.664
X1.074Y-0.795
X1.093Y-0.819
X1.112Y-0.795
X1.131Y-0.819
X1.15Y-0.795
X1.169Y-0.819
X1.188Y-0.795
X1.207Y-0.819
X1.226Y-0.795
X1.245Y-0.819
X1.264Y-0.795
X1.283Y-0.819
X1.302Y-0.795
X1.321Y-0.819
T0
M30
