G04 #@! TF.GenerationSoftware,KiCad,Pcbnew,(5.1.0)-1*
G04 #@! TF.CreationDate,2019-09-06T09:54:38-07:00*
G04 #@! TF.ProjectId,Miniscope-v4-FlexPC,4d696e69-7363-46f7-9065-2d76342d466c,rev?*
G04 #@! TF.SameCoordinates,Original*
G04 #@! TF.FileFunction,Paste,Top*
G04 #@! TF.FilePolarity,Positive*
%FSLAX46Y46*%
G04 Gerber Fmt 4.6, Leading zero omitted, Abs format (unit mm)*
G04 Created by KiCad (PCBNEW (5.1.0)-1) date 2019-09-06 09:54:38*
%MOMM*%
%LPD*%
G04 APERTURE LIST*
%ADD10C,0.100000*%
%ADD11C,1.150000*%
G04 APERTURE END LIST*
D10*
G36*
X32464105Y-17386004D02*
G01*
X32488373Y-17389604D01*
X32512172Y-17395565D01*
X32535271Y-17403830D01*
X32557450Y-17414320D01*
X32578493Y-17426932D01*
X32598199Y-17441547D01*
X32616377Y-17458023D01*
X32632853Y-17476201D01*
X32647468Y-17495907D01*
X32660080Y-17516950D01*
X32670570Y-17539129D01*
X32678835Y-17562228D01*
X32684796Y-17586027D01*
X32688396Y-17610295D01*
X32689600Y-17634799D01*
X32689600Y-18534801D01*
X32688396Y-18559305D01*
X32684796Y-18583573D01*
X32678835Y-18607372D01*
X32670570Y-18630471D01*
X32660080Y-18652650D01*
X32647468Y-18673693D01*
X32632853Y-18693399D01*
X32616377Y-18711577D01*
X32598199Y-18728053D01*
X32578493Y-18742668D01*
X32557450Y-18755280D01*
X32535271Y-18765770D01*
X32512172Y-18774035D01*
X32488373Y-18779996D01*
X32464105Y-18783596D01*
X32439601Y-18784800D01*
X31789599Y-18784800D01*
X31765095Y-18783596D01*
X31740827Y-18779996D01*
X31717028Y-18774035D01*
X31693929Y-18765770D01*
X31671750Y-18755280D01*
X31650707Y-18742668D01*
X31631001Y-18728053D01*
X31612823Y-18711577D01*
X31596347Y-18693399D01*
X31581732Y-18673693D01*
X31569120Y-18652650D01*
X31558630Y-18630471D01*
X31550365Y-18607372D01*
X31544404Y-18583573D01*
X31540804Y-18559305D01*
X31539600Y-18534801D01*
X31539600Y-17634799D01*
X31540804Y-17610295D01*
X31544404Y-17586027D01*
X31550365Y-17562228D01*
X31558630Y-17539129D01*
X31569120Y-17516950D01*
X31581732Y-17495907D01*
X31596347Y-17476201D01*
X31612823Y-17458023D01*
X31631001Y-17441547D01*
X31650707Y-17426932D01*
X31671750Y-17414320D01*
X31693929Y-17403830D01*
X31717028Y-17395565D01*
X31740827Y-17389604D01*
X31765095Y-17386004D01*
X31789599Y-17384800D01*
X32439601Y-17384800D01*
X32464105Y-17386004D01*
X32464105Y-17386004D01*
G37*
D11*
X32114600Y-18084800D03*
D10*
G36*
X30414105Y-17386004D02*
G01*
X30438373Y-17389604D01*
X30462172Y-17395565D01*
X30485271Y-17403830D01*
X30507450Y-17414320D01*
X30528493Y-17426932D01*
X30548199Y-17441547D01*
X30566377Y-17458023D01*
X30582853Y-17476201D01*
X30597468Y-17495907D01*
X30610080Y-17516950D01*
X30620570Y-17539129D01*
X30628835Y-17562228D01*
X30634796Y-17586027D01*
X30638396Y-17610295D01*
X30639600Y-17634799D01*
X30639600Y-18534801D01*
X30638396Y-18559305D01*
X30634796Y-18583573D01*
X30628835Y-18607372D01*
X30620570Y-18630471D01*
X30610080Y-18652650D01*
X30597468Y-18673693D01*
X30582853Y-18693399D01*
X30566377Y-18711577D01*
X30548199Y-18728053D01*
X30528493Y-18742668D01*
X30507450Y-18755280D01*
X30485271Y-18765770D01*
X30462172Y-18774035D01*
X30438373Y-18779996D01*
X30414105Y-18783596D01*
X30389601Y-18784800D01*
X29739599Y-18784800D01*
X29715095Y-18783596D01*
X29690827Y-18779996D01*
X29667028Y-18774035D01*
X29643929Y-18765770D01*
X29621750Y-18755280D01*
X29600707Y-18742668D01*
X29581001Y-18728053D01*
X29562823Y-18711577D01*
X29546347Y-18693399D01*
X29531732Y-18673693D01*
X29519120Y-18652650D01*
X29508630Y-18630471D01*
X29500365Y-18607372D01*
X29494404Y-18583573D01*
X29490804Y-18559305D01*
X29489600Y-18534801D01*
X29489600Y-17634799D01*
X29490804Y-17610295D01*
X29494404Y-17586027D01*
X29500365Y-17562228D01*
X29508630Y-17539129D01*
X29519120Y-17516950D01*
X29531732Y-17495907D01*
X29546347Y-17476201D01*
X29562823Y-17458023D01*
X29581001Y-17441547D01*
X29600707Y-17426932D01*
X29621750Y-17414320D01*
X29643929Y-17403830D01*
X29667028Y-17395565D01*
X29690827Y-17389604D01*
X29715095Y-17386004D01*
X29739599Y-17384800D01*
X30389601Y-17384800D01*
X30414105Y-17386004D01*
X30414105Y-17386004D01*
G37*
D11*
X30064600Y-18084800D03*
M02*
