G04 #@! TF.GenerationSoftware,KiCad,Pcbnew,(5.1.0)-1*
G04 #@! TF.CreationDate,2019-09-06T09:54:38-07:00*
G04 #@! TF.ProjectId,Miniscope-v4-FlexPC,4d696e69-7363-46f7-9065-2d76342d466c,rev?*
G04 #@! TF.SameCoordinates,Original*
G04 #@! TF.FileFunction,Legend,Top*
G04 #@! TF.FilePolarity,Positive*
%FSLAX46Y46*%
G04 Gerber Fmt 4.6, Leading zero omitted, Abs format (unit mm)*
G04 Created by KiCad (PCBNEW (5.1.0)-1) date 2019-09-06 09:54:38*
%MOMM*%
%LPD*%
G04 APERTURE LIST*
%ADD10C,0.150000*%
%ADD11C,0.120000*%
G04 APERTURE END LIST*
D10*
X36906342Y-32624780D02*
X36715866Y-32624780D01*
X36620628Y-32672400D01*
X36573009Y-32720019D01*
X36477771Y-32862876D01*
X36430152Y-33053352D01*
X36430152Y-33434304D01*
X36477771Y-33529542D01*
X36525390Y-33577161D01*
X36620628Y-33624780D01*
X36811104Y-33624780D01*
X36906342Y-33577161D01*
X36953961Y-33529542D01*
X37001580Y-33434304D01*
X37001580Y-33196209D01*
X36953961Y-33100971D01*
X36906342Y-33053352D01*
X36811104Y-33005733D01*
X36620628Y-33005733D01*
X36525390Y-33053352D01*
X36477771Y-33100971D01*
X36430152Y-33196209D01*
X37430152Y-33624780D02*
X37430152Y-32958114D01*
X37430152Y-33053352D02*
X37477771Y-33005733D01*
X37573009Y-32958114D01*
X37715866Y-32958114D01*
X37811104Y-33005733D01*
X37858723Y-33100971D01*
X37858723Y-33624780D01*
X37858723Y-33100971D02*
X37906342Y-33005733D01*
X38001580Y-32958114D01*
X38144438Y-32958114D01*
X38239676Y-33005733D01*
X38287295Y-33100971D01*
X38287295Y-33624780D01*
X38763485Y-33624780D02*
X38763485Y-32958114D01*
X38763485Y-33053352D02*
X38811104Y-33005733D01*
X38906342Y-32958114D01*
X39049200Y-32958114D01*
X39144438Y-33005733D01*
X39192057Y-33100971D01*
X39192057Y-33624780D01*
X39192057Y-33100971D02*
X39239676Y-33005733D01*
X39334914Y-32958114D01*
X39477771Y-32958114D01*
X39573009Y-33005733D01*
X39620628Y-33100971D01*
X39620628Y-33624780D01*
X28924428Y-24417352D02*
X28829190Y-24369733D01*
X28781571Y-24322114D01*
X28733952Y-24226876D01*
X28733952Y-24179257D01*
X28781571Y-24084019D01*
X28829190Y-24036400D01*
X28924428Y-23988780D01*
X29114904Y-23988780D01*
X29210142Y-24036400D01*
X29257761Y-24084019D01*
X29305380Y-24179257D01*
X29305380Y-24226876D01*
X29257761Y-24322114D01*
X29210142Y-24369733D01*
X29114904Y-24417352D01*
X28924428Y-24417352D01*
X28829190Y-24464971D01*
X28781571Y-24512590D01*
X28733952Y-24607828D01*
X28733952Y-24798304D01*
X28781571Y-24893542D01*
X28829190Y-24941161D01*
X28924428Y-24988780D01*
X29114904Y-24988780D01*
X29210142Y-24941161D01*
X29257761Y-24893542D01*
X29305380Y-24798304D01*
X29305380Y-24607828D01*
X29257761Y-24512590D01*
X29210142Y-24464971D01*
X29114904Y-24417352D01*
X29733952Y-24988780D02*
X29733952Y-24322114D01*
X29733952Y-24417352D02*
X29781571Y-24369733D01*
X29876809Y-24322114D01*
X30019666Y-24322114D01*
X30114904Y-24369733D01*
X30162523Y-24464971D01*
X30162523Y-24988780D01*
X30162523Y-24464971D02*
X30210142Y-24369733D01*
X30305380Y-24322114D01*
X30448238Y-24322114D01*
X30543476Y-24369733D01*
X30591095Y-24464971D01*
X30591095Y-24988780D01*
X31067285Y-24988780D02*
X31067285Y-24322114D01*
X31067285Y-24417352D02*
X31114904Y-24369733D01*
X31210142Y-24322114D01*
X31353000Y-24322114D01*
X31448238Y-24369733D01*
X31495857Y-24464971D01*
X31495857Y-24988780D01*
X31495857Y-24464971D02*
X31543476Y-24369733D01*
X31638714Y-24322114D01*
X31781571Y-24322114D01*
X31876809Y-24369733D01*
X31924428Y-24464971D01*
X31924428Y-24988780D01*
X20853590Y-16784580D02*
X20282161Y-16784580D01*
X20567876Y-16784580D02*
X20567876Y-15784580D01*
X20472638Y-15927438D01*
X20377400Y-16022676D01*
X20282161Y-16070295D01*
X21472638Y-15784580D02*
X21567876Y-15784580D01*
X21663114Y-15832200D01*
X21710733Y-15879819D01*
X21758352Y-15975057D01*
X21805971Y-16165533D01*
X21805971Y-16403628D01*
X21758352Y-16594104D01*
X21710733Y-16689342D01*
X21663114Y-16736961D01*
X21567876Y-16784580D01*
X21472638Y-16784580D01*
X21377400Y-16736961D01*
X21329780Y-16689342D01*
X21282161Y-16594104D01*
X21234542Y-16403628D01*
X21234542Y-16165533D01*
X21282161Y-15975057D01*
X21329780Y-15879819D01*
X21377400Y-15832200D01*
X21472638Y-15784580D01*
X22234542Y-16784580D02*
X22234542Y-16117914D01*
X22234542Y-16213152D02*
X22282161Y-16165533D01*
X22377400Y-16117914D01*
X22520257Y-16117914D01*
X22615495Y-16165533D01*
X22663114Y-16260771D01*
X22663114Y-16784580D01*
X22663114Y-16260771D02*
X22710733Y-16165533D01*
X22805971Y-16117914D01*
X22948828Y-16117914D01*
X23044066Y-16165533D01*
X23091685Y-16260771D01*
X23091685Y-16784580D01*
X23567876Y-16784580D02*
X23567876Y-16117914D01*
X23567876Y-16213152D02*
X23615495Y-16165533D01*
X23710733Y-16117914D01*
X23853590Y-16117914D01*
X23948828Y-16165533D01*
X23996447Y-16260771D01*
X23996447Y-16784580D01*
X23996447Y-16260771D02*
X24044066Y-16165533D01*
X24139304Y-16117914D01*
X24282161Y-16117914D01*
X24377400Y-16165533D01*
X24425019Y-16260771D01*
X24425019Y-16784580D01*
D11*
X30828348Y-18794800D02*
X31350852Y-18794800D01*
X30828348Y-17374800D02*
X31350852Y-17374800D01*
D10*
X30492866Y-15489180D02*
X30159533Y-15012990D01*
X29921438Y-15489180D02*
X29921438Y-14489180D01*
X30302390Y-14489180D01*
X30397628Y-14536800D01*
X30445247Y-14584419D01*
X30492866Y-14679657D01*
X30492866Y-14822514D01*
X30445247Y-14917752D01*
X30397628Y-14965371D01*
X30302390Y-15012990D01*
X29921438Y-15012990D01*
X30921438Y-14965371D02*
X31254771Y-14965371D01*
X31397628Y-15489180D02*
X30921438Y-15489180D01*
X30921438Y-14489180D01*
X31397628Y-14489180D01*
X32159533Y-14965371D02*
X31826200Y-14965371D01*
X31826200Y-15489180D02*
X31826200Y-14489180D01*
X32302390Y-14489180D01*
X32826200Y-14489180D02*
X32826200Y-14727276D01*
X32588104Y-14632038D02*
X32826200Y-14727276D01*
X33064295Y-14632038D01*
X32683342Y-14917752D02*
X32826200Y-14727276D01*
X32969057Y-14917752D01*
X33588104Y-14489180D02*
X33588104Y-14727276D01*
X33350009Y-14632038D02*
X33588104Y-14727276D01*
X33826200Y-14632038D01*
X33445247Y-14917752D02*
X33588104Y-14727276D01*
X33730961Y-14917752D01*
M02*
