G04 #@! TF.GenerationSoftware,KiCad,Pcbnew,(5.1.0)-1*
G04 #@! TF.CreationDate,2019-11-07T09:25:18-08:00*
G04 #@! TF.ProjectId,MS_v4_ETL_LED_Driver_v2,4d535f76-345f-4455-944c-5f4c45445f44,rev?*
G04 #@! TF.SameCoordinates,Original*
G04 #@! TF.FileFunction,Paste,Top*
G04 #@! TF.FilePolarity,Positive*
%FSLAX46Y46*%
G04 Gerber Fmt 4.6, Leading zero omitted, Abs format (unit mm)*
G04 Created by KiCad (PCBNEW (5.1.0)-1) date 2019-11-07 09:25:18*
%MOMM*%
%LPD*%
G04 APERTURE LIST*
%ADD10R,0.220000X0.610000*%
%ADD11R,0.610000X0.220000*%
%ADD12R,2.390000X0.640000*%
%ADD13R,0.270000X0.640000*%
%ADD14R,0.310000X0.340000*%
%ADD15C,0.508000*%
%ADD16C,0.350000*%
%ADD17R,0.340000X0.310000*%
%ADD18R,0.630000X0.580000*%
%ADD19R,0.750000X1.524000*%
G04 APERTURE END LIST*
D10*
X16075000Y-19825000D03*
X15675000Y-19825000D03*
D11*
X15030000Y-19780000D03*
X15030000Y-19380000D03*
X15030000Y-18980000D03*
X15030000Y-18580000D03*
X15030000Y-18180000D03*
D10*
X15675000Y-18135000D03*
X16075000Y-18135000D03*
D11*
X16720000Y-18180000D03*
X16720000Y-18580000D03*
X16720000Y-18980000D03*
X16720000Y-19380000D03*
X16720000Y-19780000D03*
D12*
X15620000Y-15390000D03*
D13*
X16620000Y-16230000D03*
X16120000Y-16230000D03*
X15620000Y-16230000D03*
X15120000Y-16230000D03*
X14620000Y-16230000D03*
X14620000Y-14550000D03*
X15120000Y-14550000D03*
X15620000Y-14550000D03*
X16120000Y-14550000D03*
X16620000Y-14550000D03*
D14*
X14660000Y-17050000D03*
X15210000Y-17050000D03*
D15*
X12796520Y-16537940D03*
D14*
X19980000Y-17050000D03*
X20530000Y-17050000D03*
D16*
X20780000Y-21120000D03*
X20280000Y-21120000D03*
X19780000Y-21120000D03*
X19280000Y-21120000D03*
X18780000Y-21120000D03*
X20780000Y-20620000D03*
X20280000Y-20620000D03*
X19780000Y-20620000D03*
X19280000Y-20620000D03*
X18780000Y-20620000D03*
X20780000Y-20120000D03*
X20280000Y-20120000D03*
X19780000Y-20120000D03*
X19280000Y-20120000D03*
X18780000Y-20120000D03*
D12*
X20910000Y-15390000D03*
D13*
X21910000Y-16230000D03*
X21410000Y-16230000D03*
X20910000Y-16230000D03*
X20410000Y-16230000D03*
X19910000Y-16230000D03*
X19910000Y-14550000D03*
X20410000Y-14550000D03*
X20910000Y-14550000D03*
X21410000Y-14550000D03*
X21910000Y-14550000D03*
D17*
X21280000Y-17540000D03*
X21280000Y-16990000D03*
X21930000Y-17520000D03*
X21930000Y-16970000D03*
X18310000Y-16040000D03*
X18310000Y-16590000D03*
X17660000Y-16040000D03*
X17660000Y-16590000D03*
X15850000Y-21760000D03*
X15850000Y-21210000D03*
X16510000Y-21755000D03*
X16510000Y-21205000D03*
X17130000Y-21755000D03*
X17130000Y-21205000D03*
D15*
X13413486Y-18977894D03*
X12803886Y-18495294D03*
X13413486Y-18012695D03*
X12803886Y-17530095D03*
X13413486Y-17047496D03*
D14*
X15930000Y-22430000D03*
X16480000Y-22430000D03*
D18*
X17800000Y-14995000D03*
X17800000Y-14105000D03*
D19*
X17934200Y-22745400D03*
X18934200Y-22745400D03*
D18*
X18760000Y-14995000D03*
X18760000Y-14105000D03*
D17*
X17620000Y-17970000D03*
X17620000Y-18520000D03*
X14500000Y-21210000D03*
X14500000Y-21760000D03*
X15170000Y-21750000D03*
X15170000Y-21200000D03*
X18870000Y-18510000D03*
X18870000Y-17960000D03*
X18250000Y-17960000D03*
X18250000Y-18510000D03*
M02*
