G04 #@! TF.GenerationSoftware,KiCad,Pcbnew,(5.1.0)-1*
G04 #@! TF.CreationDate,2019-11-07T09:25:18-08:00*
G04 #@! TF.ProjectId,MS_v4_ETL_LED_Driver_v2,4d535f76-345f-4455-944c-5f4c45445f44,rev?*
G04 #@! TF.SameCoordinates,Original*
G04 #@! TF.FileFunction,Legend,Bot*
G04 #@! TF.FilePolarity,Positive*
%FSLAX46Y46*%
G04 Gerber Fmt 4.6, Leading zero omitted, Abs format (unit mm)*
G04 Created by KiCad (PCBNEW (5.1.0)-1) date 2019-11-07 09:25:18*
%MOMM*%
%LPD*%
G04 APERTURE LIST*
%ADD10C,0.150000*%
%ADD11C,0.100000*%
%ADD12C,2.050800*%
%ADD13R,0.500800X1.550800*%
%ADD14R,0.590800X1.110800*%
%ADD15R,0.860800X0.920800*%
%ADD16R,0.680800X0.630800*%
%ADD17R,0.940800X0.970800*%
G04 APERTURE END LIST*
D10*
X16590952Y-15721428D02*
X15829047Y-15721428D01*
X16210000Y-16102380D02*
X16210000Y-15340476D01*
X20910952Y-16231428D02*
X20149047Y-16231428D01*
X20530000Y-16612380D02*
X20530000Y-15850476D01*
X18740952Y-14681428D02*
X17979047Y-14681428D01*
X17640000Y-15545000D02*
G75*
G03X17640000Y-15545000I-20000J0D01*
G01*
D11*
X21600000Y-23420000D02*
X21920000Y-23420000D01*
X22440000Y-20810000D02*
X22180000Y-20810000D01*
X22440000Y-22610000D02*
X22440000Y-20810000D01*
X21080000Y-22610000D02*
X21340000Y-22610000D01*
X21080000Y-20810000D02*
X21080000Y-22610000D01*
X21340000Y-20810000D02*
X21080000Y-20810000D01*
X22180000Y-22610000D02*
X22440000Y-22610000D01*
X19795000Y-21880000D02*
X19545000Y-21880000D01*
X19795000Y-22840000D02*
X19545000Y-22840000D01*
D10*
X18970000Y-16455000D02*
G75*
G03X18970000Y-16455000I-20000J0D01*
G01*
%LPC*%
D12*
X12790000Y-14800000D03*
X23800000Y-14820000D03*
D13*
X17270000Y-15770000D03*
X17970000Y-15770000D03*
D14*
X21760000Y-20680000D03*
X21760000Y-22740000D03*
D15*
X20350000Y-22360000D03*
X18990000Y-22360000D03*
D16*
X17760000Y-22150000D03*
X17760000Y-21260000D03*
D17*
X20350000Y-20850000D03*
X19020000Y-20850000D03*
D13*
X18600000Y-16230000D03*
X19300000Y-16230000D03*
M02*
