G04 #@! TF.GenerationSoftware,KiCad,Pcbnew,(5.1.0)-1*
G04 #@! TF.CreationDate,2019-11-07T09:25:18-08:00*
G04 #@! TF.ProjectId,MS_v4_ETL_LED_Driver_v2,4d535f76-345f-4455-944c-5f4c45445f44,rev?*
G04 #@! TF.SameCoordinates,Original*
G04 #@! TF.FileFunction,Copper,L2,Inr*
G04 #@! TF.FilePolarity,Positive*
%FSLAX46Y46*%
G04 Gerber Fmt 4.6, Leading zero omitted, Abs format (unit mm)*
G04 Created by KiCad (PCBNEW (5.1.0)-1) date 2019-11-07 09:25:18*
%MOMM*%
%LPD*%
G04 APERTURE LIST*
%ADD10C,2.000000*%
%ADD11C,0.450000*%
%ADD12C,0.254000*%
G04 APERTURE END LIST*
D10*
X12790000Y-14800000D03*
X23800000Y-14820000D03*
D11*
X20830000Y-19190000D03*
X22580000Y-22800000D03*
X14800000Y-15390000D03*
X21810000Y-15390000D03*
X21940000Y-18150000D03*
X15590000Y-23080000D03*
X12803886Y-18495294D03*
X18230000Y-17370000D03*
X14290000Y-19860000D03*
X17480000Y-19370000D03*
X19680000Y-17640000D03*
X15030000Y-17690000D03*
X16630000Y-16960000D03*
X16480000Y-23090000D03*
X22490000Y-16950000D03*
X13413486Y-18977894D03*
X19780000Y-19540000D03*
X15460000Y-20580000D03*
X14500000Y-22360000D03*
X19459581Y-18211257D03*
X15658903Y-13890000D03*
X18090000Y-20560000D03*
X12803886Y-17530095D03*
X15890000Y-18830000D03*
X13413486Y-18012695D03*
X17520000Y-20100000D03*
X22030000Y-13880000D03*
X21290000Y-18140000D03*
X19510000Y-13890000D03*
X21470000Y-13880000D03*
X20920000Y-13880000D03*
X20330000Y-13880000D03*
X12796520Y-16537940D03*
X13413486Y-17047496D03*
X15120000Y-13890000D03*
D12*
G36*
X14537288Y-13713236D02*
G01*
X14514000Y-13830314D01*
X14514000Y-13949686D01*
X14537288Y-14066764D01*
X14582970Y-14177049D01*
X14649289Y-14276302D01*
X14733698Y-14360711D01*
X14832951Y-14427030D01*
X14943236Y-14472712D01*
X15060314Y-14496000D01*
X15179686Y-14496000D01*
X15296764Y-14472712D01*
X15389452Y-14434319D01*
X15482139Y-14472712D01*
X15599217Y-14496000D01*
X15718589Y-14496000D01*
X15835667Y-14472712D01*
X15945952Y-14427030D01*
X16045205Y-14360711D01*
X16129614Y-14276302D01*
X16195933Y-14177049D01*
X16241615Y-14066764D01*
X16264903Y-13949686D01*
X16264903Y-13830314D01*
X16241615Y-13713236D01*
X16232239Y-13690600D01*
X18936664Y-13690600D01*
X18927288Y-13713236D01*
X18904000Y-13830314D01*
X18904000Y-13949686D01*
X18927288Y-14066764D01*
X18972970Y-14177049D01*
X19039289Y-14276302D01*
X19123698Y-14360711D01*
X19222951Y-14427030D01*
X19333236Y-14472712D01*
X19450314Y-14496000D01*
X19569686Y-14496000D01*
X19686764Y-14472712D01*
X19797049Y-14427030D01*
X19896302Y-14360711D01*
X19925000Y-14332013D01*
X19943698Y-14350711D01*
X20042951Y-14417030D01*
X20153236Y-14462712D01*
X20270314Y-14486000D01*
X20389686Y-14486000D01*
X20506764Y-14462712D01*
X20617049Y-14417030D01*
X20625000Y-14411717D01*
X20632951Y-14417030D01*
X20743236Y-14462712D01*
X20860314Y-14486000D01*
X20979686Y-14486000D01*
X21096764Y-14462712D01*
X21195000Y-14422021D01*
X21293236Y-14462712D01*
X21410314Y-14486000D01*
X21529686Y-14486000D01*
X21646764Y-14462712D01*
X21750000Y-14419950D01*
X21853236Y-14462712D01*
X21970314Y-14486000D01*
X22089686Y-14486000D01*
X22206764Y-14462712D01*
X22317049Y-14417030D01*
X22416302Y-14350711D01*
X22500711Y-14266302D01*
X22567030Y-14167049D01*
X22612712Y-14056764D01*
X22636000Y-13939686D01*
X22636000Y-13820314D01*
X22612712Y-13703236D01*
X22607478Y-13690600D01*
X22833000Y-13690600D01*
X22833000Y-13833971D01*
X22727307Y-13939664D01*
X22576174Y-14165851D01*
X22472071Y-14417177D01*
X22419000Y-14683983D01*
X22419000Y-14956017D01*
X22472071Y-15222823D01*
X22576174Y-15474149D01*
X22727307Y-15700336D01*
X22833000Y-15806029D01*
X22833000Y-22248866D01*
X22756764Y-22217288D01*
X22639686Y-22194000D01*
X22520314Y-22194000D01*
X22403236Y-22217288D01*
X22292951Y-22262970D01*
X22193698Y-22329289D01*
X22109289Y-22413698D01*
X22042970Y-22512951D01*
X21997288Y-22623236D01*
X21974000Y-22740314D01*
X21974000Y-22859686D01*
X21997288Y-22976764D01*
X22042970Y-23087049D01*
X22109289Y-23186302D01*
X22193698Y-23270711D01*
X22292951Y-23337030D01*
X22382277Y-23374030D01*
X16120631Y-23376625D01*
X16127030Y-23367049D01*
X16172712Y-23256764D01*
X16196000Y-23139686D01*
X16196000Y-23020314D01*
X16172712Y-22903236D01*
X16127030Y-22792951D01*
X16060711Y-22693698D01*
X15976302Y-22609289D01*
X15877049Y-22542970D01*
X15766764Y-22497288D01*
X15649686Y-22474000D01*
X15530314Y-22474000D01*
X15413236Y-22497288D01*
X15302951Y-22542970D01*
X15203698Y-22609289D01*
X15119289Y-22693698D01*
X15052970Y-22792951D01*
X15007288Y-22903236D01*
X14984000Y-23020314D01*
X14984000Y-23139686D01*
X15007288Y-23256764D01*
X15052970Y-23367049D01*
X15059662Y-23377065D01*
X13690600Y-23377632D01*
X13690600Y-19952867D01*
X13707288Y-20036764D01*
X13752970Y-20147049D01*
X13819289Y-20246302D01*
X13903698Y-20330711D01*
X14002951Y-20397030D01*
X14113236Y-20442712D01*
X14230314Y-20466000D01*
X14349686Y-20466000D01*
X14466764Y-20442712D01*
X14577049Y-20397030D01*
X14676302Y-20330711D01*
X14760711Y-20246302D01*
X14827030Y-20147049D01*
X14872712Y-20036764D01*
X14896000Y-19919686D01*
X14896000Y-19800314D01*
X14872712Y-19683236D01*
X14827030Y-19572951D01*
X14760711Y-19473698D01*
X14676302Y-19389289D01*
X14577049Y-19322970D01*
X14466764Y-19277288D01*
X14349686Y-19254000D01*
X14230314Y-19254000D01*
X14113236Y-19277288D01*
X14002951Y-19322970D01*
X13903698Y-19389289D01*
X13819289Y-19473698D01*
X13752970Y-19572951D01*
X13707288Y-19683236D01*
X13690790Y-19766178D01*
X13690600Y-19764247D01*
X13690600Y-19764240D01*
X13684719Y-19704532D01*
X13661481Y-19627925D01*
X13623744Y-19557324D01*
X13590887Y-19517288D01*
X13585682Y-19510945D01*
X13585677Y-19510940D01*
X13577440Y-19500903D01*
X13581038Y-18770314D01*
X15284000Y-18770314D01*
X15284000Y-18889686D01*
X15307288Y-19006764D01*
X15352970Y-19117049D01*
X15419289Y-19216302D01*
X15503698Y-19300711D01*
X15602951Y-19367030D01*
X15713236Y-19412712D01*
X15830314Y-19436000D01*
X15949686Y-19436000D01*
X16066764Y-19412712D01*
X16177049Y-19367030D01*
X16261930Y-19310314D01*
X16874000Y-19310314D01*
X16874000Y-19429686D01*
X16897288Y-19546764D01*
X16942970Y-19657049D01*
X17009289Y-19756302D01*
X17016202Y-19763215D01*
X16982970Y-19812951D01*
X16937288Y-19923236D01*
X16914000Y-20040314D01*
X16914000Y-20159686D01*
X16937288Y-20276764D01*
X16982970Y-20387049D01*
X17049289Y-20486302D01*
X17133698Y-20570711D01*
X17232951Y-20637030D01*
X17343236Y-20682712D01*
X17460314Y-20706000D01*
X17501169Y-20706000D01*
X17507288Y-20736764D01*
X17552970Y-20847049D01*
X17619289Y-20946302D01*
X17703698Y-21030711D01*
X17802951Y-21097030D01*
X17913236Y-21142712D01*
X18030314Y-21166000D01*
X18149686Y-21166000D01*
X18266764Y-21142712D01*
X18377049Y-21097030D01*
X18476302Y-21030711D01*
X18560711Y-20946302D01*
X18627030Y-20847049D01*
X18672712Y-20736764D01*
X18696000Y-20619686D01*
X18696000Y-20500314D01*
X18672712Y-20383236D01*
X18627030Y-20272951D01*
X18560711Y-20173698D01*
X18476302Y-20089289D01*
X18377049Y-20022970D01*
X18266764Y-19977288D01*
X18149686Y-19954000D01*
X18108831Y-19954000D01*
X18102712Y-19923236D01*
X18057030Y-19812951D01*
X17990711Y-19713698D01*
X17983798Y-19706785D01*
X18017030Y-19657049D01*
X18062712Y-19546764D01*
X18086000Y-19429686D01*
X18086000Y-19310314D01*
X18062712Y-19193236D01*
X18036649Y-19130314D01*
X20224000Y-19130314D01*
X20224000Y-19249686D01*
X20247288Y-19366764D01*
X20292970Y-19477049D01*
X20359289Y-19576302D01*
X20443698Y-19660711D01*
X20542951Y-19727030D01*
X20653236Y-19772712D01*
X20770314Y-19796000D01*
X20889686Y-19796000D01*
X21006764Y-19772712D01*
X21117049Y-19727030D01*
X21216302Y-19660711D01*
X21300711Y-19576302D01*
X21367030Y-19477049D01*
X21412712Y-19366764D01*
X21436000Y-19249686D01*
X21436000Y-19130314D01*
X21412712Y-19013236D01*
X21367030Y-18902951D01*
X21300711Y-18803698D01*
X21243013Y-18746000D01*
X21349686Y-18746000D01*
X21466764Y-18722712D01*
X21577049Y-18677030D01*
X21607517Y-18656672D01*
X21652951Y-18687030D01*
X21763236Y-18732712D01*
X21880314Y-18756000D01*
X21999686Y-18756000D01*
X22116764Y-18732712D01*
X22227049Y-18687030D01*
X22326302Y-18620711D01*
X22410711Y-18536302D01*
X22477030Y-18437049D01*
X22522712Y-18326764D01*
X22546000Y-18209686D01*
X22546000Y-18090314D01*
X22522712Y-17973236D01*
X22477030Y-17862951D01*
X22410711Y-17763698D01*
X22326302Y-17679289D01*
X22227049Y-17612970D01*
X22116764Y-17567288D01*
X21999686Y-17544000D01*
X21880314Y-17544000D01*
X21763236Y-17567288D01*
X21652951Y-17612970D01*
X21622483Y-17633328D01*
X21577049Y-17602970D01*
X21466764Y-17557288D01*
X21349686Y-17534000D01*
X21230314Y-17534000D01*
X21113236Y-17557288D01*
X21002951Y-17602970D01*
X20903698Y-17669289D01*
X20819289Y-17753698D01*
X20752970Y-17852951D01*
X20707288Y-17963236D01*
X20684000Y-18080314D01*
X20684000Y-18199686D01*
X20707288Y-18316764D01*
X20752970Y-18427049D01*
X20819289Y-18526302D01*
X20876987Y-18584000D01*
X20770314Y-18584000D01*
X20653236Y-18607288D01*
X20542951Y-18652970D01*
X20443698Y-18719289D01*
X20359289Y-18803698D01*
X20292970Y-18902951D01*
X20247288Y-19013236D01*
X20224000Y-19130314D01*
X18036649Y-19130314D01*
X18017030Y-19082951D01*
X17950711Y-18983698D01*
X17866302Y-18899289D01*
X17767049Y-18832970D01*
X17656764Y-18787288D01*
X17539686Y-18764000D01*
X17420314Y-18764000D01*
X17303236Y-18787288D01*
X17192951Y-18832970D01*
X17093698Y-18899289D01*
X17009289Y-18983698D01*
X16942970Y-19082951D01*
X16897288Y-19193236D01*
X16874000Y-19310314D01*
X16261930Y-19310314D01*
X16276302Y-19300711D01*
X16360711Y-19216302D01*
X16427030Y-19117049D01*
X16472712Y-19006764D01*
X16496000Y-18889686D01*
X16496000Y-18770314D01*
X16472712Y-18653236D01*
X16427030Y-18542951D01*
X16360711Y-18443698D01*
X16276302Y-18359289D01*
X16177049Y-18292970D01*
X16066764Y-18247288D01*
X15949686Y-18224000D01*
X15830314Y-18224000D01*
X15713236Y-18247288D01*
X15602951Y-18292970D01*
X15503698Y-18359289D01*
X15419289Y-18443698D01*
X15352970Y-18542951D01*
X15307288Y-18653236D01*
X15284000Y-18770314D01*
X13581038Y-18770314D01*
X13581892Y-18597069D01*
X13590250Y-18595407D01*
X13700535Y-18549725D01*
X13799788Y-18483406D01*
X13884197Y-18398997D01*
X13950516Y-18299744D01*
X13996198Y-18189459D01*
X14019486Y-18072381D01*
X14019486Y-17953009D01*
X13996198Y-17835931D01*
X13950516Y-17725646D01*
X13886817Y-17630314D01*
X14424000Y-17630314D01*
X14424000Y-17749686D01*
X14447288Y-17866764D01*
X14492970Y-17977049D01*
X14559289Y-18076302D01*
X14643698Y-18160711D01*
X14742951Y-18227030D01*
X14853236Y-18272712D01*
X14970314Y-18296000D01*
X15089686Y-18296000D01*
X15206764Y-18272712D01*
X15317049Y-18227030D01*
X15416302Y-18160711D01*
X15500711Y-18076302D01*
X15567030Y-17977049D01*
X15612712Y-17866764D01*
X15636000Y-17749686D01*
X15636000Y-17630314D01*
X15612712Y-17513236D01*
X15567030Y-17402951D01*
X15505132Y-17310314D01*
X17624000Y-17310314D01*
X17624000Y-17429686D01*
X17647288Y-17546764D01*
X17692970Y-17657049D01*
X17759289Y-17756302D01*
X17843698Y-17840711D01*
X17942951Y-17907030D01*
X18053236Y-17952712D01*
X18170314Y-17976000D01*
X18289686Y-17976000D01*
X18406764Y-17952712D01*
X18517049Y-17907030D01*
X18616302Y-17840711D01*
X18700711Y-17756302D01*
X18767030Y-17657049D01*
X18798814Y-17580314D01*
X19074000Y-17580314D01*
X19074000Y-17699686D01*
X19097288Y-17816764D01*
X19142970Y-17927049D01*
X19209289Y-18026302D01*
X19293698Y-18110711D01*
X19392951Y-18177030D01*
X19503236Y-18222712D01*
X19620314Y-18246000D01*
X19739686Y-18246000D01*
X19856764Y-18222712D01*
X19967049Y-18177030D01*
X20066302Y-18110711D01*
X20150711Y-18026302D01*
X20217030Y-17927049D01*
X20262712Y-17816764D01*
X20286000Y-17699686D01*
X20286000Y-17580314D01*
X20262712Y-17463236D01*
X20217030Y-17352951D01*
X20150711Y-17253698D01*
X20066302Y-17169289D01*
X19967049Y-17102970D01*
X19856764Y-17057288D01*
X19739686Y-17034000D01*
X19620314Y-17034000D01*
X19503236Y-17057288D01*
X19392951Y-17102970D01*
X19293698Y-17169289D01*
X19209289Y-17253698D01*
X19142970Y-17352951D01*
X19097288Y-17463236D01*
X19074000Y-17580314D01*
X18798814Y-17580314D01*
X18812712Y-17546764D01*
X18836000Y-17429686D01*
X18836000Y-17310314D01*
X18812712Y-17193236D01*
X18767030Y-17082951D01*
X18700711Y-16983698D01*
X18616302Y-16899289D01*
X18517049Y-16832970D01*
X18406764Y-16787288D01*
X18289686Y-16764000D01*
X18170314Y-16764000D01*
X18053236Y-16787288D01*
X17942951Y-16832970D01*
X17843698Y-16899289D01*
X17759289Y-16983698D01*
X17692970Y-17082951D01*
X17647288Y-17193236D01*
X17624000Y-17310314D01*
X15505132Y-17310314D01*
X15500711Y-17303698D01*
X15416302Y-17219289D01*
X15317049Y-17152970D01*
X15206764Y-17107288D01*
X15089686Y-17084000D01*
X14970314Y-17084000D01*
X14853236Y-17107288D01*
X14742951Y-17152970D01*
X14643698Y-17219289D01*
X14559289Y-17303698D01*
X14492970Y-17402951D01*
X14447288Y-17513236D01*
X14424000Y-17630314D01*
X13886817Y-17630314D01*
X13884197Y-17626393D01*
X13799788Y-17541984D01*
X13781996Y-17530096D01*
X13799788Y-17518207D01*
X13884197Y-17433798D01*
X13950516Y-17334545D01*
X13996198Y-17224260D01*
X14019486Y-17107182D01*
X14019486Y-16987810D01*
X13996198Y-16870732D01*
X13950516Y-16760447D01*
X13884197Y-16661194D01*
X13799788Y-16576785D01*
X13700535Y-16510466D01*
X13592392Y-16465671D01*
X13595065Y-15922987D01*
X13670336Y-15872693D01*
X13862693Y-15680336D01*
X14013826Y-15454149D01*
X14065120Y-15330314D01*
X14194000Y-15330314D01*
X14194000Y-15449686D01*
X14217288Y-15566764D01*
X14262970Y-15677049D01*
X14329289Y-15776302D01*
X14413698Y-15860711D01*
X14512951Y-15927030D01*
X14623236Y-15972712D01*
X14740314Y-15996000D01*
X14859686Y-15996000D01*
X14976764Y-15972712D01*
X15087049Y-15927030D01*
X15186302Y-15860711D01*
X15270711Y-15776302D01*
X15337030Y-15677049D01*
X15382712Y-15566764D01*
X15406000Y-15449686D01*
X15406000Y-15330314D01*
X21204000Y-15330314D01*
X21204000Y-15449686D01*
X21227288Y-15566764D01*
X21272970Y-15677049D01*
X21339289Y-15776302D01*
X21423698Y-15860711D01*
X21522951Y-15927030D01*
X21633236Y-15972712D01*
X21750314Y-15996000D01*
X21869686Y-15996000D01*
X21986764Y-15972712D01*
X22097049Y-15927030D01*
X22196302Y-15860711D01*
X22280711Y-15776302D01*
X22347030Y-15677049D01*
X22392712Y-15566764D01*
X22416000Y-15449686D01*
X22416000Y-15330314D01*
X22392712Y-15213236D01*
X22347030Y-15102951D01*
X22280711Y-15003698D01*
X22196302Y-14919289D01*
X22097049Y-14852970D01*
X21986764Y-14807288D01*
X21869686Y-14784000D01*
X21750314Y-14784000D01*
X21633236Y-14807288D01*
X21522951Y-14852970D01*
X21423698Y-14919289D01*
X21339289Y-15003698D01*
X21272970Y-15102951D01*
X21227288Y-15213236D01*
X21204000Y-15330314D01*
X15406000Y-15330314D01*
X15382712Y-15213236D01*
X15337030Y-15102951D01*
X15270711Y-15003698D01*
X15186302Y-14919289D01*
X15087049Y-14852970D01*
X14976764Y-14807288D01*
X14859686Y-14784000D01*
X14740314Y-14784000D01*
X14623236Y-14807288D01*
X14512951Y-14852970D01*
X14413698Y-14919289D01*
X14329289Y-15003698D01*
X14262970Y-15102951D01*
X14217288Y-15213236D01*
X14194000Y-15330314D01*
X14065120Y-15330314D01*
X14117929Y-15202823D01*
X14171000Y-14936017D01*
X14171000Y-14663983D01*
X14117929Y-14397177D01*
X14013826Y-14145851D01*
X13862693Y-13919664D01*
X13670336Y-13727307D01*
X13615400Y-13690600D01*
X14546664Y-13690600D01*
X14537288Y-13713236D01*
X14537288Y-13713236D01*
G37*
X14537288Y-13713236D02*
X14514000Y-13830314D01*
X14514000Y-13949686D01*
X14537288Y-14066764D01*
X14582970Y-14177049D01*
X14649289Y-14276302D01*
X14733698Y-14360711D01*
X14832951Y-14427030D01*
X14943236Y-14472712D01*
X15060314Y-14496000D01*
X15179686Y-14496000D01*
X15296764Y-14472712D01*
X15389452Y-14434319D01*
X15482139Y-14472712D01*
X15599217Y-14496000D01*
X15718589Y-14496000D01*
X15835667Y-14472712D01*
X15945952Y-14427030D01*
X16045205Y-14360711D01*
X16129614Y-14276302D01*
X16195933Y-14177049D01*
X16241615Y-14066764D01*
X16264903Y-13949686D01*
X16264903Y-13830314D01*
X16241615Y-13713236D01*
X16232239Y-13690600D01*
X18936664Y-13690600D01*
X18927288Y-13713236D01*
X18904000Y-13830314D01*
X18904000Y-13949686D01*
X18927288Y-14066764D01*
X18972970Y-14177049D01*
X19039289Y-14276302D01*
X19123698Y-14360711D01*
X19222951Y-14427030D01*
X19333236Y-14472712D01*
X19450314Y-14496000D01*
X19569686Y-14496000D01*
X19686764Y-14472712D01*
X19797049Y-14427030D01*
X19896302Y-14360711D01*
X19925000Y-14332013D01*
X19943698Y-14350711D01*
X20042951Y-14417030D01*
X20153236Y-14462712D01*
X20270314Y-14486000D01*
X20389686Y-14486000D01*
X20506764Y-14462712D01*
X20617049Y-14417030D01*
X20625000Y-14411717D01*
X20632951Y-14417030D01*
X20743236Y-14462712D01*
X20860314Y-14486000D01*
X20979686Y-14486000D01*
X21096764Y-14462712D01*
X21195000Y-14422021D01*
X21293236Y-14462712D01*
X21410314Y-14486000D01*
X21529686Y-14486000D01*
X21646764Y-14462712D01*
X21750000Y-14419950D01*
X21853236Y-14462712D01*
X21970314Y-14486000D01*
X22089686Y-14486000D01*
X22206764Y-14462712D01*
X22317049Y-14417030D01*
X22416302Y-14350711D01*
X22500711Y-14266302D01*
X22567030Y-14167049D01*
X22612712Y-14056764D01*
X22636000Y-13939686D01*
X22636000Y-13820314D01*
X22612712Y-13703236D01*
X22607478Y-13690600D01*
X22833000Y-13690600D01*
X22833000Y-13833971D01*
X22727307Y-13939664D01*
X22576174Y-14165851D01*
X22472071Y-14417177D01*
X22419000Y-14683983D01*
X22419000Y-14956017D01*
X22472071Y-15222823D01*
X22576174Y-15474149D01*
X22727307Y-15700336D01*
X22833000Y-15806029D01*
X22833000Y-22248866D01*
X22756764Y-22217288D01*
X22639686Y-22194000D01*
X22520314Y-22194000D01*
X22403236Y-22217288D01*
X22292951Y-22262970D01*
X22193698Y-22329289D01*
X22109289Y-22413698D01*
X22042970Y-22512951D01*
X21997288Y-22623236D01*
X21974000Y-22740314D01*
X21974000Y-22859686D01*
X21997288Y-22976764D01*
X22042970Y-23087049D01*
X22109289Y-23186302D01*
X22193698Y-23270711D01*
X22292951Y-23337030D01*
X22382277Y-23374030D01*
X16120631Y-23376625D01*
X16127030Y-23367049D01*
X16172712Y-23256764D01*
X16196000Y-23139686D01*
X16196000Y-23020314D01*
X16172712Y-22903236D01*
X16127030Y-22792951D01*
X16060711Y-22693698D01*
X15976302Y-22609289D01*
X15877049Y-22542970D01*
X15766764Y-22497288D01*
X15649686Y-22474000D01*
X15530314Y-22474000D01*
X15413236Y-22497288D01*
X15302951Y-22542970D01*
X15203698Y-22609289D01*
X15119289Y-22693698D01*
X15052970Y-22792951D01*
X15007288Y-22903236D01*
X14984000Y-23020314D01*
X14984000Y-23139686D01*
X15007288Y-23256764D01*
X15052970Y-23367049D01*
X15059662Y-23377065D01*
X13690600Y-23377632D01*
X13690600Y-19952867D01*
X13707288Y-20036764D01*
X13752970Y-20147049D01*
X13819289Y-20246302D01*
X13903698Y-20330711D01*
X14002951Y-20397030D01*
X14113236Y-20442712D01*
X14230314Y-20466000D01*
X14349686Y-20466000D01*
X14466764Y-20442712D01*
X14577049Y-20397030D01*
X14676302Y-20330711D01*
X14760711Y-20246302D01*
X14827030Y-20147049D01*
X14872712Y-20036764D01*
X14896000Y-19919686D01*
X14896000Y-19800314D01*
X14872712Y-19683236D01*
X14827030Y-19572951D01*
X14760711Y-19473698D01*
X14676302Y-19389289D01*
X14577049Y-19322970D01*
X14466764Y-19277288D01*
X14349686Y-19254000D01*
X14230314Y-19254000D01*
X14113236Y-19277288D01*
X14002951Y-19322970D01*
X13903698Y-19389289D01*
X13819289Y-19473698D01*
X13752970Y-19572951D01*
X13707288Y-19683236D01*
X13690790Y-19766178D01*
X13690600Y-19764247D01*
X13690600Y-19764240D01*
X13684719Y-19704532D01*
X13661481Y-19627925D01*
X13623744Y-19557324D01*
X13590887Y-19517288D01*
X13585682Y-19510945D01*
X13585677Y-19510940D01*
X13577440Y-19500903D01*
X13581038Y-18770314D01*
X15284000Y-18770314D01*
X15284000Y-18889686D01*
X15307288Y-19006764D01*
X15352970Y-19117049D01*
X15419289Y-19216302D01*
X15503698Y-19300711D01*
X15602951Y-19367030D01*
X15713236Y-19412712D01*
X15830314Y-19436000D01*
X15949686Y-19436000D01*
X16066764Y-19412712D01*
X16177049Y-19367030D01*
X16261930Y-19310314D01*
X16874000Y-19310314D01*
X16874000Y-19429686D01*
X16897288Y-19546764D01*
X16942970Y-19657049D01*
X17009289Y-19756302D01*
X17016202Y-19763215D01*
X16982970Y-19812951D01*
X16937288Y-19923236D01*
X16914000Y-20040314D01*
X16914000Y-20159686D01*
X16937288Y-20276764D01*
X16982970Y-20387049D01*
X17049289Y-20486302D01*
X17133698Y-20570711D01*
X17232951Y-20637030D01*
X17343236Y-20682712D01*
X17460314Y-20706000D01*
X17501169Y-20706000D01*
X17507288Y-20736764D01*
X17552970Y-20847049D01*
X17619289Y-20946302D01*
X17703698Y-21030711D01*
X17802951Y-21097030D01*
X17913236Y-21142712D01*
X18030314Y-21166000D01*
X18149686Y-21166000D01*
X18266764Y-21142712D01*
X18377049Y-21097030D01*
X18476302Y-21030711D01*
X18560711Y-20946302D01*
X18627030Y-20847049D01*
X18672712Y-20736764D01*
X18696000Y-20619686D01*
X18696000Y-20500314D01*
X18672712Y-20383236D01*
X18627030Y-20272951D01*
X18560711Y-20173698D01*
X18476302Y-20089289D01*
X18377049Y-20022970D01*
X18266764Y-19977288D01*
X18149686Y-19954000D01*
X18108831Y-19954000D01*
X18102712Y-19923236D01*
X18057030Y-19812951D01*
X17990711Y-19713698D01*
X17983798Y-19706785D01*
X18017030Y-19657049D01*
X18062712Y-19546764D01*
X18086000Y-19429686D01*
X18086000Y-19310314D01*
X18062712Y-19193236D01*
X18036649Y-19130314D01*
X20224000Y-19130314D01*
X20224000Y-19249686D01*
X20247288Y-19366764D01*
X20292970Y-19477049D01*
X20359289Y-19576302D01*
X20443698Y-19660711D01*
X20542951Y-19727030D01*
X20653236Y-19772712D01*
X20770314Y-19796000D01*
X20889686Y-19796000D01*
X21006764Y-19772712D01*
X21117049Y-19727030D01*
X21216302Y-19660711D01*
X21300711Y-19576302D01*
X21367030Y-19477049D01*
X21412712Y-19366764D01*
X21436000Y-19249686D01*
X21436000Y-19130314D01*
X21412712Y-19013236D01*
X21367030Y-18902951D01*
X21300711Y-18803698D01*
X21243013Y-18746000D01*
X21349686Y-18746000D01*
X21466764Y-18722712D01*
X21577049Y-18677030D01*
X21607517Y-18656672D01*
X21652951Y-18687030D01*
X21763236Y-18732712D01*
X21880314Y-18756000D01*
X21999686Y-18756000D01*
X22116764Y-18732712D01*
X22227049Y-18687030D01*
X22326302Y-18620711D01*
X22410711Y-18536302D01*
X22477030Y-18437049D01*
X22522712Y-18326764D01*
X22546000Y-18209686D01*
X22546000Y-18090314D01*
X22522712Y-17973236D01*
X22477030Y-17862951D01*
X22410711Y-17763698D01*
X22326302Y-17679289D01*
X22227049Y-17612970D01*
X22116764Y-17567288D01*
X21999686Y-17544000D01*
X21880314Y-17544000D01*
X21763236Y-17567288D01*
X21652951Y-17612970D01*
X21622483Y-17633328D01*
X21577049Y-17602970D01*
X21466764Y-17557288D01*
X21349686Y-17534000D01*
X21230314Y-17534000D01*
X21113236Y-17557288D01*
X21002951Y-17602970D01*
X20903698Y-17669289D01*
X20819289Y-17753698D01*
X20752970Y-17852951D01*
X20707288Y-17963236D01*
X20684000Y-18080314D01*
X20684000Y-18199686D01*
X20707288Y-18316764D01*
X20752970Y-18427049D01*
X20819289Y-18526302D01*
X20876987Y-18584000D01*
X20770314Y-18584000D01*
X20653236Y-18607288D01*
X20542951Y-18652970D01*
X20443698Y-18719289D01*
X20359289Y-18803698D01*
X20292970Y-18902951D01*
X20247288Y-19013236D01*
X20224000Y-19130314D01*
X18036649Y-19130314D01*
X18017030Y-19082951D01*
X17950711Y-18983698D01*
X17866302Y-18899289D01*
X17767049Y-18832970D01*
X17656764Y-18787288D01*
X17539686Y-18764000D01*
X17420314Y-18764000D01*
X17303236Y-18787288D01*
X17192951Y-18832970D01*
X17093698Y-18899289D01*
X17009289Y-18983698D01*
X16942970Y-19082951D01*
X16897288Y-19193236D01*
X16874000Y-19310314D01*
X16261930Y-19310314D01*
X16276302Y-19300711D01*
X16360711Y-19216302D01*
X16427030Y-19117049D01*
X16472712Y-19006764D01*
X16496000Y-18889686D01*
X16496000Y-18770314D01*
X16472712Y-18653236D01*
X16427030Y-18542951D01*
X16360711Y-18443698D01*
X16276302Y-18359289D01*
X16177049Y-18292970D01*
X16066764Y-18247288D01*
X15949686Y-18224000D01*
X15830314Y-18224000D01*
X15713236Y-18247288D01*
X15602951Y-18292970D01*
X15503698Y-18359289D01*
X15419289Y-18443698D01*
X15352970Y-18542951D01*
X15307288Y-18653236D01*
X15284000Y-18770314D01*
X13581038Y-18770314D01*
X13581892Y-18597069D01*
X13590250Y-18595407D01*
X13700535Y-18549725D01*
X13799788Y-18483406D01*
X13884197Y-18398997D01*
X13950516Y-18299744D01*
X13996198Y-18189459D01*
X14019486Y-18072381D01*
X14019486Y-17953009D01*
X13996198Y-17835931D01*
X13950516Y-17725646D01*
X13886817Y-17630314D01*
X14424000Y-17630314D01*
X14424000Y-17749686D01*
X14447288Y-17866764D01*
X14492970Y-17977049D01*
X14559289Y-18076302D01*
X14643698Y-18160711D01*
X14742951Y-18227030D01*
X14853236Y-18272712D01*
X14970314Y-18296000D01*
X15089686Y-18296000D01*
X15206764Y-18272712D01*
X15317049Y-18227030D01*
X15416302Y-18160711D01*
X15500711Y-18076302D01*
X15567030Y-17977049D01*
X15612712Y-17866764D01*
X15636000Y-17749686D01*
X15636000Y-17630314D01*
X15612712Y-17513236D01*
X15567030Y-17402951D01*
X15505132Y-17310314D01*
X17624000Y-17310314D01*
X17624000Y-17429686D01*
X17647288Y-17546764D01*
X17692970Y-17657049D01*
X17759289Y-17756302D01*
X17843698Y-17840711D01*
X17942951Y-17907030D01*
X18053236Y-17952712D01*
X18170314Y-17976000D01*
X18289686Y-17976000D01*
X18406764Y-17952712D01*
X18517049Y-17907030D01*
X18616302Y-17840711D01*
X18700711Y-17756302D01*
X18767030Y-17657049D01*
X18798814Y-17580314D01*
X19074000Y-17580314D01*
X19074000Y-17699686D01*
X19097288Y-17816764D01*
X19142970Y-17927049D01*
X19209289Y-18026302D01*
X19293698Y-18110711D01*
X19392951Y-18177030D01*
X19503236Y-18222712D01*
X19620314Y-18246000D01*
X19739686Y-18246000D01*
X19856764Y-18222712D01*
X19967049Y-18177030D01*
X20066302Y-18110711D01*
X20150711Y-18026302D01*
X20217030Y-17927049D01*
X20262712Y-17816764D01*
X20286000Y-17699686D01*
X20286000Y-17580314D01*
X20262712Y-17463236D01*
X20217030Y-17352951D01*
X20150711Y-17253698D01*
X20066302Y-17169289D01*
X19967049Y-17102970D01*
X19856764Y-17057288D01*
X19739686Y-17034000D01*
X19620314Y-17034000D01*
X19503236Y-17057288D01*
X19392951Y-17102970D01*
X19293698Y-17169289D01*
X19209289Y-17253698D01*
X19142970Y-17352951D01*
X19097288Y-17463236D01*
X19074000Y-17580314D01*
X18798814Y-17580314D01*
X18812712Y-17546764D01*
X18836000Y-17429686D01*
X18836000Y-17310314D01*
X18812712Y-17193236D01*
X18767030Y-17082951D01*
X18700711Y-16983698D01*
X18616302Y-16899289D01*
X18517049Y-16832970D01*
X18406764Y-16787288D01*
X18289686Y-16764000D01*
X18170314Y-16764000D01*
X18053236Y-16787288D01*
X17942951Y-16832970D01*
X17843698Y-16899289D01*
X17759289Y-16983698D01*
X17692970Y-17082951D01*
X17647288Y-17193236D01*
X17624000Y-17310314D01*
X15505132Y-17310314D01*
X15500711Y-17303698D01*
X15416302Y-17219289D01*
X15317049Y-17152970D01*
X15206764Y-17107288D01*
X15089686Y-17084000D01*
X14970314Y-17084000D01*
X14853236Y-17107288D01*
X14742951Y-17152970D01*
X14643698Y-17219289D01*
X14559289Y-17303698D01*
X14492970Y-17402951D01*
X14447288Y-17513236D01*
X14424000Y-17630314D01*
X13886817Y-17630314D01*
X13884197Y-17626393D01*
X13799788Y-17541984D01*
X13781996Y-17530096D01*
X13799788Y-17518207D01*
X13884197Y-17433798D01*
X13950516Y-17334545D01*
X13996198Y-17224260D01*
X14019486Y-17107182D01*
X14019486Y-16987810D01*
X13996198Y-16870732D01*
X13950516Y-16760447D01*
X13884197Y-16661194D01*
X13799788Y-16576785D01*
X13700535Y-16510466D01*
X13592392Y-16465671D01*
X13595065Y-15922987D01*
X13670336Y-15872693D01*
X13862693Y-15680336D01*
X14013826Y-15454149D01*
X14065120Y-15330314D01*
X14194000Y-15330314D01*
X14194000Y-15449686D01*
X14217288Y-15566764D01*
X14262970Y-15677049D01*
X14329289Y-15776302D01*
X14413698Y-15860711D01*
X14512951Y-15927030D01*
X14623236Y-15972712D01*
X14740314Y-15996000D01*
X14859686Y-15996000D01*
X14976764Y-15972712D01*
X15087049Y-15927030D01*
X15186302Y-15860711D01*
X15270711Y-15776302D01*
X15337030Y-15677049D01*
X15382712Y-15566764D01*
X15406000Y-15449686D01*
X15406000Y-15330314D01*
X21204000Y-15330314D01*
X21204000Y-15449686D01*
X21227288Y-15566764D01*
X21272970Y-15677049D01*
X21339289Y-15776302D01*
X21423698Y-15860711D01*
X21522951Y-15927030D01*
X21633236Y-15972712D01*
X21750314Y-15996000D01*
X21869686Y-15996000D01*
X21986764Y-15972712D01*
X22097049Y-15927030D01*
X22196302Y-15860711D01*
X22280711Y-15776302D01*
X22347030Y-15677049D01*
X22392712Y-15566764D01*
X22416000Y-15449686D01*
X22416000Y-15330314D01*
X22392712Y-15213236D01*
X22347030Y-15102951D01*
X22280711Y-15003698D01*
X22196302Y-14919289D01*
X22097049Y-14852970D01*
X21986764Y-14807288D01*
X21869686Y-14784000D01*
X21750314Y-14784000D01*
X21633236Y-14807288D01*
X21522951Y-14852970D01*
X21423698Y-14919289D01*
X21339289Y-15003698D01*
X21272970Y-15102951D01*
X21227288Y-15213236D01*
X21204000Y-15330314D01*
X15406000Y-15330314D01*
X15382712Y-15213236D01*
X15337030Y-15102951D01*
X15270711Y-15003698D01*
X15186302Y-14919289D01*
X15087049Y-14852970D01*
X14976764Y-14807288D01*
X14859686Y-14784000D01*
X14740314Y-14784000D01*
X14623236Y-14807288D01*
X14512951Y-14852970D01*
X14413698Y-14919289D01*
X14329289Y-15003698D01*
X14262970Y-15102951D01*
X14217288Y-15213236D01*
X14194000Y-15330314D01*
X14065120Y-15330314D01*
X14117929Y-15202823D01*
X14171000Y-14936017D01*
X14171000Y-14663983D01*
X14117929Y-14397177D01*
X14013826Y-14145851D01*
X13862693Y-13919664D01*
X13670336Y-13727307D01*
X13615400Y-13690600D01*
X14546664Y-13690600D01*
X14537288Y-13713236D01*
G36*
X13613000Y-19243000D02*
G01*
X13317737Y-19243000D01*
X13249764Y-19175027D01*
X13237555Y-18918638D01*
X13274597Y-18881596D01*
X13311077Y-18827000D01*
X13613000Y-18827000D01*
X13613000Y-19243000D01*
X13613000Y-19243000D01*
G37*
X13613000Y-19243000D02*
X13317737Y-19243000D01*
X13249764Y-19175027D01*
X13237555Y-18918638D01*
X13274597Y-18881596D01*
X13311077Y-18827000D01*
X13613000Y-18827000D01*
X13613000Y-19243000D01*
M02*
