G04 #@! TF.GenerationSoftware,KiCad,Pcbnew,(5.1.0)-1*
G04 #@! TF.CreationDate,2019-11-07T09:25:18-08:00*
G04 #@! TF.ProjectId,MS_v4_ETL_LED_Driver_v2,4d535f76-345f-4455-944c-5f4c45445f44,rev?*
G04 #@! TF.SameCoordinates,Original*
G04 #@! TF.FileFunction,Copper,L1,Top*
G04 #@! TF.FilePolarity,Positive*
%FSLAX46Y46*%
G04 Gerber Fmt 4.6, Leading zero omitted, Abs format (unit mm)*
G04 Created by KiCad (PCBNEW (5.1.0)-1) date 2019-11-07 09:25:18*
%MOMM*%
%LPD*%
G04 APERTURE LIST*
%ADD10R,0.220000X0.610000*%
%ADD11R,0.610000X0.220000*%
%ADD12R,2.390000X0.640000*%
%ADD13R,0.270000X0.640000*%
%ADD14C,2.000000*%
%ADD15R,0.310000X0.340000*%
%ADD16C,0.508000*%
%ADD17C,0.350000*%
%ADD18R,0.340000X0.310000*%
%ADD19R,0.630000X0.580000*%
%ADD20R,0.750000X1.524000*%
%ADD21C,0.450000*%
%ADD22C,0.254000*%
%ADD23C,0.152000*%
%ADD24C,0.088900*%
%ADD25C,0.203200*%
G04 APERTURE END LIST*
D10*
X16075000Y-19825000D03*
X15675000Y-19825000D03*
D11*
X15030000Y-19780000D03*
X15030000Y-19380000D03*
X15030000Y-18980000D03*
X15030000Y-18580000D03*
X15030000Y-18180000D03*
D10*
X15675000Y-18135000D03*
X16075000Y-18135000D03*
D11*
X16720000Y-18180000D03*
X16720000Y-18580000D03*
X16720000Y-18980000D03*
X16720000Y-19380000D03*
X16720000Y-19780000D03*
D12*
X15620000Y-15390000D03*
D13*
X16620000Y-16230000D03*
X16120000Y-16230000D03*
X15620000Y-16230000D03*
X15120000Y-16230000D03*
X14620000Y-16230000D03*
X14620000Y-14550000D03*
X15120000Y-14550000D03*
X15620000Y-14550000D03*
X16120000Y-14550000D03*
X16620000Y-14550000D03*
D14*
X12790000Y-14800000D03*
X23800000Y-14820000D03*
D15*
X14660000Y-17050000D03*
X15210000Y-17050000D03*
D16*
X12796520Y-16537940D03*
D15*
X19980000Y-17050000D03*
X20530000Y-17050000D03*
D17*
X20780000Y-21120000D03*
X20280000Y-21120000D03*
X19780000Y-21120000D03*
X19280000Y-21120000D03*
X18780000Y-21120000D03*
X20780000Y-20620000D03*
X20280000Y-20620000D03*
X19780000Y-20620000D03*
X19280000Y-20620000D03*
X18780000Y-20620000D03*
X20780000Y-20120000D03*
X20280000Y-20120000D03*
X19780000Y-20120000D03*
X19280000Y-20120000D03*
X18780000Y-20120000D03*
D12*
X20910000Y-15390000D03*
D13*
X21910000Y-16230000D03*
X21410000Y-16230000D03*
X20910000Y-16230000D03*
X20410000Y-16230000D03*
X19910000Y-16230000D03*
X19910000Y-14550000D03*
X20410000Y-14550000D03*
X20910000Y-14550000D03*
X21410000Y-14550000D03*
X21910000Y-14550000D03*
D18*
X21280000Y-17540000D03*
X21280000Y-16990000D03*
X21930000Y-17520000D03*
X21930000Y-16970000D03*
X18310000Y-16040000D03*
X18310000Y-16590000D03*
X17660000Y-16040000D03*
X17660000Y-16590000D03*
X15850000Y-21760000D03*
X15850000Y-21210000D03*
X16510000Y-21755000D03*
X16510000Y-21205000D03*
X17130000Y-21755000D03*
X17130000Y-21205000D03*
D16*
X13413486Y-18977894D03*
X12803886Y-18495294D03*
X13413486Y-18012695D03*
X12803886Y-17530095D03*
X13413486Y-17047496D03*
D15*
X15930000Y-22430000D03*
X16480000Y-22430000D03*
D19*
X17800000Y-14995000D03*
X17800000Y-14105000D03*
D20*
X17934200Y-22745400D03*
X18934200Y-22745400D03*
D19*
X18760000Y-14995000D03*
X18760000Y-14105000D03*
D18*
X17620000Y-17970000D03*
X17620000Y-18520000D03*
X14500000Y-21210000D03*
X14500000Y-21760000D03*
X15170000Y-21750000D03*
X15170000Y-21200000D03*
X18870000Y-18510000D03*
X18870000Y-17960000D03*
X18250000Y-17960000D03*
X18250000Y-18510000D03*
D21*
X20830000Y-19190000D03*
X22580000Y-22800000D03*
X14800000Y-15390000D03*
X21810000Y-15390000D03*
X21940000Y-18150000D03*
X15590000Y-23080000D03*
X12803886Y-18495294D03*
X18230000Y-17370000D03*
X14290000Y-19860000D03*
X17480000Y-19370000D03*
X19680000Y-17640000D03*
X15030000Y-17690000D03*
X16630000Y-16960000D03*
X16480000Y-23090000D03*
X22490000Y-16950000D03*
X13413486Y-18977894D03*
X19780000Y-19540000D03*
X15460000Y-20580000D03*
X14500000Y-22360000D03*
X19459581Y-18211257D03*
X15658903Y-13890000D03*
X18090000Y-20560000D03*
X12803886Y-17530095D03*
X15890000Y-18830000D03*
X13413486Y-18012695D03*
X17520000Y-20100000D03*
X22030000Y-13880000D03*
X21290000Y-18140000D03*
X19510000Y-13890000D03*
X21470000Y-13880000D03*
X20920000Y-13880000D03*
X20330000Y-13880000D03*
X12796520Y-16537940D03*
X13413486Y-17047496D03*
X15120000Y-13890000D03*
D22*
X20280000Y-20120000D02*
X20280000Y-19740000D01*
X20280000Y-19740000D02*
X20830000Y-19190000D01*
X21027487Y-20620000D02*
X22580000Y-22172513D01*
X20780000Y-20620000D02*
X21027487Y-20620000D01*
X22580000Y-22172513D02*
X22580000Y-22800000D01*
X17800000Y-14995000D02*
X18760000Y-14995000D01*
D23*
X15630000Y-18180000D02*
X15675000Y-18135000D01*
X15030000Y-18180000D02*
X15630000Y-18180000D01*
D22*
X18760000Y-15605000D02*
X18325000Y-16040000D01*
X18760000Y-14995000D02*
X18760000Y-15605000D01*
X15620000Y-15390000D02*
X15620000Y-16230000D01*
X15620000Y-16230000D02*
X15120000Y-16230000D01*
D24*
X21785000Y-15390000D02*
X20910000Y-15390000D01*
D22*
X21930000Y-17520000D02*
X21930000Y-18140000D01*
D24*
X21930000Y-18140000D02*
X21940000Y-18150000D01*
X15850000Y-22350000D02*
X15930000Y-22430000D01*
D22*
X15850000Y-21760000D02*
X15850000Y-22350000D01*
X15930000Y-22430000D02*
X15930000Y-22740000D01*
X15930000Y-22740000D02*
X15590000Y-23080000D01*
D24*
X15840000Y-21750000D02*
X15850000Y-21760000D01*
D22*
X15170000Y-21750000D02*
X15840000Y-21750000D01*
X20780000Y-20120000D02*
X21940000Y-18960000D01*
X21940000Y-18960000D02*
X21940000Y-18760000D01*
X21940000Y-18760000D02*
X21940000Y-18150000D01*
X20410000Y-16230000D02*
X20910000Y-16230000D01*
X20910000Y-15390000D02*
X20910000Y-16230000D01*
D24*
X18325000Y-16040000D02*
X18310000Y-16040000D01*
D23*
X12803886Y-18495294D02*
X13505294Y-18495294D01*
D24*
X13505294Y-18495294D02*
X13505294Y-18496422D01*
D23*
X13646422Y-18496422D02*
X14530000Y-19380000D01*
X13505294Y-18496422D02*
X13646422Y-18496422D01*
D24*
X15030000Y-19380000D02*
X14835000Y-19380000D01*
X15630000Y-19780000D02*
X15675000Y-19825000D01*
D23*
X15030000Y-19780000D02*
X15630000Y-19780000D01*
X15030000Y-19380000D02*
X15030000Y-19780000D01*
D22*
X18250000Y-17960000D02*
X18250000Y-17390000D01*
X18250000Y-17390000D02*
X18230000Y-17370000D01*
X18240000Y-17970000D02*
X18250000Y-17960000D01*
X17620000Y-17970000D02*
X18240000Y-17970000D01*
X16720000Y-18180000D02*
X16870000Y-18030000D01*
D25*
X16870000Y-18030000D02*
X17560000Y-18030000D01*
D23*
X15030000Y-18180000D02*
X15030000Y-18120000D01*
D22*
X18325000Y-16040000D02*
X18610000Y-16040000D01*
D25*
X16720000Y-19380000D02*
X17470000Y-19380000D01*
D23*
X14530000Y-19380000D02*
X15030000Y-19380000D01*
D25*
X15030000Y-19780000D02*
X14370000Y-19780000D01*
D24*
X14370000Y-19780000D02*
X14290000Y-19860000D01*
X19290000Y-16720000D02*
X19050000Y-16480000D01*
D22*
X18610000Y-16040000D02*
X19050000Y-16480000D01*
X19050000Y-16480000D02*
X19350000Y-16780000D01*
D24*
X19280000Y-20120000D02*
X19280000Y-19830000D01*
X19280000Y-19830000D02*
X18880000Y-19430000D01*
X17470000Y-19380000D02*
X17480000Y-19370000D01*
D25*
X19280000Y-19872513D02*
X19280000Y-20120000D01*
X18777487Y-19370000D02*
X19280000Y-19872513D01*
X17480000Y-19370000D02*
X18777487Y-19370000D01*
D22*
X19290000Y-16720000D02*
X19290000Y-17250000D01*
X19290000Y-17250000D02*
X19455001Y-17415001D01*
X19455001Y-17415001D02*
X19680000Y-17640000D01*
X15030000Y-18180000D02*
X15030000Y-17690000D01*
X17130000Y-21755000D02*
X16510000Y-21755000D01*
D24*
X18325000Y-16590000D02*
X18310000Y-16590000D01*
X16620000Y-16860000D02*
X16669997Y-16909997D01*
D23*
X16620000Y-16230000D02*
X16620000Y-16860000D01*
D24*
X21930000Y-16250000D02*
X21910000Y-16230000D01*
D22*
X21930000Y-16970000D02*
X21930000Y-16250000D01*
D24*
X16480000Y-21785000D02*
X16510000Y-21755000D01*
D22*
X16480000Y-22430000D02*
X16480000Y-21785000D01*
X16480000Y-22430000D02*
X16480000Y-23090000D01*
D24*
X19280000Y-20620000D02*
X19780000Y-20120000D01*
X22490000Y-16950000D02*
X22450000Y-16950000D01*
D22*
X21930000Y-16970000D02*
X22470000Y-16970000D01*
D24*
X22470000Y-16970000D02*
X22490000Y-16950000D01*
D23*
X18310000Y-16590000D02*
X18568900Y-16590000D01*
X18568900Y-16590000D02*
X18860000Y-16881100D01*
X18870000Y-16891100D02*
X18870000Y-17960000D01*
D24*
X18860000Y-16881100D02*
X18870000Y-16891100D01*
D22*
X15713900Y-20580000D02*
X15460000Y-20580000D01*
X16075000Y-19825000D02*
X16075000Y-20218900D01*
X16075000Y-20218900D02*
X15713900Y-20580000D01*
X14500000Y-21760000D02*
X14500000Y-22360000D01*
D25*
X19243200Y-17960000D02*
X19459581Y-18176381D01*
X19459581Y-18176381D02*
X19459581Y-18211257D01*
X18870000Y-17960000D02*
X19243200Y-17960000D01*
D22*
X19780000Y-19540000D02*
X19780000Y-20120000D01*
D23*
X16120000Y-17230000D02*
X16120000Y-16230000D01*
X16338352Y-17448352D02*
X16120000Y-17230000D01*
X17171648Y-17448352D02*
X16338352Y-17448352D01*
X17660000Y-16590000D02*
X17660000Y-16960000D01*
X17660000Y-16960000D02*
X17171648Y-17448352D01*
D22*
X15620000Y-13878903D02*
X15658903Y-13840000D01*
X15620000Y-13928903D02*
X15658903Y-13890000D01*
X15620000Y-14550000D02*
X15620000Y-13928903D01*
D25*
X16120000Y-14170000D02*
X16120000Y-14550000D01*
X16360000Y-13930000D02*
X16120000Y-14170000D01*
D24*
X17800000Y-14105000D02*
X17625000Y-13930000D01*
D25*
X17625000Y-13930000D02*
X16360000Y-13930000D01*
X17660000Y-15960000D02*
X17660000Y-16040000D01*
X17160000Y-15460000D02*
X17660000Y-15960000D01*
X17160000Y-14840000D02*
X17160000Y-15460000D01*
X16620000Y-14550000D02*
X16870000Y-14550000D01*
X16870000Y-14550000D02*
X17160000Y-14840000D01*
D23*
X17130000Y-21205000D02*
X17145000Y-21205000D01*
X15790000Y-18980000D02*
X15890000Y-18880000D01*
X15740000Y-18980000D02*
X15890000Y-18830000D01*
X15030000Y-18980000D02*
X15740000Y-18980000D01*
D24*
X18720000Y-20560000D02*
X18780000Y-20620000D01*
D25*
X18090000Y-20560000D02*
X18720000Y-20560000D01*
X17445000Y-21205000D02*
X18090000Y-20560000D01*
X17130000Y-21205000D02*
X17445000Y-21205000D01*
D23*
X14570000Y-18580000D02*
X15030000Y-18580000D01*
X14010000Y-18020000D02*
X14570000Y-18580000D01*
X13413486Y-18012695D02*
X13420791Y-18020000D01*
X13420791Y-18020000D02*
X14010000Y-18020000D01*
D24*
X18780000Y-20120000D02*
X18780000Y-20040000D01*
X18690000Y-20030000D02*
X18780000Y-20120000D01*
D23*
X16510000Y-21205000D02*
X16525000Y-21205000D01*
D24*
X17540000Y-20120000D02*
X17520000Y-20100000D01*
D25*
X18780000Y-20120000D02*
X17540000Y-20120000D01*
X16510000Y-21110000D02*
X17520000Y-20100000D01*
X16510000Y-21205000D02*
X16510000Y-21110000D01*
D22*
X19280000Y-21660000D02*
X19280000Y-21120000D01*
X18804200Y-22865400D02*
X18804200Y-22135800D01*
X18804200Y-22135800D02*
X19280000Y-21660000D01*
X17934200Y-22735400D02*
X17804200Y-22865400D01*
X17934200Y-21718313D02*
X17934200Y-22735400D01*
X18780000Y-21120000D02*
X18532513Y-21120000D01*
X18532513Y-21120000D02*
X17934200Y-21718313D01*
X14500000Y-21210000D02*
X15850000Y-21210000D01*
D24*
X15865000Y-21210000D02*
X15850000Y-21210000D01*
D25*
X16720000Y-20355000D02*
X15865000Y-21210000D01*
X16720000Y-19780000D02*
X16720000Y-20355000D01*
D24*
X21910000Y-14550000D02*
X21910000Y-14365000D01*
D22*
X21280000Y-17540000D02*
X21280000Y-18130000D01*
D24*
X21280000Y-18130000D02*
X21290000Y-18140000D01*
D22*
X22030000Y-13880000D02*
X22020000Y-13880000D01*
X21910000Y-14550000D02*
X21910000Y-14000000D01*
X21910000Y-14000000D02*
X22030000Y-13880000D01*
D24*
X21340000Y-16300000D02*
X21410000Y-16230000D01*
X21280000Y-16990000D02*
X21340000Y-16930000D01*
D25*
X21340000Y-16930000D02*
X21340000Y-16300000D01*
D22*
X19295000Y-14105000D02*
X19510000Y-13890000D01*
X18760000Y-14105000D02*
X19295000Y-14105000D01*
X21410000Y-14550000D02*
X21410000Y-13940000D01*
D24*
X18810000Y-18580000D02*
X18860000Y-18630000D01*
X17580000Y-18580000D02*
X17640000Y-18640000D01*
X18260000Y-18640000D02*
X18270000Y-18630000D01*
X18240000Y-18520000D02*
X18250000Y-18510000D01*
D25*
X17620000Y-18520000D02*
X18240000Y-18520000D01*
D24*
X17560000Y-18580000D02*
X17620000Y-18520000D01*
D25*
X16720000Y-18580000D02*
X17560000Y-18580000D01*
X18250000Y-18510000D02*
X18870000Y-18510000D01*
D22*
X20910000Y-13870000D02*
X20990000Y-13790000D01*
X20910000Y-13910000D02*
X20940000Y-13880000D01*
X20910000Y-14550000D02*
X20910000Y-13910000D01*
X20330000Y-14470000D02*
X20410000Y-14550000D01*
X20330000Y-13880000D02*
X20330000Y-14470000D01*
X15120000Y-14550000D02*
X15120000Y-13890000D01*
D23*
X20530000Y-18180000D02*
X20530000Y-17050000D01*
X16890000Y-18970000D02*
X19740000Y-18970000D01*
X19740000Y-18970000D02*
X20530000Y-18180000D01*
X14660000Y-16270000D02*
X14620000Y-16230000D01*
X14660000Y-17050000D02*
X14660000Y-16270000D01*
X14396100Y-14550000D02*
X14620000Y-14550000D01*
X14180000Y-14766100D02*
X14396100Y-14550000D01*
X14180000Y-16013900D02*
X14180000Y-14766100D01*
X14620000Y-16230000D02*
X14396100Y-16230000D01*
X14396100Y-16230000D02*
X14180000Y-16013900D01*
X19910000Y-16980000D02*
X19980000Y-17050000D01*
D25*
X19910000Y-16230000D02*
X19910000Y-16980000D01*
D23*
X19686100Y-16230000D02*
X19910000Y-16230000D01*
X19500000Y-16043900D02*
X19686100Y-16230000D01*
X19500000Y-14736100D02*
X19500000Y-16043900D01*
X19910000Y-14550000D02*
X19686100Y-14550000D01*
X19686100Y-14550000D02*
X19500000Y-14736100D01*
X16075000Y-17705000D02*
X16075000Y-18135000D01*
X15210000Y-17050000D02*
X15420000Y-17050000D01*
X15420000Y-17050000D02*
X16075000Y-17705000D01*
M02*
