G04 #@! TF.GenerationSoftware,KiCad,Pcbnew,(5.1.0)-1*
G04 #@! TF.CreationDate,2019-05-02T19:56:36-07:00*
G04 #@! TF.ProjectId,Miniscope-v4-MCU,4d696e69-7363-46f7-9065-2d76342d4d43,rev?*
G04 #@! TF.SameCoordinates,PX2f34f60PY3750280*
G04 #@! TF.FileFunction,Paste,Bot*
G04 #@! TF.FilePolarity,Positive*
%FSLAX46Y46*%
G04 Gerber Fmt 4.6, Leading zero omitted, Abs format (unit mm)*
G04 Created by KiCad (PCBNEW (5.1.0)-1) date 2019-05-02 19:56:36*
%MOMM*%
%LPD*%
G04 APERTURE LIST*
%ADD10R,0.580000X0.630000*%
%ADD11R,0.260000X0.680000*%
%ADD12R,0.680000X0.260000*%
%ADD13R,1.350000X1.350000*%
G04 APERTURE END LIST*
D10*
X2680200Y838200D03*
X1790200Y838200D03*
X5325400Y850000D03*
X6215400Y850000D03*
D11*
X6156400Y2604400D03*
X5656400Y2604400D03*
X5156400Y2604400D03*
X4656400Y2604400D03*
X4156400Y2604400D03*
X3656400Y2604400D03*
X3156400Y2604400D03*
X2656400Y2604400D03*
D12*
X2071400Y3189400D03*
X2071400Y3689400D03*
X2071400Y4189400D03*
X2071400Y4689400D03*
X2071400Y5189400D03*
X2071400Y5689400D03*
X2071400Y6189400D03*
X2071400Y6689400D03*
D11*
X2656400Y7274400D03*
X3156400Y7274400D03*
X3656400Y7274400D03*
X4156400Y7274400D03*
X4656400Y7274400D03*
X5156400Y7274400D03*
X5656400Y7274400D03*
X6156400Y7274400D03*
D12*
X6741400Y6689400D03*
X6741400Y6189400D03*
X6741400Y5689400D03*
X6741400Y5189400D03*
X6741400Y4689400D03*
X6741400Y4189400D03*
X6741400Y3689400D03*
X6741400Y3189400D03*
D13*
X3631400Y4164400D03*
X3631400Y5714400D03*
X5181400Y4164400D03*
X5181400Y5714400D03*
M02*
