G04 #@! TF.GenerationSoftware,KiCad,Pcbnew,(5.1.0)-1*
G04 #@! TF.CreationDate,2019-05-02T19:56:36-07:00*
G04 #@! TF.ProjectId,Miniscope-v4-MCU,4d696e69-7363-46f7-9065-2d76342d4d43,rev?*
G04 #@! TF.SameCoordinates,PX2f34f60PY3750280*
G04 #@! TF.FileFunction,Copper,L4,Inr*
G04 #@! TF.FilePolarity,Positive*
%FSLAX46Y46*%
G04 Gerber Fmt 4.6, Leading zero omitted, Abs format (unit mm)*
G04 Created by KiCad (PCBNEW (5.1.0)-1) date 2019-05-02 19:56:36*
%MOMM*%
%LPD*%
G04 APERTURE LIST*
%ADD10C,0.450000*%
%ADD11C,0.355600*%
%ADD12C,0.203200*%
%ADD13C,0.152400*%
G04 APERTURE END LIST*
D10*
X1168400Y5410200D03*
X6908800Y533400D03*
X1198400Y2424800D03*
X4664490Y4380600D03*
X5588002Y5740400D03*
D11*
X3154200Y7073000D03*
X4652800Y2831200D03*
D10*
X6426198Y1803400D03*
D11*
X3681259Y2805800D03*
D10*
X609600Y1117600D03*
X1066800Y508000D03*
X2108200Y2590800D03*
X558800Y5892800D03*
X1193800Y1778000D03*
X711200Y7315200D03*
X1422400Y7340600D03*
X3815269Y1781108D03*
X6629400Y7416800D03*
X3505200Y1117600D03*
D11*
X6908800Y6680200D03*
D10*
X4013200Y533400D03*
D11*
X6557800Y6184000D03*
D10*
X2087400Y7352400D03*
X1168400Y4444983D03*
D11*
X6400800Y5184358D03*
D10*
X558800Y4927600D03*
D11*
X6959600Y5689600D03*
D10*
X6731000Y2616200D03*
X558800Y3962400D03*
D11*
X2242171Y4666629D03*
X6650290Y4685400D03*
D10*
X1168400Y3479800D03*
D12*
X3456260Y3030799D02*
X3681259Y2805800D01*
X3103400Y3383659D02*
X3456260Y3030799D01*
X3103400Y7073000D02*
X3103400Y3383659D01*
D13*
X3865400Y1942200D02*
X4140200Y2217000D01*
X4140200Y2217000D02*
X4140200Y5575998D01*
X4140200Y5575998D02*
X5981002Y7416800D01*
X6311202Y7416800D02*
X6629400Y7416800D01*
X5981002Y7416800D02*
X6311202Y7416800D01*
D12*
X5105400Y5918200D02*
X5867400Y6680200D01*
X6657353Y6680200D02*
X6908800Y6680200D01*
X5105400Y2399602D02*
X5105400Y5918200D01*
X3823398Y1117600D02*
X5105400Y2399602D01*
X3505200Y1117600D02*
X3823398Y1117600D01*
X5867400Y6680200D02*
X6657353Y6680200D01*
X6557800Y6049800D02*
X6557800Y6184000D01*
X4013200Y533400D02*
X5897400Y2417600D01*
X5897400Y2417600D02*
X5897400Y5389400D01*
X5897400Y5389400D02*
X6557800Y6049800D01*
M02*
