M48
; DRILL file {KiCad (5.1.0)-1} date 5/2/2019 2:04:26 PM
; FORMAT={-:-/ absolute / inch / decimal}
; #@! TF.CreationDate,2019-05-02T14:04:26-07:00
; #@! TF.GenerationSoftware,Kicad,Pcbnew,(5.1.0)-1
; #@! TF.FileFunction,Plated,1,6,PTH
FMAT,2
INCH
T1C0.0040
T2C0.0050
%
G90
G05
T1
X4.5261Y-2.0401
T2
X4.5258Y-1.6976
X4.5259Y-1.7361
X4.526Y-1.774
X4.526Y-1.926
X4.526Y-2.002
X4.5261Y-1.8118
X4.5496Y-1.8316
X4.55Y-1.755
X4.55Y-1.793
X4.55Y-1.983
X4.55Y-2.021
X4.5503Y-1.8694
X4.6022Y-1.8289
X4.6031Y-1.8091
X4.6031Y-1.8682
X4.6259Y-1.7874
X4.6458Y-1.7861
X4.6602Y-1.8923
X4.6655Y-1.7861
X4.6852Y-1.7861
X4.7048Y-1.7861
X4.7158Y-1.8978
X4.781Y-2.0392
X4.7869Y-1.9271
X4.7869Y-1.8485
X4.7869Y-1.8682
X4.7869Y-1.8878
X4.7869Y-1.9075
X4.7872Y-1.9468
X4.7878Y-1.7903
X4.8001Y-2.0153
X4.8013Y-1.753
T0
M30
