G04 #@! TF.GenerationSoftware,KiCad,Pcbnew,(5.1.0)-1*
G04 #@! TF.CreationDate,2019-05-02T14:04:18-07:00*
G04 #@! TF.ProjectId,Miniscope-v4-Ser-Pow,4d696e69-7363-46f7-9065-2d76342d5365,rev?*
G04 #@! TF.SameCoordinates,Original*
G04 #@! TF.FileFunction,Copper,L6,Bot*
G04 #@! TF.FilePolarity,Positive*
%FSLAX46Y46*%
G04 Gerber Fmt 4.6, Leading zero omitted, Abs format (unit mm)*
G04 Created by KiCad (PCBNEW (5.1.0)-1) date 2019-05-02 14:04:18*
%MOMM*%
%LPD*%
G04 APERTURE LIST*
%ADD10R,0.340000X0.310000*%
%ADD11R,0.630000X0.580000*%
%ADD12R,0.310000X0.340000*%
%ADD13R,0.580000X0.630000*%
%ADD14R,0.870000X2.620000*%
%ADD15C,0.100000*%
%ADD16C,0.590000*%
%ADD17R,0.820000X0.270000*%
%ADD18R,0.740000X0.270000*%
%ADD19C,0.355600*%
%ADD20C,0.076200*%
%ADD21C,0.127000*%
G04 APERTURE END LIST*
D10*
X120327420Y-51372860D03*
X120327420Y-50822860D03*
X118821200Y-51405880D03*
X118821200Y-50855880D03*
X119504460Y-50860280D03*
X119504460Y-51410280D03*
D11*
X116489480Y-43609760D03*
X116489480Y-42719760D03*
X115450620Y-42735000D03*
X115450620Y-43625000D03*
D10*
X122374660Y-47437040D03*
X122374660Y-46887040D03*
D12*
X120255620Y-47454820D03*
X120805620Y-47454820D03*
D10*
X121683780Y-51362020D03*
X121683780Y-50812020D03*
D13*
X120657620Y-48209200D03*
X119767620Y-48209200D03*
D12*
X118372300Y-48066960D03*
X117822300Y-48066960D03*
X117815360Y-47500540D03*
X118365360Y-47500540D03*
D10*
X118193820Y-46569040D03*
X118193820Y-46019040D03*
X117574060Y-46019040D03*
X117574060Y-46569040D03*
D11*
X120637300Y-49071800D03*
X120637300Y-49961800D03*
D10*
X119346980Y-49659540D03*
X119346980Y-49109540D03*
X119905780Y-49105140D03*
X119905780Y-49655140D03*
D11*
X121584720Y-45463460D03*
X121584720Y-46353460D03*
D10*
X120289320Y-45493940D03*
X120289320Y-46043940D03*
X120878600Y-46049020D03*
X120878600Y-45499020D03*
X117190520Y-48471500D03*
X117190520Y-47921500D03*
X116583460Y-47918960D03*
X116583460Y-48468960D03*
D14*
X120774460Y-43032680D03*
X117724460Y-43032680D03*
D15*
G36*
X122038378Y-43319770D02*
G01*
X122052696Y-43321894D01*
X122066737Y-43325411D01*
X122080366Y-43330288D01*
X122093451Y-43336477D01*
X122105867Y-43343918D01*
X122117493Y-43352541D01*
X122128218Y-43362262D01*
X122137939Y-43372987D01*
X122146562Y-43384613D01*
X122154003Y-43397029D01*
X122160192Y-43410114D01*
X122165069Y-43423743D01*
X122168586Y-43437784D01*
X122170710Y-43452102D01*
X122171420Y-43466560D01*
X122171420Y-43761560D01*
X122170710Y-43776018D01*
X122168586Y-43790336D01*
X122165069Y-43804377D01*
X122160192Y-43818006D01*
X122154003Y-43831091D01*
X122146562Y-43843507D01*
X122137939Y-43855133D01*
X122128218Y-43865858D01*
X122117493Y-43875579D01*
X122105867Y-43884202D01*
X122093451Y-43891643D01*
X122080366Y-43897832D01*
X122066737Y-43902709D01*
X122052696Y-43906226D01*
X122038378Y-43908350D01*
X122023920Y-43909060D01*
X121678920Y-43909060D01*
X121664462Y-43908350D01*
X121650144Y-43906226D01*
X121636103Y-43902709D01*
X121622474Y-43897832D01*
X121609389Y-43891643D01*
X121596973Y-43884202D01*
X121585347Y-43875579D01*
X121574622Y-43865858D01*
X121564901Y-43855133D01*
X121556278Y-43843507D01*
X121548837Y-43831091D01*
X121542648Y-43818006D01*
X121537771Y-43804377D01*
X121534254Y-43790336D01*
X121532130Y-43776018D01*
X121531420Y-43761560D01*
X121531420Y-43466560D01*
X121532130Y-43452102D01*
X121534254Y-43437784D01*
X121537771Y-43423743D01*
X121542648Y-43410114D01*
X121548837Y-43397029D01*
X121556278Y-43384613D01*
X121564901Y-43372987D01*
X121574622Y-43362262D01*
X121585347Y-43352541D01*
X121596973Y-43343918D01*
X121609389Y-43336477D01*
X121622474Y-43330288D01*
X121636103Y-43325411D01*
X121650144Y-43321894D01*
X121664462Y-43319770D01*
X121678920Y-43319060D01*
X122023920Y-43319060D01*
X122038378Y-43319770D01*
X122038378Y-43319770D01*
G37*
D16*
X121851420Y-43614060D03*
D15*
G36*
X122038378Y-42349770D02*
G01*
X122052696Y-42351894D01*
X122066737Y-42355411D01*
X122080366Y-42360288D01*
X122093451Y-42366477D01*
X122105867Y-42373918D01*
X122117493Y-42382541D01*
X122128218Y-42392262D01*
X122137939Y-42402987D01*
X122146562Y-42414613D01*
X122154003Y-42427029D01*
X122160192Y-42440114D01*
X122165069Y-42453743D01*
X122168586Y-42467784D01*
X122170710Y-42482102D01*
X122171420Y-42496560D01*
X122171420Y-42791560D01*
X122170710Y-42806018D01*
X122168586Y-42820336D01*
X122165069Y-42834377D01*
X122160192Y-42848006D01*
X122154003Y-42861091D01*
X122146562Y-42873507D01*
X122137939Y-42885133D01*
X122128218Y-42895858D01*
X122117493Y-42905579D01*
X122105867Y-42914202D01*
X122093451Y-42921643D01*
X122080366Y-42927832D01*
X122066737Y-42932709D01*
X122052696Y-42936226D01*
X122038378Y-42938350D01*
X122023920Y-42939060D01*
X121678920Y-42939060D01*
X121664462Y-42938350D01*
X121650144Y-42936226D01*
X121636103Y-42932709D01*
X121622474Y-42927832D01*
X121609389Y-42921643D01*
X121596973Y-42914202D01*
X121585347Y-42905579D01*
X121574622Y-42895858D01*
X121564901Y-42885133D01*
X121556278Y-42873507D01*
X121548837Y-42861091D01*
X121542648Y-42848006D01*
X121537771Y-42834377D01*
X121534254Y-42820336D01*
X121532130Y-42806018D01*
X121531420Y-42791560D01*
X121531420Y-42496560D01*
X121532130Y-42482102D01*
X121534254Y-42467784D01*
X121537771Y-42453743D01*
X121542648Y-42440114D01*
X121548837Y-42427029D01*
X121556278Y-42414613D01*
X121564901Y-42402987D01*
X121574622Y-42392262D01*
X121585347Y-42382541D01*
X121596973Y-42373918D01*
X121609389Y-42366477D01*
X121622474Y-42360288D01*
X121636103Y-42355411D01*
X121650144Y-42351894D01*
X121664462Y-42349770D01*
X121678920Y-42349060D01*
X122023920Y-42349060D01*
X122038378Y-42349770D01*
X122038378Y-42349770D01*
G37*
D16*
X121851420Y-42644060D03*
D15*
G36*
X118848138Y-49573250D02*
G01*
X118862456Y-49575374D01*
X118876497Y-49578891D01*
X118890126Y-49583768D01*
X118903211Y-49589957D01*
X118915627Y-49597398D01*
X118927253Y-49606021D01*
X118937978Y-49615742D01*
X118947699Y-49626467D01*
X118956322Y-49638093D01*
X118963763Y-49650509D01*
X118969952Y-49663594D01*
X118974829Y-49677223D01*
X118978346Y-49691264D01*
X118980470Y-49705582D01*
X118981180Y-49720040D01*
X118981180Y-50015040D01*
X118980470Y-50029498D01*
X118978346Y-50043816D01*
X118974829Y-50057857D01*
X118969952Y-50071486D01*
X118963763Y-50084571D01*
X118956322Y-50096987D01*
X118947699Y-50108613D01*
X118937978Y-50119338D01*
X118927253Y-50129059D01*
X118915627Y-50137682D01*
X118903211Y-50145123D01*
X118890126Y-50151312D01*
X118876497Y-50156189D01*
X118862456Y-50159706D01*
X118848138Y-50161830D01*
X118833680Y-50162540D01*
X118488680Y-50162540D01*
X118474222Y-50161830D01*
X118459904Y-50159706D01*
X118445863Y-50156189D01*
X118432234Y-50151312D01*
X118419149Y-50145123D01*
X118406733Y-50137682D01*
X118395107Y-50129059D01*
X118384382Y-50119338D01*
X118374661Y-50108613D01*
X118366038Y-50096987D01*
X118358597Y-50084571D01*
X118352408Y-50071486D01*
X118347531Y-50057857D01*
X118344014Y-50043816D01*
X118341890Y-50029498D01*
X118341180Y-50015040D01*
X118341180Y-49720040D01*
X118341890Y-49705582D01*
X118344014Y-49691264D01*
X118347531Y-49677223D01*
X118352408Y-49663594D01*
X118358597Y-49650509D01*
X118366038Y-49638093D01*
X118374661Y-49626467D01*
X118384382Y-49615742D01*
X118395107Y-49606021D01*
X118406733Y-49597398D01*
X118419149Y-49589957D01*
X118432234Y-49583768D01*
X118445863Y-49578891D01*
X118459904Y-49575374D01*
X118474222Y-49573250D01*
X118488680Y-49572540D01*
X118833680Y-49572540D01*
X118848138Y-49573250D01*
X118848138Y-49573250D01*
G37*
D16*
X118661180Y-49867540D03*
D15*
G36*
X118848138Y-48603250D02*
G01*
X118862456Y-48605374D01*
X118876497Y-48608891D01*
X118890126Y-48613768D01*
X118903211Y-48619957D01*
X118915627Y-48627398D01*
X118927253Y-48636021D01*
X118937978Y-48645742D01*
X118947699Y-48656467D01*
X118956322Y-48668093D01*
X118963763Y-48680509D01*
X118969952Y-48693594D01*
X118974829Y-48707223D01*
X118978346Y-48721264D01*
X118980470Y-48735582D01*
X118981180Y-48750040D01*
X118981180Y-49045040D01*
X118980470Y-49059498D01*
X118978346Y-49073816D01*
X118974829Y-49087857D01*
X118969952Y-49101486D01*
X118963763Y-49114571D01*
X118956322Y-49126987D01*
X118947699Y-49138613D01*
X118937978Y-49149338D01*
X118927253Y-49159059D01*
X118915627Y-49167682D01*
X118903211Y-49175123D01*
X118890126Y-49181312D01*
X118876497Y-49186189D01*
X118862456Y-49189706D01*
X118848138Y-49191830D01*
X118833680Y-49192540D01*
X118488680Y-49192540D01*
X118474222Y-49191830D01*
X118459904Y-49189706D01*
X118445863Y-49186189D01*
X118432234Y-49181312D01*
X118419149Y-49175123D01*
X118406733Y-49167682D01*
X118395107Y-49159059D01*
X118384382Y-49149338D01*
X118374661Y-49138613D01*
X118366038Y-49126987D01*
X118358597Y-49114571D01*
X118352408Y-49101486D01*
X118347531Y-49087857D01*
X118344014Y-49073816D01*
X118341890Y-49059498D01*
X118341180Y-49045040D01*
X118341180Y-48750040D01*
X118341890Y-48735582D01*
X118344014Y-48721264D01*
X118347531Y-48707223D01*
X118352408Y-48693594D01*
X118358597Y-48680509D01*
X118366038Y-48668093D01*
X118374661Y-48656467D01*
X118384382Y-48645742D01*
X118395107Y-48636021D01*
X118406733Y-48627398D01*
X118419149Y-48619957D01*
X118432234Y-48613768D01*
X118445863Y-48608891D01*
X118459904Y-48605374D01*
X118474222Y-48603250D01*
X118488680Y-48602540D01*
X118833680Y-48602540D01*
X118848138Y-48603250D01*
X118848138Y-48603250D01*
G37*
D16*
X118661180Y-48897540D03*
D15*
G36*
X120247938Y-46383690D02*
G01*
X120262256Y-46385814D01*
X120276297Y-46389331D01*
X120289926Y-46394208D01*
X120303011Y-46400397D01*
X120315427Y-46407838D01*
X120327053Y-46416461D01*
X120337778Y-46426182D01*
X120347499Y-46436907D01*
X120356122Y-46448533D01*
X120363563Y-46460949D01*
X120369752Y-46474034D01*
X120374629Y-46487663D01*
X120378146Y-46501704D01*
X120380270Y-46516022D01*
X120380980Y-46530480D01*
X120380980Y-46875480D01*
X120380270Y-46889938D01*
X120378146Y-46904256D01*
X120374629Y-46918297D01*
X120369752Y-46931926D01*
X120363563Y-46945011D01*
X120356122Y-46957427D01*
X120347499Y-46969053D01*
X120337778Y-46979778D01*
X120327053Y-46989499D01*
X120315427Y-46998122D01*
X120303011Y-47005563D01*
X120289926Y-47011752D01*
X120276297Y-47016629D01*
X120262256Y-47020146D01*
X120247938Y-47022270D01*
X120233480Y-47022980D01*
X119938480Y-47022980D01*
X119924022Y-47022270D01*
X119909704Y-47020146D01*
X119895663Y-47016629D01*
X119882034Y-47011752D01*
X119868949Y-47005563D01*
X119856533Y-46998122D01*
X119844907Y-46989499D01*
X119834182Y-46979778D01*
X119824461Y-46969053D01*
X119815838Y-46957427D01*
X119808397Y-46945011D01*
X119802208Y-46931926D01*
X119797331Y-46918297D01*
X119793814Y-46904256D01*
X119791690Y-46889938D01*
X119790980Y-46875480D01*
X119790980Y-46530480D01*
X119791690Y-46516022D01*
X119793814Y-46501704D01*
X119797331Y-46487663D01*
X119802208Y-46474034D01*
X119808397Y-46460949D01*
X119815838Y-46448533D01*
X119824461Y-46436907D01*
X119834182Y-46426182D01*
X119844907Y-46416461D01*
X119856533Y-46407838D01*
X119868949Y-46400397D01*
X119882034Y-46394208D01*
X119895663Y-46389331D01*
X119909704Y-46385814D01*
X119924022Y-46383690D01*
X119938480Y-46382980D01*
X120233480Y-46382980D01*
X120247938Y-46383690D01*
X120247938Y-46383690D01*
G37*
D16*
X120085980Y-46702980D03*
D15*
G36*
X119277938Y-46383690D02*
G01*
X119292256Y-46385814D01*
X119306297Y-46389331D01*
X119319926Y-46394208D01*
X119333011Y-46400397D01*
X119345427Y-46407838D01*
X119357053Y-46416461D01*
X119367778Y-46426182D01*
X119377499Y-46436907D01*
X119386122Y-46448533D01*
X119393563Y-46460949D01*
X119399752Y-46474034D01*
X119404629Y-46487663D01*
X119408146Y-46501704D01*
X119410270Y-46516022D01*
X119410980Y-46530480D01*
X119410980Y-46875480D01*
X119410270Y-46889938D01*
X119408146Y-46904256D01*
X119404629Y-46918297D01*
X119399752Y-46931926D01*
X119393563Y-46945011D01*
X119386122Y-46957427D01*
X119377499Y-46969053D01*
X119367778Y-46979778D01*
X119357053Y-46989499D01*
X119345427Y-46998122D01*
X119333011Y-47005563D01*
X119319926Y-47011752D01*
X119306297Y-47016629D01*
X119292256Y-47020146D01*
X119277938Y-47022270D01*
X119263480Y-47022980D01*
X118968480Y-47022980D01*
X118954022Y-47022270D01*
X118939704Y-47020146D01*
X118925663Y-47016629D01*
X118912034Y-47011752D01*
X118898949Y-47005563D01*
X118886533Y-46998122D01*
X118874907Y-46989499D01*
X118864182Y-46979778D01*
X118854461Y-46969053D01*
X118845838Y-46957427D01*
X118838397Y-46945011D01*
X118832208Y-46931926D01*
X118827331Y-46918297D01*
X118823814Y-46904256D01*
X118821690Y-46889938D01*
X118820980Y-46875480D01*
X118820980Y-46530480D01*
X118821690Y-46516022D01*
X118823814Y-46501704D01*
X118827331Y-46487663D01*
X118832208Y-46474034D01*
X118838397Y-46460949D01*
X118845838Y-46448533D01*
X118854461Y-46436907D01*
X118864182Y-46426182D01*
X118874907Y-46416461D01*
X118886533Y-46407838D01*
X118898949Y-46400397D01*
X118912034Y-46394208D01*
X118925663Y-46389331D01*
X118939704Y-46385814D01*
X118954022Y-46383690D01*
X118968480Y-46382980D01*
X119263480Y-46382980D01*
X119277938Y-46383690D01*
X119277938Y-46383690D01*
G37*
D16*
X119115980Y-46702980D03*
D12*
X118980540Y-41181020D03*
X119530540Y-41181020D03*
X119621980Y-47464980D03*
X119071980Y-47464980D03*
D10*
X122267980Y-49134440D03*
X122267980Y-48584440D03*
X120992900Y-50813880D03*
X120992900Y-51363880D03*
D17*
X116441000Y-41001060D03*
D18*
X116481000Y-41501060D03*
X116481000Y-42001060D03*
X115421000Y-42001060D03*
X115421000Y-41501060D03*
X115421000Y-41001060D03*
D19*
X121610120Y-45473620D03*
X118369080Y-48064420D03*
X119781320Y-48204120D03*
X114962940Y-51818540D03*
X121437400Y-51795680D03*
X114960400Y-50850795D03*
X121954244Y-44524976D03*
X121922540Y-51188620D03*
X116918000Y-47451200D03*
X121588000Y-48451200D03*
X115570000Y-51333395D03*
X116918000Y-45951200D03*
X114955320Y-43119040D03*
X121588000Y-47451200D03*
X121588000Y-47951200D03*
X121594880Y-49448720D03*
X121587260Y-48948340D03*
X121588000Y-46951200D03*
X115570000Y-45542201D03*
X114960400Y-48920397D03*
X115570000Y-50368196D03*
X115570000Y-44577002D03*
X119503000Y-45366200D03*
X114958144Y-44096712D03*
X119003000Y-45366200D03*
X114960400Y-45059601D03*
X118503000Y-45366200D03*
X114962940Y-46019720D03*
X118003000Y-45366200D03*
X115559840Y-46522640D03*
X117497860Y-45399960D03*
X116895880Y-46454060D03*
X115577620Y-47482760D03*
D20*
X119767620Y-48209200D02*
X119401420Y-48209200D01*
X119036420Y-47500540D02*
X119071980Y-47464980D01*
X118365360Y-48060020D02*
X118372300Y-48066960D01*
X118365360Y-47500540D02*
X118365360Y-48060020D01*
X119901380Y-49659540D02*
X119905780Y-49655140D01*
X119346980Y-49659540D02*
X119901380Y-49659540D01*
X120330640Y-49655140D02*
X120637300Y-49961800D01*
X119905780Y-49655140D02*
X120330640Y-49655140D01*
X120873520Y-45493940D02*
X120878600Y-45499020D01*
X120289320Y-45493940D02*
X120873520Y-45493940D01*
X121549160Y-45499020D02*
X121584720Y-45463460D01*
X120878600Y-45499020D02*
X121549160Y-45499020D01*
X119071980Y-47464980D02*
X119071980Y-47432640D01*
X119323941Y-47180679D02*
X119514441Y-47180679D01*
X119071980Y-47432640D02*
X119323941Y-47180679D01*
X119514441Y-47180679D02*
X119585740Y-47109380D01*
X120274320Y-45493940D02*
X120289320Y-45493940D01*
X119585740Y-46182520D02*
X120274320Y-45493940D01*
X119585740Y-47109380D02*
X119585740Y-46182520D01*
X117187980Y-48468960D02*
X117190520Y-48471500D01*
X116583460Y-48468960D02*
X117187980Y-48468960D01*
X119395240Y-48209200D02*
X119767620Y-48209200D01*
X119253000Y-48066960D02*
X119395240Y-48209200D01*
X119071980Y-47885940D02*
X119253000Y-48066960D01*
X119071980Y-47464980D02*
X119071980Y-47885940D01*
X116474240Y-43625000D02*
X116489480Y-43609760D01*
X115450620Y-43625000D02*
X116474240Y-43625000D01*
D21*
X118193820Y-46569040D02*
X118202120Y-46569040D01*
X116568460Y-48468960D02*
X116583460Y-48468960D01*
X116207540Y-48108040D02*
X116568460Y-48468960D01*
X116207540Y-46570900D02*
X116207540Y-48108040D01*
X116365020Y-46413420D02*
X116207540Y-46570900D01*
X116489480Y-43609760D02*
X116365020Y-43734220D01*
X116365020Y-43734220D02*
X116365020Y-46413420D01*
D20*
X121005600Y-51363880D02*
X121437400Y-51795680D01*
X120992900Y-51363880D02*
X121005600Y-51363880D01*
X121683780Y-51549300D02*
X121437400Y-51795680D01*
X121683780Y-51362020D02*
X121683780Y-51549300D01*
X116802400Y-43032680D02*
X116489480Y-42719760D01*
X117724460Y-43032680D02*
X116802400Y-43032680D01*
X116474240Y-42735000D02*
X116489480Y-42719760D01*
X115450620Y-42735000D02*
X116474240Y-42735000D01*
D21*
X121702797Y-44524976D02*
X121954244Y-44524976D01*
X118341756Y-44524976D02*
X121702797Y-44524976D01*
X117724460Y-43907680D02*
X118341756Y-44524976D01*
X117724460Y-43032680D02*
X117724460Y-43907680D01*
D20*
X117724460Y-42157680D02*
X117724460Y-43032680D01*
X118701120Y-41181020D02*
X117724460Y-42157680D01*
X118980540Y-41181020D02*
X118701120Y-41181020D01*
X116918000Y-47648980D02*
X117190520Y-47921500D01*
X116918000Y-47451200D02*
X116918000Y-47648980D01*
X116918000Y-47584420D02*
X116583460Y-47918960D01*
X116918000Y-47451200D02*
X116918000Y-47584420D01*
X117574060Y-46019040D02*
X118193820Y-46019040D01*
X118193820Y-46019040D02*
X118904340Y-46019040D01*
X119115980Y-46230680D02*
X119115980Y-46702980D01*
X118904340Y-46019040D02*
X119115980Y-46230680D01*
X117815360Y-48060020D02*
X117822300Y-48066960D01*
X117815360Y-47500540D02*
X117815360Y-48060020D01*
X117676840Y-47921500D02*
X117822300Y-48066960D01*
X117190520Y-47921500D02*
X117676840Y-47921500D01*
X117559060Y-46019040D02*
X117574060Y-46019040D01*
X117822300Y-48066960D02*
X117822300Y-49323580D01*
X118117220Y-49323580D02*
X118661180Y-49867540D01*
X117822300Y-49323580D02*
X118117220Y-49323580D01*
X121023820Y-48209200D02*
X121277820Y-48463200D01*
X120657620Y-48209200D02*
X121023820Y-48209200D01*
X121277820Y-48463200D02*
X121576000Y-48463200D01*
X121576000Y-48463200D02*
X121588000Y-48451200D01*
X118995348Y-50201708D02*
X119310028Y-50201708D01*
X118661180Y-49867540D02*
X118995348Y-50201708D01*
X117506220Y-45951200D02*
X117574060Y-46019040D01*
X116918000Y-45951200D02*
X117506220Y-45951200D01*
D21*
X121798000Y-48451200D02*
X121588000Y-48451200D01*
D20*
X115570005Y-51333400D02*
X115570000Y-51333395D01*
X118303041Y-50063399D02*
X118303041Y-50413919D01*
X118661180Y-49867540D02*
X118498900Y-49867540D01*
X118498900Y-49867540D02*
X118303041Y-50063399D01*
D21*
X114926747Y-43137453D02*
X114907868Y-43137453D01*
X121931240Y-48584440D02*
X122267980Y-48584440D01*
X121798000Y-48451200D02*
X121931240Y-48584440D01*
D20*
X122360500Y-47451200D02*
X122374660Y-47437040D01*
X121588000Y-47451200D02*
X122360500Y-47451200D01*
X122374660Y-46655840D02*
X122374660Y-46887040D01*
X122374660Y-44532300D02*
X122374660Y-46655840D01*
X121851420Y-44009060D02*
X122374660Y-44532300D01*
X121851420Y-43614060D02*
X121851420Y-44009060D01*
X120245460Y-47464980D02*
X120255620Y-47454820D01*
X119621980Y-47464980D02*
X120245460Y-47464980D01*
X120805620Y-47469820D02*
X121260520Y-47924720D01*
X120805620Y-47454820D02*
X120805620Y-47469820D01*
X121260520Y-47924720D02*
X121561520Y-47924720D01*
X121561520Y-47924720D02*
X121588000Y-47951200D01*
D21*
X122252980Y-49134440D02*
X121938700Y-49448720D01*
X122267980Y-49134440D02*
X122252980Y-49134440D01*
X121938700Y-49448720D02*
X121594880Y-49448720D01*
D20*
X121594880Y-50723120D02*
X121683780Y-50812020D01*
X121594880Y-49448720D02*
X121594880Y-50723120D01*
X119134980Y-48897540D02*
X119346980Y-49109540D01*
X118661180Y-48897540D02*
X119134980Y-48897540D01*
X119901380Y-49109540D02*
X119905780Y-49105140D01*
X119346980Y-49109540D02*
X119901380Y-49109540D01*
X120603960Y-49105140D02*
X120637300Y-49071800D01*
X119905780Y-49105140D02*
X120603960Y-49105140D01*
X121028500Y-49071800D02*
X121151960Y-48948340D01*
X120637300Y-49071800D02*
X121028500Y-49071800D01*
X121151960Y-48948340D02*
X121587260Y-48948340D01*
X120085980Y-46247280D02*
X120289320Y-46043940D01*
X120085980Y-46702980D02*
X120085980Y-46247280D01*
X120873520Y-46043940D02*
X120878600Y-46049020D01*
X120289320Y-46043940D02*
X120873520Y-46043940D01*
X121280280Y-46049020D02*
X121584720Y-46353460D01*
X120878600Y-46049020D02*
X121280280Y-46049020D01*
X121588000Y-46356740D02*
X121584720Y-46353460D01*
X121588000Y-46951200D02*
X121588000Y-46356740D01*
X121163080Y-42644060D02*
X120774460Y-43032680D01*
X121851420Y-42644060D02*
X121163080Y-42644060D01*
X120774460Y-42157680D02*
X120774460Y-43032680D01*
X119797800Y-41181020D02*
X120774460Y-42157680D01*
X119530540Y-41181020D02*
X119797800Y-41181020D01*
M02*
