G04 #@! TF.GenerationSoftware,KiCad,Pcbnew,(5.1.0)-1*
G04 #@! TF.CreationDate,2019-05-02T14:04:18-07:00*
G04 #@! TF.ProjectId,Miniscope-v4-Ser-Pow,4d696e69-7363-46f7-9065-2d76342d5365,rev?*
G04 #@! TF.SameCoordinates,Original*
G04 #@! TF.FileFunction,Copper,L1,Top*
G04 #@! TF.FilePolarity,Positive*
%FSLAX46Y46*%
G04 Gerber Fmt 4.6, Leading zero omitted, Abs format (unit mm)*
G04 Created by KiCad (PCBNEW (5.1.0)-1) date 2019-05-02 14:04:18*
%MOMM*%
%LPD*%
G04 APERTURE LIST*
%ADD10R,2.500000X2.500000*%
%ADD11R,1.050000X1.000000*%
%ADD12R,2.200000X1.050000*%
%ADD13C,0.508000*%
%ADD14R,0.310000X0.340000*%
%ADD15R,0.340000X0.310000*%
%ADD16R,0.260000X0.680000*%
%ADD17R,0.680000X0.260000*%
%ADD18R,3.100000X3.100000*%
%ADD19C,0.355600*%
%ADD20C,0.127000*%
%ADD21C,0.076200*%
G04 APERTURE END LIST*
D10*
X117789960Y-42572940D03*
D11*
X122150000Y-42402760D03*
D12*
X120650000Y-43877760D03*
X120650000Y-40927760D03*
D13*
X121920000Y-51186080D03*
X121437400Y-51795680D03*
X120954801Y-51186080D03*
X120472201Y-51795680D03*
X119989602Y-51186080D03*
X118800880Y-51150520D03*
X118318280Y-51760120D03*
X117835681Y-51150520D03*
X117353081Y-51760120D03*
X116870482Y-51150520D03*
D14*
X115452480Y-40424100D03*
X116002480Y-40424100D03*
X117345460Y-40485060D03*
X116795460Y-40485060D03*
D15*
X118033800Y-40980360D03*
X118033800Y-40430360D03*
D13*
X115570000Y-42646604D03*
X114960400Y-43129203D03*
X115570000Y-43611803D03*
X114960400Y-44094402D03*
X115570000Y-44577002D03*
X114960400Y-45059601D03*
X115570000Y-45542201D03*
X114960400Y-46024800D03*
X115570000Y-46507400D03*
X114960400Y-46989999D03*
X115570000Y-47472599D03*
X114960400Y-47955198D03*
X115570000Y-48437798D03*
X114960400Y-48920397D03*
X115570000Y-49402997D03*
X114960400Y-49885596D03*
X115570000Y-50368196D03*
X114960400Y-50850795D03*
X115570000Y-51333395D03*
X114960400Y-51815994D03*
D16*
X117503000Y-50036200D03*
X118003000Y-50036200D03*
X118503000Y-50036200D03*
X119003000Y-50036200D03*
X119503000Y-50036200D03*
X120003000Y-50036200D03*
X120503000Y-50036200D03*
X121003000Y-50036200D03*
D17*
X121588000Y-49451200D03*
X121588000Y-48951200D03*
X121588000Y-48451200D03*
X121588000Y-47951200D03*
X121588000Y-47451200D03*
X121588000Y-46951200D03*
X121588000Y-46451200D03*
X121588000Y-45951200D03*
D16*
X121003000Y-45366200D03*
X120503000Y-45366200D03*
X120003000Y-45366200D03*
X119503000Y-45366200D03*
X119003000Y-45366200D03*
X118503000Y-45366200D03*
X118003000Y-45366200D03*
X117503000Y-45366200D03*
D17*
X116918000Y-45951200D03*
X116918000Y-46451200D03*
X116918000Y-46951200D03*
X116918000Y-47451200D03*
X116918000Y-47951200D03*
X116918000Y-48451200D03*
X116918000Y-48951200D03*
X116918000Y-49451200D03*
D18*
X119253000Y-47701200D03*
D19*
X121610120Y-45473620D03*
X118369080Y-48064420D03*
X119781320Y-48204120D03*
X114962940Y-51818540D03*
X121437400Y-51795680D03*
X114960400Y-50850795D03*
X121954244Y-44524976D03*
X121922540Y-51188620D03*
X116918000Y-47451200D03*
X121588000Y-48451200D03*
X115570000Y-51333395D03*
X116918000Y-45951200D03*
X114955320Y-43119040D03*
X121588000Y-47451200D03*
X121588000Y-47951200D03*
X121594880Y-49448720D03*
X121587260Y-48948340D03*
X121588000Y-46951200D03*
X115570000Y-45542201D03*
X114960400Y-48920397D03*
X115570000Y-50368196D03*
X115570000Y-44577002D03*
X119503000Y-45366200D03*
X114958144Y-44096712D03*
X119003000Y-45366200D03*
X114960400Y-45059601D03*
X118503000Y-45366200D03*
X114962940Y-46019720D03*
X118003000Y-45366200D03*
X115559840Y-46522640D03*
X117497860Y-45399960D03*
X116895880Y-46454060D03*
X115577620Y-47482760D03*
D20*
X119253000Y-48819200D02*
X119253000Y-47701200D01*
X120003000Y-50036200D02*
X120503000Y-50036200D01*
D21*
X119253000Y-48870000D02*
X119253000Y-47701200D01*
X120003000Y-49620000D02*
X119253000Y-48870000D01*
X120003000Y-50036200D02*
X120003000Y-49620000D01*
X120003000Y-50036200D02*
X120003000Y-49669000D01*
D20*
X119253000Y-47619920D02*
X118531640Y-46898560D01*
X119253000Y-47701200D02*
X119253000Y-47619920D01*
X119009160Y-47701200D02*
X118135400Y-48574960D01*
X119253000Y-47701200D02*
X119009160Y-47701200D01*
D21*
X121955560Y-44523660D02*
X121954244Y-44524976D01*
X118503000Y-50483201D02*
X118503000Y-50036200D01*
X117835681Y-51150520D02*
X118503000Y-50483201D01*
X116342900Y-50036200D02*
X117503000Y-50036200D01*
X115963696Y-49656996D02*
X116342900Y-50036200D01*
X115570000Y-49402997D02*
X115823999Y-49656996D01*
X115823999Y-49656996D02*
X115963696Y-49656996D01*
D20*
X119529860Y-50063060D02*
X119503000Y-50036200D01*
D21*
X114960400Y-49885596D02*
X115074699Y-49999895D01*
X115717316Y-49885596D02*
X116354860Y-50523140D01*
X114960400Y-49885596D02*
X115717316Y-49885596D01*
D20*
X118935500Y-50103700D02*
X119003000Y-50036200D01*
X120003000Y-45156200D02*
X120003000Y-45366200D01*
X119583820Y-44737020D02*
X120003000Y-45156200D01*
X117054427Y-44737020D02*
X119583820Y-44737020D01*
X115570000Y-43611803D02*
X115929210Y-43611803D01*
X115929210Y-43611803D02*
X117054427Y-44737020D01*
D21*
X119003000Y-45156200D02*
X119003000Y-45366200D01*
D20*
X114960400Y-44094402D02*
X114960400Y-44094456D01*
X114960400Y-44094456D02*
X114958144Y-44096712D01*
D21*
X116879201Y-46989999D02*
X116918000Y-46951200D01*
X114960400Y-46989999D02*
X116879201Y-46989999D01*
X116914002Y-47955198D02*
X116918000Y-47951200D01*
X114960400Y-47955198D02*
X116914002Y-47955198D01*
D20*
X115583402Y-48451200D02*
X115570000Y-48437798D01*
D21*
X116904598Y-48437798D02*
X116918000Y-48451200D01*
X115570000Y-48437798D02*
X116904598Y-48437798D01*
M02*
