G04 #@! TF.GenerationSoftware,KiCad,Pcbnew,(5.1.0)-1*
G04 #@! TF.CreationDate,2019-05-02T14:04:18-07:00*
G04 #@! TF.ProjectId,Miniscope-v4-Ser-Pow,4d696e69-7363-46f7-9065-2d76342d5365,rev?*
G04 #@! TF.SameCoordinates,Original*
G04 #@! TF.FileFunction,Soldermask,Top*
G04 #@! TF.FilePolarity,Negative*
%FSLAX46Y46*%
G04 Gerber Fmt 4.6, Leading zero omitted, Abs format (unit mm)*
G04 Created by KiCad (PCBNEW (5.1.0)-1) date 2019-05-02 14:04:18*
%MOMM*%
%LPD*%
G04 APERTURE LIST*
%ADD10C,0.100000*%
G04 APERTURE END LIST*
D10*
G36*
X115658964Y-42353324D02*
G01*
X115714470Y-42376315D01*
X115714472Y-42376316D01*
X115739619Y-42393119D01*
X115764425Y-42409694D01*
X115806910Y-42452179D01*
X115840289Y-42502134D01*
X115863280Y-42557640D01*
X115875000Y-42616562D01*
X115875000Y-42676646D01*
X115863280Y-42735568D01*
X115840289Y-42791074D01*
X115810322Y-42835923D01*
X115806909Y-42841030D01*
X115764426Y-42883513D01*
X115714472Y-42916892D01*
X115714471Y-42916893D01*
X115714470Y-42916893D01*
X115658964Y-42939884D01*
X115600042Y-42951604D01*
X115539958Y-42951604D01*
X115481038Y-42939885D01*
X115427565Y-42917736D01*
X115404116Y-42910624D01*
X115379730Y-42908222D01*
X115355344Y-42910624D01*
X115331895Y-42917738D01*
X115310284Y-42929289D01*
X115291342Y-42944834D01*
X115275797Y-42963776D01*
X115264246Y-42985387D01*
X115257134Y-43008836D01*
X115254732Y-43033222D01*
X115257134Y-43057607D01*
X115265400Y-43099162D01*
X115265400Y-43159244D01*
X115257134Y-43200801D01*
X115254732Y-43225188D01*
X115257134Y-43249574D01*
X115264247Y-43273023D01*
X115275798Y-43294633D01*
X115291344Y-43313575D01*
X115310286Y-43329120D01*
X115331897Y-43340671D01*
X115355345Y-43347784D01*
X115379732Y-43350186D01*
X115404118Y-43347784D01*
X115427566Y-43340671D01*
X115481036Y-43318523D01*
X115539958Y-43306803D01*
X115600042Y-43306803D01*
X115658964Y-43318523D01*
X115714470Y-43341514D01*
X115714472Y-43341515D01*
X115723854Y-43347784D01*
X115764425Y-43374893D01*
X115806910Y-43417378D01*
X115840289Y-43467333D01*
X115863280Y-43522839D01*
X115875000Y-43581761D01*
X115875000Y-43641845D01*
X115863280Y-43700767D01*
X115840289Y-43756273D01*
X115810322Y-43801122D01*
X115806909Y-43806229D01*
X115764426Y-43848712D01*
X115714472Y-43882091D01*
X115714471Y-43882092D01*
X115714470Y-43882092D01*
X115658964Y-43905083D01*
X115600042Y-43916803D01*
X115539958Y-43916803D01*
X115481038Y-43905084D01*
X115427565Y-43882935D01*
X115404116Y-43875823D01*
X115379730Y-43873421D01*
X115355344Y-43875823D01*
X115331895Y-43882937D01*
X115310284Y-43894488D01*
X115291342Y-43910033D01*
X115275797Y-43928975D01*
X115264246Y-43950586D01*
X115257134Y-43974035D01*
X115254732Y-43998421D01*
X115257134Y-44022806D01*
X115265400Y-44064361D01*
X115265400Y-44124443D01*
X115257134Y-44166000D01*
X115254732Y-44190387D01*
X115257134Y-44214773D01*
X115264247Y-44238222D01*
X115275798Y-44259832D01*
X115291344Y-44278774D01*
X115310286Y-44294319D01*
X115331897Y-44305870D01*
X115355345Y-44312983D01*
X115379732Y-44315385D01*
X115404118Y-44312983D01*
X115427566Y-44305870D01*
X115481036Y-44283722D01*
X115539958Y-44272002D01*
X115600042Y-44272002D01*
X115658964Y-44283722D01*
X115714470Y-44306713D01*
X115714472Y-44306714D01*
X115723854Y-44312983D01*
X115764425Y-44340092D01*
X115806910Y-44382577D01*
X115840289Y-44432532D01*
X115863280Y-44488038D01*
X115875000Y-44546960D01*
X115875000Y-44607044D01*
X115863280Y-44665966D01*
X115840289Y-44721472D01*
X115810322Y-44766321D01*
X115806909Y-44771428D01*
X115764426Y-44813911D01*
X115714472Y-44847290D01*
X115714471Y-44847291D01*
X115714470Y-44847291D01*
X115658964Y-44870282D01*
X115600042Y-44882002D01*
X115539958Y-44882002D01*
X115481038Y-44870283D01*
X115427565Y-44848134D01*
X115404116Y-44841022D01*
X115379730Y-44838620D01*
X115355344Y-44841022D01*
X115331895Y-44848136D01*
X115310284Y-44859687D01*
X115291342Y-44875232D01*
X115275797Y-44894174D01*
X115264246Y-44915785D01*
X115257134Y-44939234D01*
X115254732Y-44963620D01*
X115257134Y-44988005D01*
X115265400Y-45029560D01*
X115265400Y-45089642D01*
X115257134Y-45131199D01*
X115254732Y-45155586D01*
X115257134Y-45179972D01*
X115264247Y-45203421D01*
X115275798Y-45225031D01*
X115291344Y-45243973D01*
X115310286Y-45259518D01*
X115331897Y-45271069D01*
X115355345Y-45278182D01*
X115379732Y-45280584D01*
X115404118Y-45278182D01*
X115427566Y-45271069D01*
X115481036Y-45248921D01*
X115539958Y-45237201D01*
X115600042Y-45237201D01*
X115658964Y-45248921D01*
X115714470Y-45271912D01*
X115714472Y-45271913D01*
X115723854Y-45278182D01*
X115764425Y-45305291D01*
X115806910Y-45347776D01*
X115840289Y-45397731D01*
X115863280Y-45453237D01*
X115875000Y-45512159D01*
X115875000Y-45572243D01*
X115863280Y-45631165D01*
X115840289Y-45686671D01*
X115810322Y-45731520D01*
X115806909Y-45736627D01*
X115764426Y-45779110D01*
X115714472Y-45812489D01*
X115714471Y-45812490D01*
X115714470Y-45812490D01*
X115658964Y-45835481D01*
X115600042Y-45847201D01*
X115539958Y-45847201D01*
X115481038Y-45835482D01*
X115427565Y-45813333D01*
X115404116Y-45806221D01*
X115379730Y-45803819D01*
X115355344Y-45806221D01*
X115331895Y-45813335D01*
X115310284Y-45824886D01*
X115291342Y-45840431D01*
X115275797Y-45859373D01*
X115264246Y-45880984D01*
X115257134Y-45904433D01*
X115254732Y-45928819D01*
X115257134Y-45953204D01*
X115265400Y-45994759D01*
X115265400Y-46054841D01*
X115257134Y-46096398D01*
X115254732Y-46120785D01*
X115257134Y-46145171D01*
X115264247Y-46168620D01*
X115275798Y-46190230D01*
X115291344Y-46209172D01*
X115310286Y-46224717D01*
X115331897Y-46236268D01*
X115355345Y-46243381D01*
X115379732Y-46245783D01*
X115404118Y-46243381D01*
X115427566Y-46236268D01*
X115481036Y-46214120D01*
X115539958Y-46202400D01*
X115600042Y-46202400D01*
X115658964Y-46214120D01*
X115714470Y-46237111D01*
X115714472Y-46237112D01*
X115723854Y-46243381D01*
X115764425Y-46270490D01*
X115806910Y-46312975D01*
X115840289Y-46362930D01*
X115863280Y-46418436D01*
X115875000Y-46477358D01*
X115875000Y-46537442D01*
X115863280Y-46596364D01*
X115840289Y-46651870D01*
X115810322Y-46696719D01*
X115806909Y-46701826D01*
X115764426Y-46744309D01*
X115714472Y-46777688D01*
X115714471Y-46777689D01*
X115714470Y-46777689D01*
X115658964Y-46800680D01*
X115600042Y-46812400D01*
X115539958Y-46812400D01*
X115481038Y-46800681D01*
X115427565Y-46778532D01*
X115404116Y-46771420D01*
X115379730Y-46769018D01*
X115355344Y-46771420D01*
X115331895Y-46778534D01*
X115310284Y-46790085D01*
X115291342Y-46805630D01*
X115275797Y-46824572D01*
X115264246Y-46846183D01*
X115257134Y-46869632D01*
X115254732Y-46894018D01*
X115257134Y-46918403D01*
X115265400Y-46959958D01*
X115265400Y-47020040D01*
X115257134Y-47061597D01*
X115254732Y-47085984D01*
X115257134Y-47110370D01*
X115264247Y-47133819D01*
X115275798Y-47155429D01*
X115291344Y-47174371D01*
X115310286Y-47189916D01*
X115331897Y-47201467D01*
X115355345Y-47208580D01*
X115379732Y-47210982D01*
X115404118Y-47208580D01*
X115427566Y-47201467D01*
X115481036Y-47179319D01*
X115539958Y-47167599D01*
X115600042Y-47167599D01*
X115658964Y-47179319D01*
X115714470Y-47202310D01*
X115714472Y-47202311D01*
X115723854Y-47208580D01*
X115764425Y-47235689D01*
X115806910Y-47278174D01*
X115840289Y-47328129D01*
X115863280Y-47383635D01*
X115875000Y-47442557D01*
X115875000Y-47502641D01*
X115863280Y-47561563D01*
X115840289Y-47617069D01*
X115810322Y-47661918D01*
X115806909Y-47667025D01*
X115764426Y-47709508D01*
X115714472Y-47742887D01*
X115714471Y-47742888D01*
X115714470Y-47742888D01*
X115658964Y-47765879D01*
X115600042Y-47777599D01*
X115539958Y-47777599D01*
X115481038Y-47765880D01*
X115427565Y-47743731D01*
X115404116Y-47736619D01*
X115379730Y-47734217D01*
X115355344Y-47736619D01*
X115331895Y-47743733D01*
X115310284Y-47755284D01*
X115291342Y-47770829D01*
X115275797Y-47789771D01*
X115264246Y-47811382D01*
X115257134Y-47834831D01*
X115254732Y-47859217D01*
X115257134Y-47883602D01*
X115265400Y-47925157D01*
X115265400Y-47985239D01*
X115257134Y-48026796D01*
X115254732Y-48051183D01*
X115257134Y-48075569D01*
X115264247Y-48099018D01*
X115275798Y-48120628D01*
X115291344Y-48139570D01*
X115310286Y-48155115D01*
X115331897Y-48166666D01*
X115355345Y-48173779D01*
X115379732Y-48176181D01*
X115404118Y-48173779D01*
X115427566Y-48166666D01*
X115481036Y-48144518D01*
X115539958Y-48132798D01*
X115600042Y-48132798D01*
X115658964Y-48144518D01*
X115714470Y-48167509D01*
X115714472Y-48167510D01*
X115723854Y-48173779D01*
X115764425Y-48200888D01*
X115806910Y-48243373D01*
X115840289Y-48293328D01*
X115863280Y-48348834D01*
X115875000Y-48407756D01*
X115875000Y-48467840D01*
X115863280Y-48526762D01*
X115840289Y-48582268D01*
X115810322Y-48627117D01*
X115806909Y-48632224D01*
X115764426Y-48674707D01*
X115714472Y-48708086D01*
X115714471Y-48708087D01*
X115714470Y-48708087D01*
X115658964Y-48731078D01*
X115600042Y-48742798D01*
X115539958Y-48742798D01*
X115481038Y-48731079D01*
X115427565Y-48708930D01*
X115404116Y-48701818D01*
X115379730Y-48699416D01*
X115355344Y-48701818D01*
X115331895Y-48708932D01*
X115310284Y-48720483D01*
X115291342Y-48736028D01*
X115275797Y-48754970D01*
X115264246Y-48776581D01*
X115257134Y-48800030D01*
X115254732Y-48824416D01*
X115257134Y-48848801D01*
X115265400Y-48890356D01*
X115265400Y-48950438D01*
X115257134Y-48991995D01*
X115254732Y-49016382D01*
X115257134Y-49040768D01*
X115264247Y-49064217D01*
X115275798Y-49085827D01*
X115291344Y-49104769D01*
X115310286Y-49120314D01*
X115331897Y-49131865D01*
X115355345Y-49138978D01*
X115379732Y-49141380D01*
X115404118Y-49138978D01*
X115427566Y-49131865D01*
X115481036Y-49109717D01*
X115539958Y-49097997D01*
X115600042Y-49097997D01*
X115658964Y-49109717D01*
X115714470Y-49132708D01*
X115714472Y-49132709D01*
X115723854Y-49138978D01*
X115764425Y-49166087D01*
X115806910Y-49208572D01*
X115840289Y-49258527D01*
X115863280Y-49314033D01*
X115875000Y-49372955D01*
X115875000Y-49433039D01*
X115863280Y-49491961D01*
X115840289Y-49547467D01*
X115810322Y-49592316D01*
X115806909Y-49597423D01*
X115764426Y-49639906D01*
X115714472Y-49673285D01*
X115714471Y-49673286D01*
X115714470Y-49673286D01*
X115658964Y-49696277D01*
X115600042Y-49707997D01*
X115539958Y-49707997D01*
X115481038Y-49696278D01*
X115427565Y-49674129D01*
X115404116Y-49667017D01*
X115379730Y-49664615D01*
X115355344Y-49667017D01*
X115331895Y-49674131D01*
X115310284Y-49685682D01*
X115291342Y-49701227D01*
X115275797Y-49720169D01*
X115264246Y-49741780D01*
X115257134Y-49765229D01*
X115254732Y-49789615D01*
X115257134Y-49814000D01*
X115265400Y-49855555D01*
X115265400Y-49915637D01*
X115257134Y-49957194D01*
X115254732Y-49981581D01*
X115257134Y-50005967D01*
X115264247Y-50029416D01*
X115275798Y-50051026D01*
X115291344Y-50069968D01*
X115310286Y-50085513D01*
X115331897Y-50097064D01*
X115355345Y-50104177D01*
X115379732Y-50106579D01*
X115404118Y-50104177D01*
X115427566Y-50097064D01*
X115481036Y-50074916D01*
X115539958Y-50063196D01*
X115600042Y-50063196D01*
X115658964Y-50074916D01*
X115714470Y-50097907D01*
X115714472Y-50097908D01*
X115723854Y-50104177D01*
X115764425Y-50131286D01*
X115806910Y-50173771D01*
X115840289Y-50223726D01*
X115863280Y-50279232D01*
X115875000Y-50338154D01*
X115875000Y-50398238D01*
X115863280Y-50457160D01*
X115840289Y-50512666D01*
X115810322Y-50557515D01*
X115806909Y-50562622D01*
X115764426Y-50605105D01*
X115714472Y-50638484D01*
X115714471Y-50638485D01*
X115714470Y-50638485D01*
X115658964Y-50661476D01*
X115600042Y-50673196D01*
X115539958Y-50673196D01*
X115481038Y-50661477D01*
X115427565Y-50639328D01*
X115404116Y-50632216D01*
X115379730Y-50629814D01*
X115355344Y-50632216D01*
X115331895Y-50639330D01*
X115310284Y-50650881D01*
X115291342Y-50666426D01*
X115275797Y-50685368D01*
X115264246Y-50706979D01*
X115257134Y-50730428D01*
X115254732Y-50754814D01*
X115257134Y-50779199D01*
X115265400Y-50820754D01*
X115265400Y-50880836D01*
X115257134Y-50922393D01*
X115254732Y-50946780D01*
X115257134Y-50971166D01*
X115264247Y-50994615D01*
X115275798Y-51016225D01*
X115291344Y-51035167D01*
X115310286Y-51050712D01*
X115331897Y-51062263D01*
X115355345Y-51069376D01*
X115379732Y-51071778D01*
X115404118Y-51069376D01*
X115427566Y-51062263D01*
X115481036Y-51040115D01*
X115539958Y-51028395D01*
X115600042Y-51028395D01*
X115658964Y-51040115D01*
X115714470Y-51063106D01*
X115714472Y-51063107D01*
X115723854Y-51069376D01*
X115764425Y-51096485D01*
X115806910Y-51138970D01*
X115840289Y-51188925D01*
X115863280Y-51244431D01*
X115875000Y-51303353D01*
X115875000Y-51363437D01*
X115863280Y-51422359D01*
X115844855Y-51466841D01*
X115840288Y-51477867D01*
X115831726Y-51490680D01*
X115809990Y-51523211D01*
X115806909Y-51527821D01*
X115764426Y-51570304D01*
X115714472Y-51603683D01*
X115714471Y-51603684D01*
X115714470Y-51603684D01*
X115658964Y-51626675D01*
X115600042Y-51638395D01*
X115539958Y-51638395D01*
X115481038Y-51626676D01*
X115427565Y-51604527D01*
X115404116Y-51597415D01*
X115379730Y-51595013D01*
X115355344Y-51597415D01*
X115331895Y-51604529D01*
X115310284Y-51616080D01*
X115291342Y-51631625D01*
X115275797Y-51650567D01*
X115264246Y-51672178D01*
X115257134Y-51695627D01*
X115254732Y-51720013D01*
X115257134Y-51744398D01*
X115265400Y-51785953D01*
X115265400Y-51846036D01*
X115253680Y-51904958D01*
X115230689Y-51960464D01*
X115197310Y-52010419D01*
X115154825Y-52052904D01*
X115135273Y-52065968D01*
X115104872Y-52086282D01*
X115104871Y-52086283D01*
X115104870Y-52086283D01*
X115049364Y-52109274D01*
X114990442Y-52120994D01*
X114930358Y-52120994D01*
X114871436Y-52109274D01*
X114815930Y-52086283D01*
X114815929Y-52086283D01*
X114815928Y-52086282D01*
X114785527Y-52065968D01*
X114765975Y-52052904D01*
X114723490Y-52010419D01*
X114690111Y-51960464D01*
X114667120Y-51904958D01*
X114655400Y-51846036D01*
X114655400Y-51785952D01*
X114667120Y-51727030D01*
X114690111Y-51671524D01*
X114690356Y-51671158D01*
X114720078Y-51626676D01*
X114723490Y-51621569D01*
X114765975Y-51579084D01*
X114806548Y-51551974D01*
X114815928Y-51545706D01*
X114815930Y-51545705D01*
X114871436Y-51522714D01*
X114930358Y-51510994D01*
X114990442Y-51510994D01*
X115049362Y-51522713D01*
X115102835Y-51544862D01*
X115126284Y-51551974D01*
X115150670Y-51554376D01*
X115175056Y-51551974D01*
X115198505Y-51544860D01*
X115220116Y-51533309D01*
X115239058Y-51517764D01*
X115254603Y-51498822D01*
X115266154Y-51477211D01*
X115273266Y-51453762D01*
X115275668Y-51429376D01*
X115273266Y-51404991D01*
X115265000Y-51363436D01*
X115265000Y-51303354D01*
X115273266Y-51261797D01*
X115275668Y-51237410D01*
X115273266Y-51213024D01*
X115266153Y-51189575D01*
X115254602Y-51167965D01*
X115239056Y-51149023D01*
X115220114Y-51133478D01*
X115198503Y-51121927D01*
X115175055Y-51114814D01*
X115150668Y-51112412D01*
X115126282Y-51114814D01*
X115102834Y-51121927D01*
X115049364Y-51144075D01*
X114990442Y-51155795D01*
X114930358Y-51155795D01*
X114871436Y-51144075D01*
X114815930Y-51121084D01*
X114815929Y-51121084D01*
X114815928Y-51121083D01*
X114790781Y-51104280D01*
X114765975Y-51087705D01*
X114723490Y-51045220D01*
X114690111Y-50995265D01*
X114667120Y-50939759D01*
X114655400Y-50880837D01*
X114655400Y-50820753D01*
X114667120Y-50761831D01*
X114690111Y-50706325D01*
X114723490Y-50656370D01*
X114765975Y-50613885D01*
X114806548Y-50586775D01*
X114815928Y-50580507D01*
X114815930Y-50580506D01*
X114871436Y-50557515D01*
X114930358Y-50545795D01*
X114990442Y-50545795D01*
X115049362Y-50557514D01*
X115102835Y-50579663D01*
X115126284Y-50586775D01*
X115150670Y-50589177D01*
X115175056Y-50586775D01*
X115198505Y-50579661D01*
X115220116Y-50568110D01*
X115239058Y-50552565D01*
X115254603Y-50533623D01*
X115266154Y-50512012D01*
X115273266Y-50488563D01*
X115275668Y-50464177D01*
X115273266Y-50439792D01*
X115265000Y-50398237D01*
X115265000Y-50338155D01*
X115273266Y-50296598D01*
X115275668Y-50272211D01*
X115273266Y-50247825D01*
X115266153Y-50224376D01*
X115254602Y-50202766D01*
X115239056Y-50183824D01*
X115220114Y-50168279D01*
X115198503Y-50156728D01*
X115175055Y-50149615D01*
X115150668Y-50147213D01*
X115126282Y-50149615D01*
X115102834Y-50156728D01*
X115049364Y-50178876D01*
X114990442Y-50190596D01*
X114930358Y-50190596D01*
X114871436Y-50178876D01*
X114815930Y-50155885D01*
X114815929Y-50155885D01*
X114815928Y-50155884D01*
X114765974Y-50122505D01*
X114723491Y-50080022D01*
X114690112Y-50030068D01*
X114680129Y-50005967D01*
X114667120Y-49974560D01*
X114655400Y-49915638D01*
X114655400Y-49855554D01*
X114667120Y-49796632D01*
X114690111Y-49741126D01*
X114695666Y-49732813D01*
X114720078Y-49696278D01*
X114723490Y-49691171D01*
X114765975Y-49648686D01*
X114790781Y-49632111D01*
X114815928Y-49615308D01*
X114815930Y-49615307D01*
X114871436Y-49592316D01*
X114930358Y-49580596D01*
X114990442Y-49580596D01*
X115049362Y-49592315D01*
X115102835Y-49614464D01*
X115126284Y-49621576D01*
X115150670Y-49623978D01*
X115175056Y-49621576D01*
X115198505Y-49614462D01*
X115220116Y-49602911D01*
X115239058Y-49587366D01*
X115254603Y-49568424D01*
X115266154Y-49546813D01*
X115273266Y-49523364D01*
X115275668Y-49498978D01*
X115273266Y-49474593D01*
X115265000Y-49433038D01*
X115265000Y-49372956D01*
X115273266Y-49331399D01*
X115275668Y-49307012D01*
X115273266Y-49282626D01*
X115266153Y-49259177D01*
X115254602Y-49237567D01*
X115239056Y-49218625D01*
X115220114Y-49203080D01*
X115198503Y-49191529D01*
X115175055Y-49184416D01*
X115150668Y-49182014D01*
X115126282Y-49184416D01*
X115102834Y-49191529D01*
X115049364Y-49213677D01*
X114990442Y-49225397D01*
X114930358Y-49225397D01*
X114871436Y-49213677D01*
X114815930Y-49190686D01*
X114815929Y-49190686D01*
X114815928Y-49190685D01*
X114765974Y-49157306D01*
X114723491Y-49114823D01*
X114690112Y-49064869D01*
X114680129Y-49040768D01*
X114667120Y-49009361D01*
X114655400Y-48950439D01*
X114655400Y-48890355D01*
X114667120Y-48831433D01*
X114690111Y-48775927D01*
X114693938Y-48770200D01*
X114720078Y-48731079D01*
X114723490Y-48725972D01*
X114765975Y-48683487D01*
X114806548Y-48656377D01*
X114815928Y-48650109D01*
X114815930Y-48650108D01*
X114871436Y-48627117D01*
X114930358Y-48615397D01*
X114990442Y-48615397D01*
X115049362Y-48627116D01*
X115102835Y-48649265D01*
X115126284Y-48656377D01*
X115150670Y-48658779D01*
X115175056Y-48656377D01*
X115198505Y-48649263D01*
X115220116Y-48637712D01*
X115239058Y-48622167D01*
X115254603Y-48603225D01*
X115266154Y-48581614D01*
X115273266Y-48558165D01*
X115275668Y-48533779D01*
X115273266Y-48509394D01*
X115265000Y-48467839D01*
X115265000Y-48407757D01*
X115273266Y-48366200D01*
X115275668Y-48341813D01*
X115273266Y-48317427D01*
X115266153Y-48293978D01*
X115254602Y-48272368D01*
X115239056Y-48253426D01*
X115220114Y-48237881D01*
X115198503Y-48226330D01*
X115175055Y-48219217D01*
X115150668Y-48216815D01*
X115126282Y-48219217D01*
X115102834Y-48226330D01*
X115049364Y-48248478D01*
X114990442Y-48260198D01*
X114930358Y-48260198D01*
X114871436Y-48248478D01*
X114815930Y-48225487D01*
X114815929Y-48225487D01*
X114815928Y-48225486D01*
X114765974Y-48192107D01*
X114723491Y-48149624D01*
X114690112Y-48099670D01*
X114680129Y-48075569D01*
X114667120Y-48044162D01*
X114655400Y-47985240D01*
X114655400Y-47925156D01*
X114667120Y-47866234D01*
X114690111Y-47810728D01*
X114723490Y-47760773D01*
X114765975Y-47718288D01*
X114806548Y-47691178D01*
X114815928Y-47684910D01*
X114815930Y-47684909D01*
X114871436Y-47661918D01*
X114930358Y-47650198D01*
X114990442Y-47650198D01*
X115049362Y-47661917D01*
X115102835Y-47684066D01*
X115126284Y-47691178D01*
X115150670Y-47693580D01*
X115175056Y-47691178D01*
X115198505Y-47684064D01*
X115220116Y-47672513D01*
X115239058Y-47656968D01*
X115254603Y-47638026D01*
X115266154Y-47616415D01*
X115273266Y-47592966D01*
X115275668Y-47568580D01*
X115273266Y-47544195D01*
X115265000Y-47502640D01*
X115265000Y-47442558D01*
X115273266Y-47401001D01*
X115275668Y-47376614D01*
X115273266Y-47352228D01*
X115266153Y-47328779D01*
X115254602Y-47307169D01*
X115239056Y-47288227D01*
X115220114Y-47272682D01*
X115198503Y-47261131D01*
X115175055Y-47254018D01*
X115150668Y-47251616D01*
X115126282Y-47254018D01*
X115102834Y-47261131D01*
X115049364Y-47283279D01*
X114990442Y-47294999D01*
X114930358Y-47294999D01*
X114871436Y-47283279D01*
X114815930Y-47260288D01*
X114815929Y-47260288D01*
X114815928Y-47260287D01*
X114765974Y-47226908D01*
X114723491Y-47184425D01*
X114690112Y-47134471D01*
X114680129Y-47110370D01*
X114667120Y-47078963D01*
X114655400Y-47020041D01*
X114655400Y-46959957D01*
X114667120Y-46901035D01*
X114690111Y-46845529D01*
X114723490Y-46795574D01*
X114765975Y-46753089D01*
X114806548Y-46725979D01*
X114815928Y-46719711D01*
X114815930Y-46719710D01*
X114871436Y-46696719D01*
X114930358Y-46684999D01*
X114990442Y-46684999D01*
X115049362Y-46696718D01*
X115102835Y-46718867D01*
X115126284Y-46725979D01*
X115150670Y-46728381D01*
X115175056Y-46725979D01*
X115198505Y-46718865D01*
X115220116Y-46707314D01*
X115239058Y-46691769D01*
X115254603Y-46672827D01*
X115266154Y-46651216D01*
X115273266Y-46627767D01*
X115275668Y-46603381D01*
X115273266Y-46578996D01*
X115265000Y-46537441D01*
X115265000Y-46477359D01*
X115273266Y-46435802D01*
X115275668Y-46411415D01*
X115273266Y-46387029D01*
X115266153Y-46363580D01*
X115254602Y-46341970D01*
X115239056Y-46323028D01*
X115220114Y-46307483D01*
X115198503Y-46295932D01*
X115175055Y-46288819D01*
X115150668Y-46286417D01*
X115126282Y-46288819D01*
X115102834Y-46295932D01*
X115049364Y-46318080D01*
X114990442Y-46329800D01*
X114930358Y-46329800D01*
X114871436Y-46318080D01*
X114815930Y-46295089D01*
X114815929Y-46295089D01*
X114815928Y-46295088D01*
X114765974Y-46261709D01*
X114723491Y-46219226D01*
X114690112Y-46169272D01*
X114680129Y-46145171D01*
X114667120Y-46113764D01*
X114655400Y-46054842D01*
X114655400Y-45994758D01*
X114667120Y-45935836D01*
X114690111Y-45880330D01*
X114723490Y-45830375D01*
X114765975Y-45787890D01*
X114806690Y-45760685D01*
X114815928Y-45754512D01*
X114815930Y-45754511D01*
X114871436Y-45731520D01*
X114930358Y-45719800D01*
X114990442Y-45719800D01*
X115049362Y-45731519D01*
X115102835Y-45753668D01*
X115126284Y-45760780D01*
X115150670Y-45763182D01*
X115175056Y-45760780D01*
X115198505Y-45753666D01*
X115220116Y-45742115D01*
X115239058Y-45726570D01*
X115254603Y-45707628D01*
X115266154Y-45686017D01*
X115273266Y-45662568D01*
X115275668Y-45638182D01*
X115273266Y-45613797D01*
X115265000Y-45572242D01*
X115265000Y-45512160D01*
X115273266Y-45470603D01*
X115275668Y-45446216D01*
X115273266Y-45421830D01*
X115266153Y-45398381D01*
X115254602Y-45376771D01*
X115239056Y-45357829D01*
X115220114Y-45342284D01*
X115198503Y-45330733D01*
X115175055Y-45323620D01*
X115150668Y-45321218D01*
X115126282Y-45323620D01*
X115102834Y-45330733D01*
X115049364Y-45352881D01*
X114990442Y-45364601D01*
X114930358Y-45364601D01*
X114871436Y-45352881D01*
X114815930Y-45329890D01*
X114815929Y-45329890D01*
X114815928Y-45329889D01*
X114765974Y-45296510D01*
X114723491Y-45254027D01*
X114690112Y-45204073D01*
X114680129Y-45179972D01*
X114667120Y-45148565D01*
X114655400Y-45089643D01*
X114655400Y-45029559D01*
X114667120Y-44970637D01*
X114690111Y-44915131D01*
X114723490Y-44865176D01*
X114765975Y-44822691D01*
X114806548Y-44795581D01*
X114815928Y-44789313D01*
X114815930Y-44789312D01*
X114871436Y-44766321D01*
X114930358Y-44754601D01*
X114990442Y-44754601D01*
X115049362Y-44766320D01*
X115102835Y-44788469D01*
X115126284Y-44795581D01*
X115150670Y-44797983D01*
X115175056Y-44795581D01*
X115198505Y-44788467D01*
X115220116Y-44776916D01*
X115239058Y-44761371D01*
X115254603Y-44742429D01*
X115266154Y-44720818D01*
X115273266Y-44697369D01*
X115275668Y-44672983D01*
X115273266Y-44648598D01*
X115265000Y-44607043D01*
X115265000Y-44546961D01*
X115273266Y-44505404D01*
X115275668Y-44481017D01*
X115273266Y-44456631D01*
X115266153Y-44433182D01*
X115254602Y-44411572D01*
X115239056Y-44392630D01*
X115220114Y-44377085D01*
X115198503Y-44365534D01*
X115175055Y-44358421D01*
X115150668Y-44356019D01*
X115126282Y-44358421D01*
X115102834Y-44365534D01*
X115049364Y-44387682D01*
X114990442Y-44399402D01*
X114930358Y-44399402D01*
X114871436Y-44387682D01*
X114815930Y-44364691D01*
X114815929Y-44364691D01*
X114815928Y-44364690D01*
X114765974Y-44331311D01*
X114723491Y-44288828D01*
X114690112Y-44238874D01*
X114680129Y-44214773D01*
X114667120Y-44183366D01*
X114655400Y-44124444D01*
X114655400Y-44064360D01*
X114667120Y-44005438D01*
X114690111Y-43949932D01*
X114723490Y-43899977D01*
X114765975Y-43857492D01*
X114806548Y-43830382D01*
X114815928Y-43824114D01*
X114815930Y-43824113D01*
X114871436Y-43801122D01*
X114930358Y-43789402D01*
X114990442Y-43789402D01*
X115049362Y-43801121D01*
X115102835Y-43823270D01*
X115126284Y-43830382D01*
X115150670Y-43832784D01*
X115175056Y-43830382D01*
X115198505Y-43823268D01*
X115220116Y-43811717D01*
X115239058Y-43796172D01*
X115254603Y-43777230D01*
X115266154Y-43755619D01*
X115273266Y-43732170D01*
X115275668Y-43707784D01*
X115273266Y-43683399D01*
X115265000Y-43641844D01*
X115265000Y-43581762D01*
X115273266Y-43540205D01*
X115275668Y-43515818D01*
X115273266Y-43491432D01*
X115266153Y-43467983D01*
X115254602Y-43446373D01*
X115239056Y-43427431D01*
X115220114Y-43411886D01*
X115198503Y-43400335D01*
X115175055Y-43393222D01*
X115150668Y-43390820D01*
X115126282Y-43393222D01*
X115102834Y-43400335D01*
X115049364Y-43422483D01*
X114990442Y-43434203D01*
X114930358Y-43434203D01*
X114871436Y-43422483D01*
X114815930Y-43399492D01*
X114815929Y-43399492D01*
X114815928Y-43399491D01*
X114765974Y-43366112D01*
X114723491Y-43323629D01*
X114690112Y-43273675D01*
X114680129Y-43249574D01*
X114667120Y-43218167D01*
X114655400Y-43159245D01*
X114655400Y-43099161D01*
X114667120Y-43040239D01*
X114690111Y-42984733D01*
X114723490Y-42934778D01*
X114765975Y-42892293D01*
X114806548Y-42865183D01*
X114815928Y-42858915D01*
X114815930Y-42858914D01*
X114871436Y-42835923D01*
X114930358Y-42824203D01*
X114990442Y-42824203D01*
X115049362Y-42835922D01*
X115102835Y-42858071D01*
X115126284Y-42865183D01*
X115150670Y-42867585D01*
X115175056Y-42865183D01*
X115198505Y-42858069D01*
X115220116Y-42846518D01*
X115239058Y-42830973D01*
X115254603Y-42812031D01*
X115266154Y-42790420D01*
X115273266Y-42766971D01*
X115275668Y-42742585D01*
X115273266Y-42718200D01*
X115265000Y-42676645D01*
X115265000Y-42616562D01*
X115276720Y-42557640D01*
X115299711Y-42502134D01*
X115333090Y-42452179D01*
X115375575Y-42409694D01*
X115400381Y-42393119D01*
X115425528Y-42376316D01*
X115425530Y-42376315D01*
X115481036Y-42353324D01*
X115539958Y-42341604D01*
X115600042Y-42341604D01*
X115658964Y-42353324D01*
X115658964Y-42353324D01*
G37*
G36*
X120078566Y-50892800D02*
G01*
X120134072Y-50915791D01*
X120134074Y-50915792D01*
X120143953Y-50922393D01*
X120184027Y-50949170D01*
X120226512Y-50991655D01*
X120259891Y-51041610D01*
X120282882Y-51097116D01*
X120294602Y-51156038D01*
X120294602Y-51216122D01*
X120282883Y-51275042D01*
X120260734Y-51328515D01*
X120253622Y-51351964D01*
X120251220Y-51376350D01*
X120253622Y-51400736D01*
X120260736Y-51424185D01*
X120272287Y-51445796D01*
X120287832Y-51464738D01*
X120306774Y-51480283D01*
X120328385Y-51491834D01*
X120351834Y-51498946D01*
X120376220Y-51501348D01*
X120400605Y-51498946D01*
X120442160Y-51490680D01*
X120502242Y-51490680D01*
X120543799Y-51498946D01*
X120568186Y-51501348D01*
X120592572Y-51498946D01*
X120616021Y-51491833D01*
X120637631Y-51480282D01*
X120656573Y-51464736D01*
X120672118Y-51445794D01*
X120683669Y-51424183D01*
X120690782Y-51400735D01*
X120693184Y-51376348D01*
X120690782Y-51351962D01*
X120683669Y-51328514D01*
X120661521Y-51275044D01*
X120649801Y-51216122D01*
X120649801Y-51156038D01*
X120661521Y-51097116D01*
X120684512Y-51041610D01*
X120717891Y-50991655D01*
X120760376Y-50949170D01*
X120800450Y-50922393D01*
X120810329Y-50915792D01*
X120810331Y-50915791D01*
X120865837Y-50892800D01*
X120924759Y-50881080D01*
X120984843Y-50881080D01*
X121043765Y-50892800D01*
X121099271Y-50915791D01*
X121099273Y-50915792D01*
X121109152Y-50922393D01*
X121149226Y-50949170D01*
X121191711Y-50991655D01*
X121225090Y-51041610D01*
X121248081Y-51097116D01*
X121259801Y-51156038D01*
X121259801Y-51216122D01*
X121248082Y-51275042D01*
X121225933Y-51328515D01*
X121218821Y-51351964D01*
X121216419Y-51376350D01*
X121218821Y-51400736D01*
X121225935Y-51424185D01*
X121237486Y-51445796D01*
X121253031Y-51464738D01*
X121271973Y-51480283D01*
X121293584Y-51491834D01*
X121317033Y-51498946D01*
X121341419Y-51501348D01*
X121365804Y-51498946D01*
X121407359Y-51490680D01*
X121467441Y-51490680D01*
X121508998Y-51498946D01*
X121533385Y-51501348D01*
X121557771Y-51498946D01*
X121581220Y-51491833D01*
X121602830Y-51480282D01*
X121621772Y-51464736D01*
X121637317Y-51445794D01*
X121648868Y-51424183D01*
X121655981Y-51400735D01*
X121658383Y-51376348D01*
X121655981Y-51351962D01*
X121648868Y-51328514D01*
X121626720Y-51275044D01*
X121615000Y-51216122D01*
X121615000Y-51156038D01*
X121626720Y-51097116D01*
X121649711Y-51041610D01*
X121683090Y-50991655D01*
X121725575Y-50949170D01*
X121765649Y-50922393D01*
X121775528Y-50915792D01*
X121775530Y-50915791D01*
X121831036Y-50892800D01*
X121889958Y-50881080D01*
X121950042Y-50881080D01*
X122008964Y-50892800D01*
X122064470Y-50915791D01*
X122064472Y-50915792D01*
X122074351Y-50922393D01*
X122114425Y-50949170D01*
X122156910Y-50991655D01*
X122190289Y-51041610D01*
X122213280Y-51097116D01*
X122225000Y-51156038D01*
X122225000Y-51216122D01*
X122213280Y-51275044D01*
X122190289Y-51330550D01*
X122156910Y-51380505D01*
X122114425Y-51422990D01*
X122089619Y-51439565D01*
X122064472Y-51456368D01*
X122064471Y-51456369D01*
X122064470Y-51456369D01*
X122008964Y-51479360D01*
X121950042Y-51491080D01*
X121889959Y-51491080D01*
X121848402Y-51482814D01*
X121824015Y-51480412D01*
X121799629Y-51482814D01*
X121776180Y-51489927D01*
X121754570Y-51501478D01*
X121735628Y-51517024D01*
X121720083Y-51535966D01*
X121708532Y-51557577D01*
X121701419Y-51581025D01*
X121699017Y-51605412D01*
X121701419Y-51629798D01*
X121708532Y-51653246D01*
X121730680Y-51706716D01*
X121742400Y-51765638D01*
X121742400Y-51825722D01*
X121730680Y-51884644D01*
X121722265Y-51904959D01*
X121707688Y-51940152D01*
X121674309Y-51990106D01*
X121631826Y-52032589D01*
X121581872Y-52065968D01*
X121581871Y-52065969D01*
X121581870Y-52065969D01*
X121526364Y-52088960D01*
X121467442Y-52100680D01*
X121407358Y-52100680D01*
X121348436Y-52088960D01*
X121292930Y-52065969D01*
X121292929Y-52065969D01*
X121292928Y-52065968D01*
X121242974Y-52032589D01*
X121200491Y-51990106D01*
X121167112Y-51940152D01*
X121152535Y-51904959D01*
X121144120Y-51884644D01*
X121132400Y-51825722D01*
X121132400Y-51765638D01*
X121144119Y-51706718D01*
X121166268Y-51653245D01*
X121173380Y-51629796D01*
X121175782Y-51605410D01*
X121173380Y-51581024D01*
X121166266Y-51557575D01*
X121154715Y-51535964D01*
X121139170Y-51517022D01*
X121120228Y-51501477D01*
X121098617Y-51489926D01*
X121075168Y-51482814D01*
X121050782Y-51480412D01*
X121026397Y-51482814D01*
X120984842Y-51491080D01*
X120924760Y-51491080D01*
X120883203Y-51482814D01*
X120858816Y-51480412D01*
X120834430Y-51482814D01*
X120810981Y-51489927D01*
X120789371Y-51501478D01*
X120770429Y-51517024D01*
X120754884Y-51535966D01*
X120743333Y-51557577D01*
X120736220Y-51581025D01*
X120733818Y-51605412D01*
X120736220Y-51629798D01*
X120743333Y-51653246D01*
X120765481Y-51706716D01*
X120777201Y-51765638D01*
X120777201Y-51825722D01*
X120765481Y-51884644D01*
X120757066Y-51904959D01*
X120742489Y-51940152D01*
X120709110Y-51990106D01*
X120666627Y-52032589D01*
X120616673Y-52065968D01*
X120616672Y-52065969D01*
X120616671Y-52065969D01*
X120561165Y-52088960D01*
X120502243Y-52100680D01*
X120442159Y-52100680D01*
X120383237Y-52088960D01*
X120327731Y-52065969D01*
X120327730Y-52065969D01*
X120327729Y-52065968D01*
X120277775Y-52032589D01*
X120235292Y-51990106D01*
X120201913Y-51940152D01*
X120187336Y-51904959D01*
X120178921Y-51884644D01*
X120167201Y-51825722D01*
X120167201Y-51765638D01*
X120178920Y-51706718D01*
X120201069Y-51653245D01*
X120208181Y-51629796D01*
X120210583Y-51605410D01*
X120208181Y-51581024D01*
X120201067Y-51557575D01*
X120189516Y-51535964D01*
X120173971Y-51517022D01*
X120155029Y-51501477D01*
X120133418Y-51489926D01*
X120109969Y-51482814D01*
X120085583Y-51480412D01*
X120061198Y-51482814D01*
X120019643Y-51491080D01*
X119959560Y-51491080D01*
X119900638Y-51479360D01*
X119845132Y-51456369D01*
X119845131Y-51456369D01*
X119845130Y-51456368D01*
X119819983Y-51439565D01*
X119795177Y-51422990D01*
X119752692Y-51380505D01*
X119719313Y-51330550D01*
X119696322Y-51275044D01*
X119684602Y-51216122D01*
X119684602Y-51156038D01*
X119696322Y-51097116D01*
X119719313Y-51041610D01*
X119752692Y-50991655D01*
X119795177Y-50949170D01*
X119835251Y-50922393D01*
X119845130Y-50915792D01*
X119845132Y-50915791D01*
X119900638Y-50892800D01*
X119959560Y-50881080D01*
X120019644Y-50881080D01*
X120078566Y-50892800D01*
X120078566Y-50892800D01*
G37*
G36*
X116959446Y-50857240D02*
G01*
X117014952Y-50880231D01*
X117014954Y-50880232D01*
X117064908Y-50913611D01*
X117107391Y-50956094D01*
X117133131Y-50994615D01*
X117140771Y-51006050D01*
X117163762Y-51061556D01*
X117175482Y-51120478D01*
X117175482Y-51180562D01*
X117163763Y-51239482D01*
X117141614Y-51292955D01*
X117134502Y-51316404D01*
X117132100Y-51340790D01*
X117134502Y-51365176D01*
X117141616Y-51388625D01*
X117153167Y-51410236D01*
X117168712Y-51429178D01*
X117187654Y-51444723D01*
X117209265Y-51456274D01*
X117232714Y-51463386D01*
X117257100Y-51465788D01*
X117281485Y-51463386D01*
X117323040Y-51455120D01*
X117383122Y-51455120D01*
X117424679Y-51463386D01*
X117449066Y-51465788D01*
X117473452Y-51463386D01*
X117496901Y-51456273D01*
X117518511Y-51444722D01*
X117537453Y-51429176D01*
X117552998Y-51410234D01*
X117564549Y-51388623D01*
X117571662Y-51365175D01*
X117574064Y-51340788D01*
X117571662Y-51316402D01*
X117564549Y-51292954D01*
X117542401Y-51239484D01*
X117530681Y-51180562D01*
X117530681Y-51120478D01*
X117542401Y-51061556D01*
X117565392Y-51006050D01*
X117573033Y-50994615D01*
X117598772Y-50956094D01*
X117641255Y-50913611D01*
X117691209Y-50880232D01*
X117691211Y-50880231D01*
X117746717Y-50857240D01*
X117805639Y-50845520D01*
X117865723Y-50845520D01*
X117924645Y-50857240D01*
X117980151Y-50880231D01*
X117980153Y-50880232D01*
X118030107Y-50913611D01*
X118072590Y-50956094D01*
X118098330Y-50994615D01*
X118105970Y-51006050D01*
X118128961Y-51061556D01*
X118140681Y-51120478D01*
X118140681Y-51180562D01*
X118128962Y-51239482D01*
X118106813Y-51292955D01*
X118099701Y-51316404D01*
X118097299Y-51340790D01*
X118099701Y-51365176D01*
X118106815Y-51388625D01*
X118118366Y-51410236D01*
X118133911Y-51429178D01*
X118152853Y-51444723D01*
X118174464Y-51456274D01*
X118197913Y-51463386D01*
X118222299Y-51465788D01*
X118246684Y-51463386D01*
X118288239Y-51455120D01*
X118348321Y-51455120D01*
X118389878Y-51463386D01*
X118414265Y-51465788D01*
X118438651Y-51463386D01*
X118462100Y-51456273D01*
X118483710Y-51444722D01*
X118502652Y-51429176D01*
X118518197Y-51410234D01*
X118529748Y-51388623D01*
X118536861Y-51365175D01*
X118539263Y-51340788D01*
X118536861Y-51316402D01*
X118529748Y-51292954D01*
X118507600Y-51239484D01*
X118495880Y-51180562D01*
X118495880Y-51120478D01*
X118507600Y-51061556D01*
X118530591Y-51006050D01*
X118538232Y-50994615D01*
X118563971Y-50956094D01*
X118606454Y-50913611D01*
X118656408Y-50880232D01*
X118656410Y-50880231D01*
X118711916Y-50857240D01*
X118770838Y-50845520D01*
X118830922Y-50845520D01*
X118889844Y-50857240D01*
X118945350Y-50880231D01*
X118945352Y-50880232D01*
X118995306Y-50913611D01*
X119037789Y-50956094D01*
X119063529Y-50994615D01*
X119071169Y-51006050D01*
X119094160Y-51061556D01*
X119105880Y-51120478D01*
X119105880Y-51180562D01*
X119094160Y-51239484D01*
X119079430Y-51275045D01*
X119071168Y-51294992D01*
X119065580Y-51303355D01*
X119037790Y-51344945D01*
X118995305Y-51387430D01*
X118975393Y-51400735D01*
X118945352Y-51420808D01*
X118945351Y-51420809D01*
X118945350Y-51420809D01*
X118889844Y-51443800D01*
X118830922Y-51455520D01*
X118770839Y-51455520D01*
X118729282Y-51447254D01*
X118704895Y-51444852D01*
X118680509Y-51447254D01*
X118657060Y-51454367D01*
X118635450Y-51465918D01*
X118616508Y-51481464D01*
X118600963Y-51500406D01*
X118589412Y-51522017D01*
X118582299Y-51545465D01*
X118579897Y-51569852D01*
X118582299Y-51594238D01*
X118589412Y-51617686D01*
X118611560Y-51671156D01*
X118623280Y-51730078D01*
X118623280Y-51790162D01*
X118611560Y-51849084D01*
X118596830Y-51884645D01*
X118588568Y-51904592D01*
X118571765Y-51929739D01*
X118555190Y-51954545D01*
X118512705Y-51997030D01*
X118487899Y-52013605D01*
X118462752Y-52030408D01*
X118462751Y-52030409D01*
X118462750Y-52030409D01*
X118407244Y-52053400D01*
X118348322Y-52065120D01*
X118288238Y-52065120D01*
X118229316Y-52053400D01*
X118173810Y-52030409D01*
X118173809Y-52030409D01*
X118173808Y-52030408D01*
X118148661Y-52013605D01*
X118123855Y-51997030D01*
X118081370Y-51954545D01*
X118064795Y-51929739D01*
X118047992Y-51904592D01*
X118039730Y-51884645D01*
X118025000Y-51849084D01*
X118013280Y-51790162D01*
X118013280Y-51730078D01*
X118024999Y-51671158D01*
X118047148Y-51617685D01*
X118054260Y-51594236D01*
X118056662Y-51569850D01*
X118054260Y-51545464D01*
X118047146Y-51522015D01*
X118035595Y-51500404D01*
X118020050Y-51481462D01*
X118001108Y-51465917D01*
X117979497Y-51454366D01*
X117956048Y-51447254D01*
X117931662Y-51444852D01*
X117907277Y-51447254D01*
X117865722Y-51455520D01*
X117805640Y-51455520D01*
X117764083Y-51447254D01*
X117739696Y-51444852D01*
X117715310Y-51447254D01*
X117691861Y-51454367D01*
X117670251Y-51465918D01*
X117651309Y-51481464D01*
X117635764Y-51500406D01*
X117624213Y-51522017D01*
X117617100Y-51545465D01*
X117614698Y-51569852D01*
X117617100Y-51594238D01*
X117624213Y-51617686D01*
X117646361Y-51671156D01*
X117658081Y-51730078D01*
X117658081Y-51790162D01*
X117646361Y-51849084D01*
X117631631Y-51884645D01*
X117623369Y-51904592D01*
X117606566Y-51929739D01*
X117589991Y-51954545D01*
X117547506Y-51997030D01*
X117522700Y-52013605D01*
X117497553Y-52030408D01*
X117497552Y-52030409D01*
X117497551Y-52030409D01*
X117442045Y-52053400D01*
X117383123Y-52065120D01*
X117323039Y-52065120D01*
X117264117Y-52053400D01*
X117208611Y-52030409D01*
X117208610Y-52030409D01*
X117208609Y-52030408D01*
X117183462Y-52013605D01*
X117158656Y-51997030D01*
X117116171Y-51954545D01*
X117099596Y-51929739D01*
X117082793Y-51904592D01*
X117074531Y-51884645D01*
X117059801Y-51849084D01*
X117048081Y-51790162D01*
X117048081Y-51730078D01*
X117059800Y-51671158D01*
X117081949Y-51617685D01*
X117089061Y-51594236D01*
X117091463Y-51569850D01*
X117089061Y-51545464D01*
X117081947Y-51522015D01*
X117070396Y-51500404D01*
X117054851Y-51481462D01*
X117035909Y-51465917D01*
X117014298Y-51454366D01*
X116990849Y-51447254D01*
X116966463Y-51444852D01*
X116942078Y-51447254D01*
X116900523Y-51455520D01*
X116840440Y-51455520D01*
X116781518Y-51443800D01*
X116726012Y-51420809D01*
X116726011Y-51420809D01*
X116726010Y-51420808D01*
X116695969Y-51400735D01*
X116676057Y-51387430D01*
X116633572Y-51344945D01*
X116605782Y-51303355D01*
X116600194Y-51294992D01*
X116591932Y-51275045D01*
X116577202Y-51239484D01*
X116565482Y-51180562D01*
X116565482Y-51120478D01*
X116577202Y-51061556D01*
X116600193Y-51006050D01*
X116607834Y-50994615D01*
X116633573Y-50956094D01*
X116676056Y-50913611D01*
X116726010Y-50880232D01*
X116726012Y-50880231D01*
X116781518Y-50857240D01*
X116840440Y-50845520D01*
X116900524Y-50845520D01*
X116959446Y-50857240D01*
X116959446Y-50857240D01*
G37*
G36*
X121184000Y-45645201D02*
G01*
X121186402Y-45669587D01*
X121193515Y-45693036D01*
X121205066Y-45714647D01*
X121220611Y-45733589D01*
X121239553Y-45749134D01*
X121261164Y-45760685D01*
X121284613Y-45767798D01*
X121308999Y-45770200D01*
X121979000Y-45770200D01*
X121979000Y-49632200D01*
X121308999Y-49632200D01*
X121284613Y-49634602D01*
X121261164Y-49641715D01*
X121239553Y-49653266D01*
X121220611Y-49668811D01*
X121205066Y-49687753D01*
X121193515Y-49709364D01*
X121186402Y-49732813D01*
X121184000Y-49757199D01*
X121184000Y-50427200D01*
X117322000Y-50427200D01*
X117322000Y-49757199D01*
X117319598Y-49732813D01*
X117312485Y-49709364D01*
X117300934Y-49687753D01*
X117285389Y-49668811D01*
X117266447Y-49653266D01*
X117244836Y-49641715D01*
X117221387Y-49634602D01*
X117197001Y-49632200D01*
X116527000Y-49632200D01*
X116527000Y-45882199D01*
X117309000Y-45882199D01*
X117309000Y-49520201D01*
X117311402Y-49544587D01*
X117318515Y-49568036D01*
X117330066Y-49589647D01*
X117345611Y-49608589D01*
X117364553Y-49624134D01*
X117386164Y-49635685D01*
X117409613Y-49642798D01*
X117433999Y-49645200D01*
X121072001Y-49645200D01*
X121096387Y-49642798D01*
X121119836Y-49635685D01*
X121141447Y-49624134D01*
X121160389Y-49608589D01*
X121175934Y-49589647D01*
X121187485Y-49568036D01*
X121194598Y-49544587D01*
X121197000Y-49520201D01*
X121197000Y-45882199D01*
X121194598Y-45857813D01*
X121187485Y-45834364D01*
X121175934Y-45812753D01*
X121160389Y-45793811D01*
X121141447Y-45778266D01*
X121119836Y-45766715D01*
X121096387Y-45759602D01*
X121072001Y-45757200D01*
X117433999Y-45757200D01*
X117409613Y-45759602D01*
X117386164Y-45766715D01*
X117364553Y-45778266D01*
X117345611Y-45793811D01*
X117330066Y-45812753D01*
X117318515Y-45834364D01*
X117311402Y-45857813D01*
X117309000Y-45882199D01*
X116527000Y-45882199D01*
X116527000Y-45770200D01*
X117197001Y-45770200D01*
X117221387Y-45767798D01*
X117244836Y-45760685D01*
X117266447Y-45749134D01*
X117285389Y-45733589D01*
X117300934Y-45714647D01*
X117312485Y-45693036D01*
X117319598Y-45669587D01*
X117322000Y-45645201D01*
X117322000Y-44975200D01*
X121184000Y-44975200D01*
X121184000Y-45645201D01*
X121184000Y-45645201D01*
G37*
G36*
X120854000Y-49302200D02*
G01*
X117652000Y-49302200D01*
X117652000Y-46100200D01*
X120854000Y-46100200D01*
X120854000Y-49302200D01*
X120854000Y-49302200D01*
G37*
G36*
X121801000Y-44453760D02*
G01*
X119499000Y-44453760D01*
X119499000Y-43301760D01*
X121801000Y-43301760D01*
X121801000Y-44453760D01*
X121801000Y-44453760D01*
G37*
G36*
X118254800Y-41146941D02*
G01*
X118257202Y-41171327D01*
X118264315Y-41194776D01*
X118275866Y-41216387D01*
X118291411Y-41235329D01*
X118310353Y-41250874D01*
X118331964Y-41262425D01*
X118355413Y-41269538D01*
X118379799Y-41271940D01*
X119090960Y-41271940D01*
X119090960Y-43873940D01*
X116488960Y-43873940D01*
X116488960Y-41271940D01*
X117687801Y-41271940D01*
X117712187Y-41269538D01*
X117735636Y-41262425D01*
X117757247Y-41250874D01*
X117776189Y-41235329D01*
X117791734Y-41216387D01*
X117803285Y-41194776D01*
X117810398Y-41171327D01*
X117812800Y-41146941D01*
X117812800Y-40224360D01*
X118254800Y-40224360D01*
X118254800Y-41146941D01*
X118254800Y-41146941D01*
G37*
G36*
X122726000Y-42953760D02*
G01*
X121574000Y-42953760D01*
X121574000Y-41851760D01*
X122726000Y-41851760D01*
X122726000Y-42953760D01*
X122726000Y-42953760D01*
G37*
G36*
X121801000Y-41503760D02*
G01*
X119499000Y-41503760D01*
X119499000Y-40351760D01*
X121801000Y-40351760D01*
X121801000Y-41503760D01*
X121801000Y-41503760D01*
G37*
G36*
X117551460Y-40706060D02*
G01*
X116589460Y-40706060D01*
X116589460Y-40264060D01*
X117551460Y-40264060D01*
X117551460Y-40706060D01*
X117551460Y-40706060D01*
G37*
G36*
X116208480Y-40645100D02*
G01*
X115246480Y-40645100D01*
X115246480Y-40203100D01*
X116208480Y-40203100D01*
X116208480Y-40645100D01*
X116208480Y-40645100D01*
G37*
M02*
