<?xml version="1.0" standalone="no"?>
 <!DOCTYPE svg PUBLIC "-//W3C//DTD SVG 1.1//EN" 
 "http://www.w3.org/Graphics/SVG/1.1/DTD/svg11.dtd"> 
<svg xmlns="http://www.w3.org/2000/svg" version="1.1" 
    width="3.11404cm" height="2.7432cm" viewBox="0 0 12260 10800 ">
<title>SVG Picture created as Miniscope-v4-Rigid-Flex-B_Mask.svg date 2019/10/03 22:30:00 </title>
  <desc>Picture generated by PCBNEW </desc>
<g style="fill:#000000; fill-opacity:1;stroke:#000000; stroke-opacity:1;
stroke-linecap:round; stroke-linejoin:round; "
 transform="translate(0 0) scale(1 1)">
</g>
<g style="fill:#000000; fill-opacity:0.0; 
stroke:#000000; stroke-width:-0.000393701; stroke-opacity:1; 
stroke-linecap:round; stroke-linejoin:round;">
</g>
<g style="fill:#848400; fill-opacity:0.0; 
stroke:#848400; stroke-width:-0.000393701; stroke-opacity:1; 
stroke-linecap:round; stroke-linejoin:round;">
</g>
<g style="fill:#848400; fill-opacity:1.0; 
stroke:#848400; stroke-width:0; stroke-opacity:1; 
stroke-linecap:round; stroke-linejoin:round;">
<path style="fill:#848400; fill-opacity:1.0; 
stroke:#848400; stroke-width:0; stroke-opacity:1; 
stroke-linecap:round; stroke-linejoin:round;fill-rule:evenodd;"
d="M 7320,6358
7325,6360
7329,6361
7329,6361
7329,6361
7337,6367
7344,6373
7349,6381
7353,6390
7355,6399
7355,6409
7353,6418
7349,6427
7344,6435
7337,6442
7329,6447
7329,6447
7329,6447
7325,6449
7320,6450
7311,6452
7302,6452
7292,6450
7288,6449
7284,6447
7284,6447
7284,6447
7276,6442
7269,6435
7264,6427
7260,6418
7258,6409
7258,6399
7260,6390
7264,6381
7269,6373
7276,6367
7284,6361
7284,6361
7284,6361
7288,6360
7292,6358
7302,6356
7311,6356
7320,6358
Z" /> 
<path style="fill:#848400; fill-opacity:1.0; 
stroke:#848400; stroke-width:0; stroke-opacity:1; 
stroke-linecap:round; stroke-linejoin:round;fill-rule:evenodd;"
d="M 6927,6358
6931,6360
6935,6361
6935,6361
6935,6361
6943,6367
6950,6373
6955,6381
6959,6390
6961,6399
6961,6409
6959,6418
6955,6427
6950,6435
6943,6442
6935,6447
6935,6447
6935,6447
6931,6449
6927,6450
6917,6452
6908,6452
6899,6450
6894,6449
6890,6447
6890,6447
6890,6447
6882,6442
6875,6435
6870,6427
6866,6418
6864,6409
6864,6399
6866,6390
6870,6381
6875,6373
6882,6367
6890,6361
6890,6361
6890,6361
6894,6360
6899,6358
6908,6356
6917,6356
6927,6358
Z" /> 
<path style="fill:#848400; fill-opacity:1.0; 
stroke:#848400; stroke-width:0; stroke-opacity:1; 
stroke-linecap:round; stroke-linejoin:round;fill-rule:evenodd;"
d="M 6730,6358
6734,6360
6739,6361
6739,6361
6739,6361
6747,6367
6753,6373
6759,6381
6762,6390
6764,6399
6764,6409
6762,6418
6759,6427
6753,6435
6747,6442
6739,6447
6739,6447
6739,6447
6734,6449
6730,6450
6721,6452
6711,6452
6702,6450
6697,6449
6693,6447
6693,6447
6693,6447
6685,6442
6678,6435
6673,6427
6669,6418
6668,6409
6668,6399
6669,6390
6673,6381
6678,6373
6685,6367
6693,6361
6693,6361
6693,6361
6697,6360
6702,6358
6711,6356
6721,6356
6730,6358
Z" /> 
<path style="fill:#848400; fill-opacity:1.0; 
stroke:#848400; stroke-width:0; stroke-opacity:1; 
stroke-linecap:round; stroke-linejoin:round;fill-rule:evenodd;"
d="M 6533,6358
6537,6360
6542,6361
6542,6361
6542,6361
6550,6367
6556,6373
6562,6381
6565,6390
6567,6399
6567,6409
6565,6418
6562,6427
6556,6435
6550,6442
6542,6447
6542,6447
6542,6447
6537,6449
6533,6450
6524,6452
6514,6452
6505,6450
6500,6449
6496,6447
6496,6447
6496,6447
6488,6442
6481,6435
6476,6427
6473,6418
6471,6409
6471,6399
6473,6390
6476,6381
6481,6373
6488,6367
6496,6361
6496,6361
6496,6361
6500,6360
6505,6358
6514,6356
6524,6356
6533,6358
Z" /> 
<path style="fill:#848400; fill-opacity:1.0; 
stroke:#848400; stroke-width:0; stroke-opacity:1; 
stroke-linecap:round; stroke-linejoin:round;fill-rule:evenodd;"
d="M 6336,6358
6341,6360
6345,6361
6345,6361
6345,6361
6353,6367
6360,6373
6365,6381
6368,6390
6370,6399
6370,6409
6368,6418
6365,6427
6360,6435
6353,6442
6345,6447
6345,6447
6345,6447
6341,6449
6336,6450
6327,6452
6317,6452
6308,6450
6304,6449
6299,6447
6299,6447
6299,6447
6291,6442
6285,6435
6279,6427
6276,6418
6274,6409
6274,6399
6276,6390
6279,6381
6285,6373
6291,6367
6299,6361
6299,6361
6299,6361
6304,6360
6308,6358
6317,6356
6327,6356
6336,6358
Z" /> 
<path style="fill:#848400; fill-opacity:1.0; 
stroke:#848400; stroke-width:0; stroke-opacity:1; 
stroke-linecap:round; stroke-linejoin:round;fill-rule:evenodd;"
d="M 6139,6358
6144,6360
6148,6361
6148,6361
6148,6361
6156,6367
6163,6373
6168,6381
6172,6390
6173,6399
6173,6409
6172,6418
6168,6427
6163,6435
6156,6442
6148,6447
6148,6447
6148,6447
6144,6449
6139,6450
6130,6452
6120,6452
6111,6450
6107,6449
6102,6447
6102,6447
6102,6447
6095,6442
6088,6435
6083,6427
6079,6418
6077,6409
6077,6399
6079,6390
6083,6381
6088,6373
6095,6367
6102,6361
6102,6361
6102,6361
6107,6360
6111,6358
6120,6356
6130,6356
6139,6358
Z" /> 
<path style="fill:#848400; fill-opacity:1.0; 
stroke:#848400; stroke-width:0; stroke-opacity:1; 
stroke-linecap:round; stroke-linejoin:round;fill-rule:evenodd;"
d="M 5942,6358
5947,6360
5951,6361
5951,6361
5951,6361
5959,6367
5966,6373
5971,6381
5975,6390
5977,6399
5977,6409
5975,6418
5971,6427
5966,6435
5959,6442
5951,6447
5951,6447
5951,6447
5947,6449
5942,6450
5933,6452
5924,6452
5914,6450
5910,6449
5906,6447
5906,6447
5906,6447
5898,6442
5891,6435
5886,6427
5882,6418
5880,6409
5880,6399
5882,6390
5886,6381
5891,6373
5898,6367
5906,6361
5906,6361
5906,6361
5910,6360
5914,6358
5924,6356
5933,6356
5942,6358
Z" /> 
<path style="fill:#848400; fill-opacity:1.0; 
stroke:#848400; stroke-width:0; stroke-opacity:1; 
stroke-linecap:round; stroke-linejoin:round;fill-rule:evenodd;"
d="M 5746,6358
5750,6360
5754,6361
5754,6361
5754,6361
5762,6367
5769,6373
5774,6381
5778,6390
5780,6399
5780,6409
5778,6418
5774,6427
5769,6435
5762,6442
5754,6447
5754,6447
5754,6447
5750,6449
5746,6450
5736,6452
5727,6452
5717,6450
5713,6449
5709,6447
5709,6447
5709,6447
5701,6442
5694,6435
5689,6427
5685,6418
5683,6409
5683,6399
5685,6390
5689,6381
5694,6373
5701,6367
5709,6361
5709,6361
5709,6361
5713,6360
5717,6358
5727,6356
5736,6356
5746,6358
Z" /> 
<path style="fill:#848400; fill-opacity:1.0; 
stroke:#848400; stroke-width:0; stroke-opacity:1; 
stroke-linecap:round; stroke-linejoin:round;fill-rule:evenodd;"
d="M 5549,6358
5553,6360
5558,6361
5558,6361
5558,6361
5565,6367
5572,6373
5577,6381
5581,6390
5583,6399
5583,6409
5581,6418
5577,6427
5572,6435
5565,6442
5558,6447
5558,6447
5558,6447
5553,6449
5549,6450
5539,6452
5530,6452
5521,6450
5516,6449
5512,6447
5512,6447
5512,6447
5504,6442
5497,6435
5492,6427
5488,6418
5486,6409
5486,6399
5488,6390
5492,6381
5497,6373
5504,6367
5512,6361
5512,6361
5512,6361
5516,6360
5521,6358
5530,6356
5539,6356
5549,6358
Z" /> 
<path style="fill:#848400; fill-opacity:1.0; 
stroke:#848400; stroke-width:0; stroke-opacity:1; 
stroke-linecap:round; stroke-linejoin:round;fill-rule:evenodd;"
d="M 5352,6358
5356,6360
5361,6361
5361,6361
5361,6361
5369,6367
5375,6373
5381,6381
5384,6390
5386,6399
5386,6409
5384,6418
5381,6427
5375,6435
5369,6442
5361,6447
5361,6447
5361,6447
5356,6449
5352,6450
5343,6452
5333,6452
5324,6450
5319,6449
5315,6447
5315,6447
5315,6447
5307,6442
5300,6435
5295,6427
5291,6418
5290,6409
5290,6399
5291,6390
5295,6381
5300,6373
5307,6367
5315,6361
5315,6361
5315,6361
5319,6360
5324,6358
5333,6356
5343,6356
5352,6358
Z" /> 
<path style="fill:#848400; fill-opacity:1.0; 
stroke:#848400; stroke-width:0; stroke-opacity:1; 
stroke-linecap:round; stroke-linejoin:round;fill-rule:evenodd;"
d="M 7124,6358
7128,6360
7132,6361
7132,6361
7132,6361
7140,6367
7147,6373
7152,6381
7156,6390
7158,6399
7158,6409
7156,6418
7152,6427
7147,6435
7140,6442
7132,6447
7132,6447
7132,6447
7128,6449
7124,6450
7114,6452
7105,6452
7095,6450
7091,6449
7087,6447
7087,6447
7087,6447
7079,6442
7072,6435
7067,6427
7063,6418
7061,6409
7061,6399
7063,6390
7067,6381
7072,6373
7079,6367
7087,6361
7087,6361
7087,6361
7091,6360
7095,6358
7105,6356
7114,6356
7124,6358
Z" /> 
<path style="fill:#848400; fill-opacity:1.0; 
stroke:#848400; stroke-width:0; stroke-opacity:1; 
stroke-linecap:round; stroke-linejoin:round;fill-rule:evenodd;"
d="M 6139,6161
6144,6163
6148,6164
6148,6164
6148,6164
6156,6170
6163,6176
6168,6184
6172,6193
6173,6202
6173,6212
6172,6221
6168,6230
6163,6238
6156,6245
6148,6250
6148,6250
6148,6250
6144,6252
6139,6254
6130,6255
6120,6255
6111,6254
6107,6252
6102,6250
6102,6250
6102,6250
6095,6245
6088,6238
6083,6230
6079,6221
6077,6212
6077,6202
6079,6193
6083,6184
6088,6176
6095,6170
6102,6164
6102,6164
6102,6164
6107,6163
6111,6161
6120,6159
6130,6159
6139,6161
Z" /> 
<path style="fill:#848400; fill-opacity:1.0; 
stroke:#848400; stroke-width:0; stroke-opacity:1; 
stroke-linecap:round; stroke-linejoin:round;fill-rule:evenodd;"
d="M 7124,6161
7128,6163
7132,6164
7132,6164
7132,6164
7140,6170
7147,6176
7152,6184
7156,6193
7158,6202
7158,6212
7156,6221
7152,6230
7147,6238
7140,6245
7132,6250
7132,6250
7132,6250
7128,6252
7124,6254
7114,6255
7105,6255
7095,6254
7091,6252
7087,6250
7087,6250
7087,6250
7079,6245
7072,6238
7067,6230
7063,6221
7061,6212
7061,6202
7063,6193
7067,6184
7072,6176
7079,6170
7087,6164
7087,6164
7087,6164
7091,6163
7095,6161
7105,6159
7114,6159
7124,6161
Z" /> 
<path style="fill:#848400; fill-opacity:1.0; 
stroke:#848400; stroke-width:0; stroke-opacity:1; 
stroke-linecap:round; stroke-linejoin:round;fill-rule:evenodd;"
d="M 6730,6161
6734,6163
6739,6164
6739,6164
6739,6164
6747,6170
6753,6176
6759,6184
6762,6193
6764,6202
6764,6212
6762,6221
6759,6230
6753,6238
6747,6245
6739,6250
6739,6250
6739,6250
6734,6252
6730,6254
6721,6255
6711,6255
6702,6254
6697,6252
6693,6250
6693,6250
6693,6250
6685,6245
6678,6238
6673,6230
6669,6221
6668,6212
6668,6202
6669,6193
6673,6184
6678,6176
6685,6170
6693,6164
6693,6164
6693,6164
6697,6163
6702,6161
6711,6159
6721,6159
6730,6161
Z" /> 
<path style="fill:#848400; fill-opacity:1.0; 
stroke:#848400; stroke-width:0; stroke-opacity:1; 
stroke-linecap:round; stroke-linejoin:round;fill-rule:evenodd;"
d="M 6533,6161
6537,6163
6542,6164
6542,6164
6542,6164
6550,6170
6556,6176
6562,6184
6565,6193
6567,6202
6567,6212
6565,6221
6562,6230
6556,6238
6550,6245
6542,6250
6542,6250
6542,6250
6537,6252
6533,6254
6524,6255
6514,6255
6505,6254
6500,6252
6496,6250
6496,6250
6496,6250
6488,6245
6481,6238
6476,6230
6473,6221
6471,6212
6471,6202
6473,6193
6476,6184
6481,6176
6488,6170
6496,6164
6496,6164
6496,6164
6500,6163
6505,6161
6514,6159
6524,6159
6533,6161
Z" /> 
<path style="fill:#848400; fill-opacity:1.0; 
stroke:#848400; stroke-width:0; stroke-opacity:1; 
stroke-linecap:round; stroke-linejoin:round;fill-rule:evenodd;"
d="M 6336,6161
6341,6163
6345,6164
6345,6164
6345,6164
6353,6170
6360,6176
6365,6184
6368,6193
6370,6202
6370,6212
6368,6221
6365,6230
6360,6238
6353,6245
6345,6250
6345,6250
6345,6250
6341,6252
6336,6254
6327,6255
6317,6255
6308,6254
6304,6252
6299,6250
6299,6250
6299,6250
6291,6245
6285,6238
6279,6230
6276,6221
6274,6212
6274,6202
6276,6193
6279,6184
6285,6176
6291,6170
6299,6164
6299,6164
6299,6164
6304,6163
6308,6161
6317,6159
6327,6159
6336,6161
Z" /> 
<path style="fill:#848400; fill-opacity:1.0; 
stroke:#848400; stroke-width:0; stroke-opacity:1; 
stroke-linecap:round; stroke-linejoin:round;fill-rule:evenodd;"
d="M 5942,6161
5947,6163
5951,6164
5951,6164
5951,6164
5959,6170
5966,6176
5971,6184
5975,6193
5977,6202
5977,6212
5975,6221
5971,6230
5966,6238
5959,6245
5951,6250
5951,6250
5951,6250
5947,6252
5942,6254
5933,6255
5924,6255
5914,6254
5910,6252
5906,6250
5906,6250
5906,6250
5898,6245
5891,6238
5886,6230
5882,6221
5880,6212
5880,6202
5882,6193
5886,6184
5891,6176
5898,6170
5906,6164
5906,6164
5906,6164
5910,6163
5914,6161
5924,6159
5933,6159
5942,6161
Z" /> 
<path style="fill:#848400; fill-opacity:1.0; 
stroke:#848400; stroke-width:0; stroke-opacity:1; 
stroke-linecap:round; stroke-linejoin:round;fill-rule:evenodd;"
d="M 5352,6161
5356,6163
5361,6164
5361,6164
5361,6164
5369,6170
5375,6176
5381,6184
5384,6193
5386,6202
5386,6212
5384,6221
5381,6230
5375,6238
5369,6245
5361,6250
5361,6250
5361,6250
5356,6252
5352,6254
5343,6255
5333,6255
5324,6254
5319,6252
5315,6250
5315,6250
5315,6250
5307,6245
5300,6238
5295,6230
5291,6221
5290,6212
5290,6202
5291,6193
5295,6184
5300,6176
5307,6170
5315,6164
5315,6164
5315,6164
5319,6163
5324,6161
5333,6159
5343,6159
5352,6161
Z" /> 
<path style="fill:#848400; fill-opacity:1.0; 
stroke:#848400; stroke-width:0; stroke-opacity:1; 
stroke-linecap:round; stroke-linejoin:round;fill-rule:evenodd;"
d="M 7320,6161
7325,6163
7329,6164
7329,6164
7329,6164
7337,6170
7344,6176
7349,6184
7353,6193
7355,6202
7355,6212
7353,6221
7349,6230
7344,6238
7337,6245
7329,6250
7329,6250
7329,6250
7325,6252
7320,6254
7311,6255
7302,6255
7292,6254
7288,6252
7284,6250
7284,6250
7284,6250
7276,6245
7269,6238
7264,6230
7260,6221
7258,6212
7258,6202
7260,6193
7264,6184
7269,6176
7276,6170
7284,6164
7284,6164
7284,6164
7288,6163
7292,6161
7302,6159
7311,6159
7320,6161
Z" /> 
<path style="fill:#848400; fill-opacity:1.0; 
stroke:#848400; stroke-width:0; stroke-opacity:1; 
stroke-linecap:round; stroke-linejoin:round;fill-rule:evenodd;"
d="M 6927,6161
6931,6163
6935,6164
6935,6164
6935,6164
6943,6170
6950,6176
6955,6184
6959,6193
6961,6202
6961,6212
6959,6221
6955,6230
6950,6238
6943,6245
6935,6250
6935,6250
6935,6250
6931,6252
6927,6254
6917,6255
6908,6255
6899,6254
6894,6252
6890,6250
6890,6250
6890,6250
6882,6245
6875,6238
6870,6230
6866,6221
6864,6212
6864,6202
6866,6193
6870,6184
6875,6176
6882,6170
6890,6164
6890,6164
6890,6164
6894,6163
6899,6161
6908,6159
6917,6159
6927,6161
Z" /> 
<path style="fill:#848400; fill-opacity:1.0; 
stroke:#848400; stroke-width:0; stroke-opacity:1; 
stroke-linecap:round; stroke-linejoin:round;fill-rule:evenodd;"
d="M 5549,6161
5553,6163
5558,6164
5558,6164
5558,6164
5565,6170
5572,6176
5577,6184
5581,6193
5583,6202
5583,6212
5581,6221
5577,6230
5572,6238
5565,6245
5558,6250
5558,6250
5558,6250
5553,6252
5549,6254
5539,6255
5530,6255
5521,6254
5516,6252
5512,6250
5512,6250
5512,6250
5504,6245
5497,6238
5492,6230
5488,6221
5486,6212
5486,6202
5488,6193
5492,6184
5497,6176
5504,6170
5512,6164
5512,6164
5512,6164
5516,6163
5521,6161
5530,6159
5539,6159
5549,6161
Z" /> 
<path style="fill:#848400; fill-opacity:1.0; 
stroke:#848400; stroke-width:0; stroke-opacity:1; 
stroke-linecap:round; stroke-linejoin:round;fill-rule:evenodd;"
d="M 5746,6161
5750,6163
5754,6164
5754,6164
5754,6164
5762,6170
5769,6176
5774,6184
5778,6193
5780,6202
5780,6212
5778,6221
5774,6230
5769,6238
5762,6245
5754,6250
5754,6250
5754,6250
5750,6252
5746,6254
5736,6255
5727,6255
5717,6254
5713,6252
5709,6250
5709,6250
5709,6250
5701,6245
5694,6238
5689,6230
5685,6221
5683,6212
5683,6202
5685,6193
5689,6184
5694,6176
5701,6170
5709,6164
5709,6164
5709,6164
5713,6163
5717,6161
5727,6159
5736,6159
5746,6161
Z" /> 
<path style="fill:#848400; fill-opacity:1.0; 
stroke:#848400; stroke-width:0; stroke-opacity:1; 
stroke-linecap:round; stroke-linejoin:round;fill-rule:evenodd;"
d="M 7320,5964
7325,5966
7329,5968
7329,5968
7329,5968
7337,5973
7344,5980
7349,5988
7353,5996
7355,6006
7355,6015
7353,6024
7349,6033
7344,6041
7337,6048
7329,6053
7329,6053
7329,6053
7325,6055
7320,6057
7311,6059
7302,6059
7292,6057
7288,6055
7284,6053
7284,6053
7284,6053
7276,6048
7269,6041
7264,6033
7260,6024
7258,6015
7258,6006
7260,5996
7264,5988
7269,5980
7276,5973
7284,5968
7284,5968
7284,5968
7288,5966
7292,5964
7302,5962
7311,5962
7320,5964
Z" /> 
<path style="fill:#848400; fill-opacity:1.0; 
stroke:#848400; stroke-width:0; stroke-opacity:1; 
stroke-linecap:round; stroke-linejoin:round;fill-rule:evenodd;"
d="M 5549,5964
5553,5966
5558,5968
5558,5968
5558,5968
5565,5973
5572,5980
5577,5988
5581,5996
5583,6006
5583,6015
5581,6024
5577,6033
5572,6041
5565,6048
5558,6053
5558,6053
5558,6053
5553,6055
5549,6057
5539,6059
5530,6059
5521,6057
5516,6055
5512,6053
5512,6053
5512,6053
5504,6048
5497,6041
5492,6033
5488,6024
5486,6015
5486,6006
5488,5996
5492,5988
5497,5980
5504,5973
5512,5968
5512,5968
5512,5968
5516,5966
5521,5964
5530,5962
5539,5962
5549,5964
Z" /> 
<path style="fill:#848400; fill-opacity:1.0; 
stroke:#848400; stroke-width:0; stroke-opacity:1; 
stroke-linecap:round; stroke-linejoin:round;fill-rule:evenodd;"
d="M 7124,5964
7128,5966
7132,5968
7132,5968
7132,5968
7140,5973
7147,5980
7152,5988
7156,5996
7158,6006
7158,6015
7156,6024
7152,6033
7147,6041
7140,6048
7132,6053
7132,6053
7132,6053
7128,6055
7124,6057
7114,6059
7105,6059
7095,6057
7091,6055
7087,6053
7087,6053
7087,6053
7079,6048
7072,6041
7067,6033
7063,6024
7061,6015
7061,6006
7063,5996
7067,5988
7072,5980
7079,5973
7087,5968
7087,5968
7087,5968
7091,5966
7095,5964
7105,5962
7114,5962
7124,5964
Z" /> 
<path style="fill:#848400; fill-opacity:1.0; 
stroke:#848400; stroke-width:0; stroke-opacity:1; 
stroke-linecap:round; stroke-linejoin:round;fill-rule:evenodd;"
d="M 6927,5964
6931,5966
6935,5968
6935,5968
6935,5968
6943,5973
6950,5980
6955,5988
6959,5996
6961,6006
6961,6015
6959,6024
6955,6033
6950,6041
6943,6048
6935,6053
6935,6053
6935,6053
6931,6055
6927,6057
6917,6059
6908,6059
6899,6057
6894,6055
6890,6053
6890,6053
6890,6053
6882,6048
6875,6041
6870,6033
6866,6024
6864,6015
6864,6006
6866,5996
6870,5988
6875,5980
6882,5973
6890,5968
6890,5968
6890,5968
6894,5966
6899,5964
6908,5962
6917,5962
6927,5964
Z" /> 
<path style="fill:#848400; fill-opacity:1.0; 
stroke:#848400; stroke-width:0; stroke-opacity:1; 
stroke-linecap:round; stroke-linejoin:round;fill-rule:evenodd;"
d="M 6730,5964
6734,5966
6739,5968
6739,5968
6739,5968
6747,5973
6753,5980
6759,5988
6762,5996
6764,6006
6764,6015
6762,6024
6759,6033
6753,6041
6747,6048
6739,6053
6739,6053
6739,6053
6734,6055
6730,6057
6721,6059
6711,6059
6702,6057
6697,6055
6693,6053
6693,6053
6693,6053
6685,6048
6678,6041
6673,6033
6669,6024
6668,6015
6668,6006
6669,5996
6673,5988
6678,5980
6685,5973
6693,5968
6693,5968
6693,5968
6697,5966
6702,5964
6711,5962
6721,5962
6730,5964
Z" /> 
<path style="fill:#848400; fill-opacity:1.0; 
stroke:#848400; stroke-width:0; stroke-opacity:1; 
stroke-linecap:round; stroke-linejoin:round;fill-rule:evenodd;"
d="M 6533,5964
6537,5966
6542,5968
6542,5968
6542,5968
6550,5973
6556,5980
6562,5988
6565,5996
6567,6006
6567,6015
6565,6024
6562,6033
6556,6041
6550,6048
6542,6053
6542,6053
6542,6053
6537,6055
6533,6057
6524,6059
6514,6059
6505,6057
6500,6055
6496,6053
6496,6053
6496,6053
6488,6048
6481,6041
6476,6033
6473,6024
6471,6015
6471,6006
6473,5996
6476,5988
6481,5980
6488,5973
6496,5968
6496,5968
6496,5968
6500,5966
6505,5964
6514,5962
6524,5962
6533,5964
Z" /> 
<path style="fill:#848400; fill-opacity:1.0; 
stroke:#848400; stroke-width:0; stroke-opacity:1; 
stroke-linecap:round; stroke-linejoin:round;fill-rule:evenodd;"
d="M 6336,5964
6341,5966
6345,5968
6345,5968
6345,5968
6353,5973
6360,5980
6365,5988
6368,5996
6370,6006
6370,6015
6368,6024
6365,6033
6360,6041
6353,6048
6345,6053
6345,6053
6345,6053
6341,6055
6336,6057
6327,6059
6317,6059
6308,6057
6304,6055
6299,6053
6299,6053
6299,6053
6291,6048
6285,6041
6279,6033
6276,6024
6274,6015
6274,6006
6276,5996
6279,5988
6285,5980
6291,5973
6299,5968
6299,5968
6299,5968
6304,5966
6308,5964
6317,5962
6327,5962
6336,5964
Z" /> 
<path style="fill:#848400; fill-opacity:1.0; 
stroke:#848400; stroke-width:0; stroke-opacity:1; 
stroke-linecap:round; stroke-linejoin:round;fill-rule:evenodd;"
d="M 6139,5964
6144,5966
6148,5968
6148,5968
6148,5968
6156,5973
6163,5980
6168,5988
6172,5996
6173,6006
6173,6015
6172,6024
6168,6033
6163,6041
6156,6048
6148,6053
6148,6053
6148,6053
6144,6055
6139,6057
6130,6059
6120,6059
6111,6057
6107,6055
6102,6053
6102,6053
6102,6053
6095,6048
6088,6041
6083,6033
6079,6024
6077,6015
6077,6006
6079,5996
6083,5988
6088,5980
6095,5973
6102,5968
6102,5968
6102,5968
6107,5966
6111,5964
6120,5962
6130,5962
6139,5964
Z" /> 
<path style="fill:#848400; fill-opacity:1.0; 
stroke:#848400; stroke-width:0; stroke-opacity:1; 
stroke-linecap:round; stroke-linejoin:round;fill-rule:evenodd;"
d="M 5942,5964
5947,5966
5951,5968
5951,5968
5951,5968
5959,5973
5966,5980
5971,5988
5975,5996
5977,6006
5977,6015
5975,6024
5971,6033
5966,6041
5959,6048
5951,6053
5951,6053
5951,6053
5947,6055
5942,6057
5933,6059
5924,6059
5914,6057
5910,6055
5906,6053
5906,6053
5906,6053
5898,6048
5891,6041
5886,6033
5882,6024
5880,6015
5880,6006
5882,5996
5886,5988
5891,5980
5898,5973
5906,5968
5906,5968
5906,5968
5910,5966
5914,5964
5924,5962
5933,5962
5942,5964
Z" /> 
<path style="fill:#848400; fill-opacity:1.0; 
stroke:#848400; stroke-width:0; stroke-opacity:1; 
stroke-linecap:round; stroke-linejoin:round;fill-rule:evenodd;"
d="M 5746,5964
5750,5966
5754,5968
5754,5968
5754,5968
5762,5973
5769,5980
5774,5988
5778,5996
5780,6006
5780,6015
5778,6024
5774,6033
5769,6041
5762,6048
5754,6053
5754,6053
5754,6053
5750,6055
5746,6057
5736,6059
5727,6059
5717,6057
5713,6055
5709,6053
5709,6053
5709,6053
5701,6048
5694,6041
5689,6033
5685,6024
5683,6015
5683,6006
5685,5996
5689,5988
5694,5980
5701,5973
5709,5968
5709,5968
5709,5968
5713,5966
5717,5964
5727,5962
5736,5962
5746,5964
Z" /> 
<path style="fill:#848400; fill-opacity:1.0; 
stroke:#848400; stroke-width:0; stroke-opacity:1; 
stroke-linecap:round; stroke-linejoin:round;fill-rule:evenodd;"
d="M 5352,5964
5356,5966
5361,5968
5361,5968
5361,5968
5369,5973
5375,5980
5381,5988
5384,5996
5386,6006
5386,6015
5384,6024
5381,6033
5375,6041
5369,6048
5361,6053
5361,6053
5361,6053
5356,6055
5352,6057
5343,6059
5333,6059
5324,6057
5319,6055
5315,6053
5315,6053
5315,6053
5307,6048
5300,6041
5295,6033
5291,6024
5290,6015
5290,6006
5291,5996
5295,5988
5300,5980
5307,5973
5315,5968
5315,5968
5315,5968
5319,5966
5324,5964
5333,5962
5343,5962
5352,5964
Z" /> 
<path style="fill:#848400; fill-opacity:1.0; 
stroke:#848400; stroke-width:0; stroke-opacity:1; 
stroke-linecap:round; stroke-linejoin:round;fill-rule:evenodd;"
d="M 7320,5767
7325,5769
7329,5771
7329,5771
7329,5771
7337,5776
7344,5783
7349,5791
7353,5799
7355,5809
7355,5818
7353,5828
7349,5836
7344,5844
7337,5851
7329,5856
7329,5856
7329,5856
7325,5858
7320,5860
7311,5862
7302,5862
7292,5860
7288,5858
7284,5856
7284,5856
7284,5856
7276,5851
7269,5844
7264,5836
7260,5828
7258,5818
7258,5809
7260,5799
7264,5791
7269,5783
7276,5776
7284,5771
7284,5771
7284,5771
7288,5769
7292,5767
7302,5765
7311,5765
7320,5767
Z" /> 
<path style="fill:#848400; fill-opacity:1.0; 
stroke:#848400; stroke-width:0; stroke-opacity:1; 
stroke-linecap:round; stroke-linejoin:round;fill-rule:evenodd;"
d="M 5352,5767
5356,5769
5361,5771
5361,5771
5361,5771
5369,5776
5375,5783
5381,5791
5384,5799
5386,5809
5386,5818
5384,5828
5381,5836
5375,5844
5369,5851
5361,5856
5361,5856
5361,5856
5356,5858
5352,5860
5343,5862
5333,5862
5324,5860
5319,5858
5315,5856
5315,5856
5315,5856
5307,5851
5300,5844
5295,5836
5291,5828
5290,5818
5290,5809
5291,5799
5295,5791
5300,5783
5307,5776
5315,5771
5315,5771
5315,5771
5319,5769
5324,5767
5333,5765
5343,5765
5352,5767
Z" /> 
<path style="fill:#848400; fill-opacity:1.0; 
stroke:#848400; stroke-width:0; stroke-opacity:1; 
stroke-linecap:round; stroke-linejoin:round;fill-rule:evenodd;"
d="M 5549,5767
5553,5769
5558,5771
5558,5771
5558,5771
5565,5776
5572,5783
5577,5791
5581,5799
5583,5809
5583,5818
5581,5828
5577,5836
5572,5844
5565,5851
5558,5856
5558,5856
5558,5856
5553,5858
5549,5860
5539,5862
5530,5862
5521,5860
5516,5858
5512,5856
5512,5856
5512,5856
5504,5851
5497,5844
5492,5836
5488,5828
5486,5818
5486,5809
5488,5799
5492,5791
5497,5783
5504,5776
5512,5771
5512,5771
5512,5771
5516,5769
5521,5767
5530,5765
5539,5765
5549,5767
Z" /> 
<path style="fill:#848400; fill-opacity:1.0; 
stroke:#848400; stroke-width:0; stroke-opacity:1; 
stroke-linecap:round; stroke-linejoin:round;fill-rule:evenodd;"
d="M 7124,5767
7128,5769
7132,5771
7132,5771
7132,5771
7140,5776
7147,5783
7152,5791
7156,5799
7158,5809
7158,5818
7156,5828
7152,5836
7147,5844
7140,5851
7132,5856
7132,5856
7132,5856
7128,5858
7124,5860
7114,5862
7105,5862
7095,5860
7091,5858
7087,5856
7087,5856
7087,5856
7079,5851
7072,5844
7067,5836
7063,5828
7061,5818
7061,5809
7063,5799
7067,5791
7072,5783
7079,5776
7087,5771
7087,5771
7087,5771
7091,5769
7095,5767
7105,5765
7114,5765
7124,5767
Z" /> 
<path style="fill:#848400; fill-opacity:1.0; 
stroke:#848400; stroke-width:0; stroke-opacity:1; 
stroke-linecap:round; stroke-linejoin:round;fill-rule:evenodd;"
d="M 7320,5570
7325,5572
7329,5574
7329,5574
7329,5574
7337,5579
7344,5586
7349,5594
7353,5603
7355,5612
7355,5621
7353,5631
7349,5640
7344,5647
7337,5654
7329,5659
7329,5659
7329,5659
7325,5661
7320,5663
7311,5665
7302,5665
7292,5663
7288,5661
7284,5659
7284,5659
7284,5659
7276,5654
7269,5647
7264,5640
7260,5631
7258,5621
7258,5612
7260,5603
7264,5594
7269,5586
7276,5579
7284,5574
7284,5574
7284,5574
7288,5572
7292,5570
7302,5568
7311,5568
7320,5570
Z" /> 
<path style="fill:#848400; fill-opacity:1.0; 
stroke:#848400; stroke-width:0; stroke-opacity:1; 
stroke-linecap:round; stroke-linejoin:round;fill-rule:evenodd;"
d="M 7124,5570
7128,5572
7132,5574
7132,5574
7132,5574
7140,5579
7147,5586
7152,5594
7156,5603
7158,5612
7158,5621
7156,5631
7152,5640
7147,5647
7140,5654
7132,5659
7132,5659
7132,5659
7128,5661
7124,5663
7114,5665
7105,5665
7095,5663
7091,5661
7087,5659
7087,5659
7087,5659
7079,5654
7072,5647
7067,5640
7063,5631
7061,5621
7061,5612
7063,5603
7067,5594
7072,5586
7079,5579
7087,5574
7087,5574
7087,5574
7091,5572
7095,5570
7105,5568
7114,5568
7124,5570
Z" /> 
<path style="fill:#848400; fill-opacity:1.0; 
stroke:#848400; stroke-width:0; stroke-opacity:1; 
stroke-linecap:round; stroke-linejoin:round;fill-rule:evenodd;"
d="M 5549,5570
5553,5572
5558,5574
5558,5574
5558,5574
5565,5579
5572,5586
5577,5594
5581,5603
5583,5612
5583,5621
5581,5631
5577,5640
5572,5647
5565,5654
5558,5659
5558,5659
5558,5659
5553,5661
5549,5663
5539,5665
5530,5665
5521,5663
5516,5661
5512,5659
5512,5659
5512,5659
5504,5654
5497,5647
5492,5640
5488,5631
5486,5621
5486,5612
5488,5603
5492,5594
5497,5586
5504,5579
5512,5574
5512,5574
5512,5574
5516,5572
5521,5570
5530,5568
5539,5568
5549,5570
Z" /> 
<path style="fill:#848400; fill-opacity:1.0; 
stroke:#848400; stroke-width:0; stroke-opacity:1; 
stroke-linecap:round; stroke-linejoin:round;fill-rule:evenodd;"
d="M 5352,5570
5356,5572
5361,5574
5361,5574
5361,5574
5369,5579
5375,5586
5381,5594
5384,5603
5386,5612
5386,5621
5384,5631
5381,5640
5375,5647
5369,5654
5361,5659
5361,5659
5361,5659
5356,5661
5352,5663
5343,5665
5333,5665
5324,5663
5319,5661
5315,5659
5315,5659
5315,5659
5307,5654
5300,5647
5295,5640
5291,5631
5290,5621
5290,5612
5291,5603
5295,5594
5300,5586
5307,5579
5315,5574
5315,5574
5315,5574
5319,5572
5324,5570
5333,5568
5343,5568
5352,5570
Z" /> 
<path style="fill:#848400; fill-opacity:1.0; 
stroke:#848400; stroke-width:0; stroke-opacity:1; 
stroke-linecap:round; stroke-linejoin:round;fill-rule:evenodd;"
d="M 7320,5373
7325,5375
7329,5377
7329,5377
7329,5377
7337,5382
7344,5389
7349,5397
7353,5406
7355,5415
7355,5425
7353,5434
7349,5443
7344,5451
7337,5457
7329,5463
7329,5463
7329,5463
7325,5464
7320,5466
7311,5468
7302,5468
7292,5466
7288,5464
7284,5463
7284,5463
7284,5463
7276,5457
7269,5451
7264,5443
7260,5434
7258,5425
7258,5415
7260,5406
7264,5397
7269,5389
7276,5382
7284,5377
7284,5377
7284,5377
7288,5375
7292,5373
7302,5372
7311,5372
7320,5373
Z" /> 
<path style="fill:#848400; fill-opacity:1.0; 
stroke:#848400; stroke-width:0; stroke-opacity:1; 
stroke-linecap:round; stroke-linejoin:round;fill-rule:evenodd;"
d="M 7124,5373
7128,5375
7132,5377
7132,5377
7132,5377
7140,5382
7147,5389
7152,5397
7156,5406
7158,5415
7158,5425
7156,5434
7152,5443
7147,5451
7140,5457
7132,5463
7132,5463
7132,5463
7128,5464
7124,5466
7114,5468
7105,5468
7095,5466
7091,5464
7087,5463
7087,5463
7087,5463
7079,5457
7072,5451
7067,5443
7063,5434
7061,5425
7061,5415
7063,5406
7067,5397
7072,5389
7079,5382
7087,5377
7087,5377
7087,5377
7091,5375
7095,5373
7105,5372
7114,5372
7124,5373
Z" /> 
<path style="fill:#848400; fill-opacity:1.0; 
stroke:#848400; stroke-width:0; stroke-opacity:1; 
stroke-linecap:round; stroke-linejoin:round;fill-rule:evenodd;"
d="M 5549,5373
5553,5375
5558,5377
5558,5377
5558,5377
5565,5382
5572,5389
5577,5397
5581,5406
5583,5415
5583,5425
5581,5434
5577,5443
5572,5451
5565,5457
5558,5463
5558,5463
5558,5463
5553,5464
5549,5466
5539,5468
5530,5468
5521,5466
5516,5464
5512,5463
5512,5463
5512,5463
5504,5457
5497,5451
5492,5443
5488,5434
5486,5425
5486,5415
5488,5406
5492,5397
5497,5389
5504,5382
5512,5377
5512,5377
5512,5377
5516,5375
5521,5373
5530,5372
5539,5372
5549,5373
Z" /> 
<path style="fill:#848400; fill-opacity:1.0; 
stroke:#848400; stroke-width:0; stroke-opacity:1; 
stroke-linecap:round; stroke-linejoin:round;fill-rule:evenodd;"
d="M 5352,5373
5356,5375
5361,5377
5361,5377
5361,5377
5369,5382
5375,5389
5381,5397
5384,5406
5386,5415
5386,5425
5384,5434
5381,5443
5375,5451
5369,5457
5361,5463
5361,5463
5361,5463
5356,5464
5352,5466
5343,5468
5333,5468
5324,5466
5319,5464
5315,5463
5315,5463
5315,5463
5307,5457
5300,5451
5295,5443
5291,5434
5290,5425
5290,5415
5291,5406
5295,5397
5300,5389
5307,5382
5315,5377
5315,5377
5315,5377
5319,5375
5324,5373
5333,5372
5343,5372
5352,5373
Z" /> 
<path style="fill:#848400; fill-opacity:1.0; 
stroke:#848400; stroke-width:0; stroke-opacity:1; 
stroke-linecap:round; stroke-linejoin:round;fill-rule:evenodd;"
d="M 6730,5177
6734,5178
6739,5180
6739,5180
6739,5180
6747,5186
6753,5192
6759,5200
6762,5209
6764,5218
6764,5228
6762,5237
6759,5246
6753,5254
6747,5260
6739,5266
6739,5266
6739,5266
6734,5268
6730,5269
6721,5271
6711,5271
6702,5269
6697,5268
6693,5266
6693,5266
6693,5266
6685,5260
6678,5254
6673,5246
6669,5237
6668,5228
6668,5218
6669,5209
6673,5200
6678,5192
6685,5186
6693,5180
6693,5180
6693,5180
6697,5178
6702,5177
6711,5175
6721,5175
6730,5177
Z" /> 
<path style="fill:#848400; fill-opacity:1.0; 
stroke:#848400; stroke-width:0; stroke-opacity:1; 
stroke-linecap:round; stroke-linejoin:round;fill-rule:evenodd;"
d="M 7320,5177
7325,5178
7329,5180
7329,5180
7329,5180
7337,5186
7344,5192
7349,5200
7353,5209
7355,5218
7355,5228
7353,5237
7349,5246
7344,5254
7337,5260
7329,5266
7329,5266
7329,5266
7325,5268
7320,5269
7311,5271
7302,5271
7292,5269
7288,5268
7284,5266
7284,5266
7284,5266
7276,5260
7269,5254
7264,5246
7260,5237
7258,5228
7258,5218
7260,5209
7264,5200
7269,5192
7276,5186
7284,5180
7284,5180
7284,5180
7288,5178
7292,5177
7302,5175
7311,5175
7320,5177
Z" /> 
<path style="fill:#848400; fill-opacity:1.0; 
stroke:#848400; stroke-width:0; stroke-opacity:1; 
stroke-linecap:round; stroke-linejoin:round;fill-rule:evenodd;"
d="M 7124,5177
7128,5178
7132,5180
7132,5180
7132,5180
7140,5186
7147,5192
7152,5200
7156,5209
7158,5218
7158,5228
7156,5237
7152,5246
7147,5254
7140,5260
7132,5266
7132,5266
7132,5266
7128,5268
7124,5269
7114,5271
7105,5271
7095,5269
7091,5268
7087,5266
7087,5266
7087,5266
7079,5260
7072,5254
7067,5246
7063,5237
7061,5228
7061,5218
7063,5209
7067,5200
7072,5192
7079,5186
7087,5180
7087,5180
7087,5180
7091,5178
7095,5177
7105,5175
7114,5175
7124,5177
Z" /> 
<path style="fill:#848400; fill-opacity:1.0; 
stroke:#848400; stroke-width:0; stroke-opacity:1; 
stroke-linecap:round; stroke-linejoin:round;fill-rule:evenodd;"
d="M 5352,5177
5356,5178
5361,5180
5361,5180
5361,5180
5369,5186
5375,5192
5381,5200
5384,5209
5386,5218
5386,5228
5384,5237
5381,5246
5375,5254
5369,5260
5361,5266
5361,5266
5361,5266
5356,5268
5352,5269
5343,5271
5333,5271
5324,5269
5319,5268
5315,5266
5315,5266
5315,5266
5307,5260
5300,5254
5295,5246
5291,5237
5290,5228
5290,5218
5291,5209
5295,5200
5300,5192
5307,5186
5315,5180
5315,5180
5315,5180
5319,5178
5324,5177
5333,5175
5343,5175
5352,5177
Z" /> 
<path style="fill:#848400; fill-opacity:1.0; 
stroke:#848400; stroke-width:0; stroke-opacity:1; 
stroke-linecap:round; stroke-linejoin:round;fill-rule:evenodd;"
d="M 6927,5177
6931,5178
6935,5180
6935,5180
6935,5180
6943,5186
6950,5192
6955,5200
6959,5209
6961,5218
6961,5228
6959,5237
6955,5246
6950,5254
6943,5260
6935,5266
6935,5266
6935,5266
6931,5268
6927,5269
6917,5271
6908,5271
6899,5269
6894,5268
6890,5266
6890,5266
6890,5266
6882,5260
6875,5254
6870,5246
6866,5237
6864,5228
6864,5218
6866,5209
6870,5200
6875,5192
6882,5186
6890,5180
6890,5180
6890,5180
6894,5178
6899,5177
6908,5175
6917,5175
6927,5177
Z" /> 
<path style="fill:#848400; fill-opacity:1.0; 
stroke:#848400; stroke-width:0; stroke-opacity:1; 
stroke-linecap:round; stroke-linejoin:round;fill-rule:evenodd;"
d="M 6336,5177
6341,5178
6345,5180
6345,5180
6345,5180
6353,5186
6360,5192
6365,5200
6368,5209
6370,5218
6370,5228
6368,5237
6365,5246
6360,5254
6353,5260
6345,5266
6345,5266
6345,5266
6341,5268
6336,5269
6327,5271
6317,5271
6308,5269
6304,5268
6299,5266
6299,5266
6299,5266
6291,5260
6285,5254
6279,5246
6276,5237
6274,5228
6274,5218
6276,5209
6279,5200
6285,5192
6291,5186
6299,5180
6299,5180
6299,5180
6304,5178
6308,5177
6317,5175
6327,5175
6336,5177
Z" /> 
<path style="fill:#848400; fill-opacity:1.0; 
stroke:#848400; stroke-width:0; stroke-opacity:1; 
stroke-linecap:round; stroke-linejoin:round;fill-rule:evenodd;"
d="M 6139,5177
6144,5178
6148,5180
6148,5180
6148,5180
6156,5186
6163,5192
6168,5200
6172,5209
6173,5218
6173,5228
6172,5237
6168,5246
6163,5254
6156,5260
6148,5266
6148,5266
6148,5266
6144,5268
6139,5269
6130,5271
6120,5271
6111,5269
6107,5268
6102,5266
6102,5266
6102,5266
6095,5260
6088,5254
6083,5246
6079,5237
6077,5228
6077,5218
6079,5209
6083,5200
6088,5192
6095,5186
6102,5180
6102,5180
6102,5180
6107,5178
6111,5177
6120,5175
6130,5175
6139,5177
Z" /> 
<path style="fill:#848400; fill-opacity:1.0; 
stroke:#848400; stroke-width:0; stroke-opacity:1; 
stroke-linecap:round; stroke-linejoin:round;fill-rule:evenodd;"
d="M 5942,5177
5947,5178
5951,5180
5951,5180
5951,5180
5959,5186
5966,5192
5971,5200
5975,5209
5977,5218
5977,5228
5975,5237
5971,5246
5966,5254
5959,5260
5951,5266
5951,5266
5951,5266
5947,5268
5942,5269
5933,5271
5924,5271
5914,5269
5910,5268
5906,5266
5906,5266
5906,5266
5898,5260
5891,5254
5886,5246
5882,5237
5880,5228
5880,5218
5882,5209
5886,5200
5891,5192
5898,5186
5906,5180
5906,5180
5906,5180
5910,5178
5914,5177
5924,5175
5933,5175
5942,5177
Z" /> 
<path style="fill:#848400; fill-opacity:1.0; 
stroke:#848400; stroke-width:0; stroke-opacity:1; 
stroke-linecap:round; stroke-linejoin:round;fill-rule:evenodd;"
d="M 5746,5177
5750,5178
5754,5180
5754,5180
5754,5180
5762,5186
5769,5192
5774,5200
5778,5209
5780,5218
5780,5228
5778,5237
5774,5246
5769,5254
5762,5260
5754,5266
5754,5266
5754,5266
5750,5268
5746,5269
5736,5271
5727,5271
5717,5269
5713,5268
5709,5266
5709,5266
5709,5266
5701,5260
5694,5254
5689,5246
5685,5237
5683,5228
5683,5218
5685,5209
5689,5200
5694,5192
5701,5186
5709,5180
5709,5180
5709,5180
5713,5178
5717,5177
5727,5175
5736,5175
5746,5177
Z" /> 
<path style="fill:#848400; fill-opacity:1.0; 
stroke:#848400; stroke-width:0; stroke-opacity:1; 
stroke-linecap:round; stroke-linejoin:round;fill-rule:evenodd;"
d="M 5549,5177
5553,5178
5558,5180
5558,5180
5558,5180
5565,5186
5572,5192
5577,5200
5581,5209
5583,5218
5583,5228
5581,5237
5577,5246
5572,5254
5565,5260
5558,5266
5558,5266
5558,5266
5553,5268
5549,5269
5539,5271
5530,5271
5521,5269
5516,5268
5512,5266
5512,5266
5512,5266
5504,5260
5497,5254
5492,5246
5488,5237
5486,5228
5486,5218
5488,5209
5492,5200
5497,5192
5504,5186
5512,5180
5512,5180
5512,5180
5516,5178
5521,5177
5530,5175
5539,5175
5549,5177
Z" /> 
<path style="fill:#848400; fill-opacity:1.0; 
stroke:#848400; stroke-width:0; stroke-opacity:1; 
stroke-linecap:round; stroke-linejoin:round;fill-rule:evenodd;"
d="M 6533,5177
6537,5178
6542,5180
6542,5180
6542,5180
6550,5186
6556,5192
6562,5200
6565,5209
6567,5218
6567,5228
6565,5237
6562,5246
6556,5254
6550,5260
6542,5266
6542,5266
6542,5266
6537,5268
6533,5269
6524,5271
6514,5271
6505,5269
6500,5268
6496,5266
6496,5266
6496,5266
6488,5260
6481,5254
6476,5246
6473,5237
6471,5228
6471,5218
6473,5209
6476,5200
6481,5192
6488,5186
6496,5180
6496,5180
6496,5180
6500,5178
6505,5177
6514,5175
6524,5175
6533,5177
Z" /> 
<path style="fill:#848400; fill-opacity:1.0; 
stroke:#848400; stroke-width:0; stroke-opacity:1; 
stroke-linecap:round; stroke-linejoin:round;fill-rule:evenodd;"
d="M 5352,4980
5356,4982
5361,4983
5361,4983
5361,4983
5369,4989
5375,4995
5381,5003
5384,5012
5386,5021
5386,5031
5384,5040
5381,5049
5375,5057
5369,5064
5361,5069
5361,5069
5361,5069
5356,5071
5352,5072
5343,5074
5333,5074
5324,5072
5319,5071
5315,5069
5315,5069
5315,5069
5307,5064
5300,5057
5295,5049
5291,5040
5290,5031
5290,5021
5291,5012
5295,5003
5300,4995
5307,4989
5315,4983
5315,4983
5315,4983
5319,4982
5324,4980
5333,4978
5343,4978
5352,4980
Z" /> 
<path style="fill:#848400; fill-opacity:1.0; 
stroke:#848400; stroke-width:0; stroke-opacity:1; 
stroke-linecap:round; stroke-linejoin:round;fill-rule:evenodd;"
d="M 7124,4980
7128,4982
7132,4983
7132,4983
7132,4983
7140,4989
7147,4995
7152,5003
7156,5012
7158,5021
7158,5031
7156,5040
7152,5049
7147,5057
7140,5064
7132,5069
7132,5069
7132,5069
7128,5071
7124,5072
7114,5074
7105,5074
7095,5072
7091,5071
7087,5069
7087,5069
7087,5069
7079,5064
7072,5057
7067,5049
7063,5040
7061,5031
7061,5021
7063,5012
7067,5003
7072,4995
7079,4989
7087,4983
7087,4983
7087,4983
7091,4982
7095,4980
7105,4978
7114,4978
7124,4980
Z" /> 
<path style="fill:#848400; fill-opacity:1.0; 
stroke:#848400; stroke-width:0; stroke-opacity:1; 
stroke-linecap:round; stroke-linejoin:round;fill-rule:evenodd;"
d="M 6927,4980
6931,4982
6935,4983
6935,4983
6935,4983
6943,4989
6950,4995
6955,5003
6959,5012
6961,5021
6961,5031
6959,5040
6955,5049
6950,5057
6943,5064
6935,5069
6935,5069
6935,5069
6931,5071
6927,5072
6917,5074
6908,5074
6899,5072
6894,5071
6890,5069
6890,5069
6890,5069
6882,5064
6875,5057
6870,5049
6866,5040
6864,5031
6864,5021
6866,5012
6870,5003
6875,4995
6882,4989
6890,4983
6890,4983
6890,4983
6894,4982
6899,4980
6908,4978
6917,4978
6927,4980
Z" /> 
<path style="fill:#848400; fill-opacity:1.0; 
stroke:#848400; stroke-width:0; stroke-opacity:1; 
stroke-linecap:round; stroke-linejoin:round;fill-rule:evenodd;"
d="M 6730,4980
6734,4982
6739,4983
6739,4983
6739,4983
6747,4989
6753,4995
6759,5003
6762,5012
6764,5021
6764,5031
6762,5040
6759,5049
6753,5057
6747,5064
6739,5069
6739,5069
6739,5069
6734,5071
6730,5072
6721,5074
6711,5074
6702,5072
6697,5071
6693,5069
6693,5069
6693,5069
6685,5064
6678,5057
6673,5049
6669,5040
6668,5031
6668,5021
6669,5012
6673,5003
6678,4995
6685,4989
6693,4983
6693,4983
6693,4983
6697,4982
6702,4980
6711,4978
6721,4978
6730,4980
Z" /> 
<path style="fill:#848400; fill-opacity:1.0; 
stroke:#848400; stroke-width:0; stroke-opacity:1; 
stroke-linecap:round; stroke-linejoin:round;fill-rule:evenodd;"
d="M 7320,4980
7325,4982
7329,4983
7329,4983
7329,4983
7337,4989
7344,4995
7349,5003
7353,5012
7355,5021
7355,5031
7353,5040
7349,5049
7344,5057
7337,5064
7329,5069
7329,5069
7329,5069
7325,5071
7320,5072
7311,5074
7302,5074
7292,5072
7288,5071
7284,5069
7284,5069
7284,5069
7276,5064
7269,5057
7264,5049
7260,5040
7258,5031
7258,5021
7260,5012
7264,5003
7269,4995
7276,4989
7284,4983
7284,4983
7284,4983
7288,4982
7292,4980
7302,4978
7311,4978
7320,4980
Z" /> 
<path style="fill:#848400; fill-opacity:1.0; 
stroke:#848400; stroke-width:0; stroke-opacity:1; 
stroke-linecap:round; stroke-linejoin:round;fill-rule:evenodd;"
d="M 6336,4980
6341,4982
6345,4983
6345,4983
6345,4983
6353,4989
6360,4995
6365,5003
6368,5012
6370,5021
6370,5031
6368,5040
6365,5049
6360,5057
6353,5064
6345,5069
6345,5069
6345,5069
6341,5071
6336,5072
6327,5074
6317,5074
6308,5072
6304,5071
6299,5069
6299,5069
6299,5069
6291,5064
6285,5057
6279,5049
6276,5040
6274,5031
6274,5021
6276,5012
6279,5003
6285,4995
6291,4989
6299,4983
6299,4983
6299,4983
6304,4982
6308,4980
6317,4978
6327,4978
6336,4980
Z" /> 
<path style="fill:#848400; fill-opacity:1.0; 
stroke:#848400; stroke-width:0; stroke-opacity:1; 
stroke-linecap:round; stroke-linejoin:round;fill-rule:evenodd;"
d="M 6139,4980
6144,4982
6148,4983
6148,4983
6148,4983
6156,4989
6163,4995
6168,5003
6172,5012
6173,5021
6173,5031
6172,5040
6168,5049
6163,5057
6156,5064
6148,5069
6148,5069
6148,5069
6144,5071
6139,5072
6130,5074
6120,5074
6111,5072
6107,5071
6102,5069
6102,5069
6102,5069
6095,5064
6088,5057
6083,5049
6079,5040
6077,5031
6077,5021
6079,5012
6083,5003
6088,4995
6095,4989
6102,4983
6102,4983
6102,4983
6107,4982
6111,4980
6120,4978
6130,4978
6139,4980
Z" /> 
<path style="fill:#848400; fill-opacity:1.0; 
stroke:#848400; stroke-width:0; stroke-opacity:1; 
stroke-linecap:round; stroke-linejoin:round;fill-rule:evenodd;"
d="M 5942,4980
5947,4982
5951,4983
5951,4983
5951,4983
5959,4989
5966,4995
5971,5003
5975,5012
5977,5021
5977,5031
5975,5040
5971,5049
5966,5057
5959,5064
5951,5069
5951,5069
5951,5069
5947,5071
5942,5072
5933,5074
5924,5074
5914,5072
5910,5071
5906,5069
5906,5069
5906,5069
5898,5064
5891,5057
5886,5049
5882,5040
5880,5031
5880,5021
5882,5012
5886,5003
5891,4995
5898,4989
5906,4983
5906,4983
5906,4983
5910,4982
5914,4980
5924,4978
5933,4978
5942,4980
Z" /> 
<path style="fill:#848400; fill-opacity:1.0; 
stroke:#848400; stroke-width:0; stroke-opacity:1; 
stroke-linecap:round; stroke-linejoin:round;fill-rule:evenodd;"
d="M 5746,4980
5750,4982
5754,4983
5754,4983
5754,4983
5762,4989
5769,4995
5774,5003
5778,5012
5780,5021
5780,5031
5778,5040
5774,5049
5769,5057
5762,5064
5754,5069
5754,5069
5754,5069
5750,5071
5746,5072
5736,5074
5727,5074
5717,5072
5713,5071
5709,5069
5709,5069
5709,5069
5701,5064
5694,5057
5689,5049
5685,5040
5683,5031
5683,5021
5685,5012
5689,5003
5694,4995
5701,4989
5709,4983
5709,4983
5709,4983
5713,4982
5717,4980
5727,4978
5736,4978
5746,4980
Z" /> 
<path style="fill:#848400; fill-opacity:1.0; 
stroke:#848400; stroke-width:0; stroke-opacity:1; 
stroke-linecap:round; stroke-linejoin:round;fill-rule:evenodd;"
d="M 5549,4980
5553,4982
5558,4983
5558,4983
5558,4983
5565,4989
5572,4995
5577,5003
5581,5012
5583,5021
5583,5031
5581,5040
5577,5049
5572,5057
5565,5064
5558,5069
5558,5069
5558,5069
5553,5071
5549,5072
5539,5074
5530,5074
5521,5072
5516,5071
5512,5069
5512,5069
5512,5069
5504,5064
5497,5057
5492,5049
5488,5040
5486,5031
5486,5021
5488,5012
5492,5003
5497,4995
5504,4989
5512,4983
5512,4983
5512,4983
5516,4982
5521,4980
5530,4978
5539,4978
5549,4980
Z" /> 
<path style="fill:#848400; fill-opacity:1.0; 
stroke:#848400; stroke-width:0; stroke-opacity:1; 
stroke-linecap:round; stroke-linejoin:round;fill-rule:evenodd;"
d="M 6533,4980
6537,4982
6542,4983
6542,4983
6542,4983
6550,4989
6556,4995
6562,5003
6565,5012
6567,5021
6567,5031
6565,5040
6562,5049
6556,5057
6550,5064
6542,5069
6542,5069
6542,5069
6537,5071
6533,5072
6524,5074
6514,5074
6505,5072
6500,5071
6496,5069
6496,5069
6496,5069
6488,5064
6481,5057
6476,5049
6473,5040
6471,5031
6471,5021
6473,5012
6476,5003
6481,4995
6488,4989
6496,4983
6496,4983
6496,4983
6500,4982
6505,4980
6514,4978
6524,4978
6533,4980
Z" /> 
</g>
<g style="fill:#000000; fill-opacity:1.0; 
stroke:#000000; stroke-width:0; stroke-opacity:1; 
stroke-linecap:round; stroke-linejoin:round;">
</g>
<g style="fill:#C2C200; fill-opacity:1.0; 
stroke:#C2C200; stroke-width:0; stroke-opacity:1; 
stroke-linecap:round; stroke-linejoin:round;">
</g>
<g style="fill:#C2C200; fill-opacity:1.0; 
stroke:#C2C200; stroke-width:19.685; stroke-opacity:1; 
stroke-linecap:round; stroke-linejoin:round;">
</g>
<g style="fill:#C2C200; fill-opacity:0.0; 
stroke:#C2C200; stroke-width:19.685; stroke-opacity:1; 
stroke-linecap:round; stroke-linejoin:round;">
<path d="M7509 3774
L5147 3774
" />
<path d="M8297 7317
L8297 4168
" />
<path d="M8297 7514
L4360 7514
" />
<path d="M8297 3774
L7509 3774
" />
<path d="M8297 3774
L8297 4168
" />
<path d="M8297 7317
L8297 7514
" />
<path d="M5147 3774
L4360 3774
" />
<path d="M4360 7514
L4360 3774
" />
<g >
</g>
<g >
</g>
<g >
</g>
<g >
</g>
<g >
</g>
<g >
</g>
<g >
</g>
<g >
</g>
<g >
</g>
<g >
</g>
<g >
</g>
<g >
</g>
<g >
</g>
<g >
</g>
<g >
</g>
<g >
</g>
<g >
</g>
<g >
</g>
<g >
</g>
<g >
</g>
<g >
</g>
<g >
</g>
<g >
</g>
<g >
</g>
<g >
</g>
<g >
</g>
<g >
</g>
<g >
</g>
<g >
</g>
<g >
</g>
<g >
</g>
</g> 
</svg>
