<?xml version="1.0" standalone="no"?>
 <!DOCTYPE svg PUBLIC "-//W3C//DTD SVG 1.1//EN" 
 "http://www.w3.org/Graphics/SVG/1.1/DTD/svg11.dtd"> 
<svg xmlns="http://www.w3.org/2000/svg" version="1.1" 
    width="3.11404cm" height="2.7432cm" viewBox="0 0 12260 10800 ">
<title>SVG Picture created as Miniscope-v4-Rigid-Flex-F_Cu.svg date 2019/10/03 22:30:00 </title>
  <desc>Picture generated by PCBNEW </desc>
<g style="fill:#000000; fill-opacity:1;stroke:#000000; stroke-opacity:1;
stroke-linecap:round; stroke-linejoin:round; "
 transform="translate(0 0) scale(1 1)">
</g>
<g style="fill:#000000; fill-opacity:0.0; 
stroke:#000000; stroke-width:-0.000393701; stroke-opacity:1; 
stroke-linecap:round; stroke-linejoin:round;">
<g >
</g>
<g style="fill:#840000; fill-opacity:0.0; 
stroke:#840000; stroke-width:-0.000393701; stroke-opacity:1; 
stroke-linecap:round; stroke-linejoin:round;">
</g>
<g style="fill:#840000; fill-opacity:0.0; 
stroke:#840000; stroke-width:0; stroke-opacity:1; 
stroke-linecap:round; stroke-linejoin:round;">
</g>
<g style="fill:#840000; fill-opacity:1.0; 
stroke:#840000; stroke-width:0; stroke-opacity:1; 
stroke-linecap:round; stroke-linejoin:round;">
<path style="fill:#840000; fill-opacity:1.0; 
stroke:#840000; stroke-width:0; stroke-opacity:1; 
stroke-linecap:round; stroke-linejoin:round;fill-rule:evenodd;"
d="M 7138,6146
7141,6146
7144,6147
7147,6148
7150,6149
7152,6151
7154,6153
7157,6155
7159,6157
7160,6159
7162,6162
7163,6165
7164,6167
7165,6170
7165,6173
7166,6176
7166,6249
7165,6252
7165,6255
7164,6258
7163,6261
7162,6263
7160,6266
7159,6268
7157,6271
7154,6273
7152,6274
7150,6276
7147,6277
7144,6278
7141,6279
7138,6279
7135,6280
7074,6280
7071,6279
7068,6279
7065,6278
7062,6277
7060,6276
7057,6274
7055,6273
7053,6271
7051,6268
7049,6266
7047,6263
7046,6261
7045,6258
7044,6255
7044,6252
7044,6249
7044,6176
7044,6173
7044,6170
7045,6167
7046,6165
7047,6162
7049,6159
7051,6157
7053,6155
7055,6153
7057,6151
7060,6149
7062,6148
7065,6147
7068,6146
7071,6146
7074,6146
7135,6146
7138,6146
Z" /> 
<path style="fill:#840000; fill-opacity:1.0; 
stroke:#840000; stroke-width:0; stroke-opacity:1; 
stroke-linecap:round; stroke-linejoin:round;fill-rule:evenodd;"
d="M 7355,6146
7358,6146
7361,6147
7363,6148
7366,6149
7369,6151
7371,6153
7373,6155
7375,6157
7377,6159
7379,6162
7380,6165
7381,6167
7382,6170
7382,6173
7382,6176
7382,6249
7382,6252
7382,6255
7381,6258
7380,6261
7379,6263
7377,6266
7375,6268
7373,6271
7371,6273
7369,6274
7366,6276
7363,6277
7361,6278
7358,6279
7355,6279
7352,6280
7291,6280
7288,6279
7285,6279
7282,6278
7279,6277
7276,6276
7274,6274
7271,6273
7269,6271
7267,6268
7265,6266
7264,6263
7262,6261
7261,6258
7261,6255
7260,6252
7260,6249
7260,6176
7260,6173
7261,6170
7261,6167
7262,6165
7264,6162
7265,6159
7267,6157
7269,6155
7271,6153
7274,6151
7276,6149
7279,6148
7282,6147
7285,6146
7288,6146
7291,6146
7352,6146
7355,6146
Z" /> 
</g>
<g >
<path style="fill:#840000; fill-opacity:1.0; 
stroke:#840000; stroke-width:0; stroke-opacity:1; 
stroke-linecap:round; stroke-linejoin:round;fill-rule:evenodd;"
d="M 7760,5019
7766,5020
7771,5021
7777,5023
7782,5025
7786,5028
7791,5032
7795,5035
7799,5040
7802,5044
7805,5049
7808,5054
7809,5059
7811,5065
7812,5070
7812,5076
7812,5210
7812,5215
7811,5221
7809,5226
7808,5231
7805,5236
7802,5241
7799,5246
7795,5250
7791,5254
7786,5257
7782,5260
7777,5262
7771,5264
7766,5266
7760,5266
7755,5267
7641,5267
7635,5266
7629,5266
7624,5264
7619,5262
7614,5260
7609,5257
7604,5254
7600,5250
7596,5246
7593,5241
7590,5236
7588,5231
7586,5226
7585,5221
7584,5215
7584,5210
7584,5076
7584,5070
7585,5065
7586,5059
7588,5054
7590,5049
7593,5044
7596,5040
7600,5035
7604,5032
7609,5028
7614,5025
7619,5023
7624,5021
7629,5020
7635,5019
7641,5019
7755,5019
7760,5019
Z" /> 
<path style="fill:#840000; fill-opacity:1.0; 
stroke:#840000; stroke-width:0; stroke-opacity:1; 
stroke-linecap:round; stroke-linejoin:round;fill-rule:evenodd;"
d="M 8111,5019
8116,5020
8122,5021
8127,5023
8132,5025
8137,5028
8141,5032
8146,5035
8149,5040
8153,5044
8156,5049
8158,5054
8160,5059
8161,5065
8162,5070
8162,5076
8162,5210
8162,5215
8161,5221
8160,5226
8158,5231
8156,5236
8153,5241
8149,5246
8146,5250
8141,5254
8137,5257
8132,5260
8127,5262
8122,5264
8116,5266
8111,5266
8105,5267
7991,5267
7985,5266
7980,5266
7974,5264
7969,5262
7964,5260
7959,5257
7955,5254
7951,5250
7947,5246
7944,5241
7941,5236
7938,5231
7936,5226
7935,5221
7934,5215
7934,5210
7934,5076
7934,5070
7935,5065
7936,5059
7938,5054
7941,5049
7944,5044
7947,5040
7951,5035
7955,5032
7959,5028
7964,5025
7969,5023
7974,5021
7980,5020
7985,5019
7991,5019
8105,5019
8111,5019
Z" /> 
</g>
<g >
<path style="fill:#840000; fill-opacity:1.0; 
stroke:#840000; stroke-width:0; stroke-opacity:1; 
stroke-linecap:round; stroke-linejoin:round;fill-rule:evenodd;"
d="M 7342,5354
7345,5354
7348,5355
7351,5356
7354,5357
7356,5359
7359,5360
7361,5362
7363,5365
7365,5367
7366,5369
7367,5372
7369,5375
7369,5378
7370,5381
7370,5384
7370,5445
7370,5448
7369,5451
7369,5454
7367,5457
7366,5459
7365,5462
7363,5464
7361,5466
7359,5468
7356,5470
7354,5472
7351,5473
7348,5474
7345,5475
7342,5475
7339,5475
7266,5475
7263,5475
7261,5475
7258,5474
7255,5473
7252,5472
7250,5470
7247,5468
7245,5466
7243,5464
7241,5462
7240,5459
7238,5457
7237,5454
7237,5451
7236,5448
7236,5445
7236,5384
7236,5381
7237,5378
7237,5375
7238,5372
7240,5369
7241,5367
7243,5365
7245,5362
7247,5360
7250,5359
7252,5357
7255,5356
7258,5355
7261,5354
7263,5354
7266,5353
7339,5353
7342,5354
Z" /> 
<path style="fill:#840000; fill-opacity:1.0; 
stroke:#840000; stroke-width:0; stroke-opacity:1; 
stroke-linecap:round; stroke-linejoin:round;fill-rule:evenodd;"
d="M 7342,5570
7345,5570
7348,5571
7351,5572
7354,5573
7356,5575
7359,5577
7361,5579
7363,5581
7365,5583
7366,5586
7367,5589
7369,5592
7369,5594
7370,5597
7370,5600
7370,5661
7370,5664
7369,5667
7369,5670
7367,5673
7366,5676
7365,5678
7363,5681
7361,5683
7359,5685
7356,5687
7354,5688
7351,5690
7348,5691
7345,5691
7342,5692
7339,5692
7266,5692
7263,5692
7261,5691
7258,5691
7255,5690
7252,5688
7250,5687
7247,5685
7245,5683
7243,5681
7241,5678
7240,5676
7238,5673
7237,5670
7237,5667
7236,5664
7236,5661
7236,5600
7236,5597
7237,5594
7237,5592
7238,5589
7240,5586
7241,5583
7243,5581
7245,5579
7247,5577
7250,5575
7252,5573
7255,5572
7258,5571
7261,5570
7263,5570
7266,5570
7339,5570
7342,5570
Z" /> 
</g>
<g >
<path style="fill:#840000; fill-opacity:1.0; 
stroke:#840000; stroke-width:0; stroke-opacity:1; 
stroke-linecap:round; stroke-linejoin:round;fill-rule:evenodd;"
d="M 7162,4954
7165,4954
7168,4955
7171,4956
7174,4957
7176,4959
7179,4960
7181,4962
7183,4965
7185,4967
7186,4969
7187,4972
7189,4975
7189,4978
7190,4981
7190,4984
7190,5045
7190,5048
7189,5051
7189,5054
7187,5057
7186,5059
7185,5062
7183,5064
7181,5066
7179,5068
7176,5070
7174,5072
7171,5073
7168,5074
7165,5075
7162,5075
7159,5075
7086,5075
7083,5075
7081,5075
7078,5074
7075,5073
7072,5072
7070,5070
7067,5068
7065,5066
7063,5064
7061,5062
7060,5059
7058,5057
7057,5054
7057,5051
7056,5048
7056,5045
7056,4984
7056,4981
7057,4978
7057,4975
7058,4972
7060,4969
7061,4967
7063,4965
7065,4962
7067,4960
7070,4959
7072,4957
7075,4956
7078,4955
7081,4954
7083,4954
7086,4953
7159,4953
7162,4954
Z" /> 
<path style="fill:#840000; fill-opacity:1.0; 
stroke:#840000; stroke-width:0; stroke-opacity:1; 
stroke-linecap:round; stroke-linejoin:round;fill-rule:evenodd;"
d="M 7162,5170
7165,5170
7168,5171
7171,5172
7174,5173
7176,5175
7179,5177
7181,5179
7183,5181
7185,5183
7186,5186
7187,5189
7189,5192
7189,5194
7190,5197
7190,5200
7190,5261
7190,5264
7189,5267
7189,5270
7187,5273
7186,5276
7185,5278
7183,5281
7181,5283
7179,5285
7176,5287
7174,5288
7171,5290
7168,5291
7165,5291
7162,5292
7159,5292
7086,5292
7083,5292
7081,5291
7078,5291
7075,5290
7072,5288
7070,5287
7067,5285
7065,5283
7063,5281
7061,5278
7060,5276
7058,5273
7057,5270
7057,5267
7056,5264
7056,5261
7056,5200
7056,5197
7057,5194
7057,5192
7058,5189
7060,5186
7061,5183
7063,5181
7065,5179
7067,5177
7070,5175
7072,5173
7075,5172
7078,5171
7081,5170
7083,5170
7086,5170
7159,5170
7162,5170
Z" /> 
</g>
<g >
<path style="fill:#840000; fill-opacity:1.0; 
stroke:#840000; stroke-width:0; stroke-opacity:1; 
stroke-linecap:round; stroke-linejoin:round;fill-rule:evenodd;"
d="M 7352,4954
7355,4954
7358,4955
7361,4956
7364,4957
7366,4959
7369,4960
7371,4962
7373,4965
7375,4967
7376,4969
7377,4972
7379,4975
7379,4978
7380,4981
7380,4984
7380,5045
7380,5048
7379,5051
7379,5054
7377,5057
7376,5059
7375,5062
7373,5064
7371,5066
7369,5068
7366,5070
7364,5072
7361,5073
7358,5074
7355,5075
7352,5075
7349,5075
7276,5075
7273,5075
7271,5075
7268,5074
7265,5073
7262,5072
7260,5070
7257,5068
7255,5066
7253,5064
7251,5062
7250,5059
7248,5057
7247,5054
7247,5051
7246,5048
7246,5045
7246,4984
7246,4981
7247,4978
7247,4975
7248,4972
7250,4969
7251,4967
7253,4965
7255,4962
7257,4960
7260,4959
7262,4957
7265,4956
7268,4955
7271,4954
7273,4954
7276,4953
7349,4953
7352,4954
Z" /> 
<path style="fill:#840000; fill-opacity:1.0; 
stroke:#840000; stroke-width:0; stroke-opacity:1; 
stroke-linecap:round; stroke-linejoin:round;fill-rule:evenodd;"
d="M 7352,5170
7355,5170
7358,5171
7361,5172
7364,5173
7366,5175
7369,5177
7371,5179
7373,5181
7375,5183
7376,5186
7377,5189
7379,5192
7379,5194
7380,5197
7380,5200
7380,5261
7380,5264
7379,5267
7379,5270
7377,5273
7376,5276
7375,5278
7373,5281
7371,5283
7369,5285
7366,5287
7364,5288
7361,5290
7358,5291
7355,5291
7352,5292
7349,5292
7276,5292
7273,5292
7271,5291
7268,5291
7265,5290
7262,5288
7260,5287
7257,5285
7255,5283
7253,5281
7251,5278
7250,5276
7248,5273
7247,5270
7247,5267
7246,5264
7246,5261
7246,5200
7246,5197
7247,5194
7247,5192
7248,5189
7250,5186
7251,5183
7253,5181
7255,5179
7257,5177
7260,5175
7262,5173
7265,5172
7268,5171
7271,5170
7273,5170
7276,5170
7349,5170
7352,5170
Z" /> 
</g>
<g >
<path style="fill:#840000; fill-opacity:1.0; 
stroke:#840000; stroke-width:0; stroke-opacity:1; 
stroke-linecap:round; stroke-linejoin:round;fill-rule:evenodd;"
d="M 5366,6136
5369,6136
5372,6137
5375,6138
5378,6139
5380,6141
5383,6143
5385,6145
5387,6147
5389,6149
5390,6152
5392,6155
5393,6157
5393,6160
5394,6163
5394,6166
5394,6239
5394,6242
5393,6245
5393,6248
5392,6251
5390,6253
5389,6256
5387,6258
5385,6261
5383,6263
5380,6264
5378,6266
5375,6267
5372,6268
5369,6269
5366,6269
5363,6270
5302,6270
5299,6269
5296,6269
5294,6268
5291,6267
5288,6266
5285,6264
5283,6263
5281,6261
5279,6258
5277,6256
5275,6253
5274,6251
5273,6248
5272,6245
5272,6242
5272,6239
5272,6166
5272,6163
5272,6160
5273,6157
5274,6155
5275,6152
5277,6149
5279,6147
5281,6145
5283,6143
5285,6141
5288,6139
5291,6138
5294,6137
5296,6136
5299,6136
5302,6136
5363,6136
5366,6136
Z" /> 
<path style="fill:#840000; fill-opacity:1.0; 
stroke:#840000; stroke-width:0; stroke-opacity:1; 
stroke-linecap:round; stroke-linejoin:round;fill-rule:evenodd;"
d="M 5583,6136
5586,6136
5589,6137
5592,6138
5594,6139
5597,6141
5599,6143
5602,6145
5604,6147
5605,6149
5607,6152
5608,6155
5609,6157
5610,6160
5610,6163
5610,6166
5610,6239
5610,6242
5610,6245
5609,6248
5608,6251
5607,6253
5605,6256
5604,6258
5602,6261
5599,6263
5597,6264
5594,6266
5592,6267
5589,6268
5586,6269
5583,6269
5580,6270
5519,6270
5516,6269
5513,6269
5510,6268
5507,6267
5505,6266
5502,6264
5500,6263
5497,6261
5495,6258
5494,6256
5492,6253
5491,6251
5490,6248
5489,6245
5489,6242
5488,6239
5488,6166
5489,6163
5489,6160
5490,6157
5491,6155
5492,6152
5494,6149
5495,6147
5497,6145
5500,6143
5502,6141
5505,6139
5507,6138
5510,6137
5513,6136
5516,6136
5519,6136
5580,6136
5583,6136
Z" /> 
</g>
<g >
<path style="fill:#840000; fill-opacity:1.0; 
stroke:#840000; stroke-width:0; stroke-opacity:1; 
stroke-linecap:round; stroke-linejoin:round;fill-rule:evenodd;"
d="M 5348,6556
5351,6556
5354,6557
5357,6558
5360,6559
5362,6561
5364,6563
5367,6565
5369,6567
5370,6569
5372,6572
5373,6575
5374,6577
5375,6580
5375,6583
5376,6586
5376,6659
5375,6662
5375,6665
5374,6668
5373,6671
5372,6673
5370,6676
5369,6678
5367,6681
5364,6683
5362,6684
5360,6686
5357,6687
5354,6688
5351,6689
5348,6689
5345,6690
5284,6690
5281,6689
5278,6689
5275,6688
5272,6687
5270,6686
5267,6684
5265,6683
5263,6681
5261,6678
5259,6676
5257,6673
5256,6671
5255,6668
5254,6665
5254,6662
5254,6659
5254,6586
5254,6583
5254,6580
5255,6577
5256,6575
5257,6572
5259,6569
5261,6567
5263,6565
5265,6563
5267,6561
5270,6559
5272,6558
5275,6557
5278,6556
5281,6556
5284,6556
5345,6556
5348,6556
Z" /> 
<path style="fill:#840000; fill-opacity:1.0; 
stroke:#840000; stroke-width:0; stroke-opacity:1; 
stroke-linecap:round; stroke-linejoin:round;fill-rule:evenodd;"
d="M 5565,6556
5568,6556
5571,6557
5573,6558
5576,6559
5579,6561
5581,6563
5583,6565
5585,6567
5587,6569
5589,6572
5590,6575
5591,6577
5592,6580
5592,6583
5592,6586
5592,6659
5592,6662
5592,6665
5591,6668
5590,6671
5589,6673
5587,6676
5585,6678
5583,6681
5581,6683
5579,6684
5576,6686
5573,6687
5571,6688
5568,6689
5565,6689
5562,6690
5501,6690
5498,6689
5495,6689
5492,6688
5489,6687
5486,6686
5484,6684
5481,6683
5479,6681
5477,6678
5475,6676
5474,6673
5472,6671
5471,6668
5471,6665
5470,6662
5470,6659
5470,6586
5470,6583
5471,6580
5471,6577
5472,6575
5474,6572
5475,6569
5477,6567
5479,6565
5481,6563
5484,6561
5486,6559
5489,6558
5492,6557
5495,6556
5498,6556
5501,6556
5562,6556
5565,6556
Z" /> 
</g>
<g >
<path style="fill:#840000; fill-opacity:1.0; 
stroke:#840000; stroke-width:0; stroke-opacity:1; 
stroke-linecap:round; stroke-linejoin:round;fill-rule:evenodd;"
d="M 5772,5180
5775,5180
5778,5181
5781,5182
5784,5183
5786,5185
5789,5187
5791,5189
5793,5191
5795,5193
5796,5196
5797,5199
5799,5202
5799,5204
5800,5207
5800,5210
5800,5271
5800,5274
5799,5277
5799,5280
5797,5283
5796,5286
5795,5288
5793,5291
5791,5293
5789,5295
5786,5297
5784,5298
5781,5300
5778,5301
5775,5301
5772,5302
5769,5302
5696,5302
5693,5302
5691,5301
5688,5301
5685,5300
5682,5298
5680,5297
5677,5295
5675,5293
5673,5291
5671,5288
5670,5286
5668,5283
5667,5280
5667,5277
5666,5274
5666,5271
5666,5210
5666,5207
5667,5204
5667,5202
5668,5199
5670,5196
5671,5193
5673,5191
5675,5189
5677,5187
5680,5185
5682,5183
5685,5182
5688,5181
5691,5180
5693,5180
5696,5180
5769,5180
5772,5180
Z" /> 
<path style="fill:#840000; fill-opacity:1.0; 
stroke:#840000; stroke-width:0; stroke-opacity:1; 
stroke-linecap:round; stroke-linejoin:round;fill-rule:evenodd;"
d="M 5772,4964
5775,4964
5778,4965
5781,4966
5784,4967
5786,4969
5789,4970
5791,4972
5793,4975
5795,4977
5796,4979
5797,4982
5799,4985
5799,4988
5800,4991
5800,4994
5800,5055
5800,5058
5799,5061
5799,5064
5797,5067
5796,5069
5795,5072
5793,5074
5791,5076
5789,5078
5786,5080
5784,5082
5781,5083
5778,5084
5775,5085
5772,5085
5769,5085
5696,5085
5693,5085
5691,5085
5688,5084
5685,5083
5682,5082
5680,5080
5677,5078
5675,5076
5673,5074
5671,5072
5670,5069
5668,5067
5667,5064
5667,5061
5666,5058
5666,5055
5666,4994
5666,4991
5667,4988
5667,4985
5668,4982
5670,4979
5671,4977
5673,4975
5675,4972
5677,4970
5680,4969
5682,4967
5685,4966
5688,4965
5691,4964
5693,4964
5696,4963
5769,4963
5772,4964
Z" /> 
</g>
<g >
<path style="fill:#840000; fill-opacity:1.0; 
stroke:#840000; stroke-width:0; stroke-opacity:1; 
stroke-linecap:round; stroke-linejoin:round;fill-rule:evenodd;"
d="M 6362,6144
6365,6144
6368,6145
6371,6146
6374,6147
6376,6149
6379,6150
6381,6152
6383,6155
6385,6157
6386,6159
6387,6162
6389,6165
6389,6168
6390,6171
6390,6174
6390,6235
6390,6238
6389,6241
6389,6244
6387,6247
6386,6249
6385,6252
6383,6254
6381,6256
6379,6258
6376,6260
6374,6262
6371,6263
6368,6264
6365,6265
6362,6265
6359,6265
6286,6265
6283,6265
6281,6265
6278,6264
6275,6263
6272,6262
6270,6260
6267,6258
6265,6256
6263,6254
6261,6252
6260,6249
6258,6247
6257,6244
6257,6241
6256,6238
6256,6235
6256,6174
6256,6171
6257,6168
6257,6165
6258,6162
6260,6159
6261,6157
6263,6155
6265,6152
6267,6150
6270,6149
6272,6147
6275,6146
6278,6145
6281,6144
6283,6144
6286,6143
6359,6143
6362,6144
Z" /> 
<path style="fill:#840000; fill-opacity:1.0; 
stroke:#840000; stroke-width:0; stroke-opacity:1; 
stroke-linecap:round; stroke-linejoin:round;fill-rule:evenodd;"
d="M 6362,6360
6365,6360
6368,6361
6371,6362
6374,6363
6376,6365
6379,6367
6381,6369
6383,6371
6385,6373
6386,6376
6387,6379
6389,6382
6389,6384
6390,6387
6390,6390
6390,6451
6390,6454
6389,6457
6389,6460
6387,6463
6386,6466
6385,6468
6383,6471
6381,6473
6379,6475
6376,6477
6374,6478
6371,6480
6368,6481
6365,6481
6362,6482
6359,6482
6286,6482
6283,6482
6281,6481
6278,6481
6275,6480
6272,6478
6270,6477
6267,6475
6265,6473
6263,6471
6261,6468
6260,6466
6258,6463
6257,6460
6257,6457
6256,6454
6256,6451
6256,6390
6256,6387
6257,6384
6257,6382
6258,6379
6260,6376
6261,6373
6263,6371
6265,6369
6267,6367
6270,6365
6272,6363
6275,6362
6278,6361
6281,6360
6283,6360
6286,6360
6359,6360
6362,6360
Z" /> 
</g>
<g >
</g>
<g >
<path style="fill:#840000; fill-opacity:1.0; 
stroke:#840000; stroke-width:0; stroke-opacity:1; 
stroke-linecap:round; stroke-linejoin:round;fill-rule:evenodd;"
d="M 4824,6060
4478,6060
4478,5733
4824,5733
4824,6060
Z" /> 
<path style="fill:#840000; fill-opacity:1.0; 
stroke:#840000; stroke-width:0; stroke-opacity:1; 
stroke-linecap:round; stroke-linejoin:round;fill-rule:evenodd;"
d="M 5568,6060
5222,6060
5222,5733
5568,5733
5568,6060
Z" /> 
<path style="fill:#840000; fill-opacity:1.0; 
stroke:#840000; stroke-width:0; stroke-opacity:1; 
stroke-linecap:round; stroke-linejoin:round;fill-rule:evenodd;"
d="M 5568,5493
5222,5493
5222,5166
5568,5166
5568,5493
Z" /> 
<path style="fill:#840000; fill-opacity:1.0; 
stroke:#840000; stroke-width:0; stroke-opacity:1; 
stroke-linecap:round; stroke-linejoin:round;fill-rule:evenodd;"
d="M 4824,5493
4478,5493
4478,5166
4824,5166
4824,5493
Z" /> 
</g>
<g >
<path style="fill:#840000; fill-opacity:1.0; 
stroke:#840000; stroke-width:0; stroke-opacity:1; 
stroke-linecap:round; stroke-linejoin:round;fill-rule:evenodd;"
d="M 4850,4672
4850,4805
4460,4805
4460,4672
4850,4672
Z" /> 
<path style="fill:#840000; fill-opacity:1.0; 
stroke:#840000; stroke-width:0; stroke-opacity:1; 
stroke-linecap:round; stroke-linejoin:round;fill-rule:evenodd;"
d="M 4850,4160
4850,4294
4460,4294
4460,4160
4850,4160
Z" /> 
<path style="fill:#840000; fill-opacity:1.0; 
stroke:#840000; stroke-width:0; stroke-opacity:1; 
stroke-linecap:round; stroke-linejoin:round;fill-rule:evenodd;"
d="M 5566,4160
5566,4294
5176,4294
5176,4160
5566,4160
Z" /> 
<path style="fill:#840000; fill-opacity:1.0; 
stroke:#840000; stroke-width:0; stroke-opacity:1; 
stroke-linecap:round; stroke-linejoin:round;fill-rule:evenodd;"
d="M 5566,4416
5566,4550
5176,4550
5176,4416
5566,4416
Z" /> 
<path style="fill:#840000; fill-opacity:1.0; 
stroke:#840000; stroke-width:0; stroke-opacity:1; 
stroke-linecap:round; stroke-linejoin:round;fill-rule:evenodd;"
d="M 5566,4672
5566,4805
5176,4805
5176,4672
5566,4672
Z" /> 
</g>
<g >
<path style="fill:#840000; fill-opacity:1.0; 
stroke:#840000; stroke-width:0; stroke-opacity:1; 
stroke-linecap:round; stroke-linejoin:round;fill-rule:evenodd;"
d="M 7548,4156
7551,4156
7554,4157
7557,4158
7560,4159
7562,4161
7564,4163
7567,4165
7569,4167
7570,4169
7572,4172
7573,4175
7574,4177
7575,4180
7575,4183
7576,4186
7576,4259
7575,4262
7575,4265
7574,4268
7573,4271
7572,4273
7570,4276
7569,4278
7567,4281
7564,4283
7562,4284
7560,4286
7557,4287
7554,4288
7551,4289
7548,4289
7545,4290
7484,4290
7481,4289
7478,4289
7475,4288
7472,4287
7470,4286
7467,4284
7465,4283
7463,4281
7461,4278
7459,4276
7457,4273
7456,4271
7455,4268
7454,4265
7454,4262
7454,4259
7454,4186
7454,4183
7454,4180
7455,4177
7456,4175
7457,4172
7459,4169
7461,4167
7463,4165
7465,4163
7467,4161
7470,4159
7472,4158
7475,4157
7478,4156
7481,4156
7484,4156
7545,4156
7548,4156
Z" /> 
<path style="fill:#840000; fill-opacity:1.0; 
stroke:#840000; stroke-width:0; stroke-opacity:1; 
stroke-linecap:round; stroke-linejoin:round;fill-rule:evenodd;"
d="M 7765,4156
7768,4156
7771,4157
7773,4158
7776,4159
7779,4161
7781,4163
7783,4165
7785,4167
7787,4169
7789,4172
7790,4175
7791,4177
7792,4180
7792,4183
7792,4186
7792,4259
7792,4262
7792,4265
7791,4268
7790,4271
7789,4273
7787,4276
7785,4278
7783,4281
7781,4283
7779,4284
7776,4286
7773,4287
7771,4288
7768,4289
7765,4289
7762,4290
7701,4290
7698,4289
7695,4289
7692,4288
7689,4287
7686,4286
7684,4284
7681,4283
7679,4281
7677,4278
7675,4276
7674,4273
7672,4271
7671,4268
7671,4265
7670,4262
7670,4259
7670,4186
7670,4183
7671,4180
7671,4177
7672,4175
7674,4172
7675,4169
7677,4167
7679,4165
7681,4163
7684,4161
7686,4159
7689,4158
7692,4157
7695,4156
7698,4156
7701,4156
7762,4156
7765,4156
Z" /> 
</g>
<g >
<path style="fill:#840000; fill-opacity:1.0; 
stroke:#840000; stroke-width:0; stroke-opacity:1; 
stroke-linecap:round; stroke-linejoin:round;fill-rule:evenodd;"
d="M 5772,4750
5775,4750
5778,4751
5781,4752
5784,4753
5786,4755
5789,4757
5791,4759
5793,4761
5795,4763
5796,4766
5797,4769
5799,4772
5799,4774
5800,4777
5800,4780
5800,4841
5800,4844
5799,4847
5799,4850
5797,4853
5796,4856
5795,4858
5793,4861
5791,4863
5789,4865
5786,4867
5784,4868
5781,4870
5778,4871
5775,4871
5772,4872
5769,4872
5696,4872
5693,4872
5691,4871
5688,4871
5685,4870
5682,4868
5680,4867
5677,4865
5675,4863
5673,4861
5671,4858
5670,4856
5668,4853
5667,4850
5667,4847
5666,4844
5666,4841
5666,4780
5666,4777
5667,4774
5667,4772
5668,4769
5670,4766
5671,4763
5673,4761
5675,4759
5677,4757
5680,4755
5682,4753
5685,4752
5688,4751
5691,4750
5693,4750
5696,4750
5769,4750
5772,4750
Z" /> 
<path style="fill:#840000; fill-opacity:1.0; 
stroke:#840000; stroke-width:0; stroke-opacity:1; 
stroke-linecap:round; stroke-linejoin:round;fill-rule:evenodd;"
d="M 5772,4534
5775,4534
5778,4535
5781,4536
5784,4537
5786,4539
5789,4540
5791,4542
5793,4545
5795,4547
5796,4549
5797,4552
5799,4555
5799,4558
5800,4561
5800,4564
5800,4625
5800,4628
5799,4631
5799,4634
5797,4637
5796,4639
5795,4642
5793,4644
5791,4646
5789,4648
5786,4650
5784,4652
5781,4653
5778,4654
5775,4655
5772,4655
5769,4655
5696,4655
5693,4655
5691,4655
5688,4654
5685,4653
5682,4652
5680,4650
5677,4648
5675,4646
5673,4644
5671,4642
5670,4639
5668,4637
5667,4634
5667,4631
5666,4628
5666,4625
5666,4564
5666,4561
5667,4558
5667,4555
5668,4552
5670,4549
5671,4547
5673,4545
5675,4542
5677,4540
5680,4539
5682,4537
5685,4536
5688,4535
5691,4534
5693,4534
5696,4533
5769,4533
5772,4534
Z" /> 
</g>
<g >
<path style="fill:#840000; fill-opacity:1.0; 
stroke:#840000; stroke-width:0; stroke-opacity:1; 
stroke-linecap:round; stroke-linejoin:round;fill-rule:evenodd;"
d="M 5772,4104
5775,4104
5778,4105
5781,4106
5784,4107
5786,4109
5789,4110
5791,4112
5793,4115
5795,4117
5796,4119
5797,4122
5799,4125
5799,4128
5800,4131
5800,4134
5800,4195
5800,4198
5799,4201
5799,4204
5797,4207
5796,4209
5795,4212
5793,4214
5791,4216
5789,4218
5786,4220
5784,4222
5781,4223
5778,4224
5775,4225
5772,4225
5769,4225
5696,4225
5693,4225
5691,4225
5688,4224
5685,4223
5682,4222
5680,4220
5677,4218
5675,4216
5673,4214
5671,4212
5670,4209
5668,4207
5667,4204
5667,4201
5666,4198
5666,4195
5666,4134
5666,4131
5667,4128
5667,4125
5668,4122
5670,4119
5671,4117
5673,4115
5675,4112
5677,4110
5680,4109
5682,4107
5685,4106
5688,4105
5691,4104
5693,4104
5696,4103
5769,4103
5772,4104
Z" /> 
<path style="fill:#840000; fill-opacity:1.0; 
stroke:#840000; stroke-width:0; stroke-opacity:1; 
stroke-linecap:round; stroke-linejoin:round;fill-rule:evenodd;"
d="M 5772,4320
5775,4320
5778,4321
5781,4322
5784,4323
5786,4325
5789,4327
5791,4329
5793,4331
5795,4333
5796,4336
5797,4339
5799,4342
5799,4344
5800,4347
5800,4350
5800,4411
5800,4414
5799,4417
5799,4420
5797,4423
5796,4426
5795,4428
5793,4431
5791,4433
5789,4435
5786,4437
5784,4438
5781,4440
5778,4441
5775,4441
5772,4442
5769,4442
5696,4442
5693,4442
5691,4441
5688,4441
5685,4440
5682,4438
5680,4437
5677,4435
5675,4433
5673,4431
5671,4428
5670,4426
5668,4423
5667,4420
5667,4417
5666,4414
5666,4411
5666,4350
5666,4347
5667,4344
5667,4342
5668,4339
5670,4336
5671,4333
5673,4331
5675,4329
5677,4327
5680,4325
5682,4323
5685,4322
5688,4321
5691,4320
5693,4320
5696,4320
5769,4320
5772,4320
Z" /> 
</g>
<g >
<path style="fill:#840000; fill-opacity:1.0; 
stroke:#840000; stroke-width:0; stroke-opacity:1; 
stroke-linecap:round; stroke-linejoin:round;fill-rule:evenodd;"
d="M 5018,4936
5021,4936
5024,4937
5027,4938
5030,4939
5032,4941
5034,4943
5037,4945
5039,4947
5040,4949
5042,4952
5043,4955
5044,4957
5045,4960
5045,4963
5046,4966
5046,5039
5045,5042
5045,5045
5044,5048
5043,5051
5042,5053
5040,5056
5039,5058
5037,5061
5034,5063
5032,5064
5030,5066
5027,5067
5024,5068
5021,5069
5018,5069
5015,5070
4954,5070
4951,5069
4948,5069
4945,5068
4942,5067
4940,5066
4937,5064
4935,5063
4933,5061
4931,5058
4929,5056
4927,5053
4926,5051
4925,5048
4924,5045
4924,5042
4924,5039
4924,4966
4924,4963
4924,4960
4925,4957
4926,4955
4927,4952
4929,4949
4931,4947
4933,4945
4935,4943
4937,4941
4940,4939
4942,4938
4945,4937
4948,4936
4951,4936
4954,4936
5015,4936
5018,4936
Z" /> 
<path style="fill:#840000; fill-opacity:1.0; 
stroke:#840000; stroke-width:0; stroke-opacity:1; 
stroke-linecap:round; stroke-linejoin:round;fill-rule:evenodd;"
d="M 5235,4936
5238,4936
5241,4937
5243,4938
5246,4939
5249,4941
5251,4943
5253,4945
5255,4947
5257,4949
5259,4952
5260,4955
5261,4957
5262,4960
5262,4963
5262,4966
5262,5039
5262,5042
5262,5045
5261,5048
5260,5051
5259,5053
5257,5056
5255,5058
5253,5061
5251,5063
5249,5064
5246,5066
5243,5067
5241,5068
5238,5069
5235,5069
5232,5070
5171,5070
5168,5069
5165,5069
5162,5068
5159,5067
5156,5066
5154,5064
5151,5063
5149,5061
5147,5058
5145,5056
5144,5053
5142,5051
5141,5048
5141,5045
5140,5042
5140,5039
5140,4966
5140,4963
5141,4960
5141,4957
5142,4955
5144,4952
5145,4949
5147,4947
5149,4945
5151,4943
5154,4941
5156,4939
5159,4938
5162,4937
5165,4936
5168,4936
5171,4936
5232,4936
5235,4936
Z" /> 
</g>
<g >
<path style="fill:#840000; fill-opacity:1.0; 
stroke:#840000; stroke-width:0; stroke-opacity:1; 
stroke-linecap:round; stroke-linejoin:round;fill-rule:evenodd;"
d="M 6328,4956
6331,4956
6334,4957
6337,4958
6340,4959
6342,4961
6344,4963
6347,4965
6349,4967
6350,4969
6352,4972
6353,4975
6354,4977
6355,4980
6355,4983
6356,4986
6356,5059
6355,5062
6355,5065
6354,5068
6353,5071
6352,5073
6350,5076
6349,5078
6347,5081
6344,5083
6342,5084
6340,5086
6337,5087
6334,5088
6331,5089
6328,5089
6325,5090
6264,5090
6261,5089
6258,5089
6255,5088
6252,5087
6250,5086
6247,5084
6245,5083
6243,5081
6241,5078
6239,5076
6237,5073
6236,5071
6235,5068
6234,5065
6234,5062
6234,5059
6234,4986
6234,4983
6234,4980
6235,4977
6236,4975
6237,4972
6239,4969
6241,4967
6243,4965
6245,4963
6247,4961
6250,4959
6252,4958
6255,4957
6258,4956
6261,4956
6264,4956
6325,4956
6328,4956
Z" /> 
<path style="fill:#840000; fill-opacity:1.0; 
stroke:#840000; stroke-width:0; stroke-opacity:1; 
stroke-linecap:round; stroke-linejoin:round;fill-rule:evenodd;"
d="M 6545,4956
6548,4956
6551,4957
6553,4958
6556,4959
6559,4961
6561,4963
6563,4965
6565,4967
6567,4969
6569,4972
6570,4975
6571,4977
6572,4980
6572,4983
6572,4986
6572,5059
6572,5062
6572,5065
6571,5068
6570,5071
6569,5073
6567,5076
6565,5078
6563,5081
6561,5083
6559,5084
6556,5086
6553,5087
6551,5088
6548,5089
6545,5089
6542,5090
6481,5090
6478,5089
6475,5089
6472,5088
6469,5087
6466,5086
6464,5084
6461,5083
6459,5081
6457,5078
6455,5076
6454,5073
6452,5071
6451,5068
6451,5065
6450,5062
6450,5059
6450,4986
6450,4983
6451,4980
6451,4977
6452,4975
6454,4972
6455,4969
6457,4967
6459,4965
6461,4963
6464,4961
6466,4959
6469,4958
6472,4957
6475,4956
6478,4956
6481,4956
6542,4956
6545,4956
Z" /> 
</g>
<g >
<path style="fill:#840000; fill-opacity:1.0; 
stroke:#840000; stroke-width:0; stroke-opacity:1; 
stroke-linecap:round; stroke-linejoin:round;fill-rule:evenodd;"
d="M 5558,6336
5561,6336
5564,6337
5567,6338
5570,6339
5572,6341
5574,6343
5577,6345
5579,6347
5580,6349
5582,6352
5583,6355
5584,6357
5585,6360
5585,6363
5586,6366
5586,6439
5585,6442
5585,6445
5584,6448
5583,6451
5582,6453
5580,6456
5579,6458
5577,6461
5574,6463
5572,6464
5570,6466
5567,6467
5564,6468
5561,6469
5558,6469
5555,6470
5494,6470
5491,6469
5488,6469
5485,6468
5482,6467
5480,6466
5477,6464
5475,6463
5473,6461
5471,6458
5469,6456
5467,6453
5466,6451
5465,6448
5464,6445
5464,6442
5464,6439
5464,6366
5464,6363
5464,6360
5465,6357
5466,6355
5467,6352
5469,6349
5471,6347
5473,6345
5475,6343
5477,6341
5480,6339
5482,6338
5485,6337
5488,6336
5491,6336
5494,6336
5555,6336
5558,6336
Z" /> 
<path style="fill:#840000; fill-opacity:1.0; 
stroke:#840000; stroke-width:0; stroke-opacity:1; 
stroke-linecap:round; stroke-linejoin:round;fill-rule:evenodd;"
d="M 5775,6336
5778,6336
5781,6337
5783,6338
5786,6339
5789,6341
5791,6343
5793,6345
5795,6347
5797,6349
5799,6352
5800,6355
5801,6357
5802,6360
5802,6363
5802,6366
5802,6439
5802,6442
5802,6445
5801,6448
5800,6451
5799,6453
5797,6456
5795,6458
5793,6461
5791,6463
5789,6464
5786,6466
5783,6467
5781,6468
5778,6469
5775,6469
5772,6470
5711,6470
5708,6469
5705,6469
5702,6468
5699,6467
5696,6466
5694,6464
5691,6463
5689,6461
5687,6458
5685,6456
5684,6453
5682,6451
5681,6448
5681,6445
5680,6442
5680,6439
5680,6366
5680,6363
5681,6360
5681,6357
5682,6355
5684,6352
5685,6349
5687,6347
5689,6345
5691,6343
5694,6341
5696,6339
5699,6338
5702,6337
5705,6336
5708,6336
5711,6336
5772,6336
5775,6336
Z" /> 
</g>
<g >
<path style="fill:#840000; fill-opacity:1.0; 
stroke:#840000; stroke-width:0; stroke-opacity:1; 
stroke-linecap:round; stroke-linejoin:round;fill-rule:evenodd;"
d="M 7138,6346
7141,6346
7144,6347
7147,6348
7150,6349
7152,6351
7154,6353
7157,6355
7159,6357
7160,6359
7162,6362
7163,6365
7164,6367
7165,6370
7165,6373
7166,6376
7166,6449
7165,6452
7165,6455
7164,6458
7163,6461
7162,6463
7160,6466
7159,6468
7157,6471
7154,6473
7152,6474
7150,6476
7147,6477
7144,6478
7141,6479
7138,6479
7135,6480
7074,6480
7071,6479
7068,6479
7065,6478
7062,6477
7060,6476
7057,6474
7055,6473
7053,6471
7051,6468
7049,6466
7047,6463
7046,6461
7045,6458
7044,6455
7044,6452
7044,6449
7044,6376
7044,6373
7044,6370
7045,6367
7046,6365
7047,6362
7049,6359
7051,6357
7053,6355
7055,6353
7057,6351
7060,6349
7062,6348
7065,6347
7068,6346
7071,6346
7074,6346
7135,6346
7138,6346
Z" /> 
<path style="fill:#840000; fill-opacity:1.0; 
stroke:#840000; stroke-width:0; stroke-opacity:1; 
stroke-linecap:round; stroke-linejoin:round;fill-rule:evenodd;"
d="M 7355,6346
7358,6346
7361,6347
7363,6348
7366,6349
7369,6351
7371,6353
7373,6355
7375,6357
7377,6359
7379,6362
7380,6365
7381,6367
7382,6370
7382,6373
7382,6376
7382,6449
7382,6452
7382,6455
7381,6458
7380,6461
7379,6463
7377,6466
7375,6468
7373,6471
7371,6473
7369,6474
7366,6476
7363,6477
7361,6478
7358,6479
7355,6479
7352,6480
7291,6480
7288,6479
7285,6479
7282,6478
7279,6477
7276,6476
7274,6474
7271,6473
7269,6471
7267,6468
7265,6466
7264,6463
7262,6461
7261,6458
7261,6455
7260,6452
7260,6449
7260,6376
7260,6373
7261,6370
7261,6367
7262,6365
7264,6362
7265,6359
7267,6357
7269,6355
7271,6353
7274,6351
7276,6349
7279,6348
7282,6347
7285,6346
7288,6346
7291,6346
7352,6346
7355,6346
Z" /> 
</g>
<g >
<path style="fill:#840000; fill-opacity:1.0; 
stroke:#840000; stroke-width:0; stroke-opacity:1; 
stroke-linecap:round; stroke-linejoin:round;fill-rule:evenodd;"
d="M 6965,4956
6968,4956
6971,4957
6973,4958
6976,4959
6979,4961
6981,4963
6983,4965
6985,4967
6987,4969
6989,4972
6990,4975
6991,4977
6992,4980
6992,4983
6992,4986
6992,5059
6992,5062
6992,5065
6991,5068
6990,5071
6989,5073
6987,5076
6985,5078
6983,5081
6981,5083
6979,5084
6976,5086
6973,5087
6971,5088
6968,5089
6965,5089
6962,5090
6901,5090
6898,5089
6895,5089
6892,5088
6889,5087
6886,5086
6884,5084
6881,5083
6879,5081
6877,5078
6875,5076
6874,5073
6872,5071
6871,5068
6871,5065
6870,5062
6870,5059
6870,4986
6870,4983
6871,4980
6871,4977
6872,4975
6874,4972
6875,4969
6877,4967
6879,4965
6881,4963
6884,4961
6886,4959
6889,4958
6892,4957
6895,4956
6898,4956
6901,4956
6962,4956
6965,4956
Z" /> 
<path style="fill:#840000; fill-opacity:1.0; 
stroke:#840000; stroke-width:0; stroke-opacity:1; 
stroke-linecap:round; stroke-linejoin:round;fill-rule:evenodd;"
d="M 6748,4956
6751,4956
6754,4957
6757,4958
6760,4959
6762,4961
6764,4963
6767,4965
6769,4967
6770,4969
6772,4972
6773,4975
6774,4977
6775,4980
6775,4983
6776,4986
6776,5059
6775,5062
6775,5065
6774,5068
6773,5071
6772,5073
6770,5076
6769,5078
6767,5081
6764,5083
6762,5084
6760,5086
6757,5087
6754,5088
6751,5089
6748,5089
6745,5090
6684,5090
6681,5089
6678,5089
6675,5088
6672,5087
6670,5086
6667,5084
6665,5083
6663,5081
6661,5078
6659,5076
6657,5073
6656,5071
6655,5068
6654,5065
6654,5062
6654,5059
6654,4986
6654,4983
6654,4980
6655,4977
6656,4975
6657,4972
6659,4969
6661,4967
6663,4965
6665,4963
6667,4961
6670,4959
6672,4958
6675,4957
6678,4956
6681,4956
6684,4956
6745,4956
6748,4956
Z" /> 
</g>
<g >
<path style="fill:#840000; fill-opacity:1.0; 
stroke:#840000; stroke-width:0; stroke-opacity:1; 
stroke-linecap:round; stroke-linejoin:round;fill-rule:evenodd;"
d="M 8111,5769
8116,5770
8122,5771
8127,5773
8132,5775
8137,5778
8141,5782
8146,5785
8149,5790
8153,5794
8156,5799
8158,5804
8160,5809
8161,5815
8162,5820
8162,5826
8162,5960
8162,5965
8161,5971
8160,5976
8158,5981
8156,5986
8153,5991
8149,5996
8146,6000
8141,6004
8137,6007
8132,6010
8127,6012
8122,6014
8116,6016
8111,6016
8105,6017
7991,6017
7985,6016
7980,6016
7974,6014
7969,6012
7964,6010
7959,6007
7955,6004
7951,6000
7947,5996
7944,5991
7941,5986
7938,5981
7936,5976
7935,5971
7934,5965
7934,5960
7934,5826
7934,5820
7935,5815
7936,5809
7938,5804
7941,5799
7944,5794
7947,5790
7951,5785
7955,5782
7959,5778
7964,5775
7969,5773
7974,5771
7980,5770
7985,5769
7991,5769
8105,5769
8111,5769
Z" /> 
<path style="fill:#840000; fill-opacity:1.0; 
stroke:#840000; stroke-width:0; stroke-opacity:1; 
stroke-linecap:round; stroke-linejoin:round;fill-rule:evenodd;"
d="M 7760,5769
7766,5770
7771,5771
7777,5773
7782,5775
7786,5778
7791,5782
7795,5785
7799,5790
7802,5794
7805,5799
7808,5804
7809,5809
7811,5815
7812,5820
7812,5826
7812,5960
7812,5965
7811,5971
7809,5976
7808,5981
7805,5986
7802,5991
7799,5996
7795,6000
7791,6004
7786,6007
7782,6010
7777,6012
7771,6014
7766,6016
7760,6016
7755,6017
7641,6017
7635,6016
7629,6016
7624,6014
7619,6012
7614,6010
7609,6007
7604,6004
7600,6000
7596,5996
7593,5991
7590,5986
7588,5981
7586,5976
7585,5971
7584,5965
7584,5960
7584,5826
7584,5820
7585,5815
7586,5809
7588,5804
7590,5799
7593,5794
7596,5790
7600,5785
7604,5782
7609,5778
7614,5775
7619,5773
7624,5771
7629,5770
7635,5769
7641,5769
7755,5769
7760,5769
Z" /> 
</g>
<g >
<path style="fill:#840000; fill-opacity:1.0; 
stroke:#840000; stroke-width:0; stroke-opacity:1; 
stroke-linecap:round; stroke-linejoin:round;fill-rule:evenodd;"
d="M 5772,5544
5775,5544
5778,5545
5781,5546
5784,5547
5786,5549
5789,5550
5791,5552
5793,5555
5795,5557
5796,5559
5797,5562
5799,5565
5799,5568
5800,5571
5800,5574
5800,5635
5800,5638
5799,5641
5799,5644
5797,5647
5796,5649
5795,5652
5793,5654
5791,5656
5789,5658
5786,5660
5784,5662
5781,5663
5778,5664
5775,5665
5772,5665
5769,5665
5696,5665
5693,5665
5691,5665
5688,5664
5685,5663
5682,5662
5680,5660
5677,5658
5675,5656
5673,5654
5671,5652
5670,5649
5668,5647
5667,5644
5667,5641
5666,5638
5666,5635
5666,5574
5666,5571
5667,5568
5667,5565
5668,5562
5670,5559
5671,5557
5673,5555
5675,5552
5677,5550
5680,5549
5682,5547
5685,5546
5688,5545
5691,5544
5693,5544
5696,5543
5769,5543
5772,5544
Z" /> 
<path style="fill:#840000; fill-opacity:1.0; 
stroke:#840000; stroke-width:0; stroke-opacity:1; 
stroke-linecap:round; stroke-linejoin:round;fill-rule:evenodd;"
d="M 5772,5760
5775,5760
5778,5761
5781,5762
5784,5763
5786,5765
5789,5767
5791,5769
5793,5771
5795,5773
5796,5776
5797,5779
5799,5782
5799,5784
5800,5787
5800,5790
5800,5851
5800,5854
5799,5857
5799,5860
5797,5863
5796,5866
5795,5868
5793,5871
5791,5873
5789,5875
5786,5877
5784,5878
5781,5880
5778,5881
5775,5881
5772,5882
5769,5882
5696,5882
5693,5882
5691,5881
5688,5881
5685,5880
5682,5878
5680,5877
5677,5875
5675,5873
5673,5871
5671,5868
5670,5866
5668,5863
5667,5860
5667,5857
5666,5854
5666,5851
5666,5790
5666,5787
5667,5784
5667,5782
5668,5779
5670,5776
5671,5773
5673,5771
5675,5769
5677,5767
5680,5765
5682,5763
5685,5762
5688,5761
5691,5760
5693,5760
5696,5760
5769,5760
5772,5760
Z" /> 
</g>
<g >
<path style="fill:#840000; fill-opacity:1.0; 
stroke:#840000; stroke-width:0; stroke-opacity:1; 
stroke-linecap:round; stroke-linejoin:round;fill-rule:evenodd;"
d="M 6598,4083
6603,4084
6609,4085
6614,4087
6619,4089
6624,4092
6629,4096
6633,4099
6637,4104
6640,4108
6643,4113
6646,4118
6647,4124
6649,4129
6650,4135
6650,4140
6650,4276
6650,4282
6649,4288
6647,4293
6646,4299
6643,4304
6640,4309
6637,4313
6633,4317
6629,4321
6624,4325
6619,4328
6614,4330
6609,4332
6603,4333
6598,4334
6592,4334
6476,4334
6470,4334
6464,4333
6459,4332
6454,4330
6448,4328
6443,4325
6439,4321
6435,4317
6431,4313
6427,4309
6425,4304
6422,4299
6420,4293
6419,4288
6418,4282
6418,4276
6418,4140
6418,4135
6419,4129
6420,4124
6422,4118
6425,4113
6427,4108
6431,4104
6435,4099
6439,4096
6443,4092
6448,4089
6454,4087
6459,4085
6464,4084
6470,4083
6476,4082
6592,4082
6598,4083
Z" /> 
<path style="fill:#840000; fill-opacity:1.0; 
stroke:#840000; stroke-width:0; stroke-opacity:1; 
stroke-linecap:round; stroke-linejoin:round;fill-rule:evenodd;"
d="M 6216,4083
6221,4084
6227,4085
6232,4087
6237,4089
6242,4092
6247,4096
6251,4099
6255,4104
6258,4108
6261,4113
6264,4118
6266,4124
6267,4129
6268,4135
6268,4140
6268,4276
6268,4282
6267,4288
6266,4293
6264,4299
6261,4304
6258,4309
6255,4313
6251,4317
6247,4321
6242,4325
6237,4328
6232,4330
6227,4332
6221,4333
6216,4334
6210,4334
6094,4334
6088,4334
6083,4333
6077,4332
6072,4330
6066,4328
6062,4325
6057,4321
6053,4317
6049,4313
6046,4309
6043,4304
6040,4299
6038,4293
6037,4288
6036,4282
6036,4276
6036,4140
6036,4135
6037,4129
6038,4124
6040,4118
6043,4113
6046,4108
6049,4104
6053,4099
6057,4096
6062,4092
6066,4089
6072,4087
6077,4085
6083,4084
6088,4083
6094,4082
6210,4082
6216,4083
Z" /> 
</g>
<g >
<path style="fill:#840000; fill-opacity:1.0; 
stroke:#840000; stroke-width:0; stroke-opacity:1; 
stroke-linecap:round; stroke-linejoin:round;fill-rule:evenodd;"
d="M 4795,4936
4798,4936
4801,4937
4803,4938
4806,4939
4809,4941
4811,4943
4813,4945
4815,4947
4817,4949
4819,4952
4820,4955
4821,4957
4822,4960
4822,4963
4822,4966
4822,5039
4822,5042
4822,5045
4821,5048
4820,5051
4819,5053
4817,5056
4815,5058
4813,5061
4811,5063
4809,5064
4806,5066
4803,5067
4801,5068
4798,5069
4795,5069
4792,5070
4731,5070
4728,5069
4725,5069
4722,5068
4719,5067
4716,5066
4714,5064
4711,5063
4709,5061
4707,5058
4705,5056
4704,5053
4702,5051
4701,5048
4701,5045
4700,5042
4700,5039
4700,4966
4700,4963
4701,4960
4701,4957
4702,4955
4704,4952
4705,4949
4707,4947
4709,4945
4711,4943
4714,4941
4716,4939
4719,4938
4722,4937
4725,4936
4728,4936
4731,4936
4792,4936
4795,4936
Z" /> 
<path style="fill:#840000; fill-opacity:1.0; 
stroke:#840000; stroke-width:0; stroke-opacity:1; 
stroke-linecap:round; stroke-linejoin:round;fill-rule:evenodd;"
d="M 4578,4936
4581,4936
4584,4937
4587,4938
4590,4939
4592,4941
4594,4943
4597,4945
4599,4947
4600,4949
4602,4952
4603,4955
4604,4957
4605,4960
4605,4963
4606,4966
4606,5039
4605,5042
4605,5045
4604,5048
4603,5051
4602,5053
4600,5056
4599,5058
4597,5061
4594,5063
4592,5064
4590,5066
4587,5067
4584,5068
4581,5069
4578,5069
4575,5070
4514,5070
4511,5069
4508,5069
4505,5068
4502,5067
4500,5066
4497,5064
4495,5063
4493,5061
4491,5058
4489,5056
4487,5053
4486,5051
4485,5048
4484,5045
4484,5042
4484,5039
4484,4966
4484,4963
4484,4960
4485,4957
4486,4955
4487,4952
4489,4949
4491,4947
4493,4945
4495,4943
4497,4941
4500,4939
4502,4938
4505,4937
4508,4936
4511,4936
4514,4936
4575,4936
4578,4936
Z" /> 
</g>
<g >
<path style="fill:#840000; fill-opacity:1.0; 
stroke:#840000; stroke-width:0; stroke-opacity:1; 
stroke-linecap:round; stroke-linejoin:round;fill-rule:evenodd;"
d="M 7648,4492
7656,4493
7663,4495
7671,4497
7678,4501
7685,4505
7691,4509
7697,4515
7702,4521
7707,4527
7711,4534
7714,4541
7717,4548
7719,4556
7720,4563
7720,4571
7720,4754
7720,4762
7719,4770
7717,4777
7714,4785
7711,4792
7707,4798
7702,4805
7697,4811
7691,4816
7685,4820
7678,4824
7671,4828
7663,4830
7656,4832
7648,4834
7640,4834
7481,4834
7473,4834
7465,4832
7458,4830
7450,4828
7443,4824
7437,4820
7430,4816
7425,4811
7419,4805
7415,4798
7411,4792
7407,4785
7405,4777
7403,4770
7402,4762
7401,4754
7401,4571
7402,4563
7403,4556
7405,4548
7407,4541
7411,4534
7415,4527
7419,4521
7425,4515
7430,4509
7437,4505
7443,4501
7450,4497
7458,4495
7465,4493
7473,4492
7481,4491
7640,4491
7648,4492
Z" /> 
<path style="fill:#840000; fill-opacity:1.0; 
stroke:#840000; stroke-width:0; stroke-opacity:1; 
stroke-linecap:round; stroke-linejoin:round;fill-rule:evenodd;"
d="M 7113,4492
7120,4493
7128,4495
7135,4497
7142,4501
7149,4505
7155,4509
7161,4515
7167,4521
7171,4527
7175,4534
7179,4541
7181,4548
7183,4556
7184,4563
7185,4571
7185,4754
7184,4762
7183,4770
7181,4777
7179,4785
7175,4792
7171,4798
7167,4805
7161,4811
7155,4816
7149,4820
7142,4824
7135,4828
7128,4830
7120,4832
7113,4834
7105,4834
6945,4834
6938,4834
6930,4832
6922,4830
6915,4828
6908,4824
6901,4820
6895,4816
6889,4811
6884,4805
6879,4798
6875,4792
6872,4785
6869,4777
6867,4770
6866,4762
6866,4754
6866,4571
6866,4563
6867,4556
6869,4548
6872,4541
6875,4534
6879,4527
6884,4521
6889,4515
6895,4509
6901,4505
6908,4501
6915,4497
6922,4495
6930,4493
6938,4492
6945,4491
7105,4491
7113,4492
Z" /> 
</g>
<g >
<path style="fill:#840000; fill-opacity:1.0; 
stroke:#840000; stroke-width:0; stroke-opacity:1; 
stroke-linecap:round; stroke-linejoin:round;fill-rule:evenodd;"
d="M 4788,6146
4791,6146
4794,6147
4797,6148
4800,6149
4802,6151
4804,6153
4807,6155
4809,6157
4810,6159
4812,6162
4813,6165
4814,6167
4815,6170
4815,6173
4816,6176
4816,6249
4815,6252
4815,6255
4814,6258
4813,6261
4812,6263
4810,6266
4809,6268
4807,6271
4804,6273
4802,6274
4800,6276
4797,6277
4794,6278
4791,6279
4788,6279
4785,6280
4724,6280
4721,6279
4718,6279
4715,6278
4712,6277
4710,6276
4707,6274
4705,6273
4703,6271
4701,6268
4699,6266
4697,6263
4696,6261
4695,6258
4694,6255
4694,6252
4694,6249
4694,6176
4694,6173
4694,6170
4695,6167
4696,6165
4697,6162
4699,6159
4701,6157
4703,6155
4705,6153
4707,6151
4710,6149
4712,6148
4715,6147
4718,6146
4721,6146
4724,6146
4785,6146
4788,6146
Z" /> 
<path style="fill:#840000; fill-opacity:1.0; 
stroke:#840000; stroke-width:0; stroke-opacity:1; 
stroke-linecap:round; stroke-linejoin:round;fill-rule:evenodd;"
d="M 5005,6146
5008,6146
5011,6147
5013,6148
5016,6149
5019,6151
5021,6153
5023,6155
5025,6157
5027,6159
5029,6162
5030,6165
5031,6167
5032,6170
5032,6173
5032,6176
5032,6249
5032,6252
5032,6255
5031,6258
5030,6261
5029,6263
5027,6266
5025,6268
5023,6271
5021,6273
5019,6274
5016,6276
5013,6277
5011,6278
5008,6279
5005,6279
5002,6280
4941,6280
4938,6279
4935,6279
4932,6278
4929,6277
4926,6276
4924,6274
4921,6273
4919,6271
4917,6268
4915,6266
4914,6263
4912,6261
4911,6258
4911,6255
4910,6252
4910,6249
4910,6176
4910,6173
4911,6170
4911,6167
4912,6165
4914,6162
4915,6159
4917,6157
4919,6155
4921,6153
4924,6151
4926,6149
4929,6148
4932,6147
4935,6146
4938,6146
4941,6146
5002,6146
5005,6146
Z" /> 
</g>
<g >
<path style="fill:#840000; fill-opacity:1.0; 
stroke:#840000; stroke-width:0; stroke-opacity:1; 
stroke-linecap:round; stroke-linejoin:round;fill-rule:evenodd;"
d="M 6147,4482
6156,4483
6164,4485
6172,4488
6180,4492
6187,4496
6194,4501
6201,4507
6206,4514
6212,4520
6216,4528
6220,4536
6222,4544
6225,4552
6226,4561
6226,4569
6226,4756
6226,4765
6225,4773
6222,4782
6220,4790
6216,4797
6212,4805
6206,4812
6201,4818
6194,4824
6187,4829
6180,4833
6172,4837
6164,4840
6156,4842
6147,4843
6139,4844
5963,4844
5955,4843
5946,4842
5938,4840
5930,4837
5922,4833
5915,4829
5908,4824
5902,4818
5896,4812
5891,4805
5886,4797
5883,4790
5880,4782
5878,4773
5876,4765
5876,4756
5876,4569
5876,4561
5878,4552
5880,4544
5883,4536
5886,4528
5891,4520
5896,4514
5902,4507
5908,4501
5915,4496
5922,4492
5930,4488
5938,4485
5946,4483
5955,4482
5963,4482
6139,4482
6147,4482
Z" /> 
<path style="fill:#840000; fill-opacity:1.0; 
stroke:#840000; stroke-width:0; stroke-opacity:1; 
stroke-linecap:round; stroke-linejoin:round;fill-rule:evenodd;"
d="M 6671,4482
6679,4483
6688,4485
6696,4488
6704,4492
6711,4496
6718,4501
6724,4507
6730,4514
6735,4520
6740,4528
6743,4536
6746,4544
6748,4552
6749,4561
6750,4569
6750,4756
6749,4765
6748,4773
6746,4782
6743,4790
6740,4797
6735,4805
6730,4812
6724,4818
6718,4824
6711,4829
6704,4833
6696,4837
6688,4840
6679,4842
6671,4843
6662,4844
6487,4844
6479,4843
6470,4842
6462,4840
6454,4837
6446,4833
6438,4829
6432,4824
6425,4818
6419,4812
6414,4805
6410,4797
6406,4790
6403,4782
6401,4773
6400,4765
6400,4756
6400,4569
6400,4561
6401,4552
6403,4544
6406,4536
6410,4528
6414,4520
6419,4514
6425,4507
6432,4501
6438,4496
6446,4492
6454,4488
6462,4485
6470,4483
6479,4482
6487,4482
6662,4482
6671,4482
Z" /> 
</g>
<g >
<path style="fill:#840000; fill-opacity:1.0; 
stroke:#840000; stroke-width:0; stroke-opacity:1; 
stroke-linecap:round; stroke-linejoin:round;fill-rule:evenodd;"
d="M 8102,6114
8111,6116
8119,6118
8127,6120
8135,6124
8142,6129
8149,6134
8156,6139
8162,6146
8167,6153
8171,6160
8175,6168
8178,6176
8180,6184
8181,6193
8181,6201
8181,6377
8181,6385
8180,6394
8178,6402
8175,6410
8171,6418
8167,6425
8162,6432
8156,6439
8149,6444
8142,6449
8135,6454
8127,6458
8119,6460
8111,6463
8102,6464
8094,6464
7907,6464
7898,6464
7890,6463
7881,6460
7873,6458
7865,6454
7858,6449
7851,6444
7845,6439
7839,6432
7834,6425
7830,6418
7826,6410
7823,6402
7821,6394
7820,6385
7819,6377
7819,6201
7820,6193
7821,6184
7823,6176
7826,6168
7830,6160
7834,6153
7839,6146
7845,6139
7851,6134
7858,6129
7865,6124
7873,6120
7881,6118
7890,6116
7898,6114
7907,6114
8094,6114
8102,6114
Z" /> 
<path style="fill:#840000; fill-opacity:1.0; 
stroke:#840000; stroke-width:0; stroke-opacity:1; 
stroke-linecap:round; stroke-linejoin:round;fill-rule:evenodd;"
d="M 8102,6638
8111,6639
8119,6641
8127,6644
8135,6648
8142,6652
8149,6657
8156,6663
8162,6669
8167,6676
8171,6684
8175,6692
8178,6700
8180,6708
8181,6716
8181,6725
8181,6900
8181,6909
8180,6917
8178,6926
8175,6934
8171,6942
8167,6949
8162,6956
8156,6962
8149,6968
8142,6973
8135,6978
8127,6981
8119,6984
8111,6986
8102,6987
8094,6988
7907,6988
7898,6987
7890,6986
7881,6984
7873,6981
7865,6978
7858,6973
7851,6968
7845,6962
7839,6956
7834,6949
7830,6942
7826,6934
7823,6926
7821,6917
7820,6909
7819,6900
7819,6725
7820,6716
7821,6708
7823,6700
7826,6692
7830,6684
7834,6676
7839,6669
7845,6663
7851,6657
7858,6652
7865,6648
7873,6644
7881,6641
7890,6639
7898,6638
7907,6637
8094,6637
8102,6638
Z" /> 
</g>
<g >
<path style="fill:#840000; fill-opacity:1.0; 
stroke:#840000; stroke-width:0; stroke-opacity:1; 
stroke-linecap:round; stroke-linejoin:round;fill-rule:evenodd;"
d="M 7770,5419
7776,5420
7781,5421
7787,5423
7792,5425
7796,5428
7801,5432
7805,5435
7809,5440
7812,5444
7815,5449
7818,5454
7819,5459
7821,5465
7822,5470
7822,5476
7822,5610
7822,5615
7821,5621
7819,5626
7818,5631
7815,5636
7812,5641
7809,5646
7805,5650
7801,5654
7796,5657
7792,5660
7787,5662
7781,5664
7776,5666
7770,5666
7765,5667
7651,5667
7645,5666
7639,5666
7634,5664
7629,5662
7624,5660
7619,5657
7614,5654
7610,5650
7606,5646
7603,5641
7600,5636
7598,5631
7596,5626
7595,5621
7594,5615
7594,5610
7594,5476
7594,5470
7595,5465
7596,5459
7598,5454
7600,5449
7603,5444
7606,5440
7610,5435
7614,5432
7619,5428
7624,5425
7629,5423
7634,5421
7639,5420
7645,5419
7651,5419
7765,5419
7770,5419
Z" /> 
<path style="fill:#840000; fill-opacity:1.0; 
stroke:#840000; stroke-width:0; stroke-opacity:1; 
stroke-linecap:round; stroke-linejoin:round;fill-rule:evenodd;"
d="M 8121,5419
8126,5420
8132,5421
8137,5423
8142,5425
8147,5428
8151,5432
8156,5435
8159,5440
8163,5444
8166,5449
8168,5454
8170,5459
8171,5465
8172,5470
8172,5476
8172,5610
8172,5615
8171,5621
8170,5626
8168,5631
8166,5636
8163,5641
8159,5646
8156,5650
8151,5654
8147,5657
8142,5660
8137,5662
8132,5664
8126,5666
8121,5666
8115,5667
8001,5667
7995,5666
7990,5666
7984,5664
7979,5662
7974,5660
7969,5657
7965,5654
7961,5650
7957,5646
7954,5641
7951,5636
7948,5631
7946,5626
7945,5621
7944,5615
7944,5610
7944,5476
7944,5470
7945,5465
7946,5459
7948,5454
7951,5449
7954,5444
7957,5440
7961,5435
7965,5432
7969,5428
7974,5425
7979,5423
7984,5421
7990,5420
7995,5419
8001,5419
8115,5419
8121,5419
Z" /> 
</g>
<g >
<path style="fill:#840000; fill-opacity:1.0; 
stroke:#840000; stroke-width:0; stroke-opacity:1; 
stroke-linecap:round; stroke-linejoin:round;fill-rule:evenodd;"
d="M 7136,4308
7136,4375
7026,4375
7026,4308
7136,4308
Z" /> 
<path style="fill:#840000; fill-opacity:1.0; 
stroke:#840000; stroke-width:0; stroke-opacity:1; 
stroke-linecap:round; stroke-linejoin:round;fill-rule:evenodd;"
d="M 7136,4170
7136,4237
7026,4237
7026,4170
7136,4170
Z" /> 
<path style="fill:#840000; fill-opacity:1.0; 
stroke:#840000; stroke-width:0; stroke-opacity:1; 
stroke-linecap:round; stroke-linejoin:round;fill-rule:evenodd;"
d="M 6880,4170
6880,4375
6770,4375
6770,4170
6880,4170
Z" /> 
</g>
<g >
</g>
<g style="fill:#C2C2C2; fill-opacity:1.0; 
stroke:#C2C2C2; stroke-width:0; stroke-opacity:1; 
stroke-linecap:round; stroke-linejoin:round;">
<circle cx="6349.69" cy="7008.9" r="68.8976" /> 
</g>
<g style="fill:#C2C2C2; fill-opacity:1.0; 
stroke:#C2C2C2; stroke-width:39.3701; stroke-opacity:1; 
stroke-linecap:round; stroke-linejoin:round;">
</g>
<g style="fill:#C2C2C2; fill-opacity:1.0; 
stroke:#C2C2C2; stroke-width:0; stroke-opacity:1; 
stroke-linecap:round; stroke-linejoin:round;">
<circle cx="5732.05" cy="6404.57" r="68.8976" /> 
</g>
<g style="fill:#C2C2C2; fill-opacity:1.0; 
stroke:#C2C2C2; stroke-width:39.3701; stroke-opacity:1; 
stroke-linecap:round; stroke-linejoin:round;">
</g>
<g style="fill:#C2C2C2; fill-opacity:1.0; 
stroke:#C2C2C2; stroke-width:0; stroke-opacity:1; 
stroke-linecap:round; stroke-linejoin:round;">
<circle cx="5535.2" cy="6207.72" r="68.8976" /> 
</g>
<g style="fill:#C2C2C2; fill-opacity:1.0; 
stroke:#C2C2C2; stroke-width:39.3701; stroke-opacity:1; 
stroke-linecap:round; stroke-linejoin:round;">
</g>
<g style="fill:#C2C2C2; fill-opacity:1.0; 
stroke:#C2C2C2; stroke-width:0; stroke-opacity:1; 
stroke-linecap:round; stroke-linejoin:round;">
<circle cx="7550.79" cy="4408.9" r="68.8976" /> 
</g>
<g style="fill:#C2C2C2; fill-opacity:1.0; 
stroke:#C2C2C2; stroke-width:39.3701; stroke-opacity:1; 
stroke-linecap:round; stroke-linejoin:round;">
</g>
<g style="fill:#C2C2C2; fill-opacity:1.0; 
stroke:#C2C2C2; stroke-width:0; stroke-opacity:1; 
stroke-linecap:round; stroke-linejoin:round;">
<circle cx="6716.3" cy="5026.61" r="68.8976" /> 
</g>
<g style="fill:#C2C2C2; fill-opacity:1.0; 
stroke:#C2C2C2; stroke-width:39.3701; stroke-opacity:1; 
stroke-linecap:round; stroke-linejoin:round;">
</g>
<g style="fill:#C2C2C2; fill-opacity:1.0; 
stroke:#C2C2C2; stroke-width:0; stroke-opacity:1; 
stroke-linecap:round; stroke-linejoin:round;">
<circle cx="6519.45" cy="5026.61" r="59.0551" /> 
</g>
<g style="fill:#C2C2C2; fill-opacity:1.0; 
stroke:#C2C2C2; stroke-width:39.3701; stroke-opacity:1; 
stroke-linecap:round; stroke-linejoin:round;">
</g>
<g style="fill:#C2C2C2; fill-opacity:1.0; 
stroke:#C2C2C2; stroke-width:0; stroke-opacity:1; 
stroke-linecap:round; stroke-linejoin:round;">
<circle cx="6320.79" cy="4428.9" r="68.8976" /> 
</g>
<g style="fill:#C2C2C2; fill-opacity:1.0; 
stroke:#C2C2C2; stroke-width:39.3701; stroke-opacity:1; 
stroke-linecap:round; stroke-linejoin:round;">
</g>
<g style="fill:#C2C2C2; fill-opacity:1.0; 
stroke:#C2C2C2; stroke-width:0; stroke-opacity:1; 
stroke-linecap:round; stroke-linejoin:round;">
<circle cx="6319.73" cy="6614.59" r="68.8976" /> 
</g>
<g style="fill:#C2C2C2; fill-opacity:1.0; 
stroke:#C2C2C2; stroke-width:39.3701; stroke-opacity:1; 
stroke-linecap:round; stroke-linejoin:round;">
</g>
<g style="fill:#C2C2C2; fill-opacity:1.0; 
stroke:#C2C2C2; stroke-width:0; stroke-opacity:1; 
stroke-linecap:round; stroke-linejoin:round;">
<circle cx="7306.85" cy="5223.46" r="68.8976" /> 
</g>
<g style="fill:#C2C2C2; fill-opacity:1.0; 
stroke:#C2C2C2; stroke-width:39.3701; stroke-opacity:1; 
stroke-linecap:round; stroke-linejoin:round;">
</g>
<g style="fill:#C2C2C2; fill-opacity:1.0; 
stroke:#C2C2C2; stroke-width:0; stroke-opacity:1; 
stroke-linecap:round; stroke-linejoin:round;">
<circle cx="5535.2" cy="6010.87" r="68.8976" /> 
</g>
<g style="fill:#C2C2C2; fill-opacity:1.0; 
stroke:#C2C2C2; stroke-width:39.3701; stroke-opacity:1; 
stroke-linecap:round; stroke-linejoin:round;">
</g>
<g style="fill:#C2C2C2; fill-opacity:1.0; 
stroke:#C2C2C2; stroke-width:0; stroke-opacity:1; 
stroke-linecap:round; stroke-linejoin:round;">
<circle cx="7306.85" cy="6404.57" r="68.8976" /> 
</g>
<g style="fill:#C2C2C2; fill-opacity:1.0; 
stroke:#C2C2C2; stroke-width:39.3701; stroke-opacity:1; 
stroke-linecap:round; stroke-linejoin:round;">
</g>
<g style="fill:#C2C2C2; fill-opacity:1.0; 
stroke:#C2C2C2; stroke-width:0; stroke-opacity:1; 
stroke-linecap:round; stroke-linejoin:round;">
<circle cx="5533.31" cy="6632.05" r="68.8976" /> 
</g>
<g style="fill:#C2C2C2; fill-opacity:1.0; 
stroke:#C2C2C2; stroke-width:39.3701; stroke-opacity:1; 
stroke-linecap:round; stroke-linejoin:round;">
</g>
<g style="fill:#C2C2C2; fill-opacity:1.0; 
stroke:#C2C2C2; stroke-width:0; stroke-opacity:1; 
stroke-linecap:round; stroke-linejoin:round;">
<circle cx="5373.39" cy="4483.15" r="68.8976" /> 
</g>
<g style="fill:#C2C2C2; fill-opacity:1.0; 
stroke:#C2C2C2; stroke-width:39.3701; stroke-opacity:1; 
stroke-linecap:round; stroke-linejoin:round;">
</g>
<g style="fill:#C2C2C2; fill-opacity:1.0; 
stroke:#C2C2C2; stroke-width:0; stroke-opacity:1; 
stroke-linecap:round; stroke-linejoin:round;">
<circle cx="4763.39" cy="5003.15" r="68.8976" /> 
</g>
<g style="fill:#C2C2C2; fill-opacity:1.0; 
stroke:#C2C2C2; stroke-width:39.3701; stroke-opacity:1; 
stroke-linecap:round; stroke-linejoin:round;">
</g>
<g style="fill:#C2C2C2; fill-opacity:1.0; 
stroke:#C2C2C2; stroke-width:0; stroke-opacity:1; 
stroke-linecap:round; stroke-linejoin:round;">
<circle cx="5373.39" cy="4743.15" r="68.8976" /> 
</g>
<g style="fill:#C2C2C2; fill-opacity:1.0; 
stroke:#C2C2C2; stroke-width:39.3701; stroke-opacity:1; 
stroke-linecap:round; stroke-linejoin:round;">
</g>
<g style="fill:#C2C2C2; fill-opacity:1.0; 
stroke:#C2C2C2; stroke-width:0; stroke-opacity:1; 
stroke-linecap:round; stroke-linejoin:round;">
<circle cx="6913.15" cy="5026.61" r="68.8976" /> 
</g>
<g style="fill:#C2C2C2; fill-opacity:1.0; 
stroke:#C2C2C2; stroke-width:39.3701; stroke-opacity:1; 
stroke-linecap:round; stroke-linejoin:round;">
</g>
<g style="fill:#C2C2C2; fill-opacity:1.0; 
stroke:#C2C2C2; stroke-width:0; stroke-opacity:1; 
stroke-linecap:round; stroke-linejoin:round;">
<circle cx="5535.2" cy="6404.57" r="68.8976" /> 
</g>
<g style="fill:#C2C2C2; fill-opacity:1.0; 
stroke:#C2C2C2; stroke-width:39.3701; stroke-opacity:1; 
stroke-linecap:round; stroke-linejoin:round;">
</g>
<g style="fill:#C2C2C2; fill-opacity:1.0; 
stroke:#C2C2C2; stroke-width:0; stroke-opacity:1; 
stroke-linecap:round; stroke-linejoin:round;">
<circle cx="4900.79" cy="6412.05" r="68.8976" /> 
</g>
<g style="fill:#C2C2C2; fill-opacity:1.0; 
stroke:#C2C2C2; stroke-width:39.3701; stroke-opacity:1; 
stroke-linecap:round; stroke-linejoin:round;">
</g>
<g style="fill:#C2C2C2; fill-opacity:1.0; 
stroke:#C2C2C2; stroke-width:0; stroke-opacity:1; 
stroke-linecap:round; stroke-linejoin:round;">
<circle cx="7110" cy="6404.57" r="68.8976" /> 
</g>
<g style="fill:#C2C2C2; fill-opacity:1.0; 
stroke:#C2C2C2; stroke-width:39.3701; stroke-opacity:1; 
stroke-linecap:round; stroke-linejoin:round;">
</g>
<g style="fill:#C2C2C2; fill-opacity:1.0; 
stroke:#C2C2C2; stroke-width:0; stroke-opacity:1; 
stroke-linecap:round; stroke-linejoin:round;">
<circle cx="7708.19" cy="5543.15" r="68.8976" /> 
</g>
<g style="fill:#C2C2C2; fill-opacity:1.0; 
stroke:#C2C2C2; stroke-width:39.3701; stroke-opacity:1; 
stroke-linecap:round; stroke-linejoin:round;">
</g>
<g style="fill:#C2C2C2; fill-opacity:1.0; 
stroke:#C2C2C2; stroke-width:0; stroke-opacity:1; 
stroke-linecap:round; stroke-linejoin:round;">
<circle cx="6125.75" cy="5223.46" r="68.8976" /> 
</g>
<g style="fill:#C2C2C2; fill-opacity:1.0; 
stroke:#C2C2C2; stroke-width:39.3701; stroke-opacity:1; 
stroke-linecap:round; stroke-linejoin:round;">
</g>
<g style="fill:#C2C2C2; fill-opacity:1.0; 
stroke:#C2C2C2; stroke-width:0; stroke-opacity:1; 
stroke-linecap:round; stroke-linejoin:round;">
<circle cx="5928.9" cy="5223.46" r="68.8976" /> 
</g>
<g style="fill:#C2C2C2; fill-opacity:1.0; 
stroke:#C2C2C2; stroke-width:39.3701; stroke-opacity:1; 
stroke-linecap:round; stroke-linejoin:round;">
</g>
<g style="fill:#C2C2C2; fill-opacity:1.0; 
stroke:#C2C2C2; stroke-width:0; stroke-opacity:1; 
stroke-linecap:round; stroke-linejoin:round;">
<circle cx="7770.79" cy="6558.9" r="68.8976" /> 
</g>
<g style="fill:#C2C2C2; fill-opacity:1.0; 
stroke:#C2C2C2; stroke-width:39.3701; stroke-opacity:1; 
stroke-linecap:round; stroke-linejoin:round;">
</g>
<g style="fill:#C2C2C2; fill-opacity:1.0; 
stroke:#C2C2C2; stroke-width:0; stroke-opacity:1; 
stroke-linecap:round; stroke-linejoin:round;">
<circle cx="5928.9" cy="6010.87" r="68.8976" /> 
</g>
<g style="fill:#C2C2C2; fill-opacity:1.0; 
stroke:#C2C2C2; stroke-width:39.3701; stroke-opacity:1; 
stroke-linecap:round; stroke-linejoin:round;">
</g>
<g style="fill:#C2C2C2; fill-opacity:1.0; 
stroke:#C2C2C2; stroke-width:0; stroke-opacity:1; 
stroke-linecap:round; stroke-linejoin:round;">
<circle cx="5732.05" cy="6010.87" r="68.8976" /> 
</g>
<g style="fill:#C2C2C2; fill-opacity:1.0; 
stroke:#C2C2C2; stroke-width:39.3701; stroke-opacity:1; 
stroke-linecap:round; stroke-linejoin:round;">
</g>
<g style="fill:#C2C2C2; fill-opacity:1.0; 
stroke:#C2C2C2; stroke-width:0; stroke-opacity:1; 
stroke-linecap:round; stroke-linejoin:round;">
<circle cx="5110.79" cy="5798.9" r="68.8976" /> 
</g>
<g style="fill:#C2C2C2; fill-opacity:1.0; 
stroke:#C2C2C2; stroke-width:39.3701; stroke-opacity:1; 
stroke-linecap:round; stroke-linejoin:round;">
</g>
<g style="fill:#C2C2C2; fill-opacity:1.0; 
stroke:#C2C2C2; stroke-width:0; stroke-opacity:1; 
stroke-linecap:round; stroke-linejoin:round;">
<circle cx="7700.79" cy="6918.9" r="68.8976" /> 
</g>
<g style="fill:#C2C2C2; fill-opacity:1.0; 
stroke:#C2C2C2; stroke-width:39.3701; stroke-opacity:1; 
stroke-linecap:round; stroke-linejoin:round;">
</g>
<g style="fill:#C2C2C2; fill-opacity:1.0; 
stroke:#C2C2C2; stroke-width:0; stroke-opacity:1; 
stroke-linecap:round; stroke-linejoin:round;">
<circle cx="5732.05" cy="5223.46" r="68.8976" /> 
</g>
<g style="fill:#C2C2C2; fill-opacity:1.0; 
stroke:#C2C2C2; stroke-width:39.3701; stroke-opacity:1; 
stroke-linecap:round; stroke-linejoin:round;">
</g>
<g style="fill:#C2C2C2; fill-opacity:1.0; 
stroke:#C2C2C2; stroke-width:0; stroke-opacity:1; 
stroke-linecap:round; stroke-linejoin:round;">
<circle cx="5733.39" cy="4390.95" r="68.8976" /> 
</g>
<g style="fill:#C2C2C2; fill-opacity:1.0; 
stroke:#C2C2C2; stroke-width:39.3701; stroke-opacity:1; 
stroke-linecap:round; stroke-linejoin:round;">
</g>
<g style="fill:#C2C2C2; fill-opacity:1.0; 
stroke:#C2C2C2; stroke-width:0; stroke-opacity:1; 
stroke-linecap:round; stroke-linejoin:round;">
<circle cx="4740.79" cy="5248.9" r="68.8976" /> 
</g>
<g style="fill:#C2C2C2; fill-opacity:1.0; 
stroke:#C2C2C2; stroke-width:39.3701; stroke-opacity:1; 
stroke-linecap:round; stroke-linejoin:round;">
</g>
<g style="fill:#C2C2C2; fill-opacity:1.0; 
stroke:#C2C2C2; stroke-width:0; stroke-opacity:1; 
stroke-linecap:round; stroke-linejoin:round;">
<circle cx="7110" cy="5026.61" r="68.8976" /> 
</g>
<g style="fill:#C2C2C2; fill-opacity:1.0; 
stroke:#C2C2C2; stroke-width:39.3701; stroke-opacity:1; 
stroke-linecap:round; stroke-linejoin:round;">
</g>
<g style="fill:#C2C2C2; fill-opacity:1.0; 
stroke:#C2C2C2; stroke-width:0; stroke-opacity:1; 
stroke-linecap:round; stroke-linejoin:round;">
<circle cx="5338.35" cy="6207.72" r="68.8976" /> 
</g>
<g style="fill:#C2C2C2; fill-opacity:1.0; 
stroke:#C2C2C2; stroke-width:39.3701; stroke-opacity:1; 
stroke-linecap:round; stroke-linejoin:round;">
</g>
<g style="fill:#C2C2C2; fill-opacity:1.0; 
stroke:#C2C2C2; stroke-width:0; stroke-opacity:1; 
stroke-linecap:round; stroke-linejoin:round;">
<circle cx="7306.85" cy="5420.32" r="68.8976" /> 
</g>
<g style="fill:#C2C2C2; fill-opacity:1.0; 
stroke:#C2C2C2; stroke-width:39.3701; stroke-opacity:1; 
stroke-linecap:round; stroke-linejoin:round;">
</g>
<g style="fill:#C2C2C2; fill-opacity:1.0; 
stroke:#C2C2C2; stroke-width:0; stroke-opacity:1; 
stroke-linecap:round; stroke-linejoin:round;">
<circle cx="7760.79" cy="4408.9" r="59.0551" /> 
</g>
<g style="fill:#C2C2C2; fill-opacity:1.0; 
stroke:#C2C2C2; stroke-width:39.3701; stroke-opacity:1; 
stroke-linecap:round; stroke-linejoin:round;">
</g>
<g style="fill:#C2C2C2; fill-opacity:1.0; 
stroke:#C2C2C2; stroke-width:0; stroke-opacity:1; 
stroke-linecap:round; stroke-linejoin:round;">
<circle cx="4773.39" cy="4743.15" r="68.8976" /> 
</g>
<g style="fill:#C2C2C2; fill-opacity:1.0; 
stroke:#C2C2C2; stroke-width:39.3701; stroke-opacity:1; 
stroke-linecap:round; stroke-linejoin:round;">
</g>
<g style="fill:#C2C2C2; fill-opacity:1.0; 
stroke:#C2C2C2; stroke-width:0; stroke-opacity:1; 
stroke-linecap:round; stroke-linejoin:round;">
<circle cx="4530.79" cy="7018.9" r="68.8976" /> 
</g>
<g style="fill:#C2C2C2; fill-opacity:1.0; 
stroke:#C2C2C2; stroke-width:39.3701; stroke-opacity:1; 
stroke-linecap:round; stroke-linejoin:round;">
</g>
<g style="fill:#C2C2C2; fill-opacity:1.0; 
stroke:#C2C2C2; stroke-width:0; stroke-opacity:1; 
stroke-linecap:round; stroke-linejoin:round;">
<circle cx="5315.12" cy="6623.15" r="68.8976" /> 
</g>
<g style="fill:#C2C2C2; fill-opacity:1.0; 
stroke:#C2C2C2; stroke-width:39.3701; stroke-opacity:1; 
stroke-linecap:round; stroke-linejoin:round;">
</g>
<g style="fill:#C2C2C2; fill-opacity:1.0; 
stroke:#C2C2C2; stroke-width:0; stroke-opacity:1; 
stroke-linecap:round; stroke-linejoin:round;">
<circle cx="7110" cy="6207.72" r="68.8976" /> 
</g>
<g style="fill:#C2C2C2; fill-opacity:1.0; 
stroke:#C2C2C2; stroke-width:39.3701; stroke-opacity:1; 
stroke-linecap:round; stroke-linejoin:round;">
</g>
<g style="fill:#C2C2C2; fill-opacity:1.0; 
stroke:#C2C2C2; stroke-width:0; stroke-opacity:1; 
stroke-linecap:round; stroke-linejoin:round;">
<circle cx="6322.6" cy="6207.72" r="68.8976" /> 
</g>
<g style="fill:#C2C2C2; fill-opacity:1.0; 
stroke:#C2C2C2; stroke-width:39.3701; stroke-opacity:1; 
stroke-linecap:round; stroke-linejoin:round;">
</g>
<g style="fill:#C2C2C2; fill-opacity:1.0; 
stroke:#C2C2C2; stroke-width:0; stroke-opacity:1; 
stroke-linecap:round; stroke-linejoin:round;">
<circle cx="6322.6" cy="5026.61" r="68.8976" /> 
</g>
<g style="fill:#C2C2C2; fill-opacity:1.0; 
stroke:#C2C2C2; stroke-width:39.3701; stroke-opacity:1; 
stroke-linecap:round; stroke-linejoin:round;">
</g>
<g style="fill:#C2C2C2; fill-opacity:1.0; 
stroke:#C2C2C2; stroke-width:0; stroke-opacity:1; 
stroke-linecap:round; stroke-linejoin:round;">
<circle cx="5870.79" cy="6902.05" r="68.8976" /> 
</g>
<g style="fill:#C2C2C2; fill-opacity:1.0; 
stroke:#C2C2C2; stroke-width:39.3701; stroke-opacity:1; 
stroke-linecap:round; stroke-linejoin:round;">
</g>
<g style="fill:#C2C2C2; fill-opacity:1.0; 
stroke:#C2C2C2; stroke-width:0; stroke-opacity:1; 
stroke-linecap:round; stroke-linejoin:round;">
<circle cx="6125.75" cy="6207.72" r="68.8976" /> 
</g>
<g style="fill:#C2C2C2; fill-opacity:1.0; 
stroke:#C2C2C2; stroke-width:39.3701; stroke-opacity:1; 
stroke-linecap:round; stroke-linejoin:round;">
</g>
<g style="fill:#C2C2C2; fill-opacity:1.0; 
stroke:#C2C2C2; stroke-width:0; stroke-opacity:1; 
stroke-linecap:round; stroke-linejoin:round;">
<circle cx="6090.79" cy="6658.9" r="68.8976" /> 
</g>
<g style="fill:#C2C2C2; fill-opacity:1.0; 
stroke:#C2C2C2; stroke-width:39.3701; stroke-opacity:1; 
stroke-linecap:round; stroke-linejoin:round;">
</g>
<g style="fill:#C2C2C2; fill-opacity:1.0; 
stroke:#C2C2C2; stroke-width:0; stroke-opacity:1; 
stroke-linecap:round; stroke-linejoin:round;">
<circle cx="4580.79" cy="4228.9" r="68.8976" /> 
</g>
<g style="fill:#C2C2C2; fill-opacity:1.0; 
stroke:#C2C2C2; stroke-width:39.3701; stroke-opacity:1; 
stroke-linecap:round; stroke-linejoin:round;">
</g>
<g style="fill:#C2C2C2; fill-opacity:1.0; 
stroke:#C2C2C2; stroke-width:0; stroke-opacity:1; 
stroke-linecap:round; stroke-linejoin:round;">
<circle cx="6140.79" cy="4568.9" r="68.8976" /> 
</g>
<g style="fill:#C2C2C2; fill-opacity:1.0; 
stroke:#C2C2C2; stroke-width:39.3701; stroke-opacity:1; 
stroke-linecap:round; stroke-linejoin:round;">
</g>
<g style="fill:#C2C2C2; fill-opacity:1.0; 
stroke:#C2C2C2; stroke-width:0; stroke-opacity:1; 
stroke-linecap:round; stroke-linejoin:round;">
<circle cx="5338.35" cy="5617.17" r="68.8976" /> 
</g>
<g style="fill:#C2C2C2; fill-opacity:1.0; 
stroke:#C2C2C2; stroke-width:39.3701; stroke-opacity:1; 
stroke-linecap:round; stroke-linejoin:round;">
</g>
<g style="fill:#C2C2C2; fill-opacity:1.0; 
stroke:#C2C2C2; stroke-width:0; stroke-opacity:1; 
stroke-linecap:round; stroke-linejoin:round;">
<circle cx="6913.15" cy="5223.46" r="68.8976" /> 
</g>
<g style="fill:#C2C2C2; fill-opacity:1.0; 
stroke:#C2C2C2; stroke-width:39.3701; stroke-opacity:1; 
stroke-linecap:round; stroke-linejoin:round;">
</g>
<g style="fill:#C2C2C2; fill-opacity:1.0; 
stroke:#C2C2C2; stroke-width:0; stroke-opacity:1; 
stroke-linecap:round; stroke-linejoin:round;">
<circle cx="5928.9" cy="6207.72" r="68.8976" /> 
</g>
<g style="fill:#C2C2C2; fill-opacity:1.0; 
stroke:#C2C2C2; stroke-width:39.3701; stroke-opacity:1; 
stroke-linecap:round; stroke-linejoin:round;">
</g>
<g style="fill:#C2C2C2; fill-opacity:1.0; 
stroke:#C2C2C2; stroke-width:0; stroke-opacity:1; 
stroke-linecap:round; stroke-linejoin:round;">
<circle cx="6125.75" cy="6010.87" r="68.8976" /> 
</g>
<g style="fill:#C2C2C2; fill-opacity:1.0; 
stroke:#C2C2C2; stroke-width:39.3701; stroke-opacity:1; 
stroke-linecap:round; stroke-linejoin:round;">
</g>
<g style="fill:#C2C2C2; fill-opacity:1.0; 
stroke:#C2C2C2; stroke-width:0; stroke-opacity:1; 
stroke-linecap:round; stroke-linejoin:round;">
<circle cx="6322.6" cy="6010.87" r="68.8976" /> 
</g>
<g style="fill:#C2C2C2; fill-opacity:1.0; 
stroke:#C2C2C2; stroke-width:39.3701; stroke-opacity:1; 
stroke-linecap:round; stroke-linejoin:round;">
</g>
<g style="fill:#C2C2C2; fill-opacity:1.0; 
stroke:#C2C2C2; stroke-width:0; stroke-opacity:1; 
stroke-linecap:round; stroke-linejoin:round;">
<circle cx="4870.79" cy="6708.9" r="68.8976" /> 
</g>
<g style="fill:#C2C2C2; fill-opacity:1.0; 
stroke:#C2C2C2; stroke-width:39.3701; stroke-opacity:1; 
stroke-linecap:round; stroke-linejoin:round;">
</g>
<g style="fill:#C2C2C2; fill-opacity:1.0; 
stroke:#C2C2C2; stroke-width:0; stroke-opacity:1; 
stroke-linecap:round; stroke-linejoin:round;">
<circle cx="6519.45" cy="6207.72" r="68.8976" /> 
</g>
<g style="fill:#C2C2C2; fill-opacity:1.0; 
stroke:#C2C2C2; stroke-width:39.3701; stroke-opacity:1; 
stroke-linecap:round; stroke-linejoin:round;">
</g>
<g style="fill:#C2C2C2; fill-opacity:1.0; 
stroke:#C2C2C2; stroke-width:0; stroke-opacity:1; 
stroke-linecap:round; stroke-linejoin:round;">
<circle cx="6530.78" cy="6582.05" r="68.8976" /> 
</g>
<g style="fill:#C2C2C2; fill-opacity:1.0; 
stroke:#C2C2C2; stroke-width:39.3701; stroke-opacity:1; 
stroke-linecap:round; stroke-linejoin:round;">
</g>
<g style="fill:#C2C2C2; fill-opacity:1.0; 
stroke:#C2C2C2; stroke-width:0; stroke-opacity:1; 
stroke-linecap:round; stroke-linejoin:round;">
<circle cx="7500.79" cy="6848.9" r="68.8976" /> 
</g>
<g style="fill:#C2C2C2; fill-opacity:1.0; 
stroke:#C2C2C2; stroke-width:39.3701; stroke-opacity:1; 
stroke-linecap:round; stroke-linejoin:round;">
</g>
<g style="fill:#C2C2C2; fill-opacity:1.0; 
stroke:#C2C2C2; stroke-width:0; stroke-opacity:1; 
stroke-linecap:round; stroke-linejoin:round;">
<circle cx="6519.45" cy="6010.87" r="68.8976" /> 
</g>
<g style="fill:#C2C2C2; fill-opacity:1.0; 
stroke:#C2C2C2; stroke-width:39.3701; stroke-opacity:1; 
stroke-linecap:round; stroke-linejoin:round;">
</g>
<g style="fill:#C2C2C2; fill-opacity:1.0; 
stroke:#C2C2C2; stroke-width:0; stroke-opacity:1; 
stroke-linecap:round; stroke-linejoin:round;">
<circle cx="6716.3" cy="6207.72" r="68.8976" /> 
</g>
<g style="fill:#C2C2C2; fill-opacity:1.0; 
stroke:#C2C2C2; stroke-width:39.3701; stroke-opacity:1; 
stroke-linecap:round; stroke-linejoin:round;">
</g>
<g style="fill:#C2C2C2; fill-opacity:1.0; 
stroke:#C2C2C2; stroke-width:0; stroke-opacity:1; 
stroke-linecap:round; stroke-linejoin:round;">
<circle cx="6310.79" cy="6802.05" r="68.8976" /> 
</g>
<g style="fill:#C2C2C2; fill-opacity:1.0; 
stroke:#C2C2C2; stroke-width:39.3701; stroke-opacity:1; 
stroke-linecap:round; stroke-linejoin:round;">
</g>
<g style="fill:#C2C2C2; fill-opacity:1.0; 
stroke:#C2C2C2; stroke-width:0; stroke-opacity:1; 
stroke-linecap:round; stroke-linejoin:round;">
<circle cx="6716.3" cy="6010.87" r="68.8976" /> 
</g>
<g style="fill:#C2C2C2; fill-opacity:1.0; 
stroke:#C2C2C2; stroke-width:39.3701; stroke-opacity:1; 
stroke-linecap:round; stroke-linejoin:round;">
</g>
<g style="fill:#C2C2C2; fill-opacity:1.0; 
stroke:#C2C2C2; stroke-width:0; stroke-opacity:1; 
stroke-linecap:round; stroke-linejoin:round;">
<circle cx="6913.15" cy="6017.8" r="68.8976" /> 
</g>
<g style="fill:#C2C2C2; fill-opacity:1.0; 
stroke:#C2C2C2; stroke-width:39.3701; stroke-opacity:1; 
stroke-linecap:round; stroke-linejoin:round;">
</g>
<g style="fill:#C2C2C2; fill-opacity:1.0; 
stroke:#C2C2C2; stroke-width:0; stroke-opacity:1; 
stroke-linecap:round; stroke-linejoin:round;">
<circle cx="6477.26" cy="6870.95" r="68.8976" /> 
</g>
<g style="fill:#C2C2C2; fill-opacity:1.0; 
stroke:#C2C2C2; stroke-width:39.3701; stroke-opacity:1; 
stroke-linecap:round; stroke-linejoin:round;">
</g>
<g style="fill:#C2C2C2; fill-opacity:1.0; 
stroke:#C2C2C2; stroke-width:0; stroke-opacity:1; 
stroke-linecap:round; stroke-linejoin:round;">
<circle cx="6913.15" cy="6207.72" r="68.8976" /> 
</g>
<g style="fill:#C2C2C2; fill-opacity:1.0; 
stroke:#C2C2C2; stroke-width:39.3701; stroke-opacity:1; 
stroke-linecap:round; stroke-linejoin:round;">
</g>
<g >
</g>
<g style="fill:#840000; fill-opacity:1.0; 
stroke:#840000; stroke-width:39.3701; stroke-opacity:1; 
stroke-linecap:round; stroke-linejoin:round;">
</g>
<g style="fill:#840000; fill-opacity:1.0; 
stroke:#840000; stroke-width:60; stroke-opacity:1; 
stroke-linecap:round; stroke-linejoin:round;">
</g>
<g style="fill:#840000; fill-opacity:0.0; 
stroke:#840000; stroke-width:60; stroke-opacity:1; 
stroke-linecap:round; stroke-linejoin:round;">
<path d="M5373 4483
L5575 4483
" />
<path d="M5685 4593
L5731 4593
" />
<path d="M5575 4483
L5685 4593
" />
<path d="M7288 4209
L7086 4209
" />
<path d="M5731 4593
L5733 4594
" />
<path d="M7086 4209
L7081 4204
" />
<path d="M7459 4038
L7288 4209
" />
<path d="M7790 4038
L7459 4038
" />
<path d="M7902 4150
L7790 4038
" />
<path d="M7561 4663
L7737 4663
" />
<path d="M7303 5631
L7368 5631
" />
<path d="M7383 5231
L7313 5231
" />
<path d="M5733 5024
L5223 5024
" />
<path d="M7550 4645
L7550 4506
" />
</g>
<g style="fill:#840000; fill-opacity:0.0; 
stroke:#840000; stroke-width:120; stroke-opacity:1; 
stroke-linecap:round; stroke-linejoin:round;">
<path d="M7550 4506
L7550 4408
" />
</g>
<g style="fill:#840000; fill-opacity:0.0; 
stroke:#840000; stroke-width:60; stroke-opacity:1; 
stroke-linecap:round; stroke-linejoin:round;">
<path d="M5733 5821
L5470 5821
" />
<path d="M5470 5821
L5395 5896
" />
<path d="M5223 5024
L5201 5003
" />
<path d="M5243 4483
L5371 4483
" />
<path d="M6323 6421
L6323 6610
" />
<path d="M5070 4656
L5243 4483
" />
<path d="M7737 4663
L7902 4498
" />
<path d="M5201 5003
L5070 4872
" />
<path d="M7457 5305
L7383 5231
" />
<path d="M8048 5143
L7550 4645
" />
<path d="M7457 5542
L7457 5305
" />
<path d="M5070 4872
L5070 4656
" />
<path d="M7902 4498
L7902 4150
" />
<path d="M7368 5631
L7457 5542
" />
<path d="M6323 6610
L6319 6614
" />
<path d="M5741 6403
L5741 6413
" />
<path d="M7306 5223
L7131 5223
" />
<path d="M5748 6421
L5732 6404
" />
<path d="M7321 6413
L7321 6213
" />
<path d="M8048 5553
L8058 5543
" />
<path d="M8058 5153
L8048 5143
" />
<path d="M8048 5893
L8048 5553
" />
<path d="M8058 5543
L8058 5153
" />
<path d="M7131 5223
L7123 5231
" />
<path d="M5525 6403
L4909 6403
" />
</g>
<g style="fill:#840000; fill-opacity:0.0; 
stroke:#840000; stroke-width:120; stroke-opacity:1; 
stroke-linecap:round; stroke-linejoin:round;">
<path d="M4909 6403
L4900 6412
" />
</g>
<g style="fill:#840000; fill-opacity:0.0; 
stroke:#840000; stroke-width:60; stroke-opacity:1; 
stroke-linecap:round; stroke-linejoin:round;">
<path d="M5373 4743
L5583 4743
" />
<path d="M5583 4743
L5651 4811
" />
<path d="M5651 4811
L5733 4811
" />
</g>
<g style="fill:#840000; fill-opacity:0.0; 
stroke:#840000; stroke-width:120; stroke-opacity:1; 
stroke-linecap:round; stroke-linejoin:round;">
<path d="M5527 6412
L5535 6404
" />
</g>
<g style="fill:#840000; fill-opacity:0.0; 
stroke:#840000; stroke-width:60; stroke-opacity:1; 
stroke-linecap:round; stroke-linejoin:round;">
<path d="M7110 5026
L7301 5026
" />
<path d="M7301 5026
L7313 5014
" />
<path d="M7313 5014
L7569 5014
" />
</g>
<g style="fill:#840000; fill-opacity:0.0; 
stroke:#840000; stroke-width:120; stroke-opacity:1; 
stroke-linecap:round; stroke-linejoin:round;">
<path d="M7806 6813
L7700 6918
" />
</g>
<g style="fill:#840000; fill-opacity:0.0; 
stroke:#840000; stroke-width:60; stroke-opacity:1; 
stroke-linecap:round; stroke-linejoin:round;">
<path d="M7569 5014
L7698 5143
" />
</g>
<g style="fill:#840000; fill-opacity:0.0; 
stroke:#840000; stroke-width:120; stroke-opacity:1; 
stroke-linecap:round; stroke-linejoin:round;">
<path d="M8000 6813
L7806 6813
" />
</g>
<g style="fill:#840000; fill-opacity:0.0; 
stroke:#840000; stroke-width:60; stroke-opacity:1; 
stroke-linecap:round; stroke-linejoin:round;">
<path d="M5323 6213
L5333 6203
" />
<path d="M4766 5329
L4651 5329
" />
<path d="M4985 5111
L4766 5329
" />
<path d="M4985 5003
L4985 5111
" />
<path d="M4971 6213
L5323 6213
" />
<path d="M7731 4223
L7731 4379
" />
<path d="M7731 4379
L7760 4408
" />
<path d="M4545 4849
L4655 4739
" />
<path d="M4545 5003
L4545 4849
" />
<path d="M7698 5893
L7698 5986
" />
<path d="M5730 6790
L5422 6790
" />
<path d="M6177 6343
L5730 6790
" />
<path d="M6186 6343
L6177 6343
" />
<path d="M5422 6790
L5315 6683
" />
<path d="M7790 6289
L7500 6578
" />
<path d="M7359 5958
L7632 5958
" />
<path d="M6322 6207
L6186 6343
" />
<path d="M8000 6289
L7790 6289
" />
<path d="M6880 6408
L6519 6408
" />
<path d="M5315 6683
L5315 6623
" />
<path d="M7500 6578
L7050 6578
" />
<path d="M7632 5958
L7740 5850
" />
<path d="M6322 6211
L6322 6207
" />
<path d="M6519 6408
L6322 6211
" />
<path d="M7050 6578
L6880 6408
" />
<path d="M7698 5986
L8000 6289
" />
<path d="M7105 6213
L7359 5958
" />
<path d="M7743 5938
L7698 5893
" />
<path d="M7740 5850
L7740 5838
" />
<path d="M6322 4915
L6322 5026
" />
<path d="M6575 4663
L7025 4663
" />
<path d="M6575 4663
L6322 4915
" />
<path d="M6152 4263
L6133 4263
" />
<path d="M6133 4263
L6033 4163
" />
<path d="M5735 4163
L5733 4164
" />
<path d="M6033 4163
L5735 4163
" />
<path d="M6534 4263
L6815 4263
" />
<path d="M6815 4263
L6825 4273
" />
<path d="M4582 4227
L4580 4228
" />
<path d="M4655 4227
L4582 4227
" />
<path d="M4655 4227
L5245 4227
" />
<path d="M7396 4342
L7432 4305
" />
<path d="M7081 4342
L7396 4342
" />
<path d="M7432 4305
L7515 4223
" />
<path d="M4755 6000
L4651 5896
" />
<path d="M4755 6213
L4755 6000
" />
<path d="M5733 5604
L5350 5604
" />
<path d="M5350 5604
L5338 5617
" />
<path d="M5395 5329
L5438 5372
" />
<path d="M5438 5372
L6764 5372
" />
<path d="M6764 5372
L6913 5223
" />
</g>
<g >
</g>
</g>
<g style="fill:#FFFFFF; fill-opacity:0.0; 
stroke:#FFFFFF; stroke-width:60; stroke-opacity:1; 
stroke-linecap:round; stroke-linejoin:round;">
</g>
<g style="fill:#FFFFFF; fill-opacity:1.0; 
stroke:#FFFFFF; stroke-width:0; stroke-opacity:1; 
stroke-linecap:round; stroke-linejoin:round;">
<circle cx="6349.69" cy="7008.9" r="29.5276" /> 
</g>
<g style="fill:#FFFFFF; fill-opacity:1.0; 
stroke:#FFFFFF; stroke-width:39.3701; stroke-opacity:1; 
stroke-linecap:round; stroke-linejoin:round;">
</g>
<g style="fill:#FFFFFF; fill-opacity:1.0; 
stroke:#FFFFFF; stroke-width:0; stroke-opacity:1; 
stroke-linecap:round; stroke-linejoin:round;">
<circle cx="5732.05" cy="6404.57" r="29.5276" /> 
</g>
<g style="fill:#FFFFFF; fill-opacity:1.0; 
stroke:#FFFFFF; stroke-width:39.3701; stroke-opacity:1; 
stroke-linecap:round; stroke-linejoin:round;">
</g>
<g style="fill:#FFFFFF; fill-opacity:1.0; 
stroke:#FFFFFF; stroke-width:0; stroke-opacity:1; 
stroke-linecap:round; stroke-linejoin:round;">
<circle cx="5535.2" cy="6207.72" r="29.5276" /> 
</g>
<g style="fill:#FFFFFF; fill-opacity:1.0; 
stroke:#FFFFFF; stroke-width:39.3701; stroke-opacity:1; 
stroke-linecap:round; stroke-linejoin:round;">
</g>
<g style="fill:#FFFFFF; fill-opacity:1.0; 
stroke:#FFFFFF; stroke-width:0; stroke-opacity:1; 
stroke-linecap:round; stroke-linejoin:round;">
<circle cx="7550.79" cy="4408.9" r="29.5276" /> 
</g>
<g style="fill:#FFFFFF; fill-opacity:1.0; 
stroke:#FFFFFF; stroke-width:39.3701; stroke-opacity:1; 
stroke-linecap:round; stroke-linejoin:round;">
</g>
<g style="fill:#FFFFFF; fill-opacity:1.0; 
stroke:#FFFFFF; stroke-width:0; stroke-opacity:1; 
stroke-linecap:round; stroke-linejoin:round;">
<circle cx="6716.3" cy="5026.61" r="29.5276" /> 
</g>
<g style="fill:#FFFFFF; fill-opacity:1.0; 
stroke:#FFFFFF; stroke-width:39.3701; stroke-opacity:1; 
stroke-linecap:round; stroke-linejoin:round;">
</g>
<g style="fill:#FFFFFF; fill-opacity:1.0; 
stroke:#FFFFFF; stroke-width:0; stroke-opacity:1; 
stroke-linecap:round; stroke-linejoin:round;">
<circle cx="6519.45" cy="5026.61" r="29.5276" /> 
</g>
<g style="fill:#FFFFFF; fill-opacity:1.0; 
stroke:#FFFFFF; stroke-width:39.3701; stroke-opacity:1; 
stroke-linecap:round; stroke-linejoin:round;">
</g>
<g style="fill:#FFFFFF; fill-opacity:1.0; 
stroke:#FFFFFF; stroke-width:0; stroke-opacity:1; 
stroke-linecap:round; stroke-linejoin:round;">
<circle cx="6320.79" cy="4428.9" r="29.5276" /> 
</g>
<g style="fill:#FFFFFF; fill-opacity:1.0; 
stroke:#FFFFFF; stroke-width:39.3701; stroke-opacity:1; 
stroke-linecap:round; stroke-linejoin:round;">
</g>
<g style="fill:#FFFFFF; fill-opacity:1.0; 
stroke:#FFFFFF; stroke-width:0; stroke-opacity:1; 
stroke-linecap:round; stroke-linejoin:round;">
<circle cx="6319.73" cy="6614.59" r="29.5276" /> 
</g>
<g style="fill:#FFFFFF; fill-opacity:1.0; 
stroke:#FFFFFF; stroke-width:39.3701; stroke-opacity:1; 
stroke-linecap:round; stroke-linejoin:round;">
</g>
<g style="fill:#FFFFFF; fill-opacity:1.0; 
stroke:#FFFFFF; stroke-width:0; stroke-opacity:1; 
stroke-linecap:round; stroke-linejoin:round;">
<circle cx="7306.85" cy="5223.46" r="29.5276" /> 
</g>
<g style="fill:#FFFFFF; fill-opacity:1.0; 
stroke:#FFFFFF; stroke-width:39.3701; stroke-opacity:1; 
stroke-linecap:round; stroke-linejoin:round;">
</g>
<g style="fill:#FFFFFF; fill-opacity:1.0; 
stroke:#FFFFFF; stroke-width:0; stroke-opacity:1; 
stroke-linecap:round; stroke-linejoin:round;">
<circle cx="5535.2" cy="6010.87" r="29.5276" /> 
</g>
<g style="fill:#FFFFFF; fill-opacity:1.0; 
stroke:#FFFFFF; stroke-width:39.3701; stroke-opacity:1; 
stroke-linecap:round; stroke-linejoin:round;">
</g>
<g style="fill:#FFFFFF; fill-opacity:1.0; 
stroke:#FFFFFF; stroke-width:0; stroke-opacity:1; 
stroke-linecap:round; stroke-linejoin:round;">
<circle cx="7306.85" cy="6404.57" r="29.5276" /> 
</g>
<g style="fill:#FFFFFF; fill-opacity:1.0; 
stroke:#FFFFFF; stroke-width:39.3701; stroke-opacity:1; 
stroke-linecap:round; stroke-linejoin:round;">
</g>
<g style="fill:#FFFFFF; fill-opacity:1.0; 
stroke:#FFFFFF; stroke-width:0; stroke-opacity:1; 
stroke-linecap:round; stroke-linejoin:round;">
<circle cx="5533.31" cy="6632.05" r="29.5276" /> 
</g>
<g style="fill:#FFFFFF; fill-opacity:1.0; 
stroke:#FFFFFF; stroke-width:39.3701; stroke-opacity:1; 
stroke-linecap:round; stroke-linejoin:round;">
</g>
<g style="fill:#FFFFFF; fill-opacity:1.0; 
stroke:#FFFFFF; stroke-width:0; stroke-opacity:1; 
stroke-linecap:round; stroke-linejoin:round;">
<circle cx="5373.39" cy="4483.15" r="29.5276" /> 
</g>
<g style="fill:#FFFFFF; fill-opacity:1.0; 
stroke:#FFFFFF; stroke-width:39.3701; stroke-opacity:1; 
stroke-linecap:round; stroke-linejoin:round;">
</g>
<g style="fill:#FFFFFF; fill-opacity:1.0; 
stroke:#FFFFFF; stroke-width:0; stroke-opacity:1; 
stroke-linecap:round; stroke-linejoin:round;">
<circle cx="4763.39" cy="5003.15" r="29.5276" /> 
</g>
<g style="fill:#FFFFFF; fill-opacity:1.0; 
stroke:#FFFFFF; stroke-width:39.3701; stroke-opacity:1; 
stroke-linecap:round; stroke-linejoin:round;">
</g>
<g style="fill:#FFFFFF; fill-opacity:1.0; 
stroke:#FFFFFF; stroke-width:0; stroke-opacity:1; 
stroke-linecap:round; stroke-linejoin:round;">
<circle cx="5373.39" cy="4743.15" r="29.5276" /> 
</g>
<g style="fill:#FFFFFF; fill-opacity:1.0; 
stroke:#FFFFFF; stroke-width:39.3701; stroke-opacity:1; 
stroke-linecap:round; stroke-linejoin:round;">
</g>
<g style="fill:#FFFFFF; fill-opacity:1.0; 
stroke:#FFFFFF; stroke-width:0; stroke-opacity:1; 
stroke-linecap:round; stroke-linejoin:round;">
<circle cx="6913.15" cy="5026.61" r="29.5276" /> 
</g>
<g style="fill:#FFFFFF; fill-opacity:1.0; 
stroke:#FFFFFF; stroke-width:39.3701; stroke-opacity:1; 
stroke-linecap:round; stroke-linejoin:round;">
</g>
<g style="fill:#FFFFFF; fill-opacity:1.0; 
stroke:#FFFFFF; stroke-width:0; stroke-opacity:1; 
stroke-linecap:round; stroke-linejoin:round;">
<circle cx="5535.2" cy="6404.57" r="29.5276" /> 
</g>
<g style="fill:#FFFFFF; fill-opacity:1.0; 
stroke:#FFFFFF; stroke-width:39.3701; stroke-opacity:1; 
stroke-linecap:round; stroke-linejoin:round;">
</g>
<g style="fill:#FFFFFF; fill-opacity:1.0; 
stroke:#FFFFFF; stroke-width:0; stroke-opacity:1; 
stroke-linecap:round; stroke-linejoin:round;">
<circle cx="4900.79" cy="6412.05" r="29.5276" /> 
</g>
<g style="fill:#FFFFFF; fill-opacity:1.0; 
stroke:#FFFFFF; stroke-width:39.3701; stroke-opacity:1; 
stroke-linecap:round; stroke-linejoin:round;">
</g>
<g style="fill:#FFFFFF; fill-opacity:1.0; 
stroke:#FFFFFF; stroke-width:0; stroke-opacity:1; 
stroke-linecap:round; stroke-linejoin:round;">
<circle cx="7110" cy="6404.57" r="29.5276" /> 
</g>
<g style="fill:#FFFFFF; fill-opacity:1.0; 
stroke:#FFFFFF; stroke-width:39.3701; stroke-opacity:1; 
stroke-linecap:round; stroke-linejoin:round;">
</g>
<g style="fill:#FFFFFF; fill-opacity:1.0; 
stroke:#FFFFFF; stroke-width:0; stroke-opacity:1; 
stroke-linecap:round; stroke-linejoin:round;">
<circle cx="7708.19" cy="5543.15" r="29.5276" /> 
</g>
<g style="fill:#FFFFFF; fill-opacity:1.0; 
stroke:#FFFFFF; stroke-width:39.3701; stroke-opacity:1; 
stroke-linecap:round; stroke-linejoin:round;">
</g>
<g style="fill:#FFFFFF; fill-opacity:1.0; 
stroke:#FFFFFF; stroke-width:0; stroke-opacity:1; 
stroke-linecap:round; stroke-linejoin:round;">
<circle cx="6125.75" cy="5223.46" r="29.5276" /> 
</g>
<g style="fill:#FFFFFF; fill-opacity:1.0; 
stroke:#FFFFFF; stroke-width:39.3701; stroke-opacity:1; 
stroke-linecap:round; stroke-linejoin:round;">
</g>
<g style="fill:#FFFFFF; fill-opacity:1.0; 
stroke:#FFFFFF; stroke-width:0; stroke-opacity:1; 
stroke-linecap:round; stroke-linejoin:round;">
<circle cx="5928.9" cy="5223.46" r="29.5276" /> 
</g>
<g style="fill:#FFFFFF; fill-opacity:1.0; 
stroke:#FFFFFF; stroke-width:39.3701; stroke-opacity:1; 
stroke-linecap:round; stroke-linejoin:round;">
</g>
<g style="fill:#FFFFFF; fill-opacity:1.0; 
stroke:#FFFFFF; stroke-width:0; stroke-opacity:1; 
stroke-linecap:round; stroke-linejoin:round;">
<circle cx="7770.79" cy="6558.9" r="29.5276" /> 
</g>
<g style="fill:#FFFFFF; fill-opacity:1.0; 
stroke:#FFFFFF; stroke-width:39.3701; stroke-opacity:1; 
stroke-linecap:round; stroke-linejoin:round;">
</g>
<g style="fill:#FFFFFF; fill-opacity:1.0; 
stroke:#FFFFFF; stroke-width:0; stroke-opacity:1; 
stroke-linecap:round; stroke-linejoin:round;">
<circle cx="5928.9" cy="6010.87" r="29.5276" /> 
</g>
<g style="fill:#FFFFFF; fill-opacity:1.0; 
stroke:#FFFFFF; stroke-width:39.3701; stroke-opacity:1; 
stroke-linecap:round; stroke-linejoin:round;">
</g>
<g style="fill:#FFFFFF; fill-opacity:1.0; 
stroke:#FFFFFF; stroke-width:0; stroke-opacity:1; 
stroke-linecap:round; stroke-linejoin:round;">
<circle cx="5732.05" cy="6010.87" r="29.5276" /> 
</g>
<g style="fill:#FFFFFF; fill-opacity:1.0; 
stroke:#FFFFFF; stroke-width:39.3701; stroke-opacity:1; 
stroke-linecap:round; stroke-linejoin:round;">
</g>
<g style="fill:#FFFFFF; fill-opacity:1.0; 
stroke:#FFFFFF; stroke-width:0; stroke-opacity:1; 
stroke-linecap:round; stroke-linejoin:round;">
<circle cx="5110.79" cy="5798.9" r="29.5276" /> 
</g>
<g style="fill:#FFFFFF; fill-opacity:1.0; 
stroke:#FFFFFF; stroke-width:39.3701; stroke-opacity:1; 
stroke-linecap:round; stroke-linejoin:round;">
</g>
<g style="fill:#FFFFFF; fill-opacity:1.0; 
stroke:#FFFFFF; stroke-width:0; stroke-opacity:1; 
stroke-linecap:round; stroke-linejoin:round;">
<circle cx="7700.79" cy="6918.9" r="29.5276" /> 
</g>
<g style="fill:#FFFFFF; fill-opacity:1.0; 
stroke:#FFFFFF; stroke-width:39.3701; stroke-opacity:1; 
stroke-linecap:round; stroke-linejoin:round;">
</g>
<g style="fill:#FFFFFF; fill-opacity:1.0; 
stroke:#FFFFFF; stroke-width:0; stroke-opacity:1; 
stroke-linecap:round; stroke-linejoin:round;">
<circle cx="5732.05" cy="5223.46" r="29.5276" /> 
</g>
<g style="fill:#FFFFFF; fill-opacity:1.0; 
stroke:#FFFFFF; stroke-width:39.3701; stroke-opacity:1; 
stroke-linecap:round; stroke-linejoin:round;">
</g>
<g style="fill:#FFFFFF; fill-opacity:1.0; 
stroke:#FFFFFF; stroke-width:0; stroke-opacity:1; 
stroke-linecap:round; stroke-linejoin:round;">
<circle cx="5733.39" cy="4390.95" r="29.5276" /> 
</g>
<g style="fill:#FFFFFF; fill-opacity:1.0; 
stroke:#FFFFFF; stroke-width:39.3701; stroke-opacity:1; 
stroke-linecap:round; stroke-linejoin:round;">
</g>
<g style="fill:#FFFFFF; fill-opacity:1.0; 
stroke:#FFFFFF; stroke-width:0; stroke-opacity:1; 
stroke-linecap:round; stroke-linejoin:round;">
<circle cx="4740.79" cy="5248.9" r="29.5276" /> 
</g>
<g style="fill:#FFFFFF; fill-opacity:1.0; 
stroke:#FFFFFF; stroke-width:39.3701; stroke-opacity:1; 
stroke-linecap:round; stroke-linejoin:round;">
</g>
<g style="fill:#FFFFFF; fill-opacity:1.0; 
stroke:#FFFFFF; stroke-width:0; stroke-opacity:1; 
stroke-linecap:round; stroke-linejoin:round;">
<circle cx="7110" cy="5026.61" r="29.5276" /> 
</g>
<g style="fill:#FFFFFF; fill-opacity:1.0; 
stroke:#FFFFFF; stroke-width:39.3701; stroke-opacity:1; 
stroke-linecap:round; stroke-linejoin:round;">
</g>
<g style="fill:#FFFFFF; fill-opacity:1.0; 
stroke:#FFFFFF; stroke-width:0; stroke-opacity:1; 
stroke-linecap:round; stroke-linejoin:round;">
<circle cx="5338.35" cy="6207.72" r="29.5276" /> 
</g>
<g style="fill:#FFFFFF; fill-opacity:1.0; 
stroke:#FFFFFF; stroke-width:39.3701; stroke-opacity:1; 
stroke-linecap:round; stroke-linejoin:round;">
</g>
<g style="fill:#FFFFFF; fill-opacity:1.0; 
stroke:#FFFFFF; stroke-width:0; stroke-opacity:1; 
stroke-linecap:round; stroke-linejoin:round;">
<circle cx="7306.85" cy="5420.32" r="29.5276" /> 
</g>
<g style="fill:#FFFFFF; fill-opacity:1.0; 
stroke:#FFFFFF; stroke-width:39.3701; stroke-opacity:1; 
stroke-linecap:round; stroke-linejoin:round;">
</g>
<g style="fill:#FFFFFF; fill-opacity:1.0; 
stroke:#FFFFFF; stroke-width:0; stroke-opacity:1; 
stroke-linecap:round; stroke-linejoin:round;">
<circle cx="7760.79" cy="4408.9" r="29.5276" /> 
</g>
<g style="fill:#FFFFFF; fill-opacity:1.0; 
stroke:#FFFFFF; stroke-width:39.3701; stroke-opacity:1; 
stroke-linecap:round; stroke-linejoin:round;">
</g>
<g style="fill:#FFFFFF; fill-opacity:1.0; 
stroke:#FFFFFF; stroke-width:0; stroke-opacity:1; 
stroke-linecap:round; stroke-linejoin:round;">
<circle cx="4773.39" cy="4743.15" r="29.5276" /> 
</g>
<g style="fill:#FFFFFF; fill-opacity:1.0; 
stroke:#FFFFFF; stroke-width:39.3701; stroke-opacity:1; 
stroke-linecap:round; stroke-linejoin:round;">
</g>
<g style="fill:#FFFFFF; fill-opacity:1.0; 
stroke:#FFFFFF; stroke-width:0; stroke-opacity:1; 
stroke-linecap:round; stroke-linejoin:round;">
<circle cx="4530.79" cy="7018.9" r="29.5276" /> 
</g>
<g style="fill:#FFFFFF; fill-opacity:1.0; 
stroke:#FFFFFF; stroke-width:39.3701; stroke-opacity:1; 
stroke-linecap:round; stroke-linejoin:round;">
</g>
<g style="fill:#FFFFFF; fill-opacity:1.0; 
stroke:#FFFFFF; stroke-width:0; stroke-opacity:1; 
stroke-linecap:round; stroke-linejoin:round;">
<circle cx="5315.12" cy="6623.15" r="29.5276" /> 
</g>
<g style="fill:#FFFFFF; fill-opacity:1.0; 
stroke:#FFFFFF; stroke-width:39.3701; stroke-opacity:1; 
stroke-linecap:round; stroke-linejoin:round;">
</g>
<g style="fill:#FFFFFF; fill-opacity:1.0; 
stroke:#FFFFFF; stroke-width:0; stroke-opacity:1; 
stroke-linecap:round; stroke-linejoin:round;">
<circle cx="7110" cy="6207.72" r="29.5276" /> 
</g>
<g style="fill:#FFFFFF; fill-opacity:1.0; 
stroke:#FFFFFF; stroke-width:39.3701; stroke-opacity:1; 
stroke-linecap:round; stroke-linejoin:round;">
</g>
<g style="fill:#FFFFFF; fill-opacity:1.0; 
stroke:#FFFFFF; stroke-width:0; stroke-opacity:1; 
stroke-linecap:round; stroke-linejoin:round;">
<circle cx="6322.6" cy="6207.72" r="29.5276" /> 
</g>
<g style="fill:#FFFFFF; fill-opacity:1.0; 
stroke:#FFFFFF; stroke-width:39.3701; stroke-opacity:1; 
stroke-linecap:round; stroke-linejoin:round;">
</g>
<g style="fill:#FFFFFF; fill-opacity:1.0; 
stroke:#FFFFFF; stroke-width:0; stroke-opacity:1; 
stroke-linecap:round; stroke-linejoin:round;">
<circle cx="6322.6" cy="5026.61" r="29.5276" /> 
</g>
<g style="fill:#FFFFFF; fill-opacity:1.0; 
stroke:#FFFFFF; stroke-width:39.3701; stroke-opacity:1; 
stroke-linecap:round; stroke-linejoin:round;">
</g>
<g style="fill:#FFFFFF; fill-opacity:1.0; 
stroke:#FFFFFF; stroke-width:0; stroke-opacity:1; 
stroke-linecap:round; stroke-linejoin:round;">
<circle cx="5870.79" cy="6902.05" r="29.5276" /> 
</g>
<g style="fill:#FFFFFF; fill-opacity:1.0; 
stroke:#FFFFFF; stroke-width:39.3701; stroke-opacity:1; 
stroke-linecap:round; stroke-linejoin:round;">
</g>
<g style="fill:#FFFFFF; fill-opacity:1.0; 
stroke:#FFFFFF; stroke-width:0; stroke-opacity:1; 
stroke-linecap:round; stroke-linejoin:round;">
<circle cx="6125.75" cy="6207.72" r="29.5276" /> 
</g>
<g style="fill:#FFFFFF; fill-opacity:1.0; 
stroke:#FFFFFF; stroke-width:39.3701; stroke-opacity:1; 
stroke-linecap:round; stroke-linejoin:round;">
</g>
<g style="fill:#FFFFFF; fill-opacity:1.0; 
stroke:#FFFFFF; stroke-width:0; stroke-opacity:1; 
stroke-linecap:round; stroke-linejoin:round;">
<circle cx="6090.79" cy="6658.9" r="29.5276" /> 
</g>
<g style="fill:#FFFFFF; fill-opacity:1.0; 
stroke:#FFFFFF; stroke-width:39.3701; stroke-opacity:1; 
stroke-linecap:round; stroke-linejoin:round;">
</g>
<g style="fill:#FFFFFF; fill-opacity:1.0; 
stroke:#FFFFFF; stroke-width:0; stroke-opacity:1; 
stroke-linecap:round; stroke-linejoin:round;">
<circle cx="4580.79" cy="4228.9" r="29.5276" /> 
</g>
<g style="fill:#FFFFFF; fill-opacity:1.0; 
stroke:#FFFFFF; stroke-width:39.3701; stroke-opacity:1; 
stroke-linecap:round; stroke-linejoin:round;">
</g>
<g style="fill:#FFFFFF; fill-opacity:1.0; 
stroke:#FFFFFF; stroke-width:0; stroke-opacity:1; 
stroke-linecap:round; stroke-linejoin:round;">
<circle cx="6140.79" cy="4568.9" r="29.5276" /> 
</g>
<g style="fill:#FFFFFF; fill-opacity:1.0; 
stroke:#FFFFFF; stroke-width:39.3701; stroke-opacity:1; 
stroke-linecap:round; stroke-linejoin:round;">
</g>
<g style="fill:#FFFFFF; fill-opacity:1.0; 
stroke:#FFFFFF; stroke-width:0; stroke-opacity:1; 
stroke-linecap:round; stroke-linejoin:round;">
<circle cx="5338.35" cy="5617.17" r="29.5276" /> 
</g>
<g style="fill:#FFFFFF; fill-opacity:1.0; 
stroke:#FFFFFF; stroke-width:39.3701; stroke-opacity:1; 
stroke-linecap:round; stroke-linejoin:round;">
</g>
<g style="fill:#FFFFFF; fill-opacity:1.0; 
stroke:#FFFFFF; stroke-width:0; stroke-opacity:1; 
stroke-linecap:round; stroke-linejoin:round;">
<circle cx="6913.15" cy="5223.46" r="29.5276" /> 
</g>
<g style="fill:#FFFFFF; fill-opacity:1.0; 
stroke:#FFFFFF; stroke-width:39.3701; stroke-opacity:1; 
stroke-linecap:round; stroke-linejoin:round;">
</g>
<g style="fill:#FFFFFF; fill-opacity:1.0; 
stroke:#FFFFFF; stroke-width:0; stroke-opacity:1; 
stroke-linecap:round; stroke-linejoin:round;">
<circle cx="5928.9" cy="6207.72" r="29.5276" /> 
</g>
<g style="fill:#FFFFFF; fill-opacity:1.0; 
stroke:#FFFFFF; stroke-width:39.3701; stroke-opacity:1; 
stroke-linecap:round; stroke-linejoin:round;">
</g>
<g style="fill:#FFFFFF; fill-opacity:1.0; 
stroke:#FFFFFF; stroke-width:0; stroke-opacity:1; 
stroke-linecap:round; stroke-linejoin:round;">
<circle cx="6125.75" cy="6010.87" r="29.5276" /> 
</g>
<g style="fill:#FFFFFF; fill-opacity:1.0; 
stroke:#FFFFFF; stroke-width:39.3701; stroke-opacity:1; 
stroke-linecap:round; stroke-linejoin:round;">
</g>
<g style="fill:#FFFFFF; fill-opacity:1.0; 
stroke:#FFFFFF; stroke-width:0; stroke-opacity:1; 
stroke-linecap:round; stroke-linejoin:round;">
<circle cx="6322.6" cy="6010.87" r="29.5276" /> 
</g>
<g style="fill:#FFFFFF; fill-opacity:1.0; 
stroke:#FFFFFF; stroke-width:39.3701; stroke-opacity:1; 
stroke-linecap:round; stroke-linejoin:round;">
</g>
<g style="fill:#FFFFFF; fill-opacity:1.0; 
stroke:#FFFFFF; stroke-width:0; stroke-opacity:1; 
stroke-linecap:round; stroke-linejoin:round;">
<circle cx="4870.79" cy="6708.9" r="29.5276" /> 
</g>
<g style="fill:#FFFFFF; fill-opacity:1.0; 
stroke:#FFFFFF; stroke-width:39.3701; stroke-opacity:1; 
stroke-linecap:round; stroke-linejoin:round;">
</g>
<g style="fill:#FFFFFF; fill-opacity:1.0; 
stroke:#FFFFFF; stroke-width:0; stroke-opacity:1; 
stroke-linecap:round; stroke-linejoin:round;">
<circle cx="6519.45" cy="6207.72" r="29.5276" /> 
</g>
<g style="fill:#FFFFFF; fill-opacity:1.0; 
stroke:#FFFFFF; stroke-width:39.3701; stroke-opacity:1; 
stroke-linecap:round; stroke-linejoin:round;">
</g>
<g style="fill:#FFFFFF; fill-opacity:1.0; 
stroke:#FFFFFF; stroke-width:0; stroke-opacity:1; 
stroke-linecap:round; stroke-linejoin:round;">
<circle cx="6530.78" cy="6582.05" r="29.5276" /> 
</g>
<g style="fill:#FFFFFF; fill-opacity:1.0; 
stroke:#FFFFFF; stroke-width:39.3701; stroke-opacity:1; 
stroke-linecap:round; stroke-linejoin:round;">
</g>
<g style="fill:#FFFFFF; fill-opacity:1.0; 
stroke:#FFFFFF; stroke-width:0; stroke-opacity:1; 
stroke-linecap:round; stroke-linejoin:round;">
<circle cx="7500.79" cy="6848.9" r="29.5276" /> 
</g>
<g style="fill:#FFFFFF; fill-opacity:1.0; 
stroke:#FFFFFF; stroke-width:39.3701; stroke-opacity:1; 
stroke-linecap:round; stroke-linejoin:round;">
</g>
<g style="fill:#FFFFFF; fill-opacity:1.0; 
stroke:#FFFFFF; stroke-width:0; stroke-opacity:1; 
stroke-linecap:round; stroke-linejoin:round;">
<circle cx="6519.45" cy="6010.87" r="29.5276" /> 
</g>
<g style="fill:#FFFFFF; fill-opacity:1.0; 
stroke:#FFFFFF; stroke-width:39.3701; stroke-opacity:1; 
stroke-linecap:round; stroke-linejoin:round;">
</g>
<g style="fill:#FFFFFF; fill-opacity:1.0; 
stroke:#FFFFFF; stroke-width:0; stroke-opacity:1; 
stroke-linecap:round; stroke-linejoin:round;">
<circle cx="6716.3" cy="6207.72" r="29.5276" /> 
</g>
<g style="fill:#FFFFFF; fill-opacity:1.0; 
stroke:#FFFFFF; stroke-width:39.3701; stroke-opacity:1; 
stroke-linecap:round; stroke-linejoin:round;">
</g>
<g style="fill:#FFFFFF; fill-opacity:1.0; 
stroke:#FFFFFF; stroke-width:0; stroke-opacity:1; 
stroke-linecap:round; stroke-linejoin:round;">
<circle cx="6310.79" cy="6802.05" r="29.5276" /> 
</g>
<g style="fill:#FFFFFF; fill-opacity:1.0; 
stroke:#FFFFFF; stroke-width:39.3701; stroke-opacity:1; 
stroke-linecap:round; stroke-linejoin:round;">
</g>
<g style="fill:#FFFFFF; fill-opacity:1.0; 
stroke:#FFFFFF; stroke-width:0; stroke-opacity:1; 
stroke-linecap:round; stroke-linejoin:round;">
<circle cx="6716.3" cy="6010.87" r="29.5276" /> 
</g>
<g style="fill:#FFFFFF; fill-opacity:1.0; 
stroke:#FFFFFF; stroke-width:39.3701; stroke-opacity:1; 
stroke-linecap:round; stroke-linejoin:round;">
</g>
<g style="fill:#FFFFFF; fill-opacity:1.0; 
stroke:#FFFFFF; stroke-width:0; stroke-opacity:1; 
stroke-linecap:round; stroke-linejoin:round;">
<circle cx="6913.15" cy="6017.8" r="29.5276" /> 
</g>
<g style="fill:#FFFFFF; fill-opacity:1.0; 
stroke:#FFFFFF; stroke-width:39.3701; stroke-opacity:1; 
stroke-linecap:round; stroke-linejoin:round;">
</g>
<g style="fill:#FFFFFF; fill-opacity:1.0; 
stroke:#FFFFFF; stroke-width:0; stroke-opacity:1; 
stroke-linecap:round; stroke-linejoin:round;">
<circle cx="6477.26" cy="6870.95" r="29.5276" /> 
</g>
<g style="fill:#FFFFFF; fill-opacity:1.0; 
stroke:#FFFFFF; stroke-width:39.3701; stroke-opacity:1; 
stroke-linecap:round; stroke-linejoin:round;">
</g>
<g style="fill:#FFFFFF; fill-opacity:1.0; 
stroke:#FFFFFF; stroke-width:0; stroke-opacity:1; 
stroke-linecap:round; stroke-linejoin:round;">
<circle cx="6913.15" cy="6207.72" r="29.5276" /> 
</g>
<g style="fill:#FFFFFF; fill-opacity:1.0; 
stroke:#FFFFFF; stroke-width:39.3701; stroke-opacity:1; 
stroke-linecap:round; stroke-linejoin:round;">
</g>
<g style="fill:#000000; fill-opacity:1.0; 
stroke:#000000; stroke-width:39.3701; stroke-opacity:1; 
stroke-linecap:round; stroke-linejoin:round;">
</g>
<g style="fill:#C2C200; fill-opacity:1.0; 
stroke:#C2C200; stroke-width:39.3701; stroke-opacity:1; 
stroke-linecap:round; stroke-linejoin:round;">
</g>
<g style="fill:#C2C200; fill-opacity:1.0; 
stroke:#C2C200; stroke-width:19.685; stroke-opacity:1; 
stroke-linecap:round; stroke-linejoin:round;">
</g>
<g style="fill:#C2C200; fill-opacity:0.0; 
stroke:#C2C200; stroke-width:19.685; stroke-opacity:1; 
stroke-linecap:round; stroke-linejoin:round;">
<path d="M7509 3774
L5147 3774
" />
<path d="M8297 7317
L8297 4168
" />
<path d="M8297 7514
L4360 7514
" />
<path d="M8297 3774
L7509 3774
" />
<path d="M8297 3774
L8297 4168
" />
<path d="M8297 7317
L8297 7514
" />
<path d="M5147 3774
L4360 3774
" />
<path d="M4360 7514
L4360 3774
" />
<g >
</g>
<g >
</g>
<g >
</g>
<g >
</g>
<g >
</g>
<g >
</g>
<g >
</g>
<g >
</g>
<g >
</g>
<g >
</g>
<g >
</g>
<g >
</g>
<g >
</g>
<g >
</g>
<g >
</g>
<g >
</g>
<g >
</g>
<g >
</g>
<g >
</g>
<g >
</g>
<g >
</g>
<g >
</g>
<g >
</g>
<g >
</g>
<g >
</g>
<g >
</g>
<g >
</g>
<g >
</g>
<g >
</g>
<g >
</g>
<g >
</g>
</g> 
</svg>
