G04 #@! TF.GenerationSoftware,KiCad,Pcbnew,(5.1.0)-1*
G04 #@! TF.CreationDate,2019-06-16T22:48:04-07:00*
G04 #@! TF.ProjectId,MS_v4_ETL_LED_Driver,4d535f76-345f-4455-944c-5f4c45445f44,rev?*
G04 #@! TF.SameCoordinates,Original*
G04 #@! TF.FileFunction,Copper,L4,Inr*
G04 #@! TF.FilePolarity,Positive*
%FSLAX46Y46*%
G04 Gerber Fmt 4.6, Leading zero omitted, Abs format (unit mm)*
G04 Created by KiCad (PCBNEW (5.1.0)-1) date 2019-06-16 22:48:04*
%MOMM*%
%LPD*%
G04 APERTURE LIST*
%ADD10C,0.450000*%
%ADD11C,0.203200*%
%ADD12C,0.152000*%
%ADD13C,0.088900*%
G04 APERTURE END LIST*
D10*
X18230000Y-20200000D03*
X17770000Y-21520000D03*
X13840000Y-14370000D03*
X17514300Y-15310000D03*
X20114260Y-15265400D03*
X18880000Y-22690000D03*
X14298788Y-17331212D03*
X12803886Y-18495294D03*
X19310000Y-20950000D03*
X18800000Y-19200000D03*
X20300000Y-17940000D03*
X21220000Y-13700000D03*
X13770000Y-23310000D03*
X13413486Y-18977894D03*
X16590000Y-19769999D03*
X18645510Y-14400000D03*
X20770000Y-19210000D03*
X14959741Y-14421891D03*
X17774245Y-17140158D03*
X14903607Y-13682595D03*
X14553360Y-14860764D03*
X12803886Y-17530095D03*
X14460000Y-23330000D03*
X13413486Y-18012695D03*
X14040000Y-19730000D03*
X15542222Y-18217108D03*
X20241307Y-17005550D03*
X12796520Y-16537939D03*
X20800000Y-17000000D03*
X13413486Y-17047496D03*
X18400000Y-16700000D03*
X20781008Y-18342017D03*
X17280000Y-18580000D03*
X16579998Y-13720000D03*
X16910343Y-17117162D03*
D11*
X14500000Y-14807404D02*
X14553360Y-14860764D01*
X14903607Y-13682595D02*
X14500000Y-14086202D01*
X14500000Y-14086202D02*
X14500000Y-14807404D01*
D12*
X13413486Y-18012695D02*
X14040000Y-18639209D01*
X14040000Y-18639209D02*
X14040000Y-19411802D01*
X14040000Y-19411802D02*
X14040000Y-19730000D01*
X13413486Y-18012695D02*
X15337809Y-18012695D01*
X15337809Y-18012695D02*
X15542222Y-18217108D01*
D11*
X12796520Y-16537939D02*
X14448299Y-16537939D01*
X14448299Y-16537939D02*
X15470362Y-17560002D01*
D13*
X20800000Y-17220000D02*
X20800000Y-17000000D01*
D11*
X19870022Y-17560002D02*
X19950024Y-17480000D01*
X15470362Y-17560002D02*
X19870022Y-17560002D01*
X20540000Y-17480000D02*
X20800000Y-17220000D01*
X19950024Y-17480000D02*
X20540000Y-17480000D01*
D12*
X16910343Y-16798964D02*
X16910343Y-17117162D01*
X16910343Y-14050345D02*
X16910343Y-16798964D01*
X16579998Y-13720000D02*
X16910343Y-14050345D01*
M02*
