G04 #@! TF.GenerationSoftware,KiCad,Pcbnew,(5.1.0)-1*
G04 #@! TF.CreationDate,2019-06-16T22:48:04-07:00*
G04 #@! TF.ProjectId,MS_v4_ETL_LED_Driver,4d535f76-345f-4455-944c-5f4c45445f44,rev?*
G04 #@! TF.SameCoordinates,Original*
G04 #@! TF.FileFunction,Legend,Top*
G04 #@! TF.FilePolarity,Positive*
%FSLAX46Y46*%
G04 Gerber Fmt 4.6, Leading zero omitted, Abs format (unit mm)*
G04 Created by KiCad (PCBNEW (5.1.0)-1) date 2019-06-16 22:48:04*
%MOMM*%
%LPD*%
G04 APERTURE LIST*
%ADD10C,0.150000*%
%ADD11C,0.100000*%
%ADD12R,0.390800X0.360800*%
%ADD13C,0.558800*%
%ADD14C,0.400800*%
%ADD15R,2.440800X0.690800*%
%ADD16R,0.320800X0.690800*%
%ADD17R,0.270800X0.660800*%
%ADD18R,0.660800X0.270800*%
%ADD19R,0.360800X0.390800*%
%ADD20R,1.050800X1.050800*%
%ADD21R,0.680800X0.630800*%
%ADD22R,0.800800X1.320800*%
G04 APERTURE END LIST*
D10*
X18650000Y-16070000D02*
X18650000Y-16270000D01*
X18640000Y-15860000D02*
X18650000Y-16070000D01*
X18620000Y-15750000D02*
X18640000Y-15860000D01*
X18780000Y-15720000D02*
X18620000Y-15750000D01*
X18570000Y-15690000D02*
X18780000Y-15720000D01*
X15220000Y-16260000D02*
X15120000Y-15830000D01*
X15230000Y-15780000D02*
X15220000Y-16260000D01*
X15020000Y-16010000D02*
X15080000Y-16200000D01*
X14990000Y-16260000D02*
X15020000Y-16010000D01*
X15250000Y-16330000D02*
X14990000Y-16260000D01*
X15000000Y-15760000D02*
X15250000Y-16330000D01*
X15290000Y-15760000D02*
X15000000Y-15760000D01*
X17070000Y-19290000D02*
X17070000Y-18930000D01*
X17060000Y-19400000D02*
X17060000Y-19290000D01*
X16790000Y-19400000D02*
X17060000Y-19400000D01*
X18760000Y-15740000D02*
X18760000Y-16450000D01*
D11*
X17088000Y-20318200D02*
X16668000Y-20318200D01*
X17088000Y-20738200D02*
X17088000Y-20318200D01*
X17088000Y-21998200D02*
X16668000Y-21998200D01*
X17088000Y-21578200D02*
X17088000Y-21998200D01*
X14408000Y-21998200D02*
X14828000Y-21998200D01*
X14408000Y-21578200D02*
X14408000Y-21998200D01*
X14408000Y-20318200D02*
X14828000Y-20318200D01*
X14408000Y-20738200D02*
X14408000Y-20318200D01*
X18564260Y-14215400D02*
X18829260Y-14215400D01*
X18564260Y-16315400D02*
X18564260Y-14215400D01*
X18829260Y-16315400D02*
X18564260Y-16315400D01*
X21664260Y-14215400D02*
X21399260Y-14215400D01*
X21664260Y-16315400D02*
X21664260Y-14215400D01*
X21399260Y-16315400D02*
X21664260Y-16315400D01*
X14960000Y-14266200D02*
X15225000Y-14266200D01*
X14960000Y-16366200D02*
X14960000Y-14266200D01*
X15225000Y-16366200D02*
X14960000Y-16366200D01*
X18060000Y-14266200D02*
X17795000Y-14266200D01*
X18060000Y-16366200D02*
X18060000Y-14266200D01*
X17795000Y-16366200D02*
X18060000Y-16366200D01*
X14692600Y-19398800D02*
X15262600Y-19398800D01*
X14692600Y-17278800D02*
X15262600Y-17278800D01*
X16752600Y-17278800D02*
X16182600Y-17278800D01*
X16752600Y-19398800D02*
X16182600Y-19398800D01*
D10*
X10008095Y-16162380D02*
X10008095Y-15162380D01*
X10008095Y-15638571D02*
X10579523Y-15638571D01*
X10579523Y-16162380D02*
X10579523Y-15162380D01*
X11579523Y-16162380D02*
X11008095Y-16162380D01*
X11293809Y-16162380D02*
X11293809Y-15162380D01*
X11198571Y-15305238D01*
X11103333Y-15400476D01*
X11008095Y-15448095D01*
X10679180Y-19021323D02*
X11393466Y-19021323D01*
X11536323Y-19068942D01*
X11631561Y-19164180D01*
X11679180Y-19307038D01*
X11679180Y-19402276D01*
X11679180Y-18021323D02*
X11679180Y-18592752D01*
X11679180Y-18307038D02*
X10679180Y-18307038D01*
X10822038Y-18402276D01*
X10917276Y-18497514D01*
X10964895Y-18592752D01*
X10679180Y-17402276D02*
X10679180Y-17307038D01*
X10726800Y-17211800D01*
X10774419Y-17164180D01*
X10869657Y-17116561D01*
X11060133Y-17068942D01*
X11298228Y-17068942D01*
X11488704Y-17116561D01*
X11583942Y-17164180D01*
X11631561Y-17211800D01*
X11679180Y-17307038D01*
X11679180Y-17402276D01*
X11631561Y-17497514D01*
X11583942Y-17545133D01*
X11488704Y-17592752D01*
X11298228Y-17640371D01*
X11060133Y-17640371D01*
X10869657Y-17592752D01*
X10774419Y-17545133D01*
X10726800Y-17497514D01*
X10679180Y-17402276D01*
X20616666Y-24822380D02*
X20616666Y-25536666D01*
X20569047Y-25679523D01*
X20473809Y-25774761D01*
X20330952Y-25822380D01*
X20235714Y-25822380D01*
X20997619Y-24822380D02*
X21664285Y-24822380D01*
X21235714Y-25822380D01*
X16250866Y-24337780D02*
X16250866Y-25052066D01*
X16203247Y-25194923D01*
X16108009Y-25290161D01*
X15965152Y-25337780D01*
X15869914Y-25337780D01*
X17155628Y-24337780D02*
X16965152Y-24337780D01*
X16869914Y-24385400D01*
X16822295Y-24433019D01*
X16727057Y-24575876D01*
X16679438Y-24766352D01*
X16679438Y-25147304D01*
X16727057Y-25242542D01*
X16774676Y-25290161D01*
X16869914Y-25337780D01*
X17060390Y-25337780D01*
X17155628Y-25290161D01*
X17203247Y-25242542D01*
X17250866Y-25147304D01*
X17250866Y-24909209D01*
X17203247Y-24813971D01*
X17155628Y-24766352D01*
X17060390Y-24718733D01*
X16869914Y-24718733D01*
X16774676Y-24766352D01*
X16727057Y-24813971D01*
X16679438Y-24909209D01*
%LPC*%
D11*
G36*
X17080000Y-19250000D02*
G01*
X16270000Y-19250000D01*
X16270000Y-19030000D01*
X17080000Y-19030000D01*
X17080000Y-19250000D01*
G37*
X17080000Y-19250000D02*
X16270000Y-19250000D01*
X16270000Y-19030000D01*
X17080000Y-19030000D01*
X17080000Y-19250000D01*
G36*
X15640000Y-16590000D02*
G01*
X15380000Y-16590000D01*
X15380000Y-15840000D01*
X15640000Y-15840000D01*
X15640000Y-16590000D01*
G37*
X15640000Y-16590000D02*
X15380000Y-16590000D01*
X15380000Y-15840000D01*
X15640000Y-15840000D01*
X15640000Y-16590000D01*
D12*
X21424200Y-17784200D03*
X21424200Y-18334200D03*
D13*
X12796520Y-16537940D03*
D14*
X16748000Y-21658200D03*
X16248000Y-21658200D03*
X15748000Y-21658200D03*
X15248000Y-21658200D03*
X14748000Y-21658200D03*
X16748000Y-21158200D03*
X16248000Y-21158200D03*
X15748000Y-21158200D03*
X15248000Y-21158200D03*
X14748000Y-21158200D03*
X16748000Y-20658200D03*
X16248000Y-20658200D03*
X15748000Y-20658200D03*
X15248000Y-20658200D03*
X14748000Y-20658200D03*
D15*
X20114260Y-15265400D03*
D16*
X19114260Y-14425400D03*
X19614260Y-14425400D03*
X20114260Y-14425400D03*
X20614260Y-14425400D03*
X21114260Y-14425400D03*
X21114260Y-16105400D03*
X20614260Y-16105400D03*
X20114260Y-16105400D03*
X19614260Y-16105400D03*
X19114260Y-16105400D03*
D15*
X16510000Y-15316200D03*
D16*
X15510000Y-14476200D03*
X16010000Y-14476200D03*
X16510000Y-14476200D03*
X17010000Y-14476200D03*
X17510000Y-14476200D03*
X17510000Y-16156200D03*
X17010000Y-16156200D03*
X16510000Y-16156200D03*
X16010000Y-16156200D03*
X15510000Y-16156200D03*
D17*
X15922600Y-19183800D03*
X15522600Y-19183800D03*
D18*
X14877600Y-19138800D03*
X14877600Y-18738800D03*
X14877600Y-18338800D03*
X14877600Y-17938800D03*
X14877600Y-17538800D03*
D17*
X15522600Y-17493800D03*
X15922600Y-17493800D03*
D18*
X16567600Y-17538800D03*
X16567600Y-17938800D03*
X16567600Y-18338800D03*
X16567600Y-18738800D03*
X16567600Y-19138800D03*
D19*
X18655000Y-13660000D03*
X19205000Y-13660000D03*
X20110000Y-13680000D03*
X20660000Y-13680000D03*
X17670000Y-13720000D03*
X17120000Y-13720000D03*
X13715000Y-13710000D03*
X14265000Y-13710000D03*
X15445000Y-13650000D03*
X15995000Y-13650000D03*
D20*
X17653000Y-23012400D03*
D12*
X17890000Y-18555000D03*
X17890000Y-19105000D03*
X13716000Y-22093600D03*
X13716000Y-21543600D03*
D19*
X13695000Y-22707600D03*
X14245000Y-22707600D03*
D13*
X13413486Y-18977894D03*
X12803886Y-18495294D03*
X13413486Y-18012695D03*
X12803886Y-17530095D03*
X13413486Y-17047496D03*
D19*
X17825000Y-19710000D03*
X17275000Y-19710000D03*
D21*
X13919200Y-15125200D03*
X13919200Y-16015200D03*
D22*
X15284200Y-22885400D03*
X16284200Y-22885400D03*
D21*
X19480000Y-17935000D03*
X19480000Y-17045000D03*
D12*
X18400000Y-17375000D03*
X18400000Y-17925000D03*
X20020000Y-19800000D03*
X20020000Y-20350000D03*
X19330000Y-20370000D03*
X19330000Y-19820000D03*
X20000000Y-18660000D03*
X20000000Y-19210000D03*
X19340000Y-19205000D03*
X19340000Y-18655000D03*
M02*
