M48
; DRILL file {KiCad (5.1.0)-1} date 6/16/2019 10:47:51 PM
; FORMAT={-:-/ absolute / inch / decimal}
; #@! TF.CreationDate,2019-06-16T22:47:51-07:00
; #@! TF.GenerationSoftware,Kicad,Pcbnew,(5.1.0)-1
FMAT,2
INCH
T1C0.0079
%
G90
G05
T1
X0.5038Y-0.6511
X0.5041Y-0.6902
X0.5041Y-0.7282
X0.5281Y-0.6712
X0.5281Y-0.7092
X0.5281Y-0.7472
X0.5421Y-0.9177
X0.5449Y-0.5657
X0.5528Y-0.7768
X0.5629Y-0.6823
X0.5693Y-0.9185
X0.573Y-0.5851
X0.5868Y-0.5387
X0.589Y-0.5678
X0.6119Y-0.7172
X0.6528Y-0.5402
X0.6531Y-0.7783
X0.6658Y-0.6739
X0.6803Y-0.7315
X0.6895Y-0.6028
X0.6996Y-0.8472
X0.6998Y-0.6748
X0.7177Y-0.7953
X0.7244Y-0.6575
X0.7341Y-0.5669
X0.7402Y-0.7559
X0.7433Y-0.8933
X0.7602Y-0.8248
X0.7919Y-0.601
X0.7969Y-0.6695
X0.7992Y-0.7063
X0.8177Y-0.7563
X0.8181Y-0.7221
X0.8189Y-0.6693
X0.8354Y-0.5394
T0
M30
