G04 #@! TF.GenerationSoftware,KiCad,Pcbnew,(5.1.0)-1*
G04 #@! TF.CreationDate,2019-06-16T22:48:04-07:00*
G04 #@! TF.ProjectId,MS_v4_ETL_LED_Driver,4d535f76-345f-4455-944c-5f4c45445f44,rev?*
G04 #@! TF.SameCoordinates,Original*
G04 #@! TF.FileFunction,Soldermask,Top*
G04 #@! TF.FilePolarity,Negative*
%FSLAX46Y46*%
G04 Gerber Fmt 4.6, Leading zero omitted, Abs format (unit mm)*
G04 Created by KiCad (PCBNEW (5.1.0)-1) date 2019-06-16 22:48:04*
%MOMM*%
%LPD*%
G04 APERTURE LIST*
%ADD10C,0.100000*%
G04 APERTURE END LIST*
D10*
G36*
X17080000Y-19250000D02*
G01*
X16270000Y-19250000D01*
X16270000Y-19030000D01*
X17080000Y-19030000D01*
X17080000Y-19250000D01*
G37*
X17080000Y-19250000D02*
X16270000Y-19250000D01*
X16270000Y-19030000D01*
X17080000Y-19030000D01*
X17080000Y-19250000D01*
G36*
X15640000Y-16590000D02*
G01*
X15380000Y-16590000D01*
X15380000Y-15840000D01*
X15640000Y-15840000D01*
X15640000Y-16590000D01*
G37*
X15640000Y-16590000D02*
X15380000Y-16590000D01*
X15380000Y-15840000D01*
X15640000Y-15840000D01*
X15640000Y-16590000D01*
G36*
X16684600Y-23545800D02*
G01*
X15883800Y-23545800D01*
X15883800Y-22225000D01*
X16684600Y-22225000D01*
X16684600Y-23545800D01*
X16684600Y-23545800D01*
G37*
G36*
X15684600Y-23545800D02*
G01*
X14883800Y-23545800D01*
X14883800Y-22225000D01*
X15684600Y-22225000D01*
X15684600Y-23545800D01*
X15684600Y-23545800D01*
G37*
G36*
X18178400Y-23537800D02*
G01*
X17127600Y-23537800D01*
X17127600Y-22487000D01*
X18178400Y-22487000D01*
X18178400Y-23537800D01*
X18178400Y-23537800D01*
G37*
G36*
X13875400Y-22903000D02*
G01*
X13514600Y-22903000D01*
X13514600Y-22512200D01*
X13875400Y-22512200D01*
X13875400Y-22903000D01*
X13875400Y-22903000D01*
G37*
G36*
X14425400Y-22903000D02*
G01*
X14064600Y-22903000D01*
X14064600Y-22512200D01*
X14425400Y-22512200D01*
X14425400Y-22903000D01*
X14425400Y-22903000D01*
G37*
G36*
X13911400Y-22274000D02*
G01*
X13520600Y-22274000D01*
X13520600Y-21913200D01*
X13911400Y-21913200D01*
X13911400Y-22274000D01*
X13911400Y-22274000D01*
G37*
G36*
X16806455Y-21465501D02*
G01*
X16842925Y-21480608D01*
X16875748Y-21502539D01*
X16903661Y-21530452D01*
X16925592Y-21563275D01*
X16940699Y-21599745D01*
X16948400Y-21638462D01*
X16948400Y-21677938D01*
X16940699Y-21716655D01*
X16925592Y-21753125D01*
X16903661Y-21785948D01*
X16875748Y-21813861D01*
X16842925Y-21835792D01*
X16806455Y-21850899D01*
X16767738Y-21858600D01*
X16728262Y-21858600D01*
X16689545Y-21850899D01*
X16653075Y-21835792D01*
X16620252Y-21813861D01*
X16592339Y-21785948D01*
X16570408Y-21753125D01*
X16555301Y-21716655D01*
X16547600Y-21677938D01*
X16547600Y-21638462D01*
X16555301Y-21599745D01*
X16570408Y-21563275D01*
X16592339Y-21530452D01*
X16620252Y-21502539D01*
X16653075Y-21480608D01*
X16689545Y-21465501D01*
X16728262Y-21457800D01*
X16767738Y-21457800D01*
X16806455Y-21465501D01*
X16806455Y-21465501D01*
G37*
G36*
X16306455Y-21465501D02*
G01*
X16342925Y-21480608D01*
X16375748Y-21502539D01*
X16403661Y-21530452D01*
X16425592Y-21563275D01*
X16440699Y-21599745D01*
X16448400Y-21638462D01*
X16448400Y-21677938D01*
X16440699Y-21716655D01*
X16425592Y-21753125D01*
X16403661Y-21785948D01*
X16375748Y-21813861D01*
X16342925Y-21835792D01*
X16306455Y-21850899D01*
X16267738Y-21858600D01*
X16228262Y-21858600D01*
X16189545Y-21850899D01*
X16153075Y-21835792D01*
X16120252Y-21813861D01*
X16092339Y-21785948D01*
X16070408Y-21753125D01*
X16055301Y-21716655D01*
X16047600Y-21677938D01*
X16047600Y-21638462D01*
X16055301Y-21599745D01*
X16070408Y-21563275D01*
X16092339Y-21530452D01*
X16120252Y-21502539D01*
X16153075Y-21480608D01*
X16189545Y-21465501D01*
X16228262Y-21457800D01*
X16267738Y-21457800D01*
X16306455Y-21465501D01*
X16306455Y-21465501D01*
G37*
G36*
X15806455Y-21465501D02*
G01*
X15842925Y-21480608D01*
X15875748Y-21502539D01*
X15903661Y-21530452D01*
X15925592Y-21563275D01*
X15940699Y-21599745D01*
X15948400Y-21638462D01*
X15948400Y-21677938D01*
X15940699Y-21716655D01*
X15925592Y-21753125D01*
X15903661Y-21785948D01*
X15875748Y-21813861D01*
X15842925Y-21835792D01*
X15806455Y-21850899D01*
X15767738Y-21858600D01*
X15728262Y-21858600D01*
X15689545Y-21850899D01*
X15653075Y-21835792D01*
X15620252Y-21813861D01*
X15592339Y-21785948D01*
X15570408Y-21753125D01*
X15555301Y-21716655D01*
X15547600Y-21677938D01*
X15547600Y-21638462D01*
X15555301Y-21599745D01*
X15570408Y-21563275D01*
X15592339Y-21530452D01*
X15620252Y-21502539D01*
X15653075Y-21480608D01*
X15689545Y-21465501D01*
X15728262Y-21457800D01*
X15767738Y-21457800D01*
X15806455Y-21465501D01*
X15806455Y-21465501D01*
G37*
G36*
X15306455Y-21465501D02*
G01*
X15342925Y-21480608D01*
X15375748Y-21502539D01*
X15403661Y-21530452D01*
X15425592Y-21563275D01*
X15440699Y-21599745D01*
X15448400Y-21638462D01*
X15448400Y-21677938D01*
X15440699Y-21716655D01*
X15425592Y-21753125D01*
X15403661Y-21785948D01*
X15375748Y-21813861D01*
X15342925Y-21835792D01*
X15306455Y-21850899D01*
X15267738Y-21858600D01*
X15228262Y-21858600D01*
X15189545Y-21850899D01*
X15153075Y-21835792D01*
X15120252Y-21813861D01*
X15092339Y-21785948D01*
X15070408Y-21753125D01*
X15055301Y-21716655D01*
X15047600Y-21677938D01*
X15047600Y-21638462D01*
X15055301Y-21599745D01*
X15070408Y-21563275D01*
X15092339Y-21530452D01*
X15120252Y-21502539D01*
X15153075Y-21480608D01*
X15189545Y-21465501D01*
X15228262Y-21457800D01*
X15267738Y-21457800D01*
X15306455Y-21465501D01*
X15306455Y-21465501D01*
G37*
G36*
X14806455Y-21465501D02*
G01*
X14842925Y-21480608D01*
X14875748Y-21502539D01*
X14903661Y-21530452D01*
X14925592Y-21563275D01*
X14940699Y-21599745D01*
X14948400Y-21638462D01*
X14948400Y-21677938D01*
X14940699Y-21716655D01*
X14925592Y-21753125D01*
X14903661Y-21785948D01*
X14875748Y-21813861D01*
X14842925Y-21835792D01*
X14806455Y-21850899D01*
X14767738Y-21858600D01*
X14728262Y-21858600D01*
X14689545Y-21850899D01*
X14653075Y-21835792D01*
X14620252Y-21813861D01*
X14592339Y-21785948D01*
X14570408Y-21753125D01*
X14555301Y-21716655D01*
X14547600Y-21677938D01*
X14547600Y-21638462D01*
X14555301Y-21599745D01*
X14570408Y-21563275D01*
X14592339Y-21530452D01*
X14620252Y-21502539D01*
X14653075Y-21480608D01*
X14689545Y-21465501D01*
X14728262Y-21457800D01*
X14767738Y-21457800D01*
X14806455Y-21465501D01*
X14806455Y-21465501D01*
G37*
G36*
X13911400Y-21724000D02*
G01*
X13520600Y-21724000D01*
X13520600Y-21363200D01*
X13911400Y-21363200D01*
X13911400Y-21724000D01*
X13911400Y-21724000D01*
G37*
G36*
X16306455Y-20965501D02*
G01*
X16342925Y-20980608D01*
X16375748Y-21002539D01*
X16403661Y-21030452D01*
X16425592Y-21063275D01*
X16440699Y-21099745D01*
X16448400Y-21138462D01*
X16448400Y-21177938D01*
X16440699Y-21216655D01*
X16425592Y-21253125D01*
X16403661Y-21285948D01*
X16375748Y-21313861D01*
X16342925Y-21335792D01*
X16306455Y-21350899D01*
X16267738Y-21358600D01*
X16228262Y-21358600D01*
X16189545Y-21350899D01*
X16153075Y-21335792D01*
X16120252Y-21313861D01*
X16092339Y-21285948D01*
X16070408Y-21253125D01*
X16055301Y-21216655D01*
X16047600Y-21177938D01*
X16047600Y-21138462D01*
X16055301Y-21099745D01*
X16070408Y-21063275D01*
X16092339Y-21030452D01*
X16120252Y-21002539D01*
X16153075Y-20980608D01*
X16189545Y-20965501D01*
X16228262Y-20957800D01*
X16267738Y-20957800D01*
X16306455Y-20965501D01*
X16306455Y-20965501D01*
G37*
G36*
X16806455Y-20965501D02*
G01*
X16842925Y-20980608D01*
X16875748Y-21002539D01*
X16903661Y-21030452D01*
X16925592Y-21063275D01*
X16940699Y-21099745D01*
X16948400Y-21138462D01*
X16948400Y-21177938D01*
X16940699Y-21216655D01*
X16925592Y-21253125D01*
X16903661Y-21285948D01*
X16875748Y-21313861D01*
X16842925Y-21335792D01*
X16806455Y-21350899D01*
X16767738Y-21358600D01*
X16728262Y-21358600D01*
X16689545Y-21350899D01*
X16653075Y-21335792D01*
X16620252Y-21313861D01*
X16592339Y-21285948D01*
X16570408Y-21253125D01*
X16555301Y-21216655D01*
X16547600Y-21177938D01*
X16547600Y-21138462D01*
X16555301Y-21099745D01*
X16570408Y-21063275D01*
X16592339Y-21030452D01*
X16620252Y-21002539D01*
X16653075Y-20980608D01*
X16689545Y-20965501D01*
X16728262Y-20957800D01*
X16767738Y-20957800D01*
X16806455Y-20965501D01*
X16806455Y-20965501D01*
G37*
G36*
X15806455Y-20965501D02*
G01*
X15842925Y-20980608D01*
X15875748Y-21002539D01*
X15903661Y-21030452D01*
X15925592Y-21063275D01*
X15940699Y-21099745D01*
X15948400Y-21138462D01*
X15948400Y-21177938D01*
X15940699Y-21216655D01*
X15925592Y-21253125D01*
X15903661Y-21285948D01*
X15875748Y-21313861D01*
X15842925Y-21335792D01*
X15806455Y-21350899D01*
X15767738Y-21358600D01*
X15728262Y-21358600D01*
X15689545Y-21350899D01*
X15653075Y-21335792D01*
X15620252Y-21313861D01*
X15592339Y-21285948D01*
X15570408Y-21253125D01*
X15555301Y-21216655D01*
X15547600Y-21177938D01*
X15547600Y-21138462D01*
X15555301Y-21099745D01*
X15570408Y-21063275D01*
X15592339Y-21030452D01*
X15620252Y-21002539D01*
X15653075Y-20980608D01*
X15689545Y-20965501D01*
X15728262Y-20957800D01*
X15767738Y-20957800D01*
X15806455Y-20965501D01*
X15806455Y-20965501D01*
G37*
G36*
X15306455Y-20965501D02*
G01*
X15342925Y-20980608D01*
X15375748Y-21002539D01*
X15403661Y-21030452D01*
X15425592Y-21063275D01*
X15440699Y-21099745D01*
X15448400Y-21138462D01*
X15448400Y-21177938D01*
X15440699Y-21216655D01*
X15425592Y-21253125D01*
X15403661Y-21285948D01*
X15375748Y-21313861D01*
X15342925Y-21335792D01*
X15306455Y-21350899D01*
X15267738Y-21358600D01*
X15228262Y-21358600D01*
X15189545Y-21350899D01*
X15153075Y-21335792D01*
X15120252Y-21313861D01*
X15092339Y-21285948D01*
X15070408Y-21253125D01*
X15055301Y-21216655D01*
X15047600Y-21177938D01*
X15047600Y-21138462D01*
X15055301Y-21099745D01*
X15070408Y-21063275D01*
X15092339Y-21030452D01*
X15120252Y-21002539D01*
X15153075Y-20980608D01*
X15189545Y-20965501D01*
X15228262Y-20957800D01*
X15267738Y-20957800D01*
X15306455Y-20965501D01*
X15306455Y-20965501D01*
G37*
G36*
X14806455Y-20965501D02*
G01*
X14842925Y-20980608D01*
X14875748Y-21002539D01*
X14903661Y-21030452D01*
X14925592Y-21063275D01*
X14940699Y-21099745D01*
X14948400Y-21138462D01*
X14948400Y-21177938D01*
X14940699Y-21216655D01*
X14925592Y-21253125D01*
X14903661Y-21285948D01*
X14875748Y-21313861D01*
X14842925Y-21335792D01*
X14806455Y-21350899D01*
X14767738Y-21358600D01*
X14728262Y-21358600D01*
X14689545Y-21350899D01*
X14653075Y-21335792D01*
X14620252Y-21313861D01*
X14592339Y-21285948D01*
X14570408Y-21253125D01*
X14555301Y-21216655D01*
X14547600Y-21177938D01*
X14547600Y-21138462D01*
X14555301Y-21099745D01*
X14570408Y-21063275D01*
X14592339Y-21030452D01*
X14620252Y-21002539D01*
X14653075Y-20980608D01*
X14689545Y-20965501D01*
X14728262Y-20957800D01*
X14767738Y-20957800D01*
X14806455Y-20965501D01*
X14806455Y-20965501D01*
G37*
G36*
X16306455Y-20465501D02*
G01*
X16342925Y-20480608D01*
X16375748Y-20502539D01*
X16403661Y-20530452D01*
X16425592Y-20563275D01*
X16440699Y-20599745D01*
X16448400Y-20638462D01*
X16448400Y-20677938D01*
X16440699Y-20716655D01*
X16425592Y-20753125D01*
X16403661Y-20785948D01*
X16375748Y-20813861D01*
X16342925Y-20835792D01*
X16306455Y-20850899D01*
X16267738Y-20858600D01*
X16228262Y-20858600D01*
X16189545Y-20850899D01*
X16153075Y-20835792D01*
X16120252Y-20813861D01*
X16092339Y-20785948D01*
X16070408Y-20753125D01*
X16055301Y-20716655D01*
X16047600Y-20677938D01*
X16047600Y-20638462D01*
X16055301Y-20599745D01*
X16070408Y-20563275D01*
X16092339Y-20530452D01*
X16120252Y-20502539D01*
X16153075Y-20480608D01*
X16189545Y-20465501D01*
X16228262Y-20457800D01*
X16267738Y-20457800D01*
X16306455Y-20465501D01*
X16306455Y-20465501D01*
G37*
G36*
X15806455Y-20465501D02*
G01*
X15842925Y-20480608D01*
X15875748Y-20502539D01*
X15903661Y-20530452D01*
X15925592Y-20563275D01*
X15940699Y-20599745D01*
X15948400Y-20638462D01*
X15948400Y-20677938D01*
X15940699Y-20716655D01*
X15925592Y-20753125D01*
X15903661Y-20785948D01*
X15875748Y-20813861D01*
X15842925Y-20835792D01*
X15806455Y-20850899D01*
X15767738Y-20858600D01*
X15728262Y-20858600D01*
X15689545Y-20850899D01*
X15653075Y-20835792D01*
X15620252Y-20813861D01*
X15592339Y-20785948D01*
X15570408Y-20753125D01*
X15555301Y-20716655D01*
X15547600Y-20677938D01*
X15547600Y-20638462D01*
X15555301Y-20599745D01*
X15570408Y-20563275D01*
X15592339Y-20530452D01*
X15620252Y-20502539D01*
X15653075Y-20480608D01*
X15689545Y-20465501D01*
X15728262Y-20457800D01*
X15767738Y-20457800D01*
X15806455Y-20465501D01*
X15806455Y-20465501D01*
G37*
G36*
X15306455Y-20465501D02*
G01*
X15342925Y-20480608D01*
X15375748Y-20502539D01*
X15403661Y-20530452D01*
X15425592Y-20563275D01*
X15440699Y-20599745D01*
X15448400Y-20638462D01*
X15448400Y-20677938D01*
X15440699Y-20716655D01*
X15425592Y-20753125D01*
X15403661Y-20785948D01*
X15375748Y-20813861D01*
X15342925Y-20835792D01*
X15306455Y-20850899D01*
X15267738Y-20858600D01*
X15228262Y-20858600D01*
X15189545Y-20850899D01*
X15153075Y-20835792D01*
X15120252Y-20813861D01*
X15092339Y-20785948D01*
X15070408Y-20753125D01*
X15055301Y-20716655D01*
X15047600Y-20677938D01*
X15047600Y-20638462D01*
X15055301Y-20599745D01*
X15070408Y-20563275D01*
X15092339Y-20530452D01*
X15120252Y-20502539D01*
X15153075Y-20480608D01*
X15189545Y-20465501D01*
X15228262Y-20457800D01*
X15267738Y-20457800D01*
X15306455Y-20465501D01*
X15306455Y-20465501D01*
G37*
G36*
X14806455Y-20465501D02*
G01*
X14842925Y-20480608D01*
X14875748Y-20502539D01*
X14903661Y-20530452D01*
X14925592Y-20563275D01*
X14940699Y-20599745D01*
X14948400Y-20638462D01*
X14948400Y-20677938D01*
X14940699Y-20716655D01*
X14925592Y-20753125D01*
X14903661Y-20785948D01*
X14875748Y-20813861D01*
X14842925Y-20835792D01*
X14806455Y-20850899D01*
X14767738Y-20858600D01*
X14728262Y-20858600D01*
X14689545Y-20850899D01*
X14653075Y-20835792D01*
X14620252Y-20813861D01*
X14592339Y-20785948D01*
X14570408Y-20753125D01*
X14555301Y-20716655D01*
X14547600Y-20677938D01*
X14547600Y-20638462D01*
X14555301Y-20599745D01*
X14570408Y-20563275D01*
X14592339Y-20530452D01*
X14620252Y-20502539D01*
X14653075Y-20480608D01*
X14689545Y-20465501D01*
X14728262Y-20457800D01*
X14767738Y-20457800D01*
X14806455Y-20465501D01*
X14806455Y-20465501D01*
G37*
G36*
X16806455Y-20465501D02*
G01*
X16842925Y-20480608D01*
X16875748Y-20502539D01*
X16903661Y-20530452D01*
X16925592Y-20563275D01*
X16940699Y-20599745D01*
X16948400Y-20638462D01*
X16948400Y-20677938D01*
X16940699Y-20716655D01*
X16925592Y-20753125D01*
X16903661Y-20785948D01*
X16875748Y-20813861D01*
X16842925Y-20835792D01*
X16806455Y-20850899D01*
X16767738Y-20858600D01*
X16728262Y-20858600D01*
X16689545Y-20850899D01*
X16653075Y-20835792D01*
X16620252Y-20813861D01*
X16592339Y-20785948D01*
X16570408Y-20753125D01*
X16555301Y-20716655D01*
X16547600Y-20677938D01*
X16547600Y-20638462D01*
X16555301Y-20599745D01*
X16570408Y-20563275D01*
X16592339Y-20530452D01*
X16620252Y-20502539D01*
X16653075Y-20480608D01*
X16689545Y-20465501D01*
X16728262Y-20457800D01*
X16767738Y-20457800D01*
X16806455Y-20465501D01*
X16806455Y-20465501D01*
G37*
G36*
X19525400Y-20550400D02*
G01*
X19134600Y-20550400D01*
X19134600Y-20189600D01*
X19525400Y-20189600D01*
X19525400Y-20550400D01*
X19525400Y-20550400D01*
G37*
G36*
X20215400Y-20530400D02*
G01*
X19824600Y-20530400D01*
X19824600Y-20169600D01*
X20215400Y-20169600D01*
X20215400Y-20530400D01*
X20215400Y-20530400D01*
G37*
G36*
X19525400Y-20000400D02*
G01*
X19134600Y-20000400D01*
X19134600Y-19639600D01*
X19525400Y-19639600D01*
X19525400Y-20000400D01*
X19525400Y-20000400D01*
G37*
G36*
X20215400Y-19980400D02*
G01*
X19824600Y-19980400D01*
X19824600Y-19619600D01*
X20215400Y-19619600D01*
X20215400Y-19980400D01*
X20215400Y-19980400D01*
G37*
G36*
X17455400Y-19905400D02*
G01*
X17094600Y-19905400D01*
X17094600Y-19514600D01*
X17455400Y-19514600D01*
X17455400Y-19905400D01*
X17455400Y-19905400D01*
G37*
G36*
X18005400Y-19905400D02*
G01*
X17644600Y-19905400D01*
X17644600Y-19514600D01*
X18005400Y-19514600D01*
X18005400Y-19905400D01*
X18005400Y-19905400D01*
G37*
G36*
X16058000Y-19514200D02*
G01*
X15787200Y-19514200D01*
X15787200Y-18853400D01*
X16058000Y-18853400D01*
X16058000Y-19514200D01*
X16058000Y-19514200D01*
G37*
G36*
X15658000Y-19514200D02*
G01*
X15387200Y-19514200D01*
X15387200Y-18853400D01*
X15658000Y-18853400D01*
X15658000Y-19514200D01*
X15658000Y-19514200D01*
G37*
G36*
X20195400Y-19390400D02*
G01*
X19804600Y-19390400D01*
X19804600Y-19029600D01*
X20195400Y-19029600D01*
X20195400Y-19390400D01*
X20195400Y-19390400D01*
G37*
G36*
X19535400Y-19385400D02*
G01*
X19144600Y-19385400D01*
X19144600Y-19024600D01*
X19535400Y-19024600D01*
X19535400Y-19385400D01*
X19535400Y-19385400D01*
G37*
G36*
X18085400Y-19285400D02*
G01*
X17694600Y-19285400D01*
X17694600Y-18924600D01*
X18085400Y-18924600D01*
X18085400Y-19285400D01*
X18085400Y-19285400D01*
G37*
G36*
X15208000Y-19274200D02*
G01*
X14547200Y-19274200D01*
X14547200Y-19003400D01*
X15208000Y-19003400D01*
X15208000Y-19274200D01*
X15208000Y-19274200D01*
G37*
G36*
X16898000Y-19274200D02*
G01*
X16237200Y-19274200D01*
X16237200Y-19003400D01*
X16898000Y-19003400D01*
X16898000Y-19274200D01*
X16898000Y-19274200D01*
G37*
G36*
X13494984Y-18709231D02*
G01*
X13545832Y-18730293D01*
X13591593Y-18760870D01*
X13630510Y-18799787D01*
X13661087Y-18845548D01*
X13682149Y-18896396D01*
X13692886Y-18950375D01*
X13692886Y-19005413D01*
X13682149Y-19059392D01*
X13661087Y-19110240D01*
X13630510Y-19156001D01*
X13591593Y-19194918D01*
X13545832Y-19225495D01*
X13494984Y-19246557D01*
X13441005Y-19257294D01*
X13385967Y-19257294D01*
X13331988Y-19246557D01*
X13281140Y-19225495D01*
X13235379Y-19194918D01*
X13196462Y-19156001D01*
X13165885Y-19110240D01*
X13144823Y-19059392D01*
X13134086Y-19005413D01*
X13134086Y-18950375D01*
X13144823Y-18896396D01*
X13165885Y-18845548D01*
X13196462Y-18799787D01*
X13235379Y-18760870D01*
X13281140Y-18730293D01*
X13331988Y-18709231D01*
X13385967Y-18698494D01*
X13441005Y-18698494D01*
X13494984Y-18709231D01*
X13494984Y-18709231D01*
G37*
G36*
X15208000Y-18874200D02*
G01*
X14547200Y-18874200D01*
X14547200Y-18603400D01*
X15208000Y-18603400D01*
X15208000Y-18874200D01*
X15208000Y-18874200D01*
G37*
G36*
X16898000Y-18874200D02*
G01*
X16237200Y-18874200D01*
X16237200Y-18603400D01*
X16898000Y-18603400D01*
X16898000Y-18874200D01*
X16898000Y-18874200D01*
G37*
G36*
X20195400Y-18840400D02*
G01*
X19804600Y-18840400D01*
X19804600Y-18479600D01*
X20195400Y-18479600D01*
X20195400Y-18840400D01*
X20195400Y-18840400D01*
G37*
G36*
X19535400Y-18835400D02*
G01*
X19144600Y-18835400D01*
X19144600Y-18474600D01*
X19535400Y-18474600D01*
X19535400Y-18835400D01*
X19535400Y-18835400D01*
G37*
G36*
X12885384Y-18226631D02*
G01*
X12936232Y-18247693D01*
X12981993Y-18278270D01*
X13020910Y-18317187D01*
X13051487Y-18362948D01*
X13072549Y-18413796D01*
X13083286Y-18467775D01*
X13083286Y-18522813D01*
X13072549Y-18576792D01*
X13051487Y-18627640D01*
X13020910Y-18673401D01*
X12981993Y-18712318D01*
X12936232Y-18742895D01*
X12885384Y-18763957D01*
X12831405Y-18774694D01*
X12776367Y-18774694D01*
X12722388Y-18763957D01*
X12671540Y-18742895D01*
X12625779Y-18712318D01*
X12586862Y-18673401D01*
X12556285Y-18627640D01*
X12535223Y-18576792D01*
X12524486Y-18522813D01*
X12524486Y-18467775D01*
X12535223Y-18413796D01*
X12556285Y-18362948D01*
X12586862Y-18317187D01*
X12625779Y-18278270D01*
X12671540Y-18247693D01*
X12722388Y-18226631D01*
X12776367Y-18215894D01*
X12831405Y-18215894D01*
X12885384Y-18226631D01*
X12885384Y-18226631D01*
G37*
G36*
X18085400Y-18735400D02*
G01*
X17694600Y-18735400D01*
X17694600Y-18374600D01*
X18085400Y-18374600D01*
X18085400Y-18735400D01*
X18085400Y-18735400D01*
G37*
G36*
X21619600Y-18514600D02*
G01*
X21228800Y-18514600D01*
X21228800Y-18153800D01*
X21619600Y-18153800D01*
X21619600Y-18514600D01*
X21619600Y-18514600D01*
G37*
G36*
X16898000Y-18474200D02*
G01*
X16237200Y-18474200D01*
X16237200Y-18203400D01*
X16898000Y-18203400D01*
X16898000Y-18474200D01*
X16898000Y-18474200D01*
G37*
G36*
X15208000Y-18474200D02*
G01*
X14547200Y-18474200D01*
X14547200Y-18203400D01*
X15208000Y-18203400D01*
X15208000Y-18474200D01*
X15208000Y-18474200D01*
G37*
G36*
X13494984Y-17744032D02*
G01*
X13545832Y-17765094D01*
X13591593Y-17795671D01*
X13630510Y-17834588D01*
X13661087Y-17880349D01*
X13682149Y-17931197D01*
X13692886Y-17985176D01*
X13692886Y-18040214D01*
X13682149Y-18094193D01*
X13661087Y-18145041D01*
X13630510Y-18190802D01*
X13591593Y-18229719D01*
X13545832Y-18260296D01*
X13494984Y-18281358D01*
X13441005Y-18292095D01*
X13385967Y-18292095D01*
X13331988Y-18281358D01*
X13281140Y-18260296D01*
X13235379Y-18229719D01*
X13196462Y-18190802D01*
X13165885Y-18145041D01*
X13144823Y-18094193D01*
X13134086Y-18040214D01*
X13134086Y-17985176D01*
X13144823Y-17931197D01*
X13165885Y-17880349D01*
X13196462Y-17834588D01*
X13235379Y-17795671D01*
X13281140Y-17765094D01*
X13331988Y-17744032D01*
X13385967Y-17733295D01*
X13441005Y-17733295D01*
X13494984Y-17744032D01*
X13494984Y-17744032D01*
G37*
G36*
X19820400Y-18250400D02*
G01*
X19139600Y-18250400D01*
X19139600Y-17619600D01*
X19820400Y-17619600D01*
X19820400Y-18250400D01*
X19820400Y-18250400D01*
G37*
G36*
X18595400Y-18105400D02*
G01*
X18204600Y-18105400D01*
X18204600Y-17744600D01*
X18595400Y-17744600D01*
X18595400Y-18105400D01*
X18595400Y-18105400D01*
G37*
G36*
X15208000Y-18074200D02*
G01*
X14547200Y-18074200D01*
X14547200Y-17803400D01*
X15208000Y-17803400D01*
X15208000Y-18074200D01*
X15208000Y-18074200D01*
G37*
G36*
X16898000Y-18074200D02*
G01*
X16237200Y-18074200D01*
X16237200Y-17803400D01*
X16898000Y-17803400D01*
X16898000Y-18074200D01*
X16898000Y-18074200D01*
G37*
G36*
X21619600Y-17964600D02*
G01*
X21228800Y-17964600D01*
X21228800Y-17603800D01*
X21619600Y-17603800D01*
X21619600Y-17964600D01*
X21619600Y-17964600D01*
G37*
G36*
X16058000Y-17824200D02*
G01*
X15787200Y-17824200D01*
X15787200Y-17163400D01*
X16058000Y-17163400D01*
X16058000Y-17824200D01*
X16058000Y-17824200D01*
G37*
G36*
X15658000Y-17824200D02*
G01*
X15387200Y-17824200D01*
X15387200Y-17163400D01*
X15658000Y-17163400D01*
X15658000Y-17824200D01*
X15658000Y-17824200D01*
G37*
G36*
X12885384Y-17261432D02*
G01*
X12936232Y-17282494D01*
X12981993Y-17313071D01*
X13020910Y-17351988D01*
X13051487Y-17397749D01*
X13072549Y-17448597D01*
X13083286Y-17502576D01*
X13083286Y-17557614D01*
X13072549Y-17611593D01*
X13051487Y-17662441D01*
X13020910Y-17708202D01*
X12981993Y-17747119D01*
X12936232Y-17777696D01*
X12885384Y-17798758D01*
X12831405Y-17809495D01*
X12776367Y-17809495D01*
X12722388Y-17798758D01*
X12671540Y-17777696D01*
X12625779Y-17747119D01*
X12586862Y-17708202D01*
X12556285Y-17662441D01*
X12535223Y-17611593D01*
X12524486Y-17557614D01*
X12524486Y-17502576D01*
X12535223Y-17448597D01*
X12556285Y-17397749D01*
X12586862Y-17351988D01*
X12625779Y-17313071D01*
X12671540Y-17282494D01*
X12722388Y-17261432D01*
X12776367Y-17250695D01*
X12831405Y-17250695D01*
X12885384Y-17261432D01*
X12885384Y-17261432D01*
G37*
G36*
X16898000Y-17674200D02*
G01*
X16237200Y-17674200D01*
X16237200Y-17403400D01*
X16898000Y-17403400D01*
X16898000Y-17674200D01*
X16898000Y-17674200D01*
G37*
G36*
X15208000Y-17674200D02*
G01*
X14547200Y-17674200D01*
X14547200Y-17403400D01*
X15208000Y-17403400D01*
X15208000Y-17674200D01*
X15208000Y-17674200D01*
G37*
G36*
X18595400Y-17555400D02*
G01*
X18204600Y-17555400D01*
X18204600Y-17194600D01*
X18595400Y-17194600D01*
X18595400Y-17555400D01*
X18595400Y-17555400D01*
G37*
G36*
X19820400Y-17360400D02*
G01*
X19139600Y-17360400D01*
X19139600Y-16729600D01*
X19820400Y-16729600D01*
X19820400Y-17360400D01*
X19820400Y-17360400D01*
G37*
G36*
X13494984Y-16778833D02*
G01*
X13545832Y-16799895D01*
X13591593Y-16830472D01*
X13630510Y-16869389D01*
X13661087Y-16915150D01*
X13682149Y-16965998D01*
X13692886Y-17019977D01*
X13692886Y-17075015D01*
X13682149Y-17128994D01*
X13661087Y-17179842D01*
X13630510Y-17225603D01*
X13591593Y-17264520D01*
X13545832Y-17295097D01*
X13494984Y-17316159D01*
X13441005Y-17326896D01*
X13385967Y-17326896D01*
X13331988Y-17316159D01*
X13281140Y-17295097D01*
X13235379Y-17264520D01*
X13196462Y-17225603D01*
X13165885Y-17179842D01*
X13144823Y-17128994D01*
X13134086Y-17075015D01*
X13134086Y-17019977D01*
X13144823Y-16965998D01*
X13165885Y-16915150D01*
X13196462Y-16869389D01*
X13235379Y-16830472D01*
X13281140Y-16799895D01*
X13331988Y-16778833D01*
X13385967Y-16768096D01*
X13441005Y-16768096D01*
X13494984Y-16778833D01*
X13494984Y-16778833D01*
G37*
G36*
X12878018Y-16269277D02*
G01*
X12928866Y-16290339D01*
X12974627Y-16320916D01*
X13013544Y-16359833D01*
X13044121Y-16405594D01*
X13065183Y-16456442D01*
X13075920Y-16510421D01*
X13075920Y-16565459D01*
X13065183Y-16619438D01*
X13044121Y-16670286D01*
X13013544Y-16716047D01*
X12974627Y-16754964D01*
X12928866Y-16785541D01*
X12878018Y-16806603D01*
X12824039Y-16817340D01*
X12769001Y-16817340D01*
X12715022Y-16806603D01*
X12664174Y-16785541D01*
X12618413Y-16754964D01*
X12579496Y-16716047D01*
X12548919Y-16670286D01*
X12527857Y-16619438D01*
X12517120Y-16565459D01*
X12517120Y-16510421D01*
X12527857Y-16456442D01*
X12548919Y-16405594D01*
X12579496Y-16359833D01*
X12618413Y-16320916D01*
X12664174Y-16290339D01*
X12715022Y-16269277D01*
X12769001Y-16258540D01*
X12824039Y-16258540D01*
X12878018Y-16269277D01*
X12878018Y-16269277D01*
G37*
G36*
X17670400Y-16501600D02*
G01*
X17349600Y-16501600D01*
X17349600Y-15810800D01*
X17670400Y-15810800D01*
X17670400Y-16501600D01*
X17670400Y-16501600D01*
G37*
G36*
X16170400Y-16501600D02*
G01*
X15849600Y-16501600D01*
X15849600Y-15810800D01*
X16170400Y-15810800D01*
X16170400Y-16501600D01*
X16170400Y-16501600D01*
G37*
G36*
X16670400Y-16501600D02*
G01*
X16349600Y-16501600D01*
X16349600Y-15810800D01*
X16670400Y-15810800D01*
X16670400Y-16501600D01*
X16670400Y-16501600D01*
G37*
G36*
X17170400Y-16501600D02*
G01*
X16849600Y-16501600D01*
X16849600Y-15810800D01*
X17170400Y-15810800D01*
X17170400Y-16501600D01*
X17170400Y-16501600D01*
G37*
G36*
X15670400Y-16501600D02*
G01*
X15349600Y-16501600D01*
X15349600Y-15810800D01*
X15670400Y-15810800D01*
X15670400Y-16501600D01*
X15670400Y-16501600D01*
G37*
G36*
X21274660Y-16450800D02*
G01*
X20953860Y-16450800D01*
X20953860Y-15760000D01*
X21274660Y-15760000D01*
X21274660Y-16450800D01*
X21274660Y-16450800D01*
G37*
G36*
X20774660Y-16450800D02*
G01*
X20453860Y-16450800D01*
X20453860Y-15760000D01*
X20774660Y-15760000D01*
X20774660Y-16450800D01*
X20774660Y-16450800D01*
G37*
G36*
X20274660Y-16450800D02*
G01*
X19953860Y-16450800D01*
X19953860Y-15760000D01*
X20274660Y-15760000D01*
X20274660Y-16450800D01*
X20274660Y-16450800D01*
G37*
G36*
X19774660Y-16450800D02*
G01*
X19453860Y-16450800D01*
X19453860Y-15760000D01*
X19774660Y-15760000D01*
X19774660Y-16450800D01*
X19774660Y-16450800D01*
G37*
G36*
X19274660Y-16450800D02*
G01*
X18953860Y-16450800D01*
X18953860Y-15760000D01*
X19274660Y-15760000D01*
X19274660Y-16450800D01*
X19274660Y-16450800D01*
G37*
G36*
X14259600Y-16330600D02*
G01*
X13578800Y-16330600D01*
X13578800Y-15699800D01*
X14259600Y-15699800D01*
X14259600Y-16330600D01*
X14259600Y-16330600D01*
G37*
G36*
X17730400Y-15661600D02*
G01*
X15289600Y-15661600D01*
X15289600Y-14970800D01*
X17730400Y-14970800D01*
X17730400Y-15661600D01*
X17730400Y-15661600D01*
G37*
G36*
X21334660Y-15610800D02*
G01*
X18893860Y-15610800D01*
X18893860Y-14920000D01*
X21334660Y-14920000D01*
X21334660Y-15610800D01*
X21334660Y-15610800D01*
G37*
G36*
X14259600Y-15440600D02*
G01*
X13578800Y-15440600D01*
X13578800Y-14809800D01*
X14259600Y-14809800D01*
X14259600Y-15440600D01*
X14259600Y-15440600D01*
G37*
G36*
X17670400Y-14821600D02*
G01*
X17349600Y-14821600D01*
X17349600Y-14130800D01*
X17670400Y-14130800D01*
X17670400Y-14821600D01*
X17670400Y-14821600D01*
G37*
G36*
X17170400Y-14821600D02*
G01*
X16849600Y-14821600D01*
X16849600Y-14130800D01*
X17170400Y-14130800D01*
X17170400Y-14821600D01*
X17170400Y-14821600D01*
G37*
G36*
X16670400Y-14821600D02*
G01*
X16349600Y-14821600D01*
X16349600Y-14130800D01*
X16670400Y-14130800D01*
X16670400Y-14821600D01*
X16670400Y-14821600D01*
G37*
G36*
X16170400Y-14821600D02*
G01*
X15849600Y-14821600D01*
X15849600Y-14130800D01*
X16170400Y-14130800D01*
X16170400Y-14821600D01*
X16170400Y-14821600D01*
G37*
G36*
X15670400Y-14821600D02*
G01*
X15349600Y-14821600D01*
X15349600Y-14130800D01*
X15670400Y-14130800D01*
X15670400Y-14821600D01*
X15670400Y-14821600D01*
G37*
G36*
X21274660Y-14770800D02*
G01*
X20953860Y-14770800D01*
X20953860Y-14080000D01*
X21274660Y-14080000D01*
X21274660Y-14770800D01*
X21274660Y-14770800D01*
G37*
G36*
X19274660Y-14770800D02*
G01*
X18953860Y-14770800D01*
X18953860Y-14080000D01*
X19274660Y-14080000D01*
X19274660Y-14770800D01*
X19274660Y-14770800D01*
G37*
G36*
X19774660Y-14770800D02*
G01*
X19453860Y-14770800D01*
X19453860Y-14080000D01*
X19774660Y-14080000D01*
X19774660Y-14770800D01*
X19774660Y-14770800D01*
G37*
G36*
X20274660Y-14770800D02*
G01*
X19953860Y-14770800D01*
X19953860Y-14080000D01*
X20274660Y-14080000D01*
X20274660Y-14770800D01*
X20274660Y-14770800D01*
G37*
G36*
X20774660Y-14770800D02*
G01*
X20453860Y-14770800D01*
X20453860Y-14080000D01*
X20774660Y-14080000D01*
X20774660Y-14770800D01*
X20774660Y-14770800D01*
G37*
G36*
X17850400Y-13915400D02*
G01*
X17489600Y-13915400D01*
X17489600Y-13524600D01*
X17850400Y-13524600D01*
X17850400Y-13915400D01*
X17850400Y-13915400D01*
G37*
G36*
X17300400Y-13915400D02*
G01*
X16939600Y-13915400D01*
X16939600Y-13524600D01*
X17300400Y-13524600D01*
X17300400Y-13915400D01*
X17300400Y-13915400D01*
G37*
G36*
X13895400Y-13905400D02*
G01*
X13534600Y-13905400D01*
X13534600Y-13514600D01*
X13895400Y-13514600D01*
X13895400Y-13905400D01*
X13895400Y-13905400D01*
G37*
G36*
X14445400Y-13905400D02*
G01*
X14084600Y-13905400D01*
X14084600Y-13514600D01*
X14445400Y-13514600D01*
X14445400Y-13905400D01*
X14445400Y-13905400D01*
G37*
G36*
X20290400Y-13875400D02*
G01*
X19929600Y-13875400D01*
X19929600Y-13484600D01*
X20290400Y-13484600D01*
X20290400Y-13875400D01*
X20290400Y-13875400D01*
G37*
G36*
X20840400Y-13875400D02*
G01*
X20479600Y-13875400D01*
X20479600Y-13484600D01*
X20840400Y-13484600D01*
X20840400Y-13875400D01*
X20840400Y-13875400D01*
G37*
G36*
X18835400Y-13855400D02*
G01*
X18474600Y-13855400D01*
X18474600Y-13464600D01*
X18835400Y-13464600D01*
X18835400Y-13855400D01*
X18835400Y-13855400D01*
G37*
G36*
X19385400Y-13855400D02*
G01*
X19024600Y-13855400D01*
X19024600Y-13464600D01*
X19385400Y-13464600D01*
X19385400Y-13855400D01*
X19385400Y-13855400D01*
G37*
G36*
X16175400Y-13845400D02*
G01*
X15814600Y-13845400D01*
X15814600Y-13454600D01*
X16175400Y-13454600D01*
X16175400Y-13845400D01*
X16175400Y-13845400D01*
G37*
G36*
X15625400Y-13845400D02*
G01*
X15264600Y-13845400D01*
X15264600Y-13454600D01*
X15625400Y-13454600D01*
X15625400Y-13845400D01*
X15625400Y-13845400D01*
G37*
M02*
