G04 #@! TF.GenerationSoftware,KiCad,Pcbnew,(5.1.0)-1*
G04 #@! TF.CreationDate,2019-06-16T22:48:04-07:00*
G04 #@! TF.ProjectId,MS_v4_ETL_LED_Driver,4d535f76-345f-4455-944c-5f4c45445f44,rev?*
G04 #@! TF.SameCoordinates,Original*
G04 #@! TF.FileFunction,Paste,Top*
G04 #@! TF.FilePolarity,Positive*
%FSLAX46Y46*%
G04 Gerber Fmt 4.6, Leading zero omitted, Abs format (unit mm)*
G04 Created by KiCad (PCBNEW (5.1.0)-1) date 2019-06-16 22:48:04*
%MOMM*%
%LPD*%
G04 APERTURE LIST*
%ADD10R,0.340000X0.310000*%
%ADD11C,0.508000*%
%ADD12C,0.350000*%
%ADD13R,2.390000X0.640000*%
%ADD14R,0.270000X0.640000*%
%ADD15R,0.220000X0.610000*%
%ADD16R,0.610000X0.220000*%
%ADD17R,0.310000X0.340000*%
%ADD18R,1.000000X1.000000*%
%ADD19R,0.630000X0.580000*%
%ADD20R,0.750000X1.270000*%
G04 APERTURE END LIST*
D10*
X21424200Y-17784200D03*
X21424200Y-18334200D03*
D11*
X12796520Y-16537940D03*
D12*
X16748000Y-21658200D03*
X16248000Y-21658200D03*
X15748000Y-21658200D03*
X15248000Y-21658200D03*
X14748000Y-21658200D03*
X16748000Y-21158200D03*
X16248000Y-21158200D03*
X15748000Y-21158200D03*
X15248000Y-21158200D03*
X14748000Y-21158200D03*
X16748000Y-20658200D03*
X16248000Y-20658200D03*
X15748000Y-20658200D03*
X15248000Y-20658200D03*
X14748000Y-20658200D03*
D13*
X20114260Y-15265400D03*
D14*
X19114260Y-14425400D03*
X19614260Y-14425400D03*
X20114260Y-14425400D03*
X20614260Y-14425400D03*
X21114260Y-14425400D03*
X21114260Y-16105400D03*
X20614260Y-16105400D03*
X20114260Y-16105400D03*
X19614260Y-16105400D03*
X19114260Y-16105400D03*
D13*
X16510000Y-15316200D03*
D14*
X15510000Y-14476200D03*
X16010000Y-14476200D03*
X16510000Y-14476200D03*
X17010000Y-14476200D03*
X17510000Y-14476200D03*
X17510000Y-16156200D03*
X17010000Y-16156200D03*
X16510000Y-16156200D03*
X16010000Y-16156200D03*
X15510000Y-16156200D03*
D15*
X15922600Y-19183800D03*
X15522600Y-19183800D03*
D16*
X14877600Y-19138800D03*
X14877600Y-18738800D03*
X14877600Y-18338800D03*
X14877600Y-17938800D03*
X14877600Y-17538800D03*
D15*
X15522600Y-17493800D03*
X15922600Y-17493800D03*
D16*
X16567600Y-17538800D03*
X16567600Y-17938800D03*
X16567600Y-18338800D03*
X16567600Y-18738800D03*
X16567600Y-19138800D03*
D17*
X18655000Y-13660000D03*
X19205000Y-13660000D03*
X20110000Y-13680000D03*
X20660000Y-13680000D03*
X17670000Y-13720000D03*
X17120000Y-13720000D03*
X13715000Y-13710000D03*
X14265000Y-13710000D03*
X15445000Y-13650000D03*
X15995000Y-13650000D03*
D18*
X17653000Y-23012400D03*
D10*
X17890000Y-18555000D03*
X17890000Y-19105000D03*
X13716000Y-22093600D03*
X13716000Y-21543600D03*
D17*
X13695000Y-22707600D03*
X14245000Y-22707600D03*
D11*
X13413486Y-18977894D03*
X12803886Y-18495294D03*
X13413486Y-18012695D03*
X12803886Y-17530095D03*
X13413486Y-17047496D03*
D17*
X17825000Y-19710000D03*
X17275000Y-19710000D03*
D19*
X13919200Y-15125200D03*
X13919200Y-16015200D03*
D20*
X15284200Y-22885400D03*
X16284200Y-22885400D03*
D19*
X19480000Y-17935000D03*
X19480000Y-17045000D03*
D10*
X18400000Y-17375000D03*
X18400000Y-17925000D03*
X20020000Y-19800000D03*
X20020000Y-20350000D03*
X19330000Y-20370000D03*
X19330000Y-19820000D03*
X20000000Y-18660000D03*
X20000000Y-19210000D03*
X19340000Y-19205000D03*
X19340000Y-18655000D03*
M02*
