<?xml version="1.0" standalone="no"?>
 <!DOCTYPE svg PUBLIC "-//W3C//DTD SVG 1.1//EN" 
 "http://www.w3.org/Graphics/SVG/1.1/DTD/svg11.dtd"> 
<svg xmlns="http://www.w3.org/2000/svg" version="1.1" 
    width="3.11404cm" height="2.7432cm" viewBox="0 0 12260 10800 ">
<title>SVG Picture created as Miniscope-v4-Rigid-Flex-F_Mask.svg date 2019/10/03 22:30:00 </title>
  <desc>Picture generated by PCBNEW </desc>
<g style="fill:#000000; fill-opacity:1;stroke:#000000; stroke-opacity:1;
stroke-linecap:round; stroke-linejoin:round; "
 transform="translate(0 0) scale(1 1)">
</g>
<g style="fill:#000000; fill-opacity:0.0; 
stroke:#000000; stroke-width:-0.000393701; stroke-opacity:1; 
stroke-linecap:round; stroke-linejoin:round;">
</g>
<g style="fill:#840084; fill-opacity:0.0; 
stroke:#840084; stroke-width:-0.000393701; stroke-opacity:1; 
stroke-linecap:round; stroke-linejoin:round;">
</g>
<g style="fill:#840084; fill-opacity:1.0; 
stroke:#840084; stroke-width:0; stroke-opacity:1; 
stroke-linecap:round; stroke-linejoin:round;">
<path style="fill:#840084; fill-opacity:1.0; 
stroke:#840084; stroke-width:0; stroke-opacity:1; 
stroke-linecap:round; stroke-linejoin:round;fill-rule:evenodd;"
d="M 8125,6629
8140,6634
8155,6641
8167,6652
8177,6664
8185,6678
8190,6694
8191,6711
8191,6914
8190,6931
8185,6947
8177,6961
8167,6974
8155,6984
8140,6991
8125,6996
8108,6998
7893,6998
7876,6996
7860,6991
7846,6984
7833,6974
7823,6961
7816,6947
7811,6931
7809,6914
7809,6711
7811,6694
7816,6678
7823,6664
7833,6652
7846,6641
7860,6634
7876,6629
7893,6627
8108,6627
8125,6629
Z" /> 
<path style="fill:#840084; fill-opacity:1.0; 
stroke:#840084; stroke-width:0; stroke-opacity:1; 
stroke-linecap:round; stroke-linejoin:round;fill-rule:evenodd;"
d="M 5582,6546
5586,6548
5591,6550
5595,6553
5598,6557
5600,6562
5602,6566
5602,6572
5602,6673
5602,6679
5600,6684
5598,6688
5595,6692
5591,6695
5586,6698
5582,6699
5576,6700
5487,6700
5481,6699
5476,6698
5472,6695
5468,6692
5465,6688
5462,6684
5461,6679
5460,6673
5460,6572
5461,6566
5462,6562
5465,6557
5468,6553
5472,6550
5476,6548
5481,6546
5487,6546
5576,6546
5582,6546
Z" /> 
<path style="fill:#840084; fill-opacity:1.0; 
stroke:#840084; stroke-width:0; stroke-opacity:1; 
stroke-linecap:round; stroke-linejoin:round;fill-rule:evenodd;"
d="M 5365,6546
5370,6548
5374,6550
5378,6553
5381,6557
5384,6562
5385,6566
5386,6572
5386,6673
5385,6679
5384,6684
5381,6688
5378,6692
5374,6695
5370,6698
5365,6699
5359,6700
5270,6700
5264,6699
5259,6698
5255,6695
5251,6692
5248,6688
5246,6684
5244,6679
5244,6673
5244,6572
5244,6566
5246,6562
5248,6557
5251,6553
5255,6550
5259,6548
5264,6546
5270,6546
5359,6546
5365,6546
Z" /> 
<path style="fill:#840084; fill-opacity:1.0; 
stroke:#840084; stroke-width:0; stroke-opacity:1; 
stroke-linecap:round; stroke-linejoin:round;fill-rule:evenodd;"
d="M 6379,6350
6384,6352
6388,6354
6392,6357
6395,6361
6398,6366
6399,6370
6400,6376
6400,6465
6399,6471
6398,6476
6395,6481
6392,6484
6388,6488
6384,6490
6379,6491
6373,6492
6272,6492
6267,6491
6262,6490
6257,6488
6253,6484
6250,6481
6248,6476
6247,6471
6246,6465
6246,6376
6247,6370
6248,6366
6250,6361
6253,6357
6257,6354
6262,6352
6267,6350
6272,6350
6373,6350
6379,6350
Z" /> 
<path style="fill:#840084; fill-opacity:1.0; 
stroke:#840084; stroke-width:0; stroke-opacity:1; 
stroke-linecap:round; stroke-linejoin:round;fill-rule:evenodd;"
d="M 7155,6336
7160,6338
7164,6340
7168,6343
7171,6347
7174,6352
7175,6356
7176,6362
7176,6463
7175,6469
7174,6474
7171,6478
7168,6482
7164,6485
7160,6488
7155,6489
7149,6490
7060,6490
7054,6489
7049,6488
7045,6485
7041,6482
7038,6478
7036,6474
7034,6469
7034,6463
7034,6362
7034,6356
7036,6352
7038,6347
7041,6343
7045,6340
7049,6338
7054,6336
7060,6336
7149,6336
7155,6336
Z" /> 
<path style="fill:#840084; fill-opacity:1.0; 
stroke:#840084; stroke-width:0; stroke-opacity:1; 
stroke-linecap:round; stroke-linejoin:round;fill-rule:evenodd;"
d="M 7372,6336
7376,6338
7381,6340
7385,6343
7388,6347
7390,6352
7392,6356
7392,6362
7392,6463
7392,6469
7390,6474
7388,6478
7385,6482
7381,6485
7376,6488
7372,6489
7366,6490
7277,6490
7271,6489
7266,6488
7262,6485
7258,6482
7255,6478
7252,6474
7251,6469
7250,6463
7250,6362
7251,6356
7252,6352
7255,6347
7258,6343
7262,6340
7266,6338
7271,6336
7277,6336
7366,6336
7372,6336
Z" /> 
<path style="fill:#840084; fill-opacity:1.0; 
stroke:#840084; stroke-width:0; stroke-opacity:1; 
stroke-linecap:round; stroke-linejoin:round;fill-rule:evenodd;"
d="M 5792,6326
5796,6328
5801,6330
5805,6333
5808,6337
5810,6342
5812,6346
5812,6352
5812,6453
5812,6459
5810,6464
5808,6468
5805,6472
5801,6475
5796,6478
5792,6479
5786,6480
5697,6480
5691,6479
5686,6478
5682,6475
5678,6472
5675,6468
5672,6464
5671,6459
5670,6453
5670,6352
5671,6346
5672,6342
5675,6337
5678,6333
5682,6330
5686,6328
5691,6326
5697,6326
5786,6326
5792,6326
Z" /> 
<path style="fill:#840084; fill-opacity:1.0; 
stroke:#840084; stroke-width:0; stroke-opacity:1; 
stroke-linecap:round; stroke-linejoin:round;fill-rule:evenodd;"
d="M 5575,6326
5580,6328
5584,6330
5588,6333
5591,6337
5594,6342
5595,6346
5596,6352
5596,6453
5595,6459
5594,6464
5591,6468
5588,6472
5584,6475
5580,6478
5575,6479
5569,6480
5480,6480
5474,6479
5469,6478
5465,6475
5461,6472
5458,6468
5456,6464
5454,6459
5454,6453
5454,6352
5454,6346
5456,6342
5458,6337
5461,6333
5465,6330
5469,6328
5474,6326
5480,6326
5569,6326
5575,6326
Z" /> 
<path style="fill:#840084; fill-opacity:1.0; 
stroke:#840084; stroke-width:0; stroke-opacity:1; 
stroke-linecap:round; stroke-linejoin:round;fill-rule:evenodd;"
d="M 8125,6106
8140,6110
8155,6118
8167,6128
8177,6141
8185,6155
8190,6170
8191,6187
8191,6391
8190,6408
8185,6423
8177,6437
8167,6450
8155,6460
8140,6468
8125,6473
8108,6474
7893,6474
7876,6473
7860,6468
7846,6460
7833,6450
7823,6437
7816,6423
7811,6408
7809,6391
7809,6187
7811,6170
7816,6155
7823,6141
7833,6128
7846,6118
7860,6110
7876,6106
7893,6104
8108,6104
8125,6106
Z" /> 
<path style="fill:#840084; fill-opacity:1.0; 
stroke:#840084; stroke-width:0; stroke-opacity:1; 
stroke-linecap:round; stroke-linejoin:round;fill-rule:evenodd;"
d="M 7155,6136
7160,6138
7164,6140
7168,6143
7171,6147
7174,6152
7175,6156
7176,6162
7176,6263
7175,6269
7174,6274
7171,6278
7168,6282
7164,6285
7160,6288
7155,6289
7149,6290
7060,6290
7054,6289
7049,6288
7045,6285
7041,6282
7038,6278
7036,6274
7034,6269
7034,6263
7034,6162
7034,6156
7036,6152
7038,6147
7041,6143
7045,6140
7049,6138
7054,6136
7060,6136
7149,6136
7155,6136
Z" /> 
<path style="fill:#840084; fill-opacity:1.0; 
stroke:#840084; stroke-width:0; stroke-opacity:1; 
stroke-linecap:round; stroke-linejoin:round;fill-rule:evenodd;"
d="M 7372,6136
7376,6138
7381,6140
7385,6143
7388,6147
7390,6152
7392,6156
7392,6162
7392,6263
7392,6269
7390,6274
7388,6278
7385,6282
7381,6285
7376,6288
7372,6289
7366,6290
7277,6290
7271,6289
7266,6288
7262,6285
7258,6282
7255,6278
7252,6274
7251,6269
7250,6263
7250,6162
7251,6156
7252,6152
7255,6147
7258,6143
7262,6140
7266,6138
7271,6136
7277,6136
7366,6136
7372,6136
Z" /> 
<path style="fill:#840084; fill-opacity:1.0; 
stroke:#840084; stroke-width:0; stroke-opacity:1; 
stroke-linecap:round; stroke-linejoin:round;fill-rule:evenodd;"
d="M 5022,6136
5026,6138
5031,6140
5035,6143
5038,6147
5040,6152
5042,6156
5042,6162
5042,6263
5042,6269
5040,6274
5038,6278
5035,6282
5031,6285
5026,6288
5022,6289
5016,6290
4927,6290
4921,6289
4916,6288
4912,6285
4908,6282
4905,6278
4902,6274
4901,6269
4900,6263
4900,6162
4901,6156
4902,6152
4905,6147
4908,6143
4912,6140
4916,6138
4921,6136
4927,6136
5016,6136
5022,6136
Z" /> 
<path style="fill:#840084; fill-opacity:1.0; 
stroke:#840084; stroke-width:0; stroke-opacity:1; 
stroke-linecap:round; stroke-linejoin:round;fill-rule:evenodd;"
d="M 4805,6136
4810,6138
4814,6140
4818,6143
4821,6147
4824,6152
4825,6156
4826,6162
4826,6263
4825,6269
4824,6274
4821,6278
4818,6282
4814,6285
4810,6288
4805,6289
4799,6290
4710,6290
4704,6289
4699,6288
4695,6285
4691,6282
4688,6278
4686,6274
4684,6269
4684,6263
4684,6162
4684,6156
4686,6152
4688,6147
4691,6143
4695,6140
4699,6138
4704,6136
4710,6136
4799,6136
4805,6136
Z" /> 
<path style="fill:#840084; fill-opacity:1.0; 
stroke:#840084; stroke-width:0; stroke-opacity:1; 
stroke-linecap:round; stroke-linejoin:round;fill-rule:evenodd;"
d="M 5383,6126
5388,6128
5393,6130
5396,6133
5400,6137
5402,6142
5403,6146
5404,6152
5404,6253
5403,6259
5402,6264
5400,6268
5396,6272
5393,6275
5388,6278
5383,6279
5377,6280
5288,6280
5282,6279
5278,6278
5273,6275
5269,6272
5266,6268
5264,6264
5262,6259
5262,6253
5262,6152
5262,6146
5264,6142
5266,6137
5269,6133
5273,6130
5278,6128
5282,6126
5288,6126
5377,6126
5383,6126
Z" /> 
<path style="fill:#840084; fill-opacity:1.0; 
stroke:#840084; stroke-width:0; stroke-opacity:1; 
stroke-linecap:round; stroke-linejoin:round;fill-rule:evenodd;"
d="M 5600,6126
5605,6128
5609,6130
5613,6133
5616,6137
5618,6142
5620,6146
5620,6152
5620,6253
5620,6259
5618,6264
5616,6268
5613,6272
5609,6275
5605,6278
5600,6279
5594,6280
5505,6280
5499,6279
5494,6278
5490,6275
5486,6272
5483,6268
5480,6264
5479,6259
5478,6253
5478,6152
5479,6146
5480,6142
5483,6137
5486,6133
5490,6130
5494,6128
5499,6126
5505,6126
5594,6126
5600,6126
Z" /> 
<path style="fill:#840084; fill-opacity:1.0; 
stroke:#840084; stroke-width:0; stroke-opacity:1; 
stroke-linecap:round; stroke-linejoin:round;fill-rule:evenodd;"
d="M 6379,6134
6384,6135
6388,6138
6392,6141
6395,6145
6398,6149
6399,6154
6400,6160
6400,6249
6399,6255
6398,6260
6395,6264
6392,6268
6388,6271
6384,6273
6379,6275
6373,6275
6272,6275
6267,6275
6262,6273
6257,6271
6253,6268
6250,6264
6248,6260
6247,6255
6246,6249
6246,6160
6247,6154
6248,6149
6250,6145
6253,6141
6257,6138
6262,6135
6267,6134
6272,6133
6373,6133
6379,6134
Z" /> 
<path style="fill:#840084; fill-opacity:1.0; 
stroke:#840084; stroke-width:0; stroke-opacity:1; 
stroke-linecap:round; stroke-linejoin:round;fill-rule:evenodd;"
d="M 4834,6070
4468,6070
4468,5723
4834,5723
4834,6070
Z" /> 
<path style="fill:#840084; fill-opacity:1.0; 
stroke:#840084; stroke-width:0; stroke-opacity:1; 
stroke-linecap:round; stroke-linejoin:round;fill-rule:evenodd;"
d="M 5578,6070
5212,6070
5212,5723
5578,5723
5578,6070
Z" /> 
<path style="fill:#840084; fill-opacity:1.0; 
stroke:#840084; stroke-width:0; stroke-opacity:1; 
stroke-linecap:round; stroke-linejoin:round;fill-rule:evenodd;"
d="M 7780,5760
7790,5763
7799,5767
7807,5774
7813,5782
7818,5791
7821,5801
7822,5812
7822,5974
7821,5985
7818,5994
7813,6003
7807,6011
7799,6018
7790,6023
7780,6026
7769,6027
7627,6027
7615,6026
7606,6023
7597,6018
7589,6011
7582,6003
7578,5994
7575,5985
7574,5974
7574,5812
7575,5801
7578,5791
7582,5782
7589,5774
7597,5767
7606,5763
7615,5760
7627,5759
7769,5759
7780,5760
Z" /> 
<path style="fill:#840084; fill-opacity:1.0; 
stroke:#840084; stroke-width:0; stroke-opacity:1; 
stroke-linecap:round; stroke-linejoin:round;fill-rule:evenodd;"
d="M 8130,5760
8140,5763
8149,5767
8157,5774
8163,5782
8168,5791
8171,5801
8172,5812
8172,5974
8171,5985
8168,5994
8163,6003
8157,6011
8149,6018
8140,6023
8130,6026
8119,6027
7977,6027
7966,6026
7956,6023
7947,6018
7939,6011
7933,6003
7928,5994
7925,5985
7924,5974
7924,5812
7925,5801
7928,5791
7933,5782
7939,5774
7947,5767
7956,5763
7966,5760
7977,5759
8119,5759
8130,5760
Z" /> 
<path style="fill:#840084; fill-opacity:1.0; 
stroke:#840084; stroke-width:0; stroke-opacity:1; 
stroke-linecap:round; stroke-linejoin:round;fill-rule:evenodd;"
d="M 5789,5750
5794,5752
5798,5754
5802,5757
5805,5761
5808,5766
5809,5770
5810,5776
5810,5865
5809,5871
5808,5876
5805,5881
5802,5884
5798,5888
5794,5890
5789,5891
5783,5892
5682,5892
5677,5891
5672,5890
5667,5888
5663,5884
5660,5881
5658,5876
5657,5871
5656,5865
5656,5776
5657,5770
5658,5766
5660,5761
5663,5757
5667,5754
5672,5752
5677,5750
5682,5750
5783,5750
5789,5750
Z" /> 
<path style="fill:#840084; fill-opacity:1.0; 
stroke:#840084; stroke-width:0; stroke-opacity:1; 
stroke-linecap:round; stroke-linejoin:round;fill-rule:evenodd;"
d="M 7359,5560
7364,5562
7368,5564
7372,5567
7375,5571
7378,5576
7379,5580
7380,5586
7380,5675
7379,5681
7378,5686
7375,5691
7372,5694
7368,5698
7364,5700
7359,5701
7353,5702
7252,5702
7247,5701
7242,5700
7237,5698
7233,5694
7230,5691
7228,5686
7227,5681
7226,5675
7226,5586
7227,5580
7228,5576
7230,5571
7233,5567
7237,5564
7242,5562
7247,5560
7252,5560
7353,5560
7359,5560
Z" /> 
<path style="fill:#840084; fill-opacity:1.0; 
stroke:#840084; stroke-width:0; stroke-opacity:1; 
stroke-linecap:round; stroke-linejoin:round;fill-rule:evenodd;"
d="M 8140,5410
8150,5413
8159,5417
8167,5424
8173,5432
8178,5441
8181,5451
8182,5462
8182,5624
8181,5635
8178,5644
8173,5653
8167,5661
8159,5668
8150,5673
8140,5676
8129,5677
7987,5677
7976,5676
7966,5673
7957,5668
7949,5661
7943,5653
7938,5644
7935,5635
7934,5624
7934,5462
7935,5451
7938,5441
7943,5432
7949,5424
7957,5417
7966,5413
7976,5410
7987,5409
8129,5409
8140,5410
Z" /> 
<path style="fill:#840084; fill-opacity:1.0; 
stroke:#840084; stroke-width:0; stroke-opacity:1; 
stroke-linecap:round; stroke-linejoin:round;fill-rule:evenodd;"
d="M 7790,5410
7800,5413
7809,5417
7817,5424
7823,5432
7828,5441
7831,5451
7832,5462
7832,5624
7831,5635
7828,5644
7823,5653
7817,5661
7809,5668
7800,5673
7790,5676
7779,5677
7637,5677
7625,5676
7616,5673
7607,5668
7599,5661
7592,5653
7588,5644
7585,5635
7584,5624
7584,5462
7585,5451
7588,5441
7592,5432
7599,5424
7607,5417
7616,5413
7625,5410
7637,5409
7779,5409
7790,5410
Z" /> 
<path style="fill:#840084; fill-opacity:1.0; 
stroke:#840084; stroke-width:0; stroke-opacity:1; 
stroke-linecap:round; stroke-linejoin:round;fill-rule:evenodd;"
d="M 5789,5534
5794,5535
5798,5538
5802,5541
5805,5545
5808,5549
5809,5554
5810,5560
5810,5649
5809,5655
5808,5660
5805,5664
5802,5668
5798,5671
5794,5673
5789,5675
5783,5675
5682,5675
5677,5675
5672,5673
5667,5671
5663,5668
5660,5664
5658,5660
5657,5655
5656,5649
5656,5560
5657,5554
5658,5549
5660,5545
5663,5541
5667,5538
5672,5535
5677,5534
5682,5533
5783,5533
5789,5534
Z" /> 
<path style="fill:#840084; fill-opacity:1.0; 
stroke:#840084; stroke-width:0; stroke-opacity:1; 
stroke-linecap:round; stroke-linejoin:round;fill-rule:evenodd;"
d="M 5578,5503
5212,5503
5212,5156
5578,5156
5578,5503
Z" /> 
<path style="fill:#840084; fill-opacity:1.0; 
stroke:#840084; stroke-width:0; stroke-opacity:1; 
stroke-linecap:round; stroke-linejoin:round;fill-rule:evenodd;"
d="M 4834,5503
4468,5503
4468,5156
4834,5156
4834,5503
Z" /> 
<path style="fill:#840084; fill-opacity:1.0; 
stroke:#840084; stroke-width:0; stroke-opacity:1; 
stroke-linecap:round; stroke-linejoin:round;fill-rule:evenodd;"
d="M 7359,5344
7364,5345
7368,5348
7372,5351
7375,5355
7378,5359
7379,5364
7380,5370
7380,5459
7379,5465
7378,5470
7375,5474
7372,5478
7368,5481
7364,5483
7359,5485
7353,5485
7252,5485
7247,5485
7242,5483
7237,5481
7233,5478
7230,5474
7228,5470
7227,5465
7226,5459
7226,5370
7227,5364
7228,5359
7230,5355
7233,5351
7237,5348
7242,5345
7247,5344
7252,5343
7353,5343
7359,5344
Z" /> 
<path style="fill:#840084; fill-opacity:1.0; 
stroke:#840084; stroke-width:0; stroke-opacity:1; 
stroke-linecap:round; stroke-linejoin:round;fill-rule:evenodd;"
d="M 5789,5170
5794,5172
5798,5174
5802,5177
5805,5181
5808,5186
5809,5190
5810,5196
5810,5285
5809,5291
5808,5296
5805,5301
5802,5304
5798,5308
5794,5310
5789,5311
5783,5312
5682,5312
5677,5311
5672,5310
5667,5308
5663,5304
5660,5301
5658,5296
5657,5291
5656,5285
5656,5196
5657,5190
5658,5186
5660,5181
5663,5177
5667,5174
5672,5172
5677,5170
5682,5170
5783,5170
5789,5170
Z" /> 
<path style="fill:#840084; fill-opacity:1.0; 
stroke:#840084; stroke-width:0; stroke-opacity:1; 
stroke-linecap:round; stroke-linejoin:round;fill-rule:evenodd;"
d="M 7179,5160
7184,5162
7188,5164
7192,5167
7195,5171
7198,5176
7199,5179
7200,5182
7202,5186
7205,5189
7208,5191
7212,5192
7216,5193
7220,5193
7224,5192
7227,5191
7231,5189
7233,5186
7236,5182
7237,5179
7238,5176
7240,5171
7243,5167
7247,5164
7252,5162
7257,5160
7262,5160
7363,5160
7369,5160
7374,5162
7378,5164
7382,5167
7385,5171
7388,5176
7389,5180
7390,5186
7390,5275
7389,5281
7388,5286
7385,5291
7382,5294
7378,5298
7374,5300
7369,5301
7363,5302
7262,5302
7257,5301
7252,5300
7247,5298
7243,5294
7240,5291
7238,5286
7237,5283
7236,5279
7233,5276
7231,5273
7227,5271
7224,5270
7220,5269
7216,5269
7212,5270
7208,5271
7205,5273
7202,5276
7200,5279
7199,5283
7198,5286
7195,5291
7192,5294
7188,5298
7184,5300
7179,5301
7173,5302
7072,5302
7067,5301
7062,5300
7057,5298
7053,5294
7050,5291
7048,5286
7047,5281
7046,5275
7046,5186
7047,5180
7048,5176
7050,5171
7053,5167
7057,5164
7062,5162
7067,5160
7072,5160
7173,5160
7179,5160
Z" /> 
<path style="fill:#840084; fill-opacity:1.0; 
stroke:#840084; stroke-width:0; stroke-opacity:1; 
stroke-linecap:round; stroke-linejoin:round;fill-rule:evenodd;"
d="M 8130,5010
8140,5013
8149,5017
8157,5024
8163,5032
8168,5041
8171,5051
8172,5062
8172,5224
8171,5235
8168,5244
8163,5253
8157,5261
8149,5268
8140,5273
8130,5276
8119,5277
7977,5277
7966,5276
7956,5273
7947,5268
7939,5261
7933,5253
7928,5244
7925,5235
7924,5224
7924,5062
7925,5051
7928,5041
7933,5032
7939,5024
7947,5017
7956,5013
7966,5010
7977,5009
8119,5009
8130,5010
Z" /> 
<path style="fill:#840084; fill-opacity:1.0; 
stroke:#840084; stroke-width:0; stroke-opacity:1; 
stroke-linecap:round; stroke-linejoin:round;fill-rule:evenodd;"
d="M 7780,5010
7790,5013
7799,5017
7807,5024
7813,5032
7818,5041
7821,5051
7822,5062
7822,5224
7821,5235
7818,5244
7813,5253
7807,5261
7799,5268
7790,5273
7780,5276
7769,5277
7627,5277
7615,5276
7606,5273
7597,5268
7589,5261
7582,5253
7578,5244
7575,5235
7574,5224
7574,5062
7575,5051
7578,5041
7582,5032
7589,5024
7597,5017
7606,5013
7615,5010
7627,5009
7769,5009
7780,5010
Z" /> 
<path style="fill:#840084; fill-opacity:1.0; 
stroke:#840084; stroke-width:0; stroke-opacity:1; 
stroke-linecap:round; stroke-linejoin:round;fill-rule:evenodd;"
d="M 6562,4946
6566,4948
6571,4950
6575,4953
6578,4957
6580,4962
6582,4966
6582,4972
6582,5073
6582,5079
6580,5084
6578,5088
6575,5092
6571,5095
6566,5098
6562,5099
6556,5100
6467,5100
6461,5099
6456,5098
6452,5095
6448,5092
6445,5088
6442,5084
6441,5079
6440,5073
6440,4972
6441,4966
6442,4962
6445,4957
6448,4953
6452,4950
6456,4948
6461,4946
6467,4946
6556,4946
6562,4946
Z" /> 
<path style="fill:#840084; fill-opacity:1.0; 
stroke:#840084; stroke-width:0; stroke-opacity:1; 
stroke-linecap:round; stroke-linejoin:round;fill-rule:evenodd;"
d="M 6982,4946
6986,4948
6991,4950
6995,4953
6998,4957
7000,4962
7002,4966
7002,4972
7002,5073
7002,5079
7000,5084
6998,5088
6995,5092
6991,5095
6986,5098
6982,5099
6976,5100
6887,5100
6881,5099
6876,5098
6872,5095
6868,5092
6865,5088
6862,5084
6861,5079
6860,5073
6860,4972
6861,4966
6862,4962
6865,4957
6868,4953
6872,4950
6876,4948
6881,4946
6887,4946
6976,4946
6982,4946
Z" /> 
<path style="fill:#840084; fill-opacity:1.0; 
stroke:#840084; stroke-width:0; stroke-opacity:1; 
stroke-linecap:round; stroke-linejoin:round;fill-rule:evenodd;"
d="M 6765,4946
6770,4948
6774,4950
6778,4953
6781,4957
6784,4962
6785,4966
6786,4972
6786,5073
6785,5079
6784,5084
6781,5088
6778,5092
6774,5095
6770,5098
6765,5099
6759,5100
6670,5100
6664,5099
6659,5098
6655,5095
6651,5092
6648,5088
6646,5084
6644,5079
6644,5073
6644,4972
6644,4966
6646,4962
6648,4957
6651,4953
6655,4950
6659,4948
6664,4946
6670,4946
6759,4946
6765,4946
Z" /> 
<path style="fill:#840084; fill-opacity:1.0; 
stroke:#840084; stroke-width:0; stroke-opacity:1; 
stroke-linecap:round; stroke-linejoin:round;fill-rule:evenodd;"
d="M 6345,4946
6350,4948
6354,4950
6358,4953
6361,4957
6364,4962
6365,4966
6366,4972
6366,5073
6365,5079
6364,5084
6361,5088
6358,5092
6354,5095
6350,5098
6345,5099
6339,5100
6250,5100
6244,5099
6239,5098
6235,5095
6231,5092
6228,5088
6226,5084
6224,5079
6224,5073
6224,4972
6224,4966
6226,4962
6228,4957
6231,4953
6235,4950
6239,4948
6244,4946
6250,4946
6339,4946
6345,4946
Z" /> 
<path style="fill:#840084; fill-opacity:1.0; 
stroke:#840084; stroke-width:0; stroke-opacity:1; 
stroke-linecap:round; stroke-linejoin:round;fill-rule:evenodd;"
d="M 5789,4954
5794,4955
5798,4958
5802,4961
5805,4965
5808,4969
5809,4974
5810,4980
5810,5069
5809,5075
5808,5080
5805,5084
5802,5088
5798,5091
5794,5093
5789,5095
5783,5095
5682,5095
5677,5095
5672,5093
5667,5091
5663,5088
5660,5084
5658,5080
5657,5075
5656,5069
5656,4980
5657,4974
5658,4969
5660,4965
5663,4961
5667,4958
5672,4955
5677,4954
5682,4953
5783,4953
5789,4954
Z" /> 
<path style="fill:#840084; fill-opacity:1.0; 
stroke:#840084; stroke-width:0; stroke-opacity:1; 
stroke-linecap:round; stroke-linejoin:round;fill-rule:evenodd;"
d="M 7179,4944
7184,4945
7188,4948
7192,4951
7195,4955
7198,4959
7199,4962
7200,4966
7202,4969
7205,4972
7208,4974
7212,4976
7216,4976
7220,4976
7224,4976
7227,4974
7231,4972
7233,4969
7236,4966
7237,4962
7238,4959
7240,4955
7243,4951
7247,4948
7252,4945
7257,4944
7262,4943
7363,4943
7369,4944
7374,4945
7378,4948
7382,4951
7385,4955
7388,4959
7389,4964
7390,4970
7390,5059
7389,5065
7388,5070
7385,5074
7382,5078
7378,5081
7374,5083
7369,5085
7363,5085
7262,5085
7257,5085
7252,5083
7247,5081
7243,5078
7240,5074
7238,5070
7237,5066
7236,5063
7233,5060
7231,5057
7227,5055
7224,5053
7220,5052
7216,5052
7212,5053
7208,5055
7205,5057
7202,5060
7200,5063
7199,5066
7198,5070
7195,5074
7192,5078
7188,5081
7184,5083
7179,5085
7173,5085
7072,5085
7067,5085
7062,5083
7057,5081
7053,5078
7050,5074
7048,5070
7047,5065
7046,5059
7046,4970
7047,4964
7048,4959
7050,4955
7053,4951
7057,4948
7062,4945
7067,4944
7072,4943
7173,4943
7179,4944
Z" /> 
<path style="fill:#840084; fill-opacity:1.0; 
stroke:#840084; stroke-width:0; stroke-opacity:1; 
stroke-linecap:round; stroke-linejoin:round;fill-rule:evenodd;"
d="M 4595,4926
4600,4928
4604,4930
4608,4933
4611,4937
4614,4942
4615,4946
4616,4952
4616,5053
4615,5059
4614,5064
4611,5068
4608,5072
4604,5075
4600,5078
4595,5079
4589,5080
4500,5080
4494,5079
4489,5078
4485,5075
4481,5072
4478,5068
4476,5064
4474,5059
4474,5053
4474,4952
4474,4946
4476,4942
4478,4937
4481,4933
4485,4930
4489,4928
4494,4926
4500,4926
4589,4926
4595,4926
Z" /> 
<path style="fill:#840084; fill-opacity:1.0; 
stroke:#840084; stroke-width:0; stroke-opacity:1; 
stroke-linecap:round; stroke-linejoin:round;fill-rule:evenodd;"
d="M 5035,4926
5040,4928
5044,4930
5048,4933
5051,4937
5054,4942
5055,4946
5056,4952
5056,5053
5055,5059
5054,5064
5051,5068
5048,5072
5044,5075
5040,5078
5035,5079
5029,5080
4940,5080
4934,5079
4929,5078
4925,5075
4921,5072
4918,5068
4916,5064
4914,5059
4914,5053
4914,4952
4914,4946
4916,4942
4918,4937
4921,4933
4925,4930
4929,4928
4934,4926
4940,4926
5029,4926
5035,4926
Z" /> 
<path style="fill:#840084; fill-opacity:1.0; 
stroke:#840084; stroke-width:0; stroke-opacity:1; 
stroke-linecap:round; stroke-linejoin:round;fill-rule:evenodd;"
d="M 4812,4926
4816,4928
4821,4930
4825,4933
4828,4937
4830,4942
4832,4946
4832,4952
4832,5053
4832,5059
4830,5064
4828,5068
4825,5072
4821,5075
4816,5078
4812,5079
4806,5080
4717,5080
4711,5079
4706,5078
4702,5075
4698,5072
4695,5068
4692,5064
4691,5059
4690,5053
4690,4952
4691,4946
4692,4942
4695,4937
4698,4933
4702,4930
4706,4928
4711,4926
4717,4926
4806,4926
4812,4926
Z" /> 
<path style="fill:#840084; fill-opacity:1.0; 
stroke:#840084; stroke-width:0; stroke-opacity:1; 
stroke-linecap:round; stroke-linejoin:round;fill-rule:evenodd;"
d="M 5252,4926
5256,4928
5261,4930
5265,4933
5268,4937
5270,4942
5272,4946
5272,4952
5272,5053
5272,5059
5270,5064
5268,5068
5265,5072
5261,5075
5256,5078
5252,5079
5246,5080
5157,5080
5151,5079
5146,5078
5142,5075
5138,5072
5135,5068
5132,5064
5131,5059
5130,5053
5130,4952
5131,4946
5132,4942
5135,4937
5138,4933
5142,4930
5146,4928
5151,4926
5157,4926
5246,4926
5252,4926
Z" /> 
<path style="fill:#840084; fill-opacity:1.0; 
stroke:#840084; stroke-width:0; stroke-opacity:1; 
stroke-linecap:round; stroke-linejoin:round;fill-rule:evenodd;"
d="M 5789,4740
5794,4742
5798,4744
5802,4747
5805,4751
5808,4756
5809,4760
5810,4766
5810,4855
5809,4861
5808,4866
5805,4871
5802,4874
5798,4878
5794,4880
5789,4881
5783,4882
5682,4882
5677,4881
5672,4880
5667,4878
5663,4874
5660,4871
5658,4866
5657,4861
5656,4855
5656,4766
5657,4760
5658,4756
5660,4751
5663,4747
5667,4744
5672,4742
5677,4740
5682,4740
5783,4740
5789,4740
Z" /> 
<path style="fill:#840084; fill-opacity:1.0; 
stroke:#840084; stroke-width:0; stroke-opacity:1; 
stroke-linecap:round; stroke-linejoin:round;fill-rule:evenodd;"
d="M 6693,4473
6709,4478
6723,4486
6736,4496
6746,4508
6754,4523
6758,4538
6760,4555
6760,4770
6758,4787
6754,4803
6746,4817
6736,4829
6723,4840
6709,4847
6693,4852
6676,4854
6473,4854
6456,4852
6441,4847
6426,4840
6414,4829
6404,4817
6396,4803
6391,4787
6390,4770
6390,4555
6391,4538
6396,4523
6404,4508
6414,4496
6426,4486
6441,4478
6456,4473
6473,4472
6676,4472
6693,4473
Z" /> 
<path style="fill:#840084; fill-opacity:1.0; 
stroke:#840084; stroke-width:0; stroke-opacity:1; 
stroke-linecap:round; stroke-linejoin:round;fill-rule:evenodd;"
d="M 6170,4473
6185,4478
6200,4486
6212,4496
6222,4508
6230,4523
6235,4538
6236,4555
6236,4770
6235,4787
6230,4803
6222,4817
6212,4829
6200,4840
6185,4847
6170,4852
6153,4854
5949,4854
5932,4852
5917,4847
5903,4840
5890,4829
5880,4817
5872,4803
5868,4787
5866,4770
5866,4555
5868,4538
5872,4523
5880,4508
5890,4496
5903,4486
5917,4478
5932,4473
5949,4472
6153,4472
6170,4473
Z" /> 
<path style="fill:#840084; fill-opacity:1.0; 
stroke:#840084; stroke-width:0; stroke-opacity:1; 
stroke-linecap:round; stroke-linejoin:round;fill-rule:evenodd;"
d="M 7134,4483
7148,4487
7161,4494
7173,4503
7182,4515
7189,4528
7193,4542
7195,4557
7195,4768
7193,4784
7189,4798
7182,4811
7173,4822
7161,4831
7148,4838
7134,4842
7119,4844
6931,4844
6916,4842
6902,4838
6889,4831
6878,4822
6868,4811
6861,4798
6857,4784
6856,4768
6856,4557
6857,4542
6861,4528
6868,4515
6878,4503
6889,4494
6902,4487
6916,4483
6931,4481
7119,4481
7134,4483
Z" /> 
<path style="fill:#840084; fill-opacity:1.0; 
stroke:#840084; stroke-width:0; stroke-opacity:1; 
stroke-linecap:round; stroke-linejoin:round;fill-rule:evenodd;"
d="M 7670,4483
7684,4487
7697,4494
7708,4503
7717,4515
7724,4528
7729,4542
7730,4557
7730,4768
7729,4784
7724,4798
7717,4811
7708,4822
7697,4831
7684,4838
7670,4842
7654,4844
7467,4844
7451,4842
7437,4838
7424,4831
7413,4822
7404,4811
7397,4798
7393,4784
7391,4768
7391,4557
7393,4542
7397,4528
7404,4515
7413,4503
7424,4494
7437,4487
7451,4483
7467,4481
7654,4481
7670,4483
Z" /> 
<path style="fill:#840084; fill-opacity:1.0; 
stroke:#840084; stroke-width:0; stroke-opacity:1; 
stroke-linecap:round; stroke-linejoin:round;fill-rule:evenodd;"
d="M 4860,4815
4450,4815
4450,4662
4860,4662
4860,4815
Z" /> 
<path style="fill:#840084; fill-opacity:1.0; 
stroke:#840084; stroke-width:0; stroke-opacity:1; 
stroke-linecap:round; stroke-linejoin:round;fill-rule:evenodd;"
d="M 5576,4815
5166,4815
5166,4662
5576,4662
5576,4815
Z" /> 
<path style="fill:#840084; fill-opacity:1.0; 
stroke:#840084; stroke-width:0; stroke-opacity:1; 
stroke-linecap:round; stroke-linejoin:round;fill-rule:evenodd;"
d="M 5789,4524
5794,4525
5798,4528
5802,4531
5805,4535
5808,4539
5809,4544
5810,4550
5810,4639
5809,4645
5808,4650
5805,4654
5802,4658
5798,4661
5794,4663
5789,4665
5783,4665
5682,4665
5677,4665
5672,4663
5667,4661
5663,4658
5660,4654
5658,4650
5657,4645
5656,4639
5656,4550
5657,4544
5658,4539
5660,4535
5663,4531
5667,4528
5672,4525
5677,4524
5682,4523
5783,4523
5789,4524
Z" /> 
<path style="fill:#840084; fill-opacity:1.0; 
stroke:#840084; stroke-width:0; stroke-opacity:1; 
stroke-linecap:round; stroke-linejoin:round;fill-rule:evenodd;"
d="M 5576,4560
5166,4560
5166,4406
5576,4406
5576,4560
Z" /> 
<path style="fill:#840084; fill-opacity:1.0; 
stroke:#840084; stroke-width:0; stroke-opacity:1; 
stroke-linecap:round; stroke-linejoin:round;fill-rule:evenodd;"
d="M 5789,4310
5794,4312
5798,4314
5802,4317
5805,4321
5808,4326
5809,4330
5810,4336
5810,4425
5809,4431
5808,4436
5805,4441
5802,4444
5798,4448
5794,4450
5789,4451
5783,4452
5682,4452
5677,4451
5672,4450
5667,4448
5663,4444
5660,4441
5658,4436
5657,4431
5656,4425
5656,4336
5657,4330
5658,4326
5660,4321
5663,4317
5667,4314
5672,4312
5677,4310
5682,4310
5783,4310
5789,4310
Z" /> 
<path style="fill:#840084; fill-opacity:1.0; 
stroke:#840084; stroke-width:0; stroke-opacity:1; 
stroke-linecap:round; stroke-linejoin:round;fill-rule:evenodd;"
d="M 6890,4385
6760,4385
6760,4160
6890,4160
6890,4385
Z" /> 
<path style="fill:#840084; fill-opacity:1.0; 
stroke:#840084; stroke-width:0; stroke-opacity:1; 
stroke-linecap:round; stroke-linejoin:round;fill-rule:evenodd;"
d="M 7146,4385
7016,4385
7016,4298
7146,4298
7146,4385
Z" /> 
<path style="fill:#840084; fill-opacity:1.0; 
stroke:#840084; stroke-width:0; stroke-opacity:1; 
stroke-linecap:round; stroke-linejoin:round;fill-rule:evenodd;"
d="M 6617,4074
6627,4077
6636,4081
6644,4088
6651,4096
6656,4105
6659,4115
6660,4126
6660,4290
6659,4302
6656,4312
6651,4321
6644,4329
6636,4335
6627,4340
6617,4343
6606,4344
6462,4344
6450,4343
6440,4340
6431,4335
6423,4329
6417,4321
6412,4312
6409,4302
6408,4290
6408,4126
6409,4115
6412,4105
6417,4096
6423,4088
6431,4081
6440,4077
6450,4074
6462,4072
6606,4072
6617,4074
Z" /> 
<path style="fill:#840084; fill-opacity:1.0; 
stroke:#840084; stroke-width:0; stroke-opacity:1; 
stroke-linecap:round; stroke-linejoin:round;fill-rule:evenodd;"
d="M 6235,4074
6245,4077
6254,4081
6262,4088
6269,4096
6274,4105
6277,4115
6278,4126
6278,4290
6277,4302
6274,4312
6269,4321
6262,4329
6254,4335
6245,4340
6235,4343
6224,4344
6080,4344
6069,4343
6059,4340
6049,4335
6041,4329
6035,4321
6030,4312
6027,4302
6026,4290
6026,4126
6027,4115
6030,4105
6035,4096
6041,4088
6049,4081
6059,4077
6069,4074
6080,4072
6224,4072
6235,4074
Z" /> 
<path style="fill:#840084; fill-opacity:1.0; 
stroke:#840084; stroke-width:0; stroke-opacity:1; 
stroke-linecap:round; stroke-linejoin:round;fill-rule:evenodd;"
d="M 5576,4304
5166,4304
5166,4150
5576,4150
5576,4304
Z" /> 
<path style="fill:#840084; fill-opacity:1.0; 
stroke:#840084; stroke-width:0; stroke-opacity:1; 
stroke-linecap:round; stroke-linejoin:round;fill-rule:evenodd;"
d="M 4860,4304
4450,4304
4450,4150
4860,4150
4860,4304
Z" /> 
<path style="fill:#840084; fill-opacity:1.0; 
stroke:#840084; stroke-width:0; stroke-opacity:1; 
stroke-linecap:round; stroke-linejoin:round;fill-rule:evenodd;"
d="M 7565,4146
7570,4148
7574,4150
7578,4153
7581,4157
7584,4162
7585,4166
7586,4172
7586,4273
7585,4279
7584,4284
7581,4288
7578,4292
7574,4295
7570,4298
7565,4299
7559,4300
7470,4300
7464,4299
7459,4298
7455,4295
7451,4292
7448,4288
7446,4284
7444,4279
7444,4273
7444,4172
7444,4166
7446,4162
7448,4157
7451,4153
7455,4150
7459,4148
7464,4146
7470,4146
7559,4146
7565,4146
Z" /> 
<path style="fill:#840084; fill-opacity:1.0; 
stroke:#840084; stroke-width:0; stroke-opacity:1; 
stroke-linecap:round; stroke-linejoin:round;fill-rule:evenodd;"
d="M 7782,4146
7786,4148
7791,4150
7795,4153
7798,4157
7800,4162
7802,4166
7802,4172
7802,4273
7802,4279
7800,4284
7798,4288
7795,4292
7791,4295
7786,4298
7782,4299
7776,4300
7687,4300
7681,4299
7676,4298
7672,4295
7668,4292
7665,4288
7662,4284
7661,4279
7660,4273
7660,4172
7661,4166
7662,4162
7665,4157
7668,4153
7672,4150
7676,4148
7681,4146
7687,4146
7776,4146
7782,4146
Z" /> 
<path style="fill:#840084; fill-opacity:1.0; 
stroke:#840084; stroke-width:0; stroke-opacity:1; 
stroke-linecap:round; stroke-linejoin:round;fill-rule:evenodd;"
d="M 7146,4247
7016,4247
7016,4160
7146,4160
7146,4247
Z" /> 
<path style="fill:#840084; fill-opacity:1.0; 
stroke:#840084; stroke-width:0; stroke-opacity:1; 
stroke-linecap:round; stroke-linejoin:round;fill-rule:evenodd;"
d="M 5789,4094
5794,4095
5798,4098
5802,4101
5805,4105
5808,4109
5809,4114
5810,4120
5810,4209
5809,4215
5808,4220
5805,4224
5802,4228
5798,4231
5794,4233
5789,4235
5783,4235
5682,4235
5677,4235
5672,4233
5667,4231
5663,4228
5660,4224
5658,4220
5657,4215
5656,4209
5656,4120
5657,4114
5658,4109
5660,4105
5663,4101
5667,4098
5672,4095
5677,4094
5682,4093
5783,4093
5789,4094
Z" /> 
</g>
<g style="fill:#000000; fill-opacity:1.0; 
stroke:#000000; stroke-width:0; stroke-opacity:1; 
stroke-linecap:round; stroke-linejoin:round;">
</g>
<g style="fill:#C2C200; fill-opacity:1.0; 
stroke:#C2C200; stroke-width:0; stroke-opacity:1; 
stroke-linecap:round; stroke-linejoin:round;">
</g>
<g style="fill:#C2C200; fill-opacity:1.0; 
stroke:#C2C200; stroke-width:19.685; stroke-opacity:1; 
stroke-linecap:round; stroke-linejoin:round;">
</g>
<g style="fill:#C2C200; fill-opacity:0.0; 
stroke:#C2C200; stroke-width:19.685; stroke-opacity:1; 
stroke-linecap:round; stroke-linejoin:round;">
<path d="M7509 3774
L5147 3774
" />
<path d="M8297 7317
L8297 4168
" />
<path d="M8297 7514
L4360 7514
" />
<path d="M8297 3774
L7509 3774
" />
<path d="M8297 3774
L8297 4168
" />
<path d="M8297 7317
L8297 7514
" />
<path d="M5147 3774
L4360 3774
" />
<path d="M4360 7514
L4360 3774
" />
<g >
</g>
<g >
</g>
<g >
</g>
<g >
</g>
<g >
</g>
<g >
</g>
<g >
</g>
<g >
</g>
<g >
</g>
<g >
</g>
<g >
</g>
<g >
</g>
<g >
</g>
<g >
</g>
<g >
</g>
<g >
</g>
<g >
</g>
<g >
</g>
<g >
</g>
<g >
</g>
<g >
</g>
<g >
</g>
<g >
</g>
<g >
</g>
<g >
</g>
<g >
</g>
<g >
</g>
<g >
</g>
<g >
</g>
<g >
</g>
<g >
</g>
</g> 
</svg>
