G04 #@! TF.GenerationSoftware,KiCad,Pcbnew,(5.1.0)-1*
G04 #@! TF.CreationDate,2019-05-02T20:00:12-07:00*
G04 #@! TF.ProjectId,MS_v4_ETL_LED_Driver,4d535f76-345f-4455-944c-5f4c45445f44,rev?*
G04 #@! TF.SameCoordinates,PXcab368PY16aeb08*
G04 #@! TF.FileFunction,Copper,L5,Inr*
G04 #@! TF.FilePolarity,Positive*
%FSLAX46Y46*%
G04 Gerber Fmt 4.6, Leading zero omitted, Abs format (unit mm)*
G04 Created by KiCad (PCBNEW (5.1.0)-1) date 2019-05-02 20:00:12*
%MOMM*%
%LPD*%
G04 APERTURE LIST*
%ADD10C,0.450000*%
%ADD11C,0.152400*%
G04 APERTURE END LIST*
D10*
X4521200Y2956200D03*
X4521200Y1686200D03*
X3454400Y10017400D03*
X3886206Y4175400D03*
X4521200Y492400D03*
X-482600Y5293000D03*
X2260600Y5242200D03*
X4089400Y8493400D03*
X4258300Y6563000D03*
X4521200Y3540400D03*
X4521200Y2295800D03*
X685801Y4420500D03*
X2844800Y8468000D03*
X127000Y4810400D03*
X4470400Y4175400D03*
X3073400Y3819800D03*
X1752600Y9308000D03*
X482600Y492400D03*
X127000Y6740800D03*
X3911600Y6994800D03*
X889000Y6842400D03*
X1473200Y8112400D03*
X1447800Y10017400D03*
X-482600Y6258200D03*
X2641600Y5674000D03*
X1041400Y492400D03*
X127000Y5775600D03*
X3708400Y6436000D03*
X482600Y3134000D03*
D11*
G36*
X892600Y10072082D02*
G01*
X892600Y9962718D01*
X913936Y9855454D01*
X955788Y9754414D01*
X1016548Y9663481D01*
X1093881Y9586148D01*
X1184814Y9525388D01*
X1285854Y9483536D01*
X1393118Y9462200D01*
X1502482Y9462200D01*
X1609746Y9483536D01*
X1710786Y9525388D01*
X1801719Y9586148D01*
X1879052Y9663481D01*
X1939812Y9754414D01*
X1981664Y9855454D01*
X2003000Y9962718D01*
X2003000Y10072082D01*
X1988615Y10144400D01*
X2913585Y10144400D01*
X2899200Y10072082D01*
X2899200Y9962718D01*
X2920536Y9855454D01*
X2962388Y9754414D01*
X3023148Y9663481D01*
X3100481Y9586148D01*
X3191414Y9525388D01*
X3292454Y9483536D01*
X3399718Y9462200D01*
X3509082Y9462200D01*
X3616346Y9483536D01*
X3717386Y9525388D01*
X3808319Y9586148D01*
X3885652Y9663481D01*
X3946412Y9754414D01*
X3988264Y9855454D01*
X4009600Y9962718D01*
X4009600Y10072082D01*
X3995215Y10144400D01*
X4644401Y10144400D01*
X4644400Y8549086D01*
X4623264Y8655346D01*
X4581412Y8756386D01*
X4520652Y8847319D01*
X4443319Y8924652D01*
X4352386Y8985412D01*
X4251346Y9027264D01*
X4144082Y9048600D01*
X4034718Y9048600D01*
X3927454Y9027264D01*
X3826414Y8985412D01*
X3735481Y8924652D01*
X3658148Y8847319D01*
X3597388Y8756386D01*
X3555536Y8655346D01*
X3534200Y8548082D01*
X3534200Y8438718D01*
X3555536Y8331454D01*
X3597388Y8230414D01*
X3658148Y8139481D01*
X3735481Y8062148D01*
X3826414Y8001388D01*
X3927454Y7959536D01*
X4034718Y7938200D01*
X4144082Y7938200D01*
X4251346Y7959536D01*
X4352386Y8001388D01*
X4443319Y8062148D01*
X4520652Y8139481D01*
X4581412Y8230414D01*
X4623264Y8331454D01*
X4644400Y8437714D01*
X4644400Y7482538D01*
X4644401Y7482528D01*
X4644401Y6962070D01*
X4612219Y6994252D01*
X4521286Y7055012D01*
X4460709Y7080104D01*
X4445464Y7156746D01*
X4403612Y7257786D01*
X4342852Y7348719D01*
X4265519Y7426052D01*
X4174586Y7486812D01*
X4073546Y7528664D01*
X3966282Y7550000D01*
X3856918Y7550000D01*
X3749654Y7528664D01*
X3648614Y7486812D01*
X3557681Y7426052D01*
X3480348Y7348719D01*
X3419588Y7257786D01*
X3377736Y7156746D01*
X3356400Y7049482D01*
X3356400Y6940118D01*
X3368968Y6876932D01*
X3354481Y6867252D01*
X3277148Y6789919D01*
X3216388Y6698986D01*
X3174536Y6597946D01*
X3153200Y6490682D01*
X3153200Y6381318D01*
X3174536Y6274054D01*
X3216388Y6173014D01*
X3277148Y6082081D01*
X3354481Y6004748D01*
X3445414Y5943988D01*
X3546454Y5902136D01*
X3653718Y5880800D01*
X3763082Y5880800D01*
X3870346Y5902136D01*
X3971386Y5943988D01*
X4062319Y6004748D01*
X4089533Y6031962D01*
X4096354Y6029136D01*
X4203618Y6007800D01*
X4312982Y6007800D01*
X4420246Y6029136D01*
X4521286Y6070988D01*
X4612219Y6131748D01*
X4644401Y6163930D01*
X4644401Y4081971D01*
X4575882Y4095600D01*
X4466518Y4095600D01*
X4435169Y4089364D01*
X4441406Y4120718D01*
X4441406Y4230082D01*
X4420070Y4337346D01*
X4378218Y4438386D01*
X4317458Y4529319D01*
X4240125Y4606652D01*
X4149192Y4667412D01*
X4048152Y4709264D01*
X3940888Y4730600D01*
X3831524Y4730600D01*
X3724260Y4709264D01*
X3623220Y4667412D01*
X3532287Y4606652D01*
X3454954Y4529319D01*
X3394194Y4438386D01*
X3352342Y4337346D01*
X3331006Y4230082D01*
X3331006Y4120718D01*
X3352342Y4013454D01*
X3394194Y3912414D01*
X3454954Y3821481D01*
X3532287Y3744148D01*
X3623220Y3683388D01*
X3724260Y3641536D01*
X3831524Y3620200D01*
X3940888Y3620200D01*
X3972237Y3626436D01*
X3966000Y3595082D01*
X3966000Y3485718D01*
X3987336Y3378454D01*
X4029188Y3277414D01*
X4048642Y3248300D01*
X4029188Y3219186D01*
X3987336Y3118146D01*
X3966000Y3010882D01*
X3966000Y2901518D01*
X3987336Y2794254D01*
X4029188Y2693214D01*
X4074099Y2626000D01*
X4029188Y2558786D01*
X3987336Y2457746D01*
X3966000Y2350482D01*
X3966000Y2241118D01*
X3987336Y2133854D01*
X4029188Y2032814D01*
X4057127Y1991000D01*
X4029188Y1949186D01*
X3987336Y1848146D01*
X3966000Y1740882D01*
X3966000Y1631518D01*
X3987336Y1524254D01*
X4029188Y1423214D01*
X4089948Y1332281D01*
X4167281Y1254948D01*
X4258214Y1194188D01*
X4359254Y1152336D01*
X4466518Y1131000D01*
X4575882Y1131000D01*
X4644400Y1144629D01*
X4644400Y1033971D01*
X4575882Y1047600D01*
X4466518Y1047600D01*
X4359254Y1026264D01*
X4258214Y984412D01*
X4167281Y923652D01*
X4089948Y846319D01*
X4029188Y755386D01*
X3987336Y654346D01*
X3966000Y547082D01*
X3966000Y437718D01*
X3982334Y355600D01*
X1580266Y355600D01*
X1596600Y437718D01*
X1596600Y547082D01*
X1575264Y654346D01*
X1533412Y755386D01*
X1472652Y846319D01*
X1395319Y923652D01*
X1304386Y984412D01*
X1203346Y1026264D01*
X1096082Y1047600D01*
X986718Y1047600D01*
X879454Y1026264D01*
X778414Y984412D01*
X687481Y923652D01*
X610148Y846319D01*
X549388Y755386D01*
X507536Y654346D01*
X486200Y547082D01*
X486200Y437718D01*
X502534Y355600D01*
X355600Y355600D01*
X355600Y2593185D01*
X427918Y2578800D01*
X537282Y2578800D01*
X644546Y2600136D01*
X745586Y2641988D01*
X836519Y2702748D01*
X913852Y2780081D01*
X974612Y2871014D01*
X1016464Y2972054D01*
X1037800Y3079318D01*
X1037800Y3188682D01*
X1016464Y3295946D01*
X974612Y3396986D01*
X913852Y3487919D01*
X836519Y3565252D01*
X745586Y3626012D01*
X644546Y3667864D01*
X537282Y3689200D01*
X427918Y3689200D01*
X355600Y3674815D01*
X355600Y3973400D01*
X422815Y3928488D01*
X523855Y3886636D01*
X631119Y3865300D01*
X740483Y3865300D01*
X847747Y3886636D01*
X948787Y3928488D01*
X1039720Y3989248D01*
X1117053Y4066581D01*
X1177813Y4157514D01*
X1219665Y4258554D01*
X1241001Y4365818D01*
X1241001Y4475182D01*
X1219665Y4582446D01*
X1177813Y4683486D01*
X1117053Y4774419D01*
X1039720Y4851752D01*
X948787Y4912512D01*
X847747Y4954364D01*
X740483Y4975700D01*
X631119Y4975700D01*
X523855Y4954364D01*
X422815Y4912512D01*
X331882Y4851752D01*
X254549Y4774419D01*
X193789Y4683486D01*
X151937Y4582446D01*
X130601Y4475182D01*
X130601Y4372293D01*
X-275108Y4778002D01*
X-219614Y4800988D01*
X-128681Y4861748D01*
X-51348Y4939081D01*
X9412Y5030014D01*
X51264Y5131054D01*
X69161Y5221028D01*
X72318Y5220400D01*
X181682Y5220400D01*
X288946Y5241736D01*
X389986Y5283588D01*
X409881Y5296882D01*
X1705400Y5296882D01*
X1705400Y5187518D01*
X1726736Y5080254D01*
X1768588Y4979214D01*
X1829348Y4888281D01*
X1906681Y4810948D01*
X1997614Y4750188D01*
X2098654Y4708336D01*
X2205918Y4687000D01*
X2315282Y4687000D01*
X2422546Y4708336D01*
X2523586Y4750188D01*
X2614519Y4810948D01*
X2691852Y4888281D01*
X2752612Y4979214D01*
X2794464Y5080254D01*
X2806629Y5141413D01*
X2904586Y5181988D01*
X2995519Y5242748D01*
X3072852Y5320081D01*
X3133612Y5411014D01*
X3175464Y5512054D01*
X3196800Y5619318D01*
X3196800Y5728682D01*
X3175464Y5835946D01*
X3133612Y5936986D01*
X3072852Y6027919D01*
X2995519Y6105252D01*
X2904586Y6166012D01*
X2803546Y6207864D01*
X2696282Y6229200D01*
X2586918Y6229200D01*
X2479654Y6207864D01*
X2378614Y6166012D01*
X2287681Y6105252D01*
X2210348Y6027919D01*
X2149588Y5936986D01*
X2107736Y5835946D01*
X2095571Y5774787D01*
X1997614Y5734212D01*
X1906681Y5673452D01*
X1829348Y5596119D01*
X1768588Y5505186D01*
X1726736Y5404146D01*
X1705400Y5296882D01*
X409881Y5296882D01*
X480919Y5344348D01*
X558252Y5421681D01*
X619012Y5512614D01*
X660864Y5613654D01*
X682200Y5720918D01*
X682200Y5830282D01*
X660864Y5937546D01*
X619012Y6038586D01*
X558252Y6129519D01*
X480919Y6206852D01*
X404072Y6258200D01*
X480919Y6309548D01*
X558252Y6386881D01*
X562310Y6392954D01*
X626014Y6350388D01*
X727054Y6308536D01*
X834318Y6287200D01*
X943682Y6287200D01*
X1050946Y6308536D01*
X1151986Y6350388D01*
X1242919Y6411148D01*
X1320252Y6488481D01*
X1381012Y6579414D01*
X1422864Y6680454D01*
X1444200Y6787718D01*
X1444200Y6897082D01*
X1422864Y7004346D01*
X1381012Y7105386D01*
X1320252Y7196319D01*
X1242919Y7273652D01*
X1151986Y7334412D01*
X1050946Y7376264D01*
X943682Y7397600D01*
X834318Y7397600D01*
X727054Y7376264D01*
X626014Y7334412D01*
X535081Y7273652D01*
X457748Y7196319D01*
X453690Y7190246D01*
X389986Y7232812D01*
X288946Y7274664D01*
X277035Y7277033D01*
X297101Y7301484D01*
X330121Y7363260D01*
X350454Y7430290D01*
X355600Y7482537D01*
X355600Y7482545D01*
X357319Y7500000D01*
X355600Y7517455D01*
X355600Y8167082D01*
X918000Y8167082D01*
X918000Y8057718D01*
X939336Y7950454D01*
X981188Y7849414D01*
X1041948Y7758481D01*
X1119281Y7681148D01*
X1210214Y7620388D01*
X1311254Y7578536D01*
X1418518Y7557200D01*
X1527882Y7557200D01*
X1635146Y7578536D01*
X1736186Y7620388D01*
X1827119Y7681148D01*
X1904452Y7758481D01*
X1965212Y7849414D01*
X2007064Y7950454D01*
X2028400Y8057718D01*
X2028400Y8167082D01*
X2007064Y8274346D01*
X1965212Y8375386D01*
X1904452Y8466319D01*
X1848089Y8522682D01*
X2289600Y8522682D01*
X2289600Y8413318D01*
X2310936Y8306054D01*
X2352788Y8205014D01*
X2413548Y8114081D01*
X2490881Y8036748D01*
X2581814Y7975988D01*
X2682854Y7934136D01*
X2790118Y7912800D01*
X2899482Y7912800D01*
X3006746Y7934136D01*
X3107786Y7975988D01*
X3198719Y8036748D01*
X3276052Y8114081D01*
X3336812Y8205014D01*
X3378664Y8306054D01*
X3400000Y8413318D01*
X3400000Y8522682D01*
X3378664Y8629946D01*
X3336812Y8730986D01*
X3276052Y8821919D01*
X3198719Y8899252D01*
X3107786Y8960012D01*
X3006746Y9001864D01*
X2899482Y9023200D01*
X2790118Y9023200D01*
X2682854Y9001864D01*
X2581814Y8960012D01*
X2490881Y8899252D01*
X2413548Y8821919D01*
X2352788Y8730986D01*
X2310936Y8629946D01*
X2289600Y8522682D01*
X1848089Y8522682D01*
X1827119Y8543652D01*
X1736186Y8604412D01*
X1635146Y8646264D01*
X1527882Y8667600D01*
X1418518Y8667600D01*
X1311254Y8646264D01*
X1210214Y8604412D01*
X1119281Y8543652D01*
X1041948Y8466319D01*
X981188Y8375386D01*
X939336Y8274346D01*
X918000Y8167082D01*
X355600Y8167082D01*
X355600Y10144400D01*
X906985Y10144400D01*
X892600Y10072082D01*
X892600Y10072082D01*
G37*
X892600Y10072082D02*
X892600Y9962718D01*
X913936Y9855454D01*
X955788Y9754414D01*
X1016548Y9663481D01*
X1093881Y9586148D01*
X1184814Y9525388D01*
X1285854Y9483536D01*
X1393118Y9462200D01*
X1502482Y9462200D01*
X1609746Y9483536D01*
X1710786Y9525388D01*
X1801719Y9586148D01*
X1879052Y9663481D01*
X1939812Y9754414D01*
X1981664Y9855454D01*
X2003000Y9962718D01*
X2003000Y10072082D01*
X1988615Y10144400D01*
X2913585Y10144400D01*
X2899200Y10072082D01*
X2899200Y9962718D01*
X2920536Y9855454D01*
X2962388Y9754414D01*
X3023148Y9663481D01*
X3100481Y9586148D01*
X3191414Y9525388D01*
X3292454Y9483536D01*
X3399718Y9462200D01*
X3509082Y9462200D01*
X3616346Y9483536D01*
X3717386Y9525388D01*
X3808319Y9586148D01*
X3885652Y9663481D01*
X3946412Y9754414D01*
X3988264Y9855454D01*
X4009600Y9962718D01*
X4009600Y10072082D01*
X3995215Y10144400D01*
X4644401Y10144400D01*
X4644400Y8549086D01*
X4623264Y8655346D01*
X4581412Y8756386D01*
X4520652Y8847319D01*
X4443319Y8924652D01*
X4352386Y8985412D01*
X4251346Y9027264D01*
X4144082Y9048600D01*
X4034718Y9048600D01*
X3927454Y9027264D01*
X3826414Y8985412D01*
X3735481Y8924652D01*
X3658148Y8847319D01*
X3597388Y8756386D01*
X3555536Y8655346D01*
X3534200Y8548082D01*
X3534200Y8438718D01*
X3555536Y8331454D01*
X3597388Y8230414D01*
X3658148Y8139481D01*
X3735481Y8062148D01*
X3826414Y8001388D01*
X3927454Y7959536D01*
X4034718Y7938200D01*
X4144082Y7938200D01*
X4251346Y7959536D01*
X4352386Y8001388D01*
X4443319Y8062148D01*
X4520652Y8139481D01*
X4581412Y8230414D01*
X4623264Y8331454D01*
X4644400Y8437714D01*
X4644400Y7482538D01*
X4644401Y7482528D01*
X4644401Y6962070D01*
X4612219Y6994252D01*
X4521286Y7055012D01*
X4460709Y7080104D01*
X4445464Y7156746D01*
X4403612Y7257786D01*
X4342852Y7348719D01*
X4265519Y7426052D01*
X4174586Y7486812D01*
X4073546Y7528664D01*
X3966282Y7550000D01*
X3856918Y7550000D01*
X3749654Y7528664D01*
X3648614Y7486812D01*
X3557681Y7426052D01*
X3480348Y7348719D01*
X3419588Y7257786D01*
X3377736Y7156746D01*
X3356400Y7049482D01*
X3356400Y6940118D01*
X3368968Y6876932D01*
X3354481Y6867252D01*
X3277148Y6789919D01*
X3216388Y6698986D01*
X3174536Y6597946D01*
X3153200Y6490682D01*
X3153200Y6381318D01*
X3174536Y6274054D01*
X3216388Y6173014D01*
X3277148Y6082081D01*
X3354481Y6004748D01*
X3445414Y5943988D01*
X3546454Y5902136D01*
X3653718Y5880800D01*
X3763082Y5880800D01*
X3870346Y5902136D01*
X3971386Y5943988D01*
X4062319Y6004748D01*
X4089533Y6031962D01*
X4096354Y6029136D01*
X4203618Y6007800D01*
X4312982Y6007800D01*
X4420246Y6029136D01*
X4521286Y6070988D01*
X4612219Y6131748D01*
X4644401Y6163930D01*
X4644401Y4081971D01*
X4575882Y4095600D01*
X4466518Y4095600D01*
X4435169Y4089364D01*
X4441406Y4120718D01*
X4441406Y4230082D01*
X4420070Y4337346D01*
X4378218Y4438386D01*
X4317458Y4529319D01*
X4240125Y4606652D01*
X4149192Y4667412D01*
X4048152Y4709264D01*
X3940888Y4730600D01*
X3831524Y4730600D01*
X3724260Y4709264D01*
X3623220Y4667412D01*
X3532287Y4606652D01*
X3454954Y4529319D01*
X3394194Y4438386D01*
X3352342Y4337346D01*
X3331006Y4230082D01*
X3331006Y4120718D01*
X3352342Y4013454D01*
X3394194Y3912414D01*
X3454954Y3821481D01*
X3532287Y3744148D01*
X3623220Y3683388D01*
X3724260Y3641536D01*
X3831524Y3620200D01*
X3940888Y3620200D01*
X3972237Y3626436D01*
X3966000Y3595082D01*
X3966000Y3485718D01*
X3987336Y3378454D01*
X4029188Y3277414D01*
X4048642Y3248300D01*
X4029188Y3219186D01*
X3987336Y3118146D01*
X3966000Y3010882D01*
X3966000Y2901518D01*
X3987336Y2794254D01*
X4029188Y2693214D01*
X4074099Y2626000D01*
X4029188Y2558786D01*
X3987336Y2457746D01*
X3966000Y2350482D01*
X3966000Y2241118D01*
X3987336Y2133854D01*
X4029188Y2032814D01*
X4057127Y1991000D01*
X4029188Y1949186D01*
X3987336Y1848146D01*
X3966000Y1740882D01*
X3966000Y1631518D01*
X3987336Y1524254D01*
X4029188Y1423214D01*
X4089948Y1332281D01*
X4167281Y1254948D01*
X4258214Y1194188D01*
X4359254Y1152336D01*
X4466518Y1131000D01*
X4575882Y1131000D01*
X4644400Y1144629D01*
X4644400Y1033971D01*
X4575882Y1047600D01*
X4466518Y1047600D01*
X4359254Y1026264D01*
X4258214Y984412D01*
X4167281Y923652D01*
X4089948Y846319D01*
X4029188Y755386D01*
X3987336Y654346D01*
X3966000Y547082D01*
X3966000Y437718D01*
X3982334Y355600D01*
X1580266Y355600D01*
X1596600Y437718D01*
X1596600Y547082D01*
X1575264Y654346D01*
X1533412Y755386D01*
X1472652Y846319D01*
X1395319Y923652D01*
X1304386Y984412D01*
X1203346Y1026264D01*
X1096082Y1047600D01*
X986718Y1047600D01*
X879454Y1026264D01*
X778414Y984412D01*
X687481Y923652D01*
X610148Y846319D01*
X549388Y755386D01*
X507536Y654346D01*
X486200Y547082D01*
X486200Y437718D01*
X502534Y355600D01*
X355600Y355600D01*
X355600Y2593185D01*
X427918Y2578800D01*
X537282Y2578800D01*
X644546Y2600136D01*
X745586Y2641988D01*
X836519Y2702748D01*
X913852Y2780081D01*
X974612Y2871014D01*
X1016464Y2972054D01*
X1037800Y3079318D01*
X1037800Y3188682D01*
X1016464Y3295946D01*
X974612Y3396986D01*
X913852Y3487919D01*
X836519Y3565252D01*
X745586Y3626012D01*
X644546Y3667864D01*
X537282Y3689200D01*
X427918Y3689200D01*
X355600Y3674815D01*
X355600Y3973400D01*
X422815Y3928488D01*
X523855Y3886636D01*
X631119Y3865300D01*
X740483Y3865300D01*
X847747Y3886636D01*
X948787Y3928488D01*
X1039720Y3989248D01*
X1117053Y4066581D01*
X1177813Y4157514D01*
X1219665Y4258554D01*
X1241001Y4365818D01*
X1241001Y4475182D01*
X1219665Y4582446D01*
X1177813Y4683486D01*
X1117053Y4774419D01*
X1039720Y4851752D01*
X948787Y4912512D01*
X847747Y4954364D01*
X740483Y4975700D01*
X631119Y4975700D01*
X523855Y4954364D01*
X422815Y4912512D01*
X331882Y4851752D01*
X254549Y4774419D01*
X193789Y4683486D01*
X151937Y4582446D01*
X130601Y4475182D01*
X130601Y4372293D01*
X-275108Y4778002D01*
X-219614Y4800988D01*
X-128681Y4861748D01*
X-51348Y4939081D01*
X9412Y5030014D01*
X51264Y5131054D01*
X69161Y5221028D01*
X72318Y5220400D01*
X181682Y5220400D01*
X288946Y5241736D01*
X389986Y5283588D01*
X409881Y5296882D01*
X1705400Y5296882D01*
X1705400Y5187518D01*
X1726736Y5080254D01*
X1768588Y4979214D01*
X1829348Y4888281D01*
X1906681Y4810948D01*
X1997614Y4750188D01*
X2098654Y4708336D01*
X2205918Y4687000D01*
X2315282Y4687000D01*
X2422546Y4708336D01*
X2523586Y4750188D01*
X2614519Y4810948D01*
X2691852Y4888281D01*
X2752612Y4979214D01*
X2794464Y5080254D01*
X2806629Y5141413D01*
X2904586Y5181988D01*
X2995519Y5242748D01*
X3072852Y5320081D01*
X3133612Y5411014D01*
X3175464Y5512054D01*
X3196800Y5619318D01*
X3196800Y5728682D01*
X3175464Y5835946D01*
X3133612Y5936986D01*
X3072852Y6027919D01*
X2995519Y6105252D01*
X2904586Y6166012D01*
X2803546Y6207864D01*
X2696282Y6229200D01*
X2586918Y6229200D01*
X2479654Y6207864D01*
X2378614Y6166012D01*
X2287681Y6105252D01*
X2210348Y6027919D01*
X2149588Y5936986D01*
X2107736Y5835946D01*
X2095571Y5774787D01*
X1997614Y5734212D01*
X1906681Y5673452D01*
X1829348Y5596119D01*
X1768588Y5505186D01*
X1726736Y5404146D01*
X1705400Y5296882D01*
X409881Y5296882D01*
X480919Y5344348D01*
X558252Y5421681D01*
X619012Y5512614D01*
X660864Y5613654D01*
X682200Y5720918D01*
X682200Y5830282D01*
X660864Y5937546D01*
X619012Y6038586D01*
X558252Y6129519D01*
X480919Y6206852D01*
X404072Y6258200D01*
X480919Y6309548D01*
X558252Y6386881D01*
X562310Y6392954D01*
X626014Y6350388D01*
X727054Y6308536D01*
X834318Y6287200D01*
X943682Y6287200D01*
X1050946Y6308536D01*
X1151986Y6350388D01*
X1242919Y6411148D01*
X1320252Y6488481D01*
X1381012Y6579414D01*
X1422864Y6680454D01*
X1444200Y6787718D01*
X1444200Y6897082D01*
X1422864Y7004346D01*
X1381012Y7105386D01*
X1320252Y7196319D01*
X1242919Y7273652D01*
X1151986Y7334412D01*
X1050946Y7376264D01*
X943682Y7397600D01*
X834318Y7397600D01*
X727054Y7376264D01*
X626014Y7334412D01*
X535081Y7273652D01*
X457748Y7196319D01*
X453690Y7190246D01*
X389986Y7232812D01*
X288946Y7274664D01*
X277035Y7277033D01*
X297101Y7301484D01*
X330121Y7363260D01*
X350454Y7430290D01*
X355600Y7482537D01*
X355600Y7482545D01*
X357319Y7500000D01*
X355600Y7517455D01*
X355600Y8167082D01*
X918000Y8167082D01*
X918000Y8057718D01*
X939336Y7950454D01*
X981188Y7849414D01*
X1041948Y7758481D01*
X1119281Y7681148D01*
X1210214Y7620388D01*
X1311254Y7578536D01*
X1418518Y7557200D01*
X1527882Y7557200D01*
X1635146Y7578536D01*
X1736186Y7620388D01*
X1827119Y7681148D01*
X1904452Y7758481D01*
X1965212Y7849414D01*
X2007064Y7950454D01*
X2028400Y8057718D01*
X2028400Y8167082D01*
X2007064Y8274346D01*
X1965212Y8375386D01*
X1904452Y8466319D01*
X1848089Y8522682D01*
X2289600Y8522682D01*
X2289600Y8413318D01*
X2310936Y8306054D01*
X2352788Y8205014D01*
X2413548Y8114081D01*
X2490881Y8036748D01*
X2581814Y7975988D01*
X2682854Y7934136D01*
X2790118Y7912800D01*
X2899482Y7912800D01*
X3006746Y7934136D01*
X3107786Y7975988D01*
X3198719Y8036748D01*
X3276052Y8114081D01*
X3336812Y8205014D01*
X3378664Y8306054D01*
X3400000Y8413318D01*
X3400000Y8522682D01*
X3378664Y8629946D01*
X3336812Y8730986D01*
X3276052Y8821919D01*
X3198719Y8899252D01*
X3107786Y8960012D01*
X3006746Y9001864D01*
X2899482Y9023200D01*
X2790118Y9023200D01*
X2682854Y9001864D01*
X2581814Y8960012D01*
X2490881Y8899252D01*
X2413548Y8821919D01*
X2352788Y8730986D01*
X2310936Y8629946D01*
X2289600Y8522682D01*
X1848089Y8522682D01*
X1827119Y8543652D01*
X1736186Y8604412D01*
X1635146Y8646264D01*
X1527882Y8667600D01*
X1418518Y8667600D01*
X1311254Y8646264D01*
X1210214Y8604412D01*
X1119281Y8543652D01*
X1041948Y8466319D01*
X981188Y8375386D01*
X939336Y8274346D01*
X918000Y8167082D01*
X355600Y8167082D01*
X355600Y10144400D01*
X906985Y10144400D01*
X892600Y10072082D01*
M02*
