G04 #@! TF.GenerationSoftware,KiCad,Pcbnew,(5.1.0)-1*
G04 #@! TF.CreationDate,2019-04-30T21:14:17-07:00*
G04 #@! TF.ProjectId,MS_v4_ETL_LED_Driver,4d535f76-345f-4455-944c-5f4c45445f44,rev?*
G04 #@! TF.SameCoordinates,Original*
G04 #@! TF.FileFunction,Soldermask,Top*
G04 #@! TF.FilePolarity,Negative*
%FSLAX46Y46*%
G04 Gerber Fmt 4.6, Leading zero omitted, Abs format (unit mm)*
G04 Created by KiCad (PCBNEW (5.1.0)-1) date 2019-04-30 21:14:17*
%MOMM*%
%LPD*%
G04 APERTURE LIST*
%ADD10C,0.100000*%
G04 APERTURE END LIST*
D10*
G36*
X18059400Y-23545800D02*
G01*
X17246600Y-23545800D01*
X17246600Y-22479000D01*
X18059400Y-22479000D01*
X18059400Y-23545800D01*
X18059400Y-23545800D01*
G37*
G36*
X16690600Y-23545800D02*
G01*
X14877800Y-23545800D01*
X14877800Y-22225000D01*
X16690600Y-22225000D01*
X16690600Y-23545800D01*
X16690600Y-23545800D01*
G37*
G36*
X13911400Y-22387201D02*
G01*
X13913802Y-22411587D01*
X13920915Y-22435036D01*
X13932466Y-22456647D01*
X13948011Y-22475589D01*
X13966953Y-22491134D01*
X13988564Y-22502685D01*
X14012013Y-22509798D01*
X14036399Y-22512200D01*
X14425400Y-22512200D01*
X14425400Y-22903000D01*
X13514600Y-22903000D01*
X13514600Y-22423448D01*
X13518198Y-22411587D01*
X13520600Y-22387201D01*
X13520600Y-21363200D01*
X13911400Y-21363200D01*
X13911400Y-22387201D01*
X13911400Y-22387201D01*
G37*
G36*
X14806451Y-20465500D02*
G01*
X14806452Y-20465500D01*
X14806455Y-20465501D01*
X14842925Y-20480608D01*
X14875748Y-20502539D01*
X14903661Y-20530452D01*
X14903665Y-20530458D01*
X14909612Y-20536405D01*
X14928554Y-20551950D01*
X14950165Y-20563501D01*
X14973614Y-20570614D01*
X14998000Y-20573016D01*
X15022386Y-20570614D01*
X15045835Y-20563501D01*
X15067446Y-20551950D01*
X15086388Y-20536405D01*
X15092335Y-20530458D01*
X15092339Y-20530452D01*
X15120252Y-20502539D01*
X15153075Y-20480608D01*
X15189545Y-20465501D01*
X15189548Y-20465500D01*
X15189549Y-20465500D01*
X15228261Y-20457800D01*
X15267739Y-20457800D01*
X15306451Y-20465500D01*
X15306452Y-20465500D01*
X15306455Y-20465501D01*
X15342925Y-20480608D01*
X15375748Y-20502539D01*
X15403661Y-20530452D01*
X15403665Y-20530458D01*
X15409612Y-20536405D01*
X15428554Y-20551950D01*
X15450165Y-20563501D01*
X15473614Y-20570614D01*
X15498000Y-20573016D01*
X15522386Y-20570614D01*
X15545835Y-20563501D01*
X15567446Y-20551950D01*
X15586388Y-20536405D01*
X15592335Y-20530458D01*
X15592339Y-20530452D01*
X15620252Y-20502539D01*
X15653075Y-20480608D01*
X15689545Y-20465501D01*
X15689548Y-20465500D01*
X15689549Y-20465500D01*
X15728261Y-20457800D01*
X15767739Y-20457800D01*
X15806451Y-20465500D01*
X15806452Y-20465500D01*
X15806455Y-20465501D01*
X15842925Y-20480608D01*
X15875748Y-20502539D01*
X15903661Y-20530452D01*
X15903665Y-20530458D01*
X15909612Y-20536405D01*
X15928554Y-20551950D01*
X15950165Y-20563501D01*
X15973614Y-20570614D01*
X15998000Y-20573016D01*
X16022386Y-20570614D01*
X16045835Y-20563501D01*
X16067446Y-20551950D01*
X16086388Y-20536405D01*
X16092335Y-20530458D01*
X16092339Y-20530452D01*
X16120252Y-20502539D01*
X16153075Y-20480608D01*
X16189545Y-20465501D01*
X16189548Y-20465500D01*
X16189549Y-20465500D01*
X16228261Y-20457800D01*
X16267739Y-20457800D01*
X16306451Y-20465500D01*
X16306452Y-20465500D01*
X16306455Y-20465501D01*
X16342925Y-20480608D01*
X16375748Y-20502539D01*
X16403661Y-20530452D01*
X16403665Y-20530458D01*
X16409612Y-20536405D01*
X16428554Y-20551950D01*
X16450165Y-20563501D01*
X16473614Y-20570614D01*
X16498000Y-20573016D01*
X16522386Y-20570614D01*
X16545835Y-20563501D01*
X16567446Y-20551950D01*
X16586388Y-20536405D01*
X16592335Y-20530458D01*
X16592339Y-20530452D01*
X16620252Y-20502539D01*
X16653075Y-20480608D01*
X16689545Y-20465501D01*
X16689548Y-20465500D01*
X16689549Y-20465500D01*
X16728261Y-20457800D01*
X16767739Y-20457800D01*
X16806451Y-20465500D01*
X16806452Y-20465500D01*
X16806455Y-20465501D01*
X16842925Y-20480608D01*
X16875748Y-20502539D01*
X16903661Y-20530452D01*
X16925592Y-20563275D01*
X16940699Y-20599745D01*
X16948400Y-20638462D01*
X16948400Y-20677938D01*
X16940699Y-20716655D01*
X16925592Y-20753125D01*
X16903661Y-20785948D01*
X16875748Y-20813861D01*
X16875742Y-20813865D01*
X16869795Y-20819812D01*
X16854250Y-20838754D01*
X16842699Y-20860365D01*
X16835586Y-20883814D01*
X16833184Y-20908200D01*
X16835586Y-20932586D01*
X16842699Y-20956035D01*
X16854250Y-20977646D01*
X16869795Y-20996588D01*
X16875742Y-21002535D01*
X16875748Y-21002539D01*
X16903661Y-21030452D01*
X16925592Y-21063275D01*
X16940699Y-21099745D01*
X16948400Y-21138462D01*
X16948400Y-21177938D01*
X16940699Y-21216655D01*
X16925592Y-21253125D01*
X16903661Y-21285948D01*
X16875748Y-21313861D01*
X16875742Y-21313865D01*
X16869795Y-21319812D01*
X16854250Y-21338754D01*
X16842699Y-21360365D01*
X16835586Y-21383814D01*
X16833184Y-21408200D01*
X16835586Y-21432586D01*
X16842699Y-21456035D01*
X16854250Y-21477646D01*
X16869795Y-21496588D01*
X16875742Y-21502535D01*
X16875748Y-21502539D01*
X16903661Y-21530452D01*
X16925592Y-21563275D01*
X16940699Y-21599745D01*
X16948400Y-21638462D01*
X16948400Y-21677938D01*
X16940699Y-21716655D01*
X16925592Y-21753125D01*
X16903661Y-21785948D01*
X16875748Y-21813861D01*
X16842925Y-21835792D01*
X16806455Y-21850899D01*
X16806452Y-21850900D01*
X16806451Y-21850900D01*
X16767739Y-21858600D01*
X16728261Y-21858600D01*
X16689549Y-21850900D01*
X16689548Y-21850900D01*
X16689545Y-21850899D01*
X16653075Y-21835792D01*
X16620252Y-21813861D01*
X16592339Y-21785948D01*
X16592335Y-21785942D01*
X16586388Y-21779995D01*
X16567446Y-21764450D01*
X16545835Y-21752899D01*
X16522386Y-21745786D01*
X16498000Y-21743384D01*
X16473614Y-21745786D01*
X16450165Y-21752899D01*
X16428554Y-21764450D01*
X16409612Y-21779995D01*
X16403665Y-21785942D01*
X16403661Y-21785948D01*
X16375748Y-21813861D01*
X16342925Y-21835792D01*
X16306455Y-21850899D01*
X16306452Y-21850900D01*
X16306451Y-21850900D01*
X16267739Y-21858600D01*
X16228261Y-21858600D01*
X16189549Y-21850900D01*
X16189548Y-21850900D01*
X16189545Y-21850899D01*
X16153075Y-21835792D01*
X16120252Y-21813861D01*
X16092339Y-21785948D01*
X16092335Y-21785942D01*
X16086388Y-21779995D01*
X16067446Y-21764450D01*
X16045835Y-21752899D01*
X16022386Y-21745786D01*
X15998000Y-21743384D01*
X15973614Y-21745786D01*
X15950165Y-21752899D01*
X15928554Y-21764450D01*
X15909612Y-21779995D01*
X15903665Y-21785942D01*
X15903661Y-21785948D01*
X15875748Y-21813861D01*
X15842925Y-21835792D01*
X15806455Y-21850899D01*
X15806452Y-21850900D01*
X15806451Y-21850900D01*
X15767739Y-21858600D01*
X15728261Y-21858600D01*
X15689549Y-21850900D01*
X15689548Y-21850900D01*
X15689545Y-21850899D01*
X15653075Y-21835792D01*
X15620252Y-21813861D01*
X15592339Y-21785948D01*
X15592335Y-21785942D01*
X15586388Y-21779995D01*
X15567446Y-21764450D01*
X15545835Y-21752899D01*
X15522386Y-21745786D01*
X15498000Y-21743384D01*
X15473614Y-21745786D01*
X15450165Y-21752899D01*
X15428554Y-21764450D01*
X15409612Y-21779995D01*
X15403665Y-21785942D01*
X15403661Y-21785948D01*
X15375748Y-21813861D01*
X15342925Y-21835792D01*
X15306455Y-21850899D01*
X15306452Y-21850900D01*
X15306451Y-21850900D01*
X15267739Y-21858600D01*
X15228261Y-21858600D01*
X15189549Y-21850900D01*
X15189548Y-21850900D01*
X15189545Y-21850899D01*
X15153075Y-21835792D01*
X15120252Y-21813861D01*
X15092339Y-21785948D01*
X15092335Y-21785942D01*
X15086388Y-21779995D01*
X15067446Y-21764450D01*
X15045835Y-21752899D01*
X15022386Y-21745786D01*
X14998000Y-21743384D01*
X14973614Y-21745786D01*
X14950165Y-21752899D01*
X14928554Y-21764450D01*
X14909612Y-21779995D01*
X14903665Y-21785942D01*
X14903661Y-21785948D01*
X14875748Y-21813861D01*
X14842925Y-21835792D01*
X14806455Y-21850899D01*
X14806452Y-21850900D01*
X14806451Y-21850900D01*
X14767739Y-21858600D01*
X14728261Y-21858600D01*
X14689549Y-21850900D01*
X14689548Y-21850900D01*
X14689545Y-21850899D01*
X14653075Y-21835792D01*
X14620252Y-21813861D01*
X14592339Y-21785948D01*
X14570408Y-21753125D01*
X14555301Y-21716655D01*
X14547600Y-21677938D01*
X14547600Y-21638462D01*
X14555301Y-21599745D01*
X14570408Y-21563275D01*
X14592339Y-21530452D01*
X14620252Y-21502539D01*
X14620258Y-21502535D01*
X14626205Y-21496588D01*
X14641750Y-21477646D01*
X14653301Y-21456035D01*
X14660414Y-21432586D01*
X14662816Y-21408200D01*
X14833184Y-21408200D01*
X14835586Y-21432586D01*
X14842699Y-21456035D01*
X14854250Y-21477646D01*
X14869795Y-21496588D01*
X14875742Y-21502535D01*
X14875748Y-21502539D01*
X14903661Y-21530452D01*
X14903665Y-21530458D01*
X14909612Y-21536405D01*
X14928554Y-21551950D01*
X14950165Y-21563501D01*
X14973614Y-21570614D01*
X14998000Y-21573016D01*
X15022386Y-21570614D01*
X15045835Y-21563501D01*
X15067446Y-21551950D01*
X15086388Y-21536405D01*
X15092335Y-21530458D01*
X15092339Y-21530452D01*
X15120252Y-21502539D01*
X15120258Y-21502535D01*
X15126205Y-21496588D01*
X15141750Y-21477646D01*
X15153301Y-21456035D01*
X15160414Y-21432586D01*
X15162816Y-21408200D01*
X15333184Y-21408200D01*
X15335586Y-21432586D01*
X15342699Y-21456035D01*
X15354250Y-21477646D01*
X15369795Y-21496588D01*
X15375742Y-21502535D01*
X15375748Y-21502539D01*
X15403661Y-21530452D01*
X15403665Y-21530458D01*
X15409612Y-21536405D01*
X15428554Y-21551950D01*
X15450165Y-21563501D01*
X15473614Y-21570614D01*
X15498000Y-21573016D01*
X15522386Y-21570614D01*
X15545835Y-21563501D01*
X15567446Y-21551950D01*
X15586388Y-21536405D01*
X15592335Y-21530458D01*
X15592339Y-21530452D01*
X15620252Y-21502539D01*
X15620258Y-21502535D01*
X15626205Y-21496588D01*
X15641750Y-21477646D01*
X15653301Y-21456035D01*
X15660414Y-21432586D01*
X15662816Y-21408200D01*
X15833184Y-21408200D01*
X15835586Y-21432586D01*
X15842699Y-21456035D01*
X15854250Y-21477646D01*
X15869795Y-21496588D01*
X15875742Y-21502535D01*
X15875748Y-21502539D01*
X15903661Y-21530452D01*
X15903665Y-21530458D01*
X15909612Y-21536405D01*
X15928554Y-21551950D01*
X15950165Y-21563501D01*
X15973614Y-21570614D01*
X15998000Y-21573016D01*
X16022386Y-21570614D01*
X16045835Y-21563501D01*
X16067446Y-21551950D01*
X16086388Y-21536405D01*
X16092335Y-21530458D01*
X16092339Y-21530452D01*
X16120252Y-21502539D01*
X16120258Y-21502535D01*
X16126205Y-21496588D01*
X16141750Y-21477646D01*
X16153301Y-21456035D01*
X16160414Y-21432586D01*
X16162816Y-21408200D01*
X16333184Y-21408200D01*
X16335586Y-21432586D01*
X16342699Y-21456035D01*
X16354250Y-21477646D01*
X16369795Y-21496588D01*
X16375742Y-21502535D01*
X16375748Y-21502539D01*
X16403661Y-21530452D01*
X16403665Y-21530458D01*
X16409612Y-21536405D01*
X16428554Y-21551950D01*
X16450165Y-21563501D01*
X16473614Y-21570614D01*
X16498000Y-21573016D01*
X16522386Y-21570614D01*
X16545835Y-21563501D01*
X16567446Y-21551950D01*
X16586388Y-21536405D01*
X16592335Y-21530458D01*
X16592339Y-21530452D01*
X16620252Y-21502539D01*
X16620258Y-21502535D01*
X16626205Y-21496588D01*
X16641750Y-21477646D01*
X16653301Y-21456035D01*
X16660414Y-21432586D01*
X16662816Y-21408200D01*
X16660414Y-21383814D01*
X16653301Y-21360365D01*
X16641750Y-21338754D01*
X16626205Y-21319812D01*
X16620258Y-21313865D01*
X16620252Y-21313861D01*
X16592339Y-21285948D01*
X16592335Y-21285942D01*
X16586388Y-21279995D01*
X16567446Y-21264450D01*
X16545835Y-21252899D01*
X16522386Y-21245786D01*
X16498000Y-21243384D01*
X16473614Y-21245786D01*
X16450165Y-21252899D01*
X16428554Y-21264450D01*
X16409612Y-21279995D01*
X16403665Y-21285942D01*
X16403661Y-21285948D01*
X16375748Y-21313861D01*
X16375742Y-21313865D01*
X16369795Y-21319812D01*
X16354250Y-21338754D01*
X16342699Y-21360365D01*
X16335586Y-21383814D01*
X16333184Y-21408200D01*
X16162816Y-21408200D01*
X16160414Y-21383814D01*
X16153301Y-21360365D01*
X16141750Y-21338754D01*
X16126205Y-21319812D01*
X16120258Y-21313865D01*
X16120252Y-21313861D01*
X16092339Y-21285948D01*
X16092335Y-21285942D01*
X16086388Y-21279995D01*
X16067446Y-21264450D01*
X16045835Y-21252899D01*
X16022386Y-21245786D01*
X15998000Y-21243384D01*
X15973614Y-21245786D01*
X15950165Y-21252899D01*
X15928554Y-21264450D01*
X15909612Y-21279995D01*
X15903665Y-21285942D01*
X15903661Y-21285948D01*
X15875748Y-21313861D01*
X15875742Y-21313865D01*
X15869795Y-21319812D01*
X15854250Y-21338754D01*
X15842699Y-21360365D01*
X15835586Y-21383814D01*
X15833184Y-21408200D01*
X15662816Y-21408200D01*
X15660414Y-21383814D01*
X15653301Y-21360365D01*
X15641750Y-21338754D01*
X15626205Y-21319812D01*
X15620258Y-21313865D01*
X15620252Y-21313861D01*
X15592339Y-21285948D01*
X15592335Y-21285942D01*
X15586388Y-21279995D01*
X15567446Y-21264450D01*
X15545835Y-21252899D01*
X15522386Y-21245786D01*
X15498000Y-21243384D01*
X15473614Y-21245786D01*
X15450165Y-21252899D01*
X15428554Y-21264450D01*
X15409612Y-21279995D01*
X15403665Y-21285942D01*
X15403661Y-21285948D01*
X15375748Y-21313861D01*
X15375742Y-21313865D01*
X15369795Y-21319812D01*
X15354250Y-21338754D01*
X15342699Y-21360365D01*
X15335586Y-21383814D01*
X15333184Y-21408200D01*
X15162816Y-21408200D01*
X15160414Y-21383814D01*
X15153301Y-21360365D01*
X15141750Y-21338754D01*
X15126205Y-21319812D01*
X15120258Y-21313865D01*
X15120252Y-21313861D01*
X15092339Y-21285948D01*
X15092335Y-21285942D01*
X15086388Y-21279995D01*
X15067446Y-21264450D01*
X15045835Y-21252899D01*
X15022386Y-21245786D01*
X14998000Y-21243384D01*
X14973614Y-21245786D01*
X14950165Y-21252899D01*
X14928554Y-21264450D01*
X14909612Y-21279995D01*
X14903665Y-21285942D01*
X14903661Y-21285948D01*
X14875748Y-21313861D01*
X14875742Y-21313865D01*
X14869795Y-21319812D01*
X14854250Y-21338754D01*
X14842699Y-21360365D01*
X14835586Y-21383814D01*
X14833184Y-21408200D01*
X14662816Y-21408200D01*
X14660414Y-21383814D01*
X14653301Y-21360365D01*
X14641750Y-21338754D01*
X14626205Y-21319812D01*
X14620258Y-21313865D01*
X14620252Y-21313861D01*
X14592339Y-21285948D01*
X14570408Y-21253125D01*
X14555301Y-21216655D01*
X14547600Y-21177938D01*
X14547600Y-21138462D01*
X14555301Y-21099745D01*
X14570408Y-21063275D01*
X14592339Y-21030452D01*
X14620252Y-21002539D01*
X14620258Y-21002535D01*
X14626205Y-20996588D01*
X14641750Y-20977646D01*
X14653301Y-20956035D01*
X14660414Y-20932586D01*
X14662816Y-20908200D01*
X14833184Y-20908200D01*
X14835586Y-20932586D01*
X14842699Y-20956035D01*
X14854250Y-20977646D01*
X14869795Y-20996588D01*
X14875742Y-21002535D01*
X14875748Y-21002539D01*
X14903661Y-21030452D01*
X14903665Y-21030458D01*
X14909612Y-21036405D01*
X14928554Y-21051950D01*
X14950165Y-21063501D01*
X14973614Y-21070614D01*
X14998000Y-21073016D01*
X15022386Y-21070614D01*
X15045835Y-21063501D01*
X15067446Y-21051950D01*
X15086388Y-21036405D01*
X15092335Y-21030458D01*
X15092339Y-21030452D01*
X15120252Y-21002539D01*
X15120258Y-21002535D01*
X15126205Y-20996588D01*
X15141750Y-20977646D01*
X15153301Y-20956035D01*
X15160414Y-20932586D01*
X15162816Y-20908200D01*
X15333184Y-20908200D01*
X15335586Y-20932586D01*
X15342699Y-20956035D01*
X15354250Y-20977646D01*
X15369795Y-20996588D01*
X15375742Y-21002535D01*
X15375748Y-21002539D01*
X15403661Y-21030452D01*
X15403665Y-21030458D01*
X15409612Y-21036405D01*
X15428554Y-21051950D01*
X15450165Y-21063501D01*
X15473614Y-21070614D01*
X15498000Y-21073016D01*
X15522386Y-21070614D01*
X15545835Y-21063501D01*
X15567446Y-21051950D01*
X15586388Y-21036405D01*
X15592335Y-21030458D01*
X15592339Y-21030452D01*
X15620252Y-21002539D01*
X15620258Y-21002535D01*
X15626205Y-20996588D01*
X15641750Y-20977646D01*
X15653301Y-20956035D01*
X15660414Y-20932586D01*
X15662816Y-20908200D01*
X15833184Y-20908200D01*
X15835586Y-20932586D01*
X15842699Y-20956035D01*
X15854250Y-20977646D01*
X15869795Y-20996588D01*
X15875742Y-21002535D01*
X15875748Y-21002539D01*
X15903661Y-21030452D01*
X15903665Y-21030458D01*
X15909612Y-21036405D01*
X15928554Y-21051950D01*
X15950165Y-21063501D01*
X15973614Y-21070614D01*
X15998000Y-21073016D01*
X16022386Y-21070614D01*
X16045835Y-21063501D01*
X16067446Y-21051950D01*
X16086388Y-21036405D01*
X16092335Y-21030458D01*
X16092339Y-21030452D01*
X16120252Y-21002539D01*
X16120258Y-21002535D01*
X16126205Y-20996588D01*
X16141750Y-20977646D01*
X16153301Y-20956035D01*
X16160414Y-20932586D01*
X16162816Y-20908200D01*
X16333184Y-20908200D01*
X16335586Y-20932586D01*
X16342699Y-20956035D01*
X16354250Y-20977646D01*
X16369795Y-20996588D01*
X16375742Y-21002535D01*
X16375748Y-21002539D01*
X16403661Y-21030452D01*
X16403665Y-21030458D01*
X16409612Y-21036405D01*
X16428554Y-21051950D01*
X16450165Y-21063501D01*
X16473614Y-21070614D01*
X16498000Y-21073016D01*
X16522386Y-21070614D01*
X16545835Y-21063501D01*
X16567446Y-21051950D01*
X16586388Y-21036405D01*
X16592335Y-21030458D01*
X16592339Y-21030452D01*
X16620252Y-21002539D01*
X16620258Y-21002535D01*
X16626205Y-20996588D01*
X16641750Y-20977646D01*
X16653301Y-20956035D01*
X16660414Y-20932586D01*
X16662816Y-20908200D01*
X16660414Y-20883814D01*
X16653301Y-20860365D01*
X16641750Y-20838754D01*
X16626205Y-20819812D01*
X16620258Y-20813865D01*
X16620252Y-20813861D01*
X16592339Y-20785948D01*
X16592335Y-20785942D01*
X16586388Y-20779995D01*
X16567446Y-20764450D01*
X16545835Y-20752899D01*
X16522386Y-20745786D01*
X16498000Y-20743384D01*
X16473614Y-20745786D01*
X16450165Y-20752899D01*
X16428554Y-20764450D01*
X16409612Y-20779995D01*
X16403665Y-20785942D01*
X16403661Y-20785948D01*
X16375748Y-20813861D01*
X16375742Y-20813865D01*
X16369795Y-20819812D01*
X16354250Y-20838754D01*
X16342699Y-20860365D01*
X16335586Y-20883814D01*
X16333184Y-20908200D01*
X16162816Y-20908200D01*
X16160414Y-20883814D01*
X16153301Y-20860365D01*
X16141750Y-20838754D01*
X16126205Y-20819812D01*
X16120258Y-20813865D01*
X16120252Y-20813861D01*
X16092339Y-20785948D01*
X16092335Y-20785942D01*
X16086388Y-20779995D01*
X16067446Y-20764450D01*
X16045835Y-20752899D01*
X16022386Y-20745786D01*
X15998000Y-20743384D01*
X15973614Y-20745786D01*
X15950165Y-20752899D01*
X15928554Y-20764450D01*
X15909612Y-20779995D01*
X15903665Y-20785942D01*
X15903661Y-20785948D01*
X15875748Y-20813861D01*
X15875742Y-20813865D01*
X15869795Y-20819812D01*
X15854250Y-20838754D01*
X15842699Y-20860365D01*
X15835586Y-20883814D01*
X15833184Y-20908200D01*
X15662816Y-20908200D01*
X15660414Y-20883814D01*
X15653301Y-20860365D01*
X15641750Y-20838754D01*
X15626205Y-20819812D01*
X15620258Y-20813865D01*
X15620252Y-20813861D01*
X15592339Y-20785948D01*
X15592335Y-20785942D01*
X15586388Y-20779995D01*
X15567446Y-20764450D01*
X15545835Y-20752899D01*
X15522386Y-20745786D01*
X15498000Y-20743384D01*
X15473614Y-20745786D01*
X15450165Y-20752899D01*
X15428554Y-20764450D01*
X15409612Y-20779995D01*
X15403665Y-20785942D01*
X15403661Y-20785948D01*
X15375748Y-20813861D01*
X15375742Y-20813865D01*
X15369795Y-20819812D01*
X15354250Y-20838754D01*
X15342699Y-20860365D01*
X15335586Y-20883814D01*
X15333184Y-20908200D01*
X15162816Y-20908200D01*
X15160414Y-20883814D01*
X15153301Y-20860365D01*
X15141750Y-20838754D01*
X15126205Y-20819812D01*
X15120258Y-20813865D01*
X15120252Y-20813861D01*
X15092339Y-20785948D01*
X15092335Y-20785942D01*
X15086388Y-20779995D01*
X15067446Y-20764450D01*
X15045835Y-20752899D01*
X15022386Y-20745786D01*
X14998000Y-20743384D01*
X14973614Y-20745786D01*
X14950165Y-20752899D01*
X14928554Y-20764450D01*
X14909612Y-20779995D01*
X14903665Y-20785942D01*
X14903661Y-20785948D01*
X14875748Y-20813861D01*
X14875742Y-20813865D01*
X14869795Y-20819812D01*
X14854250Y-20838754D01*
X14842699Y-20860365D01*
X14835586Y-20883814D01*
X14833184Y-20908200D01*
X14662816Y-20908200D01*
X14660414Y-20883814D01*
X14653301Y-20860365D01*
X14641750Y-20838754D01*
X14626205Y-20819812D01*
X14620258Y-20813865D01*
X14620252Y-20813861D01*
X14592339Y-20785948D01*
X14570408Y-20753125D01*
X14555301Y-20716655D01*
X14547600Y-20677938D01*
X14547600Y-20638462D01*
X14555301Y-20599745D01*
X14570408Y-20563275D01*
X14592339Y-20530452D01*
X14620252Y-20502539D01*
X14653075Y-20480608D01*
X14689545Y-20465501D01*
X14689548Y-20465500D01*
X14689549Y-20465500D01*
X14728261Y-20457800D01*
X14767739Y-20457800D01*
X14806451Y-20465500D01*
X14806451Y-20465500D01*
G37*
G36*
X15974800Y-20159800D02*
G01*
X15064000Y-20159800D01*
X15064000Y-19769000D01*
X15974800Y-19769000D01*
X15974800Y-20159800D01*
X15974800Y-20159800D01*
G37*
G36*
X14704800Y-20159800D02*
G01*
X13794000Y-20159800D01*
X13794000Y-19769000D01*
X14704800Y-19769000D01*
X14704800Y-20159800D01*
X14704800Y-20159800D01*
G37*
G36*
X16658000Y-17878401D02*
G01*
X16660402Y-17902787D01*
X16667515Y-17926236D01*
X16679066Y-17947847D01*
X16694611Y-17966789D01*
X16713553Y-17982334D01*
X16735164Y-17993885D01*
X16758613Y-18000998D01*
X16782999Y-18003400D01*
X16898000Y-18003400D01*
X16898000Y-18674200D01*
X16782999Y-18674200D01*
X16758613Y-18676602D01*
X16735164Y-18683715D01*
X16713553Y-18695266D01*
X16694611Y-18710811D01*
X16679066Y-18729753D01*
X16667515Y-18751364D01*
X16660402Y-18774813D01*
X16658000Y-18799199D01*
X16658000Y-19514200D01*
X14787200Y-19514200D01*
X14787200Y-18799199D01*
X14784798Y-18774813D01*
X14777685Y-18751364D01*
X14766134Y-18729753D01*
X14750589Y-18710811D01*
X14731647Y-18695266D01*
X14710036Y-18683715D01*
X14686587Y-18676602D01*
X14662201Y-18674200D01*
X14547200Y-18674200D01*
X14547200Y-18003400D01*
X14662201Y-18003400D01*
X14686587Y-18000998D01*
X14710036Y-17993885D01*
X14731647Y-17982334D01*
X14750589Y-17966789D01*
X14765024Y-17949199D01*
X15208000Y-17949199D01*
X15208000Y-18728401D01*
X15210402Y-18752787D01*
X15217515Y-18776236D01*
X15229066Y-18797847D01*
X15244611Y-18816789D01*
X15263553Y-18832334D01*
X15285164Y-18843885D01*
X15308613Y-18850998D01*
X15332999Y-18853400D01*
X16112201Y-18853400D01*
X16136587Y-18850998D01*
X16160036Y-18843885D01*
X16181647Y-18832334D01*
X16200589Y-18816789D01*
X16216134Y-18797847D01*
X16227685Y-18776236D01*
X16234798Y-18752787D01*
X16237200Y-18728401D01*
X16237200Y-17949199D01*
X16234798Y-17924813D01*
X16227685Y-17901364D01*
X16216134Y-17879753D01*
X16200589Y-17860811D01*
X16181647Y-17845266D01*
X16160036Y-17833715D01*
X16136587Y-17826602D01*
X16112201Y-17824200D01*
X15332999Y-17824200D01*
X15308613Y-17826602D01*
X15285164Y-17833715D01*
X15263553Y-17845266D01*
X15244611Y-17860811D01*
X15229066Y-17879753D01*
X15217515Y-17901364D01*
X15210402Y-17924813D01*
X15208000Y-17949199D01*
X14765024Y-17949199D01*
X14766134Y-17947847D01*
X14777685Y-17926236D01*
X14784798Y-17902787D01*
X14787200Y-17878401D01*
X14787200Y-17163400D01*
X16658000Y-17163400D01*
X16658000Y-17878401D01*
X16658000Y-17878401D01*
G37*
G36*
X13494986Y-18709231D02*
G01*
X13545829Y-18730291D01*
X13591592Y-18760869D01*
X13630511Y-18799788D01*
X13661089Y-18845551D01*
X13682149Y-18896394D01*
X13692886Y-18950374D01*
X13692886Y-19005414D01*
X13682149Y-19059394D01*
X13661089Y-19110237D01*
X13630511Y-19156000D01*
X13591592Y-19194919D01*
X13545829Y-19225497D01*
X13494986Y-19246557D01*
X13441006Y-19257294D01*
X13385966Y-19257294D01*
X13331986Y-19246557D01*
X13281143Y-19225497D01*
X13235380Y-19194919D01*
X13196461Y-19156000D01*
X13165883Y-19110237D01*
X13144823Y-19059394D01*
X13134086Y-19005414D01*
X13134086Y-18950374D01*
X13144823Y-18896396D01*
X13154871Y-18872137D01*
X13161984Y-18848688D01*
X13164385Y-18824301D01*
X13161983Y-18799915D01*
X13154869Y-18776467D01*
X13151934Y-18770976D01*
X13153602Y-18771482D01*
X13177989Y-18773883D01*
X13202375Y-18771481D01*
X13225823Y-18764367D01*
X13247430Y-18752817D01*
X13262280Y-18742895D01*
X13281142Y-18730291D01*
X13331986Y-18709231D01*
X13385966Y-18698494D01*
X13441006Y-18698494D01*
X13494986Y-18709231D01*
X13494986Y-18709231D01*
G37*
G36*
X17942600Y-19251600D02*
G01*
X17261800Y-19251600D01*
X17261800Y-18620800D01*
X17942600Y-18620800D01*
X17942600Y-19251600D01*
X17942600Y-19251600D01*
G37*
G36*
X12885386Y-18226631D02*
G01*
X12936229Y-18247691D01*
X12969940Y-18270216D01*
X12991551Y-18281767D01*
X13015000Y-18288880D01*
X13039386Y-18291282D01*
X13063772Y-18288880D01*
X13065440Y-18288374D01*
X13062502Y-18293871D01*
X13055389Y-18317320D01*
X13052987Y-18341706D01*
X13055389Y-18366092D01*
X13062501Y-18389539D01*
X13068243Y-18403400D01*
X13072549Y-18413797D01*
X13083286Y-18467774D01*
X13083286Y-18522814D01*
X13072549Y-18576792D01*
X13062501Y-18601051D01*
X13055388Y-18624500D01*
X13052987Y-18648887D01*
X13055389Y-18673273D01*
X13062503Y-18696721D01*
X13065438Y-18702212D01*
X13063770Y-18701706D01*
X13039383Y-18699305D01*
X13014997Y-18701707D01*
X12991549Y-18708821D01*
X12969942Y-18720371D01*
X12958277Y-18728165D01*
X12936230Y-18742897D01*
X12885386Y-18763957D01*
X12831406Y-18774694D01*
X12776366Y-18774694D01*
X12722386Y-18763957D01*
X12671543Y-18742897D01*
X12625780Y-18712319D01*
X12586861Y-18673400D01*
X12556283Y-18627637D01*
X12535223Y-18576794D01*
X12524486Y-18522814D01*
X12524486Y-18467774D01*
X12535223Y-18413794D01*
X12556283Y-18362951D01*
X12586861Y-18317188D01*
X12625780Y-18278269D01*
X12671543Y-18247691D01*
X12722386Y-18226631D01*
X12776366Y-18215894D01*
X12831406Y-18215894D01*
X12885386Y-18226631D01*
X12885386Y-18226631D01*
G37*
G36*
X17942600Y-18361600D02*
G01*
X17261800Y-18361600D01*
X17261800Y-17730800D01*
X17942600Y-17730800D01*
X17942600Y-18361600D01*
X17942600Y-18361600D01*
G37*
G36*
X13494986Y-17744032D02*
G01*
X13545829Y-17765092D01*
X13591592Y-17795670D01*
X13630511Y-17834589D01*
X13661089Y-17880352D01*
X13682149Y-17931195D01*
X13692886Y-17985175D01*
X13692886Y-18040215D01*
X13682149Y-18094195D01*
X13661089Y-18145038D01*
X13630511Y-18190801D01*
X13591592Y-18229720D01*
X13545829Y-18260298D01*
X13494986Y-18281358D01*
X13441006Y-18292095D01*
X13385966Y-18292095D01*
X13331986Y-18281358D01*
X13281143Y-18260298D01*
X13247432Y-18237773D01*
X13225821Y-18226222D01*
X13202372Y-18219109D01*
X13177986Y-18216707D01*
X13153600Y-18219109D01*
X13151932Y-18219615D01*
X13154870Y-18214118D01*
X13161983Y-18190669D01*
X13164385Y-18166283D01*
X13161983Y-18141897D01*
X13154870Y-18118448D01*
X13144823Y-18094192D01*
X13134086Y-18040215D01*
X13134086Y-17985175D01*
X13144823Y-17931197D01*
X13154871Y-17906938D01*
X13161984Y-17883489D01*
X13164385Y-17859102D01*
X13161983Y-17834716D01*
X13154869Y-17811268D01*
X13151934Y-17805777D01*
X13153602Y-17806283D01*
X13177989Y-17808684D01*
X13202375Y-17806282D01*
X13225823Y-17799168D01*
X13247430Y-17787618D01*
X13262280Y-17777696D01*
X13281142Y-17765092D01*
X13331986Y-17744032D01*
X13385966Y-17733295D01*
X13441006Y-17733295D01*
X13494986Y-17744032D01*
X13494986Y-17744032D01*
G37*
G36*
X12885386Y-17261432D02*
G01*
X12936229Y-17282492D01*
X12969940Y-17305017D01*
X12991551Y-17316568D01*
X13015000Y-17323681D01*
X13039386Y-17326083D01*
X13063772Y-17323681D01*
X13065440Y-17323175D01*
X13062502Y-17328672D01*
X13055389Y-17352121D01*
X13052987Y-17376507D01*
X13055389Y-17400893D01*
X13062502Y-17424342D01*
X13072549Y-17448598D01*
X13083286Y-17502575D01*
X13083286Y-17557615D01*
X13072549Y-17611593D01*
X13062501Y-17635852D01*
X13055388Y-17659301D01*
X13052987Y-17683688D01*
X13055389Y-17708074D01*
X13062503Y-17731522D01*
X13065438Y-17737013D01*
X13063770Y-17736507D01*
X13039383Y-17734106D01*
X13014997Y-17736508D01*
X12991549Y-17743622D01*
X12969942Y-17755172D01*
X12958277Y-17762966D01*
X12936230Y-17777698D01*
X12885386Y-17798758D01*
X12831406Y-17809495D01*
X12776366Y-17809495D01*
X12722386Y-17798758D01*
X12671543Y-17777698D01*
X12625780Y-17747120D01*
X12586861Y-17708201D01*
X12556283Y-17662438D01*
X12535223Y-17611595D01*
X12524486Y-17557615D01*
X12524486Y-17502575D01*
X12535223Y-17448595D01*
X12556283Y-17397752D01*
X12586861Y-17351989D01*
X12625780Y-17313070D01*
X12671543Y-17282492D01*
X12722386Y-17261432D01*
X12776366Y-17250695D01*
X12831406Y-17250695D01*
X12885386Y-17261432D01*
X12885386Y-17261432D01*
G37*
G36*
X13494986Y-16778833D02*
G01*
X13545829Y-16799893D01*
X13591592Y-16830471D01*
X13630511Y-16869390D01*
X13661089Y-16915153D01*
X13682149Y-16965996D01*
X13692886Y-17019976D01*
X13692886Y-17075016D01*
X13682149Y-17128996D01*
X13661089Y-17179839D01*
X13630511Y-17225602D01*
X13591592Y-17264521D01*
X13545829Y-17295099D01*
X13494986Y-17316159D01*
X13441006Y-17326896D01*
X13385966Y-17326896D01*
X13331986Y-17316159D01*
X13281143Y-17295099D01*
X13247432Y-17272574D01*
X13225821Y-17261023D01*
X13202372Y-17253910D01*
X13177986Y-17251508D01*
X13153600Y-17253910D01*
X13151932Y-17254416D01*
X13154870Y-17248919D01*
X13161983Y-17225470D01*
X13164385Y-17201084D01*
X13161983Y-17176698D01*
X13154870Y-17153249D01*
X13144823Y-17128993D01*
X13134086Y-17075016D01*
X13134086Y-17019976D01*
X13144823Y-16965996D01*
X13165883Y-16915153D01*
X13196461Y-16869390D01*
X13235380Y-16830471D01*
X13281143Y-16799893D01*
X13331986Y-16778833D01*
X13385966Y-16768096D01*
X13441006Y-16768096D01*
X13494986Y-16778833D01*
X13494986Y-16778833D01*
G37*
G36*
X16178000Y-14005801D02*
G01*
X16180402Y-14030187D01*
X16187515Y-14053636D01*
X16199066Y-14075247D01*
X16214611Y-14094189D01*
X16233553Y-14109734D01*
X16255164Y-14121285D01*
X16278613Y-14128398D01*
X16302999Y-14130800D01*
X16996401Y-14130800D01*
X17020787Y-14128398D01*
X17044236Y-14121285D01*
X17065847Y-14109734D01*
X17084789Y-14094189D01*
X17100334Y-14075247D01*
X17111885Y-14053636D01*
X17118998Y-14030187D01*
X17121400Y-14005801D01*
X17121400Y-13520600D01*
X18032200Y-13520600D01*
X18032200Y-13911400D01*
X17795399Y-13911400D01*
X17771013Y-13913802D01*
X17747564Y-13920915D01*
X17725953Y-13932466D01*
X17707011Y-13948011D01*
X17691466Y-13966953D01*
X17679915Y-13988564D01*
X17672802Y-14012013D01*
X17670400Y-14036399D01*
X17670400Y-14845801D01*
X17672802Y-14870187D01*
X17679915Y-14893636D01*
X17691466Y-14915247D01*
X17707011Y-14934189D01*
X17725953Y-14949734D01*
X17730400Y-14952111D01*
X17730400Y-15680289D01*
X17725953Y-15682666D01*
X17707011Y-15698211D01*
X17691466Y-15717153D01*
X17679915Y-15738764D01*
X17672802Y-15762213D01*
X17670400Y-15786599D01*
X17670400Y-16501600D01*
X15349600Y-16501600D01*
X15349600Y-15786599D01*
X15347198Y-15762213D01*
X15340085Y-15738764D01*
X15328534Y-15717153D01*
X15312989Y-15698211D01*
X15294047Y-15682666D01*
X15289600Y-15680289D01*
X15289600Y-14952111D01*
X15294047Y-14949734D01*
X15312989Y-14934189D01*
X15328534Y-14915247D01*
X15340085Y-14893636D01*
X15347198Y-14870187D01*
X15349600Y-14845801D01*
X15349600Y-14036399D01*
X15347198Y-14012013D01*
X15340085Y-13988564D01*
X15328534Y-13966953D01*
X15312989Y-13948011D01*
X15294047Y-13932466D01*
X15272436Y-13920915D01*
X15267200Y-13919327D01*
X15267200Y-13520600D01*
X16178000Y-13520600D01*
X16178000Y-14005801D01*
X16178000Y-14005801D01*
G37*
G36*
X14259600Y-16330600D02*
G01*
X13578800Y-16330600D01*
X13578800Y-15699800D01*
X14259600Y-15699800D01*
X14259600Y-16330600D01*
X14259600Y-16330600D01*
G37*
G36*
X14476200Y-14597200D02*
G01*
X14384599Y-14597200D01*
X14360213Y-14599602D01*
X14336764Y-14606715D01*
X14315153Y-14618266D01*
X14296211Y-14633811D01*
X14280666Y-14652753D01*
X14269115Y-14674364D01*
X14262002Y-14697813D01*
X14259600Y-14722199D01*
X14259600Y-15440600D01*
X13578800Y-15440600D01*
X13578800Y-14722199D01*
X13576398Y-14697813D01*
X13569285Y-14674364D01*
X13565400Y-14667095D01*
X13565400Y-14206400D01*
X14476200Y-14206400D01*
X14476200Y-14597200D01*
X14476200Y-14597200D01*
G37*
M02*
