G04 #@! TF.GenerationSoftware,KiCad,Pcbnew,(5.1.0)-1*
G04 #@! TF.CreationDate,2019-04-30T21:14:17-07:00*
G04 #@! TF.ProjectId,MS_v4_ETL_LED_Driver,4d535f76-345f-4455-944c-5f4c45445f44,rev?*
G04 #@! TF.SameCoordinates,Original*
G04 #@! TF.FileFunction,Copper,L2,Inr*
G04 #@! TF.FilePolarity,Positive*
%FSLAX46Y46*%
G04 Gerber Fmt 4.6, Leading zero omitted, Abs format (unit mm)*
G04 Created by KiCad (PCBNEW (5.1.0)-1) date 2019-04-30 21:14:17*
%MOMM*%
%LPD*%
G04 APERTURE LIST*
%ADD10C,0.450000*%
%ADD11C,0.152000*%
%ADD12C,0.203200*%
%ADD13C,0.101600*%
G04 APERTURE END LIST*
D10*
X17805400Y-20828000D03*
X17805400Y-22098000D03*
X16738600Y-13766800D03*
X17170406Y-19608800D03*
X17805400Y-23291800D03*
X12801600Y-18491200D03*
X15544800Y-18542000D03*
X17373600Y-15290800D03*
X17542500Y-17221200D03*
X17805400Y-20243800D03*
X17805400Y-21488400D03*
X13970001Y-19363700D03*
X16129000Y-15316200D03*
X13411200Y-18973800D03*
X17754600Y-19608800D03*
X16357600Y-19964400D03*
X15036800Y-14476200D03*
X13766800Y-23291800D03*
X13411200Y-17043400D03*
X17195800Y-16789400D03*
X14173200Y-16941800D03*
X14757400Y-15671800D03*
X14732000Y-13766800D03*
X12801600Y-17526000D03*
X15925800Y-18110200D03*
X14325600Y-23291800D03*
X13411200Y-18008600D03*
X16992600Y-17348200D03*
X13766800Y-20650200D03*
D11*
X15494000Y-18491200D02*
X15544800Y-18542000D01*
D12*
X12801600Y-18491200D02*
X15494000Y-18491200D01*
D13*
G36*
X14202200Y-13714619D02*
G01*
X14202200Y-13818981D01*
X14222560Y-13921337D01*
X14262498Y-14017754D01*
X14320478Y-14104528D01*
X14394272Y-14178322D01*
X14481046Y-14236302D01*
X14550757Y-14265178D01*
X14527360Y-14321663D01*
X14507000Y-14424019D01*
X14507000Y-14528381D01*
X14527360Y-14630737D01*
X14567298Y-14727154D01*
X14625278Y-14813928D01*
X14699072Y-14887722D01*
X14785846Y-14945702D01*
X14882263Y-14985640D01*
X14984619Y-15006000D01*
X15088981Y-15006000D01*
X15191337Y-14985640D01*
X15287754Y-14945702D01*
X15374528Y-14887722D01*
X15448322Y-14813928D01*
X15506302Y-14727154D01*
X15546240Y-14630737D01*
X15566600Y-14528381D01*
X15566600Y-14424019D01*
X15546240Y-14321663D01*
X15506302Y-14225246D01*
X15448322Y-14138472D01*
X15374528Y-14064678D01*
X15287754Y-14006698D01*
X15218043Y-13977822D01*
X15241440Y-13921337D01*
X15261800Y-13818981D01*
X15261800Y-13714619D01*
X15241865Y-13614400D01*
X16228735Y-13614400D01*
X16208800Y-13714619D01*
X16208800Y-13818981D01*
X16229160Y-13921337D01*
X16269098Y-14017754D01*
X16327078Y-14104528D01*
X16400872Y-14178322D01*
X16487646Y-14236302D01*
X16584063Y-14276240D01*
X16686419Y-14296600D01*
X16790781Y-14296600D01*
X16893137Y-14276240D01*
X16989554Y-14236302D01*
X17076328Y-14178322D01*
X17150122Y-14104528D01*
X17208102Y-14017754D01*
X17248040Y-13921337D01*
X17268400Y-13818981D01*
X17268400Y-13714619D01*
X17248465Y-13614400D01*
X17954001Y-13614400D01*
X17954000Y-16300414D01*
X17954001Y-16300424D01*
X17954001Y-19117943D01*
X17909137Y-19099360D01*
X17806781Y-19079000D01*
X17702419Y-19079000D01*
X17600063Y-19099360D01*
X17503646Y-19139298D01*
X17462503Y-19166789D01*
X17421360Y-19139298D01*
X17324943Y-19099360D01*
X17222587Y-19079000D01*
X17118225Y-19079000D01*
X17015869Y-19099360D01*
X16919452Y-19139298D01*
X16832678Y-19197278D01*
X16758884Y-19271072D01*
X16700904Y-19357846D01*
X16660966Y-19454263D01*
X16647683Y-19521043D01*
X16608554Y-19494898D01*
X16512137Y-19454960D01*
X16409781Y-19434600D01*
X16305419Y-19434600D01*
X16203063Y-19454960D01*
X16106646Y-19494898D01*
X16019872Y-19552878D01*
X15946078Y-19626672D01*
X15888098Y-19713446D01*
X15848160Y-19809863D01*
X15827800Y-19912219D01*
X15827800Y-20016581D01*
X15848160Y-20118937D01*
X15888098Y-20215354D01*
X15946078Y-20302128D01*
X16019872Y-20375922D01*
X16106646Y-20433902D01*
X16203063Y-20473840D01*
X16305419Y-20494200D01*
X16409781Y-20494200D01*
X16512137Y-20473840D01*
X16608554Y-20433902D01*
X16695328Y-20375922D01*
X16769122Y-20302128D01*
X16827102Y-20215354D01*
X16867040Y-20118937D01*
X16880323Y-20052157D01*
X16919452Y-20078302D01*
X17015869Y-20118240D01*
X17118225Y-20138600D01*
X17222587Y-20138600D01*
X17324943Y-20118240D01*
X17421360Y-20078302D01*
X17462503Y-20050811D01*
X17503646Y-20078302D01*
X17600063Y-20118240D01*
X17702419Y-20138600D01*
X17806781Y-20138600D01*
X17909137Y-20118240D01*
X17954000Y-20099657D01*
X17954000Y-20317379D01*
X17857581Y-20298200D01*
X17753219Y-20298200D01*
X17650863Y-20318560D01*
X17554446Y-20358498D01*
X17467672Y-20416478D01*
X17393878Y-20490272D01*
X17335898Y-20577046D01*
X17295960Y-20673463D01*
X17275600Y-20775819D01*
X17275600Y-20880181D01*
X17295960Y-20982537D01*
X17335898Y-21078954D01*
X17393878Y-21165728D01*
X17467672Y-21239522D01*
X17554446Y-21297502D01*
X17650863Y-21337440D01*
X17753219Y-21357800D01*
X17857581Y-21357800D01*
X17954000Y-21338621D01*
X17954000Y-21587379D01*
X17857581Y-21568200D01*
X17753219Y-21568200D01*
X17650863Y-21588560D01*
X17554446Y-21628498D01*
X17467672Y-21686478D01*
X17393878Y-21760272D01*
X17335898Y-21847046D01*
X17295960Y-21943463D01*
X17275600Y-22045819D01*
X17275600Y-22150181D01*
X17295960Y-22252537D01*
X17335898Y-22348954D01*
X17393878Y-22435728D01*
X17467672Y-22509522D01*
X17554446Y-22567502D01*
X17650863Y-22607440D01*
X17753219Y-22627800D01*
X17857581Y-22627800D01*
X17954000Y-22608621D01*
X17954000Y-23454000D01*
X14831866Y-23454000D01*
X14835040Y-23446337D01*
X14855400Y-23343981D01*
X14855400Y-23239619D01*
X14835040Y-23137263D01*
X14795102Y-23040846D01*
X14737122Y-22954072D01*
X14663328Y-22880278D01*
X14576554Y-22822298D01*
X14480137Y-22782360D01*
X14377781Y-22762000D01*
X14273419Y-22762000D01*
X14171063Y-22782360D01*
X14074646Y-22822298D01*
X14046200Y-22841305D01*
X14017754Y-22822298D01*
X13921337Y-22782360D01*
X13818981Y-22762000D01*
X13714619Y-22762000D01*
X13614400Y-22781935D01*
X13614400Y-21160065D01*
X13714619Y-21180000D01*
X13818981Y-21180000D01*
X13921337Y-21159640D01*
X14017754Y-21119702D01*
X14104528Y-21061722D01*
X14178322Y-20987928D01*
X14236302Y-20901154D01*
X14276240Y-20804737D01*
X14296600Y-20702381D01*
X14296600Y-20598019D01*
X14276240Y-20495663D01*
X14236302Y-20399246D01*
X14178322Y-20312472D01*
X14104528Y-20238678D01*
X14017754Y-20180698D01*
X13921337Y-20140760D01*
X13818981Y-20120400D01*
X13714619Y-20120400D01*
X13614400Y-20140335D01*
X13614400Y-19800415D01*
X13615997Y-19784200D01*
X13609622Y-19719470D01*
X13590740Y-19657227D01*
X13560079Y-19599863D01*
X13529152Y-19562179D01*
X13518816Y-19549584D01*
X13506219Y-19539246D01*
X13469380Y-19502407D01*
X13565737Y-19483240D01*
X13662154Y-19443302D01*
X13748928Y-19385322D01*
X13822722Y-19311528D01*
X13880702Y-19224754D01*
X13920640Y-19128337D01*
X13941000Y-19025981D01*
X13941000Y-18921619D01*
X13920640Y-18819263D01*
X13880702Y-18722846D01*
X13822722Y-18636072D01*
X13748928Y-18562278D01*
X13662154Y-18504298D01*
X13630533Y-18491200D01*
X13662154Y-18478102D01*
X13748928Y-18420122D01*
X13822722Y-18346328D01*
X13880702Y-18259554D01*
X13920640Y-18163137D01*
X13941000Y-18060781D01*
X13941000Y-18058019D01*
X15396000Y-18058019D01*
X15396000Y-18162381D01*
X15416360Y-18264737D01*
X15456298Y-18361154D01*
X15514278Y-18447928D01*
X15588072Y-18521722D01*
X15674846Y-18579702D01*
X15771263Y-18619640D01*
X15873619Y-18640000D01*
X15977981Y-18640000D01*
X16080337Y-18619640D01*
X16176754Y-18579702D01*
X16263528Y-18521722D01*
X16337322Y-18447928D01*
X16395302Y-18361154D01*
X16435240Y-18264737D01*
X16455600Y-18162381D01*
X16455600Y-18058019D01*
X16435240Y-17955663D01*
X16395302Y-17859246D01*
X16337322Y-17772472D01*
X16263528Y-17698678D01*
X16176754Y-17640698D01*
X16080337Y-17600760D01*
X15977981Y-17580400D01*
X15873619Y-17580400D01*
X15771263Y-17600760D01*
X15674846Y-17640698D01*
X15588072Y-17698678D01*
X15514278Y-17772472D01*
X15456298Y-17859246D01*
X15416360Y-17955663D01*
X15396000Y-18058019D01*
X13941000Y-18058019D01*
X13941000Y-17956419D01*
X13920640Y-17854063D01*
X13880702Y-17757646D01*
X13822722Y-17670872D01*
X13748928Y-17597078D01*
X13662154Y-17539098D01*
X13630533Y-17526000D01*
X13662154Y-17512902D01*
X13748928Y-17454922D01*
X13822722Y-17381128D01*
X13839502Y-17356015D01*
X13922246Y-17411302D01*
X14018663Y-17451240D01*
X14121019Y-17471600D01*
X14225381Y-17471600D01*
X14327737Y-17451240D01*
X14424154Y-17411302D01*
X14510928Y-17353322D01*
X14568231Y-17296019D01*
X16462800Y-17296019D01*
X16462800Y-17400381D01*
X16483160Y-17502737D01*
X16523098Y-17599154D01*
X16581078Y-17685928D01*
X16654872Y-17759722D01*
X16741646Y-17817702D01*
X16838063Y-17857640D01*
X16940419Y-17878000D01*
X17044781Y-17878000D01*
X17147137Y-17857640D01*
X17243554Y-17817702D01*
X17330328Y-17759722D01*
X17404122Y-17685928D01*
X17462102Y-17599154D01*
X17502040Y-17502737D01*
X17522400Y-17400381D01*
X17522400Y-17296019D01*
X17507009Y-17218642D01*
X17533528Y-17200922D01*
X17607322Y-17127128D01*
X17665302Y-17040354D01*
X17705240Y-16943937D01*
X17725600Y-16841581D01*
X17725600Y-16737219D01*
X17705240Y-16634863D01*
X17665302Y-16538446D01*
X17607322Y-16451672D01*
X17533528Y-16377878D01*
X17446754Y-16319898D01*
X17350337Y-16279960D01*
X17247981Y-16259600D01*
X17143619Y-16259600D01*
X17041263Y-16279960D01*
X16944846Y-16319898D01*
X16858072Y-16377878D01*
X16784278Y-16451672D01*
X16726298Y-16538446D01*
X16686360Y-16634863D01*
X16666000Y-16737219D01*
X16666000Y-16841581D01*
X16681391Y-16918958D01*
X16654872Y-16936678D01*
X16581078Y-17010472D01*
X16523098Y-17097246D01*
X16483160Y-17193663D01*
X16462800Y-17296019D01*
X14568231Y-17296019D01*
X14584722Y-17279528D01*
X14642702Y-17192754D01*
X14682640Y-17096337D01*
X14703000Y-16993981D01*
X14703000Y-16889619D01*
X14682640Y-16787263D01*
X14642702Y-16690846D01*
X14584722Y-16604072D01*
X14510928Y-16530278D01*
X14424154Y-16472298D01*
X14327737Y-16432360D01*
X14225381Y-16412000D01*
X14121019Y-16412000D01*
X14018663Y-16432360D01*
X13922246Y-16472298D01*
X13835472Y-16530278D01*
X13761678Y-16604072D01*
X13744898Y-16629185D01*
X13662154Y-16573898D01*
X13565737Y-16533960D01*
X13513117Y-16523493D01*
X13518816Y-16518816D01*
X13560079Y-16468537D01*
X13590740Y-16411173D01*
X13609622Y-16348930D01*
X13614400Y-16300415D01*
X13614400Y-16300414D01*
X13615997Y-16284200D01*
X13614400Y-16267985D01*
X13614400Y-15619619D01*
X14227600Y-15619619D01*
X14227600Y-15723981D01*
X14247960Y-15826337D01*
X14287898Y-15922754D01*
X14345878Y-16009528D01*
X14419672Y-16083322D01*
X14506446Y-16141302D01*
X14602863Y-16181240D01*
X14705219Y-16201600D01*
X14809581Y-16201600D01*
X14911937Y-16181240D01*
X15008354Y-16141302D01*
X15095128Y-16083322D01*
X15168922Y-16009528D01*
X15226902Y-15922754D01*
X15266840Y-15826337D01*
X15287200Y-15723981D01*
X15287200Y-15619619D01*
X15266840Y-15517263D01*
X15226902Y-15420846D01*
X15168922Y-15334072D01*
X15095128Y-15260278D01*
X15008354Y-15202298D01*
X14911937Y-15162360D01*
X14809581Y-15142000D01*
X14705219Y-15142000D01*
X14602863Y-15162360D01*
X14506446Y-15202298D01*
X14419672Y-15260278D01*
X14345878Y-15334072D01*
X14287898Y-15420846D01*
X14247960Y-15517263D01*
X14227600Y-15619619D01*
X13614400Y-15619619D01*
X13614400Y-13614400D01*
X14222135Y-13614400D01*
X14202200Y-13714619D01*
X14202200Y-13714619D01*
G37*
X14202200Y-13714619D02*
X14202200Y-13818981D01*
X14222560Y-13921337D01*
X14262498Y-14017754D01*
X14320478Y-14104528D01*
X14394272Y-14178322D01*
X14481046Y-14236302D01*
X14550757Y-14265178D01*
X14527360Y-14321663D01*
X14507000Y-14424019D01*
X14507000Y-14528381D01*
X14527360Y-14630737D01*
X14567298Y-14727154D01*
X14625278Y-14813928D01*
X14699072Y-14887722D01*
X14785846Y-14945702D01*
X14882263Y-14985640D01*
X14984619Y-15006000D01*
X15088981Y-15006000D01*
X15191337Y-14985640D01*
X15287754Y-14945702D01*
X15374528Y-14887722D01*
X15448322Y-14813928D01*
X15506302Y-14727154D01*
X15546240Y-14630737D01*
X15566600Y-14528381D01*
X15566600Y-14424019D01*
X15546240Y-14321663D01*
X15506302Y-14225246D01*
X15448322Y-14138472D01*
X15374528Y-14064678D01*
X15287754Y-14006698D01*
X15218043Y-13977822D01*
X15241440Y-13921337D01*
X15261800Y-13818981D01*
X15261800Y-13714619D01*
X15241865Y-13614400D01*
X16228735Y-13614400D01*
X16208800Y-13714619D01*
X16208800Y-13818981D01*
X16229160Y-13921337D01*
X16269098Y-14017754D01*
X16327078Y-14104528D01*
X16400872Y-14178322D01*
X16487646Y-14236302D01*
X16584063Y-14276240D01*
X16686419Y-14296600D01*
X16790781Y-14296600D01*
X16893137Y-14276240D01*
X16989554Y-14236302D01*
X17076328Y-14178322D01*
X17150122Y-14104528D01*
X17208102Y-14017754D01*
X17248040Y-13921337D01*
X17268400Y-13818981D01*
X17268400Y-13714619D01*
X17248465Y-13614400D01*
X17954001Y-13614400D01*
X17954000Y-16300414D01*
X17954001Y-16300424D01*
X17954001Y-19117943D01*
X17909137Y-19099360D01*
X17806781Y-19079000D01*
X17702419Y-19079000D01*
X17600063Y-19099360D01*
X17503646Y-19139298D01*
X17462503Y-19166789D01*
X17421360Y-19139298D01*
X17324943Y-19099360D01*
X17222587Y-19079000D01*
X17118225Y-19079000D01*
X17015869Y-19099360D01*
X16919452Y-19139298D01*
X16832678Y-19197278D01*
X16758884Y-19271072D01*
X16700904Y-19357846D01*
X16660966Y-19454263D01*
X16647683Y-19521043D01*
X16608554Y-19494898D01*
X16512137Y-19454960D01*
X16409781Y-19434600D01*
X16305419Y-19434600D01*
X16203063Y-19454960D01*
X16106646Y-19494898D01*
X16019872Y-19552878D01*
X15946078Y-19626672D01*
X15888098Y-19713446D01*
X15848160Y-19809863D01*
X15827800Y-19912219D01*
X15827800Y-20016581D01*
X15848160Y-20118937D01*
X15888098Y-20215354D01*
X15946078Y-20302128D01*
X16019872Y-20375922D01*
X16106646Y-20433902D01*
X16203063Y-20473840D01*
X16305419Y-20494200D01*
X16409781Y-20494200D01*
X16512137Y-20473840D01*
X16608554Y-20433902D01*
X16695328Y-20375922D01*
X16769122Y-20302128D01*
X16827102Y-20215354D01*
X16867040Y-20118937D01*
X16880323Y-20052157D01*
X16919452Y-20078302D01*
X17015869Y-20118240D01*
X17118225Y-20138600D01*
X17222587Y-20138600D01*
X17324943Y-20118240D01*
X17421360Y-20078302D01*
X17462503Y-20050811D01*
X17503646Y-20078302D01*
X17600063Y-20118240D01*
X17702419Y-20138600D01*
X17806781Y-20138600D01*
X17909137Y-20118240D01*
X17954000Y-20099657D01*
X17954000Y-20317379D01*
X17857581Y-20298200D01*
X17753219Y-20298200D01*
X17650863Y-20318560D01*
X17554446Y-20358498D01*
X17467672Y-20416478D01*
X17393878Y-20490272D01*
X17335898Y-20577046D01*
X17295960Y-20673463D01*
X17275600Y-20775819D01*
X17275600Y-20880181D01*
X17295960Y-20982537D01*
X17335898Y-21078954D01*
X17393878Y-21165728D01*
X17467672Y-21239522D01*
X17554446Y-21297502D01*
X17650863Y-21337440D01*
X17753219Y-21357800D01*
X17857581Y-21357800D01*
X17954000Y-21338621D01*
X17954000Y-21587379D01*
X17857581Y-21568200D01*
X17753219Y-21568200D01*
X17650863Y-21588560D01*
X17554446Y-21628498D01*
X17467672Y-21686478D01*
X17393878Y-21760272D01*
X17335898Y-21847046D01*
X17295960Y-21943463D01*
X17275600Y-22045819D01*
X17275600Y-22150181D01*
X17295960Y-22252537D01*
X17335898Y-22348954D01*
X17393878Y-22435728D01*
X17467672Y-22509522D01*
X17554446Y-22567502D01*
X17650863Y-22607440D01*
X17753219Y-22627800D01*
X17857581Y-22627800D01*
X17954000Y-22608621D01*
X17954000Y-23454000D01*
X14831866Y-23454000D01*
X14835040Y-23446337D01*
X14855400Y-23343981D01*
X14855400Y-23239619D01*
X14835040Y-23137263D01*
X14795102Y-23040846D01*
X14737122Y-22954072D01*
X14663328Y-22880278D01*
X14576554Y-22822298D01*
X14480137Y-22782360D01*
X14377781Y-22762000D01*
X14273419Y-22762000D01*
X14171063Y-22782360D01*
X14074646Y-22822298D01*
X14046200Y-22841305D01*
X14017754Y-22822298D01*
X13921337Y-22782360D01*
X13818981Y-22762000D01*
X13714619Y-22762000D01*
X13614400Y-22781935D01*
X13614400Y-21160065D01*
X13714619Y-21180000D01*
X13818981Y-21180000D01*
X13921337Y-21159640D01*
X14017754Y-21119702D01*
X14104528Y-21061722D01*
X14178322Y-20987928D01*
X14236302Y-20901154D01*
X14276240Y-20804737D01*
X14296600Y-20702381D01*
X14296600Y-20598019D01*
X14276240Y-20495663D01*
X14236302Y-20399246D01*
X14178322Y-20312472D01*
X14104528Y-20238678D01*
X14017754Y-20180698D01*
X13921337Y-20140760D01*
X13818981Y-20120400D01*
X13714619Y-20120400D01*
X13614400Y-20140335D01*
X13614400Y-19800415D01*
X13615997Y-19784200D01*
X13609622Y-19719470D01*
X13590740Y-19657227D01*
X13560079Y-19599863D01*
X13529152Y-19562179D01*
X13518816Y-19549584D01*
X13506219Y-19539246D01*
X13469380Y-19502407D01*
X13565737Y-19483240D01*
X13662154Y-19443302D01*
X13748928Y-19385322D01*
X13822722Y-19311528D01*
X13880702Y-19224754D01*
X13920640Y-19128337D01*
X13941000Y-19025981D01*
X13941000Y-18921619D01*
X13920640Y-18819263D01*
X13880702Y-18722846D01*
X13822722Y-18636072D01*
X13748928Y-18562278D01*
X13662154Y-18504298D01*
X13630533Y-18491200D01*
X13662154Y-18478102D01*
X13748928Y-18420122D01*
X13822722Y-18346328D01*
X13880702Y-18259554D01*
X13920640Y-18163137D01*
X13941000Y-18060781D01*
X13941000Y-18058019D01*
X15396000Y-18058019D01*
X15396000Y-18162381D01*
X15416360Y-18264737D01*
X15456298Y-18361154D01*
X15514278Y-18447928D01*
X15588072Y-18521722D01*
X15674846Y-18579702D01*
X15771263Y-18619640D01*
X15873619Y-18640000D01*
X15977981Y-18640000D01*
X16080337Y-18619640D01*
X16176754Y-18579702D01*
X16263528Y-18521722D01*
X16337322Y-18447928D01*
X16395302Y-18361154D01*
X16435240Y-18264737D01*
X16455600Y-18162381D01*
X16455600Y-18058019D01*
X16435240Y-17955663D01*
X16395302Y-17859246D01*
X16337322Y-17772472D01*
X16263528Y-17698678D01*
X16176754Y-17640698D01*
X16080337Y-17600760D01*
X15977981Y-17580400D01*
X15873619Y-17580400D01*
X15771263Y-17600760D01*
X15674846Y-17640698D01*
X15588072Y-17698678D01*
X15514278Y-17772472D01*
X15456298Y-17859246D01*
X15416360Y-17955663D01*
X15396000Y-18058019D01*
X13941000Y-18058019D01*
X13941000Y-17956419D01*
X13920640Y-17854063D01*
X13880702Y-17757646D01*
X13822722Y-17670872D01*
X13748928Y-17597078D01*
X13662154Y-17539098D01*
X13630533Y-17526000D01*
X13662154Y-17512902D01*
X13748928Y-17454922D01*
X13822722Y-17381128D01*
X13839502Y-17356015D01*
X13922246Y-17411302D01*
X14018663Y-17451240D01*
X14121019Y-17471600D01*
X14225381Y-17471600D01*
X14327737Y-17451240D01*
X14424154Y-17411302D01*
X14510928Y-17353322D01*
X14568231Y-17296019D01*
X16462800Y-17296019D01*
X16462800Y-17400381D01*
X16483160Y-17502737D01*
X16523098Y-17599154D01*
X16581078Y-17685928D01*
X16654872Y-17759722D01*
X16741646Y-17817702D01*
X16838063Y-17857640D01*
X16940419Y-17878000D01*
X17044781Y-17878000D01*
X17147137Y-17857640D01*
X17243554Y-17817702D01*
X17330328Y-17759722D01*
X17404122Y-17685928D01*
X17462102Y-17599154D01*
X17502040Y-17502737D01*
X17522400Y-17400381D01*
X17522400Y-17296019D01*
X17507009Y-17218642D01*
X17533528Y-17200922D01*
X17607322Y-17127128D01*
X17665302Y-17040354D01*
X17705240Y-16943937D01*
X17725600Y-16841581D01*
X17725600Y-16737219D01*
X17705240Y-16634863D01*
X17665302Y-16538446D01*
X17607322Y-16451672D01*
X17533528Y-16377878D01*
X17446754Y-16319898D01*
X17350337Y-16279960D01*
X17247981Y-16259600D01*
X17143619Y-16259600D01*
X17041263Y-16279960D01*
X16944846Y-16319898D01*
X16858072Y-16377878D01*
X16784278Y-16451672D01*
X16726298Y-16538446D01*
X16686360Y-16634863D01*
X16666000Y-16737219D01*
X16666000Y-16841581D01*
X16681391Y-16918958D01*
X16654872Y-16936678D01*
X16581078Y-17010472D01*
X16523098Y-17097246D01*
X16483160Y-17193663D01*
X16462800Y-17296019D01*
X14568231Y-17296019D01*
X14584722Y-17279528D01*
X14642702Y-17192754D01*
X14682640Y-17096337D01*
X14703000Y-16993981D01*
X14703000Y-16889619D01*
X14682640Y-16787263D01*
X14642702Y-16690846D01*
X14584722Y-16604072D01*
X14510928Y-16530278D01*
X14424154Y-16472298D01*
X14327737Y-16432360D01*
X14225381Y-16412000D01*
X14121019Y-16412000D01*
X14018663Y-16432360D01*
X13922246Y-16472298D01*
X13835472Y-16530278D01*
X13761678Y-16604072D01*
X13744898Y-16629185D01*
X13662154Y-16573898D01*
X13565737Y-16533960D01*
X13513117Y-16523493D01*
X13518816Y-16518816D01*
X13560079Y-16468537D01*
X13590740Y-16411173D01*
X13609622Y-16348930D01*
X13614400Y-16300415D01*
X13614400Y-16300414D01*
X13615997Y-16284200D01*
X13614400Y-16267985D01*
X13614400Y-15619619D01*
X14227600Y-15619619D01*
X14227600Y-15723981D01*
X14247960Y-15826337D01*
X14287898Y-15922754D01*
X14345878Y-16009528D01*
X14419672Y-16083322D01*
X14506446Y-16141302D01*
X14602863Y-16181240D01*
X14705219Y-16201600D01*
X14809581Y-16201600D01*
X14911937Y-16181240D01*
X15008354Y-16141302D01*
X15095128Y-16083322D01*
X15168922Y-16009528D01*
X15226902Y-15922754D01*
X15266840Y-15826337D01*
X15287200Y-15723981D01*
X15287200Y-15619619D01*
X15266840Y-15517263D01*
X15226902Y-15420846D01*
X15168922Y-15334072D01*
X15095128Y-15260278D01*
X15008354Y-15202298D01*
X14911937Y-15162360D01*
X14809581Y-15142000D01*
X14705219Y-15142000D01*
X14602863Y-15162360D01*
X14506446Y-15202298D01*
X14419672Y-15260278D01*
X14345878Y-15334072D01*
X14287898Y-15420846D01*
X14247960Y-15517263D01*
X14227600Y-15619619D01*
X13614400Y-15619619D01*
X13614400Y-13614400D01*
X14222135Y-13614400D01*
X14202200Y-13714619D01*
G36*
X12647063Y-18035440D02*
G01*
X12749419Y-18055800D01*
X12853781Y-18055800D01*
X12881400Y-18050306D01*
X12881400Y-18060781D01*
X12901760Y-18163137D01*
X12941698Y-18259554D01*
X12999678Y-18346328D01*
X13073472Y-18420122D01*
X13160246Y-18478102D01*
X13191867Y-18491200D01*
X13160246Y-18504298D01*
X13073472Y-18562278D01*
X12999678Y-18636072D01*
X12941698Y-18722846D01*
X12901760Y-18819263D01*
X12882593Y-18915621D01*
X12614400Y-18647428D01*
X12614400Y-18021910D01*
X12647063Y-18035440D01*
X12647063Y-18035440D01*
G37*
X12647063Y-18035440D02*
X12749419Y-18055800D01*
X12853781Y-18055800D01*
X12881400Y-18050306D01*
X12881400Y-18060781D01*
X12901760Y-18163137D01*
X12941698Y-18259554D01*
X12999678Y-18346328D01*
X13073472Y-18420122D01*
X13160246Y-18478102D01*
X13191867Y-18491200D01*
X13160246Y-18504298D01*
X13073472Y-18562278D01*
X12999678Y-18636072D01*
X12941698Y-18722846D01*
X12901760Y-18819263D01*
X12882593Y-18915621D01*
X12614400Y-18647428D01*
X12614400Y-18021910D01*
X12647063Y-18035440D01*
M02*
