G04 #@! TF.GenerationSoftware,KiCad,Pcbnew,(5.1.0)-1*
G04 #@! TF.CreationDate,2019-05-02T20:00:12-07:00*
G04 #@! TF.ProjectId,MS_v4_ETL_LED_Driver,4d535f76-345f-4455-944c-5f4c45445f44,rev?*
G04 #@! TF.SameCoordinates,PXcab368PY16aeb08*
G04 #@! TF.FileFunction,Soldermask,Bot*
G04 #@! TF.FilePolarity,Negative*
%FSLAX46Y46*%
G04 Gerber Fmt 4.6, Leading zero omitted, Abs format (unit mm)*
G04 Created by KiCad (PCBNEW (5.1.0)-1) date 2019-05-02 20:00:12*
%MOMM*%
%LPD*%
G04 APERTURE LIST*
%ADD10C,0.100000*%
G04 APERTURE END LIST*
D10*
G36*
X4232400Y608800D02*
G01*
X3641600Y608800D01*
X3641600Y1719600D01*
X4232400Y1719600D01*
X4232400Y608800D01*
X4232400Y608800D01*
G37*
G36*
X3066201Y1225800D02*
G01*
X2205401Y1225800D01*
X2205401Y2146600D01*
X3066201Y2146600D01*
X3066201Y1225800D01*
X3066201Y1225800D01*
G37*
G36*
X1706199Y1225800D02*
G01*
X845399Y1225800D01*
X845399Y2146600D01*
X1706199Y2146600D01*
X1706199Y1225800D01*
X1706199Y1225800D01*
G37*
G36*
X3091200Y2445400D02*
G01*
X2150400Y2445400D01*
X2150400Y3416200D01*
X3091200Y3416200D01*
X3091200Y2445400D01*
X3091200Y2445400D01*
G37*
G36*
X1761200Y2445400D02*
G01*
X820400Y2445400D01*
X820400Y3416200D01*
X1761200Y3416200D01*
X1761200Y2445400D01*
X1761200Y2445400D01*
G37*
G36*
X4232400Y2668800D02*
G01*
X3641600Y2668800D01*
X3641600Y3779600D01*
X4232400Y3779600D01*
X4232400Y2668800D01*
X4232400Y2668800D01*
G37*
G36*
X3100400Y6999600D02*
G01*
X2599600Y6999600D01*
X2599600Y8550400D01*
X3100400Y8550400D01*
X3100400Y6999600D01*
X3100400Y6999600D01*
G37*
G36*
X2400400Y6999600D02*
G01*
X1899600Y6999600D01*
X1899600Y8550400D01*
X2400400Y8550400D01*
X2400400Y6999600D01*
X2400400Y6999600D01*
G37*
M02*
