G04 #@! TF.GenerationSoftware,KiCad,Pcbnew,(5.1.0)-1*
G04 #@! TF.CreationDate,2019-04-30T21:14:17-07:00*
G04 #@! TF.ProjectId,MS_v4_ETL_LED_Driver,4d535f76-345f-4455-944c-5f4c45445f44,rev?*
G04 #@! TF.SameCoordinates,Original*
G04 #@! TF.FileFunction,Paste,Top*
G04 #@! TF.FilePolarity,Positive*
%FSLAX46Y46*%
G04 Gerber Fmt 4.6, Leading zero omitted, Abs format (unit mm)*
G04 Created by KiCad (PCBNEW (5.1.0)-1) date 2019-04-30 21:14:17*
%MOMM*%
%LPD*%
G04 APERTURE LIST*
%ADD10R,0.762000X1.016000*%
%ADD11R,0.310000X0.340000*%
%ADD12R,0.340000X0.310000*%
%ADD13C,0.508000*%
%ADD14R,0.630000X0.580000*%
%ADD15R,0.762000X1.270000*%
%ADD16C,0.350000*%
%ADD17R,0.610000X0.220000*%
%ADD18R,0.220000X0.610000*%
%ADD19R,2.390000X0.640000*%
%ADD20R,0.270000X0.640000*%
G04 APERTURE END LIST*
D10*
X17653000Y-23012400D03*
D11*
X14524400Y-19964400D03*
X13974400Y-19964400D03*
D12*
X13716000Y-21543600D03*
X13716000Y-22093600D03*
D11*
X13695000Y-22707600D03*
X14245000Y-22707600D03*
D13*
X13413486Y-17047496D03*
X12803886Y-17530095D03*
X13413486Y-18012695D03*
X12803886Y-18495294D03*
X13413486Y-18977894D03*
D11*
X13745800Y-14401800D03*
X14295800Y-14401800D03*
X15794400Y-19964400D03*
X15244400Y-19964400D03*
X15447600Y-13716000D03*
X15997600Y-13716000D03*
D14*
X13919200Y-15125200D03*
X13919200Y-16015200D03*
X17602200Y-18936200D03*
X17602200Y-18046200D03*
D15*
X15284200Y-22885400D03*
X16284200Y-22885400D03*
D11*
X17301800Y-13716000D03*
X17851800Y-13716000D03*
D16*
X16748000Y-21658200D03*
X16248000Y-21658200D03*
X15748000Y-21658200D03*
X15248000Y-21658200D03*
X14748000Y-21658200D03*
X16748000Y-21158200D03*
X16248000Y-21158200D03*
X15748000Y-21158200D03*
X15248000Y-21158200D03*
X14748000Y-21158200D03*
X16748000Y-20658200D03*
X16248000Y-20658200D03*
X15748000Y-20658200D03*
X15248000Y-20658200D03*
X14748000Y-20658200D03*
D17*
X14877600Y-18538800D03*
X14877600Y-18138800D03*
D18*
X14922600Y-17493800D03*
X15322600Y-17493800D03*
X15722600Y-17493800D03*
X16122600Y-17493800D03*
X16522600Y-17493800D03*
D17*
X16567600Y-18138800D03*
X16567600Y-18538800D03*
D18*
X16522600Y-19183800D03*
X16122600Y-19183800D03*
X15722600Y-19183800D03*
X15322600Y-19183800D03*
X14922600Y-19183800D03*
D19*
X16510000Y-15316200D03*
D20*
X15510000Y-14476200D03*
X16010000Y-14476200D03*
X16510000Y-14476200D03*
X17010000Y-14476200D03*
X17510000Y-14476200D03*
X17510000Y-16156200D03*
X17010000Y-16156200D03*
X16510000Y-16156200D03*
X16010000Y-16156200D03*
X15510000Y-16156200D03*
M02*
