G04 #@! TF.GenerationSoftware,KiCad,Pcbnew,(5.1.0)-1*
G04 #@! TF.CreationDate,2019-04-30T21:14:17-07:00*
G04 #@! TF.ProjectId,MS_v4_ETL_LED_Driver,4d535f76-345f-4455-944c-5f4c45445f44,rev?*
G04 #@! TF.SameCoordinates,Original*
G04 #@! TF.FileFunction,Soldermask,Bot*
G04 #@! TF.FilePolarity,Negative*
%FSLAX46Y46*%
G04 Gerber Fmt 4.6, Leading zero omitted, Abs format (unit mm)*
G04 Created by KiCad (PCBNEW (5.1.0)-1) date 2019-04-30 21:14:17*
%MOMM*%
%LPD*%
G04 APERTURE LIST*
%ADD10C,0.100000*%
G04 APERTURE END LIST*
D10*
G36*
X17516600Y-23175400D02*
G01*
X16925800Y-23175400D01*
X16925800Y-22064600D01*
X17516600Y-22064600D01*
X17516600Y-23175400D01*
X17516600Y-23175400D01*
G37*
G36*
X16350401Y-22558400D02*
G01*
X15489601Y-22558400D01*
X15489601Y-21637600D01*
X16350401Y-21637600D01*
X16350401Y-22558400D01*
X16350401Y-22558400D01*
G37*
G36*
X14990399Y-22558400D02*
G01*
X14129599Y-22558400D01*
X14129599Y-21637600D01*
X14990399Y-21637600D01*
X14990399Y-22558400D01*
X14990399Y-22558400D01*
G37*
G36*
X16375400Y-21338800D02*
G01*
X15434600Y-21338800D01*
X15434600Y-20368000D01*
X16375400Y-20368000D01*
X16375400Y-21338800D01*
X16375400Y-21338800D01*
G37*
G36*
X15045400Y-21338800D02*
G01*
X14104600Y-21338800D01*
X14104600Y-20368000D01*
X15045400Y-20368000D01*
X15045400Y-21338800D01*
X15045400Y-21338800D01*
G37*
G36*
X17516600Y-21115400D02*
G01*
X16925800Y-21115400D01*
X16925800Y-20004600D01*
X17516600Y-20004600D01*
X17516600Y-21115400D01*
X17516600Y-21115400D01*
G37*
G36*
X16384600Y-16784600D02*
G01*
X15183800Y-16784600D01*
X15183800Y-15233800D01*
X16384600Y-15233800D01*
X16384600Y-16784600D01*
X16384600Y-16784600D01*
G37*
M02*
