G04 #@! TF.GenerationSoftware,KiCad,Pcbnew,(5.1.0)-1*
G04 #@! TF.CreationDate,2019-04-30T21:14:17-07:00*
G04 #@! TF.ProjectId,MS_v4_ETL_LED_Driver,4d535f76-345f-4455-944c-5f4c45445f44,rev?*
G04 #@! TF.SameCoordinates,Original*
G04 #@! TF.FileFunction,Copper,L6,Bot*
G04 #@! TF.FilePolarity,Positive*
%FSLAX46Y46*%
G04 Gerber Fmt 4.6, Leading zero omitted, Abs format (unit mm)*
G04 Created by KiCad (PCBNEW (5.1.0)-1) date 2019-04-30 21:14:17*
%MOMM*%
%LPD*%
G04 APERTURE LIST*
%ADD10R,0.810000X0.870000*%
%ADD11R,0.540000X1.060000*%
%ADD12R,0.450000X1.500000*%
%ADD13R,0.890000X0.920000*%
%ADD14C,0.450000*%
%ADD15C,0.152000*%
%ADD16C,0.152400*%
G04 APERTURE END LIST*
D10*
X14559999Y-22098000D03*
X15920001Y-22098000D03*
D11*
X17221200Y-22620000D03*
X17221200Y-20560000D03*
D12*
X15434200Y-16009200D03*
X16134200Y-16009200D03*
D13*
X14575000Y-20853400D03*
X15905000Y-20853400D03*
D14*
X17805400Y-20828000D03*
X17805400Y-22098000D03*
X16738600Y-13766800D03*
X17170406Y-19608800D03*
X17805400Y-23291800D03*
X12801600Y-18491200D03*
X15544800Y-18542000D03*
X17373600Y-15290800D03*
X17542500Y-17221200D03*
X17805400Y-20243800D03*
X17805400Y-21488400D03*
X13970001Y-19363700D03*
X16129000Y-15316200D03*
X13411200Y-18973800D03*
X17754600Y-19608800D03*
X16357600Y-19964400D03*
X15036800Y-14476200D03*
X13766800Y-23291800D03*
X13411200Y-17043400D03*
X17195800Y-16789400D03*
X14173200Y-16941800D03*
X14757400Y-15671800D03*
X14732000Y-13766800D03*
X12801600Y-17526000D03*
X15925800Y-18110200D03*
X14325600Y-23291800D03*
X13411200Y-18008600D03*
X16992600Y-17348200D03*
X13766800Y-20650200D03*
D15*
X17311400Y-20828000D02*
X17094200Y-20610800D01*
X17729200Y-20828000D02*
X17311400Y-20828000D01*
X16851600Y-20853400D02*
X17094200Y-20610800D01*
X15778000Y-20853400D02*
X16851600Y-20853400D01*
X17651000Y-22114000D02*
X17094200Y-22670800D01*
X17703800Y-22114000D02*
X17651000Y-22114000D01*
X17221200Y-22930800D02*
X17221200Y-22670800D01*
X17215800Y-22936200D02*
X17221200Y-22930800D01*
X15368199Y-22936200D02*
X17215800Y-22936200D01*
X14559999Y-22098000D02*
X14559999Y-22128000D01*
X14559999Y-22128000D02*
X15368199Y-22936200D01*
X17932400Y-18846806D02*
X17395405Y-19383801D01*
X17395405Y-19383801D02*
X17170406Y-19608800D01*
X17932400Y-14960600D02*
X17932400Y-18846806D01*
X16738600Y-13766800D02*
X17932400Y-14960600D01*
X16221600Y-15933000D02*
X16198000Y-15933000D01*
X17487202Y-21488400D02*
X17805400Y-21488400D01*
X17086601Y-21488400D02*
X17487202Y-21488400D01*
X16477001Y-22098000D02*
X17086601Y-21488400D01*
X15920001Y-22098000D02*
X16477001Y-22098000D01*
X13970000Y-19363699D02*
X13970001Y-19363700D01*
X16039402Y-19964400D02*
X16357600Y-19964400D01*
X15449000Y-19964400D02*
X16039402Y-19964400D01*
X14575000Y-20838400D02*
X15449000Y-19964400D01*
X14575000Y-20853400D02*
X14575000Y-20838400D01*
X13497898Y-17043400D02*
X13411200Y-17043400D01*
X13786199Y-17331701D02*
X13497898Y-17043400D01*
X16196299Y-17331701D02*
X13786199Y-17331701D01*
X17221200Y-16789400D02*
X16738600Y-16789400D01*
X16738600Y-16789400D02*
X16196299Y-17331701D01*
X15434200Y-16534200D02*
X15434200Y-16009200D01*
X15026600Y-16941800D02*
X15434200Y-16534200D01*
X14173200Y-16941800D02*
X15026600Y-16941800D01*
X14507001Y-13991799D02*
X14507001Y-15421401D01*
X14507001Y-15421401D02*
X14532401Y-15446801D01*
X14757400Y-15671800D02*
X14532401Y-15446801D01*
X14732000Y-13766800D02*
X14507001Y-13991799D01*
X15607602Y-18110200D02*
X15925800Y-18110200D01*
X14224000Y-18110200D02*
X15607602Y-18110200D01*
X12801600Y-17526000D02*
X13639800Y-17526000D01*
X13639800Y-17526000D02*
X14224000Y-18110200D01*
X17043400Y-17856200D02*
X17043400Y-17348200D01*
X15967699Y-18931901D02*
X17043400Y-17856200D01*
X13766800Y-20421600D02*
X13766800Y-20650200D01*
X14359901Y-19828499D02*
X13766800Y-20421600D01*
X14359901Y-18859901D02*
X14359901Y-19828499D01*
X13411200Y-18008600D02*
X13508600Y-18008600D01*
X14431901Y-18931901D02*
X14284200Y-18784200D01*
X15967699Y-18931901D02*
X14431901Y-18931901D01*
X13508600Y-18008600D02*
X14284200Y-18784200D01*
X14284200Y-18784200D02*
X14359901Y-18859901D01*
D16*
G36*
X16246588Y-14029786D02*
G01*
X16307348Y-14120719D01*
X16384681Y-14198052D01*
X16475614Y-14258812D01*
X16576654Y-14300664D01*
X16683918Y-14322000D01*
X16719348Y-14322000D01*
X17526200Y-15128854D01*
X17526200Y-16342433D01*
X17458786Y-16297388D01*
X17357746Y-16255536D01*
X17250482Y-16234200D01*
X17141118Y-16234200D01*
X17033854Y-16255536D01*
X16932814Y-16297388D01*
X16841881Y-16358148D01*
X16816829Y-16383200D01*
X16758539Y-16383200D01*
X16738599Y-16381236D01*
X16718659Y-16383200D01*
X16718650Y-16383200D01*
X16658971Y-16389078D01*
X16582402Y-16412305D01*
X16511836Y-16450023D01*
X16511834Y-16450024D01*
X16511835Y-16450024D01*
X16465479Y-16488067D01*
X16465476Y-16488070D01*
X16449984Y-16500784D01*
X16437269Y-16516277D01*
X16291147Y-16662400D01*
X16002723Y-16662400D01*
X16027103Y-14078061D01*
X16160564Y-13944600D01*
X16211303Y-13944600D01*
X16246588Y-14029786D01*
X16246588Y-14029786D01*
G37*
X16246588Y-14029786D02*
X16307348Y-14120719D01*
X16384681Y-14198052D01*
X16475614Y-14258812D01*
X16576654Y-14300664D01*
X16683918Y-14322000D01*
X16719348Y-14322000D01*
X17526200Y-15128854D01*
X17526200Y-16342433D01*
X17458786Y-16297388D01*
X17357746Y-16255536D01*
X17250482Y-16234200D01*
X17141118Y-16234200D01*
X17033854Y-16255536D01*
X16932814Y-16297388D01*
X16841881Y-16358148D01*
X16816829Y-16383200D01*
X16758539Y-16383200D01*
X16738599Y-16381236D01*
X16718659Y-16383200D01*
X16718650Y-16383200D01*
X16658971Y-16389078D01*
X16582402Y-16412305D01*
X16511836Y-16450023D01*
X16511834Y-16450024D01*
X16511835Y-16450024D01*
X16465479Y-16488067D01*
X16465476Y-16488070D01*
X16449984Y-16500784D01*
X16437269Y-16516277D01*
X16291147Y-16662400D01*
X16002723Y-16662400D01*
X16027103Y-14078061D01*
X16160564Y-13944600D01*
X16211303Y-13944600D01*
X16246588Y-14029786D01*
G36*
X14223536Y-15833746D02*
G01*
X14265388Y-15934786D01*
X14326148Y-16025719D01*
X14403481Y-16103052D01*
X14494414Y-16163812D01*
X14595454Y-16205664D01*
X14702718Y-16227000D01*
X14812082Y-16227000D01*
X14919346Y-16205664D01*
X15020386Y-16163812D01*
X15111319Y-16103052D01*
X15188652Y-16025719D01*
X15249412Y-15934786D01*
X15291264Y-15833746D01*
X15298215Y-15798800D01*
X15544800Y-15798800D01*
X15544800Y-16681636D01*
X15310036Y-16916400D01*
X13952015Y-16916400D01*
X13945064Y-16881454D01*
X13903212Y-16780414D01*
X13842452Y-16689481D01*
X13765119Y-16612148D01*
X13674186Y-16551388D01*
X13639800Y-16537145D01*
X13639800Y-16301655D01*
X13641519Y-16284200D01*
X13639800Y-16266745D01*
X13639800Y-15931964D01*
X13772964Y-15798800D01*
X14216585Y-15798800D01*
X14223536Y-15833746D01*
X14223536Y-15833746D01*
G37*
X14223536Y-15833746D02*
X14265388Y-15934786D01*
X14326148Y-16025719D01*
X14403481Y-16103052D01*
X14494414Y-16163812D01*
X14595454Y-16205664D01*
X14702718Y-16227000D01*
X14812082Y-16227000D01*
X14919346Y-16205664D01*
X15020386Y-16163812D01*
X15111319Y-16103052D01*
X15188652Y-16025719D01*
X15249412Y-15934786D01*
X15291264Y-15833746D01*
X15298215Y-15798800D01*
X15544800Y-15798800D01*
X15544800Y-16681636D01*
X15310036Y-16916400D01*
X13952015Y-16916400D01*
X13945064Y-16881454D01*
X13903212Y-16780414D01*
X13842452Y-16689481D01*
X13765119Y-16612148D01*
X13674186Y-16551388D01*
X13639800Y-16537145D01*
X13639800Y-16301655D01*
X13641519Y-16284200D01*
X13639800Y-16266745D01*
X13639800Y-15931964D01*
X13772964Y-15798800D01*
X14216585Y-15798800D01*
X14223536Y-15833746D01*
M02*
