G04 #@! TF.GenerationSoftware,KiCad,Pcbnew,(5.1.0)-1*
G04 #@! TF.CreationDate,2019-04-30T21:14:17-07:00*
G04 #@! TF.ProjectId,MS_v4_ETL_LED_Driver,4d535f76-345f-4455-944c-5f4c45445f44,rev?*
G04 #@! TF.SameCoordinates,Original*
G04 #@! TF.FileFunction,Legend,Top*
G04 #@! TF.FilePolarity,Positive*
%FSLAX46Y46*%
G04 Gerber Fmt 4.6, Leading zero omitted, Abs format (unit mm)*
G04 Created by KiCad (PCBNEW (5.1.0)-1) date 2019-04-30 21:14:17*
%MOMM*%
%LPD*%
G04 APERTURE LIST*
%ADD10C,0.100000*%
%ADD11C,0.150000*%
%ADD12C,0.050000*%
%ADD13C,0.120000*%
%ADD14C,0.160000*%
%ADD15R,0.812800X1.066800*%
%ADD16R,0.360800X0.390800*%
%ADD17R,0.390800X0.360800*%
%ADD18C,0.558800*%
%ADD19R,0.680800X0.630800*%
%ADD20R,0.812800X1.320800*%
%ADD21C,0.400800*%
%ADD22R,0.660800X0.270800*%
%ADD23R,0.270800X0.660800*%
%ADD24R,2.440800X0.690800*%
%ADD25R,0.320800X0.690800*%
G04 APERTURE END LIST*
D10*
X17088000Y-20318200D02*
X16668000Y-20318200D01*
X17088000Y-20738200D02*
X17088000Y-20318200D01*
X17088000Y-21998200D02*
X16668000Y-21998200D01*
X17088000Y-21578200D02*
X17088000Y-21998200D01*
X14408000Y-21998200D02*
X14828000Y-21998200D01*
X14408000Y-21578200D02*
X14408000Y-21998200D01*
X14408000Y-20318200D02*
X14828000Y-20318200D01*
X14408000Y-20738200D02*
X14408000Y-20318200D01*
X14662600Y-17308800D02*
X14662600Y-17878800D01*
X16782600Y-17308800D02*
X16782600Y-17878800D01*
X16782600Y-19368800D02*
X16782600Y-18798800D01*
X14662600Y-19368800D02*
X14662600Y-18798800D01*
X14960000Y-14266200D02*
X15225000Y-14266200D01*
X14960000Y-16366200D02*
X14960000Y-14266200D01*
X15225000Y-16366200D02*
X14960000Y-16366200D01*
X18060000Y-14266200D02*
X17795000Y-14266200D01*
X18060000Y-16366200D02*
X18060000Y-14266200D01*
X17795000Y-16366200D02*
X18060000Y-16366200D01*
D11*
X18919866Y-22845780D02*
X18919866Y-23560066D01*
X18872247Y-23702923D01*
X18777009Y-23798161D01*
X18634152Y-23845780D01*
X18538914Y-23845780D01*
X19919866Y-23845780D02*
X19348438Y-23845780D01*
X19634152Y-23845780D02*
X19634152Y-22845780D01*
X19538914Y-22988638D01*
X19443676Y-23083876D01*
X19348438Y-23131495D01*
D12*
X8908266Y-18898371D02*
X8884457Y-18922180D01*
X8813028Y-18945990D01*
X8765409Y-18945990D01*
X8693980Y-18922180D01*
X8646361Y-18874561D01*
X8622552Y-18826942D01*
X8598742Y-18731704D01*
X8598742Y-18660276D01*
X8622552Y-18565038D01*
X8646361Y-18517419D01*
X8693980Y-18469800D01*
X8765409Y-18445990D01*
X8813028Y-18445990D01*
X8884457Y-18469800D01*
X8908266Y-18493609D01*
X9074933Y-18445990D02*
X9408266Y-18445990D01*
X9193980Y-18945990D01*
X11249790Y-19869933D02*
X11011695Y-20036600D01*
X11249790Y-20155647D02*
X10749790Y-20155647D01*
X10749790Y-19965171D01*
X10773600Y-19917552D01*
X10797409Y-19893742D01*
X10845028Y-19869933D01*
X10916457Y-19869933D01*
X10964076Y-19893742D01*
X10987885Y-19917552D01*
X11011695Y-19965171D01*
X11011695Y-20155647D01*
X10797409Y-19679457D02*
X10773600Y-19655647D01*
X10749790Y-19608028D01*
X10749790Y-19488980D01*
X10773600Y-19441361D01*
X10797409Y-19417552D01*
X10845028Y-19393742D01*
X10892647Y-19393742D01*
X10964076Y-19417552D01*
X11249790Y-19703266D01*
X11249790Y-19393742D01*
X11200866Y-24510390D02*
X11034200Y-24272295D01*
X10915152Y-24510390D02*
X10915152Y-24010390D01*
X11105628Y-24010390D01*
X11153247Y-24034200D01*
X11177057Y-24058009D01*
X11200866Y-24105628D01*
X11200866Y-24177057D01*
X11177057Y-24224676D01*
X11153247Y-24248485D01*
X11105628Y-24272295D01*
X10915152Y-24272295D01*
X11367533Y-24010390D02*
X11677057Y-24010390D01*
X11510390Y-24200866D01*
X11581819Y-24200866D01*
X11629438Y-24224676D01*
X11653247Y-24248485D01*
X11677057Y-24296104D01*
X11677057Y-24415152D01*
X11653247Y-24462771D01*
X11629438Y-24486580D01*
X11581819Y-24510390D01*
X11438961Y-24510390D01*
X11391342Y-24486580D01*
X11367533Y-24462771D01*
D11*
X10679180Y-19021323D02*
X11393466Y-19021323D01*
X11536323Y-19068942D01*
X11631561Y-19164180D01*
X11679180Y-19307038D01*
X11679180Y-19402276D01*
X11679180Y-18021323D02*
X11679180Y-18592752D01*
X11679180Y-18307038D02*
X10679180Y-18307038D01*
X10822038Y-18402276D01*
X10917276Y-18497514D01*
X10964895Y-18592752D01*
X10679180Y-17402276D02*
X10679180Y-17307038D01*
X10726800Y-17211800D01*
X10774419Y-17164180D01*
X10869657Y-17116561D01*
X11060133Y-17068942D01*
X11298228Y-17068942D01*
X11488704Y-17116561D01*
X11583942Y-17164180D01*
X11631561Y-17211800D01*
X11679180Y-17307038D01*
X11679180Y-17402276D01*
X11631561Y-17497514D01*
X11583942Y-17545133D01*
X11488704Y-17592752D01*
X11298228Y-17640371D01*
X11060133Y-17640371D01*
X10869657Y-17592752D01*
X10774419Y-17545133D01*
X10726800Y-17497514D01*
X10679180Y-17402276D01*
D12*
X15486866Y-14910571D02*
X15463057Y-14934380D01*
X15391628Y-14958190D01*
X15344009Y-14958190D01*
X15272580Y-14934380D01*
X15224961Y-14886761D01*
X15201152Y-14839142D01*
X15177342Y-14743904D01*
X15177342Y-14672476D01*
X15201152Y-14577238D01*
X15224961Y-14529619D01*
X15272580Y-14482000D01*
X15344009Y-14458190D01*
X15391628Y-14458190D01*
X15463057Y-14482000D01*
X15486866Y-14505809D01*
X15677342Y-14505809D02*
X15701152Y-14482000D01*
X15748771Y-14458190D01*
X15867819Y-14458190D01*
X15915438Y-14482000D01*
X15939247Y-14505809D01*
X15963057Y-14553428D01*
X15963057Y-14601047D01*
X15939247Y-14672476D01*
X15653533Y-14958190D01*
X15963057Y-14958190D01*
X9200866Y-19962771D02*
X9177057Y-19986580D01*
X9105628Y-20010390D01*
X9058009Y-20010390D01*
X8986580Y-19986580D01*
X8938961Y-19938961D01*
X8915152Y-19891342D01*
X8891342Y-19796104D01*
X8891342Y-19724676D01*
X8915152Y-19629438D01*
X8938961Y-19581819D01*
X8986580Y-19534200D01*
X9058009Y-19510390D01*
X9105628Y-19510390D01*
X9177057Y-19534200D01*
X9200866Y-19558009D01*
X9629438Y-19677057D02*
X9629438Y-20010390D01*
X9510390Y-19486580D02*
X9391342Y-19843723D01*
X9700866Y-19843723D01*
X17061666Y-12586471D02*
X17037857Y-12610280D01*
X16966428Y-12634090D01*
X16918809Y-12634090D01*
X16847380Y-12610280D01*
X16799761Y-12562661D01*
X16775952Y-12515042D01*
X16752142Y-12419804D01*
X16752142Y-12348376D01*
X16775952Y-12253138D01*
X16799761Y-12205519D01*
X16847380Y-12157900D01*
X16918809Y-12134090D01*
X16966428Y-12134090D01*
X17037857Y-12157900D01*
X17061666Y-12181709D01*
X17514047Y-12134090D02*
X17275952Y-12134090D01*
X17252142Y-12372185D01*
X17275952Y-12348376D01*
X17323571Y-12324566D01*
X17442619Y-12324566D01*
X17490238Y-12348376D01*
X17514047Y-12372185D01*
X17537857Y-12419804D01*
X17537857Y-12538852D01*
X17514047Y-12586471D01*
X17490238Y-12610280D01*
X17442619Y-12634090D01*
X17323571Y-12634090D01*
X17275952Y-12610280D01*
X17252142Y-12586471D01*
X12704570Y-15925434D02*
X12728379Y-15949243D01*
X12752189Y-16020672D01*
X12752189Y-16068291D01*
X12728379Y-16139720D01*
X12680760Y-16187339D01*
X12633141Y-16211148D01*
X12537903Y-16234958D01*
X12466475Y-16234958D01*
X12371237Y-16211148D01*
X12323618Y-16187339D01*
X12275999Y-16139720D01*
X12252189Y-16068291D01*
X12252189Y-16020672D01*
X12275999Y-15949243D01*
X12299808Y-15925434D01*
X12252189Y-15496862D02*
X12252189Y-15592101D01*
X12275999Y-15639720D01*
X12299808Y-15663529D01*
X12371237Y-15711148D01*
X12466475Y-15734958D01*
X12656951Y-15734958D01*
X12704570Y-15711148D01*
X12728379Y-15687339D01*
X12752189Y-15639720D01*
X12752189Y-15544481D01*
X12728379Y-15496862D01*
X12704570Y-15473053D01*
X12656951Y-15449243D01*
X12537903Y-15449243D01*
X12490284Y-15473053D01*
X12466475Y-15496862D01*
X12442665Y-15544481D01*
X12442665Y-15639720D01*
X12466475Y-15687339D01*
X12490284Y-15711148D01*
X12537903Y-15734958D01*
X16536171Y-18447533D02*
X16559980Y-18471342D01*
X16583790Y-18542771D01*
X16583790Y-18590390D01*
X16559980Y-18661819D01*
X16512361Y-18709438D01*
X16464742Y-18733247D01*
X16369504Y-18757057D01*
X16298076Y-18757057D01*
X16202838Y-18733247D01*
X16155219Y-18709438D01*
X16107600Y-18661819D01*
X16083790Y-18590390D01*
X16083790Y-18542771D01*
X16107600Y-18471342D01*
X16131409Y-18447533D01*
X16583790Y-17971342D02*
X16583790Y-18257057D01*
X16583790Y-18114200D02*
X16083790Y-18114200D01*
X16155219Y-18161819D01*
X16202838Y-18209438D01*
X16226647Y-18257057D01*
D11*
X14750866Y-24237780D02*
X14750866Y-24952066D01*
X14703247Y-25094923D01*
X14608009Y-25190161D01*
X14465152Y-25237780D01*
X14369914Y-25237780D01*
X15131819Y-24237780D02*
X15798485Y-24237780D01*
X15369914Y-25237780D01*
X16250866Y-24337780D02*
X16250866Y-25052066D01*
X16203247Y-25194923D01*
X16108009Y-25290161D01*
X15965152Y-25337780D01*
X15869914Y-25337780D01*
X17155628Y-24337780D02*
X16965152Y-24337780D01*
X16869914Y-24385400D01*
X16822295Y-24433019D01*
X16727057Y-24575876D01*
X16679438Y-24766352D01*
X16679438Y-25147304D01*
X16727057Y-25242542D01*
X16774676Y-25290161D01*
X16869914Y-25337780D01*
X17060390Y-25337780D01*
X17155628Y-25290161D01*
X17203247Y-25242542D01*
X17250866Y-25147304D01*
X17250866Y-24909209D01*
X17203247Y-24813971D01*
X17155628Y-24766352D01*
X17060390Y-24718733D01*
X16869914Y-24718733D01*
X16774676Y-24766352D01*
X16727057Y-24813971D01*
X16679438Y-24909209D01*
D12*
X15664666Y-15948790D02*
X15498000Y-15710695D01*
X15378952Y-15948790D02*
X15378952Y-15448790D01*
X15569428Y-15448790D01*
X15617047Y-15472600D01*
X15640857Y-15496409D01*
X15664666Y-15544028D01*
X15664666Y-15615457D01*
X15640857Y-15663076D01*
X15617047Y-15686885D01*
X15569428Y-15710695D01*
X15378952Y-15710695D01*
X16140857Y-15948790D02*
X15855142Y-15948790D01*
X15998000Y-15948790D02*
X15998000Y-15448790D01*
X15950380Y-15520219D01*
X15902761Y-15567838D01*
X15855142Y-15591647D01*
D13*
X19941333Y-21706533D02*
X19941333Y-22669866D01*
X19998000Y-22783200D01*
X20054666Y-22839866D01*
X20168000Y-22896533D01*
X20394666Y-22896533D01*
X20508000Y-22839866D01*
X20564666Y-22783200D01*
X20621333Y-22669866D01*
X20621333Y-21706533D01*
X21811333Y-22896533D02*
X21131333Y-22896533D01*
X21471333Y-22896533D02*
X21471333Y-21706533D01*
X21358000Y-21876533D01*
X21244666Y-21989866D01*
X21131333Y-22046533D01*
D14*
X18952238Y-17299790D02*
X20223190Y-17299790D01*
X20372714Y-17225028D01*
X20447476Y-17150266D01*
X20522238Y-17000742D01*
X20522238Y-16701695D01*
X20447476Y-16552171D01*
X20372714Y-16477409D01*
X20223190Y-16402647D01*
X18952238Y-16402647D01*
X19101761Y-15729790D02*
X19027000Y-15655028D01*
X18952238Y-15505504D01*
X18952238Y-15131695D01*
X19027000Y-14982171D01*
X19101761Y-14907409D01*
X19251285Y-14832647D01*
X19400809Y-14832647D01*
X19625095Y-14907409D01*
X20522238Y-15804552D01*
X20522238Y-14832647D01*
X20982687Y-19751409D02*
X20982687Y-21062837D01*
X21059830Y-21217123D01*
X21136973Y-21294266D01*
X21291258Y-21371409D01*
X21599830Y-21371409D01*
X21754115Y-21294266D01*
X21831258Y-21217123D01*
X21908401Y-21062837D01*
X21908401Y-19751409D01*
X22525544Y-19751409D02*
X23528401Y-19751409D01*
X22988401Y-20368552D01*
X23219830Y-20368552D01*
X23374115Y-20445694D01*
X23451258Y-20522837D01*
X23528401Y-20677123D01*
X23528401Y-21062837D01*
X23451258Y-21217123D01*
X23374115Y-21294266D01*
X23219830Y-21371409D01*
X22756973Y-21371409D01*
X22602687Y-21294266D01*
X22525544Y-21217123D01*
%LPC*%
D15*
X17653000Y-23012400D03*
D16*
X14524400Y-19964400D03*
X13974400Y-19964400D03*
D17*
X13716000Y-21543600D03*
X13716000Y-22093600D03*
D16*
X13695000Y-22707600D03*
X14245000Y-22707600D03*
D18*
X13413486Y-17047496D03*
X12803886Y-17530095D03*
X13413486Y-18012695D03*
X12803886Y-18495294D03*
X13413486Y-18977894D03*
D16*
X13745800Y-14401800D03*
X14295800Y-14401800D03*
X15794400Y-19964400D03*
X15244400Y-19964400D03*
X15447600Y-13716000D03*
X15997600Y-13716000D03*
D19*
X13919200Y-15125200D03*
X13919200Y-16015200D03*
X17602200Y-18936200D03*
X17602200Y-18046200D03*
D20*
X15284200Y-22885400D03*
X16284200Y-22885400D03*
D16*
X17301800Y-13716000D03*
X17851800Y-13716000D03*
D21*
X16748000Y-21658200D03*
X16248000Y-21658200D03*
X15748000Y-21658200D03*
X15248000Y-21658200D03*
X14748000Y-21658200D03*
X16748000Y-21158200D03*
X16248000Y-21158200D03*
X15748000Y-21158200D03*
X15248000Y-21158200D03*
X14748000Y-21158200D03*
X16748000Y-20658200D03*
X16248000Y-20658200D03*
X15748000Y-20658200D03*
X15248000Y-20658200D03*
X14748000Y-20658200D03*
D22*
X14877600Y-18538800D03*
X14877600Y-18138800D03*
D23*
X14922600Y-17493800D03*
X15322600Y-17493800D03*
X15722600Y-17493800D03*
X16122600Y-17493800D03*
X16522600Y-17493800D03*
D22*
X16567600Y-18138800D03*
X16567600Y-18538800D03*
D23*
X16522600Y-19183800D03*
X16122600Y-19183800D03*
X15722600Y-19183800D03*
X15322600Y-19183800D03*
X14922600Y-19183800D03*
D24*
X16510000Y-15316200D03*
D25*
X15510000Y-14476200D03*
X16010000Y-14476200D03*
X16510000Y-14476200D03*
X17010000Y-14476200D03*
X17510000Y-14476200D03*
X17510000Y-16156200D03*
X17010000Y-16156200D03*
X16510000Y-16156200D03*
X16010000Y-16156200D03*
X15510000Y-16156200D03*
M02*
