G04 #@! TF.GenerationSoftware,KiCad,Pcbnew,(5.0.1)-3*
G04 #@! TF.CreationDate,2019-02-25T21:18:11-08:00*
G04 #@! TF.ProjectId,MS_v4_ETL_LED_Driver,4D535F76345F45544C5F4C45445F4472,rev?*
G04 #@! TF.SameCoordinates,Original*
G04 #@! TF.FileFunction,Soldermask,Top*
G04 #@! TF.FilePolarity,Negative*
%FSLAX46Y46*%
G04 Gerber Fmt 4.6, Leading zero omitted, Abs format (unit mm)*
G04 Created by KiCad (PCBNEW (5.0.1)-3) date 2/25/2019 9:18:11 PM*
%MOMM*%
%LPD*%
G01*
G04 APERTURE LIST*
%ADD10C,0.100000*%
G04 APERTURE END LIST*
D10*
G36*
X18059400Y-23545800D02*
X17246600Y-23545800D01*
X17246600Y-22479000D01*
X18059400Y-22479000D01*
X18059400Y-23545800D01*
X18059400Y-23545800D01*
G37*
G36*
X16690600Y-23545800D02*
X14877800Y-23545800D01*
X14877800Y-22225000D01*
X16690600Y-22225000D01*
X16690600Y-23545800D01*
X16690600Y-23545800D01*
G37*
G36*
X13911400Y-22387200D02*
X13913802Y-22411586D01*
X13920915Y-22435035D01*
X13932466Y-22456646D01*
X13948012Y-22475588D01*
X13966954Y-22491134D01*
X13988565Y-22502685D01*
X14012014Y-22509798D01*
X14036400Y-22512200D01*
X14425400Y-22512200D01*
X14425400Y-22903000D01*
X13514600Y-22903000D01*
X13514600Y-22423447D01*
X13518198Y-22411586D01*
X13520600Y-22387200D01*
X13520600Y-21363200D01*
X13911400Y-21363200D01*
X13911400Y-22387200D01*
X13911400Y-22387200D01*
G37*
G36*
X14787097Y-20461651D02*
X14806455Y-20465501D01*
X14842925Y-20480608D01*
X14875748Y-20502539D01*
X14903661Y-20530452D01*
X14903663Y-20530455D01*
X14909612Y-20536404D01*
X14928554Y-20551950D01*
X14950165Y-20563501D01*
X14973614Y-20570614D01*
X14998000Y-20573016D01*
X15022386Y-20570614D01*
X15045835Y-20563501D01*
X15067446Y-20551950D01*
X15086388Y-20536404D01*
X15092337Y-20530455D01*
X15092339Y-20530452D01*
X15120252Y-20502539D01*
X15153075Y-20480608D01*
X15189545Y-20465501D01*
X15208903Y-20461651D01*
X15228261Y-20457800D01*
X15267739Y-20457800D01*
X15287097Y-20461651D01*
X15306455Y-20465501D01*
X15342925Y-20480608D01*
X15375748Y-20502539D01*
X15403661Y-20530452D01*
X15403663Y-20530455D01*
X15409612Y-20536404D01*
X15428554Y-20551950D01*
X15450165Y-20563501D01*
X15473614Y-20570614D01*
X15498000Y-20573016D01*
X15522386Y-20570614D01*
X15545835Y-20563501D01*
X15567446Y-20551950D01*
X15586388Y-20536404D01*
X15592337Y-20530455D01*
X15592339Y-20530452D01*
X15620252Y-20502539D01*
X15653075Y-20480608D01*
X15689545Y-20465501D01*
X15708903Y-20461651D01*
X15728261Y-20457800D01*
X15767739Y-20457800D01*
X15787097Y-20461651D01*
X15806455Y-20465501D01*
X15842925Y-20480608D01*
X15875748Y-20502539D01*
X15903661Y-20530452D01*
X15903663Y-20530455D01*
X15909612Y-20536404D01*
X15928554Y-20551950D01*
X15950165Y-20563501D01*
X15973614Y-20570614D01*
X15998000Y-20573016D01*
X16022386Y-20570614D01*
X16045835Y-20563501D01*
X16067446Y-20551950D01*
X16086388Y-20536404D01*
X16092337Y-20530455D01*
X16092339Y-20530452D01*
X16120252Y-20502539D01*
X16153075Y-20480608D01*
X16189545Y-20465501D01*
X16208903Y-20461651D01*
X16228261Y-20457800D01*
X16267739Y-20457800D01*
X16287097Y-20461651D01*
X16306455Y-20465501D01*
X16342925Y-20480608D01*
X16375748Y-20502539D01*
X16403661Y-20530452D01*
X16403663Y-20530455D01*
X16409612Y-20536404D01*
X16428554Y-20551950D01*
X16450165Y-20563501D01*
X16473614Y-20570614D01*
X16498000Y-20573016D01*
X16522386Y-20570614D01*
X16545835Y-20563501D01*
X16567446Y-20551950D01*
X16586388Y-20536404D01*
X16592337Y-20530455D01*
X16592339Y-20530452D01*
X16620252Y-20502539D01*
X16653075Y-20480608D01*
X16689545Y-20465501D01*
X16708903Y-20461651D01*
X16728261Y-20457800D01*
X16767739Y-20457800D01*
X16787097Y-20461651D01*
X16806455Y-20465501D01*
X16842925Y-20480608D01*
X16875748Y-20502539D01*
X16903661Y-20530452D01*
X16925592Y-20563275D01*
X16940699Y-20599745D01*
X16948400Y-20638462D01*
X16948400Y-20677938D01*
X16940699Y-20716655D01*
X16925592Y-20753125D01*
X16903661Y-20785948D01*
X16875748Y-20813861D01*
X16875745Y-20813863D01*
X16869796Y-20819812D01*
X16854250Y-20838754D01*
X16842699Y-20860365D01*
X16835586Y-20883814D01*
X16833184Y-20908200D01*
X16835586Y-20932586D01*
X16842699Y-20956035D01*
X16854250Y-20977646D01*
X16869796Y-20996588D01*
X16875745Y-21002537D01*
X16875748Y-21002539D01*
X16903661Y-21030452D01*
X16925592Y-21063275D01*
X16940699Y-21099745D01*
X16948400Y-21138462D01*
X16948400Y-21177938D01*
X16940699Y-21216655D01*
X16925592Y-21253125D01*
X16903661Y-21285948D01*
X16875748Y-21313861D01*
X16875745Y-21313863D01*
X16869796Y-21319812D01*
X16854250Y-21338754D01*
X16842699Y-21360365D01*
X16835586Y-21383814D01*
X16833184Y-21408200D01*
X16835586Y-21432586D01*
X16842699Y-21456035D01*
X16854250Y-21477646D01*
X16869796Y-21496588D01*
X16875745Y-21502537D01*
X16875748Y-21502539D01*
X16903661Y-21530452D01*
X16925592Y-21563275D01*
X16940699Y-21599745D01*
X16948400Y-21638462D01*
X16948400Y-21677938D01*
X16940699Y-21716655D01*
X16925592Y-21753125D01*
X16903661Y-21785948D01*
X16875748Y-21813861D01*
X16842925Y-21835792D01*
X16806455Y-21850899D01*
X16787097Y-21854749D01*
X16767739Y-21858600D01*
X16728261Y-21858600D01*
X16708903Y-21854749D01*
X16689545Y-21850899D01*
X16653075Y-21835792D01*
X16620252Y-21813861D01*
X16592339Y-21785948D01*
X16592337Y-21785945D01*
X16586388Y-21779996D01*
X16567446Y-21764450D01*
X16545835Y-21752899D01*
X16522386Y-21745786D01*
X16498000Y-21743384D01*
X16473614Y-21745786D01*
X16450165Y-21752899D01*
X16428554Y-21764450D01*
X16409612Y-21779996D01*
X16403663Y-21785945D01*
X16403661Y-21785948D01*
X16375748Y-21813861D01*
X16342925Y-21835792D01*
X16306455Y-21850899D01*
X16287097Y-21854749D01*
X16267739Y-21858600D01*
X16228261Y-21858600D01*
X16208903Y-21854749D01*
X16189545Y-21850899D01*
X16153075Y-21835792D01*
X16120252Y-21813861D01*
X16092339Y-21785948D01*
X16092337Y-21785945D01*
X16086388Y-21779996D01*
X16067446Y-21764450D01*
X16045835Y-21752899D01*
X16022386Y-21745786D01*
X15998000Y-21743384D01*
X15973614Y-21745786D01*
X15950165Y-21752899D01*
X15928554Y-21764450D01*
X15909612Y-21779996D01*
X15903663Y-21785945D01*
X15903661Y-21785948D01*
X15875748Y-21813861D01*
X15842925Y-21835792D01*
X15806455Y-21850899D01*
X15787097Y-21854749D01*
X15767739Y-21858600D01*
X15728261Y-21858600D01*
X15708903Y-21854749D01*
X15689545Y-21850899D01*
X15653075Y-21835792D01*
X15620252Y-21813861D01*
X15592339Y-21785948D01*
X15592337Y-21785945D01*
X15586388Y-21779996D01*
X15567446Y-21764450D01*
X15545835Y-21752899D01*
X15522386Y-21745786D01*
X15498000Y-21743384D01*
X15473614Y-21745786D01*
X15450165Y-21752899D01*
X15428554Y-21764450D01*
X15409612Y-21779996D01*
X15403663Y-21785945D01*
X15403661Y-21785948D01*
X15375748Y-21813861D01*
X15342925Y-21835792D01*
X15306455Y-21850899D01*
X15287097Y-21854749D01*
X15267739Y-21858600D01*
X15228261Y-21858600D01*
X15208903Y-21854749D01*
X15189545Y-21850899D01*
X15153075Y-21835792D01*
X15120252Y-21813861D01*
X15092339Y-21785948D01*
X15092337Y-21785945D01*
X15086388Y-21779996D01*
X15067446Y-21764450D01*
X15045835Y-21752899D01*
X15022386Y-21745786D01*
X14998000Y-21743384D01*
X14973614Y-21745786D01*
X14950165Y-21752899D01*
X14928554Y-21764450D01*
X14909612Y-21779996D01*
X14903663Y-21785945D01*
X14903661Y-21785948D01*
X14875748Y-21813861D01*
X14842925Y-21835792D01*
X14806455Y-21850899D01*
X14787097Y-21854749D01*
X14767739Y-21858600D01*
X14728261Y-21858600D01*
X14708903Y-21854749D01*
X14689545Y-21850899D01*
X14653075Y-21835792D01*
X14620252Y-21813861D01*
X14592339Y-21785948D01*
X14570408Y-21753125D01*
X14555301Y-21716655D01*
X14547600Y-21677938D01*
X14547600Y-21638462D01*
X14555301Y-21599745D01*
X14570408Y-21563275D01*
X14592339Y-21530452D01*
X14620252Y-21502539D01*
X14620255Y-21502537D01*
X14626204Y-21496588D01*
X14641750Y-21477646D01*
X14653301Y-21456035D01*
X14660414Y-21432586D01*
X14662816Y-21408200D01*
X14833184Y-21408200D01*
X14835586Y-21432586D01*
X14842699Y-21456035D01*
X14854250Y-21477646D01*
X14869796Y-21496588D01*
X14875745Y-21502537D01*
X14875748Y-21502539D01*
X14903661Y-21530452D01*
X14903663Y-21530455D01*
X14909612Y-21536404D01*
X14928554Y-21551950D01*
X14950165Y-21563501D01*
X14973614Y-21570614D01*
X14998000Y-21573016D01*
X15022386Y-21570614D01*
X15045835Y-21563501D01*
X15067446Y-21551950D01*
X15086388Y-21536404D01*
X15092337Y-21530455D01*
X15092339Y-21530452D01*
X15120252Y-21502539D01*
X15120255Y-21502537D01*
X15126204Y-21496588D01*
X15141750Y-21477646D01*
X15153301Y-21456035D01*
X15160414Y-21432586D01*
X15162816Y-21408200D01*
X15333184Y-21408200D01*
X15335586Y-21432586D01*
X15342699Y-21456035D01*
X15354250Y-21477646D01*
X15369796Y-21496588D01*
X15375745Y-21502537D01*
X15375748Y-21502539D01*
X15403661Y-21530452D01*
X15403663Y-21530455D01*
X15409612Y-21536404D01*
X15428554Y-21551950D01*
X15450165Y-21563501D01*
X15473614Y-21570614D01*
X15498000Y-21573016D01*
X15522386Y-21570614D01*
X15545835Y-21563501D01*
X15567446Y-21551950D01*
X15586388Y-21536404D01*
X15592337Y-21530455D01*
X15592339Y-21530452D01*
X15620252Y-21502539D01*
X15620255Y-21502537D01*
X15626204Y-21496588D01*
X15641750Y-21477646D01*
X15653301Y-21456035D01*
X15660414Y-21432586D01*
X15662816Y-21408200D01*
X15833184Y-21408200D01*
X15835586Y-21432586D01*
X15842699Y-21456035D01*
X15854250Y-21477646D01*
X15869796Y-21496588D01*
X15875745Y-21502537D01*
X15875748Y-21502539D01*
X15903661Y-21530452D01*
X15903663Y-21530455D01*
X15909612Y-21536404D01*
X15928554Y-21551950D01*
X15950165Y-21563501D01*
X15973614Y-21570614D01*
X15998000Y-21573016D01*
X16022386Y-21570614D01*
X16045835Y-21563501D01*
X16067446Y-21551950D01*
X16086388Y-21536404D01*
X16092337Y-21530455D01*
X16092339Y-21530452D01*
X16120252Y-21502539D01*
X16120255Y-21502537D01*
X16126204Y-21496588D01*
X16141750Y-21477646D01*
X16153301Y-21456035D01*
X16160414Y-21432586D01*
X16162816Y-21408200D01*
X16333184Y-21408200D01*
X16335586Y-21432586D01*
X16342699Y-21456035D01*
X16354250Y-21477646D01*
X16369796Y-21496588D01*
X16375745Y-21502537D01*
X16375748Y-21502539D01*
X16403661Y-21530452D01*
X16403663Y-21530455D01*
X16409612Y-21536404D01*
X16428554Y-21551950D01*
X16450165Y-21563501D01*
X16473614Y-21570614D01*
X16498000Y-21573016D01*
X16522386Y-21570614D01*
X16545835Y-21563501D01*
X16567446Y-21551950D01*
X16586388Y-21536404D01*
X16592337Y-21530455D01*
X16592339Y-21530452D01*
X16620252Y-21502539D01*
X16620255Y-21502537D01*
X16626204Y-21496588D01*
X16641750Y-21477646D01*
X16653301Y-21456035D01*
X16660414Y-21432586D01*
X16662816Y-21408200D01*
X16660414Y-21383814D01*
X16653301Y-21360365D01*
X16641750Y-21338754D01*
X16626204Y-21319812D01*
X16620255Y-21313863D01*
X16620252Y-21313861D01*
X16592339Y-21285948D01*
X16592337Y-21285945D01*
X16586388Y-21279996D01*
X16567446Y-21264450D01*
X16545835Y-21252899D01*
X16522386Y-21245786D01*
X16498000Y-21243384D01*
X16473614Y-21245786D01*
X16450165Y-21252899D01*
X16428554Y-21264450D01*
X16409612Y-21279996D01*
X16403663Y-21285945D01*
X16403661Y-21285948D01*
X16375748Y-21313861D01*
X16375745Y-21313863D01*
X16369796Y-21319812D01*
X16354250Y-21338754D01*
X16342699Y-21360365D01*
X16335586Y-21383814D01*
X16333184Y-21408200D01*
X16162816Y-21408200D01*
X16160414Y-21383814D01*
X16153301Y-21360365D01*
X16141750Y-21338754D01*
X16126204Y-21319812D01*
X16120255Y-21313863D01*
X16120252Y-21313861D01*
X16092339Y-21285948D01*
X16092337Y-21285945D01*
X16086388Y-21279996D01*
X16067446Y-21264450D01*
X16045835Y-21252899D01*
X16022386Y-21245786D01*
X15998000Y-21243384D01*
X15973614Y-21245786D01*
X15950165Y-21252899D01*
X15928554Y-21264450D01*
X15909612Y-21279996D01*
X15903663Y-21285945D01*
X15903661Y-21285948D01*
X15875748Y-21313861D01*
X15875745Y-21313863D01*
X15869796Y-21319812D01*
X15854250Y-21338754D01*
X15842699Y-21360365D01*
X15835586Y-21383814D01*
X15833184Y-21408200D01*
X15662816Y-21408200D01*
X15660414Y-21383814D01*
X15653301Y-21360365D01*
X15641750Y-21338754D01*
X15626204Y-21319812D01*
X15620255Y-21313863D01*
X15620252Y-21313861D01*
X15592339Y-21285948D01*
X15592337Y-21285945D01*
X15586388Y-21279996D01*
X15567446Y-21264450D01*
X15545835Y-21252899D01*
X15522386Y-21245786D01*
X15498000Y-21243384D01*
X15473614Y-21245786D01*
X15450165Y-21252899D01*
X15428554Y-21264450D01*
X15409612Y-21279996D01*
X15403663Y-21285945D01*
X15403661Y-21285948D01*
X15375748Y-21313861D01*
X15375745Y-21313863D01*
X15369796Y-21319812D01*
X15354250Y-21338754D01*
X15342699Y-21360365D01*
X15335586Y-21383814D01*
X15333184Y-21408200D01*
X15162816Y-21408200D01*
X15160414Y-21383814D01*
X15153301Y-21360365D01*
X15141750Y-21338754D01*
X15126204Y-21319812D01*
X15120255Y-21313863D01*
X15120252Y-21313861D01*
X15092339Y-21285948D01*
X15092337Y-21285945D01*
X15086388Y-21279996D01*
X15067446Y-21264450D01*
X15045835Y-21252899D01*
X15022386Y-21245786D01*
X14998000Y-21243384D01*
X14973614Y-21245786D01*
X14950165Y-21252899D01*
X14928554Y-21264450D01*
X14909612Y-21279996D01*
X14903663Y-21285945D01*
X14903661Y-21285948D01*
X14875748Y-21313861D01*
X14875745Y-21313863D01*
X14869796Y-21319812D01*
X14854250Y-21338754D01*
X14842699Y-21360365D01*
X14835586Y-21383814D01*
X14833184Y-21408200D01*
X14662816Y-21408200D01*
X14660414Y-21383814D01*
X14653301Y-21360365D01*
X14641750Y-21338754D01*
X14626204Y-21319812D01*
X14620255Y-21313863D01*
X14620252Y-21313861D01*
X14592339Y-21285948D01*
X14570408Y-21253125D01*
X14555301Y-21216655D01*
X14547600Y-21177938D01*
X14547600Y-21138462D01*
X14555301Y-21099745D01*
X14570408Y-21063275D01*
X14592339Y-21030452D01*
X14620252Y-21002539D01*
X14620255Y-21002537D01*
X14626204Y-20996588D01*
X14641750Y-20977646D01*
X14653301Y-20956035D01*
X14660414Y-20932586D01*
X14662816Y-20908200D01*
X14833184Y-20908200D01*
X14835586Y-20932586D01*
X14842699Y-20956035D01*
X14854250Y-20977646D01*
X14869796Y-20996588D01*
X14875745Y-21002537D01*
X14875748Y-21002539D01*
X14903661Y-21030452D01*
X14903663Y-21030455D01*
X14909612Y-21036404D01*
X14928554Y-21051950D01*
X14950165Y-21063501D01*
X14973614Y-21070614D01*
X14998000Y-21073016D01*
X15022386Y-21070614D01*
X15045835Y-21063501D01*
X15067446Y-21051950D01*
X15086388Y-21036404D01*
X15092337Y-21030455D01*
X15092339Y-21030452D01*
X15120252Y-21002539D01*
X15120255Y-21002537D01*
X15126204Y-20996588D01*
X15141750Y-20977646D01*
X15153301Y-20956035D01*
X15160414Y-20932586D01*
X15162816Y-20908200D01*
X15333184Y-20908200D01*
X15335586Y-20932586D01*
X15342699Y-20956035D01*
X15354250Y-20977646D01*
X15369796Y-20996588D01*
X15375745Y-21002537D01*
X15375748Y-21002539D01*
X15403661Y-21030452D01*
X15403663Y-21030455D01*
X15409612Y-21036404D01*
X15428554Y-21051950D01*
X15450165Y-21063501D01*
X15473614Y-21070614D01*
X15498000Y-21073016D01*
X15522386Y-21070614D01*
X15545835Y-21063501D01*
X15567446Y-21051950D01*
X15586388Y-21036404D01*
X15592337Y-21030455D01*
X15592339Y-21030452D01*
X15620252Y-21002539D01*
X15620255Y-21002537D01*
X15626204Y-20996588D01*
X15641750Y-20977646D01*
X15653301Y-20956035D01*
X15660414Y-20932586D01*
X15662816Y-20908200D01*
X15833184Y-20908200D01*
X15835586Y-20932586D01*
X15842699Y-20956035D01*
X15854250Y-20977646D01*
X15869796Y-20996588D01*
X15875745Y-21002537D01*
X15875748Y-21002539D01*
X15903661Y-21030452D01*
X15903663Y-21030455D01*
X15909612Y-21036404D01*
X15928554Y-21051950D01*
X15950165Y-21063501D01*
X15973614Y-21070614D01*
X15998000Y-21073016D01*
X16022386Y-21070614D01*
X16045835Y-21063501D01*
X16067446Y-21051950D01*
X16086388Y-21036404D01*
X16092337Y-21030455D01*
X16092339Y-21030452D01*
X16120252Y-21002539D01*
X16120255Y-21002537D01*
X16126204Y-20996588D01*
X16141750Y-20977646D01*
X16153301Y-20956035D01*
X16160414Y-20932586D01*
X16162816Y-20908200D01*
X16333184Y-20908200D01*
X16335586Y-20932586D01*
X16342699Y-20956035D01*
X16354250Y-20977646D01*
X16369796Y-20996588D01*
X16375745Y-21002537D01*
X16375748Y-21002539D01*
X16403661Y-21030452D01*
X16403663Y-21030455D01*
X16409612Y-21036404D01*
X16428554Y-21051950D01*
X16450165Y-21063501D01*
X16473614Y-21070614D01*
X16498000Y-21073016D01*
X16522386Y-21070614D01*
X16545835Y-21063501D01*
X16567446Y-21051950D01*
X16586388Y-21036404D01*
X16592337Y-21030455D01*
X16592339Y-21030452D01*
X16620252Y-21002539D01*
X16620255Y-21002537D01*
X16626204Y-20996588D01*
X16641750Y-20977646D01*
X16653301Y-20956035D01*
X16660414Y-20932586D01*
X16662816Y-20908200D01*
X16660414Y-20883814D01*
X16653301Y-20860365D01*
X16641750Y-20838754D01*
X16626204Y-20819812D01*
X16620255Y-20813863D01*
X16620252Y-20813861D01*
X16592339Y-20785948D01*
X16592337Y-20785945D01*
X16586388Y-20779996D01*
X16567446Y-20764450D01*
X16545835Y-20752899D01*
X16522386Y-20745786D01*
X16498000Y-20743384D01*
X16473614Y-20745786D01*
X16450165Y-20752899D01*
X16428554Y-20764450D01*
X16409612Y-20779996D01*
X16403663Y-20785945D01*
X16403661Y-20785948D01*
X16375748Y-20813861D01*
X16375745Y-20813863D01*
X16369796Y-20819812D01*
X16354250Y-20838754D01*
X16342699Y-20860365D01*
X16335586Y-20883814D01*
X16333184Y-20908200D01*
X16162816Y-20908200D01*
X16160414Y-20883814D01*
X16153301Y-20860365D01*
X16141750Y-20838754D01*
X16126204Y-20819812D01*
X16120255Y-20813863D01*
X16120252Y-20813861D01*
X16092339Y-20785948D01*
X16092337Y-20785945D01*
X16086388Y-20779996D01*
X16067446Y-20764450D01*
X16045835Y-20752899D01*
X16022386Y-20745786D01*
X15998000Y-20743384D01*
X15973614Y-20745786D01*
X15950165Y-20752899D01*
X15928554Y-20764450D01*
X15909612Y-20779996D01*
X15903663Y-20785945D01*
X15903661Y-20785948D01*
X15875748Y-20813861D01*
X15875745Y-20813863D01*
X15869796Y-20819812D01*
X15854250Y-20838754D01*
X15842699Y-20860365D01*
X15835586Y-20883814D01*
X15833184Y-20908200D01*
X15662816Y-20908200D01*
X15660414Y-20883814D01*
X15653301Y-20860365D01*
X15641750Y-20838754D01*
X15626204Y-20819812D01*
X15620255Y-20813863D01*
X15620252Y-20813861D01*
X15592339Y-20785948D01*
X15592337Y-20785945D01*
X15586388Y-20779996D01*
X15567446Y-20764450D01*
X15545835Y-20752899D01*
X15522386Y-20745786D01*
X15498000Y-20743384D01*
X15473614Y-20745786D01*
X15450165Y-20752899D01*
X15428554Y-20764450D01*
X15409612Y-20779996D01*
X15403663Y-20785945D01*
X15403661Y-20785948D01*
X15375748Y-20813861D01*
X15375745Y-20813863D01*
X15369796Y-20819812D01*
X15354250Y-20838754D01*
X15342699Y-20860365D01*
X15335586Y-20883814D01*
X15333184Y-20908200D01*
X15162816Y-20908200D01*
X15160414Y-20883814D01*
X15153301Y-20860365D01*
X15141750Y-20838754D01*
X15126204Y-20819812D01*
X15120255Y-20813863D01*
X15120252Y-20813861D01*
X15092339Y-20785948D01*
X15092337Y-20785945D01*
X15086388Y-20779996D01*
X15067446Y-20764450D01*
X15045835Y-20752899D01*
X15022386Y-20745786D01*
X14998000Y-20743384D01*
X14973614Y-20745786D01*
X14950165Y-20752899D01*
X14928554Y-20764450D01*
X14909612Y-20779996D01*
X14903663Y-20785945D01*
X14903661Y-20785948D01*
X14875748Y-20813861D01*
X14875745Y-20813863D01*
X14869796Y-20819812D01*
X14854250Y-20838754D01*
X14842699Y-20860365D01*
X14835586Y-20883814D01*
X14833184Y-20908200D01*
X14662816Y-20908200D01*
X14660414Y-20883814D01*
X14653301Y-20860365D01*
X14641750Y-20838754D01*
X14626204Y-20819812D01*
X14620255Y-20813863D01*
X14620252Y-20813861D01*
X14592339Y-20785948D01*
X14570408Y-20753125D01*
X14555301Y-20716655D01*
X14547600Y-20677938D01*
X14547600Y-20638462D01*
X14555301Y-20599745D01*
X14570408Y-20563275D01*
X14592339Y-20530452D01*
X14620252Y-20502539D01*
X14653075Y-20480608D01*
X14689545Y-20465501D01*
X14708903Y-20461651D01*
X14728261Y-20457800D01*
X14767739Y-20457800D01*
X14787097Y-20461651D01*
X14787097Y-20461651D01*
G37*
G36*
X15974800Y-20159800D02*
X15064000Y-20159800D01*
X15064000Y-19769000D01*
X15974800Y-19769000D01*
X15974800Y-20159800D01*
X15974800Y-20159800D01*
G37*
G36*
X14704800Y-20159800D02*
X13794000Y-20159800D01*
X13794000Y-19769000D01*
X14704800Y-19769000D01*
X14704800Y-20159800D01*
X14704800Y-20159800D01*
G37*
G36*
X16658000Y-17878400D02*
X16660402Y-17902786D01*
X16667515Y-17926235D01*
X16679066Y-17947846D01*
X16694612Y-17966788D01*
X16713554Y-17982334D01*
X16735165Y-17993885D01*
X16758614Y-18000998D01*
X16783000Y-18003400D01*
X16898000Y-18003400D01*
X16898000Y-18674200D01*
X16783000Y-18674200D01*
X16758614Y-18676602D01*
X16735165Y-18683715D01*
X16713554Y-18695266D01*
X16694612Y-18710812D01*
X16679066Y-18729754D01*
X16667515Y-18751365D01*
X16660402Y-18774814D01*
X16658000Y-18799200D01*
X16658000Y-19514200D01*
X14787200Y-19514200D01*
X14787200Y-18799200D01*
X14784798Y-18774814D01*
X14777685Y-18751365D01*
X14766134Y-18729754D01*
X14750588Y-18710812D01*
X14731646Y-18695266D01*
X14710035Y-18683715D01*
X14686586Y-18676602D01*
X14662200Y-18674200D01*
X14547200Y-18674200D01*
X14547200Y-18003400D01*
X14662200Y-18003400D01*
X14686586Y-18000998D01*
X14710035Y-17993885D01*
X14731646Y-17982334D01*
X14750588Y-17966788D01*
X14765022Y-17949200D01*
X15208000Y-17949200D01*
X15208000Y-18728400D01*
X15210402Y-18752786D01*
X15217515Y-18776235D01*
X15229066Y-18797846D01*
X15244612Y-18816788D01*
X15263554Y-18832334D01*
X15285165Y-18843885D01*
X15308614Y-18850998D01*
X15333000Y-18853400D01*
X16112200Y-18853400D01*
X16136586Y-18850998D01*
X16160035Y-18843885D01*
X16181646Y-18832334D01*
X16200588Y-18816788D01*
X16216134Y-18797846D01*
X16227685Y-18776235D01*
X16234798Y-18752786D01*
X16237200Y-18728400D01*
X16237200Y-17949200D01*
X16234798Y-17924814D01*
X16227685Y-17901365D01*
X16216134Y-17879754D01*
X16200588Y-17860812D01*
X16181646Y-17845266D01*
X16160035Y-17833715D01*
X16136586Y-17826602D01*
X16112200Y-17824200D01*
X15333000Y-17824200D01*
X15308614Y-17826602D01*
X15285165Y-17833715D01*
X15263554Y-17845266D01*
X15244612Y-17860812D01*
X15229066Y-17879754D01*
X15217515Y-17901365D01*
X15210402Y-17924814D01*
X15208000Y-17949200D01*
X14765022Y-17949200D01*
X14766134Y-17947846D01*
X14777685Y-17926235D01*
X14784798Y-17902786D01*
X14787200Y-17878400D01*
X14787200Y-17163400D01*
X16658000Y-17163400D01*
X16658000Y-17878400D01*
X16658000Y-17878400D01*
G37*
G36*
X13494985Y-18709231D02*
X13545831Y-18730292D01*
X13591595Y-18760871D01*
X13630509Y-18799785D01*
X13661088Y-18845549D01*
X13682149Y-18896395D01*
X13692886Y-18950375D01*
X13692886Y-19005413D01*
X13682149Y-19059393D01*
X13661088Y-19110239D01*
X13630509Y-19156003D01*
X13591595Y-19194917D01*
X13545831Y-19225496D01*
X13494985Y-19246557D01*
X13441005Y-19257294D01*
X13385967Y-19257294D01*
X13331987Y-19246557D01*
X13281141Y-19225496D01*
X13235377Y-19194917D01*
X13196463Y-19156003D01*
X13165884Y-19110239D01*
X13144823Y-19059393D01*
X13134086Y-19005413D01*
X13134086Y-18950375D01*
X13144823Y-18896398D01*
X13144823Y-18896396D01*
X13154871Y-18872139D01*
X13161983Y-18848692D01*
X13164384Y-18824305D01*
X13161982Y-18799919D01*
X13154868Y-18776470D01*
X13151930Y-18770972D01*
X13153603Y-18771480D01*
X13177990Y-18773881D01*
X13202376Y-18771479D01*
X13225825Y-18764365D01*
X13247435Y-18752814D01*
X13281140Y-18730293D01*
X13331987Y-18709231D01*
X13385967Y-18698494D01*
X13441005Y-18698494D01*
X13494985Y-18709231D01*
X13494985Y-18709231D01*
G37*
G36*
X17942600Y-19251600D02*
X17261800Y-19251600D01*
X17261800Y-18620800D01*
X17942600Y-18620800D01*
X17942600Y-19251600D01*
X17942600Y-19251600D01*
G37*
G36*
X12885385Y-18226631D02*
X12936232Y-18247693D01*
X12969937Y-18270214D01*
X12991548Y-18281766D01*
X13014997Y-18288879D01*
X13039384Y-18291281D01*
X13063770Y-18288879D01*
X13065443Y-18288371D01*
X13062503Y-18293872D01*
X13055390Y-18317321D01*
X13052988Y-18341708D01*
X13055390Y-18366094D01*
X13062503Y-18389543D01*
X13072549Y-18413796D01*
X13083286Y-18467775D01*
X13083286Y-18522813D01*
X13072549Y-18576792D01*
X13062502Y-18601047D01*
X13055389Y-18624496D01*
X13052988Y-18648883D01*
X13055390Y-18673269D01*
X13062504Y-18696718D01*
X13065442Y-18702216D01*
X13063769Y-18701708D01*
X13039382Y-18699307D01*
X13014996Y-18701709D01*
X12991547Y-18708823D01*
X12969937Y-18720374D01*
X12936232Y-18742895D01*
X12885385Y-18763957D01*
X12831405Y-18774694D01*
X12776367Y-18774694D01*
X12722387Y-18763957D01*
X12671541Y-18742896D01*
X12625777Y-18712317D01*
X12586863Y-18673403D01*
X12556284Y-18627639D01*
X12535223Y-18576793D01*
X12524486Y-18522813D01*
X12524486Y-18467775D01*
X12535223Y-18413795D01*
X12556284Y-18362949D01*
X12586863Y-18317185D01*
X12625777Y-18278271D01*
X12671541Y-18247692D01*
X12722387Y-18226631D01*
X12776367Y-18215894D01*
X12831405Y-18215894D01*
X12885385Y-18226631D01*
X12885385Y-18226631D01*
G37*
G36*
X17942600Y-18361600D02*
X17261800Y-18361600D01*
X17261800Y-17730800D01*
X17942600Y-17730800D01*
X17942600Y-18361600D01*
X17942600Y-18361600D01*
G37*
G36*
X13494985Y-17744032D02*
X13545831Y-17765093D01*
X13591595Y-17795672D01*
X13630509Y-17834586D01*
X13661088Y-17880350D01*
X13682149Y-17931196D01*
X13692886Y-17985176D01*
X13692886Y-18040214D01*
X13682149Y-18094194D01*
X13661088Y-18145040D01*
X13630509Y-18190804D01*
X13591595Y-18229718D01*
X13545831Y-18260297D01*
X13494985Y-18281358D01*
X13441005Y-18292095D01*
X13385967Y-18292095D01*
X13331987Y-18281358D01*
X13281140Y-18260296D01*
X13247435Y-18237775D01*
X13225824Y-18226223D01*
X13202375Y-18219110D01*
X13177988Y-18216708D01*
X13153602Y-18219110D01*
X13151929Y-18219618D01*
X13154869Y-18214117D01*
X13161982Y-18190668D01*
X13164384Y-18166281D01*
X13161982Y-18141895D01*
X13154869Y-18118446D01*
X13144823Y-18094193D01*
X13134086Y-18040214D01*
X13134086Y-17985176D01*
X13141242Y-17949200D01*
X13144823Y-17931197D01*
X13154871Y-17906940D01*
X13161983Y-17883493D01*
X13164384Y-17859106D01*
X13161982Y-17834720D01*
X13154868Y-17811271D01*
X13151930Y-17805773D01*
X13153603Y-17806281D01*
X13177990Y-17808682D01*
X13202376Y-17806280D01*
X13225825Y-17799166D01*
X13247435Y-17787615D01*
X13281140Y-17765094D01*
X13331987Y-17744032D01*
X13385967Y-17733295D01*
X13441005Y-17733295D01*
X13494985Y-17744032D01*
X13494985Y-17744032D01*
G37*
G36*
X12885385Y-17261432D02*
X12936232Y-17282494D01*
X12969937Y-17305015D01*
X12991548Y-17316567D01*
X13014997Y-17323680D01*
X13039384Y-17326082D01*
X13063770Y-17323680D01*
X13065443Y-17323172D01*
X13062503Y-17328673D01*
X13055390Y-17352122D01*
X13052988Y-17376509D01*
X13055390Y-17400895D01*
X13062503Y-17424344D01*
X13072549Y-17448597D01*
X13083286Y-17502576D01*
X13083286Y-17557614D01*
X13072549Y-17611593D01*
X13062502Y-17635848D01*
X13055389Y-17659297D01*
X13052988Y-17683684D01*
X13055390Y-17708070D01*
X13062504Y-17731519D01*
X13065442Y-17737017D01*
X13063769Y-17736509D01*
X13039382Y-17734108D01*
X13014996Y-17736510D01*
X12991547Y-17743624D01*
X12969937Y-17755175D01*
X12936232Y-17777696D01*
X12885385Y-17798758D01*
X12831405Y-17809495D01*
X12776367Y-17809495D01*
X12722387Y-17798758D01*
X12671541Y-17777697D01*
X12625777Y-17747118D01*
X12586863Y-17708204D01*
X12556284Y-17662440D01*
X12535223Y-17611594D01*
X12524486Y-17557614D01*
X12524486Y-17502576D01*
X12535223Y-17448596D01*
X12556284Y-17397750D01*
X12586863Y-17351986D01*
X12625777Y-17313072D01*
X12671541Y-17282493D01*
X12722387Y-17261432D01*
X12776367Y-17250695D01*
X12831405Y-17250695D01*
X12885385Y-17261432D01*
X12885385Y-17261432D01*
G37*
G36*
X13494985Y-16778833D02*
X13545831Y-16799894D01*
X13591595Y-16830473D01*
X13630509Y-16869387D01*
X13661088Y-16915151D01*
X13682149Y-16965997D01*
X13692886Y-17019977D01*
X13692886Y-17075015D01*
X13682149Y-17128995D01*
X13661088Y-17179841D01*
X13630509Y-17225605D01*
X13591595Y-17264519D01*
X13545831Y-17295098D01*
X13494985Y-17316159D01*
X13441005Y-17326896D01*
X13385967Y-17326896D01*
X13331987Y-17316159D01*
X13281140Y-17295097D01*
X13247435Y-17272576D01*
X13225824Y-17261024D01*
X13202375Y-17253911D01*
X13177988Y-17251509D01*
X13153602Y-17253911D01*
X13151929Y-17254419D01*
X13154869Y-17248918D01*
X13161982Y-17225469D01*
X13164384Y-17201082D01*
X13161982Y-17176696D01*
X13154869Y-17153247D01*
X13144823Y-17128994D01*
X13134086Y-17075015D01*
X13134086Y-17019977D01*
X13144823Y-16965997D01*
X13165884Y-16915151D01*
X13196463Y-16869387D01*
X13235377Y-16830473D01*
X13281141Y-16799894D01*
X13331987Y-16778833D01*
X13385967Y-16768096D01*
X13441005Y-16768096D01*
X13494985Y-16778833D01*
X13494985Y-16778833D01*
G37*
G36*
X16178000Y-14005800D02*
X16180402Y-14030186D01*
X16187515Y-14053635D01*
X16199066Y-14075246D01*
X16214612Y-14094188D01*
X16233554Y-14109734D01*
X16255165Y-14121285D01*
X16278614Y-14128398D01*
X16303000Y-14130800D01*
X16996400Y-14130800D01*
X17020786Y-14128398D01*
X17044235Y-14121285D01*
X17065846Y-14109734D01*
X17084788Y-14094188D01*
X17100334Y-14075246D01*
X17111885Y-14053635D01*
X17118998Y-14030186D01*
X17121400Y-14005800D01*
X17121400Y-13520600D01*
X18032200Y-13520600D01*
X18032200Y-13911400D01*
X17795400Y-13911400D01*
X17771014Y-13913802D01*
X17747565Y-13920915D01*
X17725954Y-13932466D01*
X17707012Y-13948012D01*
X17691466Y-13966954D01*
X17679915Y-13988565D01*
X17672802Y-14012014D01*
X17670400Y-14036400D01*
X17670400Y-14845800D01*
X17672802Y-14870186D01*
X17679915Y-14893635D01*
X17691466Y-14915246D01*
X17707012Y-14934188D01*
X17725954Y-14949734D01*
X17730400Y-14952110D01*
X17730400Y-15680290D01*
X17725954Y-15682666D01*
X17707012Y-15698212D01*
X17691466Y-15717154D01*
X17679915Y-15738765D01*
X17672802Y-15762214D01*
X17670400Y-15786600D01*
X17670400Y-16501600D01*
X15349600Y-16501600D01*
X15349600Y-15786600D01*
X15347198Y-15762214D01*
X15340085Y-15738765D01*
X15328534Y-15717154D01*
X15312988Y-15698212D01*
X15294046Y-15682666D01*
X15289600Y-15680290D01*
X15289600Y-14952110D01*
X15294046Y-14949734D01*
X15312988Y-14934188D01*
X15328534Y-14915246D01*
X15340085Y-14893635D01*
X15347198Y-14870186D01*
X15349600Y-14845800D01*
X15349600Y-14036400D01*
X15347198Y-14012014D01*
X15340085Y-13988565D01*
X15328534Y-13966954D01*
X15312988Y-13948012D01*
X15294046Y-13932466D01*
X15272435Y-13920915D01*
X15267200Y-13919327D01*
X15267200Y-13520600D01*
X16178000Y-13520600D01*
X16178000Y-14005800D01*
X16178000Y-14005800D01*
G37*
G36*
X14259600Y-16330600D02*
X13578800Y-16330600D01*
X13578800Y-15699800D01*
X14259600Y-15699800D01*
X14259600Y-16330600D01*
X14259600Y-16330600D01*
G37*
G36*
X14476200Y-14597200D02*
X14384600Y-14597200D01*
X14360214Y-14599602D01*
X14336765Y-14606715D01*
X14315154Y-14618266D01*
X14296212Y-14633812D01*
X14280666Y-14652754D01*
X14269115Y-14674365D01*
X14262002Y-14697814D01*
X14259600Y-14722200D01*
X14259600Y-15440600D01*
X13578800Y-15440600D01*
X13578800Y-14722200D01*
X13576398Y-14697814D01*
X13569285Y-14674365D01*
X13565400Y-14667096D01*
X13565400Y-14206400D01*
X14476200Y-14206400D01*
X14476200Y-14597200D01*
X14476200Y-14597200D01*
G37*
M02*
