M48
; DRILL file {KiCad (5.1.0)-1} date 4/30/2019 9:14:20 PM
; FORMAT={-:-/ absolute / inch / decimal}
; #@! TF.CreationDate,2019-04-30T21:14:20-07:00
; #@! TF.GenerationSoftware,Kicad,Pcbnew,(5.1.0)-1
; #@! TF.FileFunction,Plated,1,6,PTH
FMAT,2
INCH
T1C0.0079
%
G90
G05
T1
X0.504Y-0.69
X0.504Y-0.728
X0.528Y-0.671
X0.528Y-0.709
X0.528Y-0.747
X0.542Y-0.813
X0.542Y-0.917
X0.55Y-0.7624
X0.558Y-0.667
X0.564Y-0.917
X0.58Y-0.542
X0.581Y-0.617
X0.592Y-0.5699
X0.612Y-0.73
X0.627Y-0.713
X0.635Y-0.603
X0.644Y-0.786
X0.659Y-0.542
X0.669Y-0.683
X0.676Y-0.772
X0.677Y-0.661
X0.684Y-0.602
X0.6906Y-0.678
X0.699Y-0.772
X0.701Y-0.797
X0.701Y-0.82
X0.701Y-0.846
X0.701Y-0.87
X0.701Y-0.917
T0
M30
