G04 #@! TF.GenerationSoftware,KiCad,Pcbnew,(5.1.0)-1*
G04 #@! TF.CreationDate,2019-05-02T20:00:12-07:00*
G04 #@! TF.ProjectId,MS_v4_ETL_LED_Driver,4d535f76-345f-4455-944c-5f4c45445f44,rev?*
G04 #@! TF.SameCoordinates,PXcab368PY16aeb08*
G04 #@! TF.FileFunction,Copper,L2,Inr*
G04 #@! TF.FilePolarity,Positive*
%FSLAX46Y46*%
G04 Gerber Fmt 4.6, Leading zero omitted, Abs format (unit mm)*
G04 Created by KiCad (PCBNEW (5.1.0)-1) date 2019-05-02 20:00:12*
%MOMM*%
%LPD*%
G04 APERTURE LIST*
%ADD10C,0.450000*%
%ADD11C,0.152000*%
%ADD12C,0.203200*%
%ADD13C,0.101600*%
G04 APERTURE END LIST*
D10*
X4521200Y2956200D03*
X4521200Y1686200D03*
X3454400Y10017400D03*
X3886206Y4175400D03*
X4521200Y492400D03*
X-482600Y5293000D03*
X2260600Y5242200D03*
X4089400Y8493400D03*
X4258300Y6563000D03*
X4521200Y3540400D03*
X4521200Y2295800D03*
X685801Y4420500D03*
X2844800Y8468000D03*
X127000Y4810400D03*
X4470400Y4175400D03*
X3073400Y3819800D03*
X1752600Y9308000D03*
X482600Y492400D03*
X127000Y6740800D03*
X3911600Y6994800D03*
X889000Y6842400D03*
X1473200Y8112400D03*
X1447800Y10017400D03*
X-482600Y6258200D03*
X2641600Y5674000D03*
X1041400Y492400D03*
X127000Y5775600D03*
X3708400Y6436000D03*
X482600Y3134000D03*
D11*
X2209800Y5293000D02*
X2260600Y5242200D01*
D12*
X-482600Y5293000D02*
X2209800Y5293000D01*
D13*
G36*
X918000Y10069581D02*
G01*
X918000Y9965219D01*
X938360Y9862863D01*
X978298Y9766446D01*
X1036278Y9679672D01*
X1110072Y9605878D01*
X1196846Y9547898D01*
X1266557Y9519022D01*
X1243160Y9462537D01*
X1222800Y9360181D01*
X1222800Y9255819D01*
X1243160Y9153463D01*
X1283098Y9057046D01*
X1341078Y8970272D01*
X1414872Y8896478D01*
X1501646Y8838498D01*
X1598063Y8798560D01*
X1700419Y8778200D01*
X1804781Y8778200D01*
X1907137Y8798560D01*
X2003554Y8838498D01*
X2090328Y8896478D01*
X2164122Y8970272D01*
X2222102Y9057046D01*
X2262040Y9153463D01*
X2282400Y9255819D01*
X2282400Y9360181D01*
X2262040Y9462537D01*
X2222102Y9558954D01*
X2164122Y9645728D01*
X2090328Y9719522D01*
X2003554Y9777502D01*
X1933843Y9806378D01*
X1957240Y9862863D01*
X1977600Y9965219D01*
X1977600Y10069581D01*
X1957665Y10169800D01*
X2944535Y10169800D01*
X2924600Y10069581D01*
X2924600Y9965219D01*
X2944960Y9862863D01*
X2984898Y9766446D01*
X3042878Y9679672D01*
X3116672Y9605878D01*
X3203446Y9547898D01*
X3299863Y9507960D01*
X3402219Y9487600D01*
X3506581Y9487600D01*
X3608937Y9507960D01*
X3705354Y9547898D01*
X3792128Y9605878D01*
X3865922Y9679672D01*
X3923902Y9766446D01*
X3963840Y9862863D01*
X3984200Y9965219D01*
X3984200Y10069581D01*
X3964265Y10169800D01*
X4669801Y10169800D01*
X4669800Y7483786D01*
X4669801Y7483776D01*
X4669801Y4666257D01*
X4624937Y4684840D01*
X4522581Y4705200D01*
X4418219Y4705200D01*
X4315863Y4684840D01*
X4219446Y4644902D01*
X4178303Y4617411D01*
X4137160Y4644902D01*
X4040743Y4684840D01*
X3938387Y4705200D01*
X3834025Y4705200D01*
X3731669Y4684840D01*
X3635252Y4644902D01*
X3548478Y4586922D01*
X3474684Y4513128D01*
X3416704Y4426354D01*
X3376766Y4329937D01*
X3363483Y4263157D01*
X3324354Y4289302D01*
X3227937Y4329240D01*
X3125581Y4349600D01*
X3021219Y4349600D01*
X2918863Y4329240D01*
X2822446Y4289302D01*
X2735672Y4231322D01*
X2661878Y4157528D01*
X2603898Y4070754D01*
X2563960Y3974337D01*
X2543600Y3871981D01*
X2543600Y3767619D01*
X2563960Y3665263D01*
X2603898Y3568846D01*
X2661878Y3482072D01*
X2735672Y3408278D01*
X2822446Y3350298D01*
X2918863Y3310360D01*
X3021219Y3290000D01*
X3125581Y3290000D01*
X3227937Y3310360D01*
X3324354Y3350298D01*
X3411128Y3408278D01*
X3484922Y3482072D01*
X3542902Y3568846D01*
X3582840Y3665263D01*
X3596123Y3732043D01*
X3635252Y3705898D01*
X3731669Y3665960D01*
X3834025Y3645600D01*
X3938387Y3645600D01*
X4040743Y3665960D01*
X4137160Y3705898D01*
X4178303Y3733389D01*
X4219446Y3705898D01*
X4315863Y3665960D01*
X4418219Y3645600D01*
X4522581Y3645600D01*
X4624937Y3665960D01*
X4669800Y3684543D01*
X4669800Y3466821D01*
X4573381Y3486000D01*
X4469019Y3486000D01*
X4366663Y3465640D01*
X4270246Y3425702D01*
X4183472Y3367722D01*
X4109678Y3293928D01*
X4051698Y3207154D01*
X4011760Y3110737D01*
X3991400Y3008381D01*
X3991400Y2904019D01*
X4011760Y2801663D01*
X4051698Y2705246D01*
X4109678Y2618472D01*
X4183472Y2544678D01*
X4270246Y2486698D01*
X4366663Y2446760D01*
X4469019Y2426400D01*
X4573381Y2426400D01*
X4669800Y2445579D01*
X4669800Y2196821D01*
X4573381Y2216000D01*
X4469019Y2216000D01*
X4366663Y2195640D01*
X4270246Y2155702D01*
X4183472Y2097722D01*
X4109678Y2023928D01*
X4051698Y1937154D01*
X4011760Y1840737D01*
X3991400Y1738381D01*
X3991400Y1634019D01*
X4011760Y1531663D01*
X4051698Y1435246D01*
X4109678Y1348472D01*
X4183472Y1274678D01*
X4270246Y1216698D01*
X4366663Y1176760D01*
X4469019Y1156400D01*
X4573381Y1156400D01*
X4669800Y1175579D01*
X4669800Y330200D01*
X1547666Y330200D01*
X1550840Y337863D01*
X1571200Y440219D01*
X1571200Y544581D01*
X1550840Y646937D01*
X1510902Y743354D01*
X1452922Y830128D01*
X1379128Y903922D01*
X1292354Y961902D01*
X1195937Y1001840D01*
X1093581Y1022200D01*
X989219Y1022200D01*
X886863Y1001840D01*
X790446Y961902D01*
X762000Y942895D01*
X733554Y961902D01*
X637137Y1001840D01*
X534781Y1022200D01*
X430419Y1022200D01*
X330200Y1002265D01*
X330200Y2624135D01*
X430419Y2604200D01*
X534781Y2604200D01*
X637137Y2624560D01*
X733554Y2664498D01*
X820328Y2722478D01*
X894122Y2796272D01*
X952102Y2883046D01*
X992040Y2979463D01*
X1012400Y3081819D01*
X1012400Y3186181D01*
X992040Y3288537D01*
X952102Y3384954D01*
X894122Y3471728D01*
X820328Y3545522D01*
X733554Y3603502D01*
X637137Y3643440D01*
X534781Y3663800D01*
X430419Y3663800D01*
X330200Y3643865D01*
X330200Y3983785D01*
X331797Y4000000D01*
X325422Y4064730D01*
X306540Y4126973D01*
X275879Y4184337D01*
X244952Y4222021D01*
X234616Y4234616D01*
X222019Y4244954D01*
X185180Y4281793D01*
X281537Y4300960D01*
X377954Y4340898D01*
X464728Y4398878D01*
X538522Y4472672D01*
X596502Y4559446D01*
X636440Y4655863D01*
X656800Y4758219D01*
X656800Y4862581D01*
X636440Y4964937D01*
X596502Y5061354D01*
X538522Y5148128D01*
X464728Y5221922D01*
X377954Y5279902D01*
X346333Y5293000D01*
X377954Y5306098D01*
X464728Y5364078D01*
X538522Y5437872D01*
X596502Y5524646D01*
X636440Y5621063D01*
X656800Y5723419D01*
X656800Y5726181D01*
X2111800Y5726181D01*
X2111800Y5621819D01*
X2132160Y5519463D01*
X2172098Y5423046D01*
X2230078Y5336272D01*
X2303872Y5262478D01*
X2390646Y5204498D01*
X2487063Y5164560D01*
X2589419Y5144200D01*
X2693781Y5144200D01*
X2796137Y5164560D01*
X2892554Y5204498D01*
X2979328Y5262478D01*
X3053122Y5336272D01*
X3111102Y5423046D01*
X3151040Y5519463D01*
X3171400Y5621819D01*
X3171400Y5726181D01*
X3151040Y5828537D01*
X3111102Y5924954D01*
X3053122Y6011728D01*
X2979328Y6085522D01*
X2892554Y6143502D01*
X2796137Y6183440D01*
X2693781Y6203800D01*
X2589419Y6203800D01*
X2487063Y6183440D01*
X2390646Y6143502D01*
X2303872Y6085522D01*
X2230078Y6011728D01*
X2172098Y5924954D01*
X2132160Y5828537D01*
X2111800Y5726181D01*
X656800Y5726181D01*
X656800Y5827781D01*
X636440Y5930137D01*
X596502Y6026554D01*
X538522Y6113328D01*
X464728Y6187122D01*
X377954Y6245102D01*
X346333Y6258200D01*
X377954Y6271298D01*
X464728Y6329278D01*
X538522Y6403072D01*
X555302Y6428185D01*
X638046Y6372898D01*
X734463Y6332960D01*
X836819Y6312600D01*
X941181Y6312600D01*
X1043537Y6332960D01*
X1139954Y6372898D01*
X1226728Y6430878D01*
X1284031Y6488181D01*
X3178600Y6488181D01*
X3178600Y6383819D01*
X3198960Y6281463D01*
X3238898Y6185046D01*
X3296878Y6098272D01*
X3370672Y6024478D01*
X3457446Y5966498D01*
X3553863Y5926560D01*
X3656219Y5906200D01*
X3760581Y5906200D01*
X3862937Y5926560D01*
X3959354Y5966498D01*
X4046128Y6024478D01*
X4119922Y6098272D01*
X4177902Y6185046D01*
X4217840Y6281463D01*
X4238200Y6383819D01*
X4238200Y6488181D01*
X4222809Y6565558D01*
X4249328Y6583278D01*
X4323122Y6657072D01*
X4381102Y6743846D01*
X4421040Y6840263D01*
X4441400Y6942619D01*
X4441400Y7046981D01*
X4421040Y7149337D01*
X4381102Y7245754D01*
X4323122Y7332528D01*
X4249328Y7406322D01*
X4162554Y7464302D01*
X4066137Y7504240D01*
X3963781Y7524600D01*
X3859419Y7524600D01*
X3757063Y7504240D01*
X3660646Y7464302D01*
X3573872Y7406322D01*
X3500078Y7332528D01*
X3442098Y7245754D01*
X3402160Y7149337D01*
X3381800Y7046981D01*
X3381800Y6942619D01*
X3397191Y6865242D01*
X3370672Y6847522D01*
X3296878Y6773728D01*
X3238898Y6686954D01*
X3198960Y6590537D01*
X3178600Y6488181D01*
X1284031Y6488181D01*
X1300522Y6504672D01*
X1358502Y6591446D01*
X1398440Y6687863D01*
X1418800Y6790219D01*
X1418800Y6894581D01*
X1398440Y6996937D01*
X1358502Y7093354D01*
X1300522Y7180128D01*
X1226728Y7253922D01*
X1139954Y7311902D01*
X1043537Y7351840D01*
X941181Y7372200D01*
X836819Y7372200D01*
X734463Y7351840D01*
X638046Y7311902D01*
X551272Y7253922D01*
X477478Y7180128D01*
X460698Y7155015D01*
X377954Y7210302D01*
X281537Y7250240D01*
X228917Y7260707D01*
X234616Y7265384D01*
X275879Y7315663D01*
X306540Y7373027D01*
X325422Y7435270D01*
X330200Y7483785D01*
X330200Y7483786D01*
X331797Y7500000D01*
X330200Y7516215D01*
X330200Y8164581D01*
X943400Y8164581D01*
X943400Y8060219D01*
X963760Y7957863D01*
X1003698Y7861446D01*
X1061678Y7774672D01*
X1135472Y7700878D01*
X1222246Y7642898D01*
X1318663Y7602960D01*
X1421019Y7582600D01*
X1525381Y7582600D01*
X1627737Y7602960D01*
X1724154Y7642898D01*
X1810928Y7700878D01*
X1884722Y7774672D01*
X1942702Y7861446D01*
X1982640Y7957863D01*
X2003000Y8060219D01*
X2003000Y8164581D01*
X1982640Y8266937D01*
X1942702Y8363354D01*
X1884722Y8450128D01*
X1810928Y8523922D01*
X1724154Y8581902D01*
X1627737Y8621840D01*
X1525381Y8642200D01*
X1421019Y8642200D01*
X1318663Y8621840D01*
X1222246Y8581902D01*
X1135472Y8523922D01*
X1061678Y8450128D01*
X1003698Y8363354D01*
X963760Y8266937D01*
X943400Y8164581D01*
X330200Y8164581D01*
X330200Y10169800D01*
X937935Y10169800D01*
X918000Y10069581D01*
X918000Y10069581D01*
G37*
X918000Y10069581D02*
X918000Y9965219D01*
X938360Y9862863D01*
X978298Y9766446D01*
X1036278Y9679672D01*
X1110072Y9605878D01*
X1196846Y9547898D01*
X1266557Y9519022D01*
X1243160Y9462537D01*
X1222800Y9360181D01*
X1222800Y9255819D01*
X1243160Y9153463D01*
X1283098Y9057046D01*
X1341078Y8970272D01*
X1414872Y8896478D01*
X1501646Y8838498D01*
X1598063Y8798560D01*
X1700419Y8778200D01*
X1804781Y8778200D01*
X1907137Y8798560D01*
X2003554Y8838498D01*
X2090328Y8896478D01*
X2164122Y8970272D01*
X2222102Y9057046D01*
X2262040Y9153463D01*
X2282400Y9255819D01*
X2282400Y9360181D01*
X2262040Y9462537D01*
X2222102Y9558954D01*
X2164122Y9645728D01*
X2090328Y9719522D01*
X2003554Y9777502D01*
X1933843Y9806378D01*
X1957240Y9862863D01*
X1977600Y9965219D01*
X1977600Y10069581D01*
X1957665Y10169800D01*
X2944535Y10169800D01*
X2924600Y10069581D01*
X2924600Y9965219D01*
X2944960Y9862863D01*
X2984898Y9766446D01*
X3042878Y9679672D01*
X3116672Y9605878D01*
X3203446Y9547898D01*
X3299863Y9507960D01*
X3402219Y9487600D01*
X3506581Y9487600D01*
X3608937Y9507960D01*
X3705354Y9547898D01*
X3792128Y9605878D01*
X3865922Y9679672D01*
X3923902Y9766446D01*
X3963840Y9862863D01*
X3984200Y9965219D01*
X3984200Y10069581D01*
X3964265Y10169800D01*
X4669801Y10169800D01*
X4669800Y7483786D01*
X4669801Y7483776D01*
X4669801Y4666257D01*
X4624937Y4684840D01*
X4522581Y4705200D01*
X4418219Y4705200D01*
X4315863Y4684840D01*
X4219446Y4644902D01*
X4178303Y4617411D01*
X4137160Y4644902D01*
X4040743Y4684840D01*
X3938387Y4705200D01*
X3834025Y4705200D01*
X3731669Y4684840D01*
X3635252Y4644902D01*
X3548478Y4586922D01*
X3474684Y4513128D01*
X3416704Y4426354D01*
X3376766Y4329937D01*
X3363483Y4263157D01*
X3324354Y4289302D01*
X3227937Y4329240D01*
X3125581Y4349600D01*
X3021219Y4349600D01*
X2918863Y4329240D01*
X2822446Y4289302D01*
X2735672Y4231322D01*
X2661878Y4157528D01*
X2603898Y4070754D01*
X2563960Y3974337D01*
X2543600Y3871981D01*
X2543600Y3767619D01*
X2563960Y3665263D01*
X2603898Y3568846D01*
X2661878Y3482072D01*
X2735672Y3408278D01*
X2822446Y3350298D01*
X2918863Y3310360D01*
X3021219Y3290000D01*
X3125581Y3290000D01*
X3227937Y3310360D01*
X3324354Y3350298D01*
X3411128Y3408278D01*
X3484922Y3482072D01*
X3542902Y3568846D01*
X3582840Y3665263D01*
X3596123Y3732043D01*
X3635252Y3705898D01*
X3731669Y3665960D01*
X3834025Y3645600D01*
X3938387Y3645600D01*
X4040743Y3665960D01*
X4137160Y3705898D01*
X4178303Y3733389D01*
X4219446Y3705898D01*
X4315863Y3665960D01*
X4418219Y3645600D01*
X4522581Y3645600D01*
X4624937Y3665960D01*
X4669800Y3684543D01*
X4669800Y3466821D01*
X4573381Y3486000D01*
X4469019Y3486000D01*
X4366663Y3465640D01*
X4270246Y3425702D01*
X4183472Y3367722D01*
X4109678Y3293928D01*
X4051698Y3207154D01*
X4011760Y3110737D01*
X3991400Y3008381D01*
X3991400Y2904019D01*
X4011760Y2801663D01*
X4051698Y2705246D01*
X4109678Y2618472D01*
X4183472Y2544678D01*
X4270246Y2486698D01*
X4366663Y2446760D01*
X4469019Y2426400D01*
X4573381Y2426400D01*
X4669800Y2445579D01*
X4669800Y2196821D01*
X4573381Y2216000D01*
X4469019Y2216000D01*
X4366663Y2195640D01*
X4270246Y2155702D01*
X4183472Y2097722D01*
X4109678Y2023928D01*
X4051698Y1937154D01*
X4011760Y1840737D01*
X3991400Y1738381D01*
X3991400Y1634019D01*
X4011760Y1531663D01*
X4051698Y1435246D01*
X4109678Y1348472D01*
X4183472Y1274678D01*
X4270246Y1216698D01*
X4366663Y1176760D01*
X4469019Y1156400D01*
X4573381Y1156400D01*
X4669800Y1175579D01*
X4669800Y330200D01*
X1547666Y330200D01*
X1550840Y337863D01*
X1571200Y440219D01*
X1571200Y544581D01*
X1550840Y646937D01*
X1510902Y743354D01*
X1452922Y830128D01*
X1379128Y903922D01*
X1292354Y961902D01*
X1195937Y1001840D01*
X1093581Y1022200D01*
X989219Y1022200D01*
X886863Y1001840D01*
X790446Y961902D01*
X762000Y942895D01*
X733554Y961902D01*
X637137Y1001840D01*
X534781Y1022200D01*
X430419Y1022200D01*
X330200Y1002265D01*
X330200Y2624135D01*
X430419Y2604200D01*
X534781Y2604200D01*
X637137Y2624560D01*
X733554Y2664498D01*
X820328Y2722478D01*
X894122Y2796272D01*
X952102Y2883046D01*
X992040Y2979463D01*
X1012400Y3081819D01*
X1012400Y3186181D01*
X992040Y3288537D01*
X952102Y3384954D01*
X894122Y3471728D01*
X820328Y3545522D01*
X733554Y3603502D01*
X637137Y3643440D01*
X534781Y3663800D01*
X430419Y3663800D01*
X330200Y3643865D01*
X330200Y3983785D01*
X331797Y4000000D01*
X325422Y4064730D01*
X306540Y4126973D01*
X275879Y4184337D01*
X244952Y4222021D01*
X234616Y4234616D01*
X222019Y4244954D01*
X185180Y4281793D01*
X281537Y4300960D01*
X377954Y4340898D01*
X464728Y4398878D01*
X538522Y4472672D01*
X596502Y4559446D01*
X636440Y4655863D01*
X656800Y4758219D01*
X656800Y4862581D01*
X636440Y4964937D01*
X596502Y5061354D01*
X538522Y5148128D01*
X464728Y5221922D01*
X377954Y5279902D01*
X346333Y5293000D01*
X377954Y5306098D01*
X464728Y5364078D01*
X538522Y5437872D01*
X596502Y5524646D01*
X636440Y5621063D01*
X656800Y5723419D01*
X656800Y5726181D01*
X2111800Y5726181D01*
X2111800Y5621819D01*
X2132160Y5519463D01*
X2172098Y5423046D01*
X2230078Y5336272D01*
X2303872Y5262478D01*
X2390646Y5204498D01*
X2487063Y5164560D01*
X2589419Y5144200D01*
X2693781Y5144200D01*
X2796137Y5164560D01*
X2892554Y5204498D01*
X2979328Y5262478D01*
X3053122Y5336272D01*
X3111102Y5423046D01*
X3151040Y5519463D01*
X3171400Y5621819D01*
X3171400Y5726181D01*
X3151040Y5828537D01*
X3111102Y5924954D01*
X3053122Y6011728D01*
X2979328Y6085522D01*
X2892554Y6143502D01*
X2796137Y6183440D01*
X2693781Y6203800D01*
X2589419Y6203800D01*
X2487063Y6183440D01*
X2390646Y6143502D01*
X2303872Y6085522D01*
X2230078Y6011728D01*
X2172098Y5924954D01*
X2132160Y5828537D01*
X2111800Y5726181D01*
X656800Y5726181D01*
X656800Y5827781D01*
X636440Y5930137D01*
X596502Y6026554D01*
X538522Y6113328D01*
X464728Y6187122D01*
X377954Y6245102D01*
X346333Y6258200D01*
X377954Y6271298D01*
X464728Y6329278D01*
X538522Y6403072D01*
X555302Y6428185D01*
X638046Y6372898D01*
X734463Y6332960D01*
X836819Y6312600D01*
X941181Y6312600D01*
X1043537Y6332960D01*
X1139954Y6372898D01*
X1226728Y6430878D01*
X1284031Y6488181D01*
X3178600Y6488181D01*
X3178600Y6383819D01*
X3198960Y6281463D01*
X3238898Y6185046D01*
X3296878Y6098272D01*
X3370672Y6024478D01*
X3457446Y5966498D01*
X3553863Y5926560D01*
X3656219Y5906200D01*
X3760581Y5906200D01*
X3862937Y5926560D01*
X3959354Y5966498D01*
X4046128Y6024478D01*
X4119922Y6098272D01*
X4177902Y6185046D01*
X4217840Y6281463D01*
X4238200Y6383819D01*
X4238200Y6488181D01*
X4222809Y6565558D01*
X4249328Y6583278D01*
X4323122Y6657072D01*
X4381102Y6743846D01*
X4421040Y6840263D01*
X4441400Y6942619D01*
X4441400Y7046981D01*
X4421040Y7149337D01*
X4381102Y7245754D01*
X4323122Y7332528D01*
X4249328Y7406322D01*
X4162554Y7464302D01*
X4066137Y7504240D01*
X3963781Y7524600D01*
X3859419Y7524600D01*
X3757063Y7504240D01*
X3660646Y7464302D01*
X3573872Y7406322D01*
X3500078Y7332528D01*
X3442098Y7245754D01*
X3402160Y7149337D01*
X3381800Y7046981D01*
X3381800Y6942619D01*
X3397191Y6865242D01*
X3370672Y6847522D01*
X3296878Y6773728D01*
X3238898Y6686954D01*
X3198960Y6590537D01*
X3178600Y6488181D01*
X1284031Y6488181D01*
X1300522Y6504672D01*
X1358502Y6591446D01*
X1398440Y6687863D01*
X1418800Y6790219D01*
X1418800Y6894581D01*
X1398440Y6996937D01*
X1358502Y7093354D01*
X1300522Y7180128D01*
X1226728Y7253922D01*
X1139954Y7311902D01*
X1043537Y7351840D01*
X941181Y7372200D01*
X836819Y7372200D01*
X734463Y7351840D01*
X638046Y7311902D01*
X551272Y7253922D01*
X477478Y7180128D01*
X460698Y7155015D01*
X377954Y7210302D01*
X281537Y7250240D01*
X228917Y7260707D01*
X234616Y7265384D01*
X275879Y7315663D01*
X306540Y7373027D01*
X325422Y7435270D01*
X330200Y7483785D01*
X330200Y7483786D01*
X331797Y7500000D01*
X330200Y7516215D01*
X330200Y8164581D01*
X943400Y8164581D01*
X943400Y8060219D01*
X963760Y7957863D01*
X1003698Y7861446D01*
X1061678Y7774672D01*
X1135472Y7700878D01*
X1222246Y7642898D01*
X1318663Y7602960D01*
X1421019Y7582600D01*
X1525381Y7582600D01*
X1627737Y7602960D01*
X1724154Y7642898D01*
X1810928Y7700878D01*
X1884722Y7774672D01*
X1942702Y7861446D01*
X1982640Y7957863D01*
X2003000Y8060219D01*
X2003000Y8164581D01*
X1982640Y8266937D01*
X1942702Y8363354D01*
X1884722Y8450128D01*
X1810928Y8523922D01*
X1724154Y8581902D01*
X1627737Y8621840D01*
X1525381Y8642200D01*
X1421019Y8642200D01*
X1318663Y8621840D01*
X1222246Y8581902D01*
X1135472Y8523922D01*
X1061678Y8450128D01*
X1003698Y8363354D01*
X963760Y8266937D01*
X943400Y8164581D01*
X330200Y8164581D01*
X330200Y10169800D01*
X937935Y10169800D01*
X918000Y10069581D01*
G36*
X-637137Y5748760D02*
G01*
X-534781Y5728400D01*
X-430419Y5728400D01*
X-402800Y5733894D01*
X-402800Y5723419D01*
X-382440Y5621063D01*
X-342502Y5524646D01*
X-284522Y5437872D01*
X-210728Y5364078D01*
X-123954Y5306098D01*
X-92333Y5293000D01*
X-123954Y5279902D01*
X-210728Y5221922D01*
X-284522Y5148128D01*
X-342502Y5061354D01*
X-382440Y4964937D01*
X-401607Y4868579D01*
X-669800Y5136772D01*
X-669800Y5762290D01*
X-637137Y5748760D01*
X-637137Y5748760D01*
G37*
X-637137Y5748760D02*
X-534781Y5728400D01*
X-430419Y5728400D01*
X-402800Y5733894D01*
X-402800Y5723419D01*
X-382440Y5621063D01*
X-342502Y5524646D01*
X-284522Y5437872D01*
X-210728Y5364078D01*
X-123954Y5306098D01*
X-92333Y5293000D01*
X-123954Y5279902D01*
X-210728Y5221922D01*
X-284522Y5148128D01*
X-342502Y5061354D01*
X-382440Y4964937D01*
X-401607Y4868579D01*
X-669800Y5136772D01*
X-669800Y5762290D01*
X-637137Y5748760D01*
M02*
