G04 #@! TF.GenerationSoftware,KiCad,Pcbnew,(5.1.0)-1*
G04 #@! TF.CreationDate,2019-05-02T20:00:12-07:00*
G04 #@! TF.ProjectId,MS_v4_ETL_LED_Driver,4d535f76-345f-4455-944c-5f4c45445f44,rev?*
G04 #@! TF.SameCoordinates,PXcab368PY16aeb08*
G04 #@! TF.FileFunction,Copper,L1,Top*
G04 #@! TF.FilePolarity,Positive*
%FSLAX46Y46*%
G04 Gerber Fmt 4.6, Leading zero omitted, Abs format (unit mm)*
G04 Created by KiCad (PCBNEW (5.1.0)-1) date 2019-05-02 20:00:12*
%MOMM*%
%LPD*%
G04 APERTURE LIST*
%ADD10R,0.762000X1.016000*%
%ADD11R,0.310000X0.340000*%
%ADD12R,0.340000X0.310000*%
%ADD13C,0.508000*%
%ADD14R,0.630000X0.580000*%
%ADD15R,0.762000X1.270000*%
%ADD16C,0.350000*%
%ADD17R,0.610000X0.220000*%
%ADD18R,0.220000X0.610000*%
%ADD19R,2.390000X0.640000*%
%ADD20R,0.270000X0.640000*%
%ADD21C,0.450000*%
%ADD22C,0.152000*%
%ADD23C,0.203200*%
%ADD24C,0.088900*%
G04 APERTURE END LIST*
D10*
X4368800Y771800D03*
D11*
X1240200Y3819800D03*
X690200Y3819800D03*
D12*
X431800Y2240600D03*
X431800Y1690600D03*
D11*
X410800Y1076600D03*
X960800Y1076600D03*
D13*
X129286Y6736704D03*
X-480314Y6254105D03*
X129286Y5771505D03*
X-480314Y5288906D03*
X129286Y4806306D03*
D11*
X461600Y9382400D03*
X1011600Y9382400D03*
X2510200Y3819800D03*
X1960200Y3819800D03*
X2163400Y10068200D03*
X2713400Y10068200D03*
D14*
X635000Y8659000D03*
X635000Y7769000D03*
X4318000Y4848000D03*
X4318000Y5738000D03*
D15*
X2000000Y898800D03*
X3000000Y898800D03*
D11*
X4017600Y10068200D03*
X4567600Y10068200D03*
D16*
X3463800Y2126000D03*
X2963800Y2126000D03*
X2463800Y2126000D03*
X1963800Y2126000D03*
X1463800Y2126000D03*
X3463800Y2626000D03*
X2963800Y2626000D03*
X2463800Y2626000D03*
X1963800Y2626000D03*
X1463800Y2626000D03*
X3463800Y3126000D03*
X2963800Y3126000D03*
X2463800Y3126000D03*
X1963800Y3126000D03*
X1463800Y3126000D03*
D17*
X1593400Y5245400D03*
X1593400Y5645400D03*
D18*
X1638400Y6290400D03*
X2038400Y6290400D03*
X2438400Y6290400D03*
X2838400Y6290400D03*
X3238400Y6290400D03*
D17*
X3283400Y5645400D03*
X3283400Y5245400D03*
D18*
X3238400Y4600400D03*
X2838400Y4600400D03*
X2438400Y4600400D03*
X2038400Y4600400D03*
X1638400Y4600400D03*
D19*
X3225800Y8468000D03*
D20*
X2225800Y9308000D03*
X2725800Y9308000D03*
X3225800Y9308000D03*
X3725800Y9308000D03*
X4225800Y9308000D03*
X4225800Y7628000D03*
X3725800Y7628000D03*
X3225800Y7628000D03*
X2725800Y7628000D03*
X2225800Y7628000D03*
D21*
X4521200Y2956200D03*
X4521200Y1686200D03*
X3454400Y10017400D03*
X3886206Y4175400D03*
X4521200Y492400D03*
X-482600Y5293000D03*
X2260600Y5242200D03*
X4089400Y8493400D03*
X4258300Y6563000D03*
X4521200Y3540400D03*
X4521200Y2295800D03*
X685801Y4420500D03*
X2844800Y8468000D03*
X127000Y4810400D03*
X4470400Y4175400D03*
X3073400Y3819800D03*
X1752600Y9308000D03*
X482600Y492400D03*
X127000Y6740800D03*
X3911600Y6994800D03*
X889000Y6842400D03*
X1473200Y8112400D03*
X1447800Y10017400D03*
X-482600Y6258200D03*
X2641600Y5674000D03*
X1041400Y492400D03*
X127000Y5775600D03*
X3708400Y6436000D03*
X482600Y3134000D03*
D22*
X2838400Y4600400D02*
X2438400Y4600400D01*
X3835400Y3489600D02*
X4394200Y2930800D01*
X2963800Y3126000D02*
X3327400Y3489600D01*
X3327400Y3489600D02*
X3835400Y3489600D01*
X4394200Y2930800D02*
X4394200Y2930800D01*
X3463800Y2626000D02*
X4419600Y1670200D01*
X4419600Y1670200D02*
X4419600Y1670200D01*
X4017600Y10068200D02*
X3505200Y10068200D01*
X3505200Y10068200D02*
X3454400Y10017400D01*
X3283400Y5245400D02*
X3478400Y5245400D01*
X3478400Y5245400D02*
X3661207Y5062593D01*
X3661207Y4400399D02*
X3886206Y4175400D01*
X3661207Y5062593D02*
X3661207Y4400399D01*
X4163800Y7704200D02*
X4149600Y7704200D01*
X4648200Y8036200D02*
X4240000Y7628000D01*
X4648200Y8925200D02*
X4648200Y8036200D01*
X4149600Y9384200D02*
X4189200Y9384200D01*
X4265400Y9308000D02*
X4648200Y8925200D01*
X4567600Y9649800D02*
X4567600Y10068200D01*
X4225800Y9308000D02*
X4567600Y9649800D01*
X3225800Y9308000D02*
X3225800Y8468000D01*
X3649600Y8569600D02*
X4089400Y8493400D01*
X3725800Y9308000D02*
X3725800Y8493400D01*
X2038400Y6290400D02*
X1638400Y6290400D01*
X1638400Y5690400D02*
X1593400Y5645400D01*
X1638400Y6290400D02*
X1638400Y5690400D01*
X2038400Y3898000D02*
X1960200Y3819800D01*
X2038400Y4600400D02*
X2038400Y3898000D01*
X1960200Y3129600D02*
X1963800Y3126000D01*
X1960200Y3819800D02*
X1960200Y3129600D01*
X3238400Y6290400D02*
X3238400Y5585200D01*
X1281578Y5645400D02*
X1593400Y5645400D01*
X929178Y5293000D02*
X1281578Y5645400D01*
X-482600Y5293000D02*
X929178Y5293000D01*
X2038400Y4600400D02*
X2038400Y5020000D01*
X2038400Y5020000D02*
X2260600Y5242200D01*
X4182000Y5645400D02*
X4318000Y5509400D01*
X3283400Y5645400D02*
X4182000Y5645400D01*
X4089400Y8493400D02*
X3992200Y8569600D01*
X685800Y8608200D02*
X635000Y8659000D01*
X3225800Y8468000D02*
X3085600Y8608200D01*
X3085600Y8608200D02*
X2844800Y8468000D01*
X461600Y8832400D02*
X635000Y8659000D01*
X461600Y9382400D02*
X461600Y8832400D01*
X4318000Y5738000D02*
X4318000Y6503300D01*
X4318000Y6503300D02*
X4258300Y6563000D01*
X4241800Y3743600D02*
X4368800Y3616600D01*
X3740952Y3743600D02*
X4241800Y3743600D01*
X3238400Y4600400D02*
X3238400Y4246152D01*
X3238400Y4246152D02*
X3740952Y3743600D01*
X4368800Y3616600D02*
X4394200Y3616600D01*
X4394200Y3616600D02*
X4470400Y3540400D01*
X4343400Y2295800D02*
X4445000Y2295800D01*
X3463800Y3126000D02*
X3513200Y3126000D01*
X3513200Y3126000D02*
X4343400Y2295800D01*
X4445000Y2295800D02*
X4470400Y2295800D01*
X685801Y3824199D02*
X690200Y3819800D01*
X685801Y4420500D02*
X685801Y3824199D01*
D23*
X3034800Y8659000D02*
X3225800Y8468000D01*
X635000Y8659000D02*
X3034800Y8659000D01*
D22*
X1638400Y5200400D02*
X1593400Y5245400D01*
X1638400Y4600400D02*
X1638400Y5200400D01*
X2463800Y3773400D02*
X2510200Y3819800D01*
X2463800Y3126000D02*
X2463800Y3773400D01*
X4318000Y4848000D02*
X4318000Y4327800D01*
X4318000Y4327800D02*
X4470400Y4175400D01*
X1240200Y3834800D02*
X1240200Y3819800D01*
X129286Y4806306D02*
X268694Y4806306D01*
X127000Y4810400D02*
X129286Y4808114D01*
X129286Y4808114D02*
X129286Y4806306D01*
X2510200Y3819800D02*
X3073400Y3819800D01*
X2225800Y9308000D02*
X1752600Y9308000D01*
X1011600Y9382400D02*
X1678200Y9382400D01*
X1678200Y9382400D02*
X1752600Y9308000D01*
D24*
X2463800Y3126000D02*
X1963800Y2626000D01*
D22*
X1630400Y4600400D02*
X1638400Y4600400D01*
X1420400Y4810400D02*
X1630400Y4600400D01*
X127000Y4810400D02*
X1420400Y4810400D01*
X1638400Y4218000D02*
X1240200Y3819800D01*
X1638400Y4600400D02*
X1638400Y4218000D01*
X431800Y1097600D02*
X410800Y1076600D01*
X431800Y1690600D02*
X431800Y1097600D01*
X410800Y1076600D02*
X410800Y564200D01*
X410800Y564200D02*
X482600Y492400D01*
X2725800Y10055800D02*
X2713400Y10068200D01*
X2725800Y9308000D02*
X2725800Y10055800D01*
X3725800Y7156000D02*
X3887000Y6994800D01*
X3887000Y6994800D02*
X3937000Y6994800D01*
X3725800Y7628000D02*
X3725800Y7156000D01*
X2692022Y6842400D02*
X889000Y6842400D01*
X3225800Y7628000D02*
X3225800Y7376178D01*
X3225800Y7376178D02*
X2692022Y6842400D01*
X660000Y7769000D02*
X635000Y7769000D01*
X1307200Y7121800D02*
X660000Y7769000D01*
X2540000Y7121800D02*
X1307200Y7121800D01*
X2725800Y7307600D02*
X2540000Y7121800D01*
X2725800Y7628000D02*
X2725800Y7307600D01*
X2225800Y7628000D02*
X1957600Y7628000D01*
X1957600Y7628000D02*
X1473200Y8112400D01*
X2112600Y10017400D02*
X2163400Y10068200D01*
X1447800Y10017400D02*
X2112600Y10017400D01*
X2438400Y6290400D02*
X2438400Y5877200D01*
X2438400Y5877200D02*
X2641600Y5674000D01*
X960800Y2123000D02*
X960800Y1076600D01*
X1463800Y2626000D02*
X960800Y2123000D01*
X960800Y1076600D02*
X960800Y573000D01*
X960800Y573000D02*
X1041400Y492400D01*
X3759200Y6563000D02*
X3759200Y6436000D01*
X3454400Y6867800D02*
X3759200Y6563000D01*
X3073400Y6867800D02*
X3454400Y6867800D01*
X2838400Y6290400D02*
X2838400Y6632800D01*
X2838400Y6632800D02*
X3073400Y6867800D01*
X431800Y3126000D02*
X482600Y3134000D01*
X1463800Y3126000D02*
X431800Y3126000D01*
X431800Y3083200D02*
X482600Y3134000D01*
X431800Y2240600D02*
X431800Y3083200D01*
X3000000Y1454800D02*
X3000000Y898800D01*
X2692400Y1762400D02*
X3000000Y1454800D01*
X2159000Y1762400D02*
X2692400Y1762400D01*
X1963800Y2126000D02*
X1963800Y1957600D01*
X1963800Y1957600D02*
X2159000Y1762400D01*
X1463800Y1898800D02*
X1463800Y2126000D01*
X2000000Y898800D02*
X2000000Y1362600D01*
X2000000Y1362600D02*
X1463800Y1898800D01*
M02*
