G04 #@! TF.GenerationSoftware,KiCad,Pcbnew,(5.1.0)-1*
G04 #@! TF.CreationDate,2019-04-30T21:14:17-07:00*
G04 #@! TF.ProjectId,MS_v4_ETL_LED_Driver,4d535f76-345f-4455-944c-5f4c45445f44,rev?*
G04 #@! TF.SameCoordinates,Original*
G04 #@! TF.FileFunction,Copper,L5,Inr*
G04 #@! TF.FilePolarity,Positive*
%FSLAX46Y46*%
G04 Gerber Fmt 4.6, Leading zero omitted, Abs format (unit mm)*
G04 Created by KiCad (PCBNEW (5.1.0)-1) date 2019-04-30 21:14:17*
%MOMM*%
%LPD*%
G04 APERTURE LIST*
%ADD10C,0.450000*%
%ADD11C,0.152400*%
G04 APERTURE END LIST*
D10*
X17805400Y-20828000D03*
X17805400Y-22098000D03*
X16738600Y-13766800D03*
X17170406Y-19608800D03*
X17805400Y-23291800D03*
X12801600Y-18491200D03*
X15544800Y-18542000D03*
X17373600Y-15290800D03*
X17542500Y-17221200D03*
X17805400Y-20243800D03*
X17805400Y-21488400D03*
X13970001Y-19363700D03*
X16129000Y-15316200D03*
X13411200Y-18973800D03*
X17754600Y-19608800D03*
X16357600Y-19964400D03*
X15036800Y-14476200D03*
X13766800Y-23291800D03*
X13411200Y-17043400D03*
X17195800Y-16789400D03*
X14173200Y-16941800D03*
X14757400Y-15671800D03*
X14732000Y-13766800D03*
X12801600Y-17526000D03*
X15925800Y-18110200D03*
X14325600Y-23291800D03*
X13411200Y-18008600D03*
X16992600Y-17348200D03*
X13766800Y-20650200D03*
D11*
G36*
X14176800Y-13712118D02*
G01*
X14176800Y-13821482D01*
X14198136Y-13928746D01*
X14239988Y-14029786D01*
X14300748Y-14120719D01*
X14378081Y-14198052D01*
X14469014Y-14258812D01*
X14570054Y-14300664D01*
X14677318Y-14322000D01*
X14786682Y-14322000D01*
X14893946Y-14300664D01*
X14994986Y-14258812D01*
X15085919Y-14198052D01*
X15163252Y-14120719D01*
X15224012Y-14029786D01*
X15265864Y-13928746D01*
X15287200Y-13821482D01*
X15287200Y-13712118D01*
X15272815Y-13639800D01*
X16197785Y-13639800D01*
X16183400Y-13712118D01*
X16183400Y-13821482D01*
X16204736Y-13928746D01*
X16246588Y-14029786D01*
X16307348Y-14120719D01*
X16384681Y-14198052D01*
X16475614Y-14258812D01*
X16576654Y-14300664D01*
X16683918Y-14322000D01*
X16793282Y-14322000D01*
X16900546Y-14300664D01*
X17001586Y-14258812D01*
X17092519Y-14198052D01*
X17169852Y-14120719D01*
X17230612Y-14029786D01*
X17272464Y-13928746D01*
X17293800Y-13821482D01*
X17293800Y-13712118D01*
X17279415Y-13639800D01*
X17928601Y-13639800D01*
X17928600Y-15235114D01*
X17907464Y-15128854D01*
X17865612Y-15027814D01*
X17804852Y-14936881D01*
X17727519Y-14859548D01*
X17636586Y-14798788D01*
X17535546Y-14756936D01*
X17428282Y-14735600D01*
X17318918Y-14735600D01*
X17211654Y-14756936D01*
X17110614Y-14798788D01*
X17019681Y-14859548D01*
X16942348Y-14936881D01*
X16881588Y-15027814D01*
X16839736Y-15128854D01*
X16818400Y-15236118D01*
X16818400Y-15345482D01*
X16839736Y-15452746D01*
X16881588Y-15553786D01*
X16942348Y-15644719D01*
X17019681Y-15722052D01*
X17110614Y-15782812D01*
X17211654Y-15824664D01*
X17318918Y-15846000D01*
X17428282Y-15846000D01*
X17535546Y-15824664D01*
X17636586Y-15782812D01*
X17727519Y-15722052D01*
X17804852Y-15644719D01*
X17865612Y-15553786D01*
X17907464Y-15452746D01*
X17928600Y-15346486D01*
X17928600Y-16301662D01*
X17928601Y-16301672D01*
X17928601Y-16822130D01*
X17896419Y-16789948D01*
X17805486Y-16729188D01*
X17744909Y-16704096D01*
X17729664Y-16627454D01*
X17687812Y-16526414D01*
X17627052Y-16435481D01*
X17549719Y-16358148D01*
X17458786Y-16297388D01*
X17357746Y-16255536D01*
X17250482Y-16234200D01*
X17141118Y-16234200D01*
X17033854Y-16255536D01*
X16932814Y-16297388D01*
X16841881Y-16358148D01*
X16764548Y-16435481D01*
X16703788Y-16526414D01*
X16661936Y-16627454D01*
X16640600Y-16734718D01*
X16640600Y-16844082D01*
X16653168Y-16907268D01*
X16638681Y-16916948D01*
X16561348Y-16994281D01*
X16500588Y-17085214D01*
X16458736Y-17186254D01*
X16437400Y-17293518D01*
X16437400Y-17402882D01*
X16458736Y-17510146D01*
X16500588Y-17611186D01*
X16561348Y-17702119D01*
X16638681Y-17779452D01*
X16729614Y-17840212D01*
X16830654Y-17882064D01*
X16937918Y-17903400D01*
X17047282Y-17903400D01*
X17154546Y-17882064D01*
X17255586Y-17840212D01*
X17346519Y-17779452D01*
X17373733Y-17752238D01*
X17380554Y-17755064D01*
X17487818Y-17776400D01*
X17597182Y-17776400D01*
X17704446Y-17755064D01*
X17805486Y-17713212D01*
X17896419Y-17652452D01*
X17928601Y-17620270D01*
X17928601Y-19702229D01*
X17860082Y-19688600D01*
X17750718Y-19688600D01*
X17719369Y-19694836D01*
X17725606Y-19663482D01*
X17725606Y-19554118D01*
X17704270Y-19446854D01*
X17662418Y-19345814D01*
X17601658Y-19254881D01*
X17524325Y-19177548D01*
X17433392Y-19116788D01*
X17332352Y-19074936D01*
X17225088Y-19053600D01*
X17115724Y-19053600D01*
X17008460Y-19074936D01*
X16907420Y-19116788D01*
X16816487Y-19177548D01*
X16739154Y-19254881D01*
X16678394Y-19345814D01*
X16636542Y-19446854D01*
X16615206Y-19554118D01*
X16615206Y-19663482D01*
X16636542Y-19770746D01*
X16678394Y-19871786D01*
X16739154Y-19962719D01*
X16816487Y-20040052D01*
X16907420Y-20100812D01*
X17008460Y-20142664D01*
X17115724Y-20164000D01*
X17225088Y-20164000D01*
X17256437Y-20157764D01*
X17250200Y-20189118D01*
X17250200Y-20298482D01*
X17271536Y-20405746D01*
X17313388Y-20506786D01*
X17332842Y-20535900D01*
X17313388Y-20565014D01*
X17271536Y-20666054D01*
X17250200Y-20773318D01*
X17250200Y-20882682D01*
X17271536Y-20989946D01*
X17313388Y-21090986D01*
X17358299Y-21158200D01*
X17313388Y-21225414D01*
X17271536Y-21326454D01*
X17250200Y-21433718D01*
X17250200Y-21543082D01*
X17271536Y-21650346D01*
X17313388Y-21751386D01*
X17341327Y-21793200D01*
X17313388Y-21835014D01*
X17271536Y-21936054D01*
X17250200Y-22043318D01*
X17250200Y-22152682D01*
X17271536Y-22259946D01*
X17313388Y-22360986D01*
X17374148Y-22451919D01*
X17451481Y-22529252D01*
X17542414Y-22590012D01*
X17643454Y-22631864D01*
X17750718Y-22653200D01*
X17860082Y-22653200D01*
X17928600Y-22639571D01*
X17928600Y-22750229D01*
X17860082Y-22736600D01*
X17750718Y-22736600D01*
X17643454Y-22757936D01*
X17542414Y-22799788D01*
X17451481Y-22860548D01*
X17374148Y-22937881D01*
X17313388Y-23028814D01*
X17271536Y-23129854D01*
X17250200Y-23237118D01*
X17250200Y-23346482D01*
X17266534Y-23428600D01*
X14864466Y-23428600D01*
X14880800Y-23346482D01*
X14880800Y-23237118D01*
X14859464Y-23129854D01*
X14817612Y-23028814D01*
X14756852Y-22937881D01*
X14679519Y-22860548D01*
X14588586Y-22799788D01*
X14487546Y-22757936D01*
X14380282Y-22736600D01*
X14270918Y-22736600D01*
X14163654Y-22757936D01*
X14062614Y-22799788D01*
X13971681Y-22860548D01*
X13894348Y-22937881D01*
X13833588Y-23028814D01*
X13791736Y-23129854D01*
X13770400Y-23237118D01*
X13770400Y-23346482D01*
X13786734Y-23428600D01*
X13639800Y-23428600D01*
X13639800Y-21191015D01*
X13712118Y-21205400D01*
X13821482Y-21205400D01*
X13928746Y-21184064D01*
X14029786Y-21142212D01*
X14120719Y-21081452D01*
X14198052Y-21004119D01*
X14258812Y-20913186D01*
X14300664Y-20812146D01*
X14322000Y-20704882D01*
X14322000Y-20595518D01*
X14300664Y-20488254D01*
X14258812Y-20387214D01*
X14198052Y-20296281D01*
X14120719Y-20218948D01*
X14029786Y-20158188D01*
X13928746Y-20116336D01*
X13821482Y-20095000D01*
X13712118Y-20095000D01*
X13639800Y-20109385D01*
X13639800Y-19810800D01*
X13707015Y-19855712D01*
X13808055Y-19897564D01*
X13915319Y-19918900D01*
X14024683Y-19918900D01*
X14131947Y-19897564D01*
X14232987Y-19855712D01*
X14323920Y-19794952D01*
X14401253Y-19717619D01*
X14462013Y-19626686D01*
X14503865Y-19525646D01*
X14525201Y-19418382D01*
X14525201Y-19309018D01*
X14503865Y-19201754D01*
X14462013Y-19100714D01*
X14401253Y-19009781D01*
X14323920Y-18932448D01*
X14232987Y-18871688D01*
X14131947Y-18829836D01*
X14024683Y-18808500D01*
X13915319Y-18808500D01*
X13808055Y-18829836D01*
X13707015Y-18871688D01*
X13616082Y-18932448D01*
X13538749Y-19009781D01*
X13477989Y-19100714D01*
X13436137Y-19201754D01*
X13414801Y-19309018D01*
X13414801Y-19411907D01*
X13009092Y-19006198D01*
X13064586Y-18983212D01*
X13155519Y-18922452D01*
X13232852Y-18845119D01*
X13293612Y-18754186D01*
X13335464Y-18653146D01*
X13353361Y-18563172D01*
X13356518Y-18563800D01*
X13465882Y-18563800D01*
X13573146Y-18542464D01*
X13674186Y-18500612D01*
X13694081Y-18487318D01*
X14989600Y-18487318D01*
X14989600Y-18596682D01*
X15010936Y-18703946D01*
X15052788Y-18804986D01*
X15113548Y-18895919D01*
X15190881Y-18973252D01*
X15281814Y-19034012D01*
X15382854Y-19075864D01*
X15490118Y-19097200D01*
X15599482Y-19097200D01*
X15706746Y-19075864D01*
X15807786Y-19034012D01*
X15898719Y-18973252D01*
X15976052Y-18895919D01*
X16036812Y-18804986D01*
X16078664Y-18703946D01*
X16090829Y-18642787D01*
X16188786Y-18602212D01*
X16279719Y-18541452D01*
X16357052Y-18464119D01*
X16417812Y-18373186D01*
X16459664Y-18272146D01*
X16481000Y-18164882D01*
X16481000Y-18055518D01*
X16459664Y-17948254D01*
X16417812Y-17847214D01*
X16357052Y-17756281D01*
X16279719Y-17678948D01*
X16188786Y-17618188D01*
X16087746Y-17576336D01*
X15980482Y-17555000D01*
X15871118Y-17555000D01*
X15763854Y-17576336D01*
X15662814Y-17618188D01*
X15571881Y-17678948D01*
X15494548Y-17756281D01*
X15433788Y-17847214D01*
X15391936Y-17948254D01*
X15379771Y-18009413D01*
X15281814Y-18049988D01*
X15190881Y-18110748D01*
X15113548Y-18188081D01*
X15052788Y-18279014D01*
X15010936Y-18380054D01*
X14989600Y-18487318D01*
X13694081Y-18487318D01*
X13765119Y-18439852D01*
X13842452Y-18362519D01*
X13903212Y-18271586D01*
X13945064Y-18170546D01*
X13966400Y-18063282D01*
X13966400Y-17953918D01*
X13945064Y-17846654D01*
X13903212Y-17745614D01*
X13842452Y-17654681D01*
X13765119Y-17577348D01*
X13688272Y-17526000D01*
X13765119Y-17474652D01*
X13842452Y-17397319D01*
X13846510Y-17391246D01*
X13910214Y-17433812D01*
X14011254Y-17475664D01*
X14118518Y-17497000D01*
X14227882Y-17497000D01*
X14335146Y-17475664D01*
X14436186Y-17433812D01*
X14527119Y-17373052D01*
X14604452Y-17295719D01*
X14665212Y-17204786D01*
X14707064Y-17103746D01*
X14728400Y-16996482D01*
X14728400Y-16887118D01*
X14707064Y-16779854D01*
X14665212Y-16678814D01*
X14604452Y-16587881D01*
X14527119Y-16510548D01*
X14436186Y-16449788D01*
X14335146Y-16407936D01*
X14227882Y-16386600D01*
X14118518Y-16386600D01*
X14011254Y-16407936D01*
X13910214Y-16449788D01*
X13819281Y-16510548D01*
X13741948Y-16587881D01*
X13737890Y-16593954D01*
X13674186Y-16551388D01*
X13573146Y-16509536D01*
X13561235Y-16507167D01*
X13581301Y-16482716D01*
X13614321Y-16420940D01*
X13634654Y-16353910D01*
X13639800Y-16301663D01*
X13639800Y-16301655D01*
X13641519Y-16284200D01*
X13639800Y-16266745D01*
X13639800Y-15617118D01*
X14202200Y-15617118D01*
X14202200Y-15726482D01*
X14223536Y-15833746D01*
X14265388Y-15934786D01*
X14326148Y-16025719D01*
X14403481Y-16103052D01*
X14494414Y-16163812D01*
X14595454Y-16205664D01*
X14702718Y-16227000D01*
X14812082Y-16227000D01*
X14919346Y-16205664D01*
X15020386Y-16163812D01*
X15111319Y-16103052D01*
X15188652Y-16025719D01*
X15249412Y-15934786D01*
X15291264Y-15833746D01*
X15312600Y-15726482D01*
X15312600Y-15617118D01*
X15291264Y-15509854D01*
X15249412Y-15408814D01*
X15188652Y-15317881D01*
X15132289Y-15261518D01*
X15573800Y-15261518D01*
X15573800Y-15370882D01*
X15595136Y-15478146D01*
X15636988Y-15579186D01*
X15697748Y-15670119D01*
X15775081Y-15747452D01*
X15866014Y-15808212D01*
X15967054Y-15850064D01*
X16074318Y-15871400D01*
X16183682Y-15871400D01*
X16290946Y-15850064D01*
X16391986Y-15808212D01*
X16482919Y-15747452D01*
X16560252Y-15670119D01*
X16621012Y-15579186D01*
X16662864Y-15478146D01*
X16684200Y-15370882D01*
X16684200Y-15261518D01*
X16662864Y-15154254D01*
X16621012Y-15053214D01*
X16560252Y-14962281D01*
X16482919Y-14884948D01*
X16391986Y-14824188D01*
X16290946Y-14782336D01*
X16183682Y-14761000D01*
X16074318Y-14761000D01*
X15967054Y-14782336D01*
X15866014Y-14824188D01*
X15775081Y-14884948D01*
X15697748Y-14962281D01*
X15636988Y-15053214D01*
X15595136Y-15154254D01*
X15573800Y-15261518D01*
X15132289Y-15261518D01*
X15111319Y-15240548D01*
X15020386Y-15179788D01*
X14919346Y-15137936D01*
X14812082Y-15116600D01*
X14702718Y-15116600D01*
X14595454Y-15137936D01*
X14494414Y-15179788D01*
X14403481Y-15240548D01*
X14326148Y-15317881D01*
X14265388Y-15408814D01*
X14223536Y-15509854D01*
X14202200Y-15617118D01*
X13639800Y-15617118D01*
X13639800Y-13639800D01*
X14191185Y-13639800D01*
X14176800Y-13712118D01*
X14176800Y-13712118D01*
G37*
X14176800Y-13712118D02*
X14176800Y-13821482D01*
X14198136Y-13928746D01*
X14239988Y-14029786D01*
X14300748Y-14120719D01*
X14378081Y-14198052D01*
X14469014Y-14258812D01*
X14570054Y-14300664D01*
X14677318Y-14322000D01*
X14786682Y-14322000D01*
X14893946Y-14300664D01*
X14994986Y-14258812D01*
X15085919Y-14198052D01*
X15163252Y-14120719D01*
X15224012Y-14029786D01*
X15265864Y-13928746D01*
X15287200Y-13821482D01*
X15287200Y-13712118D01*
X15272815Y-13639800D01*
X16197785Y-13639800D01*
X16183400Y-13712118D01*
X16183400Y-13821482D01*
X16204736Y-13928746D01*
X16246588Y-14029786D01*
X16307348Y-14120719D01*
X16384681Y-14198052D01*
X16475614Y-14258812D01*
X16576654Y-14300664D01*
X16683918Y-14322000D01*
X16793282Y-14322000D01*
X16900546Y-14300664D01*
X17001586Y-14258812D01*
X17092519Y-14198052D01*
X17169852Y-14120719D01*
X17230612Y-14029786D01*
X17272464Y-13928746D01*
X17293800Y-13821482D01*
X17293800Y-13712118D01*
X17279415Y-13639800D01*
X17928601Y-13639800D01*
X17928600Y-15235114D01*
X17907464Y-15128854D01*
X17865612Y-15027814D01*
X17804852Y-14936881D01*
X17727519Y-14859548D01*
X17636586Y-14798788D01*
X17535546Y-14756936D01*
X17428282Y-14735600D01*
X17318918Y-14735600D01*
X17211654Y-14756936D01*
X17110614Y-14798788D01*
X17019681Y-14859548D01*
X16942348Y-14936881D01*
X16881588Y-15027814D01*
X16839736Y-15128854D01*
X16818400Y-15236118D01*
X16818400Y-15345482D01*
X16839736Y-15452746D01*
X16881588Y-15553786D01*
X16942348Y-15644719D01*
X17019681Y-15722052D01*
X17110614Y-15782812D01*
X17211654Y-15824664D01*
X17318918Y-15846000D01*
X17428282Y-15846000D01*
X17535546Y-15824664D01*
X17636586Y-15782812D01*
X17727519Y-15722052D01*
X17804852Y-15644719D01*
X17865612Y-15553786D01*
X17907464Y-15452746D01*
X17928600Y-15346486D01*
X17928600Y-16301662D01*
X17928601Y-16301672D01*
X17928601Y-16822130D01*
X17896419Y-16789948D01*
X17805486Y-16729188D01*
X17744909Y-16704096D01*
X17729664Y-16627454D01*
X17687812Y-16526414D01*
X17627052Y-16435481D01*
X17549719Y-16358148D01*
X17458786Y-16297388D01*
X17357746Y-16255536D01*
X17250482Y-16234200D01*
X17141118Y-16234200D01*
X17033854Y-16255536D01*
X16932814Y-16297388D01*
X16841881Y-16358148D01*
X16764548Y-16435481D01*
X16703788Y-16526414D01*
X16661936Y-16627454D01*
X16640600Y-16734718D01*
X16640600Y-16844082D01*
X16653168Y-16907268D01*
X16638681Y-16916948D01*
X16561348Y-16994281D01*
X16500588Y-17085214D01*
X16458736Y-17186254D01*
X16437400Y-17293518D01*
X16437400Y-17402882D01*
X16458736Y-17510146D01*
X16500588Y-17611186D01*
X16561348Y-17702119D01*
X16638681Y-17779452D01*
X16729614Y-17840212D01*
X16830654Y-17882064D01*
X16937918Y-17903400D01*
X17047282Y-17903400D01*
X17154546Y-17882064D01*
X17255586Y-17840212D01*
X17346519Y-17779452D01*
X17373733Y-17752238D01*
X17380554Y-17755064D01*
X17487818Y-17776400D01*
X17597182Y-17776400D01*
X17704446Y-17755064D01*
X17805486Y-17713212D01*
X17896419Y-17652452D01*
X17928601Y-17620270D01*
X17928601Y-19702229D01*
X17860082Y-19688600D01*
X17750718Y-19688600D01*
X17719369Y-19694836D01*
X17725606Y-19663482D01*
X17725606Y-19554118D01*
X17704270Y-19446854D01*
X17662418Y-19345814D01*
X17601658Y-19254881D01*
X17524325Y-19177548D01*
X17433392Y-19116788D01*
X17332352Y-19074936D01*
X17225088Y-19053600D01*
X17115724Y-19053600D01*
X17008460Y-19074936D01*
X16907420Y-19116788D01*
X16816487Y-19177548D01*
X16739154Y-19254881D01*
X16678394Y-19345814D01*
X16636542Y-19446854D01*
X16615206Y-19554118D01*
X16615206Y-19663482D01*
X16636542Y-19770746D01*
X16678394Y-19871786D01*
X16739154Y-19962719D01*
X16816487Y-20040052D01*
X16907420Y-20100812D01*
X17008460Y-20142664D01*
X17115724Y-20164000D01*
X17225088Y-20164000D01*
X17256437Y-20157764D01*
X17250200Y-20189118D01*
X17250200Y-20298482D01*
X17271536Y-20405746D01*
X17313388Y-20506786D01*
X17332842Y-20535900D01*
X17313388Y-20565014D01*
X17271536Y-20666054D01*
X17250200Y-20773318D01*
X17250200Y-20882682D01*
X17271536Y-20989946D01*
X17313388Y-21090986D01*
X17358299Y-21158200D01*
X17313388Y-21225414D01*
X17271536Y-21326454D01*
X17250200Y-21433718D01*
X17250200Y-21543082D01*
X17271536Y-21650346D01*
X17313388Y-21751386D01*
X17341327Y-21793200D01*
X17313388Y-21835014D01*
X17271536Y-21936054D01*
X17250200Y-22043318D01*
X17250200Y-22152682D01*
X17271536Y-22259946D01*
X17313388Y-22360986D01*
X17374148Y-22451919D01*
X17451481Y-22529252D01*
X17542414Y-22590012D01*
X17643454Y-22631864D01*
X17750718Y-22653200D01*
X17860082Y-22653200D01*
X17928600Y-22639571D01*
X17928600Y-22750229D01*
X17860082Y-22736600D01*
X17750718Y-22736600D01*
X17643454Y-22757936D01*
X17542414Y-22799788D01*
X17451481Y-22860548D01*
X17374148Y-22937881D01*
X17313388Y-23028814D01*
X17271536Y-23129854D01*
X17250200Y-23237118D01*
X17250200Y-23346482D01*
X17266534Y-23428600D01*
X14864466Y-23428600D01*
X14880800Y-23346482D01*
X14880800Y-23237118D01*
X14859464Y-23129854D01*
X14817612Y-23028814D01*
X14756852Y-22937881D01*
X14679519Y-22860548D01*
X14588586Y-22799788D01*
X14487546Y-22757936D01*
X14380282Y-22736600D01*
X14270918Y-22736600D01*
X14163654Y-22757936D01*
X14062614Y-22799788D01*
X13971681Y-22860548D01*
X13894348Y-22937881D01*
X13833588Y-23028814D01*
X13791736Y-23129854D01*
X13770400Y-23237118D01*
X13770400Y-23346482D01*
X13786734Y-23428600D01*
X13639800Y-23428600D01*
X13639800Y-21191015D01*
X13712118Y-21205400D01*
X13821482Y-21205400D01*
X13928746Y-21184064D01*
X14029786Y-21142212D01*
X14120719Y-21081452D01*
X14198052Y-21004119D01*
X14258812Y-20913186D01*
X14300664Y-20812146D01*
X14322000Y-20704882D01*
X14322000Y-20595518D01*
X14300664Y-20488254D01*
X14258812Y-20387214D01*
X14198052Y-20296281D01*
X14120719Y-20218948D01*
X14029786Y-20158188D01*
X13928746Y-20116336D01*
X13821482Y-20095000D01*
X13712118Y-20095000D01*
X13639800Y-20109385D01*
X13639800Y-19810800D01*
X13707015Y-19855712D01*
X13808055Y-19897564D01*
X13915319Y-19918900D01*
X14024683Y-19918900D01*
X14131947Y-19897564D01*
X14232987Y-19855712D01*
X14323920Y-19794952D01*
X14401253Y-19717619D01*
X14462013Y-19626686D01*
X14503865Y-19525646D01*
X14525201Y-19418382D01*
X14525201Y-19309018D01*
X14503865Y-19201754D01*
X14462013Y-19100714D01*
X14401253Y-19009781D01*
X14323920Y-18932448D01*
X14232987Y-18871688D01*
X14131947Y-18829836D01*
X14024683Y-18808500D01*
X13915319Y-18808500D01*
X13808055Y-18829836D01*
X13707015Y-18871688D01*
X13616082Y-18932448D01*
X13538749Y-19009781D01*
X13477989Y-19100714D01*
X13436137Y-19201754D01*
X13414801Y-19309018D01*
X13414801Y-19411907D01*
X13009092Y-19006198D01*
X13064586Y-18983212D01*
X13155519Y-18922452D01*
X13232852Y-18845119D01*
X13293612Y-18754186D01*
X13335464Y-18653146D01*
X13353361Y-18563172D01*
X13356518Y-18563800D01*
X13465882Y-18563800D01*
X13573146Y-18542464D01*
X13674186Y-18500612D01*
X13694081Y-18487318D01*
X14989600Y-18487318D01*
X14989600Y-18596682D01*
X15010936Y-18703946D01*
X15052788Y-18804986D01*
X15113548Y-18895919D01*
X15190881Y-18973252D01*
X15281814Y-19034012D01*
X15382854Y-19075864D01*
X15490118Y-19097200D01*
X15599482Y-19097200D01*
X15706746Y-19075864D01*
X15807786Y-19034012D01*
X15898719Y-18973252D01*
X15976052Y-18895919D01*
X16036812Y-18804986D01*
X16078664Y-18703946D01*
X16090829Y-18642787D01*
X16188786Y-18602212D01*
X16279719Y-18541452D01*
X16357052Y-18464119D01*
X16417812Y-18373186D01*
X16459664Y-18272146D01*
X16481000Y-18164882D01*
X16481000Y-18055518D01*
X16459664Y-17948254D01*
X16417812Y-17847214D01*
X16357052Y-17756281D01*
X16279719Y-17678948D01*
X16188786Y-17618188D01*
X16087746Y-17576336D01*
X15980482Y-17555000D01*
X15871118Y-17555000D01*
X15763854Y-17576336D01*
X15662814Y-17618188D01*
X15571881Y-17678948D01*
X15494548Y-17756281D01*
X15433788Y-17847214D01*
X15391936Y-17948254D01*
X15379771Y-18009413D01*
X15281814Y-18049988D01*
X15190881Y-18110748D01*
X15113548Y-18188081D01*
X15052788Y-18279014D01*
X15010936Y-18380054D01*
X14989600Y-18487318D01*
X13694081Y-18487318D01*
X13765119Y-18439852D01*
X13842452Y-18362519D01*
X13903212Y-18271586D01*
X13945064Y-18170546D01*
X13966400Y-18063282D01*
X13966400Y-17953918D01*
X13945064Y-17846654D01*
X13903212Y-17745614D01*
X13842452Y-17654681D01*
X13765119Y-17577348D01*
X13688272Y-17526000D01*
X13765119Y-17474652D01*
X13842452Y-17397319D01*
X13846510Y-17391246D01*
X13910214Y-17433812D01*
X14011254Y-17475664D01*
X14118518Y-17497000D01*
X14227882Y-17497000D01*
X14335146Y-17475664D01*
X14436186Y-17433812D01*
X14527119Y-17373052D01*
X14604452Y-17295719D01*
X14665212Y-17204786D01*
X14707064Y-17103746D01*
X14728400Y-16996482D01*
X14728400Y-16887118D01*
X14707064Y-16779854D01*
X14665212Y-16678814D01*
X14604452Y-16587881D01*
X14527119Y-16510548D01*
X14436186Y-16449788D01*
X14335146Y-16407936D01*
X14227882Y-16386600D01*
X14118518Y-16386600D01*
X14011254Y-16407936D01*
X13910214Y-16449788D01*
X13819281Y-16510548D01*
X13741948Y-16587881D01*
X13737890Y-16593954D01*
X13674186Y-16551388D01*
X13573146Y-16509536D01*
X13561235Y-16507167D01*
X13581301Y-16482716D01*
X13614321Y-16420940D01*
X13634654Y-16353910D01*
X13639800Y-16301663D01*
X13639800Y-16301655D01*
X13641519Y-16284200D01*
X13639800Y-16266745D01*
X13639800Y-15617118D01*
X14202200Y-15617118D01*
X14202200Y-15726482D01*
X14223536Y-15833746D01*
X14265388Y-15934786D01*
X14326148Y-16025719D01*
X14403481Y-16103052D01*
X14494414Y-16163812D01*
X14595454Y-16205664D01*
X14702718Y-16227000D01*
X14812082Y-16227000D01*
X14919346Y-16205664D01*
X15020386Y-16163812D01*
X15111319Y-16103052D01*
X15188652Y-16025719D01*
X15249412Y-15934786D01*
X15291264Y-15833746D01*
X15312600Y-15726482D01*
X15312600Y-15617118D01*
X15291264Y-15509854D01*
X15249412Y-15408814D01*
X15188652Y-15317881D01*
X15132289Y-15261518D01*
X15573800Y-15261518D01*
X15573800Y-15370882D01*
X15595136Y-15478146D01*
X15636988Y-15579186D01*
X15697748Y-15670119D01*
X15775081Y-15747452D01*
X15866014Y-15808212D01*
X15967054Y-15850064D01*
X16074318Y-15871400D01*
X16183682Y-15871400D01*
X16290946Y-15850064D01*
X16391986Y-15808212D01*
X16482919Y-15747452D01*
X16560252Y-15670119D01*
X16621012Y-15579186D01*
X16662864Y-15478146D01*
X16684200Y-15370882D01*
X16684200Y-15261518D01*
X16662864Y-15154254D01*
X16621012Y-15053214D01*
X16560252Y-14962281D01*
X16482919Y-14884948D01*
X16391986Y-14824188D01*
X16290946Y-14782336D01*
X16183682Y-14761000D01*
X16074318Y-14761000D01*
X15967054Y-14782336D01*
X15866014Y-14824188D01*
X15775081Y-14884948D01*
X15697748Y-14962281D01*
X15636988Y-15053214D01*
X15595136Y-15154254D01*
X15573800Y-15261518D01*
X15132289Y-15261518D01*
X15111319Y-15240548D01*
X15020386Y-15179788D01*
X14919346Y-15137936D01*
X14812082Y-15116600D01*
X14702718Y-15116600D01*
X14595454Y-15137936D01*
X14494414Y-15179788D01*
X14403481Y-15240548D01*
X14326148Y-15317881D01*
X14265388Y-15408814D01*
X14223536Y-15509854D01*
X14202200Y-15617118D01*
X13639800Y-15617118D01*
X13639800Y-13639800D01*
X14191185Y-13639800D01*
X14176800Y-13712118D01*
M02*
