G04 #@! TF.GenerationSoftware,KiCad,Pcbnew,(5.0.1)-3*
G04 #@! TF.CreationDate,2019-02-25T21:18:11-08:00*
G04 #@! TF.ProjectId,MS_v4_ETL_LED_Driver,4D535F76345F45544C5F4C45445F4472,rev?*
G04 #@! TF.SameCoordinates,Original*
G04 #@! TF.FileFunction,Copper,L4,Bot,Signal*
G04 #@! TF.FilePolarity,Positive*
%FSLAX46Y46*%
G04 Gerber Fmt 4.6, Leading zero omitted, Abs format (unit mm)*
G04 Created by KiCad (PCBNEW (5.0.1)-3) date 2/25/2019 9:18:11 PM*
%MOMM*%
%LPD*%
G01*
G04 APERTURE LIST*
G04 #@! TA.AperFunction,SMDPad,CuDef*
%ADD10R,0.810000X0.870000*%
G04 #@! TD*
G04 #@! TA.AperFunction,SMDPad,CuDef*
%ADD11R,0.540000X1.060000*%
G04 #@! TD*
G04 #@! TA.AperFunction,SMDPad,CuDef*
%ADD12R,0.450000X1.500000*%
G04 #@! TD*
G04 #@! TA.AperFunction,SMDPad,CuDef*
%ADD13R,0.890000X0.920000*%
G04 #@! TD*
G04 #@! TA.AperFunction,ViaPad*
%ADD14C,0.450000*%
G04 #@! TD*
G04 #@! TA.AperFunction,Conductor*
%ADD15C,0.152000*%
G04 #@! TD*
G04 #@! TA.AperFunction,Conductor*
%ADD16C,0.152400*%
G04 #@! TD*
G04 APERTURE END LIST*
D10*
G04 #@! TO.P,C3,1*
G04 #@! TO.N,Net-(C3-Pad1)*
X14559999Y-22098000D03*
G04 #@! TO.P,C3,2*
G04 #@! TO.N,GND*
X15920001Y-22098000D03*
G04 #@! TD*
D11*
G04 #@! TO.P,D1,C*
G04 #@! TO.N,Net-(C3-Pad1)*
X17221200Y-22620000D03*
G04 #@! TO.P,D1,A*
G04 #@! TO.N,Net-(D1-PadA)*
X17221200Y-20560000D03*
G04 #@! TD*
D12*
G04 #@! TO.P,D2,A*
G04 #@! TO.N,Net-(D2-PadA)*
X15434200Y-16009200D03*
G04 #@! TO.P,D2,C*
G04 #@! TO.N,GND*
X16134200Y-16009200D03*
G04 #@! TD*
D13*
G04 #@! TO.P,L1,1*
G04 #@! TO.N,+3V3*
X14575000Y-20853400D03*
G04 #@! TO.P,L1,2*
G04 #@! TO.N,Net-(D1-PadA)*
X15905000Y-20853400D03*
G04 #@! TD*
D14*
G04 #@! TO.N,Net-(D1-PadA)*
X17805400Y-20828000D03*
G04 #@! TO.N,Net-(C3-Pad1)*
X17805400Y-22098000D03*
G04 #@! TO.N,Net-(R1-Pad1)*
X16738600Y-13766800D03*
X17170406Y-19608800D03*
G04 #@! TO.N,GND*
X17805400Y-23291800D03*
X12801600Y-18491200D03*
X15544800Y-18542000D03*
X17373600Y-15290800D03*
X17542500Y-17221200D03*
X17805400Y-20243800D03*
X17805400Y-21488400D03*
X13970001Y-19363700D03*
G04 #@! TO.N,+3V3*
X13411200Y-18973800D03*
X17754600Y-19608800D03*
X16357600Y-19964400D03*
X15036800Y-14476200D03*
X13766800Y-23291800D03*
G04 #@! TO.N,/ENT*
X13411200Y-17043400D03*
X17195800Y-16789400D03*
G04 #@! TO.N,Net-(D2-PadA)*
X14173200Y-16941800D03*
G04 #@! TO.N,Net-(C5-Pad2)*
X14757400Y-15671800D03*
X14732000Y-13766800D03*
G04 #@! TO.N,/SCL*
X12801600Y-17526000D03*
X15925800Y-18110200D03*
X14325600Y-23291800D03*
G04 #@! TO.N,/SDA*
X13411200Y-18008600D03*
X16992600Y-17348200D03*
X13766800Y-20650200D03*
G04 #@! TD*
D15*
G04 #@! TO.N,Net-(D1-PadA)*
X17311400Y-20828000D02*
X17094200Y-20610800D01*
X17729200Y-20828000D02*
X17311400Y-20828000D01*
X16851600Y-20853400D02*
X17094200Y-20610800D01*
X15778000Y-20853400D02*
X16851600Y-20853400D01*
G04 #@! TO.N,Net-(C3-Pad1)*
X17651000Y-22114000D02*
X17094200Y-22670800D01*
X17703800Y-22114000D02*
X17651000Y-22114000D01*
X17221200Y-22930800D02*
X17221200Y-22670800D01*
X17215800Y-22936200D02*
X17221200Y-22930800D01*
X15368199Y-22936200D02*
X17215800Y-22936200D01*
X14559999Y-22098000D02*
X14559999Y-22128000D01*
X14559999Y-22128000D02*
X15368199Y-22936200D01*
G04 #@! TO.N,Net-(R1-Pad1)*
X17932400Y-18846806D02*
X17395405Y-19383801D01*
X17395405Y-19383801D02*
X17170406Y-19608800D01*
X17932400Y-14960600D02*
X17932400Y-18846806D01*
X16738600Y-13766800D02*
X17932400Y-14960600D01*
G04 #@! TO.N,GND*
X16221600Y-15933000D02*
X16198000Y-15933000D01*
X16655200Y-16009200D02*
X17373600Y-15290800D01*
X16134200Y-16009200D02*
X16655200Y-16009200D01*
X17487202Y-21488400D02*
X17805400Y-21488400D01*
X17086601Y-21488400D02*
X17487202Y-21488400D01*
X16477001Y-22098000D02*
X17086601Y-21488400D01*
X15920001Y-22098000D02*
X16477001Y-22098000D01*
X13970000Y-18955546D02*
X13970000Y-19087402D01*
X13505654Y-18491200D02*
X13970000Y-18955546D01*
X12801600Y-18491200D02*
X13505654Y-18491200D01*
X13970000Y-19087402D02*
X13970000Y-19363699D01*
X13970000Y-19363699D02*
X13970001Y-19363700D01*
G04 #@! TO.N,+3V3*
X16039402Y-19964400D02*
X16357600Y-19964400D01*
X15449000Y-19964400D02*
X16039402Y-19964400D01*
X14575000Y-20838400D02*
X15449000Y-19964400D01*
X14575000Y-20853400D02*
X14575000Y-20838400D01*
G04 #@! TO.N,/ENT*
X13497898Y-17043400D02*
X13411200Y-17043400D01*
X13786199Y-17331701D02*
X13497898Y-17043400D01*
X16196299Y-17331701D02*
X13786199Y-17331701D01*
X17221200Y-16789400D02*
X16738600Y-16789400D01*
X16738600Y-16789400D02*
X16196299Y-17331701D01*
G04 #@! TO.N,Net-(D2-PadA)*
X15434200Y-16534200D02*
X15434200Y-16009200D01*
X15026600Y-16941800D02*
X15434200Y-16534200D01*
X14173200Y-16941800D02*
X15026600Y-16941800D01*
G04 #@! TO.N,Net-(C5-Pad2)*
X14507001Y-13991799D02*
X14507001Y-15421401D01*
X14507001Y-15421401D02*
X14532401Y-15446801D01*
X14757400Y-15671800D02*
X14532401Y-15446801D01*
X14732000Y-13766800D02*
X14507001Y-13991799D01*
G04 #@! TO.N,/SCL*
X15607602Y-18110200D02*
X15925800Y-18110200D01*
X14224000Y-18110200D02*
X15607602Y-18110200D01*
X12801600Y-17526000D02*
X13639800Y-17526000D01*
X13639800Y-17526000D02*
X14224000Y-18110200D01*
G04 #@! TO.N,/SDA*
X17043400Y-17856200D02*
X17043400Y-17348200D01*
X15967699Y-18931901D02*
X17043400Y-17856200D01*
X13766800Y-20421600D02*
X13766800Y-20650200D01*
X14359901Y-19828499D02*
X13766800Y-20421600D01*
X14359901Y-18859901D02*
X14359901Y-19828499D01*
X13411200Y-18008600D02*
X13508600Y-18008600D01*
X14431901Y-18931901D02*
X14284200Y-18784200D01*
X15967699Y-18931901D02*
X14431901Y-18931901D01*
X13508600Y-18008600D02*
X14284200Y-18784200D01*
X14284200Y-18784200D02*
X14359901Y-18859901D01*
G04 #@! TD*
D16*
G04 #@! TO.N,GND*
G36*
X16267924Y-14081296D02*
X16424104Y-14237476D01*
X16628164Y-14322000D01*
X16719347Y-14322000D01*
X17526200Y-15128854D01*
X17526200Y-16334628D01*
X17510296Y-16318724D01*
X17306236Y-16234200D01*
X17085364Y-16234200D01*
X16881304Y-16318724D01*
X16816828Y-16383200D01*
X16778596Y-16383200D01*
X16738599Y-16375244D01*
X16698602Y-16383200D01*
X16698598Y-16383200D01*
X16580109Y-16406769D01*
X16531101Y-16439515D01*
X16479658Y-16473888D01*
X16479657Y-16473889D01*
X16445747Y-16496547D01*
X16423089Y-16530457D01*
X16291146Y-16662400D01*
X16002723Y-16662400D01*
X16027103Y-14078061D01*
X16160564Y-13944600D01*
X16211303Y-13944600D01*
X16267924Y-14081296D01*
X16267924Y-14081296D01*
G37*
X16267924Y-14081296D02*
X16424104Y-14237476D01*
X16628164Y-14322000D01*
X16719347Y-14322000D01*
X17526200Y-15128854D01*
X17526200Y-16334628D01*
X17510296Y-16318724D01*
X17306236Y-16234200D01*
X17085364Y-16234200D01*
X16881304Y-16318724D01*
X16816828Y-16383200D01*
X16778596Y-16383200D01*
X16738599Y-16375244D01*
X16698602Y-16383200D01*
X16698598Y-16383200D01*
X16580109Y-16406769D01*
X16531101Y-16439515D01*
X16479658Y-16473888D01*
X16479657Y-16473889D01*
X16445747Y-16496547D01*
X16423089Y-16530457D01*
X16291146Y-16662400D01*
X16002723Y-16662400D01*
X16027103Y-14078061D01*
X16160564Y-13944600D01*
X16211303Y-13944600D01*
X16267924Y-14081296D01*
G04 #@! TO.N,Net-(D2-PadA)*
G36*
X14286724Y-15986296D02*
X14442904Y-16142476D01*
X14646964Y-16227000D01*
X14867836Y-16227000D01*
X15071896Y-16142476D01*
X15228076Y-15986296D01*
X15305739Y-15798800D01*
X15544800Y-15798800D01*
X15544800Y-16681636D01*
X15310036Y-16916400D01*
X13959539Y-16916400D01*
X13881876Y-16728904D01*
X13725696Y-16572724D01*
X13639800Y-16537145D01*
X13639800Y-16319219D01*
X13646766Y-16284200D01*
X13639800Y-16249180D01*
X13639800Y-15931964D01*
X13772964Y-15798800D01*
X14209061Y-15798800D01*
X14286724Y-15986296D01*
X14286724Y-15986296D01*
G37*
X14286724Y-15986296D02*
X14442904Y-16142476D01*
X14646964Y-16227000D01*
X14867836Y-16227000D01*
X15071896Y-16142476D01*
X15228076Y-15986296D01*
X15305739Y-15798800D01*
X15544800Y-15798800D01*
X15544800Y-16681636D01*
X15310036Y-16916400D01*
X13959539Y-16916400D01*
X13881876Y-16728904D01*
X13725696Y-16572724D01*
X13639800Y-16537145D01*
X13639800Y-16319219D01*
X13646766Y-16284200D01*
X13639800Y-16249180D01*
X13639800Y-15931964D01*
X13772964Y-15798800D01*
X14209061Y-15798800D01*
X14286724Y-15986296D01*
G04 #@! TD*
M02*
