M48
; DRILL file {KiCad (5.1.0)-1} date 5/2/2019 8:00:16 PM
; FORMAT={-:-/ absolute / inch / decimal}
; #@! TF.CreationDate,2019-05-02T20:00:16-07:00
; #@! TF.GenerationSoftware,Kicad,Pcbnew,(5.1.0)-1
; #@! TF.FileFunction,Plated,1,6,PTH
FMAT,2
INCH
T1C0.0079
%
G90
G05
T1
X-0.019Y0.2464
X-0.019Y0.2084
X0.005Y0.2654
X0.005Y0.2274
X0.005Y0.1894
X0.019Y0.1234
X0.019Y0.0194
X0.027Y0.174
X0.035Y0.2694
X0.041Y0.0194
X0.057Y0.3944
X0.058Y0.3194
X0.069Y0.3665
X0.089Y0.2064
X0.104Y0.2234
X0.112Y0.3334
X0.121Y0.1504
X0.136Y0.3944
X0.146Y0.2534
X0.153Y0.1644
X0.154Y0.2754
X0.161Y0.3344
X0.1676Y0.2584
X0.176Y0.1644
X0.178Y0.1394
X0.178Y0.1164
X0.178Y0.0904
X0.178Y0.0664
X0.178Y0.0194
T0
M30
