G04 #@! TF.GenerationSoftware,KiCad,Pcbnew,(5.1.0)-1*
G04 #@! TF.CreationDate,2019-05-02T20:00:12-07:00*
G04 #@! TF.ProjectId,MS_v4_ETL_LED_Driver,4d535f76-345f-4455-944c-5f4c45445f44,rev?*
G04 #@! TF.SameCoordinates,PXcab368PY16aeb08*
G04 #@! TF.FileFunction,Copper,L6,Bot*
G04 #@! TF.FilePolarity,Positive*
%FSLAX46Y46*%
G04 Gerber Fmt 4.6, Leading zero omitted, Abs format (unit mm)*
G04 Created by KiCad (PCBNEW (5.1.0)-1) date 2019-05-02 20:00:12*
%MOMM*%
%LPD*%
G04 APERTURE LIST*
%ADD10R,0.810000X0.870000*%
%ADD11R,0.540000X1.060000*%
%ADD12R,0.450000X1.500000*%
%ADD13R,0.890000X0.920000*%
%ADD14C,0.450000*%
%ADD15C,0.152000*%
%ADD16C,0.152400*%
G04 APERTURE END LIST*
D10*
X1275799Y1686200D03*
X2635801Y1686200D03*
D11*
X3937000Y1164200D03*
X3937000Y3224200D03*
D12*
X2150000Y7775000D03*
X2850000Y7775000D03*
D13*
X1290800Y2930800D03*
X2620800Y2930800D03*
D14*
X4521200Y2956200D03*
X4521200Y1686200D03*
X3454400Y10017400D03*
X3886206Y4175400D03*
X4521200Y492400D03*
X-482600Y5293000D03*
X2260600Y5242200D03*
X4089400Y8493400D03*
X4258300Y6563000D03*
X4521200Y3540400D03*
X4521200Y2295800D03*
X685801Y4420500D03*
X2844800Y8468000D03*
X127000Y4810400D03*
X4470400Y4175400D03*
X3073400Y3819800D03*
X1752600Y9308000D03*
X482600Y492400D03*
X127000Y6740800D03*
X3911600Y6994800D03*
X889000Y6842400D03*
X1473200Y8112400D03*
X1447800Y10017400D03*
X-482600Y6258200D03*
X2641600Y5674000D03*
X1041400Y492400D03*
X127000Y5775600D03*
X3708400Y6436000D03*
X482600Y3134000D03*
D15*
X4027200Y2956200D02*
X3810000Y3173400D01*
X4445000Y2956200D02*
X4027200Y2956200D01*
X3567400Y2930800D02*
X3810000Y3173400D01*
X2493800Y2930800D02*
X3567400Y2930800D01*
X4366800Y1670200D02*
X3810000Y1113400D01*
X4419600Y1670200D02*
X4366800Y1670200D01*
X3937000Y853400D02*
X3937000Y1113400D01*
X3931600Y848000D02*
X3937000Y853400D01*
X2083999Y848000D02*
X3931600Y848000D01*
X1275799Y1686200D02*
X1275799Y1656200D01*
X1275799Y1656200D02*
X2083999Y848000D01*
X4648200Y4937394D02*
X4111205Y4400399D01*
X4111205Y4400399D02*
X3886206Y4175400D01*
X4648200Y8823600D02*
X4648200Y4937394D01*
X3454400Y10017400D02*
X4648200Y8823600D01*
X2937400Y7851200D02*
X2913800Y7851200D01*
X4203002Y2295800D02*
X4521200Y2295800D01*
X3802401Y2295800D02*
X4203002Y2295800D01*
X3192801Y1686200D02*
X3802401Y2295800D01*
X2635801Y1686200D02*
X3192801Y1686200D01*
X685800Y4420501D02*
X685801Y4420500D01*
X2755202Y3819800D02*
X3073400Y3819800D01*
X2164800Y3819800D02*
X2755202Y3819800D01*
X1290800Y2945800D02*
X2164800Y3819800D01*
X1290800Y2930800D02*
X1290800Y2945800D01*
X213698Y6740800D02*
X127000Y6740800D01*
X501999Y6452499D02*
X213698Y6740800D01*
X2912099Y6452499D02*
X501999Y6452499D01*
X3937000Y6994800D02*
X3454400Y6994800D01*
X3454400Y6994800D02*
X2912099Y6452499D01*
X2150000Y7250000D02*
X2150000Y7775000D01*
X1742400Y6842400D02*
X2150000Y7250000D01*
X889000Y6842400D02*
X1742400Y6842400D01*
X1222801Y9792401D02*
X1222801Y8362799D01*
X1222801Y8362799D02*
X1248201Y8337399D01*
X1473200Y8112400D02*
X1248201Y8337399D01*
X1447800Y10017400D02*
X1222801Y9792401D01*
X2323402Y5674000D02*
X2641600Y5674000D01*
X939800Y5674000D02*
X2323402Y5674000D01*
X-482600Y6258200D02*
X355600Y6258200D01*
X355600Y6258200D02*
X939800Y5674000D01*
X3759200Y5928000D02*
X3759200Y6436000D01*
X2683499Y4852299D02*
X3759200Y5928000D01*
X482600Y3362600D02*
X482600Y3134000D01*
X1075701Y3955701D02*
X482600Y3362600D01*
X1075701Y4924299D02*
X1075701Y3955701D01*
X127000Y5775600D02*
X224400Y5775600D01*
X1147701Y4852299D02*
X1000000Y5000000D01*
X2683499Y4852299D02*
X1147701Y4852299D01*
X224400Y5775600D02*
X1000000Y5000000D01*
X1000000Y5000000D02*
X1075701Y4924299D01*
D16*
G36*
X2962388Y9754414D02*
G01*
X3023148Y9663481D01*
X3100481Y9586148D01*
X3191414Y9525388D01*
X3292454Y9483536D01*
X3399718Y9462200D01*
X3435148Y9462200D01*
X4242000Y8655346D01*
X4242000Y7441767D01*
X4174586Y7486812D01*
X4073546Y7528664D01*
X3966282Y7550000D01*
X3856918Y7550000D01*
X3749654Y7528664D01*
X3648614Y7486812D01*
X3557681Y7426052D01*
X3532629Y7401000D01*
X3474339Y7401000D01*
X3454399Y7402964D01*
X3434459Y7401000D01*
X3434450Y7401000D01*
X3374771Y7395122D01*
X3298202Y7371895D01*
X3227636Y7334177D01*
X3227634Y7334176D01*
X3227635Y7334176D01*
X3181279Y7296133D01*
X3181276Y7296130D01*
X3165784Y7283416D01*
X3153069Y7267923D01*
X3006947Y7121800D01*
X2718523Y7121800D01*
X2742903Y9706139D01*
X2876364Y9839600D01*
X2927103Y9839600D01*
X2962388Y9754414D01*
X2962388Y9754414D01*
G37*
X2962388Y9754414D02*
X3023148Y9663481D01*
X3100481Y9586148D01*
X3191414Y9525388D01*
X3292454Y9483536D01*
X3399718Y9462200D01*
X3435148Y9462200D01*
X4242000Y8655346D01*
X4242000Y7441767D01*
X4174586Y7486812D01*
X4073546Y7528664D01*
X3966282Y7550000D01*
X3856918Y7550000D01*
X3749654Y7528664D01*
X3648614Y7486812D01*
X3557681Y7426052D01*
X3532629Y7401000D01*
X3474339Y7401000D01*
X3454399Y7402964D01*
X3434459Y7401000D01*
X3434450Y7401000D01*
X3374771Y7395122D01*
X3298202Y7371895D01*
X3227636Y7334177D01*
X3227634Y7334176D01*
X3227635Y7334176D01*
X3181279Y7296133D01*
X3181276Y7296130D01*
X3165784Y7283416D01*
X3153069Y7267923D01*
X3006947Y7121800D01*
X2718523Y7121800D01*
X2742903Y9706139D01*
X2876364Y9839600D01*
X2927103Y9839600D01*
X2962388Y9754414D01*
G36*
X939336Y7950454D02*
G01*
X981188Y7849414D01*
X1041948Y7758481D01*
X1119281Y7681148D01*
X1210214Y7620388D01*
X1311254Y7578536D01*
X1418518Y7557200D01*
X1527882Y7557200D01*
X1635146Y7578536D01*
X1736186Y7620388D01*
X1827119Y7681148D01*
X1904452Y7758481D01*
X1965212Y7849414D01*
X2007064Y7950454D01*
X2014015Y7985400D01*
X2260600Y7985400D01*
X2260600Y7102564D01*
X2025836Y6867800D01*
X667815Y6867800D01*
X660864Y6902746D01*
X619012Y7003786D01*
X558252Y7094719D01*
X480919Y7172052D01*
X389986Y7232812D01*
X355600Y7247055D01*
X355600Y7482545D01*
X357319Y7500000D01*
X355600Y7517455D01*
X355600Y7852236D01*
X488764Y7985400D01*
X932385Y7985400D01*
X939336Y7950454D01*
X939336Y7950454D01*
G37*
X939336Y7950454D02*
X981188Y7849414D01*
X1041948Y7758481D01*
X1119281Y7681148D01*
X1210214Y7620388D01*
X1311254Y7578536D01*
X1418518Y7557200D01*
X1527882Y7557200D01*
X1635146Y7578536D01*
X1736186Y7620388D01*
X1827119Y7681148D01*
X1904452Y7758481D01*
X1965212Y7849414D01*
X2007064Y7950454D01*
X2014015Y7985400D01*
X2260600Y7985400D01*
X2260600Y7102564D01*
X2025836Y6867800D01*
X667815Y6867800D01*
X660864Y6902746D01*
X619012Y7003786D01*
X558252Y7094719D01*
X480919Y7172052D01*
X389986Y7232812D01*
X355600Y7247055D01*
X355600Y7482545D01*
X357319Y7500000D01*
X355600Y7517455D01*
X355600Y7852236D01*
X488764Y7985400D01*
X932385Y7985400D01*
X939336Y7950454D01*
M02*
