G04 #@! TF.GenerationSoftware,KiCad,Pcbnew,(5.1.0)-1*
G04 #@! TF.CreationDate,2019-05-02T20:00:12-07:00*
G04 #@! TF.ProjectId,MS_v4_ETL_LED_Driver,4d535f76-345f-4455-944c-5f4c45445f44,rev?*
G04 #@! TF.SameCoordinates,PXcab368PY16aeb08*
G04 #@! TF.FileFunction,Legend,Top*
G04 #@! TF.FilePolarity,Positive*
%FSLAX46Y46*%
G04 Gerber Fmt 4.6, Leading zero omitted, Abs format (unit mm)*
G04 Created by KiCad (PCBNEW (5.1.0)-1) date 2019-05-02 20:00:12*
%MOMM*%
%LPD*%
G04 APERTURE LIST*
%ADD10C,0.100000*%
%ADD11C,0.150000*%
%ADD12C,0.050000*%
%ADD13C,0.120000*%
%ADD14C,0.160000*%
%ADD15R,0.812800X1.066800*%
%ADD16R,0.360800X0.390800*%
%ADD17R,0.390800X0.360800*%
%ADD18C,0.558800*%
%ADD19R,0.680800X0.630800*%
%ADD20R,0.812800X1.320800*%
%ADD21C,0.400800*%
%ADD22R,0.660800X0.270800*%
%ADD23R,0.270800X0.660800*%
%ADD24R,2.440800X0.690800*%
%ADD25R,0.320800X0.690800*%
G04 APERTURE END LIST*
D10*
X3803800Y3466000D02*
X3383800Y3466000D01*
X3803800Y3046000D02*
X3803800Y3466000D01*
X3803800Y1786000D02*
X3383800Y1786000D01*
X3803800Y2206000D02*
X3803800Y1786000D01*
X1123800Y1786000D02*
X1543800Y1786000D01*
X1123800Y2206000D02*
X1123800Y1786000D01*
X1123800Y3466000D02*
X1543800Y3466000D01*
X1123800Y3046000D02*
X1123800Y3466000D01*
X1378400Y6475400D02*
X1378400Y5905400D01*
X3498400Y6475400D02*
X3498400Y5905400D01*
X3498400Y4415400D02*
X3498400Y4985400D01*
X1378400Y4415400D02*
X1378400Y4985400D01*
X1675800Y9518000D02*
X1940800Y9518000D01*
X1675800Y7418000D02*
X1675800Y9518000D01*
X1940800Y7418000D02*
X1675800Y7418000D01*
X4775800Y9518000D02*
X4510800Y9518000D01*
X4775800Y7418000D02*
X4775800Y9518000D01*
X4510800Y7418000D02*
X4775800Y7418000D01*
D11*
X5635666Y938420D02*
X5635666Y224134D01*
X5588047Y81277D01*
X5492809Y-13961D01*
X5349952Y-61580D01*
X5254714Y-61580D01*
X6635666Y-61580D02*
X6064238Y-61580D01*
X6349952Y-61580D02*
X6349952Y938420D01*
X6254714Y795562D01*
X6159476Y700324D01*
X6064238Y652705D01*
D12*
X-4375934Y4885829D02*
X-4399743Y4862020D01*
X-4471172Y4838210D01*
X-4518791Y4838210D01*
X-4590220Y4862020D01*
X-4637839Y4909639D01*
X-4661648Y4957258D01*
X-4685458Y5052496D01*
X-4685458Y5123924D01*
X-4661648Y5219162D01*
X-4637839Y5266781D01*
X-4590220Y5314400D01*
X-4518791Y5338210D01*
X-4471172Y5338210D01*
X-4399743Y5314400D01*
X-4375934Y5290591D01*
X-4209267Y5338210D02*
X-3875934Y5338210D01*
X-4090220Y4838210D01*
X-2034410Y3914267D02*
X-2272505Y3747600D01*
X-2034410Y3628553D02*
X-2534410Y3628553D01*
X-2534410Y3819029D01*
X-2510600Y3866648D01*
X-2486791Y3890458D01*
X-2439172Y3914267D01*
X-2367743Y3914267D01*
X-2320124Y3890458D01*
X-2296315Y3866648D01*
X-2272505Y3819029D01*
X-2272505Y3628553D01*
X-2486791Y4104743D02*
X-2510600Y4128553D01*
X-2534410Y4176172D01*
X-2534410Y4295220D01*
X-2510600Y4342839D01*
X-2486791Y4366648D01*
X-2439172Y4390458D01*
X-2391553Y4390458D01*
X-2320124Y4366648D01*
X-2034410Y4080934D01*
X-2034410Y4390458D01*
X-2083334Y-726190D02*
X-2250000Y-488095D01*
X-2369048Y-726190D02*
X-2369048Y-226190D01*
X-2178572Y-226190D01*
X-2130953Y-250000D01*
X-2107143Y-273809D01*
X-2083334Y-321428D01*
X-2083334Y-392857D01*
X-2107143Y-440476D01*
X-2130953Y-464285D01*
X-2178572Y-488095D01*
X-2369048Y-488095D01*
X-1916667Y-226190D02*
X-1607143Y-226190D01*
X-1773810Y-416666D01*
X-1702381Y-416666D01*
X-1654762Y-440476D01*
X-1630953Y-464285D01*
X-1607143Y-511904D01*
X-1607143Y-630952D01*
X-1630953Y-678571D01*
X-1654762Y-702380D01*
X-1702381Y-726190D01*
X-1845239Y-726190D01*
X-1892858Y-702380D01*
X-1916667Y-678571D01*
D11*
X-2605020Y4762877D02*
X-1890734Y4762877D01*
X-1747877Y4715258D01*
X-1652639Y4620020D01*
X-1605020Y4477162D01*
X-1605020Y4381924D01*
X-1605020Y5762877D02*
X-1605020Y5191448D01*
X-1605020Y5477162D02*
X-2605020Y5477162D01*
X-2462162Y5381924D01*
X-2366924Y5286686D01*
X-2319305Y5191448D01*
X-2605020Y6381924D02*
X-2605020Y6477162D01*
X-2557400Y6572400D01*
X-2509781Y6620020D01*
X-2414543Y6667639D01*
X-2224067Y6715258D01*
X-1985972Y6715258D01*
X-1795496Y6667639D01*
X-1700258Y6620020D01*
X-1652639Y6572400D01*
X-1605020Y6477162D01*
X-1605020Y6381924D01*
X-1652639Y6286686D01*
X-1700258Y6239067D01*
X-1795496Y6191448D01*
X-1985972Y6143829D01*
X-2224067Y6143829D01*
X-2414543Y6191448D01*
X-2509781Y6239067D01*
X-2557400Y6286686D01*
X-2605020Y6381924D01*
D12*
X2202666Y8873629D02*
X2178857Y8849820D01*
X2107428Y8826010D01*
X2059809Y8826010D01*
X1988380Y8849820D01*
X1940761Y8897439D01*
X1916952Y8945058D01*
X1893142Y9040296D01*
X1893142Y9111724D01*
X1916952Y9206962D01*
X1940761Y9254581D01*
X1988380Y9302200D01*
X2059809Y9326010D01*
X2107428Y9326010D01*
X2178857Y9302200D01*
X2202666Y9278391D01*
X2393142Y9278391D02*
X2416952Y9302200D01*
X2464571Y9326010D01*
X2583619Y9326010D01*
X2631238Y9302200D01*
X2655047Y9278391D01*
X2678857Y9230772D01*
X2678857Y9183153D01*
X2655047Y9111724D01*
X2369333Y8826010D01*
X2678857Y8826010D01*
X-4083334Y3821429D02*
X-4107143Y3797620D01*
X-4178572Y3773810D01*
X-4226191Y3773810D01*
X-4297620Y3797620D01*
X-4345239Y3845239D01*
X-4369048Y3892858D01*
X-4392858Y3988096D01*
X-4392858Y4059524D01*
X-4369048Y4154762D01*
X-4345239Y4202381D01*
X-4297620Y4250000D01*
X-4226191Y4273810D01*
X-4178572Y4273810D01*
X-4107143Y4250000D01*
X-4083334Y4226191D01*
X-3654762Y4107143D02*
X-3654762Y3773810D01*
X-3773810Y4297620D02*
X-3892858Y3940477D01*
X-3583334Y3940477D01*
X3777466Y11197729D02*
X3753657Y11173920D01*
X3682228Y11150110D01*
X3634609Y11150110D01*
X3563180Y11173920D01*
X3515561Y11221539D01*
X3491752Y11269158D01*
X3467942Y11364396D01*
X3467942Y11435824D01*
X3491752Y11531062D01*
X3515561Y11578681D01*
X3563180Y11626300D01*
X3634609Y11650110D01*
X3682228Y11650110D01*
X3753657Y11626300D01*
X3777466Y11602491D01*
X4229847Y11650110D02*
X3991752Y11650110D01*
X3967942Y11412015D01*
X3991752Y11435824D01*
X4039371Y11459634D01*
X4158419Y11459634D01*
X4206038Y11435824D01*
X4229847Y11412015D01*
X4253657Y11364396D01*
X4253657Y11245348D01*
X4229847Y11197729D01*
X4206038Y11173920D01*
X4158419Y11150110D01*
X4039371Y11150110D01*
X3991752Y11173920D01*
X3967942Y11197729D01*
X-579630Y7858766D02*
X-555821Y7834957D01*
X-532011Y7763528D01*
X-532011Y7715909D01*
X-555821Y7644480D01*
X-603440Y7596861D01*
X-651059Y7573052D01*
X-746297Y7549242D01*
X-817725Y7549242D01*
X-912963Y7573052D01*
X-960582Y7596861D01*
X-1008201Y7644480D01*
X-1032011Y7715909D01*
X-1032011Y7763528D01*
X-1008201Y7834957D01*
X-984392Y7858766D01*
X-1032011Y8287338D02*
X-1032011Y8192099D01*
X-1008201Y8144480D01*
X-984392Y8120671D01*
X-912963Y8073052D01*
X-817725Y8049242D01*
X-627249Y8049242D01*
X-579630Y8073052D01*
X-555821Y8096861D01*
X-532011Y8144480D01*
X-532011Y8239719D01*
X-555821Y8287338D01*
X-579630Y8311147D01*
X-627249Y8334957D01*
X-746297Y8334957D01*
X-793916Y8311147D01*
X-817725Y8287338D01*
X-841535Y8239719D01*
X-841535Y8144480D01*
X-817725Y8096861D01*
X-793916Y8073052D01*
X-746297Y8049242D01*
X3251971Y5336667D02*
X3275780Y5312858D01*
X3299590Y5241429D01*
X3299590Y5193810D01*
X3275780Y5122381D01*
X3228161Y5074762D01*
X3180542Y5050953D01*
X3085304Y5027143D01*
X3013876Y5027143D01*
X2918638Y5050953D01*
X2871019Y5074762D01*
X2823400Y5122381D01*
X2799590Y5193810D01*
X2799590Y5241429D01*
X2823400Y5312858D01*
X2847209Y5336667D01*
X3299590Y5812858D02*
X3299590Y5527143D01*
X3299590Y5670000D02*
X2799590Y5670000D01*
X2871019Y5622381D01*
X2918638Y5574762D01*
X2942447Y5527143D01*
D11*
X1466666Y-453580D02*
X1466666Y-1167866D01*
X1419047Y-1310723D01*
X1323809Y-1405961D01*
X1180952Y-1453580D01*
X1085714Y-1453580D01*
X1847619Y-453580D02*
X2514285Y-453580D01*
X2085714Y-1453580D01*
X2966666Y-553580D02*
X2966666Y-1267866D01*
X2919047Y-1410723D01*
X2823809Y-1505961D01*
X2680952Y-1553580D01*
X2585714Y-1553580D01*
X3871428Y-553580D02*
X3680952Y-553580D01*
X3585714Y-601200D01*
X3538095Y-648819D01*
X3442857Y-791676D01*
X3395238Y-982152D01*
X3395238Y-1363104D01*
X3442857Y-1458342D01*
X3490476Y-1505961D01*
X3585714Y-1553580D01*
X3776190Y-1553580D01*
X3871428Y-1505961D01*
X3919047Y-1458342D01*
X3966666Y-1363104D01*
X3966666Y-1125009D01*
X3919047Y-1029771D01*
X3871428Y-982152D01*
X3776190Y-934533D01*
X3585714Y-934533D01*
X3490476Y-982152D01*
X3442857Y-1029771D01*
X3395238Y-1125009D01*
D12*
X2380466Y7835410D02*
X2213800Y8073505D01*
X2094752Y7835410D02*
X2094752Y8335410D01*
X2285228Y8335410D01*
X2332847Y8311600D01*
X2356657Y8287791D01*
X2380466Y8240172D01*
X2380466Y8168743D01*
X2356657Y8121124D01*
X2332847Y8097315D01*
X2285228Y8073505D01*
X2094752Y8073505D01*
X2856657Y7835410D02*
X2570942Y7835410D01*
X2713800Y7835410D02*
X2713800Y8335410D01*
X2666180Y8263981D01*
X2618561Y8216362D01*
X2570942Y8192553D01*
D13*
X6657133Y2077667D02*
X6657133Y1114334D01*
X6713800Y1001000D01*
X6770466Y944334D01*
X6883800Y887667D01*
X7110466Y887667D01*
X7223800Y944334D01*
X7280466Y1001000D01*
X7337133Y1114334D01*
X7337133Y2077667D01*
X8527133Y887667D02*
X7847133Y887667D01*
X8187133Y887667D02*
X8187133Y2077667D01*
X8073800Y1907667D01*
X7960466Y1794334D01*
X7847133Y1737667D01*
D14*
X5668038Y6484410D02*
X6938990Y6484410D01*
X7088514Y6559172D01*
X7163276Y6633934D01*
X7238038Y6783458D01*
X7238038Y7082505D01*
X7163276Y7232029D01*
X7088514Y7306791D01*
X6938990Y7381553D01*
X5668038Y7381553D01*
X5817561Y8054410D02*
X5742800Y8129172D01*
X5668038Y8278696D01*
X5668038Y8652505D01*
X5742800Y8802029D01*
X5817561Y8876791D01*
X5967085Y8951553D01*
X6116609Y8951553D01*
X6340895Y8876791D01*
X7238038Y7979648D01*
X7238038Y8951553D01*
X7698487Y4032791D02*
X7698487Y2721363D01*
X7775630Y2567077D01*
X7852773Y2489934D01*
X8007058Y2412791D01*
X8315630Y2412791D01*
X8469915Y2489934D01*
X8547058Y2567077D01*
X8624201Y2721363D01*
X8624201Y4032791D01*
X9241344Y4032791D02*
X10244201Y4032791D01*
X9704201Y3415648D01*
X9935630Y3415648D01*
X10089915Y3338506D01*
X10167058Y3261363D01*
X10244201Y3107077D01*
X10244201Y2721363D01*
X10167058Y2567077D01*
X10089915Y2489934D01*
X9935630Y2412791D01*
X9472773Y2412791D01*
X9318487Y2489934D01*
X9241344Y2567077D01*
%LPC*%
D15*
X4368800Y771800D03*
D16*
X1240200Y3819800D03*
X690200Y3819800D03*
D17*
X431800Y2240600D03*
X431800Y1690600D03*
D16*
X410800Y1076600D03*
X960800Y1076600D03*
D18*
X129286Y6736704D03*
X-480314Y6254105D03*
X129286Y5771505D03*
X-480314Y5288906D03*
X129286Y4806306D03*
D16*
X461600Y9382400D03*
X1011600Y9382400D03*
X2510200Y3819800D03*
X1960200Y3819800D03*
X2163400Y10068200D03*
X2713400Y10068200D03*
D19*
X635000Y8659000D03*
X635000Y7769000D03*
X4318000Y4848000D03*
X4318000Y5738000D03*
D20*
X2000000Y898800D03*
X3000000Y898800D03*
D16*
X4017600Y10068200D03*
X4567600Y10068200D03*
D21*
X3463800Y2126000D03*
X2963800Y2126000D03*
X2463800Y2126000D03*
X1963800Y2126000D03*
X1463800Y2126000D03*
X3463800Y2626000D03*
X2963800Y2626000D03*
X2463800Y2626000D03*
X1963800Y2626000D03*
X1463800Y2626000D03*
X3463800Y3126000D03*
X2963800Y3126000D03*
X2463800Y3126000D03*
X1963800Y3126000D03*
X1463800Y3126000D03*
D22*
X1593400Y5245400D03*
X1593400Y5645400D03*
D23*
X1638400Y6290400D03*
X2038400Y6290400D03*
X2438400Y6290400D03*
X2838400Y6290400D03*
X3238400Y6290400D03*
D22*
X3283400Y5645400D03*
X3283400Y5245400D03*
D23*
X3238400Y4600400D03*
X2838400Y4600400D03*
X2438400Y4600400D03*
X2038400Y4600400D03*
X1638400Y4600400D03*
D24*
X3225800Y8468000D03*
D25*
X2225800Y9308000D03*
X2725800Y9308000D03*
X3225800Y9308000D03*
X3725800Y9308000D03*
X4225800Y9308000D03*
X4225800Y7628000D03*
X3725800Y7628000D03*
X3225800Y7628000D03*
X2725800Y7628000D03*
X2225800Y7628000D03*
M02*
