G04 #@! TF.GenerationSoftware,KiCad,Pcbnew,(5.1.0)-1*
G04 #@! TF.CreationDate,2019-05-02T20:00:12-07:00*
G04 #@! TF.ProjectId,MS_v4_ETL_LED_Driver,4d535f76-345f-4455-944c-5f4c45445f44,rev?*
G04 #@! TF.SameCoordinates,PXcab368PY16aeb08*
G04 #@! TF.FileFunction,Paste,Top*
G04 #@! TF.FilePolarity,Positive*
%FSLAX46Y46*%
G04 Gerber Fmt 4.6, Leading zero omitted, Abs format (unit mm)*
G04 Created by KiCad (PCBNEW (5.1.0)-1) date 2019-05-02 20:00:12*
%MOMM*%
%LPD*%
G04 APERTURE LIST*
%ADD10R,0.762000X1.016000*%
%ADD11R,0.310000X0.340000*%
%ADD12R,0.340000X0.310000*%
%ADD13C,0.508000*%
%ADD14R,0.630000X0.580000*%
%ADD15R,0.762000X1.270000*%
%ADD16C,0.350000*%
%ADD17R,0.610000X0.220000*%
%ADD18R,0.220000X0.610000*%
%ADD19R,2.390000X0.640000*%
%ADD20R,0.270000X0.640000*%
G04 APERTURE END LIST*
D10*
X4368800Y771800D03*
D11*
X1240200Y3819800D03*
X690200Y3819800D03*
D12*
X431800Y2240600D03*
X431800Y1690600D03*
D11*
X410800Y1076600D03*
X960800Y1076600D03*
D13*
X129286Y6736704D03*
X-480314Y6254105D03*
X129286Y5771505D03*
X-480314Y5288906D03*
X129286Y4806306D03*
D11*
X461600Y9382400D03*
X1011600Y9382400D03*
X2510200Y3819800D03*
X1960200Y3819800D03*
X2163400Y10068200D03*
X2713400Y10068200D03*
D14*
X635000Y8659000D03*
X635000Y7769000D03*
X4318000Y4848000D03*
X4318000Y5738000D03*
D15*
X2000000Y898800D03*
X3000000Y898800D03*
D11*
X4017600Y10068200D03*
X4567600Y10068200D03*
D16*
X3463800Y2126000D03*
X2963800Y2126000D03*
X2463800Y2126000D03*
X1963800Y2126000D03*
X1463800Y2126000D03*
X3463800Y2626000D03*
X2963800Y2626000D03*
X2463800Y2626000D03*
X1963800Y2626000D03*
X1463800Y2626000D03*
X3463800Y3126000D03*
X2963800Y3126000D03*
X2463800Y3126000D03*
X1963800Y3126000D03*
X1463800Y3126000D03*
D17*
X1593400Y5245400D03*
X1593400Y5645400D03*
D18*
X1638400Y6290400D03*
X2038400Y6290400D03*
X2438400Y6290400D03*
X2838400Y6290400D03*
X3238400Y6290400D03*
D17*
X3283400Y5645400D03*
X3283400Y5245400D03*
D18*
X3238400Y4600400D03*
X2838400Y4600400D03*
X2438400Y4600400D03*
X2038400Y4600400D03*
X1638400Y4600400D03*
D19*
X3225800Y8468000D03*
D20*
X2225800Y9308000D03*
X2725800Y9308000D03*
X3225800Y9308000D03*
X3725800Y9308000D03*
X4225800Y9308000D03*
X4225800Y7628000D03*
X3725800Y7628000D03*
X3225800Y7628000D03*
X2725800Y7628000D03*
X2225800Y7628000D03*
M02*
