G04 #@! TF.GenerationSoftware,KiCad,Pcbnew,(5.1.0)-1*
G04 #@! TF.CreationDate,2020-01-09T10:29:38-08:00*
G04 #@! TF.ProjectId,Miniscope-v4-Rigid-Flex,4d696e69-7363-46f7-9065-2d76342d5269,rev?*
G04 #@! TF.SameCoordinates,Original*
G04 #@! TF.FileFunction,Copper,L1,Top*
G04 #@! TF.FilePolarity,Positive*
%FSLAX46Y46*%
G04 Gerber Fmt 4.6, Leading zero omitted, Abs format (unit mm)*
G04 Created by KiCad (PCBNEW (5.1.0)-1) date 2020-01-09 10:29:38*
%MOMM*%
%LPD*%
G04 APERTURE LIST*
%ADD10C,0.100000*%
%ADD11C,0.310000*%
%ADD12R,2.500000X2.500000*%
%ADD13R,3.100000X3.100000*%
%ADD14R,0.260000X0.680000*%
%ADD15R,0.680000X0.260000*%
%ADD16C,0.508000*%
%ADD17C,1.000000*%
%ADD18C,1.050000*%
%ADD19C,0.700000*%
%ADD20R,0.254000X0.675000*%
%ADD21R,0.675000X0.254000*%
%ADD22C,0.580000*%
%ADD23R,0.990000X0.340000*%
%ADD24R,0.880000X0.830000*%
%ADD25C,0.890000*%
%ADD26C,0.810000*%
%ADD27R,0.280000X0.170000*%
%ADD28R,0.280000X0.520000*%
%ADD29C,0.590000*%
%ADD30R,0.610000X0.220000*%
%ADD31R,0.220000X0.610000*%
%ADD32R,0.270000X0.640000*%
%ADD33R,2.390000X0.640000*%
%ADD34R,0.750000X0.750000*%
%ADD35C,0.350000*%
%ADD36C,0.300000*%
%ADD37C,0.152400*%
%ADD38C,0.304800*%
%ADD39C,0.254000*%
%ADD40C,0.203200*%
G04 APERTURE END LIST*
D10*
G36*
X102908696Y-129887773D02*
G01*
X102916219Y-129888889D01*
X102923597Y-129890737D01*
X102930758Y-129893299D01*
X102937633Y-129896551D01*
X102944157Y-129900461D01*
X102950265Y-129904992D01*
X102955901Y-129910099D01*
X102961008Y-129915735D01*
X102965539Y-129921843D01*
X102969449Y-129928367D01*
X102972701Y-129935242D01*
X102975263Y-129942403D01*
X102977111Y-129949781D01*
X102978227Y-129957304D01*
X102978600Y-129964900D01*
X102978600Y-130149900D01*
X102978227Y-130157496D01*
X102977111Y-130165019D01*
X102975263Y-130172397D01*
X102972701Y-130179558D01*
X102969449Y-130186433D01*
X102965539Y-130192957D01*
X102961008Y-130199065D01*
X102955901Y-130204701D01*
X102950265Y-130209808D01*
X102944157Y-130214339D01*
X102937633Y-130218249D01*
X102930758Y-130221501D01*
X102923597Y-130224063D01*
X102916219Y-130225911D01*
X102908696Y-130227027D01*
X102901100Y-130227400D01*
X102746100Y-130227400D01*
X102738504Y-130227027D01*
X102730981Y-130225911D01*
X102723603Y-130224063D01*
X102716442Y-130221501D01*
X102709567Y-130218249D01*
X102703043Y-130214339D01*
X102696935Y-130209808D01*
X102691299Y-130204701D01*
X102686192Y-130199065D01*
X102681661Y-130192957D01*
X102677751Y-130186433D01*
X102674499Y-130179558D01*
X102671937Y-130172397D01*
X102670089Y-130165019D01*
X102668973Y-130157496D01*
X102668600Y-130149900D01*
X102668600Y-129964900D01*
X102668973Y-129957304D01*
X102670089Y-129949781D01*
X102671937Y-129942403D01*
X102674499Y-129935242D01*
X102677751Y-129928367D01*
X102681661Y-129921843D01*
X102686192Y-129915735D01*
X102691299Y-129910099D01*
X102696935Y-129904992D01*
X102703043Y-129900461D01*
X102709567Y-129896551D01*
X102716442Y-129893299D01*
X102723603Y-129890737D01*
X102730981Y-129888889D01*
X102738504Y-129887773D01*
X102746100Y-129887400D01*
X102901100Y-129887400D01*
X102908696Y-129887773D01*
X102908696Y-129887773D01*
G37*
D11*
X102823600Y-130057400D03*
D10*
G36*
X103458696Y-129887773D02*
G01*
X103466219Y-129888889D01*
X103473597Y-129890737D01*
X103480758Y-129893299D01*
X103487633Y-129896551D01*
X103494157Y-129900461D01*
X103500265Y-129904992D01*
X103505901Y-129910099D01*
X103511008Y-129915735D01*
X103515539Y-129921843D01*
X103519449Y-129928367D01*
X103522701Y-129935242D01*
X103525263Y-129942403D01*
X103527111Y-129949781D01*
X103528227Y-129957304D01*
X103528600Y-129964900D01*
X103528600Y-130149900D01*
X103528227Y-130157496D01*
X103527111Y-130165019D01*
X103525263Y-130172397D01*
X103522701Y-130179558D01*
X103519449Y-130186433D01*
X103515539Y-130192957D01*
X103511008Y-130199065D01*
X103505901Y-130204701D01*
X103500265Y-130209808D01*
X103494157Y-130214339D01*
X103487633Y-130218249D01*
X103480758Y-130221501D01*
X103473597Y-130224063D01*
X103466219Y-130225911D01*
X103458696Y-130227027D01*
X103451100Y-130227400D01*
X103296100Y-130227400D01*
X103288504Y-130227027D01*
X103280981Y-130225911D01*
X103273603Y-130224063D01*
X103266442Y-130221501D01*
X103259567Y-130218249D01*
X103253043Y-130214339D01*
X103246935Y-130209808D01*
X103241299Y-130204701D01*
X103236192Y-130199065D01*
X103231661Y-130192957D01*
X103227751Y-130186433D01*
X103224499Y-130179558D01*
X103221937Y-130172397D01*
X103220089Y-130165019D01*
X103218973Y-130157496D01*
X103218600Y-130149900D01*
X103218600Y-129964900D01*
X103218973Y-129957304D01*
X103220089Y-129949781D01*
X103221937Y-129942403D01*
X103224499Y-129935242D01*
X103227751Y-129928367D01*
X103231661Y-129921843D01*
X103236192Y-129915735D01*
X103241299Y-129910099D01*
X103246935Y-129904992D01*
X103253043Y-129900461D01*
X103259567Y-129896551D01*
X103266442Y-129893299D01*
X103273603Y-129890737D01*
X103280981Y-129888889D01*
X103288504Y-129887773D01*
X103296100Y-129887400D01*
X103451100Y-129887400D01*
X103458696Y-129887773D01*
X103458696Y-129887773D01*
G37*
D11*
X103373600Y-130057400D03*
D12*
X109677400Y-125386600D03*
D13*
X104736800Y-126948400D03*
D14*
X102986800Y-124613400D03*
X103486800Y-124613400D03*
X103986800Y-124613400D03*
X104486800Y-124613400D03*
X104986800Y-124613400D03*
X105486800Y-124613400D03*
X105986800Y-124613400D03*
X106486800Y-124613400D03*
D15*
X107071800Y-125198400D03*
X107071800Y-125698400D03*
X107071800Y-126198400D03*
X107071800Y-126698400D03*
X107071800Y-127198400D03*
X107071800Y-127698400D03*
X107071800Y-128198400D03*
X107071800Y-128698400D03*
D14*
X106486800Y-129283400D03*
X105986800Y-129283400D03*
X105486800Y-129283400D03*
X104986800Y-129283400D03*
X104486800Y-129283400D03*
X103986800Y-129283400D03*
X103486800Y-129283400D03*
X102986800Y-129283400D03*
D15*
X102401800Y-128698400D03*
X102401800Y-128198400D03*
X102401800Y-127698400D03*
X102401800Y-127198400D03*
X102401800Y-126698400D03*
X102401800Y-126198400D03*
X102401800Y-125698400D03*
X102401800Y-125198400D03*
D16*
X100000000Y-126180398D03*
X99390400Y-125697798D03*
X100000000Y-125215199D03*
X99390400Y-124732599D03*
X100000000Y-124250000D03*
D10*
G36*
X110104304Y-129235504D02*
G01*
X110128573Y-129239104D01*
X110152371Y-129245065D01*
X110175471Y-129253330D01*
X110197649Y-129263820D01*
X110218693Y-129276433D01*
X110238398Y-129291047D01*
X110256577Y-129307523D01*
X110273053Y-129325702D01*
X110287667Y-129345407D01*
X110300280Y-129366451D01*
X110310770Y-129388629D01*
X110319035Y-129411729D01*
X110324996Y-129435527D01*
X110328596Y-129459796D01*
X110329800Y-129484300D01*
X110329800Y-130034300D01*
X110328596Y-130058804D01*
X110324996Y-130083073D01*
X110319035Y-130106871D01*
X110310770Y-130129971D01*
X110300280Y-130152149D01*
X110287667Y-130173193D01*
X110273053Y-130192898D01*
X110256577Y-130211077D01*
X110238398Y-130227553D01*
X110218693Y-130242167D01*
X110197649Y-130254780D01*
X110175471Y-130265270D01*
X110152371Y-130273535D01*
X110128573Y-130279496D01*
X110104304Y-130283096D01*
X110079800Y-130284300D01*
X109579800Y-130284300D01*
X109555296Y-130283096D01*
X109531027Y-130279496D01*
X109507229Y-130273535D01*
X109484129Y-130265270D01*
X109461951Y-130254780D01*
X109440907Y-130242167D01*
X109421202Y-130227553D01*
X109403023Y-130211077D01*
X109386547Y-130192898D01*
X109371933Y-130173193D01*
X109359320Y-130152149D01*
X109348830Y-130129971D01*
X109340565Y-130106871D01*
X109334604Y-130083073D01*
X109331004Y-130058804D01*
X109329800Y-130034300D01*
X109329800Y-129484300D01*
X109331004Y-129459796D01*
X109334604Y-129435527D01*
X109340565Y-129411729D01*
X109348830Y-129388629D01*
X109359320Y-129366451D01*
X109371933Y-129345407D01*
X109386547Y-129325702D01*
X109403023Y-129307523D01*
X109421202Y-129291047D01*
X109440907Y-129276433D01*
X109461951Y-129263820D01*
X109484129Y-129253330D01*
X109507229Y-129245065D01*
X109531027Y-129239104D01*
X109555296Y-129235504D01*
X109579800Y-129234300D01*
X110079800Y-129234300D01*
X110104304Y-129235504D01*
X110104304Y-129235504D01*
G37*
D17*
X109829800Y-129759300D03*
D10*
G36*
X108643029Y-127158064D02*
G01*
X108668511Y-127161844D01*
X108693500Y-127168103D01*
X108717754Y-127176782D01*
X108741042Y-127187796D01*
X108763137Y-127201039D01*
X108783828Y-127216385D01*
X108802916Y-127233684D01*
X108820215Y-127252772D01*
X108835561Y-127273463D01*
X108848804Y-127295558D01*
X108859818Y-127318846D01*
X108868497Y-127343100D01*
X108874756Y-127368089D01*
X108878536Y-127393571D01*
X108879800Y-127419300D01*
X108879800Y-129094300D01*
X108878536Y-129120029D01*
X108874756Y-129145511D01*
X108868497Y-129170500D01*
X108859818Y-129194754D01*
X108848804Y-129218042D01*
X108835561Y-129240137D01*
X108820215Y-129260828D01*
X108802916Y-129279916D01*
X108783828Y-129297215D01*
X108763137Y-129312561D01*
X108741042Y-129325804D01*
X108717754Y-129336818D01*
X108693500Y-129345497D01*
X108668511Y-129351756D01*
X108643029Y-129355536D01*
X108617300Y-129356800D01*
X108092300Y-129356800D01*
X108066571Y-129355536D01*
X108041089Y-129351756D01*
X108016100Y-129345497D01*
X107991846Y-129336818D01*
X107968558Y-129325804D01*
X107946463Y-129312561D01*
X107925772Y-129297215D01*
X107906684Y-129279916D01*
X107889385Y-129260828D01*
X107874039Y-129240137D01*
X107860796Y-129218042D01*
X107849782Y-129194754D01*
X107841103Y-129170500D01*
X107834844Y-129145511D01*
X107831064Y-129120029D01*
X107829800Y-129094300D01*
X107829800Y-127419300D01*
X107831064Y-127393571D01*
X107834844Y-127368089D01*
X107841103Y-127343100D01*
X107849782Y-127318846D01*
X107860796Y-127295558D01*
X107874039Y-127273463D01*
X107889385Y-127252772D01*
X107906684Y-127233684D01*
X107925772Y-127216385D01*
X107946463Y-127201039D01*
X107968558Y-127187796D01*
X107991846Y-127176782D01*
X108016100Y-127168103D01*
X108041089Y-127161844D01*
X108066571Y-127158064D01*
X108092300Y-127156800D01*
X108617300Y-127156800D01*
X108643029Y-127158064D01*
X108643029Y-127158064D01*
G37*
D18*
X108354800Y-128256800D03*
D10*
G36*
X111593029Y-127158064D02*
G01*
X111618511Y-127161844D01*
X111643500Y-127168103D01*
X111667754Y-127176782D01*
X111691042Y-127187796D01*
X111713137Y-127201039D01*
X111733828Y-127216385D01*
X111752916Y-127233684D01*
X111770215Y-127252772D01*
X111785561Y-127273463D01*
X111798804Y-127295558D01*
X111809818Y-127318846D01*
X111818497Y-127343100D01*
X111824756Y-127368089D01*
X111828536Y-127393571D01*
X111829800Y-127419300D01*
X111829800Y-129094300D01*
X111828536Y-129120029D01*
X111824756Y-129145511D01*
X111818497Y-129170500D01*
X111809818Y-129194754D01*
X111798804Y-129218042D01*
X111785561Y-129240137D01*
X111770215Y-129260828D01*
X111752916Y-129279916D01*
X111733828Y-129297215D01*
X111713137Y-129312561D01*
X111691042Y-129325804D01*
X111667754Y-129336818D01*
X111643500Y-129345497D01*
X111618511Y-129351756D01*
X111593029Y-129355536D01*
X111567300Y-129356800D01*
X111042300Y-129356800D01*
X111016571Y-129355536D01*
X110991089Y-129351756D01*
X110966100Y-129345497D01*
X110941846Y-129336818D01*
X110918558Y-129325804D01*
X110896463Y-129312561D01*
X110875772Y-129297215D01*
X110856684Y-129279916D01*
X110839385Y-129260828D01*
X110824039Y-129240137D01*
X110810796Y-129218042D01*
X110799782Y-129194754D01*
X110791103Y-129170500D01*
X110784844Y-129145511D01*
X110781064Y-129120029D01*
X110779800Y-129094300D01*
X110779800Y-127419300D01*
X110781064Y-127393571D01*
X110784844Y-127368089D01*
X110791103Y-127343100D01*
X110799782Y-127318846D01*
X110810796Y-127295558D01*
X110824039Y-127273463D01*
X110839385Y-127252772D01*
X110856684Y-127233684D01*
X110875772Y-127216385D01*
X110896463Y-127201039D01*
X110918558Y-127187796D01*
X110941846Y-127176782D01*
X110966100Y-127168103D01*
X110991089Y-127161844D01*
X111016571Y-127158064D01*
X111042300Y-127156800D01*
X111567300Y-127156800D01*
X111593029Y-127158064D01*
X111593029Y-127158064D01*
G37*
D18*
X111304800Y-128256800D03*
D19*
X120112800Y-115987200D03*
X120112800Y-113447200D03*
D10*
G36*
X117323296Y-110204173D02*
G01*
X117330819Y-110205289D01*
X117338197Y-110207137D01*
X117345358Y-110209699D01*
X117352233Y-110212951D01*
X117358757Y-110216861D01*
X117364865Y-110221392D01*
X117370501Y-110226499D01*
X117375608Y-110232135D01*
X117380139Y-110238243D01*
X117384049Y-110244767D01*
X117387301Y-110251642D01*
X117389863Y-110258803D01*
X117391711Y-110266181D01*
X117392827Y-110273704D01*
X117393200Y-110281300D01*
X117393200Y-110466300D01*
X117392827Y-110473896D01*
X117391711Y-110481419D01*
X117389863Y-110488797D01*
X117387301Y-110495958D01*
X117384049Y-110502833D01*
X117380139Y-110509357D01*
X117375608Y-110515465D01*
X117370501Y-110521101D01*
X117364865Y-110526208D01*
X117358757Y-110530739D01*
X117352233Y-110534649D01*
X117345358Y-110537901D01*
X117338197Y-110540463D01*
X117330819Y-110542311D01*
X117323296Y-110543427D01*
X117315700Y-110543800D01*
X117160700Y-110543800D01*
X117153104Y-110543427D01*
X117145581Y-110542311D01*
X117138203Y-110540463D01*
X117131042Y-110537901D01*
X117124167Y-110534649D01*
X117117643Y-110530739D01*
X117111535Y-110526208D01*
X117105899Y-110521101D01*
X117100792Y-110515465D01*
X117096261Y-110509357D01*
X117092351Y-110502833D01*
X117089099Y-110495958D01*
X117086537Y-110488797D01*
X117084689Y-110481419D01*
X117083573Y-110473896D01*
X117083200Y-110466300D01*
X117083200Y-110281300D01*
X117083573Y-110273704D01*
X117084689Y-110266181D01*
X117086537Y-110258803D01*
X117089099Y-110251642D01*
X117092351Y-110244767D01*
X117096261Y-110238243D01*
X117100792Y-110232135D01*
X117105899Y-110226499D01*
X117111535Y-110221392D01*
X117117643Y-110216861D01*
X117124167Y-110212951D01*
X117131042Y-110209699D01*
X117138203Y-110207137D01*
X117145581Y-110205289D01*
X117153104Y-110204173D01*
X117160700Y-110203800D01*
X117315700Y-110203800D01*
X117323296Y-110204173D01*
X117323296Y-110204173D01*
G37*
D11*
X117238200Y-110373800D03*
D10*
G36*
X116773296Y-110204173D02*
G01*
X116780819Y-110205289D01*
X116788197Y-110207137D01*
X116795358Y-110209699D01*
X116802233Y-110212951D01*
X116808757Y-110216861D01*
X116814865Y-110221392D01*
X116820501Y-110226499D01*
X116825608Y-110232135D01*
X116830139Y-110238243D01*
X116834049Y-110244767D01*
X116837301Y-110251642D01*
X116839863Y-110258803D01*
X116841711Y-110266181D01*
X116842827Y-110273704D01*
X116843200Y-110281300D01*
X116843200Y-110466300D01*
X116842827Y-110473896D01*
X116841711Y-110481419D01*
X116839863Y-110488797D01*
X116837301Y-110495958D01*
X116834049Y-110502833D01*
X116830139Y-110509357D01*
X116825608Y-110515465D01*
X116820501Y-110521101D01*
X116814865Y-110526208D01*
X116808757Y-110530739D01*
X116802233Y-110534649D01*
X116795358Y-110537901D01*
X116788197Y-110540463D01*
X116780819Y-110542311D01*
X116773296Y-110543427D01*
X116765700Y-110543800D01*
X116610700Y-110543800D01*
X116603104Y-110543427D01*
X116595581Y-110542311D01*
X116588203Y-110540463D01*
X116581042Y-110537901D01*
X116574167Y-110534649D01*
X116567643Y-110530739D01*
X116561535Y-110526208D01*
X116555899Y-110521101D01*
X116550792Y-110515465D01*
X116546261Y-110509357D01*
X116542351Y-110502833D01*
X116539099Y-110495958D01*
X116536537Y-110488797D01*
X116534689Y-110481419D01*
X116533573Y-110473896D01*
X116533200Y-110466300D01*
X116533200Y-110281300D01*
X116533573Y-110273704D01*
X116534689Y-110266181D01*
X116536537Y-110258803D01*
X116539099Y-110251642D01*
X116542351Y-110244767D01*
X116546261Y-110238243D01*
X116550792Y-110232135D01*
X116555899Y-110226499D01*
X116561535Y-110221392D01*
X116567643Y-110216861D01*
X116574167Y-110212951D01*
X116581042Y-110209699D01*
X116588203Y-110207137D01*
X116595581Y-110205289D01*
X116603104Y-110204173D01*
X116610700Y-110203800D01*
X116765700Y-110203800D01*
X116773296Y-110204173D01*
X116773296Y-110204173D01*
G37*
D11*
X116688200Y-110373800D03*
D10*
G36*
X118699296Y-111674173D02*
G01*
X118706819Y-111675289D01*
X118714197Y-111677137D01*
X118721358Y-111679699D01*
X118728233Y-111682951D01*
X118734757Y-111686861D01*
X118740865Y-111691392D01*
X118746501Y-111696499D01*
X118751608Y-111702135D01*
X118756139Y-111708243D01*
X118760049Y-111714767D01*
X118763301Y-111721642D01*
X118765863Y-111728803D01*
X118767711Y-111736181D01*
X118768827Y-111743704D01*
X118769200Y-111751300D01*
X118769200Y-111906300D01*
X118768827Y-111913896D01*
X118767711Y-111921419D01*
X118765863Y-111928797D01*
X118763301Y-111935958D01*
X118760049Y-111942833D01*
X118756139Y-111949357D01*
X118751608Y-111955465D01*
X118746501Y-111961101D01*
X118740865Y-111966208D01*
X118734757Y-111970739D01*
X118728233Y-111974649D01*
X118721358Y-111977901D01*
X118714197Y-111980463D01*
X118706819Y-111982311D01*
X118699296Y-111983427D01*
X118691700Y-111983800D01*
X118506700Y-111983800D01*
X118499104Y-111983427D01*
X118491581Y-111982311D01*
X118484203Y-111980463D01*
X118477042Y-111977901D01*
X118470167Y-111974649D01*
X118463643Y-111970739D01*
X118457535Y-111966208D01*
X118451899Y-111961101D01*
X118446792Y-111955465D01*
X118442261Y-111949357D01*
X118438351Y-111942833D01*
X118435099Y-111935958D01*
X118432537Y-111928797D01*
X118430689Y-111921419D01*
X118429573Y-111913896D01*
X118429200Y-111906300D01*
X118429200Y-111751300D01*
X118429573Y-111743704D01*
X118430689Y-111736181D01*
X118432537Y-111728803D01*
X118435099Y-111721642D01*
X118438351Y-111714767D01*
X118442261Y-111708243D01*
X118446792Y-111702135D01*
X118451899Y-111696499D01*
X118457535Y-111691392D01*
X118463643Y-111686861D01*
X118470167Y-111682951D01*
X118477042Y-111679699D01*
X118484203Y-111677137D01*
X118491581Y-111675289D01*
X118499104Y-111674173D01*
X118506700Y-111673800D01*
X118691700Y-111673800D01*
X118699296Y-111674173D01*
X118699296Y-111674173D01*
G37*
D11*
X118599200Y-111828800D03*
D10*
G36*
X118699296Y-112224173D02*
G01*
X118706819Y-112225289D01*
X118714197Y-112227137D01*
X118721358Y-112229699D01*
X118728233Y-112232951D01*
X118734757Y-112236861D01*
X118740865Y-112241392D01*
X118746501Y-112246499D01*
X118751608Y-112252135D01*
X118756139Y-112258243D01*
X118760049Y-112264767D01*
X118763301Y-112271642D01*
X118765863Y-112278803D01*
X118767711Y-112286181D01*
X118768827Y-112293704D01*
X118769200Y-112301300D01*
X118769200Y-112456300D01*
X118768827Y-112463896D01*
X118767711Y-112471419D01*
X118765863Y-112478797D01*
X118763301Y-112485958D01*
X118760049Y-112492833D01*
X118756139Y-112499357D01*
X118751608Y-112505465D01*
X118746501Y-112511101D01*
X118740865Y-112516208D01*
X118734757Y-112520739D01*
X118728233Y-112524649D01*
X118721358Y-112527901D01*
X118714197Y-112530463D01*
X118706819Y-112532311D01*
X118699296Y-112533427D01*
X118691700Y-112533800D01*
X118506700Y-112533800D01*
X118499104Y-112533427D01*
X118491581Y-112532311D01*
X118484203Y-112530463D01*
X118477042Y-112527901D01*
X118470167Y-112524649D01*
X118463643Y-112520739D01*
X118457535Y-112516208D01*
X118451899Y-112511101D01*
X118446792Y-112505465D01*
X118442261Y-112499357D01*
X118438351Y-112492833D01*
X118435099Y-112485958D01*
X118432537Y-112478797D01*
X118430689Y-112471419D01*
X118429573Y-112463896D01*
X118429200Y-112456300D01*
X118429200Y-112301300D01*
X118429573Y-112293704D01*
X118430689Y-112286181D01*
X118432537Y-112278803D01*
X118435099Y-112271642D01*
X118438351Y-112264767D01*
X118442261Y-112258243D01*
X118446792Y-112252135D01*
X118451899Y-112246499D01*
X118457535Y-112241392D01*
X118463643Y-112236861D01*
X118470167Y-112232951D01*
X118477042Y-112229699D01*
X118484203Y-112227137D01*
X118491581Y-112225289D01*
X118499104Y-112224173D01*
X118506700Y-112223800D01*
X118691700Y-112223800D01*
X118699296Y-112224173D01*
X118699296Y-112224173D01*
G37*
D11*
X118599200Y-112378800D03*
D10*
G36*
X119283496Y-111674173D02*
G01*
X119291019Y-111675289D01*
X119298397Y-111677137D01*
X119305558Y-111679699D01*
X119312433Y-111682951D01*
X119318957Y-111686861D01*
X119325065Y-111691392D01*
X119330701Y-111696499D01*
X119335808Y-111702135D01*
X119340339Y-111708243D01*
X119344249Y-111714767D01*
X119347501Y-111721642D01*
X119350063Y-111728803D01*
X119351911Y-111736181D01*
X119353027Y-111743704D01*
X119353400Y-111751300D01*
X119353400Y-111906300D01*
X119353027Y-111913896D01*
X119351911Y-111921419D01*
X119350063Y-111928797D01*
X119347501Y-111935958D01*
X119344249Y-111942833D01*
X119340339Y-111949357D01*
X119335808Y-111955465D01*
X119330701Y-111961101D01*
X119325065Y-111966208D01*
X119318957Y-111970739D01*
X119312433Y-111974649D01*
X119305558Y-111977901D01*
X119298397Y-111980463D01*
X119291019Y-111982311D01*
X119283496Y-111983427D01*
X119275900Y-111983800D01*
X119090900Y-111983800D01*
X119083304Y-111983427D01*
X119075781Y-111982311D01*
X119068403Y-111980463D01*
X119061242Y-111977901D01*
X119054367Y-111974649D01*
X119047843Y-111970739D01*
X119041735Y-111966208D01*
X119036099Y-111961101D01*
X119030992Y-111955465D01*
X119026461Y-111949357D01*
X119022551Y-111942833D01*
X119019299Y-111935958D01*
X119016737Y-111928797D01*
X119014889Y-111921419D01*
X119013773Y-111913896D01*
X119013400Y-111906300D01*
X119013400Y-111751300D01*
X119013773Y-111743704D01*
X119014889Y-111736181D01*
X119016737Y-111728803D01*
X119019299Y-111721642D01*
X119022551Y-111714767D01*
X119026461Y-111708243D01*
X119030992Y-111702135D01*
X119036099Y-111696499D01*
X119041735Y-111691392D01*
X119047843Y-111686861D01*
X119054367Y-111682951D01*
X119061242Y-111679699D01*
X119068403Y-111677137D01*
X119075781Y-111675289D01*
X119083304Y-111674173D01*
X119090900Y-111673800D01*
X119275900Y-111673800D01*
X119283496Y-111674173D01*
X119283496Y-111674173D01*
G37*
D11*
X119183400Y-111828800D03*
D10*
G36*
X119283496Y-112224173D02*
G01*
X119291019Y-112225289D01*
X119298397Y-112227137D01*
X119305558Y-112229699D01*
X119312433Y-112232951D01*
X119318957Y-112236861D01*
X119325065Y-112241392D01*
X119330701Y-112246499D01*
X119335808Y-112252135D01*
X119340339Y-112258243D01*
X119344249Y-112264767D01*
X119347501Y-112271642D01*
X119350063Y-112278803D01*
X119351911Y-112286181D01*
X119353027Y-112293704D01*
X119353400Y-112301300D01*
X119353400Y-112456300D01*
X119353027Y-112463896D01*
X119351911Y-112471419D01*
X119350063Y-112478797D01*
X119347501Y-112485958D01*
X119344249Y-112492833D01*
X119340339Y-112499357D01*
X119335808Y-112505465D01*
X119330701Y-112511101D01*
X119325065Y-112516208D01*
X119318957Y-112520739D01*
X119312433Y-112524649D01*
X119305558Y-112527901D01*
X119298397Y-112530463D01*
X119291019Y-112532311D01*
X119283496Y-112533427D01*
X119275900Y-112533800D01*
X119090900Y-112533800D01*
X119083304Y-112533427D01*
X119075781Y-112532311D01*
X119068403Y-112530463D01*
X119061242Y-112527901D01*
X119054367Y-112524649D01*
X119047843Y-112520739D01*
X119041735Y-112516208D01*
X119036099Y-112511101D01*
X119030992Y-112505465D01*
X119026461Y-112499357D01*
X119022551Y-112492833D01*
X119019299Y-112485958D01*
X119016737Y-112478797D01*
X119014889Y-112471419D01*
X119013773Y-112463896D01*
X119013400Y-112456300D01*
X119013400Y-112301300D01*
X119013773Y-112293704D01*
X119014889Y-112286181D01*
X119016737Y-112278803D01*
X119019299Y-112271642D01*
X119022551Y-112264767D01*
X119026461Y-112258243D01*
X119030992Y-112252135D01*
X119036099Y-112246499D01*
X119041735Y-112241392D01*
X119047843Y-112236861D01*
X119054367Y-112232951D01*
X119061242Y-112229699D01*
X119068403Y-112227137D01*
X119075781Y-112225289D01*
X119083304Y-112224173D01*
X119090900Y-112223800D01*
X119275900Y-112223800D01*
X119283496Y-112224173D01*
X119283496Y-112224173D01*
G37*
D11*
X119183400Y-112378800D03*
D19*
X120112800Y-114717200D03*
D10*
G36*
X116231096Y-110204173D02*
G01*
X116238619Y-110205289D01*
X116245997Y-110207137D01*
X116253158Y-110209699D01*
X116260033Y-110212951D01*
X116266557Y-110216861D01*
X116272665Y-110221392D01*
X116278301Y-110226499D01*
X116283408Y-110232135D01*
X116287939Y-110238243D01*
X116291849Y-110244767D01*
X116295101Y-110251642D01*
X116297663Y-110258803D01*
X116299511Y-110266181D01*
X116300627Y-110273704D01*
X116301000Y-110281300D01*
X116301000Y-110466300D01*
X116300627Y-110473896D01*
X116299511Y-110481419D01*
X116297663Y-110488797D01*
X116295101Y-110495958D01*
X116291849Y-110502833D01*
X116287939Y-110509357D01*
X116283408Y-110515465D01*
X116278301Y-110521101D01*
X116272665Y-110526208D01*
X116266557Y-110530739D01*
X116260033Y-110534649D01*
X116253158Y-110537901D01*
X116245997Y-110540463D01*
X116238619Y-110542311D01*
X116231096Y-110543427D01*
X116223500Y-110543800D01*
X116068500Y-110543800D01*
X116060904Y-110543427D01*
X116053381Y-110542311D01*
X116046003Y-110540463D01*
X116038842Y-110537901D01*
X116031967Y-110534649D01*
X116025443Y-110530739D01*
X116019335Y-110526208D01*
X116013699Y-110521101D01*
X116008592Y-110515465D01*
X116004061Y-110509357D01*
X116000151Y-110502833D01*
X115996899Y-110495958D01*
X115994337Y-110488797D01*
X115992489Y-110481419D01*
X115991373Y-110473896D01*
X115991000Y-110466300D01*
X115991000Y-110281300D01*
X115991373Y-110273704D01*
X115992489Y-110266181D01*
X115994337Y-110258803D01*
X115996899Y-110251642D01*
X116000151Y-110244767D01*
X116004061Y-110238243D01*
X116008592Y-110232135D01*
X116013699Y-110226499D01*
X116019335Y-110221392D01*
X116025443Y-110216861D01*
X116031967Y-110212951D01*
X116038842Y-110209699D01*
X116046003Y-110207137D01*
X116053381Y-110205289D01*
X116060904Y-110204173D01*
X116068500Y-110203800D01*
X116223500Y-110203800D01*
X116231096Y-110204173D01*
X116231096Y-110204173D01*
G37*
D11*
X116146000Y-110373800D03*
D10*
G36*
X115681096Y-110204173D02*
G01*
X115688619Y-110205289D01*
X115695997Y-110207137D01*
X115703158Y-110209699D01*
X115710033Y-110212951D01*
X115716557Y-110216861D01*
X115722665Y-110221392D01*
X115728301Y-110226499D01*
X115733408Y-110232135D01*
X115737939Y-110238243D01*
X115741849Y-110244767D01*
X115745101Y-110251642D01*
X115747663Y-110258803D01*
X115749511Y-110266181D01*
X115750627Y-110273704D01*
X115751000Y-110281300D01*
X115751000Y-110466300D01*
X115750627Y-110473896D01*
X115749511Y-110481419D01*
X115747663Y-110488797D01*
X115745101Y-110495958D01*
X115741849Y-110502833D01*
X115737939Y-110509357D01*
X115733408Y-110515465D01*
X115728301Y-110521101D01*
X115722665Y-110526208D01*
X115716557Y-110530739D01*
X115710033Y-110534649D01*
X115703158Y-110537901D01*
X115695997Y-110540463D01*
X115688619Y-110542311D01*
X115681096Y-110543427D01*
X115673500Y-110543800D01*
X115518500Y-110543800D01*
X115510904Y-110543427D01*
X115503381Y-110542311D01*
X115496003Y-110540463D01*
X115488842Y-110537901D01*
X115481967Y-110534649D01*
X115475443Y-110530739D01*
X115469335Y-110526208D01*
X115463699Y-110521101D01*
X115458592Y-110515465D01*
X115454061Y-110509357D01*
X115450151Y-110502833D01*
X115446899Y-110495958D01*
X115444337Y-110488797D01*
X115442489Y-110481419D01*
X115441373Y-110473896D01*
X115441000Y-110466300D01*
X115441000Y-110281300D01*
X115441373Y-110273704D01*
X115442489Y-110266181D01*
X115444337Y-110258803D01*
X115446899Y-110251642D01*
X115450151Y-110244767D01*
X115454061Y-110238243D01*
X115458592Y-110232135D01*
X115463699Y-110226499D01*
X115469335Y-110221392D01*
X115475443Y-110216861D01*
X115481967Y-110212951D01*
X115488842Y-110209699D01*
X115496003Y-110207137D01*
X115503381Y-110205289D01*
X115510904Y-110204173D01*
X115518500Y-110203800D01*
X115673500Y-110203800D01*
X115681096Y-110204173D01*
X115681096Y-110204173D01*
G37*
D11*
X115596000Y-110373800D03*
D19*
X118842800Y-114717200D03*
D10*
G36*
X113786696Y-114256173D02*
G01*
X113794219Y-114257289D01*
X113801597Y-114259137D01*
X113808758Y-114261699D01*
X113815633Y-114264951D01*
X113822157Y-114268861D01*
X113828265Y-114273392D01*
X113833901Y-114278499D01*
X113839008Y-114284135D01*
X113843539Y-114290243D01*
X113847449Y-114296767D01*
X113850701Y-114303642D01*
X113853263Y-114310803D01*
X113855111Y-114318181D01*
X113856227Y-114325704D01*
X113856600Y-114333300D01*
X113856600Y-114488300D01*
X113856227Y-114495896D01*
X113855111Y-114503419D01*
X113853263Y-114510797D01*
X113850701Y-114517958D01*
X113847449Y-114524833D01*
X113843539Y-114531357D01*
X113839008Y-114537465D01*
X113833901Y-114543101D01*
X113828265Y-114548208D01*
X113822157Y-114552739D01*
X113815633Y-114556649D01*
X113808758Y-114559901D01*
X113801597Y-114562463D01*
X113794219Y-114564311D01*
X113786696Y-114565427D01*
X113779100Y-114565800D01*
X113594100Y-114565800D01*
X113586504Y-114565427D01*
X113578981Y-114564311D01*
X113571603Y-114562463D01*
X113564442Y-114559901D01*
X113557567Y-114556649D01*
X113551043Y-114552739D01*
X113544935Y-114548208D01*
X113539299Y-114543101D01*
X113534192Y-114537465D01*
X113529661Y-114531357D01*
X113525751Y-114524833D01*
X113522499Y-114517958D01*
X113519937Y-114510797D01*
X113518089Y-114503419D01*
X113516973Y-114495896D01*
X113516600Y-114488300D01*
X113516600Y-114333300D01*
X113516973Y-114325704D01*
X113518089Y-114318181D01*
X113519937Y-114310803D01*
X113522499Y-114303642D01*
X113525751Y-114296767D01*
X113529661Y-114290243D01*
X113534192Y-114284135D01*
X113539299Y-114278499D01*
X113544935Y-114273392D01*
X113551043Y-114268861D01*
X113557567Y-114264951D01*
X113564442Y-114261699D01*
X113571603Y-114259137D01*
X113578981Y-114257289D01*
X113586504Y-114256173D01*
X113594100Y-114255800D01*
X113779100Y-114255800D01*
X113786696Y-114256173D01*
X113786696Y-114256173D01*
G37*
D11*
X113686600Y-114410800D03*
D10*
G36*
X113786696Y-113706173D02*
G01*
X113794219Y-113707289D01*
X113801597Y-113709137D01*
X113808758Y-113711699D01*
X113815633Y-113714951D01*
X113822157Y-113718861D01*
X113828265Y-113723392D01*
X113833901Y-113728499D01*
X113839008Y-113734135D01*
X113843539Y-113740243D01*
X113847449Y-113746767D01*
X113850701Y-113753642D01*
X113853263Y-113760803D01*
X113855111Y-113768181D01*
X113856227Y-113775704D01*
X113856600Y-113783300D01*
X113856600Y-113938300D01*
X113856227Y-113945896D01*
X113855111Y-113953419D01*
X113853263Y-113960797D01*
X113850701Y-113967958D01*
X113847449Y-113974833D01*
X113843539Y-113981357D01*
X113839008Y-113987465D01*
X113833901Y-113993101D01*
X113828265Y-113998208D01*
X113822157Y-114002739D01*
X113815633Y-114006649D01*
X113808758Y-114009901D01*
X113801597Y-114012463D01*
X113794219Y-114014311D01*
X113786696Y-114015427D01*
X113779100Y-114015800D01*
X113594100Y-114015800D01*
X113586504Y-114015427D01*
X113578981Y-114014311D01*
X113571603Y-114012463D01*
X113564442Y-114009901D01*
X113557567Y-114006649D01*
X113551043Y-114002739D01*
X113544935Y-113998208D01*
X113539299Y-113993101D01*
X113534192Y-113987465D01*
X113529661Y-113981357D01*
X113525751Y-113974833D01*
X113522499Y-113967958D01*
X113519937Y-113960797D01*
X113518089Y-113953419D01*
X113516973Y-113945896D01*
X113516600Y-113938300D01*
X113516600Y-113783300D01*
X113516973Y-113775704D01*
X113518089Y-113768181D01*
X113519937Y-113760803D01*
X113522499Y-113753642D01*
X113525751Y-113746767D01*
X113529661Y-113740243D01*
X113534192Y-113734135D01*
X113539299Y-113728499D01*
X113544935Y-113723392D01*
X113551043Y-113718861D01*
X113557567Y-113714951D01*
X113564442Y-113711699D01*
X113571603Y-113709137D01*
X113578981Y-113707289D01*
X113586504Y-113706173D01*
X113594100Y-113705800D01*
X113779100Y-113705800D01*
X113786696Y-113706173D01*
X113786696Y-113706173D01*
G37*
D11*
X113686600Y-113860800D03*
D10*
G36*
X113822496Y-112105973D02*
G01*
X113830019Y-112107089D01*
X113837397Y-112108937D01*
X113844558Y-112111499D01*
X113851433Y-112114751D01*
X113857957Y-112118661D01*
X113864065Y-112123192D01*
X113869701Y-112128299D01*
X113874808Y-112133935D01*
X113879339Y-112140043D01*
X113883249Y-112146567D01*
X113886501Y-112153442D01*
X113889063Y-112160603D01*
X113890911Y-112167981D01*
X113892027Y-112175504D01*
X113892400Y-112183100D01*
X113892400Y-112338100D01*
X113892027Y-112345696D01*
X113890911Y-112353219D01*
X113889063Y-112360597D01*
X113886501Y-112367758D01*
X113883249Y-112374633D01*
X113879339Y-112381157D01*
X113874808Y-112387265D01*
X113869701Y-112392901D01*
X113864065Y-112398008D01*
X113857957Y-112402539D01*
X113851433Y-112406449D01*
X113844558Y-112409701D01*
X113837397Y-112412263D01*
X113830019Y-112414111D01*
X113822496Y-112415227D01*
X113814900Y-112415600D01*
X113629900Y-112415600D01*
X113622304Y-112415227D01*
X113614781Y-112414111D01*
X113607403Y-112412263D01*
X113600242Y-112409701D01*
X113593367Y-112406449D01*
X113586843Y-112402539D01*
X113580735Y-112398008D01*
X113575099Y-112392901D01*
X113569992Y-112387265D01*
X113565461Y-112381157D01*
X113561551Y-112374633D01*
X113558299Y-112367758D01*
X113555737Y-112360597D01*
X113553889Y-112353219D01*
X113552773Y-112345696D01*
X113552400Y-112338100D01*
X113552400Y-112183100D01*
X113552773Y-112175504D01*
X113553889Y-112167981D01*
X113555737Y-112160603D01*
X113558299Y-112153442D01*
X113561551Y-112146567D01*
X113565461Y-112140043D01*
X113569992Y-112133935D01*
X113575099Y-112128299D01*
X113580735Y-112123192D01*
X113586843Y-112118661D01*
X113593367Y-112114751D01*
X113600242Y-112111499D01*
X113607403Y-112108937D01*
X113614781Y-112107089D01*
X113622304Y-112105973D01*
X113629900Y-112105600D01*
X113814900Y-112105600D01*
X113822496Y-112105973D01*
X113822496Y-112105973D01*
G37*
D11*
X113722400Y-112260600D03*
D10*
G36*
X113822496Y-112655973D02*
G01*
X113830019Y-112657089D01*
X113837397Y-112658937D01*
X113844558Y-112661499D01*
X113851433Y-112664751D01*
X113857957Y-112668661D01*
X113864065Y-112673192D01*
X113869701Y-112678299D01*
X113874808Y-112683935D01*
X113879339Y-112690043D01*
X113883249Y-112696567D01*
X113886501Y-112703442D01*
X113889063Y-112710603D01*
X113890911Y-112717981D01*
X113892027Y-112725504D01*
X113892400Y-112733100D01*
X113892400Y-112888100D01*
X113892027Y-112895696D01*
X113890911Y-112903219D01*
X113889063Y-112910597D01*
X113886501Y-112917758D01*
X113883249Y-112924633D01*
X113879339Y-112931157D01*
X113874808Y-112937265D01*
X113869701Y-112942901D01*
X113864065Y-112948008D01*
X113857957Y-112952539D01*
X113851433Y-112956449D01*
X113844558Y-112959701D01*
X113837397Y-112962263D01*
X113830019Y-112964111D01*
X113822496Y-112965227D01*
X113814900Y-112965600D01*
X113629900Y-112965600D01*
X113622304Y-112965227D01*
X113614781Y-112964111D01*
X113607403Y-112962263D01*
X113600242Y-112959701D01*
X113593367Y-112956449D01*
X113586843Y-112952539D01*
X113580735Y-112948008D01*
X113575099Y-112942901D01*
X113569992Y-112937265D01*
X113565461Y-112931157D01*
X113561551Y-112924633D01*
X113558299Y-112917758D01*
X113555737Y-112910597D01*
X113553889Y-112903219D01*
X113552773Y-112895696D01*
X113552400Y-112888100D01*
X113552400Y-112733100D01*
X113552773Y-112725504D01*
X113553889Y-112717981D01*
X113555737Y-112710603D01*
X113558299Y-112703442D01*
X113561551Y-112696567D01*
X113565461Y-112690043D01*
X113569992Y-112683935D01*
X113575099Y-112678299D01*
X113580735Y-112673192D01*
X113586843Y-112668661D01*
X113593367Y-112664751D01*
X113600242Y-112661499D01*
X113607403Y-112658937D01*
X113614781Y-112657089D01*
X113622304Y-112655973D01*
X113629900Y-112655600D01*
X113814900Y-112655600D01*
X113822496Y-112655973D01*
X113822496Y-112655973D01*
G37*
D11*
X113722400Y-112810600D03*
D19*
X118842800Y-113447200D03*
D20*
X115450200Y-115976100D03*
X115950200Y-115976100D03*
X116450200Y-115976100D03*
D21*
X114537700Y-115838600D03*
X114537700Y-115338600D03*
X114537700Y-114838600D03*
X114537700Y-114338600D03*
X114537700Y-113838600D03*
X114537700Y-113338600D03*
X114537700Y-112838600D03*
X114537700Y-112338600D03*
X114537700Y-111838600D03*
X117862700Y-115838600D03*
X117862700Y-115338600D03*
X117862700Y-114838600D03*
X117862700Y-114338600D03*
X117862700Y-113838600D03*
X117862700Y-113338600D03*
X117862700Y-112838600D03*
X117862700Y-112338600D03*
X117862700Y-111838600D03*
D20*
X115450200Y-111201100D03*
X115950200Y-111201100D03*
X116450200Y-111201100D03*
D21*
X117862700Y-111338600D03*
D20*
X116950200Y-111201100D03*
D21*
X114537700Y-111338600D03*
D20*
X116950200Y-115976100D03*
D10*
G36*
X105807096Y-114524973D02*
G01*
X105814619Y-114526089D01*
X105821997Y-114527937D01*
X105829158Y-114530499D01*
X105836033Y-114533751D01*
X105842557Y-114537661D01*
X105848665Y-114542192D01*
X105854301Y-114547299D01*
X105859408Y-114552935D01*
X105863939Y-114559043D01*
X105867849Y-114565567D01*
X105871101Y-114572442D01*
X105873663Y-114579603D01*
X105875511Y-114586981D01*
X105876627Y-114594504D01*
X105877000Y-114602100D01*
X105877000Y-114787100D01*
X105876627Y-114794696D01*
X105875511Y-114802219D01*
X105873663Y-114809597D01*
X105871101Y-114816758D01*
X105867849Y-114823633D01*
X105863939Y-114830157D01*
X105859408Y-114836265D01*
X105854301Y-114841901D01*
X105848665Y-114847008D01*
X105842557Y-114851539D01*
X105836033Y-114855449D01*
X105829158Y-114858701D01*
X105821997Y-114861263D01*
X105814619Y-114863111D01*
X105807096Y-114864227D01*
X105799500Y-114864600D01*
X105644500Y-114864600D01*
X105636904Y-114864227D01*
X105629381Y-114863111D01*
X105622003Y-114861263D01*
X105614842Y-114858701D01*
X105607967Y-114855449D01*
X105601443Y-114851539D01*
X105595335Y-114847008D01*
X105589699Y-114841901D01*
X105584592Y-114836265D01*
X105580061Y-114830157D01*
X105576151Y-114823633D01*
X105572899Y-114816758D01*
X105570337Y-114809597D01*
X105568489Y-114802219D01*
X105567373Y-114794696D01*
X105567000Y-114787100D01*
X105567000Y-114602100D01*
X105567373Y-114594504D01*
X105568489Y-114586981D01*
X105570337Y-114579603D01*
X105572899Y-114572442D01*
X105576151Y-114565567D01*
X105580061Y-114559043D01*
X105584592Y-114552935D01*
X105589699Y-114547299D01*
X105595335Y-114542192D01*
X105601443Y-114537661D01*
X105607967Y-114533751D01*
X105614842Y-114530499D01*
X105622003Y-114527937D01*
X105629381Y-114526089D01*
X105636904Y-114524973D01*
X105644500Y-114524600D01*
X105799500Y-114524600D01*
X105807096Y-114524973D01*
X105807096Y-114524973D01*
G37*
D11*
X105722000Y-114694600D03*
D10*
G36*
X106357096Y-114524973D02*
G01*
X106364619Y-114526089D01*
X106371997Y-114527937D01*
X106379158Y-114530499D01*
X106386033Y-114533751D01*
X106392557Y-114537661D01*
X106398665Y-114542192D01*
X106404301Y-114547299D01*
X106409408Y-114552935D01*
X106413939Y-114559043D01*
X106417849Y-114565567D01*
X106421101Y-114572442D01*
X106423663Y-114579603D01*
X106425511Y-114586981D01*
X106426627Y-114594504D01*
X106427000Y-114602100D01*
X106427000Y-114787100D01*
X106426627Y-114794696D01*
X106425511Y-114802219D01*
X106423663Y-114809597D01*
X106421101Y-114816758D01*
X106417849Y-114823633D01*
X106413939Y-114830157D01*
X106409408Y-114836265D01*
X106404301Y-114841901D01*
X106398665Y-114847008D01*
X106392557Y-114851539D01*
X106386033Y-114855449D01*
X106379158Y-114858701D01*
X106371997Y-114861263D01*
X106364619Y-114863111D01*
X106357096Y-114864227D01*
X106349500Y-114864600D01*
X106194500Y-114864600D01*
X106186904Y-114864227D01*
X106179381Y-114863111D01*
X106172003Y-114861263D01*
X106164842Y-114858701D01*
X106157967Y-114855449D01*
X106151443Y-114851539D01*
X106145335Y-114847008D01*
X106139699Y-114841901D01*
X106134592Y-114836265D01*
X106130061Y-114830157D01*
X106126151Y-114823633D01*
X106122899Y-114816758D01*
X106120337Y-114809597D01*
X106118489Y-114802219D01*
X106117373Y-114794696D01*
X106117000Y-114787100D01*
X106117000Y-114602100D01*
X106117373Y-114594504D01*
X106118489Y-114586981D01*
X106120337Y-114579603D01*
X106122899Y-114572442D01*
X106126151Y-114565567D01*
X106130061Y-114559043D01*
X106134592Y-114552935D01*
X106139699Y-114547299D01*
X106145335Y-114542192D01*
X106151443Y-114537661D01*
X106157967Y-114533751D01*
X106164842Y-114530499D01*
X106172003Y-114527937D01*
X106179381Y-114526089D01*
X106186904Y-114524973D01*
X106194500Y-114524600D01*
X106349500Y-114524600D01*
X106357096Y-114524973D01*
X106357096Y-114524973D01*
G37*
D11*
X106272000Y-114694600D03*
D10*
G36*
X106325696Y-112512373D02*
G01*
X106333219Y-112513489D01*
X106340597Y-112515337D01*
X106347758Y-112517899D01*
X106354633Y-112521151D01*
X106361157Y-112525061D01*
X106367265Y-112529592D01*
X106372901Y-112534699D01*
X106378008Y-112540335D01*
X106382539Y-112546443D01*
X106386449Y-112552967D01*
X106389701Y-112559842D01*
X106392263Y-112567003D01*
X106394111Y-112574381D01*
X106395227Y-112581904D01*
X106395600Y-112589500D01*
X106395600Y-112744500D01*
X106395227Y-112752096D01*
X106394111Y-112759619D01*
X106392263Y-112766997D01*
X106389701Y-112774158D01*
X106386449Y-112781033D01*
X106382539Y-112787557D01*
X106378008Y-112793665D01*
X106372901Y-112799301D01*
X106367265Y-112804408D01*
X106361157Y-112808939D01*
X106354633Y-112812849D01*
X106347758Y-112816101D01*
X106340597Y-112818663D01*
X106333219Y-112820511D01*
X106325696Y-112821627D01*
X106318100Y-112822000D01*
X106133100Y-112822000D01*
X106125504Y-112821627D01*
X106117981Y-112820511D01*
X106110603Y-112818663D01*
X106103442Y-112816101D01*
X106096567Y-112812849D01*
X106090043Y-112808939D01*
X106083935Y-112804408D01*
X106078299Y-112799301D01*
X106073192Y-112793665D01*
X106068661Y-112787557D01*
X106064751Y-112781033D01*
X106061499Y-112774158D01*
X106058937Y-112766997D01*
X106057089Y-112759619D01*
X106055973Y-112752096D01*
X106055600Y-112744500D01*
X106055600Y-112589500D01*
X106055973Y-112581904D01*
X106057089Y-112574381D01*
X106058937Y-112567003D01*
X106061499Y-112559842D01*
X106064751Y-112552967D01*
X106068661Y-112546443D01*
X106073192Y-112540335D01*
X106078299Y-112534699D01*
X106083935Y-112529592D01*
X106090043Y-112525061D01*
X106096567Y-112521151D01*
X106103442Y-112517899D01*
X106110603Y-112515337D01*
X106117981Y-112513489D01*
X106125504Y-112512373D01*
X106133100Y-112512000D01*
X106318100Y-112512000D01*
X106325696Y-112512373D01*
X106325696Y-112512373D01*
G37*
D11*
X106225600Y-112667000D03*
D10*
G36*
X106325696Y-113062373D02*
G01*
X106333219Y-113063489D01*
X106340597Y-113065337D01*
X106347758Y-113067899D01*
X106354633Y-113071151D01*
X106361157Y-113075061D01*
X106367265Y-113079592D01*
X106372901Y-113084699D01*
X106378008Y-113090335D01*
X106382539Y-113096443D01*
X106386449Y-113102967D01*
X106389701Y-113109842D01*
X106392263Y-113117003D01*
X106394111Y-113124381D01*
X106395227Y-113131904D01*
X106395600Y-113139500D01*
X106395600Y-113294500D01*
X106395227Y-113302096D01*
X106394111Y-113309619D01*
X106392263Y-113316997D01*
X106389701Y-113324158D01*
X106386449Y-113331033D01*
X106382539Y-113337557D01*
X106378008Y-113343665D01*
X106372901Y-113349301D01*
X106367265Y-113354408D01*
X106361157Y-113358939D01*
X106354633Y-113362849D01*
X106347758Y-113366101D01*
X106340597Y-113368663D01*
X106333219Y-113370511D01*
X106325696Y-113371627D01*
X106318100Y-113372000D01*
X106133100Y-113372000D01*
X106125504Y-113371627D01*
X106117981Y-113370511D01*
X106110603Y-113368663D01*
X106103442Y-113366101D01*
X106096567Y-113362849D01*
X106090043Y-113358939D01*
X106083935Y-113354408D01*
X106078299Y-113349301D01*
X106073192Y-113343665D01*
X106068661Y-113337557D01*
X106064751Y-113331033D01*
X106061499Y-113324158D01*
X106058937Y-113316997D01*
X106057089Y-113309619D01*
X106055973Y-113302096D01*
X106055600Y-113294500D01*
X106055600Y-113139500D01*
X106055973Y-113131904D01*
X106057089Y-113124381D01*
X106058937Y-113117003D01*
X106061499Y-113109842D01*
X106064751Y-113102967D01*
X106068661Y-113096443D01*
X106073192Y-113090335D01*
X106078299Y-113084699D01*
X106083935Y-113079592D01*
X106090043Y-113075061D01*
X106096567Y-113071151D01*
X106103442Y-113067899D01*
X106110603Y-113065337D01*
X106117981Y-113063489D01*
X106125504Y-113062373D01*
X106133100Y-113062000D01*
X106318100Y-113062000D01*
X106325696Y-113062373D01*
X106325696Y-113062373D01*
G37*
D11*
X106225600Y-113217000D03*
D10*
G36*
X105868496Y-111496373D02*
G01*
X105876019Y-111497489D01*
X105883397Y-111499337D01*
X105890558Y-111501899D01*
X105897433Y-111505151D01*
X105903957Y-111509061D01*
X105910065Y-111513592D01*
X105915701Y-111518699D01*
X105920808Y-111524335D01*
X105925339Y-111530443D01*
X105929249Y-111536967D01*
X105932501Y-111543842D01*
X105935063Y-111551003D01*
X105936911Y-111558381D01*
X105938027Y-111565904D01*
X105938400Y-111573500D01*
X105938400Y-111728500D01*
X105938027Y-111736096D01*
X105936911Y-111743619D01*
X105935063Y-111750997D01*
X105932501Y-111758158D01*
X105929249Y-111765033D01*
X105925339Y-111771557D01*
X105920808Y-111777665D01*
X105915701Y-111783301D01*
X105910065Y-111788408D01*
X105903957Y-111792939D01*
X105897433Y-111796849D01*
X105890558Y-111800101D01*
X105883397Y-111802663D01*
X105876019Y-111804511D01*
X105868496Y-111805627D01*
X105860900Y-111806000D01*
X105675900Y-111806000D01*
X105668304Y-111805627D01*
X105660781Y-111804511D01*
X105653403Y-111802663D01*
X105646242Y-111800101D01*
X105639367Y-111796849D01*
X105632843Y-111792939D01*
X105626735Y-111788408D01*
X105621099Y-111783301D01*
X105615992Y-111777665D01*
X105611461Y-111771557D01*
X105607551Y-111765033D01*
X105604299Y-111758158D01*
X105601737Y-111750997D01*
X105599889Y-111743619D01*
X105598773Y-111736096D01*
X105598400Y-111728500D01*
X105598400Y-111573500D01*
X105598773Y-111565904D01*
X105599889Y-111558381D01*
X105601737Y-111551003D01*
X105604299Y-111543842D01*
X105607551Y-111536967D01*
X105611461Y-111530443D01*
X105615992Y-111524335D01*
X105621099Y-111518699D01*
X105626735Y-111513592D01*
X105632843Y-111509061D01*
X105639367Y-111505151D01*
X105646242Y-111501899D01*
X105653403Y-111499337D01*
X105660781Y-111497489D01*
X105668304Y-111496373D01*
X105675900Y-111496000D01*
X105860900Y-111496000D01*
X105868496Y-111496373D01*
X105868496Y-111496373D01*
G37*
D11*
X105768400Y-111651000D03*
D10*
G36*
X105868496Y-112046373D02*
G01*
X105876019Y-112047489D01*
X105883397Y-112049337D01*
X105890558Y-112051899D01*
X105897433Y-112055151D01*
X105903957Y-112059061D01*
X105910065Y-112063592D01*
X105915701Y-112068699D01*
X105920808Y-112074335D01*
X105925339Y-112080443D01*
X105929249Y-112086967D01*
X105932501Y-112093842D01*
X105935063Y-112101003D01*
X105936911Y-112108381D01*
X105938027Y-112115904D01*
X105938400Y-112123500D01*
X105938400Y-112278500D01*
X105938027Y-112286096D01*
X105936911Y-112293619D01*
X105935063Y-112300997D01*
X105932501Y-112308158D01*
X105929249Y-112315033D01*
X105925339Y-112321557D01*
X105920808Y-112327665D01*
X105915701Y-112333301D01*
X105910065Y-112338408D01*
X105903957Y-112342939D01*
X105897433Y-112346849D01*
X105890558Y-112350101D01*
X105883397Y-112352663D01*
X105876019Y-112354511D01*
X105868496Y-112355627D01*
X105860900Y-112356000D01*
X105675900Y-112356000D01*
X105668304Y-112355627D01*
X105660781Y-112354511D01*
X105653403Y-112352663D01*
X105646242Y-112350101D01*
X105639367Y-112346849D01*
X105632843Y-112342939D01*
X105626735Y-112338408D01*
X105621099Y-112333301D01*
X105615992Y-112327665D01*
X105611461Y-112321557D01*
X105607551Y-112315033D01*
X105604299Y-112308158D01*
X105601737Y-112300997D01*
X105599889Y-112293619D01*
X105598773Y-112286096D01*
X105598400Y-112278500D01*
X105598400Y-112123500D01*
X105598773Y-112115904D01*
X105599889Y-112108381D01*
X105601737Y-112101003D01*
X105604299Y-112093842D01*
X105607551Y-112086967D01*
X105611461Y-112080443D01*
X105615992Y-112074335D01*
X105621099Y-112068699D01*
X105626735Y-112063592D01*
X105632843Y-112059061D01*
X105639367Y-112055151D01*
X105646242Y-112051899D01*
X105653403Y-112049337D01*
X105660781Y-112047489D01*
X105668304Y-112046373D01*
X105675900Y-112046000D01*
X105860900Y-112046000D01*
X105868496Y-112046373D01*
X105868496Y-112046373D01*
G37*
D11*
X105768400Y-112201000D03*
D10*
G36*
X107387612Y-111662498D02*
G01*
X107401688Y-111664586D01*
X107415491Y-111668044D01*
X107428889Y-111672837D01*
X107441753Y-111678921D01*
X107453958Y-111686237D01*
X107465387Y-111694713D01*
X107475930Y-111704270D01*
X107485487Y-111714813D01*
X107493963Y-111726242D01*
X107501279Y-111738447D01*
X107507363Y-111751311D01*
X107512156Y-111764709D01*
X107515614Y-111778512D01*
X107517702Y-111792588D01*
X107518400Y-111806800D01*
X107518400Y-112146800D01*
X107517702Y-112161012D01*
X107515614Y-112175088D01*
X107512156Y-112188891D01*
X107507363Y-112202289D01*
X107501279Y-112215153D01*
X107493963Y-112227358D01*
X107485487Y-112238787D01*
X107475930Y-112249330D01*
X107465387Y-112258887D01*
X107453958Y-112267363D01*
X107441753Y-112274679D01*
X107428889Y-112280763D01*
X107415491Y-112285556D01*
X107401688Y-112289014D01*
X107387612Y-112291102D01*
X107373400Y-112291800D01*
X107083400Y-112291800D01*
X107069188Y-112291102D01*
X107055112Y-112289014D01*
X107041309Y-112285556D01*
X107027911Y-112280763D01*
X107015047Y-112274679D01*
X107002842Y-112267363D01*
X106991413Y-112258887D01*
X106980870Y-112249330D01*
X106971313Y-112238787D01*
X106962837Y-112227358D01*
X106955521Y-112215153D01*
X106949437Y-112202289D01*
X106944644Y-112188891D01*
X106941186Y-112175088D01*
X106939098Y-112161012D01*
X106938400Y-112146800D01*
X106938400Y-111806800D01*
X106939098Y-111792588D01*
X106941186Y-111778512D01*
X106944644Y-111764709D01*
X106949437Y-111751311D01*
X106955521Y-111738447D01*
X106962837Y-111726242D01*
X106971313Y-111714813D01*
X106980870Y-111704270D01*
X106991413Y-111694713D01*
X107002842Y-111686237D01*
X107015047Y-111678921D01*
X107027911Y-111672837D01*
X107041309Y-111668044D01*
X107055112Y-111664586D01*
X107069188Y-111662498D01*
X107083400Y-111661800D01*
X107373400Y-111661800D01*
X107387612Y-111662498D01*
X107387612Y-111662498D01*
G37*
D22*
X107228400Y-111976800D03*
D10*
G36*
X108277612Y-111662498D02*
G01*
X108291688Y-111664586D01*
X108305491Y-111668044D01*
X108318889Y-111672837D01*
X108331753Y-111678921D01*
X108343958Y-111686237D01*
X108355387Y-111694713D01*
X108365930Y-111704270D01*
X108375487Y-111714813D01*
X108383963Y-111726242D01*
X108391279Y-111738447D01*
X108397363Y-111751311D01*
X108402156Y-111764709D01*
X108405614Y-111778512D01*
X108407702Y-111792588D01*
X108408400Y-111806800D01*
X108408400Y-112146800D01*
X108407702Y-112161012D01*
X108405614Y-112175088D01*
X108402156Y-112188891D01*
X108397363Y-112202289D01*
X108391279Y-112215153D01*
X108383963Y-112227358D01*
X108375487Y-112238787D01*
X108365930Y-112249330D01*
X108355387Y-112258887D01*
X108343958Y-112267363D01*
X108331753Y-112274679D01*
X108318889Y-112280763D01*
X108305491Y-112285556D01*
X108291688Y-112289014D01*
X108277612Y-112291102D01*
X108263400Y-112291800D01*
X107973400Y-112291800D01*
X107959188Y-112291102D01*
X107945112Y-112289014D01*
X107931309Y-112285556D01*
X107917911Y-112280763D01*
X107905047Y-112274679D01*
X107892842Y-112267363D01*
X107881413Y-112258887D01*
X107870870Y-112249330D01*
X107861313Y-112238787D01*
X107852837Y-112227358D01*
X107845521Y-112215153D01*
X107839437Y-112202289D01*
X107834644Y-112188891D01*
X107831186Y-112175088D01*
X107829098Y-112161012D01*
X107828400Y-112146800D01*
X107828400Y-111806800D01*
X107829098Y-111792588D01*
X107831186Y-111778512D01*
X107834644Y-111764709D01*
X107839437Y-111751311D01*
X107845521Y-111738447D01*
X107852837Y-111726242D01*
X107861313Y-111714813D01*
X107870870Y-111704270D01*
X107881413Y-111694713D01*
X107892842Y-111686237D01*
X107905047Y-111678921D01*
X107917911Y-111672837D01*
X107931309Y-111668044D01*
X107945112Y-111664586D01*
X107959188Y-111662498D01*
X107973400Y-111661800D01*
X108263400Y-111661800D01*
X108277612Y-111662498D01*
X108277612Y-111662498D01*
G37*
D22*
X108118400Y-111976800D03*
D10*
G36*
X101260496Y-115566373D02*
G01*
X101268019Y-115567489D01*
X101275397Y-115569337D01*
X101282558Y-115571899D01*
X101289433Y-115575151D01*
X101295957Y-115579061D01*
X101302065Y-115583592D01*
X101307701Y-115588699D01*
X101312808Y-115594335D01*
X101317339Y-115600443D01*
X101321249Y-115606967D01*
X101324501Y-115613842D01*
X101327063Y-115621003D01*
X101328911Y-115628381D01*
X101330027Y-115635904D01*
X101330400Y-115643500D01*
X101330400Y-115828500D01*
X101330027Y-115836096D01*
X101328911Y-115843619D01*
X101327063Y-115850997D01*
X101324501Y-115858158D01*
X101321249Y-115865033D01*
X101317339Y-115871557D01*
X101312808Y-115877665D01*
X101307701Y-115883301D01*
X101302065Y-115888408D01*
X101295957Y-115892939D01*
X101289433Y-115896849D01*
X101282558Y-115900101D01*
X101275397Y-115902663D01*
X101268019Y-115904511D01*
X101260496Y-115905627D01*
X101252900Y-115906000D01*
X101097900Y-115906000D01*
X101090304Y-115905627D01*
X101082781Y-115904511D01*
X101075403Y-115902663D01*
X101068242Y-115900101D01*
X101061367Y-115896849D01*
X101054843Y-115892939D01*
X101048735Y-115888408D01*
X101043099Y-115883301D01*
X101037992Y-115877665D01*
X101033461Y-115871557D01*
X101029551Y-115865033D01*
X101026299Y-115858158D01*
X101023737Y-115850997D01*
X101021889Y-115843619D01*
X101020773Y-115836096D01*
X101020400Y-115828500D01*
X101020400Y-115643500D01*
X101020773Y-115635904D01*
X101021889Y-115628381D01*
X101023737Y-115621003D01*
X101026299Y-115613842D01*
X101029551Y-115606967D01*
X101033461Y-115600443D01*
X101037992Y-115594335D01*
X101043099Y-115588699D01*
X101048735Y-115583592D01*
X101054843Y-115579061D01*
X101061367Y-115575151D01*
X101068242Y-115571899D01*
X101075403Y-115569337D01*
X101082781Y-115567489D01*
X101090304Y-115566373D01*
X101097900Y-115566000D01*
X101252900Y-115566000D01*
X101260496Y-115566373D01*
X101260496Y-115566373D01*
G37*
D11*
X101175400Y-115736000D03*
D10*
G36*
X101810496Y-115566373D02*
G01*
X101818019Y-115567489D01*
X101825397Y-115569337D01*
X101832558Y-115571899D01*
X101839433Y-115575151D01*
X101845957Y-115579061D01*
X101852065Y-115583592D01*
X101857701Y-115588699D01*
X101862808Y-115594335D01*
X101867339Y-115600443D01*
X101871249Y-115606967D01*
X101874501Y-115613842D01*
X101877063Y-115621003D01*
X101878911Y-115628381D01*
X101880027Y-115635904D01*
X101880400Y-115643500D01*
X101880400Y-115828500D01*
X101880027Y-115836096D01*
X101878911Y-115843619D01*
X101877063Y-115850997D01*
X101874501Y-115858158D01*
X101871249Y-115865033D01*
X101867339Y-115871557D01*
X101862808Y-115877665D01*
X101857701Y-115883301D01*
X101852065Y-115888408D01*
X101845957Y-115892939D01*
X101839433Y-115896849D01*
X101832558Y-115900101D01*
X101825397Y-115902663D01*
X101818019Y-115904511D01*
X101810496Y-115905627D01*
X101802900Y-115906000D01*
X101647900Y-115906000D01*
X101640304Y-115905627D01*
X101632781Y-115904511D01*
X101625403Y-115902663D01*
X101618242Y-115900101D01*
X101611367Y-115896849D01*
X101604843Y-115892939D01*
X101598735Y-115888408D01*
X101593099Y-115883301D01*
X101587992Y-115877665D01*
X101583461Y-115871557D01*
X101579551Y-115865033D01*
X101576299Y-115858158D01*
X101573737Y-115850997D01*
X101571889Y-115843619D01*
X101570773Y-115836096D01*
X101570400Y-115828500D01*
X101570400Y-115643500D01*
X101570773Y-115635904D01*
X101571889Y-115628381D01*
X101573737Y-115621003D01*
X101576299Y-115613842D01*
X101579551Y-115606967D01*
X101583461Y-115600443D01*
X101587992Y-115594335D01*
X101593099Y-115588699D01*
X101598735Y-115583592D01*
X101604843Y-115579061D01*
X101611367Y-115575151D01*
X101618242Y-115571899D01*
X101625403Y-115569337D01*
X101632781Y-115567489D01*
X101640304Y-115566373D01*
X101647900Y-115566000D01*
X101802900Y-115566000D01*
X101810496Y-115566373D01*
X101810496Y-115566373D01*
G37*
D11*
X101725400Y-115736000D03*
D23*
X99499000Y-110950400D03*
X99499000Y-109650400D03*
X101319000Y-109650400D03*
X101319000Y-110300400D03*
X101319000Y-110950400D03*
D10*
G36*
X103749696Y-111502373D02*
G01*
X103757219Y-111503489D01*
X103764597Y-111505337D01*
X103771758Y-111507899D01*
X103778633Y-111511151D01*
X103785157Y-111515061D01*
X103791265Y-111519592D01*
X103796901Y-111524699D01*
X103802008Y-111530335D01*
X103806539Y-111536443D01*
X103810449Y-111542967D01*
X103813701Y-111549842D01*
X103816263Y-111557003D01*
X103818111Y-111564381D01*
X103819227Y-111571904D01*
X103819600Y-111579500D01*
X103819600Y-111764500D01*
X103819227Y-111772096D01*
X103818111Y-111779619D01*
X103816263Y-111786997D01*
X103813701Y-111794158D01*
X103810449Y-111801033D01*
X103806539Y-111807557D01*
X103802008Y-111813665D01*
X103796901Y-111819301D01*
X103791265Y-111824408D01*
X103785157Y-111828939D01*
X103778633Y-111832849D01*
X103771758Y-111836101D01*
X103764597Y-111838663D01*
X103757219Y-111840511D01*
X103749696Y-111841627D01*
X103742100Y-111842000D01*
X103587100Y-111842000D01*
X103579504Y-111841627D01*
X103571981Y-111840511D01*
X103564603Y-111838663D01*
X103557442Y-111836101D01*
X103550567Y-111832849D01*
X103544043Y-111828939D01*
X103537935Y-111824408D01*
X103532299Y-111819301D01*
X103527192Y-111813665D01*
X103522661Y-111807557D01*
X103518751Y-111801033D01*
X103515499Y-111794158D01*
X103512937Y-111786997D01*
X103511089Y-111779619D01*
X103509973Y-111772096D01*
X103509600Y-111764500D01*
X103509600Y-111579500D01*
X103509973Y-111571904D01*
X103511089Y-111564381D01*
X103512937Y-111557003D01*
X103515499Y-111549842D01*
X103518751Y-111542967D01*
X103522661Y-111536443D01*
X103527192Y-111530335D01*
X103532299Y-111524699D01*
X103537935Y-111519592D01*
X103544043Y-111515061D01*
X103550567Y-111511151D01*
X103557442Y-111507899D01*
X103564603Y-111505337D01*
X103571981Y-111503489D01*
X103579504Y-111502373D01*
X103587100Y-111502000D01*
X103742100Y-111502000D01*
X103749696Y-111502373D01*
X103749696Y-111502373D01*
G37*
D11*
X103664600Y-111672000D03*
D10*
G36*
X104299696Y-111502373D02*
G01*
X104307219Y-111503489D01*
X104314597Y-111505337D01*
X104321758Y-111507899D01*
X104328633Y-111511151D01*
X104335157Y-111515061D01*
X104341265Y-111519592D01*
X104346901Y-111524699D01*
X104352008Y-111530335D01*
X104356539Y-111536443D01*
X104360449Y-111542967D01*
X104363701Y-111549842D01*
X104366263Y-111557003D01*
X104368111Y-111564381D01*
X104369227Y-111571904D01*
X104369600Y-111579500D01*
X104369600Y-111764500D01*
X104369227Y-111772096D01*
X104368111Y-111779619D01*
X104366263Y-111786997D01*
X104363701Y-111794158D01*
X104360449Y-111801033D01*
X104356539Y-111807557D01*
X104352008Y-111813665D01*
X104346901Y-111819301D01*
X104341265Y-111824408D01*
X104335157Y-111828939D01*
X104328633Y-111832849D01*
X104321758Y-111836101D01*
X104314597Y-111838663D01*
X104307219Y-111840511D01*
X104299696Y-111841627D01*
X104292100Y-111842000D01*
X104137100Y-111842000D01*
X104129504Y-111841627D01*
X104121981Y-111840511D01*
X104114603Y-111838663D01*
X104107442Y-111836101D01*
X104100567Y-111832849D01*
X104094043Y-111828939D01*
X104087935Y-111824408D01*
X104082299Y-111819301D01*
X104077192Y-111813665D01*
X104072661Y-111807557D01*
X104068751Y-111801033D01*
X104065499Y-111794158D01*
X104062937Y-111786997D01*
X104061089Y-111779619D01*
X104059973Y-111772096D01*
X104059600Y-111764500D01*
X104059600Y-111579500D01*
X104059973Y-111571904D01*
X104061089Y-111564381D01*
X104062937Y-111557003D01*
X104065499Y-111549842D01*
X104068751Y-111542967D01*
X104072661Y-111536443D01*
X104077192Y-111530335D01*
X104082299Y-111524699D01*
X104087935Y-111519592D01*
X104094043Y-111515061D01*
X104100567Y-111511151D01*
X104107442Y-111507899D01*
X104114603Y-111505337D01*
X104121981Y-111503489D01*
X104129504Y-111502373D01*
X104137100Y-111502000D01*
X104292100Y-111502000D01*
X104299696Y-111502373D01*
X104299696Y-111502373D01*
G37*
D11*
X104214600Y-111672000D03*
D10*
G36*
X102337896Y-112994973D02*
G01*
X102345419Y-112996089D01*
X102352797Y-112997937D01*
X102359958Y-113000499D01*
X102366833Y-113003751D01*
X102373357Y-113007661D01*
X102379465Y-113012192D01*
X102385101Y-113017299D01*
X102390208Y-113022935D01*
X102394739Y-113029043D01*
X102398649Y-113035567D01*
X102401901Y-113042442D01*
X102404463Y-113049603D01*
X102406311Y-113056981D01*
X102407427Y-113064504D01*
X102407800Y-113072100D01*
X102407800Y-113227100D01*
X102407427Y-113234696D01*
X102406311Y-113242219D01*
X102404463Y-113249597D01*
X102401901Y-113256758D01*
X102398649Y-113263633D01*
X102394739Y-113270157D01*
X102390208Y-113276265D01*
X102385101Y-113281901D01*
X102379465Y-113287008D01*
X102373357Y-113291539D01*
X102366833Y-113295449D01*
X102359958Y-113298701D01*
X102352797Y-113301263D01*
X102345419Y-113303111D01*
X102337896Y-113304227D01*
X102330300Y-113304600D01*
X102145300Y-113304600D01*
X102137704Y-113304227D01*
X102130181Y-113303111D01*
X102122803Y-113301263D01*
X102115642Y-113298701D01*
X102108767Y-113295449D01*
X102102243Y-113291539D01*
X102096135Y-113287008D01*
X102090499Y-113281901D01*
X102085392Y-113276265D01*
X102080861Y-113270157D01*
X102076951Y-113263633D01*
X102073699Y-113256758D01*
X102071137Y-113249597D01*
X102069289Y-113242219D01*
X102068173Y-113234696D01*
X102067800Y-113227100D01*
X102067800Y-113072100D01*
X102068173Y-113064504D01*
X102069289Y-113056981D01*
X102071137Y-113049603D01*
X102073699Y-113042442D01*
X102076951Y-113035567D01*
X102080861Y-113029043D01*
X102085392Y-113022935D01*
X102090499Y-113017299D01*
X102096135Y-113012192D01*
X102102243Y-113007661D01*
X102108767Y-113003751D01*
X102115642Y-113000499D01*
X102122803Y-112997937D01*
X102130181Y-112996089D01*
X102137704Y-112994973D01*
X102145300Y-112994600D01*
X102330300Y-112994600D01*
X102337896Y-112994973D01*
X102337896Y-112994973D01*
G37*
D11*
X102237800Y-113149600D03*
D10*
G36*
X102337896Y-113544973D02*
G01*
X102345419Y-113546089D01*
X102352797Y-113547937D01*
X102359958Y-113550499D01*
X102366833Y-113553751D01*
X102373357Y-113557661D01*
X102379465Y-113562192D01*
X102385101Y-113567299D01*
X102390208Y-113572935D01*
X102394739Y-113579043D01*
X102398649Y-113585567D01*
X102401901Y-113592442D01*
X102404463Y-113599603D01*
X102406311Y-113606981D01*
X102407427Y-113614504D01*
X102407800Y-113622100D01*
X102407800Y-113777100D01*
X102407427Y-113784696D01*
X102406311Y-113792219D01*
X102404463Y-113799597D01*
X102401901Y-113806758D01*
X102398649Y-113813633D01*
X102394739Y-113820157D01*
X102390208Y-113826265D01*
X102385101Y-113831901D01*
X102379465Y-113837008D01*
X102373357Y-113841539D01*
X102366833Y-113845449D01*
X102359958Y-113848701D01*
X102352797Y-113851263D01*
X102345419Y-113853111D01*
X102337896Y-113854227D01*
X102330300Y-113854600D01*
X102145300Y-113854600D01*
X102137704Y-113854227D01*
X102130181Y-113853111D01*
X102122803Y-113851263D01*
X102115642Y-113848701D01*
X102108767Y-113845449D01*
X102102243Y-113841539D01*
X102096135Y-113837008D01*
X102090499Y-113831901D01*
X102085392Y-113826265D01*
X102080861Y-113820157D01*
X102076951Y-113813633D01*
X102073699Y-113806758D01*
X102071137Y-113799597D01*
X102069289Y-113792219D01*
X102068173Y-113784696D01*
X102067800Y-113777100D01*
X102067800Y-113622100D01*
X102068173Y-113614504D01*
X102069289Y-113606981D01*
X102071137Y-113599603D01*
X102073699Y-113592442D01*
X102076951Y-113585567D01*
X102080861Y-113579043D01*
X102085392Y-113572935D01*
X102090499Y-113567299D01*
X102096135Y-113562192D01*
X102102243Y-113557661D01*
X102108767Y-113553751D01*
X102115642Y-113550499D01*
X102122803Y-113547937D01*
X102130181Y-113546089D01*
X102137704Y-113544973D01*
X102145300Y-113544600D01*
X102330300Y-113544600D01*
X102337896Y-113544973D01*
X102337896Y-113544973D01*
G37*
D11*
X102237800Y-113699600D03*
D10*
G36*
X103836496Y-114518973D02*
G01*
X103844019Y-114520089D01*
X103851397Y-114521937D01*
X103858558Y-114524499D01*
X103865433Y-114527751D01*
X103871957Y-114531661D01*
X103878065Y-114536192D01*
X103883701Y-114541299D01*
X103888808Y-114546935D01*
X103893339Y-114553043D01*
X103897249Y-114559567D01*
X103900501Y-114566442D01*
X103903063Y-114573603D01*
X103904911Y-114580981D01*
X103906027Y-114588504D01*
X103906400Y-114596100D01*
X103906400Y-114751100D01*
X103906027Y-114758696D01*
X103904911Y-114766219D01*
X103903063Y-114773597D01*
X103900501Y-114780758D01*
X103897249Y-114787633D01*
X103893339Y-114794157D01*
X103888808Y-114800265D01*
X103883701Y-114805901D01*
X103878065Y-114811008D01*
X103871957Y-114815539D01*
X103865433Y-114819449D01*
X103858558Y-114822701D01*
X103851397Y-114825263D01*
X103844019Y-114827111D01*
X103836496Y-114828227D01*
X103828900Y-114828600D01*
X103643900Y-114828600D01*
X103636304Y-114828227D01*
X103628781Y-114827111D01*
X103621403Y-114825263D01*
X103614242Y-114822701D01*
X103607367Y-114819449D01*
X103600843Y-114815539D01*
X103594735Y-114811008D01*
X103589099Y-114805901D01*
X103583992Y-114800265D01*
X103579461Y-114794157D01*
X103575551Y-114787633D01*
X103572299Y-114780758D01*
X103569737Y-114773597D01*
X103567889Y-114766219D01*
X103566773Y-114758696D01*
X103566400Y-114751100D01*
X103566400Y-114596100D01*
X103566773Y-114588504D01*
X103567889Y-114580981D01*
X103569737Y-114573603D01*
X103572299Y-114566442D01*
X103575551Y-114559567D01*
X103579461Y-114553043D01*
X103583992Y-114546935D01*
X103589099Y-114541299D01*
X103594735Y-114536192D01*
X103600843Y-114531661D01*
X103607367Y-114527751D01*
X103614242Y-114524499D01*
X103621403Y-114521937D01*
X103628781Y-114520089D01*
X103636304Y-114518973D01*
X103643900Y-114518600D01*
X103828900Y-114518600D01*
X103836496Y-114518973D01*
X103836496Y-114518973D01*
G37*
D11*
X103736400Y-114673600D03*
D10*
G36*
X103836496Y-115068973D02*
G01*
X103844019Y-115070089D01*
X103851397Y-115071937D01*
X103858558Y-115074499D01*
X103865433Y-115077751D01*
X103871957Y-115081661D01*
X103878065Y-115086192D01*
X103883701Y-115091299D01*
X103888808Y-115096935D01*
X103893339Y-115103043D01*
X103897249Y-115109567D01*
X103900501Y-115116442D01*
X103903063Y-115123603D01*
X103904911Y-115130981D01*
X103906027Y-115138504D01*
X103906400Y-115146100D01*
X103906400Y-115301100D01*
X103906027Y-115308696D01*
X103904911Y-115316219D01*
X103903063Y-115323597D01*
X103900501Y-115330758D01*
X103897249Y-115337633D01*
X103893339Y-115344157D01*
X103888808Y-115350265D01*
X103883701Y-115355901D01*
X103878065Y-115361008D01*
X103871957Y-115365539D01*
X103865433Y-115369449D01*
X103858558Y-115372701D01*
X103851397Y-115375263D01*
X103844019Y-115377111D01*
X103836496Y-115378227D01*
X103828900Y-115378600D01*
X103643900Y-115378600D01*
X103636304Y-115378227D01*
X103628781Y-115377111D01*
X103621403Y-115375263D01*
X103614242Y-115372701D01*
X103607367Y-115369449D01*
X103600843Y-115365539D01*
X103594735Y-115361008D01*
X103589099Y-115355901D01*
X103583992Y-115350265D01*
X103579461Y-115344157D01*
X103575551Y-115337633D01*
X103572299Y-115330758D01*
X103569737Y-115323597D01*
X103567889Y-115316219D01*
X103566773Y-115308696D01*
X103566400Y-115301100D01*
X103566400Y-115146100D01*
X103566773Y-115138504D01*
X103567889Y-115130981D01*
X103569737Y-115123603D01*
X103572299Y-115116442D01*
X103575551Y-115109567D01*
X103579461Y-115103043D01*
X103583992Y-115096935D01*
X103589099Y-115091299D01*
X103594735Y-115086192D01*
X103600843Y-115081661D01*
X103607367Y-115077751D01*
X103614242Y-115074499D01*
X103621403Y-115071937D01*
X103628781Y-115070089D01*
X103636304Y-115068973D01*
X103643900Y-115068600D01*
X103828900Y-115068600D01*
X103836496Y-115068973D01*
X103836496Y-115068973D01*
G37*
D11*
X103736400Y-115223600D03*
D10*
G36*
X106351096Y-111496373D02*
G01*
X106358619Y-111497489D01*
X106365997Y-111499337D01*
X106373158Y-111501899D01*
X106380033Y-111505151D01*
X106386557Y-111509061D01*
X106392665Y-111513592D01*
X106398301Y-111518699D01*
X106403408Y-111524335D01*
X106407939Y-111530443D01*
X106411849Y-111536967D01*
X106415101Y-111543842D01*
X106417663Y-111551003D01*
X106419511Y-111558381D01*
X106420627Y-111565904D01*
X106421000Y-111573500D01*
X106421000Y-111728500D01*
X106420627Y-111736096D01*
X106419511Y-111743619D01*
X106417663Y-111750997D01*
X106415101Y-111758158D01*
X106411849Y-111765033D01*
X106407939Y-111771557D01*
X106403408Y-111777665D01*
X106398301Y-111783301D01*
X106392665Y-111788408D01*
X106386557Y-111792939D01*
X106380033Y-111796849D01*
X106373158Y-111800101D01*
X106365997Y-111802663D01*
X106358619Y-111804511D01*
X106351096Y-111805627D01*
X106343500Y-111806000D01*
X106158500Y-111806000D01*
X106150904Y-111805627D01*
X106143381Y-111804511D01*
X106136003Y-111802663D01*
X106128842Y-111800101D01*
X106121967Y-111796849D01*
X106115443Y-111792939D01*
X106109335Y-111788408D01*
X106103699Y-111783301D01*
X106098592Y-111777665D01*
X106094061Y-111771557D01*
X106090151Y-111765033D01*
X106086899Y-111758158D01*
X106084337Y-111750997D01*
X106082489Y-111743619D01*
X106081373Y-111736096D01*
X106081000Y-111728500D01*
X106081000Y-111573500D01*
X106081373Y-111565904D01*
X106082489Y-111558381D01*
X106084337Y-111551003D01*
X106086899Y-111543842D01*
X106090151Y-111536967D01*
X106094061Y-111530443D01*
X106098592Y-111524335D01*
X106103699Y-111518699D01*
X106109335Y-111513592D01*
X106115443Y-111509061D01*
X106121967Y-111505151D01*
X106128842Y-111501899D01*
X106136003Y-111499337D01*
X106143381Y-111497489D01*
X106150904Y-111496373D01*
X106158500Y-111496000D01*
X106343500Y-111496000D01*
X106351096Y-111496373D01*
X106351096Y-111496373D01*
G37*
D11*
X106251000Y-111651000D03*
D10*
G36*
X106351096Y-112046373D02*
G01*
X106358619Y-112047489D01*
X106365997Y-112049337D01*
X106373158Y-112051899D01*
X106380033Y-112055151D01*
X106386557Y-112059061D01*
X106392665Y-112063592D01*
X106398301Y-112068699D01*
X106403408Y-112074335D01*
X106407939Y-112080443D01*
X106411849Y-112086967D01*
X106415101Y-112093842D01*
X106417663Y-112101003D01*
X106419511Y-112108381D01*
X106420627Y-112115904D01*
X106421000Y-112123500D01*
X106421000Y-112278500D01*
X106420627Y-112286096D01*
X106419511Y-112293619D01*
X106417663Y-112300997D01*
X106415101Y-112308158D01*
X106411849Y-112315033D01*
X106407939Y-112321557D01*
X106403408Y-112327665D01*
X106398301Y-112333301D01*
X106392665Y-112338408D01*
X106386557Y-112342939D01*
X106380033Y-112346849D01*
X106373158Y-112350101D01*
X106365997Y-112352663D01*
X106358619Y-112354511D01*
X106351096Y-112355627D01*
X106343500Y-112356000D01*
X106158500Y-112356000D01*
X106150904Y-112355627D01*
X106143381Y-112354511D01*
X106136003Y-112352663D01*
X106128842Y-112350101D01*
X106121967Y-112346849D01*
X106115443Y-112342939D01*
X106109335Y-112338408D01*
X106103699Y-112333301D01*
X106098592Y-112327665D01*
X106094061Y-112321557D01*
X106090151Y-112315033D01*
X106086899Y-112308158D01*
X106084337Y-112300997D01*
X106082489Y-112293619D01*
X106081373Y-112286096D01*
X106081000Y-112278500D01*
X106081000Y-112123500D01*
X106081373Y-112115904D01*
X106082489Y-112108381D01*
X106084337Y-112101003D01*
X106086899Y-112093842D01*
X106090151Y-112086967D01*
X106094061Y-112080443D01*
X106098592Y-112074335D01*
X106103699Y-112068699D01*
X106109335Y-112063592D01*
X106115443Y-112059061D01*
X106121967Y-112055151D01*
X106128842Y-112051899D01*
X106136003Y-112049337D01*
X106143381Y-112047489D01*
X106150904Y-112046373D01*
X106158500Y-112046000D01*
X106343500Y-112046000D01*
X106351096Y-112046373D01*
X106351096Y-112046373D01*
G37*
D11*
X106251000Y-112201000D03*
D10*
G36*
X102337896Y-109337373D02*
G01*
X102345419Y-109338489D01*
X102352797Y-109340337D01*
X102359958Y-109342899D01*
X102366833Y-109346151D01*
X102373357Y-109350061D01*
X102379465Y-109354592D01*
X102385101Y-109359699D01*
X102390208Y-109365335D01*
X102394739Y-109371443D01*
X102398649Y-109377967D01*
X102401901Y-109384842D01*
X102404463Y-109392003D01*
X102406311Y-109399381D01*
X102407427Y-109406904D01*
X102407800Y-109414500D01*
X102407800Y-109569500D01*
X102407427Y-109577096D01*
X102406311Y-109584619D01*
X102404463Y-109591997D01*
X102401901Y-109599158D01*
X102398649Y-109606033D01*
X102394739Y-109612557D01*
X102390208Y-109618665D01*
X102385101Y-109624301D01*
X102379465Y-109629408D01*
X102373357Y-109633939D01*
X102366833Y-109637849D01*
X102359958Y-109641101D01*
X102352797Y-109643663D01*
X102345419Y-109645511D01*
X102337896Y-109646627D01*
X102330300Y-109647000D01*
X102145300Y-109647000D01*
X102137704Y-109646627D01*
X102130181Y-109645511D01*
X102122803Y-109643663D01*
X102115642Y-109641101D01*
X102108767Y-109637849D01*
X102102243Y-109633939D01*
X102096135Y-109629408D01*
X102090499Y-109624301D01*
X102085392Y-109618665D01*
X102080861Y-109612557D01*
X102076951Y-109606033D01*
X102073699Y-109599158D01*
X102071137Y-109591997D01*
X102069289Y-109584619D01*
X102068173Y-109577096D01*
X102067800Y-109569500D01*
X102067800Y-109414500D01*
X102068173Y-109406904D01*
X102069289Y-109399381D01*
X102071137Y-109392003D01*
X102073699Y-109384842D01*
X102076951Y-109377967D01*
X102080861Y-109371443D01*
X102085392Y-109365335D01*
X102090499Y-109359699D01*
X102096135Y-109354592D01*
X102102243Y-109350061D01*
X102108767Y-109346151D01*
X102115642Y-109342899D01*
X102122803Y-109340337D01*
X102130181Y-109338489D01*
X102137704Y-109337373D01*
X102145300Y-109337000D01*
X102330300Y-109337000D01*
X102337896Y-109337373D01*
X102337896Y-109337373D01*
G37*
D11*
X102237800Y-109492000D03*
D10*
G36*
X102337896Y-109887373D02*
G01*
X102345419Y-109888489D01*
X102352797Y-109890337D01*
X102359958Y-109892899D01*
X102366833Y-109896151D01*
X102373357Y-109900061D01*
X102379465Y-109904592D01*
X102385101Y-109909699D01*
X102390208Y-109915335D01*
X102394739Y-109921443D01*
X102398649Y-109927967D01*
X102401901Y-109934842D01*
X102404463Y-109942003D01*
X102406311Y-109949381D01*
X102407427Y-109956904D01*
X102407800Y-109964500D01*
X102407800Y-110119500D01*
X102407427Y-110127096D01*
X102406311Y-110134619D01*
X102404463Y-110141997D01*
X102401901Y-110149158D01*
X102398649Y-110156033D01*
X102394739Y-110162557D01*
X102390208Y-110168665D01*
X102385101Y-110174301D01*
X102379465Y-110179408D01*
X102373357Y-110183939D01*
X102366833Y-110187849D01*
X102359958Y-110191101D01*
X102352797Y-110193663D01*
X102345419Y-110195511D01*
X102337896Y-110196627D01*
X102330300Y-110197000D01*
X102145300Y-110197000D01*
X102137704Y-110196627D01*
X102130181Y-110195511D01*
X102122803Y-110193663D01*
X102115642Y-110191101D01*
X102108767Y-110187849D01*
X102102243Y-110183939D01*
X102096135Y-110179408D01*
X102090499Y-110174301D01*
X102085392Y-110168665D01*
X102080861Y-110162557D01*
X102076951Y-110156033D01*
X102073699Y-110149158D01*
X102071137Y-110141997D01*
X102069289Y-110134619D01*
X102068173Y-110127096D01*
X102067800Y-110119500D01*
X102067800Y-109964500D01*
X102068173Y-109956904D01*
X102069289Y-109949381D01*
X102071137Y-109942003D01*
X102073699Y-109934842D01*
X102076951Y-109927967D01*
X102080861Y-109921443D01*
X102085392Y-109915335D01*
X102090499Y-109909699D01*
X102096135Y-109904592D01*
X102102243Y-109900061D01*
X102108767Y-109896151D01*
X102115642Y-109892899D01*
X102122803Y-109890337D01*
X102130181Y-109888489D01*
X102137704Y-109887373D01*
X102145300Y-109887000D01*
X102330300Y-109887000D01*
X102337896Y-109887373D01*
X102337896Y-109887373D01*
G37*
D11*
X102237800Y-110042000D03*
D10*
G36*
X102337896Y-112071773D02*
G01*
X102345419Y-112072889D01*
X102352797Y-112074737D01*
X102359958Y-112077299D01*
X102366833Y-112080551D01*
X102373357Y-112084461D01*
X102379465Y-112088992D01*
X102385101Y-112094099D01*
X102390208Y-112099735D01*
X102394739Y-112105843D01*
X102398649Y-112112367D01*
X102401901Y-112119242D01*
X102404463Y-112126403D01*
X102406311Y-112133781D01*
X102407427Y-112141304D01*
X102407800Y-112148900D01*
X102407800Y-112303900D01*
X102407427Y-112311496D01*
X102406311Y-112319019D01*
X102404463Y-112326397D01*
X102401901Y-112333558D01*
X102398649Y-112340433D01*
X102394739Y-112346957D01*
X102390208Y-112353065D01*
X102385101Y-112358701D01*
X102379465Y-112363808D01*
X102373357Y-112368339D01*
X102366833Y-112372249D01*
X102359958Y-112375501D01*
X102352797Y-112378063D01*
X102345419Y-112379911D01*
X102337896Y-112381027D01*
X102330300Y-112381400D01*
X102145300Y-112381400D01*
X102137704Y-112381027D01*
X102130181Y-112379911D01*
X102122803Y-112378063D01*
X102115642Y-112375501D01*
X102108767Y-112372249D01*
X102102243Y-112368339D01*
X102096135Y-112363808D01*
X102090499Y-112358701D01*
X102085392Y-112353065D01*
X102080861Y-112346957D01*
X102076951Y-112340433D01*
X102073699Y-112333558D01*
X102071137Y-112326397D01*
X102069289Y-112319019D01*
X102068173Y-112311496D01*
X102067800Y-112303900D01*
X102067800Y-112148900D01*
X102068173Y-112141304D01*
X102069289Y-112133781D01*
X102071137Y-112126403D01*
X102073699Y-112119242D01*
X102076951Y-112112367D01*
X102080861Y-112105843D01*
X102085392Y-112099735D01*
X102090499Y-112094099D01*
X102096135Y-112088992D01*
X102102243Y-112084461D01*
X102108767Y-112080551D01*
X102115642Y-112077299D01*
X102122803Y-112074737D01*
X102130181Y-112072889D01*
X102137704Y-112071773D01*
X102145300Y-112071400D01*
X102330300Y-112071400D01*
X102337896Y-112071773D01*
X102337896Y-112071773D01*
G37*
D11*
X102237800Y-112226400D03*
D10*
G36*
X102337896Y-111521773D02*
G01*
X102345419Y-111522889D01*
X102352797Y-111524737D01*
X102359958Y-111527299D01*
X102366833Y-111530551D01*
X102373357Y-111534461D01*
X102379465Y-111538992D01*
X102385101Y-111544099D01*
X102390208Y-111549735D01*
X102394739Y-111555843D01*
X102398649Y-111562367D01*
X102401901Y-111569242D01*
X102404463Y-111576403D01*
X102406311Y-111583781D01*
X102407427Y-111591304D01*
X102407800Y-111598900D01*
X102407800Y-111753900D01*
X102407427Y-111761496D01*
X102406311Y-111769019D01*
X102404463Y-111776397D01*
X102401901Y-111783558D01*
X102398649Y-111790433D01*
X102394739Y-111796957D01*
X102390208Y-111803065D01*
X102385101Y-111808701D01*
X102379465Y-111813808D01*
X102373357Y-111818339D01*
X102366833Y-111822249D01*
X102359958Y-111825501D01*
X102352797Y-111828063D01*
X102345419Y-111829911D01*
X102337896Y-111831027D01*
X102330300Y-111831400D01*
X102145300Y-111831400D01*
X102137704Y-111831027D01*
X102130181Y-111829911D01*
X102122803Y-111828063D01*
X102115642Y-111825501D01*
X102108767Y-111822249D01*
X102102243Y-111818339D01*
X102096135Y-111813808D01*
X102090499Y-111808701D01*
X102085392Y-111803065D01*
X102080861Y-111796957D01*
X102076951Y-111790433D01*
X102073699Y-111783558D01*
X102071137Y-111776397D01*
X102069289Y-111769019D01*
X102068173Y-111761496D01*
X102067800Y-111753900D01*
X102067800Y-111598900D01*
X102068173Y-111591304D01*
X102069289Y-111583781D01*
X102071137Y-111576403D01*
X102073699Y-111569242D01*
X102076951Y-111562367D01*
X102080861Y-111555843D01*
X102085392Y-111549735D01*
X102090499Y-111544099D01*
X102096135Y-111538992D01*
X102102243Y-111534461D01*
X102108767Y-111530551D01*
X102115642Y-111527299D01*
X102122803Y-111524737D01*
X102130181Y-111522889D01*
X102137704Y-111521773D01*
X102145300Y-111521400D01*
X102330300Y-111521400D01*
X102337896Y-111521773D01*
X102337896Y-111521773D01*
G37*
D11*
X102237800Y-111676400D03*
D10*
G36*
X101793896Y-115007573D02*
G01*
X101801419Y-115008689D01*
X101808797Y-115010537D01*
X101815958Y-115013099D01*
X101822833Y-115016351D01*
X101829357Y-115020261D01*
X101835465Y-115024792D01*
X101841101Y-115029899D01*
X101846208Y-115035535D01*
X101850739Y-115041643D01*
X101854649Y-115048167D01*
X101857901Y-115055042D01*
X101860463Y-115062203D01*
X101862311Y-115069581D01*
X101863427Y-115077104D01*
X101863800Y-115084700D01*
X101863800Y-115269700D01*
X101863427Y-115277296D01*
X101862311Y-115284819D01*
X101860463Y-115292197D01*
X101857901Y-115299358D01*
X101854649Y-115306233D01*
X101850739Y-115312757D01*
X101846208Y-115318865D01*
X101841101Y-115324501D01*
X101835465Y-115329608D01*
X101829357Y-115334139D01*
X101822833Y-115338049D01*
X101815958Y-115341301D01*
X101808797Y-115343863D01*
X101801419Y-115345711D01*
X101793896Y-115346827D01*
X101786300Y-115347200D01*
X101631300Y-115347200D01*
X101623704Y-115346827D01*
X101616181Y-115345711D01*
X101608803Y-115343863D01*
X101601642Y-115341301D01*
X101594767Y-115338049D01*
X101588243Y-115334139D01*
X101582135Y-115329608D01*
X101576499Y-115324501D01*
X101571392Y-115318865D01*
X101566861Y-115312757D01*
X101562951Y-115306233D01*
X101559699Y-115299358D01*
X101557137Y-115292197D01*
X101555289Y-115284819D01*
X101554173Y-115277296D01*
X101553800Y-115269700D01*
X101553800Y-115084700D01*
X101554173Y-115077104D01*
X101555289Y-115069581D01*
X101557137Y-115062203D01*
X101559699Y-115055042D01*
X101562951Y-115048167D01*
X101566861Y-115041643D01*
X101571392Y-115035535D01*
X101576499Y-115029899D01*
X101582135Y-115024792D01*
X101588243Y-115020261D01*
X101594767Y-115016351D01*
X101601642Y-115013099D01*
X101608803Y-115010537D01*
X101616181Y-115008689D01*
X101623704Y-115007573D01*
X101631300Y-115007200D01*
X101786300Y-115007200D01*
X101793896Y-115007573D01*
X101793896Y-115007573D01*
G37*
D11*
X101708800Y-115177200D03*
D10*
G36*
X102343896Y-115007573D02*
G01*
X102351419Y-115008689D01*
X102358797Y-115010537D01*
X102365958Y-115013099D01*
X102372833Y-115016351D01*
X102379357Y-115020261D01*
X102385465Y-115024792D01*
X102391101Y-115029899D01*
X102396208Y-115035535D01*
X102400739Y-115041643D01*
X102404649Y-115048167D01*
X102407901Y-115055042D01*
X102410463Y-115062203D01*
X102412311Y-115069581D01*
X102413427Y-115077104D01*
X102413800Y-115084700D01*
X102413800Y-115269700D01*
X102413427Y-115277296D01*
X102412311Y-115284819D01*
X102410463Y-115292197D01*
X102407901Y-115299358D01*
X102404649Y-115306233D01*
X102400739Y-115312757D01*
X102396208Y-115318865D01*
X102391101Y-115324501D01*
X102385465Y-115329608D01*
X102379357Y-115334139D01*
X102372833Y-115338049D01*
X102365958Y-115341301D01*
X102358797Y-115343863D01*
X102351419Y-115345711D01*
X102343896Y-115346827D01*
X102336300Y-115347200D01*
X102181300Y-115347200D01*
X102173704Y-115346827D01*
X102166181Y-115345711D01*
X102158803Y-115343863D01*
X102151642Y-115341301D01*
X102144767Y-115338049D01*
X102138243Y-115334139D01*
X102132135Y-115329608D01*
X102126499Y-115324501D01*
X102121392Y-115318865D01*
X102116861Y-115312757D01*
X102112951Y-115306233D01*
X102109699Y-115299358D01*
X102107137Y-115292197D01*
X102105289Y-115284819D01*
X102104173Y-115277296D01*
X102103800Y-115269700D01*
X102103800Y-115084700D01*
X102104173Y-115077104D01*
X102105289Y-115069581D01*
X102107137Y-115062203D01*
X102109699Y-115055042D01*
X102112951Y-115048167D01*
X102116861Y-115041643D01*
X102121392Y-115035535D01*
X102126499Y-115029899D01*
X102132135Y-115024792D01*
X102138243Y-115020261D01*
X102144767Y-115016351D01*
X102151642Y-115013099D01*
X102158803Y-115010537D01*
X102166181Y-115008689D01*
X102173704Y-115007573D01*
X102181300Y-115007200D01*
X102336300Y-115007200D01*
X102343896Y-115007573D01*
X102343896Y-115007573D01*
G37*
D11*
X102258800Y-115177200D03*
D10*
G36*
X102337896Y-110979573D02*
G01*
X102345419Y-110980689D01*
X102352797Y-110982537D01*
X102359958Y-110985099D01*
X102366833Y-110988351D01*
X102373357Y-110992261D01*
X102379465Y-110996792D01*
X102385101Y-111001899D01*
X102390208Y-111007535D01*
X102394739Y-111013643D01*
X102398649Y-111020167D01*
X102401901Y-111027042D01*
X102404463Y-111034203D01*
X102406311Y-111041581D01*
X102407427Y-111049104D01*
X102407800Y-111056700D01*
X102407800Y-111211700D01*
X102407427Y-111219296D01*
X102406311Y-111226819D01*
X102404463Y-111234197D01*
X102401901Y-111241358D01*
X102398649Y-111248233D01*
X102394739Y-111254757D01*
X102390208Y-111260865D01*
X102385101Y-111266501D01*
X102379465Y-111271608D01*
X102373357Y-111276139D01*
X102366833Y-111280049D01*
X102359958Y-111283301D01*
X102352797Y-111285863D01*
X102345419Y-111287711D01*
X102337896Y-111288827D01*
X102330300Y-111289200D01*
X102145300Y-111289200D01*
X102137704Y-111288827D01*
X102130181Y-111287711D01*
X102122803Y-111285863D01*
X102115642Y-111283301D01*
X102108767Y-111280049D01*
X102102243Y-111276139D01*
X102096135Y-111271608D01*
X102090499Y-111266501D01*
X102085392Y-111260865D01*
X102080861Y-111254757D01*
X102076951Y-111248233D01*
X102073699Y-111241358D01*
X102071137Y-111234197D01*
X102069289Y-111226819D01*
X102068173Y-111219296D01*
X102067800Y-111211700D01*
X102067800Y-111056700D01*
X102068173Y-111049104D01*
X102069289Y-111041581D01*
X102071137Y-111034203D01*
X102073699Y-111027042D01*
X102076951Y-111020167D01*
X102080861Y-111013643D01*
X102085392Y-111007535D01*
X102090499Y-111001899D01*
X102096135Y-110996792D01*
X102102243Y-110992261D01*
X102108767Y-110988351D01*
X102115642Y-110985099D01*
X102122803Y-110982537D01*
X102130181Y-110980689D01*
X102137704Y-110979573D01*
X102145300Y-110979200D01*
X102330300Y-110979200D01*
X102337896Y-110979573D01*
X102337896Y-110979573D01*
G37*
D11*
X102237800Y-111134200D03*
D10*
G36*
X102337896Y-110429573D02*
G01*
X102345419Y-110430689D01*
X102352797Y-110432537D01*
X102359958Y-110435099D01*
X102366833Y-110438351D01*
X102373357Y-110442261D01*
X102379465Y-110446792D01*
X102385101Y-110451899D01*
X102390208Y-110457535D01*
X102394739Y-110463643D01*
X102398649Y-110470167D01*
X102401901Y-110477042D01*
X102404463Y-110484203D01*
X102406311Y-110491581D01*
X102407427Y-110499104D01*
X102407800Y-110506700D01*
X102407800Y-110661700D01*
X102407427Y-110669296D01*
X102406311Y-110676819D01*
X102404463Y-110684197D01*
X102401901Y-110691358D01*
X102398649Y-110698233D01*
X102394739Y-110704757D01*
X102390208Y-110710865D01*
X102385101Y-110716501D01*
X102379465Y-110721608D01*
X102373357Y-110726139D01*
X102366833Y-110730049D01*
X102359958Y-110733301D01*
X102352797Y-110735863D01*
X102345419Y-110737711D01*
X102337896Y-110738827D01*
X102330300Y-110739200D01*
X102145300Y-110739200D01*
X102137704Y-110738827D01*
X102130181Y-110737711D01*
X102122803Y-110735863D01*
X102115642Y-110733301D01*
X102108767Y-110730049D01*
X102102243Y-110726139D01*
X102096135Y-110721608D01*
X102090499Y-110716501D01*
X102085392Y-110710865D01*
X102080861Y-110704757D01*
X102076951Y-110698233D01*
X102073699Y-110691358D01*
X102071137Y-110684197D01*
X102069289Y-110676819D01*
X102068173Y-110669296D01*
X102067800Y-110661700D01*
X102067800Y-110506700D01*
X102068173Y-110499104D01*
X102069289Y-110491581D01*
X102071137Y-110484203D01*
X102073699Y-110477042D01*
X102076951Y-110470167D01*
X102080861Y-110463643D01*
X102085392Y-110457535D01*
X102090499Y-110451899D01*
X102096135Y-110446792D01*
X102102243Y-110442261D01*
X102108767Y-110438351D01*
X102115642Y-110435099D01*
X102122803Y-110432537D01*
X102130181Y-110430689D01*
X102137704Y-110429573D01*
X102145300Y-110429200D01*
X102330300Y-110429200D01*
X102337896Y-110429573D01*
X102337896Y-110429573D01*
G37*
D11*
X102237800Y-110584200D03*
D10*
G36*
X105807096Y-115032973D02*
G01*
X105814619Y-115034089D01*
X105821997Y-115035937D01*
X105829158Y-115038499D01*
X105836033Y-115041751D01*
X105842557Y-115045661D01*
X105848665Y-115050192D01*
X105854301Y-115055299D01*
X105859408Y-115060935D01*
X105863939Y-115067043D01*
X105867849Y-115073567D01*
X105871101Y-115080442D01*
X105873663Y-115087603D01*
X105875511Y-115094981D01*
X105876627Y-115102504D01*
X105877000Y-115110100D01*
X105877000Y-115295100D01*
X105876627Y-115302696D01*
X105875511Y-115310219D01*
X105873663Y-115317597D01*
X105871101Y-115324758D01*
X105867849Y-115331633D01*
X105863939Y-115338157D01*
X105859408Y-115344265D01*
X105854301Y-115349901D01*
X105848665Y-115355008D01*
X105842557Y-115359539D01*
X105836033Y-115363449D01*
X105829158Y-115366701D01*
X105821997Y-115369263D01*
X105814619Y-115371111D01*
X105807096Y-115372227D01*
X105799500Y-115372600D01*
X105644500Y-115372600D01*
X105636904Y-115372227D01*
X105629381Y-115371111D01*
X105622003Y-115369263D01*
X105614842Y-115366701D01*
X105607967Y-115363449D01*
X105601443Y-115359539D01*
X105595335Y-115355008D01*
X105589699Y-115349901D01*
X105584592Y-115344265D01*
X105580061Y-115338157D01*
X105576151Y-115331633D01*
X105572899Y-115324758D01*
X105570337Y-115317597D01*
X105568489Y-115310219D01*
X105567373Y-115302696D01*
X105567000Y-115295100D01*
X105567000Y-115110100D01*
X105567373Y-115102504D01*
X105568489Y-115094981D01*
X105570337Y-115087603D01*
X105572899Y-115080442D01*
X105576151Y-115073567D01*
X105580061Y-115067043D01*
X105584592Y-115060935D01*
X105589699Y-115055299D01*
X105595335Y-115050192D01*
X105601443Y-115045661D01*
X105607967Y-115041751D01*
X105614842Y-115038499D01*
X105622003Y-115035937D01*
X105629381Y-115034089D01*
X105636904Y-115032973D01*
X105644500Y-115032600D01*
X105799500Y-115032600D01*
X105807096Y-115032973D01*
X105807096Y-115032973D01*
G37*
D11*
X105722000Y-115202600D03*
D10*
G36*
X106357096Y-115032973D02*
G01*
X106364619Y-115034089D01*
X106371997Y-115035937D01*
X106379158Y-115038499D01*
X106386033Y-115041751D01*
X106392557Y-115045661D01*
X106398665Y-115050192D01*
X106404301Y-115055299D01*
X106409408Y-115060935D01*
X106413939Y-115067043D01*
X106417849Y-115073567D01*
X106421101Y-115080442D01*
X106423663Y-115087603D01*
X106425511Y-115094981D01*
X106426627Y-115102504D01*
X106427000Y-115110100D01*
X106427000Y-115295100D01*
X106426627Y-115302696D01*
X106425511Y-115310219D01*
X106423663Y-115317597D01*
X106421101Y-115324758D01*
X106417849Y-115331633D01*
X106413939Y-115338157D01*
X106409408Y-115344265D01*
X106404301Y-115349901D01*
X106398665Y-115355008D01*
X106392557Y-115359539D01*
X106386033Y-115363449D01*
X106379158Y-115366701D01*
X106371997Y-115369263D01*
X106364619Y-115371111D01*
X106357096Y-115372227D01*
X106349500Y-115372600D01*
X106194500Y-115372600D01*
X106186904Y-115372227D01*
X106179381Y-115371111D01*
X106172003Y-115369263D01*
X106164842Y-115366701D01*
X106157967Y-115363449D01*
X106151443Y-115359539D01*
X106145335Y-115355008D01*
X106139699Y-115349901D01*
X106134592Y-115344265D01*
X106130061Y-115338157D01*
X106126151Y-115331633D01*
X106122899Y-115324758D01*
X106120337Y-115317597D01*
X106118489Y-115310219D01*
X106117373Y-115302696D01*
X106117000Y-115295100D01*
X106117000Y-115110100D01*
X106117373Y-115102504D01*
X106118489Y-115094981D01*
X106120337Y-115087603D01*
X106122899Y-115080442D01*
X106126151Y-115073567D01*
X106130061Y-115067043D01*
X106134592Y-115060935D01*
X106139699Y-115055299D01*
X106145335Y-115050192D01*
X106151443Y-115045661D01*
X106157967Y-115041751D01*
X106164842Y-115038499D01*
X106172003Y-115035937D01*
X106179381Y-115034089D01*
X106186904Y-115032973D01*
X106194500Y-115032600D01*
X106349500Y-115032600D01*
X106357096Y-115032973D01*
X106357096Y-115032973D01*
G37*
D11*
X106272000Y-115202600D03*
D10*
G36*
X100422296Y-111451573D02*
G01*
X100429819Y-111452689D01*
X100437197Y-111454537D01*
X100444358Y-111457099D01*
X100451233Y-111460351D01*
X100457757Y-111464261D01*
X100463865Y-111468792D01*
X100469501Y-111473899D01*
X100474608Y-111479535D01*
X100479139Y-111485643D01*
X100483049Y-111492167D01*
X100486301Y-111499042D01*
X100488863Y-111506203D01*
X100490711Y-111513581D01*
X100491827Y-111521104D01*
X100492200Y-111528700D01*
X100492200Y-111713700D01*
X100491827Y-111721296D01*
X100490711Y-111728819D01*
X100488863Y-111736197D01*
X100486301Y-111743358D01*
X100483049Y-111750233D01*
X100479139Y-111756757D01*
X100474608Y-111762865D01*
X100469501Y-111768501D01*
X100463865Y-111773608D01*
X100457757Y-111778139D01*
X100451233Y-111782049D01*
X100444358Y-111785301D01*
X100437197Y-111787863D01*
X100429819Y-111789711D01*
X100422296Y-111790827D01*
X100414700Y-111791200D01*
X100259700Y-111791200D01*
X100252104Y-111790827D01*
X100244581Y-111789711D01*
X100237203Y-111787863D01*
X100230042Y-111785301D01*
X100223167Y-111782049D01*
X100216643Y-111778139D01*
X100210535Y-111773608D01*
X100204899Y-111768501D01*
X100199792Y-111762865D01*
X100195261Y-111756757D01*
X100191351Y-111750233D01*
X100188099Y-111743358D01*
X100185537Y-111736197D01*
X100183689Y-111728819D01*
X100182573Y-111721296D01*
X100182200Y-111713700D01*
X100182200Y-111528700D01*
X100182573Y-111521104D01*
X100183689Y-111513581D01*
X100185537Y-111506203D01*
X100188099Y-111499042D01*
X100191351Y-111492167D01*
X100195261Y-111485643D01*
X100199792Y-111479535D01*
X100204899Y-111473899D01*
X100210535Y-111468792D01*
X100216643Y-111464261D01*
X100223167Y-111460351D01*
X100230042Y-111457099D01*
X100237203Y-111454537D01*
X100244581Y-111452689D01*
X100252104Y-111451573D01*
X100259700Y-111451200D01*
X100414700Y-111451200D01*
X100422296Y-111451573D01*
X100422296Y-111451573D01*
G37*
D11*
X100337200Y-111621200D03*
D10*
G36*
X100972296Y-111451573D02*
G01*
X100979819Y-111452689D01*
X100987197Y-111454537D01*
X100994358Y-111457099D01*
X101001233Y-111460351D01*
X101007757Y-111464261D01*
X101013865Y-111468792D01*
X101019501Y-111473899D01*
X101024608Y-111479535D01*
X101029139Y-111485643D01*
X101033049Y-111492167D01*
X101036301Y-111499042D01*
X101038863Y-111506203D01*
X101040711Y-111513581D01*
X101041827Y-111521104D01*
X101042200Y-111528700D01*
X101042200Y-111713700D01*
X101041827Y-111721296D01*
X101040711Y-111728819D01*
X101038863Y-111736197D01*
X101036301Y-111743358D01*
X101033049Y-111750233D01*
X101029139Y-111756757D01*
X101024608Y-111762865D01*
X101019501Y-111768501D01*
X101013865Y-111773608D01*
X101007757Y-111778139D01*
X101001233Y-111782049D01*
X100994358Y-111785301D01*
X100987197Y-111787863D01*
X100979819Y-111789711D01*
X100972296Y-111790827D01*
X100964700Y-111791200D01*
X100809700Y-111791200D01*
X100802104Y-111790827D01*
X100794581Y-111789711D01*
X100787203Y-111787863D01*
X100780042Y-111785301D01*
X100773167Y-111782049D01*
X100766643Y-111778139D01*
X100760535Y-111773608D01*
X100754899Y-111768501D01*
X100749792Y-111762865D01*
X100745261Y-111756757D01*
X100741351Y-111750233D01*
X100738099Y-111743358D01*
X100735537Y-111736197D01*
X100733689Y-111728819D01*
X100732573Y-111721296D01*
X100732200Y-111713700D01*
X100732200Y-111528700D01*
X100732573Y-111521104D01*
X100733689Y-111513581D01*
X100735537Y-111506203D01*
X100738099Y-111499042D01*
X100741351Y-111492167D01*
X100745261Y-111485643D01*
X100749792Y-111479535D01*
X100754899Y-111473899D01*
X100760535Y-111468792D01*
X100766643Y-111464261D01*
X100773167Y-111460351D01*
X100780042Y-111457099D01*
X100787203Y-111454537D01*
X100794581Y-111452689D01*
X100802104Y-111451573D01*
X100809700Y-111451200D01*
X100964700Y-111451200D01*
X100972296Y-111451573D01*
X100972296Y-111451573D01*
G37*
D11*
X100887200Y-111621200D03*
D10*
G36*
X105366496Y-111502373D02*
G01*
X105374019Y-111503489D01*
X105381397Y-111505337D01*
X105388558Y-111507899D01*
X105395433Y-111511151D01*
X105401957Y-111515061D01*
X105408065Y-111519592D01*
X105413701Y-111524699D01*
X105418808Y-111530335D01*
X105423339Y-111536443D01*
X105427249Y-111542967D01*
X105430501Y-111549842D01*
X105433063Y-111557003D01*
X105434911Y-111564381D01*
X105436027Y-111571904D01*
X105436400Y-111579500D01*
X105436400Y-111764500D01*
X105436027Y-111772096D01*
X105434911Y-111779619D01*
X105433063Y-111786997D01*
X105430501Y-111794158D01*
X105427249Y-111801033D01*
X105423339Y-111807557D01*
X105418808Y-111813665D01*
X105413701Y-111819301D01*
X105408065Y-111824408D01*
X105401957Y-111828939D01*
X105395433Y-111832849D01*
X105388558Y-111836101D01*
X105381397Y-111838663D01*
X105374019Y-111840511D01*
X105366496Y-111841627D01*
X105358900Y-111842000D01*
X105203900Y-111842000D01*
X105196304Y-111841627D01*
X105188781Y-111840511D01*
X105181403Y-111838663D01*
X105174242Y-111836101D01*
X105167367Y-111832849D01*
X105160843Y-111828939D01*
X105154735Y-111824408D01*
X105149099Y-111819301D01*
X105143992Y-111813665D01*
X105139461Y-111807557D01*
X105135551Y-111801033D01*
X105132299Y-111794158D01*
X105129737Y-111786997D01*
X105127889Y-111779619D01*
X105126773Y-111772096D01*
X105126400Y-111764500D01*
X105126400Y-111579500D01*
X105126773Y-111571904D01*
X105127889Y-111564381D01*
X105129737Y-111557003D01*
X105132299Y-111549842D01*
X105135551Y-111542967D01*
X105139461Y-111536443D01*
X105143992Y-111530335D01*
X105149099Y-111524699D01*
X105154735Y-111519592D01*
X105160843Y-111515061D01*
X105167367Y-111511151D01*
X105174242Y-111507899D01*
X105181403Y-111505337D01*
X105188781Y-111503489D01*
X105196304Y-111502373D01*
X105203900Y-111502000D01*
X105358900Y-111502000D01*
X105366496Y-111502373D01*
X105366496Y-111502373D01*
G37*
D11*
X105281400Y-111672000D03*
D10*
G36*
X104816496Y-111502373D02*
G01*
X104824019Y-111503489D01*
X104831397Y-111505337D01*
X104838558Y-111507899D01*
X104845433Y-111511151D01*
X104851957Y-111515061D01*
X104858065Y-111519592D01*
X104863701Y-111524699D01*
X104868808Y-111530335D01*
X104873339Y-111536443D01*
X104877249Y-111542967D01*
X104880501Y-111549842D01*
X104883063Y-111557003D01*
X104884911Y-111564381D01*
X104886027Y-111571904D01*
X104886400Y-111579500D01*
X104886400Y-111764500D01*
X104886027Y-111772096D01*
X104884911Y-111779619D01*
X104883063Y-111786997D01*
X104880501Y-111794158D01*
X104877249Y-111801033D01*
X104873339Y-111807557D01*
X104868808Y-111813665D01*
X104863701Y-111819301D01*
X104858065Y-111824408D01*
X104851957Y-111828939D01*
X104845433Y-111832849D01*
X104838558Y-111836101D01*
X104831397Y-111838663D01*
X104824019Y-111840511D01*
X104816496Y-111841627D01*
X104808900Y-111842000D01*
X104653900Y-111842000D01*
X104646304Y-111841627D01*
X104638781Y-111840511D01*
X104631403Y-111838663D01*
X104624242Y-111836101D01*
X104617367Y-111832849D01*
X104610843Y-111828939D01*
X104604735Y-111824408D01*
X104599099Y-111819301D01*
X104593992Y-111813665D01*
X104589461Y-111807557D01*
X104585551Y-111801033D01*
X104582299Y-111794158D01*
X104579737Y-111786997D01*
X104577889Y-111779619D01*
X104576773Y-111772096D01*
X104576400Y-111764500D01*
X104576400Y-111579500D01*
X104576773Y-111571904D01*
X104577889Y-111564381D01*
X104579737Y-111557003D01*
X104582299Y-111549842D01*
X104585551Y-111542967D01*
X104589461Y-111536443D01*
X104593992Y-111530335D01*
X104599099Y-111524699D01*
X104604735Y-111519592D01*
X104610843Y-111515061D01*
X104617367Y-111511151D01*
X104624242Y-111507899D01*
X104631403Y-111505337D01*
X104638781Y-111503489D01*
X104646304Y-111502373D01*
X104653900Y-111502000D01*
X104808900Y-111502000D01*
X104816496Y-111502373D01*
X104816496Y-111502373D01*
G37*
D11*
X104731400Y-111672000D03*
D10*
G36*
X108277612Y-113567498D02*
G01*
X108291688Y-113569586D01*
X108305491Y-113573044D01*
X108318889Y-113577837D01*
X108331753Y-113583921D01*
X108343958Y-113591237D01*
X108355387Y-113599713D01*
X108365930Y-113609270D01*
X108375487Y-113619813D01*
X108383963Y-113631242D01*
X108391279Y-113643447D01*
X108397363Y-113656311D01*
X108402156Y-113669709D01*
X108405614Y-113683512D01*
X108407702Y-113697588D01*
X108408400Y-113711800D01*
X108408400Y-114051800D01*
X108407702Y-114066012D01*
X108405614Y-114080088D01*
X108402156Y-114093891D01*
X108397363Y-114107289D01*
X108391279Y-114120153D01*
X108383963Y-114132358D01*
X108375487Y-114143787D01*
X108365930Y-114154330D01*
X108355387Y-114163887D01*
X108343958Y-114172363D01*
X108331753Y-114179679D01*
X108318889Y-114185763D01*
X108305491Y-114190556D01*
X108291688Y-114194014D01*
X108277612Y-114196102D01*
X108263400Y-114196800D01*
X107973400Y-114196800D01*
X107959188Y-114196102D01*
X107945112Y-114194014D01*
X107931309Y-114190556D01*
X107917911Y-114185763D01*
X107905047Y-114179679D01*
X107892842Y-114172363D01*
X107881413Y-114163887D01*
X107870870Y-114154330D01*
X107861313Y-114143787D01*
X107852837Y-114132358D01*
X107845521Y-114120153D01*
X107839437Y-114107289D01*
X107834644Y-114093891D01*
X107831186Y-114080088D01*
X107829098Y-114066012D01*
X107828400Y-114051800D01*
X107828400Y-113711800D01*
X107829098Y-113697588D01*
X107831186Y-113683512D01*
X107834644Y-113669709D01*
X107839437Y-113656311D01*
X107845521Y-113643447D01*
X107852837Y-113631242D01*
X107861313Y-113619813D01*
X107870870Y-113609270D01*
X107881413Y-113599713D01*
X107892842Y-113591237D01*
X107905047Y-113583921D01*
X107917911Y-113577837D01*
X107931309Y-113573044D01*
X107945112Y-113569586D01*
X107959188Y-113567498D01*
X107973400Y-113566800D01*
X108263400Y-113566800D01*
X108277612Y-113567498D01*
X108277612Y-113567498D01*
G37*
D22*
X108118400Y-113881800D03*
D10*
G36*
X107387612Y-113567498D02*
G01*
X107401688Y-113569586D01*
X107415491Y-113573044D01*
X107428889Y-113577837D01*
X107441753Y-113583921D01*
X107453958Y-113591237D01*
X107465387Y-113599713D01*
X107475930Y-113609270D01*
X107485487Y-113619813D01*
X107493963Y-113631242D01*
X107501279Y-113643447D01*
X107507363Y-113656311D01*
X107512156Y-113669709D01*
X107515614Y-113683512D01*
X107517702Y-113697588D01*
X107518400Y-113711800D01*
X107518400Y-114051800D01*
X107517702Y-114066012D01*
X107515614Y-114080088D01*
X107512156Y-114093891D01*
X107507363Y-114107289D01*
X107501279Y-114120153D01*
X107493963Y-114132358D01*
X107485487Y-114143787D01*
X107475930Y-114154330D01*
X107465387Y-114163887D01*
X107453958Y-114172363D01*
X107441753Y-114179679D01*
X107428889Y-114185763D01*
X107415491Y-114190556D01*
X107401688Y-114194014D01*
X107387612Y-114196102D01*
X107373400Y-114196800D01*
X107083400Y-114196800D01*
X107069188Y-114196102D01*
X107055112Y-114194014D01*
X107041309Y-114190556D01*
X107027911Y-114185763D01*
X107015047Y-114179679D01*
X107002842Y-114172363D01*
X106991413Y-114163887D01*
X106980870Y-114154330D01*
X106971313Y-114143787D01*
X106962837Y-114132358D01*
X106955521Y-114120153D01*
X106949437Y-114107289D01*
X106944644Y-114093891D01*
X106941186Y-114080088D01*
X106939098Y-114066012D01*
X106938400Y-114051800D01*
X106938400Y-113711800D01*
X106939098Y-113697588D01*
X106941186Y-113683512D01*
X106944644Y-113669709D01*
X106949437Y-113656311D01*
X106955521Y-113643447D01*
X106962837Y-113631242D01*
X106971313Y-113619813D01*
X106980870Y-113609270D01*
X106991413Y-113599713D01*
X107002842Y-113591237D01*
X107015047Y-113583921D01*
X107027911Y-113577837D01*
X107041309Y-113573044D01*
X107055112Y-113569586D01*
X107069188Y-113567498D01*
X107083400Y-113566800D01*
X107373400Y-113566800D01*
X107387612Y-113567498D01*
X107387612Y-113567498D01*
G37*
D22*
X107228400Y-113881800D03*
D10*
G36*
X101306896Y-114499573D02*
G01*
X101314419Y-114500689D01*
X101321797Y-114502537D01*
X101328958Y-114505099D01*
X101335833Y-114508351D01*
X101342357Y-114512261D01*
X101348465Y-114516792D01*
X101354101Y-114521899D01*
X101359208Y-114527535D01*
X101363739Y-114533643D01*
X101367649Y-114540167D01*
X101370901Y-114547042D01*
X101373463Y-114554203D01*
X101375311Y-114561581D01*
X101376427Y-114569104D01*
X101376800Y-114576700D01*
X101376800Y-114761700D01*
X101376427Y-114769296D01*
X101375311Y-114776819D01*
X101373463Y-114784197D01*
X101370901Y-114791358D01*
X101367649Y-114798233D01*
X101363739Y-114804757D01*
X101359208Y-114810865D01*
X101354101Y-114816501D01*
X101348465Y-114821608D01*
X101342357Y-114826139D01*
X101335833Y-114830049D01*
X101328958Y-114833301D01*
X101321797Y-114835863D01*
X101314419Y-114837711D01*
X101306896Y-114838827D01*
X101299300Y-114839200D01*
X101144300Y-114839200D01*
X101136704Y-114838827D01*
X101129181Y-114837711D01*
X101121803Y-114835863D01*
X101114642Y-114833301D01*
X101107767Y-114830049D01*
X101101243Y-114826139D01*
X101095135Y-114821608D01*
X101089499Y-114816501D01*
X101084392Y-114810865D01*
X101079861Y-114804757D01*
X101075951Y-114798233D01*
X101072699Y-114791358D01*
X101070137Y-114784197D01*
X101068289Y-114776819D01*
X101067173Y-114769296D01*
X101066800Y-114761700D01*
X101066800Y-114576700D01*
X101067173Y-114569104D01*
X101068289Y-114561581D01*
X101070137Y-114554203D01*
X101072699Y-114547042D01*
X101075951Y-114540167D01*
X101079861Y-114533643D01*
X101084392Y-114527535D01*
X101089499Y-114521899D01*
X101095135Y-114516792D01*
X101101243Y-114512261D01*
X101107767Y-114508351D01*
X101114642Y-114505099D01*
X101121803Y-114502537D01*
X101129181Y-114500689D01*
X101136704Y-114499573D01*
X101144300Y-114499200D01*
X101299300Y-114499200D01*
X101306896Y-114499573D01*
X101306896Y-114499573D01*
G37*
D11*
X101221800Y-114669200D03*
D10*
G36*
X101856896Y-114499573D02*
G01*
X101864419Y-114500689D01*
X101871797Y-114502537D01*
X101878958Y-114505099D01*
X101885833Y-114508351D01*
X101892357Y-114512261D01*
X101898465Y-114516792D01*
X101904101Y-114521899D01*
X101909208Y-114527535D01*
X101913739Y-114533643D01*
X101917649Y-114540167D01*
X101920901Y-114547042D01*
X101923463Y-114554203D01*
X101925311Y-114561581D01*
X101926427Y-114569104D01*
X101926800Y-114576700D01*
X101926800Y-114761700D01*
X101926427Y-114769296D01*
X101925311Y-114776819D01*
X101923463Y-114784197D01*
X101920901Y-114791358D01*
X101917649Y-114798233D01*
X101913739Y-114804757D01*
X101909208Y-114810865D01*
X101904101Y-114816501D01*
X101898465Y-114821608D01*
X101892357Y-114826139D01*
X101885833Y-114830049D01*
X101878958Y-114833301D01*
X101871797Y-114835863D01*
X101864419Y-114837711D01*
X101856896Y-114838827D01*
X101849300Y-114839200D01*
X101694300Y-114839200D01*
X101686704Y-114838827D01*
X101679181Y-114837711D01*
X101671803Y-114835863D01*
X101664642Y-114833301D01*
X101657767Y-114830049D01*
X101651243Y-114826139D01*
X101645135Y-114821608D01*
X101639499Y-114816501D01*
X101634392Y-114810865D01*
X101629861Y-114804757D01*
X101625951Y-114798233D01*
X101622699Y-114791358D01*
X101620137Y-114784197D01*
X101618289Y-114776819D01*
X101617173Y-114769296D01*
X101616800Y-114761700D01*
X101616800Y-114576700D01*
X101617173Y-114569104D01*
X101618289Y-114561581D01*
X101620137Y-114554203D01*
X101622699Y-114547042D01*
X101625951Y-114540167D01*
X101629861Y-114533643D01*
X101634392Y-114527535D01*
X101639499Y-114521899D01*
X101645135Y-114516792D01*
X101651243Y-114512261D01*
X101657767Y-114508351D01*
X101664642Y-114505099D01*
X101671803Y-114502537D01*
X101679181Y-114500689D01*
X101686704Y-114499573D01*
X101694300Y-114499200D01*
X101849300Y-114499200D01*
X101856896Y-114499573D01*
X101856896Y-114499573D01*
G37*
D11*
X101771800Y-114669200D03*
D24*
X99489400Y-113890600D03*
X101379400Y-113890600D03*
X101379400Y-112450600D03*
X99489400Y-112450600D03*
D10*
G36*
X106848496Y-109470373D02*
G01*
X106856019Y-109471489D01*
X106863397Y-109473337D01*
X106870558Y-109475899D01*
X106877433Y-109479151D01*
X106883957Y-109483061D01*
X106890065Y-109487592D01*
X106895701Y-109492699D01*
X106900808Y-109498335D01*
X106905339Y-109504443D01*
X106909249Y-109510967D01*
X106912501Y-109517842D01*
X106915063Y-109525003D01*
X106916911Y-109532381D01*
X106918027Y-109539904D01*
X106918400Y-109547500D01*
X106918400Y-109732500D01*
X106918027Y-109740096D01*
X106916911Y-109747619D01*
X106915063Y-109754997D01*
X106912501Y-109762158D01*
X106909249Y-109769033D01*
X106905339Y-109775557D01*
X106900808Y-109781665D01*
X106895701Y-109787301D01*
X106890065Y-109792408D01*
X106883957Y-109796939D01*
X106877433Y-109800849D01*
X106870558Y-109804101D01*
X106863397Y-109806663D01*
X106856019Y-109808511D01*
X106848496Y-109809627D01*
X106840900Y-109810000D01*
X106685900Y-109810000D01*
X106678304Y-109809627D01*
X106670781Y-109808511D01*
X106663403Y-109806663D01*
X106656242Y-109804101D01*
X106649367Y-109800849D01*
X106642843Y-109796939D01*
X106636735Y-109792408D01*
X106631099Y-109787301D01*
X106625992Y-109781665D01*
X106621461Y-109775557D01*
X106617551Y-109769033D01*
X106614299Y-109762158D01*
X106611737Y-109754997D01*
X106609889Y-109747619D01*
X106608773Y-109740096D01*
X106608400Y-109732500D01*
X106608400Y-109547500D01*
X106608773Y-109539904D01*
X106609889Y-109532381D01*
X106611737Y-109525003D01*
X106614299Y-109517842D01*
X106617551Y-109510967D01*
X106621461Y-109504443D01*
X106625992Y-109498335D01*
X106631099Y-109492699D01*
X106636735Y-109487592D01*
X106642843Y-109483061D01*
X106649367Y-109479151D01*
X106656242Y-109475899D01*
X106663403Y-109473337D01*
X106670781Y-109471489D01*
X106678304Y-109470373D01*
X106685900Y-109470000D01*
X106840900Y-109470000D01*
X106848496Y-109470373D01*
X106848496Y-109470373D01*
G37*
D11*
X106763400Y-109640000D03*
D10*
G36*
X107398496Y-109470373D02*
G01*
X107406019Y-109471489D01*
X107413397Y-109473337D01*
X107420558Y-109475899D01*
X107427433Y-109479151D01*
X107433957Y-109483061D01*
X107440065Y-109487592D01*
X107445701Y-109492699D01*
X107450808Y-109498335D01*
X107455339Y-109504443D01*
X107459249Y-109510967D01*
X107462501Y-109517842D01*
X107465063Y-109525003D01*
X107466911Y-109532381D01*
X107468027Y-109539904D01*
X107468400Y-109547500D01*
X107468400Y-109732500D01*
X107468027Y-109740096D01*
X107466911Y-109747619D01*
X107465063Y-109754997D01*
X107462501Y-109762158D01*
X107459249Y-109769033D01*
X107455339Y-109775557D01*
X107450808Y-109781665D01*
X107445701Y-109787301D01*
X107440065Y-109792408D01*
X107433957Y-109796939D01*
X107427433Y-109800849D01*
X107420558Y-109804101D01*
X107413397Y-109806663D01*
X107406019Y-109808511D01*
X107398496Y-109809627D01*
X107390900Y-109810000D01*
X107235900Y-109810000D01*
X107228304Y-109809627D01*
X107220781Y-109808511D01*
X107213403Y-109806663D01*
X107206242Y-109804101D01*
X107199367Y-109800849D01*
X107192843Y-109796939D01*
X107186735Y-109792408D01*
X107181099Y-109787301D01*
X107175992Y-109781665D01*
X107171461Y-109775557D01*
X107167551Y-109769033D01*
X107164299Y-109762158D01*
X107161737Y-109754997D01*
X107159889Y-109747619D01*
X107158773Y-109740096D01*
X107158400Y-109732500D01*
X107158400Y-109547500D01*
X107158773Y-109539904D01*
X107159889Y-109532381D01*
X107161737Y-109525003D01*
X107164299Y-109517842D01*
X107167551Y-109510967D01*
X107171461Y-109504443D01*
X107175992Y-109498335D01*
X107181099Y-109492699D01*
X107186735Y-109487592D01*
X107192843Y-109483061D01*
X107199367Y-109479151D01*
X107206242Y-109475899D01*
X107213403Y-109473337D01*
X107220781Y-109471489D01*
X107228304Y-109470373D01*
X107235900Y-109470000D01*
X107390900Y-109470000D01*
X107398496Y-109470373D01*
X107398496Y-109470373D01*
G37*
D11*
X107313400Y-109640000D03*
D19*
X118842800Y-115987200D03*
X114169200Y-110137200D03*
D10*
G36*
X104000896Y-129887773D02*
G01*
X104008419Y-129888889D01*
X104015797Y-129890737D01*
X104022958Y-129893299D01*
X104029833Y-129896551D01*
X104036357Y-129900461D01*
X104042465Y-129904992D01*
X104048101Y-129910099D01*
X104053208Y-129915735D01*
X104057739Y-129921843D01*
X104061649Y-129928367D01*
X104064901Y-129935242D01*
X104067463Y-129942403D01*
X104069311Y-129949781D01*
X104070427Y-129957304D01*
X104070800Y-129964900D01*
X104070800Y-130149900D01*
X104070427Y-130157496D01*
X104069311Y-130165019D01*
X104067463Y-130172397D01*
X104064901Y-130179558D01*
X104061649Y-130186433D01*
X104057739Y-130192957D01*
X104053208Y-130199065D01*
X104048101Y-130204701D01*
X104042465Y-130209808D01*
X104036357Y-130214339D01*
X104029833Y-130218249D01*
X104022958Y-130221501D01*
X104015797Y-130224063D01*
X104008419Y-130225911D01*
X104000896Y-130227027D01*
X103993300Y-130227400D01*
X103838300Y-130227400D01*
X103830704Y-130227027D01*
X103823181Y-130225911D01*
X103815803Y-130224063D01*
X103808642Y-130221501D01*
X103801767Y-130218249D01*
X103795243Y-130214339D01*
X103789135Y-130209808D01*
X103783499Y-130204701D01*
X103778392Y-130199065D01*
X103773861Y-130192957D01*
X103769951Y-130186433D01*
X103766699Y-130179558D01*
X103764137Y-130172397D01*
X103762289Y-130165019D01*
X103761173Y-130157496D01*
X103760800Y-130149900D01*
X103760800Y-129964900D01*
X103761173Y-129957304D01*
X103762289Y-129949781D01*
X103764137Y-129942403D01*
X103766699Y-129935242D01*
X103769951Y-129928367D01*
X103773861Y-129921843D01*
X103778392Y-129915735D01*
X103783499Y-129910099D01*
X103789135Y-129904992D01*
X103795243Y-129900461D01*
X103801767Y-129896551D01*
X103808642Y-129893299D01*
X103815803Y-129890737D01*
X103823181Y-129888889D01*
X103830704Y-129887773D01*
X103838300Y-129887400D01*
X103993300Y-129887400D01*
X104000896Y-129887773D01*
X104000896Y-129887773D01*
G37*
D11*
X103915800Y-130057400D03*
D10*
G36*
X104550896Y-129887773D02*
G01*
X104558419Y-129888889D01*
X104565797Y-129890737D01*
X104572958Y-129893299D01*
X104579833Y-129896551D01*
X104586357Y-129900461D01*
X104592465Y-129904992D01*
X104598101Y-129910099D01*
X104603208Y-129915735D01*
X104607739Y-129921843D01*
X104611649Y-129928367D01*
X104614901Y-129935242D01*
X104617463Y-129942403D01*
X104619311Y-129949781D01*
X104620427Y-129957304D01*
X104620800Y-129964900D01*
X104620800Y-130149900D01*
X104620427Y-130157496D01*
X104619311Y-130165019D01*
X104617463Y-130172397D01*
X104614901Y-130179558D01*
X104611649Y-130186433D01*
X104607739Y-130192957D01*
X104603208Y-130199065D01*
X104598101Y-130204701D01*
X104592465Y-130209808D01*
X104586357Y-130214339D01*
X104579833Y-130218249D01*
X104572958Y-130221501D01*
X104565797Y-130224063D01*
X104558419Y-130225911D01*
X104550896Y-130227027D01*
X104543300Y-130227400D01*
X104388300Y-130227400D01*
X104380704Y-130227027D01*
X104373181Y-130225911D01*
X104365803Y-130224063D01*
X104358642Y-130221501D01*
X104351767Y-130218249D01*
X104345243Y-130214339D01*
X104339135Y-130209808D01*
X104333499Y-130204701D01*
X104328392Y-130199065D01*
X104323861Y-130192957D01*
X104319951Y-130186433D01*
X104316699Y-130179558D01*
X104314137Y-130172397D01*
X104312289Y-130165019D01*
X104311173Y-130157496D01*
X104310800Y-130149900D01*
X104310800Y-129964900D01*
X104311173Y-129957304D01*
X104312289Y-129949781D01*
X104314137Y-129942403D01*
X104316699Y-129935242D01*
X104319951Y-129928367D01*
X104323861Y-129921843D01*
X104328392Y-129915735D01*
X104333499Y-129910099D01*
X104339135Y-129904992D01*
X104345243Y-129900461D01*
X104351767Y-129896551D01*
X104358642Y-129893299D01*
X104365803Y-129890737D01*
X104373181Y-129888889D01*
X104380704Y-129887773D01*
X104388300Y-129887400D01*
X104543300Y-129887400D01*
X104550896Y-129887773D01*
X104550896Y-129887773D01*
G37*
D11*
X104465800Y-130057400D03*
D10*
G36*
X106147296Y-129890573D02*
G01*
X106154819Y-129891689D01*
X106162197Y-129893537D01*
X106169358Y-129896099D01*
X106176233Y-129899351D01*
X106182757Y-129903261D01*
X106188865Y-129907792D01*
X106194501Y-129912899D01*
X106199608Y-129918535D01*
X106204139Y-129924643D01*
X106208049Y-129931167D01*
X106211301Y-129938042D01*
X106213863Y-129945203D01*
X106215711Y-129952581D01*
X106216827Y-129960104D01*
X106217200Y-129967700D01*
X106217200Y-130152700D01*
X106216827Y-130160296D01*
X106215711Y-130167819D01*
X106213863Y-130175197D01*
X106211301Y-130182358D01*
X106208049Y-130189233D01*
X106204139Y-130195757D01*
X106199608Y-130201865D01*
X106194501Y-130207501D01*
X106188865Y-130212608D01*
X106182757Y-130217139D01*
X106176233Y-130221049D01*
X106169358Y-130224301D01*
X106162197Y-130226863D01*
X106154819Y-130228711D01*
X106147296Y-130229827D01*
X106139700Y-130230200D01*
X105984700Y-130230200D01*
X105977104Y-130229827D01*
X105969581Y-130228711D01*
X105962203Y-130226863D01*
X105955042Y-130224301D01*
X105948167Y-130221049D01*
X105941643Y-130217139D01*
X105935535Y-130212608D01*
X105929899Y-130207501D01*
X105924792Y-130201865D01*
X105920261Y-130195757D01*
X105916351Y-130189233D01*
X105913099Y-130182358D01*
X105910537Y-130175197D01*
X105908689Y-130167819D01*
X105907573Y-130160296D01*
X105907200Y-130152700D01*
X105907200Y-129967700D01*
X105907573Y-129960104D01*
X105908689Y-129952581D01*
X105910537Y-129945203D01*
X105913099Y-129938042D01*
X105916351Y-129931167D01*
X105920261Y-129924643D01*
X105924792Y-129918535D01*
X105929899Y-129912899D01*
X105935535Y-129907792D01*
X105941643Y-129903261D01*
X105948167Y-129899351D01*
X105955042Y-129896099D01*
X105962203Y-129893537D01*
X105969581Y-129891689D01*
X105977104Y-129890573D01*
X105984700Y-129890200D01*
X106139700Y-129890200D01*
X106147296Y-129890573D01*
X106147296Y-129890573D01*
G37*
D11*
X106062200Y-130060200D03*
D10*
G36*
X105597296Y-129890573D02*
G01*
X105604819Y-129891689D01*
X105612197Y-129893537D01*
X105619358Y-129896099D01*
X105626233Y-129899351D01*
X105632757Y-129903261D01*
X105638865Y-129907792D01*
X105644501Y-129912899D01*
X105649608Y-129918535D01*
X105654139Y-129924643D01*
X105658049Y-129931167D01*
X105661301Y-129938042D01*
X105663863Y-129945203D01*
X105665711Y-129952581D01*
X105666827Y-129960104D01*
X105667200Y-129967700D01*
X105667200Y-130152700D01*
X105666827Y-130160296D01*
X105665711Y-130167819D01*
X105663863Y-130175197D01*
X105661301Y-130182358D01*
X105658049Y-130189233D01*
X105654139Y-130195757D01*
X105649608Y-130201865D01*
X105644501Y-130207501D01*
X105638865Y-130212608D01*
X105632757Y-130217139D01*
X105626233Y-130221049D01*
X105619358Y-130224301D01*
X105612197Y-130226863D01*
X105604819Y-130228711D01*
X105597296Y-130229827D01*
X105589700Y-130230200D01*
X105434700Y-130230200D01*
X105427104Y-130229827D01*
X105419581Y-130228711D01*
X105412203Y-130226863D01*
X105405042Y-130224301D01*
X105398167Y-130221049D01*
X105391643Y-130217139D01*
X105385535Y-130212608D01*
X105379899Y-130207501D01*
X105374792Y-130201865D01*
X105370261Y-130195757D01*
X105366351Y-130189233D01*
X105363099Y-130182358D01*
X105360537Y-130175197D01*
X105358689Y-130167819D01*
X105357573Y-130160296D01*
X105357200Y-130152700D01*
X105357200Y-129967700D01*
X105357573Y-129960104D01*
X105358689Y-129952581D01*
X105360537Y-129945203D01*
X105363099Y-129938042D01*
X105366351Y-129931167D01*
X105370261Y-129924643D01*
X105374792Y-129918535D01*
X105379899Y-129912899D01*
X105385535Y-129907792D01*
X105391643Y-129903261D01*
X105398167Y-129899351D01*
X105405042Y-129896099D01*
X105412203Y-129893537D01*
X105419581Y-129891689D01*
X105427104Y-129890573D01*
X105434700Y-129890200D01*
X105589700Y-129890200D01*
X105597296Y-129890573D01*
X105597296Y-129890573D01*
G37*
D11*
X105512200Y-130060200D03*
D10*
G36*
X99854696Y-111451573D02*
G01*
X99862219Y-111452689D01*
X99869597Y-111454537D01*
X99876758Y-111457099D01*
X99883633Y-111460351D01*
X99890157Y-111464261D01*
X99896265Y-111468792D01*
X99901901Y-111473899D01*
X99907008Y-111479535D01*
X99911539Y-111485643D01*
X99915449Y-111492167D01*
X99918701Y-111499042D01*
X99921263Y-111506203D01*
X99923111Y-111513581D01*
X99924227Y-111521104D01*
X99924600Y-111528700D01*
X99924600Y-111713700D01*
X99924227Y-111721296D01*
X99923111Y-111728819D01*
X99921263Y-111736197D01*
X99918701Y-111743358D01*
X99915449Y-111750233D01*
X99911539Y-111756757D01*
X99907008Y-111762865D01*
X99901901Y-111768501D01*
X99896265Y-111773608D01*
X99890157Y-111778139D01*
X99883633Y-111782049D01*
X99876758Y-111785301D01*
X99869597Y-111787863D01*
X99862219Y-111789711D01*
X99854696Y-111790827D01*
X99847100Y-111791200D01*
X99692100Y-111791200D01*
X99684504Y-111790827D01*
X99676981Y-111789711D01*
X99669603Y-111787863D01*
X99662442Y-111785301D01*
X99655567Y-111782049D01*
X99649043Y-111778139D01*
X99642935Y-111773608D01*
X99637299Y-111768501D01*
X99632192Y-111762865D01*
X99627661Y-111756757D01*
X99623751Y-111750233D01*
X99620499Y-111743358D01*
X99617937Y-111736197D01*
X99616089Y-111728819D01*
X99614973Y-111721296D01*
X99614600Y-111713700D01*
X99614600Y-111528700D01*
X99614973Y-111521104D01*
X99616089Y-111513581D01*
X99617937Y-111506203D01*
X99620499Y-111499042D01*
X99623751Y-111492167D01*
X99627661Y-111485643D01*
X99632192Y-111479535D01*
X99637299Y-111473899D01*
X99642935Y-111468792D01*
X99649043Y-111464261D01*
X99655567Y-111460351D01*
X99662442Y-111457099D01*
X99669603Y-111454537D01*
X99676981Y-111452689D01*
X99684504Y-111451573D01*
X99692100Y-111451200D01*
X99847100Y-111451200D01*
X99854696Y-111451573D01*
X99854696Y-111451573D01*
G37*
D11*
X99769600Y-111621200D03*
D10*
G36*
X99304696Y-111451573D02*
G01*
X99312219Y-111452689D01*
X99319597Y-111454537D01*
X99326758Y-111457099D01*
X99333633Y-111460351D01*
X99340157Y-111464261D01*
X99346265Y-111468792D01*
X99351901Y-111473899D01*
X99357008Y-111479535D01*
X99361539Y-111485643D01*
X99365449Y-111492167D01*
X99368701Y-111499042D01*
X99371263Y-111506203D01*
X99373111Y-111513581D01*
X99374227Y-111521104D01*
X99374600Y-111528700D01*
X99374600Y-111713700D01*
X99374227Y-111721296D01*
X99373111Y-111728819D01*
X99371263Y-111736197D01*
X99368701Y-111743358D01*
X99365449Y-111750233D01*
X99361539Y-111756757D01*
X99357008Y-111762865D01*
X99351901Y-111768501D01*
X99346265Y-111773608D01*
X99340157Y-111778139D01*
X99333633Y-111782049D01*
X99326758Y-111785301D01*
X99319597Y-111787863D01*
X99312219Y-111789711D01*
X99304696Y-111790827D01*
X99297100Y-111791200D01*
X99142100Y-111791200D01*
X99134504Y-111790827D01*
X99126981Y-111789711D01*
X99119603Y-111787863D01*
X99112442Y-111785301D01*
X99105567Y-111782049D01*
X99099043Y-111778139D01*
X99092935Y-111773608D01*
X99087299Y-111768501D01*
X99082192Y-111762865D01*
X99077661Y-111756757D01*
X99073751Y-111750233D01*
X99070499Y-111743358D01*
X99067937Y-111736197D01*
X99066089Y-111728819D01*
X99064973Y-111721296D01*
X99064600Y-111713700D01*
X99064600Y-111528700D01*
X99064973Y-111521104D01*
X99066089Y-111513581D01*
X99067937Y-111506203D01*
X99070499Y-111499042D01*
X99073751Y-111492167D01*
X99077661Y-111485643D01*
X99082192Y-111479535D01*
X99087299Y-111473899D01*
X99092935Y-111468792D01*
X99099043Y-111464261D01*
X99105567Y-111460351D01*
X99112442Y-111457099D01*
X99119603Y-111454537D01*
X99126981Y-111452689D01*
X99134504Y-111451573D01*
X99142100Y-111451200D01*
X99297100Y-111451200D01*
X99304696Y-111451573D01*
X99304696Y-111451573D01*
G37*
D11*
X99219600Y-111621200D03*
D10*
G36*
X103290309Y-110298671D02*
G01*
X103311908Y-110301875D01*
X103333088Y-110307181D01*
X103353647Y-110314537D01*
X103373386Y-110323873D01*
X103392114Y-110335098D01*
X103409653Y-110348105D01*
X103425831Y-110362769D01*
X103440495Y-110378947D01*
X103453502Y-110396486D01*
X103464727Y-110415214D01*
X103474063Y-110434953D01*
X103481419Y-110455512D01*
X103486725Y-110476692D01*
X103489929Y-110498291D01*
X103491000Y-110520100D01*
X103491000Y-110995100D01*
X103489929Y-111016909D01*
X103486725Y-111038508D01*
X103481419Y-111059688D01*
X103474063Y-111080247D01*
X103464727Y-111099986D01*
X103453502Y-111118714D01*
X103440495Y-111136253D01*
X103425831Y-111152431D01*
X103409653Y-111167095D01*
X103392114Y-111180102D01*
X103373386Y-111191327D01*
X103353647Y-111200663D01*
X103333088Y-111208019D01*
X103311908Y-111213325D01*
X103290309Y-111216529D01*
X103268500Y-111217600D01*
X102823500Y-111217600D01*
X102801691Y-111216529D01*
X102780092Y-111213325D01*
X102758912Y-111208019D01*
X102738353Y-111200663D01*
X102718614Y-111191327D01*
X102699886Y-111180102D01*
X102682347Y-111167095D01*
X102666169Y-111152431D01*
X102651505Y-111136253D01*
X102638498Y-111118714D01*
X102627273Y-111099986D01*
X102617937Y-111080247D01*
X102610581Y-111059688D01*
X102605275Y-111038508D01*
X102602071Y-111016909D01*
X102601000Y-110995100D01*
X102601000Y-110520100D01*
X102602071Y-110498291D01*
X102605275Y-110476692D01*
X102610581Y-110455512D01*
X102617937Y-110434953D01*
X102627273Y-110415214D01*
X102638498Y-110396486D01*
X102651505Y-110378947D01*
X102666169Y-110362769D01*
X102682347Y-110348105D01*
X102699886Y-110335098D01*
X102718614Y-110323873D01*
X102738353Y-110314537D01*
X102758912Y-110307181D01*
X102780092Y-110301875D01*
X102801691Y-110298671D01*
X102823500Y-110297600D01*
X103268500Y-110297600D01*
X103290309Y-110298671D01*
X103290309Y-110298671D01*
G37*
D25*
X103046000Y-110757600D03*
D10*
G36*
X104620309Y-110298671D02*
G01*
X104641908Y-110301875D01*
X104663088Y-110307181D01*
X104683647Y-110314537D01*
X104703386Y-110323873D01*
X104722114Y-110335098D01*
X104739653Y-110348105D01*
X104755831Y-110362769D01*
X104770495Y-110378947D01*
X104783502Y-110396486D01*
X104794727Y-110415214D01*
X104804063Y-110434953D01*
X104811419Y-110455512D01*
X104816725Y-110476692D01*
X104819929Y-110498291D01*
X104821000Y-110520100D01*
X104821000Y-110995100D01*
X104819929Y-111016909D01*
X104816725Y-111038508D01*
X104811419Y-111059688D01*
X104804063Y-111080247D01*
X104794727Y-111099986D01*
X104783502Y-111118714D01*
X104770495Y-111136253D01*
X104755831Y-111152431D01*
X104739653Y-111167095D01*
X104722114Y-111180102D01*
X104703386Y-111191327D01*
X104683647Y-111200663D01*
X104663088Y-111208019D01*
X104641908Y-111213325D01*
X104620309Y-111216529D01*
X104598500Y-111217600D01*
X104153500Y-111217600D01*
X104131691Y-111216529D01*
X104110092Y-111213325D01*
X104088912Y-111208019D01*
X104068353Y-111200663D01*
X104048614Y-111191327D01*
X104029886Y-111180102D01*
X104012347Y-111167095D01*
X103996169Y-111152431D01*
X103981505Y-111136253D01*
X103968498Y-111118714D01*
X103957273Y-111099986D01*
X103947937Y-111080247D01*
X103940581Y-111059688D01*
X103935275Y-111038508D01*
X103932071Y-111016909D01*
X103931000Y-110995100D01*
X103931000Y-110520100D01*
X103932071Y-110498291D01*
X103935275Y-110476692D01*
X103940581Y-110455512D01*
X103947937Y-110434953D01*
X103957273Y-110415214D01*
X103968498Y-110396486D01*
X103981505Y-110378947D01*
X103996169Y-110362769D01*
X104012347Y-110348105D01*
X104029886Y-110335098D01*
X104048614Y-110323873D01*
X104068353Y-110314537D01*
X104088912Y-110307181D01*
X104110092Y-110301875D01*
X104131691Y-110298671D01*
X104153500Y-110297600D01*
X104598500Y-110297600D01*
X104620309Y-110298671D01*
X104620309Y-110298671D01*
G37*
D25*
X104376000Y-110757600D03*
D10*
G36*
X108256309Y-114444671D02*
G01*
X108277908Y-114447875D01*
X108299088Y-114453181D01*
X108319647Y-114460537D01*
X108339386Y-114469873D01*
X108358114Y-114481098D01*
X108375653Y-114494105D01*
X108391831Y-114508769D01*
X108406495Y-114524947D01*
X108419502Y-114542486D01*
X108430727Y-114561214D01*
X108440063Y-114580953D01*
X108447419Y-114601512D01*
X108452725Y-114622692D01*
X108455929Y-114644291D01*
X108457000Y-114666100D01*
X108457000Y-115111100D01*
X108455929Y-115132909D01*
X108452725Y-115154508D01*
X108447419Y-115175688D01*
X108440063Y-115196247D01*
X108430727Y-115215986D01*
X108419502Y-115234714D01*
X108406495Y-115252253D01*
X108391831Y-115268431D01*
X108375653Y-115283095D01*
X108358114Y-115296102D01*
X108339386Y-115307327D01*
X108319647Y-115316663D01*
X108299088Y-115324019D01*
X108277908Y-115329325D01*
X108256309Y-115332529D01*
X108234500Y-115333600D01*
X107759500Y-115333600D01*
X107737691Y-115332529D01*
X107716092Y-115329325D01*
X107694912Y-115324019D01*
X107674353Y-115316663D01*
X107654614Y-115307327D01*
X107635886Y-115296102D01*
X107618347Y-115283095D01*
X107602169Y-115268431D01*
X107587505Y-115252253D01*
X107574498Y-115234714D01*
X107563273Y-115215986D01*
X107553937Y-115196247D01*
X107546581Y-115175688D01*
X107541275Y-115154508D01*
X107538071Y-115132909D01*
X107537000Y-115111100D01*
X107537000Y-114666100D01*
X107538071Y-114644291D01*
X107541275Y-114622692D01*
X107546581Y-114601512D01*
X107553937Y-114580953D01*
X107563273Y-114561214D01*
X107574498Y-114542486D01*
X107587505Y-114524947D01*
X107602169Y-114508769D01*
X107618347Y-114494105D01*
X107635886Y-114481098D01*
X107654614Y-114469873D01*
X107674353Y-114460537D01*
X107694912Y-114453181D01*
X107716092Y-114447875D01*
X107737691Y-114444671D01*
X107759500Y-114443600D01*
X108234500Y-114443600D01*
X108256309Y-114444671D01*
X108256309Y-114444671D01*
G37*
D25*
X107997000Y-114888600D03*
D10*
G36*
X108256309Y-115774671D02*
G01*
X108277908Y-115777875D01*
X108299088Y-115783181D01*
X108319647Y-115790537D01*
X108339386Y-115799873D01*
X108358114Y-115811098D01*
X108375653Y-115824105D01*
X108391831Y-115838769D01*
X108406495Y-115854947D01*
X108419502Y-115872486D01*
X108430727Y-115891214D01*
X108440063Y-115910953D01*
X108447419Y-115931512D01*
X108452725Y-115952692D01*
X108455929Y-115974291D01*
X108457000Y-115996100D01*
X108457000Y-116441100D01*
X108455929Y-116462909D01*
X108452725Y-116484508D01*
X108447419Y-116505688D01*
X108440063Y-116526247D01*
X108430727Y-116545986D01*
X108419502Y-116564714D01*
X108406495Y-116582253D01*
X108391831Y-116598431D01*
X108375653Y-116613095D01*
X108358114Y-116626102D01*
X108339386Y-116637327D01*
X108319647Y-116646663D01*
X108299088Y-116654019D01*
X108277908Y-116659325D01*
X108256309Y-116662529D01*
X108234500Y-116663600D01*
X107759500Y-116663600D01*
X107737691Y-116662529D01*
X107716092Y-116659325D01*
X107694912Y-116654019D01*
X107674353Y-116646663D01*
X107654614Y-116637327D01*
X107635886Y-116626102D01*
X107618347Y-116613095D01*
X107602169Y-116598431D01*
X107587505Y-116582253D01*
X107574498Y-116564714D01*
X107563273Y-116545986D01*
X107553937Y-116526247D01*
X107546581Y-116505688D01*
X107541275Y-116484508D01*
X107538071Y-116462909D01*
X107537000Y-116441100D01*
X107537000Y-115996100D01*
X107538071Y-115974291D01*
X107541275Y-115952692D01*
X107546581Y-115931512D01*
X107553937Y-115910953D01*
X107563273Y-115891214D01*
X107574498Y-115872486D01*
X107587505Y-115854947D01*
X107602169Y-115838769D01*
X107618347Y-115824105D01*
X107635886Y-115811098D01*
X107654614Y-115799873D01*
X107674353Y-115790537D01*
X107694912Y-115783181D01*
X107716092Y-115777875D01*
X107737691Y-115774671D01*
X107759500Y-115773600D01*
X108234500Y-115773600D01*
X108256309Y-115774671D01*
X108256309Y-115774671D01*
G37*
D25*
X107997000Y-116218600D03*
D10*
G36*
X107102548Y-110323575D02*
G01*
X107122206Y-110326491D01*
X107141483Y-110331320D01*
X107160193Y-110338014D01*
X107178158Y-110346511D01*
X107195203Y-110356727D01*
X107211165Y-110368565D01*
X107225889Y-110381911D01*
X107239235Y-110396635D01*
X107251073Y-110412597D01*
X107261289Y-110429642D01*
X107269786Y-110447607D01*
X107276480Y-110466317D01*
X107281309Y-110485594D01*
X107284225Y-110505252D01*
X107285200Y-110525100D01*
X107285200Y-110990100D01*
X107284225Y-111009948D01*
X107281309Y-111029606D01*
X107276480Y-111048883D01*
X107269786Y-111067593D01*
X107261289Y-111085558D01*
X107251073Y-111102603D01*
X107239235Y-111118565D01*
X107225889Y-111133289D01*
X107211165Y-111146635D01*
X107195203Y-111158473D01*
X107178158Y-111168689D01*
X107160193Y-111177186D01*
X107141483Y-111183880D01*
X107122206Y-111188709D01*
X107102548Y-111191625D01*
X107082700Y-111192600D01*
X106677700Y-111192600D01*
X106657852Y-111191625D01*
X106638194Y-111188709D01*
X106618917Y-111183880D01*
X106600207Y-111177186D01*
X106582242Y-111168689D01*
X106565197Y-111158473D01*
X106549235Y-111146635D01*
X106534511Y-111133289D01*
X106521165Y-111118565D01*
X106509327Y-111102603D01*
X106499111Y-111085558D01*
X106490614Y-111067593D01*
X106483920Y-111048883D01*
X106479091Y-111029606D01*
X106476175Y-111009948D01*
X106475200Y-110990100D01*
X106475200Y-110525100D01*
X106476175Y-110505252D01*
X106479091Y-110485594D01*
X106483920Y-110466317D01*
X106490614Y-110447607D01*
X106499111Y-110429642D01*
X106509327Y-110412597D01*
X106521165Y-110396635D01*
X106534511Y-110381911D01*
X106549235Y-110368565D01*
X106565197Y-110356727D01*
X106582242Y-110346511D01*
X106600207Y-110338014D01*
X106618917Y-110331320D01*
X106638194Y-110326491D01*
X106657852Y-110323575D01*
X106677700Y-110322600D01*
X107082700Y-110322600D01*
X107102548Y-110323575D01*
X107102548Y-110323575D01*
G37*
D26*
X106880200Y-110757600D03*
D10*
G36*
X105742548Y-110323575D02*
G01*
X105762206Y-110326491D01*
X105781483Y-110331320D01*
X105800193Y-110338014D01*
X105818158Y-110346511D01*
X105835203Y-110356727D01*
X105851165Y-110368565D01*
X105865889Y-110381911D01*
X105879235Y-110396635D01*
X105891073Y-110412597D01*
X105901289Y-110429642D01*
X105909786Y-110447607D01*
X105916480Y-110466317D01*
X105921309Y-110485594D01*
X105924225Y-110505252D01*
X105925200Y-110525100D01*
X105925200Y-110990100D01*
X105924225Y-111009948D01*
X105921309Y-111029606D01*
X105916480Y-111048883D01*
X105909786Y-111067593D01*
X105901289Y-111085558D01*
X105891073Y-111102603D01*
X105879235Y-111118565D01*
X105865889Y-111133289D01*
X105851165Y-111146635D01*
X105835203Y-111158473D01*
X105818158Y-111168689D01*
X105800193Y-111177186D01*
X105781483Y-111183880D01*
X105762206Y-111188709D01*
X105742548Y-111191625D01*
X105722700Y-111192600D01*
X105317700Y-111192600D01*
X105297852Y-111191625D01*
X105278194Y-111188709D01*
X105258917Y-111183880D01*
X105240207Y-111177186D01*
X105222242Y-111168689D01*
X105205197Y-111158473D01*
X105189235Y-111146635D01*
X105174511Y-111133289D01*
X105161165Y-111118565D01*
X105149327Y-111102603D01*
X105139111Y-111085558D01*
X105130614Y-111067593D01*
X105123920Y-111048883D01*
X105119091Y-111029606D01*
X105116175Y-111009948D01*
X105115200Y-110990100D01*
X105115200Y-110525100D01*
X105116175Y-110505252D01*
X105119091Y-110485594D01*
X105123920Y-110466317D01*
X105130614Y-110447607D01*
X105139111Y-110429642D01*
X105149327Y-110412597D01*
X105161165Y-110396635D01*
X105174511Y-110381911D01*
X105189235Y-110368565D01*
X105205197Y-110356727D01*
X105222242Y-110346511D01*
X105240207Y-110338014D01*
X105258917Y-110331320D01*
X105278194Y-110326491D01*
X105297852Y-110323575D01*
X105317700Y-110322600D01*
X105722700Y-110322600D01*
X105742548Y-110323575D01*
X105742548Y-110323575D01*
G37*
D26*
X105520200Y-110757600D03*
D10*
G36*
X107413012Y-112678498D02*
G01*
X107427088Y-112680586D01*
X107440891Y-112684044D01*
X107454289Y-112688837D01*
X107467153Y-112694921D01*
X107479358Y-112702237D01*
X107490787Y-112710713D01*
X107501330Y-112720270D01*
X107510887Y-112730813D01*
X107519363Y-112742242D01*
X107526679Y-112754447D01*
X107532763Y-112767311D01*
X107537556Y-112780709D01*
X107541014Y-112794512D01*
X107543102Y-112808588D01*
X107543800Y-112822800D01*
X107543800Y-113162800D01*
X107543102Y-113177012D01*
X107541014Y-113191088D01*
X107537556Y-113204891D01*
X107532763Y-113218289D01*
X107526679Y-113231153D01*
X107519363Y-113243358D01*
X107510887Y-113254787D01*
X107501330Y-113265330D01*
X107490787Y-113274887D01*
X107479358Y-113283363D01*
X107467153Y-113290679D01*
X107454289Y-113296763D01*
X107440891Y-113301556D01*
X107427088Y-113305014D01*
X107413012Y-113307102D01*
X107398800Y-113307800D01*
X107108800Y-113307800D01*
X107094588Y-113307102D01*
X107080512Y-113305014D01*
X107066709Y-113301556D01*
X107053311Y-113296763D01*
X107040447Y-113290679D01*
X107028242Y-113283363D01*
X107016813Y-113274887D01*
X107006270Y-113265330D01*
X106996713Y-113254787D01*
X106988237Y-113243358D01*
X106980921Y-113231153D01*
X106974837Y-113218289D01*
X106970044Y-113204891D01*
X106966586Y-113191088D01*
X106964498Y-113177012D01*
X106963800Y-113162800D01*
X106963800Y-112822800D01*
X106964498Y-112808588D01*
X106966586Y-112794512D01*
X106970044Y-112780709D01*
X106974837Y-112767311D01*
X106980921Y-112754447D01*
X106988237Y-112742242D01*
X106996713Y-112730813D01*
X107006270Y-112720270D01*
X107016813Y-112710713D01*
X107028242Y-112702237D01*
X107040447Y-112694921D01*
X107053311Y-112688837D01*
X107066709Y-112684044D01*
X107080512Y-112680586D01*
X107094588Y-112678498D01*
X107108800Y-112677800D01*
X107398800Y-112677800D01*
X107413012Y-112678498D01*
X107413012Y-112678498D01*
G37*
D22*
X107253800Y-112992800D03*
D10*
G36*
X108303012Y-112678498D02*
G01*
X108317088Y-112680586D01*
X108330891Y-112684044D01*
X108344289Y-112688837D01*
X108357153Y-112694921D01*
X108369358Y-112702237D01*
X108380787Y-112710713D01*
X108391330Y-112720270D01*
X108400887Y-112730813D01*
X108409363Y-112742242D01*
X108416679Y-112754447D01*
X108422763Y-112767311D01*
X108427556Y-112780709D01*
X108431014Y-112794512D01*
X108433102Y-112808588D01*
X108433800Y-112822800D01*
X108433800Y-113162800D01*
X108433102Y-113177012D01*
X108431014Y-113191088D01*
X108427556Y-113204891D01*
X108422763Y-113218289D01*
X108416679Y-113231153D01*
X108409363Y-113243358D01*
X108400887Y-113254787D01*
X108391330Y-113265330D01*
X108380787Y-113274887D01*
X108369358Y-113283363D01*
X108357153Y-113290679D01*
X108344289Y-113296763D01*
X108330891Y-113301556D01*
X108317088Y-113305014D01*
X108303012Y-113307102D01*
X108288800Y-113307800D01*
X107998800Y-113307800D01*
X107984588Y-113307102D01*
X107970512Y-113305014D01*
X107956709Y-113301556D01*
X107943311Y-113296763D01*
X107930447Y-113290679D01*
X107918242Y-113283363D01*
X107906813Y-113274887D01*
X107896270Y-113265330D01*
X107886713Y-113254787D01*
X107878237Y-113243358D01*
X107870921Y-113231153D01*
X107864837Y-113218289D01*
X107860044Y-113204891D01*
X107856586Y-113191088D01*
X107854498Y-113177012D01*
X107853800Y-113162800D01*
X107853800Y-112822800D01*
X107854498Y-112808588D01*
X107856586Y-112794512D01*
X107860044Y-112780709D01*
X107864837Y-112767311D01*
X107870921Y-112754447D01*
X107878237Y-112742242D01*
X107886713Y-112730813D01*
X107896270Y-112720270D01*
X107906813Y-112710713D01*
X107918242Y-112702237D01*
X107930447Y-112694921D01*
X107943311Y-112688837D01*
X107956709Y-112684044D01*
X107970512Y-112680586D01*
X107984588Y-112678498D01*
X107998800Y-112677800D01*
X108288800Y-112677800D01*
X108303012Y-112678498D01*
X108303012Y-112678498D01*
G37*
D22*
X108143800Y-112992800D03*
D10*
G36*
X99838096Y-114524973D02*
G01*
X99845619Y-114526089D01*
X99852997Y-114527937D01*
X99860158Y-114530499D01*
X99867033Y-114533751D01*
X99873557Y-114537661D01*
X99879665Y-114542192D01*
X99885301Y-114547299D01*
X99890408Y-114552935D01*
X99894939Y-114559043D01*
X99898849Y-114565567D01*
X99902101Y-114572442D01*
X99904663Y-114579603D01*
X99906511Y-114586981D01*
X99907627Y-114594504D01*
X99908000Y-114602100D01*
X99908000Y-114787100D01*
X99907627Y-114794696D01*
X99906511Y-114802219D01*
X99904663Y-114809597D01*
X99902101Y-114816758D01*
X99898849Y-114823633D01*
X99894939Y-114830157D01*
X99890408Y-114836265D01*
X99885301Y-114841901D01*
X99879665Y-114847008D01*
X99873557Y-114851539D01*
X99867033Y-114855449D01*
X99860158Y-114858701D01*
X99852997Y-114861263D01*
X99845619Y-114863111D01*
X99838096Y-114864227D01*
X99830500Y-114864600D01*
X99675500Y-114864600D01*
X99667904Y-114864227D01*
X99660381Y-114863111D01*
X99653003Y-114861263D01*
X99645842Y-114858701D01*
X99638967Y-114855449D01*
X99632443Y-114851539D01*
X99626335Y-114847008D01*
X99620699Y-114841901D01*
X99615592Y-114836265D01*
X99611061Y-114830157D01*
X99607151Y-114823633D01*
X99603899Y-114816758D01*
X99601337Y-114809597D01*
X99599489Y-114802219D01*
X99598373Y-114794696D01*
X99598000Y-114787100D01*
X99598000Y-114602100D01*
X99598373Y-114594504D01*
X99599489Y-114586981D01*
X99601337Y-114579603D01*
X99603899Y-114572442D01*
X99607151Y-114565567D01*
X99611061Y-114559043D01*
X99615592Y-114552935D01*
X99620699Y-114547299D01*
X99626335Y-114542192D01*
X99632443Y-114537661D01*
X99638967Y-114533751D01*
X99645842Y-114530499D01*
X99653003Y-114527937D01*
X99660381Y-114526089D01*
X99667904Y-114524973D01*
X99675500Y-114524600D01*
X99830500Y-114524600D01*
X99838096Y-114524973D01*
X99838096Y-114524973D01*
G37*
D11*
X99753000Y-114694600D03*
D10*
G36*
X100388096Y-114524973D02*
G01*
X100395619Y-114526089D01*
X100402997Y-114527937D01*
X100410158Y-114530499D01*
X100417033Y-114533751D01*
X100423557Y-114537661D01*
X100429665Y-114542192D01*
X100435301Y-114547299D01*
X100440408Y-114552935D01*
X100444939Y-114559043D01*
X100448849Y-114565567D01*
X100452101Y-114572442D01*
X100454663Y-114579603D01*
X100456511Y-114586981D01*
X100457627Y-114594504D01*
X100458000Y-114602100D01*
X100458000Y-114787100D01*
X100457627Y-114794696D01*
X100456511Y-114802219D01*
X100454663Y-114809597D01*
X100452101Y-114816758D01*
X100448849Y-114823633D01*
X100444939Y-114830157D01*
X100440408Y-114836265D01*
X100435301Y-114841901D01*
X100429665Y-114847008D01*
X100423557Y-114851539D01*
X100417033Y-114855449D01*
X100410158Y-114858701D01*
X100402997Y-114861263D01*
X100395619Y-114863111D01*
X100388096Y-114864227D01*
X100380500Y-114864600D01*
X100225500Y-114864600D01*
X100217904Y-114864227D01*
X100210381Y-114863111D01*
X100203003Y-114861263D01*
X100195842Y-114858701D01*
X100188967Y-114855449D01*
X100182443Y-114851539D01*
X100176335Y-114847008D01*
X100170699Y-114841901D01*
X100165592Y-114836265D01*
X100161061Y-114830157D01*
X100157151Y-114823633D01*
X100153899Y-114816758D01*
X100151337Y-114809597D01*
X100149489Y-114802219D01*
X100148373Y-114794696D01*
X100148000Y-114787100D01*
X100148000Y-114602100D01*
X100148373Y-114594504D01*
X100149489Y-114586981D01*
X100151337Y-114579603D01*
X100153899Y-114572442D01*
X100157151Y-114565567D01*
X100161061Y-114559043D01*
X100165592Y-114552935D01*
X100170699Y-114547299D01*
X100176335Y-114542192D01*
X100182443Y-114537661D01*
X100188967Y-114533751D01*
X100195842Y-114530499D01*
X100203003Y-114527937D01*
X100210381Y-114526089D01*
X100217904Y-114524973D01*
X100225500Y-114524600D01*
X100380500Y-114524600D01*
X100388096Y-114524973D01*
X100388096Y-114524973D01*
G37*
D11*
X100303000Y-114694600D03*
D27*
X105661600Y-109942000D03*
X105661600Y-109592000D03*
D28*
X105011600Y-109767000D03*
D10*
G36*
X104434158Y-109284510D02*
G01*
X104448476Y-109286634D01*
X104462517Y-109290151D01*
X104476146Y-109295028D01*
X104489231Y-109301217D01*
X104501647Y-109308658D01*
X104513273Y-109317281D01*
X104523998Y-109327002D01*
X104533719Y-109337727D01*
X104542342Y-109349353D01*
X104549783Y-109361769D01*
X104555972Y-109374854D01*
X104560849Y-109388483D01*
X104564366Y-109402524D01*
X104566490Y-109416842D01*
X104567200Y-109431300D01*
X104567200Y-109776300D01*
X104566490Y-109790758D01*
X104564366Y-109805076D01*
X104560849Y-109819117D01*
X104555972Y-109832746D01*
X104549783Y-109845831D01*
X104542342Y-109858247D01*
X104533719Y-109869873D01*
X104523998Y-109880598D01*
X104513273Y-109890319D01*
X104501647Y-109898942D01*
X104489231Y-109906383D01*
X104476146Y-109912572D01*
X104462517Y-109917449D01*
X104448476Y-109920966D01*
X104434158Y-109923090D01*
X104419700Y-109923800D01*
X104124700Y-109923800D01*
X104110242Y-109923090D01*
X104095924Y-109920966D01*
X104081883Y-109917449D01*
X104068254Y-109912572D01*
X104055169Y-109906383D01*
X104042753Y-109898942D01*
X104031127Y-109890319D01*
X104020402Y-109880598D01*
X104010681Y-109869873D01*
X104002058Y-109858247D01*
X103994617Y-109845831D01*
X103988428Y-109832746D01*
X103983551Y-109819117D01*
X103980034Y-109805076D01*
X103977910Y-109790758D01*
X103977200Y-109776300D01*
X103977200Y-109431300D01*
X103977910Y-109416842D01*
X103980034Y-109402524D01*
X103983551Y-109388483D01*
X103988428Y-109374854D01*
X103994617Y-109361769D01*
X104002058Y-109349353D01*
X104010681Y-109337727D01*
X104020402Y-109327002D01*
X104031127Y-109317281D01*
X104042753Y-109308658D01*
X104055169Y-109301217D01*
X104068254Y-109295028D01*
X104081883Y-109290151D01*
X104095924Y-109286634D01*
X104110242Y-109284510D01*
X104124700Y-109283800D01*
X104419700Y-109283800D01*
X104434158Y-109284510D01*
X104434158Y-109284510D01*
G37*
D29*
X104272200Y-109603800D03*
D10*
G36*
X103464158Y-109284510D02*
G01*
X103478476Y-109286634D01*
X103492517Y-109290151D01*
X103506146Y-109295028D01*
X103519231Y-109301217D01*
X103531647Y-109308658D01*
X103543273Y-109317281D01*
X103553998Y-109327002D01*
X103563719Y-109337727D01*
X103572342Y-109349353D01*
X103579783Y-109361769D01*
X103585972Y-109374854D01*
X103590849Y-109388483D01*
X103594366Y-109402524D01*
X103596490Y-109416842D01*
X103597200Y-109431300D01*
X103597200Y-109776300D01*
X103596490Y-109790758D01*
X103594366Y-109805076D01*
X103590849Y-109819117D01*
X103585972Y-109832746D01*
X103579783Y-109845831D01*
X103572342Y-109858247D01*
X103563719Y-109869873D01*
X103553998Y-109880598D01*
X103543273Y-109890319D01*
X103531647Y-109898942D01*
X103519231Y-109906383D01*
X103506146Y-109912572D01*
X103492517Y-109917449D01*
X103478476Y-109920966D01*
X103464158Y-109923090D01*
X103449700Y-109923800D01*
X103154700Y-109923800D01*
X103140242Y-109923090D01*
X103125924Y-109920966D01*
X103111883Y-109917449D01*
X103098254Y-109912572D01*
X103085169Y-109906383D01*
X103072753Y-109898942D01*
X103061127Y-109890319D01*
X103050402Y-109880598D01*
X103040681Y-109869873D01*
X103032058Y-109858247D01*
X103024617Y-109845831D01*
X103018428Y-109832746D01*
X103013551Y-109819117D01*
X103010034Y-109805076D01*
X103007910Y-109790758D01*
X103007200Y-109776300D01*
X103007200Y-109431300D01*
X103007910Y-109416842D01*
X103010034Y-109402524D01*
X103013551Y-109388483D01*
X103018428Y-109374854D01*
X103024617Y-109361769D01*
X103032058Y-109349353D01*
X103040681Y-109337727D01*
X103050402Y-109327002D01*
X103061127Y-109317281D01*
X103072753Y-109308658D01*
X103085169Y-109301217D01*
X103098254Y-109295028D01*
X103111883Y-109290151D01*
X103125924Y-109286634D01*
X103140242Y-109284510D01*
X103154700Y-109283800D01*
X103449700Y-109283800D01*
X103464158Y-109284510D01*
X103464158Y-109284510D01*
G37*
D29*
X103302200Y-109603800D03*
D10*
G36*
X102153496Y-101045373D02*
G01*
X102161019Y-101046489D01*
X102168397Y-101048337D01*
X102175558Y-101050899D01*
X102182433Y-101054151D01*
X102188957Y-101058061D01*
X102195065Y-101062592D01*
X102200701Y-101067699D01*
X102205808Y-101073335D01*
X102210339Y-101079443D01*
X102214249Y-101085967D01*
X102217501Y-101092842D01*
X102220063Y-101100003D01*
X102221911Y-101107381D01*
X102223027Y-101114904D01*
X102223400Y-101122500D01*
X102223400Y-101277500D01*
X102223027Y-101285096D01*
X102221911Y-101292619D01*
X102220063Y-101299997D01*
X102217501Y-101307158D01*
X102214249Y-101314033D01*
X102210339Y-101320557D01*
X102205808Y-101326665D01*
X102200701Y-101332301D01*
X102195065Y-101337408D01*
X102188957Y-101341939D01*
X102182433Y-101345849D01*
X102175558Y-101349101D01*
X102168397Y-101351663D01*
X102161019Y-101353511D01*
X102153496Y-101354627D01*
X102145900Y-101355000D01*
X101960900Y-101355000D01*
X101953304Y-101354627D01*
X101945781Y-101353511D01*
X101938403Y-101351663D01*
X101931242Y-101349101D01*
X101924367Y-101345849D01*
X101917843Y-101341939D01*
X101911735Y-101337408D01*
X101906099Y-101332301D01*
X101900992Y-101326665D01*
X101896461Y-101320557D01*
X101892551Y-101314033D01*
X101889299Y-101307158D01*
X101886737Y-101299997D01*
X101884889Y-101292619D01*
X101883773Y-101285096D01*
X101883400Y-101277500D01*
X101883400Y-101122500D01*
X101883773Y-101114904D01*
X101884889Y-101107381D01*
X101886737Y-101100003D01*
X101889299Y-101092842D01*
X101892551Y-101085967D01*
X101896461Y-101079443D01*
X101900992Y-101073335D01*
X101906099Y-101067699D01*
X101911735Y-101062592D01*
X101917843Y-101058061D01*
X101924367Y-101054151D01*
X101931242Y-101050899D01*
X101938403Y-101048337D01*
X101945781Y-101046489D01*
X101953304Y-101045373D01*
X101960900Y-101045000D01*
X102145900Y-101045000D01*
X102153496Y-101045373D01*
X102153496Y-101045373D01*
G37*
D11*
X102053400Y-101200000D03*
D10*
G36*
X102153496Y-100495373D02*
G01*
X102161019Y-100496489D01*
X102168397Y-100498337D01*
X102175558Y-100500899D01*
X102182433Y-100504151D01*
X102188957Y-100508061D01*
X102195065Y-100512592D01*
X102200701Y-100517699D01*
X102205808Y-100523335D01*
X102210339Y-100529443D01*
X102214249Y-100535967D01*
X102217501Y-100542842D01*
X102220063Y-100550003D01*
X102221911Y-100557381D01*
X102223027Y-100564904D01*
X102223400Y-100572500D01*
X102223400Y-100727500D01*
X102223027Y-100735096D01*
X102221911Y-100742619D01*
X102220063Y-100749997D01*
X102217501Y-100757158D01*
X102214249Y-100764033D01*
X102210339Y-100770557D01*
X102205808Y-100776665D01*
X102200701Y-100782301D01*
X102195065Y-100787408D01*
X102188957Y-100791939D01*
X102182433Y-100795849D01*
X102175558Y-100799101D01*
X102168397Y-100801663D01*
X102161019Y-100803511D01*
X102153496Y-100804627D01*
X102145900Y-100805000D01*
X101960900Y-100805000D01*
X101953304Y-100804627D01*
X101945781Y-100803511D01*
X101938403Y-100801663D01*
X101931242Y-100799101D01*
X101924367Y-100795849D01*
X101917843Y-100791939D01*
X101911735Y-100787408D01*
X101906099Y-100782301D01*
X101900992Y-100776665D01*
X101896461Y-100770557D01*
X101892551Y-100764033D01*
X101889299Y-100757158D01*
X101886737Y-100749997D01*
X101884889Y-100742619D01*
X101883773Y-100735096D01*
X101883400Y-100727500D01*
X101883400Y-100572500D01*
X101883773Y-100564904D01*
X101884889Y-100557381D01*
X101886737Y-100550003D01*
X101889299Y-100542842D01*
X101892551Y-100535967D01*
X101896461Y-100529443D01*
X101900992Y-100523335D01*
X101906099Y-100517699D01*
X101911735Y-100512592D01*
X101917843Y-100508061D01*
X101924367Y-100504151D01*
X101931242Y-100500899D01*
X101938403Y-100498337D01*
X101945781Y-100496489D01*
X101953304Y-100495373D01*
X101960900Y-100495000D01*
X102145900Y-100495000D01*
X102153496Y-100495373D01*
X102153496Y-100495373D01*
G37*
D11*
X102053400Y-100650000D03*
D30*
X104556000Y-100735800D03*
X104556000Y-101135800D03*
D31*
X104511000Y-101780800D03*
X104111000Y-101780800D03*
X103711000Y-101780800D03*
X103311000Y-101780800D03*
X102911000Y-101780800D03*
D30*
X102866000Y-101135800D03*
X102866000Y-100735800D03*
D31*
X102911000Y-100090800D03*
X103311000Y-100090800D03*
X103711000Y-100090800D03*
X104111000Y-100090800D03*
X104511000Y-100090800D03*
D32*
X104653600Y-97240200D03*
X104153600Y-97240200D03*
X103653600Y-97240200D03*
X103153600Y-97240200D03*
X102653600Y-97240200D03*
X102653600Y-98920200D03*
X103153600Y-98920200D03*
X103653600Y-98920200D03*
X104153600Y-98920200D03*
X104653600Y-98920200D03*
D33*
X103653600Y-98080200D03*
D10*
G36*
X105633296Y-98937173D02*
G01*
X105640819Y-98938289D01*
X105648197Y-98940137D01*
X105655358Y-98942699D01*
X105662233Y-98945951D01*
X105668757Y-98949861D01*
X105674865Y-98954392D01*
X105680501Y-98959499D01*
X105685608Y-98965135D01*
X105690139Y-98971243D01*
X105694049Y-98977767D01*
X105697301Y-98984642D01*
X105699863Y-98991803D01*
X105701711Y-98999181D01*
X105702827Y-99006704D01*
X105703200Y-99014300D01*
X105703200Y-99169300D01*
X105702827Y-99176896D01*
X105701711Y-99184419D01*
X105699863Y-99191797D01*
X105697301Y-99198958D01*
X105694049Y-99205833D01*
X105690139Y-99212357D01*
X105685608Y-99218465D01*
X105680501Y-99224101D01*
X105674865Y-99229208D01*
X105668757Y-99233739D01*
X105662233Y-99237649D01*
X105655358Y-99240901D01*
X105648197Y-99243463D01*
X105640819Y-99245311D01*
X105633296Y-99246427D01*
X105625700Y-99246800D01*
X105440700Y-99246800D01*
X105433104Y-99246427D01*
X105425581Y-99245311D01*
X105418203Y-99243463D01*
X105411042Y-99240901D01*
X105404167Y-99237649D01*
X105397643Y-99233739D01*
X105391535Y-99229208D01*
X105385899Y-99224101D01*
X105380792Y-99218465D01*
X105376261Y-99212357D01*
X105372351Y-99205833D01*
X105369099Y-99198958D01*
X105366537Y-99191797D01*
X105364689Y-99184419D01*
X105363573Y-99176896D01*
X105363200Y-99169300D01*
X105363200Y-99014300D01*
X105363573Y-99006704D01*
X105364689Y-98999181D01*
X105366537Y-98991803D01*
X105369099Y-98984642D01*
X105372351Y-98977767D01*
X105376261Y-98971243D01*
X105380792Y-98965135D01*
X105385899Y-98959499D01*
X105391535Y-98954392D01*
X105397643Y-98949861D01*
X105404167Y-98945951D01*
X105411042Y-98942699D01*
X105418203Y-98940137D01*
X105425581Y-98938289D01*
X105433104Y-98937173D01*
X105440700Y-98936800D01*
X105625700Y-98936800D01*
X105633296Y-98937173D01*
X105633296Y-98937173D01*
G37*
D11*
X105533200Y-99091800D03*
D10*
G36*
X105633296Y-98387173D02*
G01*
X105640819Y-98388289D01*
X105648197Y-98390137D01*
X105655358Y-98392699D01*
X105662233Y-98395951D01*
X105668757Y-98399861D01*
X105674865Y-98404392D01*
X105680501Y-98409499D01*
X105685608Y-98415135D01*
X105690139Y-98421243D01*
X105694049Y-98427767D01*
X105697301Y-98434642D01*
X105699863Y-98441803D01*
X105701711Y-98449181D01*
X105702827Y-98456704D01*
X105703200Y-98464300D01*
X105703200Y-98619300D01*
X105702827Y-98626896D01*
X105701711Y-98634419D01*
X105699863Y-98641797D01*
X105697301Y-98648958D01*
X105694049Y-98655833D01*
X105690139Y-98662357D01*
X105685608Y-98668465D01*
X105680501Y-98674101D01*
X105674865Y-98679208D01*
X105668757Y-98683739D01*
X105662233Y-98687649D01*
X105655358Y-98690901D01*
X105648197Y-98693463D01*
X105640819Y-98695311D01*
X105633296Y-98696427D01*
X105625700Y-98696800D01*
X105440700Y-98696800D01*
X105433104Y-98696427D01*
X105425581Y-98695311D01*
X105418203Y-98693463D01*
X105411042Y-98690901D01*
X105404167Y-98687649D01*
X105397643Y-98683739D01*
X105391535Y-98679208D01*
X105385899Y-98674101D01*
X105380792Y-98668465D01*
X105376261Y-98662357D01*
X105372351Y-98655833D01*
X105369099Y-98648958D01*
X105366537Y-98641797D01*
X105364689Y-98634419D01*
X105363573Y-98626896D01*
X105363200Y-98619300D01*
X105363200Y-98464300D01*
X105363573Y-98456704D01*
X105364689Y-98449181D01*
X105366537Y-98441803D01*
X105369099Y-98434642D01*
X105372351Y-98427767D01*
X105376261Y-98421243D01*
X105380792Y-98415135D01*
X105385899Y-98409499D01*
X105391535Y-98404392D01*
X105397643Y-98399861D01*
X105404167Y-98395951D01*
X105411042Y-98392699D01*
X105418203Y-98390137D01*
X105425581Y-98388289D01*
X105433104Y-98387173D01*
X105440700Y-98386800D01*
X105625700Y-98386800D01*
X105633296Y-98387173D01*
X105633296Y-98387173D01*
G37*
D11*
X105533200Y-98541800D03*
D34*
X104466400Y-93609800D03*
D10*
G36*
X105633296Y-97489373D02*
G01*
X105640819Y-97490489D01*
X105648197Y-97492337D01*
X105655358Y-97494899D01*
X105662233Y-97498151D01*
X105668757Y-97502061D01*
X105674865Y-97506592D01*
X105680501Y-97511699D01*
X105685608Y-97517335D01*
X105690139Y-97523443D01*
X105694049Y-97529967D01*
X105697301Y-97536842D01*
X105699863Y-97544003D01*
X105701711Y-97551381D01*
X105702827Y-97558904D01*
X105703200Y-97566500D01*
X105703200Y-97721500D01*
X105702827Y-97729096D01*
X105701711Y-97736619D01*
X105699863Y-97743997D01*
X105697301Y-97751158D01*
X105694049Y-97758033D01*
X105690139Y-97764557D01*
X105685608Y-97770665D01*
X105680501Y-97776301D01*
X105674865Y-97781408D01*
X105668757Y-97785939D01*
X105662233Y-97789849D01*
X105655358Y-97793101D01*
X105648197Y-97795663D01*
X105640819Y-97797511D01*
X105633296Y-97798627D01*
X105625700Y-97799000D01*
X105440700Y-97799000D01*
X105433104Y-97798627D01*
X105425581Y-97797511D01*
X105418203Y-97795663D01*
X105411042Y-97793101D01*
X105404167Y-97789849D01*
X105397643Y-97785939D01*
X105391535Y-97781408D01*
X105385899Y-97776301D01*
X105380792Y-97770665D01*
X105376261Y-97764557D01*
X105372351Y-97758033D01*
X105369099Y-97751158D01*
X105366537Y-97743997D01*
X105364689Y-97736619D01*
X105363573Y-97729096D01*
X105363200Y-97721500D01*
X105363200Y-97566500D01*
X105363573Y-97558904D01*
X105364689Y-97551381D01*
X105366537Y-97544003D01*
X105369099Y-97536842D01*
X105372351Y-97529967D01*
X105376261Y-97523443D01*
X105380792Y-97517335D01*
X105385899Y-97511699D01*
X105391535Y-97506592D01*
X105397643Y-97502061D01*
X105404167Y-97498151D01*
X105411042Y-97494899D01*
X105418203Y-97492337D01*
X105425581Y-97490489D01*
X105433104Y-97489373D01*
X105440700Y-97489000D01*
X105625700Y-97489000D01*
X105633296Y-97489373D01*
X105633296Y-97489373D01*
G37*
D11*
X105533200Y-97644000D03*
D10*
G36*
X105633296Y-96939373D02*
G01*
X105640819Y-96940489D01*
X105648197Y-96942337D01*
X105655358Y-96944899D01*
X105662233Y-96948151D01*
X105668757Y-96952061D01*
X105674865Y-96956592D01*
X105680501Y-96961699D01*
X105685608Y-96967335D01*
X105690139Y-96973443D01*
X105694049Y-96979967D01*
X105697301Y-96986842D01*
X105699863Y-96994003D01*
X105701711Y-97001381D01*
X105702827Y-97008904D01*
X105703200Y-97016500D01*
X105703200Y-97171500D01*
X105702827Y-97179096D01*
X105701711Y-97186619D01*
X105699863Y-97193997D01*
X105697301Y-97201158D01*
X105694049Y-97208033D01*
X105690139Y-97214557D01*
X105685608Y-97220665D01*
X105680501Y-97226301D01*
X105674865Y-97231408D01*
X105668757Y-97235939D01*
X105662233Y-97239849D01*
X105655358Y-97243101D01*
X105648197Y-97245663D01*
X105640819Y-97247511D01*
X105633296Y-97248627D01*
X105625700Y-97249000D01*
X105440700Y-97249000D01*
X105433104Y-97248627D01*
X105425581Y-97247511D01*
X105418203Y-97245663D01*
X105411042Y-97243101D01*
X105404167Y-97239849D01*
X105397643Y-97235939D01*
X105391535Y-97231408D01*
X105385899Y-97226301D01*
X105380792Y-97220665D01*
X105376261Y-97214557D01*
X105372351Y-97208033D01*
X105369099Y-97201158D01*
X105366537Y-97193997D01*
X105364689Y-97186619D01*
X105363573Y-97179096D01*
X105363200Y-97171500D01*
X105363200Y-97016500D01*
X105363573Y-97008904D01*
X105364689Y-97001381D01*
X105366537Y-96994003D01*
X105369099Y-96986842D01*
X105372351Y-96979967D01*
X105376261Y-96973443D01*
X105380792Y-96967335D01*
X105385899Y-96961699D01*
X105391535Y-96956592D01*
X105397643Y-96952061D01*
X105404167Y-96948151D01*
X105411042Y-96944899D01*
X105418203Y-96942337D01*
X105425581Y-96940489D01*
X105433104Y-96939373D01*
X105440700Y-96939000D01*
X105625700Y-96939000D01*
X105633296Y-96939373D01*
X105633296Y-96939373D01*
G37*
D11*
X105533200Y-97094000D03*
D10*
G36*
X105480896Y-100520773D02*
G01*
X105488419Y-100521889D01*
X105495797Y-100523737D01*
X105502958Y-100526299D01*
X105509833Y-100529551D01*
X105516357Y-100533461D01*
X105522465Y-100537992D01*
X105528101Y-100543099D01*
X105533208Y-100548735D01*
X105537739Y-100554843D01*
X105541649Y-100561367D01*
X105544901Y-100568242D01*
X105547463Y-100575403D01*
X105549311Y-100582781D01*
X105550427Y-100590304D01*
X105550800Y-100597900D01*
X105550800Y-100752900D01*
X105550427Y-100760496D01*
X105549311Y-100768019D01*
X105547463Y-100775397D01*
X105544901Y-100782558D01*
X105541649Y-100789433D01*
X105537739Y-100795957D01*
X105533208Y-100802065D01*
X105528101Y-100807701D01*
X105522465Y-100812808D01*
X105516357Y-100817339D01*
X105509833Y-100821249D01*
X105502958Y-100824501D01*
X105495797Y-100827063D01*
X105488419Y-100828911D01*
X105480896Y-100830027D01*
X105473300Y-100830400D01*
X105288300Y-100830400D01*
X105280704Y-100830027D01*
X105273181Y-100828911D01*
X105265803Y-100827063D01*
X105258642Y-100824501D01*
X105251767Y-100821249D01*
X105245243Y-100817339D01*
X105239135Y-100812808D01*
X105233499Y-100807701D01*
X105228392Y-100802065D01*
X105223861Y-100795957D01*
X105219951Y-100789433D01*
X105216699Y-100782558D01*
X105214137Y-100775397D01*
X105212289Y-100768019D01*
X105211173Y-100760496D01*
X105210800Y-100752900D01*
X105210800Y-100597900D01*
X105211173Y-100590304D01*
X105212289Y-100582781D01*
X105214137Y-100575403D01*
X105216699Y-100568242D01*
X105219951Y-100561367D01*
X105223861Y-100554843D01*
X105228392Y-100548735D01*
X105233499Y-100543099D01*
X105239135Y-100537992D01*
X105245243Y-100533461D01*
X105251767Y-100529551D01*
X105258642Y-100526299D01*
X105265803Y-100523737D01*
X105273181Y-100521889D01*
X105280704Y-100520773D01*
X105288300Y-100520400D01*
X105473300Y-100520400D01*
X105480896Y-100520773D01*
X105480896Y-100520773D01*
G37*
D11*
X105380800Y-100675400D03*
D10*
G36*
X105480896Y-101070773D02*
G01*
X105488419Y-101071889D01*
X105495797Y-101073737D01*
X105502958Y-101076299D01*
X105509833Y-101079551D01*
X105516357Y-101083461D01*
X105522465Y-101087992D01*
X105528101Y-101093099D01*
X105533208Y-101098735D01*
X105537739Y-101104843D01*
X105541649Y-101111367D01*
X105544901Y-101118242D01*
X105547463Y-101125403D01*
X105549311Y-101132781D01*
X105550427Y-101140304D01*
X105550800Y-101147900D01*
X105550800Y-101302900D01*
X105550427Y-101310496D01*
X105549311Y-101318019D01*
X105547463Y-101325397D01*
X105544901Y-101332558D01*
X105541649Y-101339433D01*
X105537739Y-101345957D01*
X105533208Y-101352065D01*
X105528101Y-101357701D01*
X105522465Y-101362808D01*
X105516357Y-101367339D01*
X105509833Y-101371249D01*
X105502958Y-101374501D01*
X105495797Y-101377063D01*
X105488419Y-101378911D01*
X105480896Y-101380027D01*
X105473300Y-101380400D01*
X105288300Y-101380400D01*
X105280704Y-101380027D01*
X105273181Y-101378911D01*
X105265803Y-101377063D01*
X105258642Y-101374501D01*
X105251767Y-101371249D01*
X105245243Y-101367339D01*
X105239135Y-101362808D01*
X105233499Y-101357701D01*
X105228392Y-101352065D01*
X105223861Y-101345957D01*
X105219951Y-101339433D01*
X105216699Y-101332558D01*
X105214137Y-101325397D01*
X105212289Y-101318019D01*
X105211173Y-101310496D01*
X105210800Y-101302900D01*
X105210800Y-101147900D01*
X105211173Y-101140304D01*
X105212289Y-101132781D01*
X105214137Y-101125403D01*
X105216699Y-101118242D01*
X105219951Y-101111367D01*
X105223861Y-101104843D01*
X105228392Y-101098735D01*
X105233499Y-101093099D01*
X105239135Y-101087992D01*
X105245243Y-101083461D01*
X105251767Y-101079551D01*
X105258642Y-101076299D01*
X105265803Y-101073737D01*
X105273181Y-101071889D01*
X105280704Y-101070773D01*
X105288300Y-101070400D01*
X105473300Y-101070400D01*
X105480896Y-101070773D01*
X105480896Y-101070773D01*
G37*
D11*
X105380800Y-101225400D03*
D10*
G36*
X104853212Y-96038698D02*
G01*
X104867288Y-96040786D01*
X104881091Y-96044244D01*
X104894489Y-96049037D01*
X104907353Y-96055121D01*
X104919558Y-96062437D01*
X104930987Y-96070913D01*
X104941530Y-96080470D01*
X104951087Y-96091013D01*
X104959563Y-96102442D01*
X104966879Y-96114647D01*
X104972963Y-96127511D01*
X104977756Y-96140909D01*
X104981214Y-96154712D01*
X104983302Y-96168788D01*
X104984000Y-96183000D01*
X104984000Y-96523000D01*
X104983302Y-96537212D01*
X104981214Y-96551288D01*
X104977756Y-96565091D01*
X104972963Y-96578489D01*
X104966879Y-96591353D01*
X104959563Y-96603558D01*
X104951087Y-96614987D01*
X104941530Y-96625530D01*
X104930987Y-96635087D01*
X104919558Y-96643563D01*
X104907353Y-96650879D01*
X104894489Y-96656963D01*
X104881091Y-96661756D01*
X104867288Y-96665214D01*
X104853212Y-96667302D01*
X104839000Y-96668000D01*
X104549000Y-96668000D01*
X104534788Y-96667302D01*
X104520712Y-96665214D01*
X104506909Y-96661756D01*
X104493511Y-96656963D01*
X104480647Y-96650879D01*
X104468442Y-96643563D01*
X104457013Y-96635087D01*
X104446470Y-96625530D01*
X104436913Y-96614987D01*
X104428437Y-96603558D01*
X104421121Y-96591353D01*
X104415037Y-96578489D01*
X104410244Y-96565091D01*
X104406786Y-96551288D01*
X104404698Y-96537212D01*
X104404000Y-96523000D01*
X104404000Y-96183000D01*
X104404698Y-96168788D01*
X104406786Y-96154712D01*
X104410244Y-96140909D01*
X104415037Y-96127511D01*
X104421121Y-96114647D01*
X104428437Y-96102442D01*
X104436913Y-96091013D01*
X104446470Y-96080470D01*
X104457013Y-96070913D01*
X104468442Y-96062437D01*
X104480647Y-96055121D01*
X104493511Y-96049037D01*
X104506909Y-96044244D01*
X104520712Y-96040786D01*
X104534788Y-96038698D01*
X104549000Y-96038000D01*
X104839000Y-96038000D01*
X104853212Y-96038698D01*
X104853212Y-96038698D01*
G37*
D22*
X104694000Y-96353000D03*
D10*
G36*
X105743212Y-96038698D02*
G01*
X105757288Y-96040786D01*
X105771091Y-96044244D01*
X105784489Y-96049037D01*
X105797353Y-96055121D01*
X105809558Y-96062437D01*
X105820987Y-96070913D01*
X105831530Y-96080470D01*
X105841087Y-96091013D01*
X105849563Y-96102442D01*
X105856879Y-96114647D01*
X105862963Y-96127511D01*
X105867756Y-96140909D01*
X105871214Y-96154712D01*
X105873302Y-96168788D01*
X105874000Y-96183000D01*
X105874000Y-96523000D01*
X105873302Y-96537212D01*
X105871214Y-96551288D01*
X105867756Y-96565091D01*
X105862963Y-96578489D01*
X105856879Y-96591353D01*
X105849563Y-96603558D01*
X105841087Y-96614987D01*
X105831530Y-96625530D01*
X105820987Y-96635087D01*
X105809558Y-96643563D01*
X105797353Y-96650879D01*
X105784489Y-96656963D01*
X105771091Y-96661756D01*
X105757288Y-96665214D01*
X105743212Y-96667302D01*
X105729000Y-96668000D01*
X105439000Y-96668000D01*
X105424788Y-96667302D01*
X105410712Y-96665214D01*
X105396909Y-96661756D01*
X105383511Y-96656963D01*
X105370647Y-96650879D01*
X105358442Y-96643563D01*
X105347013Y-96635087D01*
X105336470Y-96625530D01*
X105326913Y-96614987D01*
X105318437Y-96603558D01*
X105311121Y-96591353D01*
X105305037Y-96578489D01*
X105300244Y-96565091D01*
X105296786Y-96551288D01*
X105294698Y-96537212D01*
X105294000Y-96523000D01*
X105294000Y-96183000D01*
X105294698Y-96168788D01*
X105296786Y-96154712D01*
X105300244Y-96140909D01*
X105305037Y-96127511D01*
X105311121Y-96114647D01*
X105318437Y-96102442D01*
X105326913Y-96091013D01*
X105336470Y-96080470D01*
X105347013Y-96070913D01*
X105358442Y-96062437D01*
X105370647Y-96055121D01*
X105383511Y-96049037D01*
X105396909Y-96044244D01*
X105410712Y-96040786D01*
X105424788Y-96038698D01*
X105439000Y-96038000D01*
X105729000Y-96038000D01*
X105743212Y-96038698D01*
X105743212Y-96038698D01*
G37*
D22*
X105584000Y-96353000D03*
D10*
G36*
X103539896Y-96157973D02*
G01*
X103547419Y-96159089D01*
X103554797Y-96160937D01*
X103561958Y-96163499D01*
X103568833Y-96166751D01*
X103575357Y-96170661D01*
X103581465Y-96175192D01*
X103587101Y-96180299D01*
X103592208Y-96185935D01*
X103596739Y-96192043D01*
X103600649Y-96198567D01*
X103603901Y-96205442D01*
X103606463Y-96212603D01*
X103608311Y-96219981D01*
X103609427Y-96227504D01*
X103609800Y-96235100D01*
X103609800Y-96420100D01*
X103609427Y-96427696D01*
X103608311Y-96435219D01*
X103606463Y-96442597D01*
X103603901Y-96449758D01*
X103600649Y-96456633D01*
X103596739Y-96463157D01*
X103592208Y-96469265D01*
X103587101Y-96474901D01*
X103581465Y-96480008D01*
X103575357Y-96484539D01*
X103568833Y-96488449D01*
X103561958Y-96491701D01*
X103554797Y-96494263D01*
X103547419Y-96496111D01*
X103539896Y-96497227D01*
X103532300Y-96497600D01*
X103377300Y-96497600D01*
X103369704Y-96497227D01*
X103362181Y-96496111D01*
X103354803Y-96494263D01*
X103347642Y-96491701D01*
X103340767Y-96488449D01*
X103334243Y-96484539D01*
X103328135Y-96480008D01*
X103322499Y-96474901D01*
X103317392Y-96469265D01*
X103312861Y-96463157D01*
X103308951Y-96456633D01*
X103305699Y-96449758D01*
X103303137Y-96442597D01*
X103301289Y-96435219D01*
X103300173Y-96427696D01*
X103299800Y-96420100D01*
X103299800Y-96235100D01*
X103300173Y-96227504D01*
X103301289Y-96219981D01*
X103303137Y-96212603D01*
X103305699Y-96205442D01*
X103308951Y-96198567D01*
X103312861Y-96192043D01*
X103317392Y-96185935D01*
X103322499Y-96180299D01*
X103328135Y-96175192D01*
X103334243Y-96170661D01*
X103340767Y-96166751D01*
X103347642Y-96163499D01*
X103354803Y-96160937D01*
X103362181Y-96159089D01*
X103369704Y-96157973D01*
X103377300Y-96157600D01*
X103532300Y-96157600D01*
X103539896Y-96157973D01*
X103539896Y-96157973D01*
G37*
D11*
X103454800Y-96327600D03*
D10*
G36*
X104089896Y-96157973D02*
G01*
X104097419Y-96159089D01*
X104104797Y-96160937D01*
X104111958Y-96163499D01*
X104118833Y-96166751D01*
X104125357Y-96170661D01*
X104131465Y-96175192D01*
X104137101Y-96180299D01*
X104142208Y-96185935D01*
X104146739Y-96192043D01*
X104150649Y-96198567D01*
X104153901Y-96205442D01*
X104156463Y-96212603D01*
X104158311Y-96219981D01*
X104159427Y-96227504D01*
X104159800Y-96235100D01*
X104159800Y-96420100D01*
X104159427Y-96427696D01*
X104158311Y-96435219D01*
X104156463Y-96442597D01*
X104153901Y-96449758D01*
X104150649Y-96456633D01*
X104146739Y-96463157D01*
X104142208Y-96469265D01*
X104137101Y-96474901D01*
X104131465Y-96480008D01*
X104125357Y-96484539D01*
X104118833Y-96488449D01*
X104111958Y-96491701D01*
X104104797Y-96494263D01*
X104097419Y-96496111D01*
X104089896Y-96497227D01*
X104082300Y-96497600D01*
X103927300Y-96497600D01*
X103919704Y-96497227D01*
X103912181Y-96496111D01*
X103904803Y-96494263D01*
X103897642Y-96491701D01*
X103890767Y-96488449D01*
X103884243Y-96484539D01*
X103878135Y-96480008D01*
X103872499Y-96474901D01*
X103867392Y-96469265D01*
X103862861Y-96463157D01*
X103858951Y-96456633D01*
X103855699Y-96449758D01*
X103853137Y-96442597D01*
X103851289Y-96435219D01*
X103850173Y-96427696D01*
X103849800Y-96420100D01*
X103849800Y-96235100D01*
X103850173Y-96227504D01*
X103851289Y-96219981D01*
X103853137Y-96212603D01*
X103855699Y-96205442D01*
X103858951Y-96198567D01*
X103862861Y-96192043D01*
X103867392Y-96185935D01*
X103872499Y-96180299D01*
X103878135Y-96175192D01*
X103884243Y-96170661D01*
X103890767Y-96166751D01*
X103897642Y-96163499D01*
X103904803Y-96160937D01*
X103912181Y-96159089D01*
X103919704Y-96157973D01*
X103927300Y-96157600D01*
X104082300Y-96157600D01*
X104089896Y-96157973D01*
X104089896Y-96157973D01*
G37*
D11*
X104004800Y-96327600D03*
D34*
X103069400Y-93609800D03*
D35*
X102755200Y-94456000D03*
X103255200Y-94456000D03*
X103755200Y-94456000D03*
X104255200Y-94456000D03*
X104755200Y-94456000D03*
X102755200Y-94956000D03*
X103255200Y-94956000D03*
X103755200Y-94956000D03*
X104255200Y-94956000D03*
X104755200Y-94956000D03*
X102755200Y-95456000D03*
X103255200Y-95456000D03*
X103755200Y-95456000D03*
X104255200Y-95456000D03*
X104755200Y-95456000D03*
D10*
G36*
X102886212Y-96013298D02*
G01*
X102900288Y-96015386D01*
X102914091Y-96018844D01*
X102927489Y-96023637D01*
X102940353Y-96029721D01*
X102952558Y-96037037D01*
X102963987Y-96045513D01*
X102974530Y-96055070D01*
X102984087Y-96065613D01*
X102992563Y-96077042D01*
X102999879Y-96089247D01*
X103005963Y-96102111D01*
X103010756Y-96115509D01*
X103014214Y-96129312D01*
X103016302Y-96143388D01*
X103017000Y-96157600D01*
X103017000Y-96497600D01*
X103016302Y-96511812D01*
X103014214Y-96525888D01*
X103010756Y-96539691D01*
X103005963Y-96553089D01*
X102999879Y-96565953D01*
X102992563Y-96578158D01*
X102984087Y-96589587D01*
X102974530Y-96600130D01*
X102963987Y-96609687D01*
X102952558Y-96618163D01*
X102940353Y-96625479D01*
X102927489Y-96631563D01*
X102914091Y-96636356D01*
X102900288Y-96639814D01*
X102886212Y-96641902D01*
X102872000Y-96642600D01*
X102582000Y-96642600D01*
X102567788Y-96641902D01*
X102553712Y-96639814D01*
X102539909Y-96636356D01*
X102526511Y-96631563D01*
X102513647Y-96625479D01*
X102501442Y-96618163D01*
X102490013Y-96609687D01*
X102479470Y-96600130D01*
X102469913Y-96589587D01*
X102461437Y-96578158D01*
X102454121Y-96565953D01*
X102448037Y-96553089D01*
X102443244Y-96539691D01*
X102439786Y-96525888D01*
X102437698Y-96511812D01*
X102437000Y-96497600D01*
X102437000Y-96157600D01*
X102437698Y-96143388D01*
X102439786Y-96129312D01*
X102443244Y-96115509D01*
X102448037Y-96102111D01*
X102454121Y-96089247D01*
X102461437Y-96077042D01*
X102469913Y-96065613D01*
X102479470Y-96055070D01*
X102490013Y-96045513D01*
X102501442Y-96037037D01*
X102513647Y-96029721D01*
X102526511Y-96023637D01*
X102539909Y-96018844D01*
X102553712Y-96015386D01*
X102567788Y-96013298D01*
X102582000Y-96012600D01*
X102872000Y-96012600D01*
X102886212Y-96013298D01*
X102886212Y-96013298D01*
G37*
D22*
X102727000Y-96327600D03*
D10*
G36*
X101996212Y-96013298D02*
G01*
X102010288Y-96015386D01*
X102024091Y-96018844D01*
X102037489Y-96023637D01*
X102050353Y-96029721D01*
X102062558Y-96037037D01*
X102073987Y-96045513D01*
X102084530Y-96055070D01*
X102094087Y-96065613D01*
X102102563Y-96077042D01*
X102109879Y-96089247D01*
X102115963Y-96102111D01*
X102120756Y-96115509D01*
X102124214Y-96129312D01*
X102126302Y-96143388D01*
X102127000Y-96157600D01*
X102127000Y-96497600D01*
X102126302Y-96511812D01*
X102124214Y-96525888D01*
X102120756Y-96539691D01*
X102115963Y-96553089D01*
X102109879Y-96565953D01*
X102102563Y-96578158D01*
X102094087Y-96589587D01*
X102084530Y-96600130D01*
X102073987Y-96609687D01*
X102062558Y-96618163D01*
X102050353Y-96625479D01*
X102037489Y-96631563D01*
X102024091Y-96636356D01*
X102010288Y-96639814D01*
X101996212Y-96641902D01*
X101982000Y-96642600D01*
X101692000Y-96642600D01*
X101677788Y-96641902D01*
X101663712Y-96639814D01*
X101649909Y-96636356D01*
X101636511Y-96631563D01*
X101623647Y-96625479D01*
X101611442Y-96618163D01*
X101600013Y-96609687D01*
X101589470Y-96600130D01*
X101579913Y-96589587D01*
X101571437Y-96578158D01*
X101564121Y-96565953D01*
X101558037Y-96553089D01*
X101553244Y-96539691D01*
X101549786Y-96525888D01*
X101547698Y-96511812D01*
X101547000Y-96497600D01*
X101547000Y-96157600D01*
X101547698Y-96143388D01*
X101549786Y-96129312D01*
X101553244Y-96115509D01*
X101558037Y-96102111D01*
X101564121Y-96089247D01*
X101571437Y-96077042D01*
X101579913Y-96065613D01*
X101589470Y-96055070D01*
X101600013Y-96045513D01*
X101611442Y-96037037D01*
X101623647Y-96029721D01*
X101636511Y-96023637D01*
X101649909Y-96018844D01*
X101663712Y-96015386D01*
X101677788Y-96013298D01*
X101692000Y-96012600D01*
X101982000Y-96012600D01*
X101996212Y-96013298D01*
X101996212Y-96013298D01*
G37*
D22*
X101837000Y-96327600D03*
D35*
X102967800Y-98080200D03*
X102459800Y-100213800D03*
X101824800Y-97191200D03*
X101901000Y-99588200D03*
X104441000Y-98072204D03*
X105380800Y-101225400D03*
X108153200Y-125282200D03*
X109423200Y-124571000D03*
X110042800Y-127500000D03*
X109792800Y-128500000D03*
X101833200Y-129476000D03*
X103805272Y-126232072D03*
X104991600Y-128180600D03*
X115450200Y-115976100D03*
X106854008Y-110111800D03*
X110515400Y-124494800D03*
X117238200Y-110373800D03*
X107268800Y-124573800D03*
X107010200Y-129295400D03*
X101734400Y-114680800D03*
X102234400Y-115180800D03*
X103727105Y-115714263D03*
X101172800Y-127850400D03*
X108153200Y-126171200D03*
X102425200Y-128206000D03*
X106234400Y-115180800D03*
X103729800Y-110162600D03*
X105990400Y-126740800D03*
X103803210Y-116715800D03*
X106041200Y-125597800D03*
X117862700Y-113338600D03*
X116963200Y-116749200D03*
X104736800Y-126948400D03*
X102409000Y-124691400D03*
X99774000Y-111621200D03*
X101729600Y-115758600D03*
X104734400Y-111680800D03*
X101734400Y-114180800D03*
X106234400Y-112180800D03*
X100000000Y-125215199D03*
X118588800Y-112378800D03*
D36*
X104234400Y-111680800D03*
D35*
X115109000Y-110653200D03*
X101323400Y-110300400D03*
X105584175Y-96353175D03*
X105330000Y-94355802D03*
X116154800Y-110378800D03*
X110000000Y-123859988D03*
X115349800Y-112877800D03*
X115349800Y-113877800D03*
X101346000Y-128914400D03*
X100123002Y-115199800D03*
X104017600Y-129450600D03*
X104978200Y-125064400D03*
X107253800Y-112992800D03*
X106512389Y-123949248D03*
X108149400Y-129707400D03*
X120188996Y-112380400D03*
X105734400Y-115180800D03*
X101734400Y-115180800D03*
X101323400Y-110960800D03*
X105234400Y-111680800D03*
X114956600Y-116469800D03*
X103234400Y-112180800D03*
X118919000Y-110551600D03*
X120189000Y-116106199D03*
X119604804Y-110492800D03*
X102734400Y-112180800D03*
X115349800Y-115361998D03*
X107412800Y-115572800D03*
X102734400Y-114180800D03*
X118769390Y-116698400D03*
X120039390Y-116673000D03*
X102234400Y-114180800D03*
X119833400Y-115377600D03*
X100656400Y-113642400D03*
X105380800Y-100675400D03*
X105533200Y-99091800D03*
X103454800Y-96327600D03*
X107818800Y-124573800D03*
X106234400Y-112680800D03*
X100910400Y-125441000D03*
X102237800Y-110066210D03*
X102234400Y-112180800D03*
X116688200Y-110378800D03*
X101234400Y-114680800D03*
X105734400Y-111680800D03*
X107235000Y-116487200D03*
X120112800Y-110035600D03*
X99716600Y-112245400D03*
D36*
X107387400Y-110111800D03*
D35*
X115349800Y-111867190D03*
X100377000Y-123548400D03*
X99799400Y-110960800D03*
X99183200Y-116741200D03*
X109343200Y-123853200D03*
X118360200Y-110475400D03*
X105533200Y-97644000D03*
X105126810Y-99545400D03*
X101977200Y-94533606D03*
X103653600Y-97240200D03*
X102180400Y-95752780D03*
X101723200Y-95092398D03*
X105787200Y-94101800D03*
X101175400Y-115736000D03*
X103734400Y-114680800D03*
X105734400Y-114680800D03*
X103734400Y-111680800D03*
X102358198Y-125199400D03*
X102586800Y-116444400D03*
X103234400Y-114680800D03*
X103145598Y-115826800D03*
X102307400Y-125707400D03*
X103272600Y-110518200D03*
X99310200Y-109654600D03*
X101234400Y-113180800D03*
X105234400Y-112180800D03*
X109542800Y-129500000D03*
X110029000Y-129941200D03*
X103475400Y-129450600D03*
X102383200Y-129476000D03*
X105516200Y-129450600D03*
X101722800Y-128409200D03*
X119533132Y-116770068D03*
X120239800Y-111339000D03*
X102734400Y-114680800D03*
X103153600Y-97240200D03*
X117801400Y-110399200D03*
X102536000Y-123726200D03*
X103234400Y-114180800D03*
X101977200Y-123728999D03*
X103734400Y-114180800D03*
X100046800Y-115953800D03*
X106015800Y-123972200D03*
X104234400Y-114680800D03*
X105507800Y-124023000D03*
X104263192Y-115631600D03*
X107598768Y-125301168D03*
X104234400Y-114180800D03*
X106727000Y-116309400D03*
X107285800Y-125699400D03*
X104734400Y-114680800D03*
X103704402Y-116190400D03*
X101678614Y-126152184D03*
X104734400Y-114180800D03*
X107071800Y-126198400D03*
X105234400Y-114198410D03*
X107412800Y-127198000D03*
X104127250Y-116365400D03*
X107184200Y-126698000D03*
X107477028Y-127667172D03*
X105234400Y-114680800D03*
X101671800Y-127212600D03*
X118284000Y-116698400D03*
X117776000Y-116673004D03*
X101469198Y-126639200D03*
X103526600Y-100899600D03*
X100910400Y-124891000D03*
X105350967Y-95176325D03*
X103933000Y-101153600D03*
X101494600Y-124891000D03*
X105750000Y-94750000D03*
D37*
X104214730Y-95821930D02*
X104214730Y-95496470D01*
X101837000Y-97179000D02*
X101824800Y-97191200D01*
X103653600Y-99195242D02*
X103653600Y-98920200D01*
X104214730Y-96117670D02*
X104214730Y-95821930D01*
X101837000Y-96327600D02*
X101837000Y-97179000D01*
X101934600Y-101780800D02*
X101596200Y-101442400D01*
X105063604Y-98072204D02*
X104688487Y-98072204D01*
X102911000Y-101780800D02*
X101934600Y-101780800D01*
X101596200Y-101442400D02*
X101596200Y-99893000D01*
X101726001Y-99763199D02*
X101901000Y-99588200D01*
X104688487Y-98072204D02*
X104441000Y-98072204D01*
X101596200Y-99893000D02*
X101726001Y-99763199D01*
X105533200Y-98541800D02*
X105063604Y-98072204D01*
X104556000Y-101135800D02*
X105291200Y-101135800D01*
X102911000Y-100090800D02*
X102582800Y-100090800D01*
X104556000Y-101735800D02*
X104511000Y-101780800D01*
X104270000Y-101780800D02*
X104111000Y-101780800D01*
X104005600Y-99528000D02*
X103933016Y-99528000D01*
X104556000Y-101135800D02*
X104556000Y-101735800D01*
X105291200Y-101135800D02*
X105380800Y-101225400D01*
X103789000Y-99528000D02*
X103933016Y-99528000D01*
X104111000Y-100090800D02*
X104111000Y-99633400D01*
X102911000Y-101780800D02*
X102911000Y-101180800D01*
X103653600Y-99392600D02*
X103789000Y-99528000D01*
X104111000Y-99633400D02*
X104005600Y-99528000D01*
X103653600Y-98920200D02*
X103653600Y-99392600D01*
X102459800Y-100213800D02*
X102582800Y-100090800D01*
X104004800Y-96327600D02*
X104214730Y-96117670D01*
X103153600Y-98920200D02*
X103653600Y-98920200D01*
X103653600Y-98920200D02*
X103653600Y-98080200D01*
X102911000Y-101180800D02*
X102866000Y-101135800D01*
X104214730Y-95496470D02*
X104255200Y-95456000D01*
X104511000Y-101780800D02*
X104270000Y-101780800D01*
X106854008Y-110712408D02*
X106854008Y-110359287D01*
X106390400Y-113217000D02*
X106616608Y-112990792D01*
X106272000Y-115202600D02*
X106272000Y-114694600D01*
X102277200Y-115223600D02*
X102234400Y-115180800D01*
X102258800Y-115177200D02*
X102258800Y-115202600D01*
X106616608Y-112389008D02*
X106428600Y-112201000D01*
X101835600Y-110300400D02*
X102115000Y-110579800D01*
X107463600Y-109172000D02*
X106621200Y-109172000D01*
X107746387Y-110339379D02*
X107746387Y-109454787D01*
X100942400Y-111676400D02*
X100887200Y-111621200D01*
X108143800Y-112992800D02*
X108143800Y-112002200D01*
X108118400Y-113881800D02*
X108118400Y-113018200D01*
X100554800Y-111288800D02*
X100554800Y-110739600D01*
X106621200Y-109172000D02*
X106187943Y-109605257D01*
X108118400Y-111976800D02*
X106854008Y-110712408D01*
D38*
X106854008Y-110359287D02*
X106854008Y-110111800D01*
D37*
X102233400Y-110579800D02*
X102237800Y-110584200D01*
X107328166Y-110757600D02*
X107746387Y-110339379D01*
X102237800Y-111676400D02*
X100942400Y-111676400D01*
X103736400Y-115223600D02*
X103736400Y-115704968D01*
X108143800Y-112002200D02*
X108118400Y-111976800D01*
X106880200Y-110757600D02*
X107328166Y-110757600D01*
X100887200Y-111621200D02*
X100554800Y-111288800D01*
X106616608Y-112990792D02*
X106616608Y-112389008D01*
X105674857Y-109605257D02*
X105661600Y-109592000D01*
X102237800Y-113699600D02*
X101570400Y-113699600D01*
X107746387Y-109454787D02*
X107463600Y-109172000D01*
X106225600Y-113217000D02*
X106390400Y-113217000D01*
X100554800Y-110739600D02*
X100994000Y-110300400D01*
X101570400Y-113699600D02*
X101379400Y-113890600D01*
X103736400Y-115704968D02*
X103727105Y-115714263D01*
X106428600Y-112201000D02*
X106251000Y-112201000D01*
X105788600Y-112180800D02*
X105768400Y-112201000D01*
X108118400Y-113018200D02*
X108143800Y-112992800D01*
X100994000Y-110300400D02*
X101319000Y-110300400D01*
X106187943Y-109605257D02*
X105674857Y-109605257D01*
X106234400Y-112180800D02*
X105788600Y-112180800D01*
X101323400Y-110300400D02*
X101835600Y-110300400D01*
X102115000Y-110579800D02*
X102233400Y-110579800D01*
D38*
X109549600Y-128256800D02*
X109792800Y-128500000D01*
D37*
X116950200Y-111201100D02*
X116950200Y-110661800D01*
X117341401Y-117127401D02*
X117138199Y-116924199D01*
X117138199Y-116924199D02*
X116963200Y-116749200D01*
X114136200Y-111338600D02*
X114537700Y-111338600D01*
X119122200Y-116266600D02*
X119122200Y-116941146D01*
X119259600Y-112378800D02*
X118675400Y-112378800D01*
X115174100Y-115976100D02*
X115058200Y-115860200D01*
X116950200Y-110661800D02*
X117238200Y-110373800D01*
X115450200Y-111201100D02*
X115450200Y-110994400D01*
X118935945Y-117127401D02*
X117341401Y-117127401D01*
X115058200Y-115860200D02*
X114559300Y-115860200D01*
X118842800Y-115987200D02*
X119122200Y-116266600D01*
X115950200Y-115976100D02*
X116450200Y-115976100D01*
X113722400Y-111752400D02*
X114136200Y-111338600D01*
X114559300Y-115860200D02*
X114537700Y-115838600D01*
X102414600Y-130057400D02*
X101833200Y-129476000D01*
X115450200Y-115976100D02*
X115174100Y-115976100D01*
X102823600Y-130057400D02*
X102414600Y-130057400D01*
X115950200Y-115976100D02*
X115450200Y-115976100D01*
X114537700Y-111338600D02*
X115312700Y-111338600D01*
X119122200Y-116941146D02*
X118935945Y-117127401D01*
X115450200Y-110994400D02*
X115109000Y-110653200D01*
X115312700Y-111338600D02*
X115450200Y-111201100D01*
X113722400Y-112260600D02*
X113722400Y-111752400D01*
X103486800Y-128198400D02*
X104736800Y-126948400D01*
D38*
X111304800Y-128256800D02*
X110799600Y-128256800D01*
D37*
X104736800Y-126948400D02*
X104736800Y-126945800D01*
D38*
X110799600Y-128256800D02*
X110042800Y-127500000D01*
X108354800Y-128256800D02*
X109549600Y-128256800D01*
D37*
X104736800Y-126945800D02*
X103403400Y-125612400D01*
X103986800Y-127698400D02*
X104736800Y-126948400D01*
X102401800Y-127698400D02*
X103986800Y-127698400D01*
X105052930Y-95821930D02*
X105409176Y-96178176D01*
X105409176Y-96178176D02*
X105584175Y-96353175D01*
X104214730Y-95821930D02*
X105052930Y-95821930D01*
X101774000Y-96264600D02*
X101837000Y-96327600D01*
X101774000Y-95611655D02*
X101774000Y-96264600D01*
X101988455Y-95397200D02*
X101774000Y-95611655D01*
X102755200Y-95456000D02*
X102696400Y-95397200D01*
X102696400Y-95397200D02*
X101988455Y-95397200D01*
X118675400Y-111828800D02*
X119259600Y-111828800D01*
X106486800Y-124613400D02*
X106486800Y-123974837D01*
X120112800Y-112456596D02*
X120188996Y-112380400D01*
X117862700Y-111838600D02*
X116404800Y-111838600D01*
X104986800Y-125055800D02*
X104978200Y-125064400D01*
X118665600Y-111838600D02*
X118675400Y-111828800D01*
X115365600Y-112877800D02*
X115349800Y-112877800D01*
X117862700Y-111838600D02*
X118665600Y-111838600D01*
X104978200Y-124604800D02*
X104986800Y-124613400D01*
X120112800Y-113447200D02*
X120112800Y-112456596D01*
X106486800Y-123974837D02*
X106512389Y-123949248D01*
X104986800Y-124613400D02*
X104986800Y-125055800D01*
X116404800Y-111838600D02*
X115365600Y-112877800D01*
D38*
X101715400Y-115199800D02*
X101734400Y-115180800D01*
D37*
X102030200Y-111134200D02*
X102237800Y-111134200D01*
X101856800Y-110960800D02*
X102030200Y-111134200D01*
X101323400Y-110960800D02*
X101856800Y-110960800D01*
X101708800Y-115177200D02*
X100145602Y-115177200D01*
D38*
X100145602Y-115177200D02*
X100123002Y-115199800D01*
D37*
X114384358Y-116469800D02*
X114956600Y-116469800D01*
X113686600Y-115772042D02*
X114384358Y-116469800D01*
X113686600Y-114410800D02*
X113686600Y-115772042D01*
X119531210Y-112012056D02*
X119528600Y-112014666D01*
X119531210Y-112562056D02*
X119528600Y-112564666D01*
X119531210Y-112195544D02*
X119531210Y-112562056D01*
X119192799Y-113097201D02*
X118842800Y-113447200D01*
X119528600Y-111642934D02*
X119531210Y-111645544D01*
X119528600Y-112761400D02*
X119192799Y-113097201D01*
X119528600Y-112192934D02*
X119531210Y-112195544D01*
X119528600Y-111161200D02*
X119528600Y-111642934D01*
X118919000Y-110551600D02*
X119528600Y-111161200D01*
X119528600Y-112014666D02*
X119528600Y-112192934D01*
X119531210Y-111645544D02*
X119531210Y-112012056D01*
X119528600Y-112564666D02*
X119528600Y-112761400D01*
X119503200Y-113210600D02*
X119805199Y-112908601D01*
X120112800Y-114717200D02*
X119503200Y-114107600D01*
X119779803Y-110667799D02*
X119604804Y-110492800D01*
X119805199Y-112908601D02*
X119805199Y-110693195D01*
X119503200Y-114107600D02*
X119503200Y-113210600D01*
X119805199Y-110693195D02*
X119779803Y-110667799D01*
X103454800Y-95883400D02*
X103454800Y-96327600D01*
X104556000Y-100735800D02*
X105320400Y-100735800D01*
X104511000Y-100090800D02*
X104511000Y-100690800D01*
X104511000Y-100690800D02*
X104556000Y-100735800D01*
X104255200Y-94956000D02*
X103755200Y-95456000D01*
X103755200Y-95456000D02*
X103755200Y-95583000D01*
X104825200Y-99091800D02*
X104653600Y-98920200D01*
X103454800Y-96327600D02*
X102727000Y-96327600D01*
X105533200Y-99091800D02*
X104825200Y-99091800D01*
X103755200Y-95583000D02*
X103454800Y-95883400D01*
X105320400Y-100735800D02*
X105380800Y-100675400D01*
X100653602Y-125697798D02*
X100910400Y-125441000D01*
X99390400Y-125697798D02*
X100653602Y-125697798D01*
X106902600Y-111651000D02*
X107228400Y-111976800D01*
X101196400Y-114694600D02*
X101221800Y-114669200D01*
X106221200Y-111680800D02*
X106251000Y-111651000D01*
X105734400Y-111680800D02*
X106221200Y-111680800D01*
D38*
X107503600Y-116218600D02*
X107235000Y-116487200D01*
D37*
X99782800Y-112450600D02*
X99489400Y-112450600D01*
D38*
X107997000Y-116218600D02*
X107503600Y-116218600D01*
D37*
X100337200Y-111621200D02*
X100337200Y-111896200D01*
X106251000Y-111651000D02*
X106902600Y-111651000D01*
X116683200Y-110373800D02*
X116688200Y-110378800D01*
X100337200Y-111896200D02*
X99782800Y-112450600D01*
X100303000Y-114694600D02*
X101196400Y-114694600D01*
X116633000Y-110434000D02*
X116688200Y-110378800D01*
X116633000Y-110637200D02*
X116633000Y-110434000D01*
X116450200Y-111201100D02*
X116450200Y-110820000D01*
X116450200Y-110820000D02*
X116633000Y-110637200D01*
X107313400Y-110037800D02*
X107387400Y-110111800D01*
X107313400Y-109640000D02*
X107313400Y-110037800D01*
D39*
X100859609Y-123040391D02*
X100377000Y-123523000D01*
X100377000Y-123523000D02*
X100377000Y-123548400D01*
X109343200Y-123853200D02*
X108530391Y-123040391D01*
X108530391Y-123040391D02*
X100859609Y-123040391D01*
D37*
X99219600Y-111621200D02*
X99219600Y-111229800D01*
X99219600Y-111229800D02*
X99499000Y-110950400D01*
X114169200Y-110137200D02*
X114397800Y-109908600D01*
X118360200Y-110227913D02*
X118360200Y-110475400D01*
X114397800Y-109908600D02*
X118040887Y-109908600D01*
X118040887Y-109908600D02*
X118360200Y-110227913D01*
X104799800Y-97094000D02*
X104653600Y-97240200D01*
X105533200Y-97094000D02*
X104799800Y-97094000D01*
X104153600Y-99195242D02*
X104503758Y-99545400D01*
X104503758Y-99545400D02*
X104879323Y-99545400D01*
X104879323Y-99545400D02*
X105126810Y-99545400D01*
X104153600Y-98920200D02*
X104153600Y-99195242D01*
X104153600Y-97240200D02*
X104153600Y-96893400D01*
X104153600Y-96893400D02*
X104694000Y-96353000D01*
X102053406Y-94533606D02*
X101977200Y-94533606D01*
X102755200Y-94956000D02*
X102475800Y-94956000D01*
X102475800Y-94956000D02*
X102053406Y-94533606D01*
X102236421Y-95808801D02*
X102180400Y-95752780D01*
X103255200Y-95456000D02*
X102902399Y-95808801D01*
X102902399Y-95808801D02*
X102236421Y-95808801D01*
X103409000Y-93746200D02*
X103120200Y-93457400D01*
X103567546Y-93746200D02*
X103409000Y-93746200D01*
X104255200Y-94456000D02*
X104277346Y-94456000D01*
X104277346Y-94456000D02*
X103567546Y-93746200D01*
X101596200Y-94965398D02*
X101723200Y-95092398D01*
X101596200Y-94305000D02*
X101596200Y-94965398D01*
X103069400Y-93609800D02*
X102291400Y-93609800D01*
X102291400Y-93609800D02*
X101596200Y-94305000D01*
X104755200Y-93898600D02*
X104755200Y-94456000D01*
X104390200Y-93305000D02*
X104390200Y-93533600D01*
X104390200Y-93533600D02*
X104755200Y-93898600D01*
X104466400Y-93609800D02*
X105295200Y-93609800D01*
X105612201Y-93926801D02*
X105787200Y-94101800D01*
X105295200Y-93609800D02*
X105612201Y-93926801D01*
X102653600Y-97240200D02*
X102389881Y-97240200D01*
X102053400Y-100043600D02*
X102053400Y-100395000D01*
X102389881Y-97240200D02*
X102053400Y-97576681D01*
X102053400Y-100395000D02*
X102053400Y-100650000D01*
X102653600Y-99392600D02*
X102053400Y-99992800D01*
X102366200Y-98920200D02*
X102653600Y-98920200D01*
X102053400Y-97576681D02*
X102053400Y-98607400D01*
X102053400Y-98607400D02*
X102366200Y-98920200D01*
X102653600Y-99392600D02*
X102653600Y-98920200D01*
X102517600Y-100735800D02*
X102053400Y-101200000D01*
X102866000Y-100735800D02*
X102517600Y-100735800D01*
X103711000Y-100090800D02*
X103311000Y-100090800D01*
X107228400Y-114120000D02*
X107997000Y-114888600D01*
X107336600Y-113773600D02*
X107336600Y-113744000D01*
X104235666Y-115191800D02*
X103734400Y-114690534D01*
X103734400Y-114690534D02*
X103734400Y-114680800D01*
X105722000Y-114694600D02*
X106367800Y-114048800D01*
X107061400Y-114048800D02*
X107336600Y-113773600D01*
X107343200Y-113996600D02*
X107228400Y-113881800D01*
X105584000Y-115623600D02*
X105152200Y-115191800D01*
X105152200Y-115191800D02*
X104235666Y-115191800D01*
X101448229Y-116161429D02*
X101175400Y-115888600D01*
X106727000Y-115623600D02*
X105584000Y-115623600D01*
X101175400Y-115888600D02*
X101175400Y-115736000D01*
X107997000Y-114888600D02*
X107462000Y-114888600D01*
X103734400Y-114680800D02*
X103388590Y-115026610D01*
X106367800Y-114048800D02*
X107061400Y-114048800D01*
X107462000Y-114888600D02*
X106727000Y-115623600D01*
X103388590Y-115026610D02*
X103364844Y-115026610D01*
X103364844Y-115026610D02*
X102230025Y-116161429D01*
X102230025Y-116161429D02*
X101448229Y-116161429D01*
X107228400Y-113881800D02*
X107228400Y-114120000D01*
X103734400Y-111399200D02*
X103734400Y-111680800D01*
X104376000Y-110757600D02*
X103734400Y-111399200D01*
X104376000Y-110757600D02*
X105520200Y-110757600D01*
X102242200Y-109487600D02*
X102237800Y-109492000D01*
X103302200Y-109741600D02*
X103253800Y-109741600D01*
X103253800Y-109741600D02*
X102999800Y-109487600D01*
X102999800Y-109487600D02*
X102242200Y-109487600D01*
X104986200Y-109741600D02*
X105011600Y-109767000D01*
X104272200Y-109741600D02*
X104986200Y-109741600D01*
X102401800Y-125198400D02*
X102400800Y-125199400D01*
X102400800Y-125199400D02*
X102358198Y-125199400D01*
X99499000Y-109650400D02*
X100998800Y-109650400D01*
X99499000Y-109650400D02*
X99314400Y-109650400D01*
X99314400Y-109650400D02*
X99310200Y-109654600D01*
X105661600Y-109942000D02*
X106461400Y-109942000D01*
X106553470Y-109849930D02*
X106763400Y-109640000D01*
X106461400Y-109942000D02*
X106553470Y-109849930D01*
X99753000Y-114694600D02*
X99753000Y-114154200D01*
X99753000Y-114154200D02*
X99489400Y-113890600D01*
X102237800Y-113149600D02*
X101265600Y-113149600D01*
X101265600Y-113149600D02*
X101234400Y-113180800D01*
X101379400Y-112450600D02*
X101488010Y-112559210D01*
X104855990Y-112559210D02*
X105234400Y-112180800D01*
X101488010Y-112559210D02*
X104855990Y-112559210D01*
X105415600Y-130060200D02*
X105512200Y-130060200D01*
X104986800Y-129283400D02*
X104986800Y-129631400D01*
X104986800Y-129631400D02*
X105415600Y-130060200D01*
X104465800Y-130057400D02*
X104465800Y-129304400D01*
X104465800Y-129304400D02*
X104486800Y-129283400D01*
X103915800Y-130057400D02*
X103373600Y-130057400D01*
X106062200Y-130060200D02*
X109528900Y-130060200D01*
X109528900Y-130060200D02*
X109829800Y-129759300D01*
X102986800Y-129283400D02*
X102986800Y-129295200D01*
X102790000Y-129492000D02*
X102399200Y-129492000D01*
X102986800Y-129295200D02*
X102790000Y-129492000D01*
X102399200Y-129492000D02*
X102383200Y-129476000D01*
X102012000Y-128698400D02*
X101722800Y-128409200D01*
X102401800Y-128698400D02*
X102012000Y-128698400D01*
X119427000Y-115301400D02*
X119427000Y-116663936D01*
X118842800Y-114717200D02*
X119427000Y-115301400D01*
X119427000Y-116663936D02*
X119533132Y-116770068D01*
X103987544Y-124612656D02*
X103986800Y-124613400D01*
X103986800Y-124313400D02*
X103399600Y-123726200D01*
X103399600Y-123726200D02*
X102783487Y-123726200D01*
X103986800Y-124613400D02*
X103986800Y-124313400D01*
X102783487Y-123726200D02*
X102536000Y-123726200D01*
X104486800Y-124323358D02*
X103508642Y-123345200D01*
X101977200Y-123650000D02*
X101977200Y-123728999D01*
X102282000Y-123345200D02*
X101977200Y-123650000D01*
X103508642Y-123345200D02*
X102282000Y-123345200D01*
X104486800Y-124613400D02*
X104486800Y-124323358D01*
X105986800Y-124001200D02*
X106015800Y-123972200D01*
X105986800Y-124613400D02*
X105986800Y-124001200D01*
X105486800Y-124613400D02*
X105486800Y-124044000D01*
X105486800Y-124044000D02*
X105507800Y-124023000D01*
X107071800Y-125198400D02*
X107496000Y-125198400D01*
X107496000Y-125198400D02*
X107598768Y-125301168D01*
D40*
X107284800Y-125698400D02*
X107285800Y-125699400D01*
X107071800Y-125698400D02*
X107284800Y-125698400D01*
D37*
X100000000Y-126180398D02*
X101650400Y-126180398D01*
X101650400Y-126180398D02*
X101678614Y-126152184D01*
X101724830Y-126198400D02*
X101678614Y-126152184D01*
X102401800Y-126198400D02*
X101724830Y-126198400D01*
X107412400Y-127198400D02*
X107412800Y-127198000D01*
X107071800Y-127198400D02*
X107412400Y-127198400D01*
X107183800Y-126698400D02*
X107184200Y-126698000D01*
X107071800Y-126698400D02*
X107183800Y-126698400D01*
X107071800Y-127698400D02*
X107445800Y-127698400D01*
X107445800Y-127698400D02*
X107477028Y-127667172D01*
X103221800Y-124081800D02*
X100168200Y-124081800D01*
X100168200Y-124081800D02*
X100000000Y-124250000D01*
X103486800Y-124346800D02*
X103221800Y-124081800D01*
X103486800Y-124613400D02*
X103486800Y-124346800D01*
X100859589Y-124335811D02*
X102709211Y-124335811D01*
X99390400Y-124732599D02*
X100462801Y-124732599D01*
X102709211Y-124335811D02*
X102986800Y-124613400D01*
X100462801Y-124732599D02*
X100859589Y-124335811D01*
X113750400Y-112838600D02*
X113722400Y-112810600D01*
X114537700Y-112838600D02*
X113750400Y-112838600D01*
X102401800Y-127198400D02*
X101686000Y-127198400D01*
X117862700Y-115838600D02*
X117862700Y-116118000D01*
X118284000Y-116539300D02*
X118284000Y-116698400D01*
X101686000Y-127198400D02*
X101671800Y-127212600D01*
X117862700Y-116118000D02*
X118284000Y-116539300D01*
X116950200Y-115976100D02*
X117087100Y-115976100D01*
X102401800Y-126698400D02*
X101528398Y-126698400D01*
X117776000Y-116665000D02*
X117776000Y-116673004D01*
X117087100Y-115976100D02*
X117776000Y-116665000D01*
X101528398Y-126698400D02*
X101469198Y-126639200D01*
X115596000Y-110471800D02*
X115596000Y-110373800D01*
X115950200Y-110826000D02*
X115596000Y-110471800D01*
X115950200Y-111201100D02*
X115950200Y-110826000D01*
X114537700Y-113838600D02*
X113708800Y-113838600D01*
X113708800Y-113838600D02*
X113686600Y-113860800D01*
X103348801Y-101077399D02*
X103526600Y-100899600D01*
X103348801Y-101742999D02*
X103348801Y-101077399D01*
X103311000Y-101780800D02*
X103348801Y-101742999D01*
X105175968Y-95351324D02*
X105350967Y-95176325D01*
X104755200Y-95456000D02*
X105071292Y-95456000D01*
X105071292Y-95456000D02*
X105175968Y-95351324D01*
X103711000Y-101780800D02*
X103711000Y-101375600D01*
X103711000Y-101375600D02*
X103933000Y-101153600D01*
X105502513Y-94750000D02*
X105750000Y-94750000D01*
X105164400Y-94750000D02*
X105502513Y-94750000D01*
X104755200Y-94956000D02*
X104958400Y-94956000D01*
X104958400Y-94956000D02*
X105164400Y-94750000D01*
M02*
