G04 #@! TF.GenerationSoftware,KiCad,Pcbnew,(5.1.0)-1*
G04 #@! TF.CreationDate,2020-01-09T13:35:55-08:00*
G04 #@! TF.ProjectId,Miniscope-v4-Rigid-Flex,4d696e69-7363-46f7-9065-2d76342d5269,rev?*
G04 #@! TF.SameCoordinates,Original*
G04 #@! TF.FileFunction,Legend,Top*
G04 #@! TF.FilePolarity,Positive*
%FSLAX46Y46*%
G04 Gerber Fmt 4.6, Leading zero omitted, Abs format (unit mm)*
G04 Created by KiCad (PCBNEW (5.1.0)-1) date 2020-01-09 13:35:55*
%MOMM*%
%LPD*%
G04 APERTURE LIST*
%ADD10C,0.100000*%
%ADD11C,0.120000*%
%ADD12C,0.150000*%
G04 APERTURE END LIST*
D10*
X107316800Y-124368400D02*
X106766800Y-124368400D01*
X107316800Y-124918400D02*
X107316800Y-124368400D01*
X107316800Y-129528400D02*
X106766800Y-129528400D01*
X107316800Y-128978400D02*
X107316800Y-129528400D01*
X102156800Y-129528400D02*
X102706800Y-129528400D01*
X102156800Y-128978400D02*
X102156800Y-129528400D01*
X102156800Y-124368400D02*
X102706800Y-124368400D01*
X102156800Y-124918400D02*
X102156800Y-124368400D01*
D11*
X114190200Y-110878600D02*
X114190200Y-111138600D01*
X114190200Y-110878600D02*
X114450200Y-110878600D01*
X118210200Y-110878600D02*
X118210200Y-111138600D01*
X114190200Y-116298600D02*
X114190200Y-116038600D01*
X114190200Y-116298600D02*
X114450200Y-116298600D01*
X118210200Y-116298600D02*
X118210200Y-116038600D01*
X118210200Y-116298600D02*
X117950200Y-116298600D01*
D10*
X99709000Y-111380400D02*
X99709000Y-111270400D01*
X101109000Y-111380400D02*
X99709000Y-111380400D01*
X101109000Y-111270400D02*
X101109000Y-111380400D01*
X99709000Y-109220400D02*
X99709000Y-109330400D01*
X101109000Y-109220400D02*
X99709000Y-109220400D01*
X101109000Y-109330400D02*
X101109000Y-109220400D01*
X99104400Y-113325600D02*
X99104400Y-113015600D01*
X101764400Y-113325600D02*
X101764400Y-113015600D01*
X100079400Y-114250600D02*
X100789400Y-114250600D01*
X100789400Y-112090600D02*
X100079400Y-112090600D01*
D12*
X99159400Y-113170600D02*
X100434400Y-113170600D01*
X100434400Y-113170600D02*
X100434400Y-114220600D01*
D10*
X106075200Y-111237600D02*
X106325200Y-111237600D01*
X106075200Y-110277600D02*
X106325200Y-110277600D01*
D11*
X105986600Y-109327000D02*
X105986600Y-110207000D01*
X105986600Y-110207000D02*
X104686600Y-110207000D01*
X104686600Y-110207000D02*
X104686600Y-109327000D01*
X104686600Y-109327000D02*
X105986600Y-109327000D01*
D10*
X104927200Y-109603800D02*
G75*
G03X104927200Y-109603800I-50000J0D01*
G01*
X104771000Y-101965800D02*
X104771000Y-101395800D01*
X102651000Y-101965800D02*
X102651000Y-101395800D01*
X102651000Y-99905800D02*
X102651000Y-100475800D01*
X104771000Y-99905800D02*
X104771000Y-100475800D01*
X102368600Y-97030200D02*
X102103600Y-97030200D01*
X102103600Y-97030200D02*
X102103600Y-99130200D01*
X102103600Y-99130200D02*
X102368600Y-99130200D01*
X104938600Y-97030200D02*
X105203600Y-97030200D01*
X105203600Y-97030200D02*
X105203600Y-99130200D01*
X105203600Y-99130200D02*
X104938600Y-99130200D01*
X102415200Y-95796000D02*
X102835200Y-95796000D01*
X102415200Y-95376000D02*
X102415200Y-95796000D01*
X102415200Y-94116000D02*
X102835200Y-94116000D01*
X102415200Y-94536000D02*
X102415200Y-94116000D01*
X105095200Y-94116000D02*
X104675200Y-94116000D01*
X105095200Y-94536000D02*
X105095200Y-94116000D01*
X105095200Y-95796000D02*
X104675200Y-95796000D01*
X105095200Y-95376000D02*
X105095200Y-95796000D01*
M02*
