G04 #@! TF.GenerationSoftware,KiCad,Pcbnew,(5.1.0)-1*
G04 #@! TF.CreationDate,2019-09-15T18:31:35-07:00*
G04 #@! TF.ProjectId,Miniscope-v4-Rigid-Flex,4d696e69-7363-46f7-9065-2d76342d5269,rev?*
G04 #@! TF.SameCoordinates,Original*
G04 #@! TF.FileFunction,Other,Fab,Bot*
%FSLAX46Y46*%
G04 Gerber Fmt 4.6, Leading zero omitted, Abs format (unit mm)*
G04 Created by KiCad (PCBNEW (5.1.0)-1) date 2019-09-15 18:31:35*
%MOMM*%
%LPD*%
G04 APERTURE LIST*
%ADD10C,0.120000*%
%ADD11C,0.100000*%
G04 APERTURE END LIST*
D10*
X100664400Y-110960800D02*
X100664400Y-115900800D01*
X100664400Y-115900800D02*
X106804400Y-115900800D01*
X106804400Y-115900800D02*
X106804400Y-110960800D01*
X106804400Y-110960800D02*
X100664400Y-110960800D01*
X101664600Y-124846000D02*
X101324600Y-124846000D01*
X101324600Y-124846000D02*
X101324600Y-125486000D01*
X101324600Y-125486000D02*
X101664600Y-125486000D01*
X101664600Y-125486000D02*
X101664600Y-124846000D01*
X101080400Y-124846000D02*
X100740400Y-124846000D01*
X100740400Y-124846000D02*
X100740400Y-125486000D01*
X100740400Y-125486000D02*
X101080400Y-125486000D01*
X101080400Y-125486000D02*
X101080400Y-124846000D01*
X114542400Y-113310000D02*
X114542400Y-112670000D01*
X114202400Y-113310000D02*
X114542400Y-113310000D01*
X114202400Y-112670000D02*
X114202400Y-113310000D01*
X114542400Y-112670000D02*
X114202400Y-112670000D01*
X105528200Y-95500600D02*
X103368200Y-95500600D01*
X105528200Y-96900600D02*
X105528200Y-95500600D01*
X103368200Y-96900600D02*
X105528200Y-96900600D01*
X103368200Y-95500600D02*
X103368200Y-96900600D01*
X110243600Y-125785600D02*
X111803600Y-125785600D01*
X110243600Y-124225600D02*
X110243600Y-125785600D01*
X111803600Y-124225600D02*
X110243600Y-124225600D01*
X111803600Y-125785600D02*
X111803600Y-124225600D01*
X102428200Y-128747200D02*
X101788200Y-128747200D01*
X102428200Y-129087200D02*
X102428200Y-128747200D01*
X101788200Y-129087200D02*
X102428200Y-129087200D01*
X101788200Y-128747200D02*
X101788200Y-129087200D01*
X101127800Y-128020400D02*
X101767800Y-128020400D01*
X101127800Y-127680400D02*
X101127800Y-128020400D01*
X101767800Y-127680400D02*
X101127800Y-127680400D01*
X101767800Y-128020400D02*
X101767800Y-127680400D01*
X101767800Y-128239200D02*
X101127800Y-128239200D01*
X101767800Y-128579200D02*
X101767800Y-128239200D01*
X101127800Y-128579200D02*
X101767800Y-128579200D01*
X101127800Y-128239200D02*
X101127800Y-128579200D01*
X111161800Y-126139000D02*
X110521800Y-126139000D01*
X111161800Y-126479000D02*
X111161800Y-126139000D01*
X110521800Y-126479000D02*
X111161800Y-126479000D01*
X110521800Y-126139000D02*
X110521800Y-126479000D01*
D11*
X106748400Y-127117800D02*
X105748400Y-127117800D01*
X106748400Y-127617800D02*
X106748400Y-127117800D01*
X105748400Y-127617800D02*
X106748400Y-127617800D01*
X105748400Y-127117800D02*
X105748400Y-127617800D01*
X102319400Y-127617800D02*
X103319400Y-127617800D01*
X102319400Y-127117800D02*
X102319400Y-127617800D01*
X103319400Y-127117800D02*
X102319400Y-127117800D01*
X103319400Y-127617800D02*
X103319400Y-127117800D01*
D10*
X108155200Y-129411600D02*
X111555200Y-129411600D01*
X108155200Y-126711600D02*
X108155200Y-129411600D01*
X111555200Y-126711600D02*
X108155200Y-126711600D01*
X111555200Y-129411600D02*
X111555200Y-126711600D01*
D11*
X111015600Y-129640400D02*
X110015600Y-129640400D01*
X111015600Y-130140400D02*
X111015600Y-129640400D01*
X110015600Y-130140400D02*
X111015600Y-130140400D01*
X110015600Y-129640400D02*
X110015600Y-130140400D01*
D10*
X105577800Y-124886400D02*
X104937800Y-124886400D01*
X105577800Y-125226400D02*
X105577800Y-124886400D01*
X104937800Y-125226400D02*
X105577800Y-125226400D01*
X104937800Y-124886400D02*
X104937800Y-125226400D01*
X105577800Y-124302200D02*
X104937800Y-124302200D01*
X105577800Y-124642200D02*
X105577800Y-124302200D01*
X104937800Y-124642200D02*
X105577800Y-124642200D01*
X104937800Y-124302200D02*
X104937800Y-124642200D01*
X106004600Y-124642200D02*
X106644600Y-124642200D01*
X106004600Y-124302200D02*
X106004600Y-124642200D01*
X106644600Y-124302200D02*
X106004600Y-124302200D01*
X106644600Y-124642200D02*
X106644600Y-124302200D01*
X106004600Y-125226400D02*
X106644600Y-125226400D01*
X106004600Y-124886400D02*
X106004600Y-125226400D01*
X106644600Y-124886400D02*
X106004600Y-124886400D01*
X106644600Y-125226400D02*
X106644600Y-124886400D01*
X106111200Y-129280600D02*
X105471200Y-129280600D01*
X106111200Y-129620600D02*
X106111200Y-129280600D01*
X105471200Y-129620600D02*
X106111200Y-129620600D01*
X105471200Y-129280600D02*
X105471200Y-129620600D01*
X106111200Y-128747200D02*
X105471200Y-128747200D01*
X106111200Y-129087200D02*
X106111200Y-128747200D01*
X105471200Y-129087200D02*
X106111200Y-129087200D01*
X105471200Y-128747200D02*
X105471200Y-129087200D01*
X106803000Y-127876000D02*
X105643000Y-127876000D01*
X106803000Y-128536000D02*
X106803000Y-127876000D01*
X105643000Y-128536000D02*
X106803000Y-128536000D01*
X105643000Y-127876000D02*
X105643000Y-128536000D01*
X101788200Y-129646000D02*
X102428200Y-129646000D01*
X101788200Y-129306000D02*
X101788200Y-129646000D01*
X102428200Y-129306000D02*
X101788200Y-129306000D01*
X102428200Y-129646000D02*
X102428200Y-129306000D01*
X102880400Y-129620600D02*
X103520400Y-129620600D01*
X102880400Y-129280600D02*
X102880400Y-129620600D01*
X103520400Y-129280600D02*
X102880400Y-129280600D01*
X103520400Y-129620600D02*
X103520400Y-129280600D01*
X102880400Y-129087200D02*
X103520400Y-129087200D01*
X102880400Y-128747200D02*
X102880400Y-129087200D01*
X103520400Y-128747200D02*
X102880400Y-128747200D01*
X103520400Y-129087200D02*
X103520400Y-128747200D01*
X102290200Y-128536000D02*
X103450200Y-128536000D01*
X102290200Y-127876000D02*
X102290200Y-128536000D01*
X103450200Y-127876000D02*
X102290200Y-127876000D01*
X103450200Y-128536000D02*
X103450200Y-127876000D01*
X104612600Y-128721800D02*
X103972600Y-128721800D01*
X104612600Y-129061800D02*
X104612600Y-128721800D01*
X103972600Y-129061800D02*
X104612600Y-129061800D01*
X103972600Y-128721800D02*
X103972600Y-129061800D01*
X104612600Y-129280600D02*
X103972600Y-129280600D01*
X104612600Y-129620600D02*
X104612600Y-129280600D01*
X103972600Y-129620600D02*
X104612600Y-129620600D01*
X103972600Y-129280600D02*
X103972600Y-129620600D01*
X105126600Y-127850600D02*
X103966600Y-127850600D01*
X105126600Y-128510600D02*
X105126600Y-127850600D01*
X103966600Y-128510600D02*
X105126600Y-128510600D01*
X103966600Y-127850600D02*
X103966600Y-128510600D01*
X108316000Y-124743800D02*
X108956000Y-124743800D01*
X108316000Y-124403800D02*
X108316000Y-124743800D01*
X108956000Y-124403800D02*
X108316000Y-124403800D01*
X108956000Y-124743800D02*
X108956000Y-124403800D01*
X109382800Y-124743800D02*
X110022800Y-124743800D01*
X109382800Y-124403800D02*
X109382800Y-124743800D01*
X110022800Y-124403800D02*
X109382800Y-124403800D01*
X110022800Y-124743800D02*
X110022800Y-124403800D01*
X107223800Y-124743800D02*
X107863800Y-124743800D01*
X107223800Y-124403800D02*
X107223800Y-124743800D01*
X107863800Y-124403800D02*
X107223800Y-124403800D01*
X107863800Y-124743800D02*
X107863800Y-124403800D01*
X108030600Y-126504000D02*
X109190600Y-126504000D01*
X108030600Y-125844000D02*
X108030600Y-126504000D01*
X109190600Y-125844000D02*
X108030600Y-125844000D01*
X109190600Y-126504000D02*
X109190600Y-125844000D01*
X108030600Y-125640400D02*
X109190600Y-125640400D01*
X108030600Y-124980400D02*
X108030600Y-125640400D01*
X109190600Y-124980400D02*
X108030600Y-124980400D01*
X109190600Y-125640400D02*
X109190600Y-124980400D01*
X102880600Y-95354400D02*
X104680600Y-95354400D01*
X102880600Y-94354400D02*
X102880600Y-95354400D01*
X104680600Y-94354400D02*
X102880600Y-94354400D01*
X104680600Y-95354400D02*
X104680600Y-94354400D01*
X102581000Y-96160800D02*
X102581000Y-94360800D01*
X101221000Y-96160800D02*
X102581000Y-96160800D01*
X101221000Y-94360800D02*
X101221000Y-96160800D01*
X102581000Y-94360800D02*
X101221000Y-94360800D01*
X104340000Y-98860000D02*
X102960000Y-98860000D01*
X104340000Y-100640000D02*
X104340000Y-98860000D01*
X102960000Y-100640000D02*
X104340000Y-100640000D01*
X102960000Y-98860000D02*
X102960000Y-100640000D01*
X104635200Y-93231400D02*
X102875200Y-93231400D01*
X104635200Y-94191400D02*
X104635200Y-93231400D01*
X102875200Y-94191400D02*
X104635200Y-94191400D01*
X102875200Y-93231400D02*
X102875200Y-94191400D01*
X115104800Y-116207800D02*
X120264800Y-116207800D01*
X120264800Y-116207800D02*
X120264800Y-111047800D01*
X120264800Y-111047800D02*
X115104800Y-111047800D01*
X115104800Y-111047800D02*
X115104800Y-116207800D01*
X114687400Y-114995200D02*
X114687400Y-113835200D01*
X114027400Y-114995200D02*
X114687400Y-114995200D01*
X114027400Y-113835200D02*
X114027400Y-114995200D01*
X114687400Y-113835200D02*
X114027400Y-113835200D01*
M02*
