G04 #@! TF.GenerationSoftware,KiCad,Pcbnew,(5.1.0)-1*
G04 #@! TF.CreationDate,2019-05-03T22:13:54-07:00*
G04 #@! TF.ProjectId,Miniscope-v4-FlexPC,4d696e69-7363-46f7-9065-2d76342d466c,rev?*
G04 #@! TF.SameCoordinates,PXff95b0PYe11130*
G04 #@! TF.FileFunction,Copper,L1,Top*
G04 #@! TF.FilePolarity,Positive*
%FSLAX46Y46*%
G04 Gerber Fmt 4.6, Leading zero omitted, Abs format (unit mm)*
G04 Created by KiCad (PCBNEW (5.1.0)-1) date 2019-05-03 22:13:54*
%MOMM*%
%LPD*%
G04 APERTURE LIST*
%ADD10C,0.508000*%
%ADD11C,0.152400*%
G04 APERTURE END LIST*
D10*
X16804173Y-14052600D03*
X16321574Y-13443000D03*
X15838974Y-14052600D03*
X15356375Y-13443000D03*
X14873775Y-14052600D03*
X14391176Y-13443000D03*
X13908576Y-14052600D03*
X13425977Y-13443000D03*
X12943377Y-14052600D03*
X12460778Y-13443000D03*
X11978178Y-14052600D03*
X11495579Y-13443000D03*
X11012979Y-14052600D03*
X10530380Y-13443000D03*
X16804173Y-6052600D03*
X16321574Y-5443000D03*
X15838974Y-6052600D03*
X15356375Y-5443000D03*
X14873775Y-6052600D03*
X14391176Y-5443000D03*
X13908576Y-6052600D03*
X13425977Y-5443000D03*
X12943377Y-6052600D03*
X12460778Y-5443000D03*
X11978178Y-6052600D03*
X11495579Y-5443000D03*
X11012979Y-6052600D03*
X10530380Y-5443000D03*
X436800Y-668202D03*
X436800Y-1633401D03*
X1046400Y-1150802D03*
X436800Y-2598600D03*
X1046400Y-2116001D03*
X10436800Y-668202D03*
X10436800Y-1633401D03*
X11046400Y-1150802D03*
X10436800Y-2598600D03*
X11046400Y-2116001D03*
X17919240Y-22813050D03*
X18528840Y-22330451D03*
X17919240Y-21847851D03*
X18528840Y-21365252D03*
X17919240Y-20882652D03*
X18528840Y-20400053D03*
X17919240Y-19917453D03*
X18528840Y-19434854D03*
X17919240Y-18952254D03*
X18528840Y-18469655D03*
X17919240Y-17987055D03*
X18528840Y-17504456D03*
X17919240Y-17021856D03*
X18528840Y-16539257D03*
X17919240Y-16056657D03*
X18528840Y-15574058D03*
X17919240Y-15091458D03*
X18528840Y-14608859D03*
X17919240Y-14126259D03*
X18528840Y-13643660D03*
X24528840Y-13643660D03*
X23919240Y-14126259D03*
X24528840Y-14608859D03*
X23919240Y-15091458D03*
X24528840Y-15574058D03*
X23919240Y-16056657D03*
X24528840Y-16539257D03*
X23919240Y-17021856D03*
X24528840Y-17504456D03*
X23919240Y-17987055D03*
X24528840Y-18469655D03*
X23919240Y-18952254D03*
X24528840Y-19434854D03*
X23919240Y-19917453D03*
X24528840Y-20400053D03*
X23919240Y-20882652D03*
X24528840Y-21365252D03*
X23919240Y-21847851D03*
X24528840Y-22330451D03*
X23919240Y-22813050D03*
D11*
X18528840Y-13643660D02*
X24528840Y-13643660D01*
X23919240Y-14126259D02*
X17919240Y-14126259D01*
X18528840Y-14608859D02*
X24528840Y-14608859D01*
X18334782Y-15091458D02*
X17919240Y-15091458D01*
X23919240Y-15091458D02*
X18334782Y-15091458D01*
X18528840Y-15574058D02*
X24528840Y-15574058D01*
X23919240Y-16056657D02*
X17919240Y-16056657D01*
X18888050Y-16539257D02*
X24528840Y-16539257D01*
X18528840Y-16539257D02*
X18888050Y-16539257D01*
X23919240Y-17021856D02*
X17919240Y-17021856D01*
X24113299Y-17504456D02*
X24528840Y-17504456D01*
X18528840Y-17504456D02*
X24113299Y-17504456D01*
X23919240Y-17987055D02*
X17919240Y-17987055D01*
X18528840Y-18469655D02*
X24528840Y-18469655D01*
X23919240Y-18952254D02*
X17919240Y-18952254D01*
X18528840Y-19434854D02*
X24528840Y-19434854D01*
X23919240Y-19917453D02*
X17919240Y-19917453D01*
X18528840Y-20400053D02*
X24528840Y-20400053D01*
X23919240Y-20882652D02*
X17919240Y-20882652D01*
X18528840Y-21365252D02*
X24528840Y-21365252D01*
X23919240Y-21847851D02*
X17919240Y-21847851D01*
X18528840Y-22330451D02*
X24528840Y-22330451D01*
X18334781Y-22813050D02*
X17919240Y-22813050D01*
X23919240Y-22813050D02*
X18334781Y-22813050D01*
X1436800Y-668202D02*
X436800Y-668202D01*
X10436800Y-668202D02*
X1436800Y-668202D01*
X1436800Y-1633401D02*
X10436800Y-1633401D01*
X1436800Y-1633401D02*
X436800Y-1633401D01*
X11046400Y-1150802D02*
X2046400Y-1150802D01*
X2046400Y-1150802D02*
X1046400Y-1150802D01*
X1436800Y-2598600D02*
X10436800Y-2598600D01*
X1436800Y-2598600D02*
X436800Y-2598600D01*
X11046400Y-2116001D02*
X2046400Y-2116001D01*
X2046400Y-2116001D02*
X1046400Y-2116001D01*
X16804173Y-6052600D02*
X16804173Y-14052600D01*
X16321574Y-5858541D02*
X16321574Y-5443000D01*
X16321574Y-13443000D02*
X16321574Y-5858541D01*
X15838974Y-6052600D02*
X15838974Y-14052600D01*
X15356375Y-13443000D02*
X15356375Y-5443000D01*
X14873775Y-6052600D02*
X14873775Y-14052600D01*
X14391176Y-5802210D02*
X14391176Y-13443000D01*
X14391176Y-5443000D02*
X14391176Y-5802210D01*
X13908576Y-14052600D02*
X13908576Y-6052600D01*
X13425977Y-5443000D02*
X13425977Y-13443000D01*
X12943377Y-14052600D02*
X12943377Y-6052600D01*
X12460778Y-5443000D02*
X12460778Y-13443000D01*
X11978178Y-14052600D02*
X11978178Y-6052600D01*
X11495579Y-5443000D02*
X11495579Y-13443000D01*
X11012979Y-14052600D02*
X11012979Y-6052600D01*
X10530380Y-5443000D02*
X10530380Y-13443000D01*
M02*
