G04 #@! TF.GenerationSoftware,KiCad,Pcbnew,(5.1.0)-1*
G04 #@! TF.CreationDate,2019-05-03T22:13:54-07:00*
G04 #@! TF.ProjectId,Miniscope-v4-FlexPC,4d696e69-7363-46f7-9065-2d76342d466c,rev?*
G04 #@! TF.SameCoordinates,PXff95b0PYe11130*
G04 #@! TF.FileFunction,Legend,Top*
G04 #@! TF.FilePolarity,Positive*
%FSLAX46Y46*%
G04 Gerber Fmt 4.6, Leading zero omitted, Abs format (unit mm)*
G04 Created by KiCad (PCBNEW (5.1.0)-1) date 2019-05-03 22:13:54*
%MOMM*%
%LPD*%
G04 APERTURE LIST*
%ADD10C,0.150000*%
G04 APERTURE END LIST*
D10*
X20156342Y-17874780D02*
X19965866Y-17874780D01*
X19870628Y-17922400D01*
X19823009Y-17970019D01*
X19727771Y-18112876D01*
X19680152Y-18303352D01*
X19680152Y-18684304D01*
X19727771Y-18779542D01*
X19775390Y-18827161D01*
X19870628Y-18874780D01*
X20061104Y-18874780D01*
X20156342Y-18827161D01*
X20203961Y-18779542D01*
X20251580Y-18684304D01*
X20251580Y-18446209D01*
X20203961Y-18350971D01*
X20156342Y-18303352D01*
X20061104Y-18255733D01*
X19870628Y-18255733D01*
X19775390Y-18303352D01*
X19727771Y-18350971D01*
X19680152Y-18446209D01*
X20680152Y-18874780D02*
X20680152Y-18208114D01*
X20680152Y-18303352D02*
X20727771Y-18255733D01*
X20823009Y-18208114D01*
X20965866Y-18208114D01*
X21061104Y-18255733D01*
X21108723Y-18350971D01*
X21108723Y-18874780D01*
X21108723Y-18350971D02*
X21156342Y-18255733D01*
X21251580Y-18208114D01*
X21394438Y-18208114D01*
X21489676Y-18255733D01*
X21537295Y-18350971D01*
X21537295Y-18874780D01*
X22013485Y-18874780D02*
X22013485Y-18208114D01*
X22013485Y-18303352D02*
X22061104Y-18255733D01*
X22156342Y-18208114D01*
X22299200Y-18208114D01*
X22394438Y-18255733D01*
X22442057Y-18350971D01*
X22442057Y-18874780D01*
X22442057Y-18350971D02*
X22489676Y-18255733D01*
X22584914Y-18208114D01*
X22727771Y-18208114D01*
X22823009Y-18255733D01*
X22870628Y-18350971D01*
X22870628Y-18874780D01*
X12174428Y-9667352D02*
X12079190Y-9619733D01*
X12031571Y-9572114D01*
X11983952Y-9476876D01*
X11983952Y-9429257D01*
X12031571Y-9334019D01*
X12079190Y-9286400D01*
X12174428Y-9238780D01*
X12364904Y-9238780D01*
X12460142Y-9286400D01*
X12507761Y-9334019D01*
X12555380Y-9429257D01*
X12555380Y-9476876D01*
X12507761Y-9572114D01*
X12460142Y-9619733D01*
X12364904Y-9667352D01*
X12174428Y-9667352D01*
X12079190Y-9714971D01*
X12031571Y-9762590D01*
X11983952Y-9857828D01*
X11983952Y-10048304D01*
X12031571Y-10143542D01*
X12079190Y-10191161D01*
X12174428Y-10238780D01*
X12364904Y-10238780D01*
X12460142Y-10191161D01*
X12507761Y-10143542D01*
X12555380Y-10048304D01*
X12555380Y-9857828D01*
X12507761Y-9762590D01*
X12460142Y-9714971D01*
X12364904Y-9667352D01*
X12983952Y-10238780D02*
X12983952Y-9572114D01*
X12983952Y-9667352D02*
X13031571Y-9619733D01*
X13126809Y-9572114D01*
X13269666Y-9572114D01*
X13364904Y-9619733D01*
X13412523Y-9714971D01*
X13412523Y-10238780D01*
X13412523Y-9714971D02*
X13460142Y-9619733D01*
X13555380Y-9572114D01*
X13698238Y-9572114D01*
X13793476Y-9619733D01*
X13841095Y-9714971D01*
X13841095Y-10238780D01*
X14317285Y-10238780D02*
X14317285Y-9572114D01*
X14317285Y-9667352D02*
X14364904Y-9619733D01*
X14460142Y-9572114D01*
X14603000Y-9572114D01*
X14698238Y-9619733D01*
X14745857Y-9714971D01*
X14745857Y-10238780D01*
X14745857Y-9714971D02*
X14793476Y-9619733D01*
X14888714Y-9572114D01*
X15031571Y-9572114D01*
X15126809Y-9619733D01*
X15174428Y-9714971D01*
X15174428Y-10238780D01*
X4103590Y-2034580D02*
X3532161Y-2034580D01*
X3817876Y-2034580D02*
X3817876Y-1034580D01*
X3722638Y-1177438D01*
X3627400Y-1272676D01*
X3532161Y-1320295D01*
X4722638Y-1034580D02*
X4817876Y-1034580D01*
X4913114Y-1082200D01*
X4960733Y-1129819D01*
X5008352Y-1225057D01*
X5055971Y-1415533D01*
X5055971Y-1653628D01*
X5008352Y-1844104D01*
X4960733Y-1939342D01*
X4913114Y-1986961D01*
X4817876Y-2034580D01*
X4722638Y-2034580D01*
X4627400Y-1986961D01*
X4579780Y-1939342D01*
X4532161Y-1844104D01*
X4484542Y-1653628D01*
X4484542Y-1415533D01*
X4532161Y-1225057D01*
X4579780Y-1129819D01*
X4627400Y-1082200D01*
X4722638Y-1034580D01*
X5484542Y-2034580D02*
X5484542Y-1367914D01*
X5484542Y-1463152D02*
X5532161Y-1415533D01*
X5627400Y-1367914D01*
X5770257Y-1367914D01*
X5865495Y-1415533D01*
X5913114Y-1510771D01*
X5913114Y-2034580D01*
X5913114Y-1510771D02*
X5960733Y-1415533D01*
X6055971Y-1367914D01*
X6198828Y-1367914D01*
X6294066Y-1415533D01*
X6341685Y-1510771D01*
X6341685Y-2034580D01*
X6817876Y-2034580D02*
X6817876Y-1367914D01*
X6817876Y-1463152D02*
X6865495Y-1415533D01*
X6960733Y-1367914D01*
X7103590Y-1367914D01*
X7198828Y-1415533D01*
X7246447Y-1510771D01*
X7246447Y-2034580D01*
X7246447Y-1510771D02*
X7294066Y-1415533D01*
X7389304Y-1367914D01*
X7532161Y-1367914D01*
X7627400Y-1415533D01*
X7675019Y-1510771D01*
X7675019Y-2034580D01*
M02*
