%TF.GenerationSoftware,KiCad,Pcbnew,(5.1.6)-1*%
%TF.CreationDate,2020-09-30T18:01:57-07:00*%
%TF.ProjectId,Miniscope-v4-VDD-PIX-FC,4d696e69-7363-46f7-9065-2d76342d5644,rev?*%
%TF.SameCoordinates,Original*%
%TF.FileFunction,Other,Comment*%
%FSLAX46Y46*%
G04 Gerber Fmt 4.6, Leading zero omitted, Abs format (unit mm)*
G04 Created by KiCad (PCBNEW (5.1.6)-1) date 2020-09-30 18:01:57*
%MOMM*%
%LPD*%
G01*
G04 APERTURE LIST*
%ADD10C,0.150000*%
G04 APERTURE END LIST*
D10*
X121875409Y-104279980D02*
X121875409Y-103279980D01*
X122113504Y-103279980D01*
X122256361Y-103327600D01*
X122351600Y-103422838D01*
X122399219Y-103518076D01*
X122446838Y-103708552D01*
X122446838Y-103851409D01*
X122399219Y-104041885D01*
X122351600Y-104137123D01*
X122256361Y-104232361D01*
X122113504Y-104279980D01*
X121875409Y-104279980D01*
X122780171Y-103613314D02*
X122970647Y-104279980D01*
X123161123Y-103803790D01*
X123351600Y-104279980D01*
X123542076Y-103613314D01*
X124351600Y-103613314D02*
X124351600Y-104422838D01*
X124303980Y-104518076D01*
X124256361Y-104565695D01*
X124161123Y-104613314D01*
X124018266Y-104613314D01*
X123923028Y-104565695D01*
X124351600Y-104232361D02*
X124256361Y-104279980D01*
X124065885Y-104279980D01*
X123970647Y-104232361D01*
X123923028Y-104184742D01*
X123875409Y-104089504D01*
X123875409Y-103803790D01*
X123923028Y-103708552D01*
X123970647Y-103660933D01*
X124065885Y-103613314D01*
X124256361Y-103613314D01*
X124351600Y-103660933D01*
X124780171Y-104232361D02*
X124875409Y-104279980D01*
X125065885Y-104279980D01*
X125161123Y-104232361D01*
X125208742Y-104137123D01*
X125208742Y-104089504D01*
X125161123Y-103994266D01*
X125065885Y-103946647D01*
X124923028Y-103946647D01*
X124827790Y-103899028D01*
X124780171Y-103803790D01*
X124780171Y-103756171D01*
X124827790Y-103660933D01*
X124923028Y-103613314D01*
X125065885Y-103613314D01*
X125161123Y-103660933D01*
X125637314Y-104184742D02*
X125684933Y-104232361D01*
X125637314Y-104279980D01*
X125589695Y-104232361D01*
X125637314Y-104184742D01*
X125637314Y-104279980D01*
X126113504Y-103279980D02*
X126113504Y-104089504D01*
X126161123Y-104184742D01*
X126208742Y-104232361D01*
X126303980Y-104279980D01*
X126494457Y-104279980D01*
X126589695Y-104232361D01*
X126637314Y-104184742D01*
X126684933Y-104089504D01*
X126684933Y-103279980D01*
X127113504Y-104232361D02*
X127208742Y-104279980D01*
X127399219Y-104279980D01*
X127494457Y-104232361D01*
X127542076Y-104137123D01*
X127542076Y-104089504D01*
X127494457Y-103994266D01*
X127399219Y-103946647D01*
X127256361Y-103946647D01*
X127161123Y-103899028D01*
X127113504Y-103803790D01*
X127113504Y-103756171D01*
X127161123Y-103660933D01*
X127256361Y-103613314D01*
X127399219Y-103613314D01*
X127494457Y-103660933D01*
X128351600Y-104232361D02*
X128256361Y-104279980D01*
X128065885Y-104279980D01*
X127970647Y-104232361D01*
X127923028Y-104137123D01*
X127923028Y-103756171D01*
X127970647Y-103660933D01*
X128065885Y-103613314D01*
X128256361Y-103613314D01*
X128351600Y-103660933D01*
X128399219Y-103756171D01*
X128399219Y-103851409D01*
X127923028Y-103946647D01*
X128827790Y-104279980D02*
X128827790Y-103613314D01*
X128827790Y-103803790D02*
X128875409Y-103708552D01*
X128923028Y-103660933D01*
X129018266Y-103613314D01*
X129113504Y-103613314D01*
X130208742Y-104279980D02*
X130208742Y-103279980D01*
X130637314Y-104279980D02*
X130637314Y-103756171D01*
X130589695Y-103660933D01*
X130494457Y-103613314D01*
X130351600Y-103613314D01*
X130256361Y-103660933D01*
X130208742Y-103708552D01*
X131256361Y-104279980D02*
X131161123Y-104232361D01*
X131113504Y-104184742D01*
X131065885Y-104089504D01*
X131065885Y-103803790D01*
X131113504Y-103708552D01*
X131161123Y-103660933D01*
X131256361Y-103613314D01*
X131399219Y-103613314D01*
X131494457Y-103660933D01*
X131542076Y-103708552D01*
X131589695Y-103803790D01*
X131589695Y-104089504D01*
X131542076Y-104184742D01*
X131494457Y-104232361D01*
X131399219Y-104279980D01*
X131256361Y-104279980D01*
X132161123Y-104279980D02*
X132065885Y-104232361D01*
X132018266Y-104137123D01*
X132018266Y-103279980D01*
X132970647Y-104279980D02*
X132970647Y-103279980D01*
X132970647Y-104232361D02*
X132875409Y-104279980D01*
X132684933Y-104279980D01*
X132589695Y-104232361D01*
X132542076Y-104184742D01*
X132494457Y-104089504D01*
X132494457Y-103803790D01*
X132542076Y-103708552D01*
X132589695Y-103660933D01*
X132684933Y-103613314D01*
X132875409Y-103613314D01*
X132970647Y-103660933D01*
X133399219Y-104232361D02*
X133494457Y-104279980D01*
X133684933Y-104279980D01*
X133780171Y-104232361D01*
X133827790Y-104137123D01*
X133827790Y-104089504D01*
X133780171Y-103994266D01*
X133684933Y-103946647D01*
X133542076Y-103946647D01*
X133446838Y-103899028D01*
X133399219Y-103803790D01*
X133399219Y-103756171D01*
X133446838Y-103660933D01*
X133542076Y-103613314D01*
X133684933Y-103613314D01*
X133780171Y-103660933D01*
X135161123Y-104279980D02*
X135065885Y-104232361D01*
X135018266Y-104137123D01*
X135018266Y-103279980D01*
X135970647Y-104279980D02*
X135970647Y-103756171D01*
X135923028Y-103660933D01*
X135827790Y-103613314D01*
X135637314Y-103613314D01*
X135542076Y-103660933D01*
X135970647Y-104232361D02*
X135875409Y-104279980D01*
X135637314Y-104279980D01*
X135542076Y-104232361D01*
X135494457Y-104137123D01*
X135494457Y-104041885D01*
X135542076Y-103946647D01*
X135637314Y-103899028D01*
X135875409Y-103899028D01*
X135970647Y-103851409D01*
X136446838Y-104279980D02*
X136446838Y-103613314D01*
X136446838Y-103803790D02*
X136494457Y-103708552D01*
X136542076Y-103660933D01*
X136637314Y-103613314D01*
X136732552Y-103613314D01*
X137494457Y-103613314D02*
X137494457Y-104422838D01*
X137446838Y-104518076D01*
X137399219Y-104565695D01*
X137303980Y-104613314D01*
X137161123Y-104613314D01*
X137065885Y-104565695D01*
X137494457Y-104232361D02*
X137399219Y-104279980D01*
X137208742Y-104279980D01*
X137113504Y-104232361D01*
X137065885Y-104184742D01*
X137018266Y-104089504D01*
X137018266Y-103803790D01*
X137065885Y-103708552D01*
X137113504Y-103660933D01*
X137208742Y-103613314D01*
X137399219Y-103613314D01*
X137494457Y-103660933D01*
X138351600Y-104232361D02*
X138256361Y-104279980D01*
X138065885Y-104279980D01*
X137970647Y-104232361D01*
X137923028Y-104137123D01*
X137923028Y-103756171D01*
X137970647Y-103660933D01*
X138065885Y-103613314D01*
X138256361Y-103613314D01*
X138351600Y-103660933D01*
X138399219Y-103756171D01*
X138399219Y-103851409D01*
X137923028Y-103946647D01*
X138827790Y-104279980D02*
X138827790Y-103613314D01*
X138827790Y-103803790D02*
X138875409Y-103708552D01*
X138923028Y-103660933D01*
X139018266Y-103613314D01*
X139113504Y-103613314D01*
X140208742Y-104279980D02*
X140208742Y-103279980D01*
X140208742Y-103660933D02*
X140303980Y-103613314D01*
X140494457Y-103613314D01*
X140589695Y-103660933D01*
X140637314Y-103708552D01*
X140684933Y-103803790D01*
X140684933Y-104089504D01*
X140637314Y-104184742D01*
X140589695Y-104232361D01*
X140494457Y-104279980D01*
X140303980Y-104279980D01*
X140208742Y-104232361D01*
X141256361Y-104279980D02*
X141161123Y-104232361D01*
X141113504Y-104184742D01*
X141065885Y-104089504D01*
X141065885Y-103803790D01*
X141113504Y-103708552D01*
X141161123Y-103660933D01*
X141256361Y-103613314D01*
X141399219Y-103613314D01*
X141494457Y-103660933D01*
X141542076Y-103708552D01*
X141589695Y-103803790D01*
X141589695Y-104089504D01*
X141542076Y-104184742D01*
X141494457Y-104232361D01*
X141399219Y-104279980D01*
X141256361Y-104279980D01*
X142446838Y-104279980D02*
X142446838Y-103756171D01*
X142399219Y-103660933D01*
X142303980Y-103613314D01*
X142113504Y-103613314D01*
X142018266Y-103660933D01*
X142446838Y-104232361D02*
X142351600Y-104279980D01*
X142113504Y-104279980D01*
X142018266Y-104232361D01*
X141970647Y-104137123D01*
X141970647Y-104041885D01*
X142018266Y-103946647D01*
X142113504Y-103899028D01*
X142351600Y-103899028D01*
X142446838Y-103851409D01*
X142923028Y-104279980D02*
X142923028Y-103613314D01*
X142923028Y-103803790D02*
X142970647Y-103708552D01*
X143018266Y-103660933D01*
X143113504Y-103613314D01*
X143208742Y-103613314D01*
X143970647Y-104279980D02*
X143970647Y-103279980D01*
X143970647Y-104232361D02*
X143875409Y-104279980D01*
X143684933Y-104279980D01*
X143589695Y-104232361D01*
X143542076Y-104184742D01*
X143494457Y-104089504D01*
X143494457Y-103803790D01*
X143542076Y-103708552D01*
X143589695Y-103660933D01*
X143684933Y-103613314D01*
X143875409Y-103613314D01*
X143970647Y-103660933D01*
X145351600Y-104279980D02*
X145256361Y-104232361D01*
X145208742Y-104184742D01*
X145161123Y-104089504D01*
X145161123Y-103803790D01*
X145208742Y-103708552D01*
X145256361Y-103660933D01*
X145351600Y-103613314D01*
X145494457Y-103613314D01*
X145589695Y-103660933D01*
X145637314Y-103708552D01*
X145684933Y-103803790D01*
X145684933Y-104089504D01*
X145637314Y-104184742D01*
X145589695Y-104232361D01*
X145494457Y-104279980D01*
X145351600Y-104279980D01*
X146542076Y-103613314D02*
X146542076Y-104279980D01*
X146113504Y-103613314D02*
X146113504Y-104137123D01*
X146161123Y-104232361D01*
X146256361Y-104279980D01*
X146399219Y-104279980D01*
X146494457Y-104232361D01*
X146542076Y-104184742D01*
X146875409Y-103613314D02*
X147256361Y-103613314D01*
X147018266Y-103279980D02*
X147018266Y-104137123D01*
X147065885Y-104232361D01*
X147161123Y-104279980D01*
X147256361Y-104279980D01*
X147732552Y-104279980D02*
X147637314Y-104232361D01*
X147589695Y-104137123D01*
X147589695Y-103279980D01*
X148113504Y-104279980D02*
X148113504Y-103613314D01*
X148113504Y-103279980D02*
X148065885Y-103327600D01*
X148113504Y-103375219D01*
X148161123Y-103327600D01*
X148113504Y-103279980D01*
X148113504Y-103375219D01*
X148589695Y-103613314D02*
X148589695Y-104279980D01*
X148589695Y-103708552D02*
X148637314Y-103660933D01*
X148732552Y-103613314D01*
X148875409Y-103613314D01*
X148970647Y-103660933D01*
X149018266Y-103756171D01*
X149018266Y-104279980D01*
X149875409Y-104232361D02*
X149780171Y-104279980D01*
X149589695Y-104279980D01*
X149494457Y-104232361D01*
X149446838Y-104137123D01*
X149446838Y-103756171D01*
X149494457Y-103660933D01*
X149589695Y-103613314D01*
X149780171Y-103613314D01*
X149875409Y-103660933D01*
X149923028Y-103756171D01*
X149923028Y-103851409D01*
X149446838Y-103946647D01*
X151018266Y-103613314D02*
X151208742Y-104279980D01*
X151399219Y-103803790D01*
X151589695Y-104279980D01*
X151780171Y-103613314D01*
X152161123Y-104279980D02*
X152161123Y-103279980D01*
X152589695Y-104279980D02*
X152589695Y-103756171D01*
X152542076Y-103660933D01*
X152446838Y-103613314D01*
X152303980Y-103613314D01*
X152208742Y-103660933D01*
X152161123Y-103708552D01*
X153065885Y-104279980D02*
X153065885Y-103613314D01*
X153065885Y-103279980D02*
X153018266Y-103327600D01*
X153065885Y-103375219D01*
X153113504Y-103327600D01*
X153065885Y-103279980D01*
X153065885Y-103375219D01*
X153970647Y-104232361D02*
X153875409Y-104279980D01*
X153684933Y-104279980D01*
X153589695Y-104232361D01*
X153542076Y-104184742D01*
X153494457Y-104089504D01*
X153494457Y-103803790D01*
X153542076Y-103708552D01*
X153589695Y-103660933D01*
X153684933Y-103613314D01*
X153875409Y-103613314D01*
X153970647Y-103660933D01*
X154399219Y-104279980D02*
X154399219Y-103279980D01*
X154827790Y-104279980D02*
X154827790Y-103756171D01*
X154780171Y-103660933D01*
X154684933Y-103613314D01*
X154542076Y-103613314D01*
X154446838Y-103660933D01*
X154399219Y-103708552D01*
X156065885Y-104279980D02*
X156065885Y-103613314D01*
X156065885Y-103803790D02*
X156113504Y-103708552D01*
X156161123Y-103660933D01*
X156256361Y-103613314D01*
X156351600Y-103613314D01*
X157065885Y-104232361D02*
X156970647Y-104279980D01*
X156780171Y-104279980D01*
X156684933Y-104232361D01*
X156637314Y-104137123D01*
X156637314Y-103756171D01*
X156684933Y-103660933D01*
X156780171Y-103613314D01*
X156970647Y-103613314D01*
X157065885Y-103660933D01*
X157113504Y-103756171D01*
X157113504Y-103851409D01*
X156637314Y-103946647D01*
X157970647Y-103613314D02*
X157970647Y-104613314D01*
X157970647Y-104232361D02*
X157875409Y-104279980D01*
X157684933Y-104279980D01*
X157589695Y-104232361D01*
X157542076Y-104184742D01*
X157494457Y-104089504D01*
X157494457Y-103803790D01*
X157542076Y-103708552D01*
X157589695Y-103660933D01*
X157684933Y-103613314D01*
X157875409Y-103613314D01*
X157970647Y-103660933D01*
X158875409Y-103613314D02*
X158875409Y-104279980D01*
X158446838Y-103613314D02*
X158446838Y-104137123D01*
X158494457Y-104232361D01*
X158589695Y-104279980D01*
X158732552Y-104279980D01*
X158827790Y-104232361D01*
X158875409Y-104184742D01*
X159351600Y-104279980D02*
X159351600Y-103613314D01*
X159351600Y-103279980D02*
X159303980Y-103327600D01*
X159351600Y-103375219D01*
X159399219Y-103327600D01*
X159351600Y-103279980D01*
X159351600Y-103375219D01*
X159827790Y-104279980D02*
X159827790Y-103613314D01*
X159827790Y-103803790D02*
X159875409Y-103708552D01*
X159923028Y-103660933D01*
X160018266Y-103613314D01*
X160113504Y-103613314D01*
X160827790Y-104232361D02*
X160732552Y-104279980D01*
X160542076Y-104279980D01*
X160446838Y-104232361D01*
X160399219Y-104137123D01*
X160399219Y-103756171D01*
X160446838Y-103660933D01*
X160542076Y-103613314D01*
X160732552Y-103613314D01*
X160827790Y-103660933D01*
X160875409Y-103756171D01*
X160875409Y-103851409D01*
X160399219Y-103946647D01*
X161256361Y-104232361D02*
X161351600Y-104279980D01*
X161542076Y-104279980D01*
X161637314Y-104232361D01*
X161684933Y-104137123D01*
X161684933Y-104089504D01*
X161637314Y-103994266D01*
X161542076Y-103946647D01*
X161399219Y-103946647D01*
X161303980Y-103899028D01*
X161256361Y-103803790D01*
X161256361Y-103756171D01*
X161303980Y-103660933D01*
X161399219Y-103613314D01*
X161542076Y-103613314D01*
X161637314Y-103660933D01*
X162875409Y-104279980D02*
X162875409Y-103613314D01*
X162875409Y-103708552D02*
X162923028Y-103660933D01*
X163018266Y-103613314D01*
X163161123Y-103613314D01*
X163256361Y-103660933D01*
X163303980Y-103756171D01*
X163303980Y-104279980D01*
X163303980Y-103756171D02*
X163351600Y-103660933D01*
X163446838Y-103613314D01*
X163589695Y-103613314D01*
X163684933Y-103660933D01*
X163732552Y-103756171D01*
X163732552Y-104279980D01*
X164637314Y-104279980D02*
X164637314Y-103756171D01*
X164589695Y-103660933D01*
X164494457Y-103613314D01*
X164303980Y-103613314D01*
X164208742Y-103660933D01*
X164637314Y-104232361D02*
X164542076Y-104279980D01*
X164303980Y-104279980D01*
X164208742Y-104232361D01*
X164161123Y-104137123D01*
X164161123Y-104041885D01*
X164208742Y-103946647D01*
X164303980Y-103899028D01*
X164542076Y-103899028D01*
X164637314Y-103851409D01*
X165113504Y-103613314D02*
X165113504Y-104279980D01*
X165113504Y-103708552D02*
X165161123Y-103660933D01*
X165256361Y-103613314D01*
X165399219Y-103613314D01*
X165494457Y-103660933D01*
X165542076Y-103756171D01*
X165542076Y-104279980D01*
X166446838Y-103613314D02*
X166446838Y-104279980D01*
X166018266Y-103613314D02*
X166018266Y-104137123D01*
X166065885Y-104232361D01*
X166161123Y-104279980D01*
X166303980Y-104279980D01*
X166399219Y-104232361D01*
X166446838Y-104184742D01*
X167351599Y-104279980D02*
X167351599Y-103756171D01*
X167303980Y-103660933D01*
X167208742Y-103613314D01*
X167018266Y-103613314D01*
X166923028Y-103660933D01*
X167351599Y-104232361D02*
X167256361Y-104279980D01*
X167018266Y-104279980D01*
X166923028Y-104232361D01*
X166875409Y-104137123D01*
X166875409Y-104041885D01*
X166923028Y-103946647D01*
X167018266Y-103899028D01*
X167256361Y-103899028D01*
X167351599Y-103851409D01*
X167970647Y-104279980D02*
X167875409Y-104232361D01*
X167827790Y-104137123D01*
X167827790Y-103279980D01*
X169542076Y-104232361D02*
X169446838Y-104279980D01*
X169256361Y-104279980D01*
X169161123Y-104232361D01*
X169113504Y-104184742D01*
X169065885Y-104089504D01*
X169065885Y-103803790D01*
X169113504Y-103708552D01*
X169161123Y-103660933D01*
X169256361Y-103613314D01*
X169446838Y-103613314D01*
X169542076Y-103660933D01*
X170399219Y-103613314D02*
X170399219Y-104279980D01*
X169970647Y-103613314D02*
X169970647Y-104137123D01*
X170018266Y-104232361D01*
X170113504Y-104279980D01*
X170256361Y-104279980D01*
X170351599Y-104232361D01*
X170399219Y-104184742D01*
X170732552Y-103613314D02*
X171113504Y-103613314D01*
X170875409Y-103279980D02*
X170875409Y-104137123D01*
X170923028Y-104232361D01*
X171018266Y-104279980D01*
X171113504Y-104279980D01*
X171303980Y-103613314D02*
X171684933Y-103613314D01*
X171446838Y-103279980D02*
X171446838Y-104137123D01*
X171494457Y-104232361D01*
X171589695Y-104279980D01*
X171684933Y-104279980D01*
X172018266Y-104279980D02*
X172018266Y-103613314D01*
X172018266Y-103279980D02*
X171970647Y-103327600D01*
X172018266Y-103375219D01*
X172065885Y-103327600D01*
X172018266Y-103279980D01*
X172018266Y-103375219D01*
X172494457Y-103613314D02*
X172494457Y-104279980D01*
X172494457Y-103708552D02*
X172542076Y-103660933D01*
X172637314Y-103613314D01*
X172780171Y-103613314D01*
X172875409Y-103660933D01*
X172923028Y-103756171D01*
X172923028Y-104279980D01*
X173827790Y-103613314D02*
X173827790Y-104422838D01*
X173780171Y-104518076D01*
X173732552Y-104565695D01*
X173637314Y-104613314D01*
X173494457Y-104613314D01*
X173399219Y-104565695D01*
X173827790Y-104232361D02*
X173732552Y-104279980D01*
X173542076Y-104279980D01*
X173446838Y-104232361D01*
X173399219Y-104184742D01*
X173351600Y-104089504D01*
X173351600Y-103803790D01*
X173399219Y-103708552D01*
X173446838Y-103660933D01*
X173542076Y-103613314D01*
X173732552Y-103613314D01*
X173827790Y-103660933D01*
X137268266Y-93006171D02*
X137601600Y-93006171D01*
X137744457Y-93529980D02*
X137268266Y-93529980D01*
X137268266Y-92529980D01*
X137744457Y-92529980D01*
X138601600Y-93482361D02*
X138506361Y-93529980D01*
X138315885Y-93529980D01*
X138220647Y-93482361D01*
X138173028Y-93434742D01*
X138125409Y-93339504D01*
X138125409Y-93053790D01*
X138173028Y-92958552D01*
X138220647Y-92910933D01*
X138315885Y-92863314D01*
X138506361Y-92863314D01*
X138601600Y-92910933D01*
X139173028Y-93529980D02*
X139077790Y-93482361D01*
X139030171Y-93434742D01*
X138982552Y-93339504D01*
X138982552Y-93053790D01*
X139030171Y-92958552D01*
X139077790Y-92910933D01*
X139173028Y-92863314D01*
X139315885Y-92863314D01*
X139411123Y-92910933D01*
X139458742Y-92958552D01*
X139506361Y-93053790D01*
X139506361Y-93339504D01*
X139458742Y-93434742D01*
X139411123Y-93482361D01*
X139315885Y-93529980D01*
X139173028Y-93529980D01*
X139887314Y-92625219D02*
X139934933Y-92577600D01*
X140030171Y-92529980D01*
X140268266Y-92529980D01*
X140363504Y-92577600D01*
X140411123Y-92625219D01*
X140458742Y-92720457D01*
X140458742Y-92815695D01*
X140411123Y-92958552D01*
X139839695Y-93529980D01*
X140458742Y-93529980D01*
X140887314Y-93434742D02*
X140934933Y-93482361D01*
X140887314Y-93529980D01*
X140839695Y-93482361D01*
X140887314Y-93434742D01*
X140887314Y-93529980D01*
X141363504Y-92529980D02*
X141363504Y-93339504D01*
X141411123Y-93434742D01*
X141458742Y-93482361D01*
X141553980Y-93529980D01*
X141744457Y-93529980D01*
X141839695Y-93482361D01*
X141887314Y-93434742D01*
X141934933Y-93339504D01*
X141934933Y-92529980D01*
X142363504Y-93482361D02*
X142458742Y-93529980D01*
X142649219Y-93529980D01*
X142744457Y-93482361D01*
X142792076Y-93387123D01*
X142792076Y-93339504D01*
X142744457Y-93244266D01*
X142649219Y-93196647D01*
X142506361Y-93196647D01*
X142411123Y-93149028D01*
X142363504Y-93053790D01*
X142363504Y-93006171D01*
X142411123Y-92910933D01*
X142506361Y-92863314D01*
X142649219Y-92863314D01*
X142744457Y-92910933D01*
X143601600Y-93482361D02*
X143506361Y-93529980D01*
X143315885Y-93529980D01*
X143220647Y-93482361D01*
X143173028Y-93387123D01*
X143173028Y-93006171D01*
X143220647Y-92910933D01*
X143315885Y-92863314D01*
X143506361Y-92863314D01*
X143601600Y-92910933D01*
X143649219Y-93006171D01*
X143649219Y-93101409D01*
X143173028Y-93196647D01*
X144077790Y-93529980D02*
X144077790Y-92863314D01*
X144077790Y-93053790D02*
X144125409Y-92958552D01*
X144173028Y-92910933D01*
X144268266Y-92863314D01*
X144363504Y-92863314D01*
X145458742Y-93529980D02*
X145458742Y-92529980D01*
X145887314Y-93529980D02*
X145887314Y-93006171D01*
X145839695Y-92910933D01*
X145744457Y-92863314D01*
X145601600Y-92863314D01*
X145506361Y-92910933D01*
X145458742Y-92958552D01*
X146506361Y-93529980D02*
X146411123Y-93482361D01*
X146363504Y-93434742D01*
X146315885Y-93339504D01*
X146315885Y-93053790D01*
X146363504Y-92958552D01*
X146411123Y-92910933D01*
X146506361Y-92863314D01*
X146649219Y-92863314D01*
X146744457Y-92910933D01*
X146792076Y-92958552D01*
X146839695Y-93053790D01*
X146839695Y-93339504D01*
X146792076Y-93434742D01*
X146744457Y-93482361D01*
X146649219Y-93529980D01*
X146506361Y-93529980D01*
X147411123Y-93529980D02*
X147315885Y-93482361D01*
X147268266Y-93387123D01*
X147268266Y-92529980D01*
X148220647Y-93529980D02*
X148220647Y-92529980D01*
X148220647Y-93482361D02*
X148125409Y-93529980D01*
X147934933Y-93529980D01*
X147839695Y-93482361D01*
X147792076Y-93434742D01*
X147744457Y-93339504D01*
X147744457Y-93053790D01*
X147792076Y-92958552D01*
X147839695Y-92910933D01*
X147934933Y-92863314D01*
X148125409Y-92863314D01*
X148220647Y-92910933D01*
X148649219Y-93482361D02*
X148744457Y-93529980D01*
X148934933Y-93529980D01*
X149030171Y-93482361D01*
X149077790Y-93387123D01*
X149077790Y-93339504D01*
X149030171Y-93244266D01*
X148934933Y-93196647D01*
X148792076Y-93196647D01*
X148696838Y-93149028D01*
X148649219Y-93053790D01*
X148649219Y-93006171D01*
X148696838Y-92910933D01*
X148792076Y-92863314D01*
X148934933Y-92863314D01*
X149030171Y-92910933D01*
X150125409Y-92863314D02*
X150506361Y-92863314D01*
X150268266Y-92529980D02*
X150268266Y-93387123D01*
X150315885Y-93482361D01*
X150411123Y-93529980D01*
X150506361Y-93529980D01*
X151268266Y-93529980D02*
X151268266Y-93006171D01*
X151220647Y-92910933D01*
X151125409Y-92863314D01*
X150934933Y-92863314D01*
X150839695Y-92910933D01*
X151268266Y-93482361D02*
X151173028Y-93529980D01*
X150934933Y-93529980D01*
X150839695Y-93482361D01*
X150792076Y-93387123D01*
X150792076Y-93291885D01*
X150839695Y-93196647D01*
X150934933Y-93149028D01*
X151173028Y-93149028D01*
X151268266Y-93101409D01*
X151744457Y-92863314D02*
X151744457Y-93863314D01*
X151744457Y-92910933D02*
X151839695Y-92863314D01*
X152030171Y-92863314D01*
X152125409Y-92910933D01*
X152173028Y-92958552D01*
X152220647Y-93053790D01*
X152220647Y-93339504D01*
X152173028Y-93434742D01*
X152125409Y-93482361D01*
X152030171Y-93529980D01*
X151839695Y-93529980D01*
X151744457Y-93482361D01*
X153030171Y-93482361D02*
X152934933Y-93529980D01*
X152744457Y-93529980D01*
X152649219Y-93482361D01*
X152601600Y-93387123D01*
X152601600Y-93006171D01*
X152649219Y-92910933D01*
X152744457Y-92863314D01*
X152934933Y-92863314D01*
X153030171Y-92910933D01*
X153077790Y-93006171D01*
X153077790Y-93101409D01*
X152601600Y-93196647D01*
X154411123Y-93529980D02*
X154315885Y-93482361D01*
X154268266Y-93434742D01*
X154220647Y-93339504D01*
X154220647Y-93053790D01*
X154268266Y-92958552D01*
X154315885Y-92910933D01*
X154411123Y-92863314D01*
X154553980Y-92863314D01*
X154649219Y-92910933D01*
X154696838Y-92958552D01*
X154744457Y-93053790D01*
X154744457Y-93339504D01*
X154696838Y-93434742D01*
X154649219Y-93482361D01*
X154553980Y-93529980D01*
X154411123Y-93529980D01*
X155601600Y-92863314D02*
X155601600Y-93529980D01*
X155173028Y-92863314D02*
X155173028Y-93387123D01*
X155220647Y-93482361D01*
X155315885Y-93529980D01*
X155458742Y-93529980D01*
X155553980Y-93482361D01*
X155601600Y-93434742D01*
X155934933Y-92863314D02*
X156315885Y-92863314D01*
X156077790Y-92529980D02*
X156077790Y-93387123D01*
X156125409Y-93482361D01*
X156220647Y-93529980D01*
X156315885Y-93529980D01*
X156792076Y-93529980D02*
X156696838Y-93482361D01*
X156649219Y-93387123D01*
X156649219Y-92529980D01*
X157173028Y-93529980D02*
X157173028Y-92863314D01*
X157173028Y-92529980D02*
X157125409Y-92577600D01*
X157173028Y-92625219D01*
X157220647Y-92577600D01*
X157173028Y-92529980D01*
X157173028Y-92625219D01*
X157649219Y-92863314D02*
X157649219Y-93529980D01*
X157649219Y-92958552D02*
X157696838Y-92910933D01*
X157792076Y-92863314D01*
X157934933Y-92863314D01*
X158030171Y-92910933D01*
X158077790Y-93006171D01*
X158077790Y-93529980D01*
X158934933Y-93482361D02*
X158839695Y-93529980D01*
X158649219Y-93529980D01*
X158553980Y-93482361D01*
X158506361Y-93387123D01*
X158506361Y-93006171D01*
X158553980Y-92910933D01*
X158649219Y-92863314D01*
X158839695Y-92863314D01*
X158934933Y-92910933D01*
X158982552Y-93006171D01*
X158982552Y-93101409D01*
X158506361Y-93196647D01*
M02*
