%TF.GenerationSoftware,KiCad,Pcbnew,(5.1.6)-1*%
%TF.CreationDate,2020-09-30T18:01:57-07:00*%
%TF.ProjectId,Miniscope-v4-VDD-PIX-FC,4d696e69-7363-46f7-9065-2d76342d5644,rev?*%
%TF.SameCoordinates,Original*%
%TF.FileFunction,Paste,Top*%
%TF.FilePolarity,Positive*%
%FSLAX46Y46*%
G04 Gerber Fmt 4.6, Leading zero omitted, Abs format (unit mm)*
G04 Created by KiCad (PCBNEW (5.1.6)-1) date 2020-09-30 18:01:57*
%MOMM*%
%LPD*%
G01*
G04 APERTURE LIST*
%ADD10C,0.100000*%
G04 APERTURE END LIST*
%TO.C,L1*%
G36*
G01*
X149743800Y-98839300D02*
X149743800Y-98364300D01*
G75*
G02*
X149966300Y-98141800I222500J0D01*
G01*
X150411300Y-98141800D01*
G75*
G02*
X150633800Y-98364300I0J-222500D01*
G01*
X150633800Y-98839300D01*
G75*
G02*
X150411300Y-99061800I-222500J0D01*
G01*
X149966300Y-99061800D01*
G75*
G02*
X149743800Y-98839300I0J222500D01*
G01*
G37*
G36*
G01*
X148413800Y-98839300D02*
X148413800Y-98364300D01*
G75*
G02*
X148636300Y-98141800I222500J0D01*
G01*
X149081300Y-98141800D01*
G75*
G02*
X149303800Y-98364300I0J-222500D01*
G01*
X149303800Y-98839300D01*
G75*
G02*
X149081300Y-99061800I-222500J0D01*
G01*
X148636300Y-99061800D01*
G75*
G02*
X148413800Y-98839300I0J222500D01*
G01*
G37*
%TD*%
D10*
%TO.C,U1*%
G36*
X147704211Y-98663200D02*
G01*
X147364800Y-99002611D01*
X147025389Y-98663200D01*
X147364800Y-98323789D01*
X147704211Y-98663200D01*
G37*
G36*
X147544800Y-99113200D02*
G01*
X147794800Y-98863200D01*
X148014800Y-98863200D01*
X148014800Y-99113200D01*
X147544800Y-99113200D01*
G37*
G36*
X147114800Y-98213200D02*
G01*
X147114800Y-98283200D01*
X146934800Y-98463200D01*
X146714800Y-98463200D01*
X146714800Y-98213200D01*
X147114800Y-98213200D01*
G37*
G36*
X147794800Y-98463200D02*
G01*
X147614800Y-98283200D01*
X147614800Y-98213200D01*
X148014800Y-98213200D01*
X148014800Y-98463200D01*
X147794800Y-98463200D01*
G37*
G36*
X146934800Y-98863200D02*
G01*
X147114800Y-99043200D01*
X147114800Y-99113200D01*
X146714800Y-99113200D01*
X146714800Y-98863200D01*
X146934800Y-98863200D01*
G37*
%TD*%
%TO.C,C2*%
G36*
G01*
X148987800Y-97288800D02*
X148987800Y-97628800D01*
G75*
G02*
X148842800Y-97773800I-145000J0D01*
G01*
X148552800Y-97773800D01*
G75*
G02*
X148407800Y-97628800I0J145000D01*
G01*
X148407800Y-97288800D01*
G75*
G02*
X148552800Y-97143800I145000J0D01*
G01*
X148842800Y-97143800D01*
G75*
G02*
X148987800Y-97288800I0J-145000D01*
G01*
G37*
G36*
G01*
X149877800Y-97288800D02*
X149877800Y-97628800D01*
G75*
G02*
X149732800Y-97773800I-145000J0D01*
G01*
X149442800Y-97773800D01*
G75*
G02*
X149297800Y-97628800I0J145000D01*
G01*
X149297800Y-97288800D01*
G75*
G02*
X149442800Y-97143800I145000J0D01*
G01*
X149732800Y-97143800D01*
G75*
G02*
X149877800Y-97288800I0J-145000D01*
G01*
G37*
%TD*%
%TO.C,C1*%
G36*
G01*
X146188600Y-97956200D02*
X145848600Y-97956200D01*
G75*
G02*
X145703600Y-97811200I0J145000D01*
G01*
X145703600Y-97521200D01*
G75*
G02*
X145848600Y-97376200I145000J0D01*
G01*
X146188600Y-97376200D01*
G75*
G02*
X146333600Y-97521200I0J-145000D01*
G01*
X146333600Y-97811200D01*
G75*
G02*
X146188600Y-97956200I-145000J0D01*
G01*
G37*
G36*
G01*
X146188600Y-98846200D02*
X145848600Y-98846200D01*
G75*
G02*
X145703600Y-98701200I0J145000D01*
G01*
X145703600Y-98411200D01*
G75*
G02*
X145848600Y-98266200I145000J0D01*
G01*
X146188600Y-98266200D01*
G75*
G02*
X146333600Y-98411200I0J-145000D01*
G01*
X146333600Y-98701200D01*
G75*
G02*
X146188600Y-98846200I-145000J0D01*
G01*
G37*
%TD*%
M02*
