%TF.GenerationSoftware,KiCad,Pcbnew,(5.1.6)-1*%
%TF.CreationDate,2020-09-18T14:16:08-07:00*%
%TF.ProjectId,Miniscope-v4-VDD-PIX-FC,4d696e69-7363-46f7-9065-2d76342d5644,rev?*%
%TF.SameCoordinates,Original*%
%TF.FileFunction,Legend,Bot*%
%TF.FilePolarity,Positive*%
%FSLAX46Y46*%
G04 Gerber Fmt 4.6, Leading zero omitted, Abs format (unit mm)*
G04 Created by KiCad (PCBNEW (5.1.6)-1) date 2020-09-18 14:16:08*
%MOMM*%
%LPD*%
G01*
G04 APERTURE LIST*
%ADD10C,0.120000*%
%ADD11C,0.100000*%
G04 APERTURE END LIST*
D10*
X150250000Y-97000000D02*
X150250000Y-98000000D01*
D11*
X150542857Y-98311904D02*
X150276190Y-99111904D01*
X150009523Y-98311904D01*
X149933333Y-99188095D02*
X149323809Y-99188095D01*
X149133333Y-99111904D02*
X149133333Y-98311904D01*
X148828571Y-98311904D01*
X148752380Y-98350000D01*
X148714285Y-98388095D01*
X148676190Y-98464285D01*
X148676190Y-98578571D01*
X148714285Y-98654761D01*
X148752380Y-98692857D01*
X148828571Y-98730952D01*
X149133333Y-98730952D01*
X148333333Y-99111904D02*
X148333333Y-98311904D01*
X148028571Y-98311904D02*
X147495238Y-99111904D01*
X147495238Y-98311904D02*
X148028571Y-99111904D01*
X147859523Y-97100000D02*
X147935714Y-97061904D01*
X148050000Y-97061904D01*
X148164285Y-97100000D01*
X148240476Y-97176190D01*
X148278571Y-97252380D01*
X148316666Y-97404761D01*
X148316666Y-97519047D01*
X148278571Y-97671428D01*
X148240476Y-97747619D01*
X148164285Y-97823809D01*
X148050000Y-97861904D01*
X147973809Y-97861904D01*
X147859523Y-97823809D01*
X147821428Y-97785714D01*
X147821428Y-97519047D01*
X147973809Y-97519047D01*
X147478571Y-97861904D02*
X147478571Y-97061904D01*
X147021428Y-97861904D01*
X147021428Y-97061904D01*
X146640476Y-97861904D02*
X146640476Y-97061904D01*
X146450000Y-97061904D01*
X146335714Y-97100000D01*
X146259523Y-97176190D01*
X146221428Y-97252380D01*
X146183333Y-97404761D01*
X146183333Y-97519047D01*
X146221428Y-97671428D01*
X146259523Y-97747619D01*
X146335714Y-97823809D01*
X146450000Y-97861904D01*
X146640476Y-97861904D01*
X145438095Y-98152380D02*
X145438095Y-98533333D01*
X145057142Y-98571428D01*
X145095238Y-98533333D01*
X145133333Y-98457142D01*
X145133333Y-98266666D01*
X145095238Y-98190476D01*
X145057142Y-98152380D01*
X144980952Y-98114285D01*
X144790476Y-98114285D01*
X144714285Y-98152380D01*
X144676190Y-98190476D01*
X144638095Y-98266666D01*
X144638095Y-98457142D01*
X144676190Y-98533333D01*
X144714285Y-98571428D01*
X145438095Y-97885714D02*
X144638095Y-97619047D01*
X145438095Y-97352380D01*
M02*
