%TF.GenerationSoftware,KiCad,Pcbnew,(5.1.6)-1*%
%TF.CreationDate,2020-09-17T13:21:18-07:00*%
%TF.ProjectId,Miniscope-v4-VDD-PIX-FC,4d696e69-7363-46f7-9065-2d76342d5644,rev?*%
%TF.SameCoordinates,Original*%
%TF.FileFunction,Soldermask,Top*%
%TF.FilePolarity,Negative*%
%FSLAX46Y46*%
G04 Gerber Fmt 4.6, Leading zero omitted, Abs format (unit mm)*
G04 Created by KiCad (PCBNEW (5.1.6)-1) date 2020-09-17 13:21:18*
%MOMM*%
%LPD*%
G01*
G04 APERTURE LIST*
%ADD10C,0.100000*%
%ADD11C,1.100000*%
G04 APERTURE END LIST*
%TO.C,L1*%
G36*
G01*
X149693800Y-98864300D02*
X149693800Y-98339300D01*
G75*
G02*
X149941300Y-98091800I247500J0D01*
G01*
X150436300Y-98091800D01*
G75*
G02*
X150683800Y-98339300I0J-247500D01*
G01*
X150683800Y-98864300D01*
G75*
G02*
X150436300Y-99111800I-247500J0D01*
G01*
X149941300Y-99111800D01*
G75*
G02*
X149693800Y-98864300I0J247500D01*
G01*
G37*
G36*
G01*
X148363800Y-98864300D02*
X148363800Y-98339300D01*
G75*
G02*
X148611300Y-98091800I247500J0D01*
G01*
X149106300Y-98091800D01*
G75*
G02*
X149353800Y-98339300I0J-247500D01*
G01*
X149353800Y-98864300D01*
G75*
G02*
X149106300Y-99111800I-247500J0D01*
G01*
X148611300Y-99111800D01*
G75*
G02*
X148363800Y-98864300I0J247500D01*
G01*
G37*
%TD*%
D10*
%TO.C,U1*%
G36*
X147774922Y-98663200D02*
G01*
X147364800Y-99073322D01*
X146954678Y-98663200D01*
X147364800Y-98253078D01*
X147774922Y-98663200D01*
G37*
G36*
X148063839Y-99122955D02*
G01*
X148060994Y-99132334D01*
X148056373Y-99140979D01*
X148050155Y-99148555D01*
X148042579Y-99154773D01*
X148033934Y-99159394D01*
X148024555Y-99162239D01*
X148014800Y-99163200D01*
X147544800Y-99163200D01*
X147535045Y-99162239D01*
X147525666Y-99159394D01*
X147517021Y-99154773D01*
X147509445Y-99148555D01*
X147503227Y-99140979D01*
X147498606Y-99132334D01*
X147495761Y-99122955D01*
X147494800Y-99113200D01*
X147495761Y-99103445D01*
X147498606Y-99094066D01*
X147503227Y-99085421D01*
X147509445Y-99077845D01*
X147759445Y-98827845D01*
X147767021Y-98821627D01*
X147775666Y-98817006D01*
X147785045Y-98814161D01*
X147794800Y-98813200D01*
X148014800Y-98813200D01*
X148024555Y-98814161D01*
X148033934Y-98817006D01*
X148042579Y-98821627D01*
X148050155Y-98827845D01*
X148056373Y-98835421D01*
X148060994Y-98844066D01*
X148063839Y-98853445D01*
X148064800Y-98863200D01*
X148064800Y-99113200D01*
X148063839Y-99122955D01*
G37*
G36*
X146665761Y-98203445D02*
G01*
X146668606Y-98194066D01*
X146673227Y-98185421D01*
X146679445Y-98177845D01*
X146687021Y-98171627D01*
X146695666Y-98167006D01*
X146705045Y-98164161D01*
X146714800Y-98163200D01*
X147114800Y-98163200D01*
X147124555Y-98164161D01*
X147133934Y-98167006D01*
X147142579Y-98171627D01*
X147150155Y-98177845D01*
X147156373Y-98185421D01*
X147160994Y-98194066D01*
X147163839Y-98203445D01*
X147164800Y-98213200D01*
X147164800Y-98283200D01*
X147163839Y-98292955D01*
X147160994Y-98302334D01*
X147156373Y-98310979D01*
X147150155Y-98318555D01*
X146970155Y-98498555D01*
X146962579Y-98504773D01*
X146953934Y-98509394D01*
X146944555Y-98512239D01*
X146934800Y-98513200D01*
X146714800Y-98513200D01*
X146705045Y-98512239D01*
X146695666Y-98509394D01*
X146687021Y-98504773D01*
X146679445Y-98498555D01*
X146673227Y-98490979D01*
X146668606Y-98482334D01*
X146665761Y-98472955D01*
X146664800Y-98463200D01*
X146664800Y-98213200D01*
X146665761Y-98203445D01*
G37*
G36*
X148063839Y-98472955D02*
G01*
X148060994Y-98482334D01*
X148056373Y-98490979D01*
X148050155Y-98498555D01*
X148042579Y-98504773D01*
X148033934Y-98509394D01*
X148024555Y-98512239D01*
X148014800Y-98513200D01*
X147794800Y-98513200D01*
X147785045Y-98512239D01*
X147775666Y-98509394D01*
X147767021Y-98504773D01*
X147759445Y-98498555D01*
X147579445Y-98318555D01*
X147573227Y-98310979D01*
X147568606Y-98302334D01*
X147565761Y-98292955D01*
X147564800Y-98283200D01*
X147564800Y-98213200D01*
X147565761Y-98203445D01*
X147568606Y-98194066D01*
X147573227Y-98185421D01*
X147579445Y-98177845D01*
X147587021Y-98171627D01*
X147595666Y-98167006D01*
X147605045Y-98164161D01*
X147614800Y-98163200D01*
X148014800Y-98163200D01*
X148024555Y-98164161D01*
X148033934Y-98167006D01*
X148042579Y-98171627D01*
X148050155Y-98177845D01*
X148056373Y-98185421D01*
X148060994Y-98194066D01*
X148063839Y-98203445D01*
X148064800Y-98213200D01*
X148064800Y-98463200D01*
X148063839Y-98472955D01*
G37*
G36*
X146665761Y-98853445D02*
G01*
X146668606Y-98844066D01*
X146673227Y-98835421D01*
X146679445Y-98827845D01*
X146687021Y-98821627D01*
X146695666Y-98817006D01*
X146705045Y-98814161D01*
X146714800Y-98813200D01*
X146934800Y-98813200D01*
X146944555Y-98814161D01*
X146953934Y-98817006D01*
X146962579Y-98821627D01*
X146970155Y-98827845D01*
X147150155Y-99007845D01*
X147156373Y-99015421D01*
X147160994Y-99024066D01*
X147163839Y-99033445D01*
X147164800Y-99043200D01*
X147164800Y-99113200D01*
X147163839Y-99122955D01*
X147160994Y-99132334D01*
X147156373Y-99140979D01*
X147150155Y-99148555D01*
X147142579Y-99154773D01*
X147133934Y-99159394D01*
X147124555Y-99162239D01*
X147114800Y-99163200D01*
X146714800Y-99163200D01*
X146705045Y-99162239D01*
X146695666Y-99159394D01*
X146687021Y-99154773D01*
X146679445Y-99148555D01*
X146673227Y-99140979D01*
X146668606Y-99132334D01*
X146665761Y-99122955D01*
X146664800Y-99113200D01*
X146664800Y-98863200D01*
X146665761Y-98853445D01*
G37*
%TD*%
%TO.C,J3*%
G36*
G01*
X146564800Y-97733800D02*
X146564800Y-97183800D01*
G75*
G02*
X146839800Y-96908800I275000J0D01*
G01*
X147889800Y-96908800D01*
G75*
G02*
X148164800Y-97183800I0J-275000D01*
G01*
X148164800Y-97733800D01*
G75*
G02*
X147889800Y-98008800I-275000J0D01*
G01*
X146839800Y-98008800D01*
G75*
G02*
X146564800Y-97733800I0J275000D01*
G01*
G37*
%TD*%
%TO.C,J2*%
G36*
G01*
X144427200Y-98761200D02*
X144427200Y-97461200D01*
G75*
G02*
X144702200Y-97186200I275000J0D01*
G01*
X145252200Y-97186200D01*
G75*
G02*
X145527200Y-97461200I0J-275000D01*
G01*
X145527200Y-98761200D01*
G75*
G02*
X145252200Y-99036200I-275000J0D01*
G01*
X144702200Y-99036200D01*
G75*
G02*
X144427200Y-98761200I0J275000D01*
G01*
G37*
%TD*%
D11*
%TO.C,J1*%
X150285800Y-96392000D03*
%TD*%
%TO.C,C2*%
G36*
G01*
X149037800Y-97263800D02*
X149037800Y-97653800D01*
G75*
G02*
X148867800Y-97823800I-170000J0D01*
G01*
X148527800Y-97823800D01*
G75*
G02*
X148357800Y-97653800I0J170000D01*
G01*
X148357800Y-97263800D01*
G75*
G02*
X148527800Y-97093800I170000J0D01*
G01*
X148867800Y-97093800D01*
G75*
G02*
X149037800Y-97263800I0J-170000D01*
G01*
G37*
G36*
G01*
X149927800Y-97263800D02*
X149927800Y-97653800D01*
G75*
G02*
X149757800Y-97823800I-170000J0D01*
G01*
X149417800Y-97823800D01*
G75*
G02*
X149247800Y-97653800I0J170000D01*
G01*
X149247800Y-97263800D01*
G75*
G02*
X149417800Y-97093800I170000J0D01*
G01*
X149757800Y-97093800D01*
G75*
G02*
X149927800Y-97263800I0J-170000D01*
G01*
G37*
%TD*%
%TO.C,C1*%
G36*
G01*
X146213600Y-98006200D02*
X145823600Y-98006200D01*
G75*
G02*
X145653600Y-97836200I0J170000D01*
G01*
X145653600Y-97496200D01*
G75*
G02*
X145823600Y-97326200I170000J0D01*
G01*
X146213600Y-97326200D01*
G75*
G02*
X146383600Y-97496200I0J-170000D01*
G01*
X146383600Y-97836200D01*
G75*
G02*
X146213600Y-98006200I-170000J0D01*
G01*
G37*
G36*
G01*
X146213600Y-98896200D02*
X145823600Y-98896200D01*
G75*
G02*
X145653600Y-98726200I0J170000D01*
G01*
X145653600Y-98386200D01*
G75*
G02*
X145823600Y-98216200I170000J0D01*
G01*
X146213600Y-98216200D01*
G75*
G02*
X146383600Y-98386200I0J-170000D01*
G01*
X146383600Y-98726200D01*
G75*
G02*
X146213600Y-98896200I-170000J0D01*
G01*
G37*
%TD*%
M02*
