%TF.GenerationSoftware,KiCad,Pcbnew,(5.1.6)-1*%
%TF.CreationDate,2020-09-30T18:01:57-07:00*%
%TF.ProjectId,Miniscope-v4-VDD-PIX-FC,4d696e69-7363-46f7-9065-2d76342d5644,rev?*%
%TF.SameCoordinates,Original*%
%TF.FileFunction,Other,ECO1*%
%FSLAX46Y46*%
G04 Gerber Fmt 4.6, Leading zero omitted, Abs format (unit mm)*
G04 Created by KiCad (PCBNEW (5.1.6)-1) date 2020-09-30 18:01:57*
%MOMM*%
%LPD*%
G01*
G04 APERTURE LIST*
%ADD10C,0.101600*%
G04 APERTURE END LIST*
%TO.C,L1*%
D10*
X149439133Y-98831609D02*
X149197228Y-98831609D01*
X149197228Y-98323609D01*
X149874561Y-98831609D02*
X149584276Y-98831609D01*
X149729419Y-98831609D02*
X149729419Y-98323609D01*
X149681038Y-98396180D01*
X149632657Y-98444561D01*
X149584276Y-98468752D01*
%TO.C,U1*%
X147028552Y-98435809D02*
X147028552Y-98847047D01*
X147052742Y-98895428D01*
X147076933Y-98919619D01*
X147125314Y-98943809D01*
X147222076Y-98943809D01*
X147270457Y-98919619D01*
X147294647Y-98895428D01*
X147318838Y-98847047D01*
X147318838Y-98435809D01*
X147826838Y-98943809D02*
X147536552Y-98943809D01*
X147681695Y-98943809D02*
X147681695Y-98435809D01*
X147633314Y-98508380D01*
X147584933Y-98556761D01*
X147536552Y-98580952D01*
%TO.C,J3*%
X147144666Y-97231409D02*
X147144666Y-97594266D01*
X147120476Y-97666838D01*
X147072095Y-97715219D01*
X146999523Y-97739409D01*
X146951142Y-97739409D01*
X147338190Y-97231409D02*
X147652666Y-97231409D01*
X147483333Y-97424933D01*
X147555904Y-97424933D01*
X147604285Y-97449123D01*
X147628476Y-97473314D01*
X147652666Y-97521695D01*
X147652666Y-97642647D01*
X147628476Y-97691028D01*
X147604285Y-97715219D01*
X147555904Y-97739409D01*
X147410761Y-97739409D01*
X147362380Y-97715219D01*
X147338190Y-97691028D01*
%TO.C,J2*%
X144782466Y-97909209D02*
X144782466Y-98272066D01*
X144758276Y-98344638D01*
X144709895Y-98393019D01*
X144637323Y-98417209D01*
X144588942Y-98417209D01*
X145000180Y-97957590D02*
X145024371Y-97933400D01*
X145072752Y-97909209D01*
X145193704Y-97909209D01*
X145242085Y-97933400D01*
X145266276Y-97957590D01*
X145290466Y-98005971D01*
X145290466Y-98054352D01*
X145266276Y-98126923D01*
X144975990Y-98417209D01*
X145290466Y-98417209D01*
%TO.C,J1*%
X150116466Y-96113809D02*
X150116466Y-96476666D01*
X150092276Y-96549238D01*
X150043895Y-96597619D01*
X149971323Y-96621809D01*
X149922942Y-96621809D01*
X150624466Y-96621809D02*
X150334180Y-96621809D01*
X150479323Y-96621809D02*
X150479323Y-96113809D01*
X150430942Y-96186380D01*
X150382561Y-96234761D01*
X150334180Y-96258952D01*
%TO.C,C2*%
X149058133Y-97640228D02*
X149033942Y-97664419D01*
X148961371Y-97688609D01*
X148912990Y-97688609D01*
X148840419Y-97664419D01*
X148792038Y-97616038D01*
X148767847Y-97567657D01*
X148743657Y-97470895D01*
X148743657Y-97398323D01*
X148767847Y-97301561D01*
X148792038Y-97253180D01*
X148840419Y-97204800D01*
X148912990Y-97180609D01*
X148961371Y-97180609D01*
X149033942Y-97204800D01*
X149058133Y-97228990D01*
X149251657Y-97228990D02*
X149275847Y-97204800D01*
X149324228Y-97180609D01*
X149445180Y-97180609D01*
X149493561Y-97204800D01*
X149517752Y-97228990D01*
X149541942Y-97277371D01*
X149541942Y-97325752D01*
X149517752Y-97398323D01*
X149227466Y-97688609D01*
X149541942Y-97688609D01*
%TO.C,C1*%
X146200028Y-98195866D02*
X146224219Y-98220057D01*
X146248409Y-98292628D01*
X146248409Y-98341009D01*
X146224219Y-98413580D01*
X146175838Y-98461961D01*
X146127457Y-98486152D01*
X146030695Y-98510342D01*
X145958123Y-98510342D01*
X145861361Y-98486152D01*
X145812980Y-98461961D01*
X145764600Y-98413580D01*
X145740409Y-98341009D01*
X145740409Y-98292628D01*
X145764600Y-98220057D01*
X145788790Y-98195866D01*
X146248409Y-97712057D02*
X146248409Y-98002342D01*
X146248409Y-97857200D02*
X145740409Y-97857200D01*
X145812980Y-97905580D01*
X145861361Y-97953961D01*
X145885552Y-98002342D01*
%TD*%
M02*
